G04 Layer_Color=255*
%FSLAX25Y25*%
%MOIN*%
G70*
G01*
G75*
%ADD51C,0.06000*%
%ADD52R,0.06000X0.06000*%
%ADD53C,0.05905*%
%ADD54R,0.05905X0.05905*%
%ADD55C,0.18000*%
%ADD56R,0.05905X0.05905*%
%ADD57O,0.17700X0.08850*%
%ADD58C,0.16200*%
%ADD59C,0.11811*%
%ADD60C,0.15748*%
%ADD61O,0.09842X0.11811*%
%ADD62R,0.05315X0.05315*%
%ADD63C,0.05315*%
%ADD66O,0.05000X0.01575*%
%ADD67R,0.05000X0.01575*%
D51*
X255500Y59500D02*
D03*
X265500D02*
D03*
X285500D02*
D03*
X295500D02*
D03*
X275500D02*
D03*
X305500D02*
D03*
X315500D02*
D03*
X325500D02*
D03*
X335500D02*
D03*
X345500D02*
D03*
X355500D02*
D03*
X365500D02*
D03*
X375500D02*
D03*
X385500D02*
D03*
X255500Y119500D02*
D03*
X265500D02*
D03*
X395500Y59500D02*
D03*
X385500Y119500D02*
D03*
X375500D02*
D03*
X365500D02*
D03*
X355500D02*
D03*
X345500D02*
D03*
X335500D02*
D03*
X325500D02*
D03*
X315500D02*
D03*
X305500D02*
D03*
X295500D02*
D03*
X285500D02*
D03*
X275500D02*
D03*
X33992Y370142D02*
D03*
X687535D02*
D03*
Y23685D02*
D03*
X23500Y24000D02*
D03*
D52*
X395500Y119500D02*
D03*
D53*
X257000Y40500D02*
D03*
X267000D02*
D03*
X277000D02*
D03*
X287000D02*
D03*
X297000D02*
D03*
X307000D02*
D03*
X317000D02*
D03*
X327000D02*
D03*
X337000D02*
D03*
X347000D02*
D03*
X357000D02*
D03*
X367000D02*
D03*
X377000D02*
D03*
X387000D02*
D03*
X395500Y132000D02*
D03*
X385500D02*
D03*
X375500D02*
D03*
X365500D02*
D03*
X355500D02*
D03*
X345500D02*
D03*
X335500D02*
D03*
X325500D02*
D03*
X315500D02*
D03*
X305500D02*
D03*
X295500D02*
D03*
X285500D02*
D03*
X275500D02*
D03*
X265500D02*
D03*
X642500Y261000D02*
D03*
X641500Y163500D02*
D03*
X642000Y238000D02*
D03*
Y228000D02*
D03*
Y218000D02*
D03*
Y208000D02*
D03*
X598500Y222874D02*
D03*
Y230748D02*
D03*
Y238622D02*
D03*
Y215000D02*
D03*
Y207126D02*
D03*
Y246496D02*
D03*
Y199252D02*
D03*
X558587Y128500D02*
D03*
X548587Y118500D02*
D03*
X558587D02*
D03*
X548587Y108500D02*
D03*
X558587D02*
D03*
X548587Y98500D02*
D03*
X558587D02*
D03*
X548587Y88500D02*
D03*
X558587D02*
D03*
X548587Y78500D02*
D03*
X558587D02*
D03*
X548587Y68500D02*
D03*
X558587D02*
D03*
X548587Y58500D02*
D03*
X558587D02*
D03*
X417500Y62500D02*
D03*
X427500Y52500D02*
D03*
Y62500D02*
D03*
X437500Y52500D02*
D03*
Y62500D02*
D03*
X447500Y52500D02*
D03*
Y62500D02*
D03*
X457500Y52500D02*
D03*
Y62500D02*
D03*
X467500Y52500D02*
D03*
Y62500D02*
D03*
X477500Y52500D02*
D03*
Y62500D02*
D03*
X487500Y52500D02*
D03*
Y62500D02*
D03*
X505500Y344000D02*
D03*
X495500D02*
D03*
X485500D02*
D03*
X475500D02*
D03*
X465500D02*
D03*
X455500D02*
D03*
X445500D02*
D03*
X515500Y334000D02*
D03*
X505500D02*
D03*
X495500D02*
D03*
X485500D02*
D03*
X475500D02*
D03*
X465500D02*
D03*
X455500D02*
D03*
X445500D02*
D03*
D54*
X397000Y40500D02*
D03*
X255500Y132000D02*
D03*
X417500Y52500D02*
D03*
X515500Y344000D02*
D03*
D55*
X584000Y339500D02*
D03*
X53677Y330772D02*
D03*
Y208724D02*
D03*
X630500Y337000D02*
D03*
D56*
X642500Y271000D02*
D03*
X641500Y173500D02*
D03*
X642000Y198000D02*
D03*
X548587Y128500D02*
D03*
D57*
X140000Y235500D02*
D03*
Y257500D02*
D03*
Y279500D02*
D03*
D58*
X64000Y257500D02*
D03*
D59*
X388500Y252874D02*
D03*
Y222874D02*
D03*
Y207874D02*
D03*
Y192874D02*
D03*
D60*
X588500Y252874D02*
D03*
Y192874D02*
D03*
D61*
Y237874D02*
D03*
Y222874D02*
D03*
Y207874D02*
D03*
D62*
X359500Y239843D02*
D03*
D63*
Y220157D02*
D03*
D66*
X410500Y78118D02*
D03*
X422114Y73000D02*
D03*
X410500D02*
D03*
X410514Y80677D02*
D03*
X422114Y78118D02*
D03*
Y75559D02*
D03*
X410500D02*
D03*
D67*
X422114Y80677D02*
D03*
M02*
