G04 Layer_Physical_Order=2*
G04 Layer_Color=16711680*
%FSLAX25Y25*%
%MOIN*%
G70*
G01*
G75*
%ADD24C,0.19685*%
%ADD25C,0.03937*%
%ADD26C,0.15748*%
%ADD28C,0.02000*%
%ADD29C,0.07874*%
%ADD30C,0.01200*%
%ADD51C,0.05905*%
%ADD52R,0.05905X0.05905*%
%ADD53R,0.05905X0.05905*%
%ADD54C,0.05315*%
%ADD55R,0.05315X0.05315*%
%ADD56C,0.15748*%
%ADD57O,0.09842X0.11811*%
%ADD58C,0.11811*%
%ADD59C,0.16200*%
%ADD60O,0.17700X0.08850*%
%ADD61C,0.18000*%
%ADD62C,0.06000*%
%ADD63R,0.06000X0.06000*%
%ADD64C,0.01968*%
%ADD65C,0.05000*%
%ADD66O,0.05000X0.01575*%
%ADD67R,0.05000X0.01575*%
%ADD68R,0.34000X0.55500*%
%ADD69R,0.51500X0.20000*%
%ADD70R,0.40000X0.12500*%
%ADD71R,0.34500X0.51000*%
%ADD72R,0.36000X0.50000*%
%ADD73R,0.37500X0.15000*%
D24*
X150000Y775500D02*
X169000D01*
X149500Y775000D02*
X150000Y775500D01*
X149500Y731500D02*
X169000D01*
X208000Y779000D02*
Y788500D01*
Y779000D02*
X303000Y684000D01*
X149500Y731500D02*
Y775000D01*
D25*
X623500Y546500D02*
X662500D01*
X616000Y539000D02*
X623500Y546500D01*
X616000Y537500D02*
Y539000D01*
X655000Y556500D02*
X677000D01*
X577587Y624500D02*
X587587D01*
X577587Y614500D02*
X587587D01*
X577587Y604500D02*
X587587D01*
X577587Y594500D02*
X587587D01*
X577587Y574500D02*
X587587D01*
X577587Y564500D02*
X587587D01*
X577587Y554500D02*
X587587D01*
X446500Y548500D02*
X456500D01*
X466500D01*
X456500Y558500D02*
X466500D01*
X476500D01*
X486500D01*
Y548500D02*
X496500D01*
X493500Y564500D02*
X496500Y561500D01*
Y558500D02*
Y561500D01*
Y548500D02*
X506500D01*
X496500Y558500D02*
X506500D01*
Y548500D02*
X516500D01*
X506500Y558500D02*
X516500D01*
X524500Y840000D02*
X534500D01*
X514500D02*
X524500D01*
X504500D02*
X514500D01*
X494500D02*
X504500D01*
X484500D02*
X494500D01*
X534500Y830000D02*
X544500D01*
X524500D02*
X534500D01*
X474500D02*
X484500D01*
X588800Y726800D02*
X595000Y733000D01*
X588800Y681500D02*
Y726800D01*
X662748Y702252D02*
X671000Y694000D01*
Y704000D02*
X676600Y698400D01*
X672500Y685400D02*
X676600Y689500D01*
Y698400D01*
X637478Y685400D02*
X672500D01*
X628500Y694378D02*
X637478Y685400D01*
X632500Y714000D02*
X671000D01*
X628500Y718000D02*
X632500Y714000D01*
X667000Y720000D02*
X671000Y724000D01*
X644600Y720000D02*
X667000D01*
X644500Y719900D02*
X644600Y720000D01*
X634700Y719900D02*
X644500D01*
X662874Y725874D02*
X671000Y734000D01*
X600100Y668900D02*
X661100D01*
X594000Y675000D02*
X600100Y668900D01*
X661100D02*
X670500Y659500D01*
X446500Y675000D02*
X594000D01*
X663200Y676800D02*
X670500Y669500D01*
X611200Y676800D02*
X663200D01*
X608000Y680000D02*
X611200Y676800D01*
X671500Y750748D02*
Y757000D01*
X654500Y733748D02*
X671500Y750748D01*
X646122Y741622D02*
X671500Y767000D01*
X628500Y741622D02*
X646122D01*
X628500Y725874D02*
X662874D01*
X628500Y702252D02*
X662748D01*
X628500Y733748D02*
X654500D01*
X608100Y715000D02*
X611100Y718000D01*
X624100Y572800D02*
X680400D01*
X646500Y565000D02*
X655000Y556500D01*
X608100Y702300D02*
Y715000D01*
X607000Y701200D02*
X608100Y702300D01*
X607000Y680000D02*
Y701200D01*
Y680000D02*
X608000D01*
X627500Y695252D02*
X629948Y697700D01*
X630400Y696278D02*
Y697248D01*
X628500Y694378D02*
X630400Y696278D01*
X627500Y703126D02*
Y705400D01*
X628000Y702252D02*
X628500D01*
X617500Y718000D02*
Y718874D01*
X627500D02*
X628500D01*
X627500Y726748D02*
X629952Y729200D01*
X630400Y727774D02*
Y728752D01*
X628500Y725874D02*
X630400Y727774D01*
X627500Y734622D02*
X628500D01*
X627500Y742496D02*
X628500D01*
X440400Y681100D02*
X446500Y675000D01*
X440274Y681100D02*
X440400D01*
X417500Y703874D02*
X440274Y681100D01*
X149500Y731500D02*
Y773500D01*
X440800Y621800D02*
X442100Y623100D01*
X320200Y621800D02*
X440800D01*
X313500Y628500D02*
X320200Y621800D01*
X311500Y523000D02*
X325000Y536500D01*
X284900Y523000D02*
X311500D01*
X277900Y530000D02*
X284900Y523000D01*
X277900Y530000D02*
Y560000D01*
X284100Y566200D01*
X342300D01*
X353500Y555000D01*
X345000Y536500D02*
X352000Y529500D01*
X427600D01*
X430600Y532500D01*
Y545800D01*
X426975Y549425D02*
X430600Y545800D01*
X339075Y549425D02*
X426975D01*
X333500Y555000D02*
X339075Y549425D01*
X346618Y544882D02*
X355000Y536500D01*
X333618Y544882D02*
X346618D01*
X323500Y555000D02*
X333618Y544882D01*
X595000Y733000D02*
X605600D01*
X628500Y741622D02*
Y742496D01*
X629952Y729200D02*
X630400Y728752D01*
X611100Y718000D02*
X618500D01*
X629948Y697700D02*
X630400Y697248D01*
X628000Y702252D02*
Y705400D01*
X627500D02*
X628000D01*
X628500Y718000D02*
Y718874D01*
Y733748D02*
Y734622D01*
X595000Y733000D02*
X618500D01*
X595000D02*
X617500D01*
D26*
X388000Y782000D02*
X388500Y782500D01*
Y735843D02*
Y782500D01*
X332500Y782000D02*
X388000D01*
X326500Y647500D02*
X352500Y673500D01*
X265000Y647500D02*
X326500D01*
X188000Y824000D02*
X236500D01*
X187500Y755500D02*
Y823500D01*
X188000Y824000D01*
X235500Y677000D02*
X265000Y647500D01*
X235500Y677000D02*
Y707500D01*
X187500Y755500D02*
X235500Y707500D01*
X578279Y830000D02*
X592759Y815520D01*
X642020D01*
X659500Y833000D01*
X544500Y830000D02*
X578279D01*
X352500Y673500D02*
Y684500D01*
D28*
X439500Y571559D02*
X443457D01*
X448410Y566606D01*
X481894D01*
X489787Y574500D01*
X497000D01*
X502000Y569500D01*
X451114Y576677D02*
X460500Y586063D01*
X461563Y585000D02*
X500500D01*
X460500Y586063D02*
X461563Y585000D01*
X456563Y590000D02*
X460500Y586063D01*
X455500Y590000D02*
X456563D01*
D29*
X633500Y563500D02*
X637500Y559500D01*
X615500Y563500D02*
X633500D01*
D30*
X447441Y571559D02*
X450614D01*
X444882Y574118D02*
X447441Y571559D01*
X439500Y574118D02*
X444882D01*
X451114Y569000D02*
X463000D01*
X473500Y579500D01*
X485500Y594000D02*
X493000Y601500D01*
Y623500D01*
X435808Y574808D02*
Y577503D01*
X436976Y578671D01*
X437912D01*
X453000Y593759D01*
Y613500D01*
X436500Y574118D02*
X439500D01*
X435808Y574808D02*
X436500Y574116D01*
X433500Y569000D02*
X439500D01*
X433500D02*
Y579500D01*
X449000Y595000D01*
X451114Y574118D02*
X458618D01*
X464500Y580000D01*
X463500Y590000D02*
X467500D01*
X486000Y608500D01*
X439514Y576677D02*
X441677D01*
X447500Y582500D01*
Y620000D02*
X469500D01*
X474500Y615000D01*
X436500Y574116D02*
Y574118D01*
D51*
X474500Y830000D02*
D03*
X484500D02*
D03*
X494500D02*
D03*
X504500D02*
D03*
X514500D02*
D03*
X524500D02*
D03*
X534500D02*
D03*
X544500D02*
D03*
X474500Y840000D02*
D03*
X484500D02*
D03*
X494500D02*
D03*
X504500D02*
D03*
X514500D02*
D03*
X524500D02*
D03*
X534500D02*
D03*
X516500Y558500D02*
D03*
Y548500D02*
D03*
X506500Y558500D02*
D03*
Y548500D02*
D03*
X496500Y558500D02*
D03*
Y548500D02*
D03*
X486500Y558500D02*
D03*
Y548500D02*
D03*
X476500Y558500D02*
D03*
Y548500D02*
D03*
X466500Y558500D02*
D03*
Y548500D02*
D03*
X456500Y558500D02*
D03*
Y548500D02*
D03*
X446500Y558500D02*
D03*
X587587Y554500D02*
D03*
X577587D02*
D03*
X587587Y564500D02*
D03*
X577587D02*
D03*
X587587Y574500D02*
D03*
X577587D02*
D03*
X587587Y584500D02*
D03*
X577587D02*
D03*
X587587Y594500D02*
D03*
X577587D02*
D03*
X587587Y604500D02*
D03*
X577587D02*
D03*
X587587Y614500D02*
D03*
X577587D02*
D03*
X587587Y624500D02*
D03*
X627500Y695252D02*
D03*
Y742496D02*
D03*
Y703126D02*
D03*
Y711000D02*
D03*
Y734622D02*
D03*
Y726748D02*
D03*
Y718874D02*
D03*
X671000Y704000D02*
D03*
Y714000D02*
D03*
Y724000D02*
D03*
Y734000D02*
D03*
X670500Y659500D02*
D03*
X671500Y757000D02*
D03*
X413500Y628500D02*
D03*
X403500D02*
D03*
X393500D02*
D03*
X383500D02*
D03*
X373500D02*
D03*
X363500D02*
D03*
X353500D02*
D03*
X343500D02*
D03*
X333500D02*
D03*
X323500D02*
D03*
X313500D02*
D03*
X303500D02*
D03*
X293500D02*
D03*
X283500D02*
D03*
X295000Y536500D02*
D03*
X305000D02*
D03*
X315000D02*
D03*
X325000D02*
D03*
X335000D02*
D03*
X345000D02*
D03*
X355000D02*
D03*
X365000D02*
D03*
X375000D02*
D03*
X385000D02*
D03*
X395000D02*
D03*
X405000D02*
D03*
X415000D02*
D03*
X425000D02*
D03*
D52*
X544500Y840000D02*
D03*
X446500Y548500D02*
D03*
X423500Y628500D02*
D03*
X285000Y536500D02*
D03*
D53*
X577587Y624500D02*
D03*
X671000Y694000D02*
D03*
X670500Y669500D02*
D03*
X671500Y767000D02*
D03*
D54*
X388500Y716157D02*
D03*
D55*
Y735843D02*
D03*
D56*
X617500Y688874D02*
D03*
Y748874D02*
D03*
D57*
Y703874D02*
D03*
Y718874D02*
D03*
Y733874D02*
D03*
D58*
X417500Y688874D02*
D03*
Y703874D02*
D03*
Y718874D02*
D03*
Y748874D02*
D03*
D59*
X93000Y753500D02*
D03*
D60*
X169000Y775500D02*
D03*
Y753500D02*
D03*
Y731500D02*
D03*
D61*
X613000Y835500D02*
D03*
X659500Y833000D02*
D03*
X82677Y704724D02*
D03*
Y826772D02*
D03*
D62*
X403500Y615000D02*
D03*
X393500D02*
D03*
X383500D02*
D03*
X373500D02*
D03*
X363500D02*
D03*
X353500D02*
D03*
X343500D02*
D03*
X333500D02*
D03*
X323500D02*
D03*
X313500D02*
D03*
X303500D02*
D03*
X293500D02*
D03*
X283500Y555000D02*
D03*
X413500Y615000D02*
D03*
X423500D02*
D03*
X293500Y555000D02*
D03*
X303500D02*
D03*
X313500D02*
D03*
X323500D02*
D03*
X333500D02*
D03*
X343500D02*
D03*
X353500D02*
D03*
X363500D02*
D03*
X373500D02*
D03*
X403500D02*
D03*
X383500D02*
D03*
X393500D02*
D03*
X413500D02*
D03*
X423500D02*
D03*
X52500Y520000D02*
D03*
X716535Y519685D02*
D03*
Y866142D02*
D03*
X62992D02*
D03*
D63*
X283500Y615000D02*
D03*
D64*
X668831Y539878D02*
D03*
Y535547D02*
D03*
X664500Y539878D02*
D03*
Y535547D02*
D03*
X660169Y539878D02*
D03*
Y535547D02*
D03*
D65*
X336500Y803000D02*
D03*
X333000Y709000D02*
D03*
X343500Y723000D02*
D03*
X493000Y623500D02*
D03*
X486000Y608500D02*
D03*
X474500Y615000D02*
D03*
X332500Y782000D02*
D03*
X359500Y813000D02*
D03*
Y761100D02*
D03*
X304000Y848500D02*
D03*
X305000Y757000D02*
D03*
X208000Y788500D02*
D03*
X303000Y684000D02*
D03*
X352500D02*
D03*
X236500Y824000D02*
D03*
X235500Y707500D02*
D03*
X680400Y572800D02*
D03*
X624100D02*
D03*
X662500Y546500D02*
D03*
X616000Y537500D02*
D03*
X677000Y556500D02*
D03*
X493500Y564500D02*
D03*
X588800Y681500D02*
D03*
X634700Y719900D02*
D03*
X637500Y559500D02*
D03*
X646500Y565000D02*
D03*
X615500Y563500D02*
D03*
X449000Y595000D02*
D03*
X453000Y613500D02*
D03*
X502000Y569500D02*
D03*
X500500Y585000D02*
D03*
X473500Y579500D02*
D03*
X485500Y594000D02*
D03*
X464500Y580000D02*
D03*
X455500Y590000D02*
D03*
X463500D02*
D03*
X447500Y582500D02*
D03*
Y620000D02*
D03*
X442100Y623100D02*
D03*
X605600Y733000D02*
D03*
D66*
X439500Y571559D02*
D03*
X451114D02*
D03*
Y574118D02*
D03*
X439514Y576677D02*
D03*
X439500Y569000D02*
D03*
X451114D02*
D03*
X439500Y574118D02*
D03*
D67*
X451114Y576677D02*
D03*
D68*
X306000Y826250D02*
D03*
D69*
X314750Y805000D02*
D03*
D70*
X360000Y721250D02*
D03*
D71*
X362750Y702000D02*
D03*
D72*
X306000Y740500D02*
D03*
D73*
X318750Y710000D02*
D03*
M02*
