G04 Layer_Color=32896*
%FSLAX25Y25*%
%MOIN*%
G70*
G01*
G75*
%ADD76C,0.00600*%
%ADD123C,0.00400*%
G36*
X629398Y556421D02*
X627429D01*
Y560161D01*
X629398D01*
Y556421D01*
D02*
G37*
G36*
X624798D02*
X622829D01*
Y560161D01*
X624798D01*
Y556421D01*
D02*
G37*
G36*
X609713D02*
X607744D01*
Y560161D01*
X609713D01*
Y556421D01*
D02*
G37*
G36*
X605113Y576106D02*
X603144D01*
Y579846D01*
X605113D01*
Y576106D01*
D02*
G37*
G36*
X629398D02*
X627429D01*
Y579846D01*
X629398D01*
Y576106D01*
D02*
G37*
G36*
X624798D02*
X622829D01*
Y579846D01*
X624798D01*
Y576106D01*
D02*
G37*
G36*
X609713D02*
X607744D01*
Y579846D01*
X609713D01*
Y576106D01*
D02*
G37*
G36*
X605113Y536736D02*
X603144D01*
Y540476D01*
X605113D01*
Y536736D01*
D02*
G37*
G36*
X629887Y518610D02*
X627918D01*
Y522350D01*
X629887D01*
Y518610D01*
D02*
G37*
G36*
X625287D02*
X623318D01*
Y522350D01*
X625287D01*
Y518610D01*
D02*
G37*
G36*
X609713Y536736D02*
X607744D01*
Y540476D01*
X609713D01*
Y536736D01*
D02*
G37*
G36*
X605113Y556421D02*
X603144D01*
Y560161D01*
X605113D01*
Y556421D01*
D02*
G37*
G36*
X629398Y536736D02*
X627429D01*
Y540476D01*
X629398D01*
Y536736D01*
D02*
G37*
G36*
X624798D02*
X622829D01*
Y540476D01*
X624798D01*
Y536736D01*
D02*
G37*
G36*
X191343Y781247D02*
X184650D01*
Y784200D01*
X191343D01*
Y781247D01*
D02*
G37*
G36*
X191350Y770800D02*
X184657D01*
Y773753D01*
X191350D01*
Y770800D01*
D02*
G37*
G36*
X326181Y763338D02*
X325000D01*
Y765700D01*
X326181D01*
Y763338D01*
D02*
G37*
G36*
X346481Y781838D02*
X345300D01*
Y784200D01*
X346481D01*
Y781838D01*
D02*
G37*
G36*
X351769Y811150D02*
X349800D01*
Y814890D01*
X351769D01*
Y811150D01*
D02*
G37*
G36*
X347169D02*
X345200D01*
Y814890D01*
X347169D01*
Y811150D01*
D02*
G37*
G36*
X349681Y781838D02*
X348500D01*
Y784200D01*
X349681D01*
Y781838D01*
D02*
G37*
G36*
X344200Y728319D02*
X341838D01*
Y729500D01*
X344200D01*
Y728319D01*
D02*
G37*
G36*
X354200Y705657D02*
X351247D01*
Y712350D01*
X354200D01*
Y705657D01*
D02*
G37*
G36*
X343753Y705650D02*
X340800D01*
Y712343D01*
X343753D01*
Y705650D01*
D02*
G37*
G36*
X344200Y731519D02*
X341838D01*
Y732700D01*
X344200D01*
Y731519D01*
D02*
G37*
G36*
X322981Y763338D02*
X321800D01*
Y765700D01*
X322981D01*
Y763338D01*
D02*
G37*
G36*
X351181Y762338D02*
X350000D01*
Y764700D01*
X351181D01*
Y762338D01*
D02*
G37*
G36*
X347981D02*
X346800D01*
Y764700D01*
X347981D01*
Y762338D01*
D02*
G37*
D76*
X323035Y765382D02*
X324965D01*
X323035Y763618D02*
X324965D01*
X348035Y764382D02*
X349965D01*
X348035Y762618D02*
X349965D01*
X343882Y729535D02*
Y731465D01*
X342118Y729535D02*
Y731465D01*
X346535Y783882D02*
X348465D01*
X346535Y782118D02*
X348465D01*
D123*
X625185Y522150D02*
X627989D01*
X625185Y518799D02*
X627989D01*
X184902Y773701D02*
Y781299D01*
X191098Y773701D02*
Y781299D01*
X624696Y559961D02*
X627500D01*
X624696Y556610D02*
X627500D01*
X624696Y540276D02*
X627500D01*
X624696Y536925D02*
X627500D01*
X624696Y579646D02*
X627500D01*
X624696Y576295D02*
X627500D01*
X605011Y540276D02*
X607815D01*
X605011Y536925D02*
X607815D01*
X605011Y559961D02*
X607815D01*
X605011Y556610D02*
X607815D01*
X605011Y579646D02*
X607815D01*
X605011Y576295D02*
X607815D01*
X343701Y705902D02*
X351299D01*
X343701Y712098D02*
X351299D01*
X347098Y811350D02*
X349902D01*
X347098Y814701D02*
X349902D01*
M02*
