G04 Layer_Color=255*
%FSLAX25Y25*%
%MOIN*%
G70*
G01*
G75*
%ADD51C,0.05905*%
%ADD52R,0.05905X0.05905*%
%ADD53R,0.05905X0.05905*%
%ADD54C,0.05315*%
%ADD55R,0.05315X0.05315*%
%ADD56C,0.15748*%
%ADD57O,0.09842X0.11811*%
%ADD58C,0.11811*%
%ADD59C,0.16200*%
%ADD60O,0.17700X0.08850*%
%ADD61C,0.18000*%
%ADD62C,0.06000*%
%ADD63R,0.06000X0.06000*%
%ADD66O,0.05000X0.01575*%
%ADD67R,0.05000X0.01575*%
D51*
X474500Y830000D02*
D03*
X484500D02*
D03*
X494500D02*
D03*
X504500D02*
D03*
X514500D02*
D03*
X524500D02*
D03*
X534500D02*
D03*
X544500D02*
D03*
X474500Y840000D02*
D03*
X484500D02*
D03*
X494500D02*
D03*
X504500D02*
D03*
X514500D02*
D03*
X524500D02*
D03*
X534500D02*
D03*
X516500Y558500D02*
D03*
Y548500D02*
D03*
X506500Y558500D02*
D03*
Y548500D02*
D03*
X496500Y558500D02*
D03*
Y548500D02*
D03*
X486500Y558500D02*
D03*
Y548500D02*
D03*
X476500Y558500D02*
D03*
Y548500D02*
D03*
X466500Y558500D02*
D03*
Y548500D02*
D03*
X456500Y558500D02*
D03*
Y548500D02*
D03*
X446500Y558500D02*
D03*
X587587Y554500D02*
D03*
X577587D02*
D03*
X587587Y564500D02*
D03*
X577587D02*
D03*
X587587Y574500D02*
D03*
X577587D02*
D03*
X587587Y584500D02*
D03*
X577587D02*
D03*
X587587Y594500D02*
D03*
X577587D02*
D03*
X587587Y604500D02*
D03*
X577587D02*
D03*
X587587Y614500D02*
D03*
X577587D02*
D03*
X587587Y624500D02*
D03*
X627500Y695252D02*
D03*
Y742496D02*
D03*
Y703126D02*
D03*
Y711000D02*
D03*
Y734622D02*
D03*
Y726748D02*
D03*
Y718874D02*
D03*
X671000Y704000D02*
D03*
Y714000D02*
D03*
Y724000D02*
D03*
Y734000D02*
D03*
X670500Y659500D02*
D03*
X671500Y757000D02*
D03*
X413500Y628500D02*
D03*
X403500D02*
D03*
X393500D02*
D03*
X383500D02*
D03*
X373500D02*
D03*
X363500D02*
D03*
X353500D02*
D03*
X343500D02*
D03*
X333500D02*
D03*
X323500D02*
D03*
X313500D02*
D03*
X303500D02*
D03*
X293500D02*
D03*
X283500D02*
D03*
X295000Y536500D02*
D03*
X305000D02*
D03*
X315000D02*
D03*
X325000D02*
D03*
X335000D02*
D03*
X345000D02*
D03*
X355000D02*
D03*
X365000D02*
D03*
X375000D02*
D03*
X385000D02*
D03*
X395000D02*
D03*
X405000D02*
D03*
X415000D02*
D03*
X425000D02*
D03*
D52*
X544500Y840000D02*
D03*
X446500Y548500D02*
D03*
X423500Y628500D02*
D03*
X285000Y536500D02*
D03*
D53*
X577587Y624500D02*
D03*
X671000Y694000D02*
D03*
X670500Y669500D02*
D03*
X671500Y767000D02*
D03*
D54*
X388500Y716157D02*
D03*
D55*
Y735843D02*
D03*
D56*
X617500Y688874D02*
D03*
Y748874D02*
D03*
D57*
Y703874D02*
D03*
Y718874D02*
D03*
Y733874D02*
D03*
D58*
X417500Y688874D02*
D03*
Y703874D02*
D03*
Y718874D02*
D03*
Y748874D02*
D03*
D59*
X93000Y753500D02*
D03*
D60*
X169000Y775500D02*
D03*
Y753500D02*
D03*
Y731500D02*
D03*
D61*
X613000Y835500D02*
D03*
X659500Y833000D02*
D03*
X82677Y704724D02*
D03*
Y826772D02*
D03*
D62*
X403500Y615000D02*
D03*
X393500D02*
D03*
X383500D02*
D03*
X373500D02*
D03*
X363500D02*
D03*
X353500D02*
D03*
X343500D02*
D03*
X333500D02*
D03*
X323500D02*
D03*
X313500D02*
D03*
X303500D02*
D03*
X293500D02*
D03*
X283500Y555000D02*
D03*
X413500Y615000D02*
D03*
X423500D02*
D03*
X293500Y555000D02*
D03*
X303500D02*
D03*
X313500D02*
D03*
X323500D02*
D03*
X333500D02*
D03*
X343500D02*
D03*
X353500D02*
D03*
X363500D02*
D03*
X373500D02*
D03*
X403500D02*
D03*
X383500D02*
D03*
X393500D02*
D03*
X413500D02*
D03*
X423500D02*
D03*
X52500Y520000D02*
D03*
X716535Y519685D02*
D03*
Y866142D02*
D03*
X62992D02*
D03*
D63*
X283500Y615000D02*
D03*
D66*
X439500Y571559D02*
D03*
X451114D02*
D03*
Y574118D02*
D03*
X439514Y576677D02*
D03*
X439500Y569000D02*
D03*
X451114D02*
D03*
X439500Y574118D02*
D03*
D67*
X451114Y576677D02*
D03*
M02*
