G04 Layer_Color=8388736*
%FSLAX25Y25*%
%MOIN*%
G70*
G01*
G75*
%ADD77C,0.00200*%
D77*
X632886Y517744D02*
Y523256D01*
X620288D02*
X632886D01*
X620288Y517744D02*
Y523256D01*
Y517744D02*
X632886D01*
X329799Y762598D02*
Y766402D01*
X318201D02*
X329799D01*
X318201Y762598D02*
Y766402D01*
Y762598D02*
X329799D01*
X184130Y767764D02*
X191870D01*
X184130Y787236D02*
X191870D01*
X184130Y767764D02*
Y787236D01*
X191870Y767764D02*
Y787236D01*
X632397Y555555D02*
Y561067D01*
X619799D02*
X632397D01*
X619799Y555555D02*
Y561067D01*
Y555555D02*
X632397D01*
Y535870D02*
Y541382D01*
X619799D02*
X632397D01*
X619799Y535870D02*
Y541382D01*
Y535870D02*
X632397D01*
Y575240D02*
Y580752D01*
X619799D02*
X632397D01*
X619799Y575240D02*
Y580752D01*
Y575240D02*
X632397D01*
X612712Y535870D02*
Y541382D01*
X600114D02*
X612712D01*
X600114Y535870D02*
Y541382D01*
Y535870D02*
X612712D01*
Y555555D02*
Y561067D01*
X600114D02*
X612712D01*
X600114Y555555D02*
Y561067D01*
Y555555D02*
X612712D01*
Y575240D02*
Y580752D01*
X600114D02*
X612712D01*
X600114Y575240D02*
Y580752D01*
Y575240D02*
X612712D01*
X354799Y761598D02*
Y765402D01*
X343201D02*
X354799D01*
X343201Y761598D02*
Y765402D01*
Y761598D02*
X354799D01*
X341098Y724701D02*
X344902D01*
Y736299D01*
X341098D02*
X344902D01*
X341098Y724701D02*
Y736299D01*
X357236Y705130D02*
Y712870D01*
X337764Y705130D02*
Y712870D01*
Y705130D02*
X357236D01*
X337764Y712870D02*
X357236D01*
X353299Y781098D02*
Y784902D01*
X341701D02*
X353299D01*
X341701Y781098D02*
Y784902D01*
Y781098D02*
X353299D01*
X342201Y810244D02*
Y815756D01*
Y810244D02*
X354799D01*
Y815756D01*
X342201D02*
X354799D01*
M02*
