G04 Layer_Physical_Order=2*
G04 Layer_Color=16711680*
%FSLAX25Y25*%
%MOIN*%
G70*
G01*
G75*
%ADD24C,0.15748*%
%ADD25C,0.03937*%
%ADD26C,0.19685*%
%ADD27C,0.01200*%
%ADD28C,0.02000*%
%ADD29C,0.07874*%
%ADD51C,0.06000*%
%ADD52R,0.06000X0.06000*%
%ADD53C,0.05905*%
%ADD54R,0.05905X0.05905*%
%ADD55C,0.18000*%
%ADD56R,0.05905X0.05905*%
%ADD57O,0.17700X0.08850*%
%ADD58C,0.16200*%
%ADD59C,0.11811*%
%ADD60C,0.15748*%
%ADD61O,0.09842X0.11811*%
%ADD62R,0.05315X0.05315*%
%ADD63C,0.05315*%
%ADD64C,0.05000*%
%ADD65C,0.01968*%
%ADD66O,0.05000X0.01575*%
%ADD67R,0.05000X0.01575*%
%ADD68R,0.37500X0.15000*%
%ADD69R,0.36000X0.50000*%
%ADD70R,0.34500X0.51000*%
%ADD71R,0.40000X0.12500*%
%ADD72R,0.51500X0.20000*%
%ADD73R,0.34000X0.55500*%
G36*
X712500Y397000D02*
X712500Y-0D01*
X348Y0D01*
X-3Y356D01*
X5418Y397000D01*
X712500Y397000D01*
D02*
G37*
%LPC*%
G36*
X275500Y123830D02*
X272439Y122562D01*
X271170Y119500D01*
X272439Y116438D01*
X275500Y115170D01*
X278561Y116438D01*
X279830Y119500D01*
X278561Y122562D01*
X275500Y123830D01*
D02*
G37*
G36*
X285500D02*
X282438Y122562D01*
X281170Y119500D01*
X282438Y116438D01*
X285500Y115170D01*
X288562Y116438D01*
X289830Y119500D01*
X288562Y122562D01*
X285500Y123830D01*
D02*
G37*
G36*
X255500D02*
X252438Y122562D01*
X251170Y119500D01*
X252438Y116438D01*
X255500Y115170D01*
X258561Y116438D01*
X259830Y119500D01*
X258561Y122562D01*
X255500Y123830D01*
D02*
G37*
G36*
X265500D02*
X262439Y122562D01*
X261170Y119500D01*
X262439Y116438D01*
X265500Y115170D01*
X268562Y116438D01*
X269830Y119500D01*
X268562Y122562D01*
X265500Y123830D01*
D02*
G37*
G36*
X315500D02*
X312439Y122562D01*
X311170Y119500D01*
X312439Y116438D01*
X315500Y115170D01*
X318562Y116438D01*
X319830Y119500D01*
X318562Y122562D01*
X315500Y123830D01*
D02*
G37*
G36*
X325500D02*
X322439Y122562D01*
X321170Y119500D01*
X322439Y116438D01*
X325500Y115170D01*
X328561Y116438D01*
X329830Y119500D01*
X328561Y122562D01*
X325500Y123830D01*
D02*
G37*
G36*
X295500D02*
X292439Y122562D01*
X291170Y119500D01*
X292439Y116438D01*
X295500Y115170D01*
X298562Y116438D01*
X299830Y119500D01*
X298562Y122562D01*
X295500Y123830D01*
D02*
G37*
G36*
X305500D02*
X302438Y122562D01*
X301170Y119500D01*
X302438Y116438D01*
X305500Y115170D01*
X308561Y116438D01*
X309830Y119500D01*
X308561Y122562D01*
X305500Y123830D01*
D02*
G37*
G36*
X475081Y88500D02*
X472000D01*
Y85419D01*
X474179Y86321D01*
X475081Y88500D01*
D02*
G37*
G36*
X472000Y92581D02*
Y89500D01*
X475081D01*
X474179Y91679D01*
X472000Y92581D01*
D02*
G37*
G36*
X548587Y92778D02*
X545561Y91525D01*
X544308Y88500D01*
X545561Y85475D01*
X548587Y84222D01*
X551612Y85475D01*
X552865Y88500D01*
X551612Y91525D01*
X548587Y92778D01*
D02*
G37*
G36*
X558587D02*
X555561Y91525D01*
X554308Y88500D01*
X555561Y85475D01*
X558587Y84222D01*
X561612Y85475D01*
X562865Y88500D01*
X561612Y91525D01*
X558587Y92778D01*
D02*
G37*
G36*
X424000Y121288D02*
X421321Y120179D01*
X420212Y117500D01*
X421321Y114821D01*
X422694Y114252D01*
Y102214D01*
X422194Y101880D01*
X420000Y102788D01*
X417321Y101679D01*
X416212Y99000D01*
X416780Y97627D01*
X403577Y84423D01*
X403194Y83500D01*
Y73000D01*
X403577Y72077D01*
X404500Y71694D01*
X408298D01*
X408787Y71491D01*
X412213D01*
X413279Y71933D01*
X413721Y73000D01*
X413630Y73221D01*
X414053Y73504D01*
X418181Y69377D01*
X418878Y69088D01*
X419410Y68868D01*
X452894D01*
X454123Y69377D01*
X461508Y76761D01*
X467280D01*
X469601Y74440D01*
X469212Y73500D01*
X470321Y70821D01*
X473000Y69712D01*
X475679Y70821D01*
X476788Y73500D01*
X475679Y76179D01*
X473000Y77288D01*
X472060Y76899D01*
X469229Y79729D01*
X468000Y80239D01*
X460787D01*
X459558Y79729D01*
X452174Y72345D01*
X435845D01*
X435653Y72807D01*
X443127Y80280D01*
X444500Y79712D01*
X447179Y80821D01*
X448288Y83500D01*
X447179Y86179D01*
X445749Y86771D01*
X445847Y87261D01*
X468432D01*
X468821Y86321D01*
X471000Y85419D01*
Y89000D01*
Y92581D01*
X468821Y91679D01*
X468432Y90739D01*
X437054D01*
X436956Y91229D01*
X437179Y91321D01*
X437747Y92694D01*
X438500D01*
X439423Y93077D01*
X455627Y109280D01*
X457000Y108712D01*
X459679Y109821D01*
X460788Y112500D01*
X459679Y115179D01*
X457000Y116288D01*
X454321Y115179D01*
X453212Y112500D01*
X453780Y111127D01*
X438192Y95539D01*
X437603Y95654D01*
X437179Y96679D01*
X434500Y97788D01*
X431821Y96679D01*
X430750Y94093D01*
X430250D01*
X429179Y96679D01*
X427000Y97581D01*
Y94000D01*
Y90419D01*
X428192Y90912D01*
X429041Y90063D01*
X421443Y82465D01*
X419210D01*
X419111Y82965D01*
X421179Y83821D01*
X422288Y86500D01*
X421179Y89179D01*
X418913Y90118D01*
X418795Y90707D01*
X422250Y94162D01*
X422736Y93941D01*
X423821Y91321D01*
X426000Y90419D01*
Y94000D01*
Y97581D01*
X425677Y97447D01*
X425306Y97835D01*
Y114252D01*
X426679Y114821D01*
X427788Y117500D01*
X426679Y120179D01*
X424000Y121288D01*
D02*
G37*
G36*
X558587Y112778D02*
X555561Y111525D01*
X555463Y111287D01*
X551711D01*
X551612Y111525D01*
X548587Y112778D01*
X545561Y111525D01*
X544308Y108500D01*
X545561Y105475D01*
X548587Y104222D01*
X551612Y105475D01*
X551711Y105713D01*
X555463D01*
X555561Y105475D01*
X558587Y104222D01*
X561612Y105475D01*
X562865Y108500D01*
X561612Y111525D01*
X558587Y112778D01*
D02*
G37*
G36*
X464000Y131288D02*
X461321Y130179D01*
X460212Y127500D01*
X461321Y124821D01*
X462694Y124252D01*
Y106041D01*
X457873Y101220D01*
X456500Y101788D01*
X453821Y100679D01*
X452712Y98000D01*
X453821Y95321D01*
X456500Y94212D01*
X459179Y95321D01*
X460288Y98000D01*
X459720Y99373D01*
X464923Y104577D01*
X465306Y105500D01*
Y124252D01*
X466679Y124821D01*
X467788Y127500D01*
X466679Y130179D01*
X464000Y131288D01*
D02*
G37*
G36*
X558587Y102778D02*
X555561Y101525D01*
X555463Y101287D01*
X551711D01*
X551612Y101525D01*
X548587Y102778D01*
X545561Y101525D01*
X544308Y98500D01*
X545561Y95475D01*
X548587Y94222D01*
X551612Y95475D01*
X551711Y95713D01*
X555463D01*
X555561Y95475D01*
X558587Y94222D01*
X561612Y95475D01*
X562865Y98500D01*
X561612Y101525D01*
X558587Y102778D01*
D02*
G37*
G36*
X275500Y136278D02*
X272475Y135025D01*
X271222Y132000D01*
X272475Y128975D01*
X275500Y127722D01*
X278525Y128975D01*
X279778Y132000D01*
X278525Y135025D01*
X275500Y136278D01*
D02*
G37*
G36*
X285500D02*
X282475Y135025D01*
X281222Y132000D01*
X282475Y128975D01*
X285500Y127722D01*
X288525Y128975D01*
X289778Y132000D01*
X288525Y135025D01*
X285500Y136278D01*
D02*
G37*
G36*
X558587Y122778D02*
X555561Y121525D01*
X555463Y121287D01*
X551711D01*
X551612Y121525D01*
X548587Y122778D01*
X545561Y121525D01*
X544308Y118500D01*
X545561Y115475D01*
X548587Y114222D01*
X551612Y115475D01*
X551711Y115713D01*
X555463D01*
X555561Y115475D01*
X558587Y114222D01*
X561612Y115475D01*
X562865Y118500D01*
X561612Y121525D01*
X558587Y122778D01*
D02*
G37*
G36*
X265500Y136278D02*
X262475Y135025D01*
X261222Y132000D01*
X262475Y128975D01*
X265500Y127722D01*
X268525Y128975D01*
X269778Y132000D01*
X268525Y135025D01*
X265500Y136278D01*
D02*
G37*
G36*
X315500D02*
X312475Y135025D01*
X311222Y132000D01*
X312475Y128975D01*
X315500Y127722D01*
X318525Y128975D01*
X319778Y132000D01*
X318525Y135025D01*
X315500Y136278D01*
D02*
G37*
G36*
X325500D02*
X322475Y135025D01*
X321222Y132000D01*
X322475Y128975D01*
X325500Y127722D01*
X328525Y128975D01*
X329778Y132000D01*
X328525Y135025D01*
X325500Y136278D01*
D02*
G37*
G36*
X295500D02*
X292475Y135025D01*
X291222Y132000D01*
X292475Y128975D01*
X295500Y127722D01*
X298525Y128975D01*
X299778Y132000D01*
X298525Y135025D01*
X295500Y136278D01*
D02*
G37*
G36*
X305500D02*
X302475Y135025D01*
X301222Y132000D01*
X302475Y128975D01*
X305500Y127722D01*
X308525Y128975D01*
X309778Y132000D01*
X308525Y135025D01*
X305500Y136278D01*
D02*
G37*
G36*
X355500Y123830D02*
X352438Y122562D01*
X351170Y119500D01*
X352438Y116438D01*
X355500Y115170D01*
X358561Y116438D01*
X359830Y119500D01*
X358561Y122562D01*
X355500Y123830D01*
D02*
G37*
G36*
X413600Y130681D02*
Y127100D01*
Y123519D01*
X414719Y123982D01*
X415821Y121321D01*
X418500Y120212D01*
X421179Y121321D01*
X421747Y122694D01*
X439959D01*
X442280Y120373D01*
X441712Y119000D01*
X442821Y116321D01*
X445500Y115212D01*
X448179Y116321D01*
X449288Y119000D01*
X448179Y121679D01*
X445500Y122788D01*
X444127Y122220D01*
X441423Y124923D01*
X440500Y125306D01*
X421747D01*
X421179Y126679D01*
X418500Y127788D01*
X416881Y127118D01*
X415779Y129779D01*
X413600Y130681D01*
D02*
G37*
G36*
X335500Y123830D02*
X332438Y122562D01*
X331170Y119500D01*
X332438Y116438D01*
X335500Y115170D01*
X338562Y116438D01*
X339830Y119500D01*
X338562Y122562D01*
X335500Y123830D01*
D02*
G37*
G36*
X345500D02*
X342439Y122562D01*
X341170Y119500D01*
X342439Y116438D01*
X345500Y115170D01*
X348562Y116438D01*
X349830Y119500D01*
X348562Y122562D01*
X345500Y123830D01*
D02*
G37*
G36*
X365000Y123623D02*
X362439Y122562D01*
X361378Y120000D01*
X365000D01*
Y123623D01*
D02*
G37*
G36*
X366000D02*
Y120000D01*
X369622D01*
X368562Y122562D01*
X366000Y123623D01*
D02*
G37*
G36*
X365000Y119000D02*
X361378D01*
X362439Y116438D01*
X365000Y115377D01*
Y119000D01*
D02*
G37*
G36*
X369622D02*
X366000D01*
Y115377D01*
X368562Y116438D01*
X369622Y119000D01*
D02*
G37*
G36*
X558587Y82778D02*
X555561Y81525D01*
X555463Y81287D01*
X551711D01*
X551612Y81525D01*
X548587Y82778D01*
X545561Y81525D01*
X544308Y78500D01*
X545561Y75475D01*
X548587Y74222D01*
X551612Y75475D01*
X551711Y75713D01*
X555463D01*
X555561Y75475D01*
X558587Y74222D01*
X561612Y75475D01*
X562865Y78500D01*
X561612Y81525D01*
X558587Y82778D01*
D02*
G37*
G36*
X337000Y44778D02*
X333975Y43525D01*
X332722Y40500D01*
X333975Y37475D01*
X337000Y36222D01*
X340025Y37475D01*
X341278Y40500D01*
X340025Y43525D01*
X337000Y44778D01*
D02*
G37*
G36*
X639831Y46026D02*
X638312Y45397D01*
X637936Y44489D01*
X637395D01*
X637019Y45397D01*
X635500Y46026D01*
X633981Y45397D01*
X633605Y44489D01*
X633064D01*
X632688Y45397D01*
X631169Y46026D01*
X629651Y45397D01*
X629022Y43878D01*
X629651Y42359D01*
X630559Y41983D01*
Y41442D01*
X629651Y41066D01*
X629022Y39547D01*
X629651Y38028D01*
X631169Y37400D01*
X632688Y38028D01*
X633064Y38936D01*
X633605D01*
X633981Y38028D01*
X635500Y37400D01*
X637019Y38028D01*
X637395Y38936D01*
X637936D01*
X638312Y38028D01*
X639831Y37400D01*
X641350Y38028D01*
X641979Y39547D01*
X641350Y41066D01*
X640441Y41442D01*
Y41983D01*
X641350Y42359D01*
X641979Y43878D01*
X641350Y45397D01*
X639831Y46026D01*
D02*
G37*
G36*
X317000Y44778D02*
X313975Y43525D01*
X312722Y40500D01*
X313975Y37475D01*
X317000Y36222D01*
X320025Y37475D01*
X321278Y40500D01*
X320025Y43525D01*
X317000Y44778D01*
D02*
G37*
G36*
X327000D02*
X323975Y43525D01*
X322722Y40500D01*
X323975Y37475D01*
X327000Y36222D01*
X330025Y37475D01*
X331278Y40500D01*
X330025Y43525D01*
X327000Y44778D01*
D02*
G37*
G36*
X255500Y63830D02*
X252438Y62562D01*
X251170Y59500D01*
X252438Y56438D01*
X255500Y55170D01*
X258561Y56438D01*
X259830Y59500D01*
X258561Y62562D01*
X255500Y63830D01*
D02*
G37*
G36*
X265500D02*
X262439Y62562D01*
X261170Y59500D01*
X262439Y56438D01*
X265500Y55170D01*
X268562Y56438D01*
X269830Y59500D01*
X268562Y62562D01*
X265500Y63830D01*
D02*
G37*
G36*
X633500Y54288D02*
X631082Y53287D01*
X594500D01*
X592529Y52471D01*
X585029Y44971D01*
X584780Y44369D01*
X584321Y44179D01*
X583212Y41500D01*
X584321Y38821D01*
X587000Y37712D01*
X589679Y38821D01*
X590788Y41500D01*
X590394Y42452D01*
X595654Y47713D01*
X631082D01*
X633500Y46712D01*
X636179Y47821D01*
X637288Y50500D01*
X636179Y53179D01*
X633500Y54288D01*
D02*
G37*
G36*
X447500Y56778D02*
X444475Y55525D01*
X443222Y52500D01*
X444475Y49475D01*
X447500Y48222D01*
X450525Y49475D01*
X451778Y52500D01*
X450525Y55525D01*
X447500Y56778D01*
D02*
G37*
G36*
X257000Y44778D02*
X253975Y43525D01*
X252722Y40500D01*
X253975Y37475D01*
X257000Y36222D01*
X260025Y37475D01*
X261278Y40500D01*
X260025Y43525D01*
X257000Y44778D01*
D02*
G37*
G36*
X267000D02*
X263975Y43525D01*
X262722Y40500D01*
X263975Y37475D01*
X267000Y36222D01*
X270025Y37475D01*
X271278Y40500D01*
X270025Y43525D01*
X267000Y44778D01*
D02*
G37*
G36*
X687535Y44775D02*
X679464Y43170D01*
X672622Y38598D01*
X668050Y31756D01*
X666445Y23685D01*
X668050Y15614D01*
X672622Y8772D01*
X679464Y4200D01*
X687535Y2595D01*
X695606Y4200D01*
X702449Y8772D01*
X707020Y15614D01*
X708626Y23685D01*
X707020Y31756D01*
X702449Y38598D01*
X695606Y43170D01*
X687535Y44775D01*
D02*
G37*
G36*
X23500Y45090D02*
X15429Y43485D01*
X8587Y38913D01*
X4015Y32071D01*
X2410Y24000D01*
X4015Y15929D01*
X8587Y9087D01*
X15429Y4515D01*
X23500Y2910D01*
X31571Y4515D01*
X38413Y9087D01*
X42985Y15929D01*
X44590Y24000D01*
X42985Y32071D01*
X38413Y38913D01*
X31571Y43485D01*
X23500Y45090D01*
D02*
G37*
G36*
X297000Y44778D02*
X293975Y43525D01*
X292722Y40500D01*
X293975Y37475D01*
X297000Y36222D01*
X300025Y37475D01*
X301278Y40500D01*
X300025Y43525D01*
X297000Y44778D01*
D02*
G37*
G36*
X307000D02*
X303975Y43525D01*
X302722Y40500D01*
X303975Y37475D01*
X307000Y36222D01*
X310025Y37475D01*
X311278Y40500D01*
X310025Y43525D01*
X307000Y44778D01*
D02*
G37*
G36*
X277000D02*
X273975Y43525D01*
X272722Y40500D01*
X273975Y37475D01*
X277000Y36222D01*
X280025Y37475D01*
X281278Y40500D01*
X280025Y43525D01*
X277000Y44778D01*
D02*
G37*
G36*
X287000D02*
X283975Y43525D01*
X282722Y40500D01*
X283975Y37475D01*
X287000Y36222D01*
X290025Y37475D01*
X291278Y40500D01*
X290025Y43525D01*
X287000Y44778D01*
D02*
G37*
G36*
X604500Y72418D02*
X586500D01*
X583023Y70977D01*
X581582Y67500D01*
X583023Y64023D01*
X586500Y62582D01*
X602463D01*
X605023Y60023D01*
X608500Y58582D01*
X611977Y60023D01*
X613418Y63500D01*
X611977Y66977D01*
X607977Y70977D01*
X604500Y72418D01*
D02*
G37*
G36*
X558587Y62778D02*
X555561Y61525D01*
X555463Y61287D01*
X551711D01*
X551612Y61525D01*
X548587Y62778D01*
X545561Y61525D01*
X544308Y58500D01*
X545561Y55475D01*
X548587Y54222D01*
X551612Y55475D01*
X551711Y55713D01*
X555463D01*
X555561Y55475D01*
X558587Y54222D01*
X561612Y55475D01*
X562865Y58500D01*
X561612Y61525D01*
X558587Y62778D01*
D02*
G37*
G36*
X417500Y66778D02*
X414475Y65525D01*
X413222Y62500D01*
X414475Y59475D01*
X417500Y58222D01*
X420525Y59475D01*
X421778Y62500D01*
X420525Y65525D01*
X417500Y66778D01*
D02*
G37*
G36*
X464500Y72288D02*
X461821Y71179D01*
X460712Y68500D01*
X461821Y65821D01*
X464191Y64840D01*
X463222Y62500D01*
X464475Y59475D01*
X467500Y58222D01*
X470525Y59475D01*
X470624Y59713D01*
X474376D01*
X474475Y59475D01*
X477500Y58222D01*
X480525Y59475D01*
X480624Y59713D01*
X484376D01*
X484475Y59475D01*
X487500Y58222D01*
X490525Y59475D01*
X491778Y62500D01*
X490525Y65525D01*
X487500Y66778D01*
X484475Y65525D01*
X484376Y65287D01*
X480624D01*
X480525Y65525D01*
X477500Y66778D01*
X474475Y65525D01*
X474376Y65287D01*
X470624D01*
X470525Y65525D01*
X470225Y65650D01*
X469471Y67471D01*
X468180Y68761D01*
X467179Y71179D01*
X464500Y72288D01*
D02*
G37*
G36*
X558587Y72778D02*
X555561Y71525D01*
X555463Y71287D01*
X551711D01*
X551612Y71525D01*
X548587Y72778D01*
X545561Y71525D01*
X544308Y68500D01*
X545561Y65475D01*
X548587Y64222D01*
X551612Y65475D01*
X551711Y65713D01*
X555463D01*
X555561Y65475D01*
X558587Y64222D01*
X561612Y65475D01*
X562865Y68500D01*
X561612Y71525D01*
X558587Y72778D01*
D02*
G37*
G36*
X651400Y80588D02*
X648982Y79587D01*
X597518D01*
X595100Y80588D01*
X592421Y79479D01*
X591312Y76800D01*
X592421Y74121D01*
X595100Y73012D01*
X597518Y74013D01*
X648982D01*
X651400Y73012D01*
X654079Y74121D01*
X655188Y76800D01*
X654079Y79479D01*
X651400Y80588D01*
D02*
G37*
G36*
X399000Y67887D02*
X341100D01*
X339129Y67071D01*
X335774Y63716D01*
X335500Y63830D01*
X332438Y62562D01*
X331170Y59500D01*
X331903Y57732D01*
X331487Y57454D01*
X329716Y59225D01*
X329830Y59500D01*
X328561Y62562D01*
X325500Y63830D01*
X322439Y62562D01*
X321170Y59500D01*
X322439Y56438D01*
X325500Y55170D01*
X325775Y55284D01*
X333629Y47429D01*
X335600Y46613D01*
X346946D01*
X349115Y44444D01*
X348832Y44020D01*
X347000Y44778D01*
X343975Y43525D01*
X342722Y40500D01*
X343975Y37475D01*
X347000Y36222D01*
X347238Y36320D01*
X350629Y32929D01*
X352600Y32113D01*
X401000D01*
X402971Y32929D01*
X404571Y34529D01*
X405387Y36500D01*
Y61500D01*
X404979Y62485D01*
X404571Y63471D01*
X400971Y67071D01*
X399000Y67887D01*
D02*
G37*
G36*
X457500Y66778D02*
X454475Y65525D01*
X454376Y65287D01*
X450624D01*
X450525Y65525D01*
X447500Y66778D01*
X444475Y65525D01*
X444376Y65287D01*
X440624D01*
X440525Y65525D01*
X437500Y66778D01*
X434475Y65525D01*
X434376Y65287D01*
X430624D01*
X430525Y65525D01*
X427500Y66778D01*
X424475Y65525D01*
X423222Y62500D01*
X424475Y59475D01*
X427500Y58222D01*
X430525Y59475D01*
X430624Y59713D01*
X434376D01*
X434475Y59475D01*
X437500Y58222D01*
X440525Y59475D01*
X440624Y59713D01*
X444376D01*
X444475Y59475D01*
X447500Y58222D01*
X450525Y59475D01*
X450624Y59713D01*
X454376D01*
X454475Y59475D01*
X457500Y58222D01*
X460525Y59475D01*
X461778Y62500D01*
X460525Y65525D01*
X457500Y66778D01*
D02*
G37*
G36*
X295500Y63830D02*
X292439Y62562D01*
X291170Y59500D01*
X292439Y56438D01*
X295500Y55170D01*
X298562Y56438D01*
X299830Y59500D01*
X298562Y62562D01*
X295500Y63830D01*
D02*
G37*
G36*
X305500D02*
X302438Y62562D01*
X301170Y59500D01*
X302438Y56438D01*
X305500Y55170D01*
X308561Y56438D01*
X309830Y59500D01*
X308561Y62562D01*
X305500Y63830D01*
D02*
G37*
G36*
X275500D02*
X272439Y62562D01*
X271170Y59500D01*
X272439Y56438D01*
X275500Y55170D01*
X278561Y56438D01*
X279830Y59500D01*
X278561Y62562D01*
X275500Y63830D01*
D02*
G37*
G36*
X285500D02*
X282438Y62562D01*
X281170Y59500D01*
X282438Y56438D01*
X285500Y55170D01*
X288562Y56438D01*
X289830Y59500D01*
X288562Y62562D01*
X285500Y63830D01*
D02*
G37*
G36*
X487500Y56778D02*
X484475Y55525D01*
X484376Y55287D01*
X480624D01*
X480525Y55525D01*
X477500Y56778D01*
X474475Y55525D01*
X474376Y55287D01*
X470624D01*
X470525Y55525D01*
X467500Y56778D01*
X464475Y55525D01*
X464376Y55287D01*
X460624D01*
X460525Y55525D01*
X457500Y56778D01*
X454475Y55525D01*
X453222Y52500D01*
X454475Y49475D01*
X457500Y48222D01*
X460525Y49475D01*
X460624Y49713D01*
X464376D01*
X464475Y49475D01*
X467500Y48222D01*
X470525Y49475D01*
X470624Y49713D01*
X474376D01*
X474475Y49475D01*
X477500Y48222D01*
X480525Y49475D01*
X480624Y49713D01*
X484376D01*
X484475Y49475D01*
X487500Y48222D01*
X490525Y49475D01*
X491778Y52500D01*
X490525Y55525D01*
X487500Y56778D01*
D02*
G37*
G36*
X617500Y72788D02*
X614821Y71679D01*
X613712Y69000D01*
X614821Y66321D01*
X617239Y65320D01*
X624029Y58529D01*
X626000Y57713D01*
X645582D01*
X648000Y56712D01*
X650679Y57821D01*
X651788Y60500D01*
X650679Y63179D01*
X648000Y64288D01*
X645582Y63287D01*
X627154D01*
X621180Y69261D01*
X620179Y71679D01*
X617500Y72788D01*
D02*
G37*
G36*
X315500Y63830D02*
X312439Y62562D01*
X311170Y59500D01*
X312439Y56438D01*
X315500Y55170D01*
X318562Y56438D01*
X319830Y59500D01*
X318562Y62562D01*
X315500Y63830D01*
D02*
G37*
G36*
X437500Y56778D02*
X434475Y55525D01*
X434376Y55287D01*
X430624D01*
X430525Y55525D01*
X427500Y56778D01*
X424475Y55525D01*
X424376Y55287D01*
X421453D01*
Y56453D01*
X413547D01*
Y48547D01*
X421453D01*
Y49713D01*
X424376D01*
X424475Y49475D01*
X427500Y48222D01*
X430525Y49475D01*
X430624Y49713D01*
X434376D01*
X434475Y49475D01*
X437500Y48222D01*
X440525Y49475D01*
X441778Y52500D01*
X440525Y55525D01*
X437500Y56778D01*
D02*
G37*
G36*
X495000Y338071D02*
X492475Y337025D01*
X491429Y334500D01*
X495000D01*
Y338071D01*
D02*
G37*
G36*
X466000D02*
Y334500D01*
X469571D01*
X468525Y337025D01*
X466000Y338071D01*
D02*
G37*
G36*
X485000D02*
X482475Y337025D01*
X481429Y334500D01*
X485000D01*
Y338071D01*
D02*
G37*
G36*
X445000D02*
X442475Y337025D01*
X441429Y334500D01*
X445000D01*
Y338071D01*
D02*
G37*
G36*
X486000D02*
Y334500D01*
X489571D01*
X488525Y337025D01*
X486000Y338071D01*
D02*
G37*
G36*
X631000Y347096D02*
Y337500D01*
X640596D01*
X639920Y340902D01*
X637710Y344210D01*
X634402Y346420D01*
X631000Y347096D01*
D02*
G37*
G36*
X476000Y338071D02*
Y334500D01*
X479571D01*
X478525Y337025D01*
X476000Y338071D01*
D02*
G37*
G36*
X456000D02*
Y334500D01*
X459571D01*
X458525Y337025D01*
X456000Y338071D01*
D02*
G37*
G36*
X459571Y333500D02*
X456000D01*
Y329929D01*
X458525Y330975D01*
X459571Y333500D01*
D02*
G37*
G36*
X469571D02*
X466000D01*
Y329929D01*
X468525Y330975D01*
X469571Y333500D01*
D02*
G37*
G36*
X495000D02*
X491429D01*
X492475Y330975D01*
X495000Y329929D01*
Y333500D01*
D02*
G37*
G36*
X496000Y338071D02*
Y334000D01*
Y329929D01*
X498525Y330975D01*
X498624Y331213D01*
X502376D01*
X502475Y330975D01*
X505000Y329929D01*
Y334000D01*
Y338071D01*
X502475Y337025D01*
X502376Y336787D01*
X498624D01*
X498525Y337025D01*
X496000Y338071D01*
D02*
G37*
G36*
X465000D02*
X462475Y337025D01*
X461429Y334500D01*
X465000D01*
Y338071D01*
D02*
G37*
G36*
X475000D02*
X472475Y337025D01*
X471429Y334500D01*
X475000D01*
Y338071D01*
D02*
G37*
G36*
X479571Y333500D02*
X476000D01*
Y329929D01*
X478525Y330975D01*
X479571Y333500D01*
D02*
G37*
G36*
X489571D02*
X486000D01*
Y329929D01*
X488525Y330975D01*
X489571Y333500D01*
D02*
G37*
G36*
X445000Y343500D02*
X441429D01*
X442475Y340975D01*
X445000Y339929D01*
Y343500D01*
D02*
G37*
G36*
X515000Y347953D02*
X511547D01*
Y344500D01*
X515000D01*
Y347953D01*
D02*
G37*
G36*
X506000Y348071D02*
Y344500D01*
X509571D01*
X508525Y347025D01*
X506000Y348071D01*
D02*
G37*
G36*
X455000D02*
X452475Y347025D01*
X451429Y344500D01*
X455000D01*
Y348071D01*
D02*
G37*
G36*
X445000D02*
X442475Y347025D01*
X441429Y344500D01*
X445000D01*
Y348071D01*
D02*
G37*
G36*
X33992Y391232D02*
X25921Y389627D01*
X19079Y385055D01*
X14507Y378213D01*
X12902Y370142D01*
X14507Y362071D01*
X19079Y355229D01*
X25921Y350657D01*
X33992Y349051D01*
X42063Y350657D01*
X48905Y355229D01*
X53477Y362071D01*
X55082Y370142D01*
X53477Y378213D01*
X48905Y385055D01*
X42063Y389627D01*
X33992Y391232D01*
D02*
G37*
G36*
X687535D02*
X679464Y389627D01*
X672622Y385055D01*
X668050Y378213D01*
X666445Y370142D01*
X668050Y362071D01*
X672622Y355229D01*
X679464Y350657D01*
X687535Y349051D01*
X695606Y350657D01*
X702449Y355229D01*
X707020Y362071D01*
X708626Y370142D01*
X707020Y378213D01*
X702449Y385055D01*
X695606Y389627D01*
X687535Y391232D01*
D02*
G37*
G36*
X519453Y347953D02*
X516000D01*
Y344500D01*
X519453D01*
Y347953D01*
D02*
G37*
G36*
X446000Y348071D02*
Y344500D01*
X449571D01*
X448525Y347025D01*
X446000Y348071D01*
D02*
G37*
G36*
X466000D02*
Y344000D01*
Y339929D01*
X468525Y340975D01*
X468624Y341213D01*
X472376D01*
X472475Y340975D01*
X475000Y339929D01*
Y344000D01*
Y348071D01*
X472475Y347025D01*
X472376Y346787D01*
X468624D01*
X468525Y347025D01*
X466000Y348071D01*
D02*
G37*
G36*
X476000D02*
Y344000D01*
Y339929D01*
X478525Y340975D01*
X478624Y341213D01*
X482376D01*
X482475Y340975D01*
X485000Y339929D01*
Y344000D01*
Y348071D01*
X482475Y347025D01*
X482376Y346787D01*
X478624D01*
X478525Y347025D01*
X476000Y348071D01*
D02*
G37*
G36*
X455000Y343500D02*
X451429D01*
X452475Y340975D01*
X455000Y339929D01*
Y343500D01*
D02*
G37*
G36*
X456000Y348071D02*
Y344000D01*
Y339929D01*
X458525Y340975D01*
X458624Y341213D01*
X462376D01*
X462475Y340975D01*
X465000Y339929D01*
Y344000D01*
Y348071D01*
X462475Y347025D01*
X462376Y346787D01*
X458624D01*
X458525Y347025D01*
X456000Y348071D01*
D02*
G37*
G36*
X449571Y343500D02*
X446000D01*
Y339929D01*
X448525Y340975D01*
X449571Y343500D01*
D02*
G37*
G36*
X509571D02*
X506000D01*
Y339929D01*
X508525Y340975D01*
X509571Y343500D01*
D02*
G37*
G36*
X486000Y348071D02*
Y344000D01*
Y339929D01*
X488525Y340975D01*
X488624Y341213D01*
X492376D01*
X492475Y340975D01*
X495000Y339929D01*
Y344000D01*
Y348071D01*
X492475Y347025D01*
X492376Y346787D01*
X488624D01*
X488525Y347025D01*
X486000Y348071D01*
D02*
G37*
G36*
X496000D02*
Y344000D01*
Y339929D01*
X498525Y340975D01*
X498624Y341213D01*
X502376D01*
X502475Y340975D01*
X505000Y339929D01*
Y344000D01*
Y348071D01*
X502475Y347025D01*
X502376Y346787D01*
X498624D01*
X498525Y347025D01*
X496000Y348071D01*
D02*
G37*
G36*
X359500Y224116D02*
X356701Y222957D01*
X355541Y220157D01*
X356701Y217358D01*
X359500Y216199D01*
X362299Y217358D01*
X363459Y220157D01*
X362299Y222957D01*
X359500Y224116D01*
D02*
G37*
G36*
X53677Y218920D02*
X49775Y218144D01*
X46468Y215934D01*
X44257Y212626D01*
X43481Y208724D01*
X44257Y204823D01*
X46468Y201515D01*
X49775Y199305D01*
X53677Y198529D01*
X57579Y199305D01*
X60887Y201515D01*
X63097Y204823D01*
X63873Y208724D01*
X63097Y212626D01*
X60887Y215934D01*
X57579Y218144D01*
X53677Y218920D01*
D02*
G37*
G36*
X366000Y136071D02*
Y132500D01*
X369571D01*
X368525Y135025D01*
X366000Y136071D01*
D02*
G37*
G36*
X359500Y295679D02*
X358293Y295179D01*
X303500D01*
X297009Y292491D01*
X294321Y286000D01*
X297009Y279509D01*
X303500Y276821D01*
X350321D01*
Y239843D01*
X353010Y233352D01*
X359500Y230664D01*
X365990Y233352D01*
X368679Y239843D01*
Y286500D01*
X368679Y286500D01*
X365990Y292990D01*
X359500Y295679D01*
D02*
G37*
G36*
X646453Y274953D02*
X638547D01*
Y270989D01*
X615968Y248409D01*
X601986D01*
X601525Y249521D01*
X598500Y250774D01*
X597577Y250392D01*
X597224Y250746D01*
X598105Y252874D01*
X595292Y259666D01*
X588500Y262479D01*
X581708Y259666D01*
X578895Y252874D01*
X581708Y246082D01*
X585484Y244518D01*
Y244018D01*
X583968Y243390D01*
X582476Y239787D01*
X579018D01*
X576600Y240788D01*
X574182Y239787D01*
X566000D01*
X564029Y238971D01*
X557829Y232771D01*
X557013Y230800D01*
Y187918D01*
X556012Y185500D01*
X557121Y182821D01*
X558434Y182277D01*
X558337Y181787D01*
X418654D01*
X413371Y187071D01*
X413156Y187160D01*
X394940Y205376D01*
X395974Y207874D01*
X393785Y213159D01*
X389092Y215103D01*
Y215645D01*
X393785Y217589D01*
X395974Y222874D01*
X393785Y228159D01*
X388500Y230348D01*
X383215Y228159D01*
X381026Y222874D01*
X383215Y217589D01*
X387908Y215645D01*
Y215103D01*
X383215Y213159D01*
X381026Y207874D01*
X383215Y202589D01*
X387908Y200645D01*
Y200103D01*
X383215Y198159D01*
X381026Y192874D01*
X383215Y187589D01*
X388500Y185399D01*
X393785Y187589D01*
X395974Y192874D01*
X393940Y197785D01*
X394364Y198069D01*
X409303Y183129D01*
X409518Y183040D01*
X415529Y177029D01*
X417500Y176213D01*
X563846D01*
X569129Y170929D01*
X571100Y170113D01*
X630946D01*
X637320Y163738D01*
X637222Y163500D01*
X638475Y160475D01*
X641500Y159222D01*
X644525Y160475D01*
X645778Y163500D01*
X644525Y166525D01*
X641500Y167778D01*
X641262Y167680D01*
X639856Y169085D01*
X640047Y169547D01*
X645453D01*
Y177453D01*
X641489D01*
X636171Y182771D01*
X634200Y183587D01*
X590549D01*
X590452Y184077D01*
X595292Y186082D01*
X597898Y192374D01*
X588500D01*
Y193374D01*
X597898D01*
X597224Y195002D01*
X597577Y195356D01*
X598500Y194974D01*
X598828Y195109D01*
X606507Y187429D01*
X608478Y186613D01*
X643500D01*
X645471Y187429D01*
X649571Y191529D01*
X650387Y193500D01*
Y202400D01*
X649571Y204371D01*
X646180Y207762D01*
X646278Y208000D01*
X645025Y211025D01*
X642000Y212278D01*
X638975Y211025D01*
X637722Y208000D01*
X638480Y206168D01*
X638057Y205885D01*
X635719Y208223D01*
X633748Y209039D01*
X601986D01*
X601525Y210151D01*
X601466Y210176D01*
X601030Y211228D01*
X601168Y211827D01*
X601525Y211975D01*
X602768Y214975D01*
X602816Y215058D01*
X603126Y215368D01*
X603500Y215213D01*
X638876D01*
X638975Y214975D01*
X642000Y213722D01*
X645025Y214975D01*
X646278Y218000D01*
X645025Y221025D01*
X642000Y222278D01*
X638975Y221025D01*
X638876Y220787D01*
X638278D01*
X638178Y221287D01*
X639971Y222029D01*
X641762Y223820D01*
X642000Y223722D01*
X645025Y224975D01*
X646278Y228000D01*
X645025Y231025D01*
X642000Y232278D01*
X640168Y231520D01*
X639885Y231943D01*
X641762Y233820D01*
X642000Y233722D01*
X645025Y234975D01*
X646278Y238000D01*
X645025Y241025D01*
X642000Y242278D01*
X638975Y241025D01*
X637722Y238000D01*
X637820Y237762D01*
X632720Y232661D01*
X604187D01*
Y232752D01*
X603479Y234461D01*
X603786Y234961D01*
X625500D01*
X627471Y235777D01*
X644471Y252777D01*
X645287Y254748D01*
Y257876D01*
X645525Y257975D01*
X646778Y261000D01*
X645525Y264025D01*
X642500Y265278D01*
X640668Y264520D01*
X640385Y264944D01*
X642489Y267047D01*
X646453D01*
Y274953D01*
D02*
G37*
G36*
X64000Y267350D02*
X57035Y264465D01*
X54150Y257500D01*
X57035Y250535D01*
X64000Y247650D01*
X70965Y250535D01*
X73850Y257500D01*
X70965Y264465D01*
X64000Y267350D01*
D02*
G37*
G36*
X388500Y260349D02*
X383215Y258159D01*
X381026Y252874D01*
X383215Y247589D01*
X388500Y245399D01*
X393785Y247589D01*
X395974Y252874D01*
X393785Y258159D01*
X388500Y260349D01*
D02*
G37*
G36*
X365000Y136071D02*
X362475Y135025D01*
X361429Y132500D01*
X365000D01*
Y136071D01*
D02*
G37*
G36*
X355500Y136278D02*
X352475Y135025D01*
X351222Y132000D01*
X352475Y128975D01*
X355500Y127722D01*
X358525Y128975D01*
X359778Y132000D01*
X358525Y135025D01*
X355500Y136278D01*
D02*
G37*
G36*
X345500D02*
X342475Y135025D01*
X341222Y132000D01*
X342475Y128975D01*
X345500Y127722D01*
X348525Y128975D01*
X349778Y132000D01*
X348525Y135025D01*
X345500Y136278D01*
D02*
G37*
G36*
X335500D02*
X332475Y135025D01*
X331222Y132000D01*
X332475Y128975D01*
X335500Y127722D01*
X338525Y128975D01*
X339778Y132000D01*
X338525Y135025D01*
X335500Y136278D01*
D02*
G37*
G36*
X365000Y131500D02*
X361429D01*
X362475Y128975D01*
X365000Y127929D01*
Y131500D01*
D02*
G37*
G36*
X558587Y132778D02*
X555561Y131525D01*
X555463Y131287D01*
X552539D01*
Y132453D01*
X544634D01*
Y124547D01*
X552539D01*
Y125713D01*
X555463D01*
X555561Y125475D01*
X558587Y124222D01*
X561612Y125475D01*
X562865Y128500D01*
X561612Y131525D01*
X558587Y132778D01*
D02*
G37*
G36*
X395500Y136278D02*
X392475Y135025D01*
X391222Y132000D01*
X392428Y129087D01*
X392209Y128587D01*
X388791D01*
X388572Y129087D01*
X389778Y132000D01*
X388525Y135025D01*
X385500Y136278D01*
X382475Y135025D01*
X381222Y132000D01*
X382428Y129087D01*
X382209Y128587D01*
X378791D01*
X378572Y129087D01*
X379778Y132000D01*
X378525Y135025D01*
X375500Y136278D01*
X372475Y135025D01*
X371222Y132000D01*
X371980Y130168D01*
X371556Y129885D01*
X369941Y131500D01*
X366000D01*
Y127559D01*
X369729Y123829D01*
X371700Y123013D01*
X372237D01*
X372418Y122513D01*
X371170Y119500D01*
X372439Y116438D01*
X375500Y115170D01*
X378561Y116438D01*
X379830Y119500D01*
X378582Y122513D01*
X378763Y123013D01*
X382237D01*
X382418Y122513D01*
X381170Y119500D01*
X382438Y116438D01*
X385500Y115170D01*
X388562Y116438D01*
X389830Y119500D01*
X388581Y122513D01*
X388763Y123013D01*
X391500D01*
Y115500D01*
X399500D01*
Y123013D01*
X411800D01*
X412600Y123344D01*
Y127100D01*
Y130681D01*
X410421Y129779D01*
X409928Y128587D01*
X398791D01*
X398572Y129087D01*
X399778Y132000D01*
X398525Y135025D01*
X395500Y136278D01*
D02*
G37*
G36*
X259453Y135953D02*
X251547D01*
Y128047D01*
X259453D01*
Y135953D01*
D02*
G37*
G36*
X584000Y349696D02*
X580098Y348920D01*
X576790Y346710D01*
X574580Y343402D01*
X573804Y339500D01*
X574580Y335598D01*
X576790Y332290D01*
X580098Y330080D01*
X584000Y329304D01*
X587902Y330080D01*
X591210Y332290D01*
X593420Y335598D01*
X594196Y339500D01*
X593420Y343402D01*
X591210Y346710D01*
X587902Y348920D01*
X584000Y349696D01*
D02*
G37*
G36*
X445000Y333500D02*
X441429D01*
X442475Y330975D01*
X445000Y329929D01*
Y333500D01*
D02*
G37*
G36*
X53677Y340967D02*
X49775Y340191D01*
X46468Y337981D01*
X44257Y334673D01*
X43481Y330772D01*
X44257Y326870D01*
X46468Y323562D01*
X49775Y321352D01*
X53677Y320576D01*
X57579Y321352D01*
X60887Y323562D01*
X63097Y326870D01*
X63873Y330772D01*
X63097Y334673D01*
X60887Y337981D01*
X57579Y340191D01*
X53677Y340967D01*
D02*
G37*
G36*
X630000Y347096D02*
X626598Y346420D01*
X623290Y344210D01*
X621080Y340902D01*
X620996Y340477D01*
X609218Y328699D01*
X567561D01*
X555770Y340491D01*
X555770Y340491D01*
X555770Y340491D01*
X552047Y342033D01*
X549279Y343179D01*
X549279Y343179D01*
X549279Y343179D01*
X519453D01*
Y343500D01*
X515500D01*
X511547D01*
Y341542D01*
X509010Y340491D01*
X507713Y337362D01*
X506000Y338071D01*
Y334000D01*
Y329929D01*
X507713Y330638D01*
X509010Y327509D01*
X515500Y324821D01*
X545477D01*
X557269Y313029D01*
X557269Y313029D01*
X557269Y313029D01*
X560447Y311713D01*
X563759Y310341D01*
X563759Y310341D01*
X563759Y310341D01*
X613020D01*
X619510Y313029D01*
X633977Y327496D01*
X634402Y327580D01*
X637710Y329790D01*
X639920Y333098D01*
X640596Y336500D01*
X630500D01*
Y337000D01*
X630000D01*
Y347096D01*
D02*
G37*
G36*
X475000Y333500D02*
X471429D01*
X472475Y330975D01*
X475000Y329929D01*
Y333500D01*
D02*
G37*
G36*
X485000D02*
X481429D01*
X482475Y330975D01*
X485000Y329929D01*
Y333500D01*
D02*
G37*
G36*
X446000Y338071D02*
Y334000D01*
Y329929D01*
X448525Y330975D01*
X448624Y331213D01*
X452376D01*
X452475Y330975D01*
X455000Y329929D01*
Y334000D01*
Y338071D01*
X452475Y337025D01*
X452376Y336787D01*
X448624D01*
X448525Y337025D01*
X446000Y338071D01*
D02*
G37*
G36*
X465000Y333500D02*
X461429D01*
X462475Y330975D01*
X465000Y329929D01*
Y333500D01*
D02*
G37*
G36*
X330500Y320788D02*
X327821Y319679D01*
X326712Y317000D01*
X327821Y314321D01*
X330500Y313212D01*
X333179Y314321D01*
X334288Y317000D01*
X333179Y319679D01*
X330500Y320788D01*
D02*
G37*
G36*
X294000Y359082D02*
X260000D01*
X259235Y358765D01*
X258918Y358000D01*
Y319000D01*
Y302500D01*
Y299000D01*
X259235Y298235D01*
X260000Y297918D01*
X311500D01*
X312265Y298235D01*
X312582Y299000D01*
Y319000D01*
X312265Y319765D01*
X311500Y320082D01*
X295082D01*
Y358000D01*
X294765Y358765D01*
X294000Y359082D01*
D02*
G37*
G36*
X159000Y337179D02*
X152509Y334490D01*
X152009Y333991D01*
X149321Y327500D01*
Y285219D01*
X148843Y285074D01*
X147533Y287033D01*
X144077Y289343D01*
X140000Y290154D01*
X121000D01*
X121000Y290154D01*
X116923Y289343D01*
X113467Y287033D01*
X113467Y287033D01*
X112967Y286533D01*
X110657Y283077D01*
X109846Y279000D01*
X109846Y279000D01*
Y277500D01*
X110657Y273423D01*
X112967Y269967D01*
X116423Y267657D01*
X117713Y267401D01*
Y245599D01*
X116423Y245343D01*
X112967Y243033D01*
X110657Y239577D01*
X109846Y235500D01*
X110657Y231423D01*
X112967Y227967D01*
X116423Y225657D01*
X120500Y224847D01*
X140000D01*
X144077Y225657D01*
X147533Y227967D01*
X149843Y231423D01*
X150654Y235500D01*
X149843Y239577D01*
X147533Y243033D01*
X144077Y245343D01*
X140000Y246153D01*
X123287D01*
Y267401D01*
X124577Y267657D01*
X126356Y268847D01*
X140000D01*
X144077Y269657D01*
X147533Y271967D01*
X148843Y273926D01*
X149321Y273781D01*
Y261138D01*
X148831Y261040D01*
X148577Y261652D01*
X144425Y263372D01*
X135575D01*
X131423Y261652D01*
X129703Y257500D01*
X131423Y253348D01*
X135575Y251628D01*
X144425D01*
X148577Y253348D01*
X149973Y256718D01*
X150473D01*
X152009Y253010D01*
X197321Y207698D01*
Y181000D01*
X200009Y174509D01*
X229509Y145009D01*
X236000Y142321D01*
X297500D01*
X303991Y145009D01*
X329991Y171009D01*
X332679Y177500D01*
Y179418D01*
X351000D01*
X351765Y179735D01*
X352082Y180500D01*
Y231500D01*
X351765Y232265D01*
X351000Y232582D01*
X311000D01*
X310235Y232265D01*
X309918Y231500D01*
Y221997D01*
X309418Y221898D01*
X309265Y222265D01*
X308500Y222582D01*
X296082D01*
Y269500D01*
X295765Y270265D01*
X295000Y270582D01*
X259000D01*
X258235Y270265D01*
X257918Y269500D01*
Y219856D01*
X257418Y219649D01*
X189654Y287413D01*
Y292500D01*
X188843Y296577D01*
X186533Y300033D01*
X183077Y302343D01*
X179000Y303153D01*
X174923Y302343D01*
X171467Y300033D01*
X169157Y296577D01*
X168347Y292500D01*
Y283000D01*
X168347Y283000D01*
X169157Y278923D01*
X171467Y275467D01*
X266467Y180467D01*
X269923Y178157D01*
X274000Y177347D01*
X278077Y178157D01*
X281533Y180467D01*
X283843Y183923D01*
X284653Y188000D01*
X283843Y192077D01*
X281533Y195533D01*
X272111Y204956D01*
X272302Y205418D01*
X308500D01*
X309265Y205735D01*
X309582Y206500D01*
Y218503D01*
X310082Y218602D01*
X310235Y218235D01*
X311000Y217918D01*
X315418D01*
Y191147D01*
X314321Y188500D01*
Y181302D01*
X293698Y160679D01*
X239802D01*
X215679Y184802D01*
Y211500D01*
X212990Y217990D01*
X167679Y263302D01*
Y318821D01*
X207500D01*
X213990Y321510D01*
X216679Y328000D01*
X213990Y334490D01*
X207500Y337179D01*
X159000D01*
X159000Y337179D01*
D02*
G37*
G36*
X330500Y268888D02*
X327821Y267779D01*
X326712Y265100D01*
X327821Y262421D01*
X330500Y261312D01*
X333179Y262421D01*
X334288Y265100D01*
X333179Y267779D01*
X330500Y268888D01*
D02*
G37*
%LPD*%
G36*
X443251Y86771D02*
X441821Y86179D01*
X440712Y83500D01*
X441280Y82127D01*
X433459Y74306D01*
X425357D01*
X425023Y74806D01*
X425335Y75559D01*
X425023Y76313D01*
X425357Y76812D01*
X429618D01*
X430542Y77195D01*
X434127Y80780D01*
X435500Y80212D01*
X438179Y81321D01*
X439288Y84000D01*
X438179Y86679D01*
X437956Y86771D01*
X438054Y87261D01*
X443153D01*
X443251Y86771D01*
D02*
G37*
G36*
X432563Y87261D02*
X432946D01*
X433044Y86771D01*
X432821Y86679D01*
X431712Y84000D01*
X432280Y82627D01*
X429077Y79424D01*
X425614D01*
Y80177D01*
X422114D01*
Y81177D01*
X425614D01*
Y81718D01*
X431569Y87673D01*
X432563Y87261D01*
D02*
G37*
G36*
X392163Y61897D02*
X391170Y59500D01*
X392439Y56438D01*
X395500Y55170D01*
X398562Y56438D01*
X399323Y58276D01*
X399813Y58179D01*
Y44453D01*
X393047D01*
Y37687D01*
X390563D01*
X390285Y38103D01*
X391278Y40500D01*
X390025Y43525D01*
X387000Y44778D01*
X383975Y43525D01*
X382722Y40500D01*
X383715Y38103D01*
X383437Y37687D01*
X380563D01*
X380285Y38103D01*
X381278Y40500D01*
X380025Y43525D01*
X377000Y44778D01*
X373975Y43525D01*
X372722Y40500D01*
X373715Y38103D01*
X373437Y37687D01*
X370563D01*
X370285Y38103D01*
X371278Y40500D01*
X370025Y43525D01*
X367000Y44778D01*
X363975Y43525D01*
X362722Y40500D01*
X363715Y38103D01*
X363437Y37687D01*
X360563D01*
X360285Y38103D01*
X361278Y40500D01*
X360025Y43525D01*
X357000Y44778D01*
X356762Y44680D01*
X350071Y51371D01*
X348100Y52187D01*
X336754D01*
X333454Y55487D01*
X333732Y55903D01*
X335500Y55170D01*
X338562Y56438D01*
X339830Y59500D01*
X339716Y59775D01*
X341469Y61528D01*
X341893Y61245D01*
X341170Y59500D01*
X342439Y56438D01*
X345500Y55170D01*
X348562Y56438D01*
X349830Y59500D01*
X348837Y61897D01*
X349114Y62313D01*
X351886D01*
X352163Y61897D01*
X351170Y59500D01*
X352438Y56438D01*
X355500Y55170D01*
X358561Y56438D01*
X359830Y59500D01*
X358837Y61897D01*
X359114Y62313D01*
X361886D01*
X362163Y61897D01*
X361170Y59500D01*
X362439Y56438D01*
X365500Y55170D01*
X368562Y56438D01*
X369830Y59500D01*
X368837Y61897D01*
X369114Y62313D01*
X371886D01*
X372163Y61897D01*
X371170Y59500D01*
X372439Y56438D01*
X375500Y55170D01*
X378561Y56438D01*
X379830Y59500D01*
X378837Y61897D01*
X379114Y62313D01*
X381886D01*
X382163Y61897D01*
X381170Y59500D01*
X382438Y56438D01*
X385500Y55170D01*
X388562Y56438D01*
X389830Y59500D01*
X388837Y61897D01*
X389114Y62313D01*
X391886D01*
X392163Y61897D01*
D02*
G37*
G36*
X638980Y262832D02*
X638222Y261000D01*
X639475Y257975D01*
X639713Y257876D01*
Y255902D01*
X624346Y240535D01*
X601986D01*
X601525Y241647D01*
X600393Y242116D01*
X600281Y242704D01*
X600417Y242835D01*
X617122D01*
X619093Y243651D01*
X638556Y263115D01*
X638980Y262832D01*
D02*
G37*
G36*
X595019Y220948D02*
X595475Y219849D01*
X597072Y219187D01*
Y218687D01*
X595475Y218025D01*
X594222Y215000D01*
X595475Y211975D01*
X596186Y211680D01*
X596397Y211051D01*
X596138Y210426D01*
X595475Y210151D01*
X595195Y209475D01*
X594654D01*
X593032Y213390D01*
X588896Y215103D01*
Y215645D01*
X593032Y217358D01*
X594519Y220948D01*
X595019D01*
D02*
G37*
G36*
X638047Y198011D02*
Y194047D01*
X643553D01*
X643744Y193585D01*
X642346Y192187D01*
X609632D01*
X603412Y198407D01*
X604187Y200278D01*
Y201248D01*
X603476Y202965D01*
X603778Y203465D01*
X632594D01*
X638047Y198011D01*
D02*
G37*
G36*
X583968Y232358D02*
X588104Y230645D01*
Y230103D01*
X583968Y228390D01*
X582476Y224787D01*
X582100D01*
X580129Y223971D01*
X577129Y220971D01*
X576313Y219000D01*
Y207454D01*
X576029Y207171D01*
X575213Y205200D01*
Y184000D01*
X576029Y182029D01*
X577736Y181322D01*
X580229Y178829D01*
X582200Y178013D01*
X633046D01*
X637547Y173511D01*
Y172047D01*
X637085Y171856D01*
X634071Y174871D01*
X632100Y175687D01*
X572254D01*
X566971Y180971D01*
X565000Y181787D01*
X561263D01*
X561166Y182277D01*
X562479Y182821D01*
X563588Y185500D01*
X562587Y187918D01*
Y229646D01*
X567154Y234213D01*
X574182D01*
X576600Y233212D01*
X579018Y234213D01*
X583200D01*
X583968Y232358D01*
D02*
G37*
G36*
X595195Y236273D02*
X595475Y235597D01*
X597072Y234935D01*
Y234435D01*
X595475Y233773D01*
X594222Y230748D01*
X595475Y227723D01*
X597072Y227061D01*
Y226561D01*
X595475Y225899D01*
X595019Y224800D01*
X594519D01*
X593032Y228390D01*
X588896Y230103D01*
Y230645D01*
X593032Y232358D01*
X594654Y236273D01*
X595195D01*
D02*
G37*
G36*
X269918Y207802D02*
X269456Y207611D01*
X259149Y217918D01*
X259356Y218418D01*
X269918D01*
Y207802D01*
D02*
G37*
D24*
X515500Y334000D02*
X549279D01*
X323500Y188000D02*
Y188500D01*
Y177500D02*
Y188000D01*
X613020Y319520D02*
X630500Y337000D01*
X563759Y319520D02*
X613020D01*
X549279Y334000D02*
X563759Y319520D01*
X158500Y259500D02*
X206500Y211500D01*
Y181000D02*
Y211500D01*
Y181000D02*
X236000Y151500D01*
X158500Y327500D02*
X159000Y328000D01*
X158500Y259500D02*
Y327500D01*
X159000Y328000D02*
X207500D01*
X236000Y151500D02*
X297500D01*
X323500Y177500D01*
X303500Y286000D02*
X359000D01*
X359500Y239843D02*
Y286500D01*
X359000Y286000D02*
X359500Y286500D01*
D25*
X599500Y222000D02*
Y222874D01*
Y237748D02*
Y238622D01*
X599000Y206252D02*
Y209400D01*
X598500D02*
X599000D01*
X576600Y237000D02*
X589500D01*
X600948Y201700D02*
X601400Y201248D01*
X588500Y222000D02*
X589500D01*
X582100D02*
X588500D01*
X600952Y233200D02*
X601400Y232752D01*
X599500Y245622D02*
Y246496D01*
X325500Y59500D02*
X335600Y49400D01*
X348100D01*
X357000Y40500D01*
X347000D02*
X352600Y34900D01*
X401000D01*
X402600Y36500D01*
Y61500D01*
X399000Y65100D02*
X402600Y61500D01*
X341100Y65100D02*
X399000D01*
X335500Y59500D02*
X341100Y65100D01*
X365500Y132000D02*
X371700Y125800D01*
X411800D01*
X559800Y185500D02*
Y230800D01*
X566000Y237000D01*
X576600D01*
X411800Y125800D02*
X413100Y127100D01*
X120500Y235500D02*
Y277500D01*
X388500Y207874D02*
X411274Y185100D01*
X411400D01*
X417500Y179000D01*
X598500Y246496D02*
X599500D01*
X598500Y238622D02*
X599500D01*
Y229874D02*
X601400Y231774D01*
Y232752D01*
X598500Y230748D02*
X600952Y233200D01*
X598500Y222874D02*
X599500D01*
X588500Y222000D02*
Y222874D01*
X599000Y206252D02*
X633748D01*
X598500Y207126D02*
Y209400D01*
X599500Y198378D02*
X601400Y200278D01*
Y201248D01*
X598500Y199252D02*
X600948Y201700D01*
X578000Y184000D02*
X579000D01*
X578000D02*
Y205200D01*
X579100Y206300D01*
Y219000D01*
X617500Y69000D02*
X626000Y60500D01*
X595100Y76800D02*
X651400D01*
X579100Y219000D02*
X582100Y222000D01*
X599500Y237748D02*
X625500D01*
X599500Y229874D02*
X633874D01*
X599500Y245622D02*
X617122D01*
X642500Y271000D01*
X625500Y237748D02*
X642500Y254748D01*
Y261000D01*
X579000Y184000D02*
X582200Y180800D01*
X634200D01*
X641500Y173500D01*
X417500Y179000D02*
X565000D01*
X632100Y172900D02*
X641500Y163500D01*
X565000Y179000D02*
X571100Y172900D01*
X632100D01*
X633874Y229874D02*
X642000Y238000D01*
X605700Y223900D02*
X615500D01*
X615600Y224000D01*
X638000D01*
X642000Y228000D01*
X599500Y222000D02*
X603500Y218000D01*
X642000D01*
X599500Y198378D02*
X608478Y189400D01*
X643500D01*
X647600Y193500D02*
Y202400D01*
X643500Y189400D02*
X647600Y193500D01*
X642000Y208000D02*
X647600Y202400D01*
X633748Y206252D02*
X642000Y198000D01*
X445500Y334000D02*
X455500D01*
X495500D02*
X505500D01*
X515500D01*
X455500Y344000D02*
X465500D01*
X475500D01*
X485500D01*
X495500D01*
X505500D01*
X477500Y62500D02*
X487500D01*
X477500Y52500D02*
X487500D01*
X467500Y62500D02*
X477500D01*
X467500Y52500D02*
X477500D01*
X467500Y62500D02*
Y65500D01*
X464500Y68500D02*
X467500Y65500D01*
X457500Y52500D02*
X467500D01*
X447500Y62500D02*
X457500D01*
X437500D02*
X447500D01*
X427500D02*
X437500D01*
X427500Y52500D02*
X437500D01*
X417500D02*
X427500D01*
X548587Y58500D02*
X558587D01*
X548587Y68500D02*
X558587D01*
X548587Y78500D02*
X558587D01*
X548587Y98500D02*
X558587D01*
X548587Y108500D02*
X558587D01*
X548587Y118500D02*
X558587D01*
X548587Y128500D02*
X558587D01*
X626000Y60500D02*
X648000D01*
X587000Y41500D02*
Y43000D01*
X594500Y50500D01*
X633500D01*
D26*
X120500Y277500D02*
Y279000D01*
X179000Y283000D02*
X274000Y188000D01*
X179000Y283000D02*
Y292500D01*
X120500Y235500D02*
X140000D01*
X120500Y279000D02*
X121000Y279500D01*
X140000D01*
D27*
X407500Y78116D02*
Y78118D01*
X406808Y78808D02*
X407500Y78116D01*
X406808Y78808D02*
Y81503D01*
X410500Y78118D02*
X415882D01*
X407500D02*
X410500D01*
X415882D02*
X418441Y75559D01*
X421614D01*
X406808Y81503D02*
X407976Y82671D01*
X408912D01*
X424000Y97759D01*
Y117500D01*
X440500Y124000D02*
X445500Y119000D01*
X418500Y124000D02*
X440500D01*
X412677Y80677D02*
X418500Y86500D01*
X410514Y80677D02*
X412677D01*
X438500Y94000D02*
X457000Y112500D01*
X434500Y94000D02*
X438500D01*
X429618Y78118D02*
X435500Y84000D01*
X422114Y78118D02*
X429618D01*
X404500Y83500D02*
X420000Y99000D01*
X404500Y73000D02*
Y83500D01*
Y73000D02*
X410500D01*
X464000Y105500D02*
Y127500D01*
X456500Y98000D02*
X464000Y105500D01*
X434000Y73000D02*
X444500Y83500D01*
X422114Y73000D02*
X434000D01*
D28*
X426500Y94000D02*
X427563D01*
X431500Y90063D01*
X432563Y89000D01*
X471500D01*
X422114Y80677D02*
X431500Y90063D01*
X468000Y78500D02*
X473000Y73500D01*
X460787Y78500D02*
X468000D01*
X452894Y70606D02*
X460787Y78500D01*
X419410Y70606D02*
X452894D01*
X414457Y75559D02*
X419410Y70606D01*
X410500Y75559D02*
X414457D01*
D29*
X586500Y67500D02*
X604500D01*
X608500Y63500D01*
D51*
X255500Y59500D02*
D03*
X265500D02*
D03*
X285500D02*
D03*
X295500D02*
D03*
X275500D02*
D03*
X305500D02*
D03*
X315500D02*
D03*
X325500D02*
D03*
X335500D02*
D03*
X345500D02*
D03*
X355500D02*
D03*
X365500D02*
D03*
X375500D02*
D03*
X385500D02*
D03*
X255500Y119500D02*
D03*
X265500D02*
D03*
X395500Y59500D02*
D03*
X385500Y119500D02*
D03*
X375500D02*
D03*
X365500D02*
D03*
X355500D02*
D03*
X345500D02*
D03*
X335500D02*
D03*
X325500D02*
D03*
X315500D02*
D03*
X305500D02*
D03*
X295500D02*
D03*
X285500D02*
D03*
X275500D02*
D03*
X33992Y370142D02*
D03*
X687535D02*
D03*
Y23685D02*
D03*
X23500Y24000D02*
D03*
D52*
X395500Y119500D02*
D03*
D53*
X257000Y40500D02*
D03*
X267000D02*
D03*
X277000D02*
D03*
X287000D02*
D03*
X297000D02*
D03*
X307000D02*
D03*
X317000D02*
D03*
X327000D02*
D03*
X337000D02*
D03*
X347000D02*
D03*
X357000D02*
D03*
X367000D02*
D03*
X377000D02*
D03*
X387000D02*
D03*
X395500Y132000D02*
D03*
X385500D02*
D03*
X375500D02*
D03*
X365500D02*
D03*
X355500D02*
D03*
X345500D02*
D03*
X335500D02*
D03*
X325500D02*
D03*
X315500D02*
D03*
X305500D02*
D03*
X295500D02*
D03*
X285500D02*
D03*
X275500D02*
D03*
X265500D02*
D03*
X642500Y261000D02*
D03*
X641500Y163500D02*
D03*
X642000Y238000D02*
D03*
Y228000D02*
D03*
Y218000D02*
D03*
Y208000D02*
D03*
X598500Y222874D02*
D03*
Y230748D02*
D03*
Y238622D02*
D03*
Y215000D02*
D03*
Y207126D02*
D03*
Y246496D02*
D03*
Y199252D02*
D03*
X558587Y128500D02*
D03*
X548587Y118500D02*
D03*
X558587D02*
D03*
X548587Y108500D02*
D03*
X558587D02*
D03*
X548587Y98500D02*
D03*
X558587D02*
D03*
X548587Y88500D02*
D03*
X558587D02*
D03*
X548587Y78500D02*
D03*
X558587D02*
D03*
X548587Y68500D02*
D03*
X558587D02*
D03*
X548587Y58500D02*
D03*
X558587D02*
D03*
X417500Y62500D02*
D03*
X427500Y52500D02*
D03*
Y62500D02*
D03*
X437500Y52500D02*
D03*
Y62500D02*
D03*
X447500Y52500D02*
D03*
Y62500D02*
D03*
X457500Y52500D02*
D03*
Y62500D02*
D03*
X467500Y52500D02*
D03*
Y62500D02*
D03*
X477500Y52500D02*
D03*
Y62500D02*
D03*
X487500Y52500D02*
D03*
Y62500D02*
D03*
X505500Y344000D02*
D03*
X495500D02*
D03*
X485500D02*
D03*
X475500D02*
D03*
X465500D02*
D03*
X455500D02*
D03*
X445500D02*
D03*
X515500Y334000D02*
D03*
X505500D02*
D03*
X495500D02*
D03*
X485500D02*
D03*
X475500D02*
D03*
X465500D02*
D03*
X455500D02*
D03*
X445500D02*
D03*
D54*
X397000Y40500D02*
D03*
X255500Y132000D02*
D03*
X417500Y52500D02*
D03*
X515500Y344000D02*
D03*
D55*
X584000Y339500D02*
D03*
X53677Y330772D02*
D03*
Y208724D02*
D03*
X630500Y337000D02*
D03*
D56*
X642500Y271000D02*
D03*
X641500Y173500D02*
D03*
X642000Y198000D02*
D03*
X548587Y128500D02*
D03*
D57*
X140000Y235500D02*
D03*
Y257500D02*
D03*
Y279500D02*
D03*
D58*
X64000Y257500D02*
D03*
D59*
X388500Y252874D02*
D03*
Y222874D02*
D03*
Y207874D02*
D03*
Y192874D02*
D03*
D60*
X588500Y252874D02*
D03*
Y192874D02*
D03*
D61*
Y237874D02*
D03*
Y222874D02*
D03*
Y207874D02*
D03*
D62*
X359500Y239843D02*
D03*
D63*
Y220157D02*
D03*
D64*
X424000Y117500D02*
D03*
X559800Y185500D02*
D03*
X576600Y237000D02*
D03*
X413100Y127100D02*
D03*
X418500Y124000D02*
D03*
Y86500D02*
D03*
X434500Y94000D02*
D03*
X426500D02*
D03*
X435500Y84000D02*
D03*
X456500Y98000D02*
D03*
X444500Y83500D02*
D03*
X471500Y89000D02*
D03*
X473000Y73500D02*
D03*
X420000Y99000D02*
D03*
X586500Y67500D02*
D03*
X617500Y69000D02*
D03*
X608500Y63500D02*
D03*
X605700Y223900D02*
D03*
X464500Y68500D02*
D03*
X648000Y60500D02*
D03*
X587000Y41500D02*
D03*
X633500Y50500D02*
D03*
X595100Y76800D02*
D03*
X651400D02*
D03*
X206500Y211500D02*
D03*
X207500Y328000D02*
D03*
X323500Y188000D02*
D03*
X274000D02*
D03*
X179000Y292500D02*
D03*
X276000Y261000D02*
D03*
X275000Y352500D02*
D03*
X330500Y265100D02*
D03*
Y317000D02*
D03*
X303500Y286000D02*
D03*
X445500Y119000D02*
D03*
X457000Y112500D02*
D03*
X464000Y127500D02*
D03*
X314500Y227000D02*
D03*
X304000Y213000D02*
D03*
X307500Y307000D02*
D03*
D65*
X631169Y39547D02*
D03*
Y43878D02*
D03*
X635500Y39547D02*
D03*
Y43878D02*
D03*
X639831Y39547D02*
D03*
Y43878D02*
D03*
D66*
X410500Y78118D02*
D03*
X422114Y73000D02*
D03*
X410500D02*
D03*
X410514Y80677D02*
D03*
X422114Y78118D02*
D03*
Y75559D02*
D03*
X410500D02*
D03*
D67*
X422114Y80677D02*
D03*
D68*
X289750Y214000D02*
D03*
D69*
X277000Y244500D02*
D03*
D70*
X333750Y206000D02*
D03*
D71*
X331000Y225250D02*
D03*
D72*
X285750Y309000D02*
D03*
D73*
X277000Y330250D02*
D03*
M02*
