G04 Layer_Color=8421504*
%FSLAX25Y25*%
%MOIN*%
G70*
G01*
G75*
%ADD10R,0.03000X0.03000*%
%ADD11O,0.02362X0.03740*%
%ADD12R,0.12205X0.09449*%
%ADD13R,0.04331X0.03937*%
%ADD14R,0.23386X0.41378*%
%ADD15R,0.02756X0.03543*%
%ADD16R,0.07087X0.06299*%
%ADD17R,0.02500X0.02000*%
%ADD18R,0.32559X0.12598*%
%ADD19R,0.04000X0.05000*%
%ADD20R,0.30512X0.08661*%
%ADD21R,0.03543X0.02756*%
%ADD22R,0.06299X0.07087*%
%ADD23R,0.06299X0.05512*%
D10*
X449500Y601000D02*
D03*
Y606500D02*
D03*
D11*
X672000Y549425D02*
D03*
X667000D02*
D03*
X662000D02*
D03*
X657000D02*
D03*
X672000Y526000D02*
D03*
X667000D02*
D03*
X662000D02*
D03*
X657000D02*
D03*
D12*
X664500Y537713D02*
D03*
D13*
X623241Y520500D02*
D03*
X629933D02*
D03*
X622752Y558311D02*
D03*
X629444D02*
D03*
X622752Y538626D02*
D03*
X629444D02*
D03*
X622752Y577996D02*
D03*
X629444D02*
D03*
X603067Y538626D02*
D03*
X609759D02*
D03*
X603067Y558311D02*
D03*
X609759D02*
D03*
X603067Y577996D02*
D03*
X609759D02*
D03*
X351846Y813000D02*
D03*
X345154D02*
D03*
D14*
X613673Y613500D02*
D03*
X639500D02*
D03*
D15*
X321441Y764500D02*
D03*
X326559D02*
D03*
X346441Y763500D02*
D03*
X351559D02*
D03*
X344941Y783000D02*
D03*
X350059D02*
D03*
D16*
X188000Y771988D02*
D03*
Y783012D02*
D03*
D17*
X650587Y565000D02*
D03*
X654587D02*
D03*
X638087D02*
D03*
X642087D02*
D03*
X640587Y580500D02*
D03*
X644587D02*
D03*
X495752Y569386D02*
D03*
X491752D02*
D03*
X495752Y608756D02*
D03*
X491752D02*
D03*
X495752Y589071D02*
D03*
X491752D02*
D03*
D18*
X521000Y606929D02*
D03*
Y583071D02*
D03*
D19*
X479067Y589071D02*
D03*
X471067D02*
D03*
X479067Y608756D02*
D03*
X471067D02*
D03*
D20*
X236996Y789496D02*
D03*
Y836504D02*
D03*
X304004Y789496D02*
D03*
Y836504D02*
D03*
X235996Y695996D02*
D03*
Y743004D02*
D03*
X303004Y695996D02*
D03*
Y743004D02*
D03*
D21*
X343000Y733059D02*
D03*
Y727941D02*
D03*
D22*
X353012Y709000D02*
D03*
X341988D02*
D03*
D23*
X460500Y609012D02*
D03*
Y597988D02*
D03*
M02*
