G04 Layer_Color=65535*
%FSLAX25Y25*%
%MOIN*%
G70*
G01*
G75*
%ADD74C,0.00394*%
%ADD75C,0.00600*%
%ADD76C,0.00200*%
%ADD77C,0.00787*%
%ADD78C,0.00984*%
%ADD79C,0.01000*%
%ADD80C,0.00500*%
%ADD81C,0.00827*%
%ADD82C,0.00800*%
G36*
X131570Y232946D02*
X125000D01*
Y239500D01*
X131570D01*
Y232946D01*
D02*
G37*
G36*
X131613Y251478D02*
X125000D01*
Y263500D01*
X131613D01*
Y251478D01*
D02*
G37*
G36*
X131586Y275549D02*
X125000D01*
Y282000D01*
X131586D01*
Y275549D01*
D02*
G37*
D74*
X282035Y196335D02*
G03*
X282035Y196335I-197J0D01*
G01*
X283035Y289835D02*
G03*
X283035Y289835I-197J0D01*
G01*
D75*
X63500Y288500D02*
G03*
X78500Y288500I7500J0D01*
G01*
Y226500D02*
G03*
X63500Y226500I-7500J0D01*
G01*
X71500Y257500D02*
G03*
X71500Y257500I-7500J0D01*
G01*
X125000Y226500D02*
Y288500D01*
X78500D02*
X125000D01*
X42500Y226500D02*
Y288500D01*
X78500Y226500D02*
X125000D01*
X63500D02*
X78500D01*
X42500D02*
X63500D01*
X42500Y288500D02*
X63500D01*
X78500D01*
X721599Y175657D02*
Y177656D01*
Y176657D01*
X715601D01*
X716601Y175657D01*
Y180655D02*
X715601Y181655D01*
Y183654D01*
X716601Y184654D01*
X720599D01*
X721599Y183654D01*
Y181655D01*
X720599Y180655D01*
X716601D01*
X721599Y186653D02*
Y188653D01*
Y187653D01*
X715601D01*
X716601Y186653D01*
X721599Y191652D02*
X720599D01*
Y192651D01*
X721599D01*
Y191652D01*
Y199649D02*
X715601D01*
X718600Y196650D01*
Y200649D01*
X715601Y202648D02*
Y206647D01*
X716601D01*
X720599Y202648D01*
X721599D01*
Y208646D02*
X717600D01*
Y209646D01*
X718600Y210646D01*
X721599D01*
X718600D01*
X717600Y211645D01*
X718600Y212645D01*
X721599D01*
Y214644D02*
X717600D01*
Y215644D01*
X718600Y216644D01*
X721599D01*
X718600D01*
X717600Y217643D01*
X718600Y218643D01*
X721599D01*
D76*
X61500Y287502D02*
G03*
X80500Y287502I9500J998D01*
G01*
Y227499D02*
G03*
X61500Y227499I-9500J-998D01*
G01*
X124000Y227500D02*
Y287500D01*
X80500D02*
X124000D01*
X80500Y227500D02*
X124000D01*
X45000D02*
X61500D01*
X42500Y288500D02*
X45000Y287500D01*
Y227500D02*
Y287500D01*
X42500Y226500D02*
X45000Y227500D01*
X78500Y226500D02*
X80500Y227500D01*
X78500Y288500D02*
X80500Y287500D01*
X124000Y227500D02*
X125000Y226500D01*
X124000Y287500D02*
X125000Y288500D01*
X61500Y287500D02*
X63500Y288500D01*
X45000Y287500D02*
X61500D01*
Y227500D02*
X63500Y226500D01*
D77*
X355268Y236640D02*
G03*
X356226Y222839I4232J-6640D01*
G01*
X362774D02*
G03*
X363732Y236640I-3274J7161D01*
G01*
X252000Y45500D02*
X402000D01*
X252000Y35500D02*
X394500D01*
X402000D01*
Y45500D01*
X252000Y35500D02*
Y45500D01*
X250500Y127000D02*
X400500D01*
X258000Y137000D02*
X400500D01*
X250500D02*
X258000D01*
X250500Y127000D02*
Y137000D01*
X400500Y127000D02*
Y137000D01*
X637500Y256000D02*
X647500D01*
X637500D02*
Y276000D01*
X647500D01*
Y256000D02*
Y276000D01*
X636500Y158500D02*
X646500D01*
X636500D02*
Y178500D01*
X646500D01*
Y158500D02*
Y178500D01*
X637000Y193000D02*
X647000D01*
X637000D02*
Y243000D01*
X647000Y193000D02*
Y243000D01*
X637000D02*
X647000D01*
X476114Y94866D02*
Y103134D01*
X507886Y94866D02*
Y103134D01*
X538587Y133500D02*
X543587D01*
X538587Y53500D02*
Y133500D01*
Y53500D02*
X543587D01*
X541087Y133500D02*
X543587Y131000D01*
X525253Y130167D02*
X538587D01*
X523587Y128500D02*
X525253Y130167D01*
X523587Y128500D02*
X525253Y126833D01*
X538587D01*
X525253Y120167D02*
X538587D01*
X523587Y118500D02*
X525253Y120167D01*
X523587Y118500D02*
X525253Y116833D01*
X538587D01*
X525253Y110167D02*
X538587D01*
X523587Y108500D02*
X525253Y110167D01*
X523587Y108500D02*
X525253Y106833D01*
X538587D01*
X525253Y100167D02*
X538587D01*
X523587Y98500D02*
X525253Y100167D01*
X523587Y98500D02*
X525253Y96833D01*
X538587D01*
X525253Y90167D02*
X538587D01*
X523587Y88500D02*
X525253Y90167D01*
X523587Y88500D02*
X525253Y86833D01*
X538587D01*
X525253Y80167D02*
X538587D01*
X523587Y78500D02*
X525253Y80167D01*
X523587Y78500D02*
X525253Y76833D01*
X538587D01*
X525253Y70167D02*
X538587D01*
X523587Y68500D02*
X525253Y70167D01*
X523587Y68500D02*
X525253Y66833D01*
X538587D01*
X525253Y60167D02*
X538587D01*
X523587Y58500D02*
X525253Y60167D01*
X523587Y58500D02*
X525253Y56833D01*
X538587D01*
X543587Y53500D02*
Y133500D01*
X626051Y33445D02*
Y49980D01*
X644949Y33445D02*
Y49980D01*
X626051Y33445D02*
X644949D01*
X626051Y49980D02*
X644949D01*
X412500Y42500D02*
Y47500D01*
Y42500D02*
X492500D01*
Y47500D01*
X412500Y45000D02*
X415000Y47500D01*
X415833Y29167D02*
Y42500D01*
Y29167D02*
X417500Y27500D01*
X419167Y29167D01*
Y42500D01*
X425833Y29167D02*
Y42500D01*
Y29167D02*
X427500Y27500D01*
X429167Y29167D01*
Y42500D01*
X435833Y29167D02*
Y42500D01*
Y29167D02*
X437500Y27500D01*
X439167Y29167D01*
Y42500D01*
X445833Y29167D02*
Y42500D01*
Y29167D02*
X447500Y27500D01*
X449167Y29167D01*
Y42500D01*
X455833Y29167D02*
Y42500D01*
Y29167D02*
X457500Y27500D01*
X459167Y29167D01*
Y42500D01*
X465833Y29167D02*
Y42500D01*
Y29167D02*
X467500Y27500D01*
X469167Y29167D01*
Y42500D01*
X475833Y29167D02*
Y42500D01*
Y29167D02*
X477500Y27500D01*
X479167Y29167D01*
Y42500D01*
X485833Y29167D02*
Y42500D01*
Y29167D02*
X487500Y27500D01*
X489167Y29167D01*
Y42500D01*
X412500Y47500D02*
X492500D01*
X520500Y329000D02*
Y349000D01*
X440500Y329000D02*
Y349000D01*
X520500D01*
X440500Y329000D02*
X520500D01*
D78*
X646839Y53425D02*
G03*
X646839Y53425I-492J0D01*
G01*
D79*
X666500Y398500D02*
X719000D01*
X668500Y-1000D02*
X719000D01*
X718000Y220243D02*
Y398500D01*
Y-1000D02*
Y174057D01*
X716000Y392500D02*
X718000Y398500D01*
X720000Y392500D01*
X718000Y-1000D02*
X720000Y5000D01*
X716000D02*
X718000Y-1000D01*
X597240Y251102D02*
X603461D01*
Y194803D02*
Y251102D01*
X597949Y194803D02*
X603461D01*
X371571Y148543D02*
X605429D01*
X371571D02*
Y297362D01*
X605429D01*
X605035D02*
X605429Y296968D01*
Y148543D02*
Y297362D01*
X600390Y177717D02*
Y194803D01*
X507476Y177717D02*
X600390D01*
X505469Y179724D02*
X507476Y177717D01*
X505469Y179724D02*
Y218701D01*
X480642Y255353D02*
X481691D01*
X481167D01*
Y258502D01*
X480642Y257977D01*
X485365Y258502D02*
X484315Y257977D01*
X483266Y256928D01*
Y255878D01*
X483790Y255353D01*
X484840D01*
X485365Y255878D01*
Y256403D01*
X484840Y256928D01*
X483266D01*
X489563D02*
X491662D01*
X495860Y255353D02*
Y257452D01*
X496910Y258502D01*
X497959Y257452D01*
Y255353D01*
Y256928D01*
X495860D01*
X499009Y258502D02*
Y255353D01*
X500583D01*
X501108Y255878D01*
Y257977D01*
X500583Y258502D01*
X499009D01*
X502157D02*
Y255353D01*
X503731D01*
X504256Y255878D01*
Y257977D01*
X503731Y258502D01*
X502157D01*
X505306Y255353D02*
Y258502D01*
X506880D01*
X507405Y257977D01*
Y256928D01*
X506880Y256403D01*
X505306D01*
X506355D02*
X507405Y255353D01*
X508454Y257977D02*
X508979Y258502D01*
X510029D01*
X510553Y257977D01*
Y255878D01*
X510029Y255353D01*
X508979D01*
X508454Y255878D01*
Y257977D01*
X480642Y249175D02*
X481691D01*
X481167D01*
Y252324D01*
X480642Y251799D01*
X485365Y252324D02*
X483266D01*
Y250749D01*
X484315Y251274D01*
X484840D01*
X485365Y250749D01*
Y249700D01*
X484840Y249175D01*
X483790D01*
X483266Y249700D01*
X489563Y250749D02*
X491662D01*
X495860Y249175D02*
Y251274D01*
X496910Y252324D01*
X497959Y251274D01*
Y249175D01*
Y250749D01*
X495860D01*
X499009Y252324D02*
Y249175D01*
X500583D01*
X501108Y249700D01*
Y251799D01*
X500583Y252324D01*
X499009D01*
X502157D02*
Y249175D01*
X503731D01*
X504256Y249700D01*
Y251799D01*
X503731Y252324D01*
X502157D01*
X505306Y249175D02*
Y252324D01*
X506880D01*
X507405Y251799D01*
Y250749D01*
X506880Y250224D01*
X505306D01*
X506355D02*
X507405Y249175D01*
X511603D02*
X512652D01*
X512128D01*
Y252324D01*
X511603Y251799D01*
X480642Y242997D02*
X481691D01*
X481167D01*
Y246145D01*
X480642Y245620D01*
X484840Y242997D02*
Y246145D01*
X483266Y244571D01*
X485365D01*
X489563D02*
X491662D01*
X495860Y242997D02*
Y246145D01*
X497434D01*
X497959Y245620D01*
Y244571D01*
X497434Y244046D01*
X495860D01*
X499009Y242997D02*
Y246145D01*
X500058Y245096D01*
X501108Y246145D01*
Y242997D01*
X502157Y246145D02*
Y242997D01*
X503731D01*
X504256Y243521D01*
Y244046D01*
X503731Y244571D01*
X502157D01*
X503731D01*
X504256Y245096D01*
Y245620D01*
X503731Y246145D01*
X502157D01*
X507405Y245620D02*
X506880Y246145D01*
X505830D01*
X505306Y245620D01*
Y243521D01*
X505830Y242997D01*
X506880D01*
X507405Y243521D01*
X508454Y246145D02*
Y242997D01*
X510553D01*
X511603Y246145D02*
Y242997D01*
Y244046D01*
X513702Y246145D01*
X512128Y244571D01*
X513702Y242997D01*
X480642Y236818D02*
X481691D01*
X481167D01*
Y239967D01*
X480642Y239442D01*
X483266D02*
X483790Y239967D01*
X484840D01*
X485365Y239442D01*
Y238917D01*
X484840Y238393D01*
X484315D01*
X484840D01*
X485365Y237868D01*
Y237343D01*
X484840Y236818D01*
X483790D01*
X483266Y237343D01*
X489563Y238393D02*
X491662D01*
X497959Y239442D02*
X497434Y239967D01*
X496385D01*
X495860Y239442D01*
Y238917D01*
X496385Y238393D01*
X497434D01*
X497959Y237868D01*
Y237343D01*
X497434Y236818D01*
X496385D01*
X495860Y237343D01*
X499009Y236818D02*
Y239967D01*
X500058Y238917D01*
X501108Y239967D01*
Y236818D01*
X502157Y239967D02*
Y236818D01*
X503731D01*
X504256Y237343D01*
Y237868D01*
X503731Y238393D01*
X502157D01*
X503731D01*
X504256Y238917D01*
Y239442D01*
X503731Y239967D01*
X502157D01*
X505306Y236818D02*
Y238917D01*
X506355Y239967D01*
X507405Y238917D01*
Y236818D01*
Y238393D01*
X505306D01*
X508454Y239967D02*
Y236818D01*
X510553D01*
X513702Y239967D02*
X511603D01*
Y236818D01*
X513702D01*
X511603Y238393D02*
X512652D01*
X514751Y236818D02*
Y239967D01*
X516326D01*
X516851Y239442D01*
Y238393D01*
X516326Y237868D01*
X514751D01*
X515801D02*
X516851Y236818D01*
X517900Y239967D02*
X519999D01*
X518950D01*
Y236818D01*
X480642Y230640D02*
X481691D01*
X481167D01*
Y233789D01*
X480642Y233264D01*
X485365Y230640D02*
X483266D01*
X485365Y232739D01*
Y233264D01*
X484840Y233789D01*
X483790D01*
X483266Y233264D01*
X489563Y232214D02*
X491662D01*
X495860Y230640D02*
Y233789D01*
X497434D01*
X497959Y233264D01*
Y232214D01*
X497434Y231690D01*
X495860D01*
X499009Y230640D02*
Y233789D01*
X500058Y232739D01*
X501108Y233789D01*
Y230640D01*
X502157Y233789D02*
Y230640D01*
X503731D01*
X504256Y231165D01*
Y231690D01*
X503731Y232214D01*
X502157D01*
X503731D01*
X504256Y232739D01*
Y233264D01*
X503731Y233789D01*
X502157D01*
X505306D02*
Y230640D01*
X506880D01*
X507405Y231165D01*
Y233264D01*
X506880Y233789D01*
X505306D01*
X508454Y230640D02*
Y232739D01*
X509504Y233789D01*
X510553Y232739D01*
Y230640D01*
Y232214D01*
X508454D01*
X511603Y233789D02*
X513702D01*
X512652D01*
Y230640D01*
X514751D02*
Y232739D01*
X515801Y233789D01*
X516851Y232739D01*
Y230640D01*
Y232214D01*
X514751D01*
X480642Y224462D02*
X481691D01*
X481167D01*
Y227610D01*
X480642Y227086D01*
X483266Y224462D02*
X484315D01*
X483790D01*
Y227610D01*
X483266Y227086D01*
X489038Y226036D02*
X491137D01*
X495335Y227610D02*
Y224462D01*
X496910D01*
X497434Y224987D01*
Y227086D01*
X496910Y227610D01*
X495335D01*
X500583Y227086D02*
X500058Y227610D01*
X499009D01*
X498484Y227086D01*
Y224987D01*
X499009Y224462D01*
X500058D01*
X500583Y224987D01*
Y226036D01*
X499533D01*
X501632Y224462D02*
Y227610D01*
X503731Y224462D01*
Y227610D01*
X504781D02*
Y224462D01*
X506355D01*
X506880Y224987D01*
Y227086D01*
X506355Y227610D01*
X504781D01*
X480642Y218283D02*
X481691D01*
X481167D01*
Y221432D01*
X480642Y220907D01*
X483266D02*
X483790Y221432D01*
X484840D01*
X485365Y220907D01*
Y218808D01*
X484840Y218283D01*
X483790D01*
X483266Y218808D01*
Y220907D01*
X489563Y219858D02*
X491662D01*
X497959Y220907D02*
X497434Y221432D01*
X496385D01*
X495860Y220907D01*
Y218808D01*
X496385Y218283D01*
X497434D01*
X497959Y218808D01*
X501108Y218283D02*
X499009D01*
X501108Y220382D01*
Y220907D01*
X500583Y221432D01*
X499533D01*
X499009Y220907D01*
X345540Y254968D02*
X345048Y254476D01*
Y253492D01*
X345540Y253000D01*
X347508D01*
X348000Y253492D01*
Y254476D01*
X347508Y254968D01*
X348000Y255952D02*
Y256936D01*
Y256444D01*
X345048D01*
X345540Y255952D01*
Y258412D02*
X345048Y258904D01*
Y259888D01*
X345540Y260380D01*
X346032D01*
X346524Y259888D01*
X347016Y260380D01*
X347508D01*
X348000Y259888D01*
Y258904D01*
X347508Y258412D01*
X347016D01*
X346524Y258904D01*
X346032Y258412D01*
X345540D01*
X346524Y258904D02*
Y259888D01*
X527180Y22595D02*
X523181D01*
Y19596D01*
X525180Y20596D01*
X526180D01*
X527180Y19596D01*
Y17597D01*
X526180Y16597D01*
X524181D01*
X523181Y17597D01*
X529179Y22595D02*
Y18596D01*
X531179Y16597D01*
X533178Y18596D01*
Y22595D01*
X541175Y16597D02*
Y22595D01*
X544174D01*
X545174Y21595D01*
Y19596D01*
X544174Y18596D01*
X541175D01*
X543175D02*
X545174Y16597D01*
X550172D02*
X548173D01*
X547173Y17597D01*
Y19596D01*
X548173Y20596D01*
X550172D01*
X551172Y19596D01*
Y18596D01*
X547173D01*
X555171Y14598D02*
X556170D01*
X557170Y15597D01*
Y20596D01*
X554171D01*
X553171Y19596D01*
Y17597D01*
X554171Y16597D01*
X557170D01*
X559169Y20596D02*
Y17597D01*
X560169Y16597D01*
X563168D01*
Y20596D01*
X565168Y16597D02*
X567167D01*
X566167D01*
Y22595D01*
X565168D01*
X571166Y20596D02*
X573165D01*
X574165Y19596D01*
Y16597D01*
X571166D01*
X570166Y17597D01*
X571166Y18596D01*
X574165D01*
X577164Y21595D02*
Y20596D01*
X576164D01*
X578163D01*
X577164D01*
Y17597D01*
X578163Y16597D01*
X582162D02*
X584161D01*
X585161Y17597D01*
Y19596D01*
X584161Y20596D01*
X582162D01*
X581162Y19596D01*
Y17597D01*
X582162Y16597D01*
X587160Y20596D02*
Y16597D01*
Y18596D01*
X588160Y19596D01*
X589160Y20596D01*
X590159D01*
X525180Y5000D02*
X523181Y6999D01*
Y8999D01*
X525180Y10998D01*
X532178D02*
X528180D01*
Y7999D01*
X530179Y8999D01*
X531179D01*
X532178Y7999D01*
Y6000D01*
X531179Y5000D01*
X529179D01*
X528180Y6000D01*
X534177Y5000D02*
Y8999D01*
X536177Y10998D01*
X538176Y8999D01*
Y5000D01*
Y7999D01*
X534177D01*
X546174Y5000D02*
Y8999D01*
X547173D01*
X548173Y7999D01*
Y5000D01*
Y7999D01*
X549173Y8999D01*
X550172Y7999D01*
Y5000D01*
X553171Y8999D02*
X555171D01*
X556170Y7999D01*
Y5000D01*
X553171D01*
X552172Y6000D01*
X553171Y6999D01*
X556170D01*
X558170Y8999D02*
X562169Y5000D01*
X560169Y6999D01*
X562169Y8999D01*
X558170Y5000D01*
X564168D02*
X566167Y6999D01*
Y8999D01*
X564168Y10998D01*
X7500Y78693D02*
Y73695D01*
X8500Y72695D01*
X10499D01*
X11499Y73695D01*
Y78693D01*
X13498Y72695D02*
Y76694D01*
X16497D01*
X17497Y75694D01*
Y72695D01*
X23495Y78693D02*
Y72695D01*
X20496D01*
X19496Y73695D01*
Y75694D01*
X20496Y76694D01*
X23495D01*
X28493Y72695D02*
X26494D01*
X25494Y73695D01*
Y75694D01*
X26494Y76694D01*
X28493D01*
X29493Y75694D01*
Y74695D01*
X25494D01*
X31492Y76694D02*
Y72695D01*
Y74695D01*
X32492Y75694D01*
X33492Y76694D01*
X34491D01*
X37490D02*
Y73695D01*
X38490Y72695D01*
X39490Y73695D01*
X40489Y72695D01*
X41489Y73695D01*
Y76694D01*
X44488D02*
X46487D01*
X47487Y75694D01*
Y72695D01*
X44488D01*
X43488Y73695D01*
X44488Y74695D01*
X47487D01*
X50486Y77694D02*
Y76694D01*
X49486D01*
X51486D01*
X50486D01*
Y73695D01*
X51486Y72695D01*
X57484D02*
X55484D01*
X54485Y73695D01*
Y75694D01*
X55484Y76694D01*
X57484D01*
X58483Y75694D01*
Y74695D01*
X54485D01*
X60483Y76694D02*
Y72695D01*
Y74695D01*
X61483Y75694D01*
X62482Y76694D01*
X63482D01*
X72479Y72695D02*
Y78693D01*
X75478D01*
X76478Y77694D01*
Y75694D01*
X75478Y74695D01*
X72479D01*
X78477Y78693D02*
Y72695D01*
X81476D01*
X82476Y73695D01*
Y77694D01*
X81476Y78693D01*
X78477D01*
X84475D02*
Y72695D01*
X87474D01*
X88474Y73695D01*
Y74695D01*
X87474Y75694D01*
X84475D01*
X87474D01*
X88474Y76694D01*
Y77694D01*
X87474Y78693D01*
X84475D01*
X96471D02*
Y74695D01*
X98471Y72695D01*
X100470Y74695D01*
Y78693D01*
X102469Y72695D02*
X104469D01*
X103469D01*
Y78693D01*
X102469Y77694D01*
X107468Y72695D02*
Y73695D01*
X108467D01*
Y72695D01*
X107468D01*
X112466Y77694D02*
X113466Y78693D01*
X115465D01*
X116465Y77694D01*
Y73695D01*
X115465Y72695D01*
X113466D01*
X112466Y73695D01*
Y77694D01*
X128461Y72695D02*
X124462D01*
X128461Y76694D01*
Y77694D01*
X127461Y78693D01*
X125462D01*
X124462Y77694D01*
X130460D02*
X131460Y78693D01*
X133459D01*
X134459Y77694D01*
Y73695D01*
X133459Y72695D01*
X131460D01*
X130460Y73695D01*
Y77694D01*
X136458Y72695D02*
X138458D01*
X137458D01*
Y78693D01*
X136458Y77694D01*
X141457Y78693D02*
X145455D01*
Y77694D01*
X141457Y73695D01*
Y72695D01*
X147455Y75694D02*
X151453D01*
X157451Y72695D02*
X153453D01*
X157451Y76694D01*
Y77694D01*
X156452Y78693D01*
X154453D01*
X153453Y77694D01*
X159451D02*
X160450Y78693D01*
X162450D01*
X163450Y77694D01*
Y73695D01*
X162450Y72695D01*
X160450D01*
X159451Y73695D01*
Y77694D01*
X165449Y72695D02*
X167448D01*
X166449D01*
Y78693D01*
X165449Y77694D01*
X170447D02*
X171447Y78693D01*
X173446D01*
X174446Y77694D01*
Y76694D01*
X173446Y75694D01*
X174446Y74695D01*
Y73695D01*
X173446Y72695D01*
X171447D01*
X170447Y73695D01*
Y74695D01*
X171447Y75694D01*
X170447Y76694D01*
Y77694D01*
X171447Y75694D02*
X173446D01*
X10499Y69096D02*
X8500D01*
X7500Y68096D01*
Y64097D01*
X8500Y63098D01*
X10499D01*
X11499Y64097D01*
Y68096D01*
X10499Y69096D01*
X17497Y68096D02*
X16497Y69096D01*
X14498D01*
X13498Y68096D01*
Y67096D01*
X14498Y66097D01*
X16497D01*
X17497Y65097D01*
Y64097D01*
X16497Y63098D01*
X14498D01*
X13498Y64097D01*
X19496Y69096D02*
Y64097D01*
X20496Y63098D01*
X22495D01*
X23495Y64097D01*
Y69096D01*
X31492Y63098D02*
Y69096D01*
X34491D01*
X35491Y68096D01*
Y66097D01*
X34491Y65097D01*
X31492D01*
X33492D02*
X35491Y63098D01*
X38490D02*
X40489D01*
X41489Y64097D01*
Y66097D01*
X40489Y67096D01*
X38490D01*
X37490Y66097D01*
Y64097D01*
X38490Y63098D01*
X43488Y69096D02*
Y63098D01*
X46487D01*
X47487Y64097D01*
Y65097D01*
Y66097D01*
X46487Y67096D01*
X43488D01*
X50486Y63098D02*
X52486D01*
X53485Y64097D01*
Y66097D01*
X52486Y67096D01*
X50486D01*
X49486Y66097D01*
Y64097D01*
X50486Y63098D01*
X56484Y68096D02*
Y67096D01*
X55484D01*
X57484D01*
X56484D01*
Y64097D01*
X57484Y63098D01*
X60483D02*
X62482D01*
X61483D01*
Y67096D01*
X60483D01*
X69480D02*
X66481D01*
X65481Y66097D01*
Y64097D01*
X66481Y63098D01*
X69480D01*
X71479D02*
X74478D01*
X75478Y64097D01*
X74478Y65097D01*
X72479D01*
X71479Y66097D01*
X72479Y67096D01*
X75478D01*
X87474Y68096D02*
X86475Y69096D01*
X84475D01*
X83475Y68096D01*
Y64097D01*
X84475Y63098D01*
X86475D01*
X87474Y64097D01*
X89473Y63098D02*
X91473D01*
X90473D01*
Y69096D01*
X89473D01*
X94472Y67096D02*
Y64097D01*
X95472Y63098D01*
X98471D01*
Y67096D01*
X100470Y69096D02*
Y63098D01*
X103469D01*
X104469Y64097D01*
Y65097D01*
Y66097D01*
X103469Y67096D01*
X100470D01*
X11499Y59498D02*
X9499D01*
X10499D01*
Y54500D01*
X9499Y53500D01*
X8500D01*
X7500Y54500D01*
X14498Y53500D02*
X16497D01*
X17497Y54500D01*
Y56499D01*
X16497Y57499D01*
X14498D01*
X13498Y56499D01*
Y54500D01*
X14498Y53500D01*
X19496Y57499D02*
Y53500D01*
Y55499D01*
X20496Y56499D01*
X21496Y57499D01*
X22495D01*
X25494Y53500D02*
X27494D01*
X26494D01*
Y57499D01*
X25494D01*
X31492D02*
X33492D01*
X34491Y56499D01*
Y53500D01*
X31492D01*
X30493Y54500D01*
X31492Y55499D01*
X34491D01*
X36491Y53500D02*
Y57499D01*
X39490D01*
X40489Y56499D01*
Y53500D01*
X48487Y59498D02*
Y53500D01*
X51486D01*
X52486Y54500D01*
Y55499D01*
X51486Y56499D01*
X48487D01*
X51486D01*
X52486Y57499D01*
Y58498D01*
X51486Y59498D01*
X48487D01*
X54485Y57499D02*
Y53500D01*
Y55499D01*
X55484Y56499D01*
X56484Y57499D01*
X57484D01*
X60483D02*
Y54500D01*
X61483Y53500D01*
X64482D01*
Y57499D01*
X66481Y53500D02*
X69480D01*
X70480Y54500D01*
X69480Y55499D01*
X67481D01*
X66481Y56499D01*
X67481Y57499D01*
X70480D01*
X72479Y53500D02*
X74478D01*
X73479D01*
Y59498D01*
X72479D01*
X77477Y53500D02*
X79477D01*
X78477D01*
Y57499D01*
X77477D01*
X82476Y53500D02*
Y57499D01*
X85475D01*
X86475Y56499D01*
Y53500D01*
X92472Y59498D02*
Y53500D01*
X89473D01*
X88474Y54500D01*
Y56499D01*
X89473Y57499D01*
X92472D01*
X405071Y21595D02*
X406071Y22595D01*
X408070D01*
X409070Y21595D01*
Y20596D01*
X408070Y19596D01*
X407070D01*
X408070D01*
X409070Y18596D01*
Y17597D01*
X408070Y16597D01*
X406071D01*
X405071Y17597D01*
X411069Y15597D02*
X415068D01*
X417067Y21595D02*
X418067Y22595D01*
X420066D01*
X421066Y21595D01*
Y20596D01*
X420066Y19596D01*
X419066D01*
X420066D01*
X421066Y18596D01*
Y17597D01*
X420066Y16597D01*
X418067D01*
X417067Y17597D01*
X423065Y22595D02*
Y18596D01*
X425064Y16597D01*
X427064Y18596D01*
Y22595D01*
X435061Y16597D02*
Y22595D01*
X438060D01*
X439060Y21595D01*
Y19596D01*
X438060Y18596D01*
X435061D01*
X437060D02*
X439060Y16597D01*
X444058D02*
X442059D01*
X441059Y17597D01*
Y19596D01*
X442059Y20596D01*
X444058D01*
X445058Y19596D01*
Y18596D01*
X441059D01*
X449057Y14598D02*
X450056D01*
X451056Y15597D01*
Y20596D01*
X448057D01*
X447057Y19596D01*
Y17597D01*
X448057Y16597D01*
X451056D01*
X453055Y20596D02*
Y17597D01*
X454055Y16597D01*
X457054D01*
Y20596D01*
X459053Y16597D02*
X461053D01*
X460053D01*
Y22595D01*
X459053D01*
X465052Y20596D02*
X467051D01*
X468050Y19596D01*
Y16597D01*
X465052D01*
X464052Y17597D01*
X465052Y18596D01*
X468050D01*
X471049Y21595D02*
Y20596D01*
X470050D01*
X472049D01*
X471049D01*
Y17597D01*
X472049Y16597D01*
X476048D02*
X478047D01*
X479047Y17597D01*
Y19596D01*
X478047Y20596D01*
X476048D01*
X475048Y19596D01*
Y17597D01*
X476048Y16597D01*
X481046Y20596D02*
Y16597D01*
Y18596D01*
X482046Y19596D01*
X483046Y20596D01*
X484045D01*
X407070Y5000D02*
X405071Y6999D01*
Y8999D01*
X407070Y10998D01*
X410069Y9998D02*
X411069Y10998D01*
X413068D01*
X414068Y9998D01*
Y8999D01*
X413068Y7999D01*
X412069D01*
X413068D01*
X414068Y6999D01*
Y6000D01*
X413068Y5000D01*
X411069D01*
X410069Y6000D01*
X416067Y5000D02*
Y8999D01*
X418067Y10998D01*
X420066Y8999D01*
Y5000D01*
Y7999D01*
X416067D01*
X428063Y5000D02*
Y8999D01*
X429063D01*
X430063Y7999D01*
Y5000D01*
Y7999D01*
X431063Y8999D01*
X432062Y7999D01*
Y5000D01*
X435061Y8999D02*
X437060D01*
X438060Y7999D01*
Y5000D01*
X435061D01*
X434061Y6000D01*
X435061Y6999D01*
X438060D01*
X440060Y8999D02*
X444058Y5000D01*
X442059Y6999D01*
X444058Y8999D01*
X440060Y5000D01*
X446058D02*
X448057Y6999D01*
Y8999D01*
X446058Y10998D01*
X390000Y33498D02*
Y29499D01*
X391999Y27500D01*
X393999Y29499D01*
Y33498D01*
X395998D02*
X397997D01*
X396998D01*
Y27500D01*
X395998D01*
X397997D01*
X400996D02*
Y33498D01*
X404995Y27500D01*
Y33498D01*
X240000Y117500D02*
X241999D01*
X241000D01*
Y123498D01*
X240000Y122498D01*
X244998Y117500D02*
Y121499D01*
X246998Y123498D01*
X248997Y121499D01*
Y117500D01*
Y120499D01*
X244998D01*
X252600Y48900D02*
Y54898D01*
X255599D01*
X256599Y53898D01*
Y51899D01*
X255599Y50899D01*
X252600D01*
X258598Y54898D02*
X262597D01*
Y53898D01*
X258598Y49900D01*
Y48900D01*
X356500Y28000D02*
X358499D01*
X357500D01*
Y33998D01*
X356500Y32998D01*
X334500D02*
X335500Y33998D01*
X337499D01*
X338499Y32998D01*
Y31999D01*
X337499Y30999D01*
X336499D01*
X337499D01*
X338499Y29999D01*
Y29000D01*
X337499Y28000D01*
X335500D01*
X334500Y29000D01*
X355999Y48500D02*
Y54498D01*
X353000Y51499D01*
X356999D01*
X343500Y53498D02*
X344500Y54498D01*
X346499D01*
X347499Y53498D01*
Y52499D01*
X346499Y51499D01*
X345499D01*
X346499D01*
X347499Y50499D01*
Y49500D01*
X346499Y48500D01*
X344500D01*
X343500Y49500D01*
X348999Y28000D02*
X345000D01*
X348999Y31999D01*
Y32998D01*
X347999Y33998D01*
X346000D01*
X345000Y32998D01*
X337499Y48500D02*
X333500D01*
X337499Y52499D01*
Y53498D01*
X336499Y54498D01*
X334500D01*
X333500Y53498D01*
X251100Y140400D02*
Y146398D01*
X254099D01*
X255099Y145398D01*
Y143399D01*
X254099Y142399D01*
X251100D01*
X257098Y145398D02*
X258098Y146398D01*
X260097D01*
X261097Y145398D01*
Y144399D01*
X260097Y143399D01*
X261097Y142399D01*
Y141400D01*
X260097Y140400D01*
X258098D01*
X257098Y141400D01*
Y142399D01*
X258098Y143399D01*
X257098Y144399D01*
Y145398D01*
X258098Y143399D02*
X260097D01*
X638100Y279400D02*
Y285398D01*
X641099D01*
X642099Y284398D01*
Y282399D01*
X641099Y281399D01*
X638100D01*
X644098Y279400D02*
X646097D01*
X645098D01*
Y285398D01*
X644098Y284398D01*
X637100Y181900D02*
Y187898D01*
X640099D01*
X641099Y186898D01*
Y184899D01*
X640099Y183899D01*
X637100D01*
X647097Y181900D02*
X643098D01*
X647097Y185899D01*
Y186898D01*
X646097Y187898D01*
X644098D01*
X643098Y186898D01*
X637600Y246400D02*
Y252398D01*
X640599D01*
X641599Y251398D01*
Y249399D01*
X640599Y248399D01*
X637600D01*
X643598Y251398D02*
X644598Y252398D01*
X646597D01*
X647597Y251398D01*
Y250399D01*
X646597Y249399D01*
X645597D01*
X646597D01*
X647597Y248399D01*
Y247400D01*
X646597Y246400D01*
X644598D01*
X643598Y247400D01*
X380000Y70000D02*
Y75998D01*
X382999D01*
X383999Y74998D01*
Y72999D01*
X382999Y71999D01*
X380000D01*
X389997Y75998D02*
X385998D01*
Y72999D01*
X387997Y73999D01*
X388997D01*
X389997Y72999D01*
Y71000D01*
X388997Y70000D01*
X386998D01*
X385998Y71000D01*
X563087Y129500D02*
X569085D01*
Y126501D01*
X568085Y125501D01*
X566086D01*
X565086Y126501D01*
Y129500D01*
X563087Y120503D02*
X569085D01*
X566086Y123502D01*
Y119503D01*
X186000Y219498D02*
X189999Y215500D01*
X186000D02*
X189999Y219498D01*
X186000Y217499D02*
X189999D01*
X187999Y215500D02*
Y219498D01*
X195997Y214500D02*
X191998D01*
X195997Y218499D01*
Y219498D01*
X194997Y220498D01*
X192998D01*
X191998Y219498D01*
X193300Y353198D02*
X197299Y349200D01*
X193300D02*
X197299Y353198D01*
X193300Y351199D02*
X197299D01*
X195299Y349200D02*
Y353198D01*
X199298D02*
X200298Y354198D01*
X202297D01*
X203297Y353198D01*
Y352199D01*
X202297Y351199D01*
X201297D01*
X202297D01*
X203297Y350199D01*
Y349200D01*
X202297Y348200D01*
X200298D01*
X199298Y349200D01*
X286998Y271501D02*
X287998Y272501D01*
Y274500D01*
X286998Y275500D01*
X283000D01*
X282000Y274500D01*
Y272501D01*
X283000Y271501D01*
X282000Y269502D02*
Y267503D01*
Y268502D01*
X287998D01*
X286998Y269502D01*
X282000Y260505D02*
Y264504D01*
X285999Y260505D01*
X286998D01*
X287998Y261505D01*
Y263504D01*
X286998Y264504D01*
X308502Y286499D02*
X307502Y285499D01*
Y283500D01*
X308502Y282500D01*
X312500D01*
X313500Y283500D01*
Y285499D01*
X312500Y286499D01*
X313500Y288498D02*
Y290497D01*
Y289498D01*
X307502D01*
X308502Y288498D01*
Y293496D02*
X307502Y294496D01*
Y296496D01*
X308502Y297495D01*
X309501D01*
X310501Y296496D01*
Y295496D01*
Y296496D01*
X311501Y297495D01*
X312500D01*
X313500Y296496D01*
Y294496D01*
X312500Y293496D01*
X140002Y296499D02*
X139002Y295499D01*
Y293500D01*
X140002Y292500D01*
X144000D01*
X145000Y293500D01*
Y295499D01*
X144000Y296499D01*
X145000Y298498D02*
Y300497D01*
Y299498D01*
X139002D01*
X140002Y298498D01*
X145000Y306495D02*
X139002D01*
X142001Y303496D01*
Y307495D01*
X314499Y205498D02*
X313499Y206498D01*
X311500D01*
X310500Y205498D01*
Y201500D01*
X311500Y200500D01*
X313499D01*
X314499Y201500D01*
X316498Y200500D02*
X318497D01*
X317498D01*
Y206498D01*
X316498Y205498D01*
X325495Y206498D02*
X321496D01*
Y203499D01*
X323496Y204499D01*
X324496D01*
X325495Y203499D01*
Y201500D01*
X324496Y200500D01*
X322496D01*
X321496Y201500D01*
X307499Y311498D02*
X306499Y312498D01*
X304500D01*
X303500Y311498D01*
Y307500D01*
X304500Y306500D01*
X306499D01*
X307499Y307500D01*
X309498Y306500D02*
X311497D01*
X310498D01*
Y312498D01*
X309498Y311498D01*
X318495Y312498D02*
X316496Y311498D01*
X314496Y309499D01*
Y307500D01*
X315496Y306500D01*
X317495D01*
X318495Y307500D01*
Y308499D01*
X317495Y309499D01*
X314496D01*
X382999Y235498D02*
X381999Y236498D01*
X380000D01*
X379000Y235498D01*
Y231500D01*
X380000Y230500D01*
X381999D01*
X382999Y231500D01*
X384998Y230500D02*
X386997D01*
X385998D01*
Y236498D01*
X384998Y235498D01*
X389996Y236498D02*
X393995D01*
Y235498D01*
X389996Y231500D01*
Y230500D01*
X323498Y235501D02*
X324498Y236501D01*
Y238500D01*
X323498Y239500D01*
X319500D01*
X318500Y238500D01*
Y236501D01*
X319500Y235501D01*
X318500Y233502D02*
Y231503D01*
Y232502D01*
X324498D01*
X323498Y233502D01*
X319500Y228504D02*
X318500Y227504D01*
Y225504D01*
X319500Y224505D01*
X323498D01*
X324498Y225504D01*
Y227504D01*
X323498Y228504D01*
X322499D01*
X321499Y227504D01*
Y224505D01*
X43200Y297798D02*
X45199D01*
X44200D01*
Y291800D01*
X43200D01*
X45199D01*
X48198Y296798D02*
X49198Y297798D01*
X51197D01*
X52197Y296798D01*
Y295799D01*
X51197Y294799D01*
X50198D01*
X51197D01*
X52197Y293799D01*
Y292800D01*
X51197Y291800D01*
X49198D01*
X48198Y292800D01*
X649000Y39925D02*
X650999D01*
X650000D01*
Y45923D01*
X649000Y44924D01*
X595685Y53498D02*
X594686Y54498D01*
X592686D01*
X591687Y53498D01*
Y49500D01*
X592686Y48500D01*
X594686D01*
X595685Y49500D01*
X597685Y48500D02*
X599684D01*
X598684D01*
Y54498D01*
X597685Y53498D01*
X595685Y73198D02*
X594686Y74198D01*
X592686D01*
X591687Y73198D01*
Y69200D01*
X592686Y68200D01*
X594686D01*
X595685Y69200D01*
X601683Y68200D02*
X597685D01*
X601683Y72199D01*
Y73198D01*
X600684Y74198D01*
X598684D01*
X597685Y73198D01*
X595685Y92898D02*
X594686Y93898D01*
X592686D01*
X591687Y92898D01*
Y88900D01*
X592686Y87900D01*
X594686D01*
X595685Y88900D01*
X597685Y92898D02*
X598684Y93898D01*
X600684D01*
X601683Y92898D01*
Y91899D01*
X600684Y90899D01*
X599684D01*
X600684D01*
X601683Y89899D01*
Y88900D01*
X600684Y87900D01*
X598684D01*
X597685Y88900D01*
X575985Y53498D02*
X574986Y54498D01*
X572986D01*
X571987Y53498D01*
Y49500D01*
X572986Y48500D01*
X574986D01*
X575985Y49500D01*
X580984Y48500D02*
Y54498D01*
X577985Y51499D01*
X581983D01*
X611585Y27998D02*
X610586Y28998D01*
X608586D01*
X607587Y27998D01*
Y24000D01*
X608586Y23000D01*
X610586D01*
X611585Y24000D01*
X617583Y28998D02*
X613585D01*
Y25999D01*
X615584Y26999D01*
X616584D01*
X617583Y25999D01*
Y24000D01*
X616584Y23000D01*
X614584D01*
X613585Y24000D01*
X575985Y73198D02*
X574986Y74198D01*
X572986D01*
X571987Y73198D01*
Y69200D01*
X572986Y68200D01*
X574986D01*
X575985Y69200D01*
X581983Y74198D02*
X579984Y73198D01*
X577985Y71199D01*
Y69200D01*
X578984Y68200D01*
X580984D01*
X581983Y69200D01*
Y70199D01*
X580984Y71199D01*
X577985D01*
X575985Y92898D02*
X574986Y93898D01*
X572986D01*
X571987Y92898D01*
Y88900D01*
X572986Y87900D01*
X574986D01*
X575985Y88900D01*
X577985Y93898D02*
X581983D01*
Y92898D01*
X577985Y88900D01*
Y87900D01*
X452999Y125498D02*
X451999Y126498D01*
X450000D01*
X449000Y125498D01*
Y121500D01*
X450000Y120500D01*
X451999D01*
X452999Y121500D01*
X454998Y125498D02*
X455998Y126498D01*
X457997D01*
X458997Y125498D01*
Y124499D01*
X457997Y123499D01*
X458997Y122499D01*
Y121500D01*
X457997Y120500D01*
X455998D01*
X454998Y121500D01*
Y122499D01*
X455998Y123499D01*
X454998Y124499D01*
Y125498D01*
X455998Y123499D02*
X457997D01*
X431999Y123498D02*
X430999Y124498D01*
X429000D01*
X428000Y123498D01*
Y119500D01*
X429000Y118500D01*
X430999D01*
X431999Y119500D01*
X433998D02*
X434998Y118500D01*
X436997D01*
X437997Y119500D01*
Y123498D01*
X436997Y124498D01*
X434998D01*
X433998Y123498D01*
Y122499D01*
X434998Y121499D01*
X437997D01*
X410502Y105499D02*
X409502Y104499D01*
Y102500D01*
X410502Y101500D01*
X414500D01*
X415500Y102500D01*
Y104499D01*
X414500Y105499D01*
X415500Y107498D02*
Y109497D01*
Y108498D01*
X409502D01*
X410502Y107498D01*
Y112496D02*
X409502Y113496D01*
Y115496D01*
X410502Y116495D01*
X414500D01*
X415500Y115496D01*
Y113496D01*
X414500Y112496D01*
X410502D01*
X443799Y104798D02*
X442799Y105798D01*
X440800D01*
X439800Y104798D01*
Y100800D01*
X440800Y99800D01*
X442799D01*
X443799Y100800D01*
X445798Y99800D02*
X447797D01*
X446798D01*
Y105798D01*
X445798Y104798D01*
X450796Y99800D02*
X452796D01*
X451796D01*
Y105798D01*
X450796Y104798D01*
X626087Y137498D02*
X628086D01*
X627086D01*
Y131500D01*
X626087D01*
X628086D01*
X631085D02*
X633084D01*
X632085D01*
Y137498D01*
X631085Y136498D01*
X475600Y127398D02*
X477599D01*
X476600D01*
Y121400D01*
X475600D01*
X477599D01*
X484597D02*
X480598D01*
X484597Y125399D01*
Y126398D01*
X483597Y127398D01*
X481598D01*
X480598Y126398D01*
X620187Y74200D02*
Y80198D01*
X623186D01*
X624185Y79198D01*
Y77199D01*
X623186Y76199D01*
X620187D01*
X622186D02*
X624185Y74200D01*
X626185D02*
X628184D01*
X627184D01*
Y80198D01*
X626185Y79198D01*
X607787Y74100D02*
Y80098D01*
X610786D01*
X611785Y79098D01*
Y77099D01*
X610786Y76099D01*
X607787D01*
X609786D02*
X611785Y74100D01*
X617783D02*
X613785D01*
X617783Y78099D01*
Y79098D01*
X616784Y80098D01*
X614784D01*
X613785Y79098D01*
X610187Y89600D02*
Y95598D01*
X613186D01*
X614185Y94598D01*
Y92599D01*
X613186Y91599D01*
X610187D01*
X612186D02*
X614185Y89600D01*
X616185Y94598D02*
X617184Y95598D01*
X619184D01*
X620183Y94598D01*
Y93599D01*
X619184Y92599D01*
X618184D01*
X619184D01*
X620183Y91599D01*
Y90600D01*
X619184Y89600D01*
X617184D01*
X616185Y90600D01*
X461400Y78500D02*
Y84498D01*
X464399D01*
X465399Y83498D01*
Y81499D01*
X464399Y80499D01*
X461400D01*
X463399D02*
X465399Y78500D01*
X470397D02*
Y84498D01*
X467398Y81499D01*
X471397D01*
X461400Y117900D02*
Y123898D01*
X464399D01*
X465399Y122898D01*
Y120899D01*
X464399Y119899D01*
X461400D01*
X463399D02*
X465399Y117900D01*
X471397Y123898D02*
X467398D01*
Y120899D01*
X469397Y121899D01*
X470397D01*
X471397Y120899D01*
Y118900D01*
X470397Y117900D01*
X468398D01*
X467398Y118900D01*
X461400Y98200D02*
Y104198D01*
X464399D01*
X465399Y103198D01*
Y101199D01*
X464399Y100199D01*
X461400D01*
X463399D02*
X465399Y98200D01*
X471397Y104198D02*
X469397Y103198D01*
X467398Y101199D01*
Y99200D01*
X468398Y98200D01*
X470397D01*
X471397Y99200D01*
Y100199D01*
X470397Y101199D01*
X467398D01*
X372100Y304872D02*
X376099Y300874D01*
X372100D02*
X376099Y304872D01*
X372100Y302873D02*
X376099D01*
X374099Y300874D02*
Y304872D01*
X430200Y352400D02*
Y358398D01*
X433199D01*
X434199Y357398D01*
Y355399D01*
X433199Y354399D01*
X430200D01*
X440197Y358398D02*
X438197Y357398D01*
X436198Y355399D01*
Y353400D01*
X437198Y352400D01*
X439197D01*
X440197Y353400D01*
Y354399D01*
X439197Y355399D01*
X436198D01*
X46000Y351498D02*
Y348166D01*
X47666Y346500D01*
X49332Y348166D01*
Y351498D01*
X50998D02*
X52665D01*
X51831D01*
Y346500D01*
X50998D01*
X52665D01*
X55164D02*
Y351498D01*
X58496Y346500D01*
Y351498D01*
X568000Y351000D02*
X569666D01*
X568833D01*
Y355998D01*
X568000Y355165D01*
X575498Y351000D02*
X572165D01*
X575498Y354332D01*
Y355165D01*
X574664Y355998D01*
X572998D01*
X572165Y355165D01*
X577164Y355998D02*
Y352666D01*
X578830Y351000D01*
X580496Y352666D01*
Y355998D01*
X589660D02*
X587993D01*
X587160Y355165D01*
Y351833D01*
X587993Y351000D01*
X589660D01*
X590493Y351833D01*
Y355165D01*
X589660Y355998D01*
X592159D02*
Y351833D01*
X592992Y351000D01*
X594658D01*
X595491Y351833D01*
Y355998D01*
X597157D02*
X600490D01*
X598823D01*
Y351000D01*
X32000Y192498D02*
Y189166D01*
X33666Y187500D01*
X35332Y189166D01*
Y192498D01*
X36998D02*
X38664D01*
X37831D01*
Y187500D01*
X36998D01*
X38664D01*
X41164D02*
Y192498D01*
X44496Y187500D01*
Y192498D01*
X52827Y187500D02*
X51161Y189166D01*
Y190832D01*
X52827Y192498D01*
X58658Y191665D02*
X57825Y192498D01*
X56159D01*
X55326Y191665D01*
Y188333D01*
X56159Y187500D01*
X57825D01*
X58658Y188333D01*
Y189999D01*
X56992D01*
X60324Y187500D02*
Y192498D01*
X63656Y187500D01*
Y192498D01*
X65323D02*
Y187500D01*
X67822D01*
X68655Y188333D01*
Y191665D01*
X67822Y192498D01*
X65323D01*
X70321Y187500D02*
X71987Y189166D01*
Y190832D01*
X70321Y192498D01*
X609500Y356498D02*
Y353166D01*
X611166Y351500D01*
X612832Y353166D01*
Y356498D01*
X616998D02*
X615331D01*
X614498Y355665D01*
Y352333D01*
X615331Y351500D01*
X616998D01*
X617831Y352333D01*
Y355665D01*
X616998Y356498D01*
X619497D02*
Y352333D01*
X620330Y351500D01*
X621996D01*
X622829Y352333D01*
Y356498D01*
X624495D02*
X627827D01*
X626161D01*
Y351500D01*
X636158D02*
X634492Y353166D01*
Y354832D01*
X636158Y356498D01*
X641990Y355665D02*
X641156Y356498D01*
X639490D01*
X638657Y355665D01*
Y352333D01*
X639490Y351500D01*
X641156D01*
X641990Y352333D01*
Y353999D01*
X640323D01*
X643656Y351500D02*
Y356498D01*
X646988Y351500D01*
Y356498D01*
X648654D02*
Y351500D01*
X651153D01*
X651986Y352333D01*
Y355665D01*
X651153Y356498D01*
X648654D01*
X653652Y351500D02*
X655318Y353166D01*
Y354832D01*
X653652Y356498D01*
X529051Y251905D02*
X530051Y250905D01*
X532050D01*
X533050Y251905D01*
Y255904D01*
X532050Y256904D01*
X530051D01*
X529051Y255904D01*
Y254904D01*
X530051Y253905D01*
X533050D01*
X541047Y256904D02*
Y252905D01*
X543047Y250905D01*
X545046Y252905D01*
Y256904D01*
X550044D02*
X548045D01*
X547045Y255904D01*
Y251905D01*
X548045Y250905D01*
X550044D01*
X551044Y251905D01*
Y255904D01*
X550044Y256904D01*
X553043D02*
Y251905D01*
X554043Y250905D01*
X556042D01*
X557042Y251905D01*
Y256904D01*
X559042D02*
X563040D01*
X561041D01*
Y250905D01*
X571038Y253905D02*
X575036D01*
X573037Y255904D02*
Y251905D01*
X529051Y240156D02*
X530051Y241156D01*
X532050D01*
X533050Y240156D01*
Y239156D01*
X532050Y238157D01*
X533050Y237157D01*
Y236157D01*
X532050Y235157D01*
X530051D01*
X529051Y236157D01*
Y237157D01*
X530051Y238157D01*
X529051Y239156D01*
Y240156D01*
X530051Y238157D02*
X532050D01*
X545046Y240156D02*
X544046Y241156D01*
X542047D01*
X541047Y240156D01*
Y239156D01*
X542047Y238157D01*
X544046D01*
X545046Y237157D01*
Y236157D01*
X544046Y235157D01*
X542047D01*
X541047Y236157D01*
X551044Y241156D02*
X547045D01*
Y235157D01*
X551044D01*
X547045Y238157D02*
X549045D01*
X553043Y235157D02*
Y241156D01*
X557042Y235157D01*
Y241156D01*
X563040Y240156D02*
X562041Y241156D01*
X560041D01*
X559042Y240156D01*
Y239156D01*
X560041Y238157D01*
X562041D01*
X563040Y237157D01*
Y236157D01*
X562041Y235157D01*
X560041D01*
X559042Y236157D01*
X569038Y241156D02*
X565039D01*
Y235157D01*
X569038D01*
X565039Y238157D02*
X567039D01*
X577036D02*
X581034D01*
X579035Y240156D02*
Y236157D01*
X529051Y227376D02*
X533050D01*
Y226376D01*
X529051Y222378D01*
Y221378D01*
X541047Y227376D02*
X545046D01*
X543047D01*
Y221378D01*
X547045D02*
Y227376D01*
X550044D01*
X551044Y226376D01*
Y224377D01*
X550044Y223377D01*
X547045D01*
X549045D02*
X551044Y221378D01*
X553043Y227376D02*
X555043D01*
X554043D01*
Y221378D01*
X553043D01*
X555043D01*
X558042D02*
Y227376D01*
X560041Y225377D01*
X562041Y227376D01*
Y221378D01*
X533050Y213597D02*
X531050Y212597D01*
X529051Y210597D01*
Y208598D01*
X530051Y207598D01*
X532050D01*
X533050Y208598D01*
Y209598D01*
X532050Y210597D01*
X529051D01*
X545046Y212597D02*
X544046Y213597D01*
X542047D01*
X541047Y212597D01*
Y211597D01*
X542047Y210597D01*
X544046D01*
X545046Y209598D01*
Y208598D01*
X544046Y207598D01*
X542047D01*
X541047Y208598D01*
X551044Y213597D02*
X547045D01*
Y207598D01*
X551044D01*
X547045Y210597D02*
X549045D01*
X553043Y207598D02*
Y213597D01*
X557042Y207598D01*
Y213597D01*
X563040Y212597D02*
X562041Y213597D01*
X560041D01*
X559042Y212597D01*
Y211597D01*
X560041Y210597D01*
X562041D01*
X563040Y209598D01*
Y208598D01*
X562041Y207598D01*
X560041D01*
X559042Y208598D01*
X569038Y213597D02*
X565039D01*
Y207598D01*
X569038D01*
X565039Y210597D02*
X567039D01*
X577036D02*
X581034D01*
X533050Y197848D02*
X529051D01*
Y194849D01*
X531050Y195849D01*
X532050D01*
X533050Y194849D01*
Y192850D01*
X532050Y191850D01*
X530051D01*
X529051Y192850D01*
X541047Y197848D02*
Y193850D01*
X543047Y191850D01*
X545046Y193850D01*
Y197848D01*
X550044D02*
X548045D01*
X547045Y196849D01*
Y192850D01*
X548045Y191850D01*
X550044D01*
X551044Y192850D01*
Y196849D01*
X550044Y197848D01*
X553043D02*
Y192850D01*
X554043Y191850D01*
X556042D01*
X557042Y192850D01*
Y197848D01*
X559042D02*
X563040D01*
X561041D01*
Y191850D01*
X571038Y194849D02*
X575036D01*
X413940Y192874D02*
Y198872D01*
X410941Y195873D01*
X414940D01*
X422937Y198872D02*
Y194873D01*
X424936Y192874D01*
X426936Y194873D01*
Y198872D01*
X428935D02*
X430934D01*
X429935D01*
Y192874D01*
X428935D01*
X430934D01*
X433933D02*
Y198872D01*
X437932Y192874D01*
Y198872D01*
X445930Y195873D02*
X449928D01*
X410941Y212872D02*
X411941Y213872D01*
X413940D01*
X414940Y212872D01*
Y211873D01*
X413940Y210873D01*
X412940D01*
X413940D01*
X414940Y209873D01*
Y208874D01*
X413940Y207874D01*
X411941D01*
X410941Y208874D01*
X426936Y212872D02*
X425936Y213872D01*
X423937D01*
X422937Y212872D01*
Y208874D01*
X423937Y207874D01*
X425936D01*
X426936Y208874D01*
X428935Y207874D02*
Y211873D01*
X430934Y213872D01*
X432934Y211873D01*
Y207874D01*
Y210873D01*
X428935D01*
X438932Y212872D02*
X437932Y213872D01*
X435933D01*
X434933Y212872D01*
Y211873D01*
X435933Y210873D01*
X437932D01*
X438932Y209873D01*
Y208874D01*
X437932Y207874D01*
X435933D01*
X434933Y208874D01*
X444930Y213872D02*
X440931D01*
Y207874D01*
X444930D01*
X440931Y210873D02*
X442931D01*
X414940Y222874D02*
X410941D01*
X414940Y226873D01*
Y227872D01*
X413940Y228872D01*
X411941D01*
X410941Y227872D01*
X425936Y228872D02*
X423937D01*
X422937Y227872D01*
Y223874D01*
X423937Y222874D01*
X425936D01*
X426936Y223874D01*
Y227872D01*
X425936Y228872D01*
X428935Y222874D02*
Y228872D01*
X432934Y222874D01*
Y228872D01*
X434933Y222874D02*
X438932Y226873D01*
X443930Y228872D02*
X441931D01*
X440931Y227872D01*
Y223874D01*
X441931Y222874D01*
X443930D01*
X444930Y223874D01*
Y227872D01*
X443930Y228872D01*
X450928D02*
X446929D01*
Y225873D01*
X448929D01*
X446929D01*
Y222874D01*
X456926Y228872D02*
X452927D01*
Y225873D01*
X454927D01*
X452927D01*
Y222874D01*
X410941Y252874D02*
X412940D01*
X411941D01*
Y258872D01*
X410941Y257872D01*
X421937Y258872D02*
Y254873D01*
X423937Y252874D01*
X425936Y254873D01*
Y258872D01*
X427936D02*
X429935D01*
X428935D01*
Y252874D01*
X427936D01*
X429935D01*
X432934D02*
Y258872D01*
X436933Y252874D01*
Y258872D01*
X444930Y255873D02*
X448929D01*
X446929Y257872D02*
Y253874D01*
D80*
X439067Y109256D02*
X453067D01*
X439067Y116256D02*
X453067D01*
X439067Y109256D02*
Y116256D01*
X453067Y109256D02*
Y116256D01*
X460652Y91171D02*
Y94971D01*
X468852D01*
Y91171D02*
Y94971D01*
X460652Y91171D02*
X468852D01*
X460652Y110856D02*
Y114656D01*
X468852D01*
Y110856D02*
Y114656D01*
X460652Y110856D02*
X468852D01*
X439067Y89571D02*
X453067D01*
X439067Y96571D02*
X453067D01*
X439067Y89571D02*
Y96571D01*
X453067Y89571D02*
Y96571D01*
X460652Y71486D02*
Y75286D01*
X468852D01*
Y71486D02*
Y75286D01*
X460652Y71486D02*
X468852D01*
X617687Y82600D02*
Y86400D01*
X609487Y82600D02*
X617687D01*
X609487D02*
Y86400D01*
X617687D01*
X615187Y67100D02*
Y70900D01*
X606987Y67100D02*
X615187D01*
X606987D02*
Y70900D01*
X615187D01*
X627687Y67100D02*
Y70900D01*
X619487Y67100D02*
X627687D01*
X619487D02*
Y70900D01*
X627687D01*
X418200Y102700D02*
X422800D01*
X418200Y112800D02*
X422800D01*
Y102700D02*
Y112800D01*
X418200Y102700D02*
Y112800D01*
D81*
X326999Y28000D02*
Y33998D01*
X324000Y30999D01*
X327999D01*
X324500Y48500D02*
X326499D01*
X325500D01*
Y54498D01*
X324500Y53498D01*
D82*
X556587Y135168D02*
Y138500D01*
X559919Y135168D01*
X560752D01*
X561585Y136001D01*
Y137667D01*
X560752Y138500D01*
X546587D02*
Y136834D01*
Y137667D01*
X551585D01*
X550752Y138500D01*
X546587Y53426D02*
Y51760D01*
Y52593D01*
X551585D01*
X550752Y53426D01*
X551585Y45928D02*
Y49261D01*
X549086D01*
X549919Y47595D01*
Y46762D01*
X549086Y45928D01*
X547420D01*
X546587Y46762D01*
Y48428D01*
X547420Y49261D01*
X556587Y53335D02*
Y51669D01*
Y52502D01*
X561585D01*
X560752Y53335D01*
X561585Y45838D02*
X560752Y47504D01*
X559086Y49170D01*
X557420D01*
X556587Y48337D01*
Y46671D01*
X557420Y45838D01*
X558253D01*
X559086Y46671D01*
Y49170D01*
X410832Y60500D02*
X407500D01*
X410832Y63832D01*
Y64665D01*
X409999Y65498D01*
X408333D01*
X407500Y64665D01*
Y50500D02*
X409166D01*
X408333D01*
Y55498D01*
X407500Y54665D01*
X492574Y50500D02*
X494240D01*
X493407D01*
Y55498D01*
X492574Y54665D01*
X500071Y55498D02*
X496739D01*
Y52999D01*
X498405Y53832D01*
X499238D01*
X500071Y52999D01*
Y51333D01*
X499238Y50500D01*
X497572D01*
X496739Y51333D01*
X492665Y60500D02*
X494331D01*
X493498D01*
Y65498D01*
X492665Y64665D01*
X500162Y65498D02*
X498496Y64665D01*
X496830Y62999D01*
Y61333D01*
X497663Y60500D01*
X499329D01*
X500162Y61333D01*
Y62166D01*
X499329Y62999D01*
X496830D01*
X525500Y335167D02*
X524667Y336000D01*
X523001D01*
X522168Y335167D01*
Y331835D01*
X523001Y331002D01*
X524667D01*
X525500Y331835D01*
Y332668D01*
X524667Y333501D01*
X522168D01*
X525500Y346000D02*
X523834D01*
X524667D01*
Y341002D01*
X525500Y341835D01*
X437500D02*
X436667Y341002D01*
X435001D01*
X434168Y341835D01*
Y342668D01*
X435001Y343501D01*
X434168Y344334D01*
Y345167D01*
X435001Y346000D01*
X436667D01*
X437500Y345167D01*
Y344334D01*
X436667Y343501D01*
X437500Y342668D01*
Y341835D01*
X436667Y343501D02*
X435001D01*
X437500Y336000D02*
X435834D01*
X436667D01*
Y331002D01*
X437500Y331835D01*
X430002Y331002D02*
X431669Y331835D01*
X433335Y333501D01*
Y335167D01*
X432502Y336000D01*
X430835D01*
X430002Y335167D01*
Y334334D01*
X430835Y333501D01*
X433335D01*
M02*
