G04 Layer_Physical_Order=1*
G04 Layer_Color=255*
%FSLAX25Y25*%
%MOIN*%
G70*
G01*
G75*
%ADD10R,0.06299X0.05512*%
%ADD11R,0.04000X0.05000*%
%ADD12R,0.30512X0.08661*%
%ADD13R,0.04331X0.03937*%
%ADD14R,0.02756X0.03543*%
%ADD15R,0.06299X0.07087*%
%ADD16R,0.03543X0.02756*%
%ADD17R,0.02500X0.02000*%
%ADD18R,0.32559X0.12598*%
%ADD19R,0.07087X0.06299*%
%ADD20R,0.23386X0.41378*%
%ADD21R,0.12205X0.09449*%
%ADD22O,0.02362X0.03740*%
%ADD23R,0.03000X0.03000*%
%ADD24C,0.15748*%
%ADD25C,0.03937*%
%ADD26C,0.19685*%
%ADD27C,0.01200*%
%ADD28C,0.02000*%
%ADD29C,0.07874*%
%ADD30C,0.02500*%
%ADD31R,0.07500X0.02000*%
%ADD32R,0.22000X0.14000*%
%ADD33R,0.23000X0.31000*%
%ADD34R,0.08500X0.11500*%
%ADD35R,0.27500X0.23500*%
%ADD36R,0.19500X0.17500*%
%ADD37R,0.19500X0.20000*%
%ADD38R,0.30500X0.21500*%
%ADD39R,0.36000X0.49500*%
%ADD40R,0.30000X0.17500*%
%ADD41R,0.31000X0.22500*%
%ADD42R,0.30500X0.24500*%
%ADD43R,0.22000X0.15500*%
%ADD44R,0.17500X0.08000*%
%ADD45R,0.32500X0.10500*%
%ADD46R,0.22500X0.16500*%
%ADD47R,0.08500X0.06000*%
%ADD48R,0.11500X0.20000*%
%ADD49R,0.22500X0.22500*%
%ADD50R,0.20000X0.15500*%
%ADD51C,0.06000*%
%ADD52R,0.06000X0.06000*%
%ADD53C,0.05905*%
%ADD54R,0.05905X0.05905*%
%ADD55C,0.18000*%
%ADD56R,0.05905X0.05905*%
%ADD57O,0.17700X0.08850*%
%ADD58C,0.16200*%
%ADD59C,0.11811*%
%ADD60C,0.15748*%
%ADD61O,0.09842X0.11811*%
%ADD62R,0.05315X0.05315*%
%ADD63C,0.05315*%
%ADD64C,0.05000*%
%ADD65C,0.01968*%
G36*
X712500Y397000D02*
X712500Y-0D01*
X348Y0D01*
X-3Y356D01*
X5418Y397000D01*
X712500Y397000D01*
D02*
G37*
%LPC*%
G36*
X385500Y136278D02*
X382475Y135025D01*
X381222Y132000D01*
X382475Y128975D01*
X382713Y128876D01*
Y122675D01*
X382438Y122562D01*
X381170Y119500D01*
X382438Y116438D01*
X385500Y115170D01*
X388562Y116438D01*
X389830Y119500D01*
X388562Y122562D01*
X388287Y122675D01*
Y128876D01*
X388525Y128975D01*
X389778Y132000D01*
X388525Y135025D01*
X385500Y136278D01*
D02*
G37*
G36*
X375500D02*
X372475Y135025D01*
X371222Y132000D01*
X372475Y128975D01*
X372713Y128876D01*
Y122675D01*
X372439Y122562D01*
X371170Y119500D01*
X372439Y116438D01*
X375500Y115170D01*
X378561Y116438D01*
X379830Y119500D01*
X378561Y122562D01*
X378287Y122675D01*
Y128876D01*
X378525Y128975D01*
X379778Y132000D01*
X378525Y135025D01*
X375500Y136278D01*
D02*
G37*
G36*
X365000Y119000D02*
X361378D01*
X362439Y116438D01*
X365000Y115377D01*
Y119000D01*
D02*
G37*
G36*
X369571Y131500D02*
X361429D01*
X362475Y128975D01*
X362713Y128876D01*
Y122675D01*
X362439Y122562D01*
X361378Y120000D01*
X365500D01*
X369622D01*
X368562Y122562D01*
X368287Y122675D01*
Y128876D01*
X368525Y128975D01*
X369571Y131500D01*
D02*
G37*
G36*
X369622Y119000D02*
X366000D01*
Y115377D01*
X368562Y116438D01*
X369622Y119000D01*
D02*
G37*
G36*
X355500Y136278D02*
X352475Y135025D01*
X351222Y132000D01*
X352475Y128975D01*
X352713Y128876D01*
Y122675D01*
X352438Y122562D01*
X351170Y119500D01*
X352438Y116438D01*
X355500Y115170D01*
X358561Y116438D01*
X359830Y119500D01*
X358561Y122562D01*
X358287Y122675D01*
Y128876D01*
X358525Y128975D01*
X359778Y132000D01*
X358525Y135025D01*
X355500Y136278D01*
D02*
G37*
G36*
X315500D02*
X312475Y135025D01*
X311222Y132000D01*
X312475Y128975D01*
X312713Y128876D01*
Y122675D01*
X312439Y122562D01*
X311170Y119500D01*
X312439Y116438D01*
X315500Y115170D01*
X318562Y116438D01*
X319830Y119500D01*
X318562Y122562D01*
X318287Y122675D01*
Y128876D01*
X318525Y128975D01*
X319778Y132000D01*
X318525Y135025D01*
X315500Y136278D01*
D02*
G37*
G36*
X305500D02*
X302475Y135025D01*
X301222Y132000D01*
X302475Y128975D01*
X302713Y128876D01*
Y122675D01*
X302438Y122562D01*
X301170Y119500D01*
X302438Y116438D01*
X305500Y115170D01*
X308561Y116438D01*
X309830Y119500D01*
X308561Y122562D01*
X308287Y122675D01*
Y128876D01*
X308525Y128975D01*
X309778Y132000D01*
X308525Y135025D01*
X305500Y136278D01*
D02*
G37*
G36*
X325500D02*
X322475Y135025D01*
X321222Y132000D01*
X322475Y128975D01*
X322713Y128876D01*
Y122675D01*
X322439Y122562D01*
X321170Y119500D01*
X322439Y116438D01*
X325500Y115170D01*
X328561Y116438D01*
X329830Y119500D01*
X328561Y122562D01*
X328287Y122675D01*
Y128876D01*
X328525Y128975D01*
X329778Y132000D01*
X328525Y135025D01*
X325500Y136278D01*
D02*
G37*
G36*
X345500D02*
X342475Y135025D01*
X341222Y132000D01*
X342475Y128975D01*
X342713Y128876D01*
Y122675D01*
X342439Y122562D01*
X341170Y119500D01*
X342439Y116438D01*
X345500Y115170D01*
X348562Y116438D01*
X349830Y119500D01*
X348562Y122562D01*
X348287Y122675D01*
Y128876D01*
X348525Y128975D01*
X349778Y132000D01*
X348525Y135025D01*
X345500Y136278D01*
D02*
G37*
G36*
X335500D02*
X332475Y135025D01*
X331222Y132000D01*
X332475Y128975D01*
X332713Y128876D01*
Y122675D01*
X332438Y122562D01*
X331170Y119500D01*
X332438Y116438D01*
X335500Y115170D01*
X338562Y116438D01*
X339830Y119500D01*
X338562Y122562D01*
X338287Y122675D01*
Y128876D01*
X338525Y128975D01*
X339778Y132000D01*
X338525Y135025D01*
X335500Y136278D01*
D02*
G37*
G36*
X222500Y221082D02*
X192000D01*
X191235Y220765D01*
X190918Y220000D01*
Y195500D01*
X191235Y194735D01*
X192000Y194418D01*
X222500D01*
X223265Y194735D01*
X223582Y195500D01*
Y220000D01*
X223265Y220765D01*
X222500Y221082D01*
D02*
G37*
G36*
X645953Y201953D02*
X638047D01*
Y194047D01*
X645953D01*
Y201953D01*
D02*
G37*
G36*
X64000Y267350D02*
X57035Y264465D01*
X54150Y257500D01*
X57035Y250535D01*
X64000Y247650D01*
X70965Y250535D01*
X73850Y257500D01*
X70965Y264465D01*
X64000Y267350D01*
D02*
G37*
G36*
X290500Y359082D02*
X260000D01*
X259235Y358765D01*
X258918Y358000D01*
Y336500D01*
X258903Y336478D01*
X241799D01*
X235309Y333790D01*
X235309Y333790D01*
X224544Y323025D01*
X224082Y323217D01*
Y344500D01*
X223858Y345041D01*
Y345441D01*
X223341D01*
X223000Y345582D01*
X192000D01*
X191235Y345265D01*
X190918Y344500D01*
Y322000D01*
X191235Y321235D01*
X192000Y320918D01*
X221783D01*
X221975Y320456D01*
X201505Y299987D01*
X200862Y298433D01*
X192134D01*
Y288559D01*
X200862D01*
X201505Y287005D01*
X207996Y284317D01*
X214487Y287005D01*
X216040Y288559D01*
X223858D01*
Y296377D01*
X245601Y318120D01*
X293936D01*
X297649Y319658D01*
X298032Y319276D01*
X297918Y319000D01*
Y312082D01*
X296000D01*
X295235Y311765D01*
X294918Y311000D01*
Y299359D01*
X294502Y299082D01*
X294500Y299082D01*
X258500D01*
X257735Y298765D01*
X257418Y298000D01*
Y248500D01*
X257735Y247735D01*
X258142Y247566D01*
Y245402D01*
X257642Y245251D01*
X255439Y248548D01*
X255439Y248548D01*
X234276Y269710D01*
X230820Y272020D01*
X226743Y272831D01*
X226743Y272831D01*
X187249D01*
X187249Y272831D01*
X183172Y272020D01*
X179716Y269710D01*
X178159Y268154D01*
X165273D01*
X164939Y268653D01*
X165082Y269000D01*
Y279500D01*
X165209Y279689D01*
X176843D01*
X180920Y280500D01*
X184376Y282809D01*
X186685Y286266D01*
X187496Y290343D01*
X186685Y294420D01*
X184376Y297876D01*
X180920Y300185D01*
X176843Y300996D01*
X169653D01*
Y320000D01*
X169653Y320000D01*
X168843Y324077D01*
X166533Y327533D01*
X155533Y338533D01*
X152077Y340843D01*
X148000Y341653D01*
X148000Y341653D01*
X55500D01*
X51423Y340843D01*
X50734Y340382D01*
X49775Y340191D01*
X46468Y337981D01*
X44257Y334673D01*
X44130Y334032D01*
X43157Y332577D01*
X42347Y328500D01*
X43157Y324423D01*
X45467Y320967D01*
X48923Y318657D01*
X53000Y317846D01*
X57077Y318657D01*
X59605Y320346D01*
X143587D01*
X148346Y315587D01*
Y290343D01*
X149157Y286266D01*
X149811Y285288D01*
X149479Y284884D01*
X149000Y285082D01*
X145124D01*
X144425Y285372D01*
X135575D01*
X134876Y285082D01*
X131500D01*
X130735Y284765D01*
X130418Y284000D01*
Y281225D01*
X129703Y279500D01*
X130418Y277775D01*
Y276000D01*
Y269000D01*
X130561Y268653D01*
X130227Y268154D01*
X117000D01*
X115621Y267879D01*
X114219Y267784D01*
X113600Y267477D01*
X112923Y267343D01*
X111754Y266562D01*
X110495Y265937D01*
X47194Y217133D01*
X44995Y215437D01*
X42261Y212305D01*
X40934Y208366D01*
X41216Y204219D01*
X43063Y200495D01*
X46194Y197761D01*
X50134Y196434D01*
X54281Y196716D01*
X58005Y198563D01*
X60204Y200259D01*
X120630Y246847D01*
X182572D01*
X182572Y246847D01*
X185471Y247423D01*
X185717Y246962D01*
X184908Y246153D01*
X178196D01*
X174119Y245343D01*
X170663Y243033D01*
X168353Y239577D01*
X168097Y238287D01*
X149143D01*
X148577Y239652D01*
X144425Y241372D01*
X135575D01*
X131423Y239652D01*
X129703Y235500D01*
X131423Y231348D01*
X135575Y229628D01*
X144425D01*
X148577Y231348D01*
X149143Y232713D01*
X168097D01*
X168353Y231423D01*
X170663Y227967D01*
X174119Y225657D01*
X178196Y224847D01*
X195492D01*
X195492Y224847D01*
X199131Y225570D01*
X199500Y225418D01*
X222000D01*
X222765Y225735D01*
X223082Y226500D01*
Y243000D01*
X222858Y243541D01*
Y250342D01*
X223320Y250534D01*
X237645Y236209D01*
X238063Y234105D01*
X240372Y230649D01*
X246724Y224298D01*
X246724Y224298D01*
X250180Y221988D01*
X254257Y221177D01*
X254257Y221177D01*
X293751D01*
X293751Y221177D01*
X296511Y221726D01*
X296918Y221297D01*
Y204000D01*
X297235Y203235D01*
X298000Y202918D01*
X314641D01*
X314918Y202502D01*
X314918Y202500D01*
Y179000D01*
X315235Y178235D01*
X316000Y177918D01*
X343500D01*
X344265Y178235D01*
X344582Y179000D01*
Y190159D01*
X344765Y190235D01*
X345082Y191000D01*
Y220941D01*
X345544Y221132D01*
X353010Y213667D01*
X364935Y201741D01*
Y193488D01*
X367624Y186998D01*
X374114Y184309D01*
X387017D01*
X388500Y183695D01*
X394990Y186383D01*
X397679Y192874D01*
X394990Y199365D01*
X394376Y199979D01*
X391534Y201156D01*
Y201656D01*
X393785Y202589D01*
X395974Y207874D01*
X393785Y213159D01*
X389092Y215103D01*
Y215645D01*
X393785Y217589D01*
X395974Y222874D01*
X394940Y225372D01*
X400971Y231403D01*
X401787Y233374D01*
Y260000D01*
X400971Y261971D01*
X395871Y267071D01*
X393900Y267887D01*
X348494D01*
X348216Y268303D01*
X349053Y270324D01*
Y297676D01*
X346365Y304166D01*
X338679Y311852D01*
Y316000D01*
X335991Y322491D01*
X334332Y323177D01*
Y331956D01*
X335179Y334000D01*
X334332Y336044D01*
Y340000D01*
X334015Y340765D01*
X333250Y341082D01*
X331062D01*
X326000Y343179D01*
X300636D01*
X294146Y340491D01*
X292044Y338389D01*
X291582Y338580D01*
Y358000D01*
X291265Y358765D01*
X290500Y359082D01*
D02*
G37*
G36*
X584000Y349696D02*
X580098Y348920D01*
X576790Y346710D01*
X574580Y343402D01*
X573804Y339500D01*
X574580Y335598D01*
X576790Y332290D01*
X579321Y330599D01*
Y277500D01*
Y276762D01*
X557346Y254787D01*
X516800D01*
X514829Y253971D01*
X401203Y140344D01*
X401100Y140387D01*
X400100D01*
X398129Y139571D01*
X397313Y137600D01*
Y135977D01*
X396897Y135700D01*
X395500Y136278D01*
X392475Y135025D01*
X391222Y132000D01*
X392475Y128975D01*
X392713Y128876D01*
Y123500D01*
X391500D01*
Y115500D01*
X398313D01*
Y66254D01*
X395775Y63716D01*
X395500Y63830D01*
X392439Y62562D01*
X391170Y59500D01*
X392439Y56438D01*
X394213Y55704D01*
Y44453D01*
X393047D01*
Y36547D01*
X400953D01*
Y44453D01*
X399787D01*
Y54746D01*
X400021Y54979D01*
X400837Y56950D01*
X400021Y58921D01*
X399716Y59225D01*
X399830Y59500D01*
X399716Y59775D01*
X403071Y63129D01*
X403887Y65100D01*
Y135146D01*
X517954Y249213D01*
X551118D01*
X551310Y248751D01*
X455289Y152730D01*
X441918D01*
X441201Y152433D01*
X439948Y151914D01*
X430886Y142853D01*
X430886Y142853D01*
X430886D01*
X430070Y140882D01*
Y127511D01*
X423739Y121180D01*
X421321Y120179D01*
X420312Y117743D01*
X420306Y117727D01*
X420166Y117755D01*
Y117755D01*
X420166D01*
Y117755D01*
X419806Y118093D01*
Y120753D01*
X421179Y121321D01*
X422288Y124000D01*
X421179Y126679D01*
X418500Y127788D01*
X416881Y127118D01*
X415779Y129779D01*
X413600Y130681D01*
Y127100D01*
X413100D01*
Y126600D01*
X409519D01*
X410313Y124682D01*
Y84000D01*
X411129Y82029D01*
X413729Y79429D01*
X415700Y78613D01*
X423100D01*
X425071Y79429D01*
X428971Y83329D01*
X429787Y85300D01*
Y92789D01*
X430136Y93631D01*
X430250Y93907D01*
X430750D01*
X430861Y93639D01*
X431821Y91321D01*
X434194Y90338D01*
Y87248D01*
X432821Y86679D01*
X431712Y84000D01*
X432821Y81321D01*
X435500Y80212D01*
X438179Y81321D01*
X439288Y84000D01*
X438179Y86679D01*
X436806Y87248D01*
Y91167D01*
X437179Y91321D01*
X438288Y94000D01*
X437545Y95794D01*
X437969Y96078D01*
X439067Y94980D01*
Y93571D01*
X442067D01*
Y93071D01*
X442567D01*
Y89571D01*
X445067Y89571D01*
X445194Y89123D01*
Y87451D01*
X444779Y87173D01*
X444500Y87288D01*
X441821Y86179D01*
X440712Y83500D01*
X441821Y80821D01*
X444500Y79712D01*
X446780Y80656D01*
X447280Y80322D01*
Y69933D01*
X448096Y67962D01*
X449615Y66444D01*
X449332Y66020D01*
X447500Y66778D01*
X444475Y65525D01*
X443222Y62500D01*
X444475Y59475D01*
X444713Y59376D01*
Y55624D01*
X444475Y55525D01*
X443222Y52500D01*
X444475Y49475D01*
X447500Y48222D01*
X450525Y49475D01*
X451778Y52500D01*
X450525Y55525D01*
X450287Y55624D01*
Y59376D01*
X450525Y59475D01*
X451778Y62500D01*
X451020Y64332D01*
X451443Y64615D01*
X453320Y62738D01*
X453222Y62500D01*
X454475Y59475D01*
X454713Y59376D01*
Y55624D01*
X454475Y55525D01*
X453222Y52500D01*
X454475Y49475D01*
X457500Y48222D01*
X460525Y49475D01*
X461778Y52500D01*
X460525Y55525D01*
X460287Y55624D01*
Y59376D01*
X460525Y59475D01*
X461778Y62500D01*
X460525Y65525D01*
X457500Y66778D01*
X457262Y66680D01*
X452854Y71087D01*
Y93071D01*
X452673Y93507D01*
Y96177D01*
X447806D01*
Y97959D01*
X449041Y99194D01*
X452756D01*
X453034Y98779D01*
X452712Y98000D01*
X453821Y95321D01*
X456500Y94212D01*
X459179Y95321D01*
X460288Y98000D01*
X459179Y100679D01*
X456923Y101613D01*
X457023Y102113D01*
X463016D01*
X472030Y93100D01*
X472000Y93055D01*
Y89000D01*
Y85419D01*
X474179Y86321D01*
X474624Y87396D01*
X475114Y87298D01*
Y80165D01*
X508113D01*
Y77054D01*
X496346Y65287D01*
X490624D01*
X490525Y65525D01*
X487500Y66778D01*
X484475Y65525D01*
X483222Y62500D01*
X484475Y59475D01*
X484713Y59376D01*
Y55624D01*
X484475Y55525D01*
X483222Y52500D01*
X484475Y49475D01*
X487500Y48222D01*
X490525Y49475D01*
X491778Y52500D01*
X490525Y55525D01*
X490287Y55624D01*
Y59376D01*
X490525Y59475D01*
X490624Y59713D01*
X497500D01*
X499471Y60529D01*
X512871Y73929D01*
X513687Y75900D01*
Y109000D01*
X512871Y110971D01*
X510942Y112900D01*
X508971Y113716D01*
X508886D01*
Y117835D01*
X475114D01*
Y115543D01*
X466752D01*
X465299Y114941D01*
X464883Y115219D01*
Y124077D01*
X466679Y124821D01*
X467788Y127500D01*
X466679Y130179D01*
X464000Y131288D01*
X461321Y130179D01*
X460212Y127500D01*
X461321Y124821D01*
X462271Y124428D01*
Y114362D01*
X460896D01*
Y113548D01*
X460396Y113448D01*
X459679Y115179D01*
X457000Y116288D01*
X454321Y115179D01*
X453753Y113806D01*
X452673D01*
Y115862D01*
X448373D01*
X448196Y116362D01*
X449288Y119000D01*
X448179Y121679D01*
X445500Y122788D01*
X445231Y123190D01*
X464654Y142613D01*
X541419D01*
X541610Y142151D01*
X541029Y141571D01*
X540213Y139600D01*
Y34500D01*
X541029Y32529D01*
X568629Y4929D01*
X570600Y4113D01*
X626000D01*
X627971Y4929D01*
X634971Y11929D01*
X635787Y13900D01*
Y24615D01*
X636287Y24822D01*
X637779Y23329D01*
X639750Y22513D01*
X648700D01*
X650671Y23329D01*
X662471Y35129D01*
X663287Y37100D01*
Y67700D01*
X662471Y69671D01*
X655080Y77061D01*
X654079Y79479D01*
X651400Y80588D01*
X648721Y79479D01*
X647612Y76800D01*
X648721Y74121D01*
X651139Y73120D01*
X652010Y72249D01*
X651819Y71787D01*
X644987D01*
Y144400D01*
X644171Y146371D01*
X638571Y151971D01*
X636600Y152787D01*
X596454D01*
X563480Y185761D01*
X562479Y188179D01*
X561166Y188723D01*
X561263Y189213D01*
X580411D01*
X581708Y186082D01*
X582696Y185673D01*
X582836Y185336D01*
X588111Y180061D01*
X588111Y180061D01*
X590012Y179273D01*
X594601Y177372D01*
X594601Y177372D01*
X604399D01*
X610889Y180061D01*
X636664Y205835D01*
X636664Y205835D01*
X637370Y207541D01*
X637912D01*
X638975Y204975D01*
X642000Y203722D01*
X645025Y204975D01*
X646278Y208000D01*
X645025Y211025D01*
X642000Y212278D01*
X639434Y211215D01*
X639051Y211598D01*
X639352Y212326D01*
X639352Y212326D01*
Y214368D01*
X639768Y214646D01*
X642000Y213722D01*
X645025Y214975D01*
X646278Y218000D01*
X645025Y221025D01*
X642000Y222278D01*
X639768Y221354D01*
X639352Y221632D01*
Y224368D01*
X639768Y224646D01*
X642000Y223722D01*
X645025Y224975D01*
X646278Y228000D01*
X645025Y231025D01*
X642000Y232278D01*
X639768Y231354D01*
X639352Y231632D01*
Y234368D01*
X639768Y234646D01*
X642000Y233722D01*
X645025Y234975D01*
X646278Y238000D01*
X645025Y241025D01*
X642000Y242278D01*
X639768Y241354D01*
X639352Y241632D01*
Y257484D01*
X639852Y257818D01*
X642500Y256722D01*
X645525Y257975D01*
X646778Y261000D01*
X645525Y264025D01*
X642500Y265278D01*
X639852Y264182D01*
X639352Y264516D01*
Y267047D01*
X646453D01*
Y274953D01*
X639352D01*
Y332249D01*
X639920Y333098D01*
X640596Y336500D01*
X620403D01*
X620994Y333531D01*
Y216128D01*
X602737Y197871D01*
X602321Y198148D01*
X602778Y199252D01*
X601525Y202277D01*
X599928Y202939D01*
Y203439D01*
X601525Y204101D01*
X602778Y207126D01*
X601525Y210151D01*
X601186Y210292D01*
X601039Y210894D01*
X601223Y211339D01*
X605700D01*
X607671Y212155D01*
X608487Y214126D01*
Y221482D01*
X609488Y223900D01*
X608379Y226579D01*
X605700Y227688D01*
X603021Y226579D01*
X602383Y225037D01*
X601883D01*
X601525Y225899D01*
X599928Y226561D01*
Y227061D01*
X601525Y227723D01*
X602778Y230748D01*
X601525Y233773D01*
X599928Y234435D01*
Y234935D01*
X601525Y235597D01*
X602778Y238622D01*
X601525Y241647D01*
X599928Y242309D01*
Y242809D01*
X601525Y243471D01*
X602778Y246496D01*
X601525Y249521D01*
X598500Y250774D01*
X597577Y250392D01*
X597224Y250746D01*
X598105Y252874D01*
X597679Y253903D01*
Y277500D01*
Y335000D01*
X594990Y341491D01*
X593504Y342977D01*
X593420Y343402D01*
X591210Y346710D01*
X587902Y348920D01*
X584000Y349696D01*
D02*
G37*
G36*
X289866Y204933D02*
X258142D01*
Y196541D01*
X257918Y196000D01*
Y178500D01*
X258235Y177735D01*
X259000Y177418D01*
X289000D01*
X289765Y177735D01*
X290082Y178500D01*
Y196000D01*
X289866Y196522D01*
Y204933D01*
D02*
G37*
G36*
X365000Y136071D02*
X362475Y135025D01*
X361429Y132500D01*
X365000D01*
Y136071D01*
D02*
G37*
G36*
X412600Y130681D02*
X410421Y129779D01*
X409519Y127600D01*
X412600D01*
Y130681D01*
D02*
G37*
G36*
X366000Y136071D02*
Y132500D01*
X369571D01*
X368525Y135025D01*
X366000Y136071D01*
D02*
G37*
G36*
X645453Y177453D02*
X637547D01*
Y169547D01*
X645453D01*
Y177453D01*
D02*
G37*
G36*
X641500Y167778D02*
X638475Y166525D01*
X637222Y163500D01*
X638475Y160475D01*
X641500Y159222D01*
X644525Y160475D01*
X645778Y163500D01*
X644525Y166525D01*
X641500Y167778D01*
D02*
G37*
G36*
X295500Y136278D02*
X292475Y135025D01*
X291222Y132000D01*
X292475Y128975D01*
X292713Y128876D01*
Y122675D01*
X292439Y122562D01*
X291170Y119500D01*
X292439Y116438D01*
X295500Y115170D01*
X298562Y116438D01*
X299830Y119500D01*
X298562Y122562D01*
X298287Y122675D01*
Y128876D01*
X298525Y128975D01*
X299778Y132000D01*
X298525Y135025D01*
X295500Y136278D01*
D02*
G37*
G36*
X427500Y56778D02*
X424475Y55525D01*
X423222Y52500D01*
X424475Y49475D01*
X427500Y48222D01*
X430525Y49475D01*
X431778Y52500D01*
X430525Y55525D01*
X427500Y56778D01*
D02*
G37*
G36*
X385500Y63830D02*
X382438Y62562D01*
X381170Y59500D01*
X382438Y56438D01*
X384213Y55704D01*
Y43624D01*
X383975Y43525D01*
X382722Y40500D01*
X383975Y37475D01*
X387000Y36222D01*
X390025Y37475D01*
X391278Y40500D01*
X390025Y43525D01*
X389787Y43624D01*
Y54746D01*
X390021Y54979D01*
X390837Y56950D01*
X390021Y58921D01*
X389716Y59225D01*
X389830Y59500D01*
X388562Y62562D01*
X385500Y63830D01*
D02*
G37*
G36*
X437500Y66778D02*
X434475Y65525D01*
X433222Y62500D01*
X434475Y59475D01*
X434713Y59376D01*
Y55624D01*
X434475Y55525D01*
X433222Y52500D01*
X434475Y49475D01*
X437500Y48222D01*
X440525Y49475D01*
X441778Y52500D01*
X440525Y55525D01*
X440287Y55624D01*
Y59376D01*
X440525Y59475D01*
X441778Y62500D01*
X440525Y65525D01*
X437500Y66778D01*
D02*
G37*
G36*
X477500Y56778D02*
X474475Y55525D01*
X473222Y52500D01*
X474475Y49475D01*
X477500Y48222D01*
X480525Y49475D01*
X481778Y52500D01*
X480525Y55525D01*
X477500Y56778D01*
D02*
G37*
G36*
X467500D02*
X464475Y55525D01*
X463222Y52500D01*
X464475Y49475D01*
X467500Y48222D01*
X470525Y49475D01*
X471778Y52500D01*
X470525Y55525D01*
X467500Y56778D01*
D02*
G37*
G36*
X375500Y63830D02*
X372439Y62562D01*
X371170Y59500D01*
X372439Y56438D01*
X374213Y55704D01*
Y43624D01*
X373975Y43525D01*
X372722Y40500D01*
X373975Y37475D01*
X377000Y36222D01*
X380025Y37475D01*
X381278Y40500D01*
X380025Y43525D01*
X379787Y43624D01*
Y54746D01*
X380021Y54979D01*
X380837Y56950D01*
X380021Y58921D01*
X379716Y59225D01*
X379830Y59500D01*
X378561Y62562D01*
X375500Y63830D01*
D02*
G37*
G36*
X23500Y45090D02*
X15429Y43485D01*
X8587Y38913D01*
X4015Y32071D01*
X2410Y24000D01*
X4015Y15929D01*
X8587Y9087D01*
X15429Y4515D01*
X23500Y2910D01*
X31571Y4515D01*
X38413Y9087D01*
X42985Y15929D01*
X44590Y24000D01*
X42985Y32071D01*
X38413Y38913D01*
X31571Y43485D01*
X23500Y45090D01*
D02*
G37*
G36*
X687535Y44775D02*
X679464Y43170D01*
X672622Y38598D01*
X668050Y31756D01*
X666445Y23685D01*
X668050Y15614D01*
X672622Y8772D01*
X679464Y4200D01*
X687535Y2595D01*
X695606Y4200D01*
X702449Y8772D01*
X707020Y15614D01*
X708626Y23685D01*
X707020Y31756D01*
X702449Y38598D01*
X695606Y43170D01*
X687535Y44775D01*
D02*
G37*
G36*
X347000Y44778D02*
X343975Y43525D01*
X342722Y40500D01*
X343975Y37475D01*
X347000Y36222D01*
X350025Y37475D01*
X351278Y40500D01*
X350025Y43525D01*
X347000Y44778D01*
D02*
G37*
G36*
X365500Y63830D02*
X362439Y62562D01*
X361170Y59500D01*
X362439Y56438D01*
X364213Y55704D01*
Y43624D01*
X363975Y43525D01*
X362722Y40500D01*
X363975Y37475D01*
X367000Y36222D01*
X370025Y37475D01*
X371278Y40500D01*
X370025Y43525D01*
X369787Y43624D01*
Y54746D01*
X370021Y54979D01*
X370837Y56950D01*
X370021Y58921D01*
X369716Y59225D01*
X369830Y59500D01*
X368562Y62562D01*
X365500Y63830D01*
D02*
G37*
G36*
X357000Y44778D02*
X353975Y43525D01*
X352722Y40500D01*
X353975Y37475D01*
X357000Y36222D01*
X360025Y37475D01*
X361278Y40500D01*
X360025Y43525D01*
X357000Y44778D01*
D02*
G37*
G36*
X259453Y135953D02*
X251547D01*
Y128047D01*
X252713D01*
Y122675D01*
X252438Y122562D01*
X251170Y119500D01*
X252438Y116438D01*
X255500Y115170D01*
X258561Y116438D01*
X259830Y119500D01*
X258561Y122562D01*
X258287Y122675D01*
Y128047D01*
X259453D01*
Y135953D01*
D02*
G37*
G36*
X441567Y92571D02*
X439067D01*
Y89571D01*
X441567D01*
Y92571D01*
D02*
G37*
G36*
X265500Y136278D02*
X262475Y135025D01*
X261222Y132000D01*
X262475Y128975D01*
X262713Y128876D01*
Y122675D01*
X262439Y122562D01*
X261170Y119500D01*
X262439Y116438D01*
X265500Y115170D01*
X268562Y116438D01*
X269830Y119500D01*
X268562Y122562D01*
X268287Y122675D01*
Y128876D01*
X268525Y128975D01*
X269778Y132000D01*
X268525Y135025D01*
X265500Y136278D01*
D02*
G37*
G36*
X285500D02*
X282475Y135025D01*
X281222Y132000D01*
X282475Y128975D01*
X282713Y128876D01*
Y122675D01*
X282438Y122562D01*
X281170Y119500D01*
X282438Y116438D01*
X285500Y115170D01*
X288562Y116438D01*
X289830Y119500D01*
X288562Y122562D01*
X288287Y122675D01*
Y128876D01*
X288525Y128975D01*
X289778Y132000D01*
X288525Y135025D01*
X285500Y136278D01*
D02*
G37*
G36*
X275500D02*
X272475Y135025D01*
X271222Y132000D01*
X272475Y128975D01*
X272713Y128876D01*
Y122675D01*
X272439Y122562D01*
X271170Y119500D01*
X272439Y116438D01*
X275500Y115170D01*
X278561Y116438D01*
X279830Y119500D01*
X278561Y122562D01*
X278287Y122675D01*
Y128876D01*
X278525Y128975D01*
X279778Y132000D01*
X278525Y135025D01*
X275500Y136278D01*
D02*
G37*
G36*
X462752Y95858D02*
X460781Y95042D01*
X459965Y93071D01*
Y85200D01*
X460781Y83229D01*
X463965Y80046D01*
Y75405D01*
X463465Y75100D01*
X462752Y75395D01*
X461779Y74992D01*
X460896D01*
Y73755D01*
X460743Y73386D01*
Y70248D01*
X461089Y69412D01*
X460712Y68500D01*
X461821Y65821D01*
X464191Y64840D01*
X463222Y62500D01*
X464475Y59475D01*
X467500Y58222D01*
X470525Y59475D01*
X471778Y62500D01*
X470525Y65525D01*
X467564Y66752D01*
X468288Y68500D01*
X467321Y70835D01*
X468723Y71415D01*
X468866Y71761D01*
X469932D01*
X470321Y70821D01*
X473000Y69712D01*
X475679Y70821D01*
X476788Y73500D01*
X475679Y76179D01*
X473000Y77288D01*
X470321Y76179D01*
X470039Y75497D01*
X469539Y75597D01*
Y81200D01*
X468723Y83171D01*
X465539Y86354D01*
Y91071D01*
X466293D01*
X467864Y89500D01*
X471000D01*
Y92581D01*
X470081Y92201D01*
X469002Y93280D01*
Y95071D01*
X467252D01*
Y93071D01*
X466252D01*
Y95071D01*
X464652D01*
X462752Y95858D01*
D02*
G37*
G36*
X348200Y69587D02*
X252700D01*
X250729Y68771D01*
X247929Y65971D01*
X247113Y64000D01*
Y39000D01*
X247929Y37029D01*
X253129Y31829D01*
X255100Y31013D01*
X320300D01*
X322271Y31829D01*
X326762Y36320D01*
X327000Y36222D01*
X330025Y37475D01*
X331278Y40500D01*
X330025Y43525D01*
X327000Y44778D01*
X323975Y43525D01*
X322722Y40500D01*
X322820Y40262D01*
X320943Y38385D01*
X320520Y38668D01*
X321278Y40500D01*
X320025Y43525D01*
X319787Y43624D01*
Y54746D01*
X320021Y54979D01*
X320837Y56950D01*
X320021Y58921D01*
X319716Y59225D01*
X319830Y59500D01*
X318562Y62562D01*
X316264Y63513D01*
X316364Y64013D01*
X324636D01*
X324736Y63513D01*
X322439Y62562D01*
X321170Y59500D01*
X322439Y56438D01*
X325500Y55170D01*
X328561Y56438D01*
X329830Y59500D01*
X328561Y62562D01*
X326264Y63513D01*
X326364Y64013D01*
X334636D01*
X334736Y63513D01*
X332438Y62562D01*
X331170Y59500D01*
X332438Y56438D01*
X335500Y55170D01*
X337268Y55903D01*
X337546Y55487D01*
X335029Y52971D01*
X334213Y51000D01*
Y43624D01*
X333975Y43525D01*
X332722Y40500D01*
X333975Y37475D01*
X337000Y36222D01*
X340025Y37475D01*
X341278Y40500D01*
X340025Y43525D01*
X339787Y43624D01*
Y49846D01*
X345226Y55284D01*
X345500Y55170D01*
X348562Y56438D01*
X349830Y59500D01*
X349097Y61268D01*
X349513Y61546D01*
X351284Y59775D01*
X351170Y59500D01*
X352438Y56438D01*
X355500Y55170D01*
X358561Y56438D01*
X359830Y59500D01*
X358561Y62562D01*
X355500Y63830D01*
X355225Y63716D01*
X350171Y68771D01*
X348200Y69587D01*
D02*
G37*
G36*
X417500Y66778D02*
X414475Y65525D01*
X413222Y62500D01*
X414475Y59475D01*
X414713Y59376D01*
Y56453D01*
X413547D01*
Y48547D01*
X421453D01*
Y56453D01*
X420287D01*
Y59376D01*
X420525Y59475D01*
X421778Y62500D01*
X420525Y65525D01*
X417500Y66778D01*
D02*
G37*
G36*
X427500D02*
X424475Y65525D01*
X423222Y62500D01*
X424475Y59475D01*
X427500Y58222D01*
X430525Y59475D01*
X431778Y62500D01*
X430525Y65525D01*
X427500Y66778D01*
D02*
G37*
G36*
X471000Y88500D02*
X467919D01*
X468821Y86321D01*
X471000Y85419D01*
Y88500D01*
D02*
G37*
G36*
X477500Y66778D02*
X474475Y65525D01*
X473222Y62500D01*
X474475Y59475D01*
X477500Y58222D01*
X480525Y59475D01*
X481778Y62500D01*
X480525Y65525D01*
X477500Y66778D01*
D02*
G37*
G36*
X445000Y333500D02*
X441429D01*
X442475Y330975D01*
X445000Y329929D01*
Y333500D01*
D02*
G37*
G36*
X631000Y347096D02*
Y337500D01*
X640596D01*
X639920Y340902D01*
X637710Y344210D01*
X634402Y346420D01*
X631000Y347096D01*
D02*
G37*
G36*
X630000D02*
X626598Y346420D01*
X623290Y344210D01*
X621080Y340902D01*
X620403Y337500D01*
X630000D01*
Y347096D01*
D02*
G37*
G36*
X496000Y338071D02*
Y334500D01*
X499571D01*
X498525Y337025D01*
X496000Y338071D01*
D02*
G37*
G36*
X495000Y343500D02*
X491429D01*
X492475Y340975D01*
X495000Y339929D01*
Y343500D01*
D02*
G37*
G36*
X475000Y348071D02*
X472475Y347025D01*
X471429Y344500D01*
X475000D01*
Y348071D01*
D02*
G37*
G36*
X465000D02*
X462475Y347025D01*
X461429Y344500D01*
X465000D01*
Y348071D01*
D02*
G37*
G36*
X499571Y343500D02*
X496000D01*
Y339929D01*
X498525Y340975D01*
X499571Y343500D01*
D02*
G37*
G36*
X519453D02*
X515500D01*
X511547D01*
Y340047D01*
X512713D01*
Y337124D01*
X512475Y337025D01*
X511429Y334500D01*
X515500D01*
X519571D01*
X518525Y337025D01*
X518287Y337124D01*
Y340047D01*
X519453D01*
Y343500D01*
D02*
G37*
G36*
X459571D02*
X455500D01*
X451429D01*
X452475Y340975D01*
X452713Y340876D01*
Y337124D01*
X452475Y337025D01*
X451429Y334500D01*
X455500D01*
X459571D01*
X458525Y337025D01*
X458287Y337124D01*
Y340876D01*
X458525Y340975D01*
X459571Y343500D01*
D02*
G37*
G36*
X479571D02*
X475500D01*
X471429D01*
X472475Y340975D01*
X472713Y340876D01*
Y337124D01*
X472475Y337025D01*
X471429Y334500D01*
X475500D01*
X479571D01*
X478525Y337025D01*
X478287Y337124D01*
Y340876D01*
X478525Y340975D01*
X479571Y343500D01*
D02*
G37*
G36*
X469571D02*
X465500D01*
X461429D01*
X462475Y340975D01*
X462713Y340876D01*
Y337124D01*
X462475Y337025D01*
X461429Y334500D01*
X465500D01*
X469571D01*
X468525Y337025D01*
X468287Y337124D01*
Y340876D01*
X468525Y340975D01*
X469571Y343500D01*
D02*
G37*
G36*
X489571D02*
X485500D01*
X481429D01*
X482475Y340975D01*
X482713Y340876D01*
Y337124D01*
X482475Y337025D01*
X481429Y334500D01*
X485500D01*
X489571D01*
X488525Y337025D01*
X488287Y337124D01*
Y340876D01*
X488525Y340975D01*
X489571Y343500D01*
D02*
G37*
G36*
X495000Y338071D02*
X492475Y337025D01*
X491429Y334500D01*
X495000D01*
Y338071D01*
D02*
G37*
G36*
X449571Y343500D02*
X445500D01*
X441429D01*
X442475Y340975D01*
X442713Y340876D01*
Y337124D01*
X442475Y337025D01*
X441429Y334500D01*
X445500D01*
X449571D01*
X448525Y337025D01*
X448287Y337124D01*
Y340876D01*
X448525Y340975D01*
X449571Y343500D01*
D02*
G37*
G36*
X509571D02*
X505500D01*
X501429D01*
X502475Y340975D01*
X502713Y340876D01*
Y337124D01*
X502475Y337025D01*
X501429Y334500D01*
X505500D01*
X509571D01*
X508525Y337025D01*
X508287Y337124D01*
Y340876D01*
X508525Y340975D01*
X509571Y343500D01*
D02*
G37*
G36*
X455000Y348071D02*
X452475Y347025D01*
X451429Y344500D01*
X455000D01*
Y348071D01*
D02*
G37*
G36*
X519453Y347953D02*
X516000D01*
Y344500D01*
X519453D01*
Y347953D01*
D02*
G37*
G36*
X506000Y348071D02*
Y344500D01*
X509571D01*
X508525Y347025D01*
X506000Y348071D01*
D02*
G37*
G36*
X486000D02*
Y344500D01*
X489571D01*
X488525Y347025D01*
X486000Y348071D01*
D02*
G37*
G36*
X446000D02*
Y344500D01*
X449571D01*
X448525Y347025D01*
X446000Y348071D01*
D02*
G37*
G36*
X687535Y391232D02*
X679464Y389627D01*
X672622Y385055D01*
X668050Y378213D01*
X666445Y370142D01*
X668050Y362071D01*
X672622Y355229D01*
X679464Y350657D01*
X687535Y349051D01*
X695606Y350657D01*
X702449Y355229D01*
X707020Y362071D01*
X708626Y370142D01*
X707020Y378213D01*
X702449Y385055D01*
X695606Y389627D01*
X687535Y391232D01*
D02*
G37*
G36*
X33992D02*
X25921Y389627D01*
X19079Y385055D01*
X14507Y378213D01*
X12902Y370142D01*
X14507Y362071D01*
X19079Y355229D01*
X25921Y350657D01*
X33992Y349051D01*
X42063Y350657D01*
X48905Y355229D01*
X53477Y362071D01*
X55082Y370142D01*
X53477Y378213D01*
X48905Y385055D01*
X42063Y389627D01*
X33992Y391232D01*
D02*
G37*
G36*
X496000Y348071D02*
Y344500D01*
X499571D01*
X498525Y347025D01*
X496000Y348071D01*
D02*
G37*
G36*
X456000D02*
Y344500D01*
X459571D01*
X458525Y347025D01*
X456000Y348071D01*
D02*
G37*
G36*
X445000D02*
X442475Y347025D01*
X441429Y344500D01*
X445000D01*
Y348071D01*
D02*
G37*
G36*
X505000D02*
X502475Y347025D01*
X501429Y344500D01*
X505000D01*
Y348071D01*
D02*
G37*
G36*
X485000D02*
X482475Y347025D01*
X481429Y344500D01*
X485000D01*
Y348071D01*
D02*
G37*
G36*
X495000D02*
X492475Y347025D01*
X491429Y344500D01*
X495000D01*
Y348071D01*
D02*
G37*
G36*
X476000D02*
Y344500D01*
X479571D01*
X478525Y347025D01*
X476000Y348071D01*
D02*
G37*
G36*
X466000D02*
Y344500D01*
X469571D01*
X468525Y347025D01*
X466000Y348071D01*
D02*
G37*
G36*
X515000Y347953D02*
X511547D01*
Y344500D01*
X515000D01*
Y347953D01*
D02*
G37*
G36*
X505000Y333500D02*
X501429D01*
X502475Y330975D01*
X505000Y329929D01*
Y333500D01*
D02*
G37*
G36*
X495000D02*
X491429D01*
X492475Y330975D01*
X495000Y329929D01*
Y333500D01*
D02*
G37*
G36*
X449571D02*
X446000D01*
Y329929D01*
X448525Y330975D01*
X449571Y333500D01*
D02*
G37*
G36*
X515000D02*
X511429D01*
X512475Y330975D01*
X515000Y329929D01*
Y333500D01*
D02*
G37*
G36*
X465000D02*
X461429D01*
X462475Y330975D01*
X465000Y329929D01*
Y333500D01*
D02*
G37*
G36*
X455000D02*
X451429D01*
X452475Y330975D01*
X455000Y329929D01*
Y333500D01*
D02*
G37*
G36*
X485000D02*
X481429D01*
X482475Y330975D01*
X485000Y329929D01*
Y333500D01*
D02*
G37*
G36*
X475000D02*
X471429D01*
X472475Y330975D01*
X475000Y329929D01*
Y333500D01*
D02*
G37*
G36*
X459571D02*
X456000D01*
Y329929D01*
X458525Y330975D01*
X459571Y333500D01*
D02*
G37*
G36*
X479571D02*
X476000D01*
Y329929D01*
X478525Y330975D01*
X479571Y333500D01*
D02*
G37*
G36*
X499571D02*
X496000D01*
Y329929D01*
X498525Y330975D01*
X499571Y333500D01*
D02*
G37*
G36*
X509571D02*
X506000D01*
Y329929D01*
X508525Y330975D01*
X509571Y333500D01*
D02*
G37*
G36*
X489571D02*
X486000D01*
Y329929D01*
X488525Y330975D01*
X489571Y333500D01*
D02*
G37*
G36*
X469571D02*
X466000D01*
Y329929D01*
X468525Y330975D01*
X469571Y333500D01*
D02*
G37*
G36*
X519571D02*
X516000D01*
Y329929D01*
X518525Y330975D01*
X519571Y333500D01*
D02*
G37*
%LPD*%
G36*
X396213Y248053D02*
Y234528D01*
X390998Y229314D01*
X388500Y230348D01*
X383215Y228159D01*
X381026Y222874D01*
X383215Y217589D01*
X387908Y215645D01*
Y215103D01*
X383215Y213159D01*
X381927Y210050D01*
X381427D01*
X380605Y212034D01*
X365990Y226648D01*
X361380Y231259D01*
X361477Y231749D01*
X362332Y232103D01*
X362702Y232999D01*
X367712Y235074D01*
X376333Y243695D01*
X388500D01*
X394990Y246383D01*
X395723Y248151D01*
X396213Y248053D01*
D02*
G37*
G36*
X371952Y261813D02*
X366041Y259365D01*
X354731Y248055D01*
X352043Y241564D01*
X352237Y241095D01*
X351821Y240817D01*
X336872Y255767D01*
Y256857D01*
X341166Y258635D01*
X344844Y262313D01*
X371853D01*
X371952Y261813D01*
D02*
G37*
G36*
X320321Y311278D02*
Y308050D01*
X323009Y301559D01*
X329024Y295544D01*
X328833Y295082D01*
X319500D01*
X319498Y295082D01*
X319082Y295359D01*
Y298159D01*
X319265Y298235D01*
X319582Y299000D01*
Y311144D01*
X320082Y311424D01*
X320321Y311278D01*
D02*
G37*
G36*
X319668Y320016D02*
X319168Y319806D01*
X318500Y320082D01*
X299979D01*
X299880Y320582D01*
X300426Y320809D01*
X304438Y324821D01*
X319668D01*
Y320016D01*
D02*
G37*
G36*
X333250Y312500D02*
X320750D01*
Y340000D01*
X333250D01*
Y312500D01*
D02*
G37*
G36*
X296000Y280418D02*
X309641D01*
X309918Y280002D01*
X309918Y280000D01*
Y275082D01*
X296000D01*
X295998Y275082D01*
X295582Y275359D01*
Y280141D01*
X295998Y280418D01*
X296000Y280418D01*
D02*
G37*
G36*
X309918Y233164D02*
Y222582D01*
X299578D01*
X299433Y223061D01*
X301284Y224298D01*
X307636Y230649D01*
X309418Y233316D01*
X309918Y233164D01*
D02*
G37*
G36*
X321202Y245474D02*
X343132Y223544D01*
X342941Y223082D01*
X321000D01*
X320998Y223082D01*
X320582Y223359D01*
Y234000D01*
X320265Y234765D01*
X319500Y235082D01*
X317244D01*
X316909Y235582D01*
X317082Y236000D01*
Y250418D01*
X318500D01*
X319059Y250649D01*
X321202Y245474D01*
D02*
G37*
G36*
X595195Y236273D02*
X595475Y235597D01*
X597072Y234935D01*
Y234435D01*
X595475Y233773D01*
X594222Y230748D01*
X595475Y227723D01*
X597072Y227061D01*
Y226561D01*
X595475Y225899D01*
X595019Y224800D01*
X594519D01*
X593032Y228390D01*
X588896Y230103D01*
Y230645D01*
X593032Y232358D01*
X594654Y236273D01*
X595195D01*
D02*
G37*
G36*
X580398Y248713D02*
X580255Y248571D01*
X579439Y246600D01*
Y240019D01*
X578939Y239820D01*
X576600Y240788D01*
X573921Y239679D01*
X572812Y237000D01*
X573921Y234321D01*
X576600Y233212D01*
X579018Y234213D01*
X583200D01*
X583968Y232358D01*
X588104Y230645D01*
Y230103D01*
X583968Y228390D01*
X582091Y223858D01*
Y221890D01*
X583968Y217358D01*
X588104Y215645D01*
Y215103D01*
X583968Y213390D01*
X582091Y208858D01*
Y208374D01*
X588500D01*
Y207374D01*
X582091D01*
Y206890D01*
X582448Y206027D01*
X582313Y205700D01*
Y201600D01*
X582385Y201426D01*
X580305Y199346D01*
X579000Y199887D01*
X577029Y199071D01*
X576213Y197100D01*
Y194787D01*
X510100D01*
X508129Y193971D01*
X462346Y148187D01*
X459281D01*
X459090Y148649D01*
X559654Y249213D01*
X580191D01*
X580398Y248713D01*
D02*
G37*
G36*
X657713Y44418D02*
Y38254D01*
X647546Y28087D01*
X645444D01*
X645167Y28503D01*
X645787Y30000D01*
Y33146D01*
X657251Y44610D01*
X657713Y44418D01*
D02*
G37*
G36*
X579321Y268226D02*
Y254787D01*
X565881D01*
X565690Y255249D01*
X578859Y268418D01*
X579321Y268226D01*
D02*
G37*
G36*
X424213Y98719D02*
Y96841D01*
X423821Y96679D01*
X422919Y94500D01*
X426500D01*
Y93500D01*
X422919D01*
X423821Y91321D01*
X424213Y91159D01*
Y86454D01*
X422201Y84442D01*
X421985Y84461D01*
X421663Y84990D01*
X422288Y86500D01*
X421179Y89179D01*
X419806Y89748D01*
Y94751D01*
X420000Y95212D01*
X420268Y95323D01*
X422679Y96321D01*
X423713Y98818D01*
X424213Y98719D01*
D02*
G37*
G36*
X456310Y142151D02*
X440649Y126490D01*
X440187Y126681D01*
Y137846D01*
X444954Y142613D01*
X456118D01*
X456310Y142151D01*
D02*
G37*
G36*
X639413Y143246D02*
Y71787D01*
X625587D01*
X623616Y70971D01*
X623565Y70848D01*
X623000Y71082D01*
X620426D01*
X620179Y71679D01*
X617500Y72788D01*
X614821Y71679D01*
X614377Y70606D01*
X613406D01*
X613087Y70739D01*
X612767Y70606D01*
X611873D01*
Y74346D01*
X613557Y76029D01*
X614373Y78000D01*
Y80632D01*
X615454Y81713D01*
X615587D01*
X617486Y82500D01*
X617837D01*
Y83204D01*
X618373Y84500D01*
X618335Y84593D01*
X626771Y93029D01*
X627587Y95000D01*
Y141600D01*
X626771Y143571D01*
X623590Y146751D01*
X623781Y147213D01*
X635446D01*
X639413Y143246D01*
D02*
G37*
G36*
X598201Y137558D02*
Y96205D01*
X621356D01*
X621563Y95705D01*
X613146Y87287D01*
X611587D01*
X609687Y86500D01*
X609337D01*
Y85796D01*
X608800Y84500D01*
Y82941D01*
X603731Y77873D01*
X603231Y78080D01*
Y81996D01*
X603216Y82033D01*
Y84571D01*
X600956D01*
X600444Y84783D01*
X599932Y84571D01*
X597673D01*
Y82033D01*
X597657Y81996D01*
Y80070D01*
X597157Y79736D01*
X596524Y79998D01*
Y81959D01*
X596539Y81996D01*
X596524Y82033D01*
Y84571D01*
X594265D01*
X593752Y84783D01*
X583546D01*
Y96205D01*
X596972D01*
Y138013D01*
X597746D01*
X598201Y137558D01*
D02*
G37*
G36*
X558434Y188723D02*
X557121Y188179D01*
X556012Y185500D01*
X557121Y182821D01*
X559539Y181820D01*
X592710Y148649D01*
X592518Y148187D01*
X470882D01*
X470690Y148649D01*
X511254Y189213D01*
X558337D01*
X558434Y188723D01*
D02*
G37*
G36*
X622013Y140446D02*
Y138795D01*
X612957D01*
X612471Y139971D01*
X610500Y140787D01*
X602854D01*
X601490Y142151D01*
X601682Y142613D01*
X619846D01*
X622013Y140446D01*
D02*
G37*
G36*
X447461Y115483D02*
Y113192D01*
X447280Y112756D01*
Y108333D01*
X448096Y106362D01*
X451529Y102929D01*
X453035Y102306D01*
X452936Y101806D01*
X448500D01*
X447577Y101423D01*
X445577Y99423D01*
X445354Y98885D01*
X444854Y98985D01*
Y104600D01*
X444038Y106571D01*
X441421Y109188D01*
X441612Y109650D01*
X444673D01*
Y113516D01*
X446423Y115266D01*
X446557Y115589D01*
X447049Y115757D01*
X447461Y115483D01*
D02*
G37*
G36*
X460896Y111452D02*
Y111150D01*
X464608D01*
X464608Y111150D01*
Y111150D01*
X464713Y110929D01*
X464781Y110785D01*
X464858Y110753D01*
X464859Y110753D01*
X464888Y110741D01*
X466752Y109969D01*
X475114D01*
Y104024D01*
X508113D01*
Y93976D01*
X479036D01*
X466142Y106871D01*
X464171Y107687D01*
X454654D01*
X452854Y109487D01*
Y111194D01*
X453753D01*
X454321Y109821D01*
X457000Y108712D01*
X459679Y109821D01*
X460396Y111552D01*
X460896Y111452D01*
D02*
G37*
G36*
X592137Y78793D02*
X591312Y76800D01*
X592421Y74121D01*
X595100Y73012D01*
X597518Y74013D01*
X599165D01*
X599372Y73513D01*
X597646Y71787D01*
X596252D01*
X594282Y70971D01*
X591782Y68471D01*
X591649Y68149D01*
X591149D01*
X589977Y70977D01*
X586500Y72418D01*
X583962Y71366D01*
X583546Y71644D01*
Y79209D01*
X591859D01*
X592137Y78793D01*
D02*
G37*
G36*
X620621Y59062D02*
X608029Y46471D01*
X607676Y45617D01*
X603678Y41620D01*
X603216Y41811D01*
Y42589D01*
X603231Y42626D01*
Y54929D01*
X603693Y55121D01*
X605785Y53029D01*
X605785Y53029D01*
X606336Y52478D01*
X608307Y51662D01*
X610278Y52478D01*
X610278Y52478D01*
X610829Y53029D01*
X610829Y53029D01*
X610829Y53030D01*
X617324Y59524D01*
X620429D01*
X620621Y59062D01*
D02*
G37*
G36*
X653170Y64664D02*
Y48411D01*
X642671Y37912D01*
X642209Y38103D01*
Y47043D01*
X635582D01*
X635485Y47534D01*
X636179Y47821D01*
X637157Y50183D01*
X637500Y50354D01*
Y53425D01*
X638500D01*
Y50582D01*
X639669Y51067D01*
X639801Y51384D01*
X639971Y51455D01*
X640250Y52129D01*
X640750D01*
X641029Y51455D01*
X643000Y50638D01*
X644971Y51455D01*
X645787Y53425D01*
Y54346D01*
X648261Y56820D01*
X650679Y57821D01*
X651788Y60500D01*
X650679Y63179D01*
X648000Y64288D01*
X645321Y63179D01*
X644320Y60761D01*
X641029Y57471D01*
X640957Y57296D01*
X640457D01*
X639971Y58471D01*
X638471Y59971D01*
X636500Y60787D01*
X624481D01*
X624290Y61249D01*
X627571Y64529D01*
X628268Y66213D01*
X651620D01*
X653170Y64664D01*
D02*
G37*
G36*
X590966Y56571D02*
Y50287D01*
X581722D01*
X581258Y50751D01*
X581449Y51213D01*
X583800D01*
X585771Y52029D01*
X590504Y56762D01*
X590966Y56571D01*
D02*
G37*
G36*
X434613Y123518D02*
Y119300D01*
Y116374D01*
X429984D01*
X428400Y117959D01*
X434151Y123710D01*
X434613Y123518D01*
D02*
G37*
G36*
X572374Y96205D02*
X577973D01*
Y81996D01*
Y66067D01*
X577354Y65811D01*
X576854Y65997D01*
Y79027D01*
X577233D01*
Y81496D01*
X574067D01*
X570902D01*
Y79027D01*
X571280D01*
Y65280D01*
X570902D01*
Y62811D01*
X574067D01*
Y61811D01*
X570902D01*
Y59342D01*
X571280D01*
Y54000D01*
Y45594D01*
X570902D01*
Y43126D01*
X574067D01*
Y42126D01*
X570902D01*
Y40723D01*
X570402Y40456D01*
X570287Y40533D01*
Y49587D01*
X569471Y51557D01*
X562766Y58262D01*
X562865Y58500D01*
X561612Y61525D01*
X561374Y61624D01*
Y65376D01*
X561612Y65475D01*
X562865Y68500D01*
X561612Y71525D01*
X561374Y71624D01*
Y75376D01*
X561612Y75475D01*
X562865Y78500D01*
X561612Y81525D01*
X561374Y81624D01*
Y85376D01*
X561612Y85475D01*
X562865Y88500D01*
X561612Y91525D01*
X561374Y91624D01*
Y95376D01*
X561612Y95475D01*
X562865Y98500D01*
X561612Y101525D01*
X561374Y101624D01*
Y105376D01*
X561612Y105475D01*
X562865Y108500D01*
X561612Y111525D01*
X561374Y111624D01*
Y115376D01*
X561612Y115475D01*
X562865Y118500D01*
X561612Y121525D01*
X561374Y121624D01*
Y125376D01*
X561612Y125475D01*
X562865Y128500D01*
X561612Y131525D01*
X558587Y132778D01*
X555561Y131525D01*
X554308Y128500D01*
X555561Y125475D01*
X555800Y125376D01*
Y121624D01*
X555561Y121525D01*
X554308Y118500D01*
X555561Y115475D01*
X555800Y115376D01*
Y111624D01*
X555561Y111525D01*
X554308Y108500D01*
X555561Y105475D01*
X555800Y105376D01*
Y101624D01*
X555561Y101525D01*
X554308Y98500D01*
X555561Y95475D01*
X555800Y95376D01*
Y91624D01*
X555561Y91525D01*
X554308Y88500D01*
X555561Y85475D01*
X555800Y85376D01*
Y81624D01*
X555561Y81525D01*
X554308Y78500D01*
X555561Y75475D01*
X555800Y75376D01*
Y71624D01*
X555561Y71525D01*
X554308Y68500D01*
X555561Y65475D01*
X555800Y65376D01*
Y61624D01*
X555561Y61525D01*
X554308Y58500D01*
X555561Y55475D01*
X558587Y54222D01*
X558825Y54320D01*
X564713Y48432D01*
Y39000D01*
X565529Y37029D01*
X570929Y31629D01*
X572900Y30813D01*
X575359D01*
X577330Y31629D01*
X582730Y37029D01*
X583427Y38713D01*
X584582D01*
X587000Y37712D01*
X589679Y38821D01*
X590097Y39830D01*
X590587Y39732D01*
Y39658D01*
X590966D01*
Y33788D01*
X591454Y32610D01*
Y27468D01*
X591075D01*
Y25000D01*
X594241D01*
X597406D01*
Y27468D01*
X597027D01*
Y33300D01*
X596987Y33397D01*
X597265Y33813D01*
X602600D01*
X604571Y34629D01*
X611971Y42029D01*
X612324Y42883D01*
X624654Y55213D01*
X625504D01*
X625781Y54797D01*
X625213Y53425D01*
Y51654D01*
X613507Y39948D01*
X612691Y37978D01*
Y30831D01*
X609146Y27287D01*
X600933D01*
X600420Y27075D01*
X598161D01*
Y24536D01*
X598146Y24500D01*
X598161Y24464D01*
Y21925D01*
X600420D01*
X600933Y21713D01*
X610301D01*
X612271Y22529D01*
X617449Y27706D01*
X618265Y29677D01*
Y36823D01*
X628291Y46850D01*
X628791Y46643D01*
Y36382D01*
X640418D01*
X640696Y35966D01*
X640213Y34800D01*
Y32381D01*
X639713Y32077D01*
X638000Y32787D01*
X636029Y31971D01*
X635750Y31296D01*
X635250D01*
X634971Y31971D01*
X633000Y32787D01*
X631029Y31971D01*
X630750Y31296D01*
X630250D01*
X629971Y31971D01*
X629801Y32041D01*
X629669Y32358D01*
X628500Y32843D01*
Y30000D01*
X627500D01*
Y32843D01*
X626331Y32358D01*
X626199Y32041D01*
X626029Y31971D01*
X625213Y30000D01*
Y28454D01*
X613546Y16787D01*
X602454D01*
X597406Y21835D01*
Y24000D01*
X594241D01*
X591075D01*
Y21531D01*
X591454D01*
Y21059D01*
X592270Y19089D01*
X599329Y12029D01*
X601300Y11213D01*
X614700D01*
X616671Y12029D01*
X629713Y25072D01*
X630213Y24865D01*
Y15054D01*
X624846Y9687D01*
X571754D01*
X545787Y35654D01*
Y54931D01*
X546203Y55209D01*
X548587Y54222D01*
X551612Y55475D01*
X552865Y58500D01*
X551612Y61525D01*
X548587Y62778D01*
X546203Y61791D01*
X545787Y62069D01*
Y64931D01*
X546203Y65209D01*
X548587Y64222D01*
X551612Y65475D01*
X552865Y68500D01*
X551612Y71525D01*
X548587Y72778D01*
X546203Y71791D01*
X545787Y72069D01*
Y74931D01*
X546203Y75209D01*
X548587Y74222D01*
X551612Y75475D01*
X552865Y78500D01*
X551612Y81525D01*
X548587Y82778D01*
X546203Y81791D01*
X545787Y82069D01*
Y84931D01*
X546203Y85209D01*
X548587Y84222D01*
X551612Y85475D01*
X552865Y88500D01*
X551612Y91525D01*
X551373Y91624D01*
Y95376D01*
X551612Y95475D01*
X552865Y98500D01*
X551612Y101525D01*
X548587Y102778D01*
X546203Y101791D01*
X545787Y102069D01*
Y104931D01*
X546203Y105209D01*
X548587Y104222D01*
X551612Y105475D01*
X552865Y108500D01*
X551612Y111525D01*
X548587Y112778D01*
X546203Y111791D01*
X545787Y112069D01*
Y114931D01*
X546203Y115209D01*
X548587Y114222D01*
X551612Y115475D01*
X552865Y118500D01*
X551612Y121525D01*
X548587Y122778D01*
X546203Y121791D01*
X545787Y122069D01*
Y124547D01*
X552539D01*
Y132453D01*
X545787D01*
Y138013D01*
X572374D01*
Y96205D01*
D02*
G37*
G36*
X595019Y220948D02*
X595475Y219849D01*
X597072Y219187D01*
Y218687D01*
X595475Y218025D01*
X594222Y215000D01*
X595475Y211975D01*
X596125Y211705D01*
X596388Y211071D01*
X596167Y210438D01*
X595475Y210151D01*
X595195Y209475D01*
X594654D01*
X593032Y213390D01*
X588896Y215103D01*
Y215645D01*
X593032Y217358D01*
X594519Y220948D01*
X595019D01*
D02*
G37*
%LPC*%
G36*
X577233Y84965D02*
X574567D01*
Y82496D01*
X577233D01*
Y84965D01*
D02*
G37*
G36*
X573567D02*
X570902D01*
Y82496D01*
X573567D01*
Y84965D01*
D02*
G37*
%LPD*%
G36*
X284736Y63513D02*
X282438Y62562D01*
X281170Y59500D01*
X282438Y56438D01*
X284213Y55704D01*
Y43624D01*
X283975Y43525D01*
X282722Y40500D01*
X283975Y37475D01*
X284934Y37077D01*
X284837Y36587D01*
X279164D01*
X279066Y37077D01*
X280025Y37475D01*
X281278Y40500D01*
X280025Y43525D01*
X279787Y43624D01*
Y54746D01*
X280021Y54979D01*
X280837Y56950D01*
X280021Y58921D01*
X279716Y59225D01*
X279830Y59500D01*
X278561Y62562D01*
X276264Y63513D01*
X276364Y64013D01*
X284636D01*
X284736Y63513D01*
D02*
G37*
G36*
X294736D02*
X292439Y62562D01*
X291170Y59500D01*
X292439Y56438D01*
X294213Y55704D01*
Y43624D01*
X293975Y43525D01*
X292722Y40500D01*
X293975Y37475D01*
X294934Y37077D01*
X294836Y36587D01*
X289163D01*
X289066Y37077D01*
X290025Y37475D01*
X291278Y40500D01*
X290025Y43525D01*
X289787Y43624D01*
Y54746D01*
X290021Y54979D01*
X290837Y56950D01*
X290021Y58921D01*
X289716Y59225D01*
X289830Y59500D01*
X288562Y62562D01*
X286264Y63513D01*
X286364Y64013D01*
X294636D01*
X294736Y63513D01*
D02*
G37*
G36*
X304736D02*
X302438Y62562D01*
X301170Y59500D01*
X302438Y56438D01*
X304213Y55704D01*
Y43624D01*
X303975Y43525D01*
X302722Y40500D01*
X303975Y37475D01*
X304934Y37077D01*
X304837Y36587D01*
X299164D01*
X299066Y37077D01*
X300025Y37475D01*
X301278Y40500D01*
X300025Y43525D01*
X299787Y43624D01*
Y54746D01*
X300021Y54979D01*
X300837Y56950D01*
X300021Y58921D01*
X299716Y59225D01*
X299830Y59500D01*
X298562Y62562D01*
X296264Y63513D01*
X296364Y64013D01*
X304636D01*
X304736Y63513D01*
D02*
G37*
G36*
X314736D02*
X312439Y62562D01*
X311170Y59500D01*
X312439Y56438D01*
X314213Y55704D01*
Y43624D01*
X313975Y43525D01*
X312722Y40500D01*
X313975Y37475D01*
X314934Y37077D01*
X314837Y36587D01*
X309163D01*
X309066Y37077D01*
X310025Y37475D01*
X311278Y40500D01*
X310025Y43525D01*
X309787Y43624D01*
Y54746D01*
X310021Y54979D01*
X310837Y56950D01*
X310021Y58921D01*
X309716Y59225D01*
X309830Y59500D01*
X308561Y62562D01*
X306264Y63513D01*
X306364Y64013D01*
X314636D01*
X314736Y63513D01*
D02*
G37*
G36*
X264736D02*
X262439Y62562D01*
X261170Y59500D01*
X262439Y56438D01*
X264213Y55704D01*
Y43624D01*
X263975Y43525D01*
X262722Y40500D01*
X263975Y37475D01*
X264934Y37077D01*
X264837Y36587D01*
X259163D01*
X259066Y37077D01*
X260025Y37475D01*
X261278Y40500D01*
X260025Y43525D01*
X259787Y43624D01*
Y54746D01*
X260021Y54979D01*
X260837Y56950D01*
X260021Y58921D01*
X259716Y59225D01*
X259830Y59500D01*
X258561Y62562D01*
X256264Y63513D01*
X256364Y64013D01*
X264636D01*
X264736Y63513D01*
D02*
G37*
G36*
X274736D02*
X272439Y62562D01*
X271170Y59500D01*
X272439Y56438D01*
X274213Y55704D01*
Y43624D01*
X273975Y43525D01*
X272722Y40500D01*
X273975Y37475D01*
X274934Y37077D01*
X274836Y36587D01*
X269163D01*
X269066Y37077D01*
X270025Y37475D01*
X271278Y40500D01*
X270025Y43525D01*
X269787Y43624D01*
Y54746D01*
X270021Y54979D01*
X270837Y56950D01*
X270021Y58921D01*
X269716Y59225D01*
X269830Y59500D01*
X268562Y62562D01*
X266264Y63513D01*
X266364Y64013D01*
X274636D01*
X274736Y63513D01*
D02*
G37*
D10*
X431500Y101988D02*
D03*
Y113012D02*
D03*
D11*
X442067Y112756D02*
D03*
X450067D02*
D03*
X442067Y93071D02*
D03*
X450067D02*
D03*
D12*
X274004Y247004D02*
D03*
Y199996D02*
D03*
X206996Y247004D02*
D03*
Y199996D02*
D03*
X275004Y340504D02*
D03*
Y293496D02*
D03*
X207996Y340504D02*
D03*
Y293496D02*
D03*
D13*
X316154Y317000D02*
D03*
X322846D02*
D03*
X580759Y81996D02*
D03*
X574067D02*
D03*
X580759Y62311D02*
D03*
X574067D02*
D03*
X580759Y42626D02*
D03*
X574067D02*
D03*
X600444Y81996D02*
D03*
X593752D02*
D03*
X600444Y42626D02*
D03*
X593752D02*
D03*
X600444Y62311D02*
D03*
X593752D02*
D03*
X600933Y24500D02*
D03*
X594241D02*
D03*
D14*
X321059Y287000D02*
D03*
X315941D02*
D03*
X322559Y267500D02*
D03*
X317441D02*
D03*
X297559Y268500D02*
D03*
X292441D02*
D03*
D15*
X312988Y213000D02*
D03*
X324012D02*
D03*
D16*
X314000Y231941D02*
D03*
Y237059D02*
D03*
D17*
X462752Y93071D02*
D03*
X466752D02*
D03*
X462752Y112756D02*
D03*
X466752D02*
D03*
X462752Y73386D02*
D03*
X466752D02*
D03*
X615587Y84500D02*
D03*
X611587D02*
D03*
X613087Y69000D02*
D03*
X609087D02*
D03*
X625587D02*
D03*
X621587D02*
D03*
D18*
X492000Y87071D02*
D03*
Y110929D02*
D03*
D19*
X159000Y287012D02*
D03*
Y275988D02*
D03*
D20*
X610500Y117500D02*
D03*
X584673D02*
D03*
D21*
X635500Y41713D02*
D03*
D22*
X628000Y30000D02*
D03*
X633000D02*
D03*
X638000D02*
D03*
X643000D02*
D03*
X628000Y53425D02*
D03*
X633000D02*
D03*
X638000D02*
D03*
X643000D02*
D03*
D23*
X420500Y110500D02*
D03*
Y105000D02*
D03*
D24*
X630173Y212326D02*
Y337000D01*
X589326Y191826D02*
X589500Y192000D01*
X327693Y265100D02*
Y265126D01*
X334676D01*
X327693Y251964D02*
Y265100D01*
X584000Y339500D02*
X588500Y335000D01*
Y252874D02*
Y277500D01*
Y335000D01*
X361222Y241564D02*
X372531Y252874D01*
X388500D01*
X387886Y193488D02*
X388500Y192874D01*
X374114Y193488D02*
X387886D01*
X374114D02*
Y205543D01*
X359500Y220157D02*
X374114Y205543D01*
X630173Y337000D02*
X630500D01*
X604399Y186551D02*
X630173Y212326D01*
X594601Y186551D02*
X604399D01*
X207996Y293496D02*
X241799Y327299D01*
X293936D01*
X300636Y334000D01*
X326000D01*
X327693Y251964D02*
X359500Y220157D01*
X329500Y308050D02*
X339874Y297676D01*
X334676Y265126D02*
X339874Y270324D01*
X329500Y308050D02*
Y316000D01*
X339874Y270324D02*
Y297676D01*
X589326Y191826D02*
X589500Y191652D01*
X594601Y186551D01*
D25*
X614300Y84500D02*
X624800Y95000D01*
X611587Y81787D02*
X614300Y84500D01*
X588500Y207000D02*
X589500D01*
X585100Y205700D02*
X588500Y209100D01*
X580500Y195600D02*
X585800Y200900D01*
X584100Y192000D02*
X589500D01*
X584100D02*
X589500Y186600D01*
X583800Y54000D02*
X593752Y63952D01*
X427000Y97488D02*
Y107600D01*
X420500Y109100D02*
X423100D01*
X427000Y85300D02*
Y97488D01*
X280500Y247004D02*
Y259000D01*
X598500Y212700D02*
X599000D01*
X360361Y234074D02*
Y241564D01*
X322559Y265100D02*
X327693D01*
X588500Y247800D02*
X589500D01*
X576600Y237000D02*
X589500D01*
X588500Y252000D02*
X589500D01*
X587626D02*
X588500D01*
X589500Y237000D02*
Y247800D01*
X625600Y66500D02*
Y69000D01*
X400100Y135300D02*
X516800Y252000D01*
X401100Y65100D02*
Y137600D01*
X397000Y55900D02*
X398050Y56950D01*
X601700Y138000D02*
X610500D01*
X263100Y194000D02*
X269100Y188000D01*
X263100Y194000D02*
Y199996D01*
X53000Y328500D02*
Y330772D01*
X257000Y55900D02*
X258050Y56950D01*
X267000Y55900D02*
X268050Y56950D01*
X277000Y55900D02*
X278050Y56950D01*
X287000Y55900D02*
X288050Y56950D01*
X297000Y55900D02*
X298050Y56950D01*
X307000Y55900D02*
X308050Y56950D01*
X317000Y55900D02*
X318050Y56950D01*
X367000Y55900D02*
X368050Y56950D01*
X377000Y55900D02*
X378050Y56950D01*
X387000Y55900D02*
X388050Y56950D01*
X337000Y51000D02*
X345500Y59500D01*
X337000Y40500D02*
Y51000D01*
X385500Y59500D02*
X388050Y56950D01*
X387000Y40500D02*
Y55900D01*
X375500Y59500D02*
X378050Y56950D01*
X377000Y40500D02*
Y55900D01*
X365500Y59500D02*
X368050Y56950D01*
X367000Y40500D02*
Y55900D01*
X315500Y59500D02*
X318050Y56950D01*
X317000Y40500D02*
Y55900D01*
X305500Y59500D02*
X308050Y56950D01*
X307000Y40500D02*
Y55900D01*
X295500Y59500D02*
X298050Y56950D01*
X297000Y40500D02*
Y55900D01*
X285500Y59500D02*
X288050Y56950D01*
X287000Y40500D02*
Y55900D01*
X275500Y59500D02*
X278050Y56950D01*
X277000Y40500D02*
Y55900D01*
X265500Y59500D02*
X268050Y56950D01*
X267000Y40500D02*
Y55900D01*
X255500Y59500D02*
X258050Y56950D01*
X257000Y40500D02*
Y55900D01*
X395500Y59500D02*
X398050Y56950D01*
X397000Y40500D02*
Y55900D01*
X348200Y66800D02*
X355500Y59500D01*
X252700Y66800D02*
X348200D01*
X249900Y64000D02*
X252700Y66800D01*
X249900Y39000D02*
Y64000D01*
Y39000D02*
X255100Y33800D01*
X320300D01*
X327000Y40500D01*
X400100Y135300D02*
Y137600D01*
X401100D01*
X395500Y59500D02*
X401100Y65100D01*
X365500Y119500D02*
Y132000D01*
X395500Y119500D02*
Y132000D01*
X385500Y119500D02*
Y132000D01*
X375500Y119500D02*
Y132000D01*
X355500Y119500D02*
Y132000D01*
X345500Y119500D02*
Y132000D01*
X335500Y119500D02*
Y132000D01*
X325500Y119500D02*
Y132000D01*
X315500Y119500D02*
Y132000D01*
X305500Y119500D02*
Y132000D01*
X295500Y119500D02*
Y132000D01*
X285500Y119500D02*
Y132000D01*
X275500Y119500D02*
Y132000D01*
X265500Y119500D02*
Y132000D01*
X255500Y119500D02*
Y132000D01*
X327693Y265100D02*
X330500D01*
X424000Y117500D02*
X432857Y126357D01*
Y140882D01*
X441918Y149943D01*
X456443D01*
X516800Y252000D02*
X558500D01*
X456443Y149943D02*
X558500Y252000D01*
X559800Y185500D02*
X595300Y150000D01*
X558500Y252000D02*
X584000Y277500D01*
X558500Y252000D02*
X587626D01*
X643000Y30000D02*
Y34800D01*
X643500D01*
X655957Y47257D02*
Y65818D01*
X643500Y34800D02*
X655957Y47257D01*
X625600Y69000D02*
X642200D01*
X652775D02*
X655957Y65818D01*
X642200Y69000D02*
Y144400D01*
Y69000D02*
X652775D01*
X582226Y239148D02*
X583500Y237874D01*
X582226Y239148D02*
Y246600D01*
X588500Y247800D02*
Y252000D01*
X583500Y237874D02*
X588500D01*
X582226Y246600D02*
X587626Y252000D01*
X584000Y277500D02*
X588500D01*
Y252000D02*
Y252874D01*
X587626Y252000D02*
X588500Y252874D01*
X595300Y150000D02*
X636600D01*
X642200Y144400D01*
X589500Y247800D02*
Y252000D01*
X608858Y55000D02*
X616169Y62311D01*
X608307Y54449D02*
X608858Y55000D01*
X607755D02*
X608307Y54449D01*
X600444Y62311D02*
X607755Y55000D01*
X608858D02*
X608858D01*
X607755D02*
X608858D01*
X633000Y53425D02*
X633457Y52969D01*
Y50543D02*
Y52969D01*
X427000Y107600D02*
Y107700D01*
X413100Y84000D02*
Y127100D01*
Y84000D02*
X415700Y81400D01*
X423100D01*
X427000Y85300D01*
X424200Y110500D02*
X427000Y107700D01*
X420500Y110500D02*
X424200D01*
X621411Y62311D02*
X625600Y66500D01*
X616169Y62311D02*
X621411D01*
X140000Y235500D02*
X178196D01*
X53000Y327500D02*
Y328500D01*
X178196Y235500D02*
X189700Y247004D01*
X588500Y207000D02*
Y207874D01*
X330500Y265100D02*
X393900D01*
X399000Y260000D01*
Y233374D02*
Y260000D01*
X388500Y222874D02*
X399000Y233374D01*
X360361Y241564D02*
X361222D01*
X359500Y234934D02*
X360361Y234074D01*
X359500Y234934D02*
Y239843D01*
X599000Y212700D02*
Y214126D01*
X598500Y212700D02*
Y215000D01*
X53000Y330772D02*
X53677D01*
X588500Y207874D02*
Y209100D01*
X585100Y201600D02*
Y205700D01*
X588500Y192874D02*
Y198200D01*
X580759Y62311D02*
Y81996D01*
X599000Y214126D02*
X605700D01*
X437400Y119300D02*
Y139000D01*
X605700Y214126D02*
Y223900D01*
X510100Y192000D02*
X584100D01*
X579000Y194100D02*
X580500Y195600D01*
X584100Y192000D01*
X579000Y194100D02*
Y197100D01*
X580500Y195600D01*
X589500Y204600D02*
Y207000D01*
X445500Y334000D02*
Y344000D01*
X455500Y334000D02*
Y344000D01*
X465500Y334000D02*
Y344000D01*
X475500Y334000D02*
Y344000D01*
X485500Y334000D02*
Y344000D01*
X505500Y334000D02*
Y344000D01*
X515500Y334000D02*
Y344000D01*
X487500Y52500D02*
Y62500D01*
X497500D01*
X510900Y75900D01*
Y109000D01*
X508971Y110929D02*
X510900Y109000D01*
X492000Y110929D02*
X508971D01*
X457500Y52500D02*
Y62500D01*
X450067Y69933D02*
X457500Y62500D01*
X450067Y69933D02*
Y93071D01*
X447500Y52500D02*
Y62500D01*
X437500Y52500D02*
Y62500D01*
X417500Y52500D02*
Y62500D01*
X450067Y108333D02*
Y112756D01*
X464171Y104900D02*
X482000Y87071D01*
X450067Y108333D02*
X453500Y104900D01*
X482000Y87071D02*
X492000D01*
X453500Y104900D02*
X464171D01*
X420500Y109100D02*
Y110500D01*
X429750Y107600D02*
X431500Y105850D01*
X436000Y101988D02*
X437400Y103388D01*
X436000Y101988D02*
X442067Y95921D01*
X431500Y101988D02*
Y105850D01*
Y101988D02*
X436000D01*
X423100Y109100D02*
X424600Y107600D01*
X437400Y109267D02*
X442067Y104600D01*
X437400Y139000D02*
X443800Y145400D01*
X593752Y38848D02*
Y42626D01*
X594241Y24500D02*
Y33300D01*
X593752Y33788D02*
Y38848D01*
Y33788D02*
X594241Y33300D01*
X574067Y42626D02*
Y54000D01*
X580567Y47500D01*
X591000D02*
X593752Y44748D01*
Y42626D02*
Y44748D01*
X580567Y47500D02*
X591000D01*
X593752Y44748D02*
Y62311D01*
X596000Y36600D02*
X602600D01*
X610000Y44000D01*
X593752Y38848D02*
X596000Y36600D01*
X610000Y44000D02*
Y44500D01*
X623500Y58000D01*
X638000Y53425D02*
Y56500D01*
X574067Y57733D02*
X577800Y54000D01*
X574067Y57733D02*
Y62311D01*
X577800Y54000D02*
X583800D01*
X574067Y62311D02*
Y81996D01*
X442067Y95921D02*
Y104600D01*
Y93071D02*
Y95921D01*
X623500Y58000D02*
X636500D01*
X638000Y56500D01*
X621000Y145400D02*
X624800Y141600D01*
Y95000D02*
Y141600D01*
X466752Y112756D02*
X478400D01*
X480227Y110929D02*
X492000D01*
X478400Y112756D02*
X480227Y110929D01*
X462752Y85200D02*
Y93071D01*
X466752Y73386D02*
Y81200D01*
X462752Y85200D02*
X466752Y81200D01*
X567500Y39000D02*
X572900Y33600D01*
X575359D02*
X580759Y39000D01*
X572900Y33600D02*
X575359D01*
X567500Y39000D02*
Y49587D01*
X580759Y39000D02*
Y42626D01*
X558587Y58500D02*
Y68500D01*
Y58500D02*
X567500Y49587D01*
X558587Y68500D02*
Y78500D01*
Y88500D01*
Y98500D01*
X548587Y88500D02*
Y98500D01*
X558587D02*
Y108500D01*
Y118500D01*
Y128500D01*
X643000Y53425D02*
Y55500D01*
X648000Y60500D01*
X580759Y42626D02*
X581885Y41500D01*
X587000D01*
X633457Y50543D02*
X633500Y50500D01*
X600933Y24500D02*
X610301D01*
X615478Y29677D01*
Y37978D01*
X628000Y50500D01*
Y53425D01*
X600444Y42626D02*
Y62311D01*
X625587Y69000D02*
X625600D01*
X638000Y27050D02*
X639750Y25300D01*
X595100Y76800D02*
X599744D01*
X600444Y77500D01*
Y81996D01*
X638000Y27050D02*
Y30000D01*
X639750Y25300D02*
X648700D01*
X660500Y37100D01*
Y67700D01*
X651400Y76800D02*
X660500Y67700D01*
X543000Y34500D02*
Y139600D01*
X570600Y6900D02*
X626000D01*
X543000Y34500D02*
X570600Y6900D01*
X543000Y139600D02*
X544200Y140800D01*
X598900D02*
X601700Y138000D01*
X544200Y140800D02*
X598900D01*
X626000Y6900D02*
X633000Y13900D01*
Y30000D01*
X610500Y117500D02*
Y138000D01*
X594241Y21059D02*
Y24500D01*
Y21059D02*
X601300Y14000D01*
X614700D01*
X628000Y27300D02*
Y30000D01*
X614700Y14000D02*
X628000Y27300D01*
X593752Y66500D02*
X596252Y69000D01*
X580759Y81996D02*
X593752D01*
X580759Y97700D02*
X584673Y101614D01*
X580759Y81996D02*
Y97700D01*
X584673Y101614D02*
Y117500D01*
X609087Y69000D02*
Y75500D01*
X611587Y78000D01*
X189700Y247004D02*
X206996D01*
X159000Y287012D02*
X173512D01*
X269100Y188000D02*
X274000D01*
X173512Y287012D02*
X176843Y290343D01*
X179000Y292500D01*
X263100Y199996D02*
X274004D01*
Y247004D02*
X280500D01*
X276000Y261000D02*
X278500D01*
X280500Y259000D01*
X322559Y265100D02*
Y267500D01*
X322846Y317000D02*
X330500D01*
X303500Y309500D02*
X311000Y317000D01*
X316154D01*
X424600Y107600D02*
X427000D01*
X429750D01*
X437400Y103388D02*
Y109267D01*
Y119300D01*
X463500Y145400D01*
X510100Y192000D01*
X443800Y145400D02*
X463500D01*
X621000D01*
X574067Y54000D02*
Y57733D01*
X593752Y62311D02*
Y63952D01*
Y66500D01*
Y63952D02*
X598800Y69000D01*
X611587Y81787D01*
X596252Y69000D02*
X598800D01*
X609087D01*
X589500Y186600D02*
Y191652D01*
Y192000D01*
X585100Y201600D02*
X585800Y200900D01*
X588500Y198200D01*
X611587Y84500D02*
X614300D01*
X615587D01*
X611587Y78000D02*
Y81787D01*
Y84500D01*
X585800Y200900D02*
X589500Y204600D01*
D26*
X53699Y208696D02*
X117000Y257500D01*
X51500Y207000D02*
X53699Y208696D01*
X53000Y328500D02*
X55500Y331000D01*
X159000Y290343D02*
X176843D01*
X178196Y235500D02*
X195492D01*
X117000Y257500D02*
X140000D01*
X55500Y331000D02*
X148000D01*
X159000Y320000D01*
X195492Y235500D02*
X201484Y241492D01*
X159000Y290343D02*
Y320000D01*
X247906Y238182D02*
X254257Y231831D01*
X226743Y262177D02*
X247906Y241015D01*
Y238182D02*
Y241015D01*
X140000Y257500D02*
X182572D01*
X187249Y262177D01*
X226743D01*
X254257Y231831D02*
X293751D01*
X300102Y238182D01*
D27*
X427012Y117500D02*
X431500Y113012D01*
X424000Y117500D02*
X427012D01*
X418500Y113912D02*
Y124000D01*
X416294Y111706D02*
X418500Y113912D01*
X416294Y97465D02*
Y111706D01*
Y97465D02*
X418500Y95259D01*
X442067Y112756D02*
X445500Y116189D01*
Y119000D01*
X418500Y86500D02*
Y95259D01*
X450067Y112756D02*
X450323Y112500D01*
X457000D01*
X434500Y94000D02*
X435500Y93000D01*
Y84000D02*
Y93000D01*
X420000Y104500D02*
X420500Y105000D01*
X420000Y99000D02*
Y104500D01*
X462752Y112756D02*
X463577Y113581D01*
Y127077D01*
X464000Y127500D01*
X454000Y100500D02*
X456500Y98000D01*
X448500Y100500D02*
X454000D01*
X446500Y98500D02*
X448500Y100500D01*
X446500Y85500D02*
Y98500D01*
X444500Y83500D02*
X446500Y85500D01*
D28*
X426500Y94000D02*
Y96988D01*
X466752Y93071D02*
X470823Y89000D01*
X471500D01*
X466752Y73386D02*
X466866Y73500D01*
X473000D01*
X613087Y67944D02*
Y69000D01*
X608642Y63500D02*
X613087Y67944D01*
X608500Y63500D02*
X608642D01*
X426500Y96988D02*
X427000Y97488D01*
X431500Y101988D01*
D29*
X580776Y62311D02*
X581311D01*
X586500Y67500D01*
D30*
X462752Y70248D02*
X464500Y68500D01*
X462752Y70248D02*
Y73386D01*
D31*
X619250Y69000D02*
D03*
D32*
X307000Y304000D02*
D03*
D33*
X332500Y206500D02*
D03*
D34*
X315250Y228250D02*
D03*
D35*
X329750Y190750D02*
D03*
D36*
X307750Y212750D02*
D03*
D37*
X308750Y309000D02*
D03*
D38*
X275250Y347250D02*
D03*
D39*
X276500Y273250D02*
D03*
D40*
X274000Y187250D02*
D03*
D41*
X207500Y333250D02*
D03*
D42*
X207250Y207750D02*
D03*
D43*
X307000Y289250D02*
D03*
D44*
X140250Y280000D02*
D03*
D45*
X147750Y274250D02*
D03*
D46*
X210750Y234750D02*
D03*
D47*
X315250Y277000D02*
D03*
D48*
X325250Y284000D02*
D03*
D49*
X307250Y262750D02*
D03*
D50*
X306000Y243750D02*
D03*
D51*
X255500Y59500D02*
D03*
X265500D02*
D03*
X285500D02*
D03*
X295500D02*
D03*
X275500D02*
D03*
X305500D02*
D03*
X315500D02*
D03*
X325500D02*
D03*
X335500D02*
D03*
X345500D02*
D03*
X355500D02*
D03*
X365500D02*
D03*
X375500D02*
D03*
X385500D02*
D03*
X255500Y119500D02*
D03*
X265500D02*
D03*
X395500Y59500D02*
D03*
X385500Y119500D02*
D03*
X375500D02*
D03*
X365500D02*
D03*
X355500D02*
D03*
X345500D02*
D03*
X335500D02*
D03*
X325500D02*
D03*
X315500D02*
D03*
X305500D02*
D03*
X295500D02*
D03*
X285500D02*
D03*
X275500D02*
D03*
X33992Y370142D02*
D03*
X687535D02*
D03*
Y23685D02*
D03*
X23500Y24000D02*
D03*
D52*
X395500Y119500D02*
D03*
D53*
X257000Y40500D02*
D03*
X267000D02*
D03*
X277000D02*
D03*
X287000D02*
D03*
X297000D02*
D03*
X307000D02*
D03*
X317000D02*
D03*
X327000D02*
D03*
X337000D02*
D03*
X347000D02*
D03*
X357000D02*
D03*
X367000D02*
D03*
X377000D02*
D03*
X387000D02*
D03*
X395500Y132000D02*
D03*
X385500D02*
D03*
X375500D02*
D03*
X365500D02*
D03*
X355500D02*
D03*
X345500D02*
D03*
X335500D02*
D03*
X325500D02*
D03*
X315500D02*
D03*
X305500D02*
D03*
X295500D02*
D03*
X285500D02*
D03*
X275500D02*
D03*
X265500D02*
D03*
X642500Y261000D02*
D03*
X641500Y163500D02*
D03*
X642000Y238000D02*
D03*
Y228000D02*
D03*
Y218000D02*
D03*
Y208000D02*
D03*
X598500Y222874D02*
D03*
Y230748D02*
D03*
Y238622D02*
D03*
Y215000D02*
D03*
Y207126D02*
D03*
Y246496D02*
D03*
Y199252D02*
D03*
X558587Y128500D02*
D03*
X548587Y118500D02*
D03*
X558587D02*
D03*
X548587Y108500D02*
D03*
X558587D02*
D03*
X548587Y98500D02*
D03*
X558587D02*
D03*
X548587Y88500D02*
D03*
X558587D02*
D03*
X548587Y78500D02*
D03*
X558587D02*
D03*
X548587Y68500D02*
D03*
X558587D02*
D03*
X548587Y58500D02*
D03*
X558587D02*
D03*
X417500Y62500D02*
D03*
X427500Y52500D02*
D03*
Y62500D02*
D03*
X437500Y52500D02*
D03*
Y62500D02*
D03*
X447500Y52500D02*
D03*
Y62500D02*
D03*
X457500Y52500D02*
D03*
Y62500D02*
D03*
X467500Y52500D02*
D03*
Y62500D02*
D03*
X477500Y52500D02*
D03*
Y62500D02*
D03*
X487500Y52500D02*
D03*
Y62500D02*
D03*
X505500Y344000D02*
D03*
X495500D02*
D03*
X485500D02*
D03*
X475500D02*
D03*
X465500D02*
D03*
X455500D02*
D03*
X445500D02*
D03*
X515500Y334000D02*
D03*
X505500D02*
D03*
X495500D02*
D03*
X485500D02*
D03*
X475500D02*
D03*
X465500D02*
D03*
X455500D02*
D03*
X445500D02*
D03*
D54*
X397000Y40500D02*
D03*
X255500Y132000D02*
D03*
X417500Y52500D02*
D03*
X515500Y344000D02*
D03*
D55*
X584000Y339500D02*
D03*
X53677Y330772D02*
D03*
Y208724D02*
D03*
X630500Y337000D02*
D03*
D56*
X642500Y271000D02*
D03*
X641500Y173500D02*
D03*
X642000Y198000D02*
D03*
X548587Y128500D02*
D03*
D57*
X140000Y235500D02*
D03*
Y257500D02*
D03*
Y279500D02*
D03*
D58*
X64000Y257500D02*
D03*
D59*
X388500Y252874D02*
D03*
Y222874D02*
D03*
Y207874D02*
D03*
Y192874D02*
D03*
D60*
X588500Y252874D02*
D03*
Y192874D02*
D03*
D61*
Y237874D02*
D03*
Y222874D02*
D03*
Y207874D02*
D03*
D62*
X359500Y239843D02*
D03*
D63*
Y220157D02*
D03*
D64*
X424000Y117500D02*
D03*
X559800Y185500D02*
D03*
X576600Y237000D02*
D03*
X413100Y127100D02*
D03*
X418500Y124000D02*
D03*
Y86500D02*
D03*
X434500Y94000D02*
D03*
X426500D02*
D03*
X435500Y84000D02*
D03*
X456500Y98000D02*
D03*
X444500Y83500D02*
D03*
X471500Y89000D02*
D03*
X473000Y73500D02*
D03*
X420000Y99000D02*
D03*
X586500Y67500D02*
D03*
X617500Y69000D02*
D03*
X608500Y63500D02*
D03*
X605700Y223900D02*
D03*
X464500Y68500D02*
D03*
X648000Y60500D02*
D03*
X587000Y41500D02*
D03*
X633500Y50500D02*
D03*
X595100Y76800D02*
D03*
X651400D02*
D03*
X206500Y211500D02*
D03*
X207500Y328000D02*
D03*
X323500Y188000D02*
D03*
X274000D02*
D03*
X179000Y292500D02*
D03*
X276000Y261000D02*
D03*
X275000Y352500D02*
D03*
X330500Y265100D02*
D03*
Y317000D02*
D03*
X303500Y286000D02*
D03*
X445500Y119000D02*
D03*
X457000Y112500D02*
D03*
X464000Y127500D02*
D03*
X314500Y227000D02*
D03*
X304000Y213000D02*
D03*
X307500Y307000D02*
D03*
D65*
X631169Y39547D02*
D03*
Y43878D02*
D03*
X635500Y39547D02*
D03*
Y43878D02*
D03*
X639831Y39547D02*
D03*
Y43878D02*
D03*
M02*
