G04 Layer_Color=128*
%FSLAX42Y42*%
%MOMM*%
G71*
G01*
G75*
%ADD51C,0.00*%
%ADD52C,0.20*%
%ADD53C,0.13*%
%ADD54C,0.41*%
%ADD55C,0.10*%
%ADD56C,0.15*%
%ADD57C,0.10*%
%ADD58C,0.05*%
%ADD59C,0.05*%
G36*
X8872Y20620D02*
X8832D01*
Y20680D01*
X8872D01*
Y20620D01*
D02*
G37*
G36*
X8935Y20603D02*
X8885D01*
Y20698D01*
X8935D01*
Y20603D01*
D02*
G37*
G36*
X8818D02*
X8768D01*
Y20698D01*
X8818D01*
Y20603D01*
D02*
G37*
G36*
X8882Y19859D02*
X8852D01*
Y19919D01*
X8882D01*
Y19859D01*
D02*
G37*
G36*
X8801D02*
X8771D01*
Y19919D01*
X8801D01*
Y19859D01*
D02*
G37*
G36*
X8846Y19858D02*
X8807D01*
Y19918D01*
X8846D01*
Y19858D01*
D02*
G37*
G36*
X4860Y19844D02*
X4690D01*
Y19919D01*
X4860D01*
Y19844D01*
D02*
G37*
G36*
X4815Y19729D02*
X4735D01*
Y19768D01*
X4815D01*
Y19729D01*
D02*
G37*
G36*
X4331Y19634D02*
X4281D01*
Y19597D01*
X4077D01*
Y19761D01*
X4331D01*
Y19634D01*
D02*
G37*
G36*
X4860Y19578D02*
X4690D01*
Y19653D01*
X4860D01*
Y19578D01*
D02*
G37*
G36*
X8285Y19389D02*
X8255D01*
Y19449D01*
X8285D01*
Y19389D01*
D02*
G37*
G36*
X8204D02*
X8174D01*
Y19449D01*
X8204D01*
Y19389D01*
D02*
G37*
G36*
X8250Y19388D02*
X8210D01*
Y19448D01*
X8250D01*
Y19388D01*
D02*
G37*
G36*
X8920Y19363D02*
X8890D01*
Y19423D01*
X8920D01*
Y19363D01*
D02*
G37*
G36*
X8839D02*
X8809D01*
Y19423D01*
X8839D01*
Y19363D01*
D02*
G37*
G36*
X8885Y19363D02*
X8845D01*
Y19423D01*
X8885D01*
Y19363D01*
D02*
G37*
G36*
X4282Y19202D02*
X4332D01*
Y19075D01*
X4282D01*
Y18986D01*
X4077D01*
Y19291D01*
X4282D01*
Y19202D01*
D02*
G37*
G36*
X8743Y18581D02*
X8683D01*
Y18611D01*
X8743D01*
Y18581D01*
D02*
G37*
G36*
X8742Y18535D02*
X8682D01*
Y18575D01*
X8742D01*
Y18535D01*
D02*
G37*
G36*
X4281Y18644D02*
X4332D01*
Y18516D01*
X4281D01*
Y18516D01*
X4077D01*
Y18682D01*
X4281D01*
Y18644D01*
D02*
G37*
G36*
X8743Y18499D02*
X8683D01*
Y18529D01*
X8743D01*
Y18499D01*
D02*
G37*
G36*
X8846Y17969D02*
X8807D01*
Y18049D01*
X8846D01*
Y17969D01*
D02*
G37*
G36*
X8997Y17924D02*
X8922D01*
Y18094D01*
X8997D01*
Y17924D01*
D02*
G37*
G36*
X8731Y17924D02*
X8656D01*
Y18094D01*
X8731D01*
Y17924D01*
D02*
G37*
G36*
X15923Y14651D02*
X15883D01*
Y14711D01*
X15923D01*
Y14651D01*
D02*
G37*
G36*
X15423D02*
X15383D01*
Y14711D01*
X15423D01*
Y14651D01*
D02*
G37*
G36*
X15987Y14633D02*
X15937D01*
Y14728D01*
X15987D01*
Y14633D01*
D02*
G37*
G36*
X15870D02*
X15820D01*
Y14728D01*
X15870D01*
Y14633D01*
D02*
G37*
G36*
X15487D02*
X15437D01*
Y14728D01*
X15487D01*
Y14633D01*
D02*
G37*
G36*
X15370D02*
X15320D01*
Y14728D01*
X15370D01*
Y14633D01*
D02*
G37*
G36*
X15923Y14151D02*
X15883D01*
Y14211D01*
X15923D01*
Y14151D01*
D02*
G37*
G36*
X15423D02*
X15383D01*
Y14211D01*
X15423D01*
Y14151D01*
D02*
G37*
G36*
X15987Y14133D02*
X15937D01*
Y14228D01*
X15987D01*
Y14133D01*
D02*
G37*
G36*
X15870D02*
X15820D01*
Y14228D01*
X15870D01*
Y14133D01*
D02*
G37*
G36*
X15487D02*
X15437D01*
Y14228D01*
X15487D01*
Y14133D01*
D02*
G37*
G36*
X15370D02*
X15320D01*
Y14228D01*
X15370D01*
Y14133D01*
D02*
G37*
G36*
X15923Y13651D02*
X15883D01*
Y13711D01*
X15923D01*
Y13651D01*
D02*
G37*
G36*
X15423D02*
X15383D01*
Y13711D01*
X15423D01*
Y13651D01*
D02*
G37*
G36*
X15987Y13633D02*
X15937D01*
Y13728D01*
X15987D01*
Y13633D01*
D02*
G37*
G36*
X15870D02*
X15820D01*
Y13728D01*
X15870D01*
Y13633D01*
D02*
G37*
G36*
X15487D02*
X15437D01*
Y13728D01*
X15487D01*
Y13633D01*
D02*
G37*
G36*
X15370D02*
X15320D01*
Y13728D01*
X15370D01*
Y13633D01*
D02*
G37*
G36*
X15935Y13191D02*
X15895D01*
Y13251D01*
X15935D01*
Y13191D01*
D02*
G37*
G36*
X15999Y13173D02*
X15949D01*
Y13268D01*
X15999D01*
Y13173D01*
D02*
G37*
G36*
X15882D02*
X15832D01*
Y13268D01*
X15882D01*
Y13173D01*
D02*
G37*
D51*
X2870Y19139D02*
G03*
X2870Y19139I-508J0D01*
G01*
D02*
G03*
X2870Y19139I-508J0D01*
G01*
D52*
X11817Y15079D02*
Y15229D01*
X11577Y15079D02*
X11817D01*
X11577D02*
Y15229D01*
X11817Y15429D02*
Y15539D01*
X11777Y15579D02*
X11817Y15539D01*
X11617Y15579D02*
X11777D01*
X11577Y15539D02*
X11617Y15579D01*
X11577Y15429D02*
Y15539D01*
D53*
X11595Y15367D02*
X11798D01*
D54*
X8826Y19885D02*
Y19891D01*
X8709Y18555D02*
X8715D01*
X8865Y19390D02*
Y19396D01*
X8230Y19415D02*
Y19421D01*
D55*
X8816Y20693D02*
X8888D01*
X8816Y20608D02*
X8888D01*
X8730Y18087D02*
X8923D01*
X8730Y17930D02*
X8923D01*
X15367Y14638D02*
X15439D01*
X15367Y14723D02*
X15439D01*
X15367Y14138D02*
X15439D01*
X15367Y14223D02*
X15439D01*
X15367Y13638D02*
X15439D01*
X15367Y13723D02*
X15439D01*
X15867Y14638D02*
X15939D01*
X15867Y14723D02*
X15939D01*
X15867Y13638D02*
X15939D01*
X15867Y13723D02*
X15939D01*
X15867Y14138D02*
X15939D01*
X15867Y14223D02*
X15939D01*
X4854Y19652D02*
Y19845D01*
X4697Y19652D02*
Y19845D01*
X15880Y13177D02*
X15951D01*
X15880Y13263D02*
X15951D01*
D56*
X8802Y19866D02*
X8851D01*
X8802Y19911D02*
X8851D01*
X8690Y18530D02*
Y18579D01*
X8735Y18530D02*
Y18579D01*
X8840Y19370D02*
X8889D01*
X8840Y19415D02*
X8889D01*
X8205Y19396D02*
X8254D01*
X8205Y19441D02*
X8254D01*
D57*
X17078Y13818D02*
G03*
X17078Y13818I-50J0D01*
G01*
X7895Y17625D02*
Y18925D01*
X5795Y17625D02*
Y18925D01*
Y17625D02*
X7895D01*
X5795Y18925D02*
X7895D01*
X7921Y20000D02*
Y21300D01*
X5821Y20000D02*
Y21300D01*
Y20000D02*
X7921D01*
X5821Y21300D02*
X7921D01*
X12823Y14708D02*
X13643D01*
X12823Y15518D02*
X13643D01*
X12823Y14708D02*
Y15518D01*
X13643Y14708D02*
Y15518D01*
X16505Y15058D02*
Y16108D01*
X15325Y15058D02*
Y16108D01*
Y15058D02*
X16505D01*
X15325Y16108D02*
X16505D01*
X16638Y13408D02*
Y13908D01*
X17118Y13408D02*
Y13908D01*
X16638Y13408D02*
X17118D01*
X16638Y13908D02*
X17118D01*
X6795Y18275D02*
X6895D01*
X6845Y18225D02*
Y18325D01*
X6821Y20650D02*
X6921D01*
X6871Y20600D02*
Y20700D01*
X13233Y15063D02*
Y15163D01*
X13183Y15113D02*
X13283D01*
X15865Y15583D02*
X15965D01*
X15915Y15533D02*
Y15633D01*
X16828Y13658D02*
X16928D01*
X16878Y13608D02*
Y13708D01*
D58*
X7920Y17600D02*
Y18950D01*
X5770Y17600D02*
Y18950D01*
Y17600D02*
X7920D01*
X5770Y18950D02*
X7920D01*
X7946Y19975D02*
Y21325D01*
X5796Y19975D02*
Y21325D01*
Y19975D02*
X7946D01*
X5796Y21325D02*
X7946D01*
X12793Y14623D02*
X13673D01*
X12793Y15603D02*
X13673D01*
X12793Y14623D02*
Y15603D01*
X13673Y14623D02*
Y15603D01*
X16565Y15028D02*
Y16138D01*
X15265Y15028D02*
Y16138D01*
Y15028D02*
X16565D01*
X15265Y16138D02*
X16565D01*
X16613Y13288D02*
Y14028D01*
X17143Y13288D02*
Y14028D01*
X16613Y13288D02*
X17143D01*
X16613Y14028D02*
X17143D01*
D59*
X8692Y20720D02*
X9012D01*
Y20580D02*
Y20720D01*
X8692Y20580D02*
X9012D01*
X8692D02*
Y20720D01*
X8679Y19840D02*
X8974D01*
X8679D02*
Y19937D01*
X8974D01*
Y19840D02*
Y19937D01*
X8579Y18107D02*
X9074D01*
X8579Y17910D02*
X9074D01*
X8579D02*
Y18107D01*
X9074Y17910D02*
Y18107D01*
X8664Y18407D02*
Y18702D01*
X8761D01*
Y18407D02*
Y18702D01*
X8664Y18407D02*
X8761D01*
X8717Y19345D02*
X9012D01*
X8717D02*
Y19441D01*
X9012D01*
Y19345D02*
Y19441D01*
X15243Y14611D02*
X15563D01*
X15243D02*
Y14751D01*
X15563D01*
Y14611D02*
Y14751D01*
X15243Y14111D02*
X15563D01*
X15243D02*
Y14251D01*
X15563D01*
Y14111D02*
Y14251D01*
X15243Y13611D02*
X15563D01*
X15243D02*
Y13751D01*
X15563D01*
Y13611D02*
Y13751D01*
X15743Y14611D02*
X16063D01*
X15743D02*
Y14751D01*
X16063D01*
Y14611D02*
Y14751D01*
X15743Y13611D02*
X16063D01*
X15743D02*
Y13751D01*
X16063D01*
Y13611D02*
Y13751D01*
X15743Y14111D02*
X16063D01*
X15743D02*
Y14251D01*
X16063D01*
Y14111D02*
Y14251D01*
X4873Y19501D02*
Y19996D01*
X4677Y19501D02*
Y19996D01*
X4873D01*
X4677Y19501D02*
X4873D01*
X8082Y19370D02*
X8377D01*
X8082D02*
Y19467D01*
X8377D01*
Y19370D02*
Y19467D01*
X15755Y13151D02*
X16075D01*
X15755D02*
Y13291D01*
X16075D01*
Y13151D02*
Y13291D01*
X10719Y14097D02*
X10795D01*
X10757Y14059D02*
Y14135D01*
X10465Y14097D02*
X10541D01*
X10503Y14059D02*
Y14135D01*
X9957Y14097D02*
X10033D01*
X9995Y14059D02*
Y14135D01*
X9703Y14097D02*
X9779D01*
X9741Y14059D02*
Y14135D01*
X10211Y14097D02*
X10287D01*
X10249Y14059D02*
Y14135D01*
X9449Y14097D02*
X9525D01*
X9487Y14059D02*
Y14135D01*
X9195Y14097D02*
X9271D01*
X9233Y14059D02*
Y14135D01*
X8941Y14097D02*
X9017D01*
X8979Y14059D02*
Y14135D01*
X8687Y14097D02*
X8763D01*
X8725Y14059D02*
Y14135D01*
X8433Y14097D02*
X8509D01*
X8471Y14059D02*
Y14135D01*
X8179Y14097D02*
X8255D01*
X8217Y14059D02*
Y14135D01*
X7925Y14097D02*
X8001D01*
X7963Y14059D02*
Y14135D01*
X7671Y14097D02*
X7747D01*
X7709Y14059D02*
Y14135D01*
X7417Y14097D02*
X7493D01*
X7455Y14059D02*
Y14135D01*
X10719Y15621D02*
X10795D01*
X10757Y15583D02*
Y15659D01*
X10465Y15621D02*
X10541D01*
X10503Y15583D02*
Y15659D01*
X7163Y14097D02*
X7239D01*
X7201Y14059D02*
Y14135D01*
X7163Y15621D02*
X7239D01*
X7201Y15583D02*
Y15659D01*
X7417Y15621D02*
X7493D01*
X7455Y15583D02*
Y15659D01*
X7671Y15621D02*
X7747D01*
X7709Y15583D02*
Y15659D01*
X7925Y15621D02*
X8001D01*
X7963Y15583D02*
Y15659D01*
X8179Y15621D02*
X8255D01*
X8217Y15583D02*
Y15659D01*
X8433Y15621D02*
X8509D01*
X8471Y15583D02*
Y15659D01*
X8687Y15621D02*
X8763D01*
X8725Y15583D02*
Y15659D01*
X8941Y15621D02*
X9017D01*
X8979Y15583D02*
Y15659D01*
X9195Y15621D02*
X9271D01*
X9233Y15583D02*
Y15659D01*
X9449Y15621D02*
X9525D01*
X9487Y15583D02*
Y15659D01*
X9703Y15621D02*
X9779D01*
X9741Y15583D02*
Y15659D01*
X9957Y15621D02*
X10033D01*
X9995Y15583D02*
Y15659D01*
X10211Y15621D02*
X10287D01*
X10249Y15583D02*
Y15659D01*
X10750Y13627D02*
X10840D01*
X10795Y13582D02*
Y13672D01*
X10496Y13627D02*
X10586D01*
X10541Y13582D02*
Y13672D01*
X10242Y13627D02*
X10332D01*
X10287Y13582D02*
Y13672D01*
X9988Y13627D02*
X10078D01*
X10033Y13582D02*
Y13672D01*
X9734Y13627D02*
X9824D01*
X9779Y13582D02*
Y13672D01*
X9480Y13627D02*
X9570D01*
X9525Y13582D02*
Y13672D01*
X9226Y13627D02*
X9316D01*
X9271Y13582D02*
Y13672D01*
X8972Y13627D02*
X9062D01*
X9017Y13582D02*
Y13672D01*
X8718Y13627D02*
X8808D01*
X8763Y13582D02*
Y13672D01*
X8464Y13627D02*
X8554D01*
X8509Y13582D02*
Y13672D01*
X8210Y13627D02*
X8300D01*
X8255Y13582D02*
Y13672D01*
X7956Y13627D02*
X8046D01*
X8001Y13582D02*
Y13672D01*
X7702Y13627D02*
X7792D01*
X7747Y13582D02*
Y13672D01*
X7448Y13627D02*
X7538D01*
X7493Y13582D02*
Y13672D01*
X7194Y13627D02*
X7284D01*
X7239Y13582D02*
Y13672D01*
X7156Y15964D02*
X7246D01*
X7201Y15919D02*
Y16009D01*
X7410Y15964D02*
X7500D01*
X7455Y15919D02*
Y16009D01*
X7664Y15964D02*
X7754D01*
X7709Y15919D02*
Y16009D01*
X7918Y15964D02*
X8008D01*
X7963Y15919D02*
Y16009D01*
X8172Y15964D02*
X8262D01*
X8217Y15919D02*
Y16009D01*
X8426Y15964D02*
X8516D01*
X8471Y15919D02*
Y16009D01*
X8680Y15964D02*
X8770D01*
X8725Y15919D02*
Y16009D01*
X8934Y15964D02*
X9024D01*
X8979Y15919D02*
Y16009D01*
X9188Y15964D02*
X9278D01*
X9233Y15919D02*
Y16009D01*
X9442Y15964D02*
X9532D01*
X9487Y15919D02*
Y16009D01*
X9696Y15964D02*
X9786D01*
X9741Y15919D02*
Y16009D01*
X9950Y15964D02*
X10040D01*
X9995Y15919D02*
Y16009D01*
X10204Y15964D02*
X10294D01*
X10249Y15919D02*
Y16009D01*
X10458Y15964D02*
X10548D01*
X10503Y15919D02*
Y16009D01*
X10712Y15964D02*
X10802D01*
X10757Y15919D02*
Y16009D01*
X17011Y19482D02*
X17101D01*
X17056Y19437D02*
Y19527D01*
X17011Y19228D02*
X17101D01*
X17056Y19183D02*
Y19273D01*
X16986Y17005D02*
X17076D01*
X17031Y16960D02*
Y17050D01*
X16986Y16751D02*
X17076D01*
X17031Y16706D02*
Y16796D01*
X16998Y18644D02*
X17088D01*
X17043Y18599D02*
Y18689D01*
X16998Y18390D02*
X17088D01*
X17043Y18345D02*
Y18435D01*
X16998Y18136D02*
X17088D01*
X17043Y18091D02*
Y18181D01*
X16998Y17882D02*
X17088D01*
X17043Y17837D02*
Y17927D01*
X16998Y17628D02*
X17088D01*
X17043Y17583D02*
Y17673D01*
X1937Y21000D02*
X2263D01*
X2100Y20837D02*
Y21163D01*
X1937Y17900D02*
X2263D01*
X2100Y17737D02*
Y18063D01*
X16588Y21158D02*
X16914D01*
X16751Y20995D02*
Y21321D01*
X15407Y21222D02*
X15733D01*
X15570Y21059D02*
Y21385D01*
X4218Y18580D02*
X4368D01*
X4293Y18505D02*
Y18655D01*
X4218Y19139D02*
X4368D01*
X4293Y19064D02*
Y19214D01*
X4218Y19698D02*
X4368D01*
X4293Y19623D02*
Y19773D01*
X2156Y19139D02*
X2568D01*
X2362Y18933D02*
Y19345D01*
X10525Y19021D02*
X10685D01*
X10604Y18941D02*
Y19101D01*
X10525Y18259D02*
X10685D01*
X10604Y18179D02*
Y18339D01*
X10525Y17878D02*
X10685D01*
X10604Y17798D02*
Y17958D01*
X10525Y17497D02*
X10685D01*
X10604Y17417D02*
Y17577D01*
X15579Y19021D02*
X15790D01*
X15685Y18916D02*
Y19126D01*
X15604Y18640D02*
X15765D01*
X15685Y18560D02*
Y18720D01*
X15604Y18259D02*
X15765D01*
X15685Y18179D02*
Y18339D01*
X15604Y17878D02*
X15765D01*
X15685Y17798D02*
Y17958D01*
X15579Y17497D02*
X15790D01*
X15685Y17392D02*
Y17602D01*
X15879Y18259D02*
X15999D01*
X15938Y18199D02*
Y18319D01*
X15879Y18459D02*
X15999D01*
X15938Y18399D02*
Y18519D01*
X15879Y18659D02*
X15999D01*
X15938Y18599D02*
Y18719D01*
X15879Y18059D02*
X15999D01*
X15938Y17999D02*
Y18119D01*
X15879Y17859D02*
X15999D01*
X15938Y17799D02*
Y17919D01*
X15879Y18859D02*
X15999D01*
X15938Y18799D02*
Y18919D01*
X15879Y17659D02*
X15999D01*
X15938Y17599D02*
Y17719D01*
X9828Y18690D02*
X9908D01*
X9868Y18650D02*
Y18730D01*
X9828Y18190D02*
X9908D01*
X9868Y18150D02*
Y18230D01*
X14626Y15862D02*
X14716D01*
X14671Y15817D02*
Y15907D01*
X14880Y15862D02*
X14970D01*
X14925Y15817D02*
Y15907D01*
X14626Y15608D02*
X14716D01*
X14671Y15563D02*
Y15653D01*
X14880Y15608D02*
X14970D01*
X14925Y15563D02*
Y15653D01*
X14626Y15354D02*
X14716D01*
X14671Y15309D02*
Y15399D01*
X14880Y15354D02*
X14970D01*
X14925Y15309D02*
Y15399D01*
X14626Y15100D02*
X14716D01*
X14671Y15055D02*
Y15145D01*
X14880Y15100D02*
X14970D01*
X14925Y15055D02*
Y15145D01*
X14626Y14846D02*
X14716D01*
X14671Y14801D02*
Y14891D01*
X14880Y14846D02*
X14970D01*
X14925Y14801D02*
Y14891D01*
X14626Y14592D02*
X14716D01*
X14671Y14547D02*
Y14637D01*
X14880Y14592D02*
X14970D01*
X14925Y14547D02*
Y14637D01*
X14626Y14338D02*
X14716D01*
X14671Y14293D02*
Y14383D01*
X14880Y14338D02*
X14970D01*
X14925Y14293D02*
Y14383D01*
X14626Y14084D02*
X14716D01*
X14671Y14039D02*
Y14129D01*
X14880Y14084D02*
X14970D01*
X14925Y14039D02*
Y14129D01*
X11296Y13932D02*
X11386D01*
X11341Y13887D02*
Y13977D01*
X11296Y14186D02*
X11386D01*
X11341Y14141D02*
Y14231D01*
X11550Y13932D02*
X11640D01*
X11595Y13887D02*
Y13977D01*
X11550Y14186D02*
X11640D01*
X11595Y14141D02*
Y14231D01*
X11804Y13932D02*
X11894D01*
X11849Y13887D02*
Y13977D01*
X11804Y14186D02*
X11894D01*
X11849Y14141D02*
Y14231D01*
X12058Y13932D02*
X12148D01*
X12103Y13887D02*
Y13977D01*
X12058Y14186D02*
X12148D01*
X12103Y14141D02*
Y14231D01*
X12312Y13932D02*
X12402D01*
X12357Y13887D02*
Y13977D01*
X12312Y14186D02*
X12402D01*
X12357Y14141D02*
Y14231D01*
X12566Y13932D02*
X12656D01*
X12611Y13887D02*
Y13977D01*
X12566Y14186D02*
X12656D01*
X12611Y14141D02*
Y14231D01*
X12820Y13932D02*
X12910D01*
X12865Y13887D02*
Y13977D01*
X12820Y14186D02*
X12910D01*
X12865Y14141D02*
Y14231D01*
X13074Y13932D02*
X13164D01*
X13119Y13887D02*
Y13977D01*
X13074Y14186D02*
X13164D01*
X13119Y14141D02*
Y14231D01*
X13785Y21336D02*
X13875D01*
X13830Y21291D02*
Y21381D01*
X13531Y21336D02*
X13621D01*
X13576Y21291D02*
Y21381D01*
X13277Y21336D02*
X13367D01*
X13322Y21291D02*
Y21381D01*
X13023Y21336D02*
X13113D01*
X13068Y21291D02*
Y21381D01*
X12769Y21336D02*
X12859D01*
X12814Y21291D02*
Y21381D01*
X12515Y21336D02*
X12605D01*
X12560Y21291D02*
Y21381D01*
X12261Y21336D02*
X12351D01*
X12306Y21291D02*
Y21381D01*
X12007Y21336D02*
X12097D01*
X12052Y21291D02*
Y21381D01*
X13785Y21082D02*
X13875D01*
X13830Y21037D02*
Y21127D01*
X13531Y21082D02*
X13621D01*
X13576Y21037D02*
Y21127D01*
X13277Y21082D02*
X13367D01*
X13322Y21037D02*
Y21127D01*
X13023Y21082D02*
X13113D01*
X13068Y21037D02*
Y21127D01*
X12769Y21082D02*
X12859D01*
X12814Y21037D02*
Y21127D01*
X12515Y21082D02*
X12605D01*
X12560Y21037D02*
Y21127D01*
X12261Y21082D02*
X12351D01*
X12306Y21037D02*
Y21127D01*
X12007Y21082D02*
X12097D01*
X12052Y21037D02*
Y21127D01*
X15347Y18618D02*
X15418D01*
X15382Y18583D02*
Y18654D01*
X11194Y15827D02*
X11265D01*
X11229Y15791D02*
Y15862D01*
X11331Y15748D02*
X11402D01*
X11367Y15712D02*
Y15784D01*
X11331Y14796D02*
X11402D01*
X11367Y14760D02*
Y14831D01*
X11737Y14986D02*
X11808D01*
X11773Y14950D02*
Y15022D01*
X11534Y14986D02*
X11605D01*
X11570Y14950D02*
Y15022D01*
X11763Y14732D02*
X11834D01*
X11798Y14696D02*
Y14768D01*
X12296Y15088D02*
X12367D01*
X12332Y15052D02*
Y15123D01*
X11991Y14719D02*
X12062D01*
X12027Y14684D02*
Y14755D01*
X12677Y14859D02*
X12748D01*
X12713Y14823D02*
Y14895D01*
X12715Y14465D02*
X12786D01*
X12751Y14430D02*
Y14501D01*
X11471Y15583D02*
X11542D01*
X11506Y15547D02*
Y15618D01*
X11369Y15113D02*
X11440D01*
X11405Y15077D02*
Y15149D01*
X15598Y14313D02*
X15669D01*
X15634Y14277D02*
Y14348D01*
X16386Y14351D02*
X16457D01*
X16421Y14315D02*
Y14387D01*
X16157Y14211D02*
X16228D01*
X16193Y14176D02*
Y14247D01*
X16086Y18285D02*
X16157D01*
X16121Y18250D02*
Y18321D01*
X14920Y17310D02*
X14991D01*
X14956Y17275D02*
Y17346D01*
X12499Y14338D02*
X12570D01*
X12535Y14303D02*
Y14374D01*
X17160Y14135D02*
X17231D01*
X17196Y14100D02*
Y14171D01*
X15611Y13652D02*
X15682D01*
X15646Y13617D02*
Y13688D01*
X16792Y13881D02*
X16863D01*
X16827Y13846D02*
Y13917D01*
X15817Y14549D02*
X15888D01*
X15852Y14514D02*
Y14585D01*
X17247Y14549D02*
X17318D01*
X17282Y14514D02*
Y14585D01*
X5946Y17971D02*
X6017D01*
X5982Y17935D02*
Y18006D01*
X5972Y20930D02*
X6043D01*
X6007Y20894D02*
Y20965D01*
X8918Y17374D02*
X8989D01*
X8954Y17338D02*
Y17409D01*
X7661Y17374D02*
X7732D01*
X7696Y17338D02*
Y17409D01*
X5248Y20028D02*
X5319D01*
X5283Y19992D02*
Y20063D01*
X7711Y19228D02*
X7783D01*
X7747Y19192D02*
Y19263D01*
X7686Y21552D02*
X7757D01*
X7722Y21516D02*
Y21587D01*
X9096Y19332D02*
X9167D01*
X9131Y19296D02*
Y19368D01*
X9096Y20650D02*
X9167D01*
X9131Y20615D02*
Y20686D01*
X8410Y19863D02*
X8481D01*
X8446Y19827D02*
Y19898D01*
X12017Y15621D02*
X12088D01*
X12052Y15585D02*
Y15657D01*
X12309Y15456D02*
X12380D01*
X12344Y15420D02*
Y15491D01*
X12487Y15837D02*
X12558D01*
X12522Y15801D02*
Y15872D01*
X8689Y18364D02*
X8760D01*
X8725Y18329D02*
Y18400D01*
X8423Y18009D02*
X8494D01*
X8458Y17973D02*
Y18044D01*
X8512Y20396D02*
X8583D01*
X8547Y20361D02*
Y20432D01*
X16758Y13603D02*
X16778D01*
X16768Y13593D02*
Y13613D01*
X16758Y13713D02*
X16778D01*
X16768Y13703D02*
Y13723D01*
X16868Y13603D02*
X16888D01*
X16878Y13593D02*
Y13613D01*
X16868Y13713D02*
X16888D01*
X16878Y13703D02*
Y13723D01*
X16978Y13603D02*
X16998D01*
X16988Y13593D02*
Y13613D01*
X16978Y13713D02*
X16998D01*
X16988Y13703D02*
Y13723D01*
M02*
