M48
;Layer_Color=6321
;FILE_FORMAT=2:4
INCH,LZ
T26F00S00C0.2000
%
G90
G05
T26
G00X045474Y008862
M15
G01X045665Y008922
G01X04584Y009017
G01X045993Y009146
G01X046117Y009303
G01X046208Y009481
G01X046261Y009673
G01X046276Y009843
G01X046276Y029528
G01X046256Y029726
G01X046197Y029917
G01X046101Y030092
G01X045972Y030245
G01X045816Y030369
G01X045637Y03046
G01X045445Y030513
G01X045276Y030528
G01X009843Y030528
G01X009644Y030508
G01X009453Y030449
G01X009278Y030353
G01X009125Y030224
G01X009001Y030068
G01X00891Y029889
G01X008857Y029697
G01X008843Y029528
G01X008843Y009843
G01X008862Y009644
G01X008922Y009453
G01X009017Y009278
G01X009146Y009125
G01X009303Y009001
G01X009481Y00891
G01X009673Y008857
G01X009843Y008843
G01X045276Y008843
G01X045474Y008862
M16
M17
M30
