G04 Layer_Color=25308*
%FSLAX24Y24*%
%MOIN*%
G70*
G01*
G75*
%ADD16C,0.0600*%
%ADD17R,0.0600X0.0600*%
%ADD18C,0.0709*%
%ADD19R,0.0709X0.0709*%
%ADD20C,0.0709*%
%ADD21O,0.0600X0.0800*%
%ADD22R,0.0600X0.0800*%
%ADD23C,0.1102*%
%ADD24C,0.1575*%
%ADD25C,0.0570*%
%ADD26R,0.0650X0.0650*%
%ADD27C,0.0650*%
%ADD28C,0.1181*%
%ADD29R,0.0600X0.0600*%
D16*
X21669Y40339D02*
D03*
X20669D02*
D03*
X18669Y46339D02*
D03*
X19669D02*
D03*
X22669Y40339D02*
D03*
X20669Y46339D02*
D03*
X23669D02*
D03*
X22669D02*
D03*
X19669Y40339D02*
D03*
X21669Y46339D02*
D03*
X16669Y40339D02*
D03*
X25669D02*
D03*
X16669Y46339D02*
D03*
X25669D02*
D03*
X21787Y49236D02*
D03*
X20787D02*
D03*
X18787Y55236D02*
D03*
X19787D02*
D03*
X22787Y49236D02*
D03*
X20787Y55236D02*
D03*
X23787D02*
D03*
X22787D02*
D03*
X19787Y49236D02*
D03*
X21787Y55236D02*
D03*
X16787Y49236D02*
D03*
X25787D02*
D03*
X16787Y55236D02*
D03*
X25787D02*
D03*
X13583Y47634D02*
D03*
Y50634D02*
D03*
X11169Y47913D02*
D03*
X40815D02*
D03*
X40039Y42634D02*
D03*
Y45634D02*
D03*
X39173Y41106D02*
D03*
Y38106D02*
D03*
X40787Y41106D02*
D03*
Y38106D02*
D03*
X40748Y33587D02*
D03*
Y30587D02*
D03*
X39173Y33587D02*
D03*
Y30587D02*
D03*
X15039Y51618D02*
D03*
Y48618D02*
D03*
X14961Y46264D02*
D03*
Y43264D02*
D03*
X10228Y46142D02*
D03*
X11228D02*
D03*
X10228Y45142D02*
D03*
X11228D02*
D03*
X10228Y44142D02*
D03*
X11228D02*
D03*
X10228Y43142D02*
D03*
X11228D02*
D03*
X10228Y42142D02*
D03*
X11228D02*
D03*
X10228Y41142D02*
D03*
X11228D02*
D03*
X10228Y40142D02*
D03*
X11228D02*
D03*
X10228Y39142D02*
D03*
X11228D02*
D03*
X10228Y38142D02*
D03*
X11228D02*
D03*
X10228Y37142D02*
D03*
X11228D02*
D03*
X29787Y32016D02*
D03*
Y31016D02*
D03*
X28787Y32016D02*
D03*
Y31016D02*
D03*
X27787Y32016D02*
D03*
Y31016D02*
D03*
X26787Y32016D02*
D03*
Y31016D02*
D03*
X25787Y32016D02*
D03*
Y31016D02*
D03*
X24787Y32016D02*
D03*
Y31016D02*
D03*
X23787Y32016D02*
D03*
Y31016D02*
D03*
X22787Y32016D02*
D03*
Y31016D02*
D03*
X21787Y32016D02*
D03*
Y31016D02*
D03*
X20787Y32016D02*
D03*
Y31016D02*
D03*
X42520Y40461D02*
D03*
X42598Y36642D02*
D03*
D17*
X10169Y47913D02*
D03*
X39815D02*
D03*
D18*
X34504Y28756D02*
D03*
X33504D02*
D03*
X34504Y29756D02*
D03*
X33504D02*
D03*
X34504Y30756D02*
D03*
X33504D02*
D03*
X34504Y31756D02*
D03*
X33504D02*
D03*
X34504Y32756D02*
D03*
X27323Y41181D02*
D03*
Y42181D02*
D03*
Y43181D02*
D03*
Y44181D02*
D03*
Y45181D02*
D03*
Y46181D02*
D03*
Y47181D02*
D03*
Y48181D02*
D03*
Y49181D02*
D03*
Y50181D02*
D03*
Y51181D02*
D03*
Y52181D02*
D03*
Y53181D02*
D03*
Y54181D02*
D03*
X15890Y29669D02*
D03*
X16890D02*
D03*
X15890Y28669D02*
D03*
X16890D02*
D03*
X15890Y27669D02*
D03*
X16890D02*
D03*
X15890Y26669D02*
D03*
X16890D02*
D03*
X15890Y25669D02*
D03*
X36063Y41181D02*
D03*
Y42181D02*
D03*
Y43181D02*
D03*
Y44181D02*
D03*
Y45181D02*
D03*
Y46181D02*
D03*
Y47181D02*
D03*
Y48181D02*
D03*
Y49181D02*
D03*
Y50181D02*
D03*
Y51181D02*
D03*
Y52181D02*
D03*
Y53181D02*
D03*
Y54181D02*
D03*
D19*
X33504Y32756D02*
D03*
X16890Y25669D02*
D03*
D20*
X33504Y27756D02*
D03*
X34504D02*
D03*
X33504Y26756D02*
D03*
X34504D02*
D03*
X33504Y25756D02*
D03*
X34504D02*
D03*
X16890Y30669D02*
D03*
X15890D02*
D03*
X16890Y31669D02*
D03*
X15890D02*
D03*
X16890Y32669D02*
D03*
X15890D02*
D03*
D21*
X33764Y55551D02*
D03*
X32764D02*
D03*
X31764D02*
D03*
X30764D02*
D03*
D22*
X29764D02*
D03*
D23*
X25181Y36417D02*
D03*
X26740D02*
D03*
X28299D02*
D03*
X29858D02*
D03*
D24*
X37795Y51968D02*
D03*
X12598Y26378D02*
D03*
X37795D02*
D03*
X12598Y51968D02*
D03*
D25*
X34732Y41189D02*
D03*
Y42189D02*
D03*
Y43189D02*
D03*
Y44189D02*
D03*
Y45189D02*
D03*
Y46189D02*
D03*
Y47189D02*
D03*
Y48189D02*
D03*
Y49189D02*
D03*
Y50189D02*
D03*
Y51189D02*
D03*
Y52189D02*
D03*
Y53189D02*
D03*
Y54189D02*
D03*
X28732D02*
D03*
Y53189D02*
D03*
Y52189D02*
D03*
Y51189D02*
D03*
Y50189D02*
D03*
Y49189D02*
D03*
Y48189D02*
D03*
Y47189D02*
D03*
Y46189D02*
D03*
Y45189D02*
D03*
Y44189D02*
D03*
Y43189D02*
D03*
Y42189D02*
D03*
Y41189D02*
D03*
X29738Y54189D02*
D03*
X30738D02*
D03*
X31738D02*
D03*
X32738D02*
D03*
X33738D02*
D03*
X30138Y53189D02*
D03*
X32338D02*
D03*
Y52189D02*
D03*
X30138D02*
D03*
Y51189D02*
D03*
X32338D02*
D03*
Y50189D02*
D03*
X30138D02*
D03*
Y49189D02*
D03*
X32338D02*
D03*
Y48189D02*
D03*
X30138D02*
D03*
Y47189D02*
D03*
X32338D02*
D03*
X29738Y46189D02*
D03*
Y45189D02*
D03*
Y44189D02*
D03*
Y42189D02*
D03*
D26*
X37295Y42142D02*
D03*
D27*
X38295D02*
D03*
X37295Y43142D02*
D03*
X38295D02*
D03*
X37295Y44142D02*
D03*
X38295D02*
D03*
X37295Y45142D02*
D03*
X38295D02*
D03*
X37295Y46142D02*
D03*
X38295D02*
D03*
X37295Y47142D02*
D03*
X38295D02*
D03*
X37295Y48142D02*
D03*
X38295D02*
D03*
X37295Y49142D02*
D03*
X38295D02*
D03*
X37295Y50142D02*
D03*
X38295D02*
D03*
D28*
X10906Y29488D02*
D03*
X12874D02*
D03*
X10945Y32362D02*
D03*
X12913D02*
D03*
D29*
X42520Y39461D02*
D03*
X42598Y35642D02*
D03*
M02*
