G04 Layer_Physical_Order=1*
G04 Layer_Color=25308*
%FSLAX24Y24*%
%MOIN*%
G70*
G01*
G75*
%ADD10R,0.0140X0.0200*%
%ADD11R,0.0118X0.0157*%
%ADD12R,0.0236X0.0354*%
%ADD13R,0.0236X0.0354*%
%ADD14C,0.0071*%
%ADD15C,0.0600*%
%ADD16R,0.0600X0.0600*%
%ADD17C,0.0709*%
%ADD18R,0.0709X0.0709*%
%ADD19C,0.0709*%
%ADD20O,0.0600X0.0800*%
%ADD21R,0.0600X0.0800*%
%ADD22C,0.1575*%
%ADD23C,0.0570*%
%ADD24C,0.1181*%
%ADD25R,0.0600X0.0600*%
%ADD26R,0.0650X0.0650*%
%ADD27C,0.0650*%
%ADD28R,0.0610X0.0610*%
%ADD29C,0.0610*%
%ADD30C,0.0276*%
G36*
X26912Y49071D02*
X26955Y48969D01*
X26958Y48964D01*
X26655Y48660D01*
X26632Y48627D01*
X26624Y48587D01*
X26624Y48587D01*
Y46825D01*
X26574Y46810D01*
X26562Y46828D01*
X26494Y46873D01*
X26414Y46889D01*
X26334Y46873D01*
X26267Y46828D01*
X26221Y46760D01*
X26206Y46680D01*
X26215Y46634D01*
X26167Y46619D01*
X26165Y46624D01*
X26074Y46743D01*
X25955Y46834D01*
X25817Y46891D01*
X25669Y46910D01*
X25521Y46891D01*
X25383Y46834D01*
X25265Y46743D01*
X25174Y46624D01*
X25117Y46487D01*
X25097Y46339D01*
X25117Y46191D01*
X25174Y46053D01*
X25265Y45934D01*
X25383Y45843D01*
X25521Y45786D01*
X25669Y45767D01*
X25817Y45786D01*
X25955Y45843D01*
X26074Y45934D01*
X26165Y46053D01*
X26222Y46191D01*
X26241Y46339D01*
X26222Y46487D01*
X26196Y46548D01*
X26241Y46572D01*
X26267Y46532D01*
X26310Y46504D01*
Y40078D01*
X22771Y36538D01*
X22724Y36557D01*
Y36937D01*
X22435D01*
X22416Y36983D01*
X22829Y37396D01*
X22897D01*
X22937Y37404D01*
X22970Y37426D01*
X22988Y37453D01*
X23214D01*
Y37744D01*
X23192D01*
Y37840D01*
X23192Y37840D01*
X23185Y37873D01*
X23184Y37880D01*
X23161Y37914D01*
X23161Y37914D01*
X23138Y37937D01*
X23138Y37984D01*
X23138D01*
X23138Y37984D01*
Y38472D01*
X23138Y38472D01*
X23138D01*
X23128Y38518D01*
X24914Y40303D01*
X24914Y40303D01*
X24936Y40337D01*
X24944Y40377D01*
Y46557D01*
X25370Y46983D01*
X25421Y46972D01*
X25501Y46988D01*
X25569Y47034D01*
X25614Y47101D01*
X25630Y47181D01*
X25614Y47261D01*
X25569Y47329D01*
X25501Y47374D01*
X25421Y47390D01*
X25341Y47374D01*
X25273Y47329D01*
X25228Y47261D01*
X25212Y47181D01*
X25223Y47130D01*
X24841Y46748D01*
X24795Y46767D01*
Y47038D01*
X26833Y49077D01*
X26912D01*
X26912Y49071D01*
D02*
G37*
G36*
X14086Y50827D02*
Y28020D01*
X14086Y28020D01*
X14094Y27980D01*
X14116Y27946D01*
X15168Y26894D01*
Y26732D01*
X15122Y26713D01*
X13672Y28164D01*
X13638Y28186D01*
X13598Y28194D01*
X13598Y28194D01*
X12493D01*
X12164Y28523D01*
Y33830D01*
X12156Y33870D01*
X12134Y33904D01*
X10930Y35107D01*
Y39337D01*
X11229Y39635D01*
X11630D01*
X11630Y39635D01*
X11670Y39643D01*
X11704Y39666D01*
X11714Y39676D01*
X11736Y39709D01*
X11744Y39749D01*
Y41730D01*
X11736Y41770D01*
X11714Y41804D01*
X11552Y41965D01*
X11586Y42046D01*
X11598Y42142D01*
X11586Y42238D01*
X11549Y42327D01*
X11490Y42403D01*
X11413Y42462D01*
X11324Y42499D01*
X11228Y42512D01*
X11133Y42499D01*
X11043Y42462D01*
X10980Y42414D01*
X10930Y42433D01*
Y42851D01*
X10980Y42870D01*
X11043Y42821D01*
X11133Y42784D01*
X11228Y42772D01*
X11324Y42784D01*
X11413Y42821D01*
X11490Y42880D01*
X11549Y42957D01*
X11586Y43046D01*
X11598Y43142D01*
X11586Y43238D01*
X11549Y43327D01*
X11490Y43403D01*
X11413Y43462D01*
X11324Y43499D01*
X11228Y43512D01*
X11133Y43499D01*
X11043Y43462D01*
X10980Y43414D01*
X10930Y43433D01*
Y43851D01*
X10980Y43870D01*
X11043Y43821D01*
X11133Y43784D01*
X11228Y43772D01*
X11324Y43784D01*
X11413Y43821D01*
X11490Y43880D01*
X11549Y43957D01*
X11586Y44046D01*
X11598Y44142D01*
X11586Y44238D01*
X11549Y44327D01*
X11490Y44403D01*
X11413Y44462D01*
X11324Y44499D01*
X11228Y44512D01*
X11133Y44499D01*
X11043Y44462D01*
X10980Y44414D01*
X10930Y44433D01*
Y44851D01*
X10980Y44870D01*
X11043Y44821D01*
X11133Y44784D01*
X11228Y44772D01*
X11324Y44784D01*
X11405Y44818D01*
X12536Y43687D01*
Y41066D01*
X12492Y41038D01*
X12447Y40970D01*
X12431Y40890D01*
X12447Y40810D01*
X12492Y40742D01*
X12560Y40697D01*
X12640Y40681D01*
X12720Y40697D01*
X12788Y40742D01*
X12833Y40810D01*
X12849Y40890D01*
X12833Y40970D01*
X12788Y41038D01*
X12744Y41066D01*
Y43730D01*
X12744Y43730D01*
X12738Y43763D01*
X12736Y43770D01*
X12714Y43804D01*
X12714Y43804D01*
X11552Y44965D01*
X11586Y45046D01*
X11598Y45142D01*
X11586Y45238D01*
X11549Y45327D01*
X11490Y45403D01*
X11413Y45462D01*
X11324Y45499D01*
X11228Y45512D01*
X11133Y45499D01*
X11043Y45462D01*
X11002Y45430D01*
X10997Y45430D01*
X10948Y45451D01*
X10943Y45480D01*
X10956Y45500D01*
X10958Y45507D01*
X10964Y45540D01*
X10964Y45540D01*
Y45730D01*
X11052Y45818D01*
X11133Y45784D01*
X11228Y45772D01*
X11324Y45784D01*
X11413Y45821D01*
X11490Y45880D01*
X11549Y45957D01*
X11586Y46046D01*
X11598Y46142D01*
X11586Y46238D01*
X11549Y46327D01*
X11490Y46403D01*
X11413Y46462D01*
X11324Y46499D01*
X11228Y46512D01*
X11133Y46499D01*
X11043Y46462D01*
X10967Y46403D01*
X10908Y46327D01*
X10871Y46238D01*
X10824Y46249D01*
Y47678D01*
X10874Y47695D01*
X10908Y47652D01*
X10984Y47593D01*
X11074Y47556D01*
X11169Y47543D01*
X11265Y47556D01*
X11354Y47593D01*
X11431Y47652D01*
X11490Y47728D01*
X11527Y47818D01*
X11539Y47913D01*
X11527Y48009D01*
X11493Y48090D01*
X13656Y50253D01*
X13656Y50253D01*
X13672Y50275D01*
X13678Y50276D01*
X13768Y50313D01*
X13844Y50372D01*
X13903Y50449D01*
X13940Y50538D01*
X13953Y50634D01*
X13940Y50730D01*
X13903Y50819D01*
X13852Y50886D01*
X13867Y50936D01*
X13977D01*
X14086Y50827D01*
D02*
G37*
G36*
X21361Y36392D02*
Y35314D01*
X21311Y35279D01*
X21260Y35289D01*
X21256Y35288D01*
X21206Y35329D01*
Y35500D01*
X21184D01*
Y35620D01*
X21184Y35620D01*
X21178Y35653D01*
X21176Y35660D01*
X21156Y35690D01*
X21157Y35695D01*
X21169Y35740D01*
X21169Y35740D01*
X21169Y35740D01*
X21169Y35740D01*
Y36228D01*
X20868D01*
X20866Y36278D01*
X20951Y36363D01*
X21020Y36377D01*
X21088Y36422D01*
X21133Y36490D01*
X21143Y36539D01*
X21197Y36556D01*
X21361Y36392D01*
D02*
G37*
G36*
X20656Y35680D02*
Y35580D01*
X20656Y35580D01*
X20664Y35540D01*
X20686Y35506D01*
X20763Y35430D01*
Y35209D01*
X20803D01*
X20842Y34930D01*
X20797Y34889D01*
X20750Y34899D01*
X20670Y34883D01*
X20602Y34838D01*
X20557Y34770D01*
X20541Y34690D01*
X20557Y34610D01*
X20602Y34542D01*
X20670Y34497D01*
X20750Y34481D01*
X20801Y34491D01*
X21086Y34207D01*
Y32307D01*
X21036Y32288D01*
X20972Y32336D01*
X20883Y32373D01*
X20787Y32386D01*
X20692Y32373D01*
X20602Y32336D01*
X20526Y32277D01*
X20467Y32201D01*
X20447Y32152D01*
X20397Y32162D01*
Y35209D01*
X20418D01*
Y35500D01*
X20418Y35500D01*
X20418D01*
X20447Y35537D01*
X20609Y35699D01*
X20656Y35680D01*
D02*
G37*
G36*
X29431Y46012D02*
X29487Y45938D01*
X29561Y45882D01*
X29646Y45846D01*
X29738Y45834D01*
X29830Y45846D01*
X29916Y45882D01*
X29984Y45934D01*
X30033Y45923D01*
X30034Y45923D01*
Y45455D01*
X30033Y45455D01*
X29984Y45444D01*
X29916Y45496D01*
X29830Y45532D01*
X29738Y45544D01*
X29646Y45532D01*
X29561Y45496D01*
X29487Y45440D01*
X29431Y45366D01*
X29412Y45321D01*
X29362Y45331D01*
Y46047D01*
X29412Y46057D01*
X29431Y46012D01*
D02*
G37*
G36*
X20425Y36539D02*
X20375Y36523D01*
X20316Y36563D01*
X20236Y36579D01*
X20156Y36563D01*
X20089Y36518D01*
X20043Y36450D01*
X20027Y36370D01*
X20043Y36290D01*
X20054Y36275D01*
X20051Y36228D01*
X20051D01*
X20051Y36228D01*
Y35955D01*
X19880D01*
X19840Y35947D01*
X19806Y35924D01*
X19806Y35924D01*
X19716Y35834D01*
X19693Y35800D01*
X19685Y35760D01*
X19685Y35760D01*
Y35583D01*
X19327Y35224D01*
X19277Y35245D01*
Y35500D01*
X19255D01*
Y35620D01*
X19255Y35620D01*
X19248Y35653D01*
X19247Y35660D01*
X19227Y35690D01*
X19228Y35695D01*
X19240Y35740D01*
X19240Y35740D01*
X19240Y35740D01*
X19240Y35740D01*
Y36228D01*
X19159D01*
Y36437D01*
X19558Y36836D01*
X20425D01*
Y36539D01*
D02*
G37*
G36*
X24410Y37230D02*
X24397Y37210D01*
X24381Y37130D01*
X24391Y37079D01*
X23148Y35836D01*
X23098Y35857D01*
Y36268D01*
X23079D01*
X23059Y36318D01*
X23117Y36376D01*
X23317D01*
X23317Y36376D01*
X23357Y36384D01*
X23391Y36406D01*
X24258Y37274D01*
X24387D01*
X24410Y37230D01*
D02*
G37*
G36*
X18203Y35609D02*
X18138Y35544D01*
X18115Y35510D01*
X18113Y35500D01*
X18086D01*
Y35209D01*
X18107D01*
Y32265D01*
X17851Y32009D01*
X17800Y32019D01*
X17720Y32003D01*
X17652Y31958D01*
X17639Y31937D01*
X17589Y31952D01*
Y32949D01*
X17589Y32949D01*
X17582Y32982D01*
X17581Y32989D01*
X17558Y33023D01*
X16893Y33688D01*
X17564Y34358D01*
X17586Y34392D01*
X17594Y34432D01*
X17586Y34472D01*
X17564Y34506D01*
X17047Y35022D01*
X17068Y35065D01*
X17071Y35069D01*
X17422D01*
X17422Y35069D01*
X17462Y35077D01*
X17496Y35099D01*
X18052Y35656D01*
X18184D01*
X18203Y35609D01*
D02*
G37*
G36*
X33997Y37019D02*
X34029D01*
Y36316D01*
X34029Y36316D01*
X34037Y36276D01*
X34060Y36242D01*
X34994Y35308D01*
Y33259D01*
X34948Y33240D01*
X33845Y34343D01*
Y37019D01*
X33877D01*
Y37280D01*
X33883Y37286D01*
X33997D01*
Y37019D01*
D02*
G37*
G36*
X33666Y34226D02*
X34713Y33179D01*
X34685Y33137D01*
X34614Y33166D01*
X34504Y33181D01*
X34394Y33166D01*
X34291Y33124D01*
X34203Y33056D01*
X34136Y32968D01*
X34094Y32866D01*
X34079Y32756D01*
X34094Y32646D01*
X34136Y32543D01*
X34139Y32539D01*
X34004Y32404D01*
X33925D01*
Y33177D01*
X33608D01*
Y34223D01*
X33658Y34238D01*
X33666Y34226D01*
D02*
G37*
G36*
X16120Y33830D02*
X16160Y33822D01*
X16463D01*
X16672Y33614D01*
X16672Y33614D01*
X17380Y32906D01*
Y32392D01*
X17334Y32373D01*
X17254Y32452D01*
X17258Y32457D01*
X17300Y32559D01*
X17315Y32669D01*
X17300Y32779D01*
X17258Y32882D01*
X17190Y32970D01*
X17102Y33037D01*
X17000Y33080D01*
X16890Y33094D01*
X16780Y33080D01*
X16677Y33037D01*
X16589Y32970D01*
X16549Y32917D01*
X16542Y32913D01*
X16484Y32914D01*
X16044Y33353D01*
Y33832D01*
X16094Y33847D01*
X16120Y33830D01*
D02*
G37*
G36*
X11956Y33787D02*
Y33462D01*
X11912Y33438D01*
X11890Y33453D01*
X11810Y33469D01*
X11759Y33459D01*
X10793Y34425D01*
Y34885D01*
X10839Y34904D01*
X11956Y33787D01*
D02*
G37*
G36*
X13313Y50886D02*
X13262Y50819D01*
X13225Y50730D01*
X13213Y50634D01*
X13225Y50538D01*
X13262Y50449D01*
X13321Y50372D01*
X13371Y50334D01*
X13379Y50271D01*
X11346Y48237D01*
X11265Y48271D01*
X11169Y48283D01*
X11120Y48277D01*
X11085Y48313D01*
X11089Y48330D01*
X11073Y48410D01*
X11028Y48478D01*
X10960Y48523D01*
X10880Y48539D01*
X10800Y48523D01*
X10758Y48495D01*
X10704Y48516D01*
X10700Y48542D01*
X13093Y50936D01*
X13298D01*
X13313Y50886D01*
D02*
G37*
G36*
X23086Y32307D02*
X23036Y32288D01*
X22972Y32336D01*
X22883Y32373D01*
X22787Y32386D01*
X22692Y32373D01*
X22602Y32336D01*
X22526Y32277D01*
X22467Y32201D01*
X22430Y32112D01*
X22417Y32016D01*
X22430Y31920D01*
X22467Y31831D01*
X22526Y31754D01*
X22602Y31695D01*
X22692Y31658D01*
X22787Y31646D01*
X22883Y31658D01*
X22972Y31695D01*
X23036Y31744D01*
X23086Y31725D01*
Y31462D01*
X22964Y31340D01*
X22883Y31373D01*
X22787Y31386D01*
X22692Y31373D01*
X22602Y31336D01*
X22526Y31277D01*
X22467Y31201D01*
X22430Y31112D01*
X22417Y31016D01*
X22430Y30920D01*
X22467Y30831D01*
X22526Y30754D01*
X22602Y30695D01*
X22692Y30658D01*
X22787Y30646D01*
X22883Y30658D01*
X22972Y30695D01*
X23049Y30754D01*
X23108Y30831D01*
X23145Y30920D01*
X23157Y31016D01*
X23145Y31112D01*
X23111Y31192D01*
X23255Y31336D01*
X23275Y31341D01*
X23285Y31342D01*
X23319Y31337D01*
X23463Y31192D01*
X23430Y31112D01*
X23417Y31016D01*
X23430Y30920D01*
X23467Y30831D01*
X23526Y30754D01*
X23602Y30695D01*
X23692Y30658D01*
X23787Y30646D01*
X23883Y30658D01*
X23972Y30695D01*
X24036Y30744D01*
X24086Y30725D01*
Y29846D01*
X24042Y29818D01*
X23997Y29750D01*
X23981Y29670D01*
X23997Y29590D01*
X24042Y29522D01*
X24110Y29477D01*
X24190Y29461D01*
X24256Y29474D01*
X24283Y29430D01*
X23611Y28759D01*
X19554D01*
X19554Y28759D01*
X19521Y28752D01*
X19515Y28751D01*
X19481Y28728D01*
X18406Y27654D01*
X18384Y27620D01*
X18376Y27580D01*
X18376Y27580D01*
Y25173D01*
X18097Y24894D01*
X15443D01*
X15239Y25098D01*
Y25157D01*
X15286Y25176D01*
X15465Y24996D01*
X15465Y24996D01*
X15499Y24974D01*
X15539Y24966D01*
X17610D01*
X17610Y24966D01*
X17650Y24974D01*
X17684Y24996D01*
X18214Y25526D01*
X18214Y25526D01*
X18236Y25560D01*
X18244Y25600D01*
Y28325D01*
X20611Y30692D01*
X20692Y30658D01*
X20787Y30646D01*
X20883Y30658D01*
X20972Y30695D01*
X21049Y30754D01*
X21108Y30831D01*
X21145Y30920D01*
X21157Y31016D01*
X21145Y31112D01*
X21108Y31201D01*
X21049Y31277D01*
X20972Y31336D01*
X20937Y31351D01*
X20927Y31400D01*
X21264Y31736D01*
X21286Y31770D01*
X21294Y31810D01*
X21294Y31810D01*
Y34250D01*
X21294Y34250D01*
X21288Y34283D01*
X21286Y34290D01*
X21264Y34324D01*
X20949Y34639D01*
X20959Y34690D01*
X21001Y34732D01*
X22455D01*
X22455Y34732D01*
X22495Y34740D01*
X22528Y34763D01*
X22892Y35126D01*
X22914Y35160D01*
X22922Y35200D01*
Y35209D01*
X23086D01*
Y32307D01*
D02*
G37*
G36*
X16567Y36682D02*
Y36370D01*
X16648D01*
Y35170D01*
X16648Y35170D01*
X16656Y35130D01*
X16678Y35096D01*
X17317Y34457D01*
Y34407D01*
X16771Y33860D01*
X16721D01*
X16580Y34000D01*
X16547Y34023D01*
X16525Y34078D01*
X16553Y34120D01*
X16569Y34200D01*
X16553Y34280D01*
X16539Y34301D01*
Y35209D01*
X16560D01*
Y35500D01*
X16539D01*
Y35516D01*
X16531Y35556D01*
X16508Y35590D01*
X16484Y35614D01*
X16450Y35636D01*
X16410Y35644D01*
X16410Y35644D01*
X16403D01*
X16399Y35651D01*
X16425Y35701D01*
X16563D01*
Y36189D01*
X16482D01*
Y36665D01*
X16521Y36702D01*
X16567Y36682D01*
D02*
G37*
G36*
X18577Y39506D02*
Y39142D01*
X18496D01*
Y38654D01*
X18577D01*
Y38123D01*
X18538Y38085D01*
X18492Y38104D01*
Y38472D01*
X18122D01*
Y38133D01*
X17511Y37522D01*
X17426D01*
Y37744D01*
X17405D01*
Y37820D01*
X17397Y37860D01*
X17374Y37894D01*
X17374Y37894D01*
X17328Y37940D01*
X17311Y37984D01*
X17311D01*
X17311Y37984D01*
Y38472D01*
X17230D01*
Y38767D01*
X17395Y38931D01*
X17446Y38921D01*
X17526Y38937D01*
X17594Y38982D01*
X17631Y38952D01*
X17696Y38886D01*
X17730Y38864D01*
X17770Y38856D01*
X18050D01*
X18050Y38856D01*
X18090Y38864D01*
X18124Y38886D01*
X18314Y39076D01*
X18314Y39076D01*
X18329Y39099D01*
X18336Y39110D01*
X18344Y39150D01*
X18344Y39150D01*
Y39316D01*
X18336Y39356D01*
X18314Y39389D01*
X18314Y39389D01*
X17979Y39724D01*
X17946Y39746D01*
X17906Y39754D01*
X17906Y39754D01*
X16871D01*
X16861Y39804D01*
X16955Y39843D01*
X17074Y39934D01*
X17165Y40053D01*
X17222Y40191D01*
X17241Y40339D01*
X17222Y40487D01*
X17165Y40624D01*
X17074Y40743D01*
X17005Y40796D01*
X17022Y40846D01*
X17237D01*
X18577Y39506D01*
D02*
G37*
G36*
X22005Y39499D02*
Y38965D01*
X22005Y38965D01*
X22013Y38925D01*
X22036Y38891D01*
X22100Y38827D01*
Y38472D01*
X22020D01*
Y38133D01*
X21401Y37514D01*
X21285D01*
Y37744D01*
X21263D01*
Y37840D01*
X21263Y37840D01*
X21256Y37873D01*
X21255Y37880D01*
X21232Y37914D01*
X21232Y37914D01*
X21209Y37937D01*
X21209Y37984D01*
X21209D01*
X21209Y37984D01*
Y38472D01*
X21128D01*
Y38687D01*
X21959Y39518D01*
X22005Y39499D01*
D02*
G37*
G36*
X16983Y37658D02*
Y37453D01*
X16983Y37453D01*
X16983D01*
X16957Y37415D01*
X16305Y36784D01*
X16305Y36783D01*
X16304Y36783D01*
X16254Y36798D01*
Y37127D01*
X16469Y37341D01*
X16491Y37375D01*
X16493Y37381D01*
X16499Y37412D01*
X16521Y37453D01*
X16521Y37453D01*
Y37453D01*
X16521Y37499D01*
Y37686D01*
X16956D01*
X16983Y37658D01*
D02*
G37*
G36*
X19236Y47101D02*
Y46668D01*
X19236Y46668D01*
X19244Y46628D01*
X19266Y46594D01*
X19345Y46515D01*
X19312Y46434D01*
X19299Y46339D01*
X19312Y46243D01*
X19349Y46154D01*
X19408Y46077D01*
X19484Y46018D01*
X19574Y45981D01*
X19669Y45968D01*
X19765Y45981D01*
X19846Y46015D01*
X21214Y44646D01*
X21214Y44646D01*
X21248Y44624D01*
X21255Y44622D01*
X21288Y44616D01*
X21288Y44616D01*
X22862D01*
X22862Y44616D01*
X22902Y44624D01*
X22936Y44646D01*
X24689Y46400D01*
X24736Y46381D01*
Y40420D01*
X22951Y38635D01*
X22904Y38655D01*
Y39350D01*
X22904Y39350D01*
X22898Y39383D01*
X22896Y39390D01*
X22874Y39424D01*
X22874Y39424D01*
X22544Y39754D01*
X22510Y39776D01*
X22470Y39784D01*
X22470Y39784D01*
X22267D01*
X22224Y39826D01*
Y40944D01*
X22268Y40972D01*
X22313Y41040D01*
X22329Y41120D01*
X22313Y41200D01*
X22268Y41268D01*
X22200Y41313D01*
X22120Y41329D01*
X22040Y41313D01*
X21972Y41268D01*
X21927Y41200D01*
X21911Y41120D01*
X21927Y41040D01*
X21972Y40972D01*
X22016Y40944D01*
Y40572D01*
X21966Y40555D01*
X21931Y40600D01*
X21854Y40659D01*
X21765Y40696D01*
X21669Y40709D01*
X21574Y40696D01*
X21484Y40659D01*
X21408Y40600D01*
X21349Y40524D01*
X21312Y40434D01*
X21299Y40339D01*
X21312Y40243D01*
X21349Y40154D01*
X21408Y40077D01*
X21484Y40018D01*
X21574Y39981D01*
X21669Y39968D01*
X21765Y39981D01*
X21854Y40018D01*
X21931Y40077D01*
X21966Y40122D01*
X22016Y40105D01*
Y39870D01*
X21031Y38885D01*
X20984Y38904D01*
Y39200D01*
X20976Y39240D01*
X20954Y39274D01*
X20954Y39274D01*
X20784Y39444D01*
X20750Y39466D01*
X20710Y39474D01*
X20710Y39474D01*
X20606D01*
X20566Y39466D01*
X20532Y39444D01*
X20532Y39444D01*
X20202Y39114D01*
X20179Y39080D01*
X20171Y39040D01*
X20171Y39040D01*
Y38472D01*
X20091D01*
Y38133D01*
X19452Y37494D01*
X19316D01*
Y37744D01*
X19294D01*
Y37840D01*
X19294Y37840D01*
X19288Y37873D01*
X19286Y37880D01*
X19264Y37914D01*
X19264Y37914D01*
X19240Y37937D01*
X19240Y37984D01*
X19240D01*
X19240Y37984D01*
Y38472D01*
X19184D01*
Y47128D01*
X19186Y47129D01*
X19236Y47101D01*
D02*
G37*
G36*
X10584Y37920D02*
Y34382D01*
X10584Y34382D01*
X10592Y34342D01*
X10614Y34308D01*
X11611Y33311D01*
X11601Y33260D01*
X11617Y33180D01*
X11662Y33112D01*
X11730Y33067D01*
X11810Y33051D01*
X11890Y33067D01*
X11912Y33082D01*
X11956Y33058D01*
Y28480D01*
X11956Y28480D01*
X11964Y28440D01*
X11986Y28406D01*
X12376Y28016D01*
X12376Y28016D01*
X12410Y27994D01*
X12450Y27986D01*
X13555D01*
X15031Y26510D01*
Y25055D01*
X15031Y25055D01*
X15032Y25046D01*
X14986Y25021D01*
X13864Y26143D01*
Y27360D01*
X13856Y27400D01*
X13834Y27434D01*
X13834Y27434D01*
X13514Y27754D01*
X13480Y27776D01*
X13440Y27784D01*
X13440Y27784D01*
X12203D01*
X11844Y28143D01*
Y30070D01*
X11844Y30070D01*
X11836Y30110D01*
X11814Y30144D01*
X9924Y32033D01*
Y37861D01*
X9974Y37874D01*
X10043Y37821D01*
X10133Y37784D01*
X10228Y37772D01*
X10324Y37784D01*
X10413Y37821D01*
X10490Y37880D01*
X10534Y37937D01*
X10584Y37920D01*
D02*
G37*
G36*
X17261Y39222D02*
X17253Y39210D01*
X17237Y39130D01*
X17247Y39079D01*
X17052Y38884D01*
X17030Y38850D01*
X17022Y38810D01*
X17022Y38810D01*
Y38472D01*
X16941D01*
Y37984D01*
X17024D01*
X17030Y37954D01*
X17041Y37937D01*
X17012Y37892D01*
X16999Y37894D01*
X16999Y37894D01*
X16523D01*
X16483Y37934D01*
X16485Y37984D01*
X16563D01*
Y38472D01*
X16325D01*
X16306Y38519D01*
X16363Y38576D01*
X16752D01*
X16792Y38584D01*
X16826Y38606D01*
X16848Y38640D01*
X16851Y38654D01*
X16937D01*
Y39057D01*
X17145Y39266D01*
X17237D01*
X17261Y39222D01*
D02*
G37*
G36*
X16942Y39357D02*
X16726Y39142D01*
X16567D01*
Y38784D01*
X16320D01*
X16280Y38776D01*
X16246Y38754D01*
X16246Y38754D01*
X16094Y38602D01*
X16044Y38623D01*
Y38997D01*
X16451Y39404D01*
X16923D01*
X16942Y39357D01*
D02*
G37*
G36*
X17725Y37375D02*
Y37070D01*
X17725Y37070D01*
X17733Y37030D01*
X17756Y36996D01*
X18203Y36549D01*
Y36228D01*
X18122D01*
Y36204D01*
X18072Y36191D01*
X18010Y36233D01*
X17930Y36249D01*
X17850Y36233D01*
X17782Y36188D01*
X17754Y36144D01*
X17311D01*
Y36189D01*
X16941D01*
Y35701D01*
X17024D01*
X17030Y35675D01*
X17052Y35641D01*
X17143Y35550D01*
X17125Y35500D01*
X16944D01*
Y35209D01*
X16944Y35209D01*
X16943Y35197D01*
X16891Y35179D01*
X16856Y35213D01*
Y36370D01*
X16937D01*
Y36858D01*
X16749D01*
X16730Y36905D01*
X17151Y37313D01*
X17554D01*
X17554Y37313D01*
X17594Y37321D01*
X17628Y37343D01*
X17679Y37395D01*
X17725Y37375D01*
D02*
G37*
G36*
X26624Y46535D02*
Y40718D01*
X26624Y40718D01*
X26632Y40678D01*
X26655Y40644D01*
X27148Y40151D01*
Y37170D01*
X27064Y37136D01*
X26987Y37076D01*
X26927Y36999D01*
X26889Y36908D01*
X26877Y36811D01*
X26877Y36807D01*
X26832Y36785D01*
X26774Y36843D01*
Y37280D01*
X26766Y37320D01*
X26744Y37354D01*
X26744Y37354D01*
X26646Y37452D01*
X26612Y37475D01*
X26572Y37483D01*
X26572Y37483D01*
X24215D01*
X24175Y37475D01*
X24141Y37452D01*
X24141Y37452D01*
X23274Y36584D01*
X23177D01*
X23158Y36631D01*
X26488Y39961D01*
X26488Y39961D01*
X26511Y39994D01*
X26519Y40034D01*
Y46504D01*
X26562Y46532D01*
X26574Y46550D01*
X26624Y46535D01*
D02*
G37*
G36*
X29431Y45012D02*
X29487Y44938D01*
X29561Y44882D01*
X29646Y44846D01*
X29738Y44834D01*
X29830Y44846D01*
X29916Y44882D01*
X29984Y44934D01*
X30033Y44923D01*
X30034Y44923D01*
Y44455D01*
X30033Y44455D01*
X29984Y44444D01*
X29916Y44496D01*
X29830Y44532D01*
X29738Y44544D01*
X29646Y44532D01*
X29561Y44496D01*
X29487Y44440D01*
X29431Y44366D01*
X29412Y44321D01*
X29362Y44331D01*
Y45047D01*
X29412Y45057D01*
X29431Y45012D01*
D02*
G37*
G36*
X37069Y46530D02*
X37070Y46516D01*
X37057Y46417D01*
X37071Y46315D01*
X37110Y46222D01*
X36946Y46058D01*
X36924Y46024D01*
X36916Y45985D01*
X36916Y45985D01*
Y45327D01*
X36869Y45308D01*
X36464Y45714D01*
X36430Y45736D01*
X36390Y45744D01*
X36390Y45744D01*
X36240D01*
X36230Y45794D01*
X36275Y45813D01*
X36363Y45881D01*
X36431Y45969D01*
X36473Y46071D01*
X36488Y46181D01*
X36473Y46291D01*
X36431Y46394D01*
X36363Y46482D01*
X36319Y46516D01*
X36336Y46566D01*
X37045D01*
X37069Y46530D01*
D02*
G37*
G36*
X29431Y44012D02*
X29487Y43938D01*
X29561Y43882D01*
X29646Y43846D01*
X29738Y43834D01*
X29830Y43846D01*
X29916Y43882D01*
X29984Y43934D01*
X30033Y43923D01*
X30034Y43923D01*
Y42455D01*
X30033Y42455D01*
X29984Y42444D01*
X29916Y42496D01*
X29830Y42532D01*
X29738Y42544D01*
X29646Y42532D01*
X29561Y42496D01*
X29487Y42440D01*
X29431Y42366D01*
X29412Y42321D01*
X29362Y42331D01*
Y44047D01*
X29412Y44057D01*
X29431Y44012D01*
D02*
G37*
G36*
X22452Y37352D02*
X22456Y37318D01*
X22092Y36954D01*
X22069Y36920D01*
X22061Y36880D01*
X22061Y36880D01*
Y36268D01*
X21980D01*
Y35825D01*
X21960Y35809D01*
X21880Y35793D01*
X21812Y35747D01*
X21767Y35680D01*
X21764Y35665D01*
X21714Y35670D01*
Y36530D01*
X21714Y36530D01*
X21708Y36563D01*
X21706Y36570D01*
X21684Y36604D01*
X21198Y37089D01*
X21217Y37136D01*
X22100D01*
X22100Y37136D01*
X22140Y37144D01*
X22174Y37166D01*
X22374Y37366D01*
X22374Y37366D01*
X22379Y37373D01*
X22438Y37373D01*
X22452Y37352D01*
D02*
G37*
G36*
X29686Y47726D02*
X29686Y47726D01*
X29720Y47704D01*
X29760Y47696D01*
X32570D01*
X32570Y47696D01*
X32610Y47704D01*
X32644Y47726D01*
X32713Y47795D01*
X32759Y47776D01*
Y33623D01*
X32698Y33562D01*
X32675Y33528D01*
X32667Y33488D01*
X32667Y33488D01*
Y31488D01*
X32667Y31488D01*
X32675Y31448D01*
X32698Y31414D01*
X33139Y30973D01*
X33136Y30968D01*
X33094Y30866D01*
X33079Y30756D01*
X33094Y30646D01*
X33136Y30543D01*
X33203Y30455D01*
X33291Y30388D01*
X33394Y30345D01*
X33504Y30331D01*
X33614Y30345D01*
X33716Y30388D01*
X33804Y30455D01*
X33818Y30474D01*
X33866Y30457D01*
Y30265D01*
X33721Y30120D01*
X33716Y30124D01*
X33614Y30166D01*
X33504Y30181D01*
X33394Y30166D01*
X33291Y30124D01*
X33203Y30056D01*
X33136Y29968D01*
X33094Y29866D01*
X33079Y29756D01*
X33094Y29646D01*
X33136Y29543D01*
X33203Y29455D01*
X33221Y29442D01*
X33205Y29394D01*
X32573D01*
X30824Y31143D01*
Y36760D01*
X30824Y36760D01*
X30818Y36793D01*
X30816Y36800D01*
X30794Y36834D01*
X30794Y36834D01*
X29224Y38403D01*
Y41573D01*
X29271Y41592D01*
X32006Y38857D01*
Y34526D01*
X31962Y34498D01*
X31917Y34430D01*
X31901Y34350D01*
X31917Y34270D01*
X31962Y34202D01*
X32030Y34157D01*
X32110Y34141D01*
X32190Y34157D01*
X32258Y34202D01*
X32303Y34270D01*
X32319Y34350D01*
X32303Y34430D01*
X32258Y34498D01*
X32214Y34526D01*
Y38900D01*
X32214Y38900D01*
X32208Y38933D01*
X32206Y38940D01*
X32184Y38974D01*
X29362Y41795D01*
Y42047D01*
X29412Y42057D01*
X29431Y42011D01*
X29487Y41938D01*
X29561Y41882D01*
X29646Y41846D01*
X29738Y41834D01*
X29830Y41846D01*
X29916Y41882D01*
X29989Y41938D01*
X30035Y41997D01*
X30082Y42007D01*
X30097Y42005D01*
X30871Y41231D01*
X30861Y41180D01*
X30877Y41100D01*
X30922Y41032D01*
X30990Y40987D01*
X31070Y40971D01*
X31150Y40987D01*
X31218Y41032D01*
X31263Y41100D01*
X31279Y41180D01*
X31263Y41260D01*
X31218Y41328D01*
X31150Y41373D01*
X31070Y41389D01*
X31019Y41379D01*
X30243Y42155D01*
Y46851D01*
X30316Y46882D01*
X30389Y46938D01*
X30446Y47011D01*
X30481Y47097D01*
X30493Y47189D01*
X30481Y47281D01*
X30446Y47366D01*
X30389Y47440D01*
X30316Y47496D01*
X30230Y47532D01*
X30138Y47544D01*
X30046Y47532D01*
X29961Y47496D01*
X29887Y47440D01*
X29831Y47366D01*
X29795Y47281D01*
X29783Y47189D01*
X29795Y47097D01*
X29831Y47011D01*
X29887Y46938D01*
X29961Y46882D01*
X30034Y46851D01*
Y46455D01*
X30033Y46455D01*
X29984Y46444D01*
X29916Y46496D01*
X29830Y46532D01*
X29738Y46544D01*
X29646Y46532D01*
X29561Y46496D01*
X29487Y46440D01*
X29431Y46366D01*
X29412Y46321D01*
X29362Y46331D01*
Y47985D01*
X29408Y48004D01*
X29686Y47726D01*
D02*
G37*
G36*
X27556Y40077D02*
Y37102D01*
X27506Y37085D01*
X27440Y37136D01*
X27356Y37170D01*
Y40195D01*
X27356Y40195D01*
X27354Y40208D01*
X27400Y40233D01*
X27556Y40077D01*
D02*
G37*
G36*
X32246Y55667D02*
Y53750D01*
X32246Y53750D01*
X32254Y53710D01*
X32276Y53676D01*
X32364Y53588D01*
X32342Y53543D01*
X32338Y53544D01*
X32246Y53532D01*
X32161Y53496D01*
X32087Y53440D01*
X32031Y53366D01*
X31995Y53281D01*
X31983Y53189D01*
X31995Y53097D01*
X32031Y53011D01*
X32087Y52938D01*
X32161Y52882D01*
X32246Y52846D01*
X32338Y52834D01*
X32430Y52846D01*
X32516Y52882D01*
X32589Y52938D01*
X32646Y53011D01*
X32681Y53097D01*
X32693Y53189D01*
X32693Y53193D01*
X32738Y53215D01*
X32836Y53117D01*
Y50910D01*
X32836Y50910D01*
X32844Y50870D01*
X32866Y50836D01*
X33166Y50537D01*
Y50326D01*
X33116Y50311D01*
X33114Y50314D01*
X33114Y50314D01*
X32724Y50704D01*
X32690Y50726D01*
X32650Y50734D01*
X32650Y50734D01*
X32160D01*
X32160Y50734D01*
X32127Y50728D01*
X32120Y50726D01*
X32086Y50704D01*
X31876Y50494D01*
X31854Y50460D01*
X31846Y50420D01*
X31846Y50420D01*
Y48856D01*
X31846Y48856D01*
X31854Y48816D01*
X31876Y48783D01*
X32156Y48503D01*
X32156Y48503D01*
X32190Y48480D01*
X32197Y48479D01*
X32230Y48472D01*
X32230Y48472D01*
X32597D01*
X32621Y48447D01*
Y47999D01*
X32527Y47904D01*
X30424D01*
X30402Y47954D01*
X30446Y48011D01*
X30481Y48097D01*
X30493Y48189D01*
X30481Y48281D01*
X30446Y48366D01*
X30389Y48440D01*
X30316Y48496D01*
X30230Y48532D01*
X30138Y48544D01*
X30046Y48532D01*
X29961Y48496D01*
X29887Y48440D01*
X29831Y48366D01*
X29795Y48281D01*
X29783Y48189D01*
X29795Y48097D01*
X29831Y48011D01*
X29875Y47954D01*
X29853Y47904D01*
X29803D01*
X29500Y48208D01*
Y50526D01*
X29492Y50566D01*
X29469Y50599D01*
X29045Y51024D01*
X29075Y51097D01*
X29087Y51189D01*
X29075Y51281D01*
X29040Y51366D01*
X28983Y51440D01*
X28910Y51496D01*
X28824Y51532D01*
X28732Y51544D01*
X28640Y51532D01*
X28555Y51496D01*
X28494Y51450D01*
X28444Y51468D01*
Y51910D01*
X28494Y51928D01*
X28555Y51882D01*
X28640Y51846D01*
X28732Y51834D01*
X28824Y51846D01*
X28910Y51882D01*
X28983Y51938D01*
X29040Y52011D01*
X29075Y52097D01*
X29087Y52189D01*
X29075Y52281D01*
X29045Y52354D01*
X29755Y53064D01*
X29814Y53052D01*
X29831Y53011D01*
X29887Y52938D01*
X29961Y52882D01*
X30046Y52846D01*
X30138Y52834D01*
X30230Y52846D01*
X30316Y52882D01*
X30389Y52938D01*
X30446Y53011D01*
X30481Y53097D01*
X30493Y53189D01*
X30481Y53281D01*
X30446Y53366D01*
X30389Y53440D01*
X30316Y53496D01*
X30230Y53532D01*
X30138Y53544D01*
X30046Y53532D01*
X29961Y53496D01*
X29904Y53453D01*
X29854Y53475D01*
Y53537D01*
X30324Y54006D01*
X30324Y54006D01*
X30346Y54040D01*
X30348Y54047D01*
X30352Y54070D01*
X30380Y54079D01*
X30403Y54078D01*
X30431Y54012D01*
X30487Y53938D01*
X30561Y53882D01*
X30646Y53846D01*
X30738Y53834D01*
X30830Y53846D01*
X30916Y53882D01*
X30989Y53938D01*
X31046Y54012D01*
X31081Y54097D01*
X31093Y54189D01*
X31081Y54281D01*
X31046Y54366D01*
X30989Y54440D01*
X30916Y54496D01*
X30843Y54527D01*
Y54809D01*
X30860Y54836D01*
X30862Y54842D01*
X30868Y54875D01*
X30868Y54875D01*
Y55097D01*
X30949Y55131D01*
X31025Y55189D01*
X31084Y55266D01*
X31121Y55355D01*
X31134Y55451D01*
Y55651D01*
X31121Y55747D01*
X31084Y55836D01*
X31031Y55906D01*
X31044Y55956D01*
X31957D01*
X32246Y55667D01*
D02*
G37*
G36*
X33126Y54074D02*
Y51740D01*
X33126Y51740D01*
X33134Y51701D01*
X33156Y51667D01*
X34166Y50657D01*
X34166Y50657D01*
X34200Y50634D01*
X34207Y50633D01*
X34240Y50626D01*
X34240Y50626D01*
X35255D01*
X35364Y50517D01*
Y47042D01*
X35364Y47042D01*
X35372Y47002D01*
X35395Y46968D01*
X35766Y46596D01*
X35766Y46596D01*
X35800Y46574D01*
X35800Y46574D01*
X35813Y46520D01*
X35763Y46482D01*
X35695Y46394D01*
X35653Y46291D01*
X35638Y46181D01*
X35653Y46071D01*
X35678Y46009D01*
X35636Y45981D01*
X35111Y46506D01*
X35133Y46554D01*
X35200Y46567D01*
X35268Y46612D01*
X35313Y46680D01*
X35329Y46760D01*
X35313Y46840D01*
X35268Y46908D01*
X35224Y46936D01*
Y47801D01*
X35224Y47801D01*
X35218Y47835D01*
X35216Y47841D01*
X35194Y47875D01*
X35045Y48024D01*
X35075Y48097D01*
X35087Y48189D01*
X35075Y48281D01*
X35040Y48366D01*
X34983Y48440D01*
X34910Y48496D01*
X34824Y48532D01*
X34732Y48544D01*
X34640Y48532D01*
X34555Y48496D01*
X34481Y48440D01*
X34425Y48366D01*
X34389Y48281D01*
X34377Y48189D01*
X34389Y48097D01*
X34425Y48011D01*
X34481Y47938D01*
X34555Y47882D01*
X34640Y47846D01*
X34732Y47834D01*
X34824Y47846D01*
X34897Y47876D01*
X35016Y47758D01*
Y47476D01*
X34966Y47454D01*
X34910Y47496D01*
X34824Y47532D01*
X34732Y47544D01*
X34640Y47532D01*
X34555Y47496D01*
X34481Y47440D01*
X34425Y47366D01*
X34389Y47281D01*
X34377Y47189D01*
X34389Y47097D01*
X34425Y47011D01*
X34481Y46938D01*
X34555Y46882D01*
X34640Y46846D01*
X34732Y46834D01*
X34824Y46846D01*
X34889Y46873D01*
X34912Y46853D01*
X34926Y46834D01*
X34911Y46760D01*
X34917Y46730D01*
X34905Y46710D01*
X34875Y46684D01*
X34603D01*
X34150Y47138D01*
X34160Y47189D01*
X34144Y47269D01*
X34099Y47337D01*
X34031Y47382D01*
X33951Y47398D01*
X33871Y47382D01*
X33803Y47337D01*
X33758Y47269D01*
X33742Y47189D01*
X33758Y47109D01*
X33803Y47041D01*
X33871Y46996D01*
X33951Y46980D01*
X34002Y46990D01*
X34486Y46507D01*
X34486Y46506D01*
X34488Y46445D01*
X34481Y46440D01*
X34425Y46366D01*
X34389Y46281D01*
X34377Y46189D01*
X34389Y46097D01*
X34425Y46012D01*
X34481Y45938D01*
X34548Y45887D01*
X34560Y45858D01*
X34565Y45832D01*
X33716Y44984D01*
X33694Y44950D01*
X33686Y44910D01*
X33686Y44910D01*
Y39576D01*
X33657Y39558D01*
X33608Y39582D01*
Y48917D01*
X34567Y49876D01*
X34640Y49846D01*
X34732Y49834D01*
X34824Y49846D01*
X34910Y49882D01*
X34983Y49938D01*
X35040Y50012D01*
X35075Y50097D01*
X35087Y50189D01*
X35075Y50281D01*
X35040Y50366D01*
X34983Y50440D01*
X34910Y50496D01*
X34824Y50532D01*
X34732Y50544D01*
X34640Y50532D01*
X34555Y50496D01*
X34481Y50440D01*
X34425Y50366D01*
X34389Y50281D01*
X34377Y50189D01*
X34389Y50097D01*
X34420Y50024D01*
X33430Y49034D01*
X33424Y49026D01*
X33374Y49041D01*
Y50580D01*
X33366Y50620D01*
X33344Y50654D01*
X33344Y50654D01*
X33044Y50953D01*
Y53160D01*
X33044Y53160D01*
X33036Y53200D01*
X33014Y53234D01*
X32454Y53793D01*
Y53903D01*
X32504Y53925D01*
X32561Y53882D01*
X32646Y53846D01*
X32738Y53834D01*
X32830Y53846D01*
X32916Y53882D01*
X32989Y53938D01*
X33046Y54012D01*
X33076Y54084D01*
X33126Y54074D01*
D02*
G37*
G36*
X16334Y40796D02*
X16265Y40743D01*
X16174Y40624D01*
X16117Y40487D01*
X16097Y40339D01*
X16117Y40191D01*
X16174Y40053D01*
X16265Y39934D01*
X16383Y39843D01*
X16478Y39804D01*
X16468Y39754D01*
X15740D01*
X15700Y39746D01*
X15666Y39724D01*
X15666Y39724D01*
X15356Y39414D01*
X15334Y39380D01*
X15326Y39340D01*
X15326Y39340D01*
Y27643D01*
X15276Y27615D01*
X15254Y27628D01*
Y40377D01*
X15723Y40846D01*
X16317D01*
X16334Y40796D01*
D02*
G37*
G36*
X19236Y54472D02*
Y47562D01*
X19186Y47536D01*
X19160Y47553D01*
X19080Y47569D01*
X19000Y47553D01*
X18932Y47508D01*
X18887Y47440D01*
X18871Y47360D01*
X18887Y47280D01*
X18932Y47212D01*
X18976Y47184D01*
Y46615D01*
X18975Y46615D01*
X18926Y46604D01*
X18854Y46659D01*
X18765Y46696D01*
X18669Y46709D01*
X18574Y46696D01*
X18484Y46659D01*
X18408Y46600D01*
X18349Y46524D01*
X18312Y46434D01*
X18299Y46339D01*
X18312Y46243D01*
X18349Y46154D01*
X18408Y46077D01*
X18484Y46018D01*
X18574Y45981D01*
X18669Y45968D01*
X18765Y45981D01*
X18854Y46018D01*
X18926Y46073D01*
X18975Y46062D01*
X18976Y46062D01*
Y42462D01*
X18929Y42443D01*
X15285Y46087D01*
X15318Y46168D01*
X15331Y46264D01*
X15318Y46360D01*
X15281Y46449D01*
X15222Y46525D01*
X15146Y46584D01*
X15056Y46621D01*
X14961Y46634D01*
X14865Y46621D01*
X14784Y46588D01*
X14694Y46678D01*
Y48383D01*
X14744Y48400D01*
X14778Y48356D01*
X14854Y48298D01*
X14944Y48261D01*
X15039Y48248D01*
X15135Y48261D01*
X15224Y48298D01*
X15301Y48356D01*
X15360Y48433D01*
X15397Y48522D01*
X15409Y48618D01*
X15397Y48714D01*
X15360Y48803D01*
X15301Y48880D01*
X15224Y48939D01*
X15135Y48976D01*
X15039Y48988D01*
X14944Y48976D01*
X14854Y48939D01*
X14778Y48880D01*
X14744Y48836D01*
X14694Y48853D01*
Y51126D01*
X14863Y51294D01*
X14944Y51261D01*
X15039Y51248D01*
X15135Y51261D01*
X15224Y51298D01*
X15301Y51356D01*
X15360Y51433D01*
X15397Y51522D01*
X15409Y51618D01*
X15397Y51714D01*
X15360Y51803D01*
X15301Y51880D01*
X15224Y51939D01*
X15135Y51976D01*
X15039Y51988D01*
X14944Y51976D01*
X14854Y51939D01*
X14778Y51880D01*
X14719Y51803D01*
X14682Y51714D01*
X14669Y51618D01*
X14682Y51522D01*
X14715Y51442D01*
X14601Y51327D01*
X14554Y51346D01*
Y51797D01*
X14813Y52056D01*
X16711D01*
X16711Y52056D01*
X16751Y52064D01*
X16785Y52086D01*
X19189Y54491D01*
X19236Y54472D01*
D02*
G37*
G36*
X23606Y28504D02*
X22897Y27794D01*
X19200D01*
X19200Y27794D01*
X19160Y27786D01*
X19126Y27764D01*
X18756Y27394D01*
X18734Y27360D01*
X18726Y27320D01*
X18726Y27320D01*
Y24993D01*
X18437Y24704D01*
X18273D01*
X18252Y24754D01*
X18554Y25056D01*
X18554Y25056D01*
X18576Y25090D01*
X18578Y25097D01*
X18584Y25130D01*
X18584Y25130D01*
Y27537D01*
X19598Y28550D01*
X23587D01*
X23606Y28504D01*
D02*
G37*
G36*
X16252Y39499D02*
X15866Y39114D01*
X15844Y39080D01*
X15836Y39040D01*
X15836Y39040D01*
Y33310D01*
X15836Y33310D01*
X15844Y33270D01*
X15866Y33236D01*
X16326Y32777D01*
Y32129D01*
X16326Y32129D01*
X16334Y32089D01*
X16356Y32055D01*
X16525Y31886D01*
X16522Y31882D01*
X16479Y31779D01*
X16465Y31669D01*
X16479Y31559D01*
X16522Y31457D01*
X16589Y31369D01*
X16593Y31366D01*
X16581Y31313D01*
X16563Y31309D01*
X16529Y31286D01*
X16529Y31286D01*
X16356Y31114D01*
X16334Y31080D01*
X16326Y31040D01*
X16326Y31040D01*
Y26400D01*
X16326Y26400D01*
X16334Y26360D01*
X16356Y26326D01*
X16542Y26141D01*
X16540Y26122D01*
X16525Y26091D01*
X16468D01*
Y25771D01*
X16440Y25766D01*
X16406Y25743D01*
X16273Y25610D01*
X16250Y25576D01*
X16242Y25536D01*
X16242Y25536D01*
Y25442D01*
X16117Y25317D01*
X15704D01*
X15534Y25486D01*
Y39297D01*
X15783Y39546D01*
X16233D01*
X16252Y39499D01*
D02*
G37*
G36*
X11636Y30027D02*
Y28100D01*
X11636Y28100D01*
X11644Y28060D01*
X11666Y28026D01*
X12086Y27606D01*
X12086Y27606D01*
X12120Y27584D01*
X12127Y27582D01*
X12160Y27576D01*
X12160Y27576D01*
X13397D01*
X13656Y27317D01*
Y26100D01*
X13656Y26100D01*
X13664Y26060D01*
X13686Y26026D01*
X15186Y24526D01*
X15186Y24526D01*
X15220Y24504D01*
X15260Y24496D01*
X18480D01*
X18480Y24496D01*
X18520Y24504D01*
X18554Y24526D01*
X18856Y24828D01*
X18906Y24807D01*
Y24683D01*
X18577Y24354D01*
X15253D01*
X13594Y26013D01*
Y26900D01*
X13594Y26900D01*
X13586Y26940D01*
X13564Y26974D01*
X13194Y27344D01*
X13160Y27366D01*
X13120Y27374D01*
X13120Y27374D01*
X11323D01*
X9784Y28913D01*
Y31813D01*
X9831Y31832D01*
X11636Y30027D01*
D02*
G37*
G36*
X32579Y55131D02*
X32659Y55097D01*
Y55046D01*
X32659Y55046D01*
X32667Y55006D01*
X32690Y54972D01*
X33126Y54537D01*
Y54304D01*
X33076Y54294D01*
X33046Y54366D01*
X32989Y54440D01*
X32916Y54496D01*
X32830Y54532D01*
X32738Y54544D01*
X32646Y54532D01*
X32561Y54496D01*
X32504Y54453D01*
X32454Y54475D01*
Y55174D01*
X32487Y55185D01*
X32504Y55188D01*
X32579Y55131D01*
D02*
G37*
G36*
X26034Y58536D02*
X26869Y58482D01*
X27701Y58391D01*
X28528Y58263D01*
X29349Y58100D01*
X30162Y57901D01*
X30966Y57667D01*
X31758Y57398D01*
X32538Y57094D01*
X33305Y56757D01*
X34055Y56387D01*
X34789Y55984D01*
X35505Y55550D01*
X36201Y55085D01*
X36876Y54590D01*
X37528Y54066D01*
X38158Y53514D01*
X38762Y52936D01*
X39341Y52331D01*
X39893Y51702D01*
X40417Y51049D01*
X40912Y50374D01*
X41377Y49678D01*
X41811Y48962D01*
X42214Y48229D01*
X42584Y47478D01*
X42921Y46712D01*
X43224Y45932D01*
X43494Y45139D01*
X43728Y44335D01*
X43927Y43522D01*
X44090Y42701D01*
X44217Y41874D01*
X44308Y41042D01*
X44363Y40207D01*
X44381Y39370D01*
X44363Y38533D01*
X44308Y37698D01*
X44217Y36866D01*
X44090Y36039D01*
X43927Y35218D01*
X43728Y34405D01*
X43494Y33601D01*
X43224Y32809D01*
X42921Y32028D01*
X42753Y31647D01*
X42704Y31657D01*
Y33907D01*
X43524Y34726D01*
X43524Y34726D01*
X43539Y34749D01*
X43546Y34760D01*
X43554Y34800D01*
X43554Y34800D01*
Y40000D01*
X43554Y40000D01*
X43546Y40040D01*
X43524Y40074D01*
X43063Y40534D01*
X43029Y40557D01*
X42989Y40565D01*
X42989Y40565D01*
X42874D01*
X42840Y40646D01*
X42781Y40722D01*
X42705Y40781D01*
X42615Y40818D01*
X42520Y40831D01*
X42424Y40818D01*
X42335Y40781D01*
X42258Y40722D01*
X42199Y40646D01*
X42162Y40556D01*
X42150Y40461D01*
X42162Y40365D01*
X42199Y40276D01*
X42258Y40199D01*
X42335Y40140D01*
X42424Y40103D01*
X42520Y40091D01*
X42615Y40103D01*
X42705Y40140D01*
X42781Y40199D01*
X42840Y40276D01*
X42874Y40356D01*
X42946D01*
X43346Y39957D01*
Y34843D01*
X42526Y34024D01*
X42504Y33990D01*
X42496Y33950D01*
X42496Y33950D01*
Y31573D01*
X41207Y30284D01*
X40413D01*
X38874Y31823D01*
Y33297D01*
X38924Y33315D01*
X38988Y33266D01*
X39077Y33229D01*
X39173Y33217D01*
X39269Y33229D01*
X39358Y33266D01*
X39435Y33325D01*
X39494Y33402D01*
X39531Y33491D01*
X39543Y33587D01*
X39531Y33682D01*
X39497Y33763D01*
X39641Y33907D01*
X39663Y33940D01*
X39665Y33947D01*
X39671Y33980D01*
X39671Y33980D01*
Y35307D01*
X39752D01*
Y35795D01*
X39382D01*
Y35307D01*
X39463D01*
Y34024D01*
X39350Y33911D01*
X39269Y33944D01*
X39173Y33957D01*
X39077Y33944D01*
X38988Y33907D01*
X38924Y33858D01*
X38874Y33876D01*
Y34737D01*
X39267Y35129D01*
X39267Y35129D01*
X39289Y35163D01*
X39297Y35203D01*
Y35976D01*
X39378D01*
Y36465D01*
X39008D01*
Y35976D01*
X39089D01*
Y35246D01*
X38696Y34854D01*
X38674Y34820D01*
X38666Y34780D01*
X38666Y34780D01*
Y31780D01*
X38666Y31780D01*
X38674Y31740D01*
X38696Y31706D01*
X40296Y30106D01*
X40296Y30106D01*
X40330Y30084D01*
X40337Y30082D01*
X40370Y30076D01*
X40370Y30076D01*
X41250D01*
X41250Y30076D01*
X41290Y30084D01*
X41324Y30106D01*
X42570Y31352D01*
X42611Y31324D01*
X42584Y31262D01*
X42214Y30512D01*
X41811Y29778D01*
X41377Y29062D01*
X40912Y28366D01*
X40417Y27691D01*
X39893Y27038D01*
X39341Y26409D01*
X38762Y25805D01*
X38158Y25226D01*
X37528Y24674D01*
X36876Y24150D01*
X36201Y23655D01*
X35505Y23190D01*
X34789Y22756D01*
X34055Y22353D01*
X33305Y21983D01*
X32538Y21646D01*
X31758Y21342D01*
X31298Y21186D01*
X31257Y21215D01*
Y21629D01*
X31250Y21665D01*
Y27087D01*
X31242Y27128D01*
X31218Y27163D01*
X31183Y27187D01*
X31142Y27195D01*
X19245D01*
X19205Y27187D01*
X19202Y27189D01*
X19177Y27230D01*
X19243Y27296D01*
X23172D01*
X23172Y27296D01*
X23212Y27304D01*
X23245Y27326D01*
X26611Y30692D01*
X26692Y30658D01*
X26787Y30646D01*
X26883Y30658D01*
X26972Y30695D01*
X27049Y30754D01*
X27108Y30831D01*
X27145Y30920D01*
X27157Y31016D01*
X27145Y31112D01*
X27108Y31201D01*
X27049Y31277D01*
X26972Y31336D01*
X26883Y31373D01*
X26787Y31386D01*
X26692Y31373D01*
X26602Y31336D01*
X26526Y31277D01*
X26467Y31201D01*
X26430Y31112D01*
X26417Y31016D01*
X26430Y30920D01*
X26463Y30839D01*
X23128Y27504D01*
X19233D01*
X19215Y27547D01*
X19246Y27586D01*
X22940D01*
X22940Y27586D01*
X22980Y27594D01*
X23014Y27616D01*
X24861Y29464D01*
X24884Y29497D01*
X24892Y29537D01*
Y30662D01*
X24972Y30695D01*
X25049Y30754D01*
X25108Y30831D01*
X25145Y30920D01*
X25157Y31016D01*
X25145Y31112D01*
X25108Y31201D01*
X25049Y31277D01*
X24972Y31336D01*
X24883Y31373D01*
X24787Y31386D01*
X24692Y31373D01*
X24602Y31336D01*
X24534Y31284D01*
X24484Y31298D01*
Y31565D01*
X24611Y31692D01*
X24692Y31658D01*
X24787Y31646D01*
X24883Y31658D01*
X24972Y31695D01*
X25049Y31754D01*
X25108Y31831D01*
X25145Y31920D01*
X25157Y32016D01*
X25145Y32112D01*
X25108Y32201D01*
X25049Y32277D01*
X24972Y32336D01*
X24883Y32373D01*
X24787Y32386D01*
X24692Y32373D01*
X24602Y32336D01*
X24526Y32277D01*
X24467Y32201D01*
X24430Y32112D01*
X24417Y32016D01*
X24430Y31920D01*
X24463Y31839D01*
X24344Y31720D01*
X24294Y31741D01*
Y35537D01*
X25409Y36651D01*
X25460Y36641D01*
X25540Y36657D01*
X25608Y36702D01*
X25653Y36770D01*
X25669Y36850D01*
X25653Y36930D01*
X25608Y36998D01*
X25540Y37043D01*
X25460Y37059D01*
X25380Y37043D01*
X25312Y36998D01*
X25267Y36930D01*
X25251Y36850D01*
X25261Y36799D01*
X24116Y35654D01*
X24094Y35620D01*
X24086Y35580D01*
X24086Y35580D01*
Y32307D01*
X24036Y32288D01*
X23972Y32336D01*
X23883Y32373D01*
X23787Y32386D01*
X23692Y32373D01*
X23602Y32336D01*
X23534Y32284D01*
X23484Y32298D01*
Y35517D01*
X23889Y35921D01*
X23940Y35911D01*
X24020Y35927D01*
X24088Y35972D01*
X24133Y36040D01*
X24149Y36120D01*
X24133Y36200D01*
X24088Y36268D01*
X24020Y36313D01*
X23996Y36318D01*
X23979Y36372D01*
X24539Y36931D01*
X24590Y36921D01*
X24670Y36937D01*
X24738Y36982D01*
X24783Y37050D01*
X24799Y37130D01*
X24783Y37210D01*
X24770Y37230D01*
X24793Y37274D01*
X26529D01*
X26566Y37237D01*
Y37183D01*
X25880D01*
Y36439D01*
X26148D01*
Y32231D01*
X26098Y32214D01*
X26049Y32277D01*
X25972Y32336D01*
X25892Y32370D01*
Y36193D01*
X25892Y36193D01*
X25885Y36226D01*
X25884Y36233D01*
X25861Y36266D01*
X25779Y36349D01*
X25789Y36400D01*
X25773Y36480D01*
X25728Y36548D01*
X25660Y36593D01*
X25580Y36609D01*
X25500Y36593D01*
X25432Y36548D01*
X25387Y36480D01*
X25371Y36400D01*
X25387Y36320D01*
X25432Y36252D01*
X25500Y36207D01*
X25580Y36191D01*
X25631Y36201D01*
X25683Y36149D01*
Y32370D01*
X25602Y32336D01*
X25526Y32277D01*
X25467Y32201D01*
X25430Y32112D01*
X25417Y32016D01*
X25430Y31920D01*
X25467Y31831D01*
X25526Y31754D01*
X25602Y31695D01*
X25692Y31658D01*
X25787Y31646D01*
X25883Y31658D01*
X25972Y31695D01*
X26049Y31754D01*
X26098Y31817D01*
X26148Y31800D01*
Y31524D01*
X25964Y31340D01*
X25883Y31373D01*
X25787Y31386D01*
X25692Y31373D01*
X25602Y31336D01*
X25526Y31277D01*
X25467Y31201D01*
X25430Y31112D01*
X25417Y31016D01*
X25430Y30920D01*
X25467Y30831D01*
X25526Y30754D01*
X25602Y30695D01*
X25692Y30658D01*
X25787Y30646D01*
X25883Y30658D01*
X25972Y30695D01*
X26049Y30754D01*
X26108Y30831D01*
X26145Y30920D01*
X26157Y31016D01*
X26145Y31112D01*
X26111Y31192D01*
X26326Y31407D01*
X26348Y31440D01*
X26356Y31480D01*
X26356Y31480D01*
Y36439D01*
X26476D01*
X26729Y36186D01*
X26763Y36164D01*
X26770Y36162D01*
X26803Y36156D01*
X26803Y36156D01*
X27520D01*
X27520Y36156D01*
X27560Y36164D01*
X27594Y36186D01*
X27914Y36506D01*
X27914Y36506D01*
X27936Y36540D01*
X27944Y36580D01*
Y47253D01*
X28567Y47876D01*
X28640Y47846D01*
X28732Y47834D01*
X28824Y47846D01*
X28910Y47882D01*
X28966Y47924D01*
X29016Y47902D01*
Y47476D01*
X28966Y47454D01*
X28910Y47496D01*
X28824Y47532D01*
X28732Y47544D01*
X28640Y47532D01*
X28555Y47496D01*
X28481Y47440D01*
X28425Y47366D01*
X28389Y47281D01*
X28377Y47189D01*
X28389Y47097D01*
X28425Y47011D01*
X28481Y46938D01*
X28555Y46882D01*
X28640Y46846D01*
X28732Y46834D01*
X28824Y46846D01*
X28910Y46882D01*
X28966Y46924D01*
X29016Y46902D01*
Y46476D01*
X28966Y46454D01*
X28910Y46496D01*
X28824Y46532D01*
X28732Y46544D01*
X28640Y46532D01*
X28555Y46496D01*
X28481Y46440D01*
X28425Y46366D01*
X28389Y46281D01*
X28377Y46189D01*
X28389Y46097D01*
X28425Y46012D01*
X28481Y45938D01*
X28555Y45882D01*
X28640Y45846D01*
X28732Y45834D01*
X28824Y45846D01*
X28910Y45882D01*
X28966Y45924D01*
X29016Y45902D01*
Y45476D01*
X28966Y45454D01*
X28910Y45496D01*
X28824Y45532D01*
X28732Y45544D01*
X28640Y45532D01*
X28555Y45496D01*
X28481Y45440D01*
X28425Y45366D01*
X28389Y45281D01*
X28377Y45189D01*
X28389Y45097D01*
X28425Y45012D01*
X28481Y44938D01*
X28555Y44882D01*
X28640Y44846D01*
X28732Y44834D01*
X28824Y44846D01*
X28910Y44882D01*
X28966Y44924D01*
X29016Y44902D01*
Y44476D01*
X28966Y44454D01*
X28910Y44496D01*
X28824Y44532D01*
X28732Y44544D01*
X28640Y44532D01*
X28555Y44496D01*
X28481Y44440D01*
X28425Y44366D01*
X28389Y44281D01*
X28377Y44189D01*
X28389Y44097D01*
X28425Y44012D01*
X28481Y43938D01*
X28555Y43882D01*
X28640Y43846D01*
X28732Y43834D01*
X28824Y43846D01*
X28910Y43882D01*
X28966Y43924D01*
X29016Y43902D01*
Y43476D01*
X28966Y43454D01*
X28910Y43496D01*
X28824Y43532D01*
X28732Y43544D01*
X28640Y43532D01*
X28555Y43496D01*
X28481Y43440D01*
X28425Y43366D01*
X28389Y43281D01*
X28377Y43189D01*
X28389Y43097D01*
X28425Y43011D01*
X28481Y42938D01*
X28555Y42882D01*
X28640Y42846D01*
X28732Y42834D01*
X28824Y42846D01*
X28910Y42882D01*
X28966Y42924D01*
X29016Y42902D01*
Y42476D01*
X28966Y42454D01*
X28910Y42496D01*
X28824Y42532D01*
X28732Y42544D01*
X28640Y42532D01*
X28555Y42496D01*
X28481Y42440D01*
X28425Y42366D01*
X28389Y42281D01*
X28377Y42189D01*
X28389Y42097D01*
X28425Y42011D01*
X28481Y41938D01*
X28555Y41882D01*
X28640Y41846D01*
X28732Y41834D01*
X28824Y41846D01*
X28910Y41882D01*
X28966Y41924D01*
X29016Y41902D01*
Y41476D01*
X28966Y41454D01*
X28910Y41496D01*
X28824Y41532D01*
X28732Y41544D01*
X28640Y41532D01*
X28555Y41496D01*
X28481Y41440D01*
X28425Y41366D01*
X28389Y41281D01*
X28377Y41189D01*
X28389Y41097D01*
X28425Y41012D01*
X28481Y40938D01*
X28555Y40882D01*
X28640Y40846D01*
X28732Y40834D01*
X28824Y40846D01*
X28910Y40882D01*
X28966Y40924D01*
X29016Y40902D01*
Y38360D01*
X29016Y38360D01*
X29024Y38320D01*
X29046Y38286D01*
X30616Y36717D01*
Y31100D01*
X30616Y31100D01*
X30624Y31060D01*
X30646Y31026D01*
X32456Y29216D01*
X32456Y29216D01*
X32479Y29201D01*
X32490Y29194D01*
X32530Y29186D01*
X32530Y29186D01*
X33760D01*
X33760Y29186D01*
X33800Y29194D01*
X33834Y29216D01*
X34074Y29456D01*
X34074Y29456D01*
X34096Y29490D01*
X34100Y29508D01*
X34153Y29521D01*
X34203Y29455D01*
X34291Y29388D01*
X34394Y29345D01*
X34504Y29331D01*
X34614Y29345D01*
X34716Y29388D01*
X34804Y29455D01*
X34872Y29543D01*
X34914Y29646D01*
X34929Y29756D01*
X34914Y29866D01*
X34872Y29968D01*
X34868Y29973D01*
X35172Y30277D01*
X35195Y30310D01*
X35196Y30317D01*
X35203Y30350D01*
X35203Y30350D01*
Y35352D01*
X35195Y35391D01*
X35172Y35425D01*
X34238Y36359D01*
Y37019D01*
X34271D01*
Y37286D01*
X35457D01*
X35457Y37286D01*
X35497Y37294D01*
X35531Y37316D01*
X38997Y40782D01*
X39077Y40749D01*
X39173Y40736D01*
X39269Y40749D01*
X39358Y40786D01*
X39435Y40845D01*
X39494Y40921D01*
X39531Y41011D01*
X39543Y41105D01*
X39546Y41108D01*
X39591Y41128D01*
X41332Y39387D01*
X41366Y39364D01*
X41373Y39363D01*
X41406Y39356D01*
X41406Y39356D01*
X42153D01*
Y39094D01*
X42415D01*
Y38310D01*
X42415Y38310D01*
X42423Y38270D01*
X42446Y38237D01*
X42946Y37737D01*
Y36874D01*
X42896Y36857D01*
X42860Y36903D01*
X42783Y36962D01*
X42694Y36999D01*
X42598Y37012D01*
X42503Y36999D01*
X42413Y36962D01*
X42337Y36903D01*
X42278Y36827D01*
X42244Y36746D01*
X41150D01*
X41110Y36738D01*
X41076Y36716D01*
X40864Y36504D01*
X40583D01*
Y36016D01*
X40953D01*
Y36297D01*
X41193Y36537D01*
X42244D01*
X42278Y36457D01*
X42337Y36380D01*
X42413Y36321D01*
X42503Y36284D01*
X42598Y36272D01*
X42694Y36284D01*
X42783Y36321D01*
X42817Y36347D01*
X42850Y36310D01*
X42549Y36009D01*
X42231D01*
Y35275D01*
X42965D01*
Y36009D01*
X42910D01*
X42891Y36055D01*
X43124Y36288D01*
X43124Y36288D01*
X43139Y36310D01*
X43146Y36322D01*
X43154Y36362D01*
X43154Y36362D01*
Y37780D01*
X43154Y37780D01*
X43148Y37813D01*
X43146Y37820D01*
X43124Y37854D01*
X43124Y37854D01*
X42624Y38354D01*
Y39094D01*
X42887D01*
Y39828D01*
X42153D01*
Y39565D01*
X41449D01*
X39734Y41280D01*
Y45355D01*
X39784Y45367D01*
X39854Y45313D01*
X39944Y45276D01*
X40039Y45264D01*
X40135Y45276D01*
X40224Y45313D01*
X40301Y45372D01*
X40360Y45449D01*
X40397Y45538D01*
X40409Y45634D01*
X40397Y45730D01*
X40363Y45810D01*
X40889Y46336D01*
X40889Y46336D01*
X40911Y46370D01*
X40913Y46376D01*
X40919Y46409D01*
X40919Y46409D01*
Y47559D01*
X41000Y47593D01*
X41077Y47652D01*
X41135Y47728D01*
X41172Y47818D01*
X41185Y47913D01*
X41172Y48009D01*
X41135Y48098D01*
X41077Y48175D01*
X41000Y48234D01*
X40911Y48271D01*
X40815Y48283D01*
X40719Y48271D01*
X40630Y48234D01*
X40553Y48175D01*
X40494Y48098D01*
X40457Y48009D01*
X40445Y47913D01*
X40457Y47818D01*
X40494Y47728D01*
X40553Y47652D01*
X40630Y47593D01*
X40711Y47559D01*
Y46453D01*
X40216Y45958D01*
X40135Y45991D01*
X40039Y46004D01*
X39944Y45991D01*
X39854Y45954D01*
X39784Y45901D01*
X39734Y45913D01*
Y47546D01*
X40182D01*
Y48280D01*
X39448D01*
Y47546D01*
X39526D01*
Y41332D01*
X39476Y41315D01*
X39435Y41368D01*
X39358Y41427D01*
X39269Y41464D01*
X39173Y41476D01*
X39077Y41464D01*
X38988Y41427D01*
X38912Y41368D01*
X38853Y41291D01*
X38816Y41202D01*
X38803Y41106D01*
X38816Y41011D01*
X38849Y40930D01*
X35414Y37494D01*
X33840D01*
X33800Y37486D01*
X33766Y37464D01*
X33666Y37364D01*
X33659Y37353D01*
X33608D01*
Y39200D01*
X33658Y39222D01*
X33710Y39187D01*
X33790Y39171D01*
X33870Y39187D01*
X33938Y39232D01*
X33983Y39300D01*
X33999Y39380D01*
X33983Y39460D01*
X33938Y39528D01*
X33894Y39556D01*
Y44867D01*
X34354Y45327D01*
X34397Y45298D01*
X34389Y45281D01*
X34377Y45189D01*
X34389Y45097D01*
X34420Y45024D01*
X34266Y44871D01*
X34244Y44837D01*
X34236Y44797D01*
X34236Y44797D01*
Y40516D01*
X34192Y40488D01*
X34147Y40420D01*
X34131Y40340D01*
X34147Y40260D01*
X34192Y40192D01*
X34260Y40147D01*
X34340Y40131D01*
X34420Y40147D01*
X34488Y40192D01*
X34533Y40260D01*
X34549Y40340D01*
X34533Y40420D01*
X34488Y40488D01*
X34444Y40516D01*
Y41910D01*
X34494Y41928D01*
X34555Y41882D01*
X34640Y41846D01*
X34732Y41834D01*
X34824Y41846D01*
X34910Y41882D01*
X34983Y41938D01*
X35040Y42011D01*
X35075Y42097D01*
X35087Y42189D01*
X35075Y42281D01*
X35040Y42366D01*
X34983Y42440D01*
X34910Y42496D01*
X34824Y42532D01*
X34732Y42544D01*
X34640Y42532D01*
X34555Y42496D01*
X34494Y42450D01*
X34444Y42468D01*
Y42910D01*
X34494Y42928D01*
X34555Y42882D01*
X34640Y42846D01*
X34732Y42834D01*
X34824Y42846D01*
X34910Y42882D01*
X34983Y42938D01*
X35040Y43011D01*
X35075Y43097D01*
X35087Y43189D01*
X35075Y43281D01*
X35040Y43366D01*
X34983Y43440D01*
X34910Y43496D01*
X34824Y43532D01*
X34732Y43544D01*
X34640Y43532D01*
X34555Y43496D01*
X34494Y43450D01*
X34444Y43468D01*
Y43910D01*
X34494Y43928D01*
X34555Y43882D01*
X34640Y43846D01*
X34732Y43834D01*
X34824Y43846D01*
X34910Y43882D01*
X34983Y43938D01*
X35040Y44012D01*
X35075Y44097D01*
X35087Y44189D01*
X35075Y44281D01*
X35040Y44366D01*
X34983Y44440D01*
X34910Y44496D01*
X34824Y44532D01*
X34732Y44544D01*
X34640Y44532D01*
X34555Y44496D01*
X34494Y44450D01*
X34444Y44468D01*
Y44753D01*
X34567Y44876D01*
X34640Y44846D01*
X34732Y44834D01*
X34824Y44846D01*
X34910Y44882D01*
X34983Y44938D01*
X35040Y45012D01*
X35075Y45097D01*
X35087Y45189D01*
X35075Y45281D01*
X35040Y45366D01*
X34983Y45440D01*
X34910Y45496D01*
X34824Y45532D01*
X34732Y45544D01*
X34640Y45532D01*
X34623Y45525D01*
X34595Y45567D01*
X34806Y45778D01*
X34829Y45812D01*
X34836Y45851D01*
X34910Y45882D01*
X34983Y45938D01*
X35040Y46012D01*
X35075Y46097D01*
X35084Y46167D01*
X35136Y46185D01*
X35755Y45566D01*
X35755Y45566D01*
X35774Y45554D01*
X35782Y45507D01*
X35779Y45495D01*
X35763Y45482D01*
X35695Y45394D01*
X35653Y45291D01*
X35638Y45181D01*
X35653Y45071D01*
X35695Y44969D01*
X35763Y44881D01*
X35851Y44813D01*
X35953Y44771D01*
X36063Y44756D01*
X36173Y44771D01*
X36275Y44813D01*
X36363Y44881D01*
X36431Y44969D01*
X36473Y45071D01*
X36488Y45181D01*
X36473Y45291D01*
X36440Y45372D01*
X36482Y45400D01*
X36783Y45099D01*
Y44983D01*
X36783Y44983D01*
X36791Y44943D01*
X36814Y44909D01*
X37110Y44613D01*
X37071Y44520D01*
X37057Y44417D01*
X37071Y44315D01*
X37110Y44220D01*
X37173Y44138D01*
X37255Y44075D01*
X37257Y44074D01*
X37247Y44024D01*
X37120D01*
X37120Y44024D01*
X37087Y44018D01*
X37080Y44016D01*
X37046Y43994D01*
X37046Y43994D01*
X36696Y43644D01*
X36674Y43610D01*
X36666Y43570D01*
X36666Y43570D01*
Y43243D01*
X36528Y43106D01*
X36481Y43129D01*
X36488Y43181D01*
X36473Y43291D01*
X36431Y43394D01*
X36363Y43482D01*
X36275Y43549D01*
X36173Y43592D01*
X36063Y43606D01*
X35953Y43592D01*
X35851Y43549D01*
X35763Y43482D01*
X35695Y43394D01*
X35653Y43291D01*
X35638Y43181D01*
X35649Y43097D01*
X35603Y43068D01*
X35580Y43083D01*
X35500Y43099D01*
X35420Y43083D01*
X35352Y43038D01*
X35307Y42970D01*
X35291Y42890D01*
X35307Y42810D01*
X35352Y42742D01*
X35420Y42697D01*
X35500Y42681D01*
X35551Y42691D01*
X35596Y42646D01*
X35596Y42646D01*
X35630Y42624D01*
X35670Y42616D01*
X35881D01*
X35891Y42566D01*
X35851Y42549D01*
X35763Y42482D01*
X35695Y42394D01*
X35653Y42291D01*
X35638Y42181D01*
X35653Y42071D01*
X35695Y41969D01*
X35763Y41881D01*
X35851Y41813D01*
X35953Y41771D01*
X36063Y41756D01*
X36173Y41771D01*
X36275Y41813D01*
X36363Y41881D01*
X36431Y41969D01*
X36473Y42071D01*
X36488Y42181D01*
X36473Y42291D01*
X36431Y42394D01*
X36363Y42482D01*
X36275Y42549D01*
X36247Y42561D01*
X36257Y42611D01*
X36290Y42616D01*
X36330Y42624D01*
X36364Y42646D01*
X36844Y43126D01*
X36844Y43126D01*
X36859Y43149D01*
X36866Y43160D01*
X36874Y43200D01*
X36874Y43200D01*
Y43527D01*
X37163Y43816D01*
X37260D01*
X37269Y43766D01*
X37255Y43760D01*
X37173Y43697D01*
X37110Y43615D01*
X37071Y43520D01*
X37057Y43417D01*
X37071Y43315D01*
X37110Y43220D01*
X37173Y43138D01*
X37255Y43075D01*
X37350Y43035D01*
X37453Y43022D01*
X37555Y43035D01*
X37650Y43075D01*
X37732Y43138D01*
X37795Y43220D01*
X37835Y43315D01*
X37848Y43417D01*
X37835Y43520D01*
X37795Y43615D01*
X37732Y43697D01*
X37650Y43760D01*
X37636Y43766D01*
X37646Y43816D01*
X37810D01*
X37810Y43816D01*
X37850Y43824D01*
X37864Y43833D01*
X37914Y43808D01*
Y41868D01*
X37890Y41849D01*
X37810Y41833D01*
X37742Y41788D01*
X37697Y41720D01*
X37681Y41640D01*
X37697Y41560D01*
X37742Y41492D01*
X37810Y41447D01*
X37890Y41431D01*
X37906Y41434D01*
X37931Y41388D01*
X34781Y38239D01*
X34730Y38249D01*
X34650Y38233D01*
X34582Y38188D01*
X34537Y38120D01*
X34521Y38040D01*
X34537Y37960D01*
X34582Y37892D01*
X34650Y37847D01*
X34730Y37831D01*
X34810Y37847D01*
X34878Y37892D01*
X34923Y37960D01*
X34939Y38040D01*
X34929Y38091D01*
X38964Y42126D01*
X38964Y42126D01*
X38986Y42160D01*
X38994Y42200D01*
Y48740D01*
X38986Y48780D01*
X38964Y48814D01*
X38964Y48814D01*
X38794Y48984D01*
X38760Y49006D01*
X38720Y49014D01*
X38720Y49014D01*
X38635D01*
X38625Y49064D01*
X38650Y49075D01*
X38732Y49138D01*
X38795Y49220D01*
X38835Y49315D01*
X38848Y49417D01*
X38835Y49520D01*
X38795Y49615D01*
X38732Y49697D01*
X38650Y49760D01*
X38555Y49799D01*
X38453Y49813D01*
X38350Y49799D01*
X38255Y49760D01*
X38173Y49697D01*
X38110Y49615D01*
X38071Y49520D01*
X38057Y49417D01*
X38071Y49318D01*
X38067Y49314D01*
X38034Y49300D01*
X37994Y49328D01*
Y50840D01*
X37986Y50880D01*
X37964Y50914D01*
X37964Y50914D01*
X37816Y51062D01*
X37834Y51114D01*
X37963Y51127D01*
X38124Y51175D01*
X38272Y51255D01*
X38402Y51361D01*
X38509Y51492D01*
X38588Y51640D01*
X38637Y51801D01*
X38654Y51968D01*
X38637Y52136D01*
X38588Y52297D01*
X38509Y52445D01*
X38402Y52576D01*
X38272Y52682D01*
X38124Y52762D01*
X37963Y52810D01*
X37795Y52827D01*
X37628Y52810D01*
X37467Y52762D01*
X37318Y52682D01*
X37188Y52576D01*
X37081Y52445D01*
X37002Y52297D01*
X36953Y52136D01*
X36937Y51968D01*
X36953Y51801D01*
X37002Y51640D01*
X37081Y51492D01*
X37188Y51361D01*
X37318Y51255D01*
X37359Y51233D01*
X37347Y51184D01*
X37207D01*
X36428Y51964D01*
X36431Y51969D01*
X36473Y52071D01*
X36488Y52181D01*
X36473Y52291D01*
X36431Y52394D01*
X36363Y52482D01*
X36275Y52549D01*
X36173Y52592D01*
X36063Y52606D01*
X35953Y52592D01*
X35851Y52549D01*
X35763Y52482D01*
X35695Y52394D01*
X35653Y52291D01*
X35638Y52181D01*
X35653Y52071D01*
X35695Y51969D01*
X35763Y51881D01*
X35851Y51813D01*
X35953Y51771D01*
X36063Y51756D01*
X36173Y51771D01*
X36275Y51813D01*
X36280Y51817D01*
X36761Y51335D01*
X36740Y51285D01*
X36474D01*
X36473Y51291D01*
X36431Y51394D01*
X36363Y51482D01*
X36275Y51549D01*
X36173Y51592D01*
X36063Y51606D01*
X35953Y51592D01*
X35851Y51549D01*
X35763Y51482D01*
X35695Y51394D01*
X35653Y51291D01*
X35638Y51181D01*
X35653Y51071D01*
X35695Y50969D01*
X35763Y50881D01*
X35851Y50813D01*
X35953Y50771D01*
X36063Y50756D01*
X36173Y50771D01*
X36239Y50798D01*
X36272Y50758D01*
X36247Y50720D01*
X36231Y50640D01*
X36237Y50613D01*
X36198Y50581D01*
X36173Y50592D01*
X36063Y50606D01*
X35953Y50592D01*
X35851Y50549D01*
X35763Y50482D01*
X35695Y50394D01*
X35653Y50291D01*
X35638Y50181D01*
X35653Y50071D01*
X35695Y49969D01*
X35763Y49881D01*
X35851Y49813D01*
X35953Y49771D01*
X36063Y49756D01*
X36173Y49771D01*
X36275Y49813D01*
X36363Y49881D01*
X36431Y49969D01*
X36473Y50071D01*
X36488Y50181D01*
X36473Y50291D01*
X36439Y50375D01*
X36463Y50421D01*
X36507Y50426D01*
X36666Y50267D01*
Y48100D01*
X36666Y48100D01*
X36674Y48060D01*
X36696Y48026D01*
X37110Y47613D01*
X37071Y47520D01*
X37057Y47417D01*
X37071Y47315D01*
X37110Y47220D01*
X37173Y47138D01*
X37255Y47075D01*
X37350Y47035D01*
X37453Y47022D01*
X37555Y47035D01*
X37650Y47075D01*
X37732Y47138D01*
X37795Y47220D01*
X37835Y47315D01*
X37848Y47417D01*
X37835Y47520D01*
X37795Y47615D01*
X37732Y47697D01*
X37650Y47760D01*
X37555Y47799D01*
X37453Y47813D01*
X37350Y47799D01*
X37257Y47761D01*
X36874Y48143D01*
Y49071D01*
X36924Y49080D01*
X36946Y49046D01*
X37146Y48846D01*
X37146Y48846D01*
X37180Y48824D01*
X37187Y48822D01*
X37220Y48816D01*
X37239Y48807D01*
X37245Y48791D01*
X37244Y48751D01*
X37173Y48697D01*
X37110Y48615D01*
X37071Y48520D01*
X37057Y48417D01*
X37071Y48315D01*
X37110Y48220D01*
X37173Y48138D01*
X37255Y48075D01*
X37350Y48035D01*
X37453Y48022D01*
X37555Y48035D01*
X37650Y48075D01*
X37732Y48138D01*
X37795Y48220D01*
X37835Y48315D01*
X37848Y48417D01*
X37845Y48442D01*
X37892Y48469D01*
X37914Y48453D01*
Y44819D01*
X37867Y44800D01*
X37754Y44914D01*
X37720Y44936D01*
X37680Y44944D01*
X37680Y44944D01*
X37633D01*
X37514Y45064D01*
X37480Y45086D01*
X37440Y45094D01*
X37440Y45094D01*
X37263D01*
X37124Y45233D01*
Y45941D01*
X37257Y46074D01*
X37350Y46035D01*
X37453Y46022D01*
X37555Y46035D01*
X37650Y46075D01*
X37732Y46138D01*
X37795Y46220D01*
X37835Y46315D01*
X37848Y46417D01*
X37835Y46520D01*
X37795Y46615D01*
X37732Y46697D01*
X37650Y46760D01*
X37555Y46799D01*
X37453Y46813D01*
X37350Y46799D01*
X37255Y46760D01*
X37253Y46758D01*
X37240Y46766D01*
X37200Y46774D01*
X37200Y46774D01*
X36307D01*
X36290Y46824D01*
X36363Y46881D01*
X36431Y46969D01*
X36473Y47071D01*
X36488Y47181D01*
X36473Y47291D01*
X36431Y47394D01*
X36363Y47482D01*
X36275Y47549D01*
X36173Y47592D01*
X36063Y47606D01*
X35953Y47592D01*
X35851Y47549D01*
X35763Y47482D01*
X35695Y47394D01*
X35653Y47291D01*
X35638Y47181D01*
X35646Y47121D01*
X35610Y47074D01*
X35573Y47108D01*
Y50560D01*
X35565Y50600D01*
X35542Y50634D01*
X35372Y50804D01*
X35338Y50827D01*
X35298Y50835D01*
X35298Y50835D01*
X34949D01*
X34941Y50844D01*
X34950Y50912D01*
X34983Y50938D01*
X35040Y51012D01*
X35075Y51097D01*
X35087Y51189D01*
X35075Y51281D01*
X35040Y51366D01*
X34983Y51440D01*
X34910Y51496D01*
X34824Y51532D01*
X34732Y51544D01*
X34640Y51532D01*
X34555Y51496D01*
X34481Y51440D01*
X34425Y51366D01*
X34389Y51281D01*
X34377Y51189D01*
X34389Y51097D01*
X34425Y51012D01*
X34481Y50938D01*
X34515Y50912D01*
X34523Y50844D01*
X34516Y50835D01*
X34283D01*
X33334Y51784D01*
Y54178D01*
X33378Y54181D01*
X33382Y54181D01*
X33384Y54181D01*
X33384Y54181D01*
X33388Y54150D01*
X33389Y54149D01*
X33389Y54149D01*
X33395Y54097D01*
X33431Y54012D01*
X33487Y53938D01*
X33561Y53882D01*
X33646Y53846D01*
X33738Y53834D01*
X33830Y53846D01*
X33916Y53882D01*
X33989Y53938D01*
X34046Y54012D01*
X34081Y54097D01*
X34093Y54189D01*
X34081Y54281D01*
X34046Y54366D01*
X33989Y54440D01*
X33916Y54496D01*
X33843Y54527D01*
Y54809D01*
X33860Y54836D01*
X33862Y54842D01*
X33868Y54875D01*
X33868Y54875D01*
Y55097D01*
X33949Y55131D01*
X34025Y55189D01*
X34084Y55266D01*
X34121Y55355D01*
X34134Y55451D01*
Y55651D01*
X34121Y55747D01*
X34084Y55836D01*
X34025Y55913D01*
X33949Y55972D01*
X33860Y56009D01*
X33764Y56021D01*
X33668Y56009D01*
X33579Y55972D01*
X33502Y55913D01*
X33443Y55836D01*
X33406Y55747D01*
X33394Y55651D01*
Y55451D01*
X33406Y55355D01*
X33443Y55266D01*
X33502Y55189D01*
X33579Y55131D01*
X33659Y55097D01*
Y54916D01*
X33642Y54890D01*
X33634Y54850D01*
X33634Y54850D01*
Y54527D01*
X33561Y54496D01*
X33487Y54440D01*
X33431Y54366D01*
X33395Y54281D01*
X33389Y54229D01*
X33389Y54229D01*
X33388Y54228D01*
X33384Y54197D01*
X33384Y54197D01*
X33382Y54197D01*
X33378Y54197D01*
X33334Y54200D01*
Y54580D01*
X33334Y54580D01*
X33328Y54613D01*
X33326Y54620D01*
X33304Y54654D01*
X33304Y54654D01*
X32901Y55057D01*
X32913Y55116D01*
X32949Y55131D01*
X33025Y55189D01*
X33084Y55266D01*
X33121Y55355D01*
X33134Y55451D01*
Y55651D01*
X33121Y55747D01*
X33084Y55836D01*
X33025Y55913D01*
X32949Y55972D01*
X32860Y56009D01*
X32764Y56021D01*
X32668Y56009D01*
X32579Y55972D01*
X32502Y55913D01*
X32443Y55836D01*
X32439Y55827D01*
X32390Y55817D01*
X32074Y56134D01*
X32040Y56156D01*
X32000Y56164D01*
X32000Y56164D01*
X30470D01*
X30470Y56164D01*
X30430Y56156D01*
X30396Y56134D01*
X30181Y55918D01*
X30162Y55921D01*
X30131Y55936D01*
Y56018D01*
X29397D01*
Y55084D01*
X29659D01*
Y54916D01*
X29642Y54890D01*
X29634Y54850D01*
X29634Y54850D01*
Y54527D01*
X29561Y54496D01*
X29487Y54440D01*
X29431Y54366D01*
X29395Y54281D01*
X29383Y54189D01*
X29395Y54097D01*
X29431Y54012D01*
X29487Y53938D01*
X29561Y53882D01*
X29646Y53846D01*
X29738Y53834D01*
X29793Y53841D01*
X29816Y53794D01*
X29676Y53654D01*
X29654Y53620D01*
X29646Y53580D01*
X29646Y53580D01*
Y53250D01*
X28897Y52502D01*
X28824Y52532D01*
X28732Y52544D01*
X28640Y52532D01*
X28555Y52496D01*
X28494Y52450D01*
X28444Y52468D01*
Y52753D01*
X28567Y52876D01*
X28640Y52846D01*
X28732Y52834D01*
X28824Y52846D01*
X28910Y52882D01*
X28983Y52938D01*
X29040Y53011D01*
X29075Y53097D01*
X29087Y53189D01*
X29075Y53281D01*
X29040Y53366D01*
X28983Y53440D01*
X28910Y53496D01*
X28824Y53532D01*
X28732Y53544D01*
X28640Y53532D01*
X28555Y53496D01*
X28481Y53440D01*
X28425Y53366D01*
X28389Y53281D01*
X28377Y53189D01*
X28389Y53097D01*
X28420Y53024D01*
X28266Y52870D01*
X28244Y52837D01*
X28236Y52797D01*
X28236Y52797D01*
Y49920D01*
X28236Y49920D01*
X28244Y49880D01*
X28266Y49846D01*
X28386Y49726D01*
X28386Y49726D01*
X28420Y49704D01*
X28427Y49702D01*
X28460Y49696D01*
X28460Y49696D01*
X28640D01*
X28748Y49588D01*
X28722Y49543D01*
X28640Y49532D01*
X28555Y49496D01*
X28481Y49440D01*
X28425Y49366D01*
X28389Y49281D01*
X28377Y49189D01*
X28389Y49097D01*
X28425Y49012D01*
X28481Y48938D01*
X28555Y48882D01*
X28640Y48846D01*
X28732Y48834D01*
X28824Y48846D01*
X28910Y48882D01*
X28966Y48924D01*
X29016Y48902D01*
Y48476D01*
X28966Y48454D01*
X28910Y48496D01*
X28824Y48532D01*
X28732Y48544D01*
X28640Y48532D01*
X28555Y48496D01*
X28481Y48440D01*
X28425Y48366D01*
X28389Y48281D01*
X28377Y48189D01*
X28389Y48097D01*
X28420Y48024D01*
X27766Y47371D01*
X27759Y47360D01*
X27703Y47365D01*
X27691Y47394D01*
X27623Y47482D01*
X27535Y47549D01*
X27433Y47592D01*
X27323Y47606D01*
X27213Y47592D01*
X27110Y47549D01*
X27022Y47482D01*
X26955Y47394D01*
X26912Y47291D01*
X26898Y47181D01*
X26912Y47071D01*
X26955Y46969D01*
X27022Y46881D01*
X27110Y46813D01*
X27213Y46771D01*
X27323Y46756D01*
X27433Y46771D01*
X27535Y46813D01*
X27623Y46881D01*
X27686Y46962D01*
X27710Y46960D01*
X27736Y46948D01*
Y46414D01*
X27710Y46402D01*
X27686Y46400D01*
X27623Y46482D01*
X27535Y46549D01*
X27433Y46592D01*
X27323Y46606D01*
X27213Y46592D01*
X27110Y46549D01*
X27022Y46482D01*
X26955Y46394D01*
X26912Y46291D01*
X26898Y46181D01*
X26912Y46071D01*
X26955Y45969D01*
X26958Y45964D01*
X26879Y45885D01*
X26833Y45904D01*
Y48543D01*
X27106Y48817D01*
X27110Y48813D01*
X27213Y48771D01*
X27323Y48756D01*
X27433Y48771D01*
X27535Y48813D01*
X27623Y48881D01*
X27691Y48969D01*
X27733Y49071D01*
X27748Y49181D01*
X27733Y49291D01*
X27691Y49394D01*
X27623Y49482D01*
X27535Y49549D01*
X27433Y49592D01*
X27323Y49606D01*
X27213Y49592D01*
X27110Y49549D01*
X27022Y49482D01*
X26955Y49394D01*
X26912Y49291D01*
X26912Y49285D01*
X26790D01*
X26790Y49285D01*
X26757Y49279D01*
X26750Y49278D01*
X26716Y49255D01*
X26716Y49255D01*
X24616Y47155D01*
X24594Y47121D01*
X24586Y47081D01*
X24586Y47081D01*
Y46592D01*
X22819Y44824D01*
X21331D01*
X19993Y46162D01*
X20027Y46243D01*
X20039Y46339D01*
X20027Y46434D01*
X19990Y46524D01*
X19931Y46600D01*
X19854Y46659D01*
X19765Y46696D01*
X19669Y46709D01*
X19574Y46696D01*
X19493Y46663D01*
X19444Y46711D01*
Y48998D01*
X19494Y49015D01*
X19526Y48975D01*
X19602Y48916D01*
X19692Y48879D01*
X19787Y48866D01*
X19883Y48879D01*
X19972Y48916D01*
X20049Y48975D01*
X20108Y49051D01*
X20145Y49140D01*
X20157Y49236D01*
X20145Y49332D01*
X20108Y49421D01*
X20049Y49498D01*
X19972Y49557D01*
X19883Y49594D01*
X19787Y49606D01*
X19692Y49594D01*
X19602Y49557D01*
X19526Y49498D01*
X19494Y49457D01*
X19444Y49474D01*
Y54746D01*
X19611Y54912D01*
X19692Y54879D01*
X19787Y54866D01*
X19883Y54879D01*
X19972Y54916D01*
X20049Y54975D01*
X20108Y55051D01*
X20145Y55140D01*
X20157Y55236D01*
X20145Y55332D01*
X20108Y55421D01*
X20049Y55498D01*
X19972Y55557D01*
X19883Y55594D01*
X19787Y55606D01*
X19692Y55594D01*
X19602Y55557D01*
X19526Y55498D01*
X19467Y55421D01*
X19430Y55332D01*
X19417Y55236D01*
X19430Y55140D01*
X19463Y55060D01*
X19266Y54863D01*
X16668Y52264D01*
X14770D01*
X14730Y52256D01*
X14696Y52234D01*
X14696Y52234D01*
X14376Y51914D01*
X14354Y51880D01*
X14346Y51840D01*
X14346Y51840D01*
Y43774D01*
X14346Y43774D01*
X14354Y43734D01*
X14376Y43701D01*
X14637Y43440D01*
X14603Y43360D01*
X14591Y43264D01*
X14603Y43168D01*
X14640Y43079D01*
X14699Y43002D01*
X14776Y42943D01*
X14865Y42906D01*
X14961Y42894D01*
X15056Y42906D01*
X15146Y42943D01*
X15222Y43002D01*
X15281Y43079D01*
X15318Y43168D01*
X15331Y43264D01*
X15318Y43360D01*
X15281Y43449D01*
X15222Y43525D01*
X15146Y43584D01*
X15056Y43621D01*
X14961Y43634D01*
X14865Y43621D01*
X14784Y43588D01*
X14554Y43818D01*
Y46160D01*
X14603Y46168D01*
X14640Y46079D01*
X14699Y46002D01*
X14776Y45943D01*
X14865Y45906D01*
X14961Y45894D01*
X15056Y45906D01*
X15137Y45940D01*
X18806Y42271D01*
Y39637D01*
X18756Y39622D01*
X18755Y39623D01*
X18755Y39623D01*
X17354Y41024D01*
X17320Y41046D01*
X17280Y41054D01*
X17280Y41054D01*
X15680D01*
X15640Y41046D01*
X15606Y41024D01*
X15606Y41024D01*
X15076Y40494D01*
X15054Y40460D01*
X15046Y40420D01*
X15046Y40420D01*
Y27596D01*
X15002Y27568D01*
X14957Y27500D01*
X14952Y27476D01*
X14898Y27459D01*
X14294Y28063D01*
Y50870D01*
X14286Y50910D01*
X14264Y50944D01*
X14264Y50944D01*
X14094Y51114D01*
X14060Y51136D01*
X14020Y51144D01*
X14020Y51144D01*
X13050D01*
X13010Y51136D01*
X12976Y51114D01*
X12976Y51114D01*
X10506Y48644D01*
X10484Y48610D01*
X10476Y48570D01*
X10476Y48570D01*
Y48280D01*
X9802D01*
Y47546D01*
X10476D01*
Y46537D01*
X10405Y46466D01*
X10324Y46499D01*
X10228Y46512D01*
X10133Y46499D01*
X10043Y46462D01*
X9967Y46403D01*
X9908Y46327D01*
X9871Y46238D01*
X9858Y46142D01*
X9871Y46046D01*
X9908Y45957D01*
X9967Y45880D01*
X10043Y45821D01*
X10133Y45784D01*
X10228Y45772D01*
X10324Y45784D01*
X10413Y45821D01*
X10490Y45880D01*
X10549Y45957D01*
X10566Y45997D01*
X10616Y45987D01*
Y45725D01*
X10614Y45724D01*
X10592Y45690D01*
X10584Y45650D01*
X10584Y45650D01*
Y45363D01*
X10534Y45346D01*
X10490Y45403D01*
X10413Y45462D01*
X10324Y45499D01*
X10228Y45512D01*
X10133Y45499D01*
X10043Y45462D01*
X9967Y45403D01*
X9908Y45327D01*
X9871Y45238D01*
X9858Y45142D01*
X9871Y45046D01*
X9908Y44957D01*
X9967Y44880D01*
X10043Y44821D01*
X10133Y44784D01*
X10228Y44772D01*
X10324Y44784D01*
X10413Y44821D01*
X10490Y44880D01*
X10534Y44937D01*
X10584Y44920D01*
Y44363D01*
X10534Y44346D01*
X10490Y44403D01*
X10413Y44462D01*
X10324Y44499D01*
X10228Y44512D01*
X10133Y44499D01*
X10043Y44462D01*
X9967Y44403D01*
X9908Y44327D01*
X9871Y44238D01*
X9858Y44142D01*
X9871Y44046D01*
X9908Y43957D01*
X9967Y43880D01*
X10043Y43821D01*
X10133Y43784D01*
X10228Y43772D01*
X10324Y43784D01*
X10413Y43821D01*
X10490Y43880D01*
X10534Y43937D01*
X10584Y43920D01*
Y43363D01*
X10534Y43346D01*
X10490Y43403D01*
X10413Y43462D01*
X10324Y43499D01*
X10228Y43512D01*
X10133Y43499D01*
X10043Y43462D01*
X9967Y43403D01*
X9908Y43327D01*
X9871Y43238D01*
X9858Y43142D01*
X9871Y43046D01*
X9908Y42957D01*
X9967Y42880D01*
X10043Y42821D01*
X10133Y42784D01*
X10228Y42772D01*
X10324Y42784D01*
X10413Y42821D01*
X10490Y42880D01*
X10534Y42937D01*
X10584Y42920D01*
Y42363D01*
X10534Y42346D01*
X10490Y42403D01*
X10413Y42462D01*
X10324Y42499D01*
X10228Y42512D01*
X10133Y42499D01*
X10043Y42462D01*
X9967Y42403D01*
X9908Y42327D01*
X9871Y42238D01*
X9858Y42142D01*
X9871Y42046D01*
X9904Y41965D01*
X9746Y41807D01*
X9724Y41773D01*
X9716Y41733D01*
X9716Y41733D01*
Y40910D01*
X9716Y40910D01*
X9724Y40870D01*
X9746Y40836D01*
X10006Y40576D01*
X10006Y40576D01*
X10029Y40561D01*
X10040Y40554D01*
X10080Y40546D01*
X10080Y40546D01*
X10121D01*
X10133Y40499D01*
X10043Y40462D01*
X9967Y40403D01*
X9908Y40327D01*
X9871Y40238D01*
X9858Y40142D01*
X9871Y40046D01*
X9904Y39965D01*
X9606Y39667D01*
X9584Y39633D01*
X9576Y39593D01*
X9576Y39593D01*
Y28870D01*
X9576Y28870D01*
X9584Y28830D01*
X9606Y28796D01*
X11206Y27196D01*
X11206Y27196D01*
X11240Y27174D01*
X11247Y27172D01*
X11280Y27166D01*
X11280Y27166D01*
X12157D01*
X12169Y27117D01*
X12121Y27092D01*
X11991Y26985D01*
X11885Y26855D01*
X11805Y26706D01*
X11756Y26545D01*
X11740Y26378D01*
X11756Y26210D01*
X11805Y26049D01*
X11885Y25901D01*
X11991Y25771D01*
X12121Y25664D01*
X12270Y25585D01*
X12431Y25536D01*
X12598Y25519D01*
X12766Y25536D01*
X12927Y25585D01*
X13075Y25664D01*
X13205Y25771D01*
X13312Y25901D01*
X13339Y25950D01*
X13391Y25943D01*
X13394Y25930D01*
X13416Y25896D01*
X15136Y24176D01*
X15136Y24176D01*
X15170Y24154D01*
X15210Y24146D01*
X18620D01*
X18620Y24146D01*
X18660Y24154D01*
X18694Y24176D01*
X19084Y24566D01*
X19084Y24566D01*
X19086Y24570D01*
X19136Y24555D01*
Y21215D01*
X19096Y21186D01*
X18635Y21342D01*
X17855Y21646D01*
X17089Y21983D01*
X16338Y22353D01*
X15605Y22756D01*
X14889Y23190D01*
X14193Y23655D01*
X13518Y24150D01*
X12865Y24674D01*
X12236Y25226D01*
X11631Y25805D01*
X11052Y26409D01*
X10501Y27038D01*
X9977Y27691D01*
X9482Y28366D01*
X9017Y29062D01*
X8583Y29778D01*
X8180Y30512D01*
X7810Y31262D01*
X7473Y32028D01*
X7169Y32809D01*
X6900Y33601D01*
X6666Y34405D01*
X6467Y35218D01*
X6304Y36039D01*
X6176Y36866D01*
X6085Y37698D01*
X6030Y38533D01*
X6012Y39370D01*
X6030Y40207D01*
X6085Y41042D01*
X6176Y41874D01*
X6304Y42701D01*
X6467Y43522D01*
X6666Y44335D01*
X6900Y45139D01*
X7169Y45932D01*
X7473Y46712D01*
X7810Y47478D01*
X8180Y48229D01*
X8583Y48962D01*
X9017Y49678D01*
X9482Y50374D01*
X9977Y51049D01*
X10501Y51702D01*
X11052Y52331D01*
X11631Y52936D01*
X12236Y53514D01*
X12865Y54066D01*
X13518Y54590D01*
X14193Y55085D01*
X14889Y55550D01*
X15605Y55984D01*
X16338Y56387D01*
X17089Y56757D01*
X17855Y57094D01*
X18635Y57398D01*
X19428Y57667D01*
X20232Y57901D01*
X21045Y58100D01*
X21865Y58263D01*
X22693Y58391D01*
X23525Y58482D01*
X24360Y58536D01*
X25197Y58555D01*
X26034Y58536D01*
D02*
G37*
G36*
X20403Y31025D02*
X20418Y31014D01*
X20430Y30920D01*
X20463Y30839D01*
X18066Y28442D01*
X18044Y28408D01*
X18036Y28368D01*
X18036Y28368D01*
Y25643D01*
X17567Y25174D01*
X16335D01*
X16316Y25221D01*
X16418Y25324D01*
X16426Y25323D01*
X16468Y25307D01*
Y25248D01*
X17311D01*
Y26091D01*
X17355Y26106D01*
X17440D01*
X17440Y26106D01*
X17480Y26114D01*
X17514Y26136D01*
X17694Y26316D01*
X17694Y26316D01*
X17716Y26350D01*
X17724Y26390D01*
Y28392D01*
X20373Y31040D01*
X20403Y31025D01*
D02*
G37*
G36*
X20692Y31658D02*
X20787Y31646D01*
X20810Y31649D01*
X20834Y31601D01*
X20755Y31522D01*
X20603D01*
X20603Y31522D01*
X20563Y31515D01*
X20529Y31492D01*
X17546Y28509D01*
X17524Y28475D01*
X17516Y28435D01*
X17516Y28435D01*
Y26433D01*
X17397Y26314D01*
X17197D01*
X17181Y26362D01*
X17190Y26369D01*
X17258Y26457D01*
X17300Y26559D01*
X17315Y26669D01*
X17300Y26779D01*
X17258Y26882D01*
X17254Y26886D01*
X17424Y27056D01*
X17424Y27056D01*
X17446Y27090D01*
X17448Y27096D01*
X17454Y27130D01*
X17454Y27130D01*
Y30867D01*
X17558Y30970D01*
X17558Y30970D01*
X17581Y31004D01*
X17589Y31044D01*
Y31228D01*
X17639Y31233D01*
X17647Y31190D01*
X17692Y31122D01*
X17760Y31077D01*
X17840Y31061D01*
X17920Y31077D01*
X17988Y31122D01*
X18016Y31166D01*
X18433D01*
X18459Y31116D01*
X18441Y31088D01*
X18425Y31008D01*
X18441Y30928D01*
X18486Y30860D01*
X18554Y30815D01*
X18634Y30799D01*
X18713Y30815D01*
X18781Y30860D01*
X18810Y30903D01*
X19779D01*
X19779Y30903D01*
X19819Y30911D01*
X19853Y30934D01*
X20611Y31692D01*
X20692Y31658D01*
D02*
G37*
G36*
X34994Y31341D02*
Y30394D01*
X34721Y30120D01*
X34716Y30124D01*
X34614Y30166D01*
X34504Y30181D01*
X34394Y30166D01*
X34291Y30124D01*
X34274Y30111D01*
X34224Y30135D01*
Y30329D01*
X34287Y30391D01*
X34291Y30388D01*
X34394Y30345D01*
X34504Y30331D01*
X34614Y30345D01*
X34716Y30388D01*
X34804Y30455D01*
X34872Y30543D01*
X34914Y30646D01*
X34929Y30756D01*
X34914Y30866D01*
X34872Y30968D01*
X34804Y31056D01*
X34716Y31124D01*
X34666Y31145D01*
X34676Y31195D01*
X34740D01*
X34740Y31195D01*
X34780Y31203D01*
X34814Y31225D01*
X34948Y31360D01*
X34994Y31341D01*
D02*
G37*
G36*
X32936Y50197D02*
Y48805D01*
X32889Y48785D01*
X32651Y49024D01*
X32681Y49097D01*
X32693Y49189D01*
X32681Y49281D01*
X32646Y49366D01*
X32589Y49440D01*
X32516Y49496D01*
X32430Y49532D01*
X32338Y49544D01*
X32246Y49532D01*
X32161Y49496D01*
X32104Y49453D01*
X32054Y49475D01*
Y49903D01*
X32104Y49925D01*
X32161Y49882D01*
X32246Y49846D01*
X32338Y49834D01*
X32430Y49846D01*
X32516Y49882D01*
X32589Y49938D01*
X32646Y50012D01*
X32681Y50097D01*
X32693Y50189D01*
X32681Y50281D01*
X32646Y50366D01*
X32589Y50440D01*
X32543Y50476D01*
X32560Y50526D01*
X32607D01*
X32936Y50197D01*
D02*
G37*
G36*
X18649Y34806D02*
X18649Y34806D01*
X18683Y34784D01*
X18723Y34776D01*
X19781D01*
X19781Y34776D01*
X19821Y34784D01*
X19855Y34806D01*
X19951Y34902D01*
X19997Y34883D01*
Y33365D01*
X18626Y31994D01*
X18575Y32004D01*
X18495Y31988D01*
X18427Y31943D01*
X18382Y31875D01*
X18366Y31795D01*
X18382Y31715D01*
X18427Y31647D01*
X18495Y31602D01*
X18575Y31586D01*
X18655Y31602D01*
X18723Y31647D01*
X18768Y31715D01*
X18784Y31795D01*
X18774Y31846D01*
X20138Y33210D01*
X20188Y33190D01*
Y31946D01*
X19616Y31374D01*
X18016D01*
X17988Y31418D01*
X17920Y31463D01*
X17840Y31479D01*
X17760Y31463D01*
X17692Y31418D01*
X17647Y31350D01*
X17639Y31307D01*
X17589Y31312D01*
Y31668D01*
X17639Y31683D01*
X17652Y31662D01*
X17720Y31617D01*
X17800Y31601D01*
X17880Y31617D01*
X17948Y31662D01*
X17993Y31730D01*
X18009Y31810D01*
X17999Y31861D01*
X18285Y32148D01*
X18285Y32148D01*
X18308Y32182D01*
X18316Y32222D01*
Y35068D01*
X18366Y35089D01*
X18649Y34806D01*
D02*
G37*
G36*
X34856Y32445D02*
Y32067D01*
X34809Y32050D01*
X34804Y32056D01*
X34716Y32124D01*
X34614Y32166D01*
X34504Y32181D01*
X34394Y32166D01*
X34291Y32124D01*
X34203Y32056D01*
X34136Y31968D01*
X34094Y31866D01*
X34079Y31756D01*
X34094Y31646D01*
X34136Y31543D01*
X34203Y31455D01*
X34210Y31451D01*
X34197Y31397D01*
X34189Y31396D01*
X34155Y31373D01*
X33896Y31114D01*
X33874Y31080D01*
X33869Y31055D01*
X33823Y31038D01*
X33818Y31038D01*
X33804Y31056D01*
X33716Y31124D01*
X33614Y31166D01*
X33504Y31181D01*
X33394Y31166D01*
X33291Y31124D01*
X33287Y31120D01*
X32876Y31531D01*
Y32030D01*
X32909Y32057D01*
X33055D01*
X33139Y31973D01*
X33136Y31968D01*
X33094Y31866D01*
X33079Y31756D01*
X33094Y31646D01*
X33136Y31543D01*
X33203Y31455D01*
X33291Y31388D01*
X33394Y31345D01*
X33504Y31331D01*
X33614Y31345D01*
X33716Y31388D01*
X33804Y31455D01*
X33872Y31543D01*
X33914Y31646D01*
X33929Y31756D01*
X33914Y31866D01*
X33872Y31968D01*
X33804Y32056D01*
X33716Y32124D01*
X33666Y32145D01*
X33676Y32195D01*
X34047D01*
X34047Y32195D01*
X34087Y32203D01*
X34121Y32225D01*
X34287Y32391D01*
X34291Y32388D01*
X34394Y32345D01*
X34504Y32331D01*
X34614Y32345D01*
X34716Y32388D01*
X34804Y32455D01*
X34809Y32461D01*
X34856Y32445D01*
D02*
G37*
G36*
X28555Y50882D02*
X28640Y50846D01*
X28732Y50834D01*
X28824Y50846D01*
X28897Y50876D01*
X29291Y50482D01*
Y49843D01*
X29245Y49824D01*
X29045Y50024D01*
X29075Y50097D01*
X29087Y50189D01*
X29075Y50281D01*
X29040Y50366D01*
X28983Y50440D01*
X28910Y50496D01*
X28824Y50532D01*
X28732Y50544D01*
X28640Y50532D01*
X28555Y50496D01*
X28494Y50450D01*
X28444Y50468D01*
Y50910D01*
X28494Y50928D01*
X28555Y50882D01*
D02*
G37*
%LPC*%
G36*
X10945Y33023D02*
X10816Y33010D01*
X10692Y32973D01*
X10578Y32912D01*
X10478Y32829D01*
X10396Y32729D01*
X10335Y32615D01*
X10297Y32491D01*
X10284Y32362D01*
X10297Y32233D01*
X10335Y32109D01*
X10396Y31995D01*
X10478Y31895D01*
X10578Y31813D01*
X10692Y31752D01*
X10816Y31714D01*
X10945Y31702D01*
X11074Y31714D01*
X11198Y31752D01*
X11312Y31813D01*
X11412Y31895D01*
X11494Y31995D01*
X11555Y32109D01*
X11593Y32233D01*
X11606Y32362D01*
X11593Y32491D01*
X11555Y32615D01*
X11494Y32729D01*
X11412Y32829D01*
X11312Y32912D01*
X11198Y32973D01*
X11074Y33010D01*
X10945Y33023D01*
D02*
G37*
G36*
X41327Y35835D02*
X40957D01*
Y35346D01*
X41037D01*
Y34024D01*
X40925Y33911D01*
X40844Y33944D01*
X40748Y33957D01*
X40652Y33944D01*
X40563Y33907D01*
X40486Y33848D01*
X40428Y33772D01*
X40391Y33682D01*
X40378Y33587D01*
X40391Y33491D01*
X40428Y33402D01*
X40486Y33325D01*
X40563Y33266D01*
X40652Y33229D01*
X40748Y33217D01*
X40844Y33229D01*
X40933Y33266D01*
X41010Y33325D01*
X41069Y33402D01*
X41106Y33491D01*
X41118Y33587D01*
X41106Y33682D01*
X41072Y33763D01*
X41216Y33907D01*
X41238Y33940D01*
X41239Y33947D01*
X41246Y33980D01*
X41246Y33980D01*
Y35346D01*
X41327D01*
Y35835D01*
D02*
G37*
G36*
X26787Y32386D02*
X26692Y32373D01*
X26602Y32336D01*
X26526Y32277D01*
X26467Y32201D01*
X26430Y32112D01*
X26417Y32016D01*
X26430Y31920D01*
X26467Y31831D01*
X26526Y31754D01*
X26602Y31695D01*
X26692Y31658D01*
X26787Y31646D01*
X26883Y31658D01*
X26972Y31695D01*
X27049Y31754D01*
X27108Y31831D01*
X27145Y31920D01*
X27157Y32016D01*
X27145Y32112D01*
X27108Y32201D01*
X27049Y32277D01*
X26972Y32336D01*
X26883Y32373D01*
X26787Y32386D01*
D02*
G37*
G36*
X34504Y26181D02*
X34394Y26166D01*
X34291Y26124D01*
X34203Y26056D01*
X34136Y25968D01*
X34094Y25866D01*
X34079Y25756D01*
X34094Y25646D01*
X34136Y25543D01*
X34203Y25455D01*
X34291Y25388D01*
X34394Y25345D01*
X34504Y25331D01*
X34614Y25345D01*
X34716Y25388D01*
X34804Y25455D01*
X34872Y25543D01*
X34914Y25646D01*
X34929Y25756D01*
X34914Y25866D01*
X34872Y25968D01*
X34804Y26056D01*
X34716Y26124D01*
X34614Y26166D01*
X34504Y26181D01*
D02*
G37*
G36*
X37795Y27236D02*
X37628Y27220D01*
X37467Y27171D01*
X37318Y27092D01*
X37188Y26985D01*
X37081Y26855D01*
X37002Y26706D01*
X36953Y26545D01*
X36937Y26378D01*
X36953Y26210D01*
X37002Y26049D01*
X37081Y25901D01*
X37188Y25771D01*
X37318Y25664D01*
X37467Y25585D01*
X37628Y25536D01*
X37795Y25519D01*
X37963Y25536D01*
X38124Y25585D01*
X38272Y25664D01*
X38402Y25771D01*
X38509Y25901D01*
X38588Y26049D01*
X38637Y26210D01*
X38654Y26378D01*
X38637Y26545D01*
X38588Y26706D01*
X38509Y26855D01*
X38402Y26985D01*
X38272Y27092D01*
X38124Y27171D01*
X37963Y27220D01*
X37795Y27236D01*
D02*
G37*
G36*
X39173Y38476D02*
X39077Y38464D01*
X38988Y38427D01*
X38912Y38368D01*
X38853Y38291D01*
X38816Y38202D01*
X38803Y38106D01*
X38816Y38011D01*
X38849Y37930D01*
X38745Y37826D01*
X38722Y37792D01*
X38715Y37752D01*
X38715Y37752D01*
Y35795D01*
X38634D01*
Y35307D01*
X39004D01*
Y35795D01*
X38923D01*
Y37709D01*
X38997Y37782D01*
X39077Y37749D01*
X39173Y37736D01*
X39269Y37749D01*
X39358Y37786D01*
X39435Y37845D01*
X39494Y37921D01*
X39531Y38011D01*
X39543Y38106D01*
X39531Y38202D01*
X39494Y38291D01*
X39435Y38368D01*
X39358Y38427D01*
X39269Y38464D01*
X39173Y38476D01*
D02*
G37*
G36*
X33504Y26181D02*
X33394Y26166D01*
X33291Y26124D01*
X33203Y26056D01*
X33136Y25968D01*
X33094Y25866D01*
X33079Y25756D01*
X33094Y25646D01*
X33136Y25543D01*
X33203Y25455D01*
X33291Y25388D01*
X33394Y25345D01*
X33504Y25331D01*
X33614Y25345D01*
X33716Y25388D01*
X33804Y25455D01*
X33872Y25543D01*
X33914Y25646D01*
X33929Y25756D01*
X33914Y25866D01*
X33872Y25968D01*
X33804Y26056D01*
X33716Y26124D01*
X33614Y26166D01*
X33504Y26181D01*
D02*
G37*
G36*
X10906Y30149D02*
X10777Y30136D01*
X10653Y30099D01*
X10538Y30038D01*
X10438Y29955D01*
X10356Y29855D01*
X10295Y29741D01*
X10258Y29617D01*
X10245Y29488D01*
X10258Y29359D01*
X10295Y29235D01*
X10356Y29121D01*
X10438Y29021D01*
X10538Y28939D01*
X10653Y28878D01*
X10777Y28840D01*
X10906Y28828D01*
X11034Y28840D01*
X11158Y28878D01*
X11273Y28939D01*
X11373Y29021D01*
X11455Y29121D01*
X11516Y29235D01*
X11553Y29359D01*
X11566Y29488D01*
X11553Y29617D01*
X11516Y29741D01*
X11455Y29855D01*
X11373Y29955D01*
X11273Y30038D01*
X11158Y30099D01*
X11034Y30136D01*
X10906Y30149D01*
D02*
G37*
G36*
X29252Y37186D02*
X29155Y37173D01*
X29064Y37136D01*
X28987Y37076D01*
X28927Y36999D01*
X28889Y36908D01*
X28877Y36811D01*
X28889Y36714D01*
X28927Y36623D01*
X28987Y36546D01*
X29064Y36486D01*
X29155Y36449D01*
X29252Y36436D01*
X29349Y36449D01*
X29440Y36486D01*
X29517Y36546D01*
X29577Y36623D01*
X29614Y36714D01*
X29627Y36811D01*
X29614Y36908D01*
X29577Y36999D01*
X29517Y37076D01*
X29440Y37136D01*
X29349Y37173D01*
X29252Y37186D01*
D02*
G37*
G36*
X21787Y31386D02*
X21692Y31373D01*
X21602Y31336D01*
X21526Y31277D01*
X21467Y31201D01*
X21430Y31112D01*
X21417Y31016D01*
X21430Y30920D01*
X21467Y30831D01*
X21526Y30754D01*
X21602Y30695D01*
X21692Y30658D01*
X21787Y30646D01*
X21883Y30658D01*
X21972Y30695D01*
X22049Y30754D01*
X22108Y30831D01*
X22145Y30920D01*
X22157Y31016D01*
X22145Y31112D01*
X22108Y31201D01*
X22049Y31277D01*
X21972Y31336D01*
X21883Y31373D01*
X21787Y31386D01*
D02*
G37*
G36*
X28787D02*
X28692Y31373D01*
X28602Y31336D01*
X28526Y31277D01*
X28467Y31201D01*
X28430Y31112D01*
X28417Y31016D01*
X28430Y30920D01*
X28467Y30831D01*
X28526Y30754D01*
X28602Y30695D01*
X28692Y30658D01*
X28787Y30646D01*
X28883Y30658D01*
X28972Y30695D01*
X29049Y30754D01*
X29108Y30831D01*
X29145Y30920D01*
X29157Y31016D01*
X29145Y31112D01*
X29108Y31201D01*
X29049Y31277D01*
X28972Y31336D01*
X28883Y31373D01*
X28787Y31386D01*
D02*
G37*
G36*
X27787D02*
X27692Y31373D01*
X27602Y31336D01*
X27526Y31277D01*
X27467Y31201D01*
X27430Y31112D01*
X27417Y31016D01*
X27430Y30920D01*
X27467Y30831D01*
X27526Y30754D01*
X27602Y30695D01*
X27692Y30658D01*
X27787Y30646D01*
X27883Y30658D01*
X27972Y30695D01*
X28049Y30754D01*
X28108Y30831D01*
X28145Y30920D01*
X28157Y31016D01*
X28145Y31112D01*
X28108Y31201D01*
X28049Y31277D01*
X27972Y31336D01*
X27883Y31373D01*
X27787Y31386D01*
D02*
G37*
G36*
X33504Y27181D02*
X33394Y27166D01*
X33291Y27124D01*
X33203Y27056D01*
X33136Y26968D01*
X33094Y26866D01*
X33079Y26756D01*
X33094Y26646D01*
X33136Y26543D01*
X33203Y26455D01*
X33291Y26388D01*
X33394Y26345D01*
X33504Y26331D01*
X33614Y26345D01*
X33716Y26388D01*
X33804Y26455D01*
X33872Y26543D01*
X33914Y26646D01*
X33929Y26756D01*
X33914Y26866D01*
X33872Y26968D01*
X33804Y27056D01*
X33716Y27124D01*
X33614Y27166D01*
X33504Y27181D01*
D02*
G37*
G36*
X21787Y32386D02*
X21692Y32373D01*
X21602Y32336D01*
X21526Y32277D01*
X21467Y32201D01*
X21430Y32112D01*
X21417Y32016D01*
X21430Y31920D01*
X21467Y31831D01*
X21526Y31754D01*
X21602Y31695D01*
X21692Y31658D01*
X21787Y31646D01*
X21883Y31658D01*
X21972Y31695D01*
X22049Y31754D01*
X22108Y31831D01*
X22145Y31920D01*
X22157Y32016D01*
X22145Y32112D01*
X22108Y32201D01*
X22049Y32277D01*
X21972Y32336D01*
X21883Y32373D01*
X21787Y32386D01*
D02*
G37*
G36*
X34504Y27181D02*
X34394Y27166D01*
X34291Y27124D01*
X34203Y27056D01*
X34136Y26968D01*
X34094Y26866D01*
X34079Y26756D01*
X34094Y26646D01*
X34136Y26543D01*
X34203Y26455D01*
X34291Y26388D01*
X34394Y26345D01*
X34504Y26331D01*
X34614Y26345D01*
X34716Y26388D01*
X34804Y26455D01*
X34872Y26543D01*
X34914Y26646D01*
X34929Y26756D01*
X34914Y26866D01*
X34872Y26968D01*
X34804Y27056D01*
X34716Y27124D01*
X34614Y27166D01*
X34504Y27181D01*
D02*
G37*
G36*
Y28181D02*
X34394Y28166D01*
X34291Y28124D01*
X34203Y28056D01*
X34136Y27968D01*
X34094Y27866D01*
X34079Y27756D01*
X34094Y27646D01*
X34136Y27543D01*
X34203Y27455D01*
X34291Y27388D01*
X34394Y27345D01*
X34504Y27331D01*
X34614Y27345D01*
X34716Y27388D01*
X34804Y27455D01*
X34872Y27543D01*
X34914Y27646D01*
X34929Y27756D01*
X34914Y27866D01*
X34872Y27968D01*
X34804Y28056D01*
X34716Y28124D01*
X34614Y28166D01*
X34504Y28181D01*
D02*
G37*
G36*
X33504D02*
X33394Y28166D01*
X33291Y28124D01*
X33203Y28056D01*
X33136Y27968D01*
X33094Y27866D01*
X33079Y27756D01*
X33094Y27646D01*
X33136Y27543D01*
X33203Y27455D01*
X33291Y27388D01*
X33394Y27345D01*
X33504Y27331D01*
X33614Y27345D01*
X33716Y27388D01*
X33804Y27455D01*
X33872Y27543D01*
X33914Y27646D01*
X33929Y27756D01*
X33914Y27866D01*
X33872Y27968D01*
X33804Y28056D01*
X33716Y28124D01*
X33614Y28166D01*
X33504Y28181D01*
D02*
G37*
G36*
X40787Y38476D02*
X40692Y38464D01*
X40602Y38427D01*
X40526Y38368D01*
X40467Y38291D01*
X40430Y38202D01*
X40417Y38106D01*
X40430Y38011D01*
X40463Y37930D01*
X40320Y37786D01*
X40297Y37753D01*
X40289Y37713D01*
X40289Y37713D01*
Y35835D01*
X40209D01*
Y35346D01*
X40579D01*
Y35835D01*
X40498D01*
Y37669D01*
X40611Y37782D01*
X40692Y37749D01*
X40787Y37736D01*
X40883Y37749D01*
X40972Y37786D01*
X41049Y37845D01*
X41108Y37921D01*
X41145Y38011D01*
X41157Y38106D01*
X41145Y38202D01*
X41108Y38291D01*
X41049Y38368D01*
X40972Y38427D01*
X40883Y38464D01*
X40787Y38476D01*
D02*
G37*
G36*
X30138Y52544D02*
X30046Y52532D01*
X29961Y52496D01*
X29887Y52440D01*
X29831Y52366D01*
X29795Y52281D01*
X29783Y52189D01*
X29795Y52097D01*
X29831Y52011D01*
X29887Y51938D01*
X29961Y51882D01*
X30046Y51846D01*
X30138Y51834D01*
X30230Y51846D01*
X30316Y51882D01*
X30389Y51938D01*
X30446Y52011D01*
X30481Y52097D01*
X30493Y52189D01*
X30481Y52281D01*
X30446Y52366D01*
X30389Y52440D01*
X30316Y52496D01*
X30230Y52532D01*
X30138Y52544D01*
D02*
G37*
G36*
X27323Y52606D02*
X27213Y52592D01*
X27110Y52549D01*
X27022Y52482D01*
X26955Y52394D01*
X26912Y52291D01*
X26898Y52181D01*
X26912Y52071D01*
X26955Y51969D01*
X27022Y51881D01*
X27110Y51813D01*
X27213Y51771D01*
X27323Y51756D01*
X27433Y51771D01*
X27535Y51813D01*
X27623Y51881D01*
X27691Y51969D01*
X27733Y52071D01*
X27748Y52181D01*
X27733Y52291D01*
X27691Y52394D01*
X27623Y52482D01*
X27535Y52549D01*
X27433Y52592D01*
X27323Y52606D01*
D02*
G37*
G36*
X32338Y52544D02*
X32246Y52532D01*
X32161Y52496D01*
X32087Y52440D01*
X32031Y52366D01*
X31995Y52281D01*
X31983Y52189D01*
X31995Y52097D01*
X32031Y52011D01*
X32087Y51938D01*
X32161Y51882D01*
X32246Y51846D01*
X32338Y51834D01*
X32430Y51846D01*
X32516Y51882D01*
X32589Y51938D01*
X32646Y52011D01*
X32681Y52097D01*
X32693Y52189D01*
X32681Y52281D01*
X32646Y52366D01*
X32589Y52440D01*
X32516Y52496D01*
X32430Y52532D01*
X32338Y52544D01*
D02*
G37*
G36*
X27323Y53606D02*
X27213Y53592D01*
X27110Y53549D01*
X27022Y53482D01*
X26955Y53394D01*
X26912Y53291D01*
X26898Y53181D01*
X26912Y53071D01*
X26955Y52969D01*
X27022Y52881D01*
X27110Y52813D01*
X27213Y52771D01*
X27323Y52756D01*
X27433Y52771D01*
X27535Y52813D01*
X27623Y52881D01*
X27691Y52969D01*
X27733Y53071D01*
X27748Y53181D01*
X27733Y53291D01*
X27691Y53394D01*
X27623Y53482D01*
X27535Y53549D01*
X27433Y53592D01*
X27323Y53606D01*
D02*
G37*
G36*
X34732Y52544D02*
X34640Y52532D01*
X34555Y52496D01*
X34481Y52440D01*
X34425Y52366D01*
X34389Y52281D01*
X34377Y52189D01*
X34389Y52097D01*
X34425Y52011D01*
X34481Y51938D01*
X34555Y51882D01*
X34640Y51846D01*
X34732Y51834D01*
X34824Y51846D01*
X34910Y51882D01*
X34983Y51938D01*
X35040Y52011D01*
X35075Y52097D01*
X35087Y52189D01*
X35075Y52281D01*
X35040Y52366D01*
X34983Y52440D01*
X34910Y52496D01*
X34824Y52532D01*
X34732Y52544D01*
D02*
G37*
G36*
X27323Y51606D02*
X27213Y51592D01*
X27110Y51549D01*
X27022Y51482D01*
X26955Y51394D01*
X26912Y51291D01*
X26898Y51181D01*
X26912Y51071D01*
X26955Y50969D01*
X27022Y50881D01*
X27110Y50813D01*
X27213Y50771D01*
X27323Y50756D01*
X27433Y50771D01*
X27535Y50813D01*
X27623Y50881D01*
X27691Y50969D01*
X27733Y51071D01*
X27748Y51181D01*
X27733Y51291D01*
X27691Y51394D01*
X27623Y51482D01*
X27535Y51549D01*
X27433Y51592D01*
X27323Y51606D01*
D02*
G37*
G36*
X38453Y50813D02*
X38350Y50799D01*
X38255Y50760D01*
X38173Y50697D01*
X38110Y50615D01*
X38071Y50520D01*
X38057Y50417D01*
X38071Y50315D01*
X38110Y50220D01*
X38173Y50138D01*
X38255Y50075D01*
X38350Y50035D01*
X38453Y50022D01*
X38555Y50035D01*
X38650Y50075D01*
X38732Y50138D01*
X38795Y50220D01*
X38835Y50315D01*
X38848Y50417D01*
X38835Y50520D01*
X38795Y50615D01*
X38732Y50697D01*
X38650Y50760D01*
X38555Y50799D01*
X38453Y50813D01*
D02*
G37*
G36*
X30138Y51544D02*
X30046Y51532D01*
X29961Y51496D01*
X29887Y51440D01*
X29831Y51366D01*
X29795Y51281D01*
X29783Y51189D01*
X29795Y51097D01*
X29831Y51012D01*
X29887Y50938D01*
X29961Y50882D01*
X30046Y50846D01*
X30138Y50834D01*
X30230Y50846D01*
X30316Y50882D01*
X30389Y50938D01*
X30446Y51012D01*
X30481Y51097D01*
X30493Y51189D01*
X30481Y51281D01*
X30446Y51366D01*
X30389Y51440D01*
X30316Y51496D01*
X30230Y51532D01*
X30138Y51544D01*
D02*
G37*
G36*
X12598Y52827D02*
X12431Y52810D01*
X12270Y52762D01*
X12121Y52682D01*
X11991Y52576D01*
X11885Y52445D01*
X11805Y52297D01*
X11756Y52136D01*
X11740Y51968D01*
X11756Y51801D01*
X11805Y51640D01*
X11885Y51492D01*
X11991Y51361D01*
X12121Y51255D01*
X12270Y51175D01*
X12431Y51127D01*
X12598Y51110D01*
X12766Y51127D01*
X12927Y51175D01*
X13075Y51255D01*
X13205Y51361D01*
X13312Y51492D01*
X13392Y51640D01*
X13440Y51801D01*
X13457Y51968D01*
X13440Y52136D01*
X13392Y52297D01*
X13312Y52445D01*
X13205Y52576D01*
X13075Y52682D01*
X12927Y52762D01*
X12766Y52810D01*
X12598Y52827D01*
D02*
G37*
G36*
X32338Y51544D02*
X32246Y51532D01*
X32161Y51496D01*
X32087Y51440D01*
X32031Y51366D01*
X31995Y51281D01*
X31983Y51189D01*
X31995Y51097D01*
X32031Y51012D01*
X32087Y50938D01*
X32161Y50882D01*
X32246Y50846D01*
X32338Y50834D01*
X32430Y50846D01*
X32516Y50882D01*
X32589Y50938D01*
X32646Y51012D01*
X32681Y51097D01*
X32693Y51189D01*
X32681Y51281D01*
X32646Y51366D01*
X32589Y51440D01*
X32516Y51496D01*
X32430Y51532D01*
X32338Y51544D01*
D02*
G37*
G36*
X36063Y53606D02*
X35953Y53592D01*
X35851Y53549D01*
X35763Y53482D01*
X35695Y53394D01*
X35653Y53291D01*
X35638Y53181D01*
X35653Y53071D01*
X35695Y52969D01*
X35763Y52881D01*
X35851Y52813D01*
X35953Y52771D01*
X36063Y52756D01*
X36173Y52771D01*
X36275Y52813D01*
X36363Y52881D01*
X36431Y52969D01*
X36473Y53071D01*
X36488Y53181D01*
X36473Y53291D01*
X36431Y53394D01*
X36363Y53482D01*
X36275Y53549D01*
X36173Y53592D01*
X36063Y53606D01*
D02*
G37*
G36*
X25787Y55808D02*
X25639Y55789D01*
X25501Y55731D01*
X25383Y55641D01*
X25292Y55522D01*
X25235Y55384D01*
X25216Y55236D01*
X25235Y55088D01*
X25292Y54950D01*
X25383Y54832D01*
X25501Y54741D01*
X25639Y54684D01*
X25787Y54664D01*
X25935Y54684D01*
X26073Y54741D01*
X26192Y54832D01*
X26283Y54950D01*
X26340Y55088D01*
X26359Y55236D01*
X26340Y55384D01*
X26283Y55522D01*
X26192Y55641D01*
X26073Y55731D01*
X25935Y55789D01*
X25787Y55808D01*
D02*
G37*
G36*
X16787D02*
X16639Y55789D01*
X16501Y55731D01*
X16383Y55641D01*
X16292Y55522D01*
X16235Y55384D01*
X16216Y55236D01*
X16235Y55088D01*
X16292Y54950D01*
X16383Y54832D01*
X16501Y54741D01*
X16639Y54684D01*
X16787Y54664D01*
X16935Y54684D01*
X17073Y54741D01*
X17192Y54832D01*
X17283Y54950D01*
X17340Y55088D01*
X17359Y55236D01*
X17340Y55384D01*
X17283Y55522D01*
X17192Y55641D01*
X17073Y55731D01*
X16935Y55789D01*
X16787Y55808D01*
D02*
G37*
G36*
X18787Y55606D02*
X18692Y55594D01*
X18602Y55557D01*
X18526Y55498D01*
X18467Y55421D01*
X18430Y55332D01*
X18417Y55236D01*
X18430Y55140D01*
X18467Y55051D01*
X18526Y54975D01*
X18602Y54916D01*
X18692Y54879D01*
X18787Y54866D01*
X18883Y54879D01*
X18972Y54916D01*
X19049Y54975D01*
X19108Y55051D01*
X19145Y55140D01*
X19157Y55236D01*
X19145Y55332D01*
X19108Y55421D01*
X19049Y55498D01*
X18972Y55557D01*
X18883Y55594D01*
X18787Y55606D01*
D02*
G37*
G36*
X22787D02*
X22692Y55594D01*
X22602Y55557D01*
X22526Y55498D01*
X22467Y55421D01*
X22430Y55332D01*
X22417Y55236D01*
X22430Y55140D01*
X22467Y55051D01*
X22526Y54975D01*
X22602Y54916D01*
X22692Y54879D01*
X22787Y54866D01*
X22883Y54879D01*
X22972Y54916D01*
X23049Y54975D01*
X23108Y55051D01*
X23145Y55140D01*
X23157Y55236D01*
X23145Y55332D01*
X23108Y55421D01*
X23049Y55498D01*
X22972Y55557D01*
X22883Y55594D01*
X22787Y55606D01*
D02*
G37*
G36*
X20787D02*
X20692Y55594D01*
X20602Y55557D01*
X20526Y55498D01*
X20467Y55421D01*
X20430Y55332D01*
X20417Y55236D01*
X20430Y55140D01*
X20463Y55060D01*
X20266Y54863D01*
X20244Y54829D01*
X20236Y54789D01*
X20236Y54789D01*
Y46668D01*
X20236Y46668D01*
X20244Y46628D01*
X20266Y46594D01*
X20345Y46515D01*
X20312Y46434D01*
X20299Y46339D01*
X20312Y46243D01*
X20349Y46154D01*
X20408Y46077D01*
X20484Y46018D01*
X20574Y45981D01*
X20669Y45968D01*
X20765Y45981D01*
X20854Y46018D01*
X20931Y46077D01*
X20990Y46154D01*
X21027Y46243D01*
X21039Y46339D01*
X21027Y46434D01*
X20990Y46524D01*
X20931Y46600D01*
X20854Y46659D01*
X20765Y46696D01*
X20669Y46709D01*
X20574Y46696D01*
X20493Y46663D01*
X20444Y46711D01*
Y48998D01*
X20494Y49015D01*
X20526Y48975D01*
X20602Y48916D01*
X20692Y48879D01*
X20787Y48866D01*
X20883Y48879D01*
X20972Y48916D01*
X21049Y48975D01*
X21108Y49051D01*
X21145Y49140D01*
X21157Y49236D01*
X21145Y49332D01*
X21108Y49421D01*
X21049Y49498D01*
X20972Y49557D01*
X20883Y49594D01*
X20787Y49606D01*
X20692Y49594D01*
X20602Y49557D01*
X20526Y49498D01*
X20494Y49457D01*
X20444Y49474D01*
Y54746D01*
X20611Y54912D01*
X20692Y54879D01*
X20787Y54866D01*
X20883Y54879D01*
X20972Y54916D01*
X21049Y54975D01*
X21108Y55051D01*
X21145Y55140D01*
X21157Y55236D01*
X21145Y55332D01*
X21108Y55421D01*
X21049Y55498D01*
X20972Y55557D01*
X20883Y55594D01*
X20787Y55606D01*
D02*
G37*
G36*
X27323Y54606D02*
X27213Y54592D01*
X27110Y54549D01*
X27022Y54482D01*
X26955Y54394D01*
X26912Y54291D01*
X26898Y54181D01*
X26912Y54071D01*
X26955Y53969D01*
X27022Y53881D01*
X27110Y53813D01*
X27213Y53771D01*
X27323Y53756D01*
X27433Y53771D01*
X27535Y53813D01*
X27623Y53881D01*
X27691Y53969D01*
X27733Y54071D01*
X27748Y54181D01*
X27733Y54291D01*
X27691Y54394D01*
X27623Y54482D01*
X27535Y54549D01*
X27433Y54592D01*
X27323Y54606D01*
D02*
G37*
G36*
X34732Y53544D02*
X34640Y53532D01*
X34555Y53496D01*
X34481Y53440D01*
X34425Y53366D01*
X34389Y53281D01*
X34377Y53189D01*
X34389Y53097D01*
X34425Y53011D01*
X34481Y52938D01*
X34555Y52882D01*
X34640Y52846D01*
X34732Y52834D01*
X34824Y52846D01*
X34910Y52882D01*
X34983Y52938D01*
X35040Y53011D01*
X35075Y53097D01*
X35087Y53189D01*
X35075Y53281D01*
X35040Y53366D01*
X34983Y53440D01*
X34910Y53496D01*
X34824Y53532D01*
X34732Y53544D01*
D02*
G37*
G36*
X36063Y54606D02*
X35953Y54592D01*
X35851Y54549D01*
X35763Y54482D01*
X35695Y54394D01*
X35653Y54291D01*
X35638Y54181D01*
X35653Y54071D01*
X35695Y53969D01*
X35763Y53881D01*
X35851Y53813D01*
X35953Y53771D01*
X36063Y53756D01*
X36173Y53771D01*
X36275Y53813D01*
X36363Y53881D01*
X36431Y53969D01*
X36473Y54071D01*
X36488Y54181D01*
X36473Y54291D01*
X36431Y54394D01*
X36363Y54482D01*
X36275Y54549D01*
X36173Y54592D01*
X36063Y54606D01*
D02*
G37*
G36*
X34732Y54544D02*
X34640Y54532D01*
X34555Y54496D01*
X34481Y54440D01*
X34425Y54366D01*
X34389Y54281D01*
X34377Y54189D01*
X34389Y54097D01*
X34425Y54012D01*
X34481Y53938D01*
X34555Y53882D01*
X34640Y53846D01*
X34732Y53834D01*
X34824Y53846D01*
X34910Y53882D01*
X34983Y53938D01*
X35040Y54012D01*
X35075Y54097D01*
X35087Y54189D01*
X35075Y54281D01*
X35040Y54366D01*
X34983Y54440D01*
X34910Y54496D01*
X34824Y54532D01*
X34732Y54544D01*
D02*
G37*
G36*
X28732D02*
X28640Y54532D01*
X28555Y54496D01*
X28481Y54440D01*
X28425Y54366D01*
X28389Y54281D01*
X28377Y54189D01*
X28389Y54097D01*
X28425Y54012D01*
X28481Y53938D01*
X28555Y53882D01*
X28640Y53846D01*
X28732Y53834D01*
X28824Y53846D01*
X28910Y53882D01*
X28983Y53938D01*
X29040Y54012D01*
X29075Y54097D01*
X29087Y54189D01*
X29075Y54281D01*
X29040Y54366D01*
X28983Y54440D01*
X28910Y54496D01*
X28824Y54532D01*
X28732Y54544D01*
D02*
G37*
G36*
X30138Y50544D02*
X30046Y50532D01*
X29961Y50496D01*
X29887Y50440D01*
X29831Y50366D01*
X29795Y50281D01*
X29783Y50189D01*
X29795Y50097D01*
X29831Y50012D01*
X29887Y49938D01*
X29961Y49882D01*
X30046Y49846D01*
X30138Y49834D01*
X30230Y49846D01*
X30316Y49882D01*
X30389Y49938D01*
X30446Y50012D01*
X30481Y50097D01*
X30493Y50189D01*
X30481Y50281D01*
X30446Y50366D01*
X30389Y50440D01*
X30316Y50496D01*
X30230Y50532D01*
X30138Y50544D01*
D02*
G37*
G36*
X36063Y44606D02*
X35953Y44592D01*
X35851Y44549D01*
X35763Y44482D01*
X35695Y44394D01*
X35653Y44291D01*
X35638Y44181D01*
X35653Y44071D01*
X35695Y43969D01*
X35763Y43881D01*
X35851Y43813D01*
X35953Y43771D01*
X36063Y43756D01*
X36173Y43771D01*
X36275Y43813D01*
X36363Y43881D01*
X36431Y43969D01*
X36473Y44071D01*
X36488Y44181D01*
X36473Y44291D01*
X36431Y44394D01*
X36363Y44482D01*
X36275Y44549D01*
X36173Y44592D01*
X36063Y44606D01*
D02*
G37*
G36*
X37845Y42809D02*
X37061D01*
Y42025D01*
X37845D01*
Y42809D01*
D02*
G37*
G36*
X16669Y46910D02*
X16521Y46891D01*
X16383Y46834D01*
X16265Y46743D01*
X16174Y46624D01*
X16117Y46487D01*
X16097Y46339D01*
X16117Y46191D01*
X16174Y46053D01*
X16265Y45934D01*
X16383Y45843D01*
X16521Y45786D01*
X16669Y45767D01*
X16817Y45786D01*
X16955Y45843D01*
X17074Y45934D01*
X17165Y46053D01*
X17222Y46191D01*
X17241Y46339D01*
X17222Y46487D01*
X17165Y46624D01*
X17074Y46743D01*
X16955Y46834D01*
X16817Y46891D01*
X16669Y46910D01*
D02*
G37*
G36*
X23787Y55606D02*
X23692Y55594D01*
X23602Y55557D01*
X23526Y55498D01*
X23467Y55421D01*
X23430Y55332D01*
X23417Y55236D01*
X23430Y55140D01*
X23467Y55051D01*
X23526Y54975D01*
X23602Y54916D01*
X23683Y54882D01*
Y50881D01*
X23595Y50794D01*
X23573Y50760D01*
X23565Y50720D01*
X23565Y50720D01*
Y46693D01*
X23484Y46659D01*
X23408Y46600D01*
X23349Y46524D01*
X23312Y46434D01*
X23299Y46339D01*
X23312Y46243D01*
X23349Y46154D01*
X23408Y46077D01*
X23484Y46018D01*
X23574Y45981D01*
X23669Y45968D01*
X23765Y45981D01*
X23854Y46018D01*
X23931Y46077D01*
X23990Y46154D01*
X24027Y46243D01*
X24039Y46339D01*
X24027Y46434D01*
X23990Y46524D01*
X23931Y46600D01*
X23854Y46659D01*
X23774Y46693D01*
Y50677D01*
X23861Y50764D01*
X23861Y50764D01*
X23884Y50798D01*
X23885Y50805D01*
X23892Y50838D01*
X23892Y50838D01*
Y54882D01*
X23972Y54916D01*
X24049Y54975D01*
X24108Y55051D01*
X24145Y55140D01*
X24157Y55236D01*
X24145Y55332D01*
X24108Y55421D01*
X24049Y55498D01*
X23972Y55557D01*
X23883Y55594D01*
X23787Y55606D01*
D02*
G37*
G36*
X22669Y46709D02*
X22574Y46696D01*
X22484Y46659D01*
X22408Y46600D01*
X22349Y46524D01*
X22312Y46434D01*
X22299Y46339D01*
X22312Y46243D01*
X22349Y46154D01*
X22408Y46077D01*
X22484Y46018D01*
X22574Y45981D01*
X22669Y45968D01*
X22765Y45981D01*
X22854Y46018D01*
X22931Y46077D01*
X22990Y46154D01*
X23027Y46243D01*
X23039Y46339D01*
X23027Y46434D01*
X22990Y46524D01*
X22931Y46600D01*
X22854Y46659D01*
X22765Y46696D01*
X22669Y46709D01*
D02*
G37*
G36*
X19669Y40709D02*
X19574Y40696D01*
X19484Y40659D01*
X19408Y40600D01*
X19349Y40524D01*
X19312Y40434D01*
X19299Y40339D01*
X19312Y40243D01*
X19349Y40154D01*
X19408Y40077D01*
X19484Y40018D01*
X19574Y39981D01*
X19669Y39968D01*
X19765Y39981D01*
X19854Y40018D01*
X19931Y40077D01*
X19990Y40154D01*
X20027Y40243D01*
X20039Y40339D01*
X20027Y40434D01*
X19990Y40524D01*
X19931Y40600D01*
X19854Y40659D01*
X19765Y40696D01*
X19669Y40709D01*
D02*
G37*
G36*
X25669Y40910D02*
X25521Y40891D01*
X25383Y40834D01*
X25265Y40743D01*
X25174Y40624D01*
X25117Y40487D01*
X25097Y40339D01*
X25117Y40191D01*
X25174Y40053D01*
X25265Y39934D01*
X25383Y39843D01*
X25521Y39786D01*
X25669Y39767D01*
X25817Y39786D01*
X25955Y39843D01*
X26074Y39934D01*
X26165Y40053D01*
X26222Y40191D01*
X26241Y40339D01*
X26222Y40487D01*
X26165Y40624D01*
X26074Y40743D01*
X25955Y40834D01*
X25817Y40891D01*
X25669Y40910D01*
D02*
G37*
G36*
X20669Y40709D02*
X20574Y40696D01*
X20484Y40659D01*
X20408Y40600D01*
X20349Y40524D01*
X20312Y40434D01*
X20299Y40339D01*
X20312Y40243D01*
X20349Y40154D01*
X20408Y40077D01*
X20484Y40018D01*
X20574Y39981D01*
X20669Y39968D01*
X20765Y39981D01*
X20854Y40018D01*
X20931Y40077D01*
X20990Y40154D01*
X21027Y40243D01*
X21039Y40339D01*
X21027Y40434D01*
X20990Y40524D01*
X20931Y40600D01*
X20854Y40659D01*
X20765Y40696D01*
X20669Y40709D01*
D02*
G37*
G36*
X40787Y41476D02*
X40692Y41464D01*
X40602Y41427D01*
X40526Y41368D01*
X40467Y41291D01*
X40430Y41202D01*
X40417Y41106D01*
X40430Y41011D01*
X40467Y40921D01*
X40526Y40845D01*
X40602Y40786D01*
X40692Y40749D01*
X40787Y40736D01*
X40883Y40749D01*
X40972Y40786D01*
X41049Y40845D01*
X41108Y40921D01*
X41145Y41011D01*
X41157Y41106D01*
X41145Y41202D01*
X41108Y41291D01*
X41049Y41368D01*
X40972Y41427D01*
X40883Y41464D01*
X40787Y41476D01*
D02*
G37*
G36*
X22669Y40709D02*
X22574Y40696D01*
X22484Y40659D01*
X22408Y40600D01*
X22349Y40524D01*
X22312Y40434D01*
X22299Y40339D01*
X22312Y40243D01*
X22349Y40154D01*
X22408Y40077D01*
X22484Y40018D01*
X22574Y39981D01*
X22669Y39968D01*
X22765Y39981D01*
X22854Y40018D01*
X22931Y40077D01*
X22990Y40154D01*
X23027Y40243D01*
X23039Y40339D01*
X23027Y40434D01*
X22990Y40524D01*
X22931Y40600D01*
X22854Y40659D01*
X22765Y40696D01*
X22669Y40709D01*
D02*
G37*
G36*
X32338Y47544D02*
X32246Y47532D01*
X32161Y47496D01*
X32087Y47440D01*
X32031Y47366D01*
X31995Y47281D01*
X31983Y47189D01*
X31995Y47097D01*
X32031Y47011D01*
X32087Y46938D01*
X32161Y46882D01*
X32246Y46846D01*
X32338Y46834D01*
X32430Y46846D01*
X32516Y46882D01*
X32589Y46938D01*
X32646Y47011D01*
X32681Y47097D01*
X32693Y47189D01*
X32681Y47281D01*
X32646Y47366D01*
X32589Y47440D01*
X32516Y47496D01*
X32430Y47532D01*
X32338Y47544D01*
D02*
G37*
G36*
X34732Y49544D02*
X34640Y49532D01*
X34555Y49496D01*
X34481Y49440D01*
X34425Y49366D01*
X34389Y49281D01*
X34377Y49189D01*
X34389Y49097D01*
X34425Y49012D01*
X34481Y48938D01*
X34555Y48882D01*
X34640Y48846D01*
X34732Y48834D01*
X34824Y48846D01*
X34910Y48882D01*
X34983Y48938D01*
X35040Y49012D01*
X35075Y49097D01*
X35087Y49189D01*
X35075Y49281D01*
X35040Y49366D01*
X34983Y49440D01*
X34910Y49496D01*
X34824Y49532D01*
X34732Y49544D01*
D02*
G37*
G36*
X30138D02*
X30046Y49532D01*
X29961Y49496D01*
X29887Y49440D01*
X29831Y49366D01*
X29795Y49281D01*
X29783Y49189D01*
X29795Y49097D01*
X29831Y49012D01*
X29887Y48938D01*
X29961Y48882D01*
X30046Y48846D01*
X30138Y48834D01*
X30230Y48846D01*
X30316Y48882D01*
X30389Y48938D01*
X30446Y49012D01*
X30481Y49097D01*
X30493Y49189D01*
X30481Y49281D01*
X30446Y49366D01*
X30389Y49440D01*
X30316Y49496D01*
X30230Y49532D01*
X30138Y49544D01*
D02*
G37*
G36*
X21787Y49606D02*
X21692Y49594D01*
X21602Y49557D01*
X21526Y49498D01*
X21467Y49421D01*
X21430Y49332D01*
X21417Y49236D01*
X21430Y49140D01*
X21467Y49051D01*
X21526Y48975D01*
X21602Y48916D01*
X21692Y48879D01*
X21787Y48866D01*
X21883Y48879D01*
X21972Y48916D01*
X22049Y48975D01*
X22108Y49051D01*
X22145Y49140D01*
X22157Y49236D01*
X22145Y49332D01*
X22108Y49421D01*
X22049Y49498D01*
X21972Y49557D01*
X21883Y49594D01*
X21787Y49606D01*
D02*
G37*
G36*
X27323Y50606D02*
X27213Y50592D01*
X27110Y50549D01*
X27022Y50482D01*
X26955Y50394D01*
X26912Y50291D01*
X26898Y50181D01*
X26912Y50071D01*
X26955Y49969D01*
X27022Y49881D01*
X27110Y49813D01*
X27213Y49771D01*
X27323Y49756D01*
X27433Y49771D01*
X27535Y49813D01*
X27623Y49881D01*
X27691Y49969D01*
X27733Y50071D01*
X27748Y50181D01*
X27733Y50291D01*
X27691Y50394D01*
X27623Y50482D01*
X27535Y50549D01*
X27433Y50592D01*
X27323Y50606D01*
D02*
G37*
G36*
X22787Y49606D02*
X22692Y49594D01*
X22602Y49557D01*
X22526Y49498D01*
X22467Y49421D01*
X22430Y49332D01*
X22417Y49236D01*
X22430Y49140D01*
X22467Y49051D01*
X22526Y48975D01*
X22602Y48916D01*
X22692Y48879D01*
X22787Y48866D01*
X22883Y48879D01*
X22972Y48916D01*
X23049Y48975D01*
X23108Y49051D01*
X23145Y49140D01*
X23157Y49236D01*
X23145Y49332D01*
X23108Y49421D01*
X23049Y49498D01*
X22972Y49557D01*
X22883Y49594D01*
X22787Y49606D01*
D02*
G37*
G36*
X36063Y48606D02*
X35953Y48592D01*
X35851Y48549D01*
X35763Y48482D01*
X35695Y48394D01*
X35653Y48291D01*
X35638Y48181D01*
X35653Y48071D01*
X35695Y47969D01*
X35763Y47881D01*
X35851Y47813D01*
X35953Y47771D01*
X36063Y47756D01*
X36173Y47771D01*
X36275Y47813D01*
X36363Y47881D01*
X36431Y47969D01*
X36473Y48071D01*
X36488Y48181D01*
X36473Y48291D01*
X36431Y48394D01*
X36363Y48482D01*
X36275Y48549D01*
X36173Y48592D01*
X36063Y48606D01*
D02*
G37*
G36*
X27323D02*
X27213Y48592D01*
X27110Y48549D01*
X27022Y48482D01*
X26955Y48394D01*
X26912Y48291D01*
X26898Y48181D01*
X26912Y48071D01*
X26955Y47969D01*
X27022Y47881D01*
X27110Y47813D01*
X27213Y47771D01*
X27323Y47756D01*
X27433Y47771D01*
X27535Y47813D01*
X27623Y47881D01*
X27691Y47969D01*
X27733Y48071D01*
X27748Y48181D01*
X27733Y48291D01*
X27691Y48394D01*
X27623Y48482D01*
X27535Y48549D01*
X27433Y48592D01*
X27323Y48606D01*
D02*
G37*
G36*
X16787Y49808D02*
X16639Y49789D01*
X16501Y49731D01*
X16383Y49641D01*
X16292Y49522D01*
X16235Y49384D01*
X16216Y49236D01*
X16235Y49088D01*
X16292Y48950D01*
X16383Y48832D01*
X16501Y48741D01*
X16639Y48684D01*
X16787Y48664D01*
X16935Y48684D01*
X17073Y48741D01*
X17192Y48832D01*
X17283Y48950D01*
X17340Y49088D01*
X17359Y49236D01*
X17340Y49384D01*
X17283Y49522D01*
X17192Y49641D01*
X17073Y49731D01*
X16935Y49789D01*
X16787Y49808D01*
D02*
G37*
G36*
X36063Y49606D02*
X35953Y49592D01*
X35851Y49549D01*
X35763Y49482D01*
X35695Y49394D01*
X35653Y49291D01*
X35638Y49181D01*
X35653Y49071D01*
X35695Y48969D01*
X35763Y48881D01*
X35851Y48813D01*
X35953Y48771D01*
X36063Y48756D01*
X36173Y48771D01*
X36275Y48813D01*
X36363Y48881D01*
X36431Y48969D01*
X36473Y49071D01*
X36488Y49181D01*
X36473Y49291D01*
X36431Y49394D01*
X36363Y49482D01*
X36275Y49549D01*
X36173Y49592D01*
X36063Y49606D01*
D02*
G37*
G36*
X25787Y49808D02*
X25639Y49789D01*
X25501Y49731D01*
X25383Y49641D01*
X25292Y49522D01*
X25235Y49384D01*
X25216Y49236D01*
X25235Y49088D01*
X25292Y48950D01*
X25383Y48832D01*
X25501Y48741D01*
X25639Y48684D01*
X25787Y48664D01*
X25935Y48684D01*
X26073Y48741D01*
X26192Y48832D01*
X26283Y48950D01*
X26340Y49088D01*
X26359Y49236D01*
X26340Y49384D01*
X26283Y49522D01*
X26192Y49641D01*
X26073Y49731D01*
X25935Y49789D01*
X25787Y49808D01*
D02*
G37*
%LPD*%
D10*
X33937Y37696D02*
D03*
X34134Y37186D02*
D03*
X33740D02*
D03*
D11*
X22070Y35354D02*
D03*
X22261D02*
D03*
X23009D02*
D03*
X22818D02*
D03*
X22109Y37598D02*
D03*
X22300D02*
D03*
X23088D02*
D03*
X22897D02*
D03*
X20292Y35354D02*
D03*
X20101D02*
D03*
X21080D02*
D03*
X20889D02*
D03*
X20101Y37598D02*
D03*
X20292D02*
D03*
X21159D02*
D03*
X20967D02*
D03*
X18212Y35354D02*
D03*
X18403D02*
D03*
X19151D02*
D03*
X18960D02*
D03*
X16204Y37598D02*
D03*
X16395D02*
D03*
X17300D02*
D03*
X17109D02*
D03*
X19190D02*
D03*
X18999D02*
D03*
X18172D02*
D03*
X18363D02*
D03*
X17261Y35354D02*
D03*
X17070D02*
D03*
X16243D02*
D03*
X16434D02*
D03*
D12*
X40768Y36260D02*
D03*
X39193Y36220D02*
D03*
X16752Y38898D02*
D03*
X18681D02*
D03*
X16752Y36614D02*
D03*
X20650Y38898D02*
D03*
X18681Y36654D02*
D03*
X20610D02*
D03*
X22579Y38898D02*
D03*
X22539Y36693D02*
D03*
D13*
X41142Y35591D02*
D03*
X40394D02*
D03*
X39567Y35551D02*
D03*
X38819D02*
D03*
X17126Y38228D02*
D03*
X16378D02*
D03*
X19055D02*
D03*
X18307D02*
D03*
X17126Y35945D02*
D03*
X16378D02*
D03*
X21024Y38228D02*
D03*
X20276D02*
D03*
X19055Y35984D02*
D03*
X18307D02*
D03*
X20984D02*
D03*
X20236D02*
D03*
X22953Y38228D02*
D03*
X22205D02*
D03*
X22913Y36024D02*
D03*
X22165D02*
D03*
D14*
X16711Y52160D02*
X19340Y54789D01*
X17126Y36040D02*
X17930D01*
X16746Y33688D02*
X17484Y32949D01*
X16507Y33926D02*
X16746Y33688D01*
X22070Y35490D02*
Y35520D01*
Y35354D02*
Y35490D01*
X39630Y41237D02*
Y47913D01*
X20492Y37240D02*
X20655Y37078D01*
X20292Y37440D02*
X20492Y37240D01*
X20101Y35200D02*
Y35354D01*
Y33321D02*
Y35200D01*
X19280Y37170D02*
X19350D01*
X18910Y36800D02*
X19280Y37170D01*
X22825Y37540D02*
X22897D01*
X22785Y37500D02*
X22897D01*
X22600D02*
X22785D01*
X20880Y37620D02*
X20967D01*
X22897Y37500D02*
Y37540D01*
X22785Y37500D02*
X22825Y37540D01*
X22165Y36880D02*
X22785Y37500D01*
X18307Y38170D02*
Y38228D01*
Y38020D02*
Y38170D01*
X18240Y38020D02*
X18307D01*
Y36593D02*
Y36797D01*
X17109Y37417D02*
Y37440D01*
X28252Y32480D02*
Y36811D01*
X27787Y32016D02*
X28252Y32480D01*
X21340Y46668D02*
X21669Y46339D01*
X21340Y46668D02*
Y54789D01*
X21787Y55236D01*
X40039Y42634D02*
X42100Y40573D01*
Y40160D02*
Y40573D01*
Y40160D02*
X42290Y39970D01*
X42900D01*
X43190Y39680D01*
Y35030D02*
Y39680D01*
X40748Y32588D02*
X43190Y35030D01*
X40748Y30587D02*
Y32588D01*
X34732Y39948D02*
Y41189D01*
X33937Y39153D02*
X34732Y39948D01*
X33937Y37696D02*
Y39153D01*
X13583Y41042D02*
Y47634D01*
X11682Y39142D02*
X13583Y41042D01*
X11228Y39142D02*
X11682D01*
X12913Y32362D02*
Y35457D01*
X11228Y37142D02*
X12913Y35457D01*
X30138Y42112D02*
X31070Y41180D01*
X30138Y42112D02*
Y47189D01*
X26252Y31480D02*
Y36811D01*
X25787Y31016D02*
X26252Y31480D01*
X20340Y46668D02*
X20669Y46339D01*
X20340Y46668D02*
Y54789D01*
X20787Y55236D01*
X10720Y48170D02*
X10880Y48330D01*
X10720Y45682D02*
Y48170D01*
X10688Y45650D02*
X10720Y45682D01*
X10688Y41602D02*
Y45650D01*
X10228Y41142D02*
X10688Y41602D01*
X25787Y32016D02*
Y36193D01*
X25580Y36400D02*
X25787Y36193D01*
X19340Y46668D02*
X19669Y46339D01*
X19340Y46668D02*
Y54789D01*
X19787Y55236D01*
X14450Y43774D02*
X14961Y43264D01*
X14450Y43774D02*
Y51840D01*
X14770Y52160D01*
X16711D01*
X28732Y52189D02*
X29750Y53207D01*
Y53580D01*
X30250Y54080D01*
Y55840D01*
X30470Y56060D01*
X32000D01*
X32350Y55710D01*
Y53750D02*
Y55710D01*
Y53750D02*
X32940Y53160D01*
Y50910D02*
Y53160D01*
Y50910D02*
X33270Y50580D01*
Y33435D02*
Y50580D01*
X33047Y33213D02*
X33270Y33435D01*
X33047Y32299D02*
Y33213D01*
Y32299D02*
X34047D01*
X34504Y32756D01*
X28732Y51189D02*
X29396Y50526D01*
Y48164D02*
Y50526D01*
Y48164D02*
X29760Y47800D01*
X32570D01*
X32726Y47956D01*
Y48491D01*
X32640Y48576D02*
X32726Y48491D01*
X32230Y48576D02*
X32640D01*
X31950Y48856D02*
X32230Y48576D01*
X31950Y48856D02*
Y50420D01*
X32160Y50630D01*
X32650D01*
X33040Y50240D01*
Y33430D02*
Y50240D01*
X32909Y33300D02*
X33040Y33430D01*
X32909Y32161D02*
Y33300D01*
Y32161D02*
X33098D01*
X33504Y31756D01*
X28732Y50189D02*
X29258Y49663D01*
Y41752D02*
Y49663D01*
Y41752D02*
X32110Y38900D01*
Y34350D02*
Y38900D01*
X34732Y45852D02*
Y46189D01*
X33790Y44910D02*
X34732Y45852D01*
X33790Y39380D02*
Y44910D01*
X17126Y35945D02*
Y36040D01*
Y35715D02*
Y35945D01*
Y35715D02*
X17261Y35580D01*
Y35354D02*
Y35580D01*
X19080Y38315D02*
Y47360D01*
X19055Y38228D02*
X19080Y38315D01*
X19055Y35984D02*
Y36480D01*
X19515Y36940D01*
X20960D01*
X21465Y36435D01*
Y35215D02*
Y36435D01*
Y35215D02*
X21645Y35035D01*
X22295D01*
X22540Y35280D01*
Y36160D01*
X26414Y40034D01*
Y46680D01*
X35120Y46760D02*
Y47801D01*
X34732Y48189D02*
X35120Y47801D01*
X36063Y51181D02*
X36780D01*
X37020Y50941D01*
Y49120D02*
Y50941D01*
Y49120D02*
X37220Y48920D01*
X37610D01*
X38018Y48512D01*
Y41768D02*
Y48512D01*
X37890Y41640D02*
X38018Y41768D01*
X22120Y39826D02*
Y41120D01*
X21024Y38730D02*
X22120Y39826D01*
X21024Y38228D02*
Y38730D01*
X36063Y52181D02*
X37164Y51080D01*
X37650D01*
X37890Y50840D01*
Y49280D02*
Y50840D01*
Y49280D02*
X38260Y48910D01*
X38720D01*
X38890Y48740D01*
Y42200D02*
Y48740D01*
X34730Y38040D02*
X38890Y42200D01*
X21080Y35260D02*
X21260Y35080D01*
X21080Y35260D02*
Y35354D01*
X24840Y46600D02*
X25421Y47181D01*
X24840Y40377D02*
Y46600D01*
X22953Y38490D02*
X24840Y40377D01*
X22953Y38228D02*
Y38490D01*
X26866Y45724D02*
X27323Y46181D01*
X26866Y40914D02*
Y45724D01*
Y40914D02*
X27660Y40120D01*
Y36640D02*
Y40120D01*
X27420Y36400D02*
X27660Y36640D01*
X27070Y36400D02*
X27420D01*
X26670Y36800D02*
X27070Y36400D01*
X26670Y36800D02*
Y37280D01*
X26572Y37378D02*
X26670Y37280D01*
X24215Y37378D02*
X26572D01*
X23317Y36480D02*
X24215Y37378D01*
X23073Y36480D02*
X23317D01*
X22913Y36320D02*
X23073Y36480D01*
X22913Y36024D02*
Y36320D01*
X16480Y25669D02*
X16890D01*
X16346Y25536D02*
X16480Y25669D01*
X16346Y25399D02*
Y25536D01*
X16160Y25213D02*
X16346Y25399D01*
X15660Y25213D02*
X16160D01*
X15430Y25443D02*
X15660Y25213D01*
X15430Y25443D02*
Y39340D01*
X15740Y39650D01*
X17906D01*
X18240Y39316D01*
Y39150D02*
Y39316D01*
X18050Y38960D02*
X18240Y39150D01*
X17770Y38960D02*
X18050D01*
X17690Y39040D02*
X17770Y38960D01*
X17690Y39040D02*
Y39360D01*
X17680Y39370D02*
X17690Y39360D01*
X17102Y39370D02*
X17680D01*
X16752Y39020D02*
X17102Y39370D01*
X16752Y38898D02*
Y39020D01*
Y35170D02*
Y36614D01*
Y35170D02*
X17490Y34432D01*
X16746Y33688D02*
X17490Y34432D01*
X17484Y31044D02*
Y32949D01*
X17350Y30910D02*
X17484Y31044D01*
X17350Y27130D02*
Y30910D01*
X16890Y26669D02*
X17350Y27130D01*
X16160Y33926D02*
X16507D01*
X16080Y34006D02*
X16160Y33926D01*
X16080Y34006D02*
Y34443D01*
X16243Y34606D01*
Y35354D01*
X18681Y38898D02*
Y39549D01*
X17280Y40950D02*
X18681Y39549D01*
X15680Y40950D02*
X17280D01*
X15150Y40420D02*
X15680Y40950D01*
X15150Y27420D02*
Y40420D01*
X18212Y32222D02*
Y35354D01*
X17800Y31810D02*
X18212Y32222D01*
X24190Y29670D02*
Y35580D01*
X25460Y36850D01*
X20490Y37860D02*
X20650Y38020D01*
Y38898D01*
X20241Y37860D02*
X20490D01*
X20101Y37720D02*
X20241Y37860D01*
X20101Y37598D02*
Y37720D01*
X17840Y31270D02*
X19660D01*
X20292Y31903D01*
Y35354D01*
X22070Y35520D02*
X22230Y35680D01*
X22310D01*
X22390Y35760D01*
Y36371D01*
X22539Y36520D01*
Y36693D01*
X18575Y31795D02*
X20101Y33321D01*
X16434Y34274D02*
Y35354D01*
X22300Y37440D02*
Y37598D01*
X22100Y37240D02*
X22300Y37440D01*
X20492Y37240D02*
X22100D01*
X18403Y35200D02*
Y35354D01*
Y35200D02*
X18723Y34880D01*
X19781D01*
X20101Y35200D01*
X22818D02*
Y35354D01*
X22455Y34837D02*
X22818Y35200D01*
X20960Y34837D02*
X22455D01*
X20889Y35354D02*
X20960Y34837D01*
X20236Y35984D02*
Y36370D01*
X16378Y36709D02*
X17109Y37417D01*
X16378Y35945D02*
Y36709D01*
X14590Y51169D02*
X15039Y51618D01*
X14590Y46634D02*
Y51169D01*
Y46634D02*
X14961Y46264D01*
X18999Y37598D02*
Y37820D01*
X18830Y37989D02*
X18999Y37820D01*
X18830Y37989D02*
Y38460D01*
X18910Y38540D01*
Y42314D01*
X14961Y46264D02*
X18910Y42314D01*
X17109Y37598D02*
Y37680D01*
X16999Y37790D02*
X17109Y37680D01*
X16480Y37790D02*
X16999D01*
X16378Y37892D02*
X16480Y37790D01*
X16378Y37892D02*
Y38228D01*
X17109Y37440D02*
Y37598D01*
Y37417D02*
X17554D01*
X18307Y38170D01*
X18999Y37390D02*
Y37489D01*
Y37390D02*
X19496D01*
X20276Y38170D01*
Y38228D01*
X41150Y36642D02*
X42598D01*
X40768Y36260D02*
X41150Y36642D01*
X38819Y35551D02*
Y37752D01*
X39173Y38106D01*
X39567Y33980D02*
Y35551D01*
X39173Y33587D02*
X39567Y33980D01*
X40394Y35591D02*
Y37713D01*
X40787Y38106D01*
X41142Y33980D02*
Y35591D01*
X40748Y33587D02*
X41142Y33980D01*
X23380Y35560D02*
X23940Y36120D01*
X23380Y31423D02*
Y35560D01*
Y31423D02*
X23787Y31016D01*
X9820Y41733D02*
X10228Y42142D01*
X9820Y40910D02*
Y41733D01*
Y40910D02*
X10080Y40650D01*
X10310D01*
X10640Y40320D01*
Y39820D02*
Y40320D01*
X10370Y39550D02*
X10640Y39820D01*
X9860Y39550D02*
X10370D01*
X9820Y39510D02*
X9860Y39550D01*
X9820Y31990D02*
Y39510D01*
Y31990D02*
X11740Y30070D01*
Y28100D02*
Y30070D01*
Y28100D02*
X12160Y27680D01*
X13440D01*
X13760Y27360D01*
Y26100D02*
Y27360D01*
Y26100D02*
X15260Y24600D01*
X18480D01*
X18830Y24950D01*
Y27320D01*
X19200Y27690D01*
X22940D01*
X24787Y29537D01*
Y31016D01*
X24380Y31608D02*
X24787Y32016D01*
X24380Y29910D02*
Y31608D01*
Y29910D02*
X24430Y29860D01*
Y29430D02*
Y29860D01*
X23655Y28654D02*
X24430Y29430D01*
X19554Y28654D02*
X23655D01*
X18480Y27580D02*
X19554Y28654D01*
X18480Y25130D02*
Y27580D01*
X18140Y24790D02*
X18480Y25130D01*
X15400Y24790D02*
X18140D01*
X15135Y25055D02*
X15400Y24790D01*
X15135Y25055D02*
Y26553D01*
X13598Y28090D02*
X15135Y26553D01*
X12450Y28090D02*
X13598D01*
X12060Y28480D02*
X12450Y28090D01*
X12060Y28480D02*
Y33830D01*
X10826Y35064D02*
X12060Y33830D01*
X10826Y35064D02*
Y39380D01*
X11185Y39739D01*
X11630D01*
X11640Y39749D01*
Y41730D01*
X11228Y42142D02*
X11640Y41730D01*
X9680Y39593D02*
X10228Y40142D01*
X9680Y28870D02*
Y39593D01*
Y28870D02*
X11280Y27270D01*
X13120D01*
X13490Y26900D01*
Y25970D02*
Y26900D01*
Y25970D02*
X15210Y24250D01*
X18620D01*
X19010Y24640D01*
Y27210D01*
X19200Y27400D01*
X23172D01*
X26787Y31016D01*
X12640Y40890D02*
Y43730D01*
X11228Y45142D02*
X12640Y43730D01*
X23190Y35730D02*
X24590Y37130D01*
X23190Y31418D02*
Y35730D01*
X22787Y31016D02*
X23190Y31418D01*
X10860Y45773D02*
X11228Y46142D01*
X10860Y45540D02*
Y45773D01*
X10826Y45506D02*
X10860Y45540D01*
X10826Y39660D02*
Y45506D01*
X10688Y39522D02*
X10826Y39660D01*
X10688Y34382D02*
Y39522D01*
Y34382D02*
X11810Y33260D01*
X18634Y31008D02*
X19779D01*
X20787Y32016D01*
X32764Y55046D02*
Y55551D01*
Y55046D02*
X33230Y54580D01*
Y51740D02*
Y54580D01*
Y51740D02*
X34240Y50730D01*
X35298D01*
X35468Y50560D01*
Y47042D02*
Y50560D01*
Y47042D02*
X35840Y46670D01*
X37200D01*
X37453Y46417D01*
X35500Y42890D02*
X35670Y42720D01*
X36290D01*
X36770Y43200D01*
Y43570D01*
X37120Y43920D01*
X37810D01*
X37880Y43990D01*
Y44640D01*
X37680Y44840D02*
X37880Y44640D01*
X37590Y44840D02*
X37680D01*
X37440Y44990D02*
X37590Y44840D01*
X37220Y44990D02*
X37440D01*
X37020Y45190D02*
X37220Y44990D01*
X37020Y45190D02*
Y45985D01*
X37453Y46417D01*
X13583Y50327D02*
Y50634D01*
X11169Y47913D02*
X13583Y50327D01*
X40815Y46409D02*
Y47913D01*
X40039Y45634D02*
X40815Y46409D01*
X18307Y35984D02*
Y36593D01*
X17830Y37070D02*
X18307Y36593D01*
X17830Y37070D02*
Y37610D01*
X18240Y38020D01*
X18307Y36797D02*
X18999Y37489D01*
Y37598D01*
X18363Y37263D02*
Y37598D01*
X18240Y37140D02*
X18363Y37263D01*
X19010Y36830D02*
X19350Y37170D01*
X20022D01*
X20292Y37440D02*
Y37598D01*
X16360Y34200D02*
X16434Y34274D01*
X16395Y37415D02*
Y37598D01*
X16150Y37170D02*
X16395Y37415D01*
X16150Y35710D02*
Y37170D01*
Y35710D02*
X16320Y35540D01*
X16410D01*
X16434Y35516D01*
Y35354D02*
Y35516D01*
X17070Y35173D02*
Y35354D01*
Y35173D02*
X17422D01*
X18009Y35760D01*
X18307D01*
Y35984D01*
X10228Y46142D02*
X10580Y46493D01*
Y48570D01*
X13050Y51040D01*
X14020D01*
X14190Y50870D01*
Y28020D02*
Y50870D01*
Y28020D02*
X15273Y26937D01*
Y25336D02*
Y26937D01*
Y25336D02*
X15539Y25070D01*
X17610D01*
X18140Y25600D01*
Y28368D01*
X20787Y31016D01*
X20101Y35354D02*
Y35539D01*
X20030Y35610D02*
X20101Y35539D01*
X42520Y40461D02*
X42989D01*
X43450Y40000D01*
Y34800D02*
Y40000D01*
X42600Y33950D02*
X43450Y34800D01*
X42600Y31530D02*
Y33950D01*
X41250Y30180D02*
X42600Y31530D01*
X40370Y30180D02*
X41250D01*
X38770Y31780D02*
X40370Y30180D01*
X38770Y31780D02*
Y34780D01*
X39193Y35203D01*
Y36220D01*
X22897Y37598D02*
Y37800D01*
X22730Y37967D02*
X22897Y37800D01*
X22730Y37967D02*
Y38510D01*
X22800Y38580D01*
Y39350D01*
X22470Y39680D02*
X22800Y39350D01*
X22170Y39680D02*
X22470D01*
X22110Y39620D02*
X22170Y39680D01*
X22110Y38965D02*
Y39620D01*
Y38965D02*
X22205Y38870D01*
Y38228D02*
Y38870D01*
X20967Y37598D02*
Y37620D01*
X20800Y37700D02*
X20880Y37620D01*
X20800Y37700D02*
Y38480D01*
X20880Y38560D01*
Y39200D01*
X20710Y39370D02*
X20880Y39200D01*
X20606Y39370D02*
X20710D01*
X20276Y39040D02*
X20606Y39370D01*
X20276Y38228D02*
Y39040D01*
X22579Y38898D02*
Y39151D01*
X22350Y39380D02*
X22579Y39151D01*
X17940Y39220D02*
Y39380D01*
X17812Y39508D02*
X17940Y39380D01*
X16408Y39508D02*
X17812D01*
X15940Y39040D02*
X16408Y39508D01*
X15940Y33310D02*
Y39040D01*
Y33310D02*
X16430Y32820D01*
Y32129D02*
Y32820D01*
Y32129D02*
X16890Y31669D01*
X34340Y44797D02*
X34732Y45189D01*
X34340Y40340D02*
Y44797D01*
X17126Y38810D02*
X17446Y39130D01*
X17126Y38228D02*
Y38810D01*
X18403Y35354D02*
X18634D01*
X18830Y35550D01*
Y36210D01*
X18910Y36290D01*
Y36800D01*
X20022Y37170D02*
X20292Y37440D01*
X20940Y36500D02*
Y36570D01*
X20760Y36320D02*
X20940Y36500D01*
X20760Y35580D02*
Y36320D01*
Y35580D02*
X20889Y35451D01*
Y35354D02*
Y35451D01*
X20236Y35780D02*
Y35984D01*
X20166Y35850D02*
X20236Y35780D01*
X19880Y35850D02*
X20166D01*
X19790Y35760D02*
X19880Y35850D01*
X19790Y35540D02*
Y35760D01*
X19290Y35040D02*
X19790Y35540D01*
X19110Y35040D02*
X19290D01*
X18960Y35190D02*
X19110Y35040D01*
X18960Y35190D02*
Y35354D01*
X20610Y35848D02*
Y36654D01*
X20292Y35530D02*
X20610Y35848D01*
X20292Y35354D02*
Y35530D01*
X22897Y37540D02*
Y37598D01*
X22165Y36024D02*
Y36880D01*
X20967Y37410D02*
Y37598D01*
Y37410D02*
X21445D01*
X22205Y38170D01*
Y38228D01*
X16890Y32669D02*
X17346Y32213D01*
Y31439D02*
Y32213D01*
X17120Y31213D02*
X17346Y31439D01*
X16603Y31213D02*
X17120D01*
X16430Y31040D02*
X16603Y31213D01*
X16430Y26400D02*
Y31040D01*
Y26400D02*
X16620Y26210D01*
X17440D01*
X17620Y26390D01*
Y28435D01*
X20603Y31418D01*
X20798D01*
X21190Y31810D01*
Y34250D01*
X20750Y34690D02*
X21190Y34250D01*
X21960Y35600D02*
X22070Y35490D01*
X22261Y35203D02*
Y35354D01*
X22231Y35173D02*
X22261Y35203D01*
X21767Y35173D02*
X22231D01*
X21610Y35330D02*
X21767Y35173D01*
X21610Y35330D02*
Y36530D01*
X21062Y37078D02*
X21610Y36530D01*
X20655Y37078D02*
X21062D01*
X16752Y38680D02*
Y38898D01*
X16320Y38680D02*
X16752D01*
X16150Y38510D02*
X16320Y38680D01*
X16150Y37994D02*
Y38510D01*
Y37994D02*
X16204Y37940D01*
Y37598D02*
Y37940D01*
X33740Y37186D02*
Y37290D01*
X33840Y37390D01*
X35457D01*
X39173Y41106D01*
X33951Y47189D02*
X34560Y46580D01*
X34889D01*
X35829Y45640D01*
X36390D01*
X36888Y45142D01*
Y44983D02*
Y45142D01*
Y44983D02*
X37453Y44417D01*
X19669Y46339D02*
X21288Y44720D01*
X22862D01*
X24690Y46548D01*
Y47081D01*
X26790Y49181D01*
X27323D01*
X39630Y47913D02*
X39815D01*
X39630Y41237D02*
X41406Y39461D01*
X42520D01*
X34504Y29756D02*
X35098Y30350D01*
Y35352D01*
X34134Y36316D02*
X35098Y35352D01*
X34134Y36316D02*
Y37186D01*
X33504Y29756D02*
X33970Y30222D01*
Y31040D01*
X34229Y31299D01*
X34740D01*
X34961Y31520D01*
Y33079D01*
X33740Y34300D02*
X34961Y33079D01*
X33740Y34300D02*
Y37186D01*
X32338Y49189D02*
X32864Y48664D01*
Y33580D02*
Y48664D01*
X32772Y33488D02*
X32864Y33580D01*
X32772Y31488D02*
Y33488D01*
Y31488D02*
X33504Y30756D01*
X34120Y30372D02*
X34504Y30756D01*
X34120Y30090D02*
Y30372D01*
X34000Y29970D02*
X34120Y30090D01*
X34000Y29530D02*
Y29970D01*
X33760Y29290D02*
X34000Y29530D01*
X32530Y29290D02*
X33760D01*
X30720Y31100D02*
X32530Y29290D01*
X30720Y31100D02*
Y36760D01*
X29120Y38360D02*
X30720Y36760D01*
X29120Y38360D02*
Y49363D01*
X28683Y49800D02*
X29120Y49363D01*
X28460Y49800D02*
X28683D01*
X28340Y49920D02*
X28460Y49800D01*
X28340Y49920D02*
Y52797D01*
X28732Y53189D01*
X36770Y48100D02*
X37453Y47417D01*
X36770Y48100D02*
Y50310D01*
X36440Y50640D02*
X36770Y50310D01*
X27840Y47297D02*
X28732Y48189D01*
X27840Y36580D02*
Y47297D01*
X27520Y36260D02*
X27840Y36580D01*
X26803Y36260D02*
X27520D01*
X26252Y36811D02*
X26803Y36260D01*
X26728Y48587D02*
X27323Y49181D01*
X26728Y40718D02*
Y48587D01*
Y40718D02*
X27252Y40195D01*
Y36811D02*
Y40195D01*
X18681Y38080D02*
Y38898D01*
X18461Y37860D02*
X18681Y38080D01*
X18322Y37860D02*
X18461D01*
X18172Y37710D02*
X18322Y37860D01*
X18172Y37598D02*
Y37710D01*
X18681Y35840D02*
Y36654D01*
X18461Y35620D02*
X18681Y35840D01*
X18362Y35620D02*
X18461D01*
X18212Y35470D02*
X18362Y35620D01*
X18212Y35354D02*
Y35470D01*
X22579Y38039D02*
Y38898D01*
X22400Y37860D02*
X22579Y38039D01*
X22249Y37860D02*
X22400D01*
X22109Y37720D02*
X22249Y37860D01*
X22109Y37598D02*
Y37720D01*
X31738Y48789D02*
X32338Y48189D01*
X31738Y48789D02*
Y54189D01*
X33504Y32756D02*
Y48961D01*
X34732Y50189D01*
X29787Y31016D02*
Y32016D01*
X31764Y54875D02*
Y55551D01*
X31738Y54850D02*
X31764Y54875D01*
X31738Y54189D02*
Y54850D01*
X12913Y30939D02*
Y32362D01*
X12874Y30900D02*
X12913Y30939D01*
X12874Y29488D02*
Y30900D01*
X15890Y25669D02*
Y26669D01*
Y27669D01*
Y31669D02*
Y32669D01*
Y30669D02*
Y31669D01*
Y29669D02*
Y30669D01*
Y27669D02*
Y28669D01*
Y29669D01*
X11228Y38142D02*
Y39142D01*
Y37142D02*
Y38142D01*
X29764Y54875D02*
Y55551D01*
X29738Y54850D02*
X29764Y54875D01*
X29738Y54189D02*
Y54850D01*
X30764Y54875D02*
Y55551D01*
X30738Y54850D02*
X30764Y54875D01*
X30738Y54189D02*
Y54850D01*
X33764Y54875D02*
Y55551D01*
X33738Y54850D02*
X33764Y54875D01*
X33738Y54189D02*
Y54850D01*
X17126Y37994D02*
Y38228D01*
Y37994D02*
X17300Y37820D01*
Y37598D02*
Y37820D01*
X19055Y37975D02*
Y38228D01*
Y37975D02*
X19190Y37840D01*
Y37598D02*
Y37840D01*
X19055Y35716D02*
Y35984D01*
Y35716D02*
X19151Y35620D01*
Y35354D02*
Y35620D01*
X21024Y37975D02*
Y38228D01*
Y37975D02*
X21159Y37840D01*
Y37598D02*
Y37840D01*
X20984Y35716D02*
Y35984D01*
Y35716D02*
X21080Y35620D01*
Y35354D02*
Y35620D01*
X22953Y37975D02*
Y38228D01*
Y37975D02*
X23088Y37840D01*
Y37598D02*
Y37840D01*
X22913Y35736D02*
Y36024D01*
Y35736D02*
X23009Y35640D01*
Y35354D02*
Y35640D01*
X42520Y38310D02*
Y39461D01*
Y38310D02*
X43050Y37780D01*
Y36362D02*
Y37780D01*
X42598Y35910D02*
X43050Y36362D01*
X42598Y35642D02*
Y35910D01*
X23787Y50838D02*
Y55236D01*
X23669Y50720D02*
X23787Y50838D01*
X23669Y46339D02*
Y50720D01*
D15*
X21669Y40339D02*
D03*
X20669D02*
D03*
X18669Y46339D02*
D03*
X19669D02*
D03*
X22669Y40339D02*
D03*
X20669Y46339D02*
D03*
X23669D02*
D03*
X22669D02*
D03*
X19669Y40339D02*
D03*
X21669Y46339D02*
D03*
X16669Y40339D02*
D03*
X25669D02*
D03*
X16669Y46339D02*
D03*
X25669D02*
D03*
X21787Y49236D02*
D03*
X20787D02*
D03*
X18787Y55236D02*
D03*
X19787D02*
D03*
X22787Y49236D02*
D03*
X20787Y55236D02*
D03*
X23787D02*
D03*
X22787D02*
D03*
X19787Y49236D02*
D03*
X21787Y55236D02*
D03*
X16787Y49236D02*
D03*
X25787D02*
D03*
X16787Y55236D02*
D03*
X25787D02*
D03*
X13583Y47634D02*
D03*
Y50634D02*
D03*
X11169Y47913D02*
D03*
X40815D02*
D03*
X40039Y42634D02*
D03*
Y45634D02*
D03*
X39173Y41106D02*
D03*
Y38106D02*
D03*
X40787Y41106D02*
D03*
Y38106D02*
D03*
X40748Y33587D02*
D03*
Y30587D02*
D03*
X39173Y33587D02*
D03*
Y30587D02*
D03*
X15039Y51618D02*
D03*
Y48618D02*
D03*
X14961Y46264D02*
D03*
Y43264D02*
D03*
X10228Y46142D02*
D03*
X11228D02*
D03*
X10228Y45142D02*
D03*
X11228D02*
D03*
X10228Y44142D02*
D03*
X11228D02*
D03*
X10228Y43142D02*
D03*
X11228D02*
D03*
X10228Y42142D02*
D03*
X11228D02*
D03*
X10228Y41142D02*
D03*
X11228D02*
D03*
X10228Y40142D02*
D03*
X11228D02*
D03*
X10228Y39142D02*
D03*
X11228D02*
D03*
X10228Y38142D02*
D03*
X11228D02*
D03*
X10228Y37142D02*
D03*
X11228D02*
D03*
X29787Y32016D02*
D03*
Y31016D02*
D03*
X28787Y32016D02*
D03*
Y31016D02*
D03*
X27787Y32016D02*
D03*
Y31016D02*
D03*
X26787Y32016D02*
D03*
Y31016D02*
D03*
X25787Y32016D02*
D03*
Y31016D02*
D03*
X24787Y32016D02*
D03*
Y31016D02*
D03*
X23787Y32016D02*
D03*
Y31016D02*
D03*
X22787Y32016D02*
D03*
Y31016D02*
D03*
X21787Y32016D02*
D03*
Y31016D02*
D03*
X20787Y32016D02*
D03*
Y31016D02*
D03*
X42520Y40461D02*
D03*
X42598Y36642D02*
D03*
D16*
X10169Y47913D02*
D03*
X39815D02*
D03*
D17*
X34504Y28756D02*
D03*
X33504D02*
D03*
X34504Y29756D02*
D03*
X33504D02*
D03*
X34504Y30756D02*
D03*
X33504D02*
D03*
X34504Y31756D02*
D03*
X33504D02*
D03*
X34504Y32756D02*
D03*
X27323Y41181D02*
D03*
Y42181D02*
D03*
Y43181D02*
D03*
Y44181D02*
D03*
Y45181D02*
D03*
Y46181D02*
D03*
Y47181D02*
D03*
Y48181D02*
D03*
Y49181D02*
D03*
Y50181D02*
D03*
Y51181D02*
D03*
Y52181D02*
D03*
Y53181D02*
D03*
Y54181D02*
D03*
X15890Y29669D02*
D03*
X16890D02*
D03*
X15890Y28669D02*
D03*
X16890D02*
D03*
X15890Y27669D02*
D03*
X16890D02*
D03*
X15890Y26669D02*
D03*
X16890D02*
D03*
X15890Y25669D02*
D03*
X36063Y41181D02*
D03*
Y42181D02*
D03*
Y43181D02*
D03*
Y44181D02*
D03*
Y45181D02*
D03*
Y46181D02*
D03*
Y47181D02*
D03*
Y48181D02*
D03*
Y49181D02*
D03*
Y50181D02*
D03*
Y51181D02*
D03*
Y52181D02*
D03*
Y53181D02*
D03*
Y54181D02*
D03*
D18*
X33504Y32756D02*
D03*
X16890Y25669D02*
D03*
D19*
X33504Y27756D02*
D03*
X34504D02*
D03*
X33504Y26756D02*
D03*
X34504D02*
D03*
X33504Y25756D02*
D03*
X34504D02*
D03*
X16890Y30669D02*
D03*
X15890D02*
D03*
X16890Y31669D02*
D03*
X15890D02*
D03*
X16890Y32669D02*
D03*
X15890D02*
D03*
D20*
X33764Y55551D02*
D03*
X32764D02*
D03*
X31764D02*
D03*
X30764D02*
D03*
D21*
X29764D02*
D03*
D22*
X37795Y51968D02*
D03*
X12598Y26378D02*
D03*
X37795D02*
D03*
X12598Y51968D02*
D03*
D23*
X34732Y41189D02*
D03*
Y42189D02*
D03*
Y43189D02*
D03*
Y44189D02*
D03*
Y45189D02*
D03*
Y46189D02*
D03*
Y47189D02*
D03*
Y48189D02*
D03*
Y49189D02*
D03*
Y50189D02*
D03*
Y51189D02*
D03*
Y52189D02*
D03*
Y53189D02*
D03*
Y54189D02*
D03*
X28732D02*
D03*
Y53189D02*
D03*
Y52189D02*
D03*
Y51189D02*
D03*
Y50189D02*
D03*
Y49189D02*
D03*
Y48189D02*
D03*
Y47189D02*
D03*
Y46189D02*
D03*
Y45189D02*
D03*
Y44189D02*
D03*
Y43189D02*
D03*
Y42189D02*
D03*
Y41189D02*
D03*
X29738Y54189D02*
D03*
X30738D02*
D03*
X31738D02*
D03*
X32738D02*
D03*
X33738D02*
D03*
X30138Y53189D02*
D03*
X32338D02*
D03*
Y52189D02*
D03*
X30138D02*
D03*
Y51189D02*
D03*
X32338D02*
D03*
Y50189D02*
D03*
X30138D02*
D03*
Y49189D02*
D03*
X32338D02*
D03*
Y48189D02*
D03*
X30138D02*
D03*
Y47189D02*
D03*
X32338D02*
D03*
X29738Y46189D02*
D03*
Y45189D02*
D03*
Y44189D02*
D03*
Y42189D02*
D03*
D24*
X10906Y29488D02*
D03*
X12874D02*
D03*
X10945Y32362D02*
D03*
X12913D02*
D03*
D25*
X42520Y39461D02*
D03*
X42598Y35642D02*
D03*
D26*
X37453Y42417D02*
D03*
D27*
X38453D02*
D03*
X37453Y43417D02*
D03*
X38453D02*
D03*
X37453Y44417D02*
D03*
X38453D02*
D03*
X37453Y45417D02*
D03*
X38453D02*
D03*
X37453Y46417D02*
D03*
X38453D02*
D03*
X37453Y47417D02*
D03*
X38453D02*
D03*
X37453Y48417D02*
D03*
X38453D02*
D03*
X37453Y49417D02*
D03*
X38453D02*
D03*
X37453Y50417D02*
D03*
X38453D02*
D03*
D28*
X26252Y36811D02*
D03*
D29*
X27252D02*
D03*
X28252D02*
D03*
X29252D02*
D03*
D30*
X31070Y41180D02*
D03*
X10880Y48330D02*
D03*
X25580Y36400D02*
D03*
X32110Y34350D02*
D03*
X33790Y39380D02*
D03*
X17930Y36040D02*
D03*
X19080Y47360D02*
D03*
X26414Y46680D02*
D03*
X35120Y46760D02*
D03*
X37890Y41640D02*
D03*
X22120Y41120D02*
D03*
X34730Y38040D02*
D03*
X21260Y35080D02*
D03*
X25421Y47181D02*
D03*
X15150Y27420D02*
D03*
X17800Y31810D02*
D03*
X24190Y29670D02*
D03*
X25460Y36850D02*
D03*
X20490Y37860D02*
D03*
X17840Y31270D02*
D03*
X18575Y31795D02*
D03*
X16360Y34200D02*
D03*
X20236Y36370D02*
D03*
X23940Y36120D02*
D03*
X12640Y40890D02*
D03*
X24590Y37130D02*
D03*
X11810Y33260D02*
D03*
X18634Y31008D02*
D03*
X35500Y42890D02*
D03*
X18240Y37140D02*
D03*
X19010Y36830D02*
D03*
X20030Y35610D02*
D03*
X22350Y39380D02*
D03*
X17940Y39220D02*
D03*
X34340Y40340D02*
D03*
X17446Y39130D02*
D03*
X20940Y36570D02*
D03*
X20750Y34690D02*
D03*
X21960Y35600D02*
D03*
X22600Y37500D02*
D03*
X33951Y47189D02*
D03*
X36440Y50640D02*
D03*
M02*
