G04 Layer_Physical_Order=2*
G04 Layer_Color=11436288*
%FSLAX24Y24*%
%MOIN*%
G70*
G01*
G75*
%ADD14C,0.0100*%
%ADD15C,0.0071*%
%ADD16C,0.0600*%
%ADD17R,0.0600X0.0600*%
%ADD18C,0.0709*%
%ADD19R,0.0709X0.0709*%
%ADD20C,0.0709*%
%ADD21O,0.0600X0.0800*%
%ADD22R,0.0600X0.0800*%
%ADD23C,0.1102*%
%ADD24C,0.1575*%
%ADD25C,0.0570*%
%ADD26R,0.0650X0.0650*%
%ADD27C,0.0650*%
%ADD28C,0.1181*%
%ADD29R,0.0600X0.0600*%
%ADD30C,0.0500*%
G36*
X26039Y58648D02*
X26879Y58593D01*
X27715Y58501D01*
X28548Y58373D01*
X29373Y58209D01*
X30191Y58009D01*
X30999Y57773D01*
X31796Y57502D01*
X32581Y57197D01*
X33352Y56858D01*
X34107Y56486D01*
X34845Y56081D01*
X35565Y55644D01*
X36265Y55176D01*
X36943Y54679D01*
X37600Y54152D01*
X38233Y53597D01*
X38841Y53014D01*
X39423Y52406D01*
X39978Y51773D01*
X40505Y51117D01*
X41003Y50438D01*
X41471Y49738D01*
X41908Y49018D01*
X42313Y48280D01*
X42685Y47525D01*
X43024Y46754D01*
X43329Y45970D01*
X43600Y45172D01*
X43835Y44364D01*
X44035Y43547D01*
X44200Y42721D01*
X44328Y41889D01*
X44419Y41052D01*
X44474Y40212D01*
X44493Y39370D01*
X44474Y38528D01*
X44419Y37688D01*
X44328Y36851D01*
X44200Y36019D01*
X44035Y35194D01*
X43835Y34376D01*
X43600Y33568D01*
X43329Y32770D01*
X43024Y31986D01*
X42685Y31215D01*
X42313Y30460D01*
X41908Y29722D01*
X41471Y29002D01*
X41003Y28302D01*
X40505Y27623D01*
X39978Y26967D01*
X39423Y26334D01*
X38841Y25726D01*
X38233Y25144D01*
X37600Y24589D01*
X36943Y24062D01*
X36265Y23564D01*
X35565Y23096D01*
X34845Y22659D01*
X34107Y22254D01*
X33352Y21882D01*
X32581Y21543D01*
X31796Y21238D01*
X31199Y21035D01*
X31149Y21071D01*
Y21629D01*
X31142D01*
Y27087D01*
X19245D01*
X19245Y27087D01*
Y21071D01*
X19195Y21035D01*
X18597Y21238D01*
X17813Y21543D01*
X17042Y21882D01*
X16287Y22254D01*
X15549Y22659D01*
X14829Y23096D01*
X14129Y23564D01*
X13450Y24062D01*
X12794Y24589D01*
X12161Y25144D01*
X11553Y25726D01*
X10970Y26334D01*
X10415Y26967D01*
X9888Y27623D01*
X9391Y28302D01*
X8923Y29002D01*
X8486Y29722D01*
X8081Y30460D01*
X7709Y31215D01*
X7370Y31986D01*
X7065Y32770D01*
X6794Y33568D01*
X6558Y34376D01*
X6358Y35194D01*
X6194Y36019D01*
X6066Y36851D01*
X5974Y37688D01*
X5919Y38528D01*
X5901Y39370D01*
X5919Y40212D01*
X5974Y41052D01*
X6066Y41889D01*
X6194Y42721D01*
X6358Y43547D01*
X6558Y44364D01*
X6794Y45172D01*
X7065Y45970D01*
X7370Y46754D01*
X7709Y47525D01*
X8081Y48280D01*
X8486Y49018D01*
X8923Y49738D01*
X9391Y50438D01*
X9888Y51117D01*
X10415Y51773D01*
X10970Y52406D01*
X11553Y53014D01*
X12161Y53597D01*
X12794Y54152D01*
X13450Y54679D01*
X14129Y55176D01*
X14829Y55644D01*
X15549Y56081D01*
X16287Y56486D01*
X17042Y56858D01*
X17813Y57197D01*
X18597Y57502D01*
X19394Y57773D01*
X20203Y58009D01*
X21020Y58209D01*
X21846Y58373D01*
X22678Y58501D01*
X23515Y58593D01*
X24355Y58648D01*
X25197Y58666D01*
X26039Y58648D01*
D02*
G37*
%LPC*%
G36*
X39173Y41476D02*
X39077Y41464D01*
X38988Y41427D01*
X38912Y41368D01*
X38853Y41291D01*
X38816Y41202D01*
X38803Y41106D01*
X38816Y41011D01*
X38853Y40921D01*
X38912Y40845D01*
X38988Y40786D01*
X39077Y40749D01*
X39173Y40736D01*
X39269Y40749D01*
X39358Y40786D01*
X39435Y40845D01*
X39494Y40921D01*
X39531Y41011D01*
X39543Y41106D01*
X39531Y41202D01*
X39494Y41291D01*
X39435Y41368D01*
X39358Y41427D01*
X39269Y41464D01*
X39173Y41476D01*
D02*
G37*
G36*
X13583Y51004D02*
X13487Y50991D01*
X13398Y50954D01*
X13321Y50896D01*
X13262Y50819D01*
X13225Y50730D01*
X13213Y50634D01*
X13225Y50538D01*
X13262Y50449D01*
X13321Y50372D01*
X13398Y50313D01*
X13487Y50276D01*
X13583Y50264D01*
X13678Y50276D01*
X13768Y50313D01*
X13844Y50372D01*
X13903Y50449D01*
X13940Y50538D01*
X13953Y50634D01*
X13940Y50730D01*
X13903Y50819D01*
X13844Y50896D01*
X13768Y50954D01*
X13678Y50991D01*
X13583Y51004D01*
D02*
G37*
G36*
X40787Y41476D02*
X40692Y41464D01*
X40602Y41427D01*
X40526Y41368D01*
X40467Y41291D01*
X40430Y41202D01*
X40417Y41106D01*
X40430Y41011D01*
X40467Y40921D01*
X40526Y40845D01*
X40602Y40786D01*
X40692Y40749D01*
X40787Y40736D01*
X40883Y40749D01*
X40972Y40786D01*
X41049Y40845D01*
X41108Y40921D01*
X41145Y41011D01*
X41157Y41106D01*
X41145Y41202D01*
X41108Y41291D01*
X41049Y41368D01*
X40972Y41427D01*
X40883Y41464D01*
X40787Y41476D01*
D02*
G37*
G36*
Y38476D02*
X40692Y38464D01*
X40602Y38427D01*
X40526Y38368D01*
X40467Y38291D01*
X40430Y38202D01*
X40417Y38106D01*
X40430Y38011D01*
X40467Y37921D01*
X40526Y37845D01*
X40602Y37786D01*
X40692Y37749D01*
X40787Y37736D01*
X40883Y37749D01*
X40972Y37786D01*
X41049Y37845D01*
X41108Y37921D01*
X41145Y38011D01*
X41157Y38106D01*
X41145Y38202D01*
X41108Y38291D01*
X41049Y38368D01*
X40972Y38427D01*
X40883Y38464D01*
X40787Y38476D01*
D02*
G37*
G36*
X25669Y40910D02*
X25521Y40891D01*
X25383Y40834D01*
X25265Y40743D01*
X25174Y40624D01*
X25117Y40487D01*
X25097Y40339D01*
X25117Y40191D01*
X25174Y40053D01*
X25265Y39934D01*
X25383Y39843D01*
X25521Y39786D01*
X25669Y39767D01*
X25817Y39786D01*
X25955Y39843D01*
X26074Y39934D01*
X26165Y40053D01*
X26222Y40191D01*
X26241Y40339D01*
X26222Y40487D01*
X26165Y40624D01*
X26074Y40743D01*
X25955Y40834D01*
X25817Y40891D01*
X25669Y40910D01*
D02*
G37*
G36*
X34504Y28181D02*
X34394Y28166D01*
X34291Y28124D01*
X34203Y28056D01*
X34136Y27968D01*
X34094Y27866D01*
X34079Y27756D01*
X34094Y27646D01*
X34136Y27543D01*
X34203Y27455D01*
X34291Y27388D01*
X34394Y27345D01*
X34504Y27331D01*
X34614Y27345D01*
X34716Y27388D01*
X34804Y27455D01*
X34872Y27543D01*
X34914Y27646D01*
X34929Y27756D01*
X34914Y27866D01*
X34872Y27968D01*
X34804Y28056D01*
X34716Y28124D01*
X34614Y28166D01*
X34504Y28181D01*
D02*
G37*
G36*
Y27181D02*
X34394Y27166D01*
X34291Y27124D01*
X34203Y27056D01*
X34136Y26968D01*
X34094Y26866D01*
X34079Y26756D01*
X34094Y26646D01*
X34136Y26543D01*
X34203Y26455D01*
X34291Y26388D01*
X34394Y26345D01*
X34504Y26331D01*
X34614Y26345D01*
X34716Y26388D01*
X34804Y26455D01*
X34872Y26543D01*
X34914Y26646D01*
X34929Y26756D01*
X34914Y26866D01*
X34872Y26968D01*
X34804Y27056D01*
X34716Y27124D01*
X34614Y27166D01*
X34504Y27181D01*
D02*
G37*
G36*
X33504D02*
X33394Y27166D01*
X33291Y27124D01*
X33203Y27056D01*
X33136Y26968D01*
X33094Y26866D01*
X33079Y26756D01*
X33094Y26646D01*
X33136Y26543D01*
X33203Y26455D01*
X33291Y26388D01*
X33394Y26345D01*
X33504Y26331D01*
X33614Y26345D01*
X33716Y26388D01*
X33804Y26455D01*
X33872Y26543D01*
X33914Y26646D01*
X33929Y26756D01*
X33914Y26866D01*
X33872Y26968D01*
X33804Y27056D01*
X33716Y27124D01*
X33614Y27166D01*
X33504Y27181D01*
D02*
G37*
G36*
X42520Y40831D02*
X42424Y40818D01*
X42335Y40781D01*
X42258Y40722D01*
X42199Y40646D01*
X42162Y40556D01*
X42150Y40461D01*
X42162Y40365D01*
X42199Y40276D01*
X42258Y40199D01*
X42335Y40140D01*
X42424Y40103D01*
X42520Y40091D01*
X42615Y40103D01*
X42705Y40140D01*
X42781Y40199D01*
X42840Y40276D01*
X42877Y40365D01*
X42890Y40461D01*
X42877Y40556D01*
X42840Y40646D01*
X42781Y40722D01*
X42705Y40781D01*
X42615Y40818D01*
X42520Y40831D01*
D02*
G37*
G36*
X12598Y52827D02*
X12431Y52810D01*
X12270Y52762D01*
X12121Y52682D01*
X11991Y52576D01*
X11885Y52445D01*
X11805Y52297D01*
X11756Y52136D01*
X11740Y51968D01*
X11756Y51801D01*
X11805Y51640D01*
X11885Y51492D01*
X11991Y51361D01*
X12121Y51255D01*
X12270Y51175D01*
X12431Y51127D01*
X12598Y51110D01*
X12766Y51127D01*
X12927Y51175D01*
X13075Y51255D01*
X13205Y51361D01*
X13312Y51492D01*
X13392Y51640D01*
X13440Y51801D01*
X13457Y51968D01*
X13440Y52136D01*
X13392Y52297D01*
X13312Y52445D01*
X13205Y52576D01*
X13075Y52682D01*
X12927Y52762D01*
X12766Y52810D01*
X12598Y52827D01*
D02*
G37*
G36*
X33504Y28181D02*
X33394Y28166D01*
X33291Y28124D01*
X33203Y28056D01*
X33136Y27968D01*
X33094Y27866D01*
X33079Y27756D01*
X33094Y27646D01*
X33136Y27543D01*
X33203Y27455D01*
X33291Y27388D01*
X33394Y27345D01*
X33504Y27331D01*
X33614Y27345D01*
X33716Y27388D01*
X33804Y27455D01*
X33872Y27543D01*
X33914Y27646D01*
X33929Y27756D01*
X33914Y27866D01*
X33872Y27968D01*
X33804Y28056D01*
X33716Y28124D01*
X33614Y28166D01*
X33504Y28181D01*
D02*
G37*
G36*
X25181Y37038D02*
X25060Y37026D01*
X24943Y36991D01*
X24836Y36934D01*
X24742Y36857D01*
X24665Y36762D01*
X24607Y36655D01*
X24572Y36538D01*
X24560Y36417D01*
X24572Y36296D01*
X24607Y36180D01*
X24665Y36072D01*
X24742Y35978D01*
X24836Y35901D01*
X24943Y35844D01*
X25060Y35808D01*
X25181Y35796D01*
X25302Y35808D01*
X25419Y35844D01*
X25526Y35901D01*
X25620Y35978D01*
X25698Y36072D01*
X25755Y36180D01*
X25790Y36296D01*
X25802Y36417D01*
X25790Y36538D01*
X25755Y36655D01*
X25698Y36762D01*
X25620Y36857D01*
X25526Y36934D01*
X25419Y36991D01*
X25302Y37026D01*
X25181Y37038D01*
D02*
G37*
G36*
X26740D02*
X26619Y37026D01*
X26502Y36991D01*
X26395Y36934D01*
X26301Y36857D01*
X26224Y36762D01*
X26166Y36655D01*
X26131Y36538D01*
X26119Y36417D01*
X26131Y36296D01*
X26166Y36180D01*
X26224Y36072D01*
X26301Y35978D01*
X26395Y35901D01*
X26502Y35844D01*
X26619Y35808D01*
X26740Y35796D01*
X26861Y35808D01*
X26978Y35844D01*
X27085Y35901D01*
X27179Y35978D01*
X27257Y36072D01*
X27314Y36180D01*
X27349Y36296D01*
X27361Y36417D01*
X27349Y36538D01*
X27314Y36655D01*
X27257Y36762D01*
X27179Y36857D01*
X27085Y36934D01*
X26978Y36991D01*
X26861Y37026D01*
X26740Y37038D01*
D02*
G37*
G36*
X40748Y33957D02*
X40652Y33944D01*
X40563Y33907D01*
X40486Y33848D01*
X40428Y33772D01*
X40391Y33682D01*
X40378Y33587D01*
X40391Y33491D01*
X40428Y33402D01*
X40486Y33325D01*
X40563Y33266D01*
X40652Y33229D01*
X40748Y33217D01*
X40844Y33229D01*
X40933Y33266D01*
X41010Y33325D01*
X41069Y33402D01*
X41106Y33491D01*
X41118Y33587D01*
X41106Y33682D01*
X41069Y33772D01*
X41010Y33848D01*
X40933Y33907D01*
X40844Y33944D01*
X40748Y33957D01*
D02*
G37*
G36*
X42965Y36009D02*
X42231D01*
Y35275D01*
X42965D01*
Y36009D01*
D02*
G37*
G36*
X37295Y46537D02*
X37193Y46524D01*
X37098Y46484D01*
X37016Y46421D01*
X36953Y46339D01*
X36913Y46244D01*
X36900Y46142D01*
X36913Y46039D01*
X36953Y45944D01*
X37016Y45862D01*
X37098Y45799D01*
X37193Y45760D01*
X37295Y45746D01*
X37398Y45760D01*
X37487Y45797D01*
X37951Y45334D01*
X37913Y45244D01*
X37900Y45142D01*
X37913Y45039D01*
X37953Y44944D01*
X38016Y44862D01*
X38098Y44799D01*
X38193Y44760D01*
X38295Y44746D01*
X38398Y44760D01*
X38493Y44799D01*
X38575Y44862D01*
X38638Y44944D01*
X38677Y45039D01*
X38691Y45142D01*
X38677Y45244D01*
X38638Y45339D01*
X38575Y45421D01*
X38493Y45484D01*
X38398Y45524D01*
X38295Y45537D01*
X38193Y45524D01*
X38098Y45484D01*
X38096Y45483D01*
X37637Y45943D01*
X37638Y45944D01*
X37677Y46039D01*
X37691Y46142D01*
X37677Y46244D01*
X37638Y46339D01*
X37575Y46421D01*
X37493Y46484D01*
X37398Y46524D01*
X37295Y46537D01*
D02*
G37*
G36*
X40039Y46004D02*
X39944Y45991D01*
X39854Y45954D01*
X39778Y45896D01*
X39719Y45819D01*
X39682Y45730D01*
X39669Y45634D01*
X39682Y45538D01*
X39719Y45449D01*
X39778Y45372D01*
X39854Y45313D01*
X39944Y45276D01*
X40039Y45264D01*
X40135Y45276D01*
X40224Y45313D01*
X40301Y45372D01*
X40360Y45449D01*
X40397Y45538D01*
X40409Y45634D01*
X40397Y45730D01*
X40360Y45819D01*
X40301Y45896D01*
X40224Y45954D01*
X40135Y45991D01*
X40039Y46004D01*
D02*
G37*
G36*
X40815Y48283D02*
X40719Y48271D01*
X40630Y48234D01*
X40553Y48175D01*
X40494Y48098D01*
X40457Y48009D01*
X40445Y47913D01*
X40457Y47818D01*
X40494Y47728D01*
X40553Y47652D01*
X40630Y47593D01*
X40719Y47556D01*
X40815Y47543D01*
X40911Y47556D01*
X41000Y47593D01*
X41077Y47652D01*
X41135Y47728D01*
X41172Y47818D01*
X41185Y47913D01*
X41172Y48009D01*
X41135Y48098D01*
X41077Y48175D01*
X41000Y48234D01*
X40911Y48271D01*
X40815Y48283D01*
D02*
G37*
G36*
X40182Y48280D02*
X39448D01*
Y47546D01*
X40182D01*
Y48280D01*
D02*
G37*
G36*
X39173Y38476D02*
X39077Y38464D01*
X38988Y38427D01*
X38912Y38368D01*
X38853Y38291D01*
X38816Y38202D01*
X38803Y38106D01*
X38816Y38011D01*
X38853Y37921D01*
X38912Y37845D01*
X38988Y37786D01*
X39077Y37749D01*
X39173Y37736D01*
X39269Y37749D01*
X39358Y37786D01*
X39435Y37845D01*
X39494Y37921D01*
X39531Y38011D01*
X39543Y38106D01*
X39531Y38202D01*
X39494Y38291D01*
X39435Y38368D01*
X39358Y38427D01*
X39269Y38464D01*
X39173Y38476D01*
D02*
G37*
G36*
Y33957D02*
X39077Y33944D01*
X38988Y33907D01*
X38912Y33848D01*
X38853Y33772D01*
X38816Y33682D01*
X38803Y33587D01*
X38816Y33491D01*
X38853Y33402D01*
X38912Y33325D01*
X38988Y33266D01*
X39077Y33229D01*
X39173Y33217D01*
X39269Y33229D01*
X39358Y33266D01*
X39435Y33325D01*
X39494Y33402D01*
X39531Y33491D01*
X39543Y33587D01*
X39531Y33682D01*
X39494Y33772D01*
X39435Y33848D01*
X39358Y33907D01*
X39269Y33944D01*
X39173Y33957D01*
D02*
G37*
G36*
X42598Y37012D02*
X42503Y36999D01*
X42413Y36962D01*
X42337Y36903D01*
X42278Y36827D01*
X42241Y36738D01*
X42228Y36642D01*
X42241Y36546D01*
X42278Y36457D01*
X42337Y36380D01*
X42413Y36321D01*
X42503Y36284D01*
X42598Y36272D01*
X42694Y36284D01*
X42783Y36321D01*
X42860Y36380D01*
X42919Y36457D01*
X42956Y36546D01*
X42969Y36642D01*
X42956Y36738D01*
X42919Y36827D01*
X42860Y36903D01*
X42783Y36962D01*
X42694Y36999D01*
X42598Y37012D01*
D02*
G37*
G36*
X11169Y48283D02*
X11074Y48271D01*
X10984Y48234D01*
X10908Y48175D01*
X10849Y48098D01*
X10812Y48009D01*
X10799Y47913D01*
X10812Y47818D01*
X10849Y47728D01*
X10908Y47652D01*
X10984Y47593D01*
X11074Y47556D01*
X11169Y47543D01*
X11265Y47556D01*
X11354Y47593D01*
X11431Y47652D01*
X11490Y47728D01*
X11527Y47818D01*
X11539Y47913D01*
X11527Y48009D01*
X11490Y48098D01*
X11431Y48175D01*
X11354Y48234D01*
X11265Y48271D01*
X11169Y48283D01*
D02*
G37*
G36*
X25787Y55808D02*
X25639Y55789D01*
X25501Y55731D01*
X25383Y55641D01*
X25292Y55522D01*
X25235Y55384D01*
X25216Y55236D01*
X25235Y55088D01*
X25292Y54950D01*
X25383Y54832D01*
X25501Y54741D01*
X25639Y54684D01*
X25787Y54664D01*
X25935Y54684D01*
X26073Y54741D01*
X26192Y54832D01*
X26283Y54950D01*
X26340Y55088D01*
X26359Y55236D01*
X26340Y55384D01*
X26283Y55522D01*
X26192Y55641D01*
X26073Y55731D01*
X25935Y55789D01*
X25787Y55808D01*
D02*
G37*
G36*
X18787Y55606D02*
X18692Y55594D01*
X18602Y55557D01*
X18526Y55498D01*
X18467Y55421D01*
X18430Y55332D01*
X18417Y55236D01*
X18430Y55140D01*
X18467Y55051D01*
X18526Y54975D01*
X18602Y54916D01*
X18692Y54879D01*
X18787Y54866D01*
X18883Y54879D01*
X18972Y54916D01*
X19049Y54975D01*
X19108Y55051D01*
X19145Y55140D01*
X19157Y55236D01*
X19145Y55332D01*
X19108Y55421D01*
X19049Y55498D01*
X18972Y55557D01*
X18883Y55594D01*
X18787Y55606D01*
D02*
G37*
G36*
X19787D02*
X19692Y55594D01*
X19602Y55557D01*
X19526Y55498D01*
X19467Y55421D01*
X19430Y55332D01*
X19417Y55236D01*
X19430Y55140D01*
X19467Y55051D01*
X19526Y54975D01*
X19602Y54916D01*
X19692Y54879D01*
X19787Y54866D01*
X19883Y54879D01*
X19972Y54916D01*
X20049Y54975D01*
X20108Y55051D01*
X20145Y55140D01*
X20157Y55236D01*
X20145Y55332D01*
X20108Y55421D01*
X20049Y55498D01*
X19972Y55557D01*
X19883Y55594D01*
X19787Y55606D01*
D02*
G37*
G36*
X33738Y54544D02*
X33646Y54532D01*
X33561Y54496D01*
X33487Y54440D01*
X33431Y54366D01*
X33395Y54281D01*
X33383Y54189D01*
X33395Y54097D01*
X33431Y54012D01*
X33487Y53938D01*
X33561Y53882D01*
X33646Y53846D01*
X33738Y53834D01*
X33830Y53846D01*
X33916Y53882D01*
X33989Y53938D01*
X34046Y54012D01*
X34081Y54097D01*
X34093Y54189D01*
X34081Y54281D01*
X34046Y54366D01*
X33989Y54440D01*
X33916Y54496D01*
X33830Y54532D01*
X33738Y54544D01*
D02*
G37*
G36*
X36063Y54606D02*
X35953Y54592D01*
X35851Y54549D01*
X35763Y54482D01*
X35695Y54394D01*
X35653Y54291D01*
X35652Y54285D01*
X35430D01*
X35390Y54293D01*
X35390Y54293D01*
X35070D01*
X35040Y54366D01*
X34983Y54440D01*
X34910Y54496D01*
X34824Y54532D01*
X34732Y54544D01*
X34640Y54532D01*
X34555Y54496D01*
X34481Y54440D01*
X34425Y54366D01*
X34389Y54281D01*
X34377Y54189D01*
X34389Y54097D01*
X34425Y54012D01*
X34481Y53938D01*
X34555Y53882D01*
X34640Y53846D01*
X34732Y53834D01*
X34824Y53846D01*
X34910Y53882D01*
X34983Y53938D01*
X35040Y54012D01*
X35070Y54085D01*
X35358D01*
X35398Y54077D01*
X35398Y54077D01*
X35652D01*
X35653Y54071D01*
X35695Y53969D01*
X35763Y53881D01*
X35851Y53813D01*
X35953Y53771D01*
X36063Y53756D01*
X36173Y53771D01*
X36275Y53813D01*
X36363Y53881D01*
X36431Y53969D01*
X36473Y54071D01*
X36488Y54181D01*
X36473Y54291D01*
X36431Y54394D01*
X36363Y54482D01*
X36275Y54549D01*
X36173Y54592D01*
X36063Y54606D01*
D02*
G37*
G36*
X16787Y55808D02*
X16639Y55789D01*
X16501Y55731D01*
X16383Y55641D01*
X16292Y55522D01*
X16235Y55384D01*
X16216Y55236D01*
X16235Y55088D01*
X16292Y54950D01*
X16383Y54832D01*
X16501Y54741D01*
X16639Y54684D01*
X16787Y54664D01*
X16935Y54684D01*
X17073Y54741D01*
X17192Y54832D01*
X17283Y54950D01*
X17340Y55088D01*
X17359Y55236D01*
X17340Y55384D01*
X17283Y55522D01*
X17192Y55641D01*
X17073Y55731D01*
X16935Y55789D01*
X16787Y55808D01*
D02*
G37*
G36*
X20787Y55606D02*
X20692Y55594D01*
X20602Y55557D01*
X20526Y55498D01*
X20467Y55421D01*
X20430Y55332D01*
X20417Y55236D01*
X20430Y55140D01*
X20467Y55051D01*
X20526Y54975D01*
X20602Y54916D01*
X20692Y54879D01*
X20787Y54866D01*
X20883Y54879D01*
X20972Y54916D01*
X21049Y54975D01*
X21108Y55051D01*
X21145Y55140D01*
X21157Y55236D01*
X21145Y55332D01*
X21108Y55421D01*
X21049Y55498D01*
X20972Y55557D01*
X20883Y55594D01*
X20787Y55606D01*
D02*
G37*
G36*
X32764Y56021D02*
X32668Y56009D01*
X32579Y55972D01*
X32502Y55913D01*
X32443Y55836D01*
X32406Y55747D01*
X32394Y55651D01*
Y55451D01*
X32406Y55355D01*
X32443Y55266D01*
X32502Y55189D01*
X32579Y55131D01*
X32668Y55094D01*
X32764Y55081D01*
X32860Y55094D01*
X32949Y55131D01*
X33025Y55189D01*
X33084Y55266D01*
X33121Y55355D01*
X33134Y55451D01*
Y55651D01*
X33121Y55747D01*
X33084Y55836D01*
X33025Y55913D01*
X32949Y55972D01*
X32860Y56009D01*
X32764Y56021D01*
D02*
G37*
G36*
X33764D02*
X33668Y56009D01*
X33579Y55972D01*
X33502Y55913D01*
X33443Y55836D01*
X33406Y55747D01*
X33394Y55651D01*
Y55451D01*
X33406Y55355D01*
X33443Y55266D01*
X33502Y55189D01*
X33579Y55131D01*
X33668Y55094D01*
X33764Y55081D01*
X33860Y55094D01*
X33949Y55131D01*
X34025Y55189D01*
X34084Y55266D01*
X34121Y55355D01*
X34134Y55451D01*
Y55651D01*
X34121Y55747D01*
X34084Y55836D01*
X34025Y55913D01*
X33949Y55972D01*
X33860Y56009D01*
X33764Y56021D01*
D02*
G37*
G36*
X30131Y56018D02*
X29397D01*
Y55084D01*
X30131D01*
Y56018D01*
D02*
G37*
G36*
X22787Y55606D02*
X22692Y55594D01*
X22602Y55557D01*
X22526Y55498D01*
X22467Y55421D01*
X22430Y55332D01*
X22417Y55236D01*
X22430Y55140D01*
X22467Y55051D01*
X22526Y54975D01*
X22602Y54916D01*
X22692Y54879D01*
X22787Y54866D01*
X22883Y54879D01*
X22972Y54916D01*
X23049Y54975D01*
X23108Y55051D01*
X23145Y55140D01*
X23157Y55236D01*
X23145Y55332D01*
X23108Y55421D01*
X23049Y55498D01*
X22972Y55557D01*
X22883Y55594D01*
X22787Y55606D01*
D02*
G37*
G36*
X23787D02*
X23692Y55594D01*
X23602Y55557D01*
X23526Y55498D01*
X23467Y55421D01*
X23430Y55332D01*
X23417Y55236D01*
X23430Y55140D01*
X23467Y55051D01*
X23526Y54975D01*
X23602Y54916D01*
X23692Y54879D01*
X23787Y54866D01*
X23883Y54879D01*
X23972Y54916D01*
X24049Y54975D01*
X24108Y55051D01*
X24145Y55140D01*
X24157Y55236D01*
X24145Y55332D01*
X24108Y55421D01*
X24049Y55498D01*
X23972Y55557D01*
X23883Y55594D01*
X23787Y55606D01*
D02*
G37*
G36*
X30764Y56021D02*
X30668Y56009D01*
X30579Y55972D01*
X30502Y55913D01*
X30443Y55836D01*
X30406Y55747D01*
X30394Y55651D01*
Y55451D01*
X30406Y55355D01*
X30443Y55266D01*
X30502Y55189D01*
X30579Y55131D01*
X30668Y55094D01*
X30764Y55081D01*
X30860Y55094D01*
X30949Y55131D01*
X31025Y55189D01*
X31084Y55266D01*
X31121Y55355D01*
X31134Y55451D01*
Y55651D01*
X31121Y55747D01*
X31084Y55836D01*
X31025Y55913D01*
X30949Y55972D01*
X30860Y56009D01*
X30764Y56021D01*
D02*
G37*
G36*
X30738Y54544D02*
X30646Y54532D01*
X30561Y54496D01*
X30487Y54440D01*
X30431Y54366D01*
X30395Y54281D01*
X30383Y54189D01*
X30395Y54097D01*
X30431Y54012D01*
X30487Y53938D01*
X30561Y53882D01*
X30646Y53846D01*
X30738Y53834D01*
X30830Y53846D01*
X30916Y53882D01*
X30989Y53938D01*
X31046Y54012D01*
X31081Y54097D01*
X31093Y54189D01*
X31081Y54281D01*
X31046Y54366D01*
X30989Y54440D01*
X30916Y54496D01*
X30830Y54532D01*
X30738Y54544D01*
D02*
G37*
G36*
X32738D02*
X32646Y54532D01*
X32561Y54496D01*
X32487Y54440D01*
X32431Y54366D01*
X32395Y54281D01*
X32383Y54189D01*
X32395Y54097D01*
X32431Y54012D01*
X32487Y53938D01*
X32561Y53882D01*
X32646Y53846D01*
X32738Y53834D01*
X32830Y53846D01*
X32916Y53882D01*
X32989Y53938D01*
X33046Y54012D01*
X33081Y54097D01*
X33093Y54189D01*
X33081Y54281D01*
X33046Y54366D01*
X32989Y54440D01*
X32916Y54496D01*
X32830Y54532D01*
X32738Y54544D01*
D02*
G37*
G36*
X29738D02*
X29646Y54532D01*
X29561Y54496D01*
X29487Y54440D01*
X29431Y54366D01*
X29395Y54281D01*
X29383Y54189D01*
X29395Y54097D01*
X29431Y54012D01*
X29487Y53938D01*
X29561Y53882D01*
X29646Y53846D01*
X29738Y53834D01*
X29830Y53846D01*
X29916Y53882D01*
X29989Y53938D01*
X30046Y54012D01*
X30081Y54097D01*
X30093Y54189D01*
X30081Y54281D01*
X30046Y54366D01*
X29989Y54440D01*
X29916Y54496D01*
X29830Y54532D01*
X29738Y54544D01*
D02*
G37*
G36*
X33550Y53684D02*
X33550Y53684D01*
X30529D01*
X30529Y53684D01*
X30496Y53678D01*
X30489Y53676D01*
X30456Y53654D01*
X30456Y53654D01*
X30303Y53502D01*
X30230Y53532D01*
X30138Y53544D01*
X30046Y53532D01*
X29961Y53496D01*
X29887Y53440D01*
X29831Y53366D01*
X29795Y53281D01*
X29783Y53189D01*
X29795Y53097D01*
X29831Y53011D01*
X29887Y52938D01*
X29961Y52882D01*
X30046Y52846D01*
X30138Y52834D01*
X30230Y52846D01*
X30316Y52882D01*
X30389Y52938D01*
X30446Y53011D01*
X30481Y53097D01*
X30493Y53189D01*
X30481Y53281D01*
X30451Y53354D01*
X30573Y53476D01*
X32057D01*
X32076Y53426D01*
X32031Y53366D01*
X31995Y53281D01*
X31983Y53189D01*
X31995Y53097D01*
X32031Y53011D01*
X32087Y52938D01*
X32161Y52882D01*
X32246Y52846D01*
X32338Y52834D01*
X32430Y52846D01*
X32516Y52882D01*
X32589Y52938D01*
X32646Y53011D01*
X32681Y53097D01*
X32693Y53189D01*
X32681Y53281D01*
X32646Y53366D01*
X32600Y53426D01*
X32620Y53476D01*
X33507D01*
X34152Y52831D01*
X34133Y52784D01*
X27580D01*
X27563Y52834D01*
X27623Y52881D01*
X27691Y52969D01*
X27733Y53071D01*
X27734Y53077D01*
X28020D01*
X28020Y53077D01*
X28060Y53085D01*
X28395D01*
X28425Y53011D01*
X28481Y52938D01*
X28555Y52882D01*
X28640Y52846D01*
X28732Y52834D01*
X28824Y52846D01*
X28910Y52882D01*
X28983Y52938D01*
X29040Y53011D01*
X29075Y53097D01*
X29087Y53189D01*
X29075Y53281D01*
X29040Y53366D01*
X28983Y53440D01*
X28910Y53496D01*
X28824Y53532D01*
X28732Y53544D01*
X28640Y53532D01*
X28555Y53496D01*
X28481Y53440D01*
X28425Y53366D01*
X28395Y53293D01*
X28028D01*
X28028Y53293D01*
X27988Y53285D01*
X27734D01*
X27733Y53291D01*
X27691Y53394D01*
X27623Y53482D01*
X27535Y53549D01*
X27433Y53592D01*
X27323Y53606D01*
X27213Y53592D01*
X27110Y53549D01*
X27022Y53482D01*
X26955Y53394D01*
X26912Y53291D01*
X26898Y53181D01*
X26912Y53071D01*
X26955Y52969D01*
X27022Y52881D01*
X27083Y52834D01*
X27066Y52784D01*
X26950D01*
X26927Y52840D01*
X26876Y52906D01*
X26810Y52957D01*
X26733Y52989D01*
X26650Y53000D01*
X26567Y52989D01*
X26490Y52957D01*
X26424Y52906D01*
X26373Y52840D01*
X26341Y52763D01*
X26330Y52680D01*
X26341Y52597D01*
X26373Y52520D01*
X26424Y52454D01*
X26490Y52403D01*
X26567Y52371D01*
X26650Y52360D01*
X26733Y52371D01*
X26810Y52403D01*
X26876Y52454D01*
X26927Y52520D01*
X26950Y52576D01*
X27063D01*
X27080Y52526D01*
X27022Y52482D01*
X26955Y52394D01*
X26912Y52291D01*
X26898Y52181D01*
X26912Y52071D01*
X26955Y51969D01*
X27022Y51881D01*
X27110Y51813D01*
X27156Y51794D01*
X27146Y51744D01*
X22950D01*
X22910Y51736D01*
X22876Y51714D01*
X22876Y51714D01*
X22338Y51176D01*
X22283Y51199D01*
X22200Y51210D01*
X22117Y51199D01*
X22040Y51167D01*
X21974Y51116D01*
X21923Y51050D01*
X21891Y50973D01*
X21880Y50890D01*
X21891Y50807D01*
X21923Y50730D01*
X21974Y50664D01*
X22040Y50613D01*
X22117Y50581D01*
X22200Y50570D01*
X22283Y50581D01*
X22360Y50613D01*
X22426Y50664D01*
X22477Y50730D01*
X22509Y50807D01*
X22520Y50890D01*
X22509Y50973D01*
X22486Y51028D01*
X22993Y51536D01*
X27015D01*
X27031Y51488D01*
X27022Y51482D01*
X26955Y51394D01*
X26912Y51291D01*
X26898Y51181D01*
X26912Y51071D01*
X26955Y50969D01*
X27022Y50881D01*
X27110Y50813D01*
X27156Y50794D01*
X27146Y50744D01*
X26868D01*
X26868Y50744D01*
X26828Y50736D01*
X26817Y50729D01*
X26794Y50714D01*
X26794Y50714D01*
X26195Y50114D01*
X19840D01*
X19840Y50114D01*
X19800Y50106D01*
X19766Y50084D01*
X19163Y49481D01*
X19108Y49504D01*
X19025Y49515D01*
X18942Y49504D01*
X18865Y49472D01*
X18799Y49421D01*
X18763Y49374D01*
X18755Y49371D01*
X18710Y49371D01*
X18702Y49374D01*
X18666Y49421D01*
X18600Y49472D01*
X18523Y49504D01*
X18440Y49514D01*
X18357Y49504D01*
X18280Y49472D01*
X18214Y49421D01*
X18163Y49355D01*
X18131Y49277D01*
X18120Y49195D01*
X18131Y49112D01*
X18163Y49035D01*
X18214Y48969D01*
X18280Y48918D01*
X18357Y48886D01*
X18440Y48875D01*
X18523Y48886D01*
X18578Y48909D01*
X18715Y48772D01*
X18694Y48722D01*
X17131D01*
X17114Y48772D01*
X17192Y48832D01*
X17283Y48950D01*
X17340Y49088D01*
X17359Y49236D01*
X17340Y49384D01*
X17283Y49522D01*
X17192Y49641D01*
X17073Y49731D01*
X16935Y49789D01*
X16787Y49808D01*
X16639Y49789D01*
X16501Y49731D01*
X16383Y49641D01*
X16292Y49522D01*
X16235Y49384D01*
X16216Y49236D01*
X16235Y49088D01*
X16292Y48950D01*
X16383Y48832D01*
X16460Y48772D01*
X16443Y48722D01*
X15393D01*
X15360Y48803D01*
X15301Y48880D01*
X15224Y48939D01*
X15135Y48976D01*
X15057Y48986D01*
X15035Y49035D01*
X15074Y49074D01*
X15096Y49108D01*
X15104Y49148D01*
Y49327D01*
X15953Y50176D01*
X25790D01*
X25790Y50176D01*
X25830Y50184D01*
X25864Y50206D01*
X26152Y50494D01*
X26207Y50471D01*
X26290Y50460D01*
X26373Y50471D01*
X26450Y50503D01*
X26516Y50554D01*
X26567Y50620D01*
X26599Y50697D01*
X26610Y50780D01*
X26599Y50863D01*
X26567Y50940D01*
X26516Y51006D01*
X26450Y51057D01*
X26373Y51089D01*
X26290Y51100D01*
X26207Y51089D01*
X26130Y51057D01*
X26064Y51006D01*
X26013Y50940D01*
X25981Y50863D01*
X25970Y50780D01*
X25981Y50697D01*
X26004Y50642D01*
X25747Y50384D01*
X15910D01*
X15870Y50376D01*
X15836Y50354D01*
X15836Y50354D01*
X14926Y49444D01*
X14904Y49410D01*
X14896Y49370D01*
X14896Y49370D01*
Y49191D01*
X14563Y48859D01*
X14541Y48825D01*
X14533Y48785D01*
X14533Y48785D01*
Y48451D01*
X14533Y48451D01*
X14541Y48412D01*
X14563Y48378D01*
X14896Y48045D01*
Y46915D01*
X14484Y46504D01*
X14462Y46470D01*
X14454Y46430D01*
X14454Y46430D01*
Y46176D01*
X13524Y45246D01*
X11582D01*
X11549Y45327D01*
X11490Y45403D01*
X11413Y45462D01*
X11324Y45499D01*
X11228Y45512D01*
X11133Y45499D01*
X11043Y45462D01*
X10974Y45409D01*
X10924Y45423D01*
Y45690D01*
X11052Y45818D01*
X11133Y45784D01*
X11228Y45772D01*
X11324Y45784D01*
X11413Y45821D01*
X11490Y45880D01*
X11549Y45957D01*
X11586Y46046D01*
X11598Y46142D01*
X11586Y46238D01*
X11572Y46272D01*
X11614Y46300D01*
X11660Y46254D01*
X11698Y46228D01*
X11744Y46219D01*
X13525D01*
X13542Y46179D01*
X13593Y46113D01*
X13659Y46062D01*
X13736Y46030D01*
X13819Y46019D01*
X13902Y46030D01*
X13979Y46062D01*
X14045Y46113D01*
X14096Y46179D01*
X14128Y46256D01*
X14139Y46339D01*
X14128Y46421D01*
X14096Y46498D01*
X14045Y46565D01*
X13979Y46615D01*
X13902Y46647D01*
X13819Y46658D01*
X13736Y46647D01*
X13659Y46615D01*
X13593Y46565D01*
X13542Y46498D01*
X13525Y46458D01*
X11793D01*
X10536Y47715D01*
Y48280D01*
X9802D01*
Y47546D01*
X10368D01*
X11387Y46527D01*
X11358Y46485D01*
X11324Y46499D01*
X11228Y46512D01*
X11133Y46499D01*
X11043Y46462D01*
X10967Y46403D01*
X10908Y46327D01*
X10871Y46238D01*
X10858Y46142D01*
X10871Y46046D01*
X10904Y45965D01*
X10761Y45822D01*
X10751Y45819D01*
X10711Y45818D01*
X10696Y45822D01*
X10552Y45965D01*
X10586Y46046D01*
X10598Y46142D01*
X10586Y46238D01*
X10549Y46327D01*
X10490Y46403D01*
X10413Y46462D01*
X10324Y46499D01*
X10228Y46512D01*
X10133Y46499D01*
X10043Y46462D01*
X9967Y46403D01*
X9908Y46327D01*
X9871Y46238D01*
X9858Y46142D01*
X9871Y46046D01*
X9908Y45957D01*
X9967Y45880D01*
X10043Y45821D01*
X10133Y45784D01*
X10228Y45772D01*
X10324Y45784D01*
X10405Y45818D01*
X10536Y45687D01*
Y45419D01*
X10521Y45414D01*
X10486Y45407D01*
X10413Y45462D01*
X10324Y45499D01*
X10228Y45512D01*
X10133Y45499D01*
X10043Y45462D01*
X9967Y45403D01*
X9908Y45327D01*
X9871Y45238D01*
X9858Y45142D01*
X9871Y45046D01*
X9904Y44965D01*
X9188Y44249D01*
X9133Y44272D01*
X9050Y44283D01*
X8967Y44272D01*
X8890Y44240D01*
X8824Y44189D01*
X8773Y44123D01*
X8741Y44046D01*
X8730Y43963D01*
X8741Y43881D01*
X8773Y43804D01*
X8824Y43737D01*
X8890Y43687D01*
X8967Y43655D01*
X9050Y43644D01*
X9133Y43655D01*
X9210Y43687D01*
X9276Y43737D01*
X9327Y43804D01*
X9359Y43881D01*
X9370Y43963D01*
X9359Y44046D01*
X9336Y44102D01*
X10052Y44818D01*
X10133Y44784D01*
X10228Y44772D01*
X10324Y44784D01*
X10413Y44821D01*
X10486Y44877D01*
X10521Y44870D01*
X10536Y44865D01*
Y44419D01*
X10521Y44414D01*
X10486Y44407D01*
X10413Y44462D01*
X10324Y44499D01*
X10228Y44512D01*
X10133Y44499D01*
X10043Y44462D01*
X9967Y44403D01*
X9908Y44327D01*
X9871Y44238D01*
X9858Y44142D01*
X9871Y44046D01*
X9908Y43957D01*
X9967Y43880D01*
X10043Y43821D01*
X10133Y43784D01*
X10228Y43772D01*
X10324Y43784D01*
X10413Y43821D01*
X10490Y43880D01*
X10549Y43957D01*
X10571Y44011D01*
X10630Y44022D01*
X11086Y43566D01*
X11117Y43545D01*
X11119Y43530D01*
X11118Y43493D01*
X11043Y43462D01*
X10967Y43403D01*
X10908Y43327D01*
X10871Y43238D01*
X10858Y43142D01*
X10871Y43046D01*
X10904Y42965D01*
X10683Y42744D01*
X10358D01*
X10349Y42794D01*
X10413Y42821D01*
X10490Y42880D01*
X10549Y42957D01*
X10586Y43046D01*
X10598Y43142D01*
X10586Y43238D01*
X10549Y43327D01*
X10490Y43403D01*
X10413Y43462D01*
X10324Y43499D01*
X10228Y43512D01*
X10133Y43499D01*
X10043Y43462D01*
X9967Y43403D01*
X9908Y43327D01*
X9871Y43238D01*
X9858Y43142D01*
X9871Y43046D01*
X9904Y42965D01*
X9446Y42507D01*
X9424Y42473D01*
X9416Y42433D01*
X9416Y42433D01*
Y28920D01*
X9416Y28920D01*
X9424Y28880D01*
X9446Y28846D01*
X10976Y27316D01*
X10976Y27316D01*
X11010Y27294D01*
X11017Y27292D01*
X11050Y27286D01*
X11050Y27286D01*
X12588D01*
X12590Y27240D01*
X12590Y27237D01*
X12590Y27236D01*
X12590Y27236D01*
X12559Y27233D01*
X12559Y27232D01*
X12559D01*
X12431Y27220D01*
X12270Y27171D01*
X12121Y27092D01*
X11991Y26985D01*
X11885Y26855D01*
X11805Y26706D01*
X11756Y26545D01*
X11740Y26378D01*
X11756Y26210D01*
X11805Y26049D01*
X11885Y25901D01*
X11991Y25771D01*
X12121Y25664D01*
X12270Y25585D01*
X12431Y25536D01*
X12598Y25519D01*
X12766Y25536D01*
X12927Y25585D01*
X13075Y25664D01*
X13205Y25771D01*
X13312Y25901D01*
X13392Y26049D01*
X13440Y26210D01*
X13457Y26378D01*
X13440Y26545D01*
X13392Y26706D01*
X13312Y26855D01*
X13205Y26985D01*
X13075Y27092D01*
X12927Y27171D01*
X12766Y27220D01*
X12638Y27232D01*
X12638Y27232D01*
X12638Y27233D01*
X12606Y27236D01*
X12606Y27236D01*
X12607Y27237D01*
X12607Y27240D01*
X12609Y27286D01*
X13567D01*
X14126Y26726D01*
X14160Y26704D01*
X14200Y26696D01*
X14200Y26696D01*
X14917D01*
X15476Y26136D01*
X15510Y26114D01*
X15550Y26106D01*
X15550Y26106D01*
X16425D01*
X16468Y26091D01*
X16468Y26056D01*
Y25248D01*
X17311D01*
Y26056D01*
X17311Y26091D01*
X17355Y26106D01*
X17355D01*
X17600D01*
X17600Y26106D01*
X17640Y26114D01*
X17674Y26136D01*
X18342Y26804D01*
X18397Y26781D01*
X18480Y26770D01*
X18563Y26781D01*
X18640Y26813D01*
X18706Y26864D01*
X18757Y26930D01*
X18789Y27007D01*
X18800Y27090D01*
X18789Y27173D01*
X18757Y27250D01*
X18706Y27316D01*
X18640Y27367D01*
X18563Y27399D01*
X18480Y27410D01*
X18397Y27399D01*
X18320Y27367D01*
X18254Y27316D01*
X18203Y27250D01*
X18171Y27173D01*
X18160Y27090D01*
X18171Y27007D01*
X18194Y26952D01*
X17557Y26314D01*
X17197D01*
X17181Y26362D01*
X17190Y26369D01*
X17258Y26457D01*
X17300Y26559D01*
X17315Y26669D01*
X17300Y26779D01*
X17258Y26882D01*
X17190Y26970D01*
X17179Y26978D01*
X17195Y27026D01*
X17600D01*
X17600Y27026D01*
X17640Y27034D01*
X17674Y27056D01*
X18363Y27746D01*
X25622D01*
X25622Y27746D01*
X25662Y27754D01*
X25695Y27776D01*
X28611Y30692D01*
X28692Y30658D01*
X28787Y30646D01*
X28883Y30658D01*
X28972Y30695D01*
X29049Y30754D01*
X29108Y30831D01*
X29145Y30920D01*
X29157Y31016D01*
X29145Y31112D01*
X29108Y31201D01*
X29058Y31266D01*
X29075Y31316D01*
X31797D01*
X33139Y29973D01*
X33136Y29968D01*
X33094Y29866D01*
X33079Y29756D01*
X33094Y29646D01*
X33136Y29543D01*
X33203Y29455D01*
X33291Y29388D01*
X33394Y29345D01*
X33504Y29331D01*
X33614Y29345D01*
X33716Y29388D01*
X33804Y29455D01*
X33872Y29543D01*
X33914Y29646D01*
X33929Y29756D01*
X33914Y29866D01*
X33872Y29968D01*
X33804Y30056D01*
X33716Y30124D01*
X33614Y30166D01*
X33504Y30181D01*
X33394Y30166D01*
X33291Y30124D01*
X33287Y30120D01*
X31914Y31494D01*
X31880Y31516D01*
X31840Y31524D01*
X31840Y31524D01*
X27093D01*
X27072Y31574D01*
X27264Y31766D01*
X27286Y31800D01*
X27294Y31840D01*
Y34240D01*
X27286Y34280D01*
X27264Y34314D01*
X27264Y34314D01*
X26839Y34739D01*
X26805Y34761D01*
X26765Y34769D01*
X26765Y34769D01*
X20800D01*
X20760Y34761D01*
X20726Y34739D01*
X20726Y34739D01*
X20406Y34419D01*
X20402Y34413D01*
X20396Y34412D01*
X20352Y34440D01*
Y35436D01*
X20442Y35526D01*
X21490D01*
X21513Y35470D01*
X21564Y35404D01*
X21630Y35353D01*
X21707Y35321D01*
X21790Y35310D01*
X21873Y35321D01*
X21950Y35353D01*
X22016Y35404D01*
X22067Y35470D01*
X22099Y35547D01*
X22110Y35630D01*
X22099Y35713D01*
X22076Y35768D01*
X22802Y36494D01*
X22857Y36471D01*
X22940Y36460D01*
X23023Y36471D01*
X23100Y36503D01*
X23166Y36554D01*
X23217Y36620D01*
X23249Y36697D01*
X23260Y36780D01*
X23250Y36855D01*
X23283Y36896D01*
X23294Y36891D01*
X23377Y36880D01*
X23459Y36891D01*
X23536Y36923D01*
X23603Y36974D01*
X23653Y37040D01*
X23676Y37096D01*
X29032D01*
X29353Y36775D01*
X29342Y36762D01*
X29284Y36655D01*
X29249Y36538D01*
X29237Y36417D01*
X29249Y36296D01*
X29284Y36180D01*
X29342Y36072D01*
X29419Y35978D01*
X29513Y35901D01*
X29621Y35844D01*
X29737Y35808D01*
X29791Y35803D01*
X29814Y35750D01*
X29783Y35710D01*
X29751Y35633D01*
X29740Y35550D01*
X29751Y35467D01*
X29783Y35390D01*
X29834Y35324D01*
X29900Y35273D01*
X29977Y35241D01*
X30060Y35230D01*
X30143Y35241D01*
X30220Y35273D01*
X30286Y35324D01*
X30337Y35390D01*
X30360Y35446D01*
X31914D01*
X33987Y33372D01*
X33975Y33338D01*
X33964Y33324D01*
X33403D01*
X32236Y34492D01*
X32259Y34547D01*
X32270Y34630D01*
X32259Y34713D01*
X32227Y34790D01*
X32176Y34856D01*
X32110Y34907D01*
X32033Y34939D01*
X31950Y34950D01*
X31867Y34939D01*
X31790Y34907D01*
X31724Y34856D01*
X31673Y34790D01*
X31641Y34713D01*
X31630Y34630D01*
X31641Y34547D01*
X31673Y34470D01*
X31724Y34404D01*
X31790Y34353D01*
X31867Y34321D01*
X31950Y34310D01*
X32033Y34321D01*
X32088Y34344D01*
X32469Y33964D01*
X32445Y33916D01*
X32420Y33920D01*
X32337Y33909D01*
X32260Y33877D01*
X32194Y33826D01*
X32143Y33760D01*
X32111Y33683D01*
X32100Y33600D01*
X32111Y33517D01*
X32143Y33440D01*
X32194Y33374D01*
X32260Y33323D01*
X32337Y33291D01*
X32420Y33280D01*
X32503Y33291D01*
X32558Y33314D01*
X32996Y32876D01*
X32996Y32876D01*
X33030Y32854D01*
X33037Y32852D01*
X33070Y32846D01*
X33083Y32799D01*
Y32446D01*
X33033Y32425D01*
X31566Y33892D01*
X31589Y33947D01*
X31600Y34030D01*
X31589Y34113D01*
X31557Y34190D01*
X31506Y34256D01*
X31440Y34307D01*
X31363Y34339D01*
X31280Y34350D01*
X31197Y34339D01*
X31120Y34307D01*
X31054Y34256D01*
X31003Y34190D01*
X30971Y34113D01*
X30960Y34030D01*
X30971Y33947D01*
X30996Y33888D01*
X30953Y33860D01*
X30804Y34009D01*
Y34260D01*
X30860Y34283D01*
X30926Y34334D01*
X30977Y34400D01*
X31009Y34477D01*
X31020Y34560D01*
X31009Y34643D01*
X30977Y34720D01*
X30926Y34786D01*
X30860Y34837D01*
X30783Y34869D01*
X30700Y34880D01*
X30617Y34869D01*
X30540Y34837D01*
X30474Y34786D01*
X30423Y34720D01*
X30391Y34643D01*
X30380Y34560D01*
X30391Y34477D01*
X30423Y34400D01*
X30474Y34334D01*
X30540Y34283D01*
X30596Y34260D01*
Y33966D01*
X30596Y33966D01*
X30604Y33926D01*
X30626Y33892D01*
X30939Y33579D01*
X30973Y33556D01*
X30980Y33555D01*
X31013Y33548D01*
X31013Y33548D01*
X31317D01*
X32807Y32059D01*
X32807Y32059D01*
X32841Y32036D01*
X32847Y32035D01*
X32880Y32028D01*
X32880Y32028D01*
X33084D01*
X33139Y31973D01*
X33136Y31968D01*
X33094Y31866D01*
X33079Y31756D01*
X33094Y31646D01*
X33136Y31543D01*
X33203Y31455D01*
X33291Y31388D01*
X33324Y31374D01*
X33314Y31324D01*
X33123D01*
X31918Y32529D01*
X31941Y32585D01*
X31952Y32667D01*
X31941Y32750D01*
X31909Y32827D01*
X31859Y32893D01*
X31792Y32944D01*
X31715Y32976D01*
X31633Y32987D01*
X31550Y32976D01*
X31473Y32944D01*
X31407Y32893D01*
X31356Y32827D01*
X31324Y32750D01*
X31313Y32667D01*
X31324Y32585D01*
X31356Y32508D01*
X31407Y32441D01*
X31473Y32390D01*
X31550Y32359D01*
X31633Y32348D01*
X31715Y32359D01*
X31771Y32382D01*
X33006Y31146D01*
X33040Y31124D01*
X33047Y31122D01*
X33080Y31116D01*
X33080Y31116D01*
X33203D01*
X33219Y31068D01*
X33203Y31056D01*
X33136Y30968D01*
X33094Y30866D01*
X33079Y30756D01*
X33094Y30646D01*
X33136Y30543D01*
X33203Y30455D01*
X33291Y30388D01*
X33394Y30345D01*
X33504Y30331D01*
X33614Y30345D01*
X33716Y30388D01*
X33721Y30391D01*
X33896Y30216D01*
X33930Y30194D01*
X33970Y30186D01*
X34310D01*
X34320Y30136D01*
X34291Y30124D01*
X34203Y30056D01*
X34136Y29968D01*
X34094Y29866D01*
X34079Y29756D01*
X34094Y29646D01*
X34136Y29543D01*
X34203Y29455D01*
X34291Y29388D01*
X34394Y29345D01*
X34504Y29331D01*
X34614Y29345D01*
X34716Y29388D01*
X34804Y29455D01*
X34872Y29543D01*
X34914Y29646D01*
X34929Y29756D01*
X34914Y29866D01*
X34872Y29968D01*
X34804Y30056D01*
X34726Y30116D01*
X34715Y30155D01*
X34714Y30179D01*
X34720Y30186D01*
X34760Y30194D01*
X34794Y30216D01*
X35044Y30466D01*
X35044Y30466D01*
X35066Y30500D01*
X35074Y30540D01*
Y32000D01*
X35074Y32000D01*
X35066Y32040D01*
X35044Y32074D01*
X34824Y32294D01*
X34790Y32316D01*
X34750Y32324D01*
X34750Y32324D01*
X34694D01*
X34684Y32374D01*
X34716Y32388D01*
X34804Y32455D01*
X34872Y32543D01*
X34914Y32646D01*
X34929Y32756D01*
X34914Y32866D01*
X34872Y32968D01*
X34804Y33056D01*
X34716Y33124D01*
X34614Y33166D01*
X34504Y33181D01*
X34394Y33166D01*
X34291Y33124D01*
X34287Y33120D01*
X34232Y33176D01*
Y33379D01*
X34232Y33379D01*
X34224Y33419D01*
X34216Y33431D01*
X34201Y33453D01*
X34201Y33453D01*
X32031Y35624D01*
X31997Y35646D01*
X31957Y35654D01*
X31957Y35654D01*
X30360D01*
X30337Y35710D01*
X30286Y35776D01*
X30220Y35827D01*
X30192Y35838D01*
X30190Y35894D01*
X30203Y35901D01*
X30297Y35978D01*
X30375Y36072D01*
X30432Y36180D01*
X30467Y36296D01*
X30479Y36417D01*
X30467Y36538D01*
X30432Y36655D01*
X30375Y36762D01*
X30297Y36857D01*
X30203Y36934D01*
X30096Y36991D01*
X29979Y37026D01*
X29858Y37038D01*
X29737Y37026D01*
X29621Y36991D01*
X29513Y36934D01*
X29500Y36923D01*
X29149Y37274D01*
X29149Y37274D01*
X28969Y37454D01*
X28936Y37476D01*
X28896Y37484D01*
X28896Y37484D01*
X23518D01*
X23459Y37509D01*
X23377Y37520D01*
X23294Y37509D01*
X23235Y37484D01*
X22830D01*
X22790Y37476D01*
X22756Y37454D01*
X22756Y37454D01*
X22454Y37152D01*
X22404Y37173D01*
Y38367D01*
X25613Y41576D01*
X27063D01*
X27080Y41526D01*
X27022Y41482D01*
X26955Y41394D01*
X26912Y41291D01*
X26898Y41181D01*
X26912Y41071D01*
X26955Y40969D01*
X27022Y40881D01*
X27110Y40813D01*
X27213Y40771D01*
X27323Y40756D01*
X27433Y40771D01*
X27535Y40813D01*
X27623Y40881D01*
X27691Y40969D01*
X27733Y41071D01*
X27734Y41077D01*
X28020D01*
X28020Y41077D01*
X28060Y41085D01*
X28395D01*
X28425Y41012D01*
X28481Y40938D01*
X28555Y40882D01*
X28640Y40846D01*
X28732Y40834D01*
X28824Y40846D01*
X28897Y40876D01*
X30387Y39387D01*
X30421Y39364D01*
X30461Y39356D01*
X42153D01*
Y39094D01*
X42887D01*
Y39828D01*
X42153D01*
Y39565D01*
X30504D01*
X29045Y41024D01*
X29075Y41097D01*
X29087Y41189D01*
X29075Y41281D01*
X29040Y41366D01*
X28983Y41440D01*
X28910Y41496D01*
X28839Y41526D01*
X28849Y41576D01*
X32480D01*
X32503Y41520D01*
X32554Y41454D01*
X32620Y41403D01*
X32697Y41371D01*
X32780Y41360D01*
X32863Y41371D01*
X32940Y41403D01*
X33006Y41454D01*
X33057Y41520D01*
X33089Y41597D01*
X33100Y41680D01*
X33089Y41763D01*
X33089Y41763D01*
X33131Y41791D01*
X33306Y41616D01*
X33306Y41616D01*
X33340Y41594D01*
X33380Y41586D01*
X36844D01*
X36844Y41586D01*
X36883Y41594D01*
X36917Y41616D01*
X37051Y41750D01*
X37687D01*
Y41787D01*
X37694Y41792D01*
X37737Y41805D01*
X38006Y41536D01*
X38006Y41536D01*
X38040Y41514D01*
X38047Y41512D01*
X38080Y41506D01*
X38080Y41506D01*
X38400D01*
X38400Y41506D01*
X38440Y41514D01*
X38474Y41536D01*
X38804Y41866D01*
X38804Y41866D01*
X38826Y41900D01*
X38834Y41940D01*
Y43470D01*
X38826Y43510D01*
X38804Y43544D01*
X38804Y43544D01*
X38634Y43714D01*
X38600Y43736D01*
X38560Y43744D01*
X38560Y43744D01*
X38491D01*
X38481Y43794D01*
X38493Y43799D01*
X38575Y43862D01*
X38638Y43944D01*
X38677Y44039D01*
X38691Y44142D01*
X38677Y44244D01*
X38638Y44339D01*
X38575Y44421D01*
X38493Y44484D01*
X38398Y44524D01*
X38295Y44537D01*
X38193Y44524D01*
X38098Y44484D01*
X38016Y44421D01*
X37953Y44339D01*
X37913Y44244D01*
X37900Y44142D01*
X37913Y44039D01*
X37924Y44015D01*
X37881Y43986D01*
X37834Y44033D01*
Y44570D01*
X37834Y44570D01*
X37828Y44603D01*
X37826Y44610D01*
X37804Y44644D01*
X37734Y44714D01*
X37700Y44736D01*
X37660Y44744D01*
X37660Y44744D01*
X37236D01*
X36744Y45236D01*
Y45604D01*
X36736Y45644D01*
X36714Y45678D01*
X36714Y45678D01*
X36428Y45964D01*
X36431Y45969D01*
X36473Y46071D01*
X36488Y46181D01*
X36473Y46291D01*
X36431Y46394D01*
X36363Y46482D01*
X36355Y46488D01*
X36371Y46536D01*
X36794D01*
X36794Y46536D01*
X36833Y46544D01*
X36867Y46566D01*
X37100Y46799D01*
X37193Y46760D01*
X37295Y46746D01*
X37398Y46760D01*
X37493Y46799D01*
X37575Y46862D01*
X37638Y46944D01*
X37677Y47039D01*
X37691Y47142D01*
X37677Y47244D01*
X37638Y47339D01*
X37599Y47390D01*
X37637Y47423D01*
X37743Y47317D01*
Y46590D01*
X37743Y46590D01*
X37751Y46550D01*
X37773Y46516D01*
X37952Y46337D01*
X37913Y46244D01*
X37900Y46142D01*
X37913Y46039D01*
X37953Y45944D01*
X38016Y45862D01*
X38098Y45799D01*
X38193Y45760D01*
X38295Y45746D01*
X38398Y45760D01*
X38493Y45799D01*
X38575Y45862D01*
X38638Y45944D01*
X38677Y46039D01*
X38691Y46142D01*
X38677Y46244D01*
X38638Y46339D01*
X38575Y46421D01*
X38493Y46484D01*
X38398Y46524D01*
X38295Y46537D01*
X38193Y46524D01*
X38100Y46485D01*
X37951Y46633D01*
Y46864D01*
X38001Y46881D01*
X38016Y46862D01*
X38098Y46799D01*
X38193Y46760D01*
X38295Y46746D01*
X38398Y46760D01*
X38493Y46799D01*
X38575Y46862D01*
X38638Y46944D01*
X38677Y47039D01*
X38691Y47142D01*
X38677Y47244D01*
X38638Y47339D01*
X38575Y47421D01*
X38493Y47484D01*
X38398Y47524D01*
X38295Y47537D01*
X38193Y47524D01*
X38100Y47485D01*
X37834Y47750D01*
Y48390D01*
X37881Y48409D01*
X37952Y48337D01*
X37913Y48244D01*
X37900Y48142D01*
X37913Y48039D01*
X37953Y47944D01*
X38016Y47862D01*
X38098Y47799D01*
X38193Y47760D01*
X38295Y47746D01*
X38398Y47760D01*
X38493Y47799D01*
X38575Y47862D01*
X38638Y47944D01*
X38677Y48039D01*
X38691Y48142D01*
X38677Y48244D01*
X38638Y48339D01*
X38575Y48421D01*
X38493Y48484D01*
X38398Y48524D01*
X38295Y48537D01*
X38193Y48524D01*
X38100Y48485D01*
X37972Y48612D01*
Y48845D01*
X38022Y48857D01*
X38098Y48799D01*
X38193Y48760D01*
X38295Y48746D01*
X38398Y48760D01*
X38493Y48799D01*
X38575Y48862D01*
X38638Y48944D01*
X38677Y49039D01*
X38691Y49142D01*
X38677Y49244D01*
X38638Y49339D01*
X38575Y49421D01*
X38493Y49484D01*
X38398Y49524D01*
X38295Y49537D01*
X38193Y49524D01*
X38174Y49516D01*
X38132Y49543D01*
Y49660D01*
X38124Y49700D01*
X38102Y49734D01*
X38102Y49734D01*
X38086Y49750D01*
X38114Y49793D01*
X38193Y49760D01*
X38295Y49746D01*
X38398Y49760D01*
X38493Y49799D01*
X38575Y49862D01*
X38638Y49944D01*
X38677Y50039D01*
X38691Y50142D01*
X38677Y50244D01*
X38638Y50339D01*
X38575Y50421D01*
X38493Y50484D01*
X38398Y50524D01*
X38388Y50525D01*
X38369Y50554D01*
X38369Y50554D01*
X38249Y50674D01*
X38215Y50696D01*
X38175Y50704D01*
X38175Y50704D01*
X37949D01*
X37555Y51098D01*
X37581Y51141D01*
X37628Y51127D01*
X37795Y51110D01*
X37963Y51127D01*
X38124Y51175D01*
X38272Y51255D01*
X38402Y51361D01*
X38509Y51492D01*
X38588Y51640D01*
X38637Y51801D01*
X38654Y51968D01*
X38637Y52136D01*
X38588Y52297D01*
X38509Y52445D01*
X38402Y52576D01*
X38272Y52682D01*
X38124Y52762D01*
X37963Y52810D01*
X37795Y52827D01*
X37628Y52810D01*
X37467Y52762D01*
X37318Y52682D01*
X37188Y52576D01*
X37081Y52445D01*
X37028Y52345D01*
X37011Y52339D01*
X36968Y52339D01*
X36554Y52754D01*
X36520Y52776D01*
X36480Y52784D01*
X36480Y52784D01*
X36320D01*
X36303Y52834D01*
X36363Y52881D01*
X36431Y52969D01*
X36473Y53071D01*
X36488Y53181D01*
X36473Y53291D01*
X36431Y53394D01*
X36363Y53482D01*
X36275Y53549D01*
X36173Y53592D01*
X36063Y53606D01*
X35953Y53592D01*
X35851Y53549D01*
X35763Y53482D01*
X35695Y53394D01*
X35653Y53291D01*
X35652Y53285D01*
X35430D01*
X35390Y53293D01*
X35390Y53293D01*
X35070D01*
X35040Y53366D01*
X34983Y53440D01*
X34910Y53496D01*
X34824Y53532D01*
X34732Y53544D01*
X34640Y53532D01*
X34555Y53496D01*
X34481Y53440D01*
X34425Y53366D01*
X34389Y53281D01*
X34377Y53189D01*
X34389Y53097D01*
X34425Y53011D01*
X34481Y52938D01*
X34555Y52882D01*
X34640Y52846D01*
X34732Y52834D01*
X34824Y52846D01*
X34910Y52882D01*
X34983Y52938D01*
X35040Y53011D01*
X35070Y53085D01*
X35358D01*
X35398Y53077D01*
X35398Y53077D01*
X35652D01*
X35653Y53071D01*
X35695Y52969D01*
X35763Y52881D01*
X35823Y52834D01*
X35806Y52784D01*
X34493D01*
X33624Y53654D01*
X33590Y53676D01*
X33550Y53684D01*
D02*
G37*
G36*
X27323Y54606D02*
X27213Y54592D01*
X27110Y54549D01*
X27022Y54482D01*
X26955Y54394D01*
X26912Y54291D01*
X26898Y54181D01*
X26912Y54071D01*
X26955Y53969D01*
X27022Y53881D01*
X27110Y53813D01*
X27213Y53771D01*
X27323Y53756D01*
X27433Y53771D01*
X27535Y53813D01*
X27623Y53881D01*
X27691Y53969D01*
X27733Y54071D01*
X27734Y54077D01*
X28020D01*
X28020Y54077D01*
X28060Y54085D01*
X28395D01*
X28425Y54012D01*
X28481Y53938D01*
X28555Y53882D01*
X28640Y53846D01*
X28732Y53834D01*
X28824Y53846D01*
X28910Y53882D01*
X28983Y53938D01*
X29040Y54012D01*
X29075Y54097D01*
X29087Y54189D01*
X29075Y54281D01*
X29040Y54366D01*
X28983Y54440D01*
X28910Y54496D01*
X28824Y54532D01*
X28732Y54544D01*
X28640Y54532D01*
X28555Y54496D01*
X28481Y54440D01*
X28425Y54366D01*
X28395Y54293D01*
X28028D01*
X28028Y54293D01*
X27988Y54285D01*
X27734D01*
X27733Y54291D01*
X27691Y54394D01*
X27623Y54482D01*
X27535Y54549D01*
X27433Y54592D01*
X27323Y54606D01*
D02*
G37*
G36*
X37795Y27236D02*
X37628Y27220D01*
X37467Y27171D01*
X37318Y27092D01*
X37188Y26985D01*
X37081Y26855D01*
X37002Y26706D01*
X36953Y26545D01*
X36937Y26378D01*
X36953Y26210D01*
X37002Y26049D01*
X37081Y25901D01*
X37188Y25771D01*
X37318Y25664D01*
X37467Y25585D01*
X37628Y25536D01*
X37795Y25519D01*
X37963Y25536D01*
X38124Y25585D01*
X38272Y25664D01*
X38402Y25771D01*
X38509Y25901D01*
X38588Y26049D01*
X38637Y26210D01*
X38654Y26378D01*
X38637Y26545D01*
X38588Y26706D01*
X38509Y26855D01*
X38402Y26985D01*
X38272Y27092D01*
X38124Y27171D01*
X37963Y27220D01*
X37795Y27236D01*
D02*
G37*
G36*
X15039Y51988D02*
X14944Y51976D01*
X14854Y51939D01*
X14778Y51880D01*
X14719Y51803D01*
X14682Y51714D01*
X14669Y51618D01*
X14682Y51522D01*
X14719Y51433D01*
X14778Y51356D01*
X14854Y51298D01*
X14944Y51261D01*
X15039Y51248D01*
X15135Y51261D01*
X15224Y51298D01*
X15301Y51356D01*
X15360Y51433D01*
X15397Y51522D01*
X15409Y51618D01*
X15397Y51714D01*
X15360Y51803D01*
X15301Y51880D01*
X15224Y51939D01*
X15135Y51976D01*
X15039Y51988D01*
D02*
G37*
G36*
X34504Y26181D02*
X34394Y26166D01*
X34291Y26124D01*
X34203Y26056D01*
X34136Y25968D01*
X34094Y25866D01*
X34079Y25756D01*
X34094Y25646D01*
X34136Y25543D01*
X34203Y25455D01*
X34291Y25388D01*
X34394Y25345D01*
X34504Y25331D01*
X34614Y25345D01*
X34716Y25388D01*
X34804Y25455D01*
X34872Y25543D01*
X34914Y25646D01*
X34929Y25756D01*
X34914Y25866D01*
X34872Y25968D01*
X34804Y26056D01*
X34716Y26124D01*
X34614Y26166D01*
X34504Y26181D01*
D02*
G37*
G36*
X15170Y26180D02*
X15087Y26169D01*
X15010Y26137D01*
X14944Y26086D01*
X14893Y26020D01*
X14861Y25943D01*
X14850Y25860D01*
X14861Y25777D01*
X14893Y25700D01*
X14944Y25634D01*
X15010Y25583D01*
X15087Y25551D01*
X15170Y25540D01*
X15181Y25542D01*
X15721Y25001D01*
X15721Y25001D01*
X15755Y24978D01*
X15795Y24970D01*
X18552D01*
X18600Y24933D01*
X18677Y24901D01*
X18760Y24890D01*
X18843Y24901D01*
X18920Y24933D01*
X18986Y24984D01*
X19037Y25050D01*
X19069Y25127D01*
X19080Y25210D01*
X19069Y25293D01*
X19037Y25370D01*
X18986Y25436D01*
X18920Y25487D01*
X18843Y25519D01*
X18760Y25530D01*
X18677Y25519D01*
X18600Y25487D01*
X18534Y25436D01*
X18483Y25370D01*
X18451Y25293D01*
X18440Y25210D01*
X18413Y25179D01*
X15838D01*
X15395Y25622D01*
X15396Y25634D01*
X15447Y25700D01*
X15479Y25777D01*
X15490Y25860D01*
X15479Y25943D01*
X15447Y26020D01*
X15396Y26086D01*
X15330Y26137D01*
X15253Y26169D01*
X15170Y26180D01*
D02*
G37*
G36*
X33504Y26181D02*
X33394Y26166D01*
X33291Y26124D01*
X33203Y26056D01*
X33136Y25968D01*
X33094Y25866D01*
X33079Y25756D01*
X33094Y25646D01*
X33136Y25543D01*
X33203Y25455D01*
X33291Y25388D01*
X33394Y25345D01*
X33504Y25331D01*
X33614Y25345D01*
X33716Y25388D01*
X33804Y25455D01*
X33872Y25543D01*
X33914Y25646D01*
X33929Y25756D01*
X33914Y25866D01*
X33872Y25968D01*
X33804Y26056D01*
X33716Y26124D01*
X33614Y26166D01*
X33504Y26181D01*
D02*
G37*
%LPD*%
G36*
X21447Y36443D02*
X21418Y36405D01*
X21386Y36328D01*
X21375Y36245D01*
X21386Y36162D01*
X21418Y36085D01*
X21469Y36019D01*
X21535Y35968D01*
X21595Y35943D01*
X21606Y35898D01*
X21605Y35887D01*
X21564Y35856D01*
X21513Y35790D01*
X21490Y35734D01*
X20399D01*
X20359Y35726D01*
X20325Y35704D01*
X20174Y35553D01*
X20152Y35519D01*
X20144Y35479D01*
X20144Y35479D01*
Y35402D01*
X20097Y35383D01*
X19598Y35882D01*
X19631Y35920D01*
X19640Y35913D01*
X19717Y35881D01*
X19800Y35870D01*
X19883Y35881D01*
X19960Y35913D01*
X20026Y35964D01*
X20077Y36030D01*
X20109Y36107D01*
X20120Y36190D01*
X20109Y36273D01*
X20077Y36350D01*
X20026Y36416D01*
X20026Y36418D01*
X20101Y36493D01*
X21423D01*
X21447Y36443D01*
D02*
G37*
G36*
X23062Y37238D02*
X23057Y37200D01*
X23067Y37125D01*
X23033Y37084D01*
X23023Y37089D01*
X22940Y37100D01*
X22857Y37089D01*
X22780Y37057D01*
X22714Y37006D01*
X22663Y36940D01*
X22631Y36863D01*
X22620Y36780D01*
X22631Y36697D01*
X22654Y36642D01*
X21935Y35922D01*
X21888Y35939D01*
X21879Y35977D01*
X21880Y35988D01*
X21921Y36019D01*
X21972Y36085D01*
X22004Y36162D01*
X22015Y36245D01*
X22004Y36328D01*
X21981Y36383D01*
X22873Y37276D01*
X23029D01*
X23062Y37238D01*
D02*
G37*
G36*
X27031Y42488D02*
X27022Y42482D01*
X26955Y42394D01*
X26912Y42291D01*
X26898Y42181D01*
X26912Y42071D01*
X26955Y41969D01*
X27022Y41881D01*
X27083Y41834D01*
X27066Y41784D01*
X25570D01*
X25530Y41776D01*
X25496Y41754D01*
X25496Y41754D01*
X22226Y38484D01*
X22204Y38450D01*
X22196Y38410D01*
X22196Y38410D01*
Y37244D01*
X22146Y37241D01*
X22139Y37293D01*
X22107Y37370D01*
X22056Y37436D01*
X21990Y37487D01*
X21913Y37519D01*
X21830Y37530D01*
X21747Y37519D01*
X21670Y37487D01*
X21604Y37436D01*
X21553Y37370D01*
X21530Y37314D01*
X20218D01*
X20218Y37314D01*
X20184Y37308D01*
X20178Y37306D01*
X20144Y37284D01*
X19451Y36591D01*
X19404Y36610D01*
Y37077D01*
X19622Y37294D01*
X19677Y37271D01*
X19760Y37260D01*
X19843Y37271D01*
X19920Y37303D01*
X19986Y37354D01*
X20037Y37420D01*
X20069Y37497D01*
X20080Y37580D01*
X20069Y37663D01*
X20037Y37740D01*
X19986Y37806D01*
X19920Y37857D01*
X19843Y37889D01*
X19760Y37900D01*
X19677Y37889D01*
X19600Y37857D01*
X19534Y37806D01*
X19483Y37740D01*
X19451Y37663D01*
X19440Y37580D01*
X19451Y37497D01*
X19474Y37442D01*
X19226Y37194D01*
X19204Y37160D01*
X19196Y37120D01*
X19196Y37120D01*
Y35911D01*
X19146Y35896D01*
X19134Y35914D01*
X18764Y36284D01*
X18730Y36306D01*
X18690Y36314D01*
X18690Y36314D01*
X16576D01*
X16552Y36364D01*
X16587Y36410D01*
X16619Y36487D01*
X16630Y36570D01*
X16619Y36653D01*
X16596Y36708D01*
X17903Y38016D01*
X21430D01*
X21430Y38016D01*
X21470Y38024D01*
X21504Y38046D01*
X25993Y42536D01*
X27015D01*
X27031Y42488D01*
D02*
G37*
G36*
X10617Y37992D02*
X10626Y37618D01*
X10630Y37599D01*
X10634Y37580D01*
X10634Y37579D01*
X10634Y37578D01*
X10646Y37562D01*
X10656Y37546D01*
X10657Y37546D01*
X10658Y37545D01*
X10674Y37534D01*
X10690Y37524D01*
X10691Y37523D01*
X10692Y37523D01*
X10711Y37519D01*
X10730Y37516D01*
X13180D01*
X14900Y35796D01*
X14900Y35796D01*
X14934Y35774D01*
X14940Y35772D01*
X14973Y35766D01*
X14974Y35766D01*
X17631D01*
X18443Y34953D01*
Y34252D01*
X18443Y34252D01*
X18451Y34212D01*
X18474Y34179D01*
X18594Y34058D01*
X18571Y34003D01*
X18560Y33920D01*
X18571Y33837D01*
X18603Y33760D01*
X18632Y33722D01*
X18608Y33672D01*
X18463D01*
X18101Y34034D01*
X18068Y34056D01*
X18028Y34064D01*
X18028Y34064D01*
X12860D01*
X12841Y34111D01*
X13186Y34456D01*
X16800D01*
X16823Y34400D01*
X16874Y34334D01*
X16940Y34283D01*
X17017Y34251D01*
X17100Y34240D01*
X17183Y34251D01*
X17260Y34283D01*
X17326Y34334D01*
X17377Y34400D01*
X17409Y34477D01*
X17420Y34560D01*
X17409Y34643D01*
X17377Y34720D01*
X17326Y34786D01*
X17260Y34837D01*
X17183Y34869D01*
X17100Y34880D01*
X17017Y34869D01*
X16940Y34837D01*
X16874Y34786D01*
X16823Y34720D01*
X16800Y34664D01*
X13143D01*
X13103Y34656D01*
X13069Y34634D01*
X12469Y34034D01*
X12469Y34034D01*
X11331Y32896D01*
X11312Y32912D01*
X11198Y32973D01*
X11074Y33010D01*
X10945Y33023D01*
X10816Y33010D01*
X10692Y32973D01*
X10578Y32912D01*
X10478Y32829D01*
X10396Y32729D01*
X10335Y32615D01*
X10297Y32491D01*
X10284Y32362D01*
X10297Y32233D01*
X10324Y32144D01*
X10280Y32118D01*
X9924Y32473D01*
Y37861D01*
X9974Y37874D01*
X10043Y37821D01*
X10133Y37784D01*
X10228Y37772D01*
X10324Y37784D01*
X10413Y37821D01*
X10490Y37880D01*
X10549Y37957D01*
X10567Y38001D01*
X10617Y37992D01*
D02*
G37*
G36*
X10966Y39656D02*
X11000Y39634D01*
X11040Y39626D01*
X11040Y39626D01*
X11507D01*
X15108Y36024D01*
X15087Y35974D01*
X15017D01*
X13297Y37694D01*
X13263Y37716D01*
X13224Y37724D01*
X13224Y37724D01*
X10832D01*
X10787Y39769D01*
X10833Y39789D01*
X10966Y39656D01*
D02*
G37*
G36*
X10597Y38927D02*
X10611Y38309D01*
X10561Y38298D01*
X10549Y38327D01*
X10490Y38403D01*
X10413Y38462D01*
X10324Y38499D01*
X10228Y38512D01*
X10133Y38499D01*
X10043Y38462D01*
X9974Y38409D01*
X9924Y38423D01*
Y38861D01*
X9974Y38874D01*
X10043Y38821D01*
X10133Y38784D01*
X10228Y38772D01*
X10324Y38784D01*
X10413Y38821D01*
X10490Y38880D01*
X10546Y38953D01*
X10552Y38954D01*
X10597Y38927D01*
D02*
G37*
G36*
X21553Y37050D02*
X21604Y36984D01*
X21670Y36933D01*
X21747Y36901D01*
X21830Y36890D01*
X21855Y36894D01*
X21879Y36846D01*
X21734Y36702D01*
X20057D01*
X20017Y36694D01*
X19984Y36671D01*
X19984Y36671D01*
X19820Y36507D01*
X19800Y36510D01*
X19726Y36500D01*
X19710Y36519D01*
X19700Y36545D01*
X20261Y37106D01*
X21530D01*
X21553Y37050D01*
D02*
G37*
G36*
X28517Y31266D02*
X28467Y31201D01*
X28430Y31112D01*
X28417Y31016D01*
X28430Y30920D01*
X28463Y30839D01*
X25578Y27954D01*
X18320D01*
X18320Y27954D01*
X18287Y27948D01*
X18280Y27946D01*
X18246Y27924D01*
X18246Y27924D01*
X17557Y27234D01*
X17071D01*
X17061Y27284D01*
X17102Y27301D01*
X17190Y27369D01*
X17258Y27457D01*
X17300Y27559D01*
X17315Y27669D01*
X17300Y27779D01*
X17258Y27882D01*
X17190Y27970D01*
X17179Y27978D01*
X17195Y28026D01*
X19902D01*
X19902Y28026D01*
X19942Y28034D01*
X19975Y28056D01*
X21173Y29254D01*
X21229Y29231D01*
X21312Y29220D01*
X21394Y29231D01*
X21471Y29263D01*
X21538Y29314D01*
X21588Y29380D01*
X21620Y29457D01*
X21631Y29540D01*
X21620Y29623D01*
X21588Y29700D01*
X21547Y29754D01*
X21564Y29804D01*
X26680D01*
X26680Y29804D01*
X26720Y29812D01*
X26754Y29835D01*
X27611Y30692D01*
X27692Y30658D01*
X27787Y30646D01*
X27883Y30658D01*
X27972Y30695D01*
X28049Y30754D01*
X28108Y30831D01*
X28145Y30920D01*
X28157Y31016D01*
X28145Y31112D01*
X28108Y31201D01*
X28058Y31266D01*
X28075Y31316D01*
X28499D01*
X28517Y31266D01*
D02*
G37*
G36*
X27517D02*
X27467Y31201D01*
X27430Y31112D01*
X27417Y31016D01*
X27430Y30920D01*
X27463Y30839D01*
X26637Y30013D01*
X25998D01*
X25978Y30059D01*
X26611Y30692D01*
X26692Y30658D01*
X26787Y30646D01*
X26883Y30658D01*
X26972Y30695D01*
X27049Y30754D01*
X27108Y30831D01*
X27145Y30920D01*
X27157Y31016D01*
X27145Y31112D01*
X27108Y31201D01*
X27058Y31266D01*
X27075Y31316D01*
X27499D01*
X27517Y31266D01*
D02*
G37*
G36*
X20045Y32864D02*
X17954Y30774D01*
X17301D01*
X17300Y30779D01*
X17258Y30882D01*
X17190Y30970D01*
X17102Y31037D01*
X17058Y31056D01*
X17068Y31106D01*
X18056D01*
X18056Y31106D01*
X18096Y31114D01*
X18130Y31136D01*
X19904Y32910D01*
X20025D01*
X20045Y32864D01*
D02*
G37*
G36*
X34139Y31973D02*
X34136Y31968D01*
X34094Y31866D01*
X34079Y31756D01*
X34094Y31646D01*
X34136Y31543D01*
X34203Y31455D01*
X34291Y31388D01*
X34394Y31345D01*
X34504Y31331D01*
X34614Y31345D01*
X34716Y31388D01*
X34804Y31455D01*
X34818Y31474D01*
X34866Y31458D01*
Y31054D01*
X34818Y31038D01*
X34804Y31056D01*
X34716Y31124D01*
X34614Y31166D01*
X34504Y31181D01*
X34394Y31166D01*
X34291Y31124D01*
X34287Y31120D01*
X34114Y31294D01*
X34080Y31316D01*
X34040Y31324D01*
X34040Y31324D01*
X33694D01*
X33684Y31374D01*
X33716Y31388D01*
X33804Y31455D01*
X33872Y31543D01*
X33914Y31646D01*
X33929Y31756D01*
X33914Y31866D01*
X33872Y31968D01*
X33804Y32056D01*
X33716Y32124D01*
X33688Y32136D01*
X33698Y32186D01*
X33927D01*
X34139Y31973D01*
D02*
G37*
G36*
X10356Y29121D02*
X10438Y29021D01*
X10538Y28939D01*
X10653Y28878D01*
X10777Y28840D01*
X10906Y28828D01*
X11034Y28840D01*
X11158Y28878D01*
X11273Y28939D01*
X11373Y29021D01*
X11419Y29078D01*
X11460Y29070D01*
X11473Y29064D01*
X11503Y28990D01*
X11554Y28924D01*
X11620Y28873D01*
X11697Y28841D01*
X11780Y28830D01*
X11863Y28841D01*
X11918Y28864D01*
X12446Y28336D01*
X12480Y28314D01*
X12520Y28306D01*
X12520Y28306D01*
X14870D01*
X14870Y28306D01*
X14910Y28314D01*
X14944Y28336D01*
X15633Y29026D01*
X16584D01*
X16600Y28978D01*
X16589Y28970D01*
X16522Y28882D01*
X16479Y28779D01*
X16465Y28669D01*
X16479Y28559D01*
X16522Y28457D01*
X16589Y28369D01*
X16677Y28301D01*
X16718Y28284D01*
X16708Y28234D01*
X10553D01*
X10264Y28523D01*
Y29187D01*
X10314Y29199D01*
X10356Y29121D01*
D02*
G37*
G36*
X16600Y27978D02*
X16589Y27970D01*
X16522Y27882D01*
X16479Y27779D01*
X16465Y27669D01*
X16479Y27559D01*
X16522Y27457D01*
X16589Y27369D01*
X16677Y27301D01*
X16718Y27284D01*
X16708Y27234D01*
X14653D01*
X14486Y27402D01*
X14509Y27457D01*
X14520Y27540D01*
X14509Y27623D01*
X14477Y27700D01*
X14426Y27766D01*
X14360Y27817D01*
X14283Y27849D01*
X14200Y27860D01*
X14117Y27849D01*
X14040Y27817D01*
X13974Y27766D01*
X13923Y27700D01*
X13891Y27623D01*
X13880Y27540D01*
X13891Y27457D01*
X13923Y27380D01*
X13974Y27314D01*
X14040Y27263D01*
X14117Y27231D01*
X14200Y27220D01*
X14283Y27231D01*
X14338Y27254D01*
X14536Y27056D01*
X14536Y27056D01*
X14559Y27041D01*
X14570Y27034D01*
X14610Y27026D01*
X14610Y27026D01*
X16584D01*
X16600Y26978D01*
X16589Y26970D01*
X16522Y26882D01*
X16479Y26779D01*
X16465Y26669D01*
X16479Y26559D01*
X16522Y26457D01*
X16589Y26369D01*
X16599Y26362D01*
X16583Y26314D01*
X15593D01*
X15034Y26874D01*
X15000Y26896D01*
X14960Y26904D01*
X14960Y26904D01*
X14243D01*
X13684Y27464D01*
X13650Y27486D01*
X13610Y27494D01*
X13610Y27494D01*
X11093D01*
X10608Y27979D01*
X10627Y28026D01*
X16584D01*
X16600Y27978D01*
D02*
G37*
G36*
X9718Y42413D02*
X9716Y42400D01*
X9716Y42400D01*
Y32430D01*
X9716Y32430D01*
X9724Y32390D01*
X9746Y32356D01*
X10966Y31136D01*
X10966Y31136D01*
X10989Y31121D01*
X11000Y31114D01*
X11040Y31106D01*
X11040Y31106D01*
X16712D01*
X16722Y31056D01*
X16677Y31037D01*
X16589Y30970D01*
X16522Y30882D01*
X16479Y30779D01*
X16465Y30669D01*
X16479Y30559D01*
X16522Y30457D01*
X16589Y30369D01*
X16660Y30314D01*
X16643Y30264D01*
X15113D01*
X14894Y30484D01*
X14860Y30506D01*
X14820Y30514D01*
X14820Y30514D01*
X13910D01*
X13887Y30570D01*
X13836Y30636D01*
X13770Y30687D01*
X13693Y30719D01*
X13610Y30730D01*
X13527Y30719D01*
X13450Y30687D01*
X13384Y30636D01*
X13333Y30570D01*
X13301Y30493D01*
X13290Y30410D01*
X13301Y30327D01*
X13333Y30250D01*
X13384Y30184D01*
X13450Y30133D01*
X13527Y30101D01*
X13610Y30090D01*
X13693Y30101D01*
X13770Y30133D01*
X13836Y30184D01*
X13887Y30250D01*
X13910Y30306D01*
X14777D01*
X14996Y30086D01*
X14996Y30086D01*
X15030Y30064D01*
X15070Y30056D01*
X16619D01*
X16636Y30006D01*
X16589Y29970D01*
X16522Y29882D01*
X16479Y29779D01*
X16465Y29669D01*
X16479Y29559D01*
X16522Y29457D01*
X16589Y29369D01*
X16677Y29301D01*
X16718Y29284D01*
X16708Y29234D01*
X15590D01*
X15590Y29234D01*
X15557Y29228D01*
X15550Y29226D01*
X15516Y29204D01*
X15516Y29204D01*
X14827Y28514D01*
X12563D01*
X12066Y29012D01*
X12089Y29067D01*
X12100Y29150D01*
X12089Y29233D01*
X12057Y29310D01*
X12006Y29376D01*
X11940Y29427D01*
X11863Y29459D01*
X11780Y29470D01*
X11697Y29459D01*
X11620Y29427D01*
X11605Y29415D01*
X11561Y29440D01*
X11566Y29488D01*
X11553Y29617D01*
X11516Y29741D01*
X11455Y29855D01*
X11373Y29955D01*
X11273Y30038D01*
X11158Y30099D01*
X11034Y30136D01*
X10906Y30149D01*
X10777Y30136D01*
X10653Y30099D01*
X10538Y30038D01*
X10438Y29955D01*
X10356Y29855D01*
X10314Y29777D01*
X10264Y29789D01*
Y30260D01*
X10320Y30283D01*
X10386Y30334D01*
X10437Y30400D01*
X10469Y30477D01*
X10480Y30560D01*
X10469Y30643D01*
X10437Y30720D01*
X10386Y30786D01*
X10320Y30837D01*
X10243Y30869D01*
X10160Y30880D01*
X10077Y30869D01*
X10000Y30837D01*
X9934Y30786D01*
X9883Y30720D01*
X9851Y30643D01*
X9840Y30560D01*
X9851Y30477D01*
X9883Y30400D01*
X9934Y30334D01*
X10000Y30283D01*
X10056Y30260D01*
Y28597D01*
X10009Y28578D01*
X9624Y28963D01*
Y42390D01*
X9672Y42438D01*
X9718Y42413D01*
D02*
G37*
G36*
X21077Y29754D02*
X21035Y29700D01*
X21003Y29623D01*
X20992Y29540D01*
X21003Y29457D01*
X21026Y29402D01*
X19858Y28234D01*
X17071D01*
X17061Y28284D01*
X17102Y28301D01*
X17190Y28369D01*
X17258Y28457D01*
X17300Y28559D01*
X17315Y28669D01*
X17300Y28779D01*
X17258Y28882D01*
X17254Y28886D01*
X17674Y29306D01*
X18730D01*
X18753Y29250D01*
X18804Y29184D01*
X18870Y29133D01*
X18947Y29101D01*
X19030Y29090D01*
X19113Y29101D01*
X19190Y29133D01*
X19256Y29184D01*
X19307Y29250D01*
X19339Y29327D01*
X19350Y29410D01*
X19339Y29493D01*
X19307Y29570D01*
X19256Y29636D01*
X19190Y29687D01*
X19113Y29719D01*
X19030Y29730D01*
X18947Y29719D01*
X18870Y29687D01*
X18804Y29636D01*
X18753Y29570D01*
X18730Y29514D01*
X17643D01*
X17625Y29544D01*
X17621Y29563D01*
X17862Y29804D01*
X21059D01*
X21077Y29754D01*
D02*
G37*
G36*
X26302Y32948D02*
X26273Y32910D01*
X26250Y32854D01*
X22522D01*
X22482Y32846D01*
X22448Y32824D01*
X22448Y32824D01*
X21964Y32340D01*
X21883Y32373D01*
X21787Y32386D01*
X21692Y32373D01*
X21602Y32336D01*
X21526Y32277D01*
X21467Y32201D01*
X21430Y32112D01*
X21417Y32016D01*
X21430Y31920D01*
X21467Y31831D01*
X21526Y31754D01*
X21602Y31695D01*
X21692Y31658D01*
X21787Y31646D01*
X21883Y31658D01*
X21972Y31695D01*
X22049Y31754D01*
X22108Y31831D01*
X22145Y31920D01*
X22157Y32016D01*
X22145Y32112D01*
X22111Y32192D01*
X22565Y32646D01*
X26250D01*
X26273Y32590D01*
X26324Y32524D01*
X26390Y32473D01*
X26467Y32441D01*
X26550Y32430D01*
X26633Y32441D01*
X26710Y32473D01*
X26756Y32508D01*
X26806Y32484D01*
Y32402D01*
X26787Y32386D01*
X26692Y32373D01*
X26602Y32336D01*
X26526Y32277D01*
X26467Y32201D01*
X26430Y32112D01*
X26417Y32016D01*
X26430Y31920D01*
X26467Y31831D01*
X26518Y31764D01*
X26502Y31714D01*
X26073D01*
X26057Y31764D01*
X26108Y31831D01*
X26145Y31920D01*
X26157Y32016D01*
X26145Y32112D01*
X26108Y32201D01*
X26049Y32277D01*
X25972Y32336D01*
X25883Y32373D01*
X25787Y32386D01*
X25692Y32373D01*
X25602Y32336D01*
X25526Y32277D01*
X25467Y32201D01*
X25430Y32112D01*
X25417Y32016D01*
X25430Y31920D01*
X25467Y31831D01*
X25518Y31764D01*
X25502Y31714D01*
X25073D01*
X25057Y31764D01*
X25108Y31831D01*
X25145Y31920D01*
X25157Y32016D01*
X25145Y32112D01*
X25108Y32201D01*
X25049Y32277D01*
X24972Y32336D01*
X24883Y32373D01*
X24787Y32386D01*
X24692Y32373D01*
X24602Y32336D01*
X24526Y32277D01*
X24467Y32201D01*
X24430Y32112D01*
X24417Y32016D01*
X24430Y31920D01*
X24467Y31831D01*
X24518Y31764D01*
X24502Y31714D01*
X24236D01*
X24111Y31839D01*
X24145Y31920D01*
X24157Y32016D01*
X24145Y32112D01*
X24108Y32201D01*
X24049Y32277D01*
X23972Y32336D01*
X23883Y32373D01*
X23787Y32386D01*
X23692Y32373D01*
X23602Y32336D01*
X23526Y32277D01*
X23467Y32201D01*
X23430Y32112D01*
X23417Y32016D01*
X23430Y31920D01*
X23467Y31831D01*
X23526Y31754D01*
X23602Y31695D01*
X23692Y31658D01*
X23787Y31646D01*
X23883Y31658D01*
X23964Y31692D01*
X24119Y31536D01*
X24153Y31514D01*
X24193Y31506D01*
X24193Y31506D01*
X26059D01*
X26080Y31456D01*
X25964Y31340D01*
X25883Y31373D01*
X25787Y31386D01*
X25692Y31373D01*
X25602Y31336D01*
X25526Y31277D01*
X25467Y31201D01*
X25430Y31112D01*
X25417Y31016D01*
X25430Y30920D01*
X25467Y30831D01*
X25526Y30754D01*
X25602Y30695D01*
X25692Y30658D01*
X25787Y30646D01*
X25883Y30658D01*
X25972Y30695D01*
X26049Y30754D01*
X26108Y30831D01*
X26145Y30920D01*
X26157Y31016D01*
X26145Y31112D01*
X26111Y31192D01*
X26235Y31316D01*
X26499D01*
X26517Y31266D01*
X26467Y31201D01*
X26430Y31112D01*
X26417Y31016D01*
X26430Y30920D01*
X26463Y30839D01*
X25775Y30151D01*
X20961D01*
X20937Y30201D01*
X20967Y30240D01*
X20990Y30296D01*
X21172D01*
X21172Y30296D01*
X21212Y30304D01*
X21245Y30326D01*
X21611Y30692D01*
X21692Y30658D01*
X21787Y30646D01*
X21883Y30658D01*
X21972Y30695D01*
X22049Y30754D01*
X22108Y30831D01*
X22145Y30920D01*
X22157Y31016D01*
X22145Y31112D01*
X22108Y31201D01*
X22049Y31277D01*
X21972Y31336D01*
X21883Y31373D01*
X21787Y31386D01*
X21692Y31373D01*
X21602Y31336D01*
X21526Y31277D01*
X21467Y31201D01*
X21430Y31112D01*
X21417Y31016D01*
X21430Y30920D01*
X21463Y30839D01*
X21128Y30504D01*
X20990D01*
X20967Y30560D01*
X20921Y30620D01*
X20922Y30648D01*
X20931Y30678D01*
X20972Y30695D01*
X21049Y30754D01*
X21108Y30831D01*
X21145Y30920D01*
X21157Y31016D01*
X21145Y31112D01*
X21108Y31201D01*
X21049Y31277D01*
X20972Y31336D01*
X20883Y31373D01*
X20787Y31386D01*
X20692Y31373D01*
X20602Y31336D01*
X20526Y31277D01*
X20467Y31201D01*
X20433Y31120D01*
X20134D01*
X20111Y31176D01*
X20060Y31242D01*
X19994Y31293D01*
X19917Y31325D01*
X19834Y31335D01*
X19752Y31325D01*
X19674Y31293D01*
X19608Y31242D01*
X19557Y31176D01*
X19525Y31098D01*
X19515Y31016D01*
X19523Y30952D01*
X19483Y30915D01*
X19473Y30919D01*
X19390Y30930D01*
X19307Y30919D01*
X19230Y30887D01*
X19164Y30836D01*
X19113Y30770D01*
X19081Y30693D01*
X19070Y30610D01*
X19081Y30527D01*
X19113Y30450D01*
X19164Y30384D01*
X19230Y30333D01*
X19307Y30301D01*
X19390Y30290D01*
X19473Y30301D01*
X19550Y30333D01*
X19616Y30384D01*
X19667Y30450D01*
X19690Y30506D01*
X19920D01*
X20367Y30059D01*
X20348Y30013D01*
X17819D01*
X17811Y30062D01*
X17820Y30064D01*
X17854Y30086D01*
X19273Y31506D01*
X20960D01*
X20960Y31506D01*
X21000Y31514D01*
X21034Y31536D01*
X21264Y31766D01*
X21286Y31800D01*
X21294Y31840D01*
Y32707D01*
X21586Y32998D01*
X26278D01*
X26302Y32948D01*
D02*
G37*
G36*
X18260Y33580D02*
X18241Y33534D01*
X17285D01*
X17279Y33583D01*
X17247Y33660D01*
X17196Y33726D01*
X17130Y33777D01*
X17053Y33809D01*
X17064Y33856D01*
X17984D01*
X18260Y33580D01*
D02*
G37*
G36*
X16887Y33809D02*
X16810Y33777D01*
X16744Y33726D01*
X16693Y33660D01*
X16661Y33583D01*
X16650Y33500D01*
X16661Y33417D01*
X16693Y33340D01*
X16736Y33285D01*
X16720Y33235D01*
X16600D01*
X16600Y33235D01*
X16560Y33227D01*
X16549Y33219D01*
X16526Y33204D01*
X16526Y33204D01*
X16356Y33034D01*
X16334Y33000D01*
X16326Y32960D01*
X16326Y32960D01*
Y32129D01*
X16326Y32129D01*
X16334Y32089D01*
X16356Y32055D01*
X16525Y31886D01*
X16522Y31882D01*
X16479Y31779D01*
X16465Y31669D01*
X16479Y31559D01*
X16522Y31457D01*
X16589Y31369D01*
X16599Y31362D01*
X16583Y31314D01*
X11083D01*
X10701Y31697D01*
X10727Y31741D01*
X10816Y31714D01*
X10945Y31702D01*
X11074Y31714D01*
X11198Y31752D01*
X11312Y31813D01*
X11412Y31895D01*
X11494Y31995D01*
X11555Y32109D01*
X11593Y32233D01*
X11606Y32362D01*
X11593Y32491D01*
X11555Y32615D01*
X11494Y32729D01*
X11479Y32748D01*
X12586Y33856D01*
X16876D01*
X16887Y33809D01*
D02*
G37*
G36*
X18736Y35727D02*
Y34769D01*
X18695Y34741D01*
X18652Y34762D01*
Y34997D01*
X18652Y34997D01*
X18645Y35030D01*
X18644Y35037D01*
X18621Y35070D01*
X17796Y35896D01*
X17817Y35946D01*
X18517D01*
X18736Y35727D01*
D02*
G37*
G36*
X19334Y34788D02*
X19311Y34733D01*
X19300Y34650D01*
X19311Y34567D01*
X19343Y34490D01*
X19394Y34424D01*
X19460Y34373D01*
X19537Y34341D01*
X19620Y34330D01*
X19703Y34341D01*
X19780Y34373D01*
X19818Y34402D01*
X19868Y34378D01*
Y33633D01*
X19772Y33537D01*
X19722Y33542D01*
X19702Y33584D01*
X19737Y33630D01*
X19769Y33707D01*
X19780Y33790D01*
X19769Y33873D01*
X19737Y33950D01*
X19686Y34016D01*
X19620Y34067D01*
X19543Y34099D01*
X19460Y34110D01*
X19377Y34099D01*
X19300Y34067D01*
X19234Y34016D01*
X19179Y34026D01*
X19157Y34080D01*
X19106Y34146D01*
X19079Y34167D01*
X19076Y34174D01*
X19080Y34229D01*
X19126Y34264D01*
X19177Y34330D01*
X19209Y34407D01*
X19220Y34490D01*
X19209Y34573D01*
X19177Y34650D01*
X19126Y34716D01*
X19060Y34767D01*
X18983Y34799D01*
X18945Y34804D01*
Y35109D01*
X18962Y35120D01*
X18995Y35128D01*
X19334Y34788D01*
D02*
G37*
G36*
X27086Y34197D02*
Y32342D01*
X27036Y32316D01*
X27014Y32331D01*
Y32912D01*
X27014Y32912D01*
X27006Y32952D01*
X26999Y32964D01*
X26984Y32986D01*
X26984Y32986D01*
X26794Y33176D01*
X26760Y33199D01*
X26720Y33207D01*
X26720Y33207D01*
X21542D01*
X21542Y33207D01*
X21502Y33199D01*
X21491Y33191D01*
X21469Y33176D01*
X21469Y33176D01*
X21164Y32872D01*
X21114Y32893D01*
Y33250D01*
X21170Y33273D01*
X21236Y33324D01*
X21287Y33390D01*
X21319Y33467D01*
X21330Y33550D01*
X21319Y33633D01*
X21287Y33710D01*
X21236Y33776D01*
X21170Y33827D01*
X21093Y33859D01*
X21023Y33868D01*
X20999Y33915D01*
X21034Y33949D01*
X21034Y33950D01*
X21043Y33951D01*
X21120Y33983D01*
X21186Y34034D01*
X21237Y34100D01*
X21269Y34177D01*
X21280Y34260D01*
X21269Y34342D01*
X21237Y34419D01*
X21186Y34486D01*
X21154Y34511D01*
X21170Y34561D01*
X26722D01*
X27086Y34197D01*
D02*
G37*
G36*
X19213Y32515D02*
X18013Y31314D01*
X17197D01*
X17181Y31362D01*
X17190Y31369D01*
X17258Y31457D01*
X17300Y31559D01*
X17315Y31669D01*
X17300Y31779D01*
X17258Y31882D01*
X17190Y31970D01*
X17102Y32037D01*
X17000Y32080D01*
X16890Y32094D01*
X16780Y32080D01*
X16677Y32037D01*
X16673Y32034D01*
X16534Y32172D01*
Y32363D01*
X16582Y32379D01*
X16589Y32369D01*
X16677Y32301D01*
X16780Y32259D01*
X16890Y32244D01*
X17000Y32259D01*
X17102Y32301D01*
X17190Y32369D01*
X17258Y32457D01*
X17300Y32559D01*
X17301Y32565D01*
X19192D01*
X19213Y32515D01*
D02*
G37*
G36*
X19578Y33140D02*
X19212Y32774D01*
X17301D01*
X17300Y32779D01*
X17258Y32882D01*
X17190Y32970D01*
X17179Y32979D01*
X17195Y33026D01*
X18400D01*
X18400Y33026D01*
X18440Y33034D01*
X18474Y33056D01*
X18604Y33186D01*
X19559D01*
X19578Y33140D01*
D02*
G37*
G36*
X20697Y33497D02*
X20701Y33467D01*
X20733Y33390D01*
X20784Y33324D01*
X20850Y33273D01*
X20906Y33250D01*
Y32414D01*
X20856Y32377D01*
X20787Y32386D01*
X20692Y32373D01*
X20602Y32336D01*
X20526Y32277D01*
X20467Y32201D01*
X20430Y32112D01*
X20417Y32016D01*
X20430Y31920D01*
X20467Y31831D01*
X20518Y31764D01*
X20502Y31714D01*
X19261D01*
X19240Y31764D01*
X20248Y32773D01*
X20302D01*
X20302Y32773D01*
X20342Y32780D01*
X20376Y32803D01*
X20597Y33024D01*
X20597Y33024D01*
X20620Y33058D01*
X20628Y33098D01*
Y33513D01*
X20643Y33523D01*
X20697Y33497D01*
D02*
G37*
G36*
X34112Y49616D02*
X34112Y49616D01*
X34146Y49594D01*
X34186Y49586D01*
X34666D01*
X34669Y49536D01*
X34640Y49532D01*
X34555Y49496D01*
X34481Y49440D01*
X34425Y49366D01*
X34389Y49281D01*
X34377Y49189D01*
X34389Y49097D01*
X34420Y49024D01*
X34053Y48657D01*
X34019Y48661D01*
X34003Y48712D01*
X34006Y48714D01*
X34057Y48780D01*
X34089Y48857D01*
X34100Y48940D01*
X34089Y49023D01*
X34057Y49100D01*
X34006Y49166D01*
X33940Y49217D01*
X33863Y49249D01*
X33780Y49260D01*
X33697Y49249D01*
X33620Y49217D01*
X33554Y49166D01*
X33503Y49100D01*
X33480Y49044D01*
X33223D01*
X32704Y49564D01*
X32723Y49610D01*
X33320D01*
X33343Y49554D01*
X33394Y49488D01*
X33460Y49437D01*
X33537Y49405D01*
X33620Y49394D01*
X33703Y49405D01*
X33780Y49437D01*
X33846Y49488D01*
X33897Y49554D01*
X33929Y49631D01*
X33940Y49714D01*
X33939Y49718D01*
X33986Y49742D01*
X34112Y49616D01*
D02*
G37*
G36*
X29947Y49486D02*
X29887Y49440D01*
X29831Y49366D01*
X29795Y49281D01*
X29783Y49189D01*
X29795Y49097D01*
X29831Y49012D01*
X29887Y48938D01*
X29961Y48882D01*
X30046Y48846D01*
X30138Y48834D01*
X30230Y48846D01*
X30303Y48876D01*
X30348Y48832D01*
X30335Y48797D01*
X30325Y48784D01*
X28353D01*
X28098Y49039D01*
X28117Y49086D01*
X28394D01*
X28425Y49012D01*
X28481Y48938D01*
X28555Y48882D01*
X28640Y48846D01*
X28732Y48834D01*
X28824Y48846D01*
X28910Y48882D01*
X28983Y48938D01*
X29040Y49012D01*
X29075Y49097D01*
X29087Y49189D01*
X29075Y49281D01*
X29040Y49366D01*
X28983Y49440D01*
X28924Y49486D01*
X28941Y49536D01*
X29930D01*
X29947Y49486D01*
D02*
G37*
G36*
X37299Y50581D02*
X37276Y50535D01*
X37193Y50524D01*
X37098Y50484D01*
X37016Y50421D01*
X36953Y50339D01*
X36913Y50244D01*
X36900Y50142D01*
X36913Y50039D01*
X36953Y49944D01*
X37016Y49862D01*
X37039Y49844D01*
X37022Y49794D01*
X36333D01*
X36316Y49844D01*
X36363Y49881D01*
X36431Y49969D01*
X36473Y50071D01*
X36488Y50181D01*
X36473Y50291D01*
X36431Y50394D01*
X36363Y50482D01*
X36275Y50549D01*
X36250Y50560D01*
X36260Y50610D01*
X37277D01*
X37299Y50581D01*
D02*
G37*
G36*
X29782Y49791D02*
X29763Y49744D01*
X27500D01*
X27490Y49794D01*
X27535Y49813D01*
X27623Y49881D01*
X27691Y49969D01*
X27733Y50071D01*
X27734Y50077D01*
X28020D01*
X28020Y50077D01*
X28060Y50085D01*
X28395D01*
X28425Y50012D01*
X28481Y49938D01*
X28555Y49882D01*
X28640Y49846D01*
X28732Y49834D01*
X28824Y49846D01*
X28910Y49882D01*
X28983Y49938D01*
X29040Y50012D01*
X29075Y50097D01*
X29087Y50189D01*
X29075Y50281D01*
X29040Y50366D01*
X28983Y50440D01*
X28924Y50486D01*
X28941Y50536D01*
X29037D01*
X29782Y49791D01*
D02*
G37*
G36*
X32074Y50422D02*
X32031Y50366D01*
X31995Y50281D01*
X31983Y50189D01*
X31995Y50097D01*
X32031Y50012D01*
X32087Y49938D01*
X32161Y49882D01*
X32192Y49869D01*
X32182Y49819D01*
X31410D01*
X31360Y49857D01*
X31283Y49889D01*
X31200Y49900D01*
X31117Y49889D01*
X31040Y49857D01*
X30974Y49806D01*
X30923Y49740D01*
X30891Y49663D01*
X30880Y49580D01*
X30888Y49520D01*
X30841Y49497D01*
X30464Y49874D01*
X30430Y49896D01*
X30420Y49898D01*
X30413Y49908D01*
X30401Y49953D01*
X30446Y50012D01*
X30481Y50097D01*
X30493Y50189D01*
X30481Y50281D01*
X30451Y50354D01*
X30569Y50472D01*
X32050D01*
X32074Y50422D01*
D02*
G37*
G36*
X37285Y49536D02*
X37193Y49524D01*
X37098Y49484D01*
X37016Y49421D01*
X36953Y49339D01*
X36913Y49244D01*
X36900Y49142D01*
X36913Y49039D01*
X36953Y48944D01*
X37016Y48862D01*
X37098Y48799D01*
X37193Y48760D01*
X37295Y48746D01*
X37398Y48760D01*
X37493Y48799D01*
X37575Y48862D01*
X37578Y48867D01*
X37626Y48851D01*
Y48433D01*
X37578Y48417D01*
X37575Y48421D01*
X37493Y48484D01*
X37398Y48524D01*
X37295Y48537D01*
X37193Y48524D01*
X37098Y48484D01*
X37016Y48421D01*
X36953Y48339D01*
X36913Y48244D01*
X36900Y48142D01*
X36913Y48039D01*
X36953Y47944D01*
X37016Y47862D01*
X37052Y47834D01*
X37035Y47784D01*
X36320D01*
X36303Y47834D01*
X36363Y47881D01*
X36431Y47969D01*
X36473Y48071D01*
X36488Y48181D01*
X36473Y48291D01*
X36431Y48394D01*
X36363Y48482D01*
X36275Y48549D01*
X36173Y48592D01*
X36063Y48606D01*
X35953Y48592D01*
X35851Y48549D01*
X35763Y48482D01*
X35695Y48394D01*
X35653Y48291D01*
X35652Y48285D01*
X35430D01*
X35390Y48293D01*
X35390Y48293D01*
X35070D01*
X35040Y48366D01*
X34983Y48440D01*
X34910Y48496D01*
X34824Y48532D01*
X34732Y48544D01*
X34640Y48532D01*
X34555Y48496D01*
X34481Y48440D01*
X34425Y48366D01*
X34389Y48281D01*
X34377Y48189D01*
X34389Y48097D01*
X34425Y48011D01*
X34481Y47938D01*
X34555Y47882D01*
X34640Y47846D01*
X34732Y47834D01*
X34824Y47846D01*
X34910Y47882D01*
X34983Y47938D01*
X35040Y48011D01*
X35070Y48085D01*
X35358D01*
X35398Y48077D01*
X35398Y48077D01*
X35652D01*
X35653Y48071D01*
X35695Y47969D01*
X35763Y47881D01*
X35823Y47834D01*
X35806Y47784D01*
X31691D01*
X30451Y49024D01*
X30481Y49097D01*
X30493Y49189D01*
X30483Y49269D01*
X30516Y49292D01*
X30527Y49295D01*
X31096Y48726D01*
X31096Y48726D01*
X31130Y48704D01*
X31170Y48696D01*
X33130D01*
X33353Y48473D01*
X33353Y48473D01*
X33375Y48458D01*
X33386Y48450D01*
X33426Y48442D01*
X33426Y48442D01*
X34090D01*
X34090Y48442D01*
X34130Y48450D01*
X34164Y48473D01*
X34567Y48876D01*
X34640Y48846D01*
X34732Y48834D01*
X34824Y48846D01*
X34910Y48882D01*
X34983Y48938D01*
X35040Y49012D01*
X35070Y49085D01*
X35358D01*
X35398Y49077D01*
X35398Y49077D01*
X35652D01*
X35653Y49071D01*
X35695Y48969D01*
X35763Y48881D01*
X35851Y48813D01*
X35953Y48771D01*
X36063Y48756D01*
X36173Y48771D01*
X36275Y48813D01*
X36363Y48881D01*
X36431Y48969D01*
X36473Y49071D01*
X36488Y49181D01*
X36473Y49291D01*
X36431Y49394D01*
X36363Y49482D01*
X36293Y49536D01*
X36310Y49586D01*
X37281D01*
X37285Y49536D01*
D02*
G37*
G36*
X34625Y47526D02*
X34555Y47496D01*
X34481Y47440D01*
X34425Y47366D01*
X34389Y47281D01*
X34377Y47189D01*
X34389Y47097D01*
X34425Y47011D01*
X34481Y46938D01*
X34555Y46882D01*
X34640Y46846D01*
X34732Y46834D01*
X34824Y46846D01*
X34910Y46882D01*
X34983Y46938D01*
X35040Y47011D01*
X35070Y47085D01*
X35358D01*
X35398Y47077D01*
X35398Y47077D01*
X35652D01*
X35653Y47071D01*
X35695Y46969D01*
X35763Y46881D01*
X35851Y46813D01*
X35896Y46794D01*
X35886Y46744D01*
X33170D01*
X33147Y46800D01*
X33096Y46866D01*
X33030Y46917D01*
X32953Y46949D01*
X32870Y46960D01*
X32787Y46949D01*
X32710Y46917D01*
X32644Y46866D01*
X32593Y46800D01*
X32561Y46723D01*
X32550Y46640D01*
X32561Y46557D01*
X32593Y46480D01*
X32644Y46414D01*
X32710Y46363D01*
X32787Y46331D01*
X32870Y46320D01*
X32953Y46331D01*
X33030Y46363D01*
X33096Y46414D01*
X33147Y46480D01*
X33170Y46536D01*
X34524D01*
X34541Y46486D01*
X34481Y46440D01*
X34425Y46366D01*
X34389Y46281D01*
X34377Y46189D01*
X34389Y46097D01*
X34425Y46012D01*
X34481Y45938D01*
X34555Y45882D01*
X34640Y45846D01*
X34732Y45834D01*
X34824Y45846D01*
X34910Y45882D01*
X34983Y45938D01*
X35040Y46012D01*
X35070Y46085D01*
X35358D01*
X35398Y46077D01*
X35398Y46077D01*
X35652D01*
X35653Y46071D01*
X35695Y45969D01*
X35763Y45881D01*
X35851Y45813D01*
X35953Y45771D01*
X36063Y45756D01*
X36173Y45771D01*
X36275Y45813D01*
X36280Y45817D01*
X36536Y45561D01*
Y45202D01*
X36486Y45198D01*
X36473Y45291D01*
X36431Y45394D01*
X36363Y45482D01*
X36275Y45549D01*
X36173Y45592D01*
X36063Y45606D01*
X35953Y45592D01*
X35851Y45549D01*
X35763Y45482D01*
X35695Y45394D01*
X35653Y45291D01*
X35652Y45285D01*
X35430D01*
X35390Y45293D01*
X35390Y45293D01*
X35070D01*
X35040Y45366D01*
X34983Y45440D01*
X34910Y45496D01*
X34824Y45532D01*
X34732Y45544D01*
X34640Y45532D01*
X34555Y45496D01*
X34481Y45440D01*
X34425Y45366D01*
X34389Y45281D01*
X34377Y45189D01*
X34389Y45097D01*
X34425Y45012D01*
X34481Y44938D01*
X34555Y44882D01*
X34640Y44846D01*
X34732Y44834D01*
X34824Y44846D01*
X34910Y44882D01*
X34983Y44938D01*
X35040Y45012D01*
X35070Y45085D01*
X35358D01*
X35398Y45077D01*
X35398Y45077D01*
X35652D01*
X35653Y45071D01*
X35695Y44969D01*
X35763Y44881D01*
X35823Y44834D01*
X35806Y44784D01*
X33686D01*
X32443Y46028D01*
Y46851D01*
X32516Y46882D01*
X32589Y46938D01*
X32646Y47011D01*
X32681Y47097D01*
X32693Y47189D01*
X32681Y47281D01*
X32646Y47366D01*
X32589Y47440D01*
X32516Y47496D01*
X32445Y47526D01*
X32455Y47576D01*
X34615D01*
X34625Y47526D01*
D02*
G37*
G36*
X20565Y46693D02*
X20484Y46659D01*
X20408Y46600D01*
X20349Y46524D01*
X20324Y46465D01*
X20274Y46475D01*
Y46620D01*
X20266Y46660D01*
X20244Y46694D01*
X20244Y46694D01*
X19914Y47024D01*
X19880Y47046D01*
X19840Y47054D01*
X19840Y47054D01*
X15647D01*
X15647Y47054D01*
X15614Y47048D01*
X15607Y47046D01*
X15573Y47024D01*
X15573Y47024D01*
X15137Y46588D01*
X15056Y46621D01*
X14978Y46632D01*
X14956Y46680D01*
X15074Y46798D01*
X15074Y46798D01*
X15096Y46832D01*
X15104Y46872D01*
Y48088D01*
X15096Y48128D01*
X15074Y48162D01*
X15035Y48201D01*
X15057Y48250D01*
X15135Y48261D01*
X15224Y48298D01*
X15301Y48356D01*
X15360Y48433D01*
X15393Y48514D01*
X20565D01*
Y46693D01*
D02*
G37*
G36*
X37209Y47526D02*
X37193Y47524D01*
X37098Y47484D01*
X37016Y47421D01*
X36953Y47339D01*
X36913Y47244D01*
X36900Y47142D01*
X36913Y47039D01*
X36952Y46946D01*
X36750Y46744D01*
X36240D01*
X36230Y46794D01*
X36275Y46813D01*
X36363Y46881D01*
X36431Y46969D01*
X36473Y47071D01*
X36488Y47181D01*
X36473Y47291D01*
X36431Y47394D01*
X36363Y47482D01*
X36306Y47526D01*
X36323Y47576D01*
X37205D01*
X37209Y47526D01*
D02*
G37*
G36*
X26950Y49382D02*
X26912Y49291D01*
X26898Y49181D01*
X26912Y49071D01*
X26955Y48969D01*
X27022Y48881D01*
X27110Y48813D01*
X27213Y48771D01*
X27323Y48756D01*
X27433Y48771D01*
X27535Y48813D01*
X27623Y48881D01*
X27691Y48969D01*
X27726Y49053D01*
X27776Y49062D01*
X27781Y49061D01*
X28236Y48606D01*
X28236Y48606D01*
X28270Y48584D01*
X28310Y48576D01*
X28615D01*
X28625Y48526D01*
X28555Y48496D01*
X28481Y48440D01*
X28425Y48366D01*
X28395Y48293D01*
X28035D01*
X28030Y48294D01*
X28030Y48294D01*
X27732D01*
X27691Y48394D01*
X27623Y48482D01*
X27535Y48549D01*
X27433Y48592D01*
X27323Y48606D01*
X27213Y48592D01*
X27110Y48549D01*
X27022Y48482D01*
X26955Y48394D01*
X26912Y48291D01*
X26912Y48285D01*
X22512D01*
X22512Y48285D01*
X22479Y48279D01*
X22472Y48278D01*
X22438Y48255D01*
X22438Y48255D01*
X20846Y46663D01*
X20774Y46693D01*
Y48570D01*
X20774Y48570D01*
X20767Y48603D01*
X20766Y48610D01*
X20743Y48644D01*
X20711Y48676D01*
X20732Y48726D01*
X24597D01*
X24796Y48526D01*
X24830Y48504D01*
X24870Y48496D01*
X26270D01*
X26270Y48496D01*
X26310Y48504D01*
X26344Y48526D01*
X26704Y48886D01*
X26726Y48920D01*
X26728Y48927D01*
X26734Y48960D01*
X26734Y48960D01*
Y49237D01*
X26908Y49410D01*
X26950Y49382D01*
D02*
G37*
G36*
X30031Y48526D02*
X29961Y48496D01*
X29887Y48440D01*
X29831Y48366D01*
X29795Y48281D01*
X29783Y48189D01*
X29795Y48097D01*
X29831Y48011D01*
X29887Y47938D01*
X29961Y47882D01*
X30046Y47846D01*
X30138Y47834D01*
X30230Y47846D01*
X30316Y47882D01*
X30376Y47927D01*
X30426Y47908D01*
Y47470D01*
X30376Y47450D01*
X30316Y47496D01*
X30230Y47532D01*
X30138Y47544D01*
X30046Y47532D01*
X29961Y47496D01*
X29887Y47440D01*
X29831Y47366D01*
X29795Y47281D01*
X29783Y47189D01*
X29795Y47097D01*
X29831Y47011D01*
X29887Y46938D01*
X29961Y46882D01*
X30046Y46846D01*
X30138Y46834D01*
X30230Y46846D01*
X30316Y46882D01*
X30376Y46927D01*
X30426Y46908D01*
Y46123D01*
X30117Y45814D01*
X29884D01*
X29874Y45864D01*
X29916Y45882D01*
X29989Y45938D01*
X30046Y46012D01*
X30081Y46097D01*
X30093Y46189D01*
X30081Y46281D01*
X30046Y46366D01*
X29989Y46440D01*
X29916Y46496D01*
X29830Y46532D01*
X29738Y46544D01*
X29646Y46532D01*
X29561Y46496D01*
X29487Y46440D01*
X29431Y46366D01*
X29395Y46281D01*
X29383Y46189D01*
X29395Y46097D01*
X29431Y46012D01*
X29487Y45938D01*
X29561Y45882D01*
X29602Y45864D01*
X29592Y45814D01*
X28878D01*
X28868Y45864D01*
X28910Y45882D01*
X28983Y45938D01*
X29040Y46012D01*
X29075Y46097D01*
X29087Y46189D01*
X29075Y46281D01*
X29040Y46366D01*
X28983Y46440D01*
X28910Y46496D01*
X28824Y46532D01*
X28732Y46544D01*
X28640Y46532D01*
X28555Y46496D01*
X28481Y46440D01*
X28425Y46366D01*
X28395Y46293D01*
X28028D01*
X28028Y46293D01*
X27988Y46285D01*
X27734D01*
X27733Y46291D01*
X27691Y46394D01*
X27623Y46482D01*
X27535Y46549D01*
X27433Y46592D01*
X27323Y46606D01*
X27213Y46592D01*
X27110Y46549D01*
X27022Y46482D01*
X26955Y46394D01*
X26912Y46291D01*
X26898Y46181D01*
X26912Y46071D01*
X26955Y45969D01*
X27022Y45881D01*
X27047Y45862D01*
X27031Y45814D01*
X26000D01*
X25983Y45864D01*
X26074Y45934D01*
X26165Y46053D01*
X26222Y46191D01*
X26241Y46339D01*
X26222Y46487D01*
X26165Y46624D01*
X26074Y46743D01*
X25955Y46834D01*
X25817Y46891D01*
X25669Y46910D01*
X25521Y46891D01*
X25383Y46834D01*
X25265Y46743D01*
X25174Y46624D01*
X25117Y46487D01*
X25097Y46339D01*
X25117Y46191D01*
X25174Y46053D01*
X25265Y45934D01*
X25356Y45864D01*
X25339Y45814D01*
X23362D01*
X23350Y45832D01*
X23343Y45864D01*
X23493Y46015D01*
X23574Y45981D01*
X23669Y45968D01*
X23765Y45981D01*
X23854Y46018D01*
X23931Y46077D01*
X23990Y46154D01*
X24027Y46243D01*
X24039Y46339D01*
X24027Y46434D01*
X23990Y46524D01*
X23931Y46600D01*
X23854Y46659D01*
X23765Y46696D01*
X23669Y46709D01*
X23574Y46696D01*
X23484Y46659D01*
X23408Y46600D01*
X23349Y46524D01*
X23312Y46434D01*
X23299Y46339D01*
X23312Y46243D01*
X23345Y46162D01*
X23217Y46034D01*
X22950D01*
X22937Y46084D01*
X22990Y46154D01*
X23027Y46243D01*
X23039Y46339D01*
X23027Y46434D01*
X22990Y46524D01*
X22931Y46600D01*
X22854Y46659D01*
X22765Y46696D01*
X22669Y46709D01*
X22574Y46696D01*
X22484Y46659D01*
X22408Y46600D01*
X22349Y46524D01*
X22312Y46434D01*
X22299Y46339D01*
X22312Y46243D01*
X22349Y46154D01*
X22402Y46084D01*
X22389Y46034D01*
X20950D01*
X20937Y46084D01*
X20990Y46154D01*
X21027Y46243D01*
X21039Y46339D01*
X21027Y46434D01*
X20993Y46515D01*
X22555Y48077D01*
X26912D01*
X26912Y48071D01*
X26955Y47969D01*
X27022Y47881D01*
X27110Y47813D01*
X27213Y47771D01*
X27323Y47756D01*
X27433Y47771D01*
X27535Y47813D01*
X27623Y47881D01*
X27691Y47969D01*
X27733Y48071D01*
X27735Y48086D01*
X28026D01*
X28031Y48085D01*
X28395D01*
X28425Y48011D01*
X28481Y47938D01*
X28555Y47882D01*
X28640Y47846D01*
X28732Y47834D01*
X28824Y47846D01*
X28910Y47882D01*
X28983Y47938D01*
X29040Y48011D01*
X29075Y48097D01*
X29087Y48189D01*
X29075Y48281D01*
X29040Y48366D01*
X28983Y48440D01*
X28910Y48496D01*
X28839Y48526D01*
X28849Y48576D01*
X30022D01*
X30031Y48526D01*
D02*
G37*
G36*
X27031Y50488D02*
X27022Y50482D01*
X26955Y50394D01*
X26912Y50291D01*
X26898Y50181D01*
X26912Y50071D01*
X26955Y49969D01*
X27022Y49881D01*
X27110Y49813D01*
X27156Y49794D01*
X27146Y49744D01*
X26990D01*
X26990Y49744D01*
X26957Y49738D01*
X26950Y49736D01*
X26916Y49714D01*
X26556Y49354D01*
X26534Y49320D01*
X26526Y49280D01*
X26526Y49280D01*
Y49003D01*
X26227Y48704D01*
X26108D01*
X26091Y48754D01*
X26192Y48832D01*
X26283Y48950D01*
X26340Y49088D01*
X26359Y49236D01*
X26340Y49384D01*
X26283Y49522D01*
X26192Y49641D01*
X26073Y49731D01*
X25935Y49789D01*
X25787Y49808D01*
X25639Y49789D01*
X25501Y49731D01*
X25383Y49641D01*
X25292Y49522D01*
X25235Y49384D01*
X25216Y49236D01*
X25235Y49088D01*
X25292Y48950D01*
X25383Y48832D01*
X25484Y48754D01*
X25467Y48704D01*
X24913D01*
X24714Y48904D01*
X24680Y48926D01*
X24640Y48934D01*
X24640Y48934D01*
X23072D01*
X23057Y48984D01*
X23108Y49051D01*
X23145Y49140D01*
X23157Y49236D01*
X23145Y49332D01*
X23108Y49421D01*
X23049Y49498D01*
X22972Y49557D01*
X22883Y49594D01*
X22787Y49606D01*
X22692Y49594D01*
X22602Y49557D01*
X22526Y49498D01*
X22467Y49421D01*
X22430Y49332D01*
X22417Y49236D01*
X22430Y49140D01*
X22467Y49051D01*
X22518Y48984D01*
X22503Y48934D01*
X22072D01*
X22057Y48984D01*
X22108Y49051D01*
X22145Y49140D01*
X22157Y49236D01*
X22145Y49332D01*
X22108Y49421D01*
X22049Y49498D01*
X21972Y49557D01*
X21883Y49594D01*
X21787Y49606D01*
X21692Y49594D01*
X21602Y49557D01*
X21526Y49498D01*
X21467Y49421D01*
X21430Y49332D01*
X21417Y49236D01*
X21430Y49140D01*
X21467Y49051D01*
X21518Y48984D01*
X21503Y48934D01*
X21072D01*
X21057Y48984D01*
X21108Y49051D01*
X21145Y49140D01*
X21157Y49236D01*
X21145Y49332D01*
X21108Y49421D01*
X21049Y49498D01*
X20972Y49557D01*
X20883Y49594D01*
X20787Y49606D01*
X20692Y49594D01*
X20602Y49557D01*
X20526Y49498D01*
X20467Y49421D01*
X20430Y49332D01*
X20417Y49236D01*
X20430Y49140D01*
X20467Y49051D01*
X20518Y48984D01*
X20503Y48934D01*
X20072D01*
X20057Y48984D01*
X20108Y49051D01*
X20145Y49140D01*
X20157Y49236D01*
X20145Y49332D01*
X20108Y49421D01*
X20049Y49498D01*
X19972Y49557D01*
X19883Y49594D01*
X19787Y49606D01*
X19692Y49594D01*
X19602Y49557D01*
X19575Y49597D01*
X19883Y49906D01*
X26238D01*
X26238Y49906D01*
X26278Y49914D01*
X26312Y49936D01*
X26911Y50536D01*
X27015D01*
X27031Y50488D01*
D02*
G37*
G36*
X36801Y52211D02*
Y51722D01*
X36755Y51703D01*
X36744Y51714D01*
X36710Y51736D01*
X36670Y51744D01*
X36670Y51744D01*
X36240D01*
X36230Y51794D01*
X36275Y51813D01*
X36363Y51881D01*
X36431Y51969D01*
X36473Y52071D01*
X36488Y52181D01*
X36473Y52291D01*
X36431Y52394D01*
X36363Y52482D01*
X36306Y52526D01*
X36323Y52576D01*
X36437D01*
X36801Y52211D01*
D02*
G37*
G36*
X35156Y51566D02*
X35156Y51566D01*
X35190Y51544D01*
X35230Y51536D01*
X35755D01*
X35771Y51488D01*
X35763Y51482D01*
X35695Y51394D01*
X35653Y51291D01*
X35652Y51285D01*
X35430D01*
X35390Y51293D01*
X35390Y51293D01*
X35070D01*
X35040Y51366D01*
X34983Y51440D01*
X34910Y51496D01*
X34824Y51532D01*
X34732Y51544D01*
X34640Y51532D01*
X34567Y51502D01*
X34419Y51649D01*
X34439Y51696D01*
X35027D01*
X35156Y51566D01*
D02*
G37*
G36*
X30031Y52526D02*
X29961Y52496D01*
X29887Y52440D01*
X29831Y52366D01*
X29795Y52281D01*
X29783Y52189D01*
X29795Y52097D01*
X29831Y52011D01*
X29887Y51938D01*
X29961Y51882D01*
X30046Y51846D01*
X30138Y51834D01*
X30230Y51846D01*
X30303Y51876D01*
X30389Y51791D01*
X30370Y51744D01*
X27500D01*
X27490Y51794D01*
X27535Y51813D01*
X27623Y51881D01*
X27691Y51969D01*
X27733Y52071D01*
X27734Y52077D01*
X28020D01*
X28020Y52077D01*
X28060Y52085D01*
X28395D01*
X28425Y52011D01*
X28481Y51938D01*
X28555Y51882D01*
X28640Y51846D01*
X28732Y51834D01*
X28824Y51846D01*
X28910Y51882D01*
X28983Y51938D01*
X29040Y52011D01*
X29075Y52097D01*
X29087Y52189D01*
X29075Y52281D01*
X29040Y52366D01*
X28983Y52440D01*
X28910Y52496D01*
X28839Y52526D01*
X28849Y52576D01*
X30022D01*
X30031Y52526D01*
D02*
G37*
G36*
X34420Y52354D02*
X34389Y52281D01*
X34377Y52189D01*
X34389Y52097D01*
X34425Y52011D01*
X34469Y51954D01*
X34447Y51904D01*
X32624D01*
X32602Y51954D01*
X32646Y52011D01*
X32681Y52097D01*
X32693Y52189D01*
X32681Y52281D01*
X32646Y52366D01*
X32589Y52440D01*
X32516Y52496D01*
X32445Y52526D01*
X32455Y52576D01*
X34198D01*
X34420Y52354D01*
D02*
G37*
G36*
X32231Y52526D02*
X32161Y52496D01*
X32087Y52440D01*
X32031Y52366D01*
X31995Y52281D01*
X31983Y52189D01*
X31995Y52097D01*
X32031Y52011D01*
X32075Y51954D01*
X32053Y51904D01*
X30571D01*
X30451Y52024D01*
X30481Y52097D01*
X30493Y52189D01*
X30481Y52281D01*
X30446Y52366D01*
X30389Y52440D01*
X30316Y52496D01*
X30245Y52526D01*
X30255Y52576D01*
X32222D01*
X32231Y52526D01*
D02*
G37*
G36*
X29947Y51486D02*
X29887Y51440D01*
X29831Y51366D01*
X29795Y51281D01*
X29783Y51189D01*
X29795Y51097D01*
X29831Y51012D01*
X29887Y50938D01*
X29961Y50882D01*
X30046Y50846D01*
X30138Y50834D01*
X30230Y50846D01*
X30303Y50876D01*
X30464Y50716D01*
X30456Y50653D01*
X30452Y50650D01*
X30303Y50502D01*
X30230Y50532D01*
X30138Y50544D01*
X30046Y50532D01*
X29961Y50496D01*
X29887Y50440D01*
X29831Y50366D01*
X29795Y50281D01*
X29783Y50189D01*
X29789Y50150D01*
X29741Y50126D01*
X29154Y50714D01*
X29120Y50736D01*
X29080Y50744D01*
X29080Y50744D01*
X27500D01*
X27490Y50794D01*
X27535Y50813D01*
X27623Y50881D01*
X27691Y50969D01*
X27733Y51071D01*
X27734Y51077D01*
X28020D01*
X28020Y51077D01*
X28060Y51085D01*
X28395D01*
X28425Y51012D01*
X28481Y50938D01*
X28555Y50882D01*
X28640Y50846D01*
X28732Y50834D01*
X28824Y50846D01*
X28910Y50882D01*
X28983Y50938D01*
X29040Y51012D01*
X29075Y51097D01*
X29087Y51189D01*
X29075Y51281D01*
X29040Y51366D01*
X28983Y51440D01*
X28924Y51486D01*
X28941Y51536D01*
X29930D01*
X29947Y51486D01*
D02*
G37*
G36*
X35876Y50560D02*
X35851Y50549D01*
X35763Y50482D01*
X35695Y50394D01*
X35653Y50291D01*
X35652Y50285D01*
X35430D01*
X35390Y50293D01*
X35390Y50293D01*
X35070D01*
X35040Y50366D01*
X34983Y50440D01*
X34910Y50496D01*
X34824Y50532D01*
X34732Y50544D01*
X34640Y50532D01*
X34555Y50496D01*
X34481Y50440D01*
X34425Y50366D01*
X34389Y50281D01*
X34377Y50189D01*
X34389Y50097D01*
X34425Y50012D01*
X34481Y49938D01*
X34555Y49882D01*
X34640Y49846D01*
X34654Y49844D01*
X34650Y49794D01*
X34229D01*
X33460Y50564D01*
X33479Y50610D01*
X35866D01*
X35876Y50560D01*
D02*
G37*
G36*
X33648Y50081D02*
X33624Y50033D01*
X33620Y50034D01*
X33537Y50023D01*
X33460Y49991D01*
X33394Y49940D01*
X33343Y49874D01*
X33320Y49819D01*
X32494D01*
X32484Y49869D01*
X32516Y49882D01*
X32589Y49938D01*
X32646Y50012D01*
X32681Y50097D01*
X32693Y50189D01*
X32681Y50281D01*
X32646Y50366D01*
X32603Y50422D01*
X32626Y50472D01*
X33256D01*
X33648Y50081D01*
D02*
G37*
G36*
X32147Y51486D02*
X32087Y51440D01*
X32031Y51366D01*
X31995Y51281D01*
X31983Y51189D01*
X31995Y51097D01*
X32031Y51012D01*
X32087Y50938D01*
X32161Y50882D01*
X32192Y50869D01*
X32182Y50819D01*
X30656D01*
X30451Y51024D01*
X30481Y51097D01*
X30493Y51189D01*
X30481Y51281D01*
X30446Y51366D01*
X30389Y51440D01*
X30330Y51486D01*
X30347Y51536D01*
X32130D01*
X32147Y51486D01*
D02*
G37*
G36*
X37294Y50869D02*
X37273Y50819D01*
X36360D01*
X36344Y50866D01*
X36363Y50881D01*
X36431Y50969D01*
X36473Y51071D01*
X36488Y51181D01*
X36473Y51291D01*
X36431Y51394D01*
X36363Y51482D01*
X36355Y51488D01*
X36371Y51536D01*
X36627D01*
X37294Y50869D01*
D02*
G37*
G36*
X34420Y51354D02*
X34389Y51281D01*
X34377Y51189D01*
X34389Y51097D01*
X34425Y51012D01*
X34481Y50938D01*
X34555Y50882D01*
X34586Y50869D01*
X34576Y50819D01*
X32494D01*
X32484Y50869D01*
X32516Y50882D01*
X32589Y50938D01*
X32646Y51012D01*
X32681Y51097D01*
X32693Y51189D01*
X32681Y51281D01*
X32646Y51366D01*
X32589Y51440D01*
X32530Y51486D01*
X32547Y51536D01*
X34238D01*
X34420Y51354D01*
D02*
G37*
G36*
X29547Y42486D02*
X29487Y42440D01*
X29431Y42366D01*
X29395Y42281D01*
X29383Y42189D01*
X29395Y42097D01*
X29431Y42011D01*
X29487Y41938D01*
X29561Y41882D01*
X29646Y41846D01*
X29738Y41834D01*
X29830Y41846D01*
X29916Y41882D01*
X29989Y41938D01*
X30046Y42011D01*
X30076Y42085D01*
X32838D01*
X32891Y42031D01*
X32863Y41989D01*
X32863Y41989D01*
X32780Y42000D01*
X32697Y41989D01*
X32620Y41957D01*
X32554Y41906D01*
X32503Y41840D01*
X32480Y41784D01*
X27580D01*
X27563Y41834D01*
X27623Y41881D01*
X27691Y41969D01*
X27733Y42071D01*
X27734Y42077D01*
X28020D01*
X28020Y42077D01*
X28060Y42085D01*
X28395D01*
X28425Y42011D01*
X28481Y41938D01*
X28555Y41882D01*
X28640Y41846D01*
X28732Y41834D01*
X28824Y41846D01*
X28910Y41882D01*
X28983Y41938D01*
X29040Y42011D01*
X29075Y42097D01*
X29087Y42189D01*
X29075Y42281D01*
X29040Y42366D01*
X28983Y42440D01*
X28924Y42486D01*
X28941Y42536D01*
X29530D01*
X29547Y42486D01*
D02*
G37*
G36*
X34541D02*
X34481Y42440D01*
X34425Y42366D01*
X34389Y42281D01*
X34377Y42189D01*
X34389Y42097D01*
X34425Y42011D01*
X34481Y41938D01*
X34555Y41882D01*
X34640Y41846D01*
X34654Y41844D01*
X34650Y41794D01*
X33423D01*
X33025Y42192D01*
X33045Y42238D01*
X33292D01*
X33292Y42238D01*
X33332Y42246D01*
X33366Y42269D01*
X33633Y42536D01*
X34524D01*
X34541Y42486D01*
D02*
G37*
G36*
X32112Y43841D02*
X32093Y43794D01*
X31832D01*
X31364Y44263D01*
X31330Y44285D01*
X31290Y44293D01*
X31290Y44293D01*
X30076D01*
X30046Y44366D01*
X29989Y44440D01*
X29930Y44486D01*
X29947Y44536D01*
X31417D01*
X32112Y43841D01*
D02*
G37*
G36*
X29547Y44486D02*
X29487Y44440D01*
X29431Y44366D01*
X29395Y44281D01*
X29383Y44189D01*
X29395Y44097D01*
X29431Y44012D01*
X29487Y43938D01*
X29561Y43882D01*
X29646Y43846D01*
X29738Y43834D01*
X29830Y43846D01*
X29916Y43882D01*
X29989Y43938D01*
X30046Y44012D01*
X30076Y44085D01*
X31247D01*
X31537Y43794D01*
X31516Y43744D01*
X27500D01*
X27490Y43794D01*
X27535Y43813D01*
X27623Y43881D01*
X27691Y43969D01*
X27733Y44071D01*
X27734Y44077D01*
X28020D01*
X28020Y44077D01*
X28060Y44085D01*
X28395D01*
X28425Y44012D01*
X28481Y43938D01*
X28555Y43882D01*
X28640Y43846D01*
X28732Y43834D01*
X28824Y43846D01*
X28910Y43882D01*
X28983Y43938D01*
X29040Y44012D01*
X29075Y44097D01*
X29087Y44189D01*
X29075Y44281D01*
X29040Y44366D01*
X28983Y44440D01*
X28924Y44486D01*
X28941Y44536D01*
X29530D01*
X29547Y44486D01*
D02*
G37*
G36*
X36952Y44337D02*
X36913Y44244D01*
X36900Y44142D01*
X36913Y44039D01*
X36953Y43944D01*
X37016Y43862D01*
X37039Y43844D01*
X37022Y43794D01*
X36333D01*
X36316Y43844D01*
X36363Y43881D01*
X36431Y43969D01*
X36473Y44071D01*
X36488Y44181D01*
X36473Y44291D01*
X36431Y44394D01*
X36363Y44482D01*
X36306Y44526D01*
X36323Y44576D01*
X36714D01*
X36952Y44337D01*
D02*
G37*
G36*
X34669Y43536D02*
X34640Y43532D01*
X34555Y43496D01*
X34481Y43440D01*
X34425Y43366D01*
X34389Y43281D01*
X34377Y43189D01*
X34389Y43097D01*
X34425Y43011D01*
X34481Y42938D01*
X34555Y42882D01*
X34640Y42846D01*
X34732Y42834D01*
X34824Y42846D01*
X34910Y42882D01*
X34983Y42938D01*
X35040Y43011D01*
X35070Y43085D01*
X35358D01*
X35398Y43077D01*
X35398Y43077D01*
X35652D01*
X35653Y43071D01*
X35695Y42969D01*
X35763Y42881D01*
X35851Y42813D01*
X35896Y42794D01*
X35886Y42744D01*
X33590D01*
X33590Y42744D01*
X33556Y42738D01*
X33550Y42736D01*
X33516Y42714D01*
X33249Y42447D01*
X32498D01*
X32474Y42497D01*
X32507Y42540D01*
X32539Y42617D01*
X32550Y42700D01*
X32539Y42783D01*
X32507Y42860D01*
X32456Y42926D01*
X32390Y42977D01*
X32386Y42979D01*
X32396Y43029D01*
X32614D01*
X32654Y42988D01*
X32631Y42933D01*
X32620Y42850D01*
X32631Y42767D01*
X32663Y42690D01*
X32714Y42624D01*
X32780Y42573D01*
X32857Y42541D01*
X32940Y42530D01*
X33023Y42541D01*
X33100Y42573D01*
X33166Y42624D01*
X33217Y42690D01*
X33249Y42767D01*
X33260Y42850D01*
X33249Y42933D01*
X33217Y43010D01*
X33166Y43076D01*
X33100Y43127D01*
X33023Y43159D01*
X32940Y43170D01*
X32857Y43159D01*
X32802Y43136D01*
X32731Y43207D01*
X32697Y43229D01*
X32657Y43237D01*
X32657Y43237D01*
X32100D01*
X31802Y43536D01*
X31823Y43586D01*
X34666D01*
X34669Y43536D01*
D02*
G37*
G36*
X31735Y42340D02*
X31716Y42293D01*
X30076D01*
X30046Y42366D01*
X29989Y42440D01*
X29930Y42486D01*
X29947Y42536D01*
X31539D01*
X31735Y42340D01*
D02*
G37*
G36*
X37285Y43536D02*
X37193Y43524D01*
X37098Y43484D01*
X37016Y43421D01*
X36953Y43339D01*
X36913Y43244D01*
X36900Y43142D01*
X36913Y43039D01*
X36953Y42944D01*
X37016Y42862D01*
X37098Y42799D01*
X37110Y42794D01*
X37100Y42744D01*
X36240D01*
X36230Y42794D01*
X36275Y42813D01*
X36363Y42881D01*
X36431Y42969D01*
X36473Y43071D01*
X36488Y43181D01*
X36473Y43291D01*
X36431Y43394D01*
X36363Y43482D01*
X36293Y43536D01*
X36310Y43586D01*
X37281D01*
X37285Y43536D01*
D02*
G37*
G36*
X31699Y43343D02*
X31678Y43293D01*
X29070D01*
X29040Y43366D01*
X28983Y43440D01*
X28924Y43486D01*
X28941Y43536D01*
X31507D01*
X31699Y43343D01*
D02*
G37*
G36*
X31944Y42838D02*
X31921Y42783D01*
X31910Y42700D01*
X31921Y42617D01*
X31953Y42540D01*
X31981Y42504D01*
X31960Y42459D01*
X31916Y42454D01*
X31656Y42714D01*
X31623Y42736D01*
X31583Y42744D01*
X31583Y42744D01*
X27500D01*
X27490Y42794D01*
X27535Y42813D01*
X27623Y42881D01*
X27691Y42969D01*
X27733Y43071D01*
X27734Y43077D01*
X28020D01*
X28020Y43077D01*
X28060Y43085D01*
X28395D01*
X28425Y43011D01*
X28481Y42938D01*
X28555Y42882D01*
X28640Y42846D01*
X28732Y42834D01*
X28824Y42846D01*
X28910Y42882D01*
X28983Y42938D01*
X29040Y43011D01*
X29070Y43085D01*
X31698D01*
X31944Y42838D01*
D02*
G37*
G36*
X19565Y45985D02*
Y45881D01*
X19565Y45881D01*
X19573Y45841D01*
X19596Y45807D01*
X19766Y45636D01*
X19766Y45636D01*
X19800Y45614D01*
X19840Y45606D01*
X27116D01*
X27126Y45556D01*
X27110Y45549D01*
X27022Y45482D01*
X26955Y45394D01*
X26912Y45291D01*
X26898Y45181D01*
X26912Y45071D01*
X26955Y44969D01*
X27022Y44881D01*
X27110Y44813D01*
X27156Y44794D01*
X27146Y44744D01*
X19080D01*
X19057Y44800D01*
X19006Y44866D01*
X18940Y44917D01*
X18863Y44949D01*
X18780Y44960D01*
X18697Y44949D01*
X18620Y44917D01*
X18554Y44866D01*
X18503Y44800D01*
X18471Y44723D01*
X18460Y44640D01*
X18471Y44557D01*
X18503Y44480D01*
X18554Y44414D01*
X18620Y44363D01*
X18697Y44331D01*
X18780Y44320D01*
X18863Y44331D01*
X18940Y44363D01*
X19006Y44414D01*
X19057Y44480D01*
X19080Y44536D01*
X27015D01*
X27031Y44488D01*
X27022Y44482D01*
X26955Y44394D01*
X26912Y44291D01*
X26898Y44181D01*
X26912Y44071D01*
X26955Y43969D01*
X27022Y43881D01*
X27110Y43813D01*
X27156Y43794D01*
X27146Y43744D01*
X21426D01*
X21386Y43736D01*
X21352Y43714D01*
X21352Y43714D01*
X17264Y39626D01*
X17209Y39649D01*
X17126Y39660D01*
X17043Y39649D01*
X16966Y39617D01*
X16900Y39566D01*
X16849Y39500D01*
X16817Y39423D01*
X16806Y39340D01*
X16817Y39257D01*
X16849Y39180D01*
X16900Y39114D01*
X16966Y39063D01*
X17043Y39031D01*
X17126Y39020D01*
X17209Y39031D01*
X17286Y39063D01*
X17352Y39114D01*
X17403Y39180D01*
X17435Y39257D01*
X17446Y39340D01*
X17435Y39423D01*
X17412Y39478D01*
X21469Y43536D01*
X27015D01*
X27031Y43488D01*
X27022Y43482D01*
X26955Y43394D01*
X26912Y43291D01*
X26898Y43181D01*
X26912Y43071D01*
X26955Y42969D01*
X27022Y42881D01*
X27110Y42813D01*
X27156Y42794D01*
X27146Y42744D01*
X25950D01*
X25950Y42744D01*
X25917Y42738D01*
X25910Y42736D01*
X25876Y42714D01*
X25876Y42714D01*
X21387Y38225D01*
X17860D01*
X17860Y38225D01*
X17827Y38218D01*
X17820Y38217D01*
X17786Y38194D01*
X17786Y38194D01*
X16448Y36856D01*
X16393Y36879D01*
X16310Y36890D01*
X16227Y36879D01*
X16150Y36847D01*
X16084Y36796D01*
X16033Y36730D01*
X16001Y36653D01*
X15990Y36570D01*
X16001Y36487D01*
X16033Y36410D01*
X16068Y36364D01*
X16044Y36314D01*
X15753D01*
X15334Y36733D01*
Y37144D01*
X15384Y37168D01*
X15430Y37133D01*
X15507Y37101D01*
X15590Y37090D01*
X15673Y37101D01*
X15750Y37133D01*
X15816Y37184D01*
X15867Y37250D01*
X15899Y37327D01*
X15910Y37410D01*
X15899Y37493D01*
X15876Y37548D01*
X16973Y38646D01*
X17980D01*
X18003Y38590D01*
X18054Y38524D01*
X18120Y38473D01*
X18197Y38441D01*
X18280Y38430D01*
X18363Y38441D01*
X18440Y38473D01*
X18506Y38524D01*
X18557Y38590D01*
X18589Y38667D01*
X18600Y38750D01*
X18589Y38833D01*
X18557Y38910D01*
X18506Y38976D01*
X18440Y39027D01*
X18363Y39059D01*
X18280Y39070D01*
X18197Y39059D01*
X18120Y39027D01*
X18054Y38976D01*
X18003Y38910D01*
X17980Y38854D01*
X16930D01*
X16890Y38846D01*
X16856Y38824D01*
X16856Y38824D01*
X15728Y37696D01*
X15673Y37719D01*
X15590Y37730D01*
X15507Y37719D01*
X15430Y37687D01*
X15384Y37652D01*
X15334Y37676D01*
Y37957D01*
X15582Y38204D01*
X15637Y38181D01*
X15720Y38170D01*
X15803Y38181D01*
X15880Y38213D01*
X15946Y38264D01*
X15997Y38330D01*
X16029Y38407D01*
X16040Y38490D01*
X16029Y38573D01*
X15997Y38650D01*
X15946Y38716D01*
X15880Y38767D01*
X15803Y38799D01*
X15720Y38810D01*
X15637Y38799D01*
X15560Y38767D01*
X15494Y38716D01*
X15443Y38650D01*
X15411Y38573D01*
X15400Y38490D01*
X15411Y38407D01*
X15434Y38352D01*
X15156Y38074D01*
X15134Y38040D01*
X15126Y38000D01*
X15126Y38000D01*
Y36690D01*
X15126Y36690D01*
X15134Y36650D01*
X15156Y36616D01*
X15572Y36201D01*
X15553Y36154D01*
X15273D01*
X11624Y39804D01*
X11590Y39826D01*
X11550Y39834D01*
X11550Y39834D01*
X11506D01*
X11500Y39850D01*
X11493Y39884D01*
X11549Y39957D01*
X11586Y40046D01*
X11598Y40142D01*
X11586Y40238D01*
X11549Y40327D01*
X11490Y40403D01*
X11413Y40462D01*
X11324Y40499D01*
X11228Y40512D01*
X11133Y40499D01*
X11043Y40462D01*
X10974Y40409D01*
X10924Y40423D01*
Y40861D01*
X10974Y40874D01*
X11043Y40821D01*
X11133Y40784D01*
X11228Y40772D01*
X11324Y40784D01*
X11413Y40821D01*
X11490Y40880D01*
X11549Y40957D01*
X11586Y41046D01*
X11598Y41142D01*
X11586Y41238D01*
X11552Y41318D01*
X13394Y43159D01*
X14607D01*
X14640Y43079D01*
X14699Y43002D01*
X14776Y42943D01*
X14865Y42906D01*
X14961Y42894D01*
X15056Y42906D01*
X15146Y42943D01*
X15222Y43002D01*
X15281Y43079D01*
X15315Y43159D01*
X16594D01*
X16595Y43159D01*
X16634Y43167D01*
X16668Y43190D01*
X19493Y46015D01*
X19565Y45985D01*
D02*
G37*
G36*
X31574Y47606D02*
X31607Y47584D01*
X31614Y47582D01*
X31647Y47576D01*
X31647Y47576D01*
X32222D01*
X32231Y47526D01*
X32161Y47496D01*
X32087Y47440D01*
X32031Y47366D01*
X31995Y47281D01*
X31983Y47189D01*
X31995Y47097D01*
X32031Y47011D01*
X32087Y46938D01*
X32161Y46882D01*
X32234Y46851D01*
Y45984D01*
X32234Y45984D01*
X32242Y45945D01*
X32265Y45911D01*
X33569Y44606D01*
X33603Y44584D01*
X33643Y44576D01*
X33643Y44576D01*
X34615D01*
X34625Y44526D01*
X34555Y44496D01*
X34481Y44440D01*
X34425Y44366D01*
X34389Y44281D01*
X34377Y44189D01*
X34389Y44097D01*
X34420Y44024D01*
X34368Y43972D01*
X32276D01*
X31534Y44714D01*
X31500Y44736D01*
X31460Y44744D01*
X31460Y44744D01*
X27500D01*
X27490Y44794D01*
X27535Y44813D01*
X27623Y44881D01*
X27691Y44969D01*
X27733Y45071D01*
X27734Y45077D01*
X28020D01*
X28020Y45077D01*
X28060Y45085D01*
X28395D01*
X28425Y45012D01*
X28481Y44938D01*
X28555Y44882D01*
X28640Y44846D01*
X28732Y44834D01*
X28824Y44846D01*
X28910Y44882D01*
X28983Y44938D01*
X29040Y45012D01*
X29075Y45097D01*
X29087Y45189D01*
X29075Y45281D01*
X29040Y45366D01*
X28983Y45440D01*
X28910Y45496D01*
X28824Y45532D01*
X28732Y45544D01*
X28640Y45532D01*
X28555Y45496D01*
X28481Y45440D01*
X28425Y45366D01*
X28395Y45293D01*
X28028D01*
X28028Y45293D01*
X27988Y45285D01*
X27734D01*
X27733Y45291D01*
X27691Y45394D01*
X27623Y45482D01*
X27535Y45549D01*
X27519Y45556D01*
X27529Y45606D01*
X30160D01*
X30160Y45606D01*
X30200Y45614D01*
X30234Y45636D01*
X30604Y46006D01*
X30626Y46040D01*
X30634Y46080D01*
X30634Y46080D01*
Y48475D01*
X30647Y48485D01*
X30682Y48498D01*
X31574Y47606D01*
D02*
G37*
G36*
X20066Y46577D02*
Y46471D01*
X20016Y46461D01*
X19990Y46524D01*
X19931Y46600D01*
X19854Y46659D01*
X19765Y46696D01*
X19669Y46709D01*
X19574Y46696D01*
X19484Y46659D01*
X19408Y46600D01*
X19349Y46524D01*
X19312Y46434D01*
X19299Y46339D01*
X19312Y46243D01*
X19345Y46162D01*
X16774Y43590D01*
X16734Y43620D01*
X16765Y43697D01*
X16776Y43780D01*
X16765Y43862D01*
X16734Y43939D01*
X16683Y44006D01*
X16617Y44056D01*
X16539Y44088D01*
X16457Y44099D01*
X16374Y44088D01*
X16297Y44056D01*
X16231Y44006D01*
X15434Y44804D01*
X15400Y44826D01*
X15360Y44834D01*
X15360Y44834D01*
X11506D01*
X11500Y44850D01*
X11493Y44884D01*
X11549Y44957D01*
X11582Y45037D01*
X13567D01*
X13567Y45037D01*
X13607Y45045D01*
X13641Y45068D01*
X14609Y46037D01*
X14673Y46036D01*
X14699Y46002D01*
X14776Y45943D01*
X14865Y45906D01*
X14961Y45894D01*
X15056Y45906D01*
X15146Y45943D01*
X15222Y46002D01*
X15281Y46079D01*
X15318Y46168D01*
X15331Y46264D01*
X15318Y46360D01*
X15285Y46440D01*
X15690Y46846D01*
X16317D01*
X16334Y46796D01*
X16265Y46743D01*
X16174Y46624D01*
X16117Y46487D01*
X16097Y46339D01*
X16117Y46191D01*
X16174Y46053D01*
X16265Y45934D01*
X16383Y45843D01*
X16521Y45786D01*
X16669Y45767D01*
X16817Y45786D01*
X16955Y45843D01*
X17074Y45934D01*
X17165Y46053D01*
X17222Y46191D01*
X17241Y46339D01*
X17222Y46487D01*
X17165Y46624D01*
X17074Y46743D01*
X17005Y46796D01*
X17022Y46846D01*
X19797D01*
X20066Y46577D01*
D02*
G37*
G36*
X10966Y44656D02*
X11000Y44634D01*
X11040Y44626D01*
X11040Y44626D01*
X15317D01*
X16140Y43802D01*
X16137Y43780D01*
X16148Y43697D01*
X16180Y43620D01*
X16231Y43553D01*
X16297Y43503D01*
X16374Y43471D01*
X16457Y43460D01*
X16539Y43471D01*
X16617Y43503D01*
X16646Y43463D01*
X16551Y43368D01*
X15315D01*
X15281Y43449D01*
X15222Y43525D01*
X15146Y43584D01*
X15056Y43621D01*
X14961Y43634D01*
X14865Y43621D01*
X14776Y43584D01*
X14699Y43525D01*
X14640Y43449D01*
X14607Y43368D01*
X13350D01*
X13350Y43368D01*
X13317Y43362D01*
X13310Y43360D01*
X13277Y43338D01*
X13277Y43338D01*
X11405Y41466D01*
X11324Y41499D01*
X11228Y41512D01*
X11133Y41499D01*
X11043Y41462D01*
X10974Y41409D01*
X10924Y41423D01*
Y41861D01*
X10974Y41874D01*
X11043Y41821D01*
X11133Y41784D01*
X11228Y41772D01*
X11324Y41784D01*
X11413Y41821D01*
X11490Y41880D01*
X11549Y41957D01*
X11586Y42046D01*
X11598Y42142D01*
X11586Y42238D01*
X11552Y42318D01*
X12909Y43675D01*
X13755D01*
X13778Y43620D01*
X13829Y43553D01*
X13895Y43503D01*
X13972Y43471D01*
X14055Y43460D01*
X14138Y43471D01*
X14215Y43503D01*
X14281Y43553D01*
X14332Y43620D01*
X14364Y43697D01*
X14375Y43780D01*
X14364Y43862D01*
X14332Y43939D01*
X14295Y43987D01*
X14318Y44037D01*
X14844D01*
X14853Y44026D01*
X14919Y43975D01*
X14996Y43943D01*
X15079Y43932D01*
X15161Y43943D01*
X15239Y43975D01*
X15305Y44026D01*
X15356Y44092D01*
X15388Y44169D01*
X15398Y44252D01*
X15388Y44335D01*
X15356Y44412D01*
X15305Y44478D01*
X15239Y44529D01*
X15161Y44561D01*
X15079Y44572D01*
X14996Y44561D01*
X14919Y44529D01*
X14853Y44478D01*
X14802Y44412D01*
X14770Y44335D01*
X14759Y44252D01*
X14754Y44246D01*
X11582D01*
X11549Y44327D01*
X11490Y44403D01*
X11413Y44462D01*
X11324Y44499D01*
X11228Y44512D01*
X11133Y44499D01*
X11043Y44462D01*
X10967Y44403D01*
X10908Y44327D01*
X10871Y44238D01*
X10860Y44158D01*
X10812Y44136D01*
X10744Y44203D01*
Y44807D01*
X10794Y44828D01*
X10966Y44656D01*
D02*
G37*
G36*
X36903Y42534D02*
Y41897D01*
X36800Y41794D01*
X36333D01*
X36316Y41844D01*
X36363Y41881D01*
X36431Y41969D01*
X36473Y42071D01*
X36488Y42181D01*
X36473Y42291D01*
X36431Y42394D01*
X36363Y42482D01*
X36355Y42488D01*
X36371Y42536D01*
X36854D01*
X36903Y42534D01*
D02*
G37*
G36*
X13815Y43987D02*
X13778Y43939D01*
X13755Y43884D01*
X12866D01*
X12866Y43884D01*
X12826Y43876D01*
X12792Y43853D01*
X11789Y42850D01*
X11743Y42875D01*
X11744Y42880D01*
Y43360D01*
X11744Y43360D01*
X11738Y43393D01*
X11736Y43400D01*
X11714Y43434D01*
X11714Y43434D01*
X11434Y43714D01*
X11400Y43736D01*
X11360Y43744D01*
X11349Y43793D01*
X11349Y43794D01*
X11413Y43821D01*
X11490Y43880D01*
X11549Y43957D01*
X11582Y44037D01*
X13792D01*
X13815Y43987D01*
D02*
G37*
%LPC*%
G36*
X22669Y40709D02*
X22574Y40696D01*
X22484Y40659D01*
X22408Y40600D01*
X22349Y40524D01*
X22312Y40434D01*
X22299Y40339D01*
X22312Y40243D01*
X22349Y40154D01*
X22408Y40077D01*
X22484Y40018D01*
X22574Y39981D01*
X22669Y39968D01*
X22765Y39981D01*
X22854Y40018D01*
X22931Y40077D01*
X22990Y40154D01*
X23027Y40243D01*
X23039Y40339D01*
X23027Y40434D01*
X22990Y40524D01*
X22931Y40600D01*
X22854Y40659D01*
X22765Y40696D01*
X22669Y40709D01*
D02*
G37*
G36*
X21669D02*
X21574Y40696D01*
X21484Y40659D01*
X21408Y40600D01*
X21349Y40524D01*
X21312Y40434D01*
X21299Y40339D01*
X21312Y40243D01*
X21349Y40154D01*
X21408Y40077D01*
X21484Y40018D01*
X21574Y39981D01*
X21669Y39968D01*
X21765Y39981D01*
X21854Y40018D01*
X21931Y40077D01*
X21990Y40154D01*
X22027Y40243D01*
X22039Y40339D01*
X22027Y40434D01*
X21990Y40524D01*
X21931Y40600D01*
X21854Y40659D01*
X21765Y40696D01*
X21669Y40709D01*
D02*
G37*
G36*
X16669Y40910D02*
X16521Y40891D01*
X16383Y40834D01*
X16265Y40743D01*
X16174Y40624D01*
X16117Y40487D01*
X16097Y40339D01*
X16117Y40191D01*
X16174Y40053D01*
X16265Y39934D01*
X16383Y39843D01*
X16521Y39786D01*
X16669Y39767D01*
X16817Y39786D01*
X16955Y39843D01*
X17074Y39934D01*
X17165Y40053D01*
X17222Y40191D01*
X17241Y40339D01*
X17222Y40487D01*
X17165Y40624D01*
X17074Y40743D01*
X16955Y40834D01*
X16817Y40891D01*
X16669Y40910D01*
D02*
G37*
G36*
X19669Y40709D02*
X19574Y40696D01*
X19484Y40659D01*
X19408Y40600D01*
X19349Y40524D01*
X19312Y40434D01*
X19299Y40339D01*
X19312Y40243D01*
X19349Y40154D01*
X19408Y40077D01*
X19484Y40018D01*
X19574Y39981D01*
X19669Y39968D01*
X19765Y39981D01*
X19854Y40018D01*
X19931Y40077D01*
X19990Y40154D01*
X20027Y40243D01*
X20039Y40339D01*
X20027Y40434D01*
X19990Y40524D01*
X19931Y40600D01*
X19854Y40659D01*
X19765Y40696D01*
X19669Y40709D01*
D02*
G37*
G36*
X20669D02*
X20574Y40696D01*
X20484Y40659D01*
X20408Y40600D01*
X20349Y40524D01*
X20312Y40434D01*
X20299Y40339D01*
X20312Y40243D01*
X20349Y40154D01*
X20408Y40077D01*
X20484Y40018D01*
X20574Y39981D01*
X20669Y39968D01*
X20765Y39981D01*
X20854Y40018D01*
X20931Y40077D01*
X20990Y40154D01*
X21027Y40243D01*
X21039Y40339D01*
X21027Y40434D01*
X20990Y40524D01*
X20931Y40600D01*
X20854Y40659D01*
X20765Y40696D01*
X20669Y40709D01*
D02*
G37*
G36*
X27323Y47606D02*
X27213Y47592D01*
X27110Y47549D01*
X27022Y47482D01*
X26955Y47394D01*
X26912Y47291D01*
X26912Y47285D01*
X25347D01*
X25337Y47310D01*
X25286Y47376D01*
X25220Y47427D01*
X25143Y47459D01*
X25060Y47470D01*
X24977Y47459D01*
X24900Y47427D01*
X24834Y47376D01*
X24783Y47310D01*
X24751Y47233D01*
X24740Y47150D01*
X24751Y47067D01*
X24783Y46990D01*
X24834Y46924D01*
X24900Y46873D01*
X24977Y46841D01*
X25060Y46830D01*
X25143Y46841D01*
X25220Y46873D01*
X25286Y46924D01*
X25337Y46990D01*
X25369Y47067D01*
X25370Y47077D01*
X26912D01*
X26912Y47071D01*
X26955Y46969D01*
X27022Y46881D01*
X27110Y46813D01*
X27213Y46771D01*
X27323Y46756D01*
X27433Y46771D01*
X27535Y46813D01*
X27623Y46881D01*
X27691Y46969D01*
X27733Y47071D01*
X27734Y47077D01*
X28020D01*
X28020Y47077D01*
X28060Y47085D01*
X28395D01*
X28425Y47011D01*
X28481Y46938D01*
X28555Y46882D01*
X28640Y46846D01*
X28732Y46834D01*
X28824Y46846D01*
X28910Y46882D01*
X28983Y46938D01*
X29040Y47011D01*
X29075Y47097D01*
X29087Y47189D01*
X29075Y47281D01*
X29040Y47366D01*
X28983Y47440D01*
X28910Y47496D01*
X28824Y47532D01*
X28732Y47544D01*
X28640Y47532D01*
X28555Y47496D01*
X28481Y47440D01*
X28425Y47366D01*
X28395Y47293D01*
X28028D01*
X28028Y47293D01*
X27988Y47285D01*
X27734D01*
X27733Y47291D01*
X27691Y47394D01*
X27623Y47482D01*
X27535Y47549D01*
X27433Y47592D01*
X27323Y47606D01*
D02*
G37*
G36*
X29738Y45544D02*
X29646Y45532D01*
X29561Y45496D01*
X29487Y45440D01*
X29431Y45366D01*
X29395Y45281D01*
X29383Y45189D01*
X29395Y45097D01*
X29431Y45012D01*
X29487Y44938D01*
X29561Y44882D01*
X29646Y44846D01*
X29738Y44834D01*
X29830Y44846D01*
X29916Y44882D01*
X29989Y44938D01*
X30046Y45012D01*
X30076Y45085D01*
X32338D01*
X32744Y44678D01*
X32721Y44623D01*
X32710Y44540D01*
X32721Y44457D01*
X32753Y44380D01*
X32804Y44314D01*
X32870Y44263D01*
X32947Y44231D01*
X33030Y44220D01*
X33113Y44231D01*
X33190Y44263D01*
X33256Y44314D01*
X33307Y44380D01*
X33339Y44457D01*
X33350Y44540D01*
X33339Y44623D01*
X33307Y44700D01*
X33256Y44766D01*
X33190Y44817D01*
X33113Y44849D01*
X33030Y44860D01*
X32947Y44849D01*
X32892Y44826D01*
X32455Y45263D01*
X32421Y45285D01*
X32381Y45293D01*
X32381Y45293D01*
X30076D01*
X30046Y45366D01*
X29989Y45440D01*
X29916Y45496D01*
X29830Y45532D01*
X29738Y45544D01*
D02*
G37*
G36*
X18669Y46709D02*
X18574Y46696D01*
X18484Y46659D01*
X18408Y46600D01*
X18349Y46524D01*
X18312Y46434D01*
X18299Y46339D01*
X18312Y46243D01*
X18349Y46154D01*
X18408Y46077D01*
X18484Y46018D01*
X18574Y45981D01*
X18669Y45968D01*
X18765Y45981D01*
X18854Y46018D01*
X18931Y46077D01*
X18990Y46154D01*
X19027Y46243D01*
X19039Y46339D01*
X19027Y46434D01*
X18990Y46524D01*
X18931Y46600D01*
X18854Y46659D01*
X18765Y46696D01*
X18669Y46709D01*
D02*
G37*
G36*
X11720Y35930D02*
X11637Y35919D01*
X11560Y35887D01*
X11494Y35836D01*
X11443Y35770D01*
X11411Y35693D01*
X11400Y35610D01*
X11411Y35527D01*
X11443Y35450D01*
X11494Y35384D01*
X11560Y35333D01*
X11637Y35301D01*
X11720Y35290D01*
X11803Y35301D01*
X11880Y35333D01*
X11946Y35384D01*
X11997Y35450D01*
X12020Y35506D01*
X16949D01*
X17594Y34861D01*
X17571Y34805D01*
X17560Y34722D01*
X17571Y34640D01*
X17603Y34563D01*
X17654Y34496D01*
X17720Y34446D01*
X17797Y34414D01*
X17880Y34403D01*
X17963Y34414D01*
X18040Y34446D01*
X18106Y34496D01*
X18157Y34563D01*
X18189Y34640D01*
X18200Y34722D01*
X18189Y34805D01*
X18157Y34882D01*
X18106Y34948D01*
X18040Y34999D01*
X17963Y35031D01*
X17880Y35042D01*
X17797Y35031D01*
X17742Y35008D01*
X17066Y35684D01*
X17032Y35706D01*
X16992Y35714D01*
X16992Y35714D01*
X12020D01*
X11997Y35770D01*
X11946Y35836D01*
X11880Y35887D01*
X11803Y35919D01*
X11720Y35930D01*
D02*
G37*
G36*
X23787Y31386D02*
X23692Y31373D01*
X23602Y31336D01*
X23526Y31277D01*
X23467Y31201D01*
X23430Y31112D01*
X23417Y31016D01*
X23430Y30920D01*
X23467Y30831D01*
X23526Y30754D01*
X23602Y30695D01*
X23692Y30658D01*
X23787Y30646D01*
X23883Y30658D01*
X23972Y30695D01*
X24049Y30754D01*
X24108Y30831D01*
X24145Y30920D01*
X24157Y31016D01*
X24145Y31112D01*
X24108Y31201D01*
X24049Y31277D01*
X23972Y31336D01*
X23883Y31373D01*
X23787Y31386D01*
D02*
G37*
G36*
X22787D02*
X22692Y31373D01*
X22602Y31336D01*
X22526Y31277D01*
X22467Y31201D01*
X22430Y31112D01*
X22417Y31016D01*
X22430Y30920D01*
X22467Y30831D01*
X22526Y30754D01*
X22602Y30695D01*
X22692Y30658D01*
X22787Y30646D01*
X22883Y30658D01*
X22972Y30695D01*
X23049Y30754D01*
X23108Y30831D01*
X23145Y30920D01*
X23157Y31016D01*
X23145Y31112D01*
X23108Y31201D01*
X23049Y31277D01*
X22972Y31336D01*
X22883Y31373D01*
X22787Y31386D01*
D02*
G37*
G36*
Y32386D02*
X22692Y32373D01*
X22602Y32336D01*
X22526Y32277D01*
X22467Y32201D01*
X22430Y32112D01*
X22417Y32016D01*
X22430Y31920D01*
X22467Y31831D01*
X22526Y31754D01*
X22602Y31695D01*
X22692Y31658D01*
X22787Y31646D01*
X22883Y31658D01*
X22972Y31695D01*
X23049Y31754D01*
X23108Y31831D01*
X23145Y31920D01*
X23157Y32016D01*
X23145Y32112D01*
X23108Y32201D01*
X23049Y32277D01*
X22972Y32336D01*
X22883Y32373D01*
X22787Y32386D01*
D02*
G37*
G36*
X24787Y31386D02*
X24692Y31373D01*
X24602Y31336D01*
X24526Y31277D01*
X24467Y31201D01*
X24430Y31112D01*
X24417Y31016D01*
X24430Y30920D01*
X24467Y30831D01*
X24526Y30754D01*
X24602Y30695D01*
X24692Y30658D01*
X24787Y30646D01*
X24883Y30658D01*
X24972Y30695D01*
X25049Y30754D01*
X25108Y30831D01*
X25145Y30920D01*
X25157Y31016D01*
X25145Y31112D01*
X25108Y31201D01*
X25049Y31277D01*
X24972Y31336D01*
X24883Y31373D01*
X24787Y31386D01*
D02*
G37*
%LPD*%
D14*
X11744Y46339D02*
X13819D01*
X10169Y47913D02*
X11744Y46339D01*
D15*
X14637Y48785D02*
X15000Y49148D01*
X14637Y48451D02*
X15000Y48088D01*
X14558Y46430D02*
X15000Y46872D01*
Y48088D01*
Y49148D02*
Y49370D01*
X14637Y48451D02*
Y48785D01*
X14558Y46133D02*
Y46430D01*
X13567Y45142D02*
X14558Y46133D01*
X15000Y49370D02*
X15910Y50280D01*
X11228Y45142D02*
X13567D01*
X15039Y48618D02*
X20621D01*
X13583Y47634D02*
Y49003D01*
X27332Y49190D02*
X28732D01*
X33070Y32950D02*
X33504D01*
X12543Y33960D02*
X13143Y34560D01*
X28896Y37380D02*
X29076Y37200D01*
X22830Y37380D02*
X28896D01*
X15890Y25669D02*
X16346Y25213D01*
X18093D01*
X18834Y25954D01*
Y27094D01*
X19200Y27460D01*
X32208D01*
X33504Y28756D01*
X13583Y49003D02*
X19050Y54470D01*
X21021D01*
X21787Y55236D01*
X28299Y32528D02*
Y36417D01*
X27787Y32016D02*
X28299Y32528D01*
X36794Y46640D02*
X37295Y47142D01*
X32870Y46640D02*
X36794D01*
X37730Y47707D02*
X38295Y47142D01*
X37730Y47707D02*
Y49528D01*
X37568Y49690D02*
X37730Y49528D01*
X34186Y49690D02*
X37568D01*
X33300Y50576D02*
X34186Y49690D01*
X30526Y50576D02*
X33300D01*
X30138Y50189D02*
X30526Y50576D01*
X36757Y44680D02*
X37295Y44142D01*
X33643Y44680D02*
X36757D01*
X32338Y45984D02*
X33643Y44680D01*
X32338Y45984D02*
Y47189D01*
X31200Y49580D02*
X31334Y49714D01*
X33620D01*
X36844Y41690D02*
X37295Y42142D01*
X33380Y41690D02*
X36844D01*
X32881Y42189D02*
X33380Y41690D01*
X29738Y42189D02*
X32881D01*
X34090Y48547D02*
X34732Y49189D01*
X33426Y48547D02*
X34090D01*
X33173Y48800D02*
X33426Y48547D01*
X31170Y48800D02*
X33173D01*
X30330Y49640D02*
X31170Y48800D01*
X26990Y49640D02*
X30330D01*
X26630Y49280D02*
X26990Y49640D01*
X26630Y48960D02*
Y49280D01*
X26270Y48600D02*
X26630Y48960D01*
X24870Y48600D02*
X26270D01*
X24640Y48830D02*
X24870Y48600D01*
X18805Y48830D02*
X24640D01*
X18440Y49195D02*
X18805Y48830D01*
X34040Y31220D02*
X34504Y30756D01*
X33080Y31220D02*
X34040D01*
X31633Y32667D02*
X33080Y31220D01*
X31950Y34630D02*
X33360Y33220D01*
X33970D01*
Y32640D02*
Y33220D01*
Y32640D02*
X34390Y32220D01*
X34750D01*
X34970Y32000D01*
Y30540D02*
Y32000D01*
X34720Y30290D02*
X34970Y30540D01*
X33970Y30290D02*
X34720D01*
X33504Y30756D02*
X33970Y30290D01*
X33504Y32756D02*
Y32950D01*
X32420Y33600D02*
X33070Y32950D01*
X30060Y35550D02*
X31957D01*
X34127Y33379D01*
Y33132D02*
Y33379D01*
Y33132D02*
X34504Y32756D01*
X33127Y32132D02*
X33504Y31756D01*
X32880Y32132D02*
X33127D01*
X31360Y33653D02*
X32880Y32132D01*
X31013Y33653D02*
X31360D01*
X30700Y33966D02*
X31013Y33653D01*
X30700Y33966D02*
Y34560D01*
X33970Y32290D02*
X34504Y31756D01*
X33020Y32290D02*
X33970D01*
X31280Y34030D02*
X33020Y32290D01*
X32657Y43133D02*
X32940Y42850D01*
X32057Y43133D02*
X32657D01*
X31550Y43640D02*
X32057Y43133D01*
X21426Y43640D02*
X31550D01*
X17126Y39340D02*
X21426Y43640D01*
X33180Y48940D02*
X33780D01*
X32544Y49576D02*
X33180Y48940D01*
X32116Y49576D02*
X32544D01*
X31750Y49210D02*
X32116Y49576D01*
X30980Y49210D02*
X31750D01*
X30390Y49800D02*
X30980Y49210D01*
X29920Y49800D02*
X30390D01*
X29080Y50640D02*
X29920Y49800D01*
X26868Y50640D02*
X29080D01*
X26238Y50010D02*
X26868Y50640D01*
X19840Y50010D02*
X26238D01*
X19025Y49195D02*
X19840Y50010D01*
X34241Y52680D02*
X34732Y52189D01*
X26650Y52680D02*
X34241D01*
X16930Y38750D02*
X18280D01*
X15590Y37410D02*
X16930Y38750D01*
X16890Y30669D02*
X17997D01*
X20205Y32877D01*
X20302D01*
X20524Y33098D01*
Y33586D01*
X20960Y34023D01*
Y34260D01*
X20399Y35630D02*
X21790D01*
X20248Y35479D02*
X20399Y35630D01*
X20248Y33312D02*
Y35479D01*
X20089Y33152D02*
X20248Y33312D01*
X19738Y33152D02*
X20089D01*
X19255Y32669D02*
X19738Y33152D01*
X16890Y32669D02*
X19255D01*
X30461Y39461D02*
X42520D01*
X28732Y41189D02*
X30461Y39461D01*
X19238Y33568D02*
X19460Y33790D01*
X18420Y33568D02*
X19238D01*
X18028Y33960D02*
X18420Y33568D01*
X12543Y33960D02*
X18028D01*
X10945Y32362D02*
X12543Y33960D01*
X13143Y34560D02*
X17100D01*
X21695Y36245D02*
X22830Y37380D01*
X10727Y42640D02*
X11228Y43142D01*
X10060Y42640D02*
X10727D01*
X9820Y42400D02*
X10060Y42640D01*
X9820Y32430D02*
Y42400D01*
Y32430D02*
X11040Y31210D01*
X18056D01*
X19860Y33015D01*
X20230D01*
X20386Y33170D01*
Y33790D01*
X20480Y34345D01*
X20800Y34665D01*
X26765D01*
X27190Y34240D01*
Y31840D02*
Y34240D01*
X26960Y31610D02*
X27190Y31840D01*
X24193Y31610D02*
X26960D01*
X23787Y32016D02*
X24193Y31610D01*
X18548Y34252D02*
X18880Y33920D01*
X18548Y34252D02*
Y34997D01*
X17674Y35870D02*
X18548Y34997D01*
X14973Y35870D02*
X17674D01*
X13224Y37620D02*
X14973Y35870D01*
X10730Y37620D02*
X13224D01*
X10640Y41730D02*
X10730Y37620D01*
X10228Y42142D02*
X10640Y41730D01*
X14200Y27540D02*
X14610Y27130D01*
X17600D01*
X18320Y27850D01*
X25622D01*
X28787Y31016D01*
X11720Y35610D02*
X16992D01*
X17880Y34722D01*
X19390Y30610D02*
X19964D01*
X20527Y30046D01*
X25818D01*
X26787Y31016D01*
X13610Y30410D02*
X14820D01*
X15070Y30160D01*
X17780D01*
X19230Y31610D01*
X20960D01*
X21190Y31840D01*
Y32750D01*
X21542Y33102D01*
X26720D01*
X26910Y32912D01*
Y32138D02*
Y32912D01*
X26787Y32016D02*
X26910Y32138D01*
X15910Y50280D02*
X25790D01*
X26290Y50780D01*
X22522Y32750D02*
X26550D01*
X21787Y32016D02*
X22522Y32750D01*
X21172Y30400D02*
X21787Y31016D01*
X20690Y30400D02*
X21172D01*
X9050Y43963D02*
X10228Y45142D01*
X18625Y25075D02*
X18760Y25210D01*
X15795Y25075D02*
X18625D01*
X15170Y25700D02*
X15795Y25075D01*
X15170Y25700D02*
Y25860D01*
X10160Y28480D02*
Y30560D01*
Y28480D02*
X10510Y28130D01*
X19902D01*
X21312Y29540D01*
X10820Y45733D02*
X11228Y46142D01*
X10820Y44950D02*
Y45733D01*
Y44950D02*
X11040Y44730D01*
X15230Y38000D02*
X15720Y38490D01*
X15230Y36690D02*
Y38000D01*
Y36690D02*
X15710Y36210D01*
X18690D01*
X19060Y35840D01*
Y35210D02*
Y35840D01*
Y35210D02*
X19620Y34650D01*
X21010Y32238D02*
Y33550D01*
X20787Y32016D02*
X21010Y32238D01*
X31741Y43189D02*
X32230Y42700D01*
X28732Y43189D02*
X31741D01*
X38290Y45142D02*
X38295D01*
X37295Y46136D02*
X38290Y45142D01*
X37295Y46136D02*
Y46142D01*
X19300Y37120D02*
X19760Y37580D01*
X19300Y35555D02*
Y37120D01*
Y35555D02*
X19972Y34883D01*
Y33590D02*
Y34883D01*
X19812Y33430D02*
X19972Y33590D01*
X17040Y33430D02*
X19812D01*
X16970Y33500D02*
X17040Y33430D01*
X16890Y28669D02*
X17630Y29410D01*
X19030D01*
X10228Y46142D02*
X10640Y45730D01*
Y44160D02*
Y45730D01*
Y44160D02*
X11160Y43640D01*
X11360D01*
X11640Y43360D01*
Y42880D02*
Y43360D01*
X11310Y42550D02*
X11640Y42880D01*
X11040Y42550D02*
X11310D01*
X10820Y42330D02*
X11040Y42550D01*
X10820Y39950D02*
Y42330D01*
Y39950D02*
X11040Y39730D01*
X11550D01*
X15230Y36050D01*
X18560D01*
X18840Y35770D01*
Y34550D02*
Y35770D01*
Y34550D02*
X18900Y34490D01*
X19834Y31016D02*
X20787D01*
X9520Y42433D02*
X10228Y43142D01*
X9520Y28920D02*
Y42433D01*
Y28920D02*
X11050Y27390D01*
X13610D01*
X14200Y26800D01*
X14960D01*
X15550Y26210D01*
X17600D01*
X18480Y27090D01*
X20218Y37210D02*
X21830D01*
X19442Y36435D02*
X20218Y37210D01*
X19442Y35891D02*
Y36435D01*
Y35891D02*
X20110Y35223D01*
Y33450D02*
Y35223D01*
X19950Y33290D02*
X20110Y33450D01*
X18560Y33290D02*
X19950D01*
X18400Y33130D02*
X18560Y33290D01*
X16600Y33130D02*
X18400D01*
X16430Y32960D02*
X16600Y33130D01*
X16430Y32129D02*
Y32960D01*
Y32129D02*
X16890Y31669D01*
X16310Y36570D02*
X17860Y38120D01*
X21430D01*
X25950Y42640D01*
X31583D01*
X31880Y42343D01*
X33292D01*
X33590Y42640D01*
X37650D01*
X37800Y42490D01*
Y41890D02*
Y42490D01*
Y41890D02*
X38080Y41610D01*
X38400D01*
X38730Y41940D01*
Y43470D01*
X38560Y43640D02*
X38730Y43470D01*
X38080Y43640D02*
X38560D01*
X37730Y43990D02*
X38080Y43640D01*
X37730Y43990D02*
Y44570D01*
X37660Y44640D02*
X37730Y44570D01*
X37193Y44640D02*
X37660D01*
X36640Y45193D02*
X37193Y44640D01*
X36640Y45193D02*
Y45604D01*
X36063Y46181D02*
X36640Y45604D01*
X19800Y36190D02*
Y36340D01*
X20057Y36597D01*
X21777D01*
X22300Y37120D01*
Y38410D01*
X25570Y41680D01*
X32780D01*
X11780Y29150D02*
X12520Y28410D01*
X14870D01*
X15590Y29130D01*
X17040D01*
X17819Y29909D01*
X26680D01*
X27787Y31016D01*
X23377Y37200D02*
X29076D01*
X29858Y36417D01*
X21790Y35630D02*
X22940Y36780D01*
X38028Y49409D02*
X38295Y49142D01*
X38028Y49409D02*
Y49660D01*
X37860Y49828D02*
X38028Y49660D01*
X37860Y49828D02*
Y50450D01*
X36670Y51640D02*
X37860Y50450D01*
X35230Y51640D02*
X36670D01*
X35070Y51800D02*
X35230Y51640D01*
X30527Y51800D02*
X35070D01*
X30138Y52189D02*
X30527Y51800D01*
X38295Y50142D02*
Y50480D01*
X38175Y50600D02*
X38295Y50480D01*
X37905Y50600D02*
X38175D01*
X36906Y51600D02*
X37905Y50600D01*
X36906Y51600D02*
Y52255D01*
X36480Y52680D02*
X36906Y52255D01*
X34450Y52680D02*
X36480D01*
X33550Y53580D02*
X34450Y52680D01*
X30529Y53580D02*
X33550D01*
X30138Y53189D02*
X30529Y53580D01*
X34281Y51640D02*
X34732Y51189D01*
X22950Y51640D02*
X34281D01*
X22200Y50890D02*
X22950Y51640D01*
X30138Y51189D02*
X30613Y50714D01*
X37327D01*
X37723Y50319D01*
Y49760D02*
Y50319D01*
Y49760D02*
X37868Y49615D01*
Y48569D02*
Y49615D01*
Y48569D02*
X38295Y48142D01*
X32381Y45189D02*
X33030Y44540D01*
X29738Y45189D02*
X32381D01*
X18780Y44640D02*
X31460D01*
X32232Y43868D01*
X34411D01*
X34732Y44189D01*
X36063Y41181D02*
X38587D01*
X40039Y42634D01*
X25091Y47181D02*
X27323D01*
X25060Y47150D02*
X25091Y47181D01*
X37958Y42479D02*
X38295Y42142D01*
X37958Y42479D02*
Y42540D01*
X37860Y42637D02*
X37958Y42540D01*
X37860Y42637D02*
Y43270D01*
X37440Y43690D02*
X37860Y43270D01*
X31789Y43690D02*
X37440D01*
X31290Y44189D02*
X31789Y43690D01*
X29738Y44189D02*
X31290D01*
X40039Y42634D02*
Y43781D01*
X39180Y44640D02*
X40039Y43781D01*
X38026Y44640D02*
X39180D01*
X37860Y44806D02*
X38026Y44640D01*
X37631Y44806D02*
X37860D01*
X37295Y45142D02*
X37631Y44806D01*
X35398Y44181D02*
X36063D01*
X35390Y44189D02*
X35398Y44181D01*
X34732Y44189D02*
X35390D01*
X32047Y28756D02*
X33504D01*
X29787Y31016D02*
X32047Y28756D01*
X36335Y30587D02*
X39173D01*
X34504Y28756D02*
X36335Y30587D01*
X35398Y52181D02*
X36063D01*
X35390Y52189D02*
X35398Y52181D01*
X34732Y52189D02*
X35390D01*
X35398Y50181D02*
X36063D01*
X35390Y50189D02*
X35398Y50181D01*
X34732Y50189D02*
X35390D01*
X37847Y46590D02*
X38295Y46142D01*
X37847Y46590D02*
Y47360D01*
X37527Y47680D02*
X37847Y47360D01*
X31647Y47680D02*
X37527D01*
X30138Y49189D02*
X31647Y47680D01*
X21787Y55236D02*
X22901Y56350D01*
X31414D01*
X31764Y56000D01*
Y55551D02*
Y56000D01*
X23261Y45930D02*
X23669Y46339D01*
X20480Y45930D02*
X23261D01*
X20170Y46240D02*
X20480Y45930D01*
X20170Y46240D02*
Y46620D01*
X19840Y46950D02*
X20170Y46620D01*
X15647Y46950D02*
X19840D01*
X14961Y46264D02*
X15647Y46950D01*
X35398Y41181D02*
X36063D01*
X35390Y41189D02*
X35398Y41181D01*
X34732Y41189D02*
X35390D01*
X39173Y30587D02*
X40748D01*
X33504Y28756D02*
X34504D01*
X27787Y32016D02*
X28787D01*
X29787D01*
X10228Y37142D02*
X11228D01*
X14471Y29669D02*
X15890D01*
X14290Y29488D02*
X14471Y29669D01*
X12874Y29488D02*
X14290D01*
X28028Y42189D02*
X28732D01*
X28020Y42181D02*
X28028Y42189D01*
X27323Y42181D02*
X28020D01*
X35398D02*
X36063D01*
X35390Y42189D02*
X35398Y42181D01*
X34732Y42189D02*
X35390D01*
X35398Y43181D02*
X36063D01*
X35390Y43189D02*
X35398Y43181D01*
X34732Y43189D02*
X35390D01*
X28028Y45189D02*
X28732D01*
X28020Y45181D02*
X28028Y45189D01*
X27323Y45181D02*
X28020D01*
X28028Y44189D02*
X28732D01*
X28020Y44181D02*
X28028Y44189D01*
X27323Y44181D02*
X28020D01*
X35398Y49181D02*
X36063D01*
X35390Y49189D02*
X35398Y49181D01*
X34732Y49189D02*
X35390D01*
X28028Y53189D02*
X28732D01*
X28020Y53181D02*
X28028Y53189D01*
X27323Y53181D02*
X28020D01*
X28028Y52189D02*
X28732D01*
X28020Y52181D02*
X28028Y52189D01*
X27323Y52181D02*
X28020D01*
X28028Y51189D02*
X28732D01*
X28020Y51181D02*
X28028Y51189D01*
X27323Y51181D02*
X28020D01*
X28028Y50189D02*
X28732D01*
X28020Y50181D02*
X28028Y50189D01*
X27323Y50181D02*
X28020D01*
X35398Y45181D02*
X36063D01*
X35390Y45189D02*
X35398Y45181D01*
X34732Y45189D02*
X35390D01*
X35398Y46181D02*
X36063D01*
X35390Y46189D02*
X35398Y46181D01*
X34732Y46189D02*
X35390D01*
X35398Y47181D02*
X36063D01*
X35390Y47189D02*
X35398Y47181D01*
X34732Y47189D02*
X35390D01*
X35398Y48181D02*
X36063D01*
X35390Y48189D02*
X35398Y48181D01*
X34732Y48189D02*
X35390D01*
X35398Y51181D02*
X36063D01*
X35390Y51189D02*
X35398Y51181D01*
X34732Y51189D02*
X35390D01*
X28028Y47189D02*
X28732D01*
X28020Y47181D02*
X28028Y47189D01*
X27323Y47181D02*
X28020D01*
X28028Y46189D02*
X28732D01*
X28020Y46181D02*
X28028Y46189D01*
X27323Y46181D02*
X28020D01*
X28028Y41189D02*
X28732D01*
X28020Y41181D02*
X28028Y41189D01*
X27323Y41181D02*
X28020D01*
X28028Y43189D02*
X28732D01*
X28020Y43181D02*
X28028Y43189D01*
X27323Y43181D02*
X28020D01*
X35398Y54181D02*
X36063D01*
X35390Y54189D02*
X35398Y54181D01*
X34732Y54189D02*
X35390D01*
X35398Y53181D02*
X36063D01*
X35390Y53189D02*
X35398Y53181D01*
X34732Y53189D02*
X35390D01*
X28028Y54189D02*
X28732D01*
X28020Y54181D02*
X28028Y54189D01*
X27323Y54181D02*
X28020D01*
X28732Y49189D02*
Y49190D01*
X27323Y49181D02*
X27332Y49190D01*
X19669Y45881D02*
Y46339D01*
Y45881D02*
X19840Y45710D01*
X30160D01*
X30530Y46080D01*
Y48480D01*
X30330Y48680D02*
X30530Y48480D01*
X28310Y48680D02*
X30330D01*
X27809Y49181D02*
X28310Y48680D01*
X27323Y49181D02*
X27809D01*
X13350Y43264D02*
X14961D01*
X11228Y41142D02*
X13350Y43264D01*
X16595D02*
X19669Y46339D01*
X14961Y43264D02*
X16595D01*
X20621Y48618D02*
X20669Y48570D01*
Y46339D02*
Y48570D01*
X22512Y48181D02*
X27323D01*
X20669Y46339D02*
X22512Y48181D01*
X28031Y48189D02*
X28732D01*
X28030Y48190D02*
X28031Y48189D01*
X27332Y48190D02*
X28030D01*
X27323Y48181D02*
X27332Y48190D01*
X31840Y31420D02*
X33504Y29756D01*
X26192Y31420D02*
X31840D01*
X25787Y31016D02*
X26192Y31420D01*
X11040Y44730D02*
X15360D01*
X14888Y44142D02*
X14998Y44252D01*
X15079D01*
X16310Y43780D02*
X16457D01*
X15360Y44730D02*
X16310Y43780D01*
X11228Y44142D02*
X14888D01*
X12866Y43780D02*
X14055D01*
X11228Y42142D02*
X12866Y43780D01*
D16*
X21669Y40339D02*
D03*
X20669D02*
D03*
X18669Y46339D02*
D03*
X19669D02*
D03*
X22669Y40339D02*
D03*
X20669Y46339D02*
D03*
X23669D02*
D03*
X22669D02*
D03*
X19669Y40339D02*
D03*
X21669Y46339D02*
D03*
X16669Y40339D02*
D03*
X25669D02*
D03*
X16669Y46339D02*
D03*
X25669D02*
D03*
X21787Y49236D02*
D03*
X20787D02*
D03*
X18787Y55236D02*
D03*
X19787D02*
D03*
X22787Y49236D02*
D03*
X20787Y55236D02*
D03*
X23787D02*
D03*
X22787D02*
D03*
X19787Y49236D02*
D03*
X21787Y55236D02*
D03*
X16787Y49236D02*
D03*
X25787D02*
D03*
X16787Y55236D02*
D03*
X25787D02*
D03*
X13583Y47634D02*
D03*
Y50634D02*
D03*
X11169Y47913D02*
D03*
X40815D02*
D03*
X40039Y42634D02*
D03*
Y45634D02*
D03*
X39173Y41106D02*
D03*
Y38106D02*
D03*
X40787Y41106D02*
D03*
Y38106D02*
D03*
X40748Y33587D02*
D03*
Y30587D02*
D03*
X39173Y33587D02*
D03*
Y30587D02*
D03*
X15039Y51618D02*
D03*
Y48618D02*
D03*
X14961Y46264D02*
D03*
Y43264D02*
D03*
X10228Y46142D02*
D03*
X11228D02*
D03*
X10228Y45142D02*
D03*
X11228D02*
D03*
X10228Y44142D02*
D03*
X11228D02*
D03*
X10228Y43142D02*
D03*
X11228D02*
D03*
X10228Y42142D02*
D03*
X11228D02*
D03*
X10228Y41142D02*
D03*
X11228D02*
D03*
X10228Y40142D02*
D03*
X11228D02*
D03*
X10228Y39142D02*
D03*
X11228D02*
D03*
X10228Y38142D02*
D03*
X11228D02*
D03*
X10228Y37142D02*
D03*
X11228D02*
D03*
X29787Y32016D02*
D03*
Y31016D02*
D03*
X28787Y32016D02*
D03*
Y31016D02*
D03*
X27787Y32016D02*
D03*
Y31016D02*
D03*
X26787Y32016D02*
D03*
Y31016D02*
D03*
X25787Y32016D02*
D03*
Y31016D02*
D03*
X24787Y32016D02*
D03*
Y31016D02*
D03*
X23787Y32016D02*
D03*
Y31016D02*
D03*
X22787Y32016D02*
D03*
Y31016D02*
D03*
X21787Y32016D02*
D03*
Y31016D02*
D03*
X20787Y32016D02*
D03*
Y31016D02*
D03*
X42520Y40461D02*
D03*
X42598Y36642D02*
D03*
D17*
X10169Y47913D02*
D03*
X39815D02*
D03*
D18*
X34504Y28756D02*
D03*
X33504D02*
D03*
X34504Y29756D02*
D03*
X33504D02*
D03*
X34504Y30756D02*
D03*
X33504D02*
D03*
X34504Y31756D02*
D03*
X33504D02*
D03*
X34504Y32756D02*
D03*
X27323Y41181D02*
D03*
Y42181D02*
D03*
Y43181D02*
D03*
Y44181D02*
D03*
Y45181D02*
D03*
Y46181D02*
D03*
Y47181D02*
D03*
Y48181D02*
D03*
Y49181D02*
D03*
Y50181D02*
D03*
Y51181D02*
D03*
Y52181D02*
D03*
Y53181D02*
D03*
Y54181D02*
D03*
X15890Y29669D02*
D03*
X16890D02*
D03*
X15890Y28669D02*
D03*
X16890D02*
D03*
X15890Y27669D02*
D03*
X16890D02*
D03*
X15890Y26669D02*
D03*
X16890D02*
D03*
X15890Y25669D02*
D03*
X36063Y41181D02*
D03*
Y42181D02*
D03*
Y43181D02*
D03*
Y44181D02*
D03*
Y45181D02*
D03*
Y46181D02*
D03*
Y47181D02*
D03*
Y48181D02*
D03*
Y49181D02*
D03*
Y50181D02*
D03*
Y51181D02*
D03*
Y52181D02*
D03*
Y53181D02*
D03*
Y54181D02*
D03*
D19*
X33504Y32756D02*
D03*
X16890Y25669D02*
D03*
D20*
X33504Y27756D02*
D03*
X34504D02*
D03*
X33504Y26756D02*
D03*
X34504D02*
D03*
X33504Y25756D02*
D03*
X34504D02*
D03*
X16890Y30669D02*
D03*
X15890D02*
D03*
X16890Y31669D02*
D03*
X15890D02*
D03*
X16890Y32669D02*
D03*
X15890D02*
D03*
D21*
X33764Y55551D02*
D03*
X32764D02*
D03*
X31764D02*
D03*
X30764D02*
D03*
D22*
X29764D02*
D03*
D23*
X25181Y36417D02*
D03*
X26740D02*
D03*
X28299D02*
D03*
X29858D02*
D03*
D24*
X37795Y51968D02*
D03*
X12598Y26378D02*
D03*
X37795D02*
D03*
X12598Y51968D02*
D03*
D25*
X34732Y41189D02*
D03*
Y42189D02*
D03*
Y43189D02*
D03*
Y44189D02*
D03*
Y45189D02*
D03*
Y46189D02*
D03*
Y47189D02*
D03*
Y48189D02*
D03*
Y49189D02*
D03*
Y50189D02*
D03*
Y51189D02*
D03*
Y52189D02*
D03*
Y53189D02*
D03*
Y54189D02*
D03*
X28732D02*
D03*
Y53189D02*
D03*
Y52189D02*
D03*
Y51189D02*
D03*
Y50189D02*
D03*
Y49189D02*
D03*
Y48189D02*
D03*
Y47189D02*
D03*
Y46189D02*
D03*
Y45189D02*
D03*
Y44189D02*
D03*
Y43189D02*
D03*
Y42189D02*
D03*
Y41189D02*
D03*
X29738Y54189D02*
D03*
X30738D02*
D03*
X31738D02*
D03*
X32738D02*
D03*
X33738D02*
D03*
X30138Y53189D02*
D03*
X32338D02*
D03*
Y52189D02*
D03*
X30138D02*
D03*
Y51189D02*
D03*
X32338D02*
D03*
Y50189D02*
D03*
X30138D02*
D03*
Y49189D02*
D03*
X32338D02*
D03*
Y48189D02*
D03*
X30138D02*
D03*
Y47189D02*
D03*
X32338D02*
D03*
X29738Y46189D02*
D03*
Y45189D02*
D03*
Y44189D02*
D03*
Y42189D02*
D03*
D26*
X37295Y42142D02*
D03*
D27*
X38295D02*
D03*
X37295Y43142D02*
D03*
X38295D02*
D03*
X37295Y44142D02*
D03*
X38295D02*
D03*
X37295Y45142D02*
D03*
X38295D02*
D03*
X37295Y46142D02*
D03*
X38295D02*
D03*
X37295Y47142D02*
D03*
X38295D02*
D03*
X37295Y48142D02*
D03*
X38295D02*
D03*
X37295Y49142D02*
D03*
X38295D02*
D03*
X37295Y50142D02*
D03*
X38295D02*
D03*
D28*
X10906Y29488D02*
D03*
X12874D02*
D03*
X10945Y32362D02*
D03*
X12913D02*
D03*
D29*
X42520Y39461D02*
D03*
X42598Y35642D02*
D03*
D30*
X13819Y46339D02*
D03*
X32870Y46640D02*
D03*
X31200Y49580D02*
D03*
X33620Y49714D02*
D03*
X18440Y49195D02*
D03*
X31633Y32667D02*
D03*
X31950Y34630D02*
D03*
X32420Y33600D02*
D03*
X30060Y35550D02*
D03*
X30700Y34560D02*
D03*
X31280Y34030D02*
D03*
X32940Y42850D02*
D03*
X17126Y39340D02*
D03*
X33780Y48940D02*
D03*
X19025Y49195D02*
D03*
X26650Y52680D02*
D03*
X18280Y38750D02*
D03*
X15590Y37410D02*
D03*
X20960Y34260D02*
D03*
X21790Y35630D02*
D03*
X19460Y33790D02*
D03*
X17100Y34560D02*
D03*
X21695Y36245D02*
D03*
X18880Y33920D02*
D03*
X14200Y27540D02*
D03*
X11720Y35610D02*
D03*
X17880Y34722D02*
D03*
X19390Y30610D02*
D03*
X13610Y30410D02*
D03*
X26290Y50780D02*
D03*
X26550Y32750D02*
D03*
X20690Y30400D02*
D03*
X9050Y43963D02*
D03*
X18760Y25210D02*
D03*
X15170Y25860D02*
D03*
X10160Y30560D02*
D03*
X21312Y29540D02*
D03*
X15720Y38490D02*
D03*
X19620Y34650D02*
D03*
X21010Y33550D02*
D03*
X32230Y42700D02*
D03*
X19760Y37580D02*
D03*
X16970Y33500D02*
D03*
X19030Y29410D02*
D03*
X18900Y34490D02*
D03*
X19834Y31016D02*
D03*
X18480Y27090D02*
D03*
X21830Y37210D02*
D03*
X16310Y36570D02*
D03*
X19800Y36190D02*
D03*
X32780Y41680D02*
D03*
X11780Y29150D02*
D03*
X23377Y37200D02*
D03*
X22940Y36780D02*
D03*
X22200Y50890D02*
D03*
X33030Y44540D02*
D03*
X18780Y44640D02*
D03*
X25060Y47150D02*
D03*
X15079Y44252D02*
D03*
X16457Y43780D02*
D03*
X14055D02*
D03*
M02*
