G04 Layer_Color=15132400*
%FSLAX24Y24*%
%MOIN*%
G70*
G01*
G75*
%ADD14C,0.0100*%
%ADD31C,0.0039*%
%ADD32C,0.0079*%
%ADD33C,0.0080*%
%ADD34C,0.0059*%
%ADD35C,0.0055*%
%ADD36R,0.0400X0.1200*%
G36*
X19140Y25469D02*
X18640Y25669D01*
X19140Y25869D01*
Y25469D01*
D02*
G37*
G36*
X31754Y32756D02*
X31254Y32556D01*
Y32956D01*
X31754Y32756D01*
D02*
G37*
D14*
X11269Y48513D02*
G03*
X11269Y48513I-50J0D01*
G01*
X11095Y48339D02*
G03*
X10244Y48339I-426J-426D01*
G01*
Y47488D02*
G03*
X11095Y47488I426J426D01*
G01*
X40915Y48513D02*
G03*
X40915Y48513I-50J0D01*
G01*
X40741Y48339D02*
G03*
X39889Y48339I-426J-426D01*
G01*
Y47488D02*
G03*
X40741Y47488I426J426D01*
G01*
X41970Y40511D02*
G03*
X41970Y40511I-50J0D01*
G01*
X42094Y40386D02*
G03*
X42094Y39535I426J-426D01*
G01*
X42945D02*
G03*
X42945Y40386I-426J426D01*
G01*
X42048Y36692D02*
G03*
X42048Y36692I-50J0D01*
G01*
X42173Y36567D02*
G03*
X42173Y35716I426J-426D01*
G01*
X43024D02*
G03*
X43024Y36567I-426J426D01*
G01*
X31102Y36181D02*
G03*
X31102Y36181I-157J0D01*
G01*
X14033Y48134D02*
Y50134D01*
X13133Y48134D02*
X14033D01*
X13133Y50134D02*
X14033D01*
X13133Y48134D02*
Y50134D01*
X40489Y43134D02*
Y45134D01*
X39589Y43134D02*
X40489D01*
X39589Y45134D02*
X40489D01*
X39589Y43134D02*
Y45134D01*
X38723Y38606D02*
Y40606D01*
X39623D01*
X38723Y38606D02*
X39623D01*
Y40606D01*
X40337Y38606D02*
Y40606D01*
X41237D01*
X40337Y38606D02*
X41237D01*
Y40606D01*
X32104Y32056D02*
Y34956D01*
Y32056D02*
X32304Y31856D01*
X32104Y23756D02*
Y29606D01*
X32304Y29806D01*
X32104Y23756D02*
X35904D01*
Y34956D01*
X32104D02*
X35904D01*
X32304Y29806D02*
Y31856D01*
X28814Y54951D02*
Y56151D01*
Y54951D02*
X34364D01*
Y56151D01*
X28814D02*
X34364D01*
X27823Y40681D02*
Y54681D01*
X26823Y40681D02*
X27823D01*
X26823Y54681D02*
X27823D01*
X26823Y40681D02*
Y54681D01*
Y41681D02*
X27823D01*
X40298Y31087D02*
Y33087D01*
X41198D01*
X40298Y31087D02*
X41198D01*
Y33087D01*
X38723Y31087D02*
Y33087D01*
X39623D01*
X38723Y31087D02*
X39623D01*
Y33087D01*
X30114Y35630D02*
X30626D01*
X30114Y34961D02*
Y35630D01*
X24917Y34961D02*
X30114D01*
X24917D02*
Y35630D01*
X24406D02*
X24917D01*
X24406D02*
Y38307D01*
X30626D01*
Y35630D02*
Y38307D01*
X14589Y49118D02*
Y51118D01*
X15489D01*
X14589Y49118D02*
X15489D01*
Y51118D01*
X14511Y43764D02*
Y45764D01*
X15411D01*
X14511Y43764D02*
X15411D01*
Y45764D01*
X11678Y36642D02*
X11728Y36692D01*
X9728Y36642D02*
X11678D01*
X9728D02*
Y46642D01*
X11728Y36692D02*
Y46592D01*
X9728Y46642D02*
X11678D01*
X11728Y46592D01*
X13956Y29038D02*
Y29888D01*
X13906Y29938D02*
X13956Y29888D01*
X13406Y30438D02*
X13906Y29938D01*
X10956Y30438D02*
X13406D01*
X13456Y28538D02*
X13956Y29038D01*
X12906Y28538D02*
X13456D01*
X9706Y29488D02*
Y30438D01*
X10956D01*
X9706Y28538D02*
X12906D01*
X9706D02*
Y29438D01*
X10906Y28538D02*
X11056D01*
X9706Y29438D02*
Y29488D01*
X20287Y32466D02*
X20337Y32516D01*
X20287Y30516D02*
Y32466D01*
X20337Y32516D02*
X30237D01*
X20287Y30516D02*
X30287D01*
Y32466D01*
X30237Y32516D02*
X30287Y32466D01*
X18290Y23469D02*
Y26369D01*
X18090Y26569D02*
X18290Y26369D01*
Y28819D02*
Y34669D01*
X18090Y28619D02*
X18290Y28819D01*
X14490Y34669D02*
X18290D01*
X14490Y23469D02*
Y34669D01*
Y23469D02*
X18290D01*
X18090Y26569D02*
Y28619D01*
X13995Y31912D02*
Y32762D01*
X13945Y32812D02*
X13995Y32762D01*
X13445Y33312D02*
X13945Y32812D01*
X10995Y33312D02*
X13445D01*
X13495Y31412D02*
X13995Y31912D01*
X12945Y31412D02*
X13495D01*
X9745Y32362D02*
Y33312D01*
X10995D01*
X9745Y31412D02*
X12945D01*
X9745D02*
Y32312D01*
X10945Y31412D02*
X11095D01*
X9745Y32312D02*
Y32362D01*
X36563Y40681D02*
Y54681D01*
X35563Y40681D02*
X36563D01*
X35563Y54681D02*
X36563D01*
X35563Y40681D02*
Y54681D01*
Y41681D02*
X36563D01*
X12835Y48307D02*
X12235D01*
Y48607D01*
X12335Y48707D01*
X12535D01*
X12635Y48607D01*
Y48307D01*
Y48507D02*
X12835Y48707D01*
Y49307D02*
Y48907D01*
X12435Y49307D01*
X12335D01*
X12235Y49207D01*
Y49007D01*
X12335Y48907D01*
X12835Y49807D02*
X12235D01*
X12535Y49507D01*
Y49907D01*
X39489Y46381D02*
Y46980D01*
X39789D01*
X39889Y46880D01*
Y46681D01*
X39789Y46581D01*
X39489D01*
X39689D02*
X39889Y46381D01*
X40089D02*
X40289D01*
X40189D01*
Y46980D01*
X40089Y46880D01*
X40589Y46980D02*
X40989D01*
Y46880D01*
X40589Y46481D01*
Y46381D01*
X39890Y49590D02*
X39490D01*
Y49290D01*
X39690Y49390D01*
X39790D01*
X39890Y49290D01*
Y49090D01*
X39790Y48990D01*
X39590D01*
X39490Y49090D01*
X40090Y49590D02*
Y49190D01*
X40290Y48990D01*
X40490Y49190D01*
Y49590D01*
X9840Y49490D02*
X9940Y49590D01*
X10140D01*
X10240Y49490D01*
Y49390D01*
X10140Y49290D01*
X10040D01*
X10140D01*
X10240Y49190D01*
Y49090D01*
X10140Y48990D01*
X9940D01*
X9840Y49090D01*
X10440Y48990D02*
Y49090D01*
X10540D01*
Y48990D01*
X10440D01*
X10940Y49490D02*
X11040Y49590D01*
X11240D01*
X11340Y49490D01*
Y49390D01*
X11240Y49290D01*
X11140D01*
X11240D01*
X11340Y49190D01*
Y49090D01*
X11240Y48990D01*
X11040D01*
X10940Y49090D01*
X11539Y49590D02*
Y49190D01*
X11739Y48990D01*
X11939Y49190D01*
Y49590D01*
X36093Y27008D02*
Y27408D01*
Y27208D01*
X36693D01*
Y27908D02*
Y27708D01*
X36593Y27608D01*
X36393D01*
X36293Y27708D01*
Y27908D01*
X36393Y28008D01*
X36493D01*
Y27608D01*
X36693Y28507D02*
Y28307D01*
X36593Y28207D01*
X36393D01*
X36293Y28307D01*
Y28507D01*
X36393Y28607D01*
X36493D01*
Y28207D01*
X36693Y28807D02*
X36293D01*
Y29107D01*
X36393Y29207D01*
X36693D01*
Y29407D02*
Y29707D01*
X36593Y29807D01*
X36493Y29707D01*
Y29507D01*
X36393Y29407D01*
X36293Y29507D01*
Y29807D01*
Y30007D02*
X36593D01*
X36693Y30107D01*
Y30407D01*
X36793D01*
X36893Y30307D01*
Y30207D01*
X36693Y30407D02*
X36293D01*
X36793Y30607D02*
Y31007D01*
X36093Y31506D02*
Y31306D01*
X36193Y31207D01*
X36593D01*
X36693Y31306D01*
Y31506D01*
X36593Y31606D01*
X36193D01*
X36093Y31506D01*
X36293Y31806D02*
X36593D01*
X36693Y31906D01*
Y32206D01*
X36293D01*
X36193Y32506D02*
X36293D01*
Y32406D01*
Y32606D01*
Y32506D01*
X36593D01*
X36693Y32606D01*
X36893Y32906D02*
X36293D01*
Y33206D01*
X36393Y33306D01*
X36593D01*
X36693Y33206D01*
Y32906D01*
X36293Y33506D02*
X36593D01*
X36693Y33606D01*
Y33906D01*
X36293D01*
X36193Y34206D02*
X36293D01*
Y34106D01*
Y34306D01*
Y34206D01*
X36593D01*
X36693Y34306D01*
X26869Y55033D02*
Y55632D01*
X27169D01*
X27269Y55532D01*
Y55332D01*
X27169Y55232D01*
X26869D01*
X27868Y55033D02*
X27469D01*
X27868Y55432D01*
Y55532D01*
X27768Y55632D01*
X27569D01*
X27469Y55532D01*
X36811Y53032D02*
Y53631D01*
X37111D01*
X37211Y53531D01*
Y53331D01*
X37111Y53231D01*
X36811D01*
X37411Y53032D02*
X37611D01*
X37511D01*
Y53631D01*
X37411Y53531D01*
X28865Y57104D02*
Y56504D01*
Y56804D01*
X29265D01*
Y57104D01*
Y56504D01*
X29464Y57104D02*
Y56504D01*
X29764D01*
X29864Y56604D01*
Y57004D01*
X29764Y57104D01*
X29464D01*
X30064Y56504D02*
Y57104D01*
X30364D01*
X30464Y57004D01*
Y56804D01*
X30364Y56704D01*
X30064D01*
X30264D02*
X30464Y56504D01*
X30664D02*
X30864D01*
X30764D01*
Y57104D01*
X30664Y57004D01*
X40193Y34332D02*
Y34931D01*
X40493D01*
X40593Y34831D01*
Y34632D01*
X40493Y34532D01*
X40193D01*
X40393D02*
X40593Y34332D01*
X41193D02*
X40793D01*
X41193Y34731D01*
Y34831D01*
X41093Y34931D01*
X40893D01*
X40793Y34831D01*
X41393D02*
X41493Y34931D01*
X41693D01*
X41793Y34831D01*
Y34731D01*
X41693Y34632D01*
X41593D01*
X41693D01*
X41793Y34532D01*
Y34432D01*
X41693Y34332D01*
X41493D01*
X41393Y34432D01*
X38618Y34332D02*
Y34931D01*
X38918D01*
X39018Y34831D01*
Y34632D01*
X38918Y34532D01*
X38618D01*
X38818D02*
X39018Y34332D01*
X39618D02*
X39218D01*
X39618Y34731D01*
Y34831D01*
X39518Y34931D01*
X39318D01*
X39218Y34831D01*
X40218Y34332D02*
X39818D01*
X40218Y34731D01*
Y34831D01*
X40118Y34931D01*
X39918D01*
X39818Y34831D01*
X41654Y37953D02*
Y38553D01*
X41953D01*
X42053Y38453D01*
Y38253D01*
X41953Y38153D01*
X41654D01*
X41853D02*
X42053Y37953D01*
X42653D02*
X42253D01*
X42653Y38353D01*
Y38453D01*
X42553Y38553D01*
X42353D01*
X42253Y38453D01*
X42853Y37953D02*
X43053D01*
X42953D01*
Y38553D01*
X42853Y38453D01*
X36772Y37835D02*
Y38434D01*
X37072D01*
X37172Y38334D01*
Y38135D01*
X37072Y38035D01*
X36772D01*
X36972D02*
X37172Y37835D01*
X37771D02*
X37371D01*
X37771Y38235D01*
Y38334D01*
X37671Y38434D01*
X37471D01*
X37371Y38334D01*
X37971D02*
X38071Y38434D01*
X38271D01*
X38371Y38334D01*
Y37935D01*
X38271Y37835D01*
X38071D01*
X37971Y37935D01*
Y38334D01*
X14484Y52363D02*
Y52963D01*
X14784D01*
X14884Y52863D01*
Y52663D01*
X14784Y52563D01*
X14484D01*
X14684D02*
X14884Y52363D01*
X15084D02*
X15284D01*
X15184D01*
Y52963D01*
X15084Y52863D01*
X15584Y52463D02*
X15684Y52363D01*
X15884D01*
X15984Y52463D01*
Y52863D01*
X15884Y52963D01*
X15684D01*
X15584Y52863D01*
Y52763D01*
X15684Y52663D01*
X15984D01*
X14406Y47009D02*
Y47609D01*
X14706D01*
X14806Y47509D01*
Y47309D01*
X14706Y47209D01*
X14406D01*
X14606D02*
X14806Y47009D01*
X15005D02*
X15205D01*
X15105D01*
Y47609D01*
X15005Y47509D01*
X15505D02*
X15605Y47609D01*
X15805D01*
X15905Y47509D01*
Y47409D01*
X15805Y47309D01*
X15905Y47209D01*
Y47109D01*
X15805Y47009D01*
X15605D01*
X15505Y47109D01*
Y47209D01*
X15605Y47309D01*
X15505Y47409D01*
Y47509D01*
X15605Y47309D02*
X15805D01*
X40587Y37036D02*
Y37435D01*
X40487Y37535D01*
X40287D01*
X40187Y37435D01*
Y37036D01*
X40287Y36936D01*
X40487D01*
X40387Y37135D02*
X40587Y36936D01*
X40487D02*
X40587Y37036D01*
X40787Y36936D02*
X40986D01*
X40887D01*
Y37535D01*
X40787Y37435D01*
X41286D02*
X41386Y37535D01*
X41586D01*
X41686Y37435D01*
Y37036D01*
X41586Y36936D01*
X41386D01*
X41286Y37036D01*
Y37435D01*
X39012Y36996D02*
Y37396D01*
X38912Y37496D01*
X38712D01*
X38612Y37396D01*
Y36996D01*
X38712Y36896D01*
X38912D01*
X38812Y37096D02*
X39012Y36896D01*
X38912D02*
X39012Y36996D01*
X39212D02*
X39312Y36896D01*
X39512D01*
X39612Y36996D01*
Y37396D01*
X39512Y37496D01*
X39312D01*
X39212Y37396D01*
Y37296D01*
X39312Y37196D01*
X39612D01*
X24453Y38661D02*
Y39261D01*
X24753D01*
X24853Y39161D01*
Y38961D01*
X24753Y38861D01*
X24453D01*
X25053Y39061D02*
Y38661D01*
Y38861D01*
X25153Y38961D01*
X25252Y39061D01*
X25352D01*
X25952Y38661D02*
X25752D01*
X25652Y38761D01*
Y38961D01*
X25752Y39061D01*
X25952D01*
X26052Y38961D01*
Y38861D01*
X25652D01*
X26252Y38661D02*
X26552D01*
X26652Y38761D01*
X26552Y38861D01*
X26352D01*
X26252Y38961D01*
X26352Y39061D01*
X26652D01*
X26852Y38661D02*
X27152D01*
X27252Y38761D01*
X27152Y38861D01*
X26952D01*
X26852Y38961D01*
X26952Y39061D01*
X27252D01*
X27452D02*
Y38761D01*
X27552Y38661D01*
X27852D01*
Y39061D01*
X28052D02*
Y38661D01*
Y38861D01*
X28152Y38961D01*
X28252Y39061D01*
X28351D01*
X28951Y38661D02*
X28751D01*
X28651Y38761D01*
Y38961D01*
X28751Y39061D01*
X28951D01*
X29051Y38961D01*
Y38861D01*
X28651D01*
X30251Y39161D02*
X30151Y39261D01*
X29951D01*
X29851Y39161D01*
Y39061D01*
X29951Y38961D01*
X30151D01*
X30251Y38861D01*
Y38761D01*
X30151Y38661D01*
X29951D01*
X29851Y38761D01*
X30751Y38661D02*
X30551D01*
X30451Y38761D01*
Y38961D01*
X30551Y39061D01*
X30751D01*
X30851Y38961D01*
Y38861D01*
X30451D01*
X31051Y38661D02*
Y39061D01*
X31351D01*
X31450Y38961D01*
Y38661D01*
X31650D02*
X31950D01*
X32050Y38761D01*
X31950Y38861D01*
X31750D01*
X31650Y38961D01*
X31750Y39061D01*
X32050D01*
X32350Y38661D02*
X32550D01*
X32650Y38761D01*
Y38961D01*
X32550Y39061D01*
X32350D01*
X32250Y38961D01*
Y38761D01*
X32350Y38661D01*
X32850Y39061D02*
Y38661D01*
Y38861D01*
X32950Y38961D01*
X33050Y39061D01*
X33150D01*
X6678Y36466D02*
X6478D01*
X6378Y36366D01*
Y35966D01*
X6478Y35866D01*
X6678D01*
X6778Y35966D01*
Y36366D01*
X6678Y36466D01*
X6978Y36266D02*
Y35866D01*
Y36066D01*
X7078Y36166D01*
X7178Y36266D01*
X7278D01*
X7578Y36466D02*
Y35866D01*
X7877D01*
X7977Y35966D01*
Y36066D01*
Y36166D01*
X7877Y36266D01*
X7578D01*
X8177Y35866D02*
X8377D01*
X8277D01*
Y36266D01*
X8177D01*
X8777Y36366D02*
Y36266D01*
X8677D01*
X8877D01*
X8777D01*
Y35966D01*
X8877Y35866D01*
X9277Y36366D02*
Y36266D01*
X9177D01*
X9377D01*
X9277D01*
Y35966D01*
X9377Y35866D01*
X9677Y36266D02*
Y35966D01*
X9777Y35866D01*
X10077D01*
Y35766D01*
X9977Y35666D01*
X9877D01*
X10077Y35866D02*
Y36266D01*
X10876Y36466D02*
Y35866D01*
X11176D01*
X11276Y35966D01*
Y36066D01*
Y36166D01*
X11176Y36266D01*
X10876D01*
X11476D02*
Y35866D01*
Y36066D01*
X11576Y36166D01*
X11676Y36266D01*
X11776D01*
X12376Y35866D02*
X12176D01*
X12076Y35966D01*
Y36166D01*
X12176Y36266D01*
X12376D01*
X12476Y36166D01*
Y36066D01*
X12076D01*
X12776Y36266D02*
X12976D01*
X13076Y36166D01*
Y35866D01*
X12776D01*
X12676Y35966D01*
X12776Y36066D01*
X13076D01*
X13276Y35866D02*
Y36466D01*
Y36066D02*
X13576Y36266D01*
X13276Y36066D02*
X13576Y35866D01*
X13975D02*
X14175D01*
X14275Y35966D01*
Y36166D01*
X14175Y36266D01*
X13975D01*
X13876Y36166D01*
Y35966D01*
X13975Y35866D01*
X14475Y36266D02*
Y35966D01*
X14575Y35866D01*
X14875D01*
Y36266D01*
X15175Y36366D02*
Y36266D01*
X15075D01*
X15275D01*
X15175D01*
Y35966D01*
X15275Y35866D01*
X18495Y27290D02*
Y26890D01*
X19094D01*
Y27290D01*
X18795Y26890D02*
Y27090D01*
X18595Y27889D02*
X18495Y27789D01*
Y27590D01*
X18595Y27490D01*
X18695D01*
X18795Y27590D01*
Y27789D01*
X18895Y27889D01*
X18995D01*
X19094Y27789D01*
Y27590D01*
X18995Y27490D01*
X18595Y28489D02*
X18495Y28389D01*
Y28189D01*
X18595Y28089D01*
X18995D01*
X19094Y28189D01*
Y28389D01*
X18995Y28489D01*
X19094Y29289D02*
X18495D01*
Y29589D01*
X18595Y29689D01*
X18795D01*
X18895Y29589D01*
Y29289D01*
X19094Y29889D02*
X18495D01*
Y30189D01*
X18595Y30289D01*
X18795D01*
X18895Y30189D01*
Y29889D01*
X19094Y30489D02*
X18495D01*
X18695Y30689D01*
X18495Y30888D01*
X19094D01*
X8583Y31209D02*
X8683Y31308D01*
X8883D01*
X8983Y31209D01*
Y31109D01*
X8883Y31009D01*
X8783D01*
X8883D01*
X8983Y30909D01*
Y30809D01*
X8883Y30709D01*
X8683D01*
X8583Y30809D01*
X9782Y31209D02*
X9882Y31308D01*
X10082D01*
X10182Y31209D01*
Y31109D01*
X10082Y31009D01*
X9982D01*
X10082D01*
X10182Y30909D01*
Y30809D01*
X10082Y30709D01*
X9882D01*
X9782Y30809D01*
X10382Y31308D02*
Y30909D01*
X10582Y30709D01*
X10782Y30909D01*
Y31308D01*
X11582Y30709D02*
X11782D01*
X11682D01*
Y31109D01*
X11582D01*
X12082Y30709D02*
Y31109D01*
X12381D01*
X12481Y31009D01*
Y30709D01*
X12681Y30509D02*
Y31109D01*
X12981D01*
X13081Y31009D01*
Y30809D01*
X12981Y30709D01*
X12681D01*
X13281Y31109D02*
Y30809D01*
X13381Y30709D01*
X13681D01*
Y31109D01*
X13981Y31209D02*
Y31109D01*
X13881D01*
X14081D01*
X13981D01*
Y30809D01*
X14081Y30709D01*
X22953Y56557D02*
X23053Y56457D01*
X23253D01*
X23353Y56557D01*
Y56957D01*
X23253Y57056D01*
X23053D01*
X22953Y56957D01*
Y56857D01*
X23053Y56757D01*
X23353D01*
X23553Y57056D02*
Y56457D01*
X23852D01*
X23952Y56557D01*
Y56957D01*
X23852Y57056D01*
X23553D01*
X24452D02*
X24252D01*
X24152Y56957D01*
Y56557D01*
X24252Y56457D01*
X24452D01*
X24552Y56557D01*
Y56957D01*
X24452Y57056D01*
X25152D02*
X24752D01*
Y56757D01*
X24952D01*
X24752D01*
Y56457D01*
X25352Y56357D02*
X25752D01*
X26352Y56457D02*
X25952D01*
X26352Y56857D01*
Y56957D01*
X26252Y57056D01*
X26052D01*
X25952Y56957D01*
X16142Y47541D02*
X16242Y47441D01*
X16442D01*
X16542Y47541D01*
Y47941D01*
X16442Y48041D01*
X16242D01*
X16142Y47941D01*
Y47841D01*
X16242Y47741D01*
X16542D01*
X16742Y48041D02*
Y47441D01*
X17041D01*
X17141Y47541D01*
Y47941D01*
X17041Y48041D01*
X16742D01*
X17641D02*
X17441D01*
X17341Y47941D01*
Y47541D01*
X17441Y47441D01*
X17641D01*
X17741Y47541D01*
Y47941D01*
X17641Y48041D01*
X18341D02*
X17941D01*
Y47741D01*
X18141D01*
X17941D01*
Y47441D01*
X18541Y47341D02*
X18941D01*
X19141Y47441D02*
X19341D01*
X19241D01*
Y48041D01*
X19141Y47941D01*
X10164Y34340D02*
X9764D01*
Y34040D01*
X9964Y34140D01*
X10064D01*
X10164Y34040D01*
Y33840D01*
X10064Y33740D01*
X9864D01*
X9764Y33840D01*
X10364Y34340D02*
Y33940D01*
X10564Y33740D01*
X10763Y33940D01*
Y34340D01*
X11563Y33740D02*
X11763D01*
X11663D01*
Y34140D01*
X11563D01*
X12063Y33740D02*
Y34140D01*
X12363D01*
X12463Y34040D01*
Y33740D01*
X12663Y33540D02*
Y34140D01*
X12963D01*
X13063Y34040D01*
Y33840D01*
X12963Y33740D01*
X12663D01*
X13263Y34140D02*
Y33840D01*
X13363Y33740D01*
X13663D01*
Y34140D01*
X13962Y34240D02*
Y34140D01*
X13862D01*
X14062D01*
X13962D01*
Y33840D01*
X14062Y33740D01*
X39416Y50560D02*
X39216D01*
X39316D01*
Y50061D01*
X39216Y49961D01*
X39116D01*
X39016Y50061D01*
X40015Y49961D02*
X39616D01*
X40015Y50360D01*
Y50460D01*
X39915Y50560D01*
X39716D01*
X39616Y50460D01*
X19709Y28159D02*
X19509D01*
X19409Y28059D01*
Y27659D01*
X19509Y27559D01*
X19709D01*
X19809Y27659D01*
Y28059D01*
X19709Y28159D01*
X20009Y27959D02*
Y27559D01*
Y27759D01*
X20109Y27859D01*
X20209Y27959D01*
X20309D01*
X20609Y28159D02*
Y27559D01*
X20909D01*
X21009Y27659D01*
Y27759D01*
Y27859D01*
X20909Y27959D01*
X20609D01*
X21209Y27559D02*
X21409D01*
X21309D01*
Y27959D01*
X21209D01*
X21809Y28059D02*
Y27959D01*
X21709D01*
X21909D01*
X21809D01*
Y27659D01*
X21909Y27559D01*
X22309Y28059D02*
Y27959D01*
X22209D01*
X22408D01*
X22309D01*
Y27659D01*
X22408Y27559D01*
X22708Y27959D02*
Y27659D01*
X22808Y27559D01*
X23108D01*
Y27459D01*
X23008Y27359D01*
X22908D01*
X23108Y27559D02*
Y27959D01*
X23908Y27559D02*
X24108D01*
X24008D01*
Y27959D01*
X23908D01*
X24408Y27559D02*
Y27959D01*
X24708D01*
X24808Y27859D01*
Y27559D01*
X25008Y27359D02*
Y27959D01*
X25308D01*
X25408Y27859D01*
Y27659D01*
X25308Y27559D01*
X25008D01*
X25607Y27959D02*
Y27659D01*
X25707Y27559D01*
X26007D01*
Y27959D01*
X26307Y28059D02*
Y27959D01*
X26207D01*
X26407D01*
X26307D01*
Y27659D01*
X26407Y27559D01*
D31*
X33532Y37186D02*
G03*
X33532Y37186I-20J0D01*
G01*
X22717Y34921D02*
Y35197D01*
X22854D01*
X22900Y35151D01*
Y35059D01*
X22854Y35013D01*
X22717D01*
X22808D02*
X22900Y34921D01*
X22992D02*
X23084D01*
X23038D01*
Y35197D01*
X22992Y35151D01*
X23405Y35197D02*
X23313Y35151D01*
X23222Y35059D01*
Y34967D01*
X23268Y34921D01*
X23359D01*
X23405Y34967D01*
Y35013D01*
X23359Y35059D01*
X23222D01*
X22756Y37165D02*
Y37441D01*
X22894D01*
X22940Y37395D01*
Y37303D01*
X22894Y37257D01*
X22756D01*
X22848D02*
X22940Y37165D01*
X23031D02*
X23123D01*
X23077D01*
Y37441D01*
X23031Y37395D01*
X23445Y37441D02*
X23261D01*
Y37303D01*
X23353Y37349D01*
X23399D01*
X23445Y37303D01*
Y37211D01*
X23399Y37165D01*
X23307D01*
X23261Y37211D01*
X20748Y34921D02*
Y35197D01*
X20886D01*
X20932Y35151D01*
Y35059D01*
X20886Y35013D01*
X20748D01*
X20840D02*
X20932Y34921D01*
X21024D02*
X21115D01*
X21069D01*
Y35197D01*
X21024Y35151D01*
X21391Y34921D02*
Y35197D01*
X21253Y35059D01*
X21437D01*
X20827Y37126D02*
Y37401D01*
X20965D01*
X21010Y37356D01*
Y37264D01*
X20965Y37218D01*
X20827D01*
X20919D02*
X21010Y37126D01*
X21102D02*
X21194D01*
X21148D01*
Y37401D01*
X21102Y37356D01*
X21332D02*
X21378Y37401D01*
X21470D01*
X21516Y37356D01*
Y37310D01*
X21470Y37264D01*
X21424D01*
X21470D01*
X21516Y37218D01*
Y37172D01*
X21470Y37126D01*
X21378D01*
X21332Y37172D01*
X18780Y34882D02*
Y35157D01*
X18917D01*
X18963Y35111D01*
Y35020D01*
X18917Y34974D01*
X18780D01*
X18871D02*
X18963Y34882D01*
X19055D02*
X19147D01*
X19101D01*
Y35157D01*
X19055Y35111D01*
X19468Y34882D02*
X19285D01*
X19468Y35066D01*
Y35111D01*
X19422Y35157D01*
X19331D01*
X19285Y35111D01*
X18819Y37126D02*
Y37401D01*
X18957D01*
X19003Y37356D01*
Y37264D01*
X18957Y37218D01*
X18819D01*
X18911D02*
X19003Y37126D01*
X19094D02*
X19186D01*
X19140D01*
Y37401D01*
X19094Y37356D01*
X19324Y37126D02*
X19416D01*
X19370D01*
Y37401D01*
X19324Y37356D01*
X16890Y34921D02*
Y35197D01*
X17028D01*
X17073Y35151D01*
Y35059D01*
X17028Y35013D01*
X16890D01*
X16982D02*
X17073Y34921D01*
X17165D02*
X17257D01*
X17211D01*
Y35197D01*
X17165Y35151D01*
X17395D02*
X17441Y35197D01*
X17533D01*
X17579Y35151D01*
Y34967D01*
X17533Y34921D01*
X17441D01*
X17395Y34967D01*
Y35151D01*
X16968Y37126D02*
Y37401D01*
X17106D01*
X17152Y37356D01*
Y37264D01*
X17106Y37218D01*
X16968D01*
X17060D02*
X17152Y37126D01*
X17244Y37172D02*
X17290Y37126D01*
X17382D01*
X17428Y37172D01*
Y37356D01*
X17382Y37401D01*
X17290D01*
X17244Y37356D01*
Y37310D01*
X17290Y37264D01*
X17428D01*
X22047Y37165D02*
Y37441D01*
X22185D01*
X22231Y37395D01*
Y37303D01*
X22185Y37257D01*
X22047D01*
X22139D02*
X22231Y37165D01*
X22323Y37395D02*
X22369Y37441D01*
X22460D01*
X22506Y37395D01*
Y37349D01*
X22460Y37303D01*
X22506Y37257D01*
Y37211D01*
X22460Y37165D01*
X22369D01*
X22323Y37211D01*
Y37257D01*
X22369Y37303D01*
X22323Y37349D01*
Y37395D01*
X22369Y37303D02*
X22460D01*
X20039Y34921D02*
Y35197D01*
X20177D01*
X20223Y35151D01*
Y35059D01*
X20177Y35013D01*
X20039D01*
X20131D02*
X20223Y34921D01*
X20315Y35197D02*
X20499D01*
Y35151D01*
X20315Y34967D01*
Y34921D01*
X20000Y37126D02*
Y37401D01*
X20138D01*
X20184Y37356D01*
Y37264D01*
X20138Y37218D01*
X20000D01*
X20092D02*
X20184Y37126D01*
X20459Y37401D02*
X20367Y37356D01*
X20275Y37264D01*
Y37172D01*
X20321Y37126D01*
X20413D01*
X20459Y37172D01*
Y37218D01*
X20413Y37264D01*
X20275D01*
X18110Y34882D02*
Y35157D01*
X18248D01*
X18294Y35111D01*
Y35020D01*
X18248Y34974D01*
X18110D01*
X18202D02*
X18294Y34882D01*
X18569Y35157D02*
X18386D01*
Y35020D01*
X18478Y35066D01*
X18523D01*
X18569Y35020D01*
Y34928D01*
X18523Y34882D01*
X18432D01*
X18386Y34928D01*
X18071Y37126D02*
Y37401D01*
X18209D01*
X18255Y37356D01*
Y37264D01*
X18209Y37218D01*
X18071D01*
X18163D02*
X18255Y37126D01*
X18484D02*
Y37401D01*
X18346Y37264D01*
X18530D01*
X16142Y34921D02*
Y35197D01*
X16279D01*
X16325Y35151D01*
Y35059D01*
X16279Y35013D01*
X16142D01*
X16234D02*
X16325Y34921D01*
X16417Y35151D02*
X16463Y35197D01*
X16555D01*
X16601Y35151D01*
Y35105D01*
X16555Y35059D01*
X16509D01*
X16555D01*
X16601Y35013D01*
Y34967D01*
X16555Y34921D01*
X16463D01*
X16417Y34967D01*
X16063Y37126D02*
Y37401D01*
X16201D01*
X16247Y37356D01*
Y37264D01*
X16201Y37218D01*
X16063D01*
X16155D02*
X16247Y37126D01*
X16522D02*
X16338D01*
X16522Y37310D01*
Y37356D01*
X16476Y37401D01*
X16384D01*
X16338Y37356D01*
X22008Y34921D02*
Y35197D01*
X22146D01*
X22192Y35151D01*
Y35059D01*
X22146Y35013D01*
X22008D01*
X22100D02*
X22192Y34921D01*
X22283D02*
X22375D01*
X22329D01*
Y35197D01*
X22283Y35151D01*
X21562Y36345D02*
Y36529D01*
X21516Y36575D01*
X21424D01*
X21378Y36529D01*
Y36345D01*
X21424Y36299D01*
X21516D01*
X21470Y36391D02*
X21562Y36299D01*
X21516D02*
X21562Y36345D01*
X21653Y36529D02*
X21699Y36575D01*
X21791D01*
X21837Y36529D01*
Y36483D01*
X21791Y36437D01*
X21837Y36391D01*
Y36345D01*
X21791Y36299D01*
X21699D01*
X21653Y36345D01*
Y36391D01*
X21699Y36437D01*
X21653Y36483D01*
Y36529D01*
X21699Y36437D02*
X21791D01*
X21601Y38589D02*
Y38773D01*
X21555Y38819D01*
X21463D01*
X21417Y38773D01*
Y38589D01*
X21463Y38543D01*
X21555D01*
X21509Y38635D02*
X21601Y38543D01*
X21555D02*
X21601Y38589D01*
X21693Y38819D02*
X21876D01*
Y38773D01*
X21693Y38589D01*
Y38543D01*
X19632Y36306D02*
Y36489D01*
X19587Y36535D01*
X19495D01*
X19449Y36489D01*
Y36306D01*
X19495Y36260D01*
X19587D01*
X19541Y36352D02*
X19632Y36260D01*
X19587D02*
X19632Y36306D01*
X19908Y36535D02*
X19816Y36489D01*
X19724Y36398D01*
Y36306D01*
X19770Y36260D01*
X19862D01*
X19908Y36306D01*
Y36352D01*
X19862Y36398D01*
X19724D01*
X19632Y38550D02*
Y38734D01*
X19587Y38779D01*
X19495D01*
X19449Y38734D01*
Y38550D01*
X19495Y38504D01*
X19587D01*
X19541Y38596D02*
X19632Y38504D01*
X19587D02*
X19632Y38550D01*
X19908Y38779D02*
X19724D01*
Y38642D01*
X19816Y38688D01*
X19862D01*
X19908Y38642D01*
Y38550D01*
X19862Y38504D01*
X19770D01*
X19724Y38550D01*
X17703Y36266D02*
Y36450D01*
X17657Y36496D01*
X17566D01*
X17520Y36450D01*
Y36266D01*
X17566Y36220D01*
X17657D01*
X17612Y36312D02*
X17703Y36220D01*
X17657D02*
X17703Y36266D01*
X17933Y36220D02*
Y36496D01*
X17795Y36358D01*
X17979D01*
X17703Y38550D02*
Y38734D01*
X17657Y38779D01*
X17566D01*
X17520Y38734D01*
Y38550D01*
X17566Y38504D01*
X17657D01*
X17612Y38596D02*
X17703Y38504D01*
X17657D02*
X17703Y38550D01*
X17795Y38734D02*
X17841Y38779D01*
X17933D01*
X17979Y38734D01*
Y38688D01*
X17933Y38642D01*
X17887D01*
X17933D01*
X17979Y38596D01*
Y38550D01*
X17933Y38504D01*
X17841D01*
X17795Y38550D01*
X15774Y36266D02*
Y36450D01*
X15728Y36496D01*
X15636D01*
X15591Y36450D01*
Y36266D01*
X15636Y36220D01*
X15728D01*
X15682Y36312D02*
X15774Y36220D01*
X15728D02*
X15774Y36266D01*
X16050Y36220D02*
X15866D01*
X16050Y36404D01*
Y36450D01*
X16004Y36496D01*
X15912D01*
X15866Y36450D01*
X15892Y38510D02*
Y38694D01*
X15846Y38740D01*
X15755D01*
X15709Y38694D01*
Y38510D01*
X15755Y38465D01*
X15846D01*
X15800Y38556D02*
X15892Y38465D01*
X15846D02*
X15892Y38510D01*
X15984Y38465D02*
X16076D01*
X16030D01*
Y38740D01*
X15984Y38694D01*
X41863Y37624D02*
Y37349D01*
X42001D01*
X42047Y37395D01*
Y37578D01*
X42001Y37624D01*
X41863D01*
X42139Y37303D02*
X42322D01*
X42598Y37578D02*
X42552Y37624D01*
X42460D01*
X42414Y37578D01*
Y37532D01*
X42460Y37486D01*
X42552D01*
X42598Y37440D01*
Y37395D01*
X42552Y37349D01*
X42460D01*
X42414Y37395D01*
X42690Y37624D02*
Y37349D01*
X42828D01*
X42873Y37395D01*
Y37578D01*
X42828Y37624D01*
X42690D01*
X42965Y37349D02*
Y37532D01*
X43057Y37624D01*
X43149Y37532D01*
Y37349D01*
Y37486D01*
X42965D01*
X41788Y41443D02*
Y41168D01*
X41926D01*
X41972Y41213D01*
Y41397D01*
X41926Y41443D01*
X41788D01*
X42064Y41122D02*
X42248D01*
X42523Y41397D02*
X42477Y41443D01*
X42385D01*
X42339Y41397D01*
Y41351D01*
X42385Y41305D01*
X42477D01*
X42523Y41259D01*
Y41213D01*
X42477Y41168D01*
X42385D01*
X42339Y41213D01*
X42799Y41397D02*
X42753Y41443D01*
X42661D01*
X42615Y41397D01*
Y41213D01*
X42661Y41168D01*
X42753D01*
X42799Y41213D01*
X42890Y41443D02*
Y41168D01*
X43074D01*
D32*
X34165Y37598D02*
X34252D01*
X33622D02*
X33709D01*
X34252Y37436D02*
Y37598D01*
X33622Y37436D02*
Y37598D01*
X33622Y39685D02*
X33884D01*
X33753D01*
Y39291D01*
X34212D02*
X34081D01*
X34016Y39357D01*
Y39488D01*
X34081Y39554D01*
X34212D01*
X34278Y39488D01*
Y39423D01*
X34016D01*
X34606Y39291D02*
X34475D01*
X34409Y39357D01*
Y39488D01*
X34475Y39554D01*
X34606D01*
X34672Y39488D01*
Y39423D01*
X34409D01*
X34803Y39291D02*
Y39554D01*
X35000D01*
X35065Y39488D01*
Y39291D01*
X35196D02*
X35393D01*
X35459Y39357D01*
X35393Y39423D01*
X35262D01*
X35196Y39488D01*
X35262Y39554D01*
X35459D01*
X35590D02*
Y39357D01*
X35656Y39291D01*
X35852D01*
Y39226D01*
X35787Y39160D01*
X35721D01*
X35852Y39291D02*
Y39554D01*
X36377Y39619D02*
X36443Y39685D01*
X36574D01*
X36639Y39619D01*
Y39554D01*
X36574Y39488D01*
X36508D01*
X36574D01*
X36639Y39423D01*
Y39357D01*
X36574Y39291D01*
X36443D01*
X36377Y39357D01*
X36771Y39291D02*
Y39357D01*
X36836D01*
Y39291D01*
X36771D01*
X37361D02*
X37099D01*
X37361Y39554D01*
Y39619D01*
X37295Y39685D01*
X37164D01*
X37099Y39619D01*
X31457Y36850D02*
X31588D01*
X31522D01*
Y36457D01*
X31457D01*
X31588D01*
X32047D02*
X31785D01*
X32047Y36719D01*
Y36785D01*
X31981Y36850D01*
X31850D01*
X31785Y36785D01*
X32441D02*
X32375Y36850D01*
X32244D01*
X32178Y36785D01*
Y36522D01*
X32244Y36457D01*
X32375D01*
X32441Y36522D01*
X32572Y36391D02*
X32834D01*
X32965Y36457D02*
Y36850D01*
X33162D01*
X33228Y36785D01*
Y36653D01*
X33162Y36588D01*
X32965D01*
X33359Y36719D02*
Y36457D01*
Y36588D01*
X33425Y36653D01*
X33490Y36719D01*
X33556D01*
X33818Y36457D02*
X33949D01*
X34015Y36522D01*
Y36653D01*
X33949Y36719D01*
X33818D01*
X33753Y36653D01*
Y36522D01*
X33818Y36457D01*
X34212Y36785D02*
Y36719D01*
X34146D01*
X34277D01*
X34212D01*
Y36522D01*
X34277Y36457D01*
X34671D02*
X34540D01*
X34474Y36522D01*
Y36653D01*
X34540Y36719D01*
X34671D01*
X34736Y36653D01*
Y36588D01*
X34474D01*
X35130Y36719D02*
X34933D01*
X34868Y36653D01*
Y36522D01*
X34933Y36457D01*
X35130D01*
X35327Y36785D02*
Y36719D01*
X35261D01*
X35392D01*
X35327D01*
Y36522D01*
X35392Y36457D01*
X35589D02*
X35720D01*
X35655D01*
Y36719D01*
X35589D01*
X35983Y36457D02*
X36114D01*
X36180Y36522D01*
Y36653D01*
X36114Y36719D01*
X35983D01*
X35917Y36653D01*
Y36522D01*
X35983Y36457D01*
X36311D02*
Y36719D01*
X36508D01*
X36573Y36653D01*
Y36457D01*
D33*
X30182Y39789D02*
X33482D01*
X30182D02*
Y40139D01*
X28232D02*
X30182D01*
X28232D02*
Y54689D01*
X35232D01*
Y40139D02*
Y54689D01*
X33482Y40139D02*
X35232D01*
X33482Y39789D02*
Y40139D01*
X36795Y41642D02*
Y50642D01*
X38795D01*
Y41642D02*
Y50642D01*
X36795Y41642D02*
X38795D01*
D34*
X19764Y39685D02*
X19803Y39646D01*
X19882D01*
X19921Y39685D01*
Y39843D01*
X19882Y39882D01*
X19803D01*
X19764Y39843D01*
Y39764D01*
X19843D01*
X19685Y39646D02*
X19606D01*
X19646D01*
Y39882D01*
X19685D01*
X19606D01*
X19488D02*
X19410D01*
X19449D01*
Y39646D01*
X19488Y39685D01*
X20787D02*
X20827Y39646D01*
X20906D01*
X20945Y39685D01*
Y39843D01*
X20906Y39882D01*
X20827D01*
X20787Y39843D01*
Y39764D01*
X20866D01*
X20709Y39646D02*
X20630D01*
X20669D01*
Y39882D01*
X20709D01*
X20630D01*
X20355D02*
X20512D01*
X20355Y39724D01*
Y39685D01*
X20394Y39646D01*
X20473D01*
X20512Y39685D01*
X21929Y39882D02*
Y39724D01*
X21850Y39646D01*
X21772Y39724D01*
Y39882D01*
Y39764D01*
X21929D01*
X21693Y39646D02*
X21614D01*
X21654D01*
Y39882D01*
X21693D01*
X21614D01*
X21496D02*
X21417D01*
X21457D01*
Y39646D01*
X21496Y39685D01*
X22953Y39882D02*
Y39724D01*
X22874Y39646D01*
X22795Y39724D01*
Y39882D01*
Y39764D01*
X22953D01*
X22717Y39646D02*
X22638D01*
X22677D01*
Y39882D01*
X22717D01*
X22638D01*
X22362D02*
X22520D01*
X22362Y39724D01*
Y39685D01*
X22402Y39646D01*
X22480D01*
X22520Y39685D01*
X18976Y45866D02*
Y45630D01*
X18858D01*
X18819Y45669D01*
Y45748D01*
X18858Y45787D01*
X18976D01*
X18898D02*
X18819Y45866D01*
X18583Y45669D02*
X18622Y45630D01*
X18701D01*
X18740Y45669D01*
Y45709D01*
X18701Y45748D01*
X18622D01*
X18583Y45787D01*
Y45827D01*
X18622Y45866D01*
X18701D01*
X18740Y45827D01*
X18504Y45630D02*
X18347D01*
X18425D01*
Y45866D01*
X19803Y46850D02*
X19843Y46811D01*
X19921D01*
X19961Y46850D01*
Y46890D01*
X19921Y46929D01*
X19843D01*
X19803Y46969D01*
Y47008D01*
X19843Y47047D01*
X19921D01*
X19961Y47008D01*
X19724Y46811D02*
Y47047D01*
X19606D01*
X19567Y47008D01*
Y46850D01*
X19606Y46811D01*
X19724D01*
X19488Y47047D02*
Y46890D01*
X19410Y46811D01*
X19331Y46890D01*
Y47047D01*
Y46929D01*
X19488D01*
X20787Y45669D02*
X20827Y45630D01*
X20906D01*
X20945Y45669D01*
Y45709D01*
X20906Y45748D01*
X20827D01*
X20787Y45787D01*
Y45827D01*
X20827Y45866D01*
X20906D01*
X20945Y45827D01*
X20551Y45669D02*
X20591Y45630D01*
X20669D01*
X20709Y45669D01*
Y45827D01*
X20669Y45866D01*
X20591D01*
X20551Y45827D01*
X20473Y45630D02*
Y45866D01*
X20315D01*
X21772Y46850D02*
X21811Y46811D01*
X21890D01*
X21929Y46850D01*
Y47008D01*
X21890Y47047D01*
X21811D01*
X21772Y47008D01*
Y46929D01*
X21850D01*
X21693Y47047D02*
Y46811D01*
X21536Y47047D01*
Y46811D01*
X21457D02*
Y47047D01*
X21339D01*
X21299Y47008D01*
Y46850D01*
X21339Y46811D01*
X21457D01*
X22992Y45669D02*
X22953Y45630D01*
X22874D01*
X22835Y45669D01*
Y45709D01*
X22874Y45748D01*
X22913D01*
X22874D01*
X22835Y45787D01*
Y45827D01*
X22874Y45866D01*
X22953D01*
X22992Y45827D01*
X22756Y45630D02*
Y45787D01*
X22677Y45866D01*
X22599Y45787D01*
Y45630D01*
X22480Y45866D02*
X22402D01*
X22362Y45827D01*
Y45748D01*
X22402Y45709D01*
X22480D01*
X22520Y45748D01*
Y45827D01*
X22480Y45866D01*
X23937Y46772D02*
Y46929D01*
X23858Y47008D01*
X23780Y46929D01*
Y46772D01*
X23701D02*
X23622D01*
X23662D01*
Y47008D01*
X23701D01*
X23622D01*
X23504D02*
Y46772D01*
X23347Y47008D01*
Y46772D01*
X19882Y48583D02*
X19921Y48543D01*
X20000D01*
X20039Y48583D01*
Y48740D01*
X20000Y48780D01*
X19921D01*
X19882Y48740D01*
Y48661D01*
X19961D01*
X19803Y48543D02*
X19725D01*
X19764D01*
Y48780D01*
X19803D01*
X19725D01*
X19606D02*
X19528D01*
X19567D01*
Y48543D01*
X19606Y48583D01*
X20906D02*
X20945Y48543D01*
X21024D01*
X21063Y48583D01*
Y48740D01*
X21024Y48780D01*
X20945D01*
X20906Y48740D01*
Y48661D01*
X20984D01*
X20827Y48543D02*
X20748D01*
X20787D01*
Y48780D01*
X20827D01*
X20748D01*
X20473D02*
X20630D01*
X20473Y48622D01*
Y48583D01*
X20512Y48543D01*
X20591D01*
X20630Y48583D01*
X22047Y48780D02*
Y48622D01*
X21969Y48543D01*
X21890Y48622D01*
Y48780D01*
Y48661D01*
X22047D01*
X21811Y48543D02*
X21732D01*
X21772D01*
Y48780D01*
X21811D01*
X21732D01*
X21614D02*
X21536D01*
X21575D01*
Y48543D01*
X21614Y48583D01*
X23071Y48780D02*
Y48622D01*
X22992Y48543D01*
X22913Y48622D01*
Y48780D01*
Y48661D01*
X23071D01*
X22835Y48543D02*
X22756D01*
X22795D01*
Y48780D01*
X22835D01*
X22756D01*
X22481D02*
X22638D01*
X22481Y48622D01*
Y48583D01*
X22520Y48543D01*
X22599D01*
X22638Y48583D01*
X19094Y54764D02*
Y54528D01*
X18976D01*
X18937Y54567D01*
Y54646D01*
X18976Y54685D01*
X19094D01*
X19016D02*
X18937Y54764D01*
X18701Y54567D02*
X18740Y54528D01*
X18819D01*
X18858Y54567D01*
Y54606D01*
X18819Y54646D01*
X18740D01*
X18701Y54685D01*
Y54724D01*
X18740Y54764D01*
X18819D01*
X18858Y54724D01*
X18622Y54528D02*
X18465D01*
X18543D01*
Y54764D01*
X19921Y55748D02*
X19961Y55709D01*
X20039D01*
X20079Y55748D01*
Y55787D01*
X20039Y55827D01*
X19961D01*
X19921Y55866D01*
Y55906D01*
X19961Y55945D01*
X20039D01*
X20079Y55906D01*
X19843Y55709D02*
Y55945D01*
X19725D01*
X19685Y55906D01*
Y55748D01*
X19725Y55709D01*
X19843D01*
X19606Y55945D02*
Y55787D01*
X19528Y55709D01*
X19449Y55787D01*
Y55945D01*
Y55827D01*
X19606D01*
X20906Y54567D02*
X20945Y54528D01*
X21024D01*
X21063Y54567D01*
Y54606D01*
X21024Y54646D01*
X20945D01*
X20906Y54685D01*
Y54724D01*
X20945Y54764D01*
X21024D01*
X21063Y54724D01*
X20669Y54567D02*
X20709Y54528D01*
X20787D01*
X20827Y54567D01*
Y54724D01*
X20787Y54764D01*
X20709D01*
X20669Y54724D01*
X20591Y54528D02*
Y54764D01*
X20433D01*
X21890Y55748D02*
X21929Y55709D01*
X22008D01*
X22047Y55748D01*
Y55906D01*
X22008Y55945D01*
X21929D01*
X21890Y55906D01*
Y55827D01*
X21969D01*
X21811Y55945D02*
Y55709D01*
X21654Y55945D01*
Y55709D01*
X21575D02*
Y55945D01*
X21457D01*
X21418Y55906D01*
Y55748D01*
X21457Y55709D01*
X21575D01*
X23110Y54567D02*
X23071Y54528D01*
X22992D01*
X22953Y54567D01*
Y54606D01*
X22992Y54646D01*
X23032D01*
X22992D01*
X22953Y54685D01*
Y54724D01*
X22992Y54764D01*
X23071D01*
X23110Y54724D01*
X22874Y54528D02*
Y54685D01*
X22795Y54764D01*
X22717Y54685D01*
Y54528D01*
X22599Y54764D02*
X22520D01*
X22481Y54724D01*
Y54646D01*
X22520Y54606D01*
X22599D01*
X22638Y54646D01*
Y54724D01*
X22599Y54764D01*
X24055Y55669D02*
Y55827D01*
X23976Y55906D01*
X23898Y55827D01*
Y55669D01*
X23819D02*
X23740D01*
X23780D01*
Y55906D01*
X23819D01*
X23740D01*
X23622D02*
Y55669D01*
X23465Y55906D01*
Y55669D01*
D35*
X12080Y46299D02*
X11870D01*
Y46142D01*
X11975Y46194D01*
X12028D01*
X12080Y46142D01*
Y46037D01*
X12028Y45984D01*
X11923D01*
X11870Y46037D01*
X12185Y46299D02*
Y46089D01*
X12290Y45984D01*
X12395Y46089D01*
Y46299D01*
X12815D02*
Y46089D01*
X12920Y45984D01*
X13025Y46089D01*
Y46299D01*
X13287D02*
X13182D01*
X13130Y46247D01*
Y46037D01*
X13182Y45984D01*
X13287D01*
X13339Y46037D01*
Y46247D01*
X13287Y46299D01*
X11870Y45315D02*
Y45052D01*
X11923Y45000D01*
X12028D01*
X12080Y45052D01*
Y45315D01*
X12185Y44948D02*
X12395D01*
X12500Y45262D02*
X12552Y45315D01*
X12657D01*
X12710Y45262D01*
Y45052D01*
X12657Y45000D01*
X12552D01*
X12500Y45052D01*
Y45262D01*
X13130Y45000D02*
Y45315D01*
X13287D01*
X13339Y45262D01*
Y45157D01*
X13287Y45105D01*
X13130D01*
X13234D02*
X13339Y45000D01*
X13444Y45315D02*
X13654Y45000D01*
Y45315D02*
X13444Y45000D01*
X11870Y44232D02*
Y43970D01*
X11923Y43917D01*
X12028D01*
X12080Y43970D01*
Y44232D01*
X12185Y43865D02*
X12395D01*
X12500Y43917D02*
X12605D01*
X12552D01*
Y44232D01*
X12500Y44180D01*
X13077Y43917D02*
Y44232D01*
X13234D01*
X13287Y44180D01*
Y44075D01*
X13234Y44022D01*
X13077D01*
X13182D02*
X13287Y43917D01*
X13392Y44232D02*
X13602Y43917D01*
Y44232D02*
X13392Y43917D01*
X12060Y43247D02*
X12008Y43299D01*
X11903D01*
X11850Y43247D01*
Y43037D01*
X11903Y42984D01*
X12008D01*
X12060Y43037D01*
Y43142D01*
X11955D01*
X12165Y42984D02*
Y43299D01*
X12323D01*
X12375Y43247D01*
Y43142D01*
X12323Y43089D01*
X12165D01*
X12480Y43299D02*
X12585D01*
X12533D01*
Y42984D01*
X12480D01*
X12585D01*
X12900Y43299D02*
X12795D01*
X12742Y43247D01*
Y43037D01*
X12795Y42984D01*
X12900D01*
X12952Y43037D01*
Y43247D01*
X12900Y43299D01*
X13057Y43142D02*
X13267D01*
X13372Y42984D02*
X13477D01*
X13425D01*
Y43299D01*
X13372Y43247D01*
X12100Y42247D02*
X12047Y42299D01*
X11942D01*
X11890Y42247D01*
Y42037D01*
X11942Y41984D01*
X12047D01*
X12100Y42037D01*
Y42142D01*
X11995D01*
X12205Y41984D02*
Y42299D01*
X12362D01*
X12415Y42247D01*
Y42142D01*
X12362Y42089D01*
X12205D01*
X12519Y42299D02*
X12624D01*
X12572D01*
Y41984D01*
X12519D01*
X12624D01*
X12939Y42299D02*
X12834D01*
X12782Y42247D01*
Y42037D01*
X12834Y41984D01*
X12939D01*
X12992Y42037D01*
Y42247D01*
X12939Y42299D01*
X13097Y42142D02*
X13307D01*
X13412Y42247D02*
X13464Y42299D01*
X13569D01*
X13621Y42247D01*
Y42194D01*
X13569Y42142D01*
X13517D01*
X13569D01*
X13621Y42089D01*
Y42037D01*
X13569Y41984D01*
X13464D01*
X13412Y42037D01*
X11870Y41299D02*
X11975D01*
X11923D01*
Y40984D01*
X11870D01*
X11975D01*
X12342D02*
X12132D01*
X12342Y41194D01*
Y41247D01*
X12290Y41299D01*
X12185D01*
X12132Y41247D01*
X12657D02*
X12605Y41299D01*
X12500D01*
X12447Y41247D01*
Y41037D01*
X12500Y40984D01*
X12605D01*
X12657Y41037D01*
X13287Y41247D02*
X13234Y41299D01*
X13130D01*
X13077Y41247D01*
Y41194D01*
X13130Y41142D01*
X13234D01*
X13287Y41089D01*
Y41037D01*
X13234Y40984D01*
X13130D01*
X13077Y41037D01*
X13392Y41299D02*
Y40984D01*
X13549D01*
X13602Y41037D01*
Y41247D01*
X13549Y41299D01*
X13392D01*
X13707Y40984D02*
Y41194D01*
X13812Y41299D01*
X13917Y41194D01*
Y40984D01*
Y41142D01*
X13707D01*
X11870Y39980D02*
Y40295D01*
X12028D01*
X12080Y40243D01*
Y40138D01*
X12028Y40085D01*
X11870D01*
X11975D02*
X12080Y39980D01*
X12185Y40295D02*
X12395D01*
X12290D01*
Y39980D01*
X12710Y40243D02*
X12657Y40295D01*
X12552D01*
X12500Y40243D01*
Y40033D01*
X12552Y39980D01*
X12657D01*
X12710Y40033D01*
X13130Y40295D02*
Y39980D01*
X13287D01*
X13339Y40033D01*
Y40085D01*
X13287Y40138D01*
X13130D01*
X13287D01*
X13339Y40190D01*
Y40243D01*
X13287Y40295D01*
X13130D01*
X13444Y39980D02*
Y40190D01*
X13549Y40295D01*
X13654Y40190D01*
Y39980D01*
Y40138D01*
X13444D01*
X13759Y40295D02*
X13969D01*
X13864D01*
Y39980D01*
X12080Y39247D02*
X12028Y39299D01*
X11923D01*
X11870Y39247D01*
Y39037D01*
X11923Y38984D01*
X12028D01*
X12080Y39037D01*
Y39142D01*
X11975D01*
X12185Y38984D02*
Y39299D01*
X12395Y38984D01*
Y39299D01*
X12500D02*
Y38984D01*
X12657D01*
X12710Y39037D01*
Y39247D01*
X12657Y39299D01*
X12500D01*
X12080Y38247D02*
X12028Y38299D01*
X11923D01*
X11870Y38247D01*
Y38037D01*
X11923Y37984D01*
X12028D01*
X12080Y38037D01*
Y38142D01*
X11975D01*
X12185Y37984D02*
Y38299D01*
X12395Y37984D01*
Y38299D01*
X12500D02*
Y37984D01*
X12657D01*
X12710Y38037D01*
Y38247D01*
X12657Y38299D01*
X12500D01*
X12080Y37247D02*
X12028Y37299D01*
X11923D01*
X11870Y37247D01*
Y37037D01*
X11923Y36984D01*
X12028D01*
X12080Y37037D01*
Y37142D01*
X11975D01*
X12185Y36984D02*
Y37299D01*
X12395Y36984D01*
Y37299D01*
X12500D02*
Y36984D01*
X12657D01*
X12710Y37037D01*
Y37247D01*
X12657Y37299D01*
X12500D01*
X8930Y37192D02*
X8878Y37244D01*
X8773D01*
X8720Y37192D01*
Y36982D01*
X8773Y36929D01*
X8878D01*
X8930Y36982D01*
Y37087D01*
X8825D01*
X9035Y36929D02*
Y37244D01*
X9245Y36929D01*
Y37244D01*
X9350D02*
Y36929D01*
X9508D01*
X9560Y36982D01*
Y37192D01*
X9508Y37244D01*
X9350D01*
X6457Y37913D02*
Y38228D01*
X6614D01*
X6667Y38176D01*
Y38071D01*
X6614Y38018D01*
X6457D01*
X6772Y38228D02*
Y37913D01*
X6877Y38018D01*
X6981Y37913D01*
Y38228D01*
X7086Y37913D02*
Y38228D01*
X7244D01*
X7296Y38176D01*
Y38071D01*
X7244Y38018D01*
X7086D01*
X7191D02*
X7296Y37913D01*
X7716Y38228D02*
Y37913D01*
X7874D01*
X7926Y37966D01*
Y38018D01*
X7874Y38071D01*
X7716D01*
X7874D01*
X7926Y38123D01*
Y38176D01*
X7874Y38228D01*
X7716D01*
X8031D02*
Y37966D01*
X8083Y37913D01*
X8188D01*
X8241Y37966D01*
Y38228D01*
X8346D02*
X8556D01*
X8451D01*
Y37913D01*
X8661Y38228D02*
X8871D01*
X8766D01*
Y37913D01*
X9133Y38228D02*
X9028D01*
X8976Y38176D01*
Y37966D01*
X9028Y37913D01*
X9133D01*
X9185Y37966D01*
Y38176D01*
X9133Y38228D01*
X9290Y37913D02*
Y38228D01*
X9500Y37913D01*
Y38228D01*
X8720Y38996D02*
Y39311D01*
X8878D01*
X8930Y39258D01*
Y39153D01*
X8878Y39101D01*
X8720D01*
X8825D02*
X8930Y38996D01*
X9245Y39258D02*
X9193Y39311D01*
X9088D01*
X9035Y39258D01*
Y39206D01*
X9088Y39153D01*
X9193D01*
X9245Y39101D01*
Y39049D01*
X9193Y38996D01*
X9088D01*
X9035Y39049D01*
X9350Y39311D02*
X9560D01*
X9455D01*
Y38996D01*
X7146Y39980D02*
Y40295D01*
X7303D01*
X7356Y40243D01*
Y40138D01*
X7303Y40085D01*
X7146D01*
X7251D02*
X7356Y39980D01*
X7670Y40295D02*
X7461D01*
Y39980D01*
X7670D01*
X7461Y40138D02*
X7565D01*
X7985Y40243D02*
X7933Y40295D01*
X7828D01*
X7775Y40243D01*
Y40033D01*
X7828Y39980D01*
X7933D01*
X7985Y40033D01*
X8248Y40295D02*
X8143D01*
X8090Y40243D01*
Y40033D01*
X8143Y39980D01*
X8248D01*
X8300Y40033D01*
Y40243D01*
X8248Y40295D01*
X8405D02*
Y40085D01*
X8510Y39980D01*
X8615Y40085D01*
Y40295D01*
X8930D02*
X8720D01*
Y39980D01*
X8930D01*
X8720Y40138D02*
X8825D01*
X9035Y39980D02*
Y40295D01*
X9192D01*
X9245Y40243D01*
Y40138D01*
X9192Y40085D01*
X9035D01*
X9140D02*
X9245Y39980D01*
X9350Y40295D02*
Y40243D01*
X9455Y40138D01*
X9560Y40243D01*
Y40295D01*
X9455Y40138D02*
Y39980D01*
X7539Y41279D02*
X7644D01*
X7592D01*
Y40965D01*
X7539D01*
X7644D01*
X8012D02*
X7802D01*
X8012Y41174D01*
Y41227D01*
X7959Y41279D01*
X7854D01*
X7802Y41227D01*
X8327D02*
X8274Y41279D01*
X8169D01*
X8117Y41227D01*
Y41017D01*
X8169Y40965D01*
X8274D01*
X8327Y41017D01*
X8956Y41227D02*
X8904Y41279D01*
X8799D01*
X8746Y41227D01*
Y41017D01*
X8799Y40965D01*
X8904D01*
X8956Y41017D01*
X9061Y41279D02*
Y40965D01*
X9271D01*
X9376Y41279D02*
Y40965D01*
Y41070D01*
X9586Y41279D01*
X9429Y41122D01*
X9586Y40965D01*
X8045Y42211D02*
X7992Y42264D01*
X7887D01*
X7835Y42211D01*
Y42001D01*
X7887Y41949D01*
X7992D01*
X8045Y42001D01*
Y42106D01*
X7940D01*
X8149Y41949D02*
Y42264D01*
X8307D01*
X8359Y42211D01*
Y42106D01*
X8307Y42054D01*
X8149D01*
X8464Y42264D02*
X8569D01*
X8517D01*
Y41949D01*
X8464D01*
X8569D01*
X8884Y42264D02*
X8779D01*
X8727Y42211D01*
Y42001D01*
X8779Y41949D01*
X8884D01*
X8937Y42001D01*
Y42211D01*
X8884Y42264D01*
X9042Y42106D02*
X9252D01*
X9566Y41949D02*
X9356D01*
X9566Y42159D01*
Y42211D01*
X9514Y42264D01*
X9409D01*
X9356Y42211D01*
X8045Y43195D02*
X7992Y43248D01*
X7887D01*
X7835Y43195D01*
Y42986D01*
X7887Y42933D01*
X7992D01*
X8045Y42986D01*
Y43091D01*
X7940D01*
X8149Y42933D02*
Y43248D01*
X8307D01*
X8359Y43195D01*
Y43091D01*
X8307Y43038D01*
X8149D01*
X8464Y43248D02*
X8569D01*
X8517D01*
Y42933D01*
X8464D01*
X8569D01*
X8884Y43248D02*
X8779D01*
X8727Y43195D01*
Y42986D01*
X8779Y42933D01*
X8884D01*
X8937Y42986D01*
Y43195D01*
X8884Y43248D01*
X9042Y43091D02*
X9252D01*
X9356Y43195D02*
X9409Y43248D01*
X9514D01*
X9566Y43195D01*
Y42986D01*
X9514Y42933D01*
X9409D01*
X9356Y42986D01*
Y43195D01*
X7835Y44331D02*
Y44068D01*
X7887Y44016D01*
X7992D01*
X8045Y44068D01*
Y44331D01*
X8149Y43963D02*
X8359D01*
X8464Y44016D02*
X8569D01*
X8517D01*
Y44331D01*
X8464Y44278D01*
X9042Y44331D02*
X9252D01*
X9147D01*
Y44016D01*
X9356Y44331D02*
X9566Y44016D01*
Y44331D02*
X9356Y44016D01*
X7736Y45315D02*
Y45052D01*
X7789Y45000D01*
X7894D01*
X7946Y45052D01*
Y45315D01*
X8051Y44948D02*
X8261D01*
X8366Y45262D02*
X8418Y45315D01*
X8523D01*
X8576Y45262D01*
Y45052D01*
X8523Y45000D01*
X8418D01*
X8366Y45052D01*
Y45262D01*
X8996Y45315D02*
X9206D01*
X9101D01*
Y45000D01*
X9311Y45315D02*
X9520Y45000D01*
Y45315D02*
X9311Y45000D01*
X7520Y46247D02*
X7572Y46299D01*
X7677D01*
X7730Y46247D01*
Y46194D01*
X7677Y46142D01*
X7625D01*
X7677D01*
X7730Y46089D01*
Y46037D01*
X7677Y45984D01*
X7572D01*
X7520Y46037D01*
X7835Y45984D02*
Y46037D01*
X7887D01*
Y45984D01*
X7835D01*
X8097Y46247D02*
X8149Y46299D01*
X8254D01*
X8307Y46247D01*
Y46194D01*
X8254Y46142D01*
X8202D01*
X8254D01*
X8307Y46089D01*
Y46037D01*
X8254Y45984D01*
X8149D01*
X8097Y46037D01*
X8412Y46299D02*
Y46089D01*
X8517Y45984D01*
X8622Y46089D01*
Y46299D01*
X9042D02*
Y46089D01*
X9146Y45984D01*
X9251Y46089D01*
Y46299D01*
X9514D02*
X9409D01*
X9356Y46247D01*
Y46037D01*
X9409Y45984D01*
X9514D01*
X9566Y46037D01*
Y46247D01*
X9514Y46299D01*
X20682Y28307D02*
X20630Y28360D01*
Y28465D01*
X20682Y28517D01*
X20735D01*
X20787Y28465D01*
Y28412D01*
Y28465D01*
X20840Y28517D01*
X20892D01*
X20945Y28465D01*
Y28360D01*
X20892Y28307D01*
X20945Y28622D02*
X20892D01*
Y28674D01*
X20945D01*
Y28622D01*
X20682Y28884D02*
X20630Y28937D01*
Y29042D01*
X20682Y29094D01*
X20735D01*
X20787Y29042D01*
Y28989D01*
Y29042D01*
X20840Y29094D01*
X20892D01*
X20945Y29042D01*
Y28937D01*
X20892Y28884D01*
X20630Y29199D02*
X20840D01*
X20945Y29304D01*
X20840Y29409D01*
X20630D01*
Y29829D02*
X20840D01*
X20945Y29934D01*
X20840Y30039D01*
X20630D01*
Y30301D02*
Y30196D01*
X20682Y30144D01*
X20892D01*
X20945Y30196D01*
Y30301D01*
X20892Y30354D01*
X20682D01*
X20630Y30301D01*
X21614Y28524D02*
X21877D01*
X21929Y28576D01*
Y28681D01*
X21877Y28734D01*
X21614D01*
X21982Y28838D02*
Y29048D01*
X21667Y29153D02*
X21614Y29206D01*
Y29311D01*
X21667Y29363D01*
X21877D01*
X21929Y29311D01*
Y29206D01*
X21877Y29153D01*
X21667D01*
X21614Y29783D02*
Y29993D01*
Y29888D01*
X21929D01*
X21614Y30098D02*
X21929Y30308D01*
X21614D02*
X21929Y30098D01*
X22599Y28622D02*
X22861D01*
X22913Y28675D01*
Y28779D01*
X22861Y28832D01*
X22599D01*
X22966Y28937D02*
Y29147D01*
X22913Y29252D02*
Y29357D01*
Y29304D01*
X22599D01*
X22651Y29252D01*
X22599Y29829D02*
Y30039D01*
Y29934D01*
X22913D01*
X22599Y30144D02*
X22913Y30354D01*
X22599D02*
X22913Y30144D01*
X23734Y28832D02*
X23681Y28779D01*
Y28675D01*
X23734Y28622D01*
X23944D01*
X23996Y28675D01*
Y28779D01*
X23944Y28832D01*
X23839D01*
Y28727D01*
X23996Y28937D02*
X23681D01*
Y29094D01*
X23734Y29147D01*
X23839D01*
X23891Y29094D01*
Y28937D01*
X23681Y29252D02*
Y29357D01*
Y29304D01*
X23996D01*
Y29252D01*
Y29357D01*
X23681Y29672D02*
Y29567D01*
X23734Y29514D01*
X23944D01*
X23996Y29567D01*
Y29672D01*
X23944Y29724D01*
X23734D01*
X23681Y29672D01*
X23839Y29829D02*
Y30039D01*
X23734Y30144D02*
X23681Y30196D01*
Y30301D01*
X23734Y30354D01*
X23944D01*
X23996Y30301D01*
Y30196D01*
X23944Y30144D01*
X23734D01*
X24718Y28832D02*
X24665Y28779D01*
Y28675D01*
X24718Y28622D01*
X24928D01*
X24980Y28675D01*
Y28779D01*
X24928Y28832D01*
X24823D01*
Y28727D01*
X24980Y28937D02*
X24665D01*
Y29094D01*
X24718Y29147D01*
X24823D01*
X24875Y29094D01*
Y28937D01*
X24665Y29252D02*
Y29357D01*
Y29304D01*
X24980D01*
Y29252D01*
Y29357D01*
X24665Y29672D02*
Y29567D01*
X24718Y29514D01*
X24928D01*
X24980Y29567D01*
Y29672D01*
X24928Y29724D01*
X24718D01*
X24665Y29672D01*
X24823Y29829D02*
Y30039D01*
X24980Y30354D02*
Y30144D01*
X24770Y30354D01*
X24718D01*
X24665Y30301D01*
Y30196D01*
X24718Y30144D01*
X25650Y28327D02*
Y28432D01*
Y28379D01*
X25965D01*
Y28327D01*
Y28432D01*
Y28799D02*
Y28589D01*
X25755Y28799D01*
X25702D01*
X25650Y28747D01*
Y28642D01*
X25702Y28589D01*
Y29114D02*
X25650Y29061D01*
Y28956D01*
X25702Y28904D01*
X25912D01*
X25965Y28956D01*
Y29061D01*
X25912Y29114D01*
X25702Y29744D02*
X25650Y29691D01*
Y29586D01*
X25702Y29534D01*
X25912D01*
X25965Y29586D01*
Y29691D01*
X25912Y29744D01*
X25650Y29849D02*
X25965D01*
Y30059D01*
X25650Y30163D02*
X25965D01*
X25860D01*
X25650Y30373D01*
X25807Y30216D01*
X25965Y30373D01*
X26949Y27933D02*
X26634D01*
Y28091D01*
X26686Y28143D01*
X26791D01*
X26844Y28091D01*
Y27933D01*
Y28038D02*
X26949Y28143D01*
X26634Y28458D02*
Y28248D01*
X26949D01*
Y28458D01*
X26791Y28248D02*
Y28353D01*
X26686Y28773D02*
X26634Y28720D01*
Y28615D01*
X26686Y28563D01*
X26896D01*
X26949Y28615D01*
Y28720D01*
X26896Y28773D01*
X26634Y29035D02*
Y28930D01*
X26686Y28878D01*
X26896D01*
X26949Y28930D01*
Y29035D01*
X26896Y29088D01*
X26686D01*
X26634Y29035D01*
Y29193D02*
X26844D01*
X26949Y29297D01*
X26844Y29402D01*
X26634D01*
Y29717D02*
Y29507D01*
X26949D01*
Y29717D01*
X26791Y29507D02*
Y29612D01*
X26949Y29822D02*
X26634D01*
Y29980D01*
X26686Y30032D01*
X26791D01*
X26844Y29980D01*
Y29822D01*
Y29927D02*
X26949Y30032D01*
X26634Y30137D02*
X26686D01*
X26791Y30242D01*
X26686Y30347D01*
X26634D01*
X26791Y30242D02*
X26949D01*
X27933Y29508D02*
X27618D01*
Y29665D01*
X27671Y29718D01*
X27776D01*
X27828Y29665D01*
Y29508D01*
Y29613D02*
X27933Y29718D01*
X27671Y30033D02*
X27618Y29980D01*
Y29875D01*
X27671Y29823D01*
X27723D01*
X27776Y29875D01*
Y29980D01*
X27828Y30033D01*
X27881D01*
X27933Y29980D01*
Y29875D01*
X27881Y29823D01*
X27618Y30138D02*
Y30347D01*
Y30243D01*
X27933D01*
X29016Y27244D02*
X28701D01*
Y27402D01*
X28753Y27454D01*
X28858D01*
X28911Y27402D01*
Y27244D01*
X28701Y27559D02*
X29016D01*
X28911Y27664D01*
X29016Y27769D01*
X28701D01*
X29016Y27874D02*
X28701D01*
Y28031D01*
X28753Y28084D01*
X28858D01*
X28911Y28031D01*
Y27874D01*
Y27979D02*
X29016Y28084D01*
X28701Y28504D02*
X29016D01*
Y28661D01*
X28963Y28713D01*
X28911D01*
X28858Y28661D01*
Y28504D01*
Y28661D01*
X28806Y28713D01*
X28753D01*
X28701Y28661D01*
Y28504D01*
Y28818D02*
X28963D01*
X29016Y28871D01*
Y28976D01*
X28963Y29028D01*
X28701D01*
Y29133D02*
Y29343D01*
Y29238D01*
X29016D01*
X28701Y29448D02*
Y29658D01*
Y29553D01*
X29016D01*
X28701Y29920D02*
Y29815D01*
X28753Y29763D01*
X28963D01*
X29016Y29815D01*
Y29920D01*
X28963Y29973D01*
X28753D01*
X28701Y29920D01*
X29016Y30078D02*
X28701D01*
X29016Y30288D01*
X28701D01*
X29738Y29718D02*
X29685Y29665D01*
Y29560D01*
X29738Y29508D01*
X29948D01*
X30000Y29560D01*
Y29665D01*
X29948Y29718D01*
X29843D01*
Y29613D01*
X30000Y29823D02*
X29685D01*
X30000Y30033D01*
X29685D01*
Y30138D02*
X30000D01*
Y30295D01*
X29948Y30347D01*
X29738D01*
X29685Y30295D01*
Y30138D01*
X29683Y32867D02*
X29630Y32815D01*
Y32710D01*
X29683Y32657D01*
X29892D01*
X29945Y32710D01*
Y32815D01*
X29892Y32867D01*
X29787D01*
Y32762D01*
X29945Y32972D02*
X29630D01*
X29945Y33182D01*
X29630D01*
Y33287D02*
X29945D01*
Y33445D01*
X29892Y33497D01*
X29683D01*
X29630Y33445D01*
Y33287D01*
X28682Y32867D02*
X28630Y32815D01*
Y32710D01*
X28682Y32657D01*
X28892D01*
X28945Y32710D01*
Y32815D01*
X28892Y32867D01*
X28787D01*
Y32762D01*
X28945Y32972D02*
X28630D01*
X28945Y33182D01*
X28630D01*
Y33287D02*
X28945D01*
Y33445D01*
X28892Y33497D01*
X28682D01*
X28630Y33445D01*
Y33287D01*
X27682Y32867D02*
X27630Y32815D01*
Y32710D01*
X27682Y32657D01*
X27892D01*
X27945Y32710D01*
Y32815D01*
X27892Y32867D01*
X27787D01*
Y32762D01*
X27945Y32972D02*
X27630D01*
X27945Y33182D01*
X27630D01*
Y33287D02*
X27945D01*
Y33445D01*
X27892Y33497D01*
X27682D01*
X27630Y33445D01*
Y33287D01*
X26949Y32657D02*
X26634D01*
Y32815D01*
X26686Y32867D01*
X26791D01*
X26844Y32815D01*
Y32657D01*
Y32762D02*
X26949Y32867D01*
X26634Y32972D02*
Y33182D01*
Y33077D01*
X26949D01*
X26686Y33497D02*
X26634Y33445D01*
Y33340D01*
X26686Y33287D01*
X26896D01*
X26949Y33340D01*
Y33445D01*
X26896Y33497D01*
X26634Y33917D02*
X26949D01*
Y34074D01*
X26896Y34127D01*
X26844D01*
X26791Y34074D01*
Y33917D01*
Y34074D01*
X26739Y34127D01*
X26686D01*
X26634Y34074D01*
Y33917D01*
X26949Y34232D02*
X26739D01*
X26634Y34337D01*
X26739Y34442D01*
X26949D01*
X26791D01*
Y34232D01*
X26634Y34547D02*
Y34757D01*
Y34652D01*
X26949D01*
X25630Y32657D02*
Y32762D01*
Y32710D01*
X25945D01*
Y32657D01*
Y32762D01*
Y33130D02*
Y32920D01*
X25735Y33130D01*
X25682D01*
X25630Y33077D01*
Y32972D01*
X25682Y32920D01*
Y33445D02*
X25630Y33392D01*
Y33287D01*
X25682Y33235D01*
X25892D01*
X25945Y33287D01*
Y33392D01*
X25892Y33445D01*
X25682Y34074D02*
X25630Y34022D01*
Y33917D01*
X25682Y33864D01*
X25735D01*
X25787Y33917D01*
Y34022D01*
X25840Y34074D01*
X25892D01*
X25945Y34022D01*
Y33917D01*
X25892Y33864D01*
X25630Y34179D02*
X25945D01*
Y34337D01*
X25892Y34389D01*
X25682D01*
X25630Y34337D01*
Y34179D01*
X25945Y34494D02*
X25735D01*
X25630Y34599D01*
X25735Y34704D01*
X25945D01*
X25787D01*
Y34494D01*
X24683Y32887D02*
X24630Y32835D01*
Y32730D01*
X24683Y32677D01*
X24892D01*
X24945Y32730D01*
Y32835D01*
X24892Y32887D01*
X24787D01*
Y32782D01*
X24945Y32992D02*
X24630D01*
Y33149D01*
X24683Y33202D01*
X24787D01*
X24840Y33149D01*
Y32992D01*
X24630Y33307D02*
Y33412D01*
Y33359D01*
X24945D01*
Y33307D01*
Y33412D01*
X24630Y33727D02*
Y33622D01*
X24683Y33569D01*
X24892D01*
X24945Y33622D01*
Y33727D01*
X24892Y33779D01*
X24683D01*
X24630Y33727D01*
X24787Y33884D02*
Y34094D01*
X24683Y34199D02*
X24630Y34251D01*
Y34356D01*
X24683Y34409D01*
X24735D01*
X24787Y34356D01*
Y34304D01*
Y34356D01*
X24840Y34409D01*
X24892D01*
X24945Y34356D01*
Y34251D01*
X24892Y34199D01*
X23682Y32848D02*
X23630Y32795D01*
Y32690D01*
X23682Y32638D01*
X23892D01*
X23945Y32690D01*
Y32795D01*
X23892Y32848D01*
X23787D01*
Y32743D01*
X23945Y32953D02*
X23630D01*
Y33110D01*
X23682Y33163D01*
X23787D01*
X23840Y33110D01*
Y32953D01*
X23630Y33268D02*
Y33372D01*
Y33320D01*
X23945D01*
Y33268D01*
Y33372D01*
X23630Y33687D02*
Y33582D01*
X23682Y33530D01*
X23892D01*
X23945Y33582D01*
Y33687D01*
X23892Y33740D01*
X23682D01*
X23630Y33687D01*
X23787Y33845D02*
Y34055D01*
X23945Y34160D02*
Y34265D01*
Y34212D01*
X23630D01*
X23682Y34160D01*
X22697Y32657D02*
X22959D01*
X23012Y32710D01*
Y32815D01*
X22959Y32867D01*
X22697D01*
X23064Y32972D02*
Y33182D01*
X23012Y33287D02*
Y33392D01*
Y33340D01*
X22697D01*
X22749Y33287D01*
X23012Y33864D02*
X22697D01*
Y34022D01*
X22749Y34074D01*
X22854D01*
X22907Y34022D01*
Y33864D01*
Y33969D02*
X23012Y34074D01*
X22697Y34179D02*
X23012Y34389D01*
X22697D02*
X23012Y34179D01*
X21614Y32657D02*
X21877D01*
X21929Y32710D01*
Y32815D01*
X21877Y32867D01*
X21614D01*
X21982Y32972D02*
Y33182D01*
X21667Y33287D02*
X21614Y33340D01*
Y33445D01*
X21667Y33497D01*
X21877D01*
X21929Y33445D01*
Y33340D01*
X21877Y33287D01*
X21667D01*
X21929Y33917D02*
X21614D01*
Y34074D01*
X21667Y34127D01*
X21772D01*
X21824Y34074D01*
Y33917D01*
Y34022D02*
X21929Y34127D01*
X21614Y34232D02*
X21929Y34442D01*
X21614D02*
X21929Y34232D01*
X20630Y32867D02*
Y32657D01*
X20787D01*
X20735Y32762D01*
Y32815D01*
X20787Y32867D01*
X20892D01*
X20945Y32815D01*
Y32710D01*
X20892Y32657D01*
X20630Y32972D02*
X20840D01*
X20945Y33077D01*
X20840Y33182D01*
X20630D01*
Y33602D02*
X20840D01*
X20945Y33707D01*
X20840Y33812D01*
X20630D01*
Y34074D02*
Y33969D01*
X20682Y33917D01*
X20892D01*
X20945Y33969D01*
Y34074D01*
X20892Y34127D01*
X20682D01*
X20630Y34074D01*
D36*
X29014Y55551D02*
D03*
M02*
