G04 Layer_Physical_Order=2*
G04 Layer_Color=16711680*
%FSLAX25Y25*%
%MOIN*%
G70*
G01*
G75*
%ADD10C,0.06181*%
%ADD11C,0.19685*%
%ADD12C,0.11811*%
%ADD13C,0.15748*%
%ADD14C,0.23622*%
G36*
X249448Y137006D02*
X249100Y135560D01*
X248967Y133858D01*
X249100Y132157D01*
X249499Y130497D01*
X250152Y128921D01*
X251044Y127465D01*
X252152Y126168D01*
X252396Y125960D01*
X252162Y125501D01*
X250717Y125848D01*
X249016Y125982D01*
X247314Y125848D01*
X245655Y125450D01*
X244843Y125114D01*
X244026Y125931D01*
Y132291D01*
X248994Y137259D01*
X249448Y137006D01*
D02*
G37*
G36*
X486660Y99955D02*
X161257D01*
X161158Y100455D01*
X161332Y100527D01*
X162187Y101183D01*
X166103Y105099D01*
X166915Y104762D01*
X168574Y104364D01*
X170276Y104230D01*
X171977Y104364D01*
X173636Y104762D01*
X175213Y105416D01*
X176668Y106307D01*
X177966Y107416D01*
X179075Y108713D01*
X179966Y110169D01*
X180619Y111745D01*
X180845Y112687D01*
X181360D01*
X181586Y111745D01*
X182239Y110169D01*
X183130Y108713D01*
X184239Y107416D01*
X185536Y106307D01*
X186992Y105416D01*
X188568Y104762D01*
X190228Y104364D01*
X191929Y104230D01*
X193631Y104364D01*
X195290Y104762D01*
X196867Y105416D01*
X198322Y106307D01*
X199620Y107416D01*
X200728Y108713D01*
X201620Y110169D01*
X202273Y111745D01*
X202671Y113405D01*
X202805Y115106D01*
X202671Y116808D01*
X202273Y118467D01*
X201937Y119279D01*
X204017Y121360D01*
X204673Y122214D01*
X205085Y123209D01*
X205226Y124277D01*
X205226Y124277D01*
Y135732D01*
X205226Y135732D01*
X205156Y136266D01*
X205085Y136800D01*
X204673Y137795D01*
X204017Y138650D01*
X204017Y138650D01*
X202727Y139940D01*
X203038Y140336D01*
X203724Y139916D01*
X205300Y139263D01*
X206960Y138864D01*
X208661Y138730D01*
X210363Y138864D01*
X211807Y139211D01*
X212041Y138753D01*
X211797Y138545D01*
X210689Y137247D01*
X209797Y135792D01*
X209144Y134215D01*
X208746Y132556D01*
X208612Y130855D01*
X208746Y129153D01*
X209144Y127494D01*
X209797Y125917D01*
X210689Y124462D01*
X211797Y123164D01*
X213095Y122056D01*
X214550Y121164D01*
X216127Y120511D01*
X217787Y120112D01*
X219488Y119978D01*
X221189Y120112D01*
X222849Y120511D01*
X224426Y121164D01*
X225881Y122056D01*
X227179Y123164D01*
X228287Y124462D01*
X229179Y125917D01*
X229832Y127494D01*
X230230Y129153D01*
X230364Y130855D01*
X230230Y132556D01*
X229832Y134215D01*
X229179Y135792D01*
X228287Y137247D01*
X227179Y138545D01*
X226935Y138753D01*
X227169Y139211D01*
X228613Y138864D01*
X230315Y138730D01*
X232016Y138864D01*
X233676Y139263D01*
X235252Y139916D01*
X236708Y140807D01*
X238005Y141916D01*
X239114Y143214D01*
X240005Y144669D01*
X240658Y146246D01*
X241057Y147905D01*
X241191Y149606D01*
X241057Y151308D01*
X240658Y152967D01*
X240005Y154544D01*
X239114Y155999D01*
X238005Y157297D01*
X236708Y158405D01*
X235252Y159297D01*
X233676Y159950D01*
X232016Y160349D01*
X230315Y160482D01*
X228613Y160349D01*
X226954Y159950D01*
X225377Y159297D01*
X224129Y158532D01*
X223817Y158928D01*
X227064Y162174D01*
X252914D01*
X253982Y162315D01*
X254394Y162486D01*
X254977Y162727D01*
X255832Y163383D01*
X265078Y172629D01*
X265977Y172357D01*
X267717Y172185D01*
X269456Y172357D01*
X271129Y172864D01*
X272671Y173688D01*
X274022Y174797D01*
X275074Y176079D01*
X275574Y176019D01*
Y175509D01*
X236983Y136917D01*
X236327Y136063D01*
X236086Y135480D01*
X235915Y135068D01*
X235774Y134000D01*
Y124222D01*
X235915Y123154D01*
X236086Y122742D01*
X236327Y122159D01*
X236983Y121305D01*
X239008Y119279D01*
X238672Y118467D01*
X238274Y116808D01*
X238140Y115106D01*
X238274Y113405D01*
X238672Y111745D01*
X239325Y110169D01*
X240217Y108713D01*
X241325Y107416D01*
X242623Y106307D01*
X244078Y105416D01*
X245655Y104762D01*
X247314Y104364D01*
X249016Y104230D01*
X250717Y104364D01*
X252377Y104762D01*
X253953Y105416D01*
X255409Y106307D01*
X256706Y107416D01*
X257815Y108713D01*
X258706Y110169D01*
X259360Y111745D01*
X259585Y112687D01*
X260100D01*
X260326Y111745D01*
X260979Y110169D01*
X261871Y108713D01*
X262979Y107416D01*
X264277Y106307D01*
X265732Y105416D01*
X267308Y104762D01*
X268968Y104364D01*
X270669Y104230D01*
X272371Y104364D01*
X274030Y104762D01*
X275607Y105416D01*
X277062Y106307D01*
X278360Y107416D01*
X279468Y108713D01*
X280360Y110169D01*
X281013Y111745D01*
X281412Y113405D01*
X281545Y115106D01*
X281412Y116808D01*
X281013Y118467D01*
X280677Y119279D01*
X285217Y123819D01*
X285217Y123819D01*
X285873Y124674D01*
X286285Y125669D01*
X286426Y126737D01*
Y139076D01*
X286926Y139216D01*
X287461Y138343D01*
X288569Y137046D01*
X289867Y135937D01*
X291322Y135046D01*
X292899Y134392D01*
X294558Y133994D01*
X296260Y133860D01*
X297961Y133994D01*
X299406Y134341D01*
X299640Y133883D01*
X299396Y133675D01*
X298288Y132377D01*
X297396Y130922D01*
X296743Y129345D01*
X296344Y127686D01*
X296211Y125984D01*
X296344Y124283D01*
X296743Y122623D01*
X297396Y121047D01*
X298288Y119591D01*
X299396Y118294D01*
X300694Y117185D01*
X302149Y116294D01*
X303726Y115640D01*
X305385Y115242D01*
X307087Y115108D01*
X308788Y115242D01*
X310448Y115640D01*
X312024Y116294D01*
X313479Y117185D01*
X314777Y118294D01*
X315885Y119591D01*
X316777Y121047D01*
X317430Y122623D01*
X317829Y124283D01*
X317963Y125984D01*
X317829Y127686D01*
X317430Y129345D01*
X316777Y130922D01*
X315885Y132377D01*
X314777Y133675D01*
X314533Y133883D01*
X314767Y134341D01*
X316212Y133994D01*
X317913Y133860D01*
X319615Y133994D01*
X321274Y134392D01*
X322851Y135046D01*
X324306Y135937D01*
X325604Y137046D01*
X326712Y138343D01*
X327604Y139799D01*
X328257Y141375D01*
X328656Y143035D01*
X328789Y144736D01*
X328656Y146438D01*
X328257Y148097D01*
X327604Y149674D01*
X326712Y151129D01*
X325604Y152427D01*
X324306Y153535D01*
X322851Y154427D01*
X321274Y155080D01*
X319615Y155478D01*
X317913Y155612D01*
X316212Y155478D01*
X314552Y155080D01*
X312976Y154427D01*
X311727Y153662D01*
X311416Y154057D01*
X317133Y159774D01*
X337128D01*
X338196Y159915D01*
X338608Y160085D01*
X339191Y160327D01*
X340046Y160983D01*
X351693Y172629D01*
X352591Y172357D01*
X354331Y172185D01*
X356070Y172357D01*
X357743Y172864D01*
X359285Y173688D01*
X360636Y174797D01*
X361674Y176062D01*
X362174Y175972D01*
Y128386D01*
X362315Y127318D01*
X362486Y126906D01*
X362709Y126367D01*
X362641Y126197D01*
X362431Y125887D01*
X361221Y125982D01*
X359519Y125848D01*
X358074Y125501D01*
X357841Y125960D01*
X358084Y126168D01*
X359193Y127465D01*
X360084Y128921D01*
X360737Y130497D01*
X361136Y132157D01*
X361270Y133858D01*
X361136Y135560D01*
X360737Y137219D01*
X360084Y138796D01*
X359193Y140251D01*
X358084Y141549D01*
X356787Y142657D01*
X355331Y143549D01*
X353755Y144202D01*
X352095Y144600D01*
X350394Y144734D01*
X348692Y144600D01*
X347033Y144202D01*
X345456Y143549D01*
X344001Y142657D01*
X342703Y141549D01*
X341595Y140251D01*
X340703Y138796D01*
X340050Y137219D01*
X339652Y135560D01*
X339518Y133858D01*
X339652Y132157D01*
X340050Y130497D01*
X340703Y128921D01*
X341595Y127465D01*
X342703Y126168D01*
X342947Y125960D01*
X342713Y125501D01*
X341268Y125848D01*
X339567Y125982D01*
X337866Y125848D01*
X336206Y125450D01*
X334629Y124797D01*
X333174Y123905D01*
X331876Y122797D01*
X330768Y121499D01*
X329876Y120044D01*
X329223Y118467D01*
X328825Y116808D01*
X328691Y115106D01*
X328825Y113405D01*
X329223Y111745D01*
X329876Y110169D01*
X330768Y108713D01*
X331876Y107416D01*
X333174Y106307D01*
X334629Y105416D01*
X336206Y104762D01*
X337866Y104364D01*
X339567Y104230D01*
X341268Y104364D01*
X342928Y104762D01*
X344505Y105416D01*
X345960Y106307D01*
X347257Y107416D01*
X348366Y108713D01*
X349258Y110169D01*
X349911Y111745D01*
X350137Y112687D01*
X350651D01*
X350877Y111745D01*
X351530Y110169D01*
X352422Y108713D01*
X353530Y107416D01*
X354828Y106307D01*
X356283Y105416D01*
X357860Y104762D01*
X359519Y104364D01*
X361221Y104230D01*
X362922Y104364D01*
X364581Y104762D01*
X366158Y105416D01*
X367613Y106307D01*
X368911Y107416D01*
X370020Y108713D01*
X370911Y110169D01*
X371564Y111745D01*
X371963Y113405D01*
X372097Y115106D01*
X371963Y116808D01*
X371564Y118467D01*
X371228Y119279D01*
X373317Y121368D01*
X373973Y122223D01*
X374385Y123218D01*
X374456Y123752D01*
X374526Y124286D01*
X374385Y125353D01*
X373973Y126348D01*
X373317Y127203D01*
X373317Y127203D01*
X370426Y130095D01*
Y193100D01*
X370285Y194168D01*
X369873Y195163D01*
X369217Y196017D01*
X369217Y196018D01*
X359417Y205817D01*
X358563Y206473D01*
X357980Y206715D01*
X357568Y206885D01*
X356500Y207026D01*
X346053D01*
X335245Y217834D01*
X335517Y218733D01*
X335688Y220472D01*
X335517Y222212D01*
X335010Y223885D01*
X334186Y225426D01*
X333077Y226778D01*
X331726Y227887D01*
X330184Y228711D01*
X328511Y229218D01*
X326772Y229389D01*
X325032Y229218D01*
X323359Y228711D01*
X321818Y227887D01*
X320466Y226778D01*
X319357Y225426D01*
X318533Y223885D01*
X318026Y222212D01*
X317855Y220472D01*
X318026Y218733D01*
X318533Y217060D01*
X319357Y215518D01*
X320466Y214167D01*
X321818Y213058D01*
X323359Y212234D01*
X325032Y211727D01*
X326772Y211556D01*
X328511Y211727D01*
X329410Y211999D01*
X341426Y199983D01*
X341427Y199983D01*
X342281Y199327D01*
X343276Y198915D01*
X344344Y198774D01*
X344344Y198774D01*
X354791D01*
X362174Y191391D01*
Y186233D01*
X361674Y186143D01*
X360636Y187408D01*
X359285Y188517D01*
X357743Y189341D01*
X356070Y189848D01*
X354331Y190019D01*
X352591Y189848D01*
X350918Y189341D01*
X349377Y188517D01*
X348026Y187408D01*
X346917Y186056D01*
X346093Y184515D01*
X345585Y182842D01*
X345414Y181102D01*
X345585Y179363D01*
X345858Y178464D01*
X335419Y168026D01*
X315424D01*
X315424Y168026D01*
X314356Y167885D01*
X313361Y167473D01*
X312506Y166817D01*
X312506Y166817D01*
X300432Y154744D01*
X299621Y155080D01*
X297961Y155478D01*
X296260Y155612D01*
X294558Y155478D01*
X292899Y155080D01*
X291322Y154427D01*
X289867Y153535D01*
X288569Y152427D01*
X287461Y151129D01*
X286926Y150256D01*
X286426Y150397D01*
Y160391D01*
X289817Y163783D01*
X289817Y163783D01*
X290473Y164637D01*
X290885Y165632D01*
X291026Y166700D01*
Y176565D01*
X291511Y176686D01*
X291798Y176148D01*
X292907Y174797D01*
X294259Y173688D01*
X295800Y172864D01*
X297473Y172357D01*
X299213Y172185D01*
X300952Y172357D01*
X302625Y172864D01*
X304167Y173688D01*
X305518Y174797D01*
X306627Y176148D01*
X307451Y177690D01*
X307958Y179363D01*
X308130Y181102D01*
X307958Y182842D01*
X307451Y184515D01*
X306627Y186056D01*
X305518Y187408D01*
X304167Y188517D01*
X302625Y189341D01*
X300952Y189848D01*
X299213Y190019D01*
X297473Y189848D01*
X295800Y189341D01*
X294259Y188517D01*
X292907Y187408D01*
X291798Y186056D01*
X291511Y185518D01*
X291026Y185640D01*
Y200100D01*
X290885Y201168D01*
X290473Y202163D01*
X289817Y203017D01*
X289817Y203017D01*
X282917Y209917D01*
X282063Y210573D01*
X281480Y210814D01*
X281068Y210985D01*
X280000Y211126D01*
X268456D01*
X268431Y211626D01*
X269456Y211727D01*
X271129Y212234D01*
X272671Y213058D01*
X274022Y214167D01*
X275131Y215518D01*
X275955Y217060D01*
X276462Y218733D01*
X276634Y220472D01*
X276462Y222212D01*
X275955Y223885D01*
X275131Y225426D01*
X274022Y226778D01*
X272671Y227887D01*
X271129Y228711D01*
X269456Y229218D01*
X267717Y229389D01*
X265977Y229218D01*
X264304Y228711D01*
X262763Y227887D01*
X261411Y226778D01*
X260302Y225426D01*
X259478Y223885D01*
X258971Y222212D01*
X258800Y220472D01*
X258971Y218733D01*
X259478Y217060D01*
X260302Y215518D01*
X261411Y214167D01*
X262763Y213058D01*
X264304Y212234D01*
X265977Y211727D01*
X267002Y211626D01*
X266977Y211126D01*
X255339D01*
X248630Y217834D01*
X248903Y218733D01*
X249074Y220472D01*
X248903Y222212D01*
X248396Y223885D01*
X247572Y225426D01*
X246463Y226778D01*
X245111Y227887D01*
X243570Y228711D01*
X241897Y229218D01*
X240157Y229389D01*
X238418Y229218D01*
X236745Y228711D01*
X235203Y227887D01*
X233852Y226778D01*
X232743Y225426D01*
X231919Y223885D01*
X231412Y222212D01*
X231241Y220472D01*
X231412Y218733D01*
X231919Y217060D01*
X232743Y215518D01*
X233852Y214167D01*
X235203Y213058D01*
X236745Y212234D01*
X238418Y211727D01*
X240157Y211556D01*
X241897Y211727D01*
X242796Y211999D01*
X250712Y204083D01*
X251567Y203427D01*
X252562Y203015D01*
X253630Y202874D01*
X278291D01*
X282774Y198391D01*
Y193468D01*
X282274Y193261D01*
X278017Y197517D01*
X277163Y198173D01*
X276580Y198415D01*
X276168Y198585D01*
X275100Y198726D01*
X240180D01*
X221071Y217834D01*
X221344Y218733D01*
X221515Y220472D01*
X221344Y222212D01*
X220837Y223885D01*
X220013Y225426D01*
X218904Y226778D01*
X217552Y227887D01*
X216011Y228711D01*
X214338Y229218D01*
X212598Y229389D01*
X210859Y229218D01*
X209186Y228711D01*
X207644Y227887D01*
X206293Y226778D01*
X205184Y225426D01*
X204360Y223885D01*
X203853Y222212D01*
X203681Y220472D01*
X203853Y218733D01*
X204360Y217060D01*
X205184Y215518D01*
X206293Y214167D01*
X207644Y213058D01*
X209186Y212234D01*
X210859Y211727D01*
X212598Y211556D01*
X214338Y211727D01*
X215237Y211999D01*
X235553Y191683D01*
X236408Y191027D01*
X236991Y190786D01*
X237403Y190615D01*
X237937Y190544D01*
X238471Y190474D01*
X238471Y190474D01*
X239674D01*
X239699Y189974D01*
X238418Y189848D01*
X236745Y189341D01*
X235203Y188517D01*
X233852Y187408D01*
X232743Y186056D01*
X231919Y184515D01*
X231412Y182842D01*
X231241Y181102D01*
X231412Y179363D01*
X231919Y177690D01*
X232743Y176148D01*
X233852Y174797D01*
X235203Y173688D01*
X236745Y172864D01*
X238418Y172357D01*
X240157Y172185D01*
X241897Y172357D01*
X243570Y172864D01*
X245111Y173688D01*
X246463Y174797D01*
X247572Y176148D01*
X248396Y177690D01*
X248903Y179363D01*
X249074Y181102D01*
X248903Y182842D01*
X248396Y184515D01*
X247572Y186056D01*
X246463Y187408D01*
X245111Y188517D01*
X243570Y189341D01*
X241897Y189848D01*
X240616Y189974D01*
X240641Y190474D01*
X267233D01*
X267258Y189974D01*
X265977Y189848D01*
X264304Y189341D01*
X262763Y188517D01*
X261411Y187408D01*
X260302Y186056D01*
X259478Y184515D01*
X258971Y182842D01*
X258800Y181102D01*
X258971Y179363D01*
X259244Y178464D01*
X251205Y170426D01*
X225355D01*
X225355Y170426D01*
X224821Y170356D01*
X224287Y170285D01*
X223292Y169873D01*
X222438Y169217D01*
X222438Y169217D01*
X212834Y159614D01*
X212022Y159950D01*
X210363Y160349D01*
X208661Y160482D01*
X206960Y160349D01*
X205300Y159950D01*
X203724Y159297D01*
X202269Y158405D01*
X200971Y157297D01*
X199863Y155999D01*
X198971Y154544D01*
X198318Y152967D01*
X197919Y151308D01*
X197785Y149606D01*
X197919Y147905D01*
X198318Y146246D01*
X198971Y144669D01*
X199391Y143983D01*
X198995Y143672D01*
X189326Y153341D01*
Y190000D01*
X189185Y191068D01*
X188773Y192063D01*
X188117Y192917D01*
X168853Y212182D01*
X169154Y212588D01*
X169816Y212234D01*
X171489Y211727D01*
X173228Y211556D01*
X174968Y211727D01*
X176641Y212234D01*
X178182Y213058D01*
X179534Y214167D01*
X180643Y215518D01*
X181467Y217060D01*
X181974Y218733D01*
X182145Y220472D01*
X181974Y222212D01*
X181467Y223885D01*
X180643Y225426D01*
X179534Y226778D01*
X178182Y227887D01*
X176641Y228711D01*
X174968Y229218D01*
X173228Y229389D01*
X171489Y229218D01*
X169816Y228711D01*
X168274Y227887D01*
X166923Y226778D01*
X165814Y225426D01*
X164990Y223885D01*
X164483Y222212D01*
X164311Y220472D01*
X164483Y218733D01*
X164990Y217060D01*
X165344Y216398D01*
X164938Y216097D01*
X157645Y223390D01*
X156790Y224045D01*
X156208Y224287D01*
X155796Y224458D01*
X154728Y224598D01*
X153526D01*
X153083Y225426D01*
X151974Y226778D01*
X150623Y227887D01*
X149082Y228711D01*
X147409Y229218D01*
X145669Y229389D01*
X143930Y229218D01*
X142257Y228711D01*
X140715Y227887D01*
X139364Y226778D01*
X138255Y225426D01*
X137431Y223885D01*
X136924Y222212D01*
X136752Y220472D01*
X136924Y218733D01*
X137431Y217060D01*
X138255Y215518D01*
X139364Y214167D01*
X140715Y213058D01*
X142257Y212234D01*
X143930Y211727D01*
X145669Y211556D01*
X147409Y211727D01*
X149082Y212234D01*
X150623Y213058D01*
X151974Y214167D01*
X153083Y215518D01*
X153151Y215646D01*
X153646Y215719D01*
X181074Y188291D01*
Y186225D01*
X180574Y186140D01*
X179534Y187408D01*
X178182Y188517D01*
X176641Y189341D01*
X174968Y189848D01*
X173228Y190019D01*
X171489Y189848D01*
X169816Y189341D01*
X168274Y188517D01*
X166923Y187408D01*
X165814Y186056D01*
X164990Y184515D01*
X164483Y182842D01*
X164311Y181102D01*
X164483Y179363D01*
X164755Y178464D01*
X156717Y170426D01*
X146615D01*
X146615Y170426D01*
X146081Y170356D01*
X145547Y170285D01*
X144552Y169873D01*
X143697Y169217D01*
X143697Y169217D01*
X134094Y159614D01*
X133282Y159950D01*
X131623Y160349D01*
X129921Y160482D01*
X128220Y160349D01*
X126560Y159950D01*
X124984Y159297D01*
X123528Y158405D01*
X122231Y157297D01*
X121122Y155999D01*
X120231Y154544D01*
X119578Y152967D01*
X119179Y151308D01*
X119045Y149606D01*
X119179Y147905D01*
X119578Y146246D01*
X120231Y144669D01*
X121122Y143214D01*
X122231Y141916D01*
X123528Y140807D01*
X124984Y139916D01*
X126560Y139263D01*
X128220Y138864D01*
X129921Y138730D01*
X131623Y138864D01*
X133067Y139211D01*
X133301Y138753D01*
X133057Y138545D01*
X131949Y137247D01*
X131057Y135792D01*
X130404Y134215D01*
X130006Y132556D01*
X129872Y130855D01*
X130006Y129153D01*
X130404Y127494D01*
X131057Y125917D01*
X131949Y124462D01*
X133057Y123164D01*
X134355Y122056D01*
X135810Y121164D01*
X137387Y120511D01*
X139047Y120112D01*
X140748Y119978D01*
X142449Y120112D01*
X144109Y120511D01*
X145686Y121164D01*
X147141Y122056D01*
X148439Y123164D01*
X149547Y124462D01*
X150439Y125917D01*
X151092Y127494D01*
X151490Y129153D01*
X151624Y130855D01*
X151490Y132556D01*
X151092Y134215D01*
X150439Y135792D01*
X149547Y137247D01*
X148439Y138545D01*
X148195Y138753D01*
X148429Y139211D01*
X149873Y138864D01*
X151575Y138730D01*
X153276Y138864D01*
X154936Y139263D01*
X156512Y139916D01*
X157968Y140807D01*
X159265Y141916D01*
X160374Y143214D01*
X161265Y144669D01*
X161918Y146246D01*
X162317Y147905D01*
X162451Y149606D01*
X162317Y151308D01*
X161918Y152967D01*
X161265Y154544D01*
X160374Y155999D01*
X159265Y157297D01*
X157968Y158405D01*
X156512Y159297D01*
X154936Y159950D01*
X153276Y160349D01*
X151575Y160482D01*
X149873Y160349D01*
X148214Y159950D01*
X146637Y159297D01*
X145389Y158532D01*
X145077Y158927D01*
X148324Y162174D01*
X158426D01*
X159494Y162315D01*
X159906Y162486D01*
X160489Y162727D01*
X161343Y163383D01*
X170590Y172629D01*
X171489Y172357D01*
X173228Y172185D01*
X174968Y172357D01*
X176641Y172864D01*
X178182Y173688D01*
X179534Y174797D01*
X180574Y176065D01*
X181074Y175980D01*
Y151632D01*
X181215Y150564D01*
X181386Y150152D01*
X181627Y149569D01*
X182283Y148715D01*
X188780Y142217D01*
X188441Y141850D01*
X187495Y142657D01*
X186040Y143549D01*
X184463Y144202D01*
X182804Y144600D01*
X181102Y144734D01*
X179401Y144600D01*
X177742Y144202D01*
X176165Y143549D01*
X174710Y142657D01*
X173412Y141549D01*
X172303Y140251D01*
X171412Y138796D01*
X170759Y137219D01*
X170360Y135560D01*
X170226Y133858D01*
X170360Y132157D01*
X170759Y130497D01*
X171412Y128921D01*
X172303Y127465D01*
X173412Y126168D01*
X173655Y125960D01*
X173422Y125501D01*
X171977Y125848D01*
X170276Y125982D01*
X168574Y125848D01*
X166915Y125450D01*
X165338Y124797D01*
X163883Y123905D01*
X162585Y122797D01*
X161477Y121499D01*
X160585Y120044D01*
X159932Y118467D01*
X159533Y116808D01*
X159399Y115106D01*
X159533Y113405D01*
X159932Y111745D01*
X160268Y110933D01*
X157560Y108226D01*
X123689D01*
X123548Y108726D01*
X124503Y109311D01*
X125801Y110420D01*
X126909Y111717D01*
X127801Y113173D01*
X128454Y114749D01*
X128852Y116409D01*
X128986Y118110D01*
X128852Y119812D01*
X128454Y121471D01*
X127801Y123048D01*
X126909Y124503D01*
X125801Y125801D01*
X124503Y126909D01*
X123048Y127801D01*
X121471Y128454D01*
X119812Y128852D01*
X118110Y128986D01*
X116409Y128852D01*
X114749Y128454D01*
X113173Y127801D01*
X111717Y126909D01*
X110420Y125801D01*
X109311Y124503D01*
X108726Y123548D01*
X108226Y123689D01*
Y204753D01*
X115472Y211999D01*
X116371Y211727D01*
X118110Y211556D01*
X119850Y211727D01*
X121523Y212234D01*
X123064Y213058D01*
X124415Y214167D01*
X125524Y215518D01*
X126348Y217060D01*
X126856Y218733D01*
X127027Y220472D01*
X126856Y222212D01*
X126348Y223885D01*
X125524Y225426D01*
X124415Y226778D01*
X123064Y227887D01*
X121523Y228711D01*
X119850Y229218D01*
X118110Y229389D01*
X116371Y229218D01*
X114698Y228711D01*
X113156Y227887D01*
X111805Y226778D01*
X110696Y225426D01*
X109872Y223885D01*
X109365Y222212D01*
X109193Y220472D01*
X109365Y218733D01*
X109637Y217834D01*
X101183Y209380D01*
X100527Y208525D01*
X100455Y208351D01*
X99955Y208450D01*
Y486660D01*
X486660D01*
Y99955D01*
D02*
G37*
G36*
X196974Y134023D02*
Y125986D01*
X196102Y125114D01*
X195290Y125450D01*
X193631Y125848D01*
X191929Y125982D01*
X190228Y125848D01*
X188783Y125501D01*
X188549Y125960D01*
X188793Y126168D01*
X189901Y127465D01*
X190793Y128921D01*
X191446Y130497D01*
X191845Y132157D01*
X191978Y133858D01*
X191845Y135560D01*
X191446Y137219D01*
X190793Y138796D01*
X189901Y140251D01*
X189094Y141197D01*
X189461Y141536D01*
X196974Y134023D01*
D02*
G37*
G36*
X100527Y107937D02*
X101183Y107083D01*
X107083Y101183D01*
X107937Y100527D01*
X108112Y100455D01*
X108012Y99955D01*
X99955D01*
Y108012D01*
X100455Y108112D01*
X100527Y107937D01*
D02*
G37*
G36*
X282774Y170332D02*
Y168409D01*
X279383Y165017D01*
X278727Y164163D01*
X278485Y163580D01*
X278315Y163168D01*
X278174Y162100D01*
Y128446D01*
X274842Y125114D01*
X274030Y125450D01*
X272371Y125848D01*
X270669Y125982D01*
X268968Y125848D01*
X267523Y125501D01*
X267289Y125960D01*
X267533Y126168D01*
X268641Y127465D01*
X269533Y128921D01*
X270186Y130497D01*
X270585Y132157D01*
X270719Y133858D01*
X270585Y135560D01*
X270186Y137219D01*
X269533Y138796D01*
X268641Y140251D01*
X267533Y141549D01*
X266235Y142657D01*
X264780Y143549D01*
X263204Y144202D01*
X261544Y144600D01*
X259843Y144734D01*
X258141Y144600D01*
X256695Y144253D01*
X256441Y144706D01*
X282274Y170539D01*
X282774Y170332D01*
D02*
G37*
%LPC*%
G36*
X220472Y351433D02*
X218462Y351275D01*
X216501Y350804D01*
X214638Y350033D01*
X212919Y348979D01*
X211386Y347669D01*
X210076Y346136D01*
X209022Y344417D01*
X208251Y342554D01*
X207780Y340593D01*
X207622Y338583D01*
X207780Y336572D01*
X208251Y334612D01*
X209022Y332749D01*
X210076Y331029D01*
X211386Y329496D01*
X212919Y328186D01*
X214638Y327133D01*
X216501Y326361D01*
X218462Y325890D01*
X220472Y325732D01*
X222483Y325890D01*
X224444Y326361D01*
X226307Y327133D01*
X228026Y328186D01*
X229559Y329496D01*
X230869Y331029D01*
X231922Y332749D01*
X232694Y334612D01*
X233165Y336572D01*
X233323Y338583D01*
X233165Y340593D01*
X232694Y342554D01*
X231922Y344417D01*
X230869Y346136D01*
X229559Y347669D01*
X228026Y348979D01*
X226307Y350033D01*
X224444Y350804D01*
X222483Y351275D01*
X220472Y351433D01*
D02*
G37*
G36*
X259843D02*
X257832Y351275D01*
X255872Y350804D01*
X254009Y350033D01*
X252289Y348979D01*
X250756Y347669D01*
X249446Y346136D01*
X248393Y344417D01*
X247621Y342554D01*
X247150Y340593D01*
X246992Y338583D01*
X247150Y336572D01*
X247621Y334612D01*
X248393Y332749D01*
X249446Y331029D01*
X250756Y329496D01*
X252289Y328186D01*
X254009Y327133D01*
X255872Y326361D01*
X257832Y325890D01*
X259843Y325732D01*
X261853Y325890D01*
X263814Y326361D01*
X265677Y327133D01*
X267396Y328186D01*
X268929Y329496D01*
X270239Y331029D01*
X271293Y332749D01*
X272064Y334612D01*
X272535Y336572D01*
X272693Y338583D01*
X272535Y340593D01*
X272064Y342554D01*
X271293Y344417D01*
X270239Y346136D01*
X268929Y347669D01*
X267396Y348979D01*
X265677Y350033D01*
X263814Y350804D01*
X261853Y351275D01*
X259843Y351433D01*
D02*
G37*
G36*
X125984D02*
X123974Y351275D01*
X122013Y350804D01*
X120150Y350033D01*
X118431Y348979D01*
X116897Y347669D01*
X115588Y346136D01*
X114534Y344417D01*
X113762Y342554D01*
X113292Y340593D01*
X113134Y338583D01*
X113292Y336572D01*
X113762Y334612D01*
X114534Y332749D01*
X115588Y331029D01*
X116897Y329496D01*
X118431Y328186D01*
X120150Y327133D01*
X122013Y326361D01*
X123974Y325890D01*
X125984Y325732D01*
X127995Y325890D01*
X129955Y326361D01*
X131818Y327133D01*
X133538Y328186D01*
X135071Y329496D01*
X136381Y331029D01*
X137434Y332749D01*
X138206Y334612D01*
X138677Y336572D01*
X138835Y338583D01*
X138677Y340593D01*
X138206Y342554D01*
X137434Y344417D01*
X136381Y346136D01*
X135071Y347669D01*
X133538Y348979D01*
X131818Y350033D01*
X129955Y350804D01*
X127995Y351275D01*
X125984Y351433D01*
D02*
G37*
G36*
X165354D02*
X163344Y351275D01*
X161383Y350804D01*
X159520Y350033D01*
X157801Y348979D01*
X156268Y347669D01*
X154958Y346136D01*
X153904Y344417D01*
X153133Y342554D01*
X152662Y340593D01*
X152504Y338583D01*
X152662Y336572D01*
X153133Y334612D01*
X153904Y332749D01*
X154958Y331029D01*
X156268Y329496D01*
X157801Y328186D01*
X159520Y327133D01*
X161383Y326361D01*
X163344Y325890D01*
X165354Y325732D01*
X167365Y325890D01*
X169325Y326361D01*
X171188Y327133D01*
X172908Y328186D01*
X174441Y329496D01*
X175751Y331029D01*
X176804Y332749D01*
X177576Y334612D01*
X178047Y336572D01*
X178205Y338583D01*
X178047Y340593D01*
X177576Y342554D01*
X176804Y344417D01*
X175751Y346136D01*
X174441Y347669D01*
X172908Y348979D01*
X171188Y350033D01*
X169325Y350804D01*
X167365Y351275D01*
X165354Y351433D01*
D02*
G37*
G36*
X307087D02*
X305076Y351275D01*
X303116Y350804D01*
X301253Y350033D01*
X299533Y348979D01*
X298000Y347669D01*
X296690Y346136D01*
X295637Y344417D01*
X294865Y342554D01*
X294394Y340593D01*
X294236Y338583D01*
X294394Y336572D01*
X294865Y334612D01*
X295637Y332749D01*
X296690Y331029D01*
X298000Y329496D01*
X299533Y328186D01*
X301253Y327133D01*
X303116Y326361D01*
X305076Y325890D01*
X307087Y325732D01*
X309097Y325890D01*
X311058Y326361D01*
X312921Y327133D01*
X314640Y328186D01*
X316173Y329496D01*
X317483Y331029D01*
X318537Y332749D01*
X319308Y334612D01*
X319779Y336572D01*
X319937Y338583D01*
X319779Y340593D01*
X319308Y342554D01*
X318537Y344417D01*
X317483Y346136D01*
X316173Y347669D01*
X314640Y348979D01*
X312921Y350033D01*
X311058Y350804D01*
X309097Y351275D01*
X307087Y351433D01*
D02*
G37*
G36*
X433071D02*
X431061Y351275D01*
X429100Y350804D01*
X427237Y350033D01*
X425517Y348979D01*
X423984Y347669D01*
X422674Y346136D01*
X421621Y344417D01*
X420849Y342554D01*
X420378Y340593D01*
X420220Y338583D01*
X420378Y336572D01*
X420849Y334612D01*
X421621Y332749D01*
X422674Y331029D01*
X423984Y329496D01*
X425517Y328186D01*
X427237Y327133D01*
X429100Y326361D01*
X431061Y325890D01*
X433071Y325732D01*
X435081Y325890D01*
X437042Y326361D01*
X438905Y327133D01*
X440624Y328186D01*
X442158Y329496D01*
X443467Y331029D01*
X444521Y332749D01*
X445293Y334612D01*
X445763Y336572D01*
X445921Y338583D01*
X445763Y340593D01*
X445293Y342554D01*
X444521Y344417D01*
X443467Y346136D01*
X442158Y347669D01*
X440624Y348979D01*
X438905Y350033D01*
X437042Y350804D01*
X435081Y351275D01*
X433071Y351433D01*
D02*
G37*
G36*
X125984Y390803D02*
X123974Y390645D01*
X122013Y390175D01*
X120150Y389403D01*
X118431Y388349D01*
X116897Y387040D01*
X115588Y385506D01*
X114534Y383787D01*
X113762Y381924D01*
X113292Y379963D01*
X113134Y377953D01*
X113292Y375942D01*
X113762Y373982D01*
X114534Y372119D01*
X115588Y370399D01*
X116897Y368866D01*
X118431Y367556D01*
X120150Y366503D01*
X122013Y365731D01*
X123974Y365260D01*
X125984Y365102D01*
X127995Y365260D01*
X129955Y365731D01*
X131818Y366503D01*
X133538Y367556D01*
X135071Y368866D01*
X136381Y370399D01*
X137434Y372119D01*
X138206Y373982D01*
X138677Y375942D01*
X138835Y377953D01*
X138677Y379963D01*
X138206Y381924D01*
X137434Y383787D01*
X136381Y385506D01*
X135071Y387040D01*
X133538Y388349D01*
X131818Y389403D01*
X129955Y390175D01*
X127995Y390645D01*
X125984Y390803D01*
D02*
G37*
G36*
X346457Y351433D02*
X344446Y351275D01*
X342485Y350804D01*
X340622Y350033D01*
X338903Y348979D01*
X337370Y347669D01*
X336060Y346136D01*
X335007Y344417D01*
X334235Y342554D01*
X333764Y340593D01*
X333606Y338583D01*
X333764Y336572D01*
X334235Y334612D01*
X335007Y332749D01*
X336060Y331029D01*
X337370Y329496D01*
X338903Y328186D01*
X340622Y327133D01*
X342485Y326361D01*
X344446Y325890D01*
X346457Y325732D01*
X348467Y325890D01*
X350428Y326361D01*
X352291Y327133D01*
X354010Y328186D01*
X355543Y329496D01*
X356853Y331029D01*
X357907Y332749D01*
X358678Y334612D01*
X359149Y336572D01*
X359307Y338583D01*
X359149Y340593D01*
X358678Y342554D01*
X357907Y344417D01*
X356853Y346136D01*
X355543Y347669D01*
X354010Y348979D01*
X352291Y350033D01*
X350428Y350804D01*
X348467Y351275D01*
X346457Y351433D01*
D02*
G37*
G36*
X393701D02*
X391690Y351275D01*
X389730Y350804D01*
X387867Y350033D01*
X386147Y348979D01*
X384614Y347669D01*
X383304Y346136D01*
X382251Y344417D01*
X381479Y342554D01*
X381008Y340593D01*
X380850Y338583D01*
X381008Y336572D01*
X381479Y334612D01*
X382251Y332749D01*
X383304Y331029D01*
X384614Y329496D01*
X386147Y328186D01*
X387867Y327133D01*
X389730Y326361D01*
X391690Y325890D01*
X393701Y325732D01*
X395711Y325890D01*
X397672Y326361D01*
X399535Y327133D01*
X401254Y328186D01*
X402788Y329496D01*
X404097Y331029D01*
X405151Y332749D01*
X405923Y334612D01*
X406393Y336572D01*
X406551Y338583D01*
X406393Y340593D01*
X405923Y342554D01*
X405151Y344417D01*
X404097Y346136D01*
X402788Y347669D01*
X401254Y348979D01*
X399535Y350033D01*
X397672Y350804D01*
X395711Y351275D01*
X393701Y351433D01*
D02*
G37*
G36*
X440945Y229389D02*
X439205Y229218D01*
X437532Y228711D01*
X435991Y227887D01*
X434640Y226778D01*
X433531Y225426D01*
X432707Y223885D01*
X432199Y222212D01*
X432028Y220472D01*
X432199Y218733D01*
X432707Y217060D01*
X433531Y215518D01*
X434640Y214167D01*
X435991Y213058D01*
X437532Y212234D01*
X439205Y211727D01*
X440945Y211556D01*
X442684Y211727D01*
X444357Y212234D01*
X445899Y213058D01*
X447250Y214167D01*
X448359Y215518D01*
X449183Y217060D01*
X449690Y218733D01*
X449862Y220472D01*
X449690Y222212D01*
X449183Y223885D01*
X448359Y225426D01*
X447250Y226778D01*
X445899Y227887D01*
X444357Y228711D01*
X442684Y229218D01*
X440945Y229389D01*
D02*
G37*
G36*
X212598Y190019D02*
X210859Y189848D01*
X209186Y189341D01*
X207644Y188517D01*
X206293Y187408D01*
X205184Y186056D01*
X204360Y184515D01*
X203853Y182842D01*
X203681Y181102D01*
X203853Y179363D01*
X204360Y177690D01*
X205184Y176148D01*
X206293Y174797D01*
X207644Y173688D01*
X209186Y172864D01*
X210859Y172357D01*
X212598Y172185D01*
X214338Y172357D01*
X216011Y172864D01*
X217552Y173688D01*
X218904Y174797D01*
X220013Y176148D01*
X220837Y177690D01*
X221344Y179363D01*
X221515Y181102D01*
X221344Y182842D01*
X220837Y184515D01*
X220013Y186056D01*
X218904Y187408D01*
X217552Y188517D01*
X216011Y189341D01*
X214338Y189848D01*
X212598Y190019D01*
D02*
G37*
G36*
X326772D02*
X325032Y189848D01*
X323359Y189341D01*
X321818Y188517D01*
X320466Y187408D01*
X319357Y186056D01*
X318533Y184515D01*
X318026Y182842D01*
X317855Y181102D01*
X318026Y179363D01*
X318533Y177690D01*
X319357Y176148D01*
X320466Y174797D01*
X321818Y173688D01*
X323359Y172864D01*
X325032Y172357D01*
X326772Y172185D01*
X328511Y172357D01*
X330184Y172864D01*
X331726Y173688D01*
X333077Y174797D01*
X334186Y176148D01*
X335010Y177690D01*
X335517Y179363D01*
X335688Y181102D01*
X335517Y182842D01*
X335010Y184515D01*
X334186Y186056D01*
X333077Y187408D01*
X331726Y188517D01*
X330184Y189341D01*
X328511Y189848D01*
X326772Y190019D01*
D02*
G37*
G36*
X118110D02*
X116371Y189848D01*
X114698Y189341D01*
X113156Y188517D01*
X111805Y187408D01*
X110696Y186056D01*
X109872Y184515D01*
X109365Y182842D01*
X109193Y181102D01*
X109365Y179363D01*
X109872Y177690D01*
X110696Y176148D01*
X111805Y174797D01*
X113156Y173688D01*
X114698Y172864D01*
X116371Y172357D01*
X118110Y172185D01*
X119850Y172357D01*
X121523Y172864D01*
X123064Y173688D01*
X124415Y174797D01*
X125524Y176148D01*
X126348Y177690D01*
X126856Y179363D01*
X127027Y181102D01*
X126856Y182842D01*
X126348Y184515D01*
X125524Y186056D01*
X124415Y187408D01*
X123064Y188517D01*
X121523Y189341D01*
X119850Y189848D01*
X118110Y190019D01*
D02*
G37*
G36*
X145669D02*
X143930Y189848D01*
X142257Y189341D01*
X140715Y188517D01*
X139364Y187408D01*
X138255Y186056D01*
X137431Y184515D01*
X136924Y182842D01*
X136752Y181102D01*
X136924Y179363D01*
X137431Y177690D01*
X138255Y176148D01*
X139364Y174797D01*
X140715Y173688D01*
X142257Y172864D01*
X143930Y172357D01*
X145669Y172185D01*
X147409Y172357D01*
X149082Y172864D01*
X150623Y173688D01*
X151974Y174797D01*
X153083Y176148D01*
X153907Y177690D01*
X154415Y179363D01*
X154586Y181102D01*
X154415Y182842D01*
X153907Y184515D01*
X153083Y186056D01*
X151974Y187408D01*
X150623Y188517D01*
X149082Y189341D01*
X147409Y189848D01*
X145669Y190019D01*
D02*
G37*
G36*
X385827D02*
X384087Y189848D01*
X382414Y189341D01*
X380873Y188517D01*
X379522Y187408D01*
X378413Y186056D01*
X377589Y184515D01*
X377081Y182842D01*
X376910Y181102D01*
X377081Y179363D01*
X377589Y177690D01*
X378413Y176148D01*
X379522Y174797D01*
X380873Y173688D01*
X382414Y172864D01*
X384087Y172357D01*
X385827Y172185D01*
X387566Y172357D01*
X389239Y172864D01*
X390781Y173688D01*
X392132Y174797D01*
X393241Y176148D01*
X394065Y177690D01*
X394572Y179363D01*
X394744Y181102D01*
X394572Y182842D01*
X394065Y184515D01*
X393241Y186056D01*
X392132Y187408D01*
X390781Y188517D01*
X389239Y189341D01*
X387566Y189848D01*
X385827Y190019D01*
D02*
G37*
G36*
X299213Y229389D02*
X297473Y229218D01*
X295800Y228711D01*
X294259Y227887D01*
X292907Y226778D01*
X291798Y225426D01*
X290974Y223885D01*
X290467Y222212D01*
X290296Y220472D01*
X290467Y218733D01*
X290974Y217060D01*
X291798Y215518D01*
X292907Y214167D01*
X294259Y213058D01*
X295800Y212234D01*
X297473Y211727D01*
X299213Y211556D01*
X300952Y211727D01*
X302625Y212234D01*
X304167Y213058D01*
X305518Y214167D01*
X306627Y215518D01*
X307451Y217060D01*
X307958Y218733D01*
X308130Y220472D01*
X307958Y222212D01*
X307451Y223885D01*
X306627Y225426D01*
X305518Y226778D01*
X304167Y227887D01*
X302625Y228711D01*
X300952Y229218D01*
X299213Y229389D01*
D02*
G37*
G36*
X354331D02*
X352591Y229218D01*
X350918Y228711D01*
X349377Y227887D01*
X348026Y226778D01*
X346917Y225426D01*
X346093Y223885D01*
X345585Y222212D01*
X345414Y220472D01*
X345585Y218733D01*
X346093Y217060D01*
X346917Y215518D01*
X348026Y214167D01*
X349377Y213058D01*
X350918Y212234D01*
X352591Y211727D01*
X354331Y211556D01*
X356070Y211727D01*
X357743Y212234D01*
X359285Y213058D01*
X360636Y214167D01*
X361745Y215518D01*
X362569Y217060D01*
X363076Y218733D01*
X363248Y220472D01*
X363076Y222212D01*
X362569Y223885D01*
X361745Y225426D01*
X360636Y226778D01*
X359285Y227887D01*
X357743Y228711D01*
X356070Y229218D01*
X354331Y229389D01*
D02*
G37*
G36*
X413386Y190019D02*
X411646Y189848D01*
X409973Y189341D01*
X408432Y188517D01*
X407081Y187408D01*
X405972Y186056D01*
X405148Y184515D01*
X404640Y182842D01*
X404469Y181102D01*
X404640Y179363D01*
X405148Y177690D01*
X405972Y176148D01*
X407081Y174797D01*
X408432Y173688D01*
X409973Y172864D01*
X411646Y172357D01*
X413386Y172185D01*
X415125Y172357D01*
X416798Y172864D01*
X418340Y173688D01*
X419691Y174797D01*
X420800Y176148D01*
X421624Y177690D01*
X422131Y179363D01*
X422303Y181102D01*
X422131Y182842D01*
X421624Y184515D01*
X420800Y186056D01*
X419691Y187408D01*
X418340Y188517D01*
X416798Y189341D01*
X415125Y189848D01*
X413386Y190019D01*
D02*
G37*
G36*
X429413Y240626D02*
X428346Y240485D01*
X427351Y240073D01*
X426496Y239417D01*
X416024Y228945D01*
X415125Y229218D01*
X413386Y229389D01*
X411646Y229218D01*
X409973Y228711D01*
X408432Y227887D01*
X407081Y226778D01*
X405972Y225426D01*
X405148Y223885D01*
X404640Y222212D01*
X404469Y220472D01*
X404640Y218733D01*
X405148Y217060D01*
X405972Y215518D01*
X407081Y214167D01*
X408432Y213058D01*
X409973Y212234D01*
X411646Y211727D01*
X413386Y211556D01*
X415125Y211727D01*
X416798Y212234D01*
X418340Y213058D01*
X419691Y214167D01*
X420800Y215518D01*
X421624Y217060D01*
X422131Y218733D01*
X422303Y220472D01*
X422131Y222212D01*
X421859Y223111D01*
X431122Y232374D01*
X448291D01*
X456074Y224591D01*
Y196568D01*
X455574Y196361D01*
X442917Y209017D01*
X442063Y209673D01*
X441480Y209914D01*
X441068Y210085D01*
X440000Y210226D01*
X401908D01*
X394300Y217834D01*
X394572Y218733D01*
X394744Y220472D01*
X394572Y222212D01*
X394065Y223885D01*
X393241Y225426D01*
X392132Y226778D01*
X390781Y227887D01*
X389239Y228711D01*
X387566Y229218D01*
X385827Y229389D01*
X384087Y229218D01*
X382414Y228711D01*
X380873Y227887D01*
X379522Y226778D01*
X378413Y225426D01*
X377589Y223885D01*
X377081Y222212D01*
X376910Y220472D01*
X377081Y218733D01*
X377589Y217060D01*
X378413Y215518D01*
X379522Y214167D01*
X380873Y213058D01*
X382414Y212234D01*
X384087Y211727D01*
X385827Y211556D01*
X387566Y211727D01*
X388465Y211999D01*
X397282Y203183D01*
X397282Y203183D01*
X398136Y202527D01*
X399131Y202115D01*
X400199Y201974D01*
X438291D01*
X448874Y191391D01*
Y186121D01*
X448389Y186000D01*
X448359Y186056D01*
X447250Y187408D01*
X445899Y188517D01*
X444357Y189341D01*
X442684Y189848D01*
X440945Y190019D01*
X439205Y189848D01*
X437532Y189341D01*
X435991Y188517D01*
X434640Y187408D01*
X433531Y186056D01*
X432707Y184515D01*
X432199Y182842D01*
X432028Y181102D01*
X432199Y179363D01*
X432472Y178464D01*
X422033Y168026D01*
X390000D01*
X390000Y168026D01*
X388932Y167885D01*
X387937Y167473D01*
X387083Y166817D01*
X387083Y166817D01*
X379957Y159691D01*
X379301Y158837D01*
X379060Y158254D01*
X378889Y157842D01*
X378748Y156774D01*
Y154763D01*
X377936Y154427D01*
X376481Y153535D01*
X375184Y152427D01*
X374075Y151129D01*
X373183Y149674D01*
X372530Y148097D01*
X372132Y146438D01*
X371998Y144736D01*
X372132Y143035D01*
X372530Y141375D01*
X373183Y139799D01*
X374075Y138343D01*
X375184Y137046D01*
X376481Y135937D01*
X377936Y135046D01*
X379513Y134392D01*
X381173Y133994D01*
X382874Y133860D01*
X384575Y133994D01*
X386020Y134341D01*
X386254Y133883D01*
X386010Y133675D01*
X384902Y132377D01*
X384010Y130922D01*
X383357Y129345D01*
X382959Y127686D01*
X382825Y125984D01*
X382959Y124283D01*
X383357Y122623D01*
X384010Y121047D01*
X384902Y119591D01*
X386010Y118294D01*
X387308Y117185D01*
X388763Y116294D01*
X390340Y115640D01*
X391999Y115242D01*
X393701Y115108D01*
X395402Y115242D01*
X397062Y115640D01*
X398638Y116294D01*
X400094Y117185D01*
X401391Y118294D01*
X402500Y119591D01*
X403391Y121047D01*
X404044Y122623D01*
X404443Y124283D01*
X404577Y125984D01*
X404443Y127686D01*
X404044Y129345D01*
X403391Y130922D01*
X402500Y132377D01*
X401391Y133675D01*
X401148Y133883D01*
X401381Y134341D01*
X402826Y133994D01*
X404528Y133860D01*
X406229Y133994D01*
X407889Y134392D01*
X409465Y135046D01*
X410920Y135937D01*
X412218Y137046D01*
X413327Y138343D01*
X414218Y139799D01*
X414871Y141375D01*
X415270Y143035D01*
X415404Y144736D01*
X415270Y146438D01*
X414871Y148097D01*
X414218Y149674D01*
X413327Y151129D01*
X412218Y152427D01*
X410920Y153535D01*
X409465Y154427D01*
X407889Y155080D01*
X406229Y155478D01*
X404528Y155612D01*
X402826Y155478D01*
X401167Y155080D01*
X399590Y154427D01*
X398135Y153535D01*
X396837Y152427D01*
X395729Y151129D01*
X394837Y149674D01*
X394184Y148097D01*
X393958Y147156D01*
X393444D01*
X393218Y148097D01*
X392565Y149674D01*
X391673Y151129D01*
X390564Y152427D01*
X389267Y153535D01*
X387812Y154427D01*
X387239Y154664D01*
X387160Y155225D01*
X391709Y159774D01*
X423742D01*
X424810Y159915D01*
X425222Y160085D01*
X425805Y160327D01*
X426660Y160983D01*
X438307Y172629D01*
X439205Y172357D01*
X440945Y172185D01*
X442684Y172357D01*
X444307Y172849D01*
X444318Y172843D01*
X444492Y172327D01*
X420083Y147917D01*
X419427Y147063D01*
X419185Y146480D01*
X419015Y146068D01*
X418874Y145000D01*
Y131996D01*
X414083Y127205D01*
X413427Y126350D01*
X413015Y125355D01*
X412874Y124287D01*
X413015Y123220D01*
X413427Y122224D01*
X414083Y121370D01*
X416174Y119279D01*
X415837Y118467D01*
X415439Y116808D01*
X415305Y115106D01*
X415439Y113405D01*
X415837Y111745D01*
X416491Y110169D01*
X417382Y108713D01*
X418491Y107416D01*
X419788Y106307D01*
X421244Y105416D01*
X422820Y104762D01*
X424480Y104364D01*
X426181Y104230D01*
X427883Y104364D01*
X429542Y104762D01*
X431119Y105416D01*
X432574Y106307D01*
X433872Y107416D01*
X434980Y108713D01*
X435872Y110169D01*
X436525Y111745D01*
X436751Y112686D01*
X437265D01*
X437491Y111745D01*
X438144Y110169D01*
X439036Y108713D01*
X440144Y107416D01*
X441442Y106307D01*
X442897Y105416D01*
X444474Y104762D01*
X446133Y104364D01*
X447835Y104230D01*
X449536Y104364D01*
X451195Y104762D01*
X452772Y105416D01*
X454227Y106307D01*
X455525Y107416D01*
X456634Y108713D01*
X457525Y110169D01*
X458178Y111745D01*
X458577Y113405D01*
X458711Y115106D01*
X458577Y116808D01*
X458178Y118467D01*
X457842Y119279D01*
X463039Y124476D01*
X463434Y124164D01*
X462750Y123048D01*
X462097Y121471D01*
X461699Y119812D01*
X461565Y118110D01*
X461699Y116409D01*
X462097Y114749D01*
X462750Y113173D01*
X463642Y111717D01*
X464750Y110420D01*
X466048Y109311D01*
X467503Y108420D01*
X469080Y107766D01*
X470740Y107368D01*
X472441Y107234D01*
X474142Y107368D01*
X475802Y107766D01*
X477379Y108420D01*
X478834Y109311D01*
X480131Y110420D01*
X481240Y111717D01*
X482132Y113173D01*
X482785Y114749D01*
X483183Y116409D01*
X483317Y118110D01*
X483183Y119812D01*
X482785Y121471D01*
X482132Y123048D01*
X481240Y124503D01*
X480131Y125801D01*
X478834Y126909D01*
X477379Y127801D01*
X475802Y128454D01*
X474142Y128852D01*
X472441Y128986D01*
X470740Y128852D01*
X469080Y128454D01*
X467503Y127801D01*
X466048Y126909D01*
X464750Y125801D01*
X464176Y125128D01*
X463773Y125409D01*
X464185Y126404D01*
X464256Y126938D01*
X464326Y127472D01*
X464326Y127472D01*
Y226300D01*
X464326Y226300D01*
X464256Y226834D01*
X464185Y227368D01*
X464014Y227780D01*
X463773Y228363D01*
X463117Y229217D01*
X452917Y239417D01*
X452063Y240073D01*
X451480Y240315D01*
X451068Y240485D01*
X450000Y240626D01*
X429414D01*
X429413Y240626D01*
D02*
G37*
G36*
X165354Y390803D02*
X163344Y390645D01*
X161383Y390175D01*
X159520Y389403D01*
X157801Y388349D01*
X156268Y387040D01*
X154958Y385506D01*
X153904Y383787D01*
X153133Y381924D01*
X152662Y379963D01*
X152504Y377953D01*
X152662Y375942D01*
X153133Y373982D01*
X153904Y372119D01*
X154958Y370399D01*
X156268Y368866D01*
X157801Y367556D01*
X159520Y366503D01*
X161383Y365731D01*
X163344Y365260D01*
X165354Y365102D01*
X167365Y365260D01*
X169325Y365731D01*
X171188Y366503D01*
X172908Y367556D01*
X174441Y368866D01*
X175751Y370399D01*
X176804Y372119D01*
X177576Y373982D01*
X178047Y375942D01*
X178205Y377953D01*
X178047Y379963D01*
X177576Y381924D01*
X176804Y383787D01*
X175751Y385506D01*
X174441Y387040D01*
X172908Y388349D01*
X171188Y389403D01*
X169325Y390175D01*
X167365Y390645D01*
X165354Y390803D01*
D02*
G37*
G36*
X161417Y467569D02*
X160064Y467436D01*
X158762Y467041D01*
X157562Y466399D01*
X156511Y465537D01*
X155648Y464485D01*
X155007Y463285D01*
X154612Y461984D01*
X154478Y460630D01*
X154612Y459276D01*
X155007Y457975D01*
X155648Y456775D01*
X156511Y455723D01*
X157562Y454860D01*
X158762Y454219D01*
X160064Y453824D01*
X161417Y453691D01*
X162771Y453824D01*
X164073Y454219D01*
X165272Y454860D01*
X166324Y455723D01*
X167187Y456775D01*
X167828Y457975D01*
X168223Y459276D01*
X168356Y460630D01*
X168223Y461984D01*
X167828Y463285D01*
X167187Y464485D01*
X166324Y465537D01*
X165272Y466399D01*
X164073Y467041D01*
X162771Y467436D01*
X161417Y467569D01*
D02*
G37*
G36*
X228346D02*
X226993Y467436D01*
X225691Y467041D01*
X224491Y466399D01*
X223440Y465537D01*
X222577Y464485D01*
X221936Y463285D01*
X221541Y461984D01*
X221408Y460630D01*
X221541Y459276D01*
X221936Y457975D01*
X222577Y456775D01*
X223440Y455723D01*
X224491Y454860D01*
X225691Y454219D01*
X226993Y453824D01*
X228346Y453691D01*
X229700Y453824D01*
X231002Y454219D01*
X232202Y454860D01*
X233253Y455723D01*
X234116Y456775D01*
X234757Y457975D01*
X235152Y459276D01*
X235285Y460630D01*
X235152Y461984D01*
X234757Y463285D01*
X234116Y464485D01*
X233253Y465537D01*
X232202Y466399D01*
X231002Y467041D01*
X229700Y467436D01*
X228346Y467569D01*
D02*
G37*
G36*
X248031D02*
X246678Y467436D01*
X245376Y467041D01*
X244176Y466399D01*
X243125Y465537D01*
X242262Y464485D01*
X241621Y463285D01*
X241226Y461984D01*
X241092Y460630D01*
X241226Y459276D01*
X241621Y457975D01*
X242262Y456775D01*
X243125Y455723D01*
X244176Y454860D01*
X245376Y454219D01*
X246678Y453824D01*
X248031Y453691D01*
X249385Y453824D01*
X250687Y454219D01*
X251887Y454860D01*
X252938Y455723D01*
X253801Y456775D01*
X254442Y457975D01*
X254837Y459276D01*
X254970Y460630D01*
X254837Y461984D01*
X254442Y463285D01*
X253801Y464485D01*
X252938Y465537D01*
X251887Y466399D01*
X250687Y467041D01*
X249385Y467436D01*
X248031Y467569D01*
D02*
G37*
G36*
X405512Y432136D02*
X404158Y432002D01*
X402856Y431607D01*
X401657Y430966D01*
X400605Y430103D01*
X399742Y429052D01*
X399101Y427852D01*
X398706Y426550D01*
X398573Y425197D01*
X398706Y423843D01*
X399101Y422541D01*
X399742Y421342D01*
X400605Y420290D01*
X401657Y419427D01*
X402856Y418786D01*
X404158Y418391D01*
X405512Y418258D01*
X406866Y418391D01*
X408167Y418786D01*
X409367Y419427D01*
X410418Y420290D01*
X411281Y421342D01*
X411923Y422541D01*
X412317Y423843D01*
X412451Y425197D01*
X412317Y426550D01*
X411923Y427852D01*
X411281Y429052D01*
X410418Y430103D01*
X409367Y430966D01*
X408167Y431607D01*
X406866Y432002D01*
X405512Y432136D01*
D02*
G37*
G36*
X425197D02*
X423843Y432002D01*
X422541Y431607D01*
X421342Y430966D01*
X420290Y430103D01*
X419427Y429052D01*
X418786Y427852D01*
X418391Y426550D01*
X418258Y425197D01*
X418391Y423843D01*
X418786Y422541D01*
X419427Y421342D01*
X420290Y420290D01*
X421342Y419427D01*
X422541Y418786D01*
X423843Y418391D01*
X425197Y418258D01*
X426550Y418391D01*
X427852Y418786D01*
X429052Y419427D01*
X430103Y420290D01*
X430966Y421342D01*
X431607Y422541D01*
X432002Y423843D01*
X432136Y425197D01*
X432002Y426550D01*
X431607Y427852D01*
X430966Y429052D01*
X430103Y430103D01*
X429052Y430966D01*
X427852Y431607D01*
X426550Y432002D01*
X425197Y432136D01*
D02*
G37*
G36*
X141732Y467569D02*
X140378Y467436D01*
X139077Y467041D01*
X137877Y466399D01*
X136826Y465537D01*
X135963Y464485D01*
X135321Y463285D01*
X134927Y461984D01*
X134793Y460630D01*
X134927Y459276D01*
X135321Y457975D01*
X135963Y456775D01*
X136826Y455723D01*
X137877Y454860D01*
X139077Y454219D01*
X140378Y453824D01*
X141732Y453691D01*
X143086Y453824D01*
X144388Y454219D01*
X145587Y454860D01*
X146639Y455723D01*
X147502Y456775D01*
X148143Y457975D01*
X148538Y459276D01*
X148671Y460630D01*
X148538Y461984D01*
X148143Y463285D01*
X147502Y464485D01*
X146639Y465537D01*
X145587Y466399D01*
X144388Y467041D01*
X143086Y467436D01*
X141732Y467569D01*
D02*
G37*
G36*
X421260D02*
X419906Y467436D01*
X418604Y467041D01*
X417405Y466399D01*
X416353Y465537D01*
X415490Y464485D01*
X414849Y463285D01*
X414454Y461984D01*
X414321Y460630D01*
X414454Y459276D01*
X414849Y457975D01*
X415490Y456775D01*
X416353Y455723D01*
X417405Y454860D01*
X418604Y454219D01*
X419906Y453824D01*
X421260Y453691D01*
X422613Y453824D01*
X423915Y454219D01*
X425115Y454860D01*
X426166Y455723D01*
X427029Y456775D01*
X427670Y457975D01*
X428065Y459276D01*
X428199Y460630D01*
X428065Y461984D01*
X427670Y463285D01*
X427029Y464485D01*
X426166Y465537D01*
X425115Y466399D01*
X423915Y467041D01*
X422613Y467436D01*
X421260Y467569D01*
D02*
G37*
G36*
X118110Y483317D02*
X116409Y483183D01*
X114749Y482785D01*
X113173Y482132D01*
X111717Y481240D01*
X110420Y480131D01*
X109311Y478834D01*
X108420Y477379D01*
X107766Y475802D01*
X107368Y474142D01*
X107234Y472441D01*
X107368Y470740D01*
X107766Y469080D01*
X108420Y467503D01*
X109311Y466048D01*
X110420Y464750D01*
X111717Y463642D01*
X113173Y462750D01*
X114749Y462097D01*
X116409Y461699D01*
X118110Y461565D01*
X119812Y461699D01*
X121471Y462097D01*
X123048Y462750D01*
X124503Y463642D01*
X125801Y464750D01*
X126909Y466048D01*
X127801Y467503D01*
X128454Y469080D01*
X128852Y470740D01*
X128986Y472441D01*
X128852Y474142D01*
X128454Y475802D01*
X127801Y477379D01*
X126909Y478834D01*
X125801Y480131D01*
X124503Y481240D01*
X123048Y482132D01*
X121471Y482785D01*
X119812Y483183D01*
X118110Y483317D01*
D02*
G37*
G36*
X472441D02*
X470740Y483183D01*
X469080Y482785D01*
X467503Y482132D01*
X466048Y481240D01*
X464750Y480131D01*
X463642Y478834D01*
X462750Y477379D01*
X462097Y475802D01*
X461699Y474142D01*
X461565Y472441D01*
X461699Y470740D01*
X462097Y469080D01*
X462750Y467503D01*
X463642Y466048D01*
X464750Y464750D01*
X466048Y463642D01*
X467503Y462750D01*
X469080Y462097D01*
X470740Y461699D01*
X472441Y461565D01*
X474142Y461699D01*
X475802Y462097D01*
X477379Y462750D01*
X478834Y463642D01*
X480131Y464750D01*
X481240Y466048D01*
X482132Y467503D01*
X482785Y469080D01*
X483183Y470740D01*
X483317Y472441D01*
X483183Y474142D01*
X482785Y475802D01*
X482132Y477379D01*
X481240Y478834D01*
X480131Y480131D01*
X478834Y481240D01*
X477379Y482132D01*
X475802Y482785D01*
X474142Y483183D01*
X472441Y483317D01*
D02*
G37*
G36*
X314961Y467569D02*
X313607Y467436D01*
X312305Y467041D01*
X311105Y466399D01*
X310054Y465537D01*
X309191Y464485D01*
X308550Y463285D01*
X308155Y461984D01*
X308022Y460630D01*
X308155Y459276D01*
X308550Y457975D01*
X309191Y456775D01*
X310054Y455723D01*
X311105Y454860D01*
X312305Y454219D01*
X313607Y453824D01*
X314961Y453691D01*
X316314Y453824D01*
X317616Y454219D01*
X318816Y454860D01*
X319867Y455723D01*
X320730Y456775D01*
X321371Y457975D01*
X321766Y459276D01*
X321900Y460630D01*
X321766Y461984D01*
X321371Y463285D01*
X320730Y464485D01*
X319867Y465537D01*
X318816Y466399D01*
X317616Y467041D01*
X316314Y467436D01*
X314961Y467569D01*
D02*
G37*
G36*
X334646D02*
X333292Y467436D01*
X331990Y467041D01*
X330790Y466399D01*
X329739Y465537D01*
X328876Y464485D01*
X328235Y463285D01*
X327840Y461984D01*
X327707Y460630D01*
X327840Y459276D01*
X328235Y457975D01*
X328876Y456775D01*
X329739Y455723D01*
X330790Y454860D01*
X331990Y454219D01*
X333292Y453824D01*
X334646Y453691D01*
X335999Y453824D01*
X337301Y454219D01*
X338501Y454860D01*
X339552Y455723D01*
X340415Y456775D01*
X341056Y457975D01*
X341451Y459276D01*
X341584Y460630D01*
X341451Y461984D01*
X341056Y463285D01*
X340415Y464485D01*
X339552Y465537D01*
X338501Y466399D01*
X337301Y467041D01*
X335999Y467436D01*
X334646Y467569D01*
D02*
G37*
G36*
X401575D02*
X400221Y467436D01*
X398919Y467041D01*
X397720Y466399D01*
X396668Y465537D01*
X395805Y464485D01*
X395164Y463285D01*
X394769Y461984D01*
X394636Y460630D01*
X394769Y459276D01*
X395164Y457975D01*
X395805Y456775D01*
X396668Y455723D01*
X397720Y454860D01*
X398919Y454219D01*
X400221Y453824D01*
X401575Y453691D01*
X402928Y453824D01*
X404230Y454219D01*
X405430Y454860D01*
X406481Y455723D01*
X407344Y456775D01*
X407985Y457975D01*
X408380Y459276D01*
X408514Y460630D01*
X408380Y461984D01*
X407985Y463285D01*
X407344Y464485D01*
X406481Y465537D01*
X405430Y466399D01*
X404230Y467041D01*
X402928Y467436D01*
X401575Y467569D01*
D02*
G37*
G36*
X346457Y390803D02*
X344446Y390645D01*
X342485Y390175D01*
X340622Y389403D01*
X338903Y388349D01*
X337370Y387040D01*
X336060Y385506D01*
X335007Y383787D01*
X334235Y381924D01*
X333764Y379963D01*
X333606Y377953D01*
X333764Y375942D01*
X334235Y373982D01*
X335007Y372119D01*
X336060Y370399D01*
X337370Y368866D01*
X338903Y367556D01*
X340622Y366503D01*
X342485Y365731D01*
X344446Y365260D01*
X346457Y365102D01*
X348467Y365260D01*
X350428Y365731D01*
X352291Y366503D01*
X354010Y367556D01*
X355543Y368866D01*
X356853Y370399D01*
X357907Y372119D01*
X358678Y373982D01*
X359149Y375942D01*
X359307Y377953D01*
X359149Y379963D01*
X358678Y381924D01*
X357907Y383787D01*
X356853Y385506D01*
X355543Y387040D01*
X354010Y388349D01*
X352291Y389403D01*
X350428Y390175D01*
X348467Y390645D01*
X346457Y390803D01*
D02*
G37*
G36*
X393701D02*
X391690Y390645D01*
X389730Y390175D01*
X387867Y389403D01*
X386147Y388349D01*
X384614Y387040D01*
X383304Y385506D01*
X382251Y383787D01*
X381479Y381924D01*
X381008Y379963D01*
X380850Y377953D01*
X381008Y375942D01*
X381479Y373982D01*
X382251Y372119D01*
X383304Y370399D01*
X384614Y368866D01*
X386147Y367556D01*
X387867Y366503D01*
X389730Y365731D01*
X391690Y365260D01*
X393701Y365102D01*
X395711Y365260D01*
X397672Y365731D01*
X399535Y366503D01*
X401254Y367556D01*
X402788Y368866D01*
X404097Y370399D01*
X405151Y372119D01*
X405923Y373982D01*
X406393Y375942D01*
X406551Y377953D01*
X406393Y379963D01*
X405923Y381924D01*
X405151Y383787D01*
X404097Y385506D01*
X402788Y387040D01*
X401254Y388349D01*
X399535Y389403D01*
X397672Y390175D01*
X395711Y390645D01*
X393701Y390803D01*
D02*
G37*
G36*
X433071D02*
X431061Y390645D01*
X429100Y390175D01*
X427237Y389403D01*
X425517Y388349D01*
X423984Y387040D01*
X422674Y385506D01*
X421621Y383787D01*
X420849Y381924D01*
X420378Y379963D01*
X420220Y377953D01*
X420378Y375942D01*
X420849Y373982D01*
X421621Y372119D01*
X422674Y370399D01*
X423984Y368866D01*
X425517Y367556D01*
X427237Y366503D01*
X429100Y365731D01*
X431061Y365260D01*
X433071Y365102D01*
X435081Y365260D01*
X437042Y365731D01*
X438905Y366503D01*
X440624Y367556D01*
X442158Y368866D01*
X443467Y370399D01*
X444521Y372119D01*
X445293Y373982D01*
X445763Y375942D01*
X445921Y377953D01*
X445763Y379963D01*
X445293Y381924D01*
X444521Y383787D01*
X443467Y385506D01*
X442158Y387040D01*
X440624Y388349D01*
X438905Y389403D01*
X437042Y390175D01*
X435081Y390645D01*
X433071Y390803D01*
D02*
G37*
G36*
X220472D02*
X218462Y390645D01*
X216501Y390175D01*
X214638Y389403D01*
X212919Y388349D01*
X211386Y387040D01*
X210076Y385506D01*
X209022Y383787D01*
X208251Y381924D01*
X207780Y379963D01*
X207622Y377953D01*
X207780Y375942D01*
X208251Y373982D01*
X209022Y372119D01*
X210076Y370399D01*
X211386Y368866D01*
X212919Y367556D01*
X214638Y366503D01*
X216501Y365731D01*
X218462Y365260D01*
X220472Y365102D01*
X222483Y365260D01*
X224444Y365731D01*
X226307Y366503D01*
X228026Y367556D01*
X229559Y368866D01*
X230869Y370399D01*
X231922Y372119D01*
X232694Y373982D01*
X233165Y375942D01*
X233323Y377953D01*
X233165Y379963D01*
X232694Y381924D01*
X231922Y383787D01*
X230869Y385506D01*
X229559Y387040D01*
X228026Y388349D01*
X226307Y389403D01*
X224444Y390175D01*
X222483Y390645D01*
X220472Y390803D01*
D02*
G37*
G36*
X259843D02*
X257832Y390645D01*
X255872Y390175D01*
X254009Y389403D01*
X252289Y388349D01*
X250756Y387040D01*
X249446Y385506D01*
X248393Y383787D01*
X247621Y381924D01*
X247150Y379963D01*
X246992Y377953D01*
X247150Y375942D01*
X247621Y373982D01*
X248393Y372119D01*
X249446Y370399D01*
X250756Y368866D01*
X252289Y367556D01*
X254009Y366503D01*
X255872Y365731D01*
X257832Y365260D01*
X259843Y365102D01*
X261853Y365260D01*
X263814Y365731D01*
X265677Y366503D01*
X267396Y367556D01*
X268929Y368866D01*
X270239Y370399D01*
X271293Y372119D01*
X272064Y373982D01*
X272535Y375942D01*
X272693Y377953D01*
X272535Y379963D01*
X272064Y381924D01*
X271293Y383787D01*
X270239Y385506D01*
X268929Y387040D01*
X267396Y388349D01*
X265677Y389403D01*
X263814Y390175D01*
X261853Y390645D01*
X259843Y390803D01*
D02*
G37*
G36*
X307087D02*
X305076Y390645D01*
X303116Y390175D01*
X301253Y389403D01*
X299533Y388349D01*
X298000Y387040D01*
X296690Y385506D01*
X295637Y383787D01*
X294865Y381924D01*
X294394Y379963D01*
X294236Y377953D01*
X294394Y375942D01*
X294865Y373982D01*
X295637Y372119D01*
X296690Y370399D01*
X298000Y368866D01*
X299533Y367556D01*
X301253Y366503D01*
X303116Y365731D01*
X305076Y365260D01*
X307087Y365102D01*
X309097Y365260D01*
X311058Y365731D01*
X312921Y366503D01*
X314640Y367556D01*
X316173Y368866D01*
X317483Y370399D01*
X318537Y372119D01*
X319308Y373982D01*
X319779Y375942D01*
X319937Y377953D01*
X319779Y379963D01*
X319308Y381924D01*
X318537Y383787D01*
X317483Y385506D01*
X316173Y387040D01*
X314640Y388349D01*
X312921Y389403D01*
X311058Y390175D01*
X309097Y390645D01*
X307087Y390803D01*
D02*
G37*
G36*
X251969Y432136D02*
X250615Y432002D01*
X249313Y431607D01*
X248113Y430966D01*
X247062Y430103D01*
X246199Y429052D01*
X245558Y427852D01*
X245163Y426550D01*
X245030Y425197D01*
X245163Y423843D01*
X245558Y422541D01*
X246199Y421342D01*
X247062Y420290D01*
X248113Y419427D01*
X249313Y418786D01*
X250615Y418391D01*
X251969Y418258D01*
X253322Y418391D01*
X254624Y418786D01*
X255824Y419427D01*
X256875Y420290D01*
X257738Y421342D01*
X258379Y422541D01*
X258774Y423843D01*
X258908Y425197D01*
X258774Y426550D01*
X258379Y427852D01*
X257738Y429052D01*
X256875Y430103D01*
X255824Y430966D01*
X254624Y431607D01*
X253322Y432002D01*
X251969Y432136D01*
D02*
G37*
G36*
X318898D02*
X317544Y432002D01*
X316242Y431607D01*
X315042Y430966D01*
X313991Y430103D01*
X313128Y429052D01*
X312487Y427852D01*
X312092Y426550D01*
X311959Y425197D01*
X312092Y423843D01*
X312487Y422541D01*
X313128Y421342D01*
X313991Y420290D01*
X315042Y419427D01*
X316242Y418786D01*
X317544Y418391D01*
X318898Y418258D01*
X320251Y418391D01*
X321553Y418786D01*
X322753Y419427D01*
X323804Y420290D01*
X324667Y421342D01*
X325308Y422541D01*
X325703Y423843D01*
X325836Y425197D01*
X325703Y426550D01*
X325308Y427852D01*
X324667Y429052D01*
X323804Y430103D01*
X322753Y430966D01*
X321553Y431607D01*
X320251Y432002D01*
X318898Y432136D01*
D02*
G37*
G36*
X338583D02*
X337229Y432002D01*
X335927Y431607D01*
X334728Y430966D01*
X333676Y430103D01*
X332813Y429052D01*
X332172Y427852D01*
X331777Y426550D01*
X331644Y425197D01*
X331777Y423843D01*
X332172Y422541D01*
X332813Y421342D01*
X333676Y420290D01*
X334728Y419427D01*
X335927Y418786D01*
X337229Y418391D01*
X338583Y418258D01*
X339936Y418391D01*
X341238Y418786D01*
X342438Y419427D01*
X343489Y420290D01*
X344352Y421342D01*
X344993Y422541D01*
X345388Y423843D01*
X345521Y425197D01*
X345388Y426550D01*
X344993Y427852D01*
X344352Y429052D01*
X343489Y430103D01*
X342438Y430966D01*
X341238Y431607D01*
X339936Y432002D01*
X338583Y432136D01*
D02*
G37*
G36*
X161417D02*
X160064Y432002D01*
X158762Y431607D01*
X157562Y430966D01*
X156511Y430103D01*
X155648Y429052D01*
X155007Y427852D01*
X154612Y426550D01*
X154479Y425197D01*
X154612Y423843D01*
X155007Y422541D01*
X155648Y421342D01*
X156511Y420290D01*
X157562Y419427D01*
X158762Y418786D01*
X160064Y418391D01*
X161417Y418258D01*
X162771Y418391D01*
X164073Y418786D01*
X165272Y419427D01*
X166324Y420290D01*
X167187Y421342D01*
X167828Y422541D01*
X168223Y423843D01*
X168356Y425197D01*
X168223Y426550D01*
X167828Y427852D01*
X167187Y429052D01*
X166324Y430103D01*
X165272Y430966D01*
X164073Y431607D01*
X162771Y432002D01*
X161417Y432136D01*
D02*
G37*
G36*
X141732D02*
X140378Y432002D01*
X139077Y431607D01*
X137877Y430966D01*
X136826Y430103D01*
X135963Y429052D01*
X135321Y427852D01*
X134927Y426550D01*
X134793Y425197D01*
X134927Y423843D01*
X135321Y422541D01*
X135963Y421342D01*
X136826Y420290D01*
X137877Y419427D01*
X139077Y418786D01*
X140378Y418391D01*
X141732Y418258D01*
X143086Y418391D01*
X144388Y418786D01*
X145587Y419427D01*
X146639Y420290D01*
X147502Y421342D01*
X148143Y422541D01*
X148538Y423843D01*
X148671Y425197D01*
X148538Y426550D01*
X148143Y427852D01*
X147502Y429052D01*
X146639Y430103D01*
X145587Y430966D01*
X144388Y431607D01*
X143086Y432002D01*
X141732Y432136D01*
D02*
G37*
G36*
X232283D02*
X230930Y432002D01*
X229628Y431607D01*
X228428Y430966D01*
X227377Y430103D01*
X226514Y429052D01*
X225873Y427852D01*
X225478Y426550D01*
X225344Y425197D01*
X225478Y423843D01*
X225873Y422541D01*
X226514Y421342D01*
X227377Y420290D01*
X228428Y419427D01*
X229628Y418786D01*
X230930Y418391D01*
X232283Y418258D01*
X233637Y418391D01*
X234939Y418786D01*
X236139Y419427D01*
X237190Y420290D01*
X238053Y421342D01*
X238694Y422541D01*
X239089Y423843D01*
X239222Y425197D01*
X239089Y426550D01*
X238694Y427852D01*
X238053Y429052D01*
X237190Y430103D01*
X236139Y430966D01*
X234939Y431607D01*
X233637Y432002D01*
X232283Y432136D01*
D02*
G37*
%LPD*%
G36*
X456074Y171532D02*
Y129181D01*
X452007Y125114D01*
X451195Y125450D01*
X449536Y125848D01*
X447835Y125982D01*
X446133Y125848D01*
X444688Y125501D01*
X444455Y125960D01*
X444698Y126168D01*
X445807Y127465D01*
X446698Y128921D01*
X447352Y130497D01*
X447750Y132157D01*
X447884Y133858D01*
X447750Y135560D01*
X447352Y137219D01*
X446698Y138796D01*
X445807Y140251D01*
X444698Y141549D01*
X443401Y142657D01*
X441945Y143549D01*
X440369Y144202D01*
X438709Y144600D01*
X437008Y144734D01*
X435306Y144600D01*
X433647Y144202D01*
X432070Y143549D01*
X430615Y142657D01*
X429317Y141549D01*
X428209Y140251D01*
X427626Y139299D01*
X427126Y139441D01*
Y143291D01*
X455574Y171739D01*
X456074Y171532D01*
D02*
G37*
D10*
X129921Y149606D02*
X146615Y166300D01*
X158426D01*
X173228Y181102D01*
X159269Y104100D02*
X170276Y115106D01*
X110000Y104100D02*
X159269D01*
X104100Y110000D02*
X110000Y104100D01*
X104100Y110000D02*
Y206462D01*
X118110Y220472D01*
X212598D02*
X238471Y194600D01*
X275100D01*
X279700Y190000D01*
Y173800D02*
Y190000D01*
X239900Y134000D02*
X279700Y173800D01*
X239900Y124222D02*
Y134000D01*
Y124222D02*
X249016Y115106D01*
X385827Y220472D02*
X400199Y206100D01*
X440000D01*
X453000Y193100D01*
Y175000D02*
Y193100D01*
X423000Y145000D02*
X453000Y175000D01*
X423000Y130287D02*
Y145000D01*
X417000Y124287D02*
X423000Y130287D01*
X417000Y124287D02*
X426181Y115106D01*
X447835D02*
X460200Y127472D01*
Y226300D01*
X450000Y236500D02*
X460200Y226300D01*
X429413Y236500D02*
X450000D01*
X413386Y220472D02*
X429413Y236500D01*
X326772Y220472D02*
X344344Y202900D01*
X356500D01*
X366300Y193100D01*
Y128386D02*
Y193100D01*
Y128386D02*
X370400Y124286D01*
X361221Y115106D02*
X370400Y124286D01*
X240157Y220472D02*
X253630Y207000D01*
X280000D01*
X286900Y200100D01*
Y166700D02*
Y200100D01*
X282300Y162100D02*
X286900Y166700D01*
X282300Y126737D02*
Y162100D01*
X270669Y115106D02*
X282300Y126737D01*
X191929Y115106D02*
X201100Y124277D01*
Y135732D01*
X185200Y151632D02*
X201100Y135732D01*
X185200Y151632D02*
Y190000D01*
X154728Y220472D02*
X185200Y190000D01*
X145669Y220472D02*
X154728D01*
X337128Y163900D02*
X354331Y181102D01*
X315424Y163900D02*
X337128D01*
X296260Y144736D02*
X315424Y163900D01*
X423742D02*
X440945Y181102D01*
X390000Y163900D02*
X423742D01*
X382874Y156774D02*
X390000Y163900D01*
X382874Y144736D02*
Y156774D01*
X252914Y166300D02*
X267717Y181102D01*
X225355Y166300D02*
X252914D01*
X208661Y149606D02*
X225355Y166300D01*
D11*
X118110Y472441D02*
D03*
Y118110D02*
D03*
X472441D02*
D03*
Y472441D02*
D03*
X437008Y133858D02*
D03*
X426181Y115106D02*
D03*
X447835D02*
D03*
X307087Y125984D02*
D03*
X296260Y144736D02*
D03*
X317913D02*
D03*
X259843Y133858D02*
D03*
X249016Y115106D02*
D03*
X270669D02*
D03*
X181102Y133858D02*
D03*
X170276Y115106D02*
D03*
X191929D02*
D03*
X393701Y125984D02*
D03*
X382874Y144736D02*
D03*
X404528D02*
D03*
X350394Y133858D02*
D03*
X339567Y115106D02*
D03*
X361221D02*
D03*
X219488Y130855D02*
D03*
X208661Y149606D02*
D03*
X230315D02*
D03*
X140748Y130855D02*
D03*
X129921Y149606D02*
D03*
X151575D02*
D03*
D12*
X161417Y460630D02*
D03*
X141732D02*
D03*
X248031D02*
D03*
X228346D02*
D03*
X421260D02*
D03*
X401575D02*
D03*
X334646D02*
D03*
X314961D02*
D03*
X405512Y425197D02*
D03*
X425197D02*
D03*
X318898D02*
D03*
X338583D02*
D03*
X232283D02*
D03*
X251969D02*
D03*
X141732D02*
D03*
X161417D02*
D03*
D13*
X385827Y181102D02*
D03*
X413386D02*
D03*
X440945D02*
D03*
X267717Y220472D02*
D03*
X240157D02*
D03*
X212598D02*
D03*
X173228D02*
D03*
X145669D02*
D03*
X118110D02*
D03*
X299213Y181102D02*
D03*
X326772D02*
D03*
X354331D02*
D03*
X440945Y220472D02*
D03*
X413386D02*
D03*
X385827D02*
D03*
X354331D02*
D03*
X326772D02*
D03*
X299213D02*
D03*
X212598Y181102D02*
D03*
X240157D02*
D03*
X267717D02*
D03*
X118110D02*
D03*
X145669D02*
D03*
X173228D02*
D03*
D14*
X433071Y338583D02*
D03*
X393701D02*
D03*
X220472Y377953D02*
D03*
X259843D02*
D03*
X125984D02*
D03*
X165354D02*
D03*
X346457Y338583D02*
D03*
X307087D02*
D03*
X393701Y377953D02*
D03*
X433071D02*
D03*
X307087D02*
D03*
X346457D02*
D03*
X259843Y338583D02*
D03*
X220472D02*
D03*
X165354D02*
D03*
X125984D02*
D03*
M02*
