G04 Layer_Color=20142*
%FSLAX24Y24*%
%MOIN*%
G70*
G01*
G75*
%ADD106O,0.0749X0.0218*%
%ADD107R,0.1261X0.1734*%
%ADD108R,0.1340X0.0671*%
%ADD109R,0.1340X0.0671*%
%ADD110R,0.0480X0.0520*%
%ADD111R,0.0651X0.0493*%
%ADD112O,0.0828X0.0316*%
%ADD113R,0.1182X0.0671*%
%ADD114R,0.0560X0.0438*%
%ADD115R,0.0671X0.1182*%
%ADD116O,0.0178X0.0631*%
%ADD117R,0.1123X0.0592*%
%ADD118R,0.0493X0.0533*%
%ADD119R,0.0690X0.0612*%
%ADD120R,0.0438X0.0560*%
%ADD121C,0.1261*%
%ADD122R,0.0592X0.0592*%
%ADD123C,0.0592*%
%ADD124R,0.0592X0.0592*%
%ADD125C,0.1655*%
%ADD126C,0.0680*%
%ADD127C,0.0710*%
%ADD128R,0.0780X0.0780*%
%ADD129C,0.0780*%
%ADD130R,0.0671X0.0671*%
%ADD131C,0.0671*%
%ADD132R,0.0710X0.0710*%
%ADD133C,0.1580*%
%ADD134C,0.0740*%
%ADD135C,0.2442*%
%ADD136C,0.0277*%
%ADD137C,0.0356*%
D106*
X27096Y40581D02*
D03*
Y40837D02*
D03*
Y41093D02*
D03*
Y41348D02*
D03*
Y41604D02*
D03*
Y41860D02*
D03*
Y42116D02*
D03*
Y42372D02*
D03*
Y42628D02*
D03*
Y42884D02*
D03*
X24852Y40581D02*
D03*
Y40837D02*
D03*
Y41093D02*
D03*
Y41348D02*
D03*
Y41604D02*
D03*
Y41860D02*
D03*
Y42116D02*
D03*
Y42372D02*
D03*
Y42628D02*
D03*
Y42884D02*
D03*
D107*
X25974Y41732D02*
D03*
D108*
X31693Y19980D02*
D03*
X31683Y27126D02*
D03*
D109*
X31693Y17382D02*
D03*
X31683Y24528D02*
D03*
D110*
X21850Y22861D02*
D03*
Y23536D02*
D03*
X21841Y20755D02*
D03*
Y21430D02*
D03*
X21654Y42182D02*
D03*
Y42857D02*
D03*
X28327Y41198D02*
D03*
Y41873D02*
D03*
X21654Y39314D02*
D03*
Y38639D02*
D03*
X18898Y38442D02*
D03*
Y39117D02*
D03*
D111*
X20069Y21722D02*
D03*
Y22293D02*
D03*
X25000Y39281D02*
D03*
Y39852D02*
D03*
D112*
X24537Y17567D02*
D03*
Y18067D02*
D03*
Y18567D02*
D03*
Y19067D02*
D03*
X22687Y17567D02*
D03*
Y18067D02*
D03*
Y18567D02*
D03*
Y19067D02*
D03*
X24469Y25461D02*
D03*
Y25961D02*
D03*
Y26461D02*
D03*
Y26961D02*
D03*
X22618Y25461D02*
D03*
Y25961D02*
D03*
Y26461D02*
D03*
Y26961D02*
D03*
D113*
X22244Y35630D02*
D03*
Y34449D02*
D03*
X25581Y22746D02*
D03*
Y21565D02*
D03*
X28346Y37795D02*
D03*
Y36614D02*
D03*
D114*
X25000Y35683D02*
D03*
Y34396D02*
D03*
D115*
X18898Y42520D02*
D03*
X20079D02*
D03*
D116*
X22825Y21250D02*
D03*
X23022D02*
D03*
X23219D02*
D03*
X23415D02*
D03*
X23612D02*
D03*
X23809D02*
D03*
X24006D02*
D03*
X24203D02*
D03*
X22825Y22864D02*
D03*
X23022D02*
D03*
X23219D02*
D03*
X23415D02*
D03*
X23612D02*
D03*
X23809D02*
D03*
X24006D02*
D03*
X24203D02*
D03*
D117*
X33858Y41841D02*
D03*
Y40049D02*
D03*
D118*
X23228Y42844D02*
D03*
Y42195D02*
D03*
X18898Y37333D02*
D03*
Y36683D02*
D03*
X26575Y34715D02*
D03*
Y35364D02*
D03*
D119*
X26378Y39754D02*
D03*
Y38986D02*
D03*
X23228Y40935D02*
D03*
Y40167D02*
D03*
X18898Y40935D02*
D03*
Y40167D02*
D03*
X20079Y34656D02*
D03*
Y35423D02*
D03*
D120*
X23372Y33465D02*
D03*
X24659D02*
D03*
D121*
X42520Y30709D02*
D03*
X34252Y47677D02*
D03*
X29528D02*
D03*
X42520Y24409D02*
D03*
X15748Y19291D02*
D03*
Y26378D02*
D03*
Y33465D02*
D03*
D122*
X40024Y35949D02*
D03*
X17618Y46161D02*
D03*
X22146Y46161D02*
D03*
X26280Y46161D02*
D03*
D123*
X40024Y36933D02*
D03*
X35366Y35016D02*
D03*
X17618Y45177D02*
D03*
X22146Y45177D02*
D03*
X26280Y45177D02*
D03*
D124*
X36350Y35016D02*
D03*
D125*
X13091Y34547D02*
D03*
Y32579D02*
D03*
X13022Y18376D02*
D03*
Y20344D02*
D03*
X12933Y25394D02*
D03*
Y27362D02*
D03*
X46870Y30453D02*
D03*
Y32421D02*
D03*
X46860Y23730D02*
D03*
Y25699D02*
D03*
D126*
X11811Y50394D02*
D03*
Y14961D02*
D03*
X47244D02*
D03*
Y50394D02*
D03*
X36959Y28307D02*
D03*
X32959D02*
D03*
X37018Y15108D02*
D03*
Y19108D02*
D03*
X35118Y19124D02*
D03*
Y15124D02*
D03*
D127*
X28167Y20502D02*
D03*
X27167D02*
D03*
X28177Y22490D02*
D03*
X27177D02*
D03*
X33974Y43307D02*
D03*
X33073D02*
D03*
X30431D02*
D03*
X29530D02*
D03*
D128*
X16663Y42417D02*
D03*
D129*
X17663D02*
D03*
D130*
X36526Y31004D02*
D03*
D131*
X34557D02*
D03*
D132*
X32171Y43307D02*
D03*
X28628D02*
D03*
D133*
X43281Y43906D02*
D03*
X37681D02*
D03*
D134*
X15453Y46169D02*
D03*
Y45169D02*
D03*
X19783Y46169D02*
D03*
Y45169D02*
D03*
X24311Y46169D02*
D03*
Y45169D02*
D03*
D135*
X12126Y44035D02*
D03*
Y46988D02*
D03*
D136*
X32091Y27850D02*
D03*
X21650Y18378D02*
D03*
Y18102D02*
D03*
X21374Y17827D02*
D03*
Y18102D02*
D03*
Y18378D02*
D03*
X21650Y17827D02*
D03*
X21114D02*
D03*
X20839Y18378D02*
D03*
Y18102D02*
D03*
Y17827D02*
D03*
X21114Y18102D02*
D03*
Y18378D02*
D03*
X25929Y18142D02*
D03*
Y17866D02*
D03*
X25654Y17591D02*
D03*
Y17866D02*
D03*
Y18142D02*
D03*
X25929Y17591D02*
D03*
X25394D02*
D03*
X25118Y18142D02*
D03*
Y17866D02*
D03*
Y17591D02*
D03*
X25394Y17866D02*
D03*
Y18142D02*
D03*
X32126Y16531D02*
D03*
Y16256D02*
D03*
X31850Y15980D02*
D03*
Y16256D02*
D03*
Y16531D02*
D03*
X32126Y15980D02*
D03*
X31591D02*
D03*
X31315Y16531D02*
D03*
Y16256D02*
D03*
Y15980D02*
D03*
X31591Y16256D02*
D03*
Y16531D02*
D03*
X32146Y20992D02*
D03*
Y20717D02*
D03*
X31870Y20441D02*
D03*
Y20717D02*
D03*
Y20992D02*
D03*
X32146Y20441D02*
D03*
X31610D02*
D03*
X31335Y20992D02*
D03*
Y20717D02*
D03*
Y20441D02*
D03*
X31610Y20717D02*
D03*
Y20992D02*
D03*
X32146Y23902D02*
D03*
Y23626D02*
D03*
X31870Y23350D02*
D03*
Y23626D02*
D03*
Y23902D02*
D03*
X32146Y23350D02*
D03*
X31610D02*
D03*
X31335Y23902D02*
D03*
Y23626D02*
D03*
Y23350D02*
D03*
X31610Y23626D02*
D03*
Y23902D02*
D03*
X32091Y28398D02*
D03*
Y28122D02*
D03*
X31815Y27846D02*
D03*
Y28122D02*
D03*
Y28398D02*
D03*
X31555Y27846D02*
D03*
X31280Y28398D02*
D03*
Y28122D02*
D03*
Y27846D02*
D03*
X31555Y28122D02*
D03*
Y28398D02*
D03*
X26189Y25654D02*
D03*
Y25378D02*
D03*
X25913Y25102D02*
D03*
Y25378D02*
D03*
Y25654D02*
D03*
X26189Y25102D02*
D03*
X25654D02*
D03*
X25378Y25654D02*
D03*
Y25378D02*
D03*
Y25102D02*
D03*
X25654Y25378D02*
D03*
Y25654D02*
D03*
X21394Y27165D02*
D03*
Y26890D02*
D03*
X21118Y26614D02*
D03*
Y26890D02*
D03*
Y27165D02*
D03*
X21394Y26614D02*
D03*
X21929D02*
D03*
X21654Y27165D02*
D03*
Y26890D02*
D03*
Y26614D02*
D03*
X21929Y26890D02*
D03*
Y27165D02*
D03*
X25581Y42323D02*
D03*
Y41535D02*
D03*
Y41929D02*
D03*
X25974D02*
D03*
Y42323D02*
D03*
X26368D02*
D03*
X25581Y41142D02*
D03*
X26368D02*
D03*
X25974D02*
D03*
X26368Y41535D02*
D03*
X25974D02*
D03*
X26368Y41929D02*
D03*
X34646Y41732D02*
D03*
Y42323D02*
D03*
X32677D02*
D03*
Y41732D02*
D03*
X32648Y40167D02*
D03*
X35217Y40197D02*
D03*
X29778Y43799D02*
D03*
X29332D02*
D03*
X29291Y42851D02*
D03*
X29754Y42854D02*
D03*
X32756Y42864D02*
D03*
X33376Y42854D02*
D03*
Y43750D02*
D03*
X32746D02*
D03*
D137*
X27842Y42358D02*
D03*
X27910Y41860D02*
D03*
X23859Y41987D02*
D03*
X24016Y42913D02*
D03*
X23031Y20669D02*
D03*
X26565Y21565D02*
D03*
X24114Y42323D02*
D03*
X27953Y40551D02*
D03*
X25984Y37795D02*
D03*
X22480Y22700D02*
D03*
X21580Y37420D02*
D03*
X22220Y42857D02*
D03*
X25060Y40290D02*
D03*
X21030Y40680D02*
D03*
X24000D02*
D03*
X29879Y40049D02*
D03*
X28730Y41198D02*
D03*
X18900Y41800D02*
D03*
X42805Y39290D02*
D03*
X27470Y35300D02*
D03*
X24280Y40390D02*
D03*
X23228Y39680D02*
D03*
X25440Y38060D02*
D03*
X22540Y21540D02*
D03*
X23900Y21730D02*
D03*
X23219Y23420D02*
D03*
X24730Y22746D02*
D03*
X18450Y37730D02*
D03*
X25870Y39280D02*
D03*
X25490Y40220D02*
D03*
X28327Y42390D02*
D03*
X25580Y42990D02*
D03*
M02*
