G04 Layer_Physical_Order=2*
G04 Layer_Color=11436288*
%FSLAX24Y24*%
%MOIN*%
G70*
G01*
G75*
%ADD25C,0.0100*%
%ADD26R,1.4094X0.2776*%
%ADD27R,1.6722X0.5197*%
%ADD33R,0.5285X0.1969*%
%ADD34R,0.6762X0.2795*%
%ADD36R,1.8701X0.2756*%
%ADD37R,0.0787X0.1181*%
%ADD40R,0.0214X0.1046*%
%ADD45R,0.3671X0.4341*%
%ADD53R,0.5118X1.4557*%
%ADD54R,1.7972X0.3543*%
%ADD56C,0.1181*%
%ADD57R,0.0512X0.0512*%
%ADD58C,0.0512*%
%ADD59R,0.0512X0.0512*%
%ADD60C,0.1575*%
%ADD61C,0.0600*%
%ADD62C,0.0630*%
%ADD63R,0.0700X0.0700*%
%ADD64C,0.0700*%
%ADD65R,0.0591X0.0591*%
%ADD66C,0.0591*%
%ADD67R,0.0630X0.0630*%
%ADD68C,0.1500*%
%ADD69C,0.0660*%
%ADD70C,0.2362*%
%ADD71C,0.0197*%
%ADD72C,0.0276*%
%ADD73R,0.2067X0.1280*%
%ADD74R,0.0689X0.7382*%
%ADD75R,0.0787X0.1280*%
%ADD76R,1.0335X0.0591*%
%ADD77R,0.3356X0.1073*%
%ADD78R,0.6526X0.2136*%
%ADD79R,0.7264X0.3041*%
%ADD80R,1.2274X0.4242*%
%ADD81R,0.5502X0.2598*%
%ADD82R,1.2018X0.4665*%
%ADD83R,1.7087X0.2008*%
%ADD84R,1.2845X0.7500*%
%ADD85R,0.7756X0.2923*%
%ADD86R,0.7766X0.9213*%
%ADD87R,0.1427X0.9222*%
%ADD88R,0.4862X0.4892*%
%ADD89R,0.0906X0.1033*%
%ADD90R,0.3012X0.4892*%
%ADD91R,0.0896X0.4941*%
%ADD92R,0.1307X0.1044*%
%ADD93R,0.1132X0.1063*%
%ADD94R,0.1860X0.2116*%
%ADD95R,0.2047X0.4724*%
%ADD96R,0.2894X1.1348*%
G36*
X49144Y13454D02*
X9911D01*
Y51900D01*
X49144D01*
Y13454D01*
D02*
G37*
%LPC*%
G36*
X28167Y20887D02*
X28068Y20874D01*
X27975Y20836D01*
X27895Y20774D01*
X27834Y20695D01*
X27795Y20602D01*
X27782Y20502D01*
X27795Y20402D01*
X27834Y20309D01*
X27895Y20230D01*
X27975Y20168D01*
X28068Y20130D01*
X28167Y20117D01*
X28267Y20130D01*
X28360Y20168D01*
X28440Y20230D01*
X28501Y20309D01*
X28539Y20402D01*
X28552Y20502D01*
X28539Y20602D01*
X28501Y20695D01*
X28440Y20774D01*
X28360Y20836D01*
X28267Y20874D01*
X28167Y20887D01*
D02*
G37*
G36*
X32303Y28858D02*
X27018D01*
X26992Y28852D01*
X26969Y28838D01*
X26955Y28815D01*
X26949Y28789D01*
Y26850D01*
Y26821D01*
Y26663D01*
X23593D01*
X23566Y26658D01*
X23544Y26643D01*
X23529Y26621D01*
X23524Y26594D01*
Y23799D01*
X23529Y23773D01*
X23544Y23751D01*
X23566Y23736D01*
X23593Y23731D01*
X27573D01*
X27592Y23685D01*
X26226Y22318D01*
X26200Y22280D01*
X26191Y22234D01*
Y21708D01*
X24779Y20296D01*
X23770D01*
X23214Y20852D01*
X23176Y20878D01*
X23130Y20887D01*
X23084Y20878D01*
X23072Y20870D01*
X23031Y20878D01*
X22952Y20862D01*
X22884Y20817D01*
X22839Y20749D01*
X22823Y20669D01*
X22839Y20589D01*
X22884Y20522D01*
X22913Y20502D01*
X22898Y20452D01*
X16604D01*
Y22835D01*
X16598Y22861D01*
X16584Y22883D01*
X16562Y22898D01*
X16535Y22903D01*
X11033D01*
X11007Y22898D01*
X10985Y22883D01*
X10970Y22861D01*
X10965Y22835D01*
Y20432D01*
X10951Y20410D01*
X10946Y20384D01*
Y16142D01*
X10951Y16116D01*
X10966Y16093D01*
X10988Y16079D01*
X11014Y16073D01*
X23287D01*
X23314Y16079D01*
X23336Y16093D01*
X23350Y16116D01*
X23356Y16142D01*
Y20308D01*
X23402Y20327D01*
X23636Y20093D01*
X23675Y20067D01*
X23720Y20058D01*
X24829D01*
X24874Y20067D01*
X24913Y20093D01*
X26395Y21574D01*
X26420Y21613D01*
X26429Y21659D01*
Y22185D01*
X26748Y22503D01*
X26794Y22478D01*
X26805Y22390D01*
X26844Y22298D01*
X26905Y22218D01*
X26985Y22157D01*
X27077Y22118D01*
X27177Y22105D01*
X27277Y22118D01*
X27370Y22157D01*
X27450Y22218D01*
X27511Y22298D01*
X27549Y22390D01*
X27562Y22490D01*
X27549Y22590D01*
X27511Y22683D01*
X27450Y22763D01*
X27370Y22824D01*
X27277Y22862D01*
X27189Y22874D01*
X27165Y22920D01*
X27808Y23563D01*
X30403D01*
X30448Y23572D01*
X30487Y23598D01*
X30575Y23686D01*
X30601Y23725D01*
X30610Y23770D01*
Y24731D01*
X32504Y26625D01*
X32530Y26664D01*
X32539Y26709D01*
Y27719D01*
X32797Y27977D01*
X32863Y27950D01*
X32959Y27937D01*
X33054Y27950D01*
X33144Y27987D01*
X33220Y28045D01*
X33279Y28122D01*
X33316Y28211D01*
X33329Y28307D01*
X33316Y28403D01*
X33279Y28492D01*
X33220Y28569D01*
X33144Y28628D01*
X33054Y28665D01*
X32959Y28677D01*
X32863Y28665D01*
X32774Y28628D01*
X32697Y28569D01*
X32638Y28492D01*
X32601Y28403D01*
X32589Y28307D01*
X32601Y28211D01*
X32628Y28145D01*
X32418Y27935D01*
X32371Y27954D01*
Y28789D01*
X32366Y28815D01*
X32351Y28838D01*
X32329Y28852D01*
X32303Y28858D01*
D02*
G37*
G36*
X47687Y27696D02*
X33593D01*
X33566Y27691D01*
X33544Y27676D01*
X33529Y27654D01*
X33524Y27628D01*
Y24921D01*
X30965D01*
X30938Y24915D01*
X30916Y24901D01*
X30902Y24878D01*
X30896Y24852D01*
Y19656D01*
X30902Y19629D01*
X30916Y19607D01*
X30938Y19592D01*
X30965Y19587D01*
X47687D01*
X47713Y19592D01*
X47735Y19607D01*
X47750Y19629D01*
X47755Y19656D01*
Y24852D01*
Y27628D01*
X47750Y27654D01*
X47735Y27676D01*
X47713Y27691D01*
X47687Y27696D01*
D02*
G37*
G36*
X23219Y23629D02*
X23139Y23613D01*
X23071Y23568D01*
X23026Y23500D01*
X23010Y23420D01*
X23026Y23340D01*
X23071Y23272D01*
X23139Y23227D01*
X23219Y23211D01*
X23298Y23227D01*
X23366Y23272D01*
X23385Y23301D01*
X24007D01*
X24528Y22780D01*
X24521Y22746D01*
X24537Y22666D01*
X24582Y22598D01*
X24650Y22553D01*
X24730Y22537D01*
X24810Y22553D01*
X24878Y22598D01*
X24923Y22666D01*
X24939Y22746D01*
X24923Y22826D01*
X24878Y22894D01*
X24810Y22939D01*
X24730Y22955D01*
X24697Y22948D01*
X24140Y23504D01*
X24102Y23530D01*
X24056Y23539D01*
X23385D01*
X23366Y23568D01*
X23298Y23613D01*
X23219Y23629D01*
D02*
G37*
G36*
X28177Y22875D02*
X28077Y22862D01*
X27985Y22824D01*
X27905Y22763D01*
X27844Y22683D01*
X27805Y22590D01*
X27792Y22490D01*
X27805Y22390D01*
X27844Y22298D01*
X27905Y22218D01*
X27985Y22157D01*
X28077Y22118D01*
X28177Y22105D01*
X28277Y22118D01*
X28370Y22157D01*
X28450Y22218D01*
X28511Y22298D01*
X28549Y22390D01*
X28562Y22490D01*
X28549Y22590D01*
X28511Y22683D01*
X28450Y22763D01*
X28370Y22824D01*
X28277Y22862D01*
X28177Y22875D01*
D02*
G37*
G36*
X23041Y28848D02*
X11024D01*
X10998Y28843D01*
X10975Y28828D01*
X10961Y28806D01*
X10955Y28780D01*
Y24114D01*
X10961Y24088D01*
X10975Y24066D01*
X10998Y24051D01*
X11024Y24046D01*
X22361D01*
Y22867D01*
X22332Y22848D01*
X22287Y22780D01*
X22271Y22700D01*
X22287Y22620D01*
X22332Y22552D01*
X22400Y22507D01*
X22480Y22491D01*
X22560Y22507D01*
X22628Y22552D01*
X22673Y22620D01*
X22689Y22700D01*
X22673Y22780D01*
X22628Y22848D01*
X22599Y22867D01*
Y24046D01*
X23041D01*
X23067Y24051D01*
X23090Y24066D01*
X23104Y24088D01*
X23110Y24114D01*
Y28780D01*
X23104Y28806D01*
X23090Y28828D01*
X23067Y28843D01*
X23041Y28848D01*
D02*
G37*
G36*
X23900Y21939D02*
X23820Y21923D01*
X23752Y21878D01*
X23707Y21810D01*
X23691Y21730D01*
X23698Y21697D01*
X23661Y21659D01*
X22707D01*
X22688Y21688D01*
X22620Y21733D01*
X22540Y21749D01*
X22460Y21733D01*
X22392Y21688D01*
X22347Y21620D01*
X22331Y21540D01*
X22347Y21460D01*
X22392Y21392D01*
X22460Y21347D01*
X22540Y21331D01*
X22620Y21347D01*
X22688Y21392D01*
X22707Y21421D01*
X23710D01*
X23756Y21430D01*
X23794Y21456D01*
X23867Y21528D01*
X23900Y21521D01*
X23980Y21537D01*
X24048Y21582D01*
X24093Y21650D01*
X24109Y21730D01*
X24093Y21810D01*
X24048Y21878D01*
X23980Y21923D01*
X23900Y21939D01*
D02*
G37*
G36*
X35118Y19494D02*
X35022Y19482D01*
X34933Y19445D01*
X34856Y19386D01*
X34798Y19309D01*
X34761Y19220D01*
X34748Y19124D01*
X34761Y19028D01*
X34798Y18939D01*
X34856Y18862D01*
X34933Y18804D01*
X35022Y18767D01*
X35118Y18754D01*
X35214Y18767D01*
X35303Y18804D01*
X35380Y18862D01*
X35439Y18939D01*
X35466Y19005D01*
X36020D01*
X36030Y18998D01*
X36076Y18989D01*
X36670D01*
X36697Y18923D01*
X36756Y18847D01*
X36833Y18788D01*
X36922Y18751D01*
X37018Y18738D01*
X37114Y18751D01*
X37203Y18788D01*
X37279Y18847D01*
X37338Y18923D01*
X37375Y19012D01*
X37388Y19108D01*
X37375Y19204D01*
X37338Y19293D01*
X37279Y19370D01*
X37203Y19429D01*
X37114Y19466D01*
X37018Y19478D01*
X36922Y19466D01*
X36833Y19429D01*
X36756Y19370D01*
X36697Y19293D01*
X36670Y19227D01*
X36116D01*
X36106Y19234D01*
X36060Y19243D01*
X35466D01*
X35439Y19309D01*
X35380Y19386D01*
X35303Y19445D01*
X35214Y19482D01*
X35118Y19494D01*
D02*
G37*
G36*
X39360Y48710D02*
X30591D01*
X30564Y48705D01*
X30542Y48690D01*
X30528Y48668D01*
X30522Y48642D01*
Y43909D01*
X30512Y43904D01*
X30462Y43937D01*
Y48622D01*
X30457Y48648D01*
X30442Y48670D01*
X30420Y48685D01*
X30394Y48690D01*
X10827D01*
X10801Y48685D01*
X10779Y48670D01*
X10764Y48648D01*
X10759Y48622D01*
Y45866D01*
X10764Y45840D01*
X10779Y45818D01*
X10801Y45803D01*
X10827Y45798D01*
X11738D01*
X11739Y45798D01*
X11930Y45752D01*
X12126Y45736D01*
X12322Y45752D01*
X12513Y45798D01*
X12514Y45798D01*
X15312D01*
X15349Y45783D01*
X15453Y45769D01*
X15556Y45783D01*
X15593Y45798D01*
X19643D01*
X19680Y45783D01*
X19783Y45769D01*
X19887Y45783D01*
X19924Y45798D01*
X24170D01*
X24207Y45783D01*
X24311Y45769D01*
X24415Y45783D01*
X24452Y45798D01*
X28278D01*
Y43898D01*
X28283Y43872D01*
X28298Y43849D01*
X28320Y43835D01*
X28346Y43829D01*
X29066D01*
Y43058D01*
X29060Y43054D01*
X29010Y43081D01*
Y43689D01*
X28246D01*
Y43053D01*
X28196Y43033D01*
X27874Y43354D01*
X27836Y43380D01*
X27790Y43389D01*
X23420D01*
X23374Y43380D01*
X23336Y43354D01*
X21901Y41919D01*
X19067D01*
X19048Y41948D01*
X18980Y41993D01*
X18900Y42009D01*
X18820Y41993D01*
X18803Y41982D01*
X18759Y42005D01*
Y42191D01*
X19306Y42738D01*
X22053D01*
X22072Y42709D01*
X22140Y42664D01*
X22220Y42648D01*
X22300Y42664D01*
X22368Y42709D01*
X22413Y42777D01*
X22429Y42857D01*
X22413Y42937D01*
X22368Y43005D01*
X22300Y43050D01*
X22220Y43066D01*
X22140Y43050D01*
X22072Y43005D01*
X22053Y42976D01*
X19257D01*
X19211Y42967D01*
X19173Y42941D01*
X18556Y42324D01*
X18530Y42286D01*
X18521Y42240D01*
Y41560D01*
X18530Y41514D01*
X18556Y41476D01*
X18796Y41236D01*
X18834Y41210D01*
X18880Y41201D01*
X21900D01*
X21946Y41210D01*
X21984Y41236D01*
X23559Y42811D01*
X23838D01*
X23868Y42766D01*
X23929Y42725D01*
X23936Y42693D01*
X23936Y42670D01*
X23924Y42662D01*
X23775Y42513D01*
X23749Y42474D01*
X23740Y42428D01*
Y42154D01*
X23712Y42135D01*
X23667Y42067D01*
X23651Y41987D01*
X23667Y41907D01*
X23712Y41839D01*
X23780Y41794D01*
X23859Y41778D01*
X23939Y41794D01*
X24007Y41839D01*
X24052Y41907D01*
X24068Y41987D01*
X24053Y42063D01*
X24072Y42093D01*
X24083Y42108D01*
X24120Y42109D01*
X24161Y42074D01*
Y40879D01*
X24111Y40852D01*
X24080Y40873D01*
X24000Y40889D01*
X23920Y40873D01*
X23852Y40828D01*
X23833Y40799D01*
X21197D01*
X21178Y40828D01*
X21110Y40873D01*
X21030Y40889D01*
X20950Y40873D01*
X20882Y40828D01*
X20837Y40760D01*
X20821Y40680D01*
X20837Y40600D01*
X20882Y40532D01*
X20950Y40487D01*
X21030Y40471D01*
X21110Y40487D01*
X21178Y40532D01*
X21197Y40561D01*
X23833D01*
X23852Y40532D01*
X23881Y40513D01*
Y40165D01*
X23890Y40120D01*
X23899Y40106D01*
X23872Y40056D01*
X19062D01*
X17783Y41336D01*
Y42015D01*
X17874Y42053D01*
X17961Y42120D01*
X18028Y42207D01*
X18070Y42308D01*
X18084Y42417D01*
X18070Y42526D01*
X18028Y42628D01*
X17961Y42715D01*
X17874Y42782D01*
X17772Y42824D01*
X17663Y42838D01*
X17555Y42824D01*
X17453Y42782D01*
X17366Y42715D01*
X17299Y42628D01*
X17261Y42537D01*
X17080D01*
Y42834D01*
X16246D01*
Y42000D01*
X17080D01*
Y42298D01*
X17261D01*
X17299Y42207D01*
X17366Y42120D01*
X17453Y42053D01*
X17544Y42015D01*
Y41287D01*
X17553Y41241D01*
X17579Y41202D01*
X18929Y39853D01*
X18967Y39827D01*
X19013Y39818D01*
X23021D01*
X23045Y39774D01*
X23035Y39760D01*
X23020Y39680D01*
X23035Y39600D01*
X23081Y39532D01*
X23148Y39487D01*
X23228Y39471D01*
X23308Y39487D01*
X23376Y39532D01*
X23395Y39561D01*
X25443D01*
X25462Y39515D01*
X25356Y39408D01*
X25330Y39370D01*
X25321Y39324D01*
Y38227D01*
X25292Y38208D01*
X25247Y38140D01*
X25231Y38060D01*
X25247Y37980D01*
X25292Y37912D01*
X25312Y37899D01*
X25297Y37849D01*
X18617D01*
X18598Y37878D01*
X18530Y37923D01*
X18450Y37939D01*
X18370Y37923D01*
X18302Y37878D01*
X18257Y37810D01*
X18241Y37730D01*
X18257Y37650D01*
X18302Y37582D01*
X18370Y37537D01*
X18450Y37521D01*
X18530Y37537D01*
X18598Y37582D01*
X18617Y37611D01*
X21414D01*
X21428Y37561D01*
X21387Y37500D01*
X21371Y37420D01*
X21387Y37340D01*
X21432Y37272D01*
X21500Y37227D01*
X21580Y37211D01*
X21660Y37227D01*
X21728Y37272D01*
X21747Y37301D01*
X26790D01*
X26836Y37310D01*
X26874Y37336D01*
X28254Y38716D01*
X28280Y38754D01*
X28289Y38800D01*
Y39558D01*
X28824Y40093D01*
X28850Y40132D01*
X28859Y40178D01*
Y40652D01*
X28850Y40698D01*
X28824Y40737D01*
X28289Y41272D01*
Y41997D01*
X29756D01*
X29802Y42006D01*
X29840Y42032D01*
X30244Y42436D01*
X30270Y42474D01*
X30279Y42520D01*
Y42677D01*
X31372D01*
X31382Y42675D01*
X31595D01*
X31622Y42680D01*
X31644Y42695D01*
X31659Y42717D01*
X31664Y42743D01*
Y43682D01*
X31789D01*
Y42925D01*
X32520D01*
Y42726D01*
X32526Y42700D01*
X32530Y42694D01*
X32524Y42653D01*
X32514Y42636D01*
X32501Y42627D01*
X32486Y42605D01*
X32481Y42579D01*
Y41516D01*
X32486Y41490D01*
X32501Y41467D01*
X32523Y41453D01*
X32549Y41448D01*
X35531D01*
X35558Y41453D01*
X35571Y41461D01*
X35604Y41451D01*
X35621Y41439D01*
Y40503D01*
X35575Y40484D01*
X35484Y40574D01*
X35446Y40600D01*
X35400Y40609D01*
X32130D01*
X32084Y40600D01*
X32046Y40574D01*
X27386Y35914D01*
X27360Y35876D01*
X27351Y35830D01*
Y35467D01*
X27322Y35448D01*
X27277Y35380D01*
X27261Y35300D01*
X27277Y35220D01*
X27322Y35152D01*
X27390Y35107D01*
X27470Y35091D01*
X27550Y35107D01*
X27618Y35152D01*
X27663Y35220D01*
X27679Y35300D01*
X27663Y35380D01*
X27618Y35448D01*
X27589Y35467D01*
Y35781D01*
X32179Y40371D01*
X35351D01*
X35451Y40271D01*
Y39290D01*
X35460Y39244D01*
X35486Y39206D01*
X35524Y39180D01*
X35570Y39171D01*
X41054D01*
Y36535D01*
X36033D01*
X36007Y36530D01*
X35985Y36515D01*
X35970Y36493D01*
X35965Y36467D01*
Y28967D01*
X35970Y28940D01*
X35985Y28918D01*
X36007Y28903D01*
X36033Y28898D01*
X48878D01*
X48904Y28903D01*
X48926Y28918D01*
X48941Y28940D01*
X48946Y28967D01*
Y36467D01*
Y39390D01*
Y48602D01*
X48941Y48628D01*
X48926Y48651D01*
X48904Y48665D01*
X48878Y48671D01*
X41112D01*
X41086Y48665D01*
X41064Y48651D01*
X41049Y48628D01*
X41044Y48602D01*
Y39409D01*
X40856D01*
X40856Y39409D01*
Y48632D01*
X40850Y48658D01*
X40836Y48680D01*
X40814Y48695D01*
X40787Y48700D01*
X39393D01*
X39386Y48705D01*
X39360Y48710D01*
D02*
G37*
G36*
X11811Y51153D02*
X11663Y51139D01*
X11520Y51095D01*
X11389Y51025D01*
X11274Y50931D01*
X11179Y50816D01*
X11109Y50684D01*
X11066Y50542D01*
X11051Y50394D01*
X11066Y50246D01*
X11109Y50103D01*
X11179Y49972D01*
X11274Y49857D01*
X11389Y49762D01*
X11520Y49692D01*
X11663Y49649D01*
X11811Y49634D01*
X11959Y49649D01*
X12102Y49692D01*
X12233Y49762D01*
X12348Y49857D01*
X12443Y49972D01*
X12513Y50103D01*
X12556Y50246D01*
X12571Y50394D01*
X12556Y50542D01*
X12513Y50684D01*
X12443Y50816D01*
X12348Y50931D01*
X12233Y51025D01*
X12102Y51095D01*
X11959Y51139D01*
X11811Y51153D01*
D02*
G37*
G36*
X47244D02*
X47096Y51139D01*
X46953Y51095D01*
X46822Y51025D01*
X46707Y50931D01*
X46613Y50816D01*
X46542Y50684D01*
X46499Y50542D01*
X46485Y50394D01*
X46499Y50246D01*
X46542Y50103D01*
X46613Y49972D01*
X46707Y49857D01*
X46822Y49762D01*
X46953Y49692D01*
X47096Y49649D01*
X47244Y49634D01*
X47392Y49649D01*
X47535Y49692D01*
X47666Y49762D01*
X47781Y49857D01*
X47876Y49972D01*
X47946Y50103D01*
X47989Y50246D01*
X48004Y50394D01*
X47989Y50542D01*
X47946Y50684D01*
X47876Y50816D01*
X47781Y50931D01*
X47666Y51025D01*
X47535Y51095D01*
X47392Y51139D01*
X47244Y51153D01*
D02*
G37*
G36*
X11811Y15720D02*
X11663Y15706D01*
X11520Y15662D01*
X11389Y15592D01*
X11274Y15498D01*
X11179Y15383D01*
X11109Y15251D01*
X11066Y15109D01*
X11051Y14961D01*
X11066Y14812D01*
X11109Y14670D01*
X11179Y14539D01*
X11274Y14424D01*
X11389Y14329D01*
X11520Y14259D01*
X11663Y14216D01*
X11811Y14201D01*
X11959Y14216D01*
X12102Y14259D01*
X12233Y14329D01*
X12348Y14424D01*
X12443Y14539D01*
X12513Y14670D01*
X12556Y14812D01*
X12571Y14961D01*
X12556Y15109D01*
X12513Y15251D01*
X12443Y15383D01*
X12348Y15498D01*
X12233Y15592D01*
X12102Y15662D01*
X11959Y15706D01*
X11811Y15720D01*
D02*
G37*
G36*
X27167Y20887D02*
X27068Y20874D01*
X26975Y20836D01*
X26895Y20774D01*
X26834Y20695D01*
X26795Y20602D01*
X26782Y20502D01*
X26795Y20402D01*
X26834Y20309D01*
X26895Y20230D01*
X26975Y20168D01*
X27068Y20130D01*
X27167Y20117D01*
X27267Y20130D01*
X27340Y20160D01*
X27965Y19536D01*
X28004Y19510D01*
X28049Y19501D01*
X30131D01*
X31806Y17825D01*
X31786Y17775D01*
X30600D01*
Y18720D01*
X30595Y18747D01*
X30580Y18769D01*
X30558Y18784D01*
X30531Y18789D01*
X24006D01*
X23980Y18784D01*
X23958Y18769D01*
X23943Y18747D01*
X23938Y18720D01*
Y16585D01*
X23943Y16559D01*
X23958Y16536D01*
X23980Y16522D01*
X24006Y16516D01*
X26762D01*
Y14665D01*
X26768Y14639D01*
X26782Y14617D01*
X26805Y14602D01*
X26831Y14597D01*
X34094D01*
X34121Y14602D01*
X34143Y14617D01*
X34158Y14639D01*
X34163Y14665D01*
Y17707D01*
X34171Y17716D01*
X34239Y17718D01*
X36688Y15270D01*
X36660Y15204D01*
X36648Y15108D01*
X36660Y15012D01*
X36697Y14923D01*
X36756Y14847D01*
X36833Y14788D01*
X36922Y14751D01*
X37018Y14738D01*
X37114Y14751D01*
X37203Y14788D01*
X37279Y14847D01*
X37338Y14923D01*
X37375Y15012D01*
X37388Y15108D01*
X37375Y15204D01*
X37338Y15293D01*
X37279Y15370D01*
X37203Y15429D01*
X37114Y15466D01*
X37018Y15478D01*
X36922Y15466D01*
X36856Y15438D01*
X34340Y17954D01*
X34302Y17980D01*
X34256Y17989D01*
X31979D01*
X30264Y19704D01*
X30226Y19730D01*
X30180Y19739D01*
X28099D01*
X27509Y20329D01*
X27539Y20402D01*
X27552Y20502D01*
X27539Y20602D01*
X27501Y20695D01*
X27440Y20774D01*
X27360Y20836D01*
X27267Y20874D01*
X27167Y20887D01*
D02*
G37*
G36*
X35118Y15494D02*
X35022Y15481D01*
X34933Y15445D01*
X34856Y15386D01*
X34798Y15309D01*
X34761Y15220D01*
X34748Y15124D01*
X34761Y15028D01*
X34798Y14939D01*
X34856Y14862D01*
X34933Y14804D01*
X35022Y14767D01*
X35118Y14754D01*
X35214Y14767D01*
X35303Y14804D01*
X35380Y14862D01*
X35439Y14939D01*
X35476Y15028D01*
X35488Y15124D01*
X35476Y15220D01*
X35439Y15309D01*
X35380Y15386D01*
X35303Y15445D01*
X35214Y15481D01*
X35118Y15494D01*
D02*
G37*
G36*
X47244Y15720D02*
X47096Y15706D01*
X46953Y15662D01*
X46822Y15592D01*
X46707Y15498D01*
X46613Y15383D01*
X46542Y15251D01*
X46499Y15109D01*
X46485Y14961D01*
X46499Y14812D01*
X46542Y14670D01*
X46613Y14539D01*
X46707Y14424D01*
X46822Y14329D01*
X46953Y14259D01*
X47096Y14216D01*
X47244Y14201D01*
X47392Y14216D01*
X47535Y14259D01*
X47666Y14329D01*
X47781Y14424D01*
X47876Y14539D01*
X47946Y14670D01*
X47989Y14812D01*
X48004Y14961D01*
X47989Y15109D01*
X47946Y15251D01*
X47876Y15383D01*
X47781Y15498D01*
X47666Y15592D01*
X47535Y15662D01*
X47392Y15706D01*
X47244Y15720D01*
D02*
G37*
%LPD*%
G36*
X23924Y43138D02*
X23928Y43101D01*
X23868Y43061D01*
X23860Y43049D01*
X23510D01*
X23464Y43040D01*
X23426Y43014D01*
X21851Y41439D01*
X18929D01*
X18811Y41558D01*
X18835Y41604D01*
X18900Y41591D01*
X18980Y41607D01*
X19048Y41652D01*
X19067Y41681D01*
X21950D01*
X21996Y41690D01*
X22034Y41716D01*
X23469Y43151D01*
X23919D01*
X23924Y43138D01*
D02*
G37*
G36*
X25131Y41121D02*
Y41100D01*
X25140Y41054D01*
X25166Y41016D01*
X25801Y40381D01*
Y40089D01*
X25511Y39799D01*
X24703D01*
X24688Y39849D01*
X24693Y39853D01*
X24955Y40114D01*
X24980Y40097D01*
X25060Y40081D01*
X25140Y40097D01*
X25208Y40142D01*
X25237Y40186D01*
X25290Y40176D01*
X25297Y40140D01*
X25342Y40072D01*
X25410Y40027D01*
X25490Y40011D01*
X25570Y40027D01*
X25638Y40072D01*
X25683Y40140D01*
X25699Y40220D01*
X25683Y40300D01*
X25638Y40368D01*
X25608Y40388D01*
X25600Y40426D01*
X25574Y40464D01*
X25244Y40794D01*
X25206Y40820D01*
X25160Y40829D01*
X25000D01*
X24954Y40820D01*
X24916Y40794D01*
X24535Y40414D01*
X24481Y40430D01*
X24473Y40470D01*
X24428Y40538D01*
X24399Y40557D01*
Y41787D01*
X24445Y41806D01*
X25131Y41121D01*
D02*
G37*
G36*
X25408Y43101D02*
X25387Y43070D01*
X25371Y42990D01*
X25387Y42910D01*
X25432Y42842D01*
X25500Y42797D01*
X25580Y42781D01*
X25660Y42797D01*
X25728Y42842D01*
X25747Y42871D01*
X27677D01*
X27968Y42580D01*
X27936Y42542D01*
X27922Y42551D01*
X27842Y42567D01*
X27762Y42551D01*
X27694Y42506D01*
X27649Y42438D01*
X27633Y42358D01*
X27649Y42278D01*
X27694Y42211D01*
X27762Y42165D01*
X27842Y42150D01*
X27875Y42156D01*
X27917Y42115D01*
X27895Y42066D01*
X27830Y42053D01*
X27762Y42008D01*
X27717Y41940D01*
X27701Y41860D01*
X27717Y41780D01*
X27721Y41774D01*
X26085Y40138D01*
X26039Y40157D01*
Y40430D01*
X26030Y40476D01*
X26004Y40514D01*
X25369Y41149D01*
Y41170D01*
X25360Y41216D01*
X25334Y41254D01*
X24566Y42022D01*
Y42350D01*
X24557Y42396D01*
X24531Y42435D01*
X24304Y42662D01*
X24265Y42688D01*
X24220Y42697D01*
X24150D01*
X24135Y42747D01*
X24163Y42766D01*
X24209Y42834D01*
X24214Y42860D01*
X24230Y42884D01*
X24239Y42930D01*
X24230Y42976D01*
X24204Y43014D01*
X24187Y43026D01*
X24163Y43061D01*
X24104Y43101D01*
X24107Y43138D01*
X24112Y43151D01*
X25381D01*
X25408Y43101D01*
D02*
G37*
G36*
X29066Y42717D02*
X29071Y42690D01*
X29086Y42668D01*
X29108Y42653D01*
X29134Y42648D01*
X29921D01*
X29947Y42653D01*
X29970Y42668D01*
X29978Y42680D01*
X29991Y42685D01*
X30025Y42666D01*
X30041Y42643D01*
Y42569D01*
X29707Y42235D01*
X28530D01*
X28503Y42285D01*
X28520Y42310D01*
X28536Y42390D01*
X28520Y42470D01*
X28474Y42538D01*
X28407Y42583D01*
X28327Y42599D01*
X28293Y42592D01*
X28183Y42702D01*
X28184Y42711D01*
X28205Y42751D01*
X29066D01*
Y42717D01*
D02*
G37*
G36*
X25784Y37754D02*
X25791Y37715D01*
X25837Y37648D01*
X25904Y37602D01*
X25971Y37589D01*
X25966Y37539D01*
X21774D01*
X21758Y37561D01*
X21783Y37611D01*
X25520D01*
X25566Y37620D01*
X25604Y37646D01*
X25729Y37771D01*
X25784Y37754D01*
D02*
G37*
G36*
X32249Y26706D02*
X30469Y24927D01*
X30423Y24946D01*
Y25730D01*
X30437Y25751D01*
X30442Y25778D01*
Y26753D01*
X32229D01*
X32249Y26706D01*
D02*
G37*
G36*
X28051Y41655D02*
Y41223D01*
X28060Y41177D01*
X28086Y41138D01*
X28621Y40603D01*
Y40227D01*
X28114Y39720D01*
X28068Y39745D01*
X28072Y39764D01*
Y40385D01*
X28100Y40404D01*
X28146Y40471D01*
X28161Y40551D01*
X28146Y40631D01*
X28100Y40699D01*
X28033Y40744D01*
X27953Y40760D01*
X27873Y40744D01*
X27805Y40699D01*
X27760Y40631D01*
X27744Y40551D01*
X27760Y40471D01*
X27805Y40404D01*
X27834Y40385D01*
Y39813D01*
X26052Y38032D01*
X26026Y38031D01*
X25989Y38080D01*
X25989Y38081D01*
Y39113D01*
X26018Y39132D01*
X26063Y39200D01*
X26079Y39280D01*
X26063Y39360D01*
X26018Y39428D01*
X25950Y39473D01*
X25870Y39489D01*
X25838Y39482D01*
X25813Y39528D01*
X27943Y41658D01*
X27990Y41667D01*
X28007Y41679D01*
X28051Y41655D01*
D02*
G37*
G36*
X28054Y39626D02*
X28051Y39608D01*
Y38849D01*
X26741Y37539D01*
X26003D01*
X25998Y37589D01*
X26064Y37602D01*
X26132Y37648D01*
X26177Y37715D01*
X26193Y37795D01*
X26186Y37829D01*
X28008Y39651D01*
X28054Y39626D01*
D02*
G37*
D25*
X23130Y20768D02*
X23720Y20177D01*
X24016Y42930D02*
X24120D01*
X23510D02*
X24016D01*
X25974Y42330D02*
X26361D01*
X25967D02*
X25974D01*
X27842Y42358D02*
X28084Y42116D01*
X27910Y41794D02*
Y41860D01*
X25440Y39324D02*
X27910Y41794D01*
X23859Y41987D02*
Y42428D01*
X24009Y42578D01*
X24220D01*
X24447Y42350D01*
Y41973D02*
Y42350D01*
Y41973D02*
X25250Y41170D01*
X24114Y42323D02*
X24280Y42157D01*
Y40390D02*
Y42157D01*
X24016Y42913D02*
X24103D01*
X24120Y42930D01*
X23031Y20669D02*
X23130Y20768D01*
X23720Y20177D02*
X24829D01*
X26310Y21659D01*
Y22234D01*
X27759Y23682D01*
X30403D01*
X30491Y23770D01*
Y24780D01*
X32420Y26709D01*
Y27769D01*
X32959Y28307D01*
X27058Y22058D02*
X27356D01*
X27609Y22533D02*
X27998Y22922D01*
X27609Y22311D02*
Y22533D01*
X27356Y22058D02*
X27609Y22311D01*
X27998Y22922D02*
X28356D01*
X28640Y22638D01*
X30848D01*
Y24901D01*
X33335Y24969D02*
X33376Y25009D01*
X30916Y24969D02*
X33335D01*
X30848Y24901D02*
X30916Y24969D01*
X33376Y25009D02*
Y28257D01*
X34154Y29035D01*
X26565Y21565D02*
X27058Y22058D01*
X27953Y39764D02*
Y40551D01*
X25984Y37795D02*
X27953Y39764D01*
X28170Y41223D02*
Y42030D01*
Y41223D02*
X28740Y40652D01*
X28170Y38800D02*
Y39608D01*
X28740Y40178D01*
X28084Y42116D02*
X28170Y42030D01*
X28084Y42116D02*
X29756D01*
X22480Y22700D02*
Y24261D01*
X21280Y25461D02*
X22480Y24261D01*
X21580Y37420D02*
X26790D01*
X28170Y38800D01*
X28740Y40178D02*
Y40652D01*
X21900Y41320D02*
X23510Y42930D01*
X18880Y41320D02*
X21900D01*
X18640Y41560D02*
X18880Y41320D01*
X18640Y41560D02*
Y42240D01*
X19257Y42857D01*
X22220D01*
X24962Y40290D02*
X25060D01*
X24609Y39937D02*
X24962Y40290D01*
X19013Y39937D02*
X24609D01*
X17663Y41287D02*
X19013Y39937D01*
X17663Y41287D02*
Y42417D01*
X21030Y40680D02*
X24000D01*
X26361Y42330D02*
X26368Y42323D01*
X28730Y41198D02*
X29879Y40049D01*
X29092Y42870D02*
X29530Y43307D01*
X28190Y42870D02*
X29092D01*
X27790Y43270D02*
X28190Y42870D01*
X23420Y43270D02*
X27790D01*
X21950Y41800D02*
X23420Y43270D01*
X18900Y41800D02*
X21950D01*
X35570Y39290D02*
X42805D01*
X35570D02*
Y40320D01*
X35400Y40490D02*
X35570Y40320D01*
X32130Y40490D02*
X35400D01*
X27470Y35830D02*
X32130Y40490D01*
X27470Y35300D02*
Y35830D01*
X23228Y39680D02*
X25560D01*
X25920Y40040D01*
Y40430D01*
X25250Y41100D02*
X25920Y40430D01*
X25250Y41100D02*
Y41170D01*
X25440Y38060D02*
Y39324D01*
X22540Y21540D02*
X23710D01*
X23900Y21730D01*
X34256Y17870D02*
X37018Y15108D01*
X31930Y17870D02*
X34256D01*
X30180Y19620D02*
X31930Y17870D01*
X28049Y19620D02*
X30180D01*
X27167Y20502D02*
X28049Y19620D01*
X23219Y23420D02*
X24056D01*
X24730Y22746D01*
X18450Y37730D02*
X25520D01*
X25870Y38080D01*
Y39280D01*
X30160Y43036D02*
X30431Y43307D01*
X30160Y42520D02*
Y43036D01*
X29756Y42116D02*
X30160Y42520D01*
X24000Y40165D02*
Y40680D01*
Y40165D02*
X24030Y40135D01*
X24425D01*
X25000Y40710D01*
X25160D01*
X25490Y40380D01*
Y40220D02*
Y40380D01*
X27727Y42990D02*
X28327Y42390D01*
X25580Y42990D02*
X27727D01*
X25581Y41535D02*
Y41929D01*
Y41142D02*
Y41535D01*
X25967Y42330D02*
X25974Y42323D01*
X25588Y42330D02*
X25967D01*
X25581Y42323D02*
X25588Y42330D01*
X26366Y41140D02*
X26368Y41142D01*
X25976Y41140D02*
X26366D01*
X25974Y41142D02*
X25976Y41140D01*
X16663Y42417D02*
X17663D01*
X36076Y19108D02*
X37018D01*
X36060Y19124D02*
X36076Y19108D01*
X35118Y19124D02*
X36060D01*
D26*
X40640Y26240D02*
D03*
D27*
X39326Y22254D02*
D03*
D33*
X29660Y27805D02*
D03*
D34*
X26973Y25197D02*
D03*
D36*
X20177Y47244D02*
D03*
D37*
X29528Y43307D02*
D03*
D40*
X31489Y43266D02*
D03*
D45*
X37525Y41580D02*
D03*
D53*
X13327Y36196D02*
D03*
D54*
X24872Y30689D02*
D03*
D56*
X42520Y30709D02*
D03*
X34252Y47677D02*
D03*
X29528D02*
D03*
X42520Y24409D02*
D03*
X15748Y19291D02*
D03*
Y26378D02*
D03*
Y33465D02*
D03*
D57*
X40024Y35949D02*
D03*
X17618Y46161D02*
D03*
X22146Y46161D02*
D03*
X26280Y46161D02*
D03*
D58*
X40024Y36933D02*
D03*
X35366Y35016D02*
D03*
X17618Y45177D02*
D03*
X22146Y45177D02*
D03*
X26280Y45177D02*
D03*
D59*
X36350Y35016D02*
D03*
D60*
X13091Y34547D02*
D03*
Y32579D02*
D03*
X13022Y18376D02*
D03*
Y20344D02*
D03*
X12933Y25394D02*
D03*
Y27362D02*
D03*
X46870Y30453D02*
D03*
Y32421D02*
D03*
X46860Y23730D02*
D03*
Y25699D02*
D03*
D61*
X11811Y50394D02*
D03*
Y14961D02*
D03*
X47244D02*
D03*
Y50394D02*
D03*
X36959Y28307D02*
D03*
X32959D02*
D03*
X37018Y15108D02*
D03*
Y19108D02*
D03*
X35118Y19124D02*
D03*
Y15124D02*
D03*
D62*
X28167Y20502D02*
D03*
X27167D02*
D03*
X28177Y22490D02*
D03*
X27177D02*
D03*
X33974Y43307D02*
D03*
X33073D02*
D03*
X30431D02*
D03*
X29530D02*
D03*
D63*
X16663Y42417D02*
D03*
D64*
X17663D02*
D03*
D65*
X36526Y31004D02*
D03*
D66*
X34557D02*
D03*
D67*
X32171Y43307D02*
D03*
X28628D02*
D03*
D68*
X43281Y43906D02*
D03*
X37681D02*
D03*
D69*
X15453Y46169D02*
D03*
Y45169D02*
D03*
X19783Y46169D02*
D03*
Y45169D02*
D03*
X24311Y46169D02*
D03*
Y45169D02*
D03*
D70*
X12126Y44035D02*
D03*
Y46988D02*
D03*
D71*
X32091Y27850D02*
D03*
X21650Y18378D02*
D03*
Y18102D02*
D03*
X21374Y17827D02*
D03*
Y18102D02*
D03*
Y18378D02*
D03*
X21650Y17827D02*
D03*
X21114D02*
D03*
X20839Y18378D02*
D03*
Y18102D02*
D03*
Y17827D02*
D03*
X21114Y18102D02*
D03*
Y18378D02*
D03*
X25929Y18142D02*
D03*
Y17866D02*
D03*
X25654Y17591D02*
D03*
Y17866D02*
D03*
Y18142D02*
D03*
X25929Y17591D02*
D03*
X25394D02*
D03*
X25118Y18142D02*
D03*
Y17866D02*
D03*
Y17591D02*
D03*
X25394Y17866D02*
D03*
Y18142D02*
D03*
X32126Y16531D02*
D03*
Y16256D02*
D03*
X31850Y15980D02*
D03*
Y16256D02*
D03*
Y16531D02*
D03*
X32126Y15980D02*
D03*
X31591D02*
D03*
X31315Y16531D02*
D03*
Y16256D02*
D03*
Y15980D02*
D03*
X31591Y16256D02*
D03*
Y16531D02*
D03*
X32146Y20992D02*
D03*
Y20717D02*
D03*
X31870Y20441D02*
D03*
Y20717D02*
D03*
Y20992D02*
D03*
X32146Y20441D02*
D03*
X31610D02*
D03*
X31335Y20992D02*
D03*
Y20717D02*
D03*
Y20441D02*
D03*
X31610Y20717D02*
D03*
Y20992D02*
D03*
X32146Y23902D02*
D03*
Y23626D02*
D03*
X31870Y23350D02*
D03*
Y23626D02*
D03*
Y23902D02*
D03*
X32146Y23350D02*
D03*
X31610D02*
D03*
X31335Y23902D02*
D03*
Y23626D02*
D03*
Y23350D02*
D03*
X31610Y23626D02*
D03*
Y23902D02*
D03*
X32091Y28398D02*
D03*
Y28122D02*
D03*
X31815Y27846D02*
D03*
Y28122D02*
D03*
Y28398D02*
D03*
X31555Y27846D02*
D03*
X31280Y28398D02*
D03*
Y28122D02*
D03*
Y27846D02*
D03*
X31555Y28122D02*
D03*
Y28398D02*
D03*
X26189Y25654D02*
D03*
Y25378D02*
D03*
X25913Y25102D02*
D03*
Y25378D02*
D03*
Y25654D02*
D03*
X26189Y25102D02*
D03*
X25654D02*
D03*
X25378Y25654D02*
D03*
Y25378D02*
D03*
Y25102D02*
D03*
X25654Y25378D02*
D03*
Y25654D02*
D03*
X21394Y27165D02*
D03*
Y26890D02*
D03*
X21118Y26614D02*
D03*
Y26890D02*
D03*
Y27165D02*
D03*
X21394Y26614D02*
D03*
X21929D02*
D03*
X21654Y27165D02*
D03*
Y26890D02*
D03*
Y26614D02*
D03*
X21929Y26890D02*
D03*
Y27165D02*
D03*
X25581Y42323D02*
D03*
Y41535D02*
D03*
Y41929D02*
D03*
X25974D02*
D03*
Y42323D02*
D03*
X26368D02*
D03*
X25581Y41142D02*
D03*
X26368D02*
D03*
X25974D02*
D03*
X26368Y41535D02*
D03*
X25974D02*
D03*
X26368Y41929D02*
D03*
X34646Y41732D02*
D03*
Y42323D02*
D03*
X32677D02*
D03*
Y41732D02*
D03*
X32648Y40167D02*
D03*
X35217Y40197D02*
D03*
X29778Y43799D02*
D03*
X29332D02*
D03*
X29291Y42851D02*
D03*
X29754Y42854D02*
D03*
X32756Y42864D02*
D03*
X33376Y42854D02*
D03*
Y43750D02*
D03*
X32746D02*
D03*
D72*
X27842Y42358D02*
D03*
X27910Y41860D02*
D03*
X23859Y41987D02*
D03*
X24016Y42913D02*
D03*
X23031Y20669D02*
D03*
X26565Y21565D02*
D03*
X24114Y42323D02*
D03*
X27953Y40551D02*
D03*
X25984Y37795D02*
D03*
X22480Y22700D02*
D03*
X21580Y37420D02*
D03*
X22220Y42857D02*
D03*
X25060Y40290D02*
D03*
X21030Y40680D02*
D03*
X24000D02*
D03*
X29879Y40049D02*
D03*
X28730Y41198D02*
D03*
X18900Y41800D02*
D03*
X42805Y39290D02*
D03*
X27470Y35300D02*
D03*
X24280Y40390D02*
D03*
X23228Y39680D02*
D03*
X25440Y38060D02*
D03*
X22540Y21540D02*
D03*
X23900Y21730D02*
D03*
X23219Y23420D02*
D03*
X24730Y22746D02*
D03*
X18450Y37730D02*
D03*
X25870Y39280D02*
D03*
X25490Y40220D02*
D03*
X28327Y42390D02*
D03*
X25580Y42990D02*
D03*
D73*
X11171Y29970D02*
D03*
D74*
X10482Y26919D02*
D03*
D75*
X20079Y23179D02*
D03*
D76*
X15305Y23524D02*
D03*
D77*
X28696Y26314D02*
D03*
D78*
X27269Y17653D02*
D03*
D79*
X30463Y16186D02*
D03*
D80*
X17151Y18263D02*
D03*
D81*
X13784Y21535D02*
D03*
D82*
X17032Y26447D02*
D03*
D83*
X19311Y44478D02*
D03*
D84*
X42456Y32717D02*
D03*
D85*
X45000Y37928D02*
D03*
D86*
X44995Y43996D02*
D03*
D87*
X40074Y44021D02*
D03*
D88*
X36929Y46196D02*
D03*
D89*
X33041Y43243D02*
D03*
D90*
X32992Y46196D02*
D03*
D91*
X31038Y46171D02*
D03*
D92*
X30728Y43267D02*
D03*
D93*
X33115Y42047D02*
D03*
D94*
X34601Y42574D02*
D03*
D95*
X29370Y46260D02*
D03*
D96*
X33888Y34641D02*
D03*
M02*
