G04 Layer_Color=25308*
%FSLAX24Y24*%
%MOIN*%
G70*
G01*
G75*
%ADD56C,0.1181*%
%ADD57R,0.0512X0.0512*%
%ADD58C,0.0512*%
%ADD59R,0.0512X0.0512*%
%ADD60C,0.1575*%
%ADD61C,0.0600*%
%ADD62C,0.0630*%
%ADD63R,0.0700X0.0700*%
%ADD64C,0.0700*%
%ADD65R,0.0591X0.0591*%
%ADD66C,0.0591*%
%ADD67R,0.0630X0.0630*%
%ADD68C,0.1500*%
%ADD69C,0.0660*%
%ADD70C,0.2362*%
D56*
X42520Y30709D02*
D03*
X34252Y47677D02*
D03*
X29528D02*
D03*
X42520Y24409D02*
D03*
X15748Y19291D02*
D03*
Y26378D02*
D03*
Y33465D02*
D03*
D57*
X40024Y35949D02*
D03*
X17618Y46161D02*
D03*
X22146Y46161D02*
D03*
X26280Y46161D02*
D03*
D58*
X40024Y36933D02*
D03*
X35366Y35016D02*
D03*
X17618Y45177D02*
D03*
X22146Y45177D02*
D03*
X26280Y45177D02*
D03*
D59*
X36350Y35016D02*
D03*
D60*
X13091Y34547D02*
D03*
Y32579D02*
D03*
X13022Y18376D02*
D03*
Y20344D02*
D03*
X12933Y25394D02*
D03*
Y27362D02*
D03*
X46870Y30453D02*
D03*
Y32421D02*
D03*
X46860Y23730D02*
D03*
Y25699D02*
D03*
D61*
X11811Y50394D02*
D03*
Y14961D02*
D03*
X47244D02*
D03*
Y50394D02*
D03*
X36959Y28307D02*
D03*
X32959D02*
D03*
X37018Y15108D02*
D03*
Y19108D02*
D03*
X35118Y19124D02*
D03*
Y15124D02*
D03*
D62*
X28167Y20502D02*
D03*
X27167D02*
D03*
X28177Y22490D02*
D03*
X27177D02*
D03*
X33974Y43307D02*
D03*
X33073D02*
D03*
X30431D02*
D03*
X29530D02*
D03*
D63*
X16663Y42417D02*
D03*
D64*
X17663D02*
D03*
D65*
X36526Y31004D02*
D03*
D66*
X34557D02*
D03*
D67*
X32171Y43307D02*
D03*
X28628D02*
D03*
D68*
X43281Y43906D02*
D03*
X37681D02*
D03*
D69*
X15453Y46169D02*
D03*
Y45169D02*
D03*
X19783Y46169D02*
D03*
Y45169D02*
D03*
X24311Y46169D02*
D03*
Y45169D02*
D03*
D70*
X12126Y44035D02*
D03*
Y46988D02*
D03*
M02*
