G04 Layer_Color=11619584*
%FSLAX24Y24*%
%MOIN*%
G70*
G01*
G75*
%ADD25C,0.0100*%
%ADD105C,0.0060*%
%ADD139C,0.0011*%
D25*
X49352Y13386D02*
X53742D01*
X49352Y51968D02*
X53742D01*
X53642Y13386D02*
Y29658D01*
Y35376D02*
Y51968D01*
Y13386D02*
X53842Y13986D01*
X53442D02*
X53642Y13386D01*
X53442Y51368D02*
X53642Y51968D01*
X53842Y51368D01*
X49213Y52108D02*
Y55218D01*
X9843Y52108D02*
Y55218D01*
X32477Y55118D02*
X49213D01*
X9843D02*
X26259D01*
X48613Y55318D02*
X49213Y55118D01*
X48613Y54918D02*
X49213Y55118D01*
X9843D02*
X10443Y54918D01*
X9843Y55118D02*
X10443Y55318D01*
D105*
X53902Y29818D02*
X54002Y29918D01*
Y30118D01*
X53902Y30218D01*
X53502D01*
X53402Y30118D01*
Y29918D01*
X53502Y29818D01*
X53602D01*
X53702Y29918D01*
Y30218D01*
X53502Y30418D02*
X53402Y30518D01*
Y30718D01*
X53502Y30818D01*
X53602D01*
X53702Y30718D01*
X53802Y30818D01*
X53902D01*
X54002Y30718D01*
Y30518D01*
X53902Y30418D01*
X53802D01*
X53702Y30518D01*
X53602Y30418D01*
X53502D01*
X53702Y30518D02*
Y30718D01*
X54002Y31018D02*
X53902D01*
Y31118D01*
X54002D01*
Y31018D01*
X53502Y31517D02*
X53402Y31617D01*
Y31817D01*
X53502Y31917D01*
X53902D01*
X54002Y31817D01*
Y31617D01*
X53902Y31517D01*
X53502D01*
Y32117D02*
X53402Y32217D01*
Y32417D01*
X53502Y32517D01*
X53902D01*
X54002Y32417D01*
Y32217D01*
X53902Y32117D01*
X53502D01*
X54002Y33517D02*
X53802Y33317D01*
X53602D01*
X53402Y33517D01*
X54002Y33817D02*
X53602D01*
Y33917D01*
X53702Y34017D01*
X54002D01*
X53702D01*
X53602Y34117D01*
X53702Y34217D01*
X54002D01*
Y34417D02*
X53602D01*
Y34517D01*
X53702Y34616D01*
X54002D01*
X53702D01*
X53602Y34716D01*
X53702Y34816D01*
X54002D01*
Y35016D02*
X53802Y35216D01*
X53602D01*
X53402Y35016D01*
X26419Y54758D02*
X26618D01*
X26518D01*
Y55358D01*
X26419Y55258D01*
X26918D02*
X27018Y55358D01*
X27218D01*
X27318Y55258D01*
Y54858D01*
X27218Y54758D01*
X27018D01*
X26918Y54858D01*
Y55258D01*
X27518D02*
X27618Y55358D01*
X27818D01*
X27918Y55258D01*
Y54858D01*
X27818Y54758D01*
X27618D01*
X27518Y54858D01*
Y55258D01*
X28118Y54758D02*
Y54858D01*
X28218D01*
Y54758D01*
X28118D01*
X28618Y55258D02*
X28718Y55358D01*
X28918D01*
X29018Y55258D01*
Y54858D01*
X28918Y54758D01*
X28718D01*
X28618Y54858D01*
Y55258D01*
X29218D02*
X29318Y55358D01*
X29518D01*
X29617Y55258D01*
Y54858D01*
X29518Y54758D01*
X29318D01*
X29218Y54858D01*
Y55258D01*
X30617Y54758D02*
X30417Y54958D01*
Y55158D01*
X30617Y55358D01*
X30917Y54758D02*
Y55158D01*
X31017D01*
X31117Y55058D01*
Y54758D01*
Y55058D01*
X31217Y55158D01*
X31317Y55058D01*
Y54758D01*
X31517D02*
Y55158D01*
X31617D01*
X31717Y55058D01*
Y54758D01*
Y55058D01*
X31817Y55158D01*
X31917Y55058D01*
Y54758D01*
X32117D02*
X32317Y54958D01*
Y55158D01*
X32117Y55358D01*
D139*
X22300Y22796D02*
X22232Y22864D01*
X22164Y22796D01*
Y22909D02*
X22255D01*
X22300Y22955D01*
X22255Y23000D01*
X22164D01*
X22300Y23045D02*
X22210D01*
X22164Y23091D01*
X22210Y23136D01*
X22300D01*
X22232D01*
Y23045D01*
X22164Y23181D02*
X22300D01*
Y23272D01*
X22164Y23317D02*
X22278D01*
X22300Y23340D01*
Y23385D01*
X22278Y23408D01*
X22164D01*
Y23544D02*
Y23453D01*
X22300D01*
Y23544D01*
X22232Y23453D02*
Y23499D01*
X22291Y20690D02*
X22223Y20758D01*
X22155Y20690D01*
Y20803D02*
X22245D01*
X22291Y20848D01*
X22245Y20894D01*
X22155D01*
X22291Y20939D02*
X22200D01*
X22155Y20984D01*
X22200Y21030D01*
X22291D01*
X22223D01*
Y20939D01*
X22155Y21075D02*
X22291D01*
Y21166D01*
X22155Y21211D02*
X22268D01*
X22291Y21234D01*
Y21279D01*
X22268Y21302D01*
X22155D01*
Y21438D02*
Y21347D01*
X22291D01*
Y21438D01*
X22223Y21347D02*
Y21392D01*
X22104Y42117D02*
X22036Y42185D01*
X21968Y42117D01*
Y42230D02*
X22058D01*
X22104Y42276D01*
X22058Y42321D01*
X21968D01*
X22104Y42366D02*
X22013D01*
X21968Y42412D01*
X22013Y42457D01*
X22104D01*
X22036D01*
Y42366D01*
X21968Y42502D02*
X22104D01*
Y42593D01*
X21968Y42638D02*
X22081D01*
X22104Y42661D01*
Y42706D01*
X22081Y42729D01*
X21968D01*
Y42865D02*
Y42774D01*
X22104D01*
Y42865D01*
X22036Y42774D02*
Y42819D01*
X28777Y41133D02*
X28709Y41201D01*
X28641Y41133D01*
Y41246D02*
X28731D01*
X28777Y41291D01*
X28731Y41337D01*
X28641D01*
X28777Y41382D02*
X28686D01*
X28641Y41427D01*
X28686Y41473D01*
X28777D01*
X28709D01*
Y41382D01*
X28641Y41518D02*
X28777D01*
Y41609D01*
X28641Y41654D02*
X28754D01*
X28777Y41677D01*
Y41722D01*
X28754Y41745D01*
X28641D01*
Y41881D02*
Y41790D01*
X28777D01*
Y41881D01*
X28709Y41790D02*
Y41835D01*
X21204Y39379D02*
X21272Y39311D01*
X21339Y39379D01*
Y39266D02*
X21249D01*
X21204Y39220D01*
X21249Y39175D01*
X21339D01*
X21204Y39130D02*
X21294D01*
X21339Y39084D01*
X21294Y39039D01*
X21204D01*
X21272D01*
Y39130D01*
X21339Y38994D02*
X21204D01*
Y38903D01*
X21339Y38858D02*
X21226D01*
X21204Y38835D01*
Y38790D01*
X21226Y38767D01*
X21339D01*
Y38631D02*
Y38722D01*
X21204D01*
Y38631D01*
X21272Y38722D02*
Y38677D01*
X19348Y38377D02*
X19280Y38445D01*
X19212Y38377D01*
Y38490D02*
X19302D01*
X19348Y38535D01*
X19302Y38581D01*
X19212D01*
X19348Y38626D02*
X19257D01*
X19212Y38671D01*
X19257Y38717D01*
X19348D01*
X19280D01*
Y38626D01*
X19212Y38762D02*
X19348D01*
Y38853D01*
X19212Y38898D02*
X19325D01*
X19348Y38921D01*
Y38966D01*
X19325Y38989D01*
X19212D01*
Y39125D02*
Y39034D01*
X19348D01*
Y39125D01*
X19280Y39034D02*
Y39079D01*
M02*
