G04*
G04 #@! TF.GenerationSoftware,Altium Limited,CircuitMaker,2.2.0 (2.2.0.5)*
G04*
G04 Layer_Color=128*
%FSLAX25Y25*%
%MOIN*%
G70*
G04*
G04 #@! TF.SameCoordinates,81B0039B-3CC0-4BB0-BBFD-AD45440123D6*
G04*
G04*
G04 #@! TF.FilePolarity,Positive*
G04*
G01*
G75*
%ADD37C,0.00200*%
D37*
X267323Y216535D02*
X272047D01*
X269685Y214173D02*
Y218898D01*
X267323Y226535D02*
X272047D01*
X269685Y224173D02*
Y228898D01*
X267323Y266535D02*
X272047D01*
X269685Y264173D02*
Y268898D01*
X267323Y286535D02*
X272047D01*
X269685Y284173D02*
Y288898D01*
X164961Y216535D02*
X169685D01*
X167323Y214173D02*
Y218898D01*
X164961Y226535D02*
X169685D01*
X167323Y224173D02*
Y228898D01*
X164961Y266535D02*
X169685D01*
X167323Y264173D02*
Y268898D01*
X164961Y286535D02*
X169685D01*
X167323Y284173D02*
Y288898D01*
X218110Y216535D02*
X222835D01*
X220472Y214173D02*
Y218898D01*
X218110Y226535D02*
X222835D01*
X220472Y224173D02*
Y228898D01*
X218110Y266535D02*
X222835D01*
X220472Y264173D02*
Y268898D01*
X218110Y286535D02*
X222835D01*
X220472Y284173D02*
Y288898D01*
X301386Y301969D02*
X305386D01*
X303386Y299969D02*
Y303969D01*
X291386Y301969D02*
X295386D01*
X293386Y299969D02*
Y303969D01*
X281386Y301969D02*
X285386D01*
X283386Y299969D02*
Y303969D01*
X271386Y301969D02*
X275386D01*
X273386Y299969D02*
Y303969D01*
X261386Y301969D02*
X265386D01*
X263386Y299969D02*
Y303969D01*
X251386Y301969D02*
X255386D01*
X253386Y299969D02*
Y303969D01*
X241386Y301969D02*
X245386D01*
X243386Y299969D02*
Y303969D01*
X231386Y301969D02*
X235386D01*
X233386Y299969D02*
Y303969D01*
X221386Y301969D02*
X225386D01*
X223386Y299969D02*
Y303969D01*
X211386Y301969D02*
X215386D01*
X213386Y299969D02*
Y303969D01*
X201386Y301969D02*
X205386D01*
X203386Y299969D02*
Y303969D01*
X191386Y301969D02*
X195386D01*
X193386Y299969D02*
Y303969D01*
X181386Y301969D02*
X185386D01*
X183386Y299969D02*
Y303969D01*
X161386Y301969D02*
X165386D01*
X163386Y299969D02*
Y303969D01*
X301386Y201969D02*
X305386D01*
X303386Y199969D02*
Y203969D01*
X291386Y201969D02*
X295386D01*
X293386Y199969D02*
Y203969D01*
X281386Y201969D02*
X285386D01*
X283386Y199969D02*
Y203969D01*
X271386Y201969D02*
X275386D01*
X273386Y199969D02*
Y203969D01*
X261386Y201969D02*
X265386D01*
X263386Y199969D02*
Y203969D01*
X251386Y201969D02*
X255386D01*
X253386Y199969D02*
Y203969D01*
X241386Y201969D02*
X245386D01*
X243386Y199969D02*
Y203969D01*
X231386Y201969D02*
X235386D01*
X233386Y199969D02*
Y203969D01*
X221386Y201969D02*
X225386D01*
X223386Y199969D02*
Y203969D01*
X211386Y201969D02*
X215386D01*
X213386Y199969D02*
Y203969D01*
X201386Y201969D02*
X205386D01*
X203386Y199969D02*
Y203969D01*
X191386Y201969D02*
X195386D01*
X193386Y199969D02*
Y203969D01*
X181386Y201969D02*
X185386D01*
X183386Y199969D02*
Y203969D01*
X171386Y201969D02*
X175386D01*
X173386Y199969D02*
Y203969D01*
X161386Y201969D02*
X165386D01*
X163386Y199969D02*
Y203969D01*
X171386Y301969D02*
X175386D01*
X173386Y299969D02*
Y303969D01*
X127953Y297953D02*
X139764D01*
X133858Y292047D02*
Y303858D01*
X127953Y205984D02*
X139764D01*
X133858Y200079D02*
Y211890D01*
X311260Y205984D02*
X323071D01*
X317165Y200079D02*
Y211890D01*
X311260Y297953D02*
X323071D01*
X317165Y292047D02*
Y303858D01*
X349213Y220472D02*
X359449D01*
X354331Y215354D02*
Y225590D01*
X349213Y240158D02*
X359449D01*
X354331Y235039D02*
Y245276D01*
X320276Y139764D02*
X325394D01*
X322835Y137205D02*
Y142323D01*
X300591Y139764D02*
X305709D01*
X303150Y137205D02*
Y142323D01*
X280906Y139764D02*
X286024D01*
X283465Y137205D02*
Y142323D01*
X186417Y139764D02*
X191535D01*
X188976Y137205D02*
Y142323D01*
X166732Y139764D02*
X171850D01*
X169291Y137205D02*
Y142323D01*
X147047Y139764D02*
X152165D01*
X149606Y137205D02*
Y142323D01*
X253346Y139764D02*
X258465D01*
X255906Y137205D02*
Y142323D01*
X233661Y139764D02*
X238779D01*
X236221Y137205D02*
Y142323D01*
X213976Y139764D02*
X219094D01*
X216535Y137205D02*
Y142323D01*
X286221Y281496D02*
X296457D01*
X291339Y276378D02*
Y286614D01*
X286221Y261811D02*
X296457D01*
X291339Y256693D02*
Y266929D01*
X237008Y281496D02*
X247244D01*
X242126Y276378D02*
Y286614D01*
X237008Y261811D02*
X247244D01*
X242126Y256693D02*
Y266929D01*
X187795Y281496D02*
X198031D01*
X192913Y276378D02*
Y286614D01*
X187795Y261811D02*
X198031D01*
X192913Y256693D02*
Y266929D01*
X111811Y295276D02*
X124409D01*
X118110Y288976D02*
Y301575D01*
X111811Y137795D02*
X124409D01*
X118110Y131496D02*
Y144094D01*
X348032Y137795D02*
X360630D01*
X354331Y131496D02*
Y144094D01*
X348032Y295276D02*
X360630D01*
X354331Y288976D02*
Y301575D01*
M02*
