M48
;Layer_Color=6321
;FILE_FORMAT=2:4
INCH,LZ
;TYPE=PLATED
T1F00S00C0.0197
T2F00S00C0.0200
T3F00S00C0.0250
T4F00S00C0.0276
T5F00S00C0.0280
T6F00S00C0.0360
T7F00S00C0.0362
T8F00S00C0.0402
T9F00S00C0.0748
T10F00S00C0.0756
T11F00S00C0.0906
;TYPE=NON_PLATED
%
T01
X047244Y019722
Y020222
Y020722
Y021222
Y023266
Y023766
Y024266
Y024766
X043307Y022797
Y022297
Y021797
Y021297
T02
X047244Y011024
Y012024
Y014567
Y015567
Y026772
Y027772
T03
X023Y010433
Y012598
Y014961
X027
X027921Y014764
Y012598
X027
Y010433
X027921
X031921
Y012598
X033039Y012795
X033039Y014961
X031921Y014764
X037039Y014961
X037039Y012795
X037039Y017126
Y019291
Y021457
X037039Y023622
Y025787
X037039Y027953
X033039
X032118
Y025787
X033039
Y023622
X032118Y023622
X031921Y021457
X033039
Y019291
X031921
Y017126
X033039
X027921
X027
Y019291
X027921
Y021457
X027
Y023622
X028118
Y025787
X027
Y027953
X028118
X023
X021685
Y025591
X023Y025787
Y023622
X021685Y023425
Y02126
X023Y021457
Y019291
Y017126
X017685Y02126
Y023425
Y025591
Y027953
T04
X042717Y026772
X043346
X043976
X043661Y027244
X043032
T05
X01703Y01142
X02255Y01204
X02325Y01128
X02445Y0137
X03349Y01344
X02783Y01997
X02779Y0206
X02234Y02317
X01265Y02643
T06
X03937Y017291
Y018291
Y019291
Y021622
Y022622
Y023622
Y025953
Y026953
Y027953
T07
X042421Y012344
Y013132
X043406
Y012344
T08
X016142Y018925
Y019925
Y020925
Y021925
Y022925
Y023925
Y024925
Y025925
Y026925
Y027925
X014173
Y026925
Y025925
Y024925
Y023925
Y022925
Y021925
Y020925
Y019925
Y018925
X012205
Y019925
Y020925
Y021925
Y022925
Y023925
Y024925
Y025925
Y026925
Y027925
T09
X044803Y02876
T10
X041929Y02876
T11
X040543Y011278
X045283
M30
