G04 Layer_Color=8150272*
%FSLAX24Y24*%
%MOIN*%
G70*
G01*
G75*
%ADD23O,0.1261X0.2049*%
%ADD24P,0.0726X8X22.5*%
%ADD25O,0.0880X0.0680*%
%ADD26C,0.0552*%
%ADD27C,0.1150*%
%ADD28C,0.0680*%
%ADD29R,0.0680X0.0680*%
G04:AMPARAMS|DCode=30|XSize=68mil|YSize=88mil|CornerRadius=19mil|HoleSize=0mil|Usage=FLASHONLY|Rotation=270.000|XOffset=0mil|YOffset=0mil|HoleType=Round|Shape=RoundedRectangle|*
%AMROUNDEDRECTD30*
21,1,0.0680,0.0500,0,0,270.0*
21,1,0.0300,0.0880,0,0,270.0*
1,1,0.0380,-0.0250,-0.0150*
1,1,0.0380,-0.0250,0.0150*
1,1,0.0380,0.0250,0.0150*
1,1,0.0380,0.0250,-0.0150*
%
%ADD30ROUNDEDRECTD30*%
%ADD31R,0.0880X0.0680*%
%ADD32O,0.0867X0.0474*%
%ADD33C,0.0580*%
D23*
X40543Y11278D02*
D03*
X45283D02*
D03*
D24*
X43406Y12344D02*
D03*
Y13132D02*
D03*
X42421D02*
D03*
Y12344D02*
D03*
D25*
X47244Y11024D02*
D03*
Y12024D02*
D03*
Y26772D02*
D03*
Y27772D02*
D03*
Y14567D02*
D03*
Y15567D02*
D03*
D26*
X42717Y26772D02*
D03*
X43032Y27244D02*
D03*
X43346Y26772D02*
D03*
X43661Y27244D02*
D03*
X43976Y26772D02*
D03*
D27*
X41929Y28760D02*
D03*
X44803D02*
D03*
D28*
X33039Y27953D02*
D03*
X37039D02*
D03*
X33039Y25787D02*
D03*
X37039D02*
D03*
X33039Y23622D02*
D03*
X37039D02*
D03*
X33039Y21457D02*
D03*
X37039D02*
D03*
X33039Y19291D02*
D03*
X37039D02*
D03*
X33039Y17126D02*
D03*
X37039D02*
D03*
X33039Y14961D02*
D03*
X37039D02*
D03*
X33039Y12795D02*
D03*
X37039D02*
D03*
X28118Y27953D02*
D03*
X32118D02*
D03*
X28118Y25787D02*
D03*
X32118D02*
D03*
X28118Y23622D02*
D03*
X32118D02*
D03*
X27921Y21457D02*
D03*
X31921D02*
D03*
X27921Y19291D02*
D03*
X31921D02*
D03*
X27921Y17126D02*
D03*
X31921D02*
D03*
X27921Y14764D02*
D03*
X31921D02*
D03*
X27921Y12598D02*
D03*
X31921D02*
D03*
X27921Y10433D02*
D03*
X31921D02*
D03*
X23000Y27953D02*
D03*
X27000D02*
D03*
X23000Y25787D02*
D03*
X27000D02*
D03*
X23000Y23622D02*
D03*
X27000D02*
D03*
X23000Y21457D02*
D03*
X27000D02*
D03*
X16142Y26925D02*
D03*
Y25925D02*
D03*
Y24925D02*
D03*
Y23925D02*
D03*
Y22925D02*
D03*
Y21925D02*
D03*
Y20925D02*
D03*
Y19925D02*
D03*
Y18925D02*
D03*
X14173Y26925D02*
D03*
Y25925D02*
D03*
Y24925D02*
D03*
Y23925D02*
D03*
Y22925D02*
D03*
Y21925D02*
D03*
Y20925D02*
D03*
Y19925D02*
D03*
Y18925D02*
D03*
X12205Y26925D02*
D03*
Y25925D02*
D03*
Y24925D02*
D03*
Y23925D02*
D03*
Y22925D02*
D03*
Y21925D02*
D03*
Y20925D02*
D03*
Y19925D02*
D03*
Y18925D02*
D03*
X23000Y19291D02*
D03*
X27000D02*
D03*
X23000Y17126D02*
D03*
X27000D02*
D03*
X23000Y14961D02*
D03*
X27000D02*
D03*
X23000Y12598D02*
D03*
X27000D02*
D03*
X23000Y10433D02*
D03*
X27000D02*
D03*
X17685Y27953D02*
D03*
X21685D02*
D03*
X17685Y25591D02*
D03*
X21685D02*
D03*
X17685Y23425D02*
D03*
X21685D02*
D03*
X17685Y21260D02*
D03*
X21685D02*
D03*
D29*
X16142Y27925D02*
D03*
X14173D02*
D03*
X12205D02*
D03*
D30*
X39370Y25953D02*
D03*
Y26953D02*
D03*
Y17291D02*
D03*
Y18291D02*
D03*
Y21622D02*
D03*
Y22622D02*
D03*
D31*
Y27953D02*
D03*
Y19291D02*
D03*
Y23622D02*
D03*
D32*
X47244Y23266D02*
D03*
Y23766D02*
D03*
Y24266D02*
D03*
Y24766D02*
D03*
Y19722D02*
D03*
Y20222D02*
D03*
Y20722D02*
D03*
Y21222D02*
D03*
X43307Y21297D02*
D03*
Y21797D02*
D03*
Y22297D02*
D03*
Y22797D02*
D03*
D33*
X24450Y13700D02*
D03*
X22340Y23170D02*
D03*
X27830Y19970D02*
D03*
X27790Y20600D02*
D03*
X12650Y26430D02*
D03*
X33490Y13440D02*
D03*
X17030Y11420D02*
D03*
X22550Y12040D02*
D03*
X23250Y11280D02*
D03*
M02*
