G04*
G04 #@! TF.GenerationSoftware,Altium Limited,CircuitMaker,2.2.0 (2.2.0.5)*
G04*
G04 Layer_Physical_Order=4*
G04 Layer_Color=11436288*
%FSLAX25Y25*%
%MOIN*%
G70*
G04*
G04 #@! TF.SameCoordinates,81B0039B-3CC0-4BB0-BBFD-AD45440123D6*
G04*
G04*
G04 #@! TF.FilePolarity,Positive*
G04*
G01*
G75*
%ADD23C,0.06000*%
%ADD27C,0.03937*%
%ADD29R,0.09842X0.07874*%
%ADD30O,0.09842X0.07874*%
%ADD31O,0.09842X0.09842*%
G04:AMPARAMS|DCode=32|XSize=60mil|YSize=90mil|CornerRadius=15mil|HoleSize=0mil|Usage=FLASHONLY|Rotation=0.000|XOffset=0mil|YOffset=0mil|HoleType=Round|Shape=RoundedRectangle|*
%AMROUNDEDRECTD32*
21,1,0.06000,0.06000,0,0,0.0*
21,1,0.03000,0.09000,0,0,0.0*
1,1,0.03000,0.01500,-0.03000*
1,1,0.03000,-0.01500,-0.03000*
1,1,0.03000,-0.01500,0.03000*
1,1,0.03000,0.01500,0.03000*
%
%ADD32ROUNDEDRECTD32*%
%ADD33C,0.15748*%
%ADD34C,0.10236*%
G36*
X354272Y313718D02*
X354272Y313718D01*
X354272Y313718D01*
X355890Y313612D01*
X358390Y313115D01*
X360804Y312296D01*
X363090Y311168D01*
X365210Y309752D01*
X367126Y308071D01*
X368807Y306155D01*
X370223Y304035D01*
X371351Y301749D01*
X372170Y299335D01*
X372667Y296835D01*
X372834Y294291D01*
X372773Y293366D01*
X372773Y293366D01*
X372795Y293265D01*
Y137795D01*
X372815Y137696D01*
X372698Y135901D01*
X372211Y133452D01*
X371408Y131088D01*
X370304Y128849D01*
X368917Y126774D01*
X367271Y124897D01*
X365394Y123251D01*
X363319Y121864D01*
X361080Y120760D01*
X358716Y119958D01*
X356268Y119471D01*
X353777Y119307D01*
X353217Y119344D01*
Y119344D01*
X352728Y119331D01*
X118110D01*
X118061Y119321D01*
X115698Y119476D01*
X113328Y119947D01*
X111039Y120724D01*
X108871Y121793D01*
X106862Y123136D01*
X105044Y124730D01*
X103451Y126547D01*
X102108Y128556D01*
X101039Y130724D01*
X100262Y133013D01*
X99791Y135383D01*
X99665Y137299D01*
X99646Y137795D01*
X99646Y137795D01*
X99646Y138288D01*
Y295276D01*
X99636Y295325D01*
X99791Y297687D01*
X100262Y300058D01*
X101039Y302347D01*
X102108Y304515D01*
X103451Y306524D01*
X105044Y308341D01*
X106862Y309935D01*
X108871Y311278D01*
X111039Y312347D01*
X113328Y313124D01*
X115698Y313595D01*
X117618Y313721D01*
X118110Y313740D01*
Y313740D01*
X118110Y313740D01*
X354251D01*
X354272Y313718D01*
D02*
G37*
%LPC*%
G36*
X174886Y307518D02*
X173886D01*
Y302468D01*
X177435D01*
Y304969D01*
X177241Y305944D01*
X176688Y306771D01*
X175861Y307324D01*
X174886Y307518D01*
D02*
G37*
G36*
X172886D02*
X171886D01*
X170910Y307324D01*
X170083Y306771D01*
X169531Y305944D01*
X169337Y304969D01*
Y302468D01*
X172886D01*
Y307518D01*
D02*
G37*
G36*
X304886D02*
X301886D01*
X300910Y307324D01*
X300083Y306771D01*
X299531Y305944D01*
X299337Y304969D01*
Y298969D01*
X299531Y297993D01*
X300083Y297166D01*
X300910Y296614D01*
X301886Y296420D01*
X304886D01*
X305861Y296614D01*
X306688Y297166D01*
X307241Y297993D01*
X307435Y298969D01*
Y304969D01*
X307241Y305944D01*
X306688Y306771D01*
X305861Y307324D01*
X304886Y307518D01*
D02*
G37*
G36*
X294886D02*
X291886D01*
X290910Y307324D01*
X290083Y306771D01*
X289531Y305944D01*
X289337Y304969D01*
Y298969D01*
X289531Y297993D01*
X290083Y297166D01*
X290910Y296614D01*
X291886Y296420D01*
X294886D01*
X295861Y296614D01*
X296688Y297166D01*
X297241Y297993D01*
X297435Y298969D01*
Y304969D01*
X297241Y305944D01*
X296688Y306771D01*
X295861Y307324D01*
X294886Y307518D01*
D02*
G37*
G36*
X284886D02*
X281886D01*
X280910Y307324D01*
X280083Y306771D01*
X279531Y305944D01*
X279337Y304969D01*
Y298969D01*
X279531Y297993D01*
X280083Y297166D01*
X280910Y296614D01*
X281886Y296420D01*
X284886D01*
X285861Y296614D01*
X286688Y297166D01*
X287241Y297993D01*
X287435Y298969D01*
Y304969D01*
X287241Y305944D01*
X286688Y306771D01*
X285861Y307324D01*
X284886Y307518D01*
D02*
G37*
G36*
X274886D02*
X271886D01*
X270910Y307324D01*
X270083Y306771D01*
X269531Y305944D01*
X269337Y304969D01*
Y298969D01*
X269531Y297993D01*
X270083Y297166D01*
X270910Y296614D01*
X271886Y296420D01*
X274886D01*
X275861Y296614D01*
X276688Y297166D01*
X277241Y297993D01*
X277435Y298969D01*
Y304969D01*
X277241Y305944D01*
X276688Y306771D01*
X275861Y307324D01*
X274886Y307518D01*
D02*
G37*
G36*
X264886D02*
X261886D01*
X260910Y307324D01*
X260083Y306771D01*
X259531Y305944D01*
X259337Y304969D01*
Y298969D01*
X259531Y297993D01*
X260083Y297166D01*
X260910Y296614D01*
X261886Y296420D01*
X264886D01*
X265861Y296614D01*
X266688Y297166D01*
X267241Y297993D01*
X267435Y298969D01*
Y304969D01*
X267241Y305944D01*
X266688Y306771D01*
X265861Y307324D01*
X264886Y307518D01*
D02*
G37*
G36*
X254886D02*
X251886D01*
X250910Y307324D01*
X250083Y306771D01*
X249531Y305944D01*
X249337Y304969D01*
Y298969D01*
X249531Y297993D01*
X250083Y297166D01*
X250910Y296614D01*
X251886Y296420D01*
X254886D01*
X255861Y296614D01*
X256688Y297166D01*
X257241Y297993D01*
X257435Y298969D01*
Y304969D01*
X257241Y305944D01*
X256688Y306771D01*
X255861Y307324D01*
X254886Y307518D01*
D02*
G37*
G36*
X244886D02*
X241886D01*
X240910Y307324D01*
X240083Y306771D01*
X239531Y305944D01*
X239337Y304969D01*
Y298969D01*
X239531Y297993D01*
X240083Y297166D01*
X240910Y296614D01*
X241886Y296420D01*
X244886D01*
X245861Y296614D01*
X246688Y297166D01*
X247241Y297993D01*
X247435Y298969D01*
Y304969D01*
X247241Y305944D01*
X246688Y306771D01*
X245861Y307324D01*
X244886Y307518D01*
D02*
G37*
G36*
X234886D02*
X231886D01*
X230910Y307324D01*
X230083Y306771D01*
X229531Y305944D01*
X229337Y304969D01*
Y298969D01*
X229531Y297993D01*
X230083Y297166D01*
X230910Y296614D01*
X231886Y296420D01*
X234886D01*
X235861Y296614D01*
X236688Y297166D01*
X237241Y297993D01*
X237435Y298969D01*
Y304969D01*
X237241Y305944D01*
X236688Y306771D01*
X235861Y307324D01*
X234886Y307518D01*
D02*
G37*
G36*
X224886D02*
X221886D01*
X220910Y307324D01*
X220083Y306771D01*
X219531Y305944D01*
X219337Y304969D01*
Y298969D01*
X219531Y297993D01*
X220083Y297166D01*
X220910Y296614D01*
X221886Y296420D01*
X224886D01*
X225861Y296614D01*
X226688Y297166D01*
X227241Y297993D01*
X227435Y298969D01*
Y304969D01*
X227241Y305944D01*
X226688Y306771D01*
X225861Y307324D01*
X224886Y307518D01*
D02*
G37*
G36*
X214886D02*
X211886D01*
X210910Y307324D01*
X210083Y306771D01*
X209531Y305944D01*
X209337Y304969D01*
Y298969D01*
X209531Y297993D01*
X210083Y297166D01*
X210910Y296614D01*
X211886Y296420D01*
X214886D01*
X215861Y296614D01*
X216688Y297166D01*
X217241Y297993D01*
X217435Y298969D01*
Y304969D01*
X217241Y305944D01*
X216688Y306771D01*
X215861Y307324D01*
X214886Y307518D01*
D02*
G37*
G36*
X204886D02*
X201886D01*
X200910Y307324D01*
X200083Y306771D01*
X199531Y305944D01*
X199337Y304969D01*
Y298969D01*
X199531Y297993D01*
X200083Y297166D01*
X200910Y296614D01*
X201886Y296420D01*
X204886D01*
X205861Y296614D01*
X206688Y297166D01*
X207241Y297993D01*
X207435Y298969D01*
Y304969D01*
X207241Y305944D01*
X206688Y306771D01*
X205861Y307324D01*
X204886Y307518D01*
D02*
G37*
G36*
X194886D02*
X191886D01*
X190910Y307324D01*
X190083Y306771D01*
X189531Y305944D01*
X189337Y304969D01*
Y298969D01*
X189531Y297993D01*
X190083Y297166D01*
X190910Y296614D01*
X191886Y296420D01*
X194886D01*
X195861Y296614D01*
X196688Y297166D01*
X197241Y297993D01*
X197435Y298969D01*
Y304969D01*
X197241Y305944D01*
X196688Y306771D01*
X195861Y307324D01*
X194886Y307518D01*
D02*
G37*
G36*
X184886D02*
X181886D01*
X180910Y307324D01*
X180083Y306771D01*
X179531Y305944D01*
X179337Y304969D01*
Y298969D01*
X179531Y297993D01*
X180083Y297166D01*
X180910Y296614D01*
X181886Y296420D01*
X184886D01*
X185861Y296614D01*
X186688Y297166D01*
X187241Y297993D01*
X187435Y298969D01*
Y304969D01*
X187241Y305944D01*
X186688Y306771D01*
X185861Y307324D01*
X184886Y307518D01*
D02*
G37*
G36*
X177435Y301468D02*
X173886D01*
Y296420D01*
X174886D01*
X175861Y296614D01*
X176688Y297166D01*
X177241Y297993D01*
X177435Y298969D01*
Y301468D01*
D02*
G37*
G36*
X172886D02*
X169337D01*
Y298969D01*
X169531Y297993D01*
X170083Y297166D01*
X170910Y296614D01*
X171886Y296420D01*
X172886D01*
Y301468D01*
D02*
G37*
G36*
X164886Y307518D02*
X161886D01*
X160910Y307324D01*
X160083Y306771D01*
X159531Y305944D01*
X159337Y304969D01*
Y298969D01*
X159531Y297993D01*
X160083Y297166D01*
X160910Y296614D01*
X161886Y296420D01*
X164886D01*
X165861Y296614D01*
X166688Y297166D01*
X167241Y297993D01*
X167435Y298969D01*
Y304969D01*
X167241Y305944D01*
X166688Y306771D01*
X165861Y307324D01*
X164886Y307518D01*
D02*
G37*
G36*
X317165Y304892D02*
X315812Y304758D01*
X314510Y304363D01*
X313310Y303722D01*
X312259Y302859D01*
X311396Y301808D01*
X310755Y300608D01*
X310360Y299307D01*
X310226Y297953D01*
X310360Y296599D01*
X310755Y295297D01*
X311396Y294098D01*
X312259Y293046D01*
X313310Y292183D01*
X314510Y291542D01*
X315812Y291147D01*
X317165Y291014D01*
X318519Y291147D01*
X319821Y291542D01*
X321020Y292183D01*
X322072Y293046D01*
X322935Y294098D01*
X323576Y295297D01*
X323971Y296599D01*
X324104Y297953D01*
X323971Y299307D01*
X323576Y300608D01*
X322935Y301808D01*
X322072Y302859D01*
X321020Y303722D01*
X319821Y304363D01*
X318519Y304758D01*
X317165Y304892D01*
D02*
G37*
G36*
X133858D02*
X132504Y304758D01*
X131203Y304363D01*
X130003Y303722D01*
X128952Y302859D01*
X128089Y301808D01*
X127447Y300608D01*
X127053Y299307D01*
X126919Y297953D01*
X127053Y296599D01*
X127447Y295297D01*
X128089Y294098D01*
X128952Y293046D01*
X130003Y292183D01*
X131203Y291542D01*
X132504Y291147D01*
X133858Y291014D01*
X135212Y291147D01*
X136514Y291542D01*
X137713Y292183D01*
X138765Y293046D01*
X139628Y294098D01*
X140269Y295297D01*
X140664Y296599D01*
X140797Y297953D01*
X140664Y299307D01*
X140269Y300608D01*
X139628Y301808D01*
X138765Y302859D01*
X137713Y303722D01*
X136514Y304363D01*
X135212Y304758D01*
X133858Y304892D01*
D02*
G37*
G36*
X354331Y302610D02*
X352900Y302469D01*
X351524Y302052D01*
X350256Y301374D01*
X349145Y300462D01*
X348232Y299350D01*
X347555Y298082D01*
X347137Y296707D01*
X346996Y295276D01*
X347137Y293845D01*
X347555Y292469D01*
X348232Y291201D01*
X349145Y290089D01*
X350256Y289177D01*
X351524Y288499D01*
X352900Y288082D01*
X354331Y287941D01*
X355762Y288082D01*
X357138Y288499D01*
X358406Y289177D01*
X359517Y290089D01*
X360429Y291201D01*
X361107Y292469D01*
X361524Y293845D01*
X361665Y295276D01*
X361524Y296707D01*
X361107Y298082D01*
X360429Y299350D01*
X359517Y300462D01*
X358406Y301374D01*
X357138Y302052D01*
X355762Y302469D01*
X354331Y302610D01*
D02*
G37*
G36*
X118110D02*
X116679Y302469D01*
X115303Y302052D01*
X114035Y301374D01*
X112924Y300462D01*
X112012Y299350D01*
X111334Y298082D01*
X110917Y296707D01*
X110776Y295276D01*
X110917Y293845D01*
X111334Y292469D01*
X112012Y291201D01*
X112924Y290089D01*
X114035Y289177D01*
X115303Y288499D01*
X116679Y288082D01*
X118110Y287941D01*
X119541Y288082D01*
X120917Y288499D01*
X122185Y289177D01*
X123296Y290089D01*
X124209Y291201D01*
X124886Y292469D01*
X125304Y293845D01*
X125445Y295276D01*
X125304Y296707D01*
X124886Y298082D01*
X124209Y299350D01*
X123296Y300462D01*
X122185Y301374D01*
X120917Y302052D01*
X119541Y302469D01*
X118110Y302610D01*
D02*
G37*
G36*
X269685Y292485D02*
X268524Y292371D01*
X267408Y292032D01*
X266379Y291483D01*
X265478Y290743D01*
X264738Y289841D01*
X264188Y288812D01*
X263849Y287696D01*
X263735Y286535D01*
X263849Y285375D01*
X264188Y284259D01*
X264738Y283230D01*
X265478Y282328D01*
X266379Y281588D01*
X267408Y281038D01*
X268524Y280700D01*
X269685Y280586D01*
X270846Y280700D01*
X271962Y281038D01*
X272991Y281588D01*
X273892Y282328D01*
X274632Y283230D01*
X275182Y284259D01*
X275521Y285375D01*
X275635Y286535D01*
X275521Y287696D01*
X275182Y288812D01*
X274632Y289841D01*
X273892Y290743D01*
X272991Y291483D01*
X271962Y292032D01*
X270846Y292371D01*
X269685Y292485D01*
D02*
G37*
G36*
X220472D02*
X219312Y292371D01*
X218196Y292032D01*
X217167Y291483D01*
X216265Y290743D01*
X215525Y289841D01*
X214975Y288812D01*
X214637Y287696D01*
X214523Y286535D01*
X214637Y285375D01*
X214975Y284259D01*
X215525Y283230D01*
X216265Y282328D01*
X217167Y281588D01*
X218196Y281038D01*
X219312Y280700D01*
X220472Y280586D01*
X221633Y280700D01*
X222749Y281038D01*
X223778Y281588D01*
X224680Y282328D01*
X225420Y283230D01*
X225969Y284259D01*
X226308Y285375D01*
X226422Y286535D01*
X226308Y287696D01*
X225969Y288812D01*
X225420Y289841D01*
X224680Y290743D01*
X223778Y291483D01*
X222749Y292032D01*
X221633Y292371D01*
X220472Y292485D01*
D02*
G37*
G36*
X167323D02*
X166162Y292371D01*
X165046Y292032D01*
X164017Y291483D01*
X163116Y290743D01*
X162376Y289841D01*
X161826Y288812D01*
X161487Y287696D01*
X161373Y286535D01*
X161487Y285375D01*
X161826Y284259D01*
X162376Y283230D01*
X163116Y282328D01*
X164017Y281588D01*
X165046Y281038D01*
X166162Y280700D01*
X167323Y280586D01*
X168484Y280700D01*
X169600Y281038D01*
X170628Y281588D01*
X171530Y282328D01*
X172270Y283230D01*
X172820Y284259D01*
X173158Y285375D01*
X173273Y286535D01*
X173158Y287696D01*
X172820Y288812D01*
X172270Y289841D01*
X171530Y290743D01*
X170628Y291483D01*
X169600Y292032D01*
X168484Y292371D01*
X167323Y292485D01*
D02*
G37*
G36*
X291339Y290413D02*
X289599Y290242D01*
X287926Y289734D01*
X286385Y288910D01*
X285033Y287801D01*
X283924Y286450D01*
X283100Y284908D01*
X282593Y283236D01*
X282422Y281496D01*
X282593Y279756D01*
X283100Y278084D01*
X283924Y276542D01*
X285033Y275191D01*
X286385Y274082D01*
X287926Y273258D01*
X289599Y272750D01*
X291339Y272579D01*
X293078Y272750D01*
X294751Y273258D01*
X296293Y274082D01*
X297644Y275191D01*
X298753Y276542D01*
X299577Y278084D01*
X300084Y279756D01*
X300255Y281496D01*
X300084Y283236D01*
X299577Y284908D01*
X298753Y286450D01*
X297644Y287801D01*
X296293Y288910D01*
X294751Y289734D01*
X293078Y290242D01*
X291339Y290413D01*
D02*
G37*
G36*
X242126D02*
X240386Y290242D01*
X238714Y289734D01*
X237172Y288910D01*
X235821Y287801D01*
X234712Y286450D01*
X233888Y284908D01*
X233380Y283236D01*
X233209Y281496D01*
X233380Y279756D01*
X233888Y278084D01*
X234712Y276542D01*
X235821Y275191D01*
X237172Y274082D01*
X238714Y273258D01*
X240386Y272750D01*
X242126Y272579D01*
X243866Y272750D01*
X245538Y273258D01*
X247080Y274082D01*
X248431Y275191D01*
X249540Y276542D01*
X250364Y278084D01*
X250872Y279756D01*
X251043Y281496D01*
X250872Y283236D01*
X250364Y284908D01*
X249540Y286450D01*
X248431Y287801D01*
X247080Y288910D01*
X245538Y289734D01*
X243866Y290242D01*
X242126Y290413D01*
D02*
G37*
G36*
X192913D02*
X191174Y290242D01*
X189501Y289734D01*
X187959Y288910D01*
X186608Y287801D01*
X185499Y286450D01*
X184675Y284908D01*
X184168Y283236D01*
X183996Y281496D01*
X184168Y279756D01*
X184675Y278084D01*
X185499Y276542D01*
X186608Y275191D01*
X187959Y274082D01*
X189501Y273258D01*
X191174Y272750D01*
X192913Y272579D01*
X194653Y272750D01*
X196326Y273258D01*
X197867Y274082D01*
X199219Y275191D01*
X200328Y276542D01*
X201152Y278084D01*
X201659Y279756D01*
X201830Y281496D01*
X201659Y283236D01*
X201152Y284908D01*
X200328Y286450D01*
X199219Y287801D01*
X197867Y288910D01*
X196326Y289734D01*
X194653Y290242D01*
X192913Y290413D01*
D02*
G37*
G36*
X269685Y272485D02*
X268524Y272371D01*
X267408Y272032D01*
X266379Y271483D01*
X265478Y270743D01*
X264738Y269841D01*
X264188Y268812D01*
X263849Y267696D01*
X263735Y266535D01*
X263849Y265375D01*
X264188Y264259D01*
X264738Y263230D01*
X265478Y262328D01*
X266379Y261588D01*
X267408Y261038D01*
X268524Y260700D01*
X269685Y260585D01*
X270846Y260700D01*
X271962Y261038D01*
X272991Y261588D01*
X273892Y262328D01*
X274632Y263230D01*
X275182Y264259D01*
X275521Y265375D01*
X275635Y266535D01*
X275521Y267696D01*
X275182Y268812D01*
X274632Y269841D01*
X273892Y270743D01*
X272991Y271483D01*
X271962Y272032D01*
X270846Y272371D01*
X269685Y272485D01*
D02*
G37*
G36*
X220472D02*
X219312Y272371D01*
X218196Y272032D01*
X217167Y271483D01*
X216265Y270743D01*
X215525Y269841D01*
X214975Y268812D01*
X214637Y267696D01*
X214523Y266535D01*
X214637Y265375D01*
X214975Y264259D01*
X215525Y263230D01*
X216265Y262328D01*
X217167Y261588D01*
X218196Y261038D01*
X219312Y260700D01*
X220472Y260585D01*
X221633Y260700D01*
X222749Y261038D01*
X223778Y261588D01*
X224680Y262328D01*
X225420Y263230D01*
X225969Y264259D01*
X226308Y265375D01*
X226422Y266535D01*
X226308Y267696D01*
X225969Y268812D01*
X225420Y269841D01*
X224680Y270743D01*
X223778Y271483D01*
X222749Y272032D01*
X221633Y272371D01*
X220472Y272485D01*
D02*
G37*
G36*
X167323D02*
X166162Y272371D01*
X165046Y272032D01*
X164017Y271483D01*
X163116Y270743D01*
X162376Y269841D01*
X161826Y268812D01*
X161487Y267696D01*
X161373Y266535D01*
X161487Y265375D01*
X161826Y264259D01*
X162376Y263230D01*
X163116Y262328D01*
X164017Y261588D01*
X165046Y261038D01*
X166162Y260700D01*
X167323Y260585D01*
X168484Y260700D01*
X169600Y261038D01*
X170628Y261588D01*
X171530Y262328D01*
X172270Y263230D01*
X172820Y264259D01*
X173158Y265375D01*
X173273Y266535D01*
X173158Y267696D01*
X172820Y268812D01*
X172270Y269841D01*
X171530Y270743D01*
X170628Y271483D01*
X169600Y272032D01*
X168484Y272371D01*
X167323Y272485D01*
D02*
G37*
G36*
X291339Y270728D02*
X289599Y270557D01*
X287926Y270049D01*
X286385Y269225D01*
X285033Y268116D01*
X283924Y266765D01*
X283100Y265223D01*
X282593Y263551D01*
X282422Y261811D01*
X282593Y260071D01*
X283100Y258399D01*
X283924Y256857D01*
X285033Y255506D01*
X286385Y254397D01*
X287926Y253573D01*
X289599Y253065D01*
X291339Y252894D01*
X293078Y253065D01*
X294751Y253573D01*
X296293Y254397D01*
X297644Y255506D01*
X298753Y256857D01*
X299577Y258399D01*
X300084Y260071D01*
X300255Y261811D01*
X300084Y263551D01*
X299577Y265223D01*
X298753Y266765D01*
X297644Y268116D01*
X296293Y269225D01*
X294751Y270049D01*
X293078Y270557D01*
X291339Y270728D01*
D02*
G37*
G36*
X242126D02*
X240386Y270557D01*
X238714Y270049D01*
X237172Y269225D01*
X235821Y268116D01*
X234712Y266765D01*
X233888Y265223D01*
X233380Y263551D01*
X233209Y261811D01*
X233380Y260071D01*
X233888Y258399D01*
X234712Y256857D01*
X235821Y255506D01*
X237172Y254397D01*
X238714Y253573D01*
X240386Y253065D01*
X242126Y252894D01*
X243866Y253065D01*
X245538Y253573D01*
X247080Y254397D01*
X248431Y255506D01*
X249540Y256857D01*
X250364Y258399D01*
X250872Y260071D01*
X251043Y261811D01*
X250872Y263551D01*
X250364Y265223D01*
X249540Y266765D01*
X248431Y268116D01*
X247080Y269225D01*
X245538Y270049D01*
X243866Y270557D01*
X242126Y270728D01*
D02*
G37*
G36*
X192913D02*
X191174Y270557D01*
X189501Y270049D01*
X187959Y269225D01*
X186608Y268116D01*
X185499Y266765D01*
X184675Y265223D01*
X184168Y263551D01*
X183996Y261811D01*
X184168Y260071D01*
X184675Y258399D01*
X185499Y256857D01*
X186608Y255506D01*
X187959Y254397D01*
X189501Y253573D01*
X191174Y253065D01*
X192913Y252894D01*
X194653Y253065D01*
X196326Y253573D01*
X197867Y254397D01*
X199219Y255506D01*
X200328Y256857D01*
X201152Y258399D01*
X201659Y260071D01*
X201830Y261811D01*
X201659Y263551D01*
X201152Y265223D01*
X200328Y266765D01*
X199219Y268116D01*
X197867Y269225D01*
X196326Y270049D01*
X194653Y270557D01*
X192913Y270728D01*
D02*
G37*
G36*
X354331Y249074D02*
X352591Y248903D01*
X350918Y248396D01*
X349377Y247572D01*
X348025Y246463D01*
X346917Y245111D01*
X346093Y243570D01*
X345585Y241897D01*
X345414Y240158D01*
X345585Y238418D01*
X346093Y236745D01*
X346917Y235204D01*
X348025Y233852D01*
X349377Y232743D01*
X350918Y231919D01*
X352591Y231412D01*
X354331Y231241D01*
X356070Y231412D01*
X357743Y231919D01*
X359285Y232743D01*
X360636Y233852D01*
X361745Y235204D01*
X362569Y236745D01*
X363076Y238418D01*
X363248Y240158D01*
X363076Y241897D01*
X362569Y243570D01*
X361745Y245111D01*
X360636Y246463D01*
X359285Y247572D01*
X357743Y248396D01*
X356070Y248903D01*
X354331Y249074D01*
D02*
G37*
G36*
X168307Y231515D02*
X166339D01*
X165050Y231345D01*
X163849Y230848D01*
X162818Y230057D01*
X162026Y229025D01*
X161529Y227824D01*
X161359Y226535D01*
X161529Y225247D01*
X162026Y224046D01*
X162818Y223014D01*
X163849Y222223D01*
X164454Y221972D01*
X164354Y221472D01*
X161402D01*
Y217035D01*
X167323D01*
X173244D01*
Y221472D01*
X170291D01*
X170192Y221972D01*
X170797Y222223D01*
X171828Y223014D01*
X172620Y224046D01*
X173117Y225247D01*
X173287Y226535D01*
X173117Y227824D01*
X172620Y229025D01*
X171828Y230057D01*
X170797Y230848D01*
X169596Y231345D01*
X168307Y231515D01*
D02*
G37*
G36*
X270669D02*
X268701D01*
X267412Y231345D01*
X266211Y230848D01*
X265180Y230057D01*
X264388Y229025D01*
X263891Y227824D01*
X263721Y226535D01*
X263891Y225247D01*
X264388Y224046D01*
X265180Y223014D01*
X266211Y222223D01*
X266816Y221972D01*
X266716Y221472D01*
X263764D01*
Y217035D01*
X269685D01*
X275606D01*
Y221472D01*
X272654D01*
X272554Y221972D01*
X273159Y222223D01*
X274190Y223014D01*
X274982Y224046D01*
X275479Y225247D01*
X275649Y226535D01*
X275479Y227824D01*
X274982Y229025D01*
X274190Y230057D01*
X273159Y230848D01*
X271958Y231345D01*
X270669Y231515D01*
D02*
G37*
G36*
X221457D02*
X219488D01*
X218199Y231345D01*
X216998Y230848D01*
X215967Y230057D01*
X215176Y229025D01*
X214678Y227824D01*
X214509Y226535D01*
X214678Y225247D01*
X215176Y224046D01*
X215967Y223014D01*
X216998Y222223D01*
X217603Y221972D01*
X217504Y221472D01*
X214551D01*
Y217035D01*
X220472D01*
X226394D01*
Y221472D01*
X223441D01*
X223342Y221972D01*
X223946Y222223D01*
X224978Y223014D01*
X225769Y224046D01*
X226267Y225247D01*
X226436Y226535D01*
X226267Y227824D01*
X225769Y229025D01*
X224978Y230057D01*
X223946Y230848D01*
X222745Y231345D01*
X221457Y231515D01*
D02*
G37*
G36*
X275606Y216035D02*
X270185D01*
Y211598D01*
X275606D01*
Y216035D01*
D02*
G37*
G36*
X269185D02*
X263764D01*
Y211598D01*
X269185D01*
Y216035D01*
D02*
G37*
G36*
X226394D02*
X220972D01*
Y211598D01*
X226394D01*
Y216035D01*
D02*
G37*
G36*
X219972D02*
X214551D01*
Y211598D01*
X219972D01*
Y216035D01*
D02*
G37*
G36*
X173244D02*
X167823D01*
Y211598D01*
X173244D01*
Y216035D01*
D02*
G37*
G36*
X166823D02*
X161402D01*
Y211598D01*
X166823D01*
Y216035D01*
D02*
G37*
G36*
X354331Y229389D02*
X352591Y229218D01*
X350918Y228711D01*
X349377Y227887D01*
X348025Y226778D01*
X346917Y225426D01*
X346093Y223885D01*
X345585Y222212D01*
X345414Y220472D01*
X345585Y218733D01*
X346093Y217060D01*
X346917Y215518D01*
X348025Y214167D01*
X349377Y213058D01*
X350918Y212234D01*
X352591Y211727D01*
X354331Y211556D01*
X356070Y211727D01*
X357743Y212234D01*
X359285Y213058D01*
X360636Y214167D01*
X361745Y215518D01*
X362569Y217060D01*
X363076Y218733D01*
X363248Y220472D01*
X363076Y222212D01*
X362569Y223885D01*
X361745Y225426D01*
X360636Y226778D01*
X359285Y227887D01*
X357743Y228711D01*
X356070Y229218D01*
X354331Y229389D01*
D02*
G37*
G36*
X174886Y207518D02*
X173886D01*
Y202468D01*
X177435D01*
Y204969D01*
X177241Y205944D01*
X176688Y206771D01*
X175861Y207324D01*
X174886Y207518D01*
D02*
G37*
G36*
X172886D02*
X171886D01*
X170910Y207324D01*
X170083Y206771D01*
X169531Y205944D01*
X169337Y204969D01*
Y202468D01*
X172886D01*
Y207518D01*
D02*
G37*
G36*
X317165Y212923D02*
X315812Y212790D01*
X314510Y212395D01*
X313310Y211754D01*
X312259Y210891D01*
X311396Y209839D01*
X310755Y208640D01*
X310360Y207338D01*
X310226Y205984D01*
X310360Y204630D01*
X310755Y203329D01*
X311396Y202129D01*
X312259Y201078D01*
X313310Y200215D01*
X314510Y199574D01*
X315812Y199179D01*
X317165Y199045D01*
X318519Y199179D01*
X319821Y199574D01*
X321020Y200215D01*
X322072Y201078D01*
X322935Y202129D01*
X323576Y203329D01*
X323971Y204630D01*
X324104Y205984D01*
X323971Y207338D01*
X323576Y208640D01*
X322935Y209839D01*
X322072Y210891D01*
X321020Y211754D01*
X319821Y212395D01*
X318519Y212790D01*
X317165Y212923D01*
D02*
G37*
G36*
X133858D02*
X132504Y212790D01*
X131203Y212395D01*
X130003Y211754D01*
X128952Y210891D01*
X128089Y209839D01*
X127447Y208640D01*
X127053Y207338D01*
X126919Y205984D01*
X127053Y204630D01*
X127447Y203329D01*
X128089Y202129D01*
X128952Y201078D01*
X130003Y200215D01*
X131203Y199574D01*
X132504Y199179D01*
X133858Y199045D01*
X135212Y199179D01*
X136514Y199574D01*
X137713Y200215D01*
X138765Y201078D01*
X139628Y202129D01*
X140269Y203329D01*
X140664Y204630D01*
X140797Y205984D01*
X140664Y207338D01*
X140269Y208640D01*
X139628Y209839D01*
X138765Y210891D01*
X137713Y211754D01*
X136514Y212395D01*
X135212Y212790D01*
X133858Y212923D01*
D02*
G37*
G36*
X304886Y207518D02*
X301886D01*
X300910Y207324D01*
X300083Y206771D01*
X299531Y205944D01*
X299337Y204969D01*
Y198969D01*
X299531Y197993D01*
X300083Y197166D01*
X300910Y196614D01*
X301886Y196420D01*
X304886D01*
X305861Y196614D01*
X306688Y197166D01*
X307241Y197993D01*
X307435Y198969D01*
Y204969D01*
X307241Y205944D01*
X306688Y206771D01*
X305861Y207324D01*
X304886Y207518D01*
D02*
G37*
G36*
X294886D02*
X291886D01*
X290910Y207324D01*
X290083Y206771D01*
X289531Y205944D01*
X289337Y204969D01*
Y198969D01*
X289531Y197993D01*
X290083Y197166D01*
X290910Y196614D01*
X291886Y196420D01*
X294886D01*
X295861Y196614D01*
X296688Y197166D01*
X297241Y197993D01*
X297435Y198969D01*
Y204969D01*
X297241Y205944D01*
X296688Y206771D01*
X295861Y207324D01*
X294886Y207518D01*
D02*
G37*
G36*
X284886D02*
X281886D01*
X280910Y207324D01*
X280083Y206771D01*
X279531Y205944D01*
X279337Y204969D01*
Y198969D01*
X279531Y197993D01*
X280083Y197166D01*
X280910Y196614D01*
X281886Y196420D01*
X284886D01*
X285861Y196614D01*
X286688Y197166D01*
X287241Y197993D01*
X287435Y198969D01*
Y204969D01*
X287241Y205944D01*
X286688Y206771D01*
X285861Y207324D01*
X284886Y207518D01*
D02*
G37*
G36*
X274886D02*
X271886D01*
X270910Y207324D01*
X270083Y206771D01*
X269531Y205944D01*
X269337Y204969D01*
Y198969D01*
X269531Y197993D01*
X270083Y197166D01*
X270910Y196614D01*
X271886Y196420D01*
X274886D01*
X275861Y196614D01*
X276688Y197166D01*
X277241Y197993D01*
X277435Y198969D01*
Y204969D01*
X277241Y205944D01*
X276688Y206771D01*
X275861Y207324D01*
X274886Y207518D01*
D02*
G37*
G36*
X264886D02*
X261886D01*
X260910Y207324D01*
X260083Y206771D01*
X259531Y205944D01*
X259337Y204969D01*
Y198969D01*
X259531Y197993D01*
X260083Y197166D01*
X260910Y196614D01*
X261886Y196420D01*
X264886D01*
X265861Y196614D01*
X266688Y197166D01*
X267241Y197993D01*
X267435Y198969D01*
Y204969D01*
X267241Y205944D01*
X266688Y206771D01*
X265861Y207324D01*
X264886Y207518D01*
D02*
G37*
G36*
X254886D02*
X251886D01*
X250910Y207324D01*
X250083Y206771D01*
X249531Y205944D01*
X249337Y204969D01*
Y198969D01*
X249531Y197993D01*
X250083Y197166D01*
X250910Y196614D01*
X251886Y196420D01*
X254886D01*
X255861Y196614D01*
X256688Y197166D01*
X257241Y197993D01*
X257435Y198969D01*
Y204969D01*
X257241Y205944D01*
X256688Y206771D01*
X255861Y207324D01*
X254886Y207518D01*
D02*
G37*
G36*
X214886D02*
X211886D01*
X210910Y207324D01*
X210083Y206771D01*
X209531Y205944D01*
X209337Y204969D01*
Y198969D01*
X209531Y197993D01*
X210083Y197166D01*
X210910Y196614D01*
X211886Y196420D01*
X214886D01*
X215861Y196614D01*
X216688Y197166D01*
X217241Y197993D01*
X217435Y198969D01*
Y204969D01*
X217241Y205944D01*
X216688Y206771D01*
X215861Y207324D01*
X214886Y207518D01*
D02*
G37*
G36*
X204886D02*
X201886D01*
X200910Y207324D01*
X200083Y206771D01*
X199531Y205944D01*
X199337Y204969D01*
Y198969D01*
X199531Y197993D01*
X200083Y197166D01*
X200910Y196614D01*
X201886Y196420D01*
X204886D01*
X205861Y196614D01*
X206688Y197166D01*
X207241Y197993D01*
X207435Y198969D01*
Y204969D01*
X207241Y205944D01*
X206688Y206771D01*
X205861Y207324D01*
X204886Y207518D01*
D02*
G37*
G36*
X194886D02*
X191886D01*
X190910Y207324D01*
X190083Y206771D01*
X189531Y205944D01*
X189337Y204969D01*
Y198969D01*
X189531Y197993D01*
X190083Y197166D01*
X190910Y196614D01*
X191886Y196420D01*
X194886D01*
X195861Y196614D01*
X196688Y197166D01*
X197241Y197993D01*
X197435Y198969D01*
Y204969D01*
X197241Y205944D01*
X196688Y206771D01*
X195861Y207324D01*
X194886Y207518D01*
D02*
G37*
G36*
X184886D02*
X181886D01*
X180910Y207324D01*
X180083Y206771D01*
X179531Y205944D01*
X179337Y204969D01*
Y198969D01*
X179531Y197993D01*
X180083Y197166D01*
X180910Y196614D01*
X181886Y196420D01*
X184886D01*
X185861Y196614D01*
X186688Y197166D01*
X187241Y197993D01*
X187435Y198969D01*
Y204969D01*
X187241Y205944D01*
X186688Y206771D01*
X185861Y207324D01*
X184886Y207518D01*
D02*
G37*
G36*
X177435Y201468D02*
X173886D01*
Y196420D01*
X174886D01*
X175861Y196614D01*
X176688Y197166D01*
X177241Y197993D01*
X177435Y198969D01*
Y201468D01*
D02*
G37*
G36*
X172886D02*
X169337D01*
Y198969D01*
X169531Y197993D01*
X170083Y197166D01*
X170910Y196614D01*
X171886Y196420D01*
X172886D01*
Y201468D01*
D02*
G37*
G36*
X164886Y207518D02*
X161886D01*
X160910Y207324D01*
X160083Y206771D01*
X159531Y205944D01*
X159337Y204969D01*
Y198969D01*
X159531Y197993D01*
X160083Y197166D01*
X160910Y196614D01*
X161886Y196420D01*
X164886D01*
X165861Y196614D01*
X166688Y197166D01*
X167241Y197993D01*
X167435Y198969D01*
Y204969D01*
X167241Y205944D01*
X166688Y206771D01*
X165861Y207324D01*
X164886Y207518D01*
D02*
G37*
G36*
X283965Y145862D02*
Y140264D01*
X289563D01*
X289494Y140963D01*
X289144Y142116D01*
X288576Y143179D01*
X287812Y144111D01*
X286880Y144875D01*
X285817Y145443D01*
X284664Y145793D01*
X283965Y145862D01*
D02*
G37*
G36*
X282965D02*
X282265Y145793D01*
X281112Y145443D01*
X280049Y144875D01*
X279117Y144111D01*
X278353Y143179D01*
X277785Y142116D01*
X277435Y140963D01*
X277366Y140264D01*
X282965D01*
Y145862D01*
D02*
G37*
G36*
X150106D02*
Y140264D01*
X155705D01*
X155636Y140963D01*
X155286Y142116D01*
X154718Y143179D01*
X153953Y144111D01*
X153022Y144875D01*
X151959Y145443D01*
X150806Y145793D01*
X150106Y145862D01*
D02*
G37*
G36*
X149106D02*
X148407Y145793D01*
X147254Y145443D01*
X146191Y144875D01*
X145259Y144111D01*
X144495Y143179D01*
X143927Y142116D01*
X143577Y140963D01*
X143508Y140264D01*
X149106D01*
Y145862D01*
D02*
G37*
G36*
X217035D02*
Y140264D01*
X222634D01*
X222565Y140963D01*
X222215Y142116D01*
X221647Y143179D01*
X220883Y144111D01*
X219951Y144875D01*
X218888Y145443D01*
X217735Y145793D01*
X217035Y145862D01*
D02*
G37*
G36*
X216035D02*
X215336Y145793D01*
X214183Y145443D01*
X213120Y144875D01*
X212188Y144111D01*
X211424Y143179D01*
X210856Y142116D01*
X210506Y140963D01*
X210437Y140264D01*
X216035D01*
Y145862D01*
D02*
G37*
G36*
X222634Y139264D02*
X217035D01*
Y133665D01*
X217735Y133734D01*
X218888Y134084D01*
X219951Y134652D01*
X220883Y135417D01*
X221647Y136348D01*
X222215Y137411D01*
X222565Y138564D01*
X222634Y139264D01*
D02*
G37*
G36*
X282965Y139264D02*
X277366D01*
X277435Y138564D01*
X277785Y137411D01*
X278353Y136348D01*
X279117Y135417D01*
X280049Y134652D01*
X281112Y134084D01*
X282265Y133734D01*
X282965Y133665D01*
Y139264D01*
D02*
G37*
G36*
X155705Y139264D02*
X150106D01*
Y133665D01*
X150806Y133734D01*
X151959Y134084D01*
X153022Y134652D01*
X153953Y135417D01*
X154718Y136348D01*
X155286Y137411D01*
X155636Y138564D01*
X155705Y139264D01*
D02*
G37*
G36*
X149106D02*
X143508D01*
X143577Y138564D01*
X143927Y137411D01*
X144495Y136348D01*
X145259Y135417D01*
X146191Y134652D01*
X147254Y134084D01*
X148407Y133734D01*
X149106Y133665D01*
Y139264D01*
D02*
G37*
G36*
X289563Y139264D02*
X283965D01*
Y133665D01*
X284664Y133734D01*
X285817Y134084D01*
X286880Y134652D01*
X287812Y135417D01*
X288576Y136348D01*
X289144Y137411D01*
X289494Y138564D01*
X289563Y139264D01*
D02*
G37*
G36*
X216035Y139264D02*
X210437D01*
X210506Y138564D01*
X210856Y137411D01*
X211424Y136348D01*
X212188Y135417D01*
X213120Y134652D01*
X214183Y134084D01*
X215336Y133734D01*
X216035Y133665D01*
Y139264D01*
D02*
G37*
G36*
X244886Y207518D02*
X241886D01*
X240910Y207324D01*
X240083Y206771D01*
X239531Y205944D01*
X239337Y204969D01*
Y198969D01*
X239531Y197993D01*
X240083Y197166D01*
X240392Y196960D01*
Y191654D01*
X240494Y190879D01*
X240793Y190156D01*
X241269Y189536D01*
X273473Y157332D01*
X274094Y156856D01*
X274393Y156732D01*
X274816Y156557D01*
X275590Y156455D01*
X303878D01*
X317525Y142808D01*
X317155Y142116D01*
X316805Y140963D01*
X316687Y139764D01*
X316805Y138564D01*
X317155Y137411D01*
X317723Y136348D01*
X318488Y135417D01*
X319419Y134652D01*
X320482Y134084D01*
X321635Y133734D01*
X322835Y133616D01*
X324034Y133734D01*
X325187Y134084D01*
X326250Y134652D01*
X327182Y135417D01*
X327946Y136348D01*
X328514Y137411D01*
X328864Y138564D01*
X328982Y139764D01*
X328864Y140963D01*
X328514Y142116D01*
X327946Y143179D01*
X327182Y144111D01*
X326250Y144875D01*
X325187Y145443D01*
X324034Y145793D01*
X322896Y145905D01*
X307235Y161566D01*
X306615Y162042D01*
X305893Y162341D01*
X305118Y162443D01*
X276831D01*
X246380Y192894D01*
Y196960D01*
X246688Y197166D01*
X247241Y197993D01*
X247435Y198969D01*
Y204969D01*
X247241Y205944D01*
X246688Y206771D01*
X245861Y207324D01*
X244886Y207518D01*
D02*
G37*
G36*
X303150Y145912D02*
X301950Y145793D01*
X300797Y145443D01*
X299734Y144875D01*
X298802Y144111D01*
X298038Y143179D01*
X297470Y142116D01*
X297120Y140963D01*
X297002Y139764D01*
X297120Y138564D01*
X297470Y137411D01*
X298038Y136348D01*
X298802Y135417D01*
X299734Y134652D01*
X300797Y134084D01*
X301950Y133734D01*
X303150Y133616D01*
X304349Y133734D01*
X305502Y134084D01*
X306565Y134652D01*
X307497Y135417D01*
X308261Y136348D01*
X308829Y137411D01*
X309179Y138564D01*
X309297Y139764D01*
X309179Y140963D01*
X308829Y142116D01*
X308261Y143179D01*
X307497Y144111D01*
X306565Y144875D01*
X305502Y145443D01*
X304349Y145793D01*
X303150Y145912D01*
D02*
G37*
G36*
X234886Y207518D02*
X231886D01*
X230910Y207324D01*
X230083Y206771D01*
X229531Y205944D01*
X229337Y204969D01*
Y198969D01*
X229531Y197993D01*
X230083Y197166D01*
X230392Y196960D01*
Y162284D01*
X230494Y161509D01*
X230793Y160786D01*
X231269Y160166D01*
X250015Y141420D01*
X249876Y140963D01*
X249758Y139764D01*
X249876Y138564D01*
X250226Y137411D01*
X250794Y136348D01*
X251558Y135417D01*
X252490Y134652D01*
X253553Y134084D01*
X254706Y133734D01*
X255906Y133616D01*
X257105Y133734D01*
X258258Y134084D01*
X259321Y134652D01*
X260253Y135417D01*
X261017Y136348D01*
X261585Y137411D01*
X261935Y138564D01*
X262053Y139764D01*
X261935Y140963D01*
X261585Y142116D01*
X261017Y143179D01*
X260253Y144111D01*
X259321Y144875D01*
X258258Y145443D01*
X257105Y145793D01*
X255906Y145912D01*
X254706Y145793D01*
X254249Y145655D01*
X236380Y163524D01*
Y196960D01*
X236688Y197166D01*
X237241Y197993D01*
X237435Y198969D01*
Y204969D01*
X237241Y205944D01*
X236688Y206771D01*
X235861Y207324D01*
X234886Y207518D01*
D02*
G37*
G36*
X236221Y145912D02*
X235021Y145793D01*
X233868Y145443D01*
X232805Y144875D01*
X231873Y144111D01*
X231109Y143179D01*
X230541Y142116D01*
X230191Y140963D01*
X230073Y139764D01*
X230191Y138564D01*
X230541Y137411D01*
X231109Y136348D01*
X231873Y135417D01*
X232805Y134652D01*
X233868Y134084D01*
X235021Y133734D01*
X236221Y133616D01*
X237420Y133734D01*
X238573Y134084D01*
X239636Y134652D01*
X240568Y135417D01*
X241332Y136348D01*
X241900Y137411D01*
X242250Y138564D01*
X242368Y139764D01*
X242250Y140963D01*
X241900Y142116D01*
X241332Y143179D01*
X240568Y144111D01*
X239636Y144875D01*
X238573Y145443D01*
X237420Y145793D01*
X236221Y145912D01*
D02*
G37*
G36*
X224886Y207518D02*
X221886D01*
X220910Y207324D01*
X220083Y206771D01*
X219531Y205944D01*
X219337Y204969D01*
Y198969D01*
X219531Y197993D01*
X220083Y197166D01*
X220392Y196960D01*
Y177382D01*
X188915Y145905D01*
X187777Y145793D01*
X186624Y145443D01*
X185561Y144875D01*
X184629Y144111D01*
X183865Y143179D01*
X183297Y142116D01*
X182947Y140963D01*
X182829Y139764D01*
X182947Y138564D01*
X183297Y137411D01*
X183865Y136348D01*
X184629Y135417D01*
X185561Y134652D01*
X186624Y134084D01*
X187777Y133734D01*
X188976Y133616D01*
X190176Y133734D01*
X191329Y134084D01*
X192392Y134652D01*
X193324Y135417D01*
X194088Y136348D01*
X194656Y137411D01*
X195006Y138564D01*
X195124Y139764D01*
X195006Y140963D01*
X194656Y142116D01*
X194286Y142808D01*
X225503Y174025D01*
X225979Y174645D01*
X226103Y174944D01*
X226278Y175367D01*
X226380Y176142D01*
Y196960D01*
X226688Y197166D01*
X227241Y197993D01*
X227435Y198969D01*
Y204969D01*
X227241Y205944D01*
X226688Y206771D01*
X225861Y207324D01*
X224886Y207518D01*
D02*
G37*
G36*
X169291Y145912D02*
X168092Y145793D01*
X166939Y145443D01*
X165876Y144875D01*
X164944Y144111D01*
X164180Y143179D01*
X163612Y142116D01*
X163262Y140963D01*
X163144Y139764D01*
X163262Y138564D01*
X163612Y137411D01*
X164180Y136348D01*
X164944Y135417D01*
X165876Y134652D01*
X166939Y134084D01*
X168092Y133734D01*
X169291Y133616D01*
X170491Y133734D01*
X171644Y134084D01*
X172707Y134652D01*
X173638Y135417D01*
X174403Y136348D01*
X174971Y137411D01*
X175321Y138564D01*
X175439Y139764D01*
X175321Y140963D01*
X174971Y142116D01*
X174403Y143179D01*
X173638Y144111D01*
X172707Y144875D01*
X171644Y145443D01*
X170491Y145793D01*
X169291Y145912D01*
D02*
G37*
G36*
X354331Y145130D02*
X352900Y144989D01*
X351524Y144571D01*
X350256Y143894D01*
X349145Y142982D01*
X348232Y141870D01*
X347555Y140602D01*
X347137Y139226D01*
X346996Y137795D01*
X347137Y136364D01*
X347555Y134988D01*
X348232Y133720D01*
X349145Y132609D01*
X350256Y131697D01*
X351524Y131019D01*
X352900Y130602D01*
X354331Y130461D01*
X355762Y130602D01*
X357138Y131019D01*
X358406Y131697D01*
X359517Y132609D01*
X360429Y133720D01*
X361107Y134988D01*
X361524Y136364D01*
X361665Y137795D01*
X361524Y139226D01*
X361107Y140602D01*
X360429Y141870D01*
X359517Y142982D01*
X358406Y143894D01*
X357138Y144571D01*
X355762Y144989D01*
X354331Y145130D01*
D02*
G37*
G36*
X118110D02*
X116679Y144989D01*
X115303Y144571D01*
X114035Y143894D01*
X112924Y142982D01*
X112012Y141870D01*
X111334Y140602D01*
X110917Y139226D01*
X110776Y137795D01*
X110917Y136364D01*
X111334Y134988D01*
X112012Y133720D01*
X112924Y132609D01*
X114035Y131697D01*
X115303Y131019D01*
X116679Y130602D01*
X118110Y130461D01*
X119541Y130602D01*
X120917Y131019D01*
X122185Y131697D01*
X123296Y132609D01*
X124209Y133720D01*
X124886Y134988D01*
X125304Y136364D01*
X125445Y137795D01*
X125304Y139226D01*
X124886Y140602D01*
X124209Y141870D01*
X123296Y142982D01*
X122185Y143894D01*
X120917Y144571D01*
X119541Y144989D01*
X118110Y145130D01*
D02*
G37*
%LPD*%
D23*
X133858Y297953D02*
D03*
Y205984D02*
D03*
X317165D02*
D03*
Y297953D02*
D03*
X118110Y295276D02*
D03*
Y137795D02*
D03*
X354331D02*
D03*
Y295276D02*
D03*
D27*
X175213Y253505D02*
Y297228D01*
X173386Y299055D02*
X175213Y297228D01*
X173386Y299055D02*
Y301969D01*
X187008Y216535D02*
X220472D01*
X167323D02*
X187008D01*
X185886Y217657D02*
X187008Y216535D01*
X185886Y217657D02*
Y242832D01*
X175213Y253505D02*
X185886Y242832D01*
X167323Y216535D02*
X173386Y210472D01*
Y201969D02*
Y210472D01*
X220472Y216535D02*
X269685D01*
X206693Y129921D02*
X216535Y139764D01*
X159449Y129921D02*
X206693D01*
X149606Y139764D02*
X159449Y129921D01*
X216535Y139764D02*
X226378Y129921D01*
X273622D01*
X283465Y139764D01*
X243386Y191654D02*
Y201969D01*
Y191654D02*
X275590Y159449D01*
X305118D01*
X322835Y141732D01*
Y139764D02*
Y141732D01*
X233386Y162284D02*
Y201969D01*
Y162284D02*
X255906Y139764D01*
X223386Y176142D02*
Y201969D01*
X188976Y141732D02*
X223386Y176142D01*
X188976Y139764D02*
Y141732D01*
D29*
X269685Y216535D02*
D03*
X167323D02*
D03*
X220472D02*
D03*
D30*
X269685Y226535D02*
D03*
X167323D02*
D03*
X220472D02*
D03*
D31*
X269685Y266535D02*
D03*
Y286535D02*
D03*
X167323Y266535D02*
D03*
Y286535D02*
D03*
X220472Y266535D02*
D03*
Y286535D02*
D03*
D32*
X303386Y301969D02*
D03*
X293386D02*
D03*
X283386D02*
D03*
X273386D02*
D03*
X263386D02*
D03*
X253386D02*
D03*
X243386D02*
D03*
X233386D02*
D03*
X223386D02*
D03*
X213386D02*
D03*
X203386D02*
D03*
X193386D02*
D03*
X183386D02*
D03*
X163386D02*
D03*
X303386Y201969D02*
D03*
X293386D02*
D03*
X283386D02*
D03*
X273386D02*
D03*
X263386D02*
D03*
X253386D02*
D03*
X243386D02*
D03*
X233386D02*
D03*
X223386D02*
D03*
X213386D02*
D03*
X203386D02*
D03*
X193386D02*
D03*
X183386D02*
D03*
X173386D02*
D03*
X163386D02*
D03*
X173386Y301969D02*
D03*
D33*
X354331Y220472D02*
D03*
Y240158D02*
D03*
X291339Y281496D02*
D03*
Y261811D02*
D03*
X242126Y281496D02*
D03*
Y261811D02*
D03*
X192913Y281496D02*
D03*
Y261811D02*
D03*
D34*
X322835Y139764D02*
D03*
X303150D02*
D03*
X283465D02*
D03*
X188976D02*
D03*
X169291D02*
D03*
X149606D02*
D03*
X255906D02*
D03*
X236221D02*
D03*
X216535D02*
D03*
M02*
