M48
;Layer_Color=6321
;FILE_FORMAT=2:4
INCH,LZ
T10F00S00C0.2000
%
G90
G05
T10
G00X027043Y002937
M15
G01X027097Y002933
G01X027197Y002941
G01X027326Y002958
G01X027578Y003026
G01X027698Y003075
G01X027924Y003206
G01X028027Y003285
G01X028211Y003469
G01X02829Y003572
G01X028421Y003798
G01X02847Y003918
G01X028538Y00417
G01X028555Y004299
G01X028563Y00443
G01X028559Y013263
G01X028563Y013317
G01X028555Y013418
G01X028538Y013546
G01X02847Y013799
G01X028421Y013918
G01X02829Y014144
G01X028211Y014247
G01X028027Y014432
G01X027924Y014511
G01X027698Y014641
G01X027578Y014691
G01X027326Y014758
G01X027197Y014775
G01X027067Y014784
G01X004453Y01478
G01X004399Y014783
G01X004299Y014775
G01X00417Y014758
G01X003918Y014691
G01X003798Y014641
G01X003572Y014511
G01X003469Y014432
G01X003285Y014247
G01X003206Y014144
G01X003075Y013918
G01X003026Y013799
G01X002958Y013546
G01X002941Y013418
G01X002933Y013287
G01X002937Y004453
G01X002933Y004399
G01X002941Y004299
G01X002958Y00417
G01X003026Y003918
G01X003075Y003798
G01X003206Y003572
G01X003285Y003469
G01X003469Y003285
G01X003572Y003206
G01X003798Y003075
G01X003918Y003026
G01X00417Y002958
G01X004299Y002941
G01X004429Y002933
G01X027043Y002937
M16
M17
M30
