M48
;Layer_Color=6321
;FILE_FORMAT=2:4
INCH,LZ
T11F00S00C0.2000
%
G90
G05
T11
G00X027155Y002897
M15
G01X027195Y002895
G01X027393Y002921
G01X027548Y00297
G01X027578Y002983
G01X027585Y002986
G01X027588Y002987
G01X027718Y003041
G01X027944Y003171
G01X028055Y003257
G01X028239Y003441
G01X028325Y003552
G01X028455Y003778
G01X028509Y003908
G01X028576Y00416
G01X028595Y004299
G01X028603Y004429
G01X028599Y017195
G01X028603Y017254
G01X028595Y017355
G01X028576Y017494
G01X028509Y017746
G01X028455Y017875
G01X028325Y018101
G01X028239Y018212
G01X028055Y018397
G01X027944Y018482
G01X027718Y018613
G01X027588Y018666
G01X027336Y018734
G01X027197Y018752
G01X027067Y018761
G01X004458Y018756
G01X004399Y01876
G01X004299Y018752
G01X00416Y018734
G01X003908Y018666
G01X003778Y018613
G01X003552Y018482
G01X003441Y018397
G01X003257Y018212
G01X003171Y018101
G01X003041Y017875
G01X002987Y017746
G01X00292Y017494
G01X002902Y017356
G01X002899Y017274
G01X002894Y017224
G01X002897Y004429
G01X002904Y004429
G01X002901Y004299
G01X00292Y00416
G01X002987Y003908
G01X003041Y003778
G01X003171Y003552
G01X003257Y003441
G01X003441Y003257
G01X003552Y003171
G01X003778Y003041
G01X003908Y002987
G01X00416Y00292
G01X004298Y002902
G01X004379Y002899
G01X004429Y002894
G01X027155Y002897
M16
M17
M30
