M48
;Layer_Color=6321
;FILE_FORMAT=2:4
INCH,LZ
;TYPE=PLATED
T1F00S00C0.0079
T2F00S00C0.0157
T3F00S00C0.0162
T5F00S00C0.0256
T7F00S00C0.0315
T8F00S00C0.0350
T9F00S00C0.0400
T10F00S00C0.1378
T4F00S00C0.0197
T6F00S00C0.0256
;TYPE=NON_PLATED
%
G90
G05
T01
X013268Y008937
X013701
Y00937
X013268
T02
X01265Y00529
X01358Y00617
X01378Y007185
X014862Y008957
X015157Y009744
X014764Y010728
X010236Y011713
X016437Y010077
X016535Y008661
X017913Y009744
T03
X015256Y006988
Y008268
X016535Y007283
T05
X007874Y010571
T07
X009366Y015563
X010346Y015573
X011326
T08
X014701Y015339
X015701
X016701
X017701
X018701
Y016339
X017701
X016701
X015701
X014701
T09
X022136Y004758
X023336
Y012958
X022136
X00736Y015748
X006201
X005041
T10
X005118Y005118
X026378Y016535
T04
G00X004921Y007386
M15
G01X005157
M16
G00X007264Y007528
M15
G01X0075
M16
G00X007264Y01078
M15
G01X0075
M16
G00X004921Y010921
M15
G01X005157
M16
T06
G00X007874Y007795
M15
G01Y007677
M16
M17
M30
