G04 Layer_Color=13813960*
%FSLAX24Y24*%
%MOIN*%
G70*
G01*
G75*
%ADD13C,0.0100*%
%ADD30C,0.0079*%
%ADD31C,0.0039*%
%ADD51C,0.0080*%
D13*
X31988Y28051D02*
G03*
X31988Y28051I-3937J0D01*
G01*
X26516Y21496D02*
G03*
X26516Y21496I-39J0D01*
G01*
X31004Y31693D02*
Y32293D01*
X30704D01*
X30604Y32193D01*
Y31993D01*
X30704Y31893D01*
X31004D01*
X30804D02*
X30604Y31693D01*
X30004D02*
X30404D01*
X30004Y32093D01*
Y32193D01*
X30104Y32293D01*
X30304D01*
X30404Y32193D01*
X26083Y31693D02*
Y32293D01*
X25783D01*
X25683Y32193D01*
Y31993D01*
X25783Y31893D01*
X26083D01*
X25883D02*
X25683Y31693D01*
X25483D02*
X25283D01*
X25383D01*
Y32293D01*
X25483Y32193D01*
X30712Y34957D02*
Y34357D01*
X30412D01*
X30312Y34457D01*
Y34857D01*
X30412Y34957D01*
X30712D01*
X30112Y34357D02*
X29912D01*
X30012D01*
Y34957D01*
X30112Y34857D01*
X30580Y40490D02*
X30180Y39890D01*
Y40490D02*
X30580Y39890D01*
X29980D02*
X29780D01*
X29880D01*
Y40490D01*
X29980Y40390D01*
X26287Y35975D02*
Y35475D01*
X26187Y35375D01*
X25987D01*
X25887Y35475D01*
Y35975D01*
X25687Y35375D02*
X25487D01*
X25587D01*
Y35975D01*
X25687Y35875D01*
X25483Y22835D02*
X25983D01*
X26083Y22735D01*
Y22535D01*
X25983Y22435D01*
X25483D01*
X25583Y22235D02*
X25483Y22135D01*
Y21935D01*
X25583Y21835D01*
X25683D01*
X25783Y21935D01*
Y22035D01*
Y21935D01*
X25883Y21835D01*
X25983D01*
X26083Y21935D01*
Y22135D01*
X25983Y22235D01*
X28543Y19390D02*
Y19990D01*
X28243D01*
X28143Y19890D01*
Y19690D01*
X28243Y19590D01*
X28543D01*
X28343D02*
X28143Y19390D01*
X27644D02*
Y19990D01*
X27943Y19690D01*
X27544D01*
X28740Y30423D02*
Y29823D01*
X28440D01*
X28340Y29923D01*
Y30023D01*
X28440Y30123D01*
X28740D01*
X28440D01*
X28340Y30223D01*
Y30323D01*
X28440Y30423D01*
X28740D01*
X28140D02*
X27740D01*
X27940D01*
Y29823D01*
X27541D02*
X27341D01*
X27441D01*
Y30423D01*
X27541Y30323D01*
D30*
X25748Y32648D02*
X25827D01*
X25748Y32904D02*
X25827D01*
D31*
X26181Y35335D02*
Y37598D01*
X25591D02*
X26181D01*
X25591D02*
Y37992D01*
X26181D01*
Y39567D01*
X28150D01*
X26181Y35335D02*
X28051D01*
X29921D01*
X28150Y39567D02*
X29921D01*
Y37992D02*
Y39567D01*
Y37992D02*
X30512D01*
Y37598D02*
Y37992D01*
X29921Y37598D02*
X30512D01*
X29921Y35335D02*
Y37598D01*
X26083Y39173D02*
X26181D01*
X26083Y39075D02*
Y39173D01*
Y39075D02*
X26181D01*
X29921D02*
X30020D01*
Y39173D01*
X29921D02*
X30020D01*
X30066Y25709D02*
X30131D01*
X30098D01*
Y25545D01*
X30131Y25512D01*
X30164D01*
X30197Y25545D01*
X29967Y25512D02*
X29902D01*
X29869Y25545D01*
Y25610D01*
X29902Y25643D01*
X29967D01*
X30000Y25610D01*
Y25545D01*
X29967Y25512D01*
X29803Y25643D02*
Y25512D01*
Y25577D01*
X29770Y25610D01*
X29738Y25643D01*
X29705D01*
X29606Y25512D02*
X29541D01*
X29574D01*
Y25643D01*
X29606D01*
X29410D02*
X29344D01*
X29311Y25610D01*
Y25512D01*
X29410D01*
X29443Y25545D01*
X29410Y25577D01*
X29311D01*
X29246Y25512D02*
Y25643D01*
X29147D01*
X29115Y25610D01*
Y25512D01*
X28852Y25709D02*
Y25512D01*
X28754D01*
X28721Y25545D01*
Y25577D01*
X28754Y25610D01*
X28852D01*
X28754D01*
X28721Y25643D01*
Y25676D01*
X28754Y25709D01*
X28852D01*
X28655Y25643D02*
Y25512D01*
Y25577D01*
X28623Y25610D01*
X28590Y25643D01*
X28557D01*
X28459D02*
Y25545D01*
X28426Y25512D01*
X28327D01*
Y25643D01*
X28262Y25512D02*
X28163D01*
X28131Y25545D01*
X28163Y25577D01*
X28229D01*
X28262Y25610D01*
X28229Y25643D01*
X28131D01*
X28065Y25512D02*
X27999D01*
X28032D01*
Y25709D01*
X28065D01*
X27901Y25512D02*
X27835D01*
X27868D01*
Y25643D01*
X27901D01*
X27737Y25512D02*
Y25643D01*
X27639D01*
X27606Y25610D01*
Y25512D01*
X27409Y25709D02*
Y25512D01*
X27507D01*
X27540Y25545D01*
Y25610D01*
X27507Y25643D01*
X27409D01*
X27147Y25610D02*
X27015D01*
X26622Y25512D02*
X26753D01*
X26622Y25643D01*
Y25676D01*
X26655Y25709D01*
X26720D01*
X26753Y25676D01*
X26556Y25512D02*
X26425Y25643D01*
X26360Y25676D02*
X26327Y25709D01*
X26261D01*
X26228Y25676D01*
Y25643D01*
X26261Y25610D01*
X26228Y25577D01*
Y25545D01*
X26261Y25512D01*
X26327D01*
X26360Y25545D01*
Y25577D01*
X26327Y25610D01*
X26360Y25643D01*
Y25676D01*
X26327Y25610D02*
X26261D01*
X26163Y25512D02*
X26032Y25643D01*
X25835Y25512D02*
X25966D01*
X25835Y25643D01*
Y25676D01*
X25868Y25709D01*
X25933D01*
X25966Y25676D01*
X25769D02*
X25736Y25709D01*
X25671D01*
X25638Y25676D01*
Y25545D01*
X25671Y25512D01*
X25736D01*
X25769Y25545D01*
Y25676D01*
D51*
X25682Y34473D02*
X25893D01*
X26347Y33984D02*
Y34323D01*
X25227Y33984D02*
Y34323D01*
M02*
