G04 Layer_Color=8150272*
%FSLAX24Y24*%
%MOIN*%
G70*
G01*
G75*
%ADD13C,0.0100*%
%ADD35C,0.0867*%
%ADD36R,0.0867X0.0867*%
%ADD37O,0.0474X0.0867*%
%ADD38O,0.0474X0.0710*%
%ADD39C,0.0277*%
%ADD40C,0.0336*%
%ADD41C,0.0356*%
%ADD42C,0.0580*%
%ADD43R,0.0434X0.0474*%
%ADD44R,0.2480X0.2480*%
%ADD45R,0.0966X0.0277*%
%ADD46R,0.0297X0.0630*%
%ADD47R,0.0375X0.0415*%
%ADD48R,0.0395X0.0434*%
%ADD49R,0.0400X0.0400*%
G04:AMPARAMS|DCode=50|XSize=21.8mil|YSize=35.6mil|CornerRadius=0mil|HoleSize=0mil|Usage=FLASHONLY|Rotation=0.000|XOffset=0mil|YOffset=0mil|HoleType=Round|Shape=Octagon|*
%AMOCTAGOND50*
4,1,8,-0.0054,0.0178,0.0054,0.0178,0.0109,0.0123,0.0109,-0.0123,0.0054,-0.0178,-0.0054,-0.0178,-0.0109,-0.0123,-0.0109,0.0123,-0.0054,0.0178,0.0*
%
%ADD50OCTAGOND50*%

D13*
X14283Y37410D02*
X17236Y40363D01*
X14283Y36918D02*
Y37410D01*
Y31997D02*
Y36918D01*
Y31997D02*
X14775Y31505D01*
X15071Y31209D01*
Y31209D02*
Y31209D01*
Y30995D02*
Y31209D01*
Y30995D02*
X16976Y29090D01*
X16993D01*
X17334Y28749D01*
X19497Y26586D01*
X20143D01*
X25272Y21457D01*
X25354D01*
X15222Y31058D02*
Y31272D01*
Y31058D02*
X16055Y30225D01*
X19500Y26780D01*
X20287D01*
X23089Y23979D01*
Y23962D02*
Y23979D01*
Y23962D02*
X23240Y23810D01*
Y23729D02*
Y23810D01*
Y23703D02*
Y23729D01*
Y23703D02*
X25315Y21628D01*
X14480Y32014D02*
X15222Y31272D01*
X14480Y32014D02*
Y36327D01*
Y37213D01*
X17138Y39871D01*
X17236D01*
X16941Y39379D02*
X17236D01*
X15956Y38394D02*
X16941Y39379D01*
X14677Y37115D02*
X15956Y38394D01*
X14677Y36032D02*
Y37115D01*
Y32031D02*
Y36032D01*
Y32031D02*
X15373Y31335D01*
Y31209D02*
Y31335D01*
Y31209D02*
X19651Y26931D01*
X20287D01*
X20350D01*
X23095Y24186D01*
X23126Y24155D01*
X20477Y27082D02*
X23043Y24516D01*
X20386Y27082D02*
X20477D01*
X19714D02*
X20386D01*
X19413Y27383D02*
X19714Y27082D01*
X15524Y31272D02*
X19413Y27383D01*
X15524Y31272D02*
Y31397D01*
X14899Y32022D02*
X15524Y31397D01*
X14899Y32022D02*
Y36451D01*
X15366Y36918D01*
X15956Y37508D01*
X17138D01*
X17531Y37115D01*
Y36623D02*
Y37115D01*
X17380Y36479D02*
X17433Y36426D01*
X17380Y36479D02*
Y37052D01*
X17080Y37352D02*
X17380Y37052D01*
X16014Y37352D02*
X17080D01*
X15768Y37106D02*
X16014Y37352D01*
X15071Y36409D02*
X15768Y37106D01*
X15071Y32194D02*
Y36409D01*
Y32194D02*
X15682Y31582D01*
Y31328D02*
Y31582D01*
Y31328D02*
X19776Y27234D01*
X20540D01*
X22962Y24812D01*
X23043D01*
X16547Y37115D02*
X17334Y36327D01*
X16547Y37115D02*
Y37312D01*
X15563Y36901D02*
X16466D01*
X17334Y36032D01*
X21665Y39772D02*
X22649D01*
X25110Y37312D01*
Y33178D02*
Y37312D01*
X23437Y31505D02*
X25110Y33178D01*
X23001Y31069D02*
X23437Y31505D01*
X23001Y27961D02*
Y31069D01*
Y27961D02*
X23126Y27836D01*
Y25091D02*
Y27836D01*
X23043Y25008D02*
X23126Y25091D01*
X21665Y39477D02*
X22551D01*
X24913Y37115D01*
Y33195D02*
Y37115D01*
X22850Y31131D02*
X24913Y33195D01*
X22850Y27859D02*
Y31131D01*
Y27859D02*
X22945Y27764D01*
Y25124D02*
Y27764D01*
X22936Y25115D02*
X22945Y25124D01*
X20976Y39575D02*
X21370Y39182D01*
X21764D01*
X22453D01*
X24716Y36918D01*
Y33212D02*
Y36918D01*
X24511Y33006D02*
X24716Y33212D01*
X22699Y31194D02*
X24511Y33006D01*
X22699Y27702D02*
Y31194D01*
Y27702D02*
X22793Y27607D01*
Y25205D02*
Y27607D01*
X20090Y28060D02*
X22551Y25599D01*
X20090Y28060D02*
Y28945D01*
X18712Y30323D02*
X20090Y28945D01*
X18712Y30323D02*
Y30520D01*
Y34851D01*
X19401Y35540D01*
X19893Y27961D02*
X20484Y27371D01*
X19893Y27961D02*
Y28847D01*
X18515Y30225D02*
X19893Y28847D01*
X18515Y30225D02*
Y35048D01*
X17827Y35737D02*
X18515Y35048D01*
X18712Y34359D02*
Y34556D01*
X19500Y35343D01*
X18515Y34457D02*
Y34753D01*
X17728Y35540D02*
X18515Y34753D01*
X18712Y34359D02*
X18811D01*
X19500Y35048D01*
X17630Y35245D02*
X18515Y34359D01*
X17630Y35245D02*
X17630D01*
X24716Y35442D02*
Y36721D01*
X23141Y38296D02*
X24716Y36721D01*
X22551Y38886D02*
X23141Y38296D01*
X21370Y38886D02*
X22551D01*
X20878Y39379D02*
X21370Y38886D01*
X20681Y36918D02*
Y37016D01*
X21567Y37902D01*
X23321D01*
X23822Y37402D01*
X24565Y36658D01*
Y33375D02*
Y36658D01*
Y33274D02*
Y33375D01*
X22547Y31257D02*
X24565Y33274D01*
X22547Y27544D02*
Y31257D01*
Y27544D02*
X22642Y27449D01*
Y25721D02*
Y27449D01*
X20878Y36918D02*
X20930D01*
X21764Y37751D01*
X23259D01*
X24414Y36596D01*
Y33337D02*
Y36596D01*
X22396Y31319D02*
X24414Y33337D01*
X22396Y25968D02*
Y31319D01*
Y25968D02*
X22491Y25873D01*
X21567Y37016D02*
X22157Y36426D01*
X21567Y37016D02*
Y37115D01*
X21853Y37402D01*
X23394D01*
X24263Y36533D01*
Y35442D02*
Y36533D01*
Y33400D02*
Y35442D01*
X22245Y31382D02*
X24263Y33400D01*
X22245Y26119D02*
Y31382D01*
X18999Y30332D02*
X20287Y29044D01*
X18918Y30332D02*
X18999D01*
X18918D02*
Y34252D01*
X18967Y34301D01*
X20304Y35638D01*
X21173D01*
X21584D01*
X22273Y36327D01*
X23141D01*
X19697Y28552D02*
Y28830D01*
X18364Y30162D02*
X19697Y28830D01*
X18364Y30162D02*
Y34215D01*
X18122Y34457D02*
X18364Y34215D01*
X16941Y35638D02*
X18122Y34457D01*
X16252Y35638D02*
X16941D01*
X15760Y36131D02*
X16252Y35638D01*
X15366Y36131D02*
X15760D01*
X22191Y36032D02*
X23141D01*
X21646Y35487D02*
X22191Y36032D01*
X20429Y35487D02*
X21646D01*
X19136Y34194D02*
X20429Y35487D01*
X19074Y34194D02*
X19136D01*
X19074Y30471D02*
Y34194D01*
Y30471D02*
X19164Y30381D01*
X22094Y27451D01*
Y26270D02*
Y27451D01*
X21075Y28684D02*
Y33965D01*
Y28684D02*
X22076Y27683D01*
X21075Y33965D02*
X21567D01*
X22354Y34753D01*
X20779Y34260D02*
X21075Y33965D01*
X20779Y34260D02*
Y35146D01*
X21271Y28701D02*
Y33670D01*
Y28701D02*
X22094Y27879D01*
X16055Y31420D02*
Y34851D01*
Y31420D02*
X20090Y27385D01*
X17630Y29845D02*
Y30225D01*
X16547Y31308D02*
X17630Y30225D01*
X16547Y31308D02*
Y33670D01*
X17531Y34654D01*
X17334Y40560D02*
X17682Y40212D01*
Y36095D02*
Y40212D01*
Y36095D02*
X18426Y35352D01*
X18999D01*
X19339Y35691D01*
X19946D01*
X20386Y36131D01*
Y37115D01*
X21271Y38001D01*
X39260Y40678D02*
X42213Y37725D01*
Y37233D02*
Y37725D01*
Y32312D02*
Y37233D01*
X41721Y31820D02*
X42213Y32312D01*
X41425Y31524D02*
X41721Y31820D01*
X41425Y31524D02*
Y31524D01*
Y31310D02*
Y31524D01*
X39520Y29405D02*
X41425Y31310D01*
X39503Y29405D02*
X39520D01*
X39162Y29064D02*
X39503Y29405D01*
X36999Y26901D02*
X39162Y29064D01*
X36353Y26901D02*
X36999D01*
X31224Y21772D02*
X36353Y26901D01*
X31142Y21772D02*
X31224D01*
X41274Y31373D02*
Y31587D01*
X40441Y30540D02*
X41274Y31373D01*
X36996Y27095D02*
X40441Y30540D01*
X36209Y27095D02*
X36996D01*
X33407Y24294D02*
X36209Y27095D01*
X33407Y24277D02*
Y24294D01*
X33256Y24125D02*
X33407Y24277D01*
X33256Y24044D02*
Y24125D01*
Y24018D02*
Y24044D01*
X31181Y21943D02*
X33256Y24018D01*
X41274Y31587D02*
X42016Y32329D01*
Y36642D01*
Y37528D01*
X39359Y40186D02*
X42016Y37528D01*
X39260Y40186D02*
X39359D01*
X39260Y39694D02*
X39555D01*
X40540Y38709D01*
X41819Y37430D01*
Y36347D02*
Y37430D01*
Y32346D02*
Y36347D01*
X41123Y31649D02*
X41819Y32346D01*
X41123Y31524D02*
Y31649D01*
X36845Y27246D02*
X41123Y31524D01*
X36209Y27246D02*
X36845D01*
X36146D02*
X36209D01*
X33401Y24501D02*
X36146Y27246D01*
X33370Y24470D02*
X33401Y24501D01*
X33453Y24831D02*
X36019Y27397D01*
X36110D01*
X36783D01*
X37083Y27698D01*
X40972Y31587D01*
Y31712D01*
X41597Y32337D01*
Y36766D01*
X41130Y37233D02*
X41597Y36766D01*
X40540Y37823D02*
X41130Y37233D01*
X39359Y37823D02*
X40540D01*
X38965Y37430D02*
X39359Y37823D01*
X38965Y36938D02*
Y37430D01*
X39063Y36741D02*
X39116Y36794D01*
Y37367D01*
X39416Y37667D01*
X40482D01*
X40728Y37421D01*
X41425Y36724D01*
Y32508D02*
Y36724D01*
X40814Y31897D02*
X41425Y32508D01*
X40814Y31643D02*
Y31897D01*
X36720Y27549D02*
X40814Y31643D01*
X35957Y27549D02*
X36720D01*
X33534Y25127D02*
X35957Y27549D01*
X33453Y25127D02*
X33534D01*
X39162Y36642D02*
X39949Y37430D01*
Y37627D01*
X40031Y37216D02*
X40933D01*
X39162Y36347D02*
X40031Y37216D01*
X33847Y40087D02*
X34831D01*
X31386Y37627D02*
X33847Y40087D01*
X31386Y33493D02*
Y37627D01*
Y33493D02*
X33059Y31820D01*
X33495Y31384D01*
Y28276D02*
Y31384D01*
X33370Y28151D02*
X33495Y28276D01*
X33370Y25406D02*
Y28151D01*
Y25406D02*
X33453Y25323D01*
X33945Y39792D02*
X34831D01*
X31583Y37430D02*
X33945Y39792D01*
X31583Y33510D02*
Y37430D01*
Y33510D02*
X33646Y31446D01*
Y28174D02*
Y31446D01*
X33551Y28079D02*
X33646Y28174D01*
X33551Y25439D02*
Y28079D01*
Y25439D02*
X33560Y25430D01*
X35126Y39497D02*
X35520Y39890D01*
X34733Y39497D02*
X35126D01*
X34044D02*
X34733D01*
X31780Y37233D02*
X34044Y39497D01*
X31780Y33527D02*
Y37233D01*
Y33527D02*
X31985Y33321D01*
X33797Y31509D01*
Y28017D02*
Y31509D01*
X33703Y27922D02*
X33797Y28017D01*
X33703Y25520D02*
Y27922D01*
X33945Y25914D02*
X36406Y28375D01*
Y29260D01*
X37784Y30638D01*
Y30835D01*
Y35166D01*
X37095Y35855D02*
X37784Y35166D01*
X36012Y27686D02*
X36603Y28276D01*
Y29162D01*
X37981Y30540D01*
Y35363D01*
X38670Y36052D01*
X37784Y34674D02*
Y34871D01*
X36996Y35658D02*
X37784Y34871D01*
X37981Y34772D02*
Y35068D01*
X38768Y35855D01*
X37685Y34674D02*
X37784D01*
X36996Y35363D02*
X37685Y34674D01*
X37981D02*
X38866Y35560D01*
X38866D01*
X31780Y35757D02*
Y37036D01*
X33355Y38611D01*
X33945Y39201D01*
X35126D01*
X35618Y39694D01*
X35815Y37233D02*
Y37331D01*
X34929Y38217D02*
X35815Y37331D01*
X33175Y38217D02*
X34929D01*
X32674Y37717D02*
X33175Y38217D01*
X31931Y36973D02*
X32674Y37717D01*
X31931Y33690D02*
Y36973D01*
Y33589D02*
Y33690D01*
Y33589D02*
X33949Y31572D01*
Y27859D02*
Y31572D01*
X33854Y27764D02*
X33949Y27859D01*
X33854Y26036D02*
Y27764D01*
X35566Y37233D02*
X35618D01*
X34733Y38066D02*
X35566Y37233D01*
X33237Y38066D02*
X34733D01*
X32082Y36911D02*
X33237Y38066D01*
X32082Y33652D02*
Y36911D01*
Y33652D02*
X34100Y31634D01*
Y26283D02*
Y31634D01*
X34005Y26188D02*
X34100Y26283D01*
X34339Y36741D02*
X34929Y37331D01*
Y37430D01*
X34643Y37717D02*
X34929Y37430D01*
X33102Y37717D02*
X34643D01*
X32233Y36848D02*
X33102Y37717D01*
X32233Y35757D02*
Y36848D01*
Y33714D02*
Y35757D01*
Y33714D02*
X34251Y31697D01*
Y26434D02*
Y31697D01*
X36209Y29359D02*
X37497Y30647D01*
X37578D01*
Y34567D01*
X37529Y34616D02*
X37578Y34567D01*
X36192Y35953D02*
X37529Y34616D01*
X35323Y35953D02*
X36192D01*
X34912D02*
X35323D01*
X34223Y36642D02*
X34912Y35953D01*
X33355Y36642D02*
X34223D01*
X36799Y28867D02*
Y29145D01*
X38132Y30477D01*
Y34530D01*
X38374Y34772D01*
X39555Y35953D01*
X40244D01*
X40736Y36445D01*
X41130D01*
X33355Y36347D02*
X34305D01*
X34850Y35802D01*
X36068D01*
X37360Y34509D01*
X37422D01*
Y30786D02*
Y34509D01*
X37332Y30696D02*
X37422Y30786D01*
X34402Y27766D02*
X37332Y30696D01*
X34402Y26585D02*
Y27766D01*
X35422Y28999D02*
Y34280D01*
X34420Y27998D02*
X35422Y28999D01*
X34929Y34280D02*
X35422D01*
X34142Y35068D02*
X34929Y34280D01*
X35422D02*
X35717Y34575D01*
Y35461D01*
X35225Y29016D02*
Y33985D01*
X34402Y28194D02*
X35225Y29016D01*
X40441Y31735D02*
Y35166D01*
X36406Y27700D02*
X40441Y31735D01*
X38866Y30160D02*
Y30540D01*
X39949Y31623D01*
Y33985D01*
X38965Y34969D02*
X39949Y33985D01*
X38814Y40527D02*
X39162Y40875D01*
X38814Y36410D02*
Y40527D01*
X38071Y35667D02*
X38814Y36410D01*
X37497Y35667D02*
X38071D01*
X37157Y36006D02*
X37497Y35667D01*
X36550Y36006D02*
X37157D01*
X36110Y36445D02*
X36550Y36006D01*
X36110Y36445D02*
Y37430D01*
X35225Y38316D02*
X36110Y37430D01*
D35*
X27051Y34358D02*
D03*
X28051Y33358D02*
D03*
Y34358D02*
D03*
X29051D02*
D03*
Y33358D02*
D03*
D36*
X27051D02*
D03*
D37*
X30443Y37795D02*
D03*
X25659D02*
D03*
D38*
X29823Y35630D02*
D03*
X26280D02*
D03*
D39*
X26585Y36220D02*
D03*
X29518D02*
D03*
D40*
X29252Y35945D02*
D03*
X28996Y36220D02*
D03*
X28524Y35945D02*
D03*
X28681Y36220D02*
D03*
X28366D02*
D03*
X28209Y35945D02*
D03*
X27894D02*
D03*
X27736Y36220D02*
D03*
X27579Y35945D02*
D03*
X27421Y36220D02*
D03*
X27106D02*
D03*
X26850Y35945D02*
D03*
D41*
X26378Y32283D02*
D03*
X31398D02*
D03*
X27067Y28150D02*
D03*
X27136Y23396D02*
D03*
X27756Y22736D02*
D03*
X27264Y20374D02*
D03*
X31004Y33957D02*
D03*
X31398Y32972D02*
D03*
X26280Y26181D02*
D03*
X27998Y26226D02*
D03*
X32874Y28051D02*
D03*
X23346Y28110D02*
D03*
X25787Y34744D02*
D03*
D42*
X34685Y30236D02*
D03*
D43*
X28307Y20374D02*
D03*
X27795D02*
D03*
D44*
X23201Y28051D02*
D03*
X28051D02*
D03*
X32901D02*
D03*
D45*
X27136Y21494D02*
D03*
Y21994D02*
D03*
Y22494D02*
D03*
Y22994D02*
D03*
X28967D02*
D03*
Y22494D02*
D03*
Y21994D02*
D03*
Y21494D02*
D03*
D46*
X26161Y34764D02*
D03*
X25413D02*
D03*
Y33543D02*
D03*
X25787D02*
D03*
X26161D02*
D03*
D47*
X25492Y32776D02*
D03*
X26083D02*
D03*
D48*
X30079D02*
D03*
X30551D02*
D03*
D49*
X30015Y33858D02*
D03*
X30615D02*
D03*
D50*
X29134Y35508D02*
D03*
X28937D02*
D03*
X28740D02*
D03*
X28543D02*
D03*
X28346D02*
D03*
X28150D02*
D03*
X27953D02*
D03*
X27756D02*
D03*
X27559D02*
D03*
X27362D02*
D03*
X27165D02*
D03*
X26969D02*
D03*
M02*
