M48
;Layer_Color=6321
;FILE_FORMAT=2:4
INCH,LZ
;TYPE=PLATED
T1F00S00C0.0126
T2F00S00C0.0142
T3F00S00C0.0159
T4F00S00C0.0179
T5F00S00C0.0201
T6F00S00C0.0226
T7F00S00C0.0254
T8F00S00C0.0285
T9F00S00C0.0320
T10F00S00C0.0354
T11F00S00C0.0359
T12F00S00C0.0403
T13F00S00C0.0453
T14F00S00C0.0508
T15F00S00C0.0571
T16F00S00C0.0641
T17F00S00C0.0720
T18F00S00C0.0808
T19F00S00C0.0907
T20F00S00C0.1019
T21F00S00C0.1144
T22F00S00C0.1285
T23F00S00C0.1443
T24F00S00C0.1620
;TYPE=NON_PLATED
%
T01
X02852Y01272
T02
X028165Y01272
T03
X027772Y01272
T04
X027378Y01272
T05
X026945Y01272
T06
X026512Y012681
X026551Y01272
T07
X026079Y01272
T08
X025606Y01272
T09
X025094Y01272
T10
X018709Y014256
X021709
T11
X024583Y01272
T12
X023953Y01272
T13
X023283Y012681
T14
X022535Y012681
T15
X021787Y012642
T16
X020961Y012602
T17
X020094Y012563
T18
X01911Y012524
T19
X018008Y012484
T20
X016827Y012406
T21
X015646Y012366
T22
X014228Y012287
T23
X012575Y012209
T24
X010843Y012142
M30
