G04 Layer_Physical_Order=1*
G04 Layer_Color=25308*
%FSLAX24Y24*%
%MOIN*%
G70*
G01*
G75*
%ADD10R,0.0354X0.0236*%
%ADD11R,0.0315X0.0354*%
%ADD12R,0.0320X0.0320*%
%ADD13R,0.0217X0.0550*%
%ADD14R,0.0827X0.1260*%
%ADD15R,0.0827X0.0354*%
%ADD16O,0.0354X0.0098*%
%ADD17O,0.0098X0.0354*%
%ADD18R,0.1063X0.1063*%
%ADD19R,0.0669X0.0177*%
G04:AMPARAMS|DCode=20|XSize=39.4mil|YSize=39.4mil|CornerRadius=4.9mil|HoleSize=0mil|Usage=FLASHONLY|Rotation=180.000|XOffset=0mil|YOffset=0mil|HoleType=Round|Shape=RoundedRectangle|*
%AMROUNDEDRECTD20*
21,1,0.0394,0.0295,0,0,180.0*
21,1,0.0295,0.0394,0,0,180.0*
1,1,0.0098,-0.0148,0.0148*
1,1,0.0098,0.0148,0.0148*
1,1,0.0098,0.0148,-0.0148*
1,1,0.0098,-0.0148,-0.0148*
%
%ADD20ROUNDEDRECTD20*%
%ADD21C,0.3000*%
%ADD22R,0.0276X0.0118*%
%ADD23R,0.0984X0.0984*%
%ADD24R,0.0984X0.0591*%
%ADD25R,0.0280X0.0240*%
%ADD26R,0.0295X0.0335*%
%ADD27C,0.0079*%
%ADD28C,0.0100*%
%ADD29C,0.0083*%
%ADD30R,0.0709X0.0709*%
%ADD31C,0.0709*%
%ADD32C,0.0900*%
%ADD33O,0.0551X0.0315*%
%ADD34R,0.0886X0.0886*%
%ADD35C,0.0472*%
%ADD36C,0.0276*%
%ADD37C,0.1378*%
%ADD38C,0.0197*%
G36*
X27068Y17759D02*
X27114Y17754D01*
X27206Y17742D01*
X27335Y17689D01*
X27446Y17604D01*
X27531Y17493D01*
X27585Y17363D01*
X27597Y17271D01*
X27602Y17225D01*
X27599Y17224D01*
Y17224D01*
X27599Y17178D01*
Y17178D01*
X27602Y4478D01*
X27599Y4429D01*
Y4429D01*
Y4429D01*
X27597Y4380D01*
X27597Y4380D01*
X27585Y4290D01*
X27531Y4161D01*
X27446Y4050D01*
X27335Y3965D01*
X27245Y3927D01*
X27197Y3914D01*
X27197D01*
X27197Y3914D01*
X27151Y3897D01*
X4428Y3895D01*
X4428Y3895D01*
X4382Y3899D01*
X4290Y3911D01*
X4161Y3965D01*
X4050Y4050D01*
X3965Y4161D01*
X3911Y4290D01*
X3900Y4379D01*
X3893Y4428D01*
X3897Y4429D01*
X3897Y4429D01*
X3897Y4476D01*
X3895Y17225D01*
X3895Y17225D01*
X3899Y17271D01*
X3911Y17363D01*
X3965Y17493D01*
X4050Y17604D01*
X4161Y17689D01*
X4290Y17742D01*
X4381Y17754D01*
X4430Y17756D01*
X4478Y17756D01*
X27021Y17759D01*
X27068Y17759D01*
X27068Y17759D01*
D02*
G37*
%LPC*%
G36*
X16387Y10027D02*
X16204D01*
X16213Y9984D01*
X16266Y9906D01*
X16344Y9853D01*
X16387Y9844D01*
Y10027D01*
D02*
G37*
G36*
X16670D02*
X16487D01*
Y9844D01*
X16530Y9853D01*
X16608Y9906D01*
X16661Y9984D01*
X16670Y10027D01*
D02*
G37*
G36*
X9261Y10139D02*
X8798D01*
Y9912D01*
X9261D01*
Y10139D01*
D02*
G37*
G36*
X22686Y10459D02*
X22485Y10443D01*
X22240Y10385D01*
X22008Y10288D01*
X21793Y10157D01*
X21601Y9993D01*
X21438Y9802D01*
X21306Y9587D01*
X21210Y9354D01*
X21151Y9109D01*
X21135Y8908D01*
X22686D01*
Y10459D01*
D02*
G37*
G36*
X9261Y9812D02*
X8798D01*
Y9585D01*
X9261D01*
Y9812D01*
D02*
G37*
G36*
X9824D02*
X9361D01*
Y9585D01*
X9824D01*
Y9812D01*
D02*
G37*
G36*
Y10139D02*
X9361D01*
Y9912D01*
X9824D01*
Y10139D01*
D02*
G37*
G36*
X16685Y10700D02*
X16487D01*
Y10483D01*
X16685D01*
Y10700D01*
D02*
G37*
G36*
X10242Y10678D02*
X10051D01*
Y10508D01*
X10242D01*
Y10678D01*
D02*
G37*
G36*
X10236Y11955D02*
X10143Y11937D01*
X10065Y11884D01*
X10012Y11805D01*
X9994Y11713D01*
X10012Y11620D01*
X10065Y11541D01*
X10143Y11489D01*
X10236Y11470D01*
X10268Y11477D01*
X10683Y11062D01*
Y10948D01*
X10342D01*
Y10728D01*
Y10508D01*
X11012D01*
Y10948D01*
X10971D01*
Y11122D01*
X10960Y11177D01*
X10929Y11224D01*
X10929Y11224D01*
X10472Y11680D01*
X10479Y11713D01*
X10460Y11805D01*
X10408Y11884D01*
X10329Y11937D01*
X10236Y11955D01*
D02*
G37*
G36*
X16685Y10383D02*
X16189D01*
Y10166D01*
X16189D01*
X16208Y10143D01*
X16204Y10127D01*
X16670D01*
X16666Y10143D01*
X16685Y10166D01*
X16685D01*
Y10383D01*
D02*
G37*
G36*
X8372Y10395D02*
X8184D01*
Y10286D01*
X8372D01*
Y10395D01*
D02*
G37*
G36*
X16387Y10700D02*
X16189D01*
Y10483D01*
X16387D01*
Y10700D01*
D02*
G37*
G36*
X7415Y8119D02*
X7227D01*
Y8010D01*
X7415D01*
Y8119D01*
D02*
G37*
G36*
X9057Y6773D02*
X7872D01*
Y5589D01*
X9057D01*
Y6773D01*
D02*
G37*
G36*
X7036Y5927D02*
X6809D01*
Y5759D01*
X7036D01*
Y5927D01*
D02*
G37*
G36*
X7364D02*
X7136D01*
Y5759D01*
X7364D01*
Y5927D01*
D02*
G37*
G36*
X23336Y5313D02*
X23193Y5294D01*
X23059Y5239D01*
X22944Y5151D01*
X22856Y5036D01*
X22800Y4902D01*
X22781Y4758D01*
X22800Y4615D01*
X22856Y4481D01*
X22944Y4366D01*
X23059Y4278D01*
X23193Y4222D01*
X23336Y4204D01*
X23480Y4222D01*
X23614Y4278D01*
X23728Y4366D01*
X23817Y4481D01*
X23872Y4615D01*
X23891Y4758D01*
X23872Y4902D01*
X23817Y5036D01*
X23728Y5151D01*
X23614Y5239D01*
X23480Y5294D01*
X23336Y5313D01*
D02*
G37*
G36*
X7036Y5659D02*
X6809D01*
Y5491D01*
X7036D01*
Y5659D01*
D02*
G37*
G36*
X7364D02*
X7136D01*
Y5491D01*
X7364D01*
Y5659D01*
D02*
G37*
G36*
X5659Y6052D02*
X5432D01*
Y5921D01*
Y5917D01*
Y5907D01*
X5432Y5903D01*
Y5900D01*
X5431Y5899D01*
X5431Y5899D01*
X5430Y5899D01*
X5430Y5898D01*
X5412Y5880D01*
X5364Y5868D01*
X5273Y5896D01*
X5118Y5911D01*
X4963Y5896D01*
X4815Y5851D01*
X4678Y5777D01*
X4558Y5679D01*
X4459Y5559D01*
X4386Y5422D01*
X4341Y5273D01*
X4325Y5118D01*
X4341Y4963D01*
X4386Y4815D01*
X4459Y4678D01*
X4558Y4558D01*
X4678Y4459D01*
X4815Y4386D01*
X4963Y4341D01*
X5118Y4325D01*
X5273Y4341D01*
X5422Y4386D01*
X5559Y4459D01*
X5679Y4558D01*
X5777Y4678D01*
X5851Y4815D01*
X5896Y4963D01*
X5911Y5118D01*
X5896Y5273D01*
X5851Y5422D01*
X5777Y5559D01*
X5679Y5679D01*
X5559Y5777D01*
X5484Y5817D01*
X5457Y5855D01*
X5463Y5877D01*
X5463Y5879D01*
X5464Y5882D01*
X5465Y5884D01*
X5465D01*
X5475Y5884D01*
X5475Y5884D01*
X5475Y5884D01*
X5659D01*
Y6052D01*
D02*
G37*
G36*
X5986Y6911D02*
X5432D01*
Y6475D01*
X5986D01*
Y6911D01*
D02*
G37*
G36*
X5157Y7646D02*
X4921D01*
X4854Y7637D01*
X4791Y7611D01*
X4738Y7569D01*
X4696Y7516D01*
X4670Y7453D01*
X4662Y7386D01*
X4670Y7319D01*
X4696Y7256D01*
X4738Y7202D01*
X4791Y7161D01*
X4854Y7135D01*
X4921Y7126D01*
X5157D01*
X5225Y7135D01*
X5287Y7161D01*
X5341Y7202D01*
X5382Y7256D01*
X5408Y7319D01*
X5417Y7386D01*
X5408Y7453D01*
X5382Y7516D01*
X5341Y7569D01*
X5287Y7611D01*
X5225Y7637D01*
X5157Y7646D01*
D02*
G37*
G36*
X22686Y8808D02*
X21135D01*
X21151Y8607D01*
X21210Y8362D01*
X21306Y8130D01*
X21438Y7915D01*
X21601Y7723D01*
X21793Y7560D01*
X22008Y7428D01*
X22240Y7332D01*
X22485Y7273D01*
X22686Y7257D01*
Y8808D01*
D02*
G37*
G36*
X5986Y6052D02*
X5759D01*
Y5884D01*
X5986D01*
Y6052D01*
D02*
G37*
G36*
X5659Y6320D02*
X5432D01*
Y6152D01*
X5659D01*
Y6320D01*
D02*
G37*
G36*
X5986D02*
X5759D01*
Y6152D01*
X5986D01*
Y6320D01*
D02*
G37*
G36*
X11326Y15912D02*
X11239Y15900D01*
X11157Y15867D01*
X11087Y15813D01*
X11033Y15742D01*
X10999Y15661D01*
X10987Y15573D01*
X10999Y15485D01*
X11033Y15403D01*
X11087Y15333D01*
X11157Y15279D01*
X11239Y15245D01*
X11326Y15234D01*
X11414Y15245D01*
X11496Y15279D01*
X11566Y15333D01*
X11620Y15403D01*
X11654Y15485D01*
X11666Y15573D01*
X11654Y15661D01*
X11620Y15742D01*
X11566Y15813D01*
X11496Y15867D01*
X11414Y15900D01*
X11326Y15912D01*
D02*
G37*
G36*
X15751Y15790D02*
Y15389D01*
X16152D01*
X16143Y15457D01*
X16098Y15568D01*
X16025Y15663D01*
X15930Y15735D01*
X15819Y15781D01*
X15751Y15790D01*
D02*
G37*
G36*
X16651D02*
X16582Y15781D01*
X16472Y15735D01*
X16377Y15663D01*
X16304Y15568D01*
X16258Y15457D01*
X16249Y15389D01*
X16651D01*
Y15790D01*
D02*
G37*
G36*
X9366Y15902D02*
X9279Y15890D01*
X9197Y15857D01*
X9127Y15803D01*
X9073Y15732D01*
X9039Y15651D01*
X9027Y15563D01*
X9039Y15475D01*
X9073Y15393D01*
X9127Y15323D01*
X9197Y15269D01*
X9279Y15235D01*
X9366Y15224D01*
X9454Y15235D01*
X9536Y15269D01*
X9606Y15323D01*
X9660Y15393D01*
X9694Y15475D01*
X9706Y15563D01*
X9694Y15651D01*
X9660Y15732D01*
X9606Y15803D01*
X9536Y15857D01*
X9454Y15890D01*
X9366Y15902D01*
D02*
G37*
G36*
X18152Y15289D02*
X17751D01*
Y14887D01*
X17819Y14896D01*
X17930Y14942D01*
X18025Y15015D01*
X18098Y15109D01*
X18143Y15220D01*
X18152Y15289D01*
D02*
G37*
G36*
X4991Y15698D02*
X4498D01*
Y15205D01*
X4991D01*
Y15698D01*
D02*
G37*
G36*
X5584D02*
X5091D01*
Y15205D01*
X5584D01*
Y15698D01*
D02*
G37*
G36*
X4991Y16291D02*
X4498D01*
Y15798D01*
X4991D01*
Y16291D01*
D02*
G37*
G36*
X5584D02*
X5091D01*
Y15798D01*
X5584D01*
Y16291D01*
D02*
G37*
G36*
X19117Y16996D02*
X17205D01*
X17147Y16984D01*
X17097Y16951D01*
X16896Y16750D01*
X16819Y16781D01*
X16701Y16797D01*
X16582Y16781D01*
X16472Y16735D01*
X16377Y16663D01*
X16304Y16568D01*
X16258Y16457D01*
X16243Y16339D01*
X16258Y16220D01*
X16304Y16109D01*
X16377Y16015D01*
X16472Y15942D01*
X16582Y15896D01*
X16701Y15880D01*
X16819Y15896D01*
X16930Y15942D01*
X17025Y16015D01*
X17098Y16109D01*
X17143Y16220D01*
X17159Y16339D01*
X17143Y16457D01*
X17112Y16533D01*
X17268Y16690D01*
X17335D01*
X17359Y16640D01*
X17304Y16568D01*
X17258Y16457D01*
X17243Y16339D01*
X17258Y16220D01*
X17304Y16109D01*
X17377Y16015D01*
X17472Y15942D01*
X17582Y15896D01*
X17701Y15880D01*
X17819Y15896D01*
X17930Y15942D01*
X18025Y16015D01*
X18098Y16109D01*
X18143Y16220D01*
X18159Y16339D01*
X18143Y16457D01*
X18098Y16568D01*
X18042Y16640D01*
X18067Y16690D01*
X18246D01*
Y15884D01*
X19155D01*
Y16678D01*
X19720D01*
X20221Y16177D01*
Y15615D01*
X15640Y11033D01*
X15607Y10984D01*
X15595Y10925D01*
Y9649D01*
X15542Y9639D01*
X15493Y9606D01*
X15460Y9556D01*
X15449Y9503D01*
X15315D01*
X15300Y9553D01*
X15329Y9573D01*
X15381Y9651D01*
X15400Y9744D01*
X15389Y9798D01*
X15398Y9843D01*
Y11516D01*
X15387Y11570D01*
X15356Y11616D01*
X15337Y11636D01*
Y14992D01*
X15387Y15007D01*
X15472Y14942D01*
X15582Y14896D01*
X15651Y14887D01*
Y15339D01*
Y15790D01*
X15582Y15781D01*
X15472Y15735D01*
X15377Y15663D01*
X15355Y15664D01*
X15322Y15673D01*
X15295Y15713D01*
X15023Y15985D01*
X15025Y16015D01*
X15098Y16109D01*
X15143Y16220D01*
X15159Y16339D01*
X15143Y16457D01*
X15098Y16568D01*
X15042Y16640D01*
X15067Y16690D01*
X15145D01*
X15293Y16542D01*
X15258Y16457D01*
X15243Y16339D01*
X15258Y16220D01*
X15304Y16109D01*
X15377Y16015D01*
X15472Y15942D01*
X15582Y15896D01*
X15701Y15880D01*
X15819Y15896D01*
X15930Y15942D01*
X16025Y16015D01*
X16098Y16109D01*
X16143Y16220D01*
X16159Y16339D01*
X16143Y16457D01*
X16098Y16568D01*
X16025Y16663D01*
X15930Y16735D01*
X15819Y16781D01*
X15701Y16797D01*
X15582Y16781D01*
X15497Y16746D01*
X15307Y16936D01*
X15260Y16967D01*
X15205Y16978D01*
X14495D01*
X14478Y16975D01*
X13976D01*
X13921Y16964D01*
X13874Y16933D01*
X12575Y15633D01*
X12544Y15587D01*
X12533Y15531D01*
Y11130D01*
X12483Y11109D01*
X12447Y11145D01*
Y11811D01*
X12436Y11866D01*
X12405Y11913D01*
X12011Y12307D01*
X11965Y12338D01*
X11909Y12349D01*
X9804D01*
X6994Y15159D01*
X7013Y15205D01*
X7903D01*
Y15604D01*
X8071D01*
X8126Y15615D01*
X8173Y15646D01*
X8623Y16096D01*
X9619D01*
X10029Y15686D01*
X10019Y15661D01*
X10007Y15573D01*
X10019Y15485D01*
X10053Y15403D01*
X10107Y15333D01*
X10177Y15279D01*
X10259Y15245D01*
X10346Y15234D01*
X10434Y15245D01*
X10516Y15279D01*
X10586Y15333D01*
X10640Y15403D01*
X10674Y15485D01*
X10686Y15573D01*
X10674Y15661D01*
X10640Y15742D01*
X10586Y15813D01*
X10516Y15867D01*
X10434Y15900D01*
X10346Y15912D01*
X10259Y15900D01*
X10233Y15890D01*
X9781Y16342D01*
X9734Y16373D01*
X9679Y16384D01*
X8563D01*
X8508Y16373D01*
X8461Y16342D01*
X8011Y15892D01*
X7903D01*
Y16291D01*
X6817D01*
Y15423D01*
X6767Y15401D01*
X6744Y15419D01*
Y16291D01*
X5658D01*
Y15205D01*
X6540D01*
X9642Y12103D01*
X9689Y12072D01*
X9744Y12061D01*
X11850D01*
X12159Y11751D01*
Y11085D01*
X12170Y11030D01*
X12191Y10998D01*
X12179Y10970D01*
X12179Y10970D01*
X12175Y10959D01*
X12174Y10957D01*
X12174Y10957D01*
X12174Y10956D01*
X12174Y10956D01*
X12174Y10956D01*
X12172Y10955D01*
X12171Y10954D01*
X12171Y10953D01*
X12168Y10950D01*
X12167Y10950D01*
X12167Y10949D01*
X12166Y10948D01*
X12165D01*
X12163D01*
X12157Y10948D01*
X12157D01*
X12157D01*
X12157D01*
X12154Y10948D01*
X12154D01*
X11523D01*
Y10728D01*
Y10508D01*
X11808D01*
Y10097D01*
X11453Y9742D01*
X11422Y9695D01*
X11420Y9687D01*
X11042D01*
Y9101D01*
X9824D01*
Y9234D01*
X8798D01*
Y8680D01*
X9824D01*
Y8813D01*
X11042D01*
Y8227D01*
X11411D01*
Y7750D01*
X11422Y7695D01*
X11453Y7648D01*
X11783Y7318D01*
X11830Y7287D01*
X11885Y7276D01*
X13500D01*
X13546Y7230D01*
X13537Y7185D01*
X13556Y7092D01*
X13608Y7014D01*
X13687Y6961D01*
X13780Y6943D01*
X13825Y6952D01*
X14016Y6760D01*
Y6675D01*
X13975D01*
Y6374D01*
X13970D01*
X13915Y6363D01*
X13868Y6332D01*
X13843Y6295D01*
X13806Y6288D01*
X13787Y6289D01*
X13751Y6341D01*
X13673Y6394D01*
X13580Y6412D01*
X13487Y6394D01*
X13409Y6341D01*
X13356Y6263D01*
X13338Y6170D01*
X13339Y6163D01*
X13301Y6119D01*
X13191D01*
Y6298D01*
Y6675D01*
X12874D01*
X12864Y6690D01*
X12635Y6919D01*
X12585Y6952D01*
X12526Y6964D01*
X12088D01*
Y7206D01*
X10904D01*
X10904Y7206D01*
Y7206D01*
X10860Y7224D01*
X9931Y8153D01*
X9884Y8184D01*
X9829Y8195D01*
X9824D01*
Y8328D01*
X8798D01*
Y8195D01*
X8654D01*
Y8661D01*
X8643Y8717D01*
X8612Y8763D01*
X8565Y8795D01*
X8510Y8806D01*
X8372D01*
Y8896D01*
Y9093D01*
Y9290D01*
Y9487D01*
Y9683D01*
Y9880D01*
Y10077D01*
Y10198D01*
X8134D01*
Y10236D01*
X8084D01*
Y10409D01*
X8064Y10445D01*
X8089Y10482D01*
X8106Y10571D01*
X8089Y10660D01*
X8038Y10735D01*
X7963Y10786D01*
X7874Y10803D01*
X7809Y10790D01*
X7759Y10818D01*
X7754Y10825D01*
X7751Y10847D01*
X7725Y10909D01*
X7684Y10963D01*
X7630Y11004D01*
X7567Y11030D01*
X7500Y11039D01*
X7264D01*
X7197Y11030D01*
X7134Y11004D01*
X7080Y10963D01*
X7039Y10909D01*
X7013Y10847D01*
X7004Y10780D01*
X7013Y10712D01*
X7039Y10650D01*
X7080Y10596D01*
X7134Y10555D01*
X7194Y10530D01*
X7227Y10494D01*
X7227D01*
Y10385D01*
X7465D01*
Y10297D01*
X7227D01*
Y10176D01*
Y9979D01*
Y9888D01*
X7000D01*
X6945Y9877D01*
X6898Y9846D01*
X6558Y9506D01*
X6527Y9459D01*
X6516Y9404D01*
Y6299D01*
X6527Y6244D01*
X6558Y6197D01*
X6605Y6166D01*
X6660Y6155D01*
X6809D01*
Y6081D01*
X7364D01*
Y6517D01*
X6809D01*
X6804Y6565D01*
Y9344D01*
X7060Y9600D01*
X7227D01*
Y9585D01*
Y9388D01*
Y9191D01*
Y8994D01*
Y8798D01*
Y8601D01*
Y8404D01*
Y8207D01*
Y8207D01*
X7465D01*
Y8169D01*
X7515D01*
Y8010D01*
X7654D01*
X7654D01*
X7654D01*
X7659Y8010D01*
X7696Y8009D01*
X7698Y8006D01*
X7702Y8000D01*
X7703Y8000D01*
X7703Y7999D01*
X7705Y7997D01*
X7709Y7968D01*
X7709Y7964D01*
X7709Y7964D01*
X7709Y7958D01*
X7702Y7948D01*
X7701Y7947D01*
D01*
X7659Y7884D01*
X7643Y7801D01*
X7635Y7792D01*
X7592Y7768D01*
X7567Y7778D01*
X7500Y7787D01*
X7264D01*
X7197Y7778D01*
X7134Y7752D01*
X7080Y7711D01*
X7039Y7657D01*
X7013Y7595D01*
X7004Y7528D01*
X7013Y7460D01*
X7039Y7398D01*
X7080Y7344D01*
X7134Y7303D01*
X7197Y7277D01*
X7264Y7268D01*
X7500D01*
X7567Y7277D01*
X7630Y7303D01*
X7684Y7344D01*
X7725Y7398D01*
X7739Y7433D01*
X7781Y7460D01*
X7801Y7459D01*
X7874Y7445D01*
X7963Y7462D01*
X8038Y7513D01*
X8089Y7588D01*
X8106Y7677D01*
Y7795D01*
X8093Y7862D01*
X8126Y7912D01*
X8372D01*
Y7918D01*
X8377Y7923D01*
X8422Y7940D01*
X8455Y7918D01*
X8510Y7907D01*
X8798D01*
Y7774D01*
X9824D01*
Y7786D01*
X9871Y7806D01*
X10736Y6940D01*
Y5250D01*
X10747Y5195D01*
X10778Y5148D01*
X11128Y4798D01*
X11175Y4767D01*
X11230Y4756D01*
X15427D01*
X15482Y4767D01*
X15529Y4798D01*
X17163Y6433D01*
X17386D01*
Y6280D01*
X17182Y6075D01*
X17150Y6029D01*
X17139Y5973D01*
Y5789D01*
X17026D01*
Y5235D01*
X18013D01*
Y5789D01*
X17900D01*
Y6010D01*
X17922Y6032D01*
X17953Y6079D01*
X17964Y6134D01*
Y6433D01*
X18080D01*
Y6953D01*
X17674D01*
Y7076D01*
X17663Y7131D01*
X17632Y7178D01*
X17546Y7263D01*
Y7445D01*
X17574Y7479D01*
X17901D01*
X20724Y4656D01*
X20770Y4625D01*
X20825Y4614D01*
X21601D01*
X21656Y4481D01*
X21744Y4366D01*
X21859Y4278D01*
X21993Y4222D01*
X22136Y4204D01*
X22280Y4222D01*
X22414Y4278D01*
X22528Y4366D01*
X22617Y4481D01*
X22672Y4615D01*
X22691Y4758D01*
X22672Y4902D01*
X22617Y5035D01*
X24442Y6860D01*
X24473Y6907D01*
X24484Y6962D01*
Y10754D01*
X24473Y10810D01*
X24442Y10856D01*
X22617Y12681D01*
X22672Y12815D01*
X22691Y12958D01*
X22672Y13102D01*
X22617Y13236D01*
X22528Y13351D01*
X22414Y13439D01*
X22280Y13494D01*
X22136Y13513D01*
X21993Y13494D01*
X21859Y13439D01*
X21744Y13351D01*
X21656Y13236D01*
X21600Y13102D01*
X21581Y12958D01*
X21600Y12815D01*
X21656Y12681D01*
X21744Y12566D01*
X21859Y12478D01*
X21993Y12422D01*
X22136Y12404D01*
X22280Y12422D01*
X22413Y12478D01*
X24196Y10695D01*
Y9634D01*
X24146Y9620D01*
X24035Y9802D01*
X23871Y9993D01*
X23680Y10157D01*
X23465Y10288D01*
X23232Y10385D01*
X22987Y10443D01*
X22786Y10459D01*
Y8858D01*
Y7257D01*
X22987Y7273D01*
X23232Y7332D01*
X23465Y7428D01*
X23680Y7560D01*
X23871Y7723D01*
X24035Y7915D01*
X24146Y8096D01*
X24196Y8082D01*
Y7022D01*
X22413Y5239D01*
X22280Y5294D01*
X22136Y5313D01*
X21993Y5294D01*
X21859Y5239D01*
X21744Y5151D01*
X21656Y5036D01*
X21601Y4902D01*
X20885D01*
X18102Y7686D01*
Y8229D01*
X17570D01*
Y7854D01*
X17470D01*
Y8229D01*
X17263D01*
X17244Y8276D01*
X17645Y8677D01*
X17685Y8700D01*
Y8700D01*
X17685Y8700D01*
X18102D01*
Y9450D01*
X18038D01*
Y9541D01*
X18085Y9573D01*
X18137Y9651D01*
X18156Y9744D01*
X18137Y9837D01*
X18085Y9916D01*
X18006Y9968D01*
X17913Y9987D01*
X17821Y9968D01*
X17742Y9916D01*
X17689Y9837D01*
X17671Y9744D01*
X17689Y9651D01*
X17742Y9573D01*
X17750Y9568D01*
Y9450D01*
X17685D01*
Y9124D01*
X17400Y8839D01*
X17354Y8858D01*
Y9450D01*
X17290D01*
Y9690D01*
X17279Y9745D01*
X17248Y9792D01*
X17172Y9868D01*
Y10166D01*
X17275D01*
Y10700D01*
X16780D01*
Y10166D01*
X16883D01*
Y9808D01*
X16894Y9753D01*
X16926Y9706D01*
X17002Y9630D01*
Y9450D01*
X16937D01*
Y8700D01*
X17196D01*
X17215Y8654D01*
X16834Y8273D01*
X16803Y8226D01*
X16792Y8171D01*
Y7691D01*
X16746Y7672D01*
X16696Y7722D01*
X16668Y7741D01*
X16665Y7796D01*
X16665Y7798D01*
X16692Y7816D01*
X16725Y7865D01*
X16737Y7923D01*
Y8219D01*
X16725Y8277D01*
X16692Y8326D01*
X16680Y8335D01*
Y8472D01*
X16707Y8490D01*
X16759Y8569D01*
X16778Y8661D01*
X16759Y8754D01*
X16707Y8833D01*
X16628Y8885D01*
X16535Y8904D01*
X16443Y8885D01*
X16364Y8833D01*
X16311Y8754D01*
X16293Y8661D01*
X16311Y8569D01*
X16364Y8490D01*
X16391Y8472D01*
Y8371D01*
X16289D01*
X16231Y8359D01*
X16182Y8326D01*
X16172Y8311D01*
X16112D01*
X16102Y8326D01*
X16052Y8359D01*
X15994Y8371D01*
X15699D01*
X15641Y8359D01*
X15591Y8326D01*
X15558Y8277D01*
X15547Y8219D01*
Y7923D01*
X15558Y7865D01*
X15591Y7816D01*
X15641Y7783D01*
X15699Y7771D01*
X15942D01*
X16195Y7518D01*
X16242Y7487D01*
X16244Y7486D01*
X16240Y7436D01*
X15831D01*
X15287Y7980D01*
X15303Y8035D01*
X15349Y8044D01*
X15427Y8096D01*
X15480Y8175D01*
X15498Y8268D01*
X15480Y8360D01*
X15427Y8439D01*
X15409Y8452D01*
Y8598D01*
X15516Y8705D01*
X16043D01*
X16102Y8717D01*
X16151Y8750D01*
X16447Y9045D01*
X16450Y9051D01*
X16486D01*
X16544Y9062D01*
X16594Y9095D01*
X16627Y9145D01*
X16638Y9203D01*
Y9498D01*
X16627Y9556D01*
X16594Y9606D01*
X16544Y9639D01*
X16486Y9650D01*
X16191D01*
X16133Y9639D01*
X16083Y9606D01*
X16073Y9591D01*
X16013D01*
X16003Y9606D01*
X15954Y9639D01*
X15901Y9649D01*
Y10862D01*
X20482Y15443D01*
X20515Y15493D01*
X20527Y15551D01*
Y16240D01*
X20515Y16299D01*
X20482Y16348D01*
X19892Y16939D01*
X19842Y16972D01*
X19783Y16984D01*
X19177D01*
X19176Y16984D01*
X19117Y16996D01*
D02*
G37*
G36*
X26378Y17328D02*
X26223Y17313D01*
X26075Y17268D01*
X25938Y17195D01*
X25817Y17096D01*
X25719Y16976D01*
X25646Y16839D01*
X25600Y16690D01*
X25585Y16535D01*
X25600Y16381D01*
X25646Y16232D01*
X25719Y16095D01*
X25817Y15975D01*
X25938Y15876D01*
X26075Y15803D01*
X26223Y15758D01*
X26378Y15743D01*
X26533Y15758D01*
X26681Y15803D01*
X26818Y15876D01*
X26939Y15975D01*
X27037Y16095D01*
X27110Y16232D01*
X27156Y16381D01*
X27171Y16535D01*
X27156Y16690D01*
X27110Y16839D01*
X27037Y16976D01*
X26939Y17096D01*
X26818Y17195D01*
X26681Y17268D01*
X26533Y17313D01*
X26378Y17328D01*
D02*
G37*
G36*
X16751Y15790D02*
Y15389D01*
X17152D01*
X17143Y15457D01*
X17098Y15568D01*
X17025Y15663D01*
X16930Y15735D01*
X16819Y15781D01*
X16751Y15790D01*
D02*
G37*
G36*
X17651D02*
X17582Y15781D01*
X17472Y15735D01*
X17377Y15663D01*
X17304Y15568D01*
X17258Y15457D01*
X17249Y15389D01*
X17651D01*
Y15790D01*
D02*
G37*
G36*
X17751D02*
Y15389D01*
X18152D01*
X18143Y15457D01*
X18098Y15568D01*
X18025Y15663D01*
X17930Y15735D01*
X17819Y15781D01*
X17751Y15790D01*
D02*
G37*
G36*
X11423Y10948D02*
X11233D01*
Y10778D01*
X11423D01*
Y10948D01*
D02*
G37*
G36*
X23336Y13513D02*
X23193Y13494D01*
X23059Y13439D01*
X22944Y13351D01*
X22856Y13236D01*
X22800Y13102D01*
X22781Y12958D01*
X22800Y12815D01*
X22856Y12681D01*
X22944Y12566D01*
X23059Y12478D01*
X23193Y12422D01*
X23336Y12404D01*
X23480Y12422D01*
X23614Y12478D01*
X23728Y12566D01*
X23817Y12681D01*
X23872Y12815D01*
X23891Y12958D01*
X23872Y13102D01*
X23817Y13236D01*
X23728Y13351D01*
X23614Y13439D01*
X23480Y13494D01*
X23336Y13513D01*
D02*
G37*
G36*
X18701Y15797D02*
X18582Y15781D01*
X18472Y15735D01*
X18377Y15663D01*
X18304Y15568D01*
X18258Y15457D01*
X18243Y15339D01*
X18258Y15220D01*
X18304Y15109D01*
X18377Y15015D01*
X18472Y14942D01*
X18582Y14896D01*
X18701Y14880D01*
X18819Y14896D01*
X18930Y14942D01*
X19025Y15015D01*
X19098Y15109D01*
X19143Y15220D01*
X19159Y15339D01*
X19143Y15457D01*
X19098Y15568D01*
X19025Y15663D01*
X18930Y15735D01*
X18819Y15781D01*
X18701Y15797D01*
D02*
G37*
G36*
X11423Y10678D02*
X11233D01*
Y10508D01*
X11423D01*
Y10678D01*
D02*
G37*
G36*
X5157Y11181D02*
X4921D01*
X4854Y11172D01*
X4791Y11146D01*
X4738Y11105D01*
X4696Y11051D01*
X4670Y10988D01*
X4662Y10921D01*
X4670Y10854D01*
X4696Y10791D01*
X4738Y10738D01*
X4791Y10696D01*
X4854Y10670D01*
X4921Y10662D01*
X5157D01*
X5225Y10670D01*
X5287Y10696D01*
X5341Y10738D01*
X5382Y10791D01*
X5408Y10854D01*
X5417Y10921D01*
X5408Y10988D01*
X5382Y11051D01*
X5341Y11105D01*
X5287Y11146D01*
X5225Y11172D01*
X5157Y11181D01*
D02*
G37*
G36*
X10242Y10948D02*
X10051D01*
Y10778D01*
X10242D01*
Y10948D01*
D02*
G37*
G36*
X17651Y15289D02*
X17249D01*
X17258Y15220D01*
X17304Y15109D01*
X17377Y15015D01*
X17472Y14942D01*
X17582Y14896D01*
X17651Y14887D01*
Y15289D01*
D02*
G37*
G36*
X17152D02*
X16751D01*
Y14887D01*
X16819Y14896D01*
X16930Y14942D01*
X17025Y15015D01*
X17098Y15109D01*
X17143Y15220D01*
X17152Y15289D01*
D02*
G37*
G36*
X16651D02*
X16249D01*
X16258Y15220D01*
X16304Y15109D01*
X16377Y15015D01*
X16472Y14942D01*
X16582Y14896D01*
X16651Y14887D01*
Y15289D01*
D02*
G37*
G36*
X16152D02*
X15751D01*
Y14887D01*
X15819Y14896D01*
X15930Y14942D01*
X16025Y15015D01*
X16098Y15109D01*
X16143Y15220D01*
X16152Y15289D01*
D02*
G37*
%LPD*%
G36*
X15460Y9145D02*
X15493Y9095D01*
X15542Y9062D01*
X15547Y9061D01*
X15542Y9011D01*
X15453D01*
X15424Y9005D01*
X15394Y9000D01*
X15394Y9000D01*
X15394Y9000D01*
X15375Y8987D01*
X15345Y8966D01*
X15148Y8770D01*
X15148Y8770D01*
X15148Y8770D01*
X15135Y8751D01*
X15115Y8720D01*
X15115Y8720D01*
X15115Y8720D01*
X15109Y8691D01*
X15103Y8661D01*
X15103Y8661D01*
X15103Y8661D01*
Y8452D01*
X15084Y8439D01*
X15032Y8360D01*
X15023Y8315D01*
X14969Y8299D01*
X14561Y8707D01*
X14571Y8760D01*
X14568Y8776D01*
X14600Y8815D01*
X14671D01*
X14691Y8785D01*
X14769Y8733D01*
X14862Y8714D01*
X14955Y8733D01*
X15034Y8785D01*
X15086Y8864D01*
X15105Y8957D01*
X15086Y9049D01*
X15034Y9128D01*
X15005Y9147D01*
X15020Y9197D01*
X15449D01*
X15460Y9145D01*
D02*
G37*
G36*
X12321Y6042D02*
Y5786D01*
Y5768D01*
X13191D01*
Y5786D01*
Y5830D01*
X13384D01*
X13440Y5841D01*
X13486Y5873D01*
X13548Y5934D01*
X13580Y5928D01*
X13673Y5946D01*
X13751Y5999D01*
X13776Y6035D01*
X13826Y6020D01*
Y5520D01*
X13837Y5465D01*
X13868Y5418D01*
X13915Y5387D01*
X13970Y5376D01*
X15634D01*
X15653Y5330D01*
X15367Y5044D01*
X12800D01*
X12785Y5094D01*
X12821Y5119D01*
X12874Y5197D01*
X12883Y5240D01*
X12417D01*
X12426Y5197D01*
X12479Y5119D01*
X12515Y5094D01*
X12500Y5044D01*
X11290D01*
X11145Y5188D01*
X11164Y5235D01*
X12088D01*
Y6006D01*
X12160Y6077D01*
X12321D01*
Y6042D01*
D02*
G37*
G36*
X14357Y16637D02*
X14304Y16568D01*
X14258Y16457D01*
X14243Y16339D01*
X14258Y16220D01*
X14304Y16109D01*
X14377Y16015D01*
X14472Y15942D01*
X14582Y15896D01*
X14701Y15880D01*
X14723Y15883D01*
X14768Y15838D01*
X14751Y15804D01*
Y15339D01*
Y14887D01*
X14819Y14896D01*
X14930Y14942D01*
X15002Y14997D01*
X15052Y14973D01*
Y11577D01*
X15063Y11523D01*
X15094Y11477D01*
X15114Y11457D01*
Y9978D01*
X15065Y9968D01*
X14986Y9916D01*
X14933Y9837D01*
X14915Y9744D01*
X14933Y9651D01*
X14986Y9573D01*
X15015Y9553D01*
X15000Y9503D01*
X14602D01*
X14570Y9542D01*
X14571Y9547D01*
X14560Y9605D01*
X14550Y9621D01*
X14557Y9660D01*
Y10508D01*
X14653D01*
X14653Y10508D01*
X14670Y10505D01*
X14671Y10504D01*
X14764Y10486D01*
X14857Y10504D01*
X14935Y10557D01*
X14988Y10636D01*
X15006Y10728D01*
X14988Y10821D01*
X14935Y10900D01*
X14857Y10952D01*
X14764Y10971D01*
X14671Y10952D01*
X14653Y10948D01*
Y10948D01*
X14653Y10948D01*
X13983D01*
Y10728D01*
Y10508D01*
X14269D01*
Y9720D01*
X14249Y9699D01*
X14163D01*
X14154Y9698D01*
X14116Y9729D01*
Y9785D01*
X14060D01*
X14028Y9824D01*
X14030Y9833D01*
Y10089D01*
X14019Y10147D01*
X13986Y10196D01*
X13936Y10229D01*
X13878Y10241D01*
X13820Y10229D01*
X13780Y10202D01*
X13739Y10229D01*
X13681Y10241D01*
X13623Y10229D01*
X13583Y10202D01*
X13542Y10229D01*
X13484Y10241D01*
X13426Y10229D01*
X13386Y10202D01*
X13346Y10229D01*
X13287Y10241D01*
X13229Y10229D01*
X13189Y10202D01*
X13149Y10229D01*
X13091Y10241D01*
X13032Y10229D01*
X12983Y10196D01*
X12950Y10147D01*
X12938Y10089D01*
Y9833D01*
X12940Y9824D01*
X12909Y9785D01*
X12853D01*
X12821Y9822D01*
Y15472D01*
X14036Y16687D01*
X14332D01*
X14357Y16637D01*
D02*
G37*
G36*
X16182Y6536D02*
X16231Y6503D01*
X16289Y6492D01*
X16472D01*
X16492Y6445D01*
X15710Y5664D01*
X15001D01*
X14982Y5710D01*
X15763Y6492D01*
X15994D01*
X16052Y6503D01*
X16102Y6536D01*
X16112Y6551D01*
X16172D01*
X16182Y6536D01*
D02*
G37*
G36*
X12024Y6408D02*
X12029Y6366D01*
X11988Y6338D01*
X11675Y6025D01*
X11024D01*
Y6416D01*
X12021D01*
X12024Y6408D01*
D02*
G37*
G36*
X12255Y10893D02*
Y9353D01*
X12266Y9298D01*
X12297Y9251D01*
X12300Y9248D01*
X12346Y9217D01*
X12358Y9215D01*
X12398Y9158D01*
X12397Y9154D01*
X12409Y9095D01*
X12436Y9055D01*
X12409Y9015D01*
X12397Y8957D01*
X12409Y8898D01*
X12436Y8858D01*
X12409Y8818D01*
X12397Y8760D01*
X12409Y8702D01*
X12442Y8652D01*
X12491Y8619D01*
X12549Y8608D01*
X12805D01*
X12814Y8609D01*
X12853Y8578D01*
Y8522D01*
X12908D01*
X12940Y8483D01*
X12938Y8474D01*
Y8219D01*
X12950Y8160D01*
X12983Y8111D01*
X13032Y8078D01*
X13091Y8066D01*
X13149Y8078D01*
X13189Y8105D01*
X13229Y8078D01*
X13287Y8066D01*
X13346Y8078D01*
X13386Y8105D01*
X13426Y8078D01*
X13434Y8076D01*
Y8192D01*
X13440Y8219D01*
Y8346D01*
X13529D01*
Y8219D01*
X13534Y8192D01*
Y8076D01*
X13542Y8078D01*
X13583Y8105D01*
X13623Y8078D01*
X13681Y8066D01*
X13739Y8078D01*
X13780Y8105D01*
X13820Y8078D01*
X13878Y8066D01*
X13936Y8078D01*
X13986Y8111D01*
X14019Y8160D01*
X14030Y8219D01*
Y8474D01*
X14028Y8483D01*
X14060Y8522D01*
X14116D01*
Y8578D01*
X14154Y8609D01*
X14163Y8608D01*
X14227D01*
X15660Y7175D01*
X15709Y7142D01*
X15714Y7141D01*
X15710Y7091D01*
X15699D01*
X15641Y7080D01*
X15591Y7047D01*
X15558Y6997D01*
X15547Y6939D01*
Y6708D01*
X15455Y6616D01*
X15409Y6635D01*
Y6804D01*
X15427Y6817D01*
X15480Y6895D01*
X15498Y6988D01*
X15480Y7081D01*
X15427Y7160D01*
X15349Y7212D01*
X15256Y7231D01*
X15163Y7212D01*
X15084Y7160D01*
X15032Y7081D01*
X15013Y6988D01*
X15032Y6895D01*
X15084Y6817D01*
X15103Y6804D01*
Y6562D01*
X14890Y6349D01*
X14844Y6368D01*
Y6675D01*
X14304D01*
Y6820D01*
X14293Y6875D01*
X14262Y6922D01*
X14018Y7166D01*
X14022Y7185D01*
X14004Y7278D01*
X13951Y7356D01*
X13872Y7409D01*
X13780Y7427D01*
X13760Y7424D01*
X13662Y7522D01*
X13615Y7553D01*
X13560Y7564D01*
X11945D01*
X11699Y7810D01*
Y8227D01*
X12069D01*
Y9687D01*
X11871D01*
X11852Y9733D01*
X12055Y9936D01*
X12086Y9982D01*
X12097Y10037D01*
Y10508D01*
X12193D01*
Y10874D01*
X12243Y10901D01*
X12255Y10893D01*
D02*
G37*
%LPC*%
G36*
X13883Y10678D02*
X13693D01*
Y10508D01*
X13883D01*
Y10678D01*
D02*
G37*
G36*
X14651Y15289D02*
X14249D01*
X14258Y15220D01*
X14304Y15109D01*
X14377Y15015D01*
X14472Y14942D01*
X14582Y14896D01*
X14651Y14887D01*
Y15289D01*
D02*
G37*
G36*
Y15790D02*
X14582Y15781D01*
X14472Y15735D01*
X14377Y15663D01*
X14304Y15568D01*
X14258Y15457D01*
X14249Y15389D01*
X14651D01*
Y15790D01*
D02*
G37*
G36*
X13883Y10948D02*
X13693D01*
Y10778D01*
X13883D01*
Y10948D01*
D02*
G37*
G36*
X13191Y5669D02*
X12321D01*
Y5530D01*
X12491D01*
X12506Y5480D01*
X12479Y5461D01*
X12426Y5383D01*
X12417Y5340D01*
X12883D01*
X12874Y5383D01*
X12821Y5461D01*
X12794Y5480D01*
X12809Y5530D01*
X13191D01*
Y5669D01*
D02*
G37*
%LPD*%
D10*
X5709Y6102D02*
D03*
Y6693D02*
D03*
X7086Y5709D02*
D03*
Y6299D02*
D03*
D11*
X17756Y5512D02*
D03*
X17283D02*
D03*
D12*
X17220Y6693D02*
D03*
X17820D02*
D03*
D13*
X17146Y7854D02*
D03*
X17520D02*
D03*
X17894D02*
D03*
Y9075D02*
D03*
X17146D02*
D03*
D14*
X11555Y8957D02*
D03*
D15*
X9311Y8051D02*
D03*
Y8957D02*
D03*
Y9862D02*
D03*
D16*
X12677Y9547D02*
D03*
Y9350D02*
D03*
Y9154D02*
D03*
Y8957D02*
D03*
Y8760D02*
D03*
X14291D02*
D03*
Y8957D02*
D03*
Y9154D02*
D03*
Y9350D02*
D03*
Y9547D02*
D03*
D17*
X13091Y8346D02*
D03*
X13287D02*
D03*
X13484D02*
D03*
X13681D02*
D03*
X13878D02*
D03*
Y9961D02*
D03*
X13681D02*
D03*
X13484D02*
D03*
X13287D02*
D03*
X13091D02*
D03*
D18*
X13484Y9154D02*
D03*
D19*
X12756Y6486D02*
D03*
Y6230D02*
D03*
Y5974D02*
D03*
Y5719D02*
D03*
X14409Y6486D02*
D03*
Y6230D02*
D03*
Y5974D02*
D03*
Y5719D02*
D03*
D20*
X16339Y9350D02*
D03*
X15748D02*
D03*
X15846Y8071D02*
D03*
X16437D02*
D03*
X15846Y6791D02*
D03*
X16437D02*
D03*
D21*
X22736Y8858D02*
D03*
D22*
X8134Y10236D02*
D03*
Y10039D02*
D03*
Y9843D02*
D03*
Y9646D02*
D03*
Y9449D02*
D03*
Y9252D02*
D03*
Y9055D02*
D03*
Y8858D02*
D03*
Y8661D02*
D03*
Y8465D02*
D03*
Y8268D02*
D03*
Y8071D02*
D03*
X7465Y8169D02*
D03*
Y8366D02*
D03*
Y8563D02*
D03*
Y8760D02*
D03*
Y8957D02*
D03*
Y9154D02*
D03*
Y9350D02*
D03*
Y9547D02*
D03*
Y9744D02*
D03*
Y9941D02*
D03*
Y10138D02*
D03*
Y10335D02*
D03*
D23*
X8465Y6181D02*
D03*
D24*
X11496Y6811D02*
D03*
Y5630D02*
D03*
D25*
X13933Y10728D02*
D03*
X14413D02*
D03*
X11473D02*
D03*
X11953D02*
D03*
X10292D02*
D03*
X10771D02*
D03*
D26*
X17028Y10433D02*
D03*
X16437D02*
D03*
D27*
X14291Y8957D02*
X14291Y8957D01*
X14862D01*
X15157Y9744D02*
X15256Y9843D01*
Y11516D01*
X15194Y11577D02*
X15256Y11516D01*
X15194Y11577D02*
Y15613D01*
X14701Y16106D02*
X15194Y15613D01*
X14701Y16106D02*
Y16339D01*
D28*
X14291Y9350D02*
X15748D01*
Y10925D01*
X20374Y15551D01*
Y16240D01*
X19783Y16831D02*
X20374Y16240D01*
X19129Y16831D02*
X19783D01*
X19117Y16843D02*
X19129Y16831D01*
X17205Y16843D02*
X19117D01*
X16701Y16339D02*
X17205Y16843D01*
X11496Y6811D02*
X12526D01*
X12756Y6582D01*
X12096Y6230D02*
X12756D01*
X11496Y5630D02*
X12096Y6230D01*
X16535Y6890D02*
Y7283D01*
X16437Y6791D02*
X16535Y6890D01*
X15768Y7283D02*
X16535D01*
X14291Y8760D02*
X15768Y7283D01*
X14409Y5974D02*
X14467Y6032D01*
X14790D01*
X14409Y5719D02*
X14774D01*
X15846Y6791D01*
X15256Y6498D02*
Y6988D01*
X14790Y6032D02*
X15256Y6498D01*
Y8268D02*
Y8661D01*
X15453Y8858D01*
X16339Y9154D02*
Y9350D01*
X16043Y8858D02*
X16339Y9154D01*
X15453Y8858D02*
X16043D01*
D29*
X16701Y15339D02*
X17701D01*
X15701D02*
X16701D01*
X14413Y10728D02*
X14413Y10728D01*
X14764D01*
X16437Y8071D02*
X16535Y8169D01*
Y8661D01*
X13560Y7420D02*
X14160Y6820D01*
Y6486D02*
Y6820D01*
X13484Y9154D02*
X14173Y9843D01*
X13933Y10728D02*
X14173Y10488D01*
Y9843D02*
Y10488D01*
X9744Y12205D02*
X11909D01*
X12303Y11811D01*
Y11085D02*
Y11811D01*
X12402Y9350D02*
X12677D01*
X12402Y9350D02*
X12402Y9350D01*
X12399Y9353D02*
X12402Y9350D01*
X12399Y9353D02*
Y10990D01*
X12303Y11085D02*
X12399Y10990D01*
X6201Y15748D02*
X9744Y12205D01*
X10827Y11122D02*
X10827D01*
X10236Y11713D02*
X10827Y11122D01*
X8260Y10236D02*
Y10943D01*
Y10913D02*
Y10943D01*
Y10913D02*
X9311Y9862D01*
X17840Y9075D02*
X17894D01*
X16936Y8171D02*
X17840Y9075D01*
X16936Y7537D02*
Y8171D01*
Y7537D02*
X17220Y7254D01*
Y6693D02*
Y7254D01*
X17585Y7285D02*
Y7789D01*
X17520Y7854D02*
X17585Y7789D01*
X16297Y7620D02*
X16594D01*
X16820Y7394D01*
Y6570D02*
Y7394D01*
X17310Y7537D02*
X17402Y7445D01*
Y7203D02*
Y7445D01*
X17185Y7661D02*
Y7815D01*
X17146Y7854D02*
X17185Y7815D01*
X17310Y7537D02*
Y7646D01*
X17295Y7661D02*
X17310Y7646D01*
X17585Y7285D02*
X17650Y7220D01*
X17402Y7203D02*
X17530Y7076D01*
X17185Y7661D02*
X17295D01*
X17894Y9724D02*
X17913Y9744D01*
X17894Y9075D02*
Y9724D01*
X12677Y9547D02*
Y15531D01*
X13976Y16831D01*
X14492D01*
X14495Y16834D01*
X15205D01*
X15701Y16339D01*
X14354Y14992D02*
X14701Y15339D01*
X14354Y11691D02*
Y14992D01*
X10771Y10728D02*
X10827Y10784D01*
Y11122D01*
X9679Y16240D02*
X10346Y15573D01*
X8563Y16240D02*
X9679D01*
X8071Y15748D02*
X8563Y16240D01*
X7360Y15748D02*
X8071D01*
X6852Y10335D02*
Y11191D01*
X5041Y12736D02*
X6852Y10925D01*
X5041Y12736D02*
Y15748D01*
X7150Y6950D02*
X9060D01*
X10880Y5250D02*
X11230Y4900D01*
X8510Y8051D02*
Y8661D01*
X10880Y5250D02*
Y7000D01*
X8134Y8661D02*
X8510D01*
Y8051D02*
X9311D01*
X11885Y7420D02*
X13560D01*
X11555Y8957D02*
Y9640D01*
Y7750D02*
Y8957D01*
X9311D02*
X11555D01*
X13268Y8937D02*
Y9370D01*
Y8937D02*
X13484Y8720D01*
X12650Y5290D02*
Y5719D01*
X10290Y10350D02*
Y10728D01*
X6852Y10335D02*
X7220D01*
X6470Y5970D02*
Y9585D01*
X9311Y8051D02*
X9829D01*
X10880Y7000D01*
X11230Y4900D02*
X15427D01*
X17220Y6693D01*
X17530Y6220D02*
Y7076D01*
X17283Y5973D02*
X17530Y6220D01*
X17283Y5512D02*
Y5973D01*
X17146Y9075D02*
Y9690D01*
X17028Y9808D02*
X17146Y9690D01*
X17028Y9808D02*
Y10433D01*
X17756Y5512D02*
Y6070D01*
X17820Y6134D01*
Y6693D01*
X11555Y9640D02*
X11953Y10037D01*
Y10728D01*
X12756Y6486D02*
Y6582D01*
X7890Y8661D02*
X8134D01*
X7890D02*
Y9646D01*
X8134D01*
X11473Y10350D02*
Y10728D01*
X10290D02*
X10292D01*
X14291Y9547D02*
X14300D01*
X14413Y9660D01*
Y10728D01*
X6850Y7769D02*
X7250Y8169D01*
X6850Y7040D02*
X7370Y6520D01*
Y5709D02*
Y6520D01*
X7086Y5709D02*
X7370D01*
X9311Y9862D02*
X10000D01*
X10292Y10154D01*
X13484Y9154D02*
X13701Y8937D01*
X13484Y9154D02*
Y9154D01*
X13933Y11270D02*
X14354Y11691D01*
X13933Y10728D02*
Y11270D01*
X12756Y5974D02*
X13384D01*
X13580Y6170D01*
X11555Y7750D02*
X11885Y7420D01*
X14160Y6486D02*
X14409D01*
X13484Y8346D02*
Y8720D01*
X6852Y11191D02*
X8012D01*
X8260Y10943D01*
X8134Y10236D02*
X8260D01*
X19328Y8858D02*
X22736D01*
X18760Y8290D02*
X19328Y8858D01*
X17520Y8290D02*
X18760D01*
X17520Y7854D02*
Y8290D01*
X17650Y7220D02*
X18000D01*
X18250Y6970D01*
Y5390D02*
Y6970D01*
X17570Y4710D02*
X18250Y5390D01*
X10350Y4710D02*
X17570D01*
X9060Y6000D02*
X10350Y4710D01*
X9060Y6000D02*
Y6950D01*
X6850Y7250D02*
X7150Y6950D01*
X7250Y8169D02*
X7465D01*
X20825Y4758D02*
X22136D01*
X17894Y7690D02*
X20825Y4758D01*
X17894Y7690D02*
Y7854D01*
X7000Y9744D02*
X7465D01*
X6660Y9404D02*
X7000Y9744D01*
X6660Y6299D02*
Y9404D01*
Y6299D02*
X7086D01*
X6470Y9585D02*
X7220Y10335D01*
X6470Y5970D02*
X6731Y5709D01*
X7086D01*
X12861Y8530D02*
X13268Y8937D01*
X12350Y8530D02*
X12861D01*
X12216Y8664D02*
X12350Y8530D01*
X12216Y8664D02*
Y10914D01*
X12000Y11130D02*
X12216Y10914D01*
X11750Y11130D02*
X12000D01*
X11473Y10853D02*
X11750Y11130D01*
X11473Y10728D02*
Y10853D01*
X7465Y8760D02*
X7750D01*
X7848Y8661D01*
X15846Y8071D02*
X16297Y7620D01*
X15770Y5520D02*
X16820Y6570D01*
X13970Y5520D02*
X15770D01*
X13970D02*
Y6230D01*
X14409D01*
X7465Y9744D02*
X7740D01*
X7838Y9646D01*
X22136Y12958D02*
X24340Y10754D01*
Y6962D02*
Y10754D01*
X22136Y4758D02*
X24340Y6962D01*
X12650Y5719D02*
X12756D01*
X16437Y10077D02*
Y10433D01*
X7848Y8661D02*
X7890D01*
X7838Y9646D02*
X7890D01*
X6731Y5709D02*
X6890D01*
X6850Y7040D02*
Y7250D01*
Y7769D01*
X7220Y10335D02*
X7465D01*
X10292Y10154D02*
Y10350D01*
Y10728D01*
X10290Y10350D02*
X10292D01*
X11473D01*
X8563Y6950D02*
Y7642D01*
X8134Y8071D02*
X8563Y7642D01*
D30*
X18701Y16339D02*
D03*
D31*
Y15339D02*
D03*
X17701Y16339D02*
D03*
Y15339D02*
D03*
X16701Y16339D02*
D03*
Y15339D02*
D03*
X15701Y16339D02*
D03*
Y15339D02*
D03*
X14701Y16339D02*
D03*
Y15339D02*
D03*
D32*
X22136Y12958D02*
D03*
X23336D02*
D03*
Y4758D02*
D03*
X22136D02*
D03*
D33*
X7382Y10780D02*
D03*
Y7528D02*
D03*
X5039Y10921D02*
D03*
Y7386D02*
D03*
D34*
X7360Y15748D02*
D03*
X6201D02*
D03*
X5041D02*
D03*
D35*
X9366Y15563D02*
D03*
X10346Y15573D02*
D03*
X11326D02*
D03*
D36*
X14862Y8957D02*
D03*
X15157Y9744D02*
D03*
X14764Y10728D02*
D03*
X16535Y8661D02*
D03*
X13780Y7185D02*
D03*
X10236Y11713D02*
D03*
X17913Y9744D02*
D03*
X16535Y7283D02*
D03*
X15256Y6988D02*
D03*
Y8268D02*
D03*
X13580Y6170D02*
D03*
X12650Y5290D02*
D03*
X16437Y10077D02*
D03*
D37*
X5118Y5118D02*
D03*
X26378Y16535D02*
D03*
D38*
X13268Y9370D02*
D03*
X13701D02*
D03*
X13268Y8937D02*
D03*
X13701D02*
D03*
M02*
