G04 Layer_Color=8150272*
%FSLAX24Y24*%
%MOIN*%
G70*
G01*
G75*
%ADD60R,0.0789X0.0789*%
%ADD61C,0.0789*%
%ADD62C,0.0980*%
%ADD63O,0.0631X0.0395*%
%ADD64C,0.0080*%
%ADD65R,0.0966X0.0966*%
%ADD66C,0.0552*%
%ADD67C,0.0356*%
%ADD68C,0.1458*%
%ADD69C,0.0277*%
G36*
X24413Y9146D02*
X24417Y9128D01*
X24421Y9113D01*
X24424Y9095D01*
X24428Y9088D01*
X24432Y9084D01*
X24439Y9080D01*
X24446D01*
X24468Y9073D01*
X24486Y9070D01*
X24508D01*
X24523Y9066D01*
X24537D01*
X24545Y9062D01*
X24548D01*
X24545Y9059D01*
X24541Y9055D01*
X24523Y9040D01*
X24508Y9029D01*
X24501Y9026D01*
X24464Y9004D01*
X24450Y8993D01*
X24446Y8989D01*
X24453Y8975D01*
X24457Y8957D01*
X24461Y8938D01*
X24464Y8935D01*
Y8931D01*
X24468Y8913D01*
X24472Y8902D01*
Y8887D01*
Y8880D01*
X24468Y8884D01*
X24461Y8887D01*
X24439Y8902D01*
X24421Y8916D01*
X24417Y8924D01*
X24413D01*
X24377Y8957D01*
X24289Y8898D01*
X24282Y8895D01*
X24275D01*
Y8898D01*
Y8906D01*
X24282Y8924D01*
X24289Y8946D01*
X24293Y8949D01*
Y8953D01*
X24315Y9011D01*
X24220Y9099D01*
X24348Y9095D01*
X24373Y9153D01*
X24381Y9168D01*
X24388Y9179D01*
X24395Y9193D01*
X24399Y9197D01*
X24413Y9146D01*
D02*
G37*
G36*
X25729Y9379D02*
X25737Y9368D01*
X25744Y9361D01*
X25747Y9358D01*
X25751Y9354D01*
X25798D01*
X25795Y9350D01*
X25788Y9343D01*
X25784Y9339D01*
X25780Y9336D01*
X25769Y9325D01*
X25766Y9321D01*
X25762Y9314D01*
Y9306D01*
Y9299D01*
X25766Y9292D01*
Y9288D01*
X25769Y9277D01*
Y9270D01*
X25766Y9266D01*
X25762D01*
X25751Y9274D01*
X25744Y9277D01*
X25729Y9285D01*
X25718D01*
X25715Y9281D01*
X25707Y9277D01*
Y9274D01*
X25696Y9263D01*
X25685Y9259D01*
X25682D01*
X25678Y9263D01*
X25682Y9274D01*
Y9281D01*
X25685Y9296D01*
Y9306D01*
Y9310D01*
X25642Y9339D01*
X25667Y9350D01*
X25689Y9358D01*
X25700Y9368D01*
X25707Y9379D01*
X25711Y9383D01*
X25718Y9409D01*
X25729Y9379D01*
D02*
G37*
G36*
X24865Y9073D02*
X24873Y9062D01*
X24880Y9048D01*
X24884Y9044D01*
Y9040D01*
X24898Y8993D01*
X25008Y9004D01*
X24927Y8931D01*
X24942Y8891D01*
X24949Y8869D01*
X24953Y8855D01*
X24956Y8851D01*
Y8847D01*
X24949D01*
X24935Y8855D01*
X24924Y8862D01*
X24916Y8865D01*
X24876Y8891D01*
X24854Y8876D01*
X24847Y8869D01*
X24840Y8865D01*
Y8862D01*
X24825Y8851D01*
X24814Y8840D01*
X24800Y8833D01*
X24792D01*
X24814Y8920D01*
X24807Y8931D01*
X24792Y8942D01*
X24782Y8953D01*
X24774Y8957D01*
X24730Y8982D01*
X24778Y8989D01*
X24803Y8993D01*
X24818D01*
X24825Y8997D01*
X24829D01*
X24833Y9008D01*
X24840Y9022D01*
X24843Y9033D01*
Y9040D01*
X24847Y9055D01*
Y9062D01*
X24854Y9077D01*
X24858Y9080D01*
X24862D01*
X24865Y9073D01*
D02*
G37*
G36*
X25339Y9314D02*
X25347Y9303D01*
X25350Y9292D01*
X25354Y9285D01*
X25372Y9234D01*
X25481Y9245D01*
X25449Y9212D01*
X25430Y9193D01*
X25416Y9186D01*
X25412Y9183D01*
X25408D01*
X25405Y9179D01*
Y9172D01*
X25412Y9150D01*
X25419Y9124D01*
X25423Y9117D01*
Y9113D01*
X25441Y9070D01*
X25427Y9077D01*
X25412Y9088D01*
X25398Y9095D01*
X25383Y9102D01*
X25379Y9106D01*
X25350Y9124D01*
X25328Y9110D01*
X25317Y9102D01*
X25314Y9099D01*
X25310Y9095D01*
X25285Y9077D01*
X25270Y9070D01*
X25263Y9066D01*
Y9073D01*
X25266Y9088D01*
X25270Y9102D01*
X25274Y9110D01*
X25277Y9135D01*
X25281Y9153D01*
X25277Y9161D01*
Y9164D01*
X25266Y9175D01*
X25248Y9190D01*
X25234Y9197D01*
X25226Y9201D01*
X25212Y9208D01*
X25208Y9215D01*
Y9219D01*
X25212Y9223D01*
X25230D01*
X25259Y9226D01*
X25281Y9230D01*
X25292Y9234D01*
X25295D01*
X25306Y9245D01*
X25310Y9259D01*
X25317Y9270D01*
Y9274D01*
X25321Y9288D01*
X25325Y9299D01*
X25332Y9314D01*
X25336Y9317D01*
X25339Y9314D01*
D02*
G37*
G36*
X24388Y9696D02*
X24392Y9686D01*
X24395Y9675D01*
Y9671D01*
X24399Y9653D01*
X24402Y9642D01*
X24406Y9635D01*
X24410Y9631D01*
X24421Y9627D01*
X24435Y9624D01*
X24446Y9620D01*
X24453D01*
X24490Y9616D01*
X24417Y9576D01*
X24424Y9540D01*
X24428Y9522D01*
Y9507D01*
X24432Y9500D01*
Y9496D01*
Y9492D01*
X24424Y9496D01*
X24417Y9500D01*
X24413Y9503D01*
X24395Y9522D01*
X24381Y9529D01*
X24377Y9532D01*
X24359D01*
X24344Y9525D01*
X24333Y9522D01*
X24330Y9518D01*
X24311Y9511D01*
X24300Y9507D01*
X24297D01*
Y9514D01*
X24300Y9525D01*
X24304Y9536D01*
X24308Y9540D01*
X24326Y9580D01*
X24260Y9638D01*
X24348Y9627D01*
X24362Y9667D01*
X24373Y9686D01*
X24377Y9696D01*
X24384Y9700D01*
X24388Y9696D01*
D02*
G37*
G36*
X25868Y9871D02*
Y9868D01*
X25871Y9853D01*
X25875Y9839D01*
X25879Y9828D01*
X25882Y9820D01*
X25897Y9788D01*
X25995D01*
X25926Y9718D01*
X25959Y9631D01*
X25952Y9635D01*
X25937Y9642D01*
X25926Y9649D01*
X25919Y9653D01*
X25875Y9682D01*
X25857Y9667D01*
X25850Y9660D01*
X25842Y9653D01*
Y9649D01*
X25820Y9635D01*
X25809Y9627D01*
X25802Y9624D01*
X25798Y9627D01*
Y9642D01*
X25802Y9653D01*
Y9656D01*
X25817Y9707D01*
X25809Y9718D01*
X25798Y9729D01*
X25784Y9737D01*
X25780Y9740D01*
X25769Y9748D01*
X25758Y9755D01*
X25751Y9762D01*
X25747Y9766D01*
X25755Y9769D01*
X25769Y9773D01*
X25780Y9777D01*
X25788D01*
X25835Y9784D01*
X25846Y9824D01*
X25850Y9842D01*
X25857Y9857D01*
X25860Y9864D01*
Y9868D01*
X25864Y9875D01*
X25868D01*
Y9871D01*
D02*
G37*
G36*
X24814Y9430D02*
X24924Y9434D01*
X24840Y9365D01*
X24858Y9317D01*
X24869Y9296D01*
X24873Y9285D01*
Y9277D01*
X24862D01*
X24851Y9285D01*
X24836Y9288D01*
X24833Y9292D01*
X24811Y9303D01*
X24800Y9310D01*
X24792D01*
X24782Y9306D01*
X24767Y9299D01*
X24752Y9288D01*
X24749Y9285D01*
X24730Y9270D01*
X24720Y9263D01*
X24712Y9259D01*
X24709Y9266D01*
X24712Y9277D01*
X24716Y9288D01*
Y9296D01*
X24723Y9321D01*
Y9339D01*
Y9347D01*
Y9350D01*
X24716Y9365D01*
X24705Y9376D01*
X24690Y9383D01*
X24687Y9387D01*
X24669Y9398D01*
X24658Y9405D01*
X24654Y9412D01*
Y9416D01*
X24661D01*
X24676Y9419D01*
X24745D01*
X24778Y9525D01*
X24814Y9430D01*
D02*
G37*
G36*
X23954Y9467D02*
X23958Y9452D01*
X23961Y9441D01*
X23965Y9434D01*
X23969D01*
X23980Y9430D01*
X23994Y9427D01*
X24016D01*
X24020Y9423D01*
Y9419D01*
X24012D01*
X24005Y9412D01*
X23998Y9409D01*
X23987Y9401D01*
X23980Y9390D01*
X23976Y9387D01*
Y9383D01*
X23972Y9372D01*
X23976Y9361D01*
X23980Y9354D01*
Y9350D01*
X23983Y9339D01*
Y9336D01*
X23972D01*
X23961Y9347D01*
X23958Y9350D01*
X23936Y9368D01*
X23907Y9354D01*
X23892Y9347D01*
X23885Y9343D01*
X23881D01*
X23878Y9347D01*
X23881Y9354D01*
X23885Y9361D01*
X23892Y9376D01*
X23896Y9383D01*
Y9390D01*
X23892Y9398D01*
X23885Y9405D01*
X23881Y9412D01*
X23878D01*
X23867Y9423D01*
X23863Y9427D01*
X23867Y9430D01*
X23870Y9434D01*
X23914D01*
X23921Y9441D01*
X23929Y9452D01*
X23932Y9463D01*
X23936Y9467D01*
X23950Y9500D01*
X23954Y9467D01*
D02*
G37*
G36*
X24162Y8246D02*
X24213D01*
X24224Y8242D01*
X24227Y8238D01*
X24224Y8235D01*
X24217Y8228D01*
X24213Y8224D01*
X24209Y8220D01*
X24195Y8213D01*
X24187Y8202D01*
X24184Y8198D01*
Y8195D01*
Y8180D01*
Y8166D01*
X24187Y8155D01*
Y8147D01*
X24191Y8136D01*
Y8129D01*
X24187Y8126D01*
X24184Y8129D01*
X24180Y8133D01*
X24155Y8151D01*
X24140Y8158D01*
X24133Y8162D01*
X24114D01*
X24100Y8155D01*
X24089Y8151D01*
X24085Y8147D01*
X24067Y8136D01*
X24060Y8133D01*
X24056D01*
X24082Y8202D01*
X24023Y8253D01*
X24107D01*
X24122Y8290D01*
X24133Y8308D01*
X24140Y8315D01*
X24144Y8319D01*
X24162Y8246D01*
D02*
G37*
G36*
X23418Y8311D02*
X23426Y8290D01*
X23429Y8279D01*
X23433Y8271D01*
X23437Y8268D01*
X23447Y8264D01*
X23458Y8260D01*
X23488D01*
X23495Y8257D01*
Y8253D01*
X23491Y8249D01*
X23477Y8238D01*
X23473Y8235D01*
X23469D01*
X23451Y8224D01*
X23444Y8213D01*
Y8206D01*
Y8202D01*
X23451Y8180D01*
X23455Y8169D01*
Y8166D01*
X23458Y8140D01*
X23396Y8187D01*
X23367Y8169D01*
X23353Y8158D01*
X23342Y8155D01*
X23338Y8151D01*
X23334Y8158D01*
X23338Y8169D01*
X23342Y8180D01*
X23345Y8184D01*
X23360Y8224D01*
X23298Y8275D01*
X23378D01*
X23407Y8348D01*
X23418Y8311D01*
D02*
G37*
G36*
X26524Y9424D02*
X26539Y9423D01*
X26551D01*
X26562Y9422D01*
X26570Y9421D01*
X26574Y9420D01*
X26576D01*
X26608Y9413D01*
X26638Y9406D01*
X26668Y9396D01*
X26696Y9386D01*
X26723Y9374D01*
X26748Y9362D01*
X26771Y9350D01*
X26793Y9338D01*
X26811Y9326D01*
X26829Y9315D01*
X26843Y9304D01*
X26855Y9295D01*
X26865Y9287D01*
X26872Y9282D01*
X26877Y9278D01*
X26878Y9277D01*
X26901Y9255D01*
X26922Y9232D01*
X26941Y9208D01*
X26959Y9185D01*
X26974Y9161D01*
X26989Y9137D01*
X27001Y9114D01*
X27012Y9092D01*
X27022Y9071D01*
X27031Y9052D01*
X27037Y9035D01*
X27043Y9021D01*
X27047Y9009D01*
X27051Y9000D01*
X27052Y8995D01*
X27053Y8992D01*
X27058Y8969D01*
X27060Y8960D01*
X27061Y8951D01*
X27063Y8943D01*
X27064Y8938D01*
Y8934D01*
Y8933D01*
X27065Y8922D01*
Y8909D01*
X27066Y8894D01*
Y8881D01*
X27067Y8868D01*
Y8857D01*
Y8852D01*
Y8849D01*
Y8848D01*
Y8847D01*
Y8826D01*
Y8808D01*
X27066Y8793D01*
Y8781D01*
Y8773D01*
X27065Y8766D01*
Y8762D01*
Y8761D01*
X27061Y8741D01*
X27059Y8731D01*
X27058Y8722D01*
X27056Y8715D01*
X27055Y8709D01*
X27054Y8705D01*
Y8704D01*
X27044Y8672D01*
X27032Y8643D01*
X27020Y8614D01*
X27007Y8587D01*
X26993Y8562D01*
X26978Y8539D01*
X26964Y8517D01*
X26950Y8497D01*
X26937Y8480D01*
X26924Y8464D01*
X26913Y8451D01*
X26903Y8440D01*
X26895Y8432D01*
X26889Y8425D01*
X26884Y8421D01*
X26883Y8420D01*
X26859Y8400D01*
X26835Y8381D01*
X26810Y8365D01*
X26786Y8350D01*
X26761Y8337D01*
X26736Y8325D01*
X26713Y8314D01*
X26690Y8305D01*
X26669Y8297D01*
X26649Y8291D01*
X26632Y8285D01*
X26617Y8281D01*
X26605Y8278D01*
X26596Y8276D01*
X26590Y8274D01*
X26588D01*
X26573Y8272D01*
X26555Y8271D01*
X26540Y8269D01*
X26525D01*
X26511Y8268D01*
X26470D01*
X26452Y8269D01*
X26434Y8270D01*
X26420Y8272D01*
X26408Y8273D01*
X26399Y8274D01*
X26394Y8275D01*
X26391D01*
X26378Y8278D01*
X26367Y8279D01*
X26363Y8280D01*
X26360Y8281D01*
X26358D01*
X26353Y8282D01*
X26349Y8283D01*
X26344Y8284D01*
X26341Y8285D01*
Y8286D01*
X26344Y8287D01*
X26348Y8288D01*
X26350D01*
X26354Y8290D01*
X26361Y8292D01*
X26376Y8296D01*
X26383Y8297D01*
X26389Y8299D01*
X26394Y8301D01*
X26395D01*
X26417Y8306D01*
X26438Y8314D01*
X26459Y8322D01*
X26478Y8331D01*
X26494Y8339D01*
X26506Y8345D01*
X26511Y8349D01*
X26514Y8351D01*
X26516Y8352D01*
X26517D01*
X26540Y8366D01*
X26560Y8381D01*
X26577Y8396D01*
X26593Y8409D01*
X26605Y8420D01*
X26612Y8428D01*
X26618Y8434D01*
X26620Y8436D01*
X26632Y8451D01*
X26643Y8466D01*
X26653Y8479D01*
X26660Y8491D01*
X26667Y8502D01*
X26671Y8509D01*
X26675Y8514D01*
X26676Y8516D01*
X26690Y8546D01*
X26696Y8562D01*
X26702Y8576D01*
X26706Y8588D01*
X26708Y8597D01*
X26711Y8603D01*
X26712Y8605D01*
X26717Y8625D01*
X26719Y8634D01*
X26720Y8640D01*
X26723Y8647D01*
Y8651D01*
X26724Y8655D01*
Y8656D01*
X26725Y8666D01*
Y8676D01*
X26726Y8698D01*
Y8708D01*
Y8716D01*
Y8721D01*
Y8723D01*
Y8745D01*
X26725Y8766D01*
X26724Y8784D01*
X26723Y8798D01*
X26720Y8810D01*
X26719Y8819D01*
X26718Y8824D01*
Y8826D01*
X26714Y8842D01*
X26708Y8858D01*
X26703Y8873D01*
X26696Y8887D01*
X26691Y8901D01*
X26687Y8910D01*
X26683Y8917D01*
X26682Y8918D01*
Y8919D01*
X26663Y8955D01*
X26641Y8987D01*
X26630Y9001D01*
X26618Y9015D01*
X26607Y9027D01*
X26597Y9038D01*
X26586Y9048D01*
X26577Y9057D01*
X26569Y9065D01*
X26562Y9071D01*
X26555Y9075D01*
X26551Y9079D01*
X26549Y9081D01*
X26548Y9082D01*
X26531Y9093D01*
X26515Y9104D01*
X26481Y9121D01*
X26447Y9136D01*
X26417Y9145D01*
X26402Y9150D01*
X26390Y9153D01*
X26378Y9156D01*
X26369Y9159D01*
X26361Y9160D01*
X26355Y9161D01*
X26351Y9162D01*
X26350D01*
X26329Y9164D01*
X26308Y9166D01*
X26268D01*
X26232Y9162D01*
X26214Y9160D01*
X26199Y9157D01*
X26185Y9154D01*
X26172Y9151D01*
X26160Y9148D01*
X26151Y9145D01*
X26143Y9142D01*
X26137Y9141D01*
X26134Y9139D01*
X26132D01*
X26113Y9131D01*
X26094Y9121D01*
X26060Y9102D01*
X26029Y9081D01*
X26015Y9070D01*
X26002Y9060D01*
X25990Y9050D01*
X25980Y9040D01*
X25972Y9033D01*
X25964Y9025D01*
X25959Y9020D01*
X25954Y9015D01*
X25952Y9012D01*
X25951Y9011D01*
X25931Y8989D01*
X25927Y8984D01*
X25925Y8981D01*
X25924Y8980D01*
X25937Y9023D01*
X25946Y9047D01*
X25954Y9069D01*
X25963Y9089D01*
X25972Y9106D01*
X25978Y9120D01*
X25985Y9131D01*
X25987Y9136D01*
X25989Y9139D01*
X25990Y9140D01*
Y9141D01*
X26002Y9161D01*
X26015Y9180D01*
X26029Y9198D01*
X26041Y9213D01*
X26052Y9226D01*
X26060Y9236D01*
X26066Y9243D01*
X26067Y9245D01*
X26068D01*
X26088Y9263D01*
X26107Y9282D01*
X26128Y9297D01*
X26148Y9313D01*
X26167Y9327D01*
X26187Y9339D01*
X26206Y9350D01*
X26223Y9360D01*
X26240Y9368D01*
X26255Y9376D01*
X26268Y9381D01*
X26280Y9387D01*
X26289Y9391D01*
X26296Y9394D01*
X26301Y9396D01*
X26302D01*
X26326Y9403D01*
X26351Y9410D01*
X26375Y9415D01*
X26399Y9419D01*
X26446Y9423D01*
X26467Y9424D01*
X26488Y9425D01*
X26506D01*
X26524Y9424D01*
D02*
G37*
G36*
X24607Y8184D02*
X24687Y8195D01*
X24621Y8140D01*
X24636Y8111D01*
X24643Y8093D01*
X24647Y8082D01*
Y8074D01*
X24639D01*
X24632Y8078D01*
X24621Y8082D01*
X24618Y8085D01*
X24585Y8107D01*
X24570Y8096D01*
X24563Y8089D01*
X24559Y8085D01*
Y8082D01*
X24541Y8071D01*
X24530Y8067D01*
X24526Y8064D01*
Y8071D01*
X24530Y8082D01*
X24534Y8093D01*
Y8096D01*
X24537Y8115D01*
Y8126D01*
Y8133D01*
X24530Y8140D01*
X24519Y8151D01*
X24512Y8155D01*
X24508Y8158D01*
X24475Y8177D01*
X24512Y8180D01*
X24530Y8184D01*
X24541D01*
X24548Y8187D01*
X24552Y8198D01*
X24559Y8209D01*
X24563Y8224D01*
X24566Y8228D01*
X24574Y8257D01*
X24607Y8184D01*
D02*
G37*
G36*
X23790Y8698D02*
X23794Y8690D01*
X23797Y8672D01*
X23801Y8654D01*
X23805Y8650D01*
Y8647D01*
X23808Y8632D01*
X23816Y8625D01*
X23819Y8618D01*
X23827Y8614D01*
X23837Y8610D01*
X23878D01*
X23888Y8607D01*
X23892D01*
X23914Y8599D01*
X23881Y8581D01*
X23856Y8567D01*
X23845Y8556D01*
X23837Y8552D01*
Y8548D01*
X23834Y8541D01*
Y8526D01*
X23837Y8516D01*
Y8512D01*
X23841Y8494D01*
X23845Y8479D01*
X23848Y8472D01*
Y8468D01*
X23852Y8461D01*
X23848Y8457D01*
X23841Y8461D01*
X23830Y8468D01*
X23812Y8479D01*
X23808Y8483D01*
X23805Y8486D01*
X23772Y8519D01*
X23728Y8490D01*
X23706Y8475D01*
X23695Y8468D01*
X23692D01*
Y8472D01*
Y8479D01*
X23699Y8501D01*
X23703Y8519D01*
X23706Y8523D01*
Y8526D01*
X23721Y8559D01*
X23648Y8629D01*
X23746Y8625D01*
X23768Y8669D01*
X23772Y8680D01*
X23779Y8690D01*
X23783Y8698D01*
X23790Y8701D01*
Y8698D01*
D02*
G37*
G36*
X25543Y8916D02*
X25547Y8906D01*
X25554Y8898D01*
X25558Y8891D01*
X25565Y8887D01*
X25620D01*
X25591Y8869D01*
X25583Y8862D01*
X25576Y8855D01*
Y8851D01*
Y8844D01*
X25580Y8833D01*
X25583Y8825D01*
Y8822D01*
X25587Y8807D01*
X25591Y8800D01*
Y8793D01*
X25587Y8796D01*
X25580Y8800D01*
X25572Y8803D01*
X25569D01*
X25554Y8811D01*
X25547Y8818D01*
X25540D01*
X25529Y8814D01*
X25525Y8811D01*
X25514Y8800D01*
X25503Y8796D01*
X25500D01*
X25496Y8800D01*
X25500Y8811D01*
Y8818D01*
Y8833D01*
Y8840D01*
Y8847D01*
X25485Y8858D01*
X25481Y8865D01*
X25478D01*
X25452Y8876D01*
X25481Y8880D01*
X25496Y8884D01*
X25503D01*
X25511Y8887D01*
X25514Y8895D01*
X25518Y8902D01*
X25521Y8909D01*
Y8913D01*
X25529Y8946D01*
X25543Y8916D01*
D02*
G37*
G36*
X25051Y8373D02*
X25055Y8362D01*
X25059Y8351D01*
Y8348D01*
X25062Y8333D01*
X25066Y8322D01*
X25069Y8315D01*
X25073Y8311D01*
X25095D01*
X25113Y8308D01*
X25124Y8304D01*
Y8297D01*
Y8293D01*
X25113Y8279D01*
X25110Y8275D01*
X25106D01*
X25091Y8264D01*
X25084Y8257D01*
Y8249D01*
Y8246D01*
Y8235D01*
Y8224D01*
X25088Y8217D01*
Y8213D01*
X25091Y8198D01*
Y8191D01*
Y8187D01*
X25084Y8191D01*
X25073Y8202D01*
X25062Y8209D01*
X25059Y8213D01*
X25033Y8235D01*
X25004Y8217D01*
X24986Y8206D01*
X24975Y8198D01*
X24967D01*
Y8206D01*
X24975Y8217D01*
X24978Y8228D01*
X24982Y8231D01*
X24997Y8264D01*
X24935Y8322D01*
X25018Y8319D01*
X25029Y8351D01*
X25037Y8366D01*
X25044Y8373D01*
X25048Y8377D01*
X25051Y8373D01*
D02*
G37*
G36*
X24672Y8701D02*
X24683Y8683D01*
X24687Y8676D01*
Y8672D01*
X24698Y8636D01*
X24796Y8647D01*
X24760Y8618D01*
X24741Y8599D01*
X24734Y8588D01*
X24730Y8581D01*
Y8577D01*
Y8567D01*
X24734Y8548D01*
X24738Y8537D01*
X24741Y8530D01*
X24756Y8490D01*
X24701Y8530D01*
X24690Y8537D01*
X24676D01*
X24665Y8534D01*
X24654Y8526D01*
X24643Y8519D01*
X24639Y8516D01*
X24625Y8497D01*
X24614Y8490D01*
X24610Y8486D01*
X24607Y8490D01*
X24610Y8505D01*
X24614Y8516D01*
Y8519D01*
X24618Y8541D01*
X24621Y8552D01*
Y8559D01*
Y8563D01*
X24614Y8574D01*
X24603Y8588D01*
X24588Y8596D01*
X24585Y8599D01*
X24541Y8625D01*
X24585Y8629D01*
X24607Y8632D01*
X24621Y8636D01*
X24628Y8639D01*
X24632D01*
X24639Y8650D01*
X24643Y8661D01*
X24647Y8676D01*
X24650Y8680D01*
X24658Y8698D01*
X24661Y8709D01*
X24669D01*
X24672Y8701D01*
D02*
G37*
G36*
X25376Y10586D02*
X25379Y10568D01*
X25383Y10553D01*
X25394Y10531D01*
X25398Y10524D01*
X25401Y10520D01*
X25416Y10513D01*
X25434Y10509D01*
X25507D01*
X25518Y10506D01*
X25521D01*
X25532Y10502D01*
Y10498D01*
Y10495D01*
Y10491D01*
X25521Y10484D01*
X25503Y10473D01*
X25489Y10466D01*
X25481Y10462D01*
X25419Y10422D01*
Y10418D01*
Y10407D01*
Y10400D01*
Y10396D01*
X25423Y10378D01*
X25427Y10364D01*
X25430Y10349D01*
Y10345D01*
X25441Y10302D01*
Y10287D01*
Y10280D01*
Y10276D01*
X25438Y10280D01*
X25430Y10287D01*
X25423Y10294D01*
X25419Y10298D01*
X25332Y10367D01*
X25226Y10312D01*
X25219Y10305D01*
X25212Y10302D01*
Y10305D01*
Y10312D01*
X25215Y10320D01*
Y10323D01*
X25259Y10433D01*
X25146Y10535D01*
X25299Y10524D01*
X25347Y10641D01*
X25357Y10659D01*
X25376Y10586D01*
D02*
G37*
G36*
X25215Y10859D02*
X25223Y10852D01*
X25226Y10848D01*
Y10845D01*
X25237Y10830D01*
X25241Y10823D01*
X25285D01*
X25288Y10819D01*
X25285Y10812D01*
X25277Y10801D01*
X25270Y10797D01*
X25263Y10790D01*
X25259Y10783D01*
Y10779D01*
Y10772D01*
Y10764D01*
X25263Y10757D01*
Y10754D01*
X25266Y10743D01*
Y10735D01*
Y10732D01*
X25263D01*
X25255Y10735D01*
X25252Y10739D01*
X25248D01*
X25237Y10746D01*
X25215D01*
X25208Y10743D01*
X25204Y10739D01*
X25201Y10735D01*
X25175Y10721D01*
Y10724D01*
Y10732D01*
Y10739D01*
Y10743D01*
Y10757D01*
Y10768D01*
Y10775D01*
X25172Y10783D01*
X25164Y10786D01*
X25161Y10790D01*
X25157D01*
X25146Y10801D01*
X25142Y10808D01*
X25146Y10812D01*
X25150Y10816D01*
X25182D01*
X25190Y10819D01*
X25197D01*
X25201Y10834D01*
Y10837D01*
Y10841D01*
X25204Y10856D01*
X25208Y10863D01*
X25212D01*
X25215Y10859D01*
D02*
G37*
G36*
X26250Y10455D02*
X26254Y10440D01*
X26258Y10433D01*
X26261Y10425D01*
X26269Y10422D01*
X26280Y10418D01*
X26291D01*
X26393Y10404D01*
X26283Y10338D01*
Y10334D01*
Y10323D01*
X26287Y10302D01*
X26291Y10283D01*
X26294Y10276D01*
Y10272D01*
X26298Y10254D01*
X26301Y10240D01*
Y10221D01*
Y10214D01*
Y10210D01*
X26291Y10218D01*
X26280Y10229D01*
X26265Y10240D01*
X26261Y10243D01*
X26240Y10261D01*
X26225Y10272D01*
X26218Y10276D01*
X26199D01*
X26178Y10269D01*
X26159Y10258D01*
X26156Y10254D01*
X26152D01*
X26134Y10247D01*
X26123Y10240D01*
X26105Y10232D01*
X26097Y10229D01*
Y10232D01*
Y10240D01*
X26101Y10243D01*
Y10247D01*
X26141Y10349D01*
X26039Y10440D01*
X26156Y10433D01*
X26163D01*
X26167Y10436D01*
X26170Y10440D01*
X26174D01*
X26181Y10455D01*
X26188Y10469D01*
X26192Y10484D01*
X26196Y10487D01*
X26225Y10549D01*
X26250Y10455D01*
D02*
G37*
G36*
X26735Y10622D02*
X26804D01*
X26801Y10615D01*
X26794Y10608D01*
X26786Y10597D01*
X26783Y10593D01*
X26757Y10571D01*
X26779Y10506D01*
X26772Y10509D01*
X26761Y10513D01*
X26746Y10517D01*
X26743Y10520D01*
X26713Y10538D01*
X26699Y10528D01*
X26692Y10524D01*
X26688Y10520D01*
Y10517D01*
X26673Y10506D01*
X26666Y10498D01*
X26655D01*
Y10502D01*
Y10506D01*
X26659Y10517D01*
X26662Y10528D01*
X26666Y10538D01*
Y10542D01*
Y10553D01*
Y10560D01*
Y10568D01*
X26659Y10575D01*
X26648Y10582D01*
X26637Y10586D01*
X26633Y10590D01*
X26604Y10611D01*
X26640Y10619D01*
X26659Y10622D01*
X26670D01*
X26677Y10626D01*
X26681D01*
X26684Y10633D01*
X26688Y10644D01*
X26692Y10655D01*
Y10659D01*
X26702Y10692D01*
X26735Y10622D01*
D02*
G37*
G36*
X26466Y10925D02*
X26575Y10910D01*
X26637Y10899D01*
X26568Y10859D01*
X26546Y10845D01*
X26531Y10834D01*
X26520Y10826D01*
X26517Y10823D01*
X26502Y10816D01*
X26498Y10808D01*
X26495Y10805D01*
Y10797D01*
X26498Y10786D01*
X26502Y10764D01*
X26506Y10743D01*
X26509Y10735D01*
Y10732D01*
X26513Y10713D01*
X26517Y10695D01*
X26524Y10673D01*
X26527Y10659D01*
Y10655D01*
Y10648D01*
X26520D01*
X26506Y10662D01*
X26484Y10681D01*
X26466Y10695D01*
X26462Y10703D01*
X26458D01*
X26411Y10739D01*
X26400Y10746D01*
X26396Y10754D01*
X26393D01*
X26272Y10681D01*
X26261Y10673D01*
X26258Y10670D01*
X26254D01*
Y10673D01*
Y10681D01*
X26258Y10688D01*
Y10692D01*
X26312Y10830D01*
X26250Y10885D01*
X26232Y10899D01*
X26218Y10914D01*
X26210Y10921D01*
X26203Y10929D01*
X26199Y10939D01*
X26203Y10943D01*
X26258D01*
X26272Y10939D01*
X26283D01*
X26312Y10936D01*
X26331Y10932D01*
X26345D01*
X26353Y10936D01*
X26360Y10939D01*
X26363Y10943D01*
X26393Y11016D01*
X26404Y11038D01*
X26411Y11056D01*
X26414Y11063D01*
X26418Y11071D01*
X26425Y11074D01*
X26466Y10925D01*
D02*
G37*
G36*
X25930Y11129D02*
X25933Y11114D01*
X25941Y11107D01*
X25944Y11100D01*
X25973D01*
X26006Y11096D01*
X25959Y11060D01*
X25970Y11031D01*
X25973Y11016D01*
Y11005D01*
Y11001D01*
X25966Y11005D01*
X25959Y11009D01*
X25952Y11012D01*
X25948Y11016D01*
X25922Y11034D01*
X25911Y11023D01*
X25908Y11016D01*
X25904Y11012D01*
X25893Y11001D01*
X25886Y10998D01*
X25879D01*
Y11005D01*
Y11009D01*
X25886Y11042D01*
X25882Y11052D01*
X25875Y11060D01*
X25868Y11067D01*
X25864Y11071D01*
X25835Y11089D01*
X25868Y11093D01*
X25882D01*
X25890Y11096D01*
X25897D01*
X25901Y11103D01*
X25904Y11114D01*
X25908Y11125D01*
Y11129D01*
X25919Y11154D01*
X25930Y11129D01*
D02*
G37*
G36*
X25824Y10743D02*
X25926Y10732D01*
X25839Y10677D01*
Y10670D01*
X25842Y10659D01*
X25846Y10644D01*
Y10641D01*
X25850Y10619D01*
X25853Y10600D01*
X25857Y10586D01*
Y10579D01*
Y10575D01*
X25853D01*
X25842Y10582D01*
X25831Y10593D01*
X25824Y10597D01*
X25798Y10619D01*
X25784Y10630D01*
X25777Y10633D01*
X25766Y10630D01*
X25751Y10622D01*
X25740Y10615D01*
X25733Y10611D01*
X25711Y10600D01*
X25700Y10597D01*
X25693Y10593D01*
Y10597D01*
Y10600D01*
X25700Y10619D01*
X25707Y10633D01*
X25711Y10641D01*
X25729Y10684D01*
X25649Y10754D01*
X25755Y10746D01*
X25795Y10841D01*
X25824Y10743D01*
D02*
G37*
G36*
X27012Y10867D02*
X27016Y10863D01*
X27020Y10845D01*
X27023Y10826D01*
X27027Y10823D01*
Y10819D01*
X27041Y10757D01*
X27078Y10754D01*
X27100Y10750D01*
X27151D01*
X27162Y10746D01*
X27165Y10743D01*
X27162Y10739D01*
X27158Y10735D01*
X27154Y10732D01*
X27151D01*
X27114Y10710D01*
X27100Y10699D01*
X27085Y10692D01*
X27071Y10681D01*
X27060Y10673D01*
Y10670D01*
X27067Y10648D01*
X27074Y10626D01*
X27078Y10615D01*
Y10611D01*
X27082Y10593D01*
X27085Y10582D01*
X27089Y10564D01*
Y10557D01*
Y10553D01*
X27078Y10560D01*
X27060Y10571D01*
X27045Y10586D01*
X27038Y10590D01*
X26994Y10633D01*
X26972Y10619D01*
X26950Y10608D01*
X26932Y10597D01*
X26917Y10590D01*
X26914Y10586D01*
X26881Y10568D01*
X26896Y10611D01*
X26928Y10684D01*
X26834Y10772D01*
X26965Y10764D01*
X26983Y10816D01*
X26990Y10830D01*
X26998Y10845D01*
X27005Y10859D01*
X27009Y10870D01*
X27012Y10867D01*
D02*
G37*
G36*
X24723Y9988D02*
X24727Y9970D01*
X24730Y9955D01*
X24734Y9952D01*
Y9948D01*
X24745Y9901D01*
X24847Y9893D01*
X24814Y9871D01*
X24789Y9857D01*
X24771Y9842D01*
X24763Y9839D01*
Y9835D01*
X24760Y9824D01*
X24763Y9806D01*
X24767Y9791D01*
Y9788D01*
Y9784D01*
X24774Y9762D01*
X24778Y9748D01*
Y9740D01*
Y9737D01*
Y9733D01*
X24774Y9737D01*
X24767Y9740D01*
X24763Y9744D01*
X24760D01*
X24745Y9755D01*
X24734Y9766D01*
X24727Y9773D01*
X24723Y9777D01*
X24712Y9788D01*
X24705Y9791D01*
X24698D01*
X24683Y9788D01*
X24665Y9780D01*
X24654Y9773D01*
X24647Y9769D01*
X24625Y9758D01*
X24614Y9751D01*
X24607D01*
X24643Y9839D01*
X24566Y9912D01*
X24679Y9908D01*
X24694Y9955D01*
X24701Y9970D01*
X24705Y9981D01*
X24712Y9995D01*
X24716Y9999D01*
X24723Y9988D01*
D02*
G37*
G36*
X25325Y10138D02*
X25398D01*
X25368Y10112D01*
X25357Y10101D01*
X25354Y10090D01*
X25350Y10083D01*
Y10079D01*
Y10068D01*
X25357Y10050D01*
X25361Y10035D01*
X25365Y10032D01*
Y10028D01*
Y10025D01*
Y10021D01*
X25354Y10025D01*
X25343Y10032D01*
X25336Y10035D01*
X25303Y10054D01*
X25285Y10043D01*
X25277Y10035D01*
X25274Y10032D01*
X25259Y10021D01*
X25248Y10014D01*
X25244D01*
Y10021D01*
Y10028D01*
X25248Y10039D01*
Y10043D01*
X25252Y10061D01*
Y10072D01*
Y10076D01*
Y10079D01*
X25244Y10090D01*
X25237Y10101D01*
X25226Y10105D01*
X25223Y10108D01*
X25193Y10127D01*
X25230Y10130D01*
X25244D01*
X25255Y10134D01*
X25263D01*
X25266Y10141D01*
X25274Y10152D01*
X25277Y10163D01*
Y10167D01*
X25292Y10207D01*
X25325Y10138D01*
D02*
G37*
G36*
X25379Y9868D02*
X25383Y9861D01*
X25387Y9850D01*
Y9846D01*
X25416Y9722D01*
X25580Y9700D01*
X25452Y9624D01*
X25449Y9620D01*
Y9613D01*
Y9609D01*
Y9605D01*
Y9591D01*
X25452Y9573D01*
X25456Y9554D01*
Y9551D01*
Y9547D01*
X25467Y9500D01*
X25470Y9485D01*
X25474Y9478D01*
X25478Y9471D01*
Y9463D01*
X25470D01*
X25463Y9467D01*
X25456Y9474D01*
X25434Y9492D01*
X25412Y9511D01*
X25408Y9514D01*
X25405Y9518D01*
X25354Y9565D01*
X25255Y9507D01*
X25230Y9489D01*
X25223Y9481D01*
Y9485D01*
Y9489D01*
Y9496D01*
X25226Y9507D01*
X25234Y9532D01*
X25241Y9554D01*
X25244Y9562D01*
Y9565D01*
X25270Y9631D01*
X25146Y9740D01*
X25255Y9733D01*
X25292Y9729D01*
X25303Y9726D01*
X25310Y9729D01*
X25314Y9733D01*
X25317D01*
X25321Y9740D01*
X25325Y9751D01*
X25336Y9773D01*
X25343Y9795D01*
X25347Y9799D01*
Y9802D01*
X25368Y9850D01*
X25376Y9864D01*
X25379Y9871D01*
Y9868D01*
D02*
G37*
G36*
X26301Y9926D02*
X26305Y9915D01*
X26312Y9908D01*
X26316Y9901D01*
X26323Y9897D01*
X26378D01*
X26327Y9853D01*
X26356Y9799D01*
X26298Y9831D01*
X26287Y9820D01*
X26280Y9813D01*
X26276D01*
X26265Y9802D01*
X26261Y9799D01*
X26258Y9795D01*
Y9799D01*
Y9806D01*
Y9813D01*
Y9817D01*
X26261Y9831D01*
Y9839D01*
Y9846D01*
X26258Y9853D01*
X26250Y9861D01*
X26243Y9868D01*
X26240Y9871D01*
X26214Y9890D01*
X26247Y9893D01*
X26258D01*
X26265Y9897D01*
X26272D01*
X26276Y9904D01*
X26280Y9912D01*
X26283Y9919D01*
Y9922D01*
X26291Y9952D01*
X26301Y9926D01*
D02*
G37*
G36*
X25667Y10269D02*
Y10265D01*
X25675Y10251D01*
X25678Y10232D01*
Y10229D01*
Y10225D01*
X25689Y10178D01*
X25762D01*
X25769Y10174D01*
X25780D01*
X25784Y10170D01*
Y10167D01*
X25777Y10163D01*
X25769Y10156D01*
X25758Y10148D01*
X25755Y10145D01*
X25737Y10134D01*
X25726Y10123D01*
X25718Y10116D01*
Y10112D01*
X25715Y10094D01*
X25718Y10072D01*
X25722Y10050D01*
Y10046D01*
Y10043D01*
X25729Y10014D01*
X25649Y10087D01*
X25605Y10057D01*
X25591Y10050D01*
X25580Y10043D01*
X25565Y10035D01*
X25562D01*
Y10039D01*
Y10043D01*
X25565Y10061D01*
X25569Y10076D01*
X25572Y10083D01*
X25591Y10127D01*
X25562Y10156D01*
X25543Y10174D01*
X25532Y10185D01*
X25525Y10189D01*
X25521Y10192D01*
X25518Y10196D01*
X25521Y10200D01*
X25532D01*
X25624Y10192D01*
X25642Y10240D01*
X25645Y10251D01*
X25653Y10261D01*
X25656Y10269D01*
X25664Y10272D01*
X25667Y10269D01*
D02*
G37*
G36*
X24687Y10466D02*
X24690Y10451D01*
X24694Y10444D01*
Y10440D01*
X24701Y10411D01*
X24782Y10404D01*
X24745Y10378D01*
X24734Y10371D01*
X24723Y10367D01*
X24716Y10356D01*
X24712Y10349D01*
Y10345D01*
X24716Y10334D01*
X24720Y10323D01*
X24723Y10312D01*
Y10309D01*
Y10298D01*
Y10294D01*
Y10291D01*
X24716Y10294D01*
X24705Y10302D01*
X24698Y10305D01*
X24694Y10309D01*
X24669Y10331D01*
X24632Y10312D01*
X24614Y10302D01*
X24603Y10298D01*
X24599D01*
X24628Y10367D01*
X24566Y10422D01*
X24647Y10415D01*
X24665Y10447D01*
X24672Y10466D01*
X24676Y10469D01*
X24683D01*
X24687Y10466D01*
D02*
G37*
G36*
X25018Y10243D02*
X25026Y10229D01*
Y10225D01*
Y10221D01*
X25029Y10207D01*
X25033Y10200D01*
X25037Y10192D01*
X25044Y10189D01*
X25055D01*
X25066Y10185D01*
X25069D01*
X25110Y10178D01*
X25080Y10159D01*
X25062Y10148D01*
X25051Y10141D01*
X25048Y10134D01*
Y10130D01*
Y10119D01*
Y10108D01*
X25051Y10097D01*
Y10094D01*
X25055Y10083D01*
Y10076D01*
X25051D01*
X25044Y10079D01*
X25033Y10087D01*
X25026Y10094D01*
X25000Y10112D01*
X24964Y10094D01*
X24953Y10087D01*
X24942Y10083D01*
X24935D01*
X24938Y10087D01*
Y10090D01*
X24949Y10116D01*
X24953Y10130D01*
X24956Y10138D01*
Y10141D01*
X24953Y10148D01*
X24946Y10156D01*
X24938Y10163D01*
X24935D01*
X24909Y10189D01*
X24986D01*
X25000Y10221D01*
X25008Y10240D01*
X25011Y10247D01*
X25015D01*
X25018Y10243D01*
D02*
G37*
G36*
X26586Y10433D02*
X26589Y10425D01*
X26600Y10407D01*
X26608Y10385D01*
X26611Y10378D01*
Y10374D01*
X26633Y10323D01*
X26775Y10331D01*
X26670Y10236D01*
X26713Y10116D01*
X26710D01*
X26702Y10119D01*
X26684Y10134D01*
X26666Y10145D01*
X26662Y10148D01*
X26659D01*
X26619Y10170D01*
X26600Y10178D01*
X26589Y10174D01*
X26571Y10163D01*
X26560Y10148D01*
X26553Y10145D01*
X26538Y10130D01*
X26524Y10123D01*
X26509Y10112D01*
X26498Y10108D01*
Y10112D01*
Y10119D01*
X26502Y10141D01*
X26506Y10163D01*
X26509Y10167D01*
Y10170D01*
X26524Y10229D01*
X26407Y10305D01*
X26476Y10312D01*
X26549Y10316D01*
X26564Y10382D01*
X26568Y10400D01*
X26571Y10415D01*
X26575Y10425D01*
X26579Y10433D01*
X26582Y10436D01*
X26586Y10433D01*
D02*
G37*
D60*
X18701Y16339D02*
D03*
D61*
Y15339D02*
D03*
X17701Y16339D02*
D03*
Y15339D02*
D03*
X16701Y16339D02*
D03*
Y15339D02*
D03*
X15701Y16339D02*
D03*
Y15339D02*
D03*
X14701Y16339D02*
D03*
Y15339D02*
D03*
D62*
X22136Y12958D02*
D03*
X23336D02*
D03*
Y4758D02*
D03*
X22136D02*
D03*
D63*
X7382Y10780D02*
D03*
Y7528D02*
D03*
X5039Y10921D02*
D03*
Y7386D02*
D03*
D64*
X7874Y10571D02*
D03*
Y7736D02*
D03*
D65*
X7360Y15748D02*
D03*
X6201D02*
D03*
X5041D02*
D03*
D66*
X9366Y15563D02*
D03*
X10346Y15573D02*
D03*
X11326D02*
D03*
D67*
X14862Y8957D02*
D03*
X15157Y9744D02*
D03*
X14764Y10728D02*
D03*
X16535Y8661D02*
D03*
X13780Y7185D02*
D03*
X10236Y11713D02*
D03*
X17913Y9744D02*
D03*
X16535Y7283D02*
D03*
X15256Y6988D02*
D03*
Y8268D02*
D03*
X13580Y6170D02*
D03*
X12650Y5290D02*
D03*
X16437Y10077D02*
D03*
D68*
X5118Y5118D02*
D03*
X26378Y16535D02*
D03*
D69*
X13268Y9370D02*
D03*
X13701D02*
D03*
X13268Y8937D02*
D03*
X13701D02*
D03*
M02*
