M48
;Layer_Color=6321
;FILE_FORMAT=2:4
INCH,LZ
T4F00S00C0.2000
%
G90
G05
T04
G00X024148Y018116
M15
G01X024625Y018183
G01X025096Y018291
G01X025555Y01844
G01X025999Y018628
G01X026425Y018854
G01X02683Y019116
G01X027211Y019413
G01X027564Y019742
G01X027887Y0201
G01X028178Y020485
G01X028434Y020894
G01X028653Y021324
G01X028834Y021771
G01X028976Y022233
G01X029077Y022705
G01X029136Y023183
G01X029153Y023666
G01X029128Y024148
G01X029061Y024625
G01X028953Y025096
G01X028804Y025555
G01X028616Y025999
G01X02839Y026425
G01X028128Y02683
G01X027831Y027211
G01X027502Y027564
G01X027144Y027887
G01X026759Y028178
G01X02635Y028434
G01X02592Y028653
G01X025473Y028834
G01X025011Y028976
G01X02454Y029077
G01X024061Y029136
G01X023578Y029153
G01X023097Y029128
G01X022619Y029061
G01X022148Y028953
G01X021689Y028804
G01X021245Y028616
G01X020819Y02839
G01X020414Y028128
G01X020033Y027831
G01X01968Y027502
G01X019357Y027144
G01X019066Y026759
G01X01881Y02635
G01X018591Y02592
G01X01841Y025473
G01X018268Y025011
G01X018168Y02454
G01X018108Y024061
G01X018091Y023578
G01X018116Y023097
G01X018183Y022619
G01X018291Y022148
G01X01844Y021689
G01X018628Y021245
G01X018854Y020819
G01X019116Y020414
G01X019413Y020033
G01X019742Y01968
G01X0201Y019357
G01X020485Y019066
G01X020894Y01881
G01X021324Y018591
G01X021771Y01841
G01X022233Y018268
G01X022705Y018168
G01X023183Y018108
G01X023666Y018091
G01X024148Y018116
M16
M17
M30
