G04 Layer_Color=20142*
%FSLAX24Y24*%
%MOIN*%
G70*
G01*
G75*
%ADD44R,0.0316X0.0434*%
%ADD45R,0.1182X0.0671*%
%ADD46R,0.1143X0.0552*%
%ADD47R,0.0552X0.1143*%
%ADD48R,0.0237X0.0612*%
%ADD49R,0.0671X0.1182*%
%ADD50O,0.0828X0.0316*%
G04:AMPARAMS|DCode=51|XSize=71mil|YSize=41.5mil|CornerRadius=12.4mil|HoleSize=0mil|Usage=FLASHONLY|Rotation=180.000|XOffset=0mil|YOffset=0mil|HoleType=Round|Shape=RoundedRectangle|*
%AMROUNDEDRECTD51*
21,1,0.0710,0.0167,0,0,180.0*
21,1,0.0463,0.0415,0,0,180.0*
1,1,0.0247,-0.0231,0.0084*
1,1,0.0247,0.0231,0.0084*
1,1,0.0247,0.0231,-0.0084*
1,1,0.0247,-0.0231,-0.0084*
%
%ADD51ROUNDEDRECTD51*%
%ADD52R,0.0710X0.0415*%
%ADD53C,0.1655*%
%ADD54C,0.0690*%
%ADD55R,0.0690X0.0690*%
%ADD56C,0.0980*%
%ADD57R,0.0980X0.0980*%
%ADD58O,0.0710X0.0907*%
%ADD59R,0.0710X0.0907*%
%ADD60C,0.0580*%
%ADD61C,0.0356*%
D44*
X26969Y20679D02*
D03*
X26378D02*
D03*
D45*
X33297Y34281D02*
D03*
Y35463D02*
D03*
D46*
X8000Y24779D02*
D03*
Y25921D02*
D03*
X39818Y17764D02*
D03*
Y18906D02*
D03*
X38396Y18907D02*
D03*
Y17766D02*
D03*
X39774Y20797D02*
D03*
Y19656D02*
D03*
X38425D02*
D03*
Y20797D02*
D03*
X38533Y14341D02*
D03*
Y15482D02*
D03*
X7900Y23371D02*
D03*
Y22229D02*
D03*
X7850Y21221D02*
D03*
Y20079D02*
D03*
X7900Y19171D02*
D03*
Y18029D02*
D03*
X7950Y27971D02*
D03*
Y26829D02*
D03*
X7900Y30071D02*
D03*
Y28929D02*
D03*
D47*
X28287Y25866D02*
D03*
X29429D02*
D03*
Y24557D02*
D03*
X28287D02*
D03*
X26181Y22805D02*
D03*
X27323D02*
D03*
X27343Y24114D02*
D03*
X26201D02*
D03*
X27244Y19360D02*
D03*
X26102D02*
D03*
X38130Y23474D02*
D03*
X39272D02*
D03*
X39291Y24862D02*
D03*
X38150D02*
D03*
X39281Y22047D02*
D03*
X38140D02*
D03*
D48*
X30108Y22077D02*
D03*
X30364D02*
D03*
X30620D02*
D03*
X30876D02*
D03*
X31132D02*
D03*
X31388D02*
D03*
X31644D02*
D03*
X31900D02*
D03*
X32156D02*
D03*
X32411D02*
D03*
X32667D02*
D03*
X32923D02*
D03*
X33179D02*
D03*
X33435D02*
D03*
X30108Y24380D02*
D03*
X30364D02*
D03*
X30620D02*
D03*
X30876D02*
D03*
X31132D02*
D03*
X31388D02*
D03*
X31644D02*
D03*
X31900D02*
D03*
X32156D02*
D03*
X32411D02*
D03*
X32667D02*
D03*
X32923D02*
D03*
X33179D02*
D03*
X33435D02*
D03*
D49*
X33661Y11673D02*
D03*
X32480D02*
D03*
D50*
X28917Y18970D02*
D03*
Y18470D02*
D03*
Y17970D02*
D03*
Y17470D02*
D03*
Y16970D02*
D03*
Y16470D02*
D03*
Y15970D02*
D03*
Y15470D02*
D03*
Y14970D02*
D03*
Y14470D02*
D03*
Y13970D02*
D03*
Y13470D02*
D03*
X32657Y18970D02*
D03*
Y18470D02*
D03*
Y17970D02*
D03*
Y17470D02*
D03*
Y16970D02*
D03*
Y16470D02*
D03*
Y15970D02*
D03*
Y15470D02*
D03*
Y14970D02*
D03*
Y14470D02*
D03*
Y13970D02*
D03*
Y13470D02*
D03*
D51*
X24450Y41556D02*
D03*
D52*
Y42244D02*
D03*
X23150D02*
D03*
Y41556D02*
D03*
D53*
X11811Y35433D02*
D03*
X35433Y11811D02*
D03*
X11811D02*
D03*
X35433Y35433D02*
D03*
D54*
Y33173D02*
D03*
Y32173D02*
D03*
Y31173D02*
D03*
Y30173D02*
D03*
Y29173D02*
D03*
Y28173D02*
D03*
Y27173D02*
D03*
Y26173D02*
D03*
Y25173D02*
D03*
Y24173D02*
D03*
Y23173D02*
D03*
Y22173D02*
D03*
Y21173D02*
D03*
Y20173D02*
D03*
Y19173D02*
D03*
Y18173D02*
D03*
Y17173D02*
D03*
Y16173D02*
D03*
Y15173D02*
D03*
X36433Y33173D02*
D03*
Y32173D02*
D03*
Y31173D02*
D03*
Y30173D02*
D03*
Y29173D02*
D03*
Y28173D02*
D03*
Y27173D02*
D03*
Y26173D02*
D03*
Y25173D02*
D03*
Y24173D02*
D03*
Y23173D02*
D03*
Y22173D02*
D03*
Y21173D02*
D03*
Y20173D02*
D03*
Y19173D02*
D03*
Y18173D02*
D03*
Y17173D02*
D03*
Y16173D02*
D03*
Y15173D02*
D03*
Y14173D02*
D03*
X11024Y33173D02*
D03*
Y32173D02*
D03*
Y31173D02*
D03*
Y30173D02*
D03*
Y29173D02*
D03*
Y28173D02*
D03*
Y27173D02*
D03*
Y26173D02*
D03*
Y25173D02*
D03*
Y24173D02*
D03*
Y23173D02*
D03*
Y22173D02*
D03*
Y21173D02*
D03*
Y20173D02*
D03*
Y19173D02*
D03*
Y18173D02*
D03*
Y17173D02*
D03*
Y16173D02*
D03*
Y15173D02*
D03*
X12024Y33173D02*
D03*
Y32173D02*
D03*
Y31173D02*
D03*
Y30173D02*
D03*
Y29173D02*
D03*
Y28173D02*
D03*
Y27173D02*
D03*
Y26173D02*
D03*
Y25173D02*
D03*
Y24173D02*
D03*
Y23173D02*
D03*
Y22173D02*
D03*
Y21173D02*
D03*
Y20173D02*
D03*
Y19173D02*
D03*
Y18173D02*
D03*
Y17173D02*
D03*
Y16173D02*
D03*
Y15173D02*
D03*
Y14173D02*
D03*
D55*
X35433D02*
D03*
X11024D02*
D03*
D56*
X17500Y13200D02*
D03*
Y15200D02*
D03*
Y19200D02*
D03*
X15700Y12200D02*
D03*
Y14200D02*
D03*
Y18200D02*
D03*
X19300Y14100D02*
D03*
Y16100D02*
D03*
Y20100D02*
D03*
X15500Y23200D02*
D03*
Y25200D02*
D03*
Y29200D02*
D03*
X17100Y24000D02*
D03*
Y26000D02*
D03*
Y30000D02*
D03*
X13900Y11800D02*
D03*
Y13800D02*
D03*
Y17800D02*
D03*
D57*
X17500Y20200D02*
D03*
X15700Y19200D02*
D03*
X19300Y21100D02*
D03*
X15500Y30200D02*
D03*
X17100Y31000D02*
D03*
X13900Y18800D02*
D03*
D58*
X17800Y34200D02*
D03*
X18800D02*
D03*
X19800D02*
D03*
X20800D02*
D03*
X21800D02*
D03*
X22800D02*
D03*
X23800D02*
D03*
X24800D02*
D03*
X25800D02*
D03*
X26800D02*
D03*
X27800D02*
D03*
X28800D02*
D03*
X29800D02*
D03*
X30800D02*
D03*
X29800Y40200D02*
D03*
X28800D02*
D03*
X27800D02*
D03*
X26800D02*
D03*
X25800D02*
D03*
X24800D02*
D03*
X23800D02*
D03*
X22800D02*
D03*
X21800D02*
D03*
X20800D02*
D03*
X19800D02*
D03*
X16800Y34200D02*
D03*
X18800Y40200D02*
D03*
X17800D02*
D03*
X16800D02*
D03*
D59*
X30800D02*
D03*
D60*
X34321Y13337D02*
D03*
X25400Y13550D02*
D03*
X33661D02*
D03*
X34260Y12232D02*
D03*
X20310Y38600D02*
D03*
X16300Y26680D02*
D03*
X10290Y32670D02*
D03*
X14320Y33600D02*
D03*
X16070Y32200D02*
D03*
X16513Y35821D02*
D03*
X16400Y37610D02*
D03*
X15380Y31879D02*
D03*
X14210Y34730D02*
D03*
X12480Y36460D02*
D03*
X30915Y25659D02*
D03*
X30738Y26683D02*
D03*
X30030Y23317D02*
D03*
X32657Y19606D02*
D03*
X30728Y23268D02*
D03*
X32864Y23346D02*
D03*
X37539Y22057D02*
D03*
X33957Y18967D02*
D03*
X30800Y35539D02*
D03*
X25800Y39071D02*
D03*
X7190Y25510D02*
D03*
X12790Y38280D02*
D03*
X23800Y35930D02*
D03*
X8880Y32670D02*
D03*
X22800Y36300D02*
D03*
X9420Y34510D02*
D03*
X7600Y18600D02*
D03*
X10170Y28790D02*
D03*
X9111Y22670D02*
D03*
X9130Y19680D02*
D03*
X16063Y24134D02*
D03*
X5433Y26535D02*
D03*
X6320Y28929D02*
D03*
X27953Y15512D02*
D03*
X27303Y14380D02*
D03*
X25689Y14970D02*
D03*
X26703Y13957D02*
D03*
X28780Y20423D02*
D03*
X8268Y31683D02*
D03*
X24902Y20108D02*
D03*
X24882Y21821D02*
D03*
X24803Y22520D02*
D03*
X12638Y34411D02*
D03*
X15187Y38366D02*
D03*
D61*
X28287Y23701D02*
D03*
X27648Y25886D02*
D03*
X29813Y26801D02*
D03*
X30620Y21417D02*
D03*
X31142Y20807D02*
D03*
X38435Y17106D02*
D03*
X40062Y21568D02*
D03*
X34085Y22293D02*
D03*
M02*
