G04 Layer_Color=8150272*
%FSLAX24Y24*%
%MOIN*%
G70*
G01*
G75*
%ADD48C,0.1655*%
%ADD49C,0.0690*%
%ADD50R,0.0690X0.0690*%
%ADD51C,0.0980*%
%ADD52R,0.0980X0.0980*%
%ADD53O,0.0710X0.0907*%
%ADD54R,0.0710X0.0907*%
%ADD55C,0.0580*%
%ADD56C,0.0356*%
D48*
X11811Y35433D02*
D03*
X35433Y11811D02*
D03*
X11811D02*
D03*
X35433Y35433D02*
D03*
D49*
Y33173D02*
D03*
Y32173D02*
D03*
Y31173D02*
D03*
Y30173D02*
D03*
Y29173D02*
D03*
Y28173D02*
D03*
Y27173D02*
D03*
Y26173D02*
D03*
Y25173D02*
D03*
Y24173D02*
D03*
Y23173D02*
D03*
Y22173D02*
D03*
Y21173D02*
D03*
Y20173D02*
D03*
Y19173D02*
D03*
Y18173D02*
D03*
Y17173D02*
D03*
Y16173D02*
D03*
Y15173D02*
D03*
X36433Y33173D02*
D03*
Y32173D02*
D03*
Y31173D02*
D03*
Y30173D02*
D03*
Y29173D02*
D03*
Y28173D02*
D03*
Y27173D02*
D03*
Y26173D02*
D03*
Y25173D02*
D03*
Y24173D02*
D03*
Y23173D02*
D03*
Y22173D02*
D03*
Y21173D02*
D03*
Y20173D02*
D03*
Y19173D02*
D03*
Y18173D02*
D03*
Y17173D02*
D03*
Y16173D02*
D03*
Y15173D02*
D03*
Y14173D02*
D03*
X11024Y33173D02*
D03*
Y32173D02*
D03*
Y31173D02*
D03*
Y30173D02*
D03*
Y29173D02*
D03*
Y28173D02*
D03*
Y27173D02*
D03*
Y26173D02*
D03*
Y25173D02*
D03*
Y24173D02*
D03*
Y23173D02*
D03*
Y22173D02*
D03*
Y21173D02*
D03*
Y20173D02*
D03*
Y19173D02*
D03*
Y18173D02*
D03*
Y17173D02*
D03*
Y16173D02*
D03*
Y15173D02*
D03*
X12024Y33173D02*
D03*
Y32173D02*
D03*
Y31173D02*
D03*
Y30173D02*
D03*
Y29173D02*
D03*
Y28173D02*
D03*
Y27173D02*
D03*
Y26173D02*
D03*
Y25173D02*
D03*
Y24173D02*
D03*
Y23173D02*
D03*
Y22173D02*
D03*
Y21173D02*
D03*
Y20173D02*
D03*
Y19173D02*
D03*
Y18173D02*
D03*
Y17173D02*
D03*
Y16173D02*
D03*
Y15173D02*
D03*
Y14173D02*
D03*
D50*
X35433D02*
D03*
X11024D02*
D03*
D51*
X17500Y13200D02*
D03*
Y15200D02*
D03*
Y19200D02*
D03*
X15700Y12200D02*
D03*
Y14200D02*
D03*
Y18200D02*
D03*
X19300Y14100D02*
D03*
Y16100D02*
D03*
Y20100D02*
D03*
X15500Y23200D02*
D03*
Y25200D02*
D03*
Y29200D02*
D03*
X17100Y24000D02*
D03*
Y26000D02*
D03*
Y30000D02*
D03*
X13900Y11800D02*
D03*
Y13800D02*
D03*
Y17800D02*
D03*
D52*
X17500Y20200D02*
D03*
X15700Y19200D02*
D03*
X19300Y21100D02*
D03*
X15500Y30200D02*
D03*
X17100Y31000D02*
D03*
X13900Y18800D02*
D03*
D53*
X17800Y34200D02*
D03*
X18800D02*
D03*
X19800D02*
D03*
X20800D02*
D03*
X21800D02*
D03*
X22800D02*
D03*
X23800D02*
D03*
X24800D02*
D03*
X25800D02*
D03*
X26800D02*
D03*
X27800D02*
D03*
X28800D02*
D03*
X29800D02*
D03*
X30800D02*
D03*
X29800Y40200D02*
D03*
X28800D02*
D03*
X27800D02*
D03*
X26800D02*
D03*
X25800D02*
D03*
X24800D02*
D03*
X23800D02*
D03*
X22800D02*
D03*
X21800D02*
D03*
X20800D02*
D03*
X19800D02*
D03*
X16800Y34200D02*
D03*
X18800Y40200D02*
D03*
X17800D02*
D03*
X16800D02*
D03*
D54*
X30800D02*
D03*
D55*
X24902Y20108D02*
D03*
X24882Y21821D02*
D03*
X24803Y22520D02*
D03*
X30915Y25659D02*
D03*
X30738Y26683D02*
D03*
X30030Y23317D02*
D03*
X32657Y19606D02*
D03*
X30728Y23268D02*
D03*
X32864Y23346D02*
D03*
X37539Y22057D02*
D03*
X33957Y13337D02*
D03*
Y18967D02*
D03*
X30800Y35539D02*
D03*
X25800Y39071D02*
D03*
X7190Y25510D02*
D03*
X12790Y38280D02*
D03*
X23800Y35930D02*
D03*
X8880Y32670D02*
D03*
X22800Y36300D02*
D03*
X9420Y34510D02*
D03*
X7600Y18600D02*
D03*
X10170Y28790D02*
D03*
X9111Y22670D02*
D03*
X9130Y19680D02*
D03*
X16063Y24134D02*
D03*
X5433Y26535D02*
D03*
X6320Y28929D02*
D03*
X13819Y34724D02*
D03*
X27953Y15512D02*
D03*
X27303Y14380D02*
D03*
X25689Y14970D02*
D03*
X26703Y13957D02*
D03*
X28780Y20423D02*
D03*
X14252Y31890D02*
D03*
X8268Y31683D02*
D03*
D56*
X28287Y23701D02*
D03*
X27648Y25886D02*
D03*
X29813Y26801D02*
D03*
X30620Y21417D02*
D03*
X31142Y20807D02*
D03*
X38435Y17106D02*
D03*
X40062Y21568D02*
D03*
X34085Y22293D02*
D03*
M02*
