M48
;Layer_Color=6321
;FILE_FORMAT=2:4
INCH,LZ
T12F00S00C0.2000
%
G90
G05
T12
G00X049411Y008862
M15
G01X049602Y008922
G01X049777Y009017
G01X04993Y009146
G01X050054Y009303
G01X050145Y009481
G01X050198Y009673
G01X050213Y009843
G01X050213Y029528
G01X050193Y029726
G01X050134Y029917
G01X050038Y030092
G01X049909Y030245
G01X049753Y030369
G01X049574Y03046
G01X049382Y030513
G01X049213Y030528
G01X009843Y030528
G01X009644Y030508
G01X009453Y030449
G01X009278Y030353
G01X009125Y030224
G01X009001Y030068
G01X00891Y029889
G01X008857Y029697
G01X008843Y029528
G01X008843Y009843
G01X008862Y009644
G01X008922Y009453
G01X009017Y009278
G01X009146Y009125
G01X009303Y009001
G01X009481Y00891
G01X009673Y008857
G01X009843Y008843
G01X049213Y008843
G01X049411Y008862
M16
M17
M30
