G04 Layer_Color=32896*
%FSLAX25Y25*%
%MOIN*%
G70*
G01*
G75*
%ADD15C,0.01000*%
%ADD16C,0.01000*%
D15*
X434449Y148571D02*
X437992D01*
X406890Y121012D02*
X434449Y148571D01*
X406890Y107626D02*
Y121012D01*
X406496Y107232D02*
X406890Y107626D01*
X406496Y107232D02*
X410433Y103295D01*
X437992Y148571D02*
X439961D01*
X467520Y121012D01*
Y107232D02*
Y121012D01*
X463583Y103295D02*
X467520Y107232D01*
X410433Y103295D02*
X463583D01*
X257284Y148571D02*
X260827D01*
X229724Y121012D02*
X257284Y148571D01*
X229724Y107626D02*
Y121012D01*
X229331Y107232D02*
X229724Y107626D01*
X229331Y107232D02*
X233268Y103295D01*
X260827Y148571D02*
X262795D01*
X290354Y121012D01*
Y107232D02*
Y121012D01*
X286417Y103295D02*
X290354Y107232D01*
X233268Y103295D02*
X286417D01*
X200787Y240157D02*
Y358268D01*
Y240157D02*
X279528D01*
Y358268D01*
X200787D02*
X279528D01*
X178543Y148571D02*
X182087D01*
X150984Y121012D02*
X178543Y148571D01*
X150984Y107626D02*
Y121012D01*
X150591Y107232D02*
X150984Y107626D01*
X150591Y107232D02*
X154528Y103295D01*
X182087Y148571D02*
X184055D01*
X211614Y121012D01*
Y107232D02*
Y121012D01*
X207677Y103295D02*
X211614Y107232D01*
X154528Y103295D02*
X207677D01*
X106299Y240157D02*
Y358268D01*
Y240157D02*
X185039D01*
Y358268D01*
X106299D02*
X185039D01*
X347835Y148571D02*
X351378D01*
X320276Y121012D02*
X347835Y148571D01*
X320276Y107626D02*
Y121012D01*
X319882Y107232D02*
X320276Y107626D01*
X319882Y107232D02*
X323819Y103295D01*
X351378Y148571D02*
X353347D01*
X380906Y121012D01*
Y107232D02*
Y121012D01*
X376969Y103295D02*
X380906Y107232D01*
X323819Y103295D02*
X376969D01*
X374016Y240157D02*
Y358268D01*
Y240157D02*
X452756D01*
Y358268D01*
X374016D02*
X452756D01*
X287402Y240157D02*
Y358268D01*
Y240157D02*
X366142D01*
Y358268D01*
X287402D02*
X366142D01*
X473841Y161896D02*
Y167894D01*
X471842Y165895D01*
X469842Y167894D01*
Y161896D01*
X467843Y167894D02*
X463844D01*
X465844D01*
Y161896D01*
X461845Y166894D02*
X460845Y167894D01*
X458846D01*
X457846Y166894D01*
Y165895D01*
X458846Y164895D01*
X459846D01*
X458846D01*
X457846Y163895D01*
Y162896D01*
X458846Y161896D01*
X460845D01*
X461845Y162896D01*
X455847Y166894D02*
X454847Y167894D01*
X452848D01*
X451848Y166894D01*
Y162896D01*
X452848Y161896D01*
X454847D01*
X455847Y162896D01*
Y166894D01*
X449849Y160897D02*
X445850D01*
X443851Y166894D02*
X442851Y167894D01*
X440852D01*
X439852Y166894D01*
Y165895D01*
X440852Y164895D01*
X439852Y163895D01*
Y162896D01*
X440852Y161896D01*
X442851D01*
X443851Y162896D01*
Y163895D01*
X442851Y164895D01*
X443851Y165895D01*
Y166894D01*
X442851Y164895D02*
X440852D01*
X438386Y150933D02*
X436386D01*
X437386D01*
Y156931D01*
X438386Y155931D01*
X404528Y113412D02*
X403528Y114411D01*
X401529D01*
X400529Y113412D01*
Y112412D01*
X401529Y111413D01*
X402528D01*
X401529D01*
X400529Y110413D01*
Y109413D01*
X401529Y108413D01*
X403528D01*
X404528Y109413D01*
X469820Y108413D02*
X473819D01*
X469820Y112412D01*
Y113412D01*
X470820Y114411D01*
X472819D01*
X473819Y113412D01*
X296664Y161959D02*
Y167957D01*
X294664Y165958D01*
X292665Y167957D01*
Y161959D01*
X290666Y167957D02*
X286667D01*
X288666D01*
Y161959D01*
X284668Y166957D02*
X283668Y167957D01*
X281669D01*
X280669Y166957D01*
Y165958D01*
X281669Y164958D01*
X282668D01*
X281669D01*
X280669Y163958D01*
Y162959D01*
X281669Y161959D01*
X283668D01*
X284668Y162959D01*
X278670Y166957D02*
X277670Y167957D01*
X275671D01*
X274671Y166957D01*
Y162959D01*
X275671Y161959D01*
X277670D01*
X278670Y162959D01*
Y166957D01*
X272672Y160959D02*
X268673D01*
X263674Y161959D02*
Y167957D01*
X266673Y164958D01*
X262675D01*
X261220Y150933D02*
X259221D01*
X260221D01*
Y156931D01*
X261220Y155931D01*
X227362Y113412D02*
X226362Y114411D01*
X224363D01*
X223363Y113412D01*
Y112412D01*
X224363Y111412D01*
X225363D01*
X224363D01*
X223363Y110413D01*
Y109413D01*
X224363Y108413D01*
X226362D01*
X227362Y109413D01*
X292655Y108413D02*
X296654D01*
X292655Y112412D01*
Y113412D01*
X293654Y114411D01*
X295654D01*
X296654Y113412D01*
X275553Y400194D02*
X279552D01*
Y394196D01*
X275553D01*
X279552Y397195D02*
X277552D01*
X269555Y399195D02*
X270554Y400194D01*
X272554D01*
X273553Y399195D01*
Y398195D01*
X272554Y397195D01*
X270554D01*
X269555Y396195D01*
Y395196D01*
X270554Y394196D01*
X272554D01*
X273553Y395196D01*
X263557Y399195D02*
X264556Y400194D01*
X266556D01*
X267555Y399195D01*
Y395196D01*
X266556Y394196D01*
X264556D01*
X263557Y395196D01*
X261557Y393196D02*
X257559D01*
X252560Y394196D02*
Y400194D01*
X255559Y397195D01*
X251560D01*
X275590Y378891D02*
X279589D01*
X277590Y376891D02*
Y380890D01*
X196850Y378891D02*
X200849D01*
X255906Y236221D02*
X257905D01*
X256905D01*
Y230222D01*
X255906Y231222D01*
X232345Y236221D02*
X228346D01*
X232345Y232222D01*
Y231222D01*
X231346Y230222D01*
X229346D01*
X228346Y231222D01*
X200787D02*
X201787Y230222D01*
X203786D01*
X204786Y231222D01*
Y232222D01*
X203786Y233222D01*
X202787D01*
X203786D01*
X204786Y234221D01*
Y235221D01*
X203786Y236221D01*
X201787D01*
X200787Y235221D01*
X217889Y161959D02*
Y167957D01*
X215890Y165958D01*
X213890Y167957D01*
Y161959D01*
X211891Y167957D02*
X207892D01*
X209892D01*
Y161959D01*
X205893Y166957D02*
X204893Y167957D01*
X202894D01*
X201894Y166957D01*
Y165958D01*
X202894Y164958D01*
X203893D01*
X202894D01*
X201894Y163959D01*
Y162959D01*
X202894Y161959D01*
X204893D01*
X205893Y162959D01*
X199895Y166957D02*
X198895Y167957D01*
X196896D01*
X195896Y166957D01*
Y162959D01*
X196896Y161959D01*
X198895D01*
X199895Y162959D01*
Y166957D01*
X193897Y160959D02*
X189898D01*
X183900Y161959D02*
X187899D01*
X183900Y165958D01*
Y166957D01*
X184900Y167957D01*
X186899D01*
X187899Y166957D01*
X182480Y150933D02*
X180481D01*
X181481D01*
Y156931D01*
X182480Y155931D01*
X148622Y113412D02*
X147622Y114411D01*
X145623D01*
X144623Y113412D01*
Y112412D01*
X145623Y111413D01*
X146623D01*
X145623D01*
X144623Y110413D01*
Y109413D01*
X145623Y108413D01*
X147622D01*
X148622Y109413D01*
X213915Y108413D02*
X217913D01*
X213915Y112412D01*
Y113412D01*
X214914Y114411D01*
X216914D01*
X217913Y113412D01*
X181134Y400146D02*
X185133D01*
Y394148D01*
X181134D01*
X185133Y397147D02*
X183133D01*
X175136Y399146D02*
X176136Y400146D01*
X178135D01*
X179135Y399146D01*
Y398147D01*
X178135Y397147D01*
X176136D01*
X175136Y396147D01*
Y395148D01*
X176136Y394148D01*
X178135D01*
X179135Y395148D01*
X169138Y399146D02*
X170137Y400146D01*
X172137D01*
X173136Y399146D01*
Y395148D01*
X172137Y394148D01*
X170137D01*
X169138Y395148D01*
X167138Y393148D02*
X163140D01*
X157142Y394148D02*
X161140D01*
X157142Y398147D01*
Y399146D01*
X158141Y400146D01*
X160141D01*
X161140Y399146D01*
X181102Y378891D02*
X185101D01*
X183102Y376891D02*
Y380890D01*
X102362Y378891D02*
X106361D01*
X161417Y236221D02*
X163417D01*
X162417D01*
Y230222D01*
X161417Y231222D01*
X137857Y236221D02*
X133858D01*
X137857Y232222D01*
Y231222D01*
X136857Y230222D01*
X134858D01*
X133858Y231222D01*
X106299D02*
X107299Y230222D01*
X109298D01*
X110298Y231222D01*
Y232222D01*
X109298Y233222D01*
X108299D01*
X109298D01*
X110298Y234221D01*
Y235221D01*
X109298Y236221D01*
X107299D01*
X106299Y235221D01*
X448803Y400142D02*
X452802D01*
Y394144D01*
X448803D01*
X452802Y397143D02*
X450803D01*
X442805Y399143D02*
X443805Y400142D01*
X445804D01*
X446804Y399143D01*
Y398143D01*
X445804Y397143D01*
X443805D01*
X442805Y396143D01*
Y395144D01*
X443805Y394144D01*
X445804D01*
X446804Y395144D01*
X436807Y399143D02*
X437807Y400142D01*
X439806D01*
X440806Y399143D01*
Y395144D01*
X439806Y394144D01*
X437807D01*
X436807Y395144D01*
X434808Y393144D02*
X430809D01*
X428810Y399143D02*
X427810Y400142D01*
X425811D01*
X424811Y399143D01*
Y398143D01*
X425811Y397143D01*
X424811Y396143D01*
Y395144D01*
X425811Y394144D01*
X427810D01*
X428810Y395144D01*
Y396143D01*
X427810Y397143D01*
X428810Y398143D01*
Y399143D01*
X427810Y397143D02*
X425811D01*
X448819Y378891D02*
X452818D01*
X450818Y376891D02*
Y380890D01*
X370079Y378891D02*
X374077D01*
X429134Y236221D02*
X431133D01*
X430133D01*
Y230222D01*
X429134Y231222D01*
X405574Y236221D02*
X401575D01*
X405574Y232222D01*
Y231222D01*
X404574Y230222D01*
X402574D01*
X401575Y231222D01*
X374016D02*
X375015Y230222D01*
X377015D01*
X378014Y231222D01*
Y232222D01*
X377015Y233222D01*
X376015D01*
X377015D01*
X378014Y234221D01*
Y235221D01*
X377015Y236221D01*
X375015D01*
X374016Y235221D01*
X387177Y161885D02*
Y167883D01*
X385178Y165884D01*
X383178Y167883D01*
Y161885D01*
X381179Y167883D02*
X377180D01*
X379180D01*
Y161885D01*
X375181Y166883D02*
X374181Y167883D01*
X372182D01*
X371182Y166883D01*
Y165884D01*
X372182Y164884D01*
X373182D01*
X372182D01*
X371182Y163884D01*
Y162885D01*
X372182Y161885D01*
X374181D01*
X375181Y162885D01*
X369183Y166883D02*
X368183Y167883D01*
X366184D01*
X365184Y166883D01*
Y162885D01*
X366184Y161885D01*
X368183D01*
X369183Y162885D01*
Y166883D01*
X363185Y160885D02*
X359186D01*
X353188Y167883D02*
X355188Y166883D01*
X357187Y164884D01*
Y162885D01*
X356187Y161885D01*
X354188D01*
X353188Y162885D01*
Y163884D01*
X354188Y164884D01*
X357187D01*
X351772Y150933D02*
X349772D01*
X350772D01*
Y156931D01*
X351772Y155931D01*
X317913Y113412D02*
X316914Y114411D01*
X314914D01*
X313915Y113412D01*
Y112412D01*
X314914Y111412D01*
X315914D01*
X314914D01*
X313915Y110413D01*
Y109413D01*
X314914Y108413D01*
X316914D01*
X317913Y109413D01*
X383206Y108413D02*
X387205D01*
X383206Y112412D01*
Y113412D01*
X384206Y114411D01*
X386205D01*
X387205Y113412D01*
X362195Y400135D02*
X366194D01*
Y394137D01*
X362195D01*
X366194Y397136D02*
X364195D01*
X356197Y399135D02*
X357197Y400135D01*
X359196D01*
X360196Y399135D01*
Y398136D01*
X359196Y397136D01*
X357197D01*
X356197Y396136D01*
Y395137D01*
X357197Y394137D01*
X359196D01*
X360196Y395137D01*
X350199Y399135D02*
X351199Y400135D01*
X353198D01*
X354198Y399135D01*
Y395137D01*
X353198Y394137D01*
X351199D01*
X350199Y395137D01*
X348200Y393137D02*
X344201D01*
X338203Y400135D02*
X340202Y399135D01*
X342202Y397136D01*
Y395137D01*
X341202Y394137D01*
X339203D01*
X338203Y395137D01*
Y396136D01*
X339203Y397136D01*
X342202D01*
X362205Y378891D02*
X366203D01*
X364204Y376891D02*
Y380890D01*
X283465Y378891D02*
X287463D01*
X342520Y236221D02*
X344519D01*
X343519D01*
Y230222D01*
X342520Y231222D01*
X318959Y236221D02*
X314961D01*
X318959Y232222D01*
Y231222D01*
X317960Y230222D01*
X315960D01*
X314961Y231222D01*
X287402D02*
X288401Y230222D01*
X290401D01*
X291400Y231222D01*
Y232222D01*
X290401Y233222D01*
X289401D01*
X290401D01*
X291400Y234221D01*
Y235221D01*
X290401Y236221D01*
X288401D01*
X287402Y235221D01*
D16*
X406496Y107232D02*
D03*
X467520D02*
D03*
X229331D02*
D03*
X290354D02*
D03*
X150591D02*
D03*
X211614D02*
D03*
X319882D02*
D03*
X380906D02*
D03*
M02*
