G04 Layer_Color=16720538*
%FSLAX24Y24*%
%MOIN*%
G70*
G01*
G75*
%ADD10C,0.0394*%
%ADD19C,0.0394*%
%ADD33C,0.0080*%
D10*
X9646Y9843D02*
G03*
X9843Y9646I197J0D01*
G01*
X9646Y9843D02*
G03*
X9843Y9646I197J0D01*
G01*
X9655Y43162D02*
G03*
X9646Y43138I24J-24D01*
G01*
X31417Y9646D02*
G03*
X31557Y9703I0J197D01*
G01*
X9655Y43162D02*
G03*
X9646Y43138I24J-24D01*
G01*
X9656Y43162D02*
G03*
X9646Y43138I24J-24D01*
G01*
X31417Y9646D02*
G03*
X31557Y9703I0J197D01*
G01*
X31615Y9762D02*
G03*
X31673Y9902I-139J139D01*
G01*
X31616Y9762D02*
G03*
X31673Y9902I-139J139D01*
G01*
Y43091D02*
G03*
X31476Y43287I-197J0D01*
G01*
X31673Y43091D02*
G03*
X31476Y43287I-197J0D01*
G01*
X9646Y9843D02*
Y43138D01*
X9843Y9646D02*
X31417D01*
X9655Y43162D02*
X9761Y43268D01*
X9761Y43268D02*
X31476Y43287D01*
X31557Y9703D02*
X31557Y9703D01*
X31596Y9743D01*
X31596Y9743D01*
X31596Y9743D01*
X31615Y9762D01*
X31616Y9762D01*
X31673Y9902D02*
Y43091D01*
D19*
X9761Y43268D02*
D03*
X9703Y43210D02*
D03*
X9703Y43210D02*
D03*
X9703Y43210D02*
D03*
X9703Y43210D02*
D03*
X31596Y9743D02*
D03*
X31596Y9743D02*
D03*
D33*
X9449Y9843D02*
G03*
X9843Y9449I394J0D01*
G01*
X9564Y43349D02*
G03*
X9449Y43073I279J-279D01*
G01*
X9840Y43465D02*
G03*
X9564Y43349I2J-394D01*
G01*
X31417Y9449D02*
G03*
X31696Y9564I0J394D01*
G01*
X31870Y43091D02*
G03*
X31476Y43484I-394J0D01*
G01*
X31755Y9623D02*
G03*
X31870Y9902I-279J279D01*
G01*
X9513Y43299D02*
G03*
X9449Y43139I166J-160D01*
G01*
Y9843D02*
G03*
X9843Y9449I394J0D01*
G01*
X9689Y43451D02*
G03*
X9624Y43409I72J-183D01*
G01*
X9689Y43451D02*
G03*
X9624Y43409I72J-183D01*
G01*
X9761Y43465D02*
G03*
X9689Y43451I0J-197D01*
G01*
X31417Y9449D02*
G03*
X31696Y9564I0J394D01*
G01*
X31755Y9623D02*
G03*
X31870Y9902I-279J279D01*
G01*
Y43091D02*
G03*
X31476Y43484I-394J0D01*
G01*
X9513Y43299D02*
G03*
X9449Y43139I166J-160D01*
G01*
Y9843D02*
G03*
X9843Y9449I394J0D01*
G01*
X9689Y43451D02*
G03*
X9624Y43409I72J-183D01*
G01*
X9689Y43451D02*
G03*
X9624Y43409I72J-183D01*
G01*
X9761Y43465D02*
G03*
X9689Y43451I0J-197D01*
G01*
X31417Y9449D02*
G03*
X31696Y9564I0J394D01*
G01*
X31755Y9623D02*
G03*
X31870Y9902I-279J279D01*
G01*
Y43091D02*
G03*
X31476Y43484I-394J0D01*
G01*
X9449Y9843D02*
Y43071D01*
X9842Y43465D02*
X31476Y43484D01*
X9843Y9449D02*
X31417D01*
X31696Y9564D02*
X31755Y9623D01*
X31870Y9902D02*
Y43091D01*
X9449Y9843D02*
Y43138D01*
X9516Y43302D02*
X9622Y43407D01*
X9624Y43409D02*
X9761Y43465D01*
X9843Y9449D02*
X31417D01*
X31696Y9564D02*
X31755Y9623D01*
X9689Y43451D02*
X9761Y43465D01*
X31476Y43484D01*
X31870Y9902D02*
Y43091D01*
X9449Y9843D02*
Y43138D01*
X9516Y43302D02*
X9622Y43407D01*
X9624Y43409D02*
X9761Y43465D01*
X9843Y9449D02*
X31417D01*
X31696Y9564D02*
X31755Y9623D01*
X9689Y43451D02*
X9761Y43465D01*
X31476Y43484D01*
X31870Y9902D02*
Y43091D01*
M02*
