G04 Layer_Color=25308*
%FSLAX24Y24*%
%MOIN*%
G70*
G01*
G75*
%ADD14C,0.0256*%
%ADD15C,0.0197*%
%ADD16O,0.0394X0.0630*%
%ADD17O,0.0394X0.0787*%
%ADD18C,0.0787*%
%ADD19R,0.0787X0.0787*%
G04:AMPARAMS|DCode=22|XSize=13.8mil|YSize=27.6mil|CornerRadius=0mil|HoleSize=0mil|Usage=FLASHONLY|Rotation=0.000|XOffset=0mil|YOffset=0mil|HoleType=Round|Shape=Octagon|*
%AMOCTAGOND22*
4,1,8,-0.0034,0.0138,0.0034,0.0138,0.0069,0.0103,0.0069,-0.0103,0.0034,-0.0138,-0.0034,-0.0138,-0.0069,-0.0103,-0.0069,0.0103,-0.0034,0.0138,0.0*
%
%ADD22OCTAGOND22*%

%ADD23R,0.0320X0.0320*%
%ADD24R,0.0315X0.0354*%
%ADD25R,0.0295X0.0335*%
%ADD26R,0.0217X0.0550*%
%ADD27R,0.0886X0.0197*%
%ADD28R,0.2400X0.2400*%
%ADD29R,0.0354X0.0394*%
D14*
X26850Y35945D02*
D03*
X27106Y36220D02*
D03*
X27421D02*
D03*
X27579Y35945D02*
D03*
X27736Y36220D02*
D03*
X27894Y35945D02*
D03*
X28209D02*
D03*
X28366Y36220D02*
D03*
X28681D02*
D03*
X28524Y35945D02*
D03*
X28996Y36220D02*
D03*
X29252Y35945D02*
D03*
D15*
X29518Y36220D02*
D03*
X26585D02*
D03*
D16*
X26280Y35630D02*
D03*
X29823D02*
D03*
D17*
X25659Y37795D02*
D03*
X30443D02*
D03*
D18*
X29051Y33358D02*
D03*
Y34358D02*
D03*
X28051D02*
D03*
Y33358D02*
D03*
X27051Y34358D02*
D03*
D19*
Y33358D02*
D03*
D22*
X26969Y35508D02*
D03*
X27165D02*
D03*
X27362D02*
D03*
X27559D02*
D03*
X27756D02*
D03*
X27953D02*
D03*
X28150D02*
D03*
X28346D02*
D03*
X28543D02*
D03*
X28740D02*
D03*
X28937D02*
D03*
X29134D02*
D03*
D23*
X30615Y33858D02*
D03*
X30015D02*
D03*
D24*
X30551Y32776D02*
D03*
X30079D02*
D03*
D25*
X26083D02*
D03*
X25492D02*
D03*
D26*
X26161Y33543D02*
D03*
X25787D02*
D03*
X25413D02*
D03*
Y34764D02*
D03*
X26161D02*
D03*
D27*
X28967Y21494D02*
D03*
Y21994D02*
D03*
Y22494D02*
D03*
Y22994D02*
D03*
X27136D02*
D03*
Y22494D02*
D03*
Y21994D02*
D03*
Y21494D02*
D03*
D28*
X32901Y28051D02*
D03*
X28051D02*
D03*
X23201D02*
D03*
D29*
X27795Y20374D02*
D03*
X28307D02*
D03*
M02*
