G04 Layer_Physical_Order=2*
G04 Layer_Color=11436288*
%FSLAX24Y24*%
%MOIN*%
G70*
G01*
G75*
%ADD14C,0.0071*%
%ADD15C,0.0600*%
%ADD16R,0.0600X0.0600*%
%ADD17C,0.0709*%
%ADD18R,0.0709X0.0709*%
%ADD19C,0.0709*%
%ADD20O,0.0600X0.0800*%
%ADD21R,0.0600X0.0800*%
%ADD22C,0.1575*%
%ADD23C,0.0570*%
%ADD24C,0.1181*%
%ADD25R,0.0600X0.0600*%
%ADD26R,0.0650X0.0650*%
%ADD27C,0.0650*%
%ADD28R,0.0610X0.0610*%
%ADD29C,0.0610*%
%ADD30C,0.0276*%
G36*
X26034Y58536D02*
X26869Y58482D01*
X27701Y58391D01*
X28528Y58263D01*
X29349Y58100D01*
X30162Y57901D01*
X30966Y57667D01*
X31758Y57398D01*
X32538Y57094D01*
X33305Y56757D01*
X34055Y56387D01*
X34789Y55984D01*
X35505Y55550D01*
X36201Y55085D01*
X36876Y54590D01*
X37528Y54066D01*
X38158Y53514D01*
X38762Y52936D01*
X39341Y52331D01*
X39893Y51702D01*
X40417Y51049D01*
X40912Y50374D01*
X41377Y49678D01*
X41811Y48962D01*
X42214Y48229D01*
X42584Y47478D01*
X42921Y46712D01*
X43224Y45932D01*
X43494Y45139D01*
X43728Y44335D01*
X43927Y43522D01*
X44090Y42701D01*
X44217Y41874D01*
X44308Y41042D01*
X44363Y40207D01*
X44381Y39370D01*
X44363Y38533D01*
X44308Y37698D01*
X44217Y36866D01*
X44090Y36039D01*
X43927Y35218D01*
X43728Y34405D01*
X43494Y33601D01*
X43224Y32809D01*
X42921Y32028D01*
X42584Y31262D01*
X42214Y30512D01*
X41811Y29778D01*
X41377Y29062D01*
X40912Y28366D01*
X40417Y27691D01*
X39893Y27038D01*
X39341Y26409D01*
X38762Y25805D01*
X38158Y25226D01*
X37528Y24674D01*
X36876Y24150D01*
X36201Y23655D01*
X35505Y23190D01*
X34789Y22756D01*
X34055Y22353D01*
X33305Y21983D01*
X32538Y21646D01*
X31758Y21342D01*
X31298Y21186D01*
X31257Y21215D01*
Y21629D01*
X31250Y21665D01*
Y27087D01*
X31242Y27128D01*
X31218Y27163D01*
X31183Y27187D01*
X31142Y27195D01*
X19245D01*
X19203Y27187D01*
X19168Y27163D01*
X19145Y27128D01*
X19136Y27087D01*
Y21215D01*
X19096Y21186D01*
X18635Y21342D01*
X17855Y21646D01*
X17089Y21983D01*
X16338Y22353D01*
X15605Y22756D01*
X14889Y23190D01*
X14193Y23655D01*
X13518Y24150D01*
X12865Y24674D01*
X12236Y25226D01*
X11631Y25805D01*
X11052Y26409D01*
X10501Y27038D01*
X9977Y27691D01*
X9482Y28366D01*
X9017Y29062D01*
X8583Y29778D01*
X8180Y30512D01*
X7810Y31262D01*
X7473Y32028D01*
X7169Y32809D01*
X6900Y33601D01*
X6666Y34405D01*
X6467Y35218D01*
X6304Y36039D01*
X6176Y36866D01*
X6085Y37698D01*
X6030Y38533D01*
X6012Y39370D01*
X6030Y40207D01*
X6085Y41042D01*
X6176Y41874D01*
X6304Y42701D01*
X6467Y43522D01*
X6666Y44335D01*
X6900Y45139D01*
X7169Y45932D01*
X7473Y46712D01*
X7810Y47478D01*
X8180Y48229D01*
X8583Y48962D01*
X9017Y49678D01*
X9482Y50374D01*
X9977Y51049D01*
X10501Y51702D01*
X11052Y52331D01*
X11631Y52936D01*
X12236Y53514D01*
X12865Y54066D01*
X13518Y54590D01*
X14193Y55085D01*
X14889Y55550D01*
X15605Y55984D01*
X16338Y56387D01*
X17089Y56757D01*
X17855Y57094D01*
X18635Y57398D01*
X19428Y57667D01*
X20232Y57901D01*
X21045Y58100D01*
X21865Y58263D01*
X22693Y58391D01*
X23525Y58482D01*
X24360Y58536D01*
X25197Y58555D01*
X26034Y58536D01*
D02*
G37*
%LPC*%
G36*
X16890Y27094D02*
X16780Y27080D01*
X16677Y27037D01*
X16589Y26970D01*
X16522Y26882D01*
X16479Y26779D01*
X16465Y26669D01*
X16479Y26559D01*
X16522Y26457D01*
X16589Y26369D01*
X16677Y26301D01*
X16780Y26259D01*
X16890Y26244D01*
X17000Y26259D01*
X17102Y26301D01*
X17190Y26369D01*
X17258Y26457D01*
X17300Y26559D01*
X17315Y26669D01*
X17300Y26779D01*
X17258Y26882D01*
X17190Y26970D01*
X17102Y27037D01*
X17000Y27080D01*
X16890Y27094D01*
D02*
G37*
G36*
X16787Y49808D02*
X16639Y49789D01*
X16501Y49731D01*
X16383Y49641D01*
X16292Y49522D01*
X16235Y49384D01*
X16216Y49236D01*
X16235Y49088D01*
X16292Y48950D01*
X16383Y48832D01*
X16501Y48741D01*
X16639Y48684D01*
X16787Y48664D01*
X16935Y48684D01*
X17073Y48741D01*
X17192Y48832D01*
X17283Y48950D01*
X17340Y49088D01*
X17359Y49236D01*
X17340Y49384D01*
X17283Y49522D01*
X17192Y49641D01*
X17073Y49731D01*
X16935Y49789D01*
X16787Y49808D01*
D02*
G37*
G36*
X33504Y27181D02*
X33394Y27166D01*
X33291Y27124D01*
X33203Y27056D01*
X33136Y26968D01*
X33094Y26866D01*
X33079Y26756D01*
X33094Y26646D01*
X33136Y26543D01*
X33203Y26455D01*
X33291Y26388D01*
X33394Y26345D01*
X33504Y26331D01*
X33614Y26345D01*
X33716Y26388D01*
X33804Y26455D01*
X33872Y26543D01*
X33914Y26646D01*
X33929Y26756D01*
X33914Y26866D01*
X33872Y26968D01*
X33804Y27056D01*
X33716Y27124D01*
X33614Y27166D01*
X33504Y27181D01*
D02*
G37*
G36*
X40815Y48283D02*
X40719Y48271D01*
X40630Y48234D01*
X40553Y48175D01*
X40494Y48098D01*
X40457Y48009D01*
X40445Y47913D01*
X40457Y47818D01*
X40494Y47728D01*
X40553Y47652D01*
X40630Y47593D01*
X40719Y47556D01*
X40815Y47543D01*
X40911Y47556D01*
X41000Y47593D01*
X41077Y47652D01*
X41135Y47728D01*
X41172Y47818D01*
X41185Y47913D01*
X41172Y48009D01*
X41135Y48098D01*
X41077Y48175D01*
X41000Y48234D01*
X40911Y48271D01*
X40815Y48283D01*
D02*
G37*
G36*
X40182Y48280D02*
X39448D01*
Y47546D01*
X40182D01*
Y48280D01*
D02*
G37*
G36*
X34504Y27181D02*
X34394Y27166D01*
X34291Y27124D01*
X34203Y27056D01*
X34136Y26968D01*
X34094Y26866D01*
X34079Y26756D01*
X34094Y26646D01*
X34136Y26543D01*
X34203Y26455D01*
X34291Y26388D01*
X34394Y26345D01*
X34504Y26331D01*
X34614Y26345D01*
X34716Y26388D01*
X34804Y26455D01*
X34872Y26543D01*
X34914Y26646D01*
X34929Y26756D01*
X34914Y26866D01*
X34872Y26968D01*
X34804Y27056D01*
X34716Y27124D01*
X34614Y27166D01*
X34504Y27181D01*
D02*
G37*
G36*
X25787Y49808D02*
X25639Y49789D01*
X25501Y49731D01*
X25383Y49641D01*
X25292Y49522D01*
X25235Y49384D01*
X25216Y49236D01*
X25235Y49088D01*
X25292Y48950D01*
X25383Y48832D01*
X25501Y48741D01*
X25639Y48684D01*
X25787Y48664D01*
X25935Y48684D01*
X26073Y48741D01*
X26192Y48832D01*
X26283Y48950D01*
X26340Y49088D01*
X26359Y49236D01*
X26340Y49384D01*
X26283Y49522D01*
X26192Y49641D01*
X26073Y49731D01*
X25935Y49789D01*
X25787Y49808D01*
D02*
G37*
G36*
X21787Y49606D02*
X21692Y49594D01*
X21602Y49557D01*
X21526Y49498D01*
X21467Y49421D01*
X21430Y49332D01*
X21417Y49236D01*
X21430Y49140D01*
X21467Y49051D01*
X21526Y48975D01*
X21602Y48916D01*
X21692Y48879D01*
X21787Y48866D01*
X21883Y48879D01*
X21972Y48916D01*
X22049Y48975D01*
X22108Y49051D01*
X22145Y49140D01*
X22157Y49236D01*
X22145Y49332D01*
X22108Y49421D01*
X22049Y49498D01*
X21972Y49557D01*
X21883Y49594D01*
X21787Y49606D01*
D02*
G37*
G36*
X22787D02*
X22692Y49594D01*
X22602Y49557D01*
X22526Y49498D01*
X22467Y49421D01*
X22430Y49332D01*
X22417Y49236D01*
X22430Y49140D01*
X22467Y49051D01*
X22526Y48975D01*
X22602Y48916D01*
X22692Y48879D01*
X22787Y48866D01*
X22883Y48879D01*
X22972Y48916D01*
X23049Y48975D01*
X23108Y49051D01*
X23145Y49140D01*
X23157Y49236D01*
X23145Y49332D01*
X23108Y49421D01*
X23049Y49498D01*
X22972Y49557D01*
X22883Y49594D01*
X22787Y49606D01*
D02*
G37*
G36*
X37795Y27236D02*
X37628Y27220D01*
X37467Y27171D01*
X37318Y27092D01*
X37188Y26985D01*
X37081Y26855D01*
X37002Y26706D01*
X36953Y26545D01*
X36937Y26378D01*
X36953Y26210D01*
X37002Y26049D01*
X37081Y25901D01*
X37188Y25771D01*
X37318Y25664D01*
X37467Y25585D01*
X37628Y25536D01*
X37795Y25519D01*
X37963Y25536D01*
X38124Y25585D01*
X38272Y25664D01*
X38402Y25771D01*
X38509Y25901D01*
X38588Y26049D01*
X38637Y26210D01*
X38654Y26378D01*
X38637Y26545D01*
X38588Y26706D01*
X38509Y26855D01*
X38402Y26985D01*
X38272Y27092D01*
X38124Y27171D01*
X37963Y27220D01*
X37795Y27236D01*
D02*
G37*
G36*
X27323Y49606D02*
X27213Y49592D01*
X27110Y49549D01*
X27022Y49482D01*
X26955Y49394D01*
X26912Y49291D01*
X26898Y49181D01*
X26912Y49071D01*
X26955Y48969D01*
X27022Y48881D01*
X27110Y48813D01*
X27213Y48771D01*
X27323Y48756D01*
X27433Y48771D01*
X27535Y48813D01*
X27623Y48881D01*
X27691Y48969D01*
X27733Y49071D01*
X27734Y49077D01*
X28020D01*
X28020Y49077D01*
X28060Y49085D01*
X28395D01*
X28425Y49012D01*
X28481Y48938D01*
X28555Y48882D01*
X28640Y48846D01*
X28732Y48834D01*
X28824Y48846D01*
X28910Y48882D01*
X28983Y48938D01*
X29040Y49012D01*
X29075Y49097D01*
X29087Y49189D01*
X29075Y49281D01*
X29040Y49366D01*
X28983Y49440D01*
X28910Y49496D01*
X28824Y49532D01*
X28732Y49544D01*
X28640Y49532D01*
X28555Y49496D01*
X28481Y49440D01*
X28425Y49366D01*
X28395Y49293D01*
X28028D01*
X28028Y49293D01*
X27988Y49285D01*
X27734D01*
X27733Y49291D01*
X27691Y49394D01*
X27623Y49482D01*
X27535Y49549D01*
X27433Y49592D01*
X27323Y49606D01*
D02*
G37*
G36*
X19787Y49606D02*
X19692Y49594D01*
X19602Y49557D01*
X19526Y49498D01*
X19467Y49421D01*
X19430Y49332D01*
X19417Y49236D01*
X19430Y49140D01*
X19467Y49051D01*
X19526Y48975D01*
X19602Y48916D01*
X19692Y48879D01*
X19787Y48866D01*
X19883Y48879D01*
X19972Y48916D01*
X20049Y48975D01*
X20108Y49051D01*
X20145Y49140D01*
X20157Y49236D01*
X20145Y49332D01*
X20108Y49421D01*
X20049Y49498D01*
X19972Y49557D01*
X19883Y49594D01*
X19787Y49606D01*
D02*
G37*
G36*
X20787D02*
X20692Y49594D01*
X20602Y49557D01*
X20526Y49498D01*
X20467Y49421D01*
X20430Y49332D01*
X20417Y49236D01*
X20430Y49140D01*
X20467Y49051D01*
X20526Y48975D01*
X20602Y48916D01*
X20692Y48879D01*
X20787Y48866D01*
X20883Y48879D01*
X20972Y48916D01*
X21049Y48975D01*
X21108Y49051D01*
X21145Y49140D01*
X21157Y49236D01*
X21145Y49332D01*
X21108Y49421D01*
X21049Y49498D01*
X20972Y49557D01*
X20883Y49594D01*
X20787Y49606D01*
D02*
G37*
G36*
X20669Y40709D02*
X20574Y40696D01*
X20484Y40659D01*
X20408Y40600D01*
X20349Y40524D01*
X20312Y40434D01*
X20299Y40339D01*
X20312Y40243D01*
X20349Y40154D01*
X20408Y40077D01*
X20484Y40018D01*
X20574Y39981D01*
X20669Y39968D01*
X20765Y39981D01*
X20854Y40018D01*
X20931Y40077D01*
X20990Y40154D01*
X21027Y40243D01*
X21039Y40339D01*
X21027Y40434D01*
X20990Y40524D01*
X20931Y40600D01*
X20854Y40659D01*
X20765Y40696D01*
X20669Y40709D01*
D02*
G37*
G36*
X21669D02*
X21574Y40696D01*
X21484Y40659D01*
X21408Y40600D01*
X21349Y40524D01*
X21312Y40434D01*
X21299Y40339D01*
X21312Y40243D01*
X21349Y40154D01*
X21408Y40077D01*
X21484Y40018D01*
X21574Y39981D01*
X21669Y39968D01*
X21765Y39981D01*
X21854Y40018D01*
X21931Y40077D01*
X21990Y40154D01*
X22027Y40243D01*
X22039Y40339D01*
X22027Y40434D01*
X21990Y40524D01*
X21931Y40600D01*
X21854Y40659D01*
X21765Y40696D01*
X21669Y40709D01*
D02*
G37*
G36*
X22669D02*
X22574Y40696D01*
X22484Y40659D01*
X22408Y40600D01*
X22349Y40524D01*
X22312Y40434D01*
X22299Y40339D01*
X22312Y40243D01*
X22349Y40154D01*
X22408Y40077D01*
X22484Y40018D01*
X22574Y39981D01*
X22669Y39968D01*
X22765Y39981D01*
X22854Y40018D01*
X22931Y40077D01*
X22990Y40154D01*
X23027Y40243D01*
X23039Y40339D01*
X23027Y40434D01*
X22990Y40524D01*
X22931Y40600D01*
X22854Y40659D01*
X22765Y40696D01*
X22669Y40709D01*
D02*
G37*
G36*
X19669D02*
X19574Y40696D01*
X19484Y40659D01*
X19408Y40600D01*
X19349Y40524D01*
X19312Y40434D01*
X19299Y40339D01*
X19312Y40243D01*
X19349Y40154D01*
X19408Y40077D01*
X19484Y40018D01*
X19574Y39981D01*
X19669Y39968D01*
X19765Y39981D01*
X19854Y40018D01*
X19931Y40077D01*
X19990Y40154D01*
X20027Y40243D01*
X20039Y40339D01*
X20027Y40434D01*
X19990Y40524D01*
X19931Y40600D01*
X19854Y40659D01*
X19765Y40696D01*
X19669Y40709D01*
D02*
G37*
G36*
X42598Y37012D02*
X42503Y36999D01*
X42413Y36962D01*
X42337Y36903D01*
X42278Y36827D01*
X42241Y36738D01*
X42228Y36642D01*
X42241Y36546D01*
X42278Y36457D01*
X42337Y36380D01*
X42413Y36321D01*
X42503Y36284D01*
X42598Y36272D01*
X42694Y36284D01*
X42783Y36321D01*
X42860Y36380D01*
X42919Y36457D01*
X42956Y36546D01*
X42969Y36642D01*
X42956Y36738D01*
X42919Y36827D01*
X42860Y36903D01*
X42783Y36962D01*
X42694Y36999D01*
X42598Y37012D01*
D02*
G37*
G36*
X42965Y36009D02*
X42231D01*
Y35275D01*
X42965D01*
Y36009D01*
D02*
G37*
G36*
X25669Y40910D02*
X25521Y40891D01*
X25383Y40834D01*
X25265Y40743D01*
X25174Y40624D01*
X25117Y40487D01*
X25097Y40339D01*
X25117Y40191D01*
X25174Y40053D01*
X25265Y39934D01*
X25383Y39843D01*
X25521Y39786D01*
X25669Y39767D01*
X25817Y39786D01*
X25955Y39843D01*
X26074Y39934D01*
X26165Y40053D01*
X26222Y40191D01*
X26241Y40339D01*
X26222Y40487D01*
X26165Y40624D01*
X26074Y40743D01*
X25955Y40834D01*
X25817Y40891D01*
X25669Y40910D01*
D02*
G37*
G36*
X34504Y28181D02*
X34394Y28166D01*
X34291Y28124D01*
X34203Y28056D01*
X34136Y27968D01*
X34094Y27866D01*
X34079Y27756D01*
X34094Y27646D01*
X34136Y27543D01*
X34203Y27455D01*
X34291Y27388D01*
X34394Y27345D01*
X34504Y27331D01*
X34614Y27345D01*
X34716Y27388D01*
X34804Y27455D01*
X34872Y27543D01*
X34914Y27646D01*
X34929Y27756D01*
X34914Y27866D01*
X34872Y27968D01*
X34804Y28056D01*
X34716Y28124D01*
X34614Y28166D01*
X34504Y28181D01*
D02*
G37*
G36*
X33504D02*
X33394Y28166D01*
X33291Y28124D01*
X33203Y28056D01*
X33136Y27968D01*
X33094Y27866D01*
X33079Y27756D01*
X33094Y27646D01*
X33136Y27543D01*
X33203Y27455D01*
X33291Y27388D01*
X33394Y27345D01*
X33504Y27331D01*
X33614Y27345D01*
X33716Y27388D01*
X33804Y27455D01*
X33872Y27543D01*
X33914Y27646D01*
X33929Y27756D01*
X33914Y27866D01*
X33872Y27968D01*
X33804Y28056D01*
X33716Y28124D01*
X33614Y28166D01*
X33504Y28181D01*
D02*
G37*
G36*
X16890Y28094D02*
X16780Y28080D01*
X16677Y28037D01*
X16589Y27970D01*
X16522Y27882D01*
X16479Y27779D01*
X16465Y27669D01*
X16479Y27559D01*
X16522Y27457D01*
X16525Y27452D01*
X16387Y27314D01*
X15403D01*
X15349Y27369D01*
X15359Y27420D01*
X15343Y27500D01*
X15298Y27568D01*
X15230Y27613D01*
X15150Y27629D01*
X15070Y27613D01*
X15002Y27568D01*
X14957Y27500D01*
X14941Y27420D01*
X14957Y27340D01*
X15002Y27272D01*
X15070Y27227D01*
X15150Y27211D01*
X15201Y27221D01*
X15286Y27136D01*
X15320Y27114D01*
X15327Y27112D01*
X15360Y27106D01*
X15360Y27106D01*
X16430D01*
X16430Y27106D01*
X16470Y27114D01*
X16504Y27136D01*
X16673Y27305D01*
X16677Y27301D01*
X16780Y27259D01*
X16890Y27244D01*
X17000Y27259D01*
X17102Y27301D01*
X17190Y27369D01*
X17258Y27457D01*
X17300Y27559D01*
X17315Y27669D01*
X17300Y27779D01*
X17258Y27882D01*
X17190Y27970D01*
X17102Y28037D01*
X17000Y28080D01*
X16890Y28094D01*
D02*
G37*
G36*
X22669Y46709D02*
X22574Y46696D01*
X22484Y46659D01*
X22408Y46600D01*
X22349Y46524D01*
X22312Y46434D01*
X22299Y46339D01*
X22312Y46243D01*
X22349Y46154D01*
X22408Y46077D01*
X22484Y46018D01*
X22574Y45981D01*
X22669Y45968D01*
X22765Y45981D01*
X22854Y46018D01*
X22931Y46077D01*
X22990Y46154D01*
X23027Y46243D01*
X23039Y46339D01*
X23027Y46434D01*
X22990Y46524D01*
X22931Y46600D01*
X22854Y46659D01*
X22765Y46696D01*
X22669Y46709D01*
D02*
G37*
G36*
X40748Y33957D02*
X40652Y33944D01*
X40563Y33907D01*
X40486Y33848D01*
X40428Y33772D01*
X40391Y33682D01*
X40378Y33587D01*
X40391Y33491D01*
X40428Y33402D01*
X40486Y33325D01*
X40563Y33266D01*
X40652Y33229D01*
X40748Y33217D01*
X40844Y33229D01*
X40933Y33266D01*
X41010Y33325D01*
X41069Y33402D01*
X41106Y33491D01*
X41118Y33587D01*
X41106Y33682D01*
X41069Y33772D01*
X41010Y33848D01*
X40933Y33907D01*
X40844Y33944D01*
X40748Y33957D01*
D02*
G37*
G36*
X39173D02*
X39077Y33944D01*
X38988Y33907D01*
X38912Y33848D01*
X38853Y33772D01*
X38816Y33682D01*
X38803Y33587D01*
X38816Y33491D01*
X38853Y33402D01*
X38912Y33325D01*
X38988Y33266D01*
X39077Y33229D01*
X39173Y33217D01*
X39269Y33229D01*
X39358Y33266D01*
X39435Y33325D01*
X39494Y33402D01*
X39531Y33491D01*
X39543Y33587D01*
X39531Y33682D01*
X39494Y33772D01*
X39435Y33848D01*
X39358Y33907D01*
X39269Y33944D01*
X39173Y33957D01*
D02*
G37*
G36*
X40039Y46004D02*
X39944Y45991D01*
X39854Y45954D01*
X39778Y45896D01*
X39719Y45819D01*
X39682Y45730D01*
X39669Y45634D01*
X39682Y45538D01*
X39719Y45449D01*
X39778Y45372D01*
X39854Y45313D01*
X39944Y45276D01*
X40039Y45264D01*
X40135Y45276D01*
X40224Y45313D01*
X40301Y45372D01*
X40360Y45449D01*
X40397Y45538D01*
X40409Y45634D01*
X40397Y45730D01*
X40360Y45819D01*
X40301Y45896D01*
X40224Y45954D01*
X40135Y45991D01*
X40039Y46004D01*
D02*
G37*
G36*
X36063Y54606D02*
X35953Y54592D01*
X35851Y54549D01*
X35763Y54482D01*
X35695Y54394D01*
X35653Y54291D01*
X35652Y54285D01*
X35430D01*
X35390Y54293D01*
X35390Y54293D01*
X35070D01*
X35040Y54366D01*
X34983Y54440D01*
X34910Y54496D01*
X34824Y54532D01*
X34732Y54544D01*
X34640Y54532D01*
X34555Y54496D01*
X34481Y54440D01*
X34425Y54366D01*
X34389Y54281D01*
X34377Y54189D01*
X34389Y54097D01*
X34425Y54012D01*
X34481Y53938D01*
X34555Y53882D01*
X34640Y53846D01*
X34732Y53834D01*
X34824Y53846D01*
X34910Y53882D01*
X34983Y53938D01*
X35040Y54012D01*
X35070Y54085D01*
X35358D01*
X35398Y54077D01*
X35398Y54077D01*
X35652D01*
X35653Y54071D01*
X35695Y53969D01*
X35763Y53881D01*
X35851Y53813D01*
X35953Y53771D01*
X36063Y53756D01*
X36173Y53771D01*
X36275Y53813D01*
X36363Y53881D01*
X36431Y53969D01*
X36473Y54071D01*
X36488Y54181D01*
X36473Y54291D01*
X36431Y54394D01*
X36363Y54482D01*
X36275Y54549D01*
X36173Y54592D01*
X36063Y54606D01*
D02*
G37*
G36*
X33764Y56021D02*
X33668Y56009D01*
X33579Y55972D01*
X33502Y55913D01*
X33443Y55836D01*
X33406Y55747D01*
X33394Y55651D01*
Y55451D01*
X33406Y55355D01*
X33443Y55266D01*
X33502Y55189D01*
X33579Y55131D01*
X33668Y55094D01*
X33764Y55081D01*
X33860Y55094D01*
X33949Y55131D01*
X34025Y55189D01*
X34084Y55266D01*
X34121Y55355D01*
X34134Y55451D01*
Y55651D01*
X34121Y55747D01*
X34084Y55836D01*
X34025Y55913D01*
X33949Y55972D01*
X33860Y56009D01*
X33764Y56021D01*
D02*
G37*
G36*
X16787Y55808D02*
X16639Y55789D01*
X16501Y55731D01*
X16383Y55641D01*
X16292Y55522D01*
X16235Y55384D01*
X16216Y55236D01*
X16235Y55088D01*
X16292Y54950D01*
X16383Y54832D01*
X16501Y54741D01*
X16639Y54684D01*
X16787Y54664D01*
X16935Y54684D01*
X17073Y54741D01*
X17192Y54832D01*
X17283Y54950D01*
X17340Y55088D01*
X17359Y55236D01*
X17340Y55384D01*
X17283Y55522D01*
X17192Y55641D01*
X17073Y55731D01*
X16935Y55789D01*
X16787Y55808D01*
D02*
G37*
G36*
X32738Y54544D02*
X32646Y54532D01*
X32561Y54496D01*
X32487Y54440D01*
X32431Y54366D01*
X32395Y54281D01*
X32383Y54189D01*
X32395Y54097D01*
X32431Y54012D01*
X32487Y53938D01*
X32561Y53882D01*
X32646Y53846D01*
X32738Y53834D01*
X32830Y53846D01*
X32916Y53882D01*
X32989Y53938D01*
X33046Y54012D01*
X33081Y54097D01*
X33093Y54189D01*
X33081Y54281D01*
X33046Y54366D01*
X32989Y54440D01*
X32916Y54496D01*
X32830Y54532D01*
X32738Y54544D01*
D02*
G37*
G36*
X33738D02*
X33646Y54532D01*
X33561Y54496D01*
X33487Y54440D01*
X33431Y54366D01*
X33395Y54281D01*
X33383Y54189D01*
X33395Y54097D01*
X33431Y54012D01*
X33487Y53938D01*
X33561Y53882D01*
X33646Y53846D01*
X33738Y53834D01*
X33830Y53846D01*
X33916Y53882D01*
X33989Y53938D01*
X34046Y54012D01*
X34081Y54097D01*
X34093Y54189D01*
X34081Y54281D01*
X34046Y54366D01*
X33989Y54440D01*
X33916Y54496D01*
X33830Y54532D01*
X33738Y54544D01*
D02*
G37*
G36*
X30131Y56018D02*
X29397D01*
Y55084D01*
X30131D01*
Y56018D01*
D02*
G37*
G36*
X32764Y56021D02*
X32668Y56009D01*
X32579Y55972D01*
X32502Y55913D01*
X32443Y55836D01*
X32406Y55747D01*
X32394Y55651D01*
Y55451D01*
X32406Y55355D01*
X32443Y55266D01*
X32502Y55189D01*
X32579Y55131D01*
X32668Y55094D01*
X32764Y55081D01*
X32860Y55094D01*
X32949Y55131D01*
X33025Y55189D01*
X33084Y55266D01*
X33121Y55355D01*
X33134Y55451D01*
Y55651D01*
X33121Y55747D01*
X33084Y55836D01*
X33025Y55913D01*
X32949Y55972D01*
X32860Y56009D01*
X32764Y56021D01*
D02*
G37*
G36*
X25787Y55808D02*
X25639Y55789D01*
X25501Y55731D01*
X25383Y55641D01*
X25292Y55522D01*
X25235Y55384D01*
X25216Y55236D01*
X25235Y55088D01*
X25292Y54950D01*
X25383Y54832D01*
X25501Y54741D01*
X25639Y54684D01*
X25787Y54664D01*
X25935Y54684D01*
X26073Y54741D01*
X26192Y54832D01*
X26283Y54950D01*
X26340Y55088D01*
X26359Y55236D01*
X26340Y55384D01*
X26283Y55522D01*
X26192Y55641D01*
X26073Y55731D01*
X25935Y55789D01*
X25787Y55808D01*
D02*
G37*
G36*
X19787Y55606D02*
X19692Y55594D01*
X19602Y55557D01*
X19526Y55498D01*
X19467Y55421D01*
X19430Y55332D01*
X19417Y55236D01*
X19430Y55140D01*
X19467Y55051D01*
X19526Y54975D01*
X19602Y54916D01*
X19692Y54879D01*
X19787Y54866D01*
X19883Y54879D01*
X19972Y54916D01*
X20049Y54975D01*
X20108Y55051D01*
X20145Y55140D01*
X20157Y55236D01*
X20145Y55332D01*
X20108Y55421D01*
X20049Y55498D01*
X19972Y55557D01*
X19883Y55594D01*
X19787Y55606D01*
D02*
G37*
G36*
X20787D02*
X20692Y55594D01*
X20602Y55557D01*
X20526Y55498D01*
X20467Y55421D01*
X20430Y55332D01*
X20417Y55236D01*
X20430Y55140D01*
X20467Y55051D01*
X20526Y54975D01*
X20602Y54916D01*
X20692Y54879D01*
X20787Y54866D01*
X20883Y54879D01*
X20972Y54916D01*
X21049Y54975D01*
X21108Y55051D01*
X21145Y55140D01*
X21157Y55236D01*
X21145Y55332D01*
X21108Y55421D01*
X21049Y55498D01*
X20972Y55557D01*
X20883Y55594D01*
X20787Y55606D01*
D02*
G37*
G36*
X30764Y56021D02*
X30668Y56009D01*
X30579Y55972D01*
X30502Y55913D01*
X30443Y55836D01*
X30406Y55747D01*
X30394Y55651D01*
Y55451D01*
X30406Y55355D01*
X30443Y55266D01*
X30502Y55189D01*
X30579Y55131D01*
X30668Y55094D01*
X30764Y55081D01*
X30860Y55094D01*
X30949Y55131D01*
X31025Y55189D01*
X31084Y55266D01*
X31121Y55355D01*
X31134Y55451D01*
Y55651D01*
X31121Y55747D01*
X31084Y55836D01*
X31025Y55913D01*
X30949Y55972D01*
X30860Y56009D01*
X30764Y56021D01*
D02*
G37*
G36*
X23787Y55606D02*
X23692Y55594D01*
X23602Y55557D01*
X23526Y55498D01*
X23467Y55421D01*
X23430Y55332D01*
X23417Y55236D01*
X23430Y55140D01*
X23467Y55051D01*
X23526Y54975D01*
X23602Y54916D01*
X23692Y54879D01*
X23787Y54866D01*
X23883Y54879D01*
X23972Y54916D01*
X24049Y54975D01*
X24108Y55051D01*
X24145Y55140D01*
X24157Y55236D01*
X24145Y55332D01*
X24108Y55421D01*
X24049Y55498D01*
X23972Y55557D01*
X23883Y55594D01*
X23787Y55606D01*
D02*
G37*
G36*
X22787D02*
X22692Y55594D01*
X22602Y55557D01*
X22526Y55498D01*
X22467Y55421D01*
X22430Y55332D01*
X22417Y55236D01*
X22430Y55140D01*
X22467Y55051D01*
X22526Y54975D01*
X22602Y54916D01*
X22692Y54879D01*
X22787Y54866D01*
X22883Y54879D01*
X22972Y54916D01*
X23049Y54975D01*
X23108Y55051D01*
X23145Y55140D01*
X23157Y55236D01*
X23145Y55332D01*
X23108Y55421D01*
X23049Y55498D01*
X22972Y55557D01*
X22883Y55594D01*
X22787Y55606D01*
D02*
G37*
G36*
X30738Y54544D02*
X30646Y54532D01*
X30561Y54496D01*
X30487Y54440D01*
X30431Y54366D01*
X30395Y54281D01*
X30383Y54189D01*
X30395Y54097D01*
X30431Y54012D01*
X30487Y53938D01*
X30561Y53882D01*
X30646Y53846D01*
X30738Y53834D01*
X30830Y53846D01*
X30916Y53882D01*
X30989Y53938D01*
X31046Y54012D01*
X31081Y54097D01*
X31093Y54189D01*
X31081Y54281D01*
X31046Y54366D01*
X30989Y54440D01*
X30916Y54496D01*
X30830Y54532D01*
X30738Y54544D01*
D02*
G37*
G36*
X18787Y55606D02*
X18692Y55594D01*
X18602Y55557D01*
X18526Y55498D01*
X18467Y55421D01*
X18430Y55332D01*
X18417Y55236D01*
X18430Y55140D01*
X18467Y55051D01*
X18526Y54975D01*
X18602Y54916D01*
X18692Y54879D01*
X18787Y54866D01*
X18883Y54879D01*
X18964Y54912D01*
X23260Y50616D01*
X23294Y50594D01*
X23300Y50592D01*
X23334Y50586D01*
X23334Y50586D01*
X27076D01*
X27093Y50536D01*
X27022Y50482D01*
X26955Y50394D01*
X26912Y50291D01*
X26898Y50181D01*
X26912Y50071D01*
X26955Y49969D01*
X27022Y49881D01*
X27110Y49813D01*
X27213Y49771D01*
X27323Y49756D01*
X27433Y49771D01*
X27535Y49813D01*
X27623Y49881D01*
X27691Y49969D01*
X27733Y50071D01*
X27734Y50077D01*
X28020D01*
X28020Y50077D01*
X28060Y50085D01*
X28395D01*
X28425Y50012D01*
X28481Y49938D01*
X28555Y49882D01*
X28640Y49846D01*
X28732Y49834D01*
X28824Y49846D01*
X28910Y49882D01*
X28983Y49938D01*
X29040Y50012D01*
X29075Y50097D01*
X29087Y50189D01*
X29075Y50281D01*
X29040Y50366D01*
X28983Y50440D01*
X28910Y50496D01*
X28824Y50532D01*
X28795Y50536D01*
X28799Y50586D01*
X30072D01*
X30075Y50536D01*
X30046Y50532D01*
X29961Y50496D01*
X29887Y50440D01*
X29831Y50366D01*
X29795Y50281D01*
X29783Y50189D01*
X29795Y50097D01*
X29826Y50024D01*
X29676Y49874D01*
X29654Y49841D01*
X29646Y49801D01*
X29646Y49801D01*
Y48920D01*
X29646Y48920D01*
X29654Y48880D01*
X29676Y48846D01*
X29969Y48554D01*
X29961Y48498D01*
X29958Y48494D01*
X29887Y48440D01*
X29831Y48366D01*
X29795Y48281D01*
X29783Y48189D01*
X29795Y48097D01*
X29831Y48011D01*
X29887Y47938D01*
X29961Y47882D01*
X30046Y47846D01*
X30138Y47834D01*
X30230Y47846D01*
X30316Y47882D01*
X30389Y47938D01*
X30446Y48011D01*
X30481Y48097D01*
X30493Y48189D01*
X30481Y48281D01*
X30446Y48366D01*
X30393Y48436D01*
X30400Y48470D01*
X30405Y48486D01*
X32467D01*
X33336Y47616D01*
X33336Y47616D01*
X33370Y47594D01*
X33361Y47544D01*
X33173D01*
X33004Y47714D01*
X32970Y47736D01*
X32930Y47744D01*
X32930Y47744D01*
X27500D01*
X27490Y47794D01*
X27535Y47813D01*
X27623Y47881D01*
X27691Y47969D01*
X27733Y48071D01*
X27734Y48077D01*
X28020D01*
X28020Y48077D01*
X28060Y48085D01*
X28395D01*
X28425Y48011D01*
X28481Y47938D01*
X28555Y47882D01*
X28640Y47846D01*
X28732Y47834D01*
X28824Y47846D01*
X28910Y47882D01*
X28983Y47938D01*
X29040Y48011D01*
X29075Y48097D01*
X29087Y48189D01*
X29075Y48281D01*
X29040Y48366D01*
X28983Y48440D01*
X28910Y48496D01*
X28824Y48532D01*
X28732Y48544D01*
X28640Y48532D01*
X28555Y48496D01*
X28481Y48440D01*
X28425Y48366D01*
X28395Y48293D01*
X28028D01*
X28028Y48293D01*
X27988Y48285D01*
X27734D01*
X27733Y48291D01*
X27691Y48394D01*
X27623Y48482D01*
X27535Y48549D01*
X27433Y48592D01*
X27323Y48606D01*
X27213Y48592D01*
X27110Y48549D01*
X27022Y48482D01*
X26955Y48394D01*
X26912Y48291D01*
X26912Y48285D01*
X16155D01*
X16155Y48285D01*
X16155Y48285D01*
X15520D01*
X15363Y48442D01*
X15397Y48522D01*
X15409Y48618D01*
X15397Y48714D01*
X15360Y48803D01*
X15301Y48880D01*
X15224Y48939D01*
X15135Y48976D01*
X15039Y48988D01*
X14944Y48976D01*
X14854Y48939D01*
X14778Y48880D01*
X14719Y48803D01*
X14682Y48714D01*
X14669Y48618D01*
X14682Y48522D01*
X14698Y48484D01*
X14664Y48434D01*
X11056D01*
X11028Y48478D01*
X10960Y48523D01*
X10880Y48539D01*
X10800Y48523D01*
X10732Y48478D01*
X10687Y48410D01*
X10671Y48330D01*
X10687Y48250D01*
X10732Y48182D01*
X10800Y48137D01*
X10819Y48133D01*
X10840Y48078D01*
X10812Y48009D01*
X10799Y47913D01*
X10812Y47818D01*
X10849Y47728D01*
X10908Y47652D01*
X10984Y47593D01*
X11074Y47556D01*
X11169Y47543D01*
X11265Y47556D01*
X11354Y47593D01*
X11431Y47652D01*
X11490Y47728D01*
X11527Y47818D01*
X11539Y47913D01*
X11527Y48009D01*
X11490Y48098D01*
X11431Y48175D01*
X11427Y48178D01*
X11443Y48226D01*
X14751D01*
X14751Y48226D01*
X14791Y48234D01*
X14825Y48256D01*
X14863Y48294D01*
X14944Y48261D01*
X15039Y48248D01*
X15135Y48261D01*
X15216Y48294D01*
X15403Y48107D01*
X15403Y48107D01*
X15436Y48085D01*
X15443Y48083D01*
X15476Y48077D01*
X15476Y48077D01*
X16112D01*
X18326Y45862D01*
X18360Y45840D01*
X18400Y45832D01*
X18400Y45832D01*
X20267D01*
X20267Y45832D01*
X20307Y45840D01*
X20341Y45862D01*
X20493Y46015D01*
X20574Y45981D01*
X20669Y45968D01*
X20765Y45981D01*
X20854Y46018D01*
X20931Y46077D01*
X20990Y46154D01*
X21027Y46243D01*
X21039Y46339D01*
X21027Y46434D01*
X20990Y46524D01*
X20931Y46600D01*
X20854Y46659D01*
X20765Y46696D01*
X20669Y46709D01*
X20574Y46696D01*
X20484Y46659D01*
X20408Y46600D01*
X20349Y46524D01*
X20312Y46434D01*
X20299Y46339D01*
X20312Y46243D01*
X20345Y46162D01*
X20224Y46041D01*
X19960D01*
X19942Y46091D01*
X19990Y46154D01*
X20027Y46243D01*
X20039Y46339D01*
X20027Y46434D01*
X19990Y46524D01*
X19931Y46600D01*
X19854Y46659D01*
X19765Y46696D01*
X19669Y46709D01*
X19574Y46696D01*
X19484Y46659D01*
X19408Y46600D01*
X19349Y46524D01*
X19312Y46434D01*
X19299Y46339D01*
X19312Y46243D01*
X19349Y46154D01*
X19397Y46091D01*
X19378Y46041D01*
X18960D01*
X18942Y46091D01*
X18990Y46154D01*
X19027Y46243D01*
X19039Y46339D01*
X19027Y46434D01*
X18993Y46515D01*
X20084Y47606D01*
X24177D01*
X24856Y46927D01*
Y44960D01*
X24856Y44960D01*
X24864Y44920D01*
X24886Y44886D01*
X25206Y44566D01*
X25206Y44566D01*
X25240Y44544D01*
X25280Y44536D01*
X27015D01*
X27031Y44488D01*
X27022Y44482D01*
X26955Y44394D01*
X26912Y44291D01*
X26898Y44181D01*
X26912Y44071D01*
X26955Y43969D01*
X27022Y43881D01*
X27110Y43813D01*
X27213Y43771D01*
X27323Y43756D01*
X27433Y43771D01*
X27535Y43813D01*
X27623Y43881D01*
X27691Y43969D01*
X27733Y44071D01*
X27734Y44077D01*
X28020D01*
X28020Y44077D01*
X28060Y44085D01*
X28395D01*
X28425Y44012D01*
X28481Y43938D01*
X28555Y43882D01*
X28640Y43846D01*
X28732Y43834D01*
X28824Y43846D01*
X28910Y43882D01*
X28983Y43938D01*
X29040Y44012D01*
X29075Y44097D01*
X29087Y44189D01*
X29075Y44281D01*
X29040Y44366D01*
X28983Y44440D01*
X28924Y44486D01*
X28941Y44536D01*
X29530D01*
X29547Y44486D01*
X29487Y44440D01*
X29431Y44366D01*
X29395Y44281D01*
X29383Y44189D01*
X29395Y44097D01*
X29431Y44012D01*
X29487Y43938D01*
X29561Y43882D01*
X29646Y43846D01*
X29738Y43834D01*
X29830Y43846D01*
X29903Y43876D01*
X30164Y43616D01*
X30164Y43616D01*
X30197Y43594D01*
X30237Y43586D01*
X34666D01*
X34669Y43536D01*
X34640Y43532D01*
X34555Y43496D01*
X34481Y43440D01*
X34425Y43366D01*
X34389Y43281D01*
X34377Y43189D01*
X34389Y43097D01*
X34425Y43011D01*
X34469Y42954D01*
X34447Y42904D01*
X29164D01*
X29045Y43024D01*
X29075Y43097D01*
X29087Y43189D01*
X29075Y43281D01*
X29040Y43366D01*
X28983Y43440D01*
X28910Y43496D01*
X28824Y43532D01*
X28732Y43544D01*
X28640Y43532D01*
X28555Y43496D01*
X28481Y43440D01*
X28425Y43366D01*
X28395Y43293D01*
X28028D01*
X28028Y43293D01*
X27988Y43285D01*
X27734D01*
X27733Y43291D01*
X27691Y43394D01*
X27623Y43482D01*
X27535Y43549D01*
X27433Y43592D01*
X27323Y43606D01*
X27213Y43592D01*
X27110Y43549D01*
X27022Y43482D01*
X26955Y43394D01*
X26912Y43291D01*
X26898Y43181D01*
X26912Y43071D01*
X26955Y42969D01*
X27022Y42881D01*
X27110Y42813D01*
X27213Y42771D01*
X27323Y42756D01*
X27433Y42771D01*
X27535Y42813D01*
X27623Y42881D01*
X27691Y42969D01*
X27733Y43071D01*
X27734Y43077D01*
X28020D01*
X28020Y43077D01*
X28060Y43085D01*
X28395D01*
X28425Y43011D01*
X28481Y42938D01*
X28555Y42882D01*
X28640Y42846D01*
X28732Y42834D01*
X28824Y42846D01*
X28897Y42876D01*
X29047Y42726D01*
X29047Y42726D01*
X29081Y42704D01*
X29088Y42702D01*
X29121Y42696D01*
X29121Y42696D01*
X30032D01*
X30051Y42649D01*
X29903Y42502D01*
X29830Y42532D01*
X29738Y42544D01*
X29646Y42532D01*
X29561Y42496D01*
X29487Y42440D01*
X29431Y42366D01*
X29395Y42281D01*
X29383Y42189D01*
X29395Y42097D01*
X29431Y42011D01*
X29487Y41938D01*
X29561Y41882D01*
X29646Y41846D01*
X29738Y41834D01*
X29830Y41846D01*
X29916Y41882D01*
X29989Y41938D01*
X30046Y42011D01*
X30081Y42097D01*
X30093Y42189D01*
X30081Y42281D01*
X30051Y42354D01*
X30233Y42536D01*
X34524D01*
X34541Y42486D01*
X34481Y42440D01*
X34425Y42366D01*
X34389Y42281D01*
X34377Y42189D01*
X34389Y42097D01*
X34425Y42011D01*
X34481Y41938D01*
X34555Y41882D01*
X34640Y41846D01*
X34732Y41834D01*
X34824Y41846D01*
X34910Y41882D01*
X34983Y41938D01*
X35040Y42011D01*
X35070Y42085D01*
X35358D01*
X35398Y42077D01*
X35398Y42077D01*
X35652D01*
X35653Y42071D01*
X35695Y41969D01*
X35763Y41881D01*
X35851Y41813D01*
X35896Y41794D01*
X35886Y41744D01*
X27500D01*
X27490Y41794D01*
X27535Y41813D01*
X27623Y41881D01*
X27691Y41969D01*
X27733Y42071D01*
X27734Y42077D01*
X28020D01*
X28020Y42077D01*
X28060Y42085D01*
X28395D01*
X28425Y42011D01*
X28481Y41938D01*
X28555Y41882D01*
X28640Y41846D01*
X28732Y41834D01*
X28824Y41846D01*
X28910Y41882D01*
X28983Y41938D01*
X29040Y42011D01*
X29075Y42097D01*
X29087Y42189D01*
X29075Y42281D01*
X29040Y42366D01*
X28983Y42440D01*
X28910Y42496D01*
X28824Y42532D01*
X28732Y42544D01*
X28640Y42532D01*
X28555Y42496D01*
X28481Y42440D01*
X28425Y42366D01*
X28395Y42293D01*
X28028D01*
X28028Y42293D01*
X27988Y42285D01*
X27734D01*
X27733Y42291D01*
X27691Y42394D01*
X27623Y42482D01*
X27535Y42549D01*
X27433Y42592D01*
X27323Y42606D01*
X27213Y42592D01*
X27110Y42549D01*
X27022Y42482D01*
X26955Y42394D01*
X26912Y42291D01*
X26898Y42181D01*
X26912Y42071D01*
X26955Y41969D01*
X27022Y41881D01*
X27110Y41813D01*
X27156Y41794D01*
X27146Y41744D01*
X22640D01*
X22640Y41744D01*
X22600Y41736D01*
X22566Y41714D01*
X22171Y41319D01*
X22120Y41329D01*
X22040Y41313D01*
X21972Y41268D01*
X21927Y41200D01*
X21911Y41120D01*
X21927Y41040D01*
X21972Y40972D01*
X22040Y40927D01*
X22120Y40911D01*
X22200Y40927D01*
X22268Y40972D01*
X22313Y41040D01*
X22329Y41120D01*
X22319Y41171D01*
X22683Y41536D01*
X27015D01*
X27031Y41488D01*
X27022Y41482D01*
X26955Y41394D01*
X26912Y41291D01*
X26898Y41181D01*
X26912Y41071D01*
X26955Y40969D01*
X27022Y40881D01*
X27110Y40813D01*
X27213Y40771D01*
X27323Y40756D01*
X27433Y40771D01*
X27535Y40813D01*
X27623Y40881D01*
X27691Y40969D01*
X27733Y41071D01*
X27734Y41077D01*
X28020D01*
X28020Y41077D01*
X28060Y41085D01*
X28395D01*
X28425Y41012D01*
X28481Y40938D01*
X28555Y40882D01*
X28640Y40846D01*
X28732Y40834D01*
X28824Y40846D01*
X28897Y40876D01*
X29261Y40513D01*
X29295Y40490D01*
X29301Y40489D01*
X29335Y40482D01*
X29335Y40482D01*
X34136D01*
X34159Y40438D01*
X34147Y40420D01*
X34131Y40340D01*
X34141Y40289D01*
X32937Y39084D01*
X18149D01*
X18125Y39128D01*
X18133Y39140D01*
X18149Y39220D01*
X18148Y39226D01*
X18189Y39276D01*
X22174D01*
X22202Y39232D01*
X22270Y39187D01*
X22350Y39171D01*
X22430Y39187D01*
X22498Y39232D01*
X22543Y39300D01*
X22559Y39380D01*
X22543Y39460D01*
X22498Y39528D01*
X22430Y39573D01*
X22350Y39589D01*
X22270Y39573D01*
X22202Y39528D01*
X22174Y39484D01*
X18100D01*
X18060Y39476D01*
X18026Y39454D01*
X18026Y39454D01*
X17991Y39419D01*
X17940Y39429D01*
X17860Y39413D01*
X17792Y39368D01*
X17747Y39300D01*
X17731Y39220D01*
X17747Y39140D01*
X17755Y39128D01*
X17731Y39084D01*
X17685D01*
X17653Y39123D01*
X17655Y39130D01*
X17639Y39210D01*
X17594Y39278D01*
X17526Y39323D01*
X17472Y39334D01*
X17455Y39388D01*
X17629Y39562D01*
X17629Y39562D01*
X17652Y39596D01*
X17660Y39636D01*
Y44354D01*
X17652Y44394D01*
X17629Y44428D01*
X16498Y45559D01*
X16517Y45606D01*
X17899D01*
X17918Y45587D01*
X17951Y45564D01*
X17991Y45556D01*
X22991D01*
X22991Y45556D01*
X23031Y45564D01*
X23065Y45587D01*
X23493Y46015D01*
X23574Y45981D01*
X23669Y45968D01*
X23765Y45981D01*
X23854Y46018D01*
X23931Y46077D01*
X23990Y46154D01*
X24027Y46243D01*
X24039Y46339D01*
X24027Y46434D01*
X23990Y46524D01*
X23931Y46600D01*
X23854Y46659D01*
X23765Y46696D01*
X23669Y46709D01*
X23574Y46696D01*
X23484Y46659D01*
X23408Y46600D01*
X23349Y46524D01*
X23312Y46434D01*
X23299Y46339D01*
X23312Y46243D01*
X23345Y46162D01*
X22948Y45765D01*
X18035D01*
X18016Y45784D01*
X17982Y45806D01*
X17942Y45814D01*
X17942Y45814D01*
X17000D01*
X16983Y45864D01*
X17074Y45934D01*
X17165Y46053D01*
X17222Y46191D01*
X17241Y46339D01*
X17222Y46487D01*
X17165Y46624D01*
X17074Y46743D01*
X16955Y46834D01*
X16817Y46891D01*
X16669Y46910D01*
X16521Y46891D01*
X16383Y46834D01*
X16265Y46743D01*
X16174Y46624D01*
X16117Y46487D01*
X16097Y46339D01*
X16117Y46191D01*
X16174Y46053D01*
X16265Y45934D01*
X16356Y45864D01*
X16339Y45814D01*
X15558D01*
X15285Y46087D01*
X15318Y46168D01*
X15331Y46264D01*
X15318Y46360D01*
X15281Y46449D01*
X15222Y46525D01*
X15146Y46584D01*
X15056Y46621D01*
X14961Y46634D01*
X14865Y46621D01*
X14776Y46584D01*
X14699Y46525D01*
X14640Y46449D01*
X14607Y46368D01*
X11862D01*
X10536Y47694D01*
Y48280D01*
X9802D01*
Y47694D01*
X9606Y47498D01*
X9584Y47464D01*
X9576Y47424D01*
X9576Y47424D01*
Y30714D01*
X9576Y30714D01*
X9584Y30674D01*
X9606Y30640D01*
X10372Y29874D01*
X10356Y29855D01*
X10295Y29741D01*
X10258Y29617D01*
X10245Y29488D01*
X10258Y29359D01*
X10295Y29235D01*
X10356Y29121D01*
X10438Y29021D01*
X10538Y28939D01*
X10653Y28878D01*
X10777Y28840D01*
X10906Y28828D01*
X11034Y28840D01*
X11158Y28878D01*
X11273Y28939D01*
X11373Y29021D01*
X11455Y29121D01*
X11516Y29235D01*
X11553Y29359D01*
X11566Y29488D01*
X11553Y29617D01*
X11516Y29741D01*
X11455Y29855D01*
X11373Y29955D01*
X11273Y30038D01*
X11158Y30099D01*
X11034Y30136D01*
X10906Y30149D01*
X10777Y30136D01*
X10653Y30099D01*
X10538Y30038D01*
X10519Y30022D01*
X9784Y30757D01*
Y39663D01*
X9831Y39682D01*
X9936Y39576D01*
X9936Y39576D01*
X9959Y39561D01*
X9970Y39554D01*
X10010Y39546D01*
X10010Y39546D01*
X10121D01*
X10133Y39499D01*
X10043Y39462D01*
X9967Y39403D01*
X9908Y39327D01*
X9871Y39238D01*
X9858Y39142D01*
X9871Y39046D01*
X9908Y38957D01*
X9967Y38880D01*
X10043Y38821D01*
X10133Y38784D01*
X10228Y38772D01*
X10324Y38784D01*
X10405Y38818D01*
X10546Y38676D01*
X10549Y38672D01*
X10551Y38618D01*
X10548Y38609D01*
X10405Y38466D01*
X10324Y38499D01*
X10228Y38512D01*
X10133Y38499D01*
X10043Y38462D01*
X9967Y38403D01*
X9908Y38327D01*
X9871Y38238D01*
X9858Y38142D01*
X9871Y38046D01*
X9908Y37957D01*
X9967Y37880D01*
X10043Y37821D01*
X10133Y37784D01*
X10228Y37772D01*
X10324Y37784D01*
X10413Y37821D01*
X10490Y37880D01*
X10549Y37957D01*
X10586Y38046D01*
X10598Y38142D01*
X10586Y38238D01*
X10552Y38318D01*
X10690Y38456D01*
X12508D01*
X16510Y34454D01*
Y34406D01*
X16460Y34380D01*
X16440Y34393D01*
X16360Y34409D01*
X16280Y34393D01*
X16212Y34348D01*
X16184Y34304D01*
X11750D01*
X11750Y34304D01*
X11717Y34298D01*
X11710Y34296D01*
X11676Y34274D01*
X11676Y34274D01*
X10871Y33469D01*
X10848Y33435D01*
X10841Y33395D01*
X10841Y33395D01*
Y33013D01*
X10816Y33010D01*
X10692Y32973D01*
X10578Y32912D01*
X10478Y32829D01*
X10396Y32729D01*
X10335Y32615D01*
X10297Y32491D01*
X10284Y32362D01*
X10297Y32233D01*
X10335Y32109D01*
X10396Y31995D01*
X10478Y31895D01*
X10578Y31813D01*
X10692Y31752D01*
X10816Y31714D01*
X10945Y31702D01*
X11074Y31714D01*
X11198Y31752D01*
X11312Y31813D01*
X11412Y31895D01*
X11494Y31995D01*
X11555Y32109D01*
X11593Y32233D01*
X11606Y32362D01*
X11593Y32491D01*
X11555Y32615D01*
X11494Y32729D01*
X11412Y32829D01*
X11312Y32912D01*
X11198Y32973D01*
X11074Y33010D01*
X11049Y33013D01*
Y33352D01*
X11793Y34096D01*
X16184D01*
X16212Y34052D01*
X16256Y34024D01*
Y34010D01*
X16256Y34010D01*
X16264Y33970D01*
X16286Y33936D01*
X17188Y33035D01*
X17155Y32997D01*
X17102Y33037D01*
X17000Y33080D01*
X16890Y33094D01*
X16780Y33080D01*
X16677Y33037D01*
X16589Y32970D01*
X16522Y32882D01*
X16479Y32779D01*
X16465Y32669D01*
X16479Y32559D01*
X16522Y32457D01*
X16589Y32369D01*
X16677Y32301D01*
X16718Y32284D01*
X16708Y32234D01*
X15263D01*
X14164Y33334D01*
X14130Y33356D01*
X14090Y33364D01*
X14090Y33364D01*
X11986D01*
X11958Y33408D01*
X11890Y33453D01*
X11810Y33469D01*
X11730Y33453D01*
X11662Y33408D01*
X11617Y33340D01*
X11601Y33260D01*
X11617Y33180D01*
X11662Y33112D01*
X11730Y33067D01*
X11810Y33051D01*
X11890Y33067D01*
X11958Y33112D01*
X11986Y33156D01*
X14047D01*
X15146Y32056D01*
X15146Y32056D01*
X15180Y32034D01*
X15220Y32026D01*
X16584D01*
X16600Y31978D01*
X16589Y31970D01*
X16522Y31882D01*
X16479Y31779D01*
X16465Y31669D01*
X16479Y31559D01*
X16522Y31457D01*
X16589Y31369D01*
X16677Y31301D01*
X16718Y31284D01*
X16708Y31234D01*
X15680D01*
X15640Y31226D01*
X15606Y31204D01*
X15606Y31204D01*
X15356Y30954D01*
X15334Y30920D01*
X15326Y30880D01*
X15326Y30880D01*
Y30376D01*
X15326Y30376D01*
X15334Y30336D01*
X15356Y30302D01*
X15606Y30052D01*
X15606Y30052D01*
X15640Y30030D01*
X15680Y30022D01*
X16254D01*
X16326Y29121D01*
X16330Y29105D01*
X16334Y29089D01*
X16336Y29086D01*
X16337Y29082D01*
X16347Y29069D01*
X16356Y29055D01*
X16525Y28886D01*
X16522Y28882D01*
X16479Y28779D01*
X16465Y28669D01*
X16479Y28559D01*
X16522Y28457D01*
X16589Y28369D01*
X16677Y28301D01*
X16780Y28259D01*
X16890Y28244D01*
X17000Y28259D01*
X17102Y28301D01*
X17190Y28369D01*
X17258Y28457D01*
X17300Y28559D01*
X17315Y28669D01*
X17300Y28779D01*
X17258Y28882D01*
X17190Y28970D01*
X17102Y29037D01*
X17000Y29080D01*
X16890Y29094D01*
X16780Y29080D01*
X16677Y29037D01*
X16673Y29034D01*
X16531Y29176D01*
X16514Y29385D01*
X16563Y29403D01*
X16589Y29369D01*
X16677Y29301D01*
X16780Y29259D01*
X16890Y29244D01*
X17000Y29259D01*
X17102Y29301D01*
X17190Y29369D01*
X17258Y29457D01*
X17300Y29559D01*
X17301Y29565D01*
X24014D01*
X24042Y29522D01*
X24110Y29477D01*
X24190Y29461D01*
X24270Y29477D01*
X24338Y29522D01*
X24383Y29590D01*
X24399Y29670D01*
X24383Y29750D01*
X24338Y29818D01*
X24270Y29863D01*
X24190Y29879D01*
X24110Y29863D01*
X24042Y29818D01*
X24013Y29774D01*
X17301D01*
X17300Y29779D01*
X17258Y29882D01*
X17190Y29970D01*
X17102Y30037D01*
X17000Y30080D01*
X16890Y30094D01*
X16780Y30080D01*
X16677Y30037D01*
X16589Y29970D01*
X16524Y29885D01*
X16507Y29884D01*
X16474Y29889D01*
X16454Y30134D01*
X16450Y30150D01*
X16446Y30166D01*
X16444Y30169D01*
X16443Y30174D01*
X16433Y30186D01*
X16424Y30200D01*
X16420Y30202D01*
X16418Y30205D01*
X16403Y30213D01*
X16390Y30222D01*
X16386Y30223D01*
X16382Y30225D01*
X16366Y30227D01*
X16350Y30230D01*
X15723D01*
X15534Y30419D01*
Y30837D01*
X15723Y31026D01*
X16584D01*
X16600Y30978D01*
X16589Y30970D01*
X16522Y30882D01*
X16479Y30779D01*
X16465Y30669D01*
X16479Y30559D01*
X16522Y30457D01*
X16589Y30369D01*
X16677Y30301D01*
X16780Y30259D01*
X16890Y30244D01*
X17000Y30259D01*
X17102Y30301D01*
X17190Y30369D01*
X17258Y30457D01*
X17300Y30559D01*
X17302Y30571D01*
X17310Y30573D01*
X17311Y30574D01*
X17312Y30574D01*
X17328Y30585D01*
X17344Y30596D01*
X17345Y30597D01*
X17346Y30597D01*
X17794Y31070D01*
X17840Y31061D01*
X17920Y31077D01*
X17988Y31122D01*
X18033Y31190D01*
X18049Y31270D01*
X18033Y31350D01*
X17988Y31418D01*
X17920Y31463D01*
X17840Y31479D01*
X17760Y31463D01*
X17692Y31418D01*
X17647Y31350D01*
X17631Y31270D01*
X17643Y31213D01*
X17311Y30864D01*
X17261Y30873D01*
X17258Y30882D01*
X17190Y30970D01*
X17170Y30985D01*
X17168Y30996D01*
X17176Y31044D01*
X17194Y31056D01*
X17749Y31611D01*
X17800Y31601D01*
X17880Y31617D01*
X17948Y31662D01*
X17993Y31730D01*
X18009Y31810D01*
X18006Y31826D01*
X18052Y31851D01*
X18105Y31797D01*
Y31432D01*
X18105Y31432D01*
X18113Y31392D01*
X18136Y31358D01*
X18435Y31059D01*
X18425Y31008D01*
X18441Y30928D01*
X18486Y30860D01*
X18554Y30815D01*
X18634Y30799D01*
X18713Y30815D01*
X18781Y30860D01*
X18826Y30928D01*
X18842Y31008D01*
X18826Y31088D01*
X18781Y31155D01*
X18713Y31201D01*
X18634Y31217D01*
X18583Y31206D01*
X18314Y31475D01*
Y31790D01*
X18364Y31814D01*
X18369Y31810D01*
X18366Y31795D01*
X18382Y31715D01*
X18427Y31647D01*
X18495Y31602D01*
X18575Y31586D01*
X18655Y31602D01*
X18723Y31647D01*
X18768Y31715D01*
X18784Y31795D01*
X18774Y31844D01*
X18820Y31869D01*
X20287Y30402D01*
X20287Y30402D01*
X20321Y30379D01*
X20361Y30371D01*
X28247D01*
X28247Y30371D01*
X28287Y30379D01*
X28321Y30402D01*
X28611Y30692D01*
X28692Y30658D01*
X28787Y30646D01*
X28883Y30658D01*
X28972Y30695D01*
X29049Y30754D01*
X29108Y30831D01*
X29145Y30920D01*
X29157Y31016D01*
X29145Y31112D01*
X29108Y31201D01*
X29049Y31277D01*
X29025Y31296D01*
X29042Y31346D01*
X31767D01*
X33139Y29973D01*
X33136Y29968D01*
X33094Y29866D01*
X33079Y29756D01*
X33094Y29646D01*
X33136Y29543D01*
X33203Y29455D01*
X33291Y29388D01*
X33394Y29345D01*
X33504Y29331D01*
X33614Y29345D01*
X33716Y29388D01*
X33804Y29455D01*
X33872Y29543D01*
X33914Y29646D01*
X33929Y29756D01*
X33914Y29866D01*
X33872Y29968D01*
X33804Y30056D01*
X33789Y30068D01*
X33805Y30116D01*
X33997D01*
X34139Y29973D01*
X34136Y29968D01*
X34094Y29866D01*
X34079Y29756D01*
X34094Y29646D01*
X34136Y29543D01*
X34203Y29455D01*
X34291Y29388D01*
X34394Y29345D01*
X34504Y29331D01*
X34614Y29345D01*
X34716Y29388D01*
X34804Y29455D01*
X34872Y29543D01*
X34914Y29646D01*
X34929Y29756D01*
X34914Y29866D01*
X34872Y29968D01*
X34868Y29973D01*
X43004Y38108D01*
X43004Y38108D01*
X43026Y38142D01*
X43034Y38182D01*
Y40736D01*
X43034Y40736D01*
X43026Y40776D01*
X43004Y40810D01*
X42634Y41180D01*
X42600Y41203D01*
X42560Y41211D01*
X42560Y41211D01*
X41141D01*
X41108Y41291D01*
X41049Y41368D01*
X40972Y41427D01*
X40883Y41464D01*
X40787Y41476D01*
X40692Y41464D01*
X40602Y41427D01*
X40526Y41368D01*
X40467Y41291D01*
X40430Y41202D01*
X40417Y41106D01*
X40430Y41011D01*
X40467Y40921D01*
X40526Y40845D01*
X40602Y40786D01*
X40692Y40749D01*
X40787Y40736D01*
X40883Y40749D01*
X40972Y40786D01*
X41049Y40845D01*
X41108Y40921D01*
X41141Y41002D01*
X42517D01*
X42668Y40850D01*
X42640Y40808D01*
X42615Y40818D01*
X42520Y40831D01*
X42424Y40818D01*
X42335Y40781D01*
X42258Y40722D01*
X42199Y40646D01*
X42162Y40556D01*
X42150Y40461D01*
X42162Y40365D01*
X42199Y40276D01*
X42258Y40199D01*
X42335Y40140D01*
X42424Y40103D01*
X42520Y40091D01*
X42615Y40103D01*
X42705Y40140D01*
X42776Y40195D01*
X42826Y40183D01*
Y39828D01*
X42153D01*
Y39565D01*
X38833D01*
X37824Y40574D01*
X37843Y40620D01*
X38542D01*
X38566Y40596D01*
X38566Y40596D01*
X38600Y40574D01*
X38640Y40566D01*
X39360D01*
X39360Y40566D01*
X39400Y40574D01*
X39434Y40596D01*
X40524Y41686D01*
X40524Y41686D01*
X40546Y41720D01*
X40548Y41727D01*
X40554Y41760D01*
X40554Y41760D01*
Y43500D01*
X40546Y43540D01*
X40524Y43574D01*
X40524Y43574D01*
X39606Y44491D01*
X39573Y44514D01*
X39533Y44522D01*
X39533Y44522D01*
X38834D01*
X38795Y44615D01*
X38732Y44697D01*
X38650Y44760D01*
X38555Y44799D01*
X38453Y44813D01*
X38350Y44799D01*
X38255Y44760D01*
X38173Y44697D01*
X38170Y44692D01*
X38122Y44708D01*
Y45126D01*
X38170Y45142D01*
X38173Y45138D01*
X38255Y45075D01*
X38350Y45035D01*
X38453Y45022D01*
X38555Y45035D01*
X38650Y45075D01*
X38732Y45138D01*
X38795Y45220D01*
X38835Y45315D01*
X38848Y45417D01*
X38835Y45520D01*
X38795Y45615D01*
X38732Y45697D01*
X38650Y45760D01*
X38555Y45799D01*
X38453Y45813D01*
X38350Y45799D01*
X38255Y45760D01*
X38160Y45855D01*
X38154Y45864D01*
X37830Y46188D01*
X37831Y46191D01*
X37887Y46205D01*
X38186Y45906D01*
X38186Y45906D01*
X38220Y45884D01*
X38260Y45876D01*
X38720D01*
X38720Y45876D01*
X38760Y45884D01*
X38794Y45906D01*
X38964Y46076D01*
X38964Y46076D01*
X38986Y46110D01*
X38994Y46150D01*
Y46980D01*
X38994Y46980D01*
X38988Y47013D01*
X38986Y47020D01*
X38964Y47054D01*
X38964Y47054D01*
X38796Y47222D01*
X38835Y47315D01*
X38848Y47417D01*
X38835Y47520D01*
X38795Y47615D01*
X38732Y47697D01*
X38650Y47760D01*
X38555Y47799D01*
X38453Y47813D01*
X38350Y47799D01*
X38255Y47760D01*
X38173Y47697D01*
X38114Y47620D01*
X38097Y47621D01*
X38064Y47634D01*
Y48200D01*
X38097Y48214D01*
X38114Y48215D01*
X38173Y48138D01*
X38255Y48075D01*
X38350Y48035D01*
X38453Y48022D01*
X38555Y48035D01*
X38650Y48075D01*
X38732Y48138D01*
X38795Y48220D01*
X38835Y48315D01*
X38848Y48417D01*
X38835Y48520D01*
X38795Y48615D01*
X38732Y48697D01*
X38650Y48760D01*
X38555Y48799D01*
X38453Y48813D01*
X38350Y48799D01*
X38257Y48761D01*
X37954Y49064D01*
X37920Y49086D01*
X37880Y49094D01*
X37880Y49094D01*
X37749D01*
X37737Y49144D01*
X37795Y49220D01*
X37835Y49315D01*
X37848Y49417D01*
X37835Y49520D01*
X37795Y49615D01*
X37732Y49697D01*
X37650Y49760D01*
X37636Y49766D01*
X37646Y49816D01*
X37907D01*
X38110Y49613D01*
X38071Y49520D01*
X38057Y49417D01*
X38071Y49315D01*
X38110Y49220D01*
X38173Y49138D01*
X38255Y49075D01*
X38350Y49035D01*
X38453Y49022D01*
X38555Y49035D01*
X38650Y49075D01*
X38732Y49138D01*
X38795Y49220D01*
X38835Y49315D01*
X38848Y49417D01*
X38835Y49520D01*
X38795Y49615D01*
X38732Y49697D01*
X38650Y49760D01*
X38555Y49799D01*
X38453Y49813D01*
X38350Y49799D01*
X38257Y49761D01*
X38024Y49994D01*
X37990Y50016D01*
X37950Y50024D01*
X37950Y50024D01*
X37659D01*
X37649Y50074D01*
X37650Y50075D01*
X37732Y50138D01*
X37795Y50220D01*
X37835Y50315D01*
X37848Y50417D01*
X37845Y50442D01*
X37892Y50466D01*
X38014Y50344D01*
X38014Y50344D01*
X38048Y50321D01*
X38071Y50316D01*
X38071Y50315D01*
X38110Y50220D01*
X38173Y50138D01*
X38255Y50075D01*
X38350Y50035D01*
X38453Y50022D01*
X38555Y50035D01*
X38650Y50075D01*
X38732Y50138D01*
X38795Y50220D01*
X38835Y50315D01*
X38848Y50417D01*
X38835Y50520D01*
X38795Y50615D01*
X38732Y50697D01*
X38650Y50760D01*
X38555Y50799D01*
X38453Y50813D01*
X38350Y50799D01*
X38255Y50760D01*
X38173Y50697D01*
X38110Y50615D01*
X38106Y50605D01*
X38057Y50596D01*
X37555Y51098D01*
X37581Y51141D01*
X37628Y51127D01*
X37795Y51110D01*
X37963Y51127D01*
X38124Y51175D01*
X38272Y51255D01*
X38402Y51361D01*
X38509Y51492D01*
X38588Y51640D01*
X38637Y51801D01*
X38654Y51968D01*
X38637Y52136D01*
X38588Y52297D01*
X38509Y52445D01*
X38402Y52576D01*
X38272Y52682D01*
X38124Y52762D01*
X37963Y52810D01*
X37795Y52827D01*
X37628Y52810D01*
X37467Y52762D01*
X37318Y52682D01*
X37188Y52576D01*
X37081Y52445D01*
X37002Y52297D01*
X36953Y52136D01*
X36937Y51968D01*
X36953Y51801D01*
X36968Y51754D01*
X36925Y51728D01*
X36794Y51859D01*
Y52480D01*
X36794Y52480D01*
X36788Y52513D01*
X36786Y52520D01*
X36764Y52554D01*
X36764Y52554D01*
X36564Y52754D01*
X36530Y52776D01*
X36490Y52784D01*
X36490Y52784D01*
X36320D01*
X36303Y52834D01*
X36363Y52881D01*
X36431Y52969D01*
X36473Y53071D01*
X36488Y53181D01*
X36473Y53291D01*
X36431Y53394D01*
X36363Y53482D01*
X36275Y53549D01*
X36173Y53592D01*
X36063Y53606D01*
X35953Y53592D01*
X35851Y53549D01*
X35763Y53482D01*
X35695Y53394D01*
X35653Y53291D01*
X35652Y53285D01*
X35430D01*
X35390Y53293D01*
X35390Y53293D01*
X35070D01*
X35040Y53366D01*
X34983Y53440D01*
X34910Y53496D01*
X34824Y53532D01*
X34732Y53544D01*
X34640Y53532D01*
X34555Y53496D01*
X34481Y53440D01*
X34425Y53366D01*
X34389Y53281D01*
X34377Y53189D01*
X34389Y53097D01*
X34425Y53011D01*
X34481Y52938D01*
X34555Y52882D01*
X34640Y52846D01*
X34732Y52834D01*
X34824Y52846D01*
X34910Y52882D01*
X34983Y52938D01*
X35040Y53011D01*
X35070Y53085D01*
X35358D01*
X35398Y53077D01*
X35398Y53077D01*
X35652D01*
X35653Y53071D01*
X35695Y52969D01*
X35763Y52881D01*
X35823Y52834D01*
X35806Y52784D01*
X30691D01*
X30451Y53024D01*
X30481Y53097D01*
X30493Y53189D01*
X30481Y53281D01*
X30446Y53366D01*
X30389Y53440D01*
X30316Y53496D01*
X30230Y53532D01*
X30138Y53544D01*
X30046Y53532D01*
X29961Y53496D01*
X29887Y53440D01*
X29831Y53366D01*
X29795Y53281D01*
X29783Y53189D01*
X29795Y53097D01*
X29831Y53011D01*
X29887Y52938D01*
X29961Y52882D01*
X30046Y52846D01*
X30138Y52834D01*
X30230Y52846D01*
X30303Y52876D01*
X30574Y52606D01*
X30574Y52606D01*
X30607Y52584D01*
X30647Y52576D01*
X32222D01*
X32231Y52526D01*
X32161Y52496D01*
X32087Y52440D01*
X32031Y52366D01*
X31995Y52281D01*
X31983Y52189D01*
X31995Y52097D01*
X32031Y52011D01*
X32087Y51938D01*
X32161Y51882D01*
X32246Y51846D01*
X32338Y51834D01*
X32430Y51846D01*
X32516Y51882D01*
X32589Y51938D01*
X32646Y52011D01*
X32681Y52097D01*
X32693Y52189D01*
X32681Y52281D01*
X32646Y52366D01*
X32589Y52440D01*
X32516Y52496D01*
X32445Y52526D01*
X32455Y52576D01*
X34615D01*
X34625Y52526D01*
X34555Y52496D01*
X34481Y52440D01*
X34425Y52366D01*
X34389Y52281D01*
X34377Y52189D01*
X34389Y52097D01*
X34425Y52011D01*
X34481Y51938D01*
X34555Y51882D01*
X34640Y51846D01*
X34732Y51834D01*
X34824Y51846D01*
X34910Y51882D01*
X34983Y51938D01*
X35040Y52011D01*
X35070Y52085D01*
X35358D01*
X35398Y52077D01*
X35398Y52077D01*
X35652D01*
X35653Y52071D01*
X35695Y51969D01*
X35763Y51881D01*
X35823Y51834D01*
X35806Y51784D01*
X30691D01*
X30451Y52024D01*
X30481Y52097D01*
X30493Y52189D01*
X30481Y52281D01*
X30446Y52366D01*
X30389Y52440D01*
X30316Y52496D01*
X30230Y52532D01*
X30138Y52544D01*
X30046Y52532D01*
X29961Y52496D01*
X29887Y52440D01*
X29831Y52366D01*
X29795Y52281D01*
X29783Y52189D01*
X29795Y52097D01*
X29831Y52011D01*
X29887Y51938D01*
X29961Y51882D01*
X30046Y51846D01*
X30138Y51834D01*
X30230Y51846D01*
X30303Y51876D01*
X30574Y51606D01*
X30574Y51606D01*
X30607Y51584D01*
X30647Y51576D01*
X32222D01*
X32231Y51526D01*
X32161Y51496D01*
X32087Y51440D01*
X32031Y51366D01*
X31995Y51281D01*
X31983Y51189D01*
X31995Y51097D01*
X32031Y51012D01*
X32087Y50938D01*
X32161Y50882D01*
X32246Y50846D01*
X32338Y50834D01*
X32430Y50846D01*
X32516Y50882D01*
X32589Y50938D01*
X32646Y51012D01*
X32681Y51097D01*
X32693Y51189D01*
X32681Y51281D01*
X32646Y51366D01*
X32589Y51440D01*
X32516Y51496D01*
X32445Y51526D01*
X32455Y51576D01*
X34615D01*
X34625Y51526D01*
X34555Y51496D01*
X34481Y51440D01*
X34425Y51366D01*
X34389Y51281D01*
X34377Y51189D01*
X34389Y51097D01*
X34425Y51012D01*
X34481Y50938D01*
X34555Y50882D01*
X34640Y50846D01*
X34732Y50834D01*
X34824Y50846D01*
X34910Y50882D01*
X34983Y50938D01*
X35040Y51012D01*
X35070Y51085D01*
X35358D01*
X35398Y51077D01*
X35398Y51077D01*
X35652D01*
X35653Y51071D01*
X35695Y50969D01*
X35763Y50881D01*
X35851Y50813D01*
X35896Y50794D01*
X35886Y50744D01*
X32789D01*
X32789Y50744D01*
X32756Y50738D01*
X32749Y50736D01*
X32716Y50714D01*
X32716Y50714D01*
X32503Y50502D01*
X32430Y50532D01*
X32338Y50544D01*
X32246Y50532D01*
X32161Y50496D01*
X32087Y50440D01*
X32031Y50366D01*
X31995Y50281D01*
X31983Y50189D01*
X31995Y50097D01*
X32031Y50012D01*
X32087Y49938D01*
X32161Y49882D01*
X32192Y49869D01*
X32182Y49819D01*
X31656D01*
X30451Y51024D01*
X30481Y51097D01*
X30493Y51189D01*
X30481Y51281D01*
X30446Y51366D01*
X30389Y51440D01*
X30316Y51496D01*
X30230Y51532D01*
X30138Y51544D01*
X30046Y51532D01*
X29961Y51496D01*
X29887Y51440D01*
X29831Y51366D01*
X29795Y51281D01*
X29783Y51189D01*
X29795Y51097D01*
X29831Y51012D01*
X29887Y50938D01*
X29961Y50882D01*
X30046Y50846D01*
X30060Y50844D01*
X30056Y50794D01*
X28814D01*
X28811Y50844D01*
X28824Y50846D01*
X28910Y50882D01*
X28983Y50938D01*
X29040Y51012D01*
X29075Y51097D01*
X29087Y51189D01*
X29075Y51281D01*
X29040Y51366D01*
X28983Y51440D01*
X28910Y51496D01*
X28824Y51532D01*
X28732Y51544D01*
X28640Y51532D01*
X28555Y51496D01*
X28481Y51440D01*
X28425Y51366D01*
X28395Y51293D01*
X28028D01*
X28028Y51293D01*
X27988Y51285D01*
X27734D01*
X27733Y51291D01*
X27691Y51394D01*
X27623Y51482D01*
X27535Y51549D01*
X27433Y51592D01*
X27323Y51606D01*
X27213Y51592D01*
X27110Y51549D01*
X27022Y51482D01*
X26955Y51394D01*
X26912Y51291D01*
X26898Y51181D01*
X26912Y51071D01*
X26955Y50969D01*
X27022Y50881D01*
X27070Y50844D01*
X27053Y50794D01*
X23377D01*
X19111Y55060D01*
X19145Y55140D01*
X19157Y55236D01*
X19145Y55332D01*
X19108Y55421D01*
X19049Y55498D01*
X18972Y55557D01*
X18883Y55594D01*
X18787Y55606D01*
D02*
G37*
G36*
X15039Y51988D02*
X14944Y51976D01*
X14854Y51939D01*
X14778Y51880D01*
X14719Y51803D01*
X14682Y51714D01*
X14669Y51618D01*
X14682Y51522D01*
X14719Y51433D01*
X14778Y51356D01*
X14854Y51298D01*
X14944Y51261D01*
X15039Y51248D01*
X15135Y51261D01*
X15224Y51298D01*
X15301Y51356D01*
X15360Y51433D01*
X15397Y51522D01*
X15409Y51618D01*
X15397Y51714D01*
X15360Y51803D01*
X15301Y51880D01*
X15224Y51939D01*
X15135Y51976D01*
X15039Y51988D01*
D02*
G37*
G36*
X33504Y26181D02*
X33394Y26166D01*
X33291Y26124D01*
X33203Y26056D01*
X33136Y25968D01*
X33094Y25866D01*
X33079Y25756D01*
X33094Y25646D01*
X33136Y25543D01*
X33203Y25455D01*
X33291Y25388D01*
X33394Y25345D01*
X33504Y25331D01*
X33614Y25345D01*
X33716Y25388D01*
X33804Y25455D01*
X33872Y25543D01*
X33914Y25646D01*
X33929Y25756D01*
X33914Y25866D01*
X33872Y25968D01*
X33804Y26056D01*
X33716Y26124D01*
X33614Y26166D01*
X33504Y26181D01*
D02*
G37*
G36*
X17311Y26091D02*
X16468D01*
Y25248D01*
X17311D01*
Y26091D01*
D02*
G37*
G36*
X13583Y51004D02*
X13487Y50991D01*
X13398Y50954D01*
X13321Y50896D01*
X13262Y50819D01*
X13225Y50730D01*
X13213Y50634D01*
X13225Y50538D01*
X13262Y50449D01*
X13321Y50372D01*
X13398Y50313D01*
X13487Y50276D01*
X13583Y50264D01*
X13678Y50276D01*
X13768Y50313D01*
X13844Y50372D01*
X13903Y50449D01*
X13940Y50538D01*
X13953Y50634D01*
X13940Y50730D01*
X13903Y50819D01*
X13844Y50896D01*
X13768Y50954D01*
X13678Y50991D01*
X13583Y51004D01*
D02*
G37*
G36*
X12598Y52827D02*
X12431Y52810D01*
X12270Y52762D01*
X12121Y52682D01*
X11991Y52576D01*
X11885Y52445D01*
X11805Y52297D01*
X11756Y52136D01*
X11740Y51968D01*
X11756Y51801D01*
X11805Y51640D01*
X11885Y51492D01*
X11991Y51361D01*
X12121Y51255D01*
X12270Y51175D01*
X12431Y51127D01*
X12598Y51110D01*
X12766Y51127D01*
X12927Y51175D01*
X13075Y51255D01*
X13205Y51361D01*
X13312Y51492D01*
X13392Y51640D01*
X13440Y51801D01*
X13457Y51968D01*
X13440Y52136D01*
X13392Y52297D01*
X13312Y52445D01*
X13205Y52576D01*
X13075Y52682D01*
X12927Y52762D01*
X12766Y52810D01*
X12598Y52827D01*
D02*
G37*
G36*
X27323Y52606D02*
X27213Y52592D01*
X27110Y52549D01*
X27022Y52482D01*
X26955Y52394D01*
X26912Y52291D01*
X26898Y52181D01*
X26912Y52071D01*
X26955Y51969D01*
X27022Y51881D01*
X27110Y51813D01*
X27213Y51771D01*
X27323Y51756D01*
X27433Y51771D01*
X27535Y51813D01*
X27623Y51881D01*
X27691Y51969D01*
X27733Y52071D01*
X27734Y52077D01*
X28020D01*
X28020Y52077D01*
X28060Y52085D01*
X28395D01*
X28425Y52011D01*
X28481Y51938D01*
X28555Y51882D01*
X28640Y51846D01*
X28732Y51834D01*
X28824Y51846D01*
X28910Y51882D01*
X28983Y51938D01*
X29040Y52011D01*
X29075Y52097D01*
X29087Y52189D01*
X29075Y52281D01*
X29040Y52366D01*
X28983Y52440D01*
X28910Y52496D01*
X28824Y52532D01*
X28732Y52544D01*
X28640Y52532D01*
X28555Y52496D01*
X28481Y52440D01*
X28425Y52366D01*
X28395Y52293D01*
X28028D01*
X28028Y52293D01*
X27988Y52285D01*
X27734D01*
X27733Y52291D01*
X27691Y52394D01*
X27623Y52482D01*
X27535Y52549D01*
X27433Y52592D01*
X27323Y52606D01*
D02*
G37*
G36*
X32338Y53544D02*
X32246Y53532D01*
X32161Y53496D01*
X32087Y53440D01*
X32031Y53366D01*
X31995Y53281D01*
X31983Y53189D01*
X31995Y53097D01*
X32031Y53011D01*
X32087Y52938D01*
X32161Y52882D01*
X32246Y52846D01*
X32338Y52834D01*
X32430Y52846D01*
X32516Y52882D01*
X32589Y52938D01*
X32646Y53011D01*
X32681Y53097D01*
X32693Y53189D01*
X32681Y53281D01*
X32646Y53366D01*
X32589Y53440D01*
X32516Y53496D01*
X32430Y53532D01*
X32338Y53544D01*
D02*
G37*
G36*
X27323Y54606D02*
X27213Y54592D01*
X27110Y54549D01*
X27022Y54482D01*
X26955Y54394D01*
X26912Y54291D01*
X26898Y54181D01*
X26912Y54071D01*
X26955Y53969D01*
X27022Y53881D01*
X27110Y53813D01*
X27213Y53771D01*
X27323Y53756D01*
X27433Y53771D01*
X27535Y53813D01*
X27623Y53881D01*
X27691Y53969D01*
X27733Y54071D01*
X27734Y54077D01*
X28020D01*
X28020Y54077D01*
X28060Y54085D01*
X28395D01*
X28425Y54012D01*
X28481Y53938D01*
X28555Y53882D01*
X28640Y53846D01*
X28732Y53834D01*
X28824Y53846D01*
X28910Y53882D01*
X28983Y53938D01*
X29040Y54012D01*
X29075Y54097D01*
X29087Y54189D01*
X29075Y54281D01*
X29040Y54366D01*
X28983Y54440D01*
X28910Y54496D01*
X28824Y54532D01*
X28732Y54544D01*
X28640Y54532D01*
X28555Y54496D01*
X28481Y54440D01*
X28425Y54366D01*
X28395Y54293D01*
X28028D01*
X28028Y54293D01*
X27988Y54285D01*
X27734D01*
X27733Y54291D01*
X27691Y54394D01*
X27623Y54482D01*
X27535Y54549D01*
X27433Y54592D01*
X27323Y54606D01*
D02*
G37*
G36*
X29738Y54544D02*
X29646Y54532D01*
X29561Y54496D01*
X29487Y54440D01*
X29431Y54366D01*
X29395Y54281D01*
X29383Y54189D01*
X29395Y54097D01*
X29431Y54012D01*
X29487Y53938D01*
X29561Y53882D01*
X29646Y53846D01*
X29738Y53834D01*
X29830Y53846D01*
X29916Y53882D01*
X29989Y53938D01*
X30046Y54012D01*
X30081Y54097D01*
X30093Y54189D01*
X30081Y54281D01*
X30046Y54366D01*
X29989Y54440D01*
X29916Y54496D01*
X29830Y54532D01*
X29738Y54544D01*
D02*
G37*
G36*
X34504Y26181D02*
X34394Y26166D01*
X34291Y26124D01*
X34203Y26056D01*
X34136Y25968D01*
X34094Y25866D01*
X34079Y25756D01*
X34094Y25646D01*
X34136Y25543D01*
X34203Y25455D01*
X34291Y25388D01*
X34394Y25345D01*
X34504Y25331D01*
X34614Y25345D01*
X34716Y25388D01*
X34804Y25455D01*
X34872Y25543D01*
X34914Y25646D01*
X34929Y25756D01*
X34914Y25866D01*
X34872Y25968D01*
X34804Y26056D01*
X34716Y26124D01*
X34614Y26166D01*
X34504Y26181D01*
D02*
G37*
G36*
X12598Y27236D02*
X12431Y27220D01*
X12270Y27171D01*
X12121Y27092D01*
X11991Y26985D01*
X11885Y26855D01*
X11805Y26706D01*
X11756Y26545D01*
X11740Y26378D01*
X11756Y26210D01*
X11805Y26049D01*
X11885Y25901D01*
X11991Y25771D01*
X12121Y25664D01*
X12270Y25585D01*
X12431Y25536D01*
X12598Y25519D01*
X12766Y25536D01*
X12927Y25585D01*
X13075Y25664D01*
X13205Y25771D01*
X13312Y25901D01*
X13392Y26049D01*
X13440Y26210D01*
X13457Y26378D01*
X13440Y26545D01*
X13392Y26706D01*
X13312Y26855D01*
X13205Y26985D01*
X13075Y27092D01*
X12927Y27171D01*
X12766Y27220D01*
X12598Y27236D01*
D02*
G37*
G36*
X27323Y53606D02*
X27213Y53592D01*
X27110Y53549D01*
X27022Y53482D01*
X26955Y53394D01*
X26912Y53291D01*
X26898Y53181D01*
X26912Y53071D01*
X26955Y52969D01*
X27022Y52881D01*
X27110Y52813D01*
X27213Y52771D01*
X27323Y52756D01*
X27433Y52771D01*
X27535Y52813D01*
X27623Y52881D01*
X27691Y52969D01*
X27733Y53071D01*
X27734Y53077D01*
X28020D01*
X28020Y53077D01*
X28060Y53085D01*
X28395D01*
X28425Y53011D01*
X28481Y52938D01*
X28555Y52882D01*
X28640Y52846D01*
X28732Y52834D01*
X28824Y52846D01*
X28910Y52882D01*
X28983Y52938D01*
X29040Y53011D01*
X29075Y53097D01*
X29087Y53189D01*
X29075Y53281D01*
X29040Y53366D01*
X28983Y53440D01*
X28910Y53496D01*
X28824Y53532D01*
X28732Y53544D01*
X28640Y53532D01*
X28555Y53496D01*
X28481Y53440D01*
X28425Y53366D01*
X28395Y53293D01*
X28028D01*
X28028Y53293D01*
X27988Y53285D01*
X27734D01*
X27733Y53291D01*
X27691Y53394D01*
X27623Y53482D01*
X27535Y53549D01*
X27433Y53592D01*
X27323Y53606D01*
D02*
G37*
%LPD*%
G36*
X24381Y37130D02*
X24397Y37050D01*
X24442Y36982D01*
X24510Y36937D01*
X24590Y36921D01*
X24670Y36937D01*
X24738Y36982D01*
X24783Y37050D01*
X24794Y37107D01*
X24847Y37126D01*
X25015Y36957D01*
Y36480D01*
X25015Y36480D01*
X25023Y36440D01*
X25046Y36406D01*
X25162Y36291D01*
X25143Y36244D01*
X24953D01*
X24554Y36644D01*
X24520Y36666D01*
X24480Y36674D01*
X24480Y36674D01*
X21116D01*
X21088Y36718D01*
X21020Y36763D01*
X20940Y36779D01*
X20860Y36763D01*
X20792Y36718D01*
X20747Y36650D01*
X20731Y36570D01*
X20740Y36524D01*
X20702Y36474D01*
X20413D01*
X20384Y36518D01*
X20316Y36563D01*
X20236Y36579D01*
X20156Y36563D01*
X20089Y36518D01*
X20043Y36450D01*
X20027Y36370D01*
X20043Y36290D01*
X20058Y36268D01*
X20034Y36224D01*
X19883D01*
X19395Y36712D01*
Y37022D01*
X19395Y37023D01*
X19387Y37062D01*
X19365Y37096D01*
X19360Y37101D01*
X19379Y37147D01*
X24368D01*
X24381Y37130D01*
D02*
G37*
G36*
X21747Y35716D02*
X21740Y35704D01*
X21350D01*
X21350Y35704D01*
X21317Y35698D01*
X21310Y35696D01*
X21276Y35674D01*
X21276Y35674D01*
X20676Y35074D01*
X20654Y35040D01*
X20646Y35000D01*
X20646Y35000D01*
Y34866D01*
X20602Y34838D01*
X20557Y34770D01*
X20541Y34690D01*
X20557Y34610D01*
X20572Y34588D01*
X20548Y34544D01*
X20363D01*
X20134Y34773D01*
Y35434D01*
X20178Y35462D01*
X20223Y35530D01*
X20239Y35610D01*
X20223Y35690D01*
X20206Y35716D01*
X20232Y35766D01*
X21719D01*
X21747Y35716D01*
D02*
G37*
G36*
X34730Y37831D02*
X34734Y37832D01*
X34758Y37786D01*
X31517Y34544D01*
X20952D01*
X20928Y34588D01*
X20943Y34610D01*
X20959Y34690D01*
X20943Y34770D01*
X20898Y34838D01*
X20854Y34866D01*
Y34957D01*
X21006Y35108D01*
X21052Y35083D01*
X21051Y35080D01*
X21067Y35000D01*
X21112Y34932D01*
X21180Y34887D01*
X21260Y34871D01*
X21340Y34887D01*
X21407Y34932D01*
X21436Y34976D01*
X31770D01*
X31770Y34976D01*
X31810Y34984D01*
X31844Y35006D01*
X34679Y37841D01*
X34730Y37831D01*
D02*
G37*
G36*
X16662Y34862D02*
Y34661D01*
X16616Y34642D01*
X12679Y38579D01*
X12698Y38626D01*
X12898D01*
X16662Y34862D01*
D02*
G37*
G36*
X31788Y31604D02*
X31767Y31554D01*
X28600D01*
X28600Y31554D01*
X28560Y31546D01*
X28549Y31539D01*
X28526Y31524D01*
X28526Y31524D01*
X28168Y31165D01*
X28119Y31175D01*
X28108Y31201D01*
X28049Y31277D01*
X27972Y31336D01*
X27883Y31373D01*
X27787Y31386D01*
X27692Y31373D01*
X27611Y31340D01*
X27457Y31494D01*
X27423Y31516D01*
X27383Y31524D01*
X27383Y31524D01*
X26509D01*
X26490Y31571D01*
X26611Y31692D01*
X26692Y31658D01*
X26787Y31646D01*
X26883Y31658D01*
X26972Y31695D01*
X27049Y31754D01*
X27108Y31831D01*
X27145Y31920D01*
X27157Y32016D01*
X27145Y32112D01*
X27108Y32201D01*
X27049Y32277D01*
X26972Y32336D01*
X26883Y32373D01*
X26787Y32386D01*
X26692Y32373D01*
X26602Y32336D01*
X26526Y32277D01*
X26467Y32201D01*
X26430Y32112D01*
X26417Y32016D01*
X26430Y31920D01*
X26463Y31839D01*
X26318Y31694D01*
X26053D01*
X26036Y31744D01*
X26049Y31754D01*
X26108Y31831D01*
X26145Y31920D01*
X26157Y32016D01*
X26145Y32112D01*
X26111Y32192D01*
X26405Y32486D01*
X30907D01*
X31788Y31604D01*
D02*
G37*
G36*
X20388Y32346D02*
X20388Y32346D01*
X20410Y32331D01*
X20422Y32324D01*
X20462Y32316D01*
X20462Y32316D01*
X20499D01*
X20517Y32266D01*
X20467Y32201D01*
X20430Y32112D01*
X20417Y32016D01*
X20430Y31920D01*
X20467Y31831D01*
X20518Y31764D01*
X20502Y31714D01*
X20433D01*
X17341Y34806D01*
Y35328D01*
X17387Y35347D01*
X20388Y32346D01*
D02*
G37*
G36*
X16995Y36304D02*
Y34667D01*
X16995Y34667D01*
X17003Y34627D01*
X17025Y34594D01*
X20274Y31344D01*
X20274Y31344D01*
X20308Y31322D01*
X20348Y31314D01*
X20496D01*
X20515Y31264D01*
X20467Y31201D01*
X20430Y31112D01*
X20417Y31016D01*
X20430Y30920D01*
X20457Y30855D01*
X20415Y30826D01*
X16871Y34370D01*
Y34905D01*
X16871Y34905D01*
X16865Y34938D01*
X16863Y34945D01*
X16841Y34979D01*
X16841Y34979D01*
X13015Y38804D01*
X12982Y38826D01*
X12942Y38834D01*
X12942Y38834D01*
X10683D01*
X10552Y38965D01*
X10586Y39046D01*
X10598Y39142D01*
X10586Y39238D01*
X10549Y39327D01*
X10490Y39403D01*
X10413Y39462D01*
X10324Y39499D01*
X10336Y39546D01*
X13753D01*
X16995Y36304D01*
D02*
G37*
G36*
X25517Y31266D02*
X25467Y31201D01*
X25430Y31112D01*
X25417Y31016D01*
X25430Y30920D01*
X25467Y30831D01*
X25526Y30754D01*
X25602Y30695D01*
X25692Y30658D01*
X25787Y30646D01*
X25883Y30658D01*
X25964Y30692D01*
X26029Y30626D01*
X26010Y30580D01*
X24179D01*
X24160Y30626D01*
X24399Y30865D01*
X24432Y30864D01*
X24456Y30857D01*
X24467Y30831D01*
X24526Y30754D01*
X24602Y30695D01*
X24692Y30658D01*
X24787Y30646D01*
X24883Y30658D01*
X24972Y30695D01*
X25049Y30754D01*
X25108Y30831D01*
X25145Y30920D01*
X25157Y31016D01*
X25145Y31112D01*
X25108Y31201D01*
X25058Y31266D01*
X25075Y31316D01*
X25499D01*
X25517Y31266D01*
D02*
G37*
G36*
X22116Y31396D02*
X22150Y31374D01*
X22157Y31372D01*
X22190Y31366D01*
X22190Y31366D01*
X22559D01*
X22575Y31316D01*
X22526Y31277D01*
X22467Y31201D01*
X22430Y31112D01*
X22417Y31016D01*
X22430Y30920D01*
X22467Y30831D01*
X22515Y30768D01*
X22496Y30718D01*
X22079D01*
X22060Y30768D01*
X22108Y30831D01*
X22145Y30920D01*
X22157Y31016D01*
X22145Y31112D01*
X22108Y31201D01*
X22049Y31277D01*
X21972Y31336D01*
X21883Y31373D01*
X21787Y31386D01*
X21692Y31373D01*
X21611Y31340D01*
X21495Y31456D01*
X21516Y31506D01*
X22007D01*
X22116Y31396D01*
D02*
G37*
G36*
X20443Y33016D02*
X20443Y33016D01*
X20477Y32994D01*
X20517Y32986D01*
X23286D01*
X23843Y32429D01*
X23819Y32382D01*
X23787Y32386D01*
X23692Y32373D01*
X23611Y32340D01*
X23207Y32744D01*
X23173Y32766D01*
X23133Y32774D01*
X23133Y32774D01*
X20530D01*
X17649Y35655D01*
Y35745D01*
X17696Y35764D01*
X20443Y33016D01*
D02*
G37*
G36*
X42153Y39094D02*
X42826D01*
Y38225D01*
X34721Y30120D01*
X34716Y30124D01*
X34614Y30166D01*
X34504Y30181D01*
X34394Y30166D01*
X34291Y30124D01*
X34287Y30120D01*
X34114Y30294D01*
X34080Y30316D01*
X34040Y30324D01*
X34040Y30324D01*
X33694D01*
X33684Y30374D01*
X33716Y30388D01*
X33804Y30455D01*
X33872Y30543D01*
X33914Y30646D01*
X33929Y30756D01*
X33914Y30866D01*
X33872Y30968D01*
X33804Y31056D01*
X33716Y31124D01*
X33614Y31166D01*
X33504Y31181D01*
X33394Y31166D01*
X33291Y31124D01*
X33203Y31056D01*
X33136Y30968D01*
X33094Y30866D01*
X33079Y30756D01*
X33091Y30668D01*
X33043Y30644D01*
X31024Y32664D01*
X30990Y32686D01*
X30950Y32694D01*
X30950Y32694D01*
X26362D01*
X26322Y32686D01*
X26288Y32664D01*
X26288Y32664D01*
X25964Y32340D01*
X25883Y32373D01*
X25787Y32386D01*
X25692Y32373D01*
X25602Y32336D01*
X25526Y32277D01*
X25467Y32201D01*
X25430Y32112D01*
X25417Y32016D01*
X25430Y31920D01*
X25467Y31831D01*
X25526Y31754D01*
X25538Y31744D01*
X25521Y31694D01*
X25053D01*
X25036Y31744D01*
X25049Y31754D01*
X25108Y31831D01*
X25145Y31920D01*
X25157Y32016D01*
X25145Y32112D01*
X25108Y32201D01*
X25049Y32277D01*
X24972Y32336D01*
X24883Y32373D01*
X24787Y32386D01*
X24692Y32373D01*
X24602Y32336D01*
X24526Y32277D01*
X24467Y32201D01*
X24430Y32112D01*
X24417Y32016D01*
X24430Y31920D01*
X24467Y31831D01*
X24526Y31754D01*
X24538Y31744D01*
X24521Y31694D01*
X24290D01*
X24290Y31694D01*
X24257Y31688D01*
X24250Y31686D01*
X24236Y31677D01*
X24204Y31716D01*
X24314Y31825D01*
X24314Y31825D01*
X24336Y31859D01*
X24338Y31866D01*
X24344Y31899D01*
X24344Y31899D01*
Y32179D01*
X24344Y32179D01*
X24336Y32219D01*
X24329Y32230D01*
X24314Y32253D01*
X24314Y32253D01*
X23403Y33164D01*
X23369Y33186D01*
X23329Y33194D01*
X23329Y33194D01*
X20560D01*
X18004Y35751D01*
X18036Y35790D01*
X18060Y35774D01*
X18100Y35766D01*
X19828D01*
X19854Y35716D01*
X19837Y35690D01*
X19821Y35610D01*
X19837Y35530D01*
X19882Y35462D01*
X19926Y35434D01*
Y34730D01*
X19926Y34730D01*
X19934Y34690D01*
X19956Y34656D01*
X20246Y34366D01*
X20280Y34344D01*
X20287Y34342D01*
X20320Y34336D01*
X20320Y34336D01*
X31560D01*
X31560Y34336D01*
X31600Y34344D01*
X31634Y34366D01*
X36624Y39356D01*
X42153D01*
Y39094D01*
D02*
G37*
G36*
X17941Y32281D02*
X17923Y32240D01*
X17917Y32234D01*
X17071D01*
X17061Y32284D01*
X17102Y32301D01*
X17190Y32369D01*
X17258Y32457D01*
X17300Y32559D01*
X17315Y32669D01*
X17300Y32779D01*
X17258Y32882D01*
X17217Y32934D01*
X17255Y32967D01*
X17941Y32281D01*
D02*
G37*
G36*
X23463Y32192D02*
X23430Y32112D01*
X23417Y32016D01*
X23430Y31920D01*
X23467Y31831D01*
X23518Y31764D01*
X23502Y31714D01*
X23236D01*
X23111Y31839D01*
X23145Y31920D01*
X23157Y32016D01*
X23145Y32112D01*
X23108Y32201D01*
X23049Y32277D01*
X22972Y32336D01*
X22883Y32373D01*
X22787Y32386D01*
X22692Y32373D01*
X22602Y32336D01*
X22526Y32277D01*
X22467Y32201D01*
X22430Y32112D01*
X22417Y32016D01*
X22430Y31920D01*
X22467Y31831D01*
X22526Y31754D01*
X22602Y31695D01*
X22692Y31658D01*
X22787Y31646D01*
X22883Y31658D01*
X22964Y31692D01*
X23035Y31621D01*
X23016Y31574D01*
X22233D01*
X22124Y31684D01*
X22090Y31706D01*
X22073Y31710D01*
X22063Y31729D01*
X22056Y31763D01*
X22108Y31831D01*
X22145Y31920D01*
X22157Y32016D01*
X22145Y32112D01*
X22108Y32201D01*
X22049Y32277D01*
X21972Y32336D01*
X21883Y32373D01*
X21787Y32386D01*
X21692Y32373D01*
X21611Y32340D01*
X21457Y32494D01*
X21423Y32516D01*
X21432Y32566D01*
X23090D01*
X23463Y32192D01*
D02*
G37*
G36*
X18649Y32040D02*
X18624Y31994D01*
X18575Y32004D01*
X18524Y31994D01*
X16504Y34014D01*
X16508Y34052D01*
X16531Y34087D01*
X16595Y34094D01*
X18649Y32040D01*
D02*
G37*
G36*
X17132Y36572D02*
X17127Y36528D01*
X17083Y36511D01*
X13870Y39724D01*
X13836Y39746D01*
X13796Y39754D01*
X13796Y39754D01*
X11383D01*
X11373Y39804D01*
X11413Y39821D01*
X11490Y39880D01*
X11549Y39957D01*
X11582Y40037D01*
X13667D01*
X17132Y36572D01*
D02*
G37*
G36*
X37170Y48714D02*
X37172Y48696D01*
X37110Y48615D01*
X37071Y48520D01*
X37057Y48417D01*
X37071Y48315D01*
X37110Y48220D01*
X37173Y48138D01*
X37255Y48075D01*
X37350Y48035D01*
X37453Y48022D01*
X37555Y48035D01*
X37650Y48075D01*
X37732Y48138D01*
X37795Y48220D01*
X37806Y48245D01*
X37856Y48235D01*
Y47600D01*
X37806Y47590D01*
X37795Y47615D01*
X37732Y47697D01*
X37650Y47760D01*
X37555Y47799D01*
X37453Y47813D01*
X37350Y47799D01*
X37255Y47760D01*
X37173Y47697D01*
X37110Y47615D01*
X37071Y47520D01*
X37057Y47417D01*
X37071Y47315D01*
X37110Y47220D01*
X37173Y47138D01*
X37181Y47132D01*
X37165Y47084D01*
X37103D01*
X36424Y47764D01*
X36390Y47786D01*
X36350Y47794D01*
X36350Y47794D01*
X36333D01*
X36316Y47844D01*
X36363Y47881D01*
X36431Y47969D01*
X36473Y48071D01*
X36488Y48181D01*
X36473Y48291D01*
X36431Y48394D01*
X36363Y48482D01*
X36293Y48536D01*
X36310Y48586D01*
X36770D01*
X36770Y48586D01*
X36810Y48594D01*
X36844Y48616D01*
X36973Y48746D01*
X37159D01*
X37170Y48714D01*
D02*
G37*
G36*
X34625Y46526D02*
X34555Y46496D01*
X34481Y46440D01*
X34425Y46366D01*
X34389Y46281D01*
X34377Y46189D01*
X34389Y46097D01*
X34425Y46012D01*
X34481Y45938D01*
X34555Y45882D01*
X34640Y45846D01*
X34654Y45844D01*
X34650Y45794D01*
X30281D01*
X30051Y46024D01*
X30081Y46097D01*
X30093Y46189D01*
X30081Y46281D01*
X30046Y46366D01*
X29989Y46440D01*
X29916Y46496D01*
X29845Y46526D01*
X29855Y46576D01*
X34615D01*
X34625Y46526D01*
D02*
G37*
G36*
X29631D02*
X29561Y46496D01*
X29487Y46440D01*
X29431Y46366D01*
X29395Y46281D01*
X29383Y46189D01*
X29395Y46097D01*
X29431Y46012D01*
X29487Y45938D01*
X29561Y45882D01*
X29646Y45846D01*
X29738Y45834D01*
X29830Y45846D01*
X29903Y45876D01*
X30164Y45616D01*
X30164Y45616D01*
X30197Y45594D01*
X30237Y45586D01*
X34666D01*
X34669Y45536D01*
X34640Y45532D01*
X34555Y45496D01*
X34481Y45440D01*
X34425Y45366D01*
X34389Y45281D01*
X34377Y45189D01*
X34389Y45097D01*
X34425Y45012D01*
X34481Y44938D01*
X34489Y44932D01*
X34473Y44884D01*
X30191D01*
X30051Y45024D01*
X30081Y45097D01*
X30093Y45189D01*
X30081Y45281D01*
X30046Y45366D01*
X29989Y45440D01*
X29916Y45496D01*
X29830Y45532D01*
X29738Y45544D01*
X29646Y45532D01*
X29561Y45496D01*
X29487Y45440D01*
X29431Y45366D01*
X29395Y45281D01*
X29383Y45189D01*
X29395Y45097D01*
X29431Y45012D01*
X29487Y44938D01*
X29561Y44882D01*
X29646Y44846D01*
X29738Y44834D01*
X29830Y44846D01*
X29903Y44876D01*
X29989Y44791D01*
X29970Y44744D01*
X27500D01*
X27490Y44794D01*
X27535Y44813D01*
X27623Y44881D01*
X27691Y44969D01*
X27733Y45071D01*
X27734Y45077D01*
X28020D01*
X28020Y45077D01*
X28060Y45085D01*
X28395D01*
X28425Y45012D01*
X28481Y44938D01*
X28555Y44882D01*
X28640Y44846D01*
X28732Y44834D01*
X28824Y44846D01*
X28910Y44882D01*
X28983Y44938D01*
X29040Y45012D01*
X29075Y45097D01*
X29087Y45189D01*
X29075Y45281D01*
X29040Y45366D01*
X28983Y45440D01*
X28910Y45496D01*
X28824Y45532D01*
X28732Y45544D01*
X28640Y45532D01*
X28555Y45496D01*
X28481Y45440D01*
X28425Y45366D01*
X28395Y45293D01*
X28028D01*
X28028Y45293D01*
X27988Y45285D01*
X27734D01*
X27733Y45291D01*
X27691Y45394D01*
X27623Y45482D01*
X27535Y45549D01*
X27433Y45592D01*
X27323Y45606D01*
X27213Y45592D01*
X27110Y45549D01*
X27022Y45482D01*
X26955Y45394D01*
X26912Y45291D01*
X26898Y45181D01*
X26912Y45071D01*
X26955Y44969D01*
X27022Y44881D01*
X27110Y44813D01*
X27156Y44794D01*
X27146Y44744D01*
X25323D01*
X25064Y45003D01*
Y46207D01*
X25114Y46210D01*
X25117Y46191D01*
X25174Y46053D01*
X25265Y45934D01*
X25383Y45843D01*
X25521Y45786D01*
X25669Y45767D01*
X25817Y45786D01*
X25955Y45843D01*
X26074Y45934D01*
X26165Y46053D01*
X26222Y46191D01*
X26241Y46339D01*
X26222Y46487D01*
X26196Y46548D01*
X26241Y46572D01*
X26267Y46532D01*
X26334Y46487D01*
X26414Y46471D01*
X26494Y46487D01*
X26562Y46532D01*
X26591Y46576D01*
X27063D01*
X27080Y46526D01*
X27022Y46482D01*
X26955Y46394D01*
X26912Y46291D01*
X26898Y46181D01*
X26912Y46071D01*
X26955Y45969D01*
X27022Y45881D01*
X27110Y45813D01*
X27213Y45771D01*
X27323Y45756D01*
X27433Y45771D01*
X27535Y45813D01*
X27623Y45881D01*
X27691Y45969D01*
X27733Y46071D01*
X27734Y46077D01*
X28020D01*
X28020Y46077D01*
X28060Y46085D01*
X28395D01*
X28425Y46012D01*
X28481Y45938D01*
X28555Y45882D01*
X28640Y45846D01*
X28732Y45834D01*
X28824Y45846D01*
X28910Y45882D01*
X28983Y45938D01*
X29040Y46012D01*
X29075Y46097D01*
X29087Y46189D01*
X29075Y46281D01*
X29040Y46366D01*
X28983Y46440D01*
X28910Y46496D01*
X28839Y46526D01*
X28849Y46576D01*
X29622D01*
X29631Y46526D01*
D02*
G37*
G36*
X17451Y44311D02*
Y43302D01*
X17405Y43283D01*
X16070Y44618D01*
X16036Y44641D01*
X15996Y44648D01*
X15996Y44648D01*
X10742D01*
X10702Y44641D01*
X10668Y44618D01*
X10614Y44564D01*
X10592Y44530D01*
X10584Y44490D01*
X10584Y44490D01*
Y44363D01*
X10534Y44346D01*
X10490Y44403D01*
X10413Y44462D01*
X10387Y44473D01*
X10377Y44522D01*
X10848Y44993D01*
X10897Y44983D01*
X10908Y44957D01*
X10967Y44880D01*
X11043Y44821D01*
X11133Y44784D01*
X11228Y44772D01*
X11324Y44784D01*
X11413Y44821D01*
X11490Y44880D01*
X11549Y44957D01*
X11586Y45046D01*
X11598Y45142D01*
X11586Y45238D01*
X11549Y45327D01*
X11501Y45390D01*
X11520Y45440D01*
X16323D01*
X17451Y44311D01*
D02*
G37*
G36*
X37914Y45429D02*
Y43852D01*
X37914Y43852D01*
X37922Y43812D01*
X37944Y43778D01*
X38110Y43613D01*
X38071Y43520D01*
X38057Y43417D01*
X38071Y43315D01*
X38110Y43220D01*
X38173Y43138D01*
X38255Y43075D01*
X38350Y43035D01*
X38453Y43022D01*
X38555Y43035D01*
X38650Y43075D01*
X38732Y43138D01*
X38795Y43220D01*
X38835Y43315D01*
X38848Y43417D01*
X38835Y43520D01*
X38795Y43615D01*
X38732Y43697D01*
X38650Y43760D01*
X38555Y43799D01*
X38453Y43813D01*
X38350Y43799D01*
X38257Y43761D01*
X38122Y43895D01*
Y44126D01*
X38170Y44142D01*
X38173Y44138D01*
X38255Y44075D01*
X38350Y44035D01*
X38453Y44022D01*
X38555Y44035D01*
X38650Y44075D01*
X38732Y44138D01*
X38795Y44220D01*
X38834Y44313D01*
X39489D01*
X40346Y43457D01*
Y41803D01*
X39585Y41043D01*
X39538Y41066D01*
X39543Y41106D01*
X39531Y41202D01*
X39494Y41291D01*
X39435Y41368D01*
X39358Y41427D01*
X39269Y41464D01*
X39173Y41476D01*
X39077Y41464D01*
X38988Y41427D01*
X38912Y41368D01*
X38853Y41291D01*
X38816Y41202D01*
X38803Y41106D01*
X38816Y41011D01*
X38853Y40921D01*
X38912Y40845D01*
X38938Y40824D01*
X38921Y40774D01*
X38683D01*
X38659Y40798D01*
X38626Y40821D01*
X38586Y40829D01*
X38586Y40829D01*
X31569D01*
X31269Y41129D01*
X31279Y41180D01*
X31263Y41260D01*
X31218Y41328D01*
X31150Y41373D01*
X31070Y41389D01*
X30990Y41373D01*
X30922Y41328D01*
X30877Y41260D01*
X30861Y41180D01*
X30877Y41100D01*
X30922Y41032D01*
X30990Y40987D01*
X31070Y40971D01*
X31121Y40981D01*
X31365Y40737D01*
X31346Y40691D01*
X29378D01*
X29045Y41024D01*
X29075Y41097D01*
X29087Y41189D01*
X29075Y41281D01*
X29040Y41366D01*
X28983Y41440D01*
X28924Y41486D01*
X28941Y41536D01*
X37714D01*
X37742Y41492D01*
X37810Y41447D01*
X37890Y41431D01*
X37970Y41447D01*
X38038Y41492D01*
X38083Y41560D01*
X38099Y41640D01*
X38083Y41720D01*
X38038Y41788D01*
X37970Y41833D01*
X37890Y41849D01*
X37810Y41833D01*
X37742Y41788D01*
X37714Y41744D01*
X36240D01*
X36230Y41794D01*
X36275Y41813D01*
X36363Y41881D01*
X36431Y41969D01*
X36473Y42071D01*
X36488Y42181D01*
X36473Y42291D01*
X36431Y42394D01*
X36363Y42482D01*
X36355Y42488D01*
X36371Y42536D01*
X37061D01*
Y42025D01*
X37845D01*
Y42748D01*
X37975D01*
X38110Y42613D01*
X38071Y42520D01*
X38057Y42417D01*
X38071Y42315D01*
X38110Y42220D01*
X38173Y42138D01*
X38255Y42075D01*
X38350Y42035D01*
X38453Y42022D01*
X38555Y42035D01*
X38650Y42075D01*
X38732Y42138D01*
X38795Y42220D01*
X38835Y42315D01*
X38848Y42417D01*
X38835Y42520D01*
X38795Y42615D01*
X38732Y42697D01*
X38650Y42760D01*
X38555Y42799D01*
X38453Y42813D01*
X38350Y42799D01*
X38257Y42761D01*
X38092Y42926D01*
X38058Y42949D01*
X38018Y42957D01*
X38018Y42957D01*
X37161D01*
X36354Y43764D01*
X36320Y43786D01*
X36310Y43839D01*
X36363Y43881D01*
X36431Y43969D01*
X36473Y44071D01*
X36487Y44177D01*
X36508Y44191D01*
X36532Y44202D01*
X36785Y43937D01*
X36786Y43936D01*
X36787Y43935D01*
X37110Y43613D01*
X37071Y43520D01*
X37057Y43417D01*
X37071Y43315D01*
X37110Y43220D01*
X37173Y43138D01*
X37255Y43075D01*
X37350Y43035D01*
X37453Y43022D01*
X37555Y43035D01*
X37650Y43075D01*
X37732Y43138D01*
X37795Y43220D01*
X37835Y43315D01*
X37848Y43417D01*
X37835Y43520D01*
X37795Y43615D01*
X37732Y43697D01*
X37650Y43760D01*
X37555Y43799D01*
X37453Y43813D01*
X37350Y43799D01*
X37257Y43761D01*
X36936Y44082D01*
X36295Y44752D01*
X36294Y44753D01*
X36294Y44754D01*
X36282Y44762D01*
X36278Y44784D01*
X36282Y44817D01*
X36283Y44819D01*
X36363Y44881D01*
X36431Y44969D01*
X36473Y45071D01*
X36488Y45181D01*
X36473Y45291D01*
X36431Y45394D01*
X36363Y45482D01*
X36293Y45536D01*
X36310Y45586D01*
X36770D01*
X36770Y45586D01*
X36810Y45594D01*
X36844Y45616D01*
X36973Y45746D01*
X37597D01*
X37914Y45429D01*
D02*
G37*
G36*
X34420Y49354D02*
X34389Y49281D01*
X34377Y49189D01*
X34389Y49097D01*
X34425Y49012D01*
X34469Y48954D01*
X34447Y48904D01*
X32624D01*
X32602Y48954D01*
X32646Y49012D01*
X32681Y49097D01*
X32693Y49189D01*
X32681Y49281D01*
X32646Y49366D01*
X32603Y49422D01*
X32626Y49472D01*
X34302D01*
X34420Y49354D01*
D02*
G37*
G36*
X32147Y47486D02*
X32087Y47440D01*
X32031Y47366D01*
X31995Y47281D01*
X31983Y47189D01*
X31995Y47097D01*
X32031Y47011D01*
X32087Y46938D01*
X32161Y46882D01*
X32246Y46846D01*
X32338Y46834D01*
X32430Y46846D01*
X32516Y46882D01*
X32589Y46938D01*
X32646Y47011D01*
X32676Y47085D01*
X33775D01*
X33803Y47041D01*
X33871Y46996D01*
X33951Y46980D01*
X34031Y46996D01*
X34099Y47041D01*
X34144Y47109D01*
X34160Y47189D01*
X34147Y47254D01*
X34193Y47278D01*
X34356Y47115D01*
X34390Y47093D01*
X34391Y47092D01*
X34425Y47011D01*
X34481Y46938D01*
X34555Y46882D01*
X34640Y46846D01*
X34732Y46834D01*
X34824Y46846D01*
X34889Y46873D01*
X34912Y46853D01*
X34926Y46834D01*
X34916Y46784D01*
X27580D01*
X27563Y46834D01*
X27623Y46881D01*
X27691Y46969D01*
X27733Y47071D01*
X27734Y47077D01*
X28020D01*
X28020Y47077D01*
X28060Y47085D01*
X28395D01*
X28425Y47011D01*
X28481Y46938D01*
X28555Y46882D01*
X28640Y46846D01*
X28732Y46834D01*
X28824Y46846D01*
X28910Y46882D01*
X28983Y46938D01*
X29040Y47011D01*
X29075Y47097D01*
X29087Y47189D01*
X29075Y47281D01*
X29040Y47366D01*
X28983Y47440D01*
X28924Y47486D01*
X28941Y47536D01*
X29930D01*
X29947Y47486D01*
X29887Y47440D01*
X29831Y47366D01*
X29795Y47281D01*
X29783Y47189D01*
X29795Y47097D01*
X29831Y47011D01*
X29887Y46938D01*
X29961Y46882D01*
X30046Y46846D01*
X30138Y46834D01*
X30230Y46846D01*
X30316Y46882D01*
X30389Y46938D01*
X30446Y47011D01*
X30481Y47097D01*
X30493Y47189D01*
X30481Y47281D01*
X30446Y47366D01*
X30389Y47440D01*
X30330Y47486D01*
X30347Y47536D01*
X32130D01*
X32147Y47486D01*
D02*
G37*
G36*
X25026Y47566D02*
X25026Y47566D01*
X25060Y47544D01*
X25067Y47542D01*
X25100Y47536D01*
X25100Y47536D01*
X27015D01*
X27031Y47488D01*
X27022Y47482D01*
X26955Y47394D01*
X26912Y47291D01*
X26912Y47285D01*
X25598D01*
X25569Y47329D01*
X25501Y47374D01*
X25421Y47390D01*
X25341Y47374D01*
X25273Y47329D01*
X25228Y47261D01*
X25212Y47181D01*
X25228Y47101D01*
X25273Y47034D01*
X25341Y46988D01*
X25421Y46972D01*
X25501Y46988D01*
X25569Y47034D01*
X25598Y47077D01*
X26912D01*
X26912Y47071D01*
X26955Y46969D01*
X27022Y46881D01*
X27083Y46834D01*
X27066Y46784D01*
X26591D01*
X26562Y46828D01*
X26494Y46873D01*
X26414Y46889D01*
X26334Y46873D01*
X26267Y46828D01*
X26221Y46760D01*
X26206Y46680D01*
X26215Y46634D01*
X26167Y46619D01*
X26165Y46624D01*
X26074Y46743D01*
X25955Y46834D01*
X25817Y46891D01*
X25669Y46910D01*
X25521Y46891D01*
X25383Y46834D01*
X25265Y46743D01*
X25174Y46624D01*
X25117Y46487D01*
X25114Y46467D01*
X25064Y46470D01*
Y46970D01*
X25064Y46970D01*
X25056Y47010D01*
X25034Y47044D01*
X24312Y47766D01*
X24333Y47816D01*
X24777D01*
X25026Y47566D01*
D02*
G37*
G36*
X26912Y48071D02*
X26955Y47969D01*
X27022Y47881D01*
X27110Y47813D01*
X27156Y47794D01*
X27146Y47744D01*
X25143D01*
X24894Y47994D01*
X24860Y48016D01*
X24820Y48024D01*
X24820Y48024D01*
X19640D01*
X19640Y48024D01*
X19607Y48018D01*
X19600Y48016D01*
X19566Y47994D01*
X19566Y47994D01*
X19131Y47559D01*
X19080Y47569D01*
X19000Y47553D01*
X18932Y47508D01*
X18887Y47440D01*
X18871Y47360D01*
X18887Y47280D01*
X18932Y47212D01*
X19000Y47167D01*
X19080Y47151D01*
X19160Y47167D01*
X19228Y47212D01*
X19273Y47280D01*
X19289Y47360D01*
X19279Y47411D01*
X19683Y47816D01*
X19928D01*
X19949Y47766D01*
X18846Y46663D01*
X18765Y46696D01*
X18669Y46709D01*
X18574Y46696D01*
X18484Y46659D01*
X18408Y46600D01*
X18349Y46524D01*
X18312Y46434D01*
X18299Y46339D01*
X18312Y46243D01*
X18312Y46243D01*
X18269Y46214D01*
X16453Y48031D01*
X16472Y48077D01*
X26912D01*
X26912Y48071D01*
D02*
G37*
G36*
X11422Y46513D02*
X11394Y46470D01*
X11324Y46499D01*
X11228Y46512D01*
X11133Y46499D01*
X11043Y46462D01*
X10967Y46403D01*
X10908Y46327D01*
X10871Y46238D01*
X10858Y46142D01*
X10871Y46046D01*
X10908Y45957D01*
X10967Y45880D01*
X11043Y45821D01*
X11133Y45784D01*
X11228Y45772D01*
X11324Y45784D01*
X11413Y45821D01*
X11490Y45880D01*
X11549Y45957D01*
X11586Y46046D01*
X11598Y46142D01*
X11586Y46238D01*
X11557Y46308D01*
X11599Y46336D01*
X11745Y46190D01*
X11745Y46190D01*
X11779Y46167D01*
X11786Y46166D01*
X11819Y46159D01*
X11819Y46159D01*
X14607D01*
X14640Y46079D01*
X14699Y46002D01*
X14776Y45943D01*
X14865Y45906D01*
X14961Y45894D01*
X15056Y45906D01*
X15137Y45940D01*
X15382Y45695D01*
X15363Y45648D01*
X11040D01*
X11000Y45641D01*
X10966Y45618D01*
X10966Y45618D01*
X10752Y45404D01*
X10730Y45370D01*
X10722Y45330D01*
X10722Y45330D01*
Y45162D01*
X10641Y45081D01*
X10594Y45104D01*
X10598Y45142D01*
X10586Y45238D01*
X10549Y45327D01*
X10490Y45403D01*
X10413Y45462D01*
X10324Y45499D01*
X10228Y45512D01*
X10133Y45499D01*
X10043Y45462D01*
X9967Y45403D01*
X9908Y45327D01*
X9871Y45238D01*
X9858Y45142D01*
X9871Y45046D01*
X9904Y44965D01*
X9831Y44892D01*
X9784Y44911D01*
Y47381D01*
X9950Y47546D01*
X10389D01*
X11422Y46513D01*
D02*
G37*
G36*
X35106Y48616D02*
X35106Y48616D01*
X35140Y48594D01*
X35180Y48586D01*
X35816D01*
X35833Y48536D01*
X35763Y48482D01*
X35695Y48394D01*
X35653Y48291D01*
X35652Y48285D01*
X35430D01*
X35390Y48293D01*
X35390Y48293D01*
X35070D01*
X35040Y48366D01*
X34983Y48440D01*
X34910Y48496D01*
X34824Y48532D01*
X34732Y48544D01*
X34640Y48532D01*
X34555Y48496D01*
X34481Y48440D01*
X34425Y48366D01*
X34389Y48281D01*
X34377Y48189D01*
X34389Y48097D01*
X34425Y48011D01*
X34481Y47938D01*
X34555Y47882D01*
X34640Y47846D01*
X34654Y47844D01*
X34650Y47794D01*
X33453D01*
X32602Y48646D01*
X32623Y48696D01*
X35027D01*
X35106Y48616D01*
D02*
G37*
G36*
X36986Y46906D02*
X36986Y46906D01*
X37020Y46884D01*
X37027Y46882D01*
X37060Y46876D01*
X37060Y46876D01*
X37617D01*
X37734Y46759D01*
X37701Y46721D01*
X37650Y46760D01*
X37555Y46799D01*
X37453Y46813D01*
X37350Y46799D01*
X37255Y46760D01*
X37173Y46697D01*
X37110Y46615D01*
X37071Y46520D01*
X37057Y46417D01*
X37071Y46315D01*
X37110Y46220D01*
X37173Y46138D01*
X37255Y46075D01*
X37350Y46035D01*
X37453Y46022D01*
X37555Y46035D01*
X37648Y46074D01*
X38001Y45722D01*
X38007Y45713D01*
X38079Y45641D01*
X38076Y45632D01*
X38020Y45618D01*
X37714Y45924D01*
X37680Y45946D01*
X37640Y45954D01*
X37640Y45954D01*
X36930D01*
X36890Y45946D01*
X36856Y45924D01*
X36856Y45924D01*
X36727Y45794D01*
X36333D01*
X36316Y45844D01*
X36363Y45881D01*
X36431Y45969D01*
X36473Y46071D01*
X36488Y46181D01*
X36473Y46291D01*
X36431Y46394D01*
X36363Y46482D01*
X36275Y46549D01*
X36173Y46592D01*
X36063Y46606D01*
X35953Y46592D01*
X35851Y46549D01*
X35763Y46482D01*
X35695Y46394D01*
X35653Y46291D01*
X35652Y46285D01*
X35430D01*
X35390Y46293D01*
X35390Y46293D01*
X35070D01*
X35040Y46366D01*
X34983Y46440D01*
X34910Y46496D01*
X34839Y46526D01*
X34849Y46576D01*
X35027D01*
X35040Y46567D01*
X35120Y46551D01*
X35200Y46567D01*
X35268Y46612D01*
X35313Y46680D01*
X35329Y46760D01*
X35313Y46840D01*
X35268Y46908D01*
X35200Y46953D01*
X35120Y46969D01*
X35061Y46957D01*
X35033Y47002D01*
X35040Y47011D01*
X35070Y47085D01*
X35128D01*
X35167Y47077D01*
X35167Y47077D01*
X35652D01*
X35653Y47071D01*
X35695Y46969D01*
X35763Y46881D01*
X35851Y46813D01*
X35953Y46771D01*
X36063Y46756D01*
X36173Y46771D01*
X36275Y46813D01*
X36363Y46881D01*
X36431Y46969D01*
X36473Y47071D01*
X36488Y47181D01*
X36473Y47291D01*
X36431Y47394D01*
X36471Y47421D01*
X36986Y46906D01*
D02*
G37*
G36*
X35666Y44606D02*
X35666Y44606D01*
X35700Y44584D01*
X35740Y44576D01*
X35803D01*
X35820Y44526D01*
X35763Y44482D01*
X35695Y44394D01*
X35653Y44291D01*
X35652Y44285D01*
X35430D01*
X35390Y44293D01*
X35390Y44293D01*
X35070D01*
X35040Y44366D01*
X34983Y44440D01*
X34910Y44496D01*
X34824Y44532D01*
X34732Y44544D01*
X34640Y44532D01*
X34567Y44502D01*
X34439Y44629D01*
X34459Y44676D01*
X35597D01*
X35666Y44606D01*
D02*
G37*
G36*
X33584Y39366D02*
X33597Y39300D01*
X33642Y39232D01*
X33686Y39204D01*
Y38823D01*
X30837Y35974D01*
X24142D01*
X24118Y36018D01*
X24133Y36040D01*
X24149Y36120D01*
X24133Y36200D01*
X24118Y36222D01*
X24142Y36266D01*
X24207D01*
X24406Y36066D01*
X24440Y36044D01*
X24480Y36036D01*
X24910D01*
X24910Y36036D01*
X24910Y36036D01*
X25460D01*
X25460Y36036D01*
X25460Y36036D01*
X28581D01*
X28581Y36036D01*
X28621Y36044D01*
X28655Y36066D01*
X29072Y36483D01*
X29155Y36449D01*
X29252Y36436D01*
X29349Y36449D01*
X29440Y36486D01*
X29517Y36546D01*
X29577Y36623D01*
X29614Y36714D01*
X29627Y36811D01*
X29614Y36908D01*
X29577Y36999D01*
X29517Y37076D01*
X29440Y37136D01*
X29349Y37173D01*
X29252Y37186D01*
X29155Y37173D01*
X29064Y37136D01*
X28987Y37076D01*
X28927Y36999D01*
X28889Y36908D01*
X28877Y36811D01*
X28889Y36714D01*
X28924Y36631D01*
X28538Y36244D01*
X25839D01*
X25811Y36294D01*
X25812Y36296D01*
X26841D01*
X26841Y36296D01*
X26881Y36304D01*
X26915Y36326D01*
X27072Y36483D01*
X27155Y36449D01*
X27252Y36436D01*
X27349Y36449D01*
X27440Y36486D01*
X27517Y36546D01*
X27577Y36623D01*
X27614Y36714D01*
X27627Y36811D01*
X27614Y36908D01*
X27577Y36999D01*
X27517Y37076D01*
X27440Y37136D01*
X27349Y37173D01*
X27252Y37186D01*
X27155Y37173D01*
X27064Y37136D01*
X26987Y37076D01*
X26927Y36999D01*
X26889Y36908D01*
X26877Y36811D01*
X26889Y36714D01*
X26924Y36631D01*
X26798Y36504D01*
X26624D01*
Y37183D01*
X25880D01*
Y36504D01*
X25756D01*
X25728Y36548D01*
X25660Y36593D01*
X25580Y36609D01*
X25500Y36593D01*
X25432Y36548D01*
X25387Y36480D01*
X25379Y36439D01*
X25325Y36423D01*
X25224Y36523D01*
Y36749D01*
X25274Y36760D01*
X25312Y36702D01*
X25380Y36657D01*
X25460Y36641D01*
X25540Y36657D01*
X25608Y36702D01*
X25653Y36770D01*
X25669Y36850D01*
X25653Y36930D01*
X25608Y36998D01*
X25564Y37026D01*
Y37420D01*
X25564Y37420D01*
X25558Y37453D01*
X25556Y37460D01*
X25534Y37494D01*
X25094Y37934D01*
X25060Y37956D01*
X25020Y37964D01*
X25020Y37964D01*
X20666D01*
X20637Y38008D01*
X20569Y38053D01*
X20490Y38069D01*
X20410Y38053D01*
X20342Y38008D01*
X20297Y37940D01*
X20281Y37860D01*
X20297Y37780D01*
X20342Y37712D01*
X20410Y37667D01*
X20490Y37651D01*
X20569Y37667D01*
X20637Y37712D01*
X20666Y37756D01*
X22579D01*
X22584Y37706D01*
X22520Y37693D01*
X22452Y37648D01*
X22407Y37580D01*
X22391Y37500D01*
X22407Y37420D01*
X22421Y37400D01*
X22397Y37355D01*
X18962D01*
X17457Y38861D01*
X17475Y38912D01*
X17510Y38919D01*
X17522Y38906D01*
X17522Y38906D01*
X17556Y38883D01*
X17596Y38875D01*
X32980D01*
X32980Y38875D01*
X33020Y38883D01*
X33054Y38906D01*
X33536Y39388D01*
X33584Y39366D01*
D02*
G37*
G36*
X17313Y43079D02*
Y39755D01*
X16966Y39407D01*
X16944Y39374D01*
X16936Y39334D01*
X16936Y39334D01*
Y38920D01*
X16936Y38920D01*
X16944Y38880D01*
X16966Y38846D01*
X18773Y37039D01*
X18773Y37039D01*
X18807Y37017D01*
X18816Y37015D01*
X18838Y36967D01*
X18831Y36954D01*
X18810Y36934D01*
X18593D01*
X18439Y37089D01*
X18449Y37140D01*
X18433Y37220D01*
X18388Y37288D01*
X18320Y37333D01*
X18240Y37349D01*
X18160Y37333D01*
X18092Y37288D01*
X18047Y37220D01*
X18031Y37140D01*
X18047Y37060D01*
X18092Y36992D01*
X18160Y36947D01*
X18240Y36931D01*
X18291Y36941D01*
X18476Y36756D01*
X18476Y36756D01*
X18510Y36734D01*
X18550Y36726D01*
X18834D01*
X18862Y36682D01*
X18930Y36637D01*
X19010Y36621D01*
X19090Y36637D01*
X19137Y36668D01*
X19144Y36669D01*
X19191Y36649D01*
X19194Y36629D01*
X19217Y36595D01*
X19766Y36046D01*
X19766Y36046D01*
X19800Y36024D01*
X19791Y35974D01*
X18174D01*
X18135Y36021D01*
X18139Y36040D01*
X18123Y36120D01*
X18078Y36188D01*
X18010Y36233D01*
X17930Y36249D01*
X17850Y36233D01*
X17837Y36224D01*
X17793Y36248D01*
Y37622D01*
X17793Y37622D01*
X17786Y37655D01*
X17785Y37662D01*
X17762Y37695D01*
X17762Y37695D01*
X16171Y39286D01*
Y39974D01*
X16221Y39991D01*
X16265Y39934D01*
X16383Y39843D01*
X16521Y39786D01*
X16669Y39767D01*
X16817Y39786D01*
X16955Y39843D01*
X17074Y39934D01*
X17165Y40053D01*
X17222Y40191D01*
X17241Y40339D01*
X17222Y40487D01*
X17165Y40624D01*
X17074Y40743D01*
X16955Y40834D01*
X16817Y40891D01*
X16669Y40910D01*
X16521Y40891D01*
X16383Y40834D01*
X16265Y40743D01*
X16221Y40686D01*
X16171Y40703D01*
Y43943D01*
X16171Y43943D01*
X16165Y43976D01*
X16163Y43983D01*
X16141Y44017D01*
X16141Y44017D01*
X15942Y44216D01*
X15908Y44238D01*
X15868Y44246D01*
X15868Y44246D01*
X11582D01*
X11549Y44327D01*
X11501Y44390D01*
X11520Y44440D01*
X15953D01*
X17313Y43079D01*
D02*
G37*
G36*
X38491Y39611D02*
X38472Y39565D01*
X36581D01*
X36581Y39565D01*
X36547Y39558D01*
X36541Y39557D01*
X36507Y39534D01*
X34984Y38012D01*
X34938Y38036D01*
X34939Y38040D01*
X34923Y38120D01*
X34878Y38188D01*
X34810Y38233D01*
X34730Y38249D01*
X34650Y38233D01*
X34582Y38188D01*
X34537Y38120D01*
X34521Y38040D01*
X34531Y37989D01*
X31727Y35184D01*
X21436D01*
X21407Y35228D01*
X21340Y35273D01*
X21260Y35289D01*
X21256Y35288D01*
X21232Y35334D01*
X21393Y35496D01*
X21783D01*
X21812Y35452D01*
X21880Y35407D01*
X21960Y35391D01*
X22040Y35407D01*
X22108Y35452D01*
X22153Y35520D01*
X22169Y35600D01*
X22153Y35680D01*
X22129Y35716D01*
X22156Y35766D01*
X30880D01*
X30880Y35766D01*
X30920Y35774D01*
X30954Y35796D01*
X33864Y38706D01*
X33864Y38706D01*
X33886Y38740D01*
X33894Y38780D01*
Y39204D01*
X33938Y39232D01*
X33983Y39300D01*
X33999Y39380D01*
X33983Y39460D01*
X33938Y39528D01*
X33870Y39573D01*
X33804Y39586D01*
X33782Y39634D01*
X34289Y40141D01*
X34340Y40131D01*
X34420Y40147D01*
X34488Y40192D01*
X34533Y40260D01*
X34549Y40340D01*
X34533Y40420D01*
X34521Y40438D01*
X34544Y40482D01*
X37620D01*
X38491Y39611D01*
D02*
G37*
G36*
X25356Y37377D02*
Y37026D01*
X25312Y36998D01*
X25274Y36940D01*
X25224Y36951D01*
Y37000D01*
X25224Y37000D01*
X25216Y37040D01*
X25209Y37051D01*
X25194Y37074D01*
X25194Y37074D01*
X24694Y37574D01*
X24660Y37596D01*
X24620Y37604D01*
X24620Y37604D01*
X22776D01*
X22748Y37648D01*
X22680Y37693D01*
X22616Y37706D01*
X22621Y37756D01*
X24977D01*
X25356Y37377D01*
D02*
G37*
G36*
X28669Y50536D02*
X28640Y50532D01*
X28555Y50496D01*
X28481Y50440D01*
X28425Y50366D01*
X28395Y50293D01*
X28028D01*
X28028Y50293D01*
X27988Y50285D01*
X27734D01*
X27733Y50291D01*
X27691Y50394D01*
X27623Y50482D01*
X27553Y50536D01*
X27570Y50586D01*
X28666D01*
X28669Y50536D01*
D02*
G37*
G36*
X31330Y49503D02*
X31330Y49503D01*
X31364Y49480D01*
X31370Y49479D01*
X31404Y49472D01*
X31404Y49472D01*
X32050D01*
X32074Y49422D01*
X32031Y49366D01*
X31995Y49281D01*
X31983Y49189D01*
X31995Y49097D01*
X32031Y49012D01*
X32075Y48954D01*
X32053Y48904D01*
X30571D01*
X30451Y49024D01*
X30481Y49097D01*
X30493Y49189D01*
X30481Y49281D01*
X30446Y49366D01*
X30389Y49440D01*
X30316Y49496D01*
X30230Y49532D01*
X30138Y49544D01*
X30046Y49532D01*
X29961Y49496D01*
X29904Y49453D01*
X29854Y49475D01*
Y49757D01*
X29973Y49876D01*
X30046Y49846D01*
X30138Y49834D01*
X30230Y49846D01*
X30316Y49882D01*
X30389Y49938D01*
X30446Y50012D01*
X30481Y50097D01*
X30493Y50189D01*
X30481Y50281D01*
X30524Y50309D01*
X31330Y49503D01*
D02*
G37*
G36*
X34420Y44354D02*
X34389Y44281D01*
X34377Y44189D01*
X34389Y44097D01*
X34425Y44012D01*
X34481Y43938D01*
X34555Y43882D01*
X34640Y43846D01*
X34654Y43844D01*
X34650Y43794D01*
X30281D01*
X30051Y44024D01*
X30081Y44097D01*
X30093Y44189D01*
X30081Y44281D01*
X30046Y44366D01*
X29989Y44440D01*
X29930Y44486D01*
X29947Y44536D01*
X34238D01*
X34420Y44354D01*
D02*
G37*
G36*
X35876Y49560D02*
X35851Y49549D01*
X35763Y49482D01*
X35695Y49394D01*
X35653Y49291D01*
X35652Y49285D01*
X35430D01*
X35390Y49293D01*
X35390Y49293D01*
X35070D01*
X35040Y49366D01*
X34983Y49440D01*
X34910Y49496D01*
X34824Y49532D01*
X34732Y49544D01*
X34640Y49532D01*
X34567Y49502D01*
X34505Y49564D01*
X34524Y49610D01*
X35866D01*
X35876Y49560D01*
D02*
G37*
G36*
X36806Y51207D02*
Y50240D01*
X36806Y50240D01*
X36814Y50200D01*
X36836Y50166D01*
X37156Y49846D01*
X37156Y49846D01*
X37190Y49824D01*
X37230Y49816D01*
X37260D01*
X37269Y49766D01*
X37255Y49760D01*
X37173Y49697D01*
X37110Y49615D01*
X37071Y49520D01*
X37057Y49417D01*
X37071Y49315D01*
X37110Y49220D01*
X37168Y49144D01*
X37156Y49094D01*
X37103D01*
X36410Y49788D01*
X36376Y49811D01*
X36359Y49814D01*
X36346Y49867D01*
X36363Y49881D01*
X36431Y49969D01*
X36473Y50071D01*
X36488Y50181D01*
X36473Y50291D01*
X36435Y50383D01*
X36436Y50388D01*
X36448Y50417D01*
X36462Y50436D01*
X36520Y50447D01*
X36588Y50492D01*
X36633Y50560D01*
X36649Y50640D01*
X36633Y50720D01*
X36588Y50788D01*
X36520Y50833D01*
X36440Y50849D01*
X36391Y50839D01*
X36371Y50869D01*
X36367Y50885D01*
X36431Y50969D01*
X36473Y51071D01*
X36488Y51181D01*
X36473Y51291D01*
X36431Y51394D01*
X36363Y51482D01*
X36306Y51526D01*
X36323Y51576D01*
X36437D01*
X36806Y51207D01*
D02*
G37*
G36*
X34541Y50486D02*
X34481Y50440D01*
X34425Y50366D01*
X34389Y50281D01*
X34377Y50189D01*
X34389Y50097D01*
X34425Y50012D01*
X34481Y49938D01*
X34555Y49882D01*
X34586Y49869D01*
X34576Y49819D01*
X32494D01*
X32484Y49869D01*
X32516Y49882D01*
X32589Y49938D01*
X32646Y50012D01*
X32681Y50097D01*
X32693Y50189D01*
X32681Y50281D01*
X32651Y50354D01*
X32833Y50536D01*
X34524D01*
X34541Y50486D01*
D02*
G37*
G36*
X15825Y43054D02*
Y39064D01*
X15825Y39064D01*
X15833Y39024D01*
X15855Y38991D01*
X17441Y37405D01*
Y37300D01*
X17394Y37280D01*
X13711Y40964D01*
X13677Y40986D01*
X13637Y40994D01*
X13637Y40994D01*
X12879D01*
X12874Y41044D01*
X12879Y41045D01*
X12912Y41068D01*
X14784Y42940D01*
X14865Y42906D01*
X14961Y42894D01*
X15056Y42906D01*
X15146Y42943D01*
X15222Y43002D01*
X15281Y43079D01*
X15318Y43168D01*
X15331Y43264D01*
X15318Y43360D01*
X15281Y43449D01*
X15233Y43512D01*
X15252Y43562D01*
X15317D01*
X15825Y43054D01*
D02*
G37*
G36*
X10956Y44390D02*
X10908Y44327D01*
X10871Y44238D01*
X10858Y44142D01*
X10871Y44046D01*
X10908Y43957D01*
X10967Y43880D01*
X11043Y43821D01*
X11133Y43784D01*
X11228Y43772D01*
X11324Y43784D01*
X11413Y43821D01*
X11490Y43880D01*
X11549Y43957D01*
X11582Y44037D01*
X15825D01*
X15963Y43900D01*
Y43277D01*
X15916Y43257D01*
X15434Y43740D01*
X15400Y43763D01*
X15360Y43771D01*
X15360Y43771D01*
X11753D01*
X11753Y43771D01*
X11719Y43764D01*
X11713Y43763D01*
X11679Y43740D01*
X11405Y43466D01*
X11324Y43499D01*
X11228Y43512D01*
X11133Y43499D01*
X11043Y43462D01*
X10967Y43403D01*
X10908Y43327D01*
X10871Y43238D01*
X10858Y43142D01*
X10871Y43046D01*
X10908Y42957D01*
X10967Y42880D01*
X11043Y42821D01*
X11133Y42784D01*
X11228Y42772D01*
X11324Y42784D01*
X11413Y42821D01*
X11490Y42880D01*
X11549Y42957D01*
X11586Y43046D01*
X11598Y43142D01*
X11586Y43238D01*
X11552Y43318D01*
X11796Y43562D01*
X14669D01*
X14688Y43512D01*
X14640Y43449D01*
X14603Y43360D01*
X14591Y43264D01*
X14603Y43168D01*
X14637Y43087D01*
X12795Y41246D01*
X11582D01*
X11549Y41327D01*
X11490Y41403D01*
X11413Y41462D01*
X11324Y41499D01*
X11228Y41512D01*
X11133Y41499D01*
X11043Y41462D01*
X10967Y41403D01*
X10908Y41327D01*
X10871Y41238D01*
X10858Y41142D01*
X10871Y41046D01*
X10908Y40957D01*
X10967Y40880D01*
X11043Y40821D01*
X11133Y40784D01*
X11228Y40772D01*
X11324Y40784D01*
X11413Y40821D01*
X11490Y40880D01*
X11549Y40957D01*
X11582Y41037D01*
X12439D01*
X12463Y40993D01*
X12447Y40970D01*
X12431Y40890D01*
X12447Y40810D01*
X12492Y40742D01*
X12560Y40697D01*
X12640Y40681D01*
X12720Y40697D01*
X12788Y40742D01*
X12816Y40786D01*
X13594D01*
X17270Y37109D01*
Y36794D01*
X17224Y36775D01*
X13784Y40216D01*
X13750Y40238D01*
X13710Y40246D01*
X13710Y40246D01*
X11582D01*
X11549Y40327D01*
X11490Y40403D01*
X11413Y40462D01*
X11324Y40499D01*
X11228Y40512D01*
X11133Y40499D01*
X11043Y40462D01*
X10967Y40403D01*
X10908Y40327D01*
X10871Y40238D01*
X10858Y40142D01*
X10871Y40046D01*
X10908Y39957D01*
X10967Y39880D01*
X11043Y39821D01*
X11084Y39804D01*
X11074Y39754D01*
X10383D01*
X10373Y39804D01*
X10413Y39821D01*
X10490Y39880D01*
X10549Y39957D01*
X10586Y40046D01*
X10598Y40142D01*
X10586Y40238D01*
X10549Y40327D01*
X10490Y40403D01*
X10413Y40462D01*
X10324Y40499D01*
X10228Y40512D01*
X10133Y40499D01*
X10043Y40462D01*
X9974Y40409D01*
X9924Y40423D01*
Y40861D01*
X9974Y40874D01*
X10043Y40821D01*
X10133Y40784D01*
X10228Y40772D01*
X10324Y40784D01*
X10413Y40821D01*
X10490Y40880D01*
X10549Y40957D01*
X10586Y41046D01*
X10598Y41142D01*
X10586Y41238D01*
X10549Y41327D01*
X10490Y41403D01*
X10413Y41462D01*
X10324Y41499D01*
X10228Y41512D01*
X10133Y41499D01*
X10043Y41462D01*
X9974Y41409D01*
X9924Y41423D01*
Y41861D01*
X9974Y41874D01*
X10043Y41821D01*
X10133Y41784D01*
X10228Y41772D01*
X10324Y41784D01*
X10413Y41821D01*
X10490Y41880D01*
X10549Y41957D01*
X10586Y42046D01*
X10598Y42142D01*
X10586Y42238D01*
X10549Y42327D01*
X10490Y42403D01*
X10413Y42462D01*
X10324Y42499D01*
X10228Y42512D01*
X10133Y42499D01*
X10043Y42462D01*
X9974Y42409D01*
X9924Y42423D01*
Y42861D01*
X9974Y42874D01*
X10043Y42821D01*
X10133Y42784D01*
X10228Y42772D01*
X10324Y42784D01*
X10413Y42821D01*
X10490Y42880D01*
X10549Y42957D01*
X10586Y43046D01*
X10598Y43142D01*
X10586Y43238D01*
X10552Y43318D01*
X10762Y43528D01*
X10762Y43528D01*
X10785Y43562D01*
X10786Y43568D01*
X10793Y43602D01*
X10793Y43602D01*
Y44440D01*
X10937D01*
X10956Y44390D01*
D02*
G37*
%LPC*%
G36*
X11228Y42512D02*
X11133Y42499D01*
X11043Y42462D01*
X10967Y42403D01*
X10908Y42327D01*
X10871Y42238D01*
X10858Y42142D01*
X10871Y42046D01*
X10908Y41957D01*
X10967Y41880D01*
X11043Y41821D01*
X11133Y41784D01*
X11228Y41772D01*
X11324Y41784D01*
X11413Y41821D01*
X11490Y41880D01*
X11549Y41957D01*
X11586Y42046D01*
X11598Y42142D01*
X11586Y42238D01*
X11549Y42327D01*
X11490Y42403D01*
X11413Y42462D01*
X11324Y42499D01*
X11228Y42512D01*
D02*
G37*
G36*
X32110Y34559D02*
X32030Y34543D01*
X31962Y34498D01*
X31917Y34430D01*
X31901Y34350D01*
X31917Y34270D01*
X31962Y34202D01*
X32030Y34157D01*
X32110Y34141D01*
X32190Y34157D01*
X32258Y34202D01*
X32286Y34246D01*
X33557D01*
X33906Y33897D01*
Y33177D01*
X33083D01*
Y32335D01*
X33906D01*
Y32250D01*
X33906Y32250D01*
X33914Y32210D01*
X33936Y32176D01*
X34139Y31973D01*
X34136Y31968D01*
X34094Y31866D01*
X34079Y31756D01*
X34094Y31646D01*
X34136Y31543D01*
X34203Y31455D01*
X34291Y31388D01*
X34394Y31345D01*
X34504Y31331D01*
X34614Y31345D01*
X34716Y31388D01*
X34804Y31455D01*
X34872Y31543D01*
X34914Y31646D01*
X34929Y31756D01*
X34914Y31866D01*
X34872Y31968D01*
X34804Y32056D01*
X34716Y32124D01*
X34614Y32166D01*
X34504Y32181D01*
X34394Y32166D01*
X34291Y32124D01*
X34287Y32120D01*
X34114Y32293D01*
Y32489D01*
X34164Y32506D01*
X34203Y32455D01*
X34291Y32388D01*
X34394Y32345D01*
X34504Y32331D01*
X34614Y32345D01*
X34716Y32388D01*
X34804Y32455D01*
X34872Y32543D01*
X34914Y32646D01*
X34929Y32756D01*
X34914Y32866D01*
X34872Y32968D01*
X34804Y33056D01*
X34716Y33124D01*
X34614Y33166D01*
X34504Y33181D01*
X34394Y33166D01*
X34291Y33124D01*
X34203Y33056D01*
X34164Y33005D01*
X34114Y33022D01*
Y33940D01*
X34114Y33940D01*
X34106Y33980D01*
X34099Y33991D01*
X34084Y34014D01*
X34084Y34014D01*
X33674Y34424D01*
X33640Y34446D01*
X33600Y34454D01*
X33600Y34454D01*
X32286D01*
X32258Y34498D01*
X32190Y34543D01*
X32110Y34559D01*
D02*
G37*
G36*
X39173Y38476D02*
X39077Y38464D01*
X38988Y38427D01*
X38912Y38368D01*
X38853Y38291D01*
X38816Y38202D01*
X38803Y38106D01*
X38816Y38011D01*
X38853Y37921D01*
X38912Y37845D01*
X38988Y37786D01*
X39077Y37749D01*
X39173Y37736D01*
X39269Y37749D01*
X39358Y37786D01*
X39435Y37845D01*
X39494Y37921D01*
X39531Y38011D01*
X39543Y38106D01*
X39531Y38202D01*
X39494Y38291D01*
X39435Y38368D01*
X39358Y38427D01*
X39269Y38464D01*
X39173Y38476D01*
D02*
G37*
G36*
X40787D02*
X40692Y38464D01*
X40602Y38427D01*
X40526Y38368D01*
X40467Y38291D01*
X40430Y38202D01*
X40417Y38106D01*
X40430Y38011D01*
X40467Y37921D01*
X40526Y37845D01*
X40602Y37786D01*
X40692Y37749D01*
X40787Y37736D01*
X40883Y37749D01*
X40972Y37786D01*
X41049Y37845D01*
X41108Y37921D01*
X41145Y38011D01*
X41157Y38106D01*
X41145Y38202D01*
X41108Y38291D01*
X41049Y38368D01*
X40972Y38427D01*
X40883Y38464D01*
X40787Y38476D01*
D02*
G37*
G36*
X33504Y32181D02*
X33394Y32166D01*
X33291Y32124D01*
X33203Y32056D01*
X33136Y31968D01*
X33094Y31866D01*
X33079Y31756D01*
X33094Y31646D01*
X33136Y31543D01*
X33203Y31455D01*
X33291Y31388D01*
X33394Y31345D01*
X33504Y31331D01*
X33614Y31345D01*
X33716Y31388D01*
X33804Y31455D01*
X33872Y31543D01*
X33914Y31646D01*
X33929Y31756D01*
X33914Y31866D01*
X33872Y31968D01*
X33804Y32056D01*
X33716Y32124D01*
X33614Y32166D01*
X33504Y32181D01*
D02*
G37*
G36*
X34504Y31181D02*
X34394Y31166D01*
X34291Y31124D01*
X34203Y31056D01*
X34136Y30968D01*
X34094Y30866D01*
X34079Y30756D01*
X34094Y30646D01*
X34136Y30543D01*
X34203Y30455D01*
X34291Y30388D01*
X34394Y30345D01*
X34504Y30331D01*
X34614Y30345D01*
X34716Y30388D01*
X34804Y30455D01*
X34872Y30543D01*
X34914Y30646D01*
X34929Y30756D01*
X34914Y30866D01*
X34872Y30968D01*
X34804Y31056D01*
X34716Y31124D01*
X34614Y31166D01*
X34504Y31181D01*
D02*
G37*
G36*
X37453Y44813D02*
X37350Y44799D01*
X37255Y44760D01*
X37173Y44697D01*
X37110Y44615D01*
X37071Y44520D01*
X37057Y44417D01*
X37071Y44315D01*
X37110Y44220D01*
X37173Y44138D01*
X37255Y44075D01*
X37350Y44035D01*
X37453Y44022D01*
X37555Y44035D01*
X37650Y44075D01*
X37732Y44138D01*
X37795Y44220D01*
X37835Y44315D01*
X37848Y44417D01*
X37835Y44520D01*
X37795Y44615D01*
X37732Y44697D01*
X37650Y44760D01*
X37555Y44799D01*
X37453Y44813D01*
D02*
G37*
G36*
X10228Y46512D02*
X10133Y46499D01*
X10043Y46462D01*
X9967Y46403D01*
X9908Y46327D01*
X9871Y46238D01*
X9858Y46142D01*
X9871Y46046D01*
X9908Y45957D01*
X9967Y45880D01*
X10043Y45821D01*
X10133Y45784D01*
X10228Y45772D01*
X10324Y45784D01*
X10413Y45821D01*
X10490Y45880D01*
X10549Y45957D01*
X10586Y46046D01*
X10598Y46142D01*
X10586Y46238D01*
X10549Y46327D01*
X10490Y46403D01*
X10413Y46462D01*
X10324Y46499D01*
X10228Y46512D01*
D02*
G37*
%LPD*%
D14*
X30189Y42640D02*
X37453D01*
X38789Y39461D02*
X42520D01*
X36581D02*
X38789D01*
X24480Y36140D02*
X24910D01*
X25460D02*
X28581D01*
X24910D02*
X25460D01*
X21787Y55236D02*
X22404Y54620D01*
X26850D01*
X27270Y55040D01*
X31684D01*
X31764Y55120D01*
Y55551D01*
X38018Y42852D02*
X38453Y42417D01*
X37118Y42852D02*
X38018D01*
X36280Y43690D02*
X37118Y42852D01*
X30237Y43690D02*
X36280D01*
X29738Y44189D02*
X30237Y43690D01*
X29750Y49801D02*
X30138Y50189D01*
X29750Y48920D02*
Y49801D01*
Y48920D02*
X30080Y48590D01*
X32510D01*
X33410Y47690D01*
X36350D01*
X37060Y46980D01*
X37660D01*
X37880Y46760D01*
Y46360D02*
Y46760D01*
Y46360D02*
X38260Y45980D01*
X38720D01*
X38890Y46150D01*
Y46980D01*
X38453Y47417D02*
X38890Y46980D01*
X36861Y44009D02*
X37453Y43417D01*
X36220Y44680D02*
X36861Y44009D01*
X35740Y44680D02*
X36220D01*
X35640Y44780D02*
X35740Y44680D01*
X30147Y44780D02*
X35640D01*
X29738Y45189D02*
X30147Y44780D01*
X38018Y43852D02*
X38453Y43417D01*
X38018Y43852D02*
Y45472D01*
X37640Y45850D02*
X38018Y45472D01*
X36930Y45850D02*
X37640D01*
X36770Y45690D02*
X36930Y45850D01*
X30237Y45690D02*
X36770D01*
X29738Y46189D02*
X30237Y45690D01*
X38453Y44417D02*
X39533D01*
X40450Y43500D01*
Y41760D02*
Y43500D01*
X39360Y40670D02*
X40450Y41760D01*
X38640Y40670D02*
X39360D01*
X38586Y40724D02*
X38640Y40670D01*
X31526Y40724D02*
X38586D01*
X31070Y41180D02*
X31526Y40724D01*
X31810Y31450D02*
X33504Y29756D01*
X28600Y31450D02*
X31810D01*
X28190Y31040D02*
X28600Y31450D01*
X28190Y30803D02*
Y31040D01*
X28000Y30613D02*
X28190Y30803D01*
X26190Y30613D02*
X28000D01*
X25787Y31016D02*
X26190Y30613D01*
X14751Y48330D02*
X15039Y48618D01*
X10880Y48330D02*
X14751D01*
X16155Y48181D02*
X27323D01*
X15476D02*
X16155D01*
X15039Y48618D02*
X15476Y48181D01*
X20267Y45936D02*
X20669Y46339D01*
X18400Y45936D02*
X20267D01*
X16155Y48181D02*
X18400Y45936D01*
X25580Y36400D02*
X26841D01*
X27252Y36811D01*
X11228Y41142D02*
X12839D01*
X14961Y43264D01*
X18787Y55236D02*
X23334Y50690D01*
X30290D01*
X31404Y49576D01*
X34345D01*
X34732Y49189D01*
X32110Y34350D02*
X33600D01*
X34010Y33940D01*
Y32250D02*
Y33940D01*
Y32250D02*
X34504Y31756D01*
X33790Y38780D02*
Y39380D01*
X30880Y35870D02*
X33790Y38780D01*
X18100Y35870D02*
X30880D01*
X17930Y36040D02*
X18100Y35870D01*
X34430Y47189D02*
X34732D01*
X34179Y47440D02*
X34430Y47189D01*
X33130Y47440D02*
X34179D01*
X32930Y47640D02*
X33130Y47440D01*
X25100Y47640D02*
X32930D01*
X24820Y47920D02*
X25100Y47640D01*
X19640Y47920D02*
X24820D01*
X19080Y47360D02*
X19640Y47920D01*
X26414Y46680D02*
X35040D01*
X35120Y46760D01*
X22640Y41640D02*
X37890D01*
X22120Y41120D02*
X22640Y41640D01*
X31770Y35080D02*
X34730Y38040D01*
X21260Y35080D02*
X31770D01*
X25421Y47181D02*
X27323D01*
X30138Y53189D02*
X30647Y52680D01*
X36490D01*
X36690Y52480D01*
Y51815D02*
Y52480D01*
Y51815D02*
X38088Y50417D01*
X38453D01*
X37950Y49920D02*
X38453Y49417D01*
X37230Y49920D02*
X37950D01*
X36910Y50240D02*
X37230Y49920D01*
X36910Y50240D02*
Y51250D01*
X36480Y51680D02*
X36910Y51250D01*
X30647Y51680D02*
X36480D01*
X30138Y52189D02*
X30647Y51680D01*
X15150Y27420D02*
X15360Y27210D01*
X16430D01*
X16890Y27669D01*
X17120Y31130D02*
X17800Y31810D01*
X15680Y31130D02*
X17120D01*
X15430Y30880D02*
X15680Y31130D01*
X15430Y30376D02*
Y30880D01*
Y30376D02*
X15680Y30126D01*
X16350D01*
X16430Y29129D01*
X16890Y28669D01*
Y29669D02*
X24189D01*
X24190Y29670D01*
X25460Y36850D02*
Y37420D01*
X25020Y37860D02*
X25460Y37420D01*
X20490Y37860D02*
X25020D01*
X16890Y30669D02*
X17270D01*
X17840Y31270D01*
X37663Y40587D02*
X38789Y39461D01*
X29335Y40587D02*
X37663D01*
X28732Y41189D02*
X29335Y40587D01*
X16360Y34010D02*
X18575Y31795D01*
X16360Y34010D02*
Y34200D01*
X28581Y36140D02*
X29252Y36811D01*
X24250Y36370D02*
X24480Y36140D01*
X20236Y36370D02*
X24250D01*
X9680Y30714D02*
X10906Y29488D01*
X9680Y30714D02*
Y47424D01*
X10169Y47913D01*
X11819Y46264D01*
X14961D01*
X10228Y43142D02*
X10688Y43602D01*
Y44490D01*
X10742Y44544D01*
X15996D01*
X17418Y43122D01*
Y39711D02*
Y43122D01*
X17040Y39334D02*
X17418Y39711D01*
X17040Y38920D02*
Y39334D01*
Y38920D02*
X18847Y37113D01*
X19200D01*
X19291Y37023D01*
Y36669D02*
Y37023D01*
Y36669D02*
X19840Y36120D01*
X23940D01*
X23133Y32670D02*
X23787Y32016D01*
X20487Y32670D02*
X23133D01*
X17545Y35612D02*
X20487Y32670D01*
X17545Y35612D02*
Y37449D01*
X15929Y39064D02*
X17545Y37449D01*
X15929Y39064D02*
Y43097D01*
X15360Y43666D02*
X15929Y43097D01*
X11753Y43666D02*
X15360D01*
X11228Y43142D02*
X11753Y43666D01*
X10228Y38142D02*
X10647Y38560D01*
X12551D01*
X16614Y34497D01*
Y34223D02*
Y34497D01*
Y34223D02*
X20361Y30476D01*
X28247D01*
X28787Y31016D01*
X27383Y31420D02*
X27787Y31016D01*
X24505Y31420D02*
X27383D01*
X24333Y31248D02*
X24505Y31420D01*
X24333Y30946D02*
Y31248D01*
X24000Y30613D02*
X24333Y30946D01*
X20480Y30613D02*
X24000D01*
X16767Y34327D02*
X20480Y30613D01*
X16767Y34327D02*
Y34905D01*
X12942Y38730D02*
X16767Y34905D01*
X10640Y38730D02*
X12942D01*
X10228Y39142D02*
X10640Y38730D01*
X26362Y31590D02*
X26787Y32016D01*
X24290Y31590D02*
X26362D01*
X24170Y31470D02*
X24290Y31590D01*
X22190Y31470D02*
X24170D01*
X22050Y31610D02*
X22190Y31470D01*
X20390Y31610D02*
X22050D01*
X17237Y34763D02*
X20390Y31610D01*
X17237Y34763D02*
Y36615D01*
X13710Y40142D02*
X17237Y36615D01*
X11228Y40142D02*
X13710D01*
X21383Y32420D02*
X21787Y32016D01*
X20462Y32420D02*
X21383D01*
X17375Y35507D02*
X20462Y32420D01*
X17375Y35507D02*
Y37153D01*
X13637Y40890D02*
X17375Y37153D01*
X12640Y40890D02*
X13637D01*
X21385Y31418D02*
X21787Y31016D01*
X20348Y31418D02*
X21385D01*
X17099Y34667D02*
X20348Y31418D01*
X17099Y34667D02*
Y36347D01*
X13796Y39650D02*
X17099Y36347D01*
X10010Y39650D02*
X13796D01*
X9820Y39840D02*
X10010Y39650D01*
X9820Y39840D02*
Y44733D01*
X10228Y45142D01*
X22787Y32016D02*
X23193Y31610D01*
X23951D01*
X24240Y31899D01*
Y32179D01*
X23329Y33090D02*
X24240Y32179D01*
X20517Y33090D02*
X23329D01*
X17688Y35919D02*
X20517Y33090D01*
X17688Y35919D02*
Y37622D01*
X16067Y39243D02*
X17688Y37622D01*
X16067Y39243D02*
Y43943D01*
X15868Y44142D02*
X16067Y43943D01*
X11228Y44142D02*
X15868D01*
X10228D02*
Y44521D01*
X10826Y45118D01*
Y45330D01*
X11040Y45544D01*
X16366D01*
X17556Y44354D01*
Y39636D02*
Y44354D01*
X17200Y39280D02*
X17556Y39636D01*
X17200Y38970D02*
Y39280D01*
Y38970D02*
X18919Y37251D01*
X24469D01*
X24590Y37130D01*
X11810Y33260D02*
X14090D01*
X15220Y32130D01*
X17920D01*
X18210Y31840D01*
Y31432D02*
Y31840D01*
Y31432D02*
X18634Y31008D01*
X28732Y43189D02*
X29121Y42800D01*
X35410D01*
X35500Y42890D01*
X18240Y37140D02*
X18550Y36830D01*
X19010D01*
X11750Y34200D02*
X16360D01*
X10945Y33395D02*
X11750Y34200D01*
X10945Y32362D02*
Y33395D01*
X20030Y34730D02*
Y35610D01*
Y34730D02*
X20320Y34440D01*
X31560D01*
X36581Y39461D01*
X18100Y39380D02*
X22350D01*
X17940Y39220D02*
X18100Y39380D01*
X32980Y38980D02*
X34340Y40340D01*
X17596Y38980D02*
X32980D01*
X17446Y39130D02*
X17596Y38980D01*
X24480Y36570D02*
X24910Y36140D01*
X20940Y36570D02*
X24480D01*
X20750Y34690D02*
Y35000D01*
X21350Y35600D01*
X21960D01*
X40787Y41106D02*
X42560D01*
X42930Y40736D01*
Y38182D02*
Y40736D01*
X34504Y29756D02*
X42930Y38182D01*
X25120Y36480D02*
X25460Y36140D01*
X25120Y36480D02*
Y37000D01*
X24620Y37500D02*
X25120Y37000D01*
X22600Y37500D02*
X24620D01*
X15890Y30669D02*
X16295Y30264D01*
X16430D01*
X16484Y30210D01*
X28982D01*
X29787Y31016D01*
X32338Y47189D02*
X33951D01*
X37453Y42417D02*
Y42640D01*
X29738Y42189D02*
X30189Y42640D01*
X34281Y44640D02*
X34732Y44189D01*
X25280Y44640D02*
X34281D01*
X24960Y44960D02*
X25280Y44640D01*
X24960Y44960D02*
Y46970D01*
X24220Y47710D02*
X24960Y46970D01*
X20041Y47710D02*
X24220D01*
X18669Y46339D02*
X20041Y47710D01*
X39693Y42980D02*
X40039Y42634D01*
X38130Y42980D02*
X39693D01*
X37880Y43230D02*
X38130Y42980D01*
X37880Y43230D02*
Y44990D01*
X37453Y45417D02*
X37880Y44990D01*
X34040Y30220D02*
X34504Y29756D01*
X33320Y30220D02*
X34040D01*
X30950Y32590D02*
X33320Y30220D01*
X26362Y32590D02*
X30950D01*
X25787Y32016D02*
X26362Y32590D01*
X35167Y47181D02*
X36063D01*
X35159Y47189D02*
X35167Y47181D01*
X34732Y47189D02*
X35159D01*
X38450Y45417D02*
X38453D01*
X38080Y45787D02*
X38450Y45417D01*
X38080Y45787D02*
Y45790D01*
X37453Y46417D02*
X38080Y45790D01*
X32789Y50640D02*
X36440D01*
X32338Y50189D02*
X32789Y50640D01*
X37880Y48990D02*
X38453Y48417D01*
X37060Y48990D02*
X37880D01*
X36336Y49714D02*
X37060Y48990D01*
X31613Y49714D02*
X36336D01*
X30138Y51189D02*
X31613Y49714D01*
X13583Y47634D02*
X16405D01*
X18240Y45798D01*
X21129D01*
X21669Y46339D01*
X29787Y31016D02*
X32047Y28756D01*
X33504D01*
X14961Y46264D02*
X15514Y45710D01*
X17942D01*
X17991Y45661D01*
X22991D01*
X23669Y46339D01*
X37343Y28756D02*
X39173Y30587D01*
X34504Y28756D02*
X37343D01*
X38587Y41181D02*
X40039Y42634D01*
X36063Y41181D02*
X38587D01*
X35398Y52181D02*
X36063D01*
X35390Y52189D02*
X35398Y52181D01*
X34732Y52189D02*
X35390D01*
X35398Y49181D02*
X36063D01*
X35390Y49189D02*
X35398Y49181D01*
X34732Y49189D02*
X35390D01*
X37960Y46910D02*
X38453Y46417D01*
X37960Y46910D02*
Y48650D01*
X37760Y48850D02*
X37960Y48650D01*
X36930Y48850D02*
X37760D01*
X36770Y48690D02*
X36930Y48850D01*
X35180Y48690D02*
X36770D01*
X35070Y48800D02*
X35180Y48690D01*
X30527Y48800D02*
X35070D01*
X30138Y49189D02*
X30527Y48800D01*
X35398Y46181D02*
X36063D01*
X35390Y46189D02*
X35398Y46181D01*
X34732Y46189D02*
X35390D01*
X35398Y44181D02*
X36063D01*
X35390Y44189D02*
X35398Y44181D01*
X34732Y44189D02*
X35390D01*
X39173Y30587D02*
X40748D01*
X33504Y28756D02*
X34504D01*
X27787Y32016D02*
X28787D01*
X29787D01*
X35398Y41181D02*
X36063D01*
X35390Y41189D02*
X35398Y41181D01*
X34732Y41189D02*
X35390D01*
X14471Y29669D02*
X15890D01*
X14290Y29488D02*
X14471Y29669D01*
X12874Y29488D02*
X14290D01*
X10228Y37142D02*
X11228D01*
X28028Y42189D02*
X28732D01*
X28020Y42181D02*
X28028Y42189D01*
X27323Y42181D02*
X28020D01*
X35398D02*
X36063D01*
X35390Y42189D02*
X35398Y42181D01*
X34732Y42189D02*
X35390D01*
X35398Y43181D02*
X36063D01*
X35390Y43189D02*
X35398Y43181D01*
X34732Y43189D02*
X35390D01*
X28028Y45189D02*
X28732D01*
X28020Y45181D02*
X28028Y45189D01*
X27323Y45181D02*
X28020D01*
X28028Y44189D02*
X28732D01*
X28020Y44181D02*
X28028Y44189D01*
X27323Y44181D02*
X28020D01*
X28028Y48189D02*
X28732D01*
X28020Y48181D02*
X28028Y48189D01*
X27323Y48181D02*
X28020D01*
X28028Y49189D02*
X28732D01*
X28020Y49181D02*
X28028Y49189D01*
X27323Y49181D02*
X28020D01*
X28028Y53189D02*
X28732D01*
X28020Y53181D02*
X28028Y53189D01*
X27323Y53181D02*
X28020D01*
X35398Y50181D02*
X36063D01*
X35390Y50189D02*
X35398Y50181D01*
X34732Y50189D02*
X35390D01*
X28028Y52189D02*
X28732D01*
X28020Y52181D02*
X28028Y52189D01*
X27323Y52181D02*
X28020D01*
X28028Y51189D02*
X28732D01*
X28020Y51181D02*
X28028Y51189D01*
X27323Y51181D02*
X28020D01*
X28028Y50189D02*
X28732D01*
X28020Y50181D02*
X28028Y50189D01*
X27323Y50181D02*
X28020D01*
X35398Y45181D02*
X36063D01*
X35390Y45189D02*
X35398Y45181D01*
X34732Y45189D02*
X35390D01*
X35398Y48181D02*
X36063D01*
X35390Y48189D02*
X35398Y48181D01*
X34732Y48189D02*
X35390D01*
X35398Y51181D02*
X36063D01*
X35390Y51189D02*
X35398Y51181D01*
X34732Y51189D02*
X35390D01*
X28028Y47189D02*
X28732D01*
X28020Y47181D02*
X28028Y47189D01*
X27323Y47181D02*
X28020D01*
X28028Y46189D02*
X28732D01*
X28020Y46181D02*
X28028Y46189D01*
X27323Y46181D02*
X28020D01*
X28028Y41189D02*
X28732D01*
X28020Y41181D02*
X28028Y41189D01*
X27323Y41181D02*
X28020D01*
X28028Y43189D02*
X28732D01*
X28020Y43181D02*
X28028Y43189D01*
X27323Y43181D02*
X28020D01*
X35398Y54181D02*
X36063D01*
X35390Y54189D02*
X35398Y54181D01*
X34732Y54189D02*
X35390D01*
X35398Y53181D02*
X36063D01*
X35390Y53189D02*
X35398Y53181D01*
X34732Y53189D02*
X35390D01*
X28028Y54189D02*
X28732D01*
X28020Y54181D02*
X28028Y54189D01*
X27323Y54181D02*
X28020D01*
D15*
X21669Y40339D02*
D03*
X20669D02*
D03*
X18669Y46339D02*
D03*
X19669D02*
D03*
X22669Y40339D02*
D03*
X20669Y46339D02*
D03*
X23669D02*
D03*
X22669D02*
D03*
X19669Y40339D02*
D03*
X21669Y46339D02*
D03*
X16669Y40339D02*
D03*
X25669D02*
D03*
X16669Y46339D02*
D03*
X25669D02*
D03*
X21787Y49236D02*
D03*
X20787D02*
D03*
X18787Y55236D02*
D03*
X19787D02*
D03*
X22787Y49236D02*
D03*
X20787Y55236D02*
D03*
X23787D02*
D03*
X22787D02*
D03*
X19787Y49236D02*
D03*
X21787Y55236D02*
D03*
X16787Y49236D02*
D03*
X25787D02*
D03*
X16787Y55236D02*
D03*
X25787D02*
D03*
X13583Y47634D02*
D03*
Y50634D02*
D03*
X11169Y47913D02*
D03*
X40815D02*
D03*
X40039Y42634D02*
D03*
Y45634D02*
D03*
X39173Y41106D02*
D03*
Y38106D02*
D03*
X40787Y41106D02*
D03*
Y38106D02*
D03*
X40748Y33587D02*
D03*
Y30587D02*
D03*
X39173Y33587D02*
D03*
Y30587D02*
D03*
X15039Y51618D02*
D03*
Y48618D02*
D03*
X14961Y46264D02*
D03*
Y43264D02*
D03*
X10228Y46142D02*
D03*
X11228D02*
D03*
X10228Y45142D02*
D03*
X11228D02*
D03*
X10228Y44142D02*
D03*
X11228D02*
D03*
X10228Y43142D02*
D03*
X11228D02*
D03*
X10228Y42142D02*
D03*
X11228D02*
D03*
X10228Y41142D02*
D03*
X11228D02*
D03*
X10228Y40142D02*
D03*
X11228D02*
D03*
X10228Y39142D02*
D03*
X11228D02*
D03*
X10228Y38142D02*
D03*
X11228D02*
D03*
X10228Y37142D02*
D03*
X11228D02*
D03*
X29787Y32016D02*
D03*
Y31016D02*
D03*
X28787Y32016D02*
D03*
Y31016D02*
D03*
X27787Y32016D02*
D03*
Y31016D02*
D03*
X26787Y32016D02*
D03*
Y31016D02*
D03*
X25787Y32016D02*
D03*
Y31016D02*
D03*
X24787Y32016D02*
D03*
Y31016D02*
D03*
X23787Y32016D02*
D03*
Y31016D02*
D03*
X22787Y32016D02*
D03*
Y31016D02*
D03*
X21787Y32016D02*
D03*
Y31016D02*
D03*
X20787Y32016D02*
D03*
Y31016D02*
D03*
X42520Y40461D02*
D03*
X42598Y36642D02*
D03*
D16*
X10169Y47913D02*
D03*
X39815D02*
D03*
D17*
X34504Y28756D02*
D03*
X33504D02*
D03*
X34504Y29756D02*
D03*
X33504D02*
D03*
X34504Y30756D02*
D03*
X33504D02*
D03*
X34504Y31756D02*
D03*
X33504D02*
D03*
X34504Y32756D02*
D03*
X27323Y41181D02*
D03*
Y42181D02*
D03*
Y43181D02*
D03*
Y44181D02*
D03*
Y45181D02*
D03*
Y46181D02*
D03*
Y47181D02*
D03*
Y48181D02*
D03*
Y49181D02*
D03*
Y50181D02*
D03*
Y51181D02*
D03*
Y52181D02*
D03*
Y53181D02*
D03*
Y54181D02*
D03*
X15890Y29669D02*
D03*
X16890D02*
D03*
X15890Y28669D02*
D03*
X16890D02*
D03*
X15890Y27669D02*
D03*
X16890D02*
D03*
X15890Y26669D02*
D03*
X16890D02*
D03*
X15890Y25669D02*
D03*
X36063Y41181D02*
D03*
Y42181D02*
D03*
Y43181D02*
D03*
Y44181D02*
D03*
Y45181D02*
D03*
Y46181D02*
D03*
Y47181D02*
D03*
Y48181D02*
D03*
Y49181D02*
D03*
Y50181D02*
D03*
Y51181D02*
D03*
Y52181D02*
D03*
Y53181D02*
D03*
Y54181D02*
D03*
D18*
X33504Y32756D02*
D03*
X16890Y25669D02*
D03*
D19*
X33504Y27756D02*
D03*
X34504D02*
D03*
X33504Y26756D02*
D03*
X34504D02*
D03*
X33504Y25756D02*
D03*
X34504D02*
D03*
X16890Y30669D02*
D03*
X15890D02*
D03*
X16890Y31669D02*
D03*
X15890D02*
D03*
X16890Y32669D02*
D03*
X15890D02*
D03*
D20*
X33764Y55551D02*
D03*
X32764D02*
D03*
X31764D02*
D03*
X30764D02*
D03*
D21*
X29764D02*
D03*
D22*
X37795Y51968D02*
D03*
X12598Y26378D02*
D03*
X37795D02*
D03*
X12598Y51968D02*
D03*
D23*
X34732Y41189D02*
D03*
Y42189D02*
D03*
Y43189D02*
D03*
Y44189D02*
D03*
Y45189D02*
D03*
Y46189D02*
D03*
Y47189D02*
D03*
Y48189D02*
D03*
Y49189D02*
D03*
Y50189D02*
D03*
Y51189D02*
D03*
Y52189D02*
D03*
Y53189D02*
D03*
Y54189D02*
D03*
X28732D02*
D03*
Y53189D02*
D03*
Y52189D02*
D03*
Y51189D02*
D03*
Y50189D02*
D03*
Y49189D02*
D03*
Y48189D02*
D03*
Y47189D02*
D03*
Y46189D02*
D03*
Y45189D02*
D03*
Y44189D02*
D03*
Y43189D02*
D03*
Y42189D02*
D03*
Y41189D02*
D03*
X29738Y54189D02*
D03*
X30738D02*
D03*
X31738D02*
D03*
X32738D02*
D03*
X33738D02*
D03*
X30138Y53189D02*
D03*
X32338D02*
D03*
Y52189D02*
D03*
X30138D02*
D03*
Y51189D02*
D03*
X32338D02*
D03*
Y50189D02*
D03*
X30138D02*
D03*
Y49189D02*
D03*
X32338D02*
D03*
Y48189D02*
D03*
X30138D02*
D03*
Y47189D02*
D03*
X32338D02*
D03*
X29738Y46189D02*
D03*
Y45189D02*
D03*
Y44189D02*
D03*
Y42189D02*
D03*
D24*
X10906Y29488D02*
D03*
X12874D02*
D03*
X10945Y32362D02*
D03*
X12913D02*
D03*
D25*
X42520Y39461D02*
D03*
X42598Y35642D02*
D03*
D26*
X37453Y42417D02*
D03*
D27*
X38453D02*
D03*
X37453Y43417D02*
D03*
X38453D02*
D03*
X37453Y44417D02*
D03*
X38453D02*
D03*
X37453Y45417D02*
D03*
X38453D02*
D03*
X37453Y46417D02*
D03*
X38453D02*
D03*
X37453Y47417D02*
D03*
X38453D02*
D03*
X37453Y48417D02*
D03*
X38453D02*
D03*
X37453Y49417D02*
D03*
X38453D02*
D03*
X37453Y50417D02*
D03*
X38453D02*
D03*
D28*
X26252Y36811D02*
D03*
D29*
X27252D02*
D03*
X28252D02*
D03*
X29252D02*
D03*
D30*
X31070Y41180D02*
D03*
X10880Y48330D02*
D03*
X25580Y36400D02*
D03*
X32110Y34350D02*
D03*
X33790Y39380D02*
D03*
X17930Y36040D02*
D03*
X19080Y47360D02*
D03*
X26414Y46680D02*
D03*
X35120Y46760D02*
D03*
X37890Y41640D02*
D03*
X22120Y41120D02*
D03*
X34730Y38040D02*
D03*
X21260Y35080D02*
D03*
X25421Y47181D02*
D03*
X15150Y27420D02*
D03*
X17800Y31810D02*
D03*
X24190Y29670D02*
D03*
X25460Y36850D02*
D03*
X20490Y37860D02*
D03*
X17840Y31270D02*
D03*
X18575Y31795D02*
D03*
X16360Y34200D02*
D03*
X20236Y36370D02*
D03*
X23940Y36120D02*
D03*
X12640Y40890D02*
D03*
X24590Y37130D02*
D03*
X11810Y33260D02*
D03*
X18634Y31008D02*
D03*
X35500Y42890D02*
D03*
X18240Y37140D02*
D03*
X19010Y36830D02*
D03*
X20030Y35610D02*
D03*
X22350Y39380D02*
D03*
X17940Y39220D02*
D03*
X34340Y40340D02*
D03*
X17446Y39130D02*
D03*
X20940Y36570D02*
D03*
X20750Y34690D02*
D03*
X21960Y35600D02*
D03*
X22600Y37500D02*
D03*
X33951Y47189D02*
D03*
X36440Y50640D02*
D03*
M02*
