%TF.GenerationSoftware,Altium Limited,CircuitMaker,2.0.2 (2.0.2.40)*%
G04 Layer_Color=25308*
%FSLAX24Y24*%
%MOIN*%
%TF.SameCoordinates,FDAE7A5D-6217-40FD-BC7F-11D62B7A5D98*%
%TF.FilePolarity,Positive*%
%TF.FileFunction,Pads,Top*%
%TF.Part,Single*%
G01*
G75*
%TA.AperFunction,SMDPad,CuDef*%
%ADD10R,0.0413X0.0276*%
%ADD11R,0.0205X0.0276*%
%ADD12R,0.0945X0.0945*%
%ADD13R,0.0787X0.1142*%
%TA.AperFunction,BGAPad,SMDef*%
%ADD14R,0.0236X0.0236*%
%ADD15R,0.0236X0.0236*%
%TA.AperFunction,SMDPad,CuDef*%
%ADD16R,0.0512X0.1063*%
%TA.AperFunction,ConnectorPad*%
%ADD17R,0.0157X0.0984*%
%TA.AperFunction,SMDPad,CuDef*%
%ADD18R,0.0472X0.1063*%
%ADD19R,0.0709X0.0512*%
D10*
X20295Y15325D02*
D03*
D11*
X19935D02*
D03*
D12*
X27943Y18898D02*
D03*
Y15906D02*
D03*
D13*
X24951Y17362D02*
D03*
D14*
X19685Y19685D02*
D03*
D15*
X20079D02*
D03*
X20472D02*
D03*
X20866D02*
D03*
X21260D02*
D03*
X21654D02*
D03*
X22047D02*
D03*
X22441D02*
D03*
X23228D02*
D03*
X19685Y19291D02*
D03*
X20079D02*
D03*
X20472D02*
D03*
X20866D02*
D03*
X21260D02*
D03*
X21654D02*
D03*
X22047D02*
D03*
X22441D02*
D03*
X23228D02*
D03*
X19685Y18898D02*
D03*
X20472D02*
D03*
X20866D02*
D03*
X21260D02*
D03*
X21654D02*
D03*
X22047D02*
D03*
X22441D02*
D03*
X23228D02*
D03*
X19685Y18504D02*
D03*
X20079D02*
D03*
X20472D02*
D03*
X20866D02*
D03*
X21260D02*
D03*
X21654D02*
D03*
X22047D02*
D03*
X22441D02*
D03*
X23228D02*
D03*
X19685Y18110D02*
D03*
X20079D02*
D03*
X20472D02*
D03*
X20866D02*
D03*
X21260D02*
D03*
X21654D02*
D03*
X22047D02*
D03*
X22441D02*
D03*
X23228D02*
D03*
X19685Y17717D02*
D03*
X20079D02*
D03*
X20472D02*
D03*
X20866D02*
D03*
X21260D02*
D03*
X21654D02*
D03*
X22047D02*
D03*
X22441D02*
D03*
X23228D02*
D03*
X19685Y17323D02*
D03*
X20079D02*
D03*
X20472D02*
D03*
X20866D02*
D03*
X21260D02*
D03*
X21654D02*
D03*
X22047D02*
D03*
X22441D02*
D03*
X23228D02*
D03*
X19685Y16929D02*
D03*
X20079D02*
D03*
X20472D02*
D03*
X20866D02*
D03*
X21260D02*
D03*
X19685Y16535D02*
D03*
X20079D02*
D03*
X20472D02*
D03*
X20866D02*
D03*
X21260D02*
D03*
X22047D02*
D03*
X22441D02*
D03*
X22835D02*
D03*
X23228D02*
D03*
X19685Y16142D02*
D03*
X20079D02*
D03*
X20472D02*
D03*
X20866D02*
D03*
X21260D02*
D03*
X22047D02*
D03*
X22441D02*
D03*
X22835D02*
D03*
X23228D02*
D03*
D16*
X31022Y16535D02*
D03*
X29920D02*
D03*
X31004Y17854D02*
D03*
X29902D02*
D03*
X30992Y15148D02*
D03*
X29890D02*
D03*
X31014Y13760D02*
D03*
X29911D02*
D03*
X31004Y19193D02*
D03*
X29902D02*
D03*
X31014Y12451D02*
D03*
X29911D02*
D03*
X22884Y12500D02*
D03*
X21781D02*
D03*
X26821Y12520D02*
D03*
X25719D02*
D03*
X22874Y15069D02*
D03*
X21772D02*
D03*
X25709Y13829D02*
D03*
X26811D02*
D03*
X22884Y13799D02*
D03*
X21781D02*
D03*
D17*
X25626Y10681D02*
D03*
X25390D02*
D03*
X25154D02*
D03*
X24918D02*
D03*
X24681D02*
D03*
X24445D02*
D03*
X24209D02*
D03*
X23973D02*
D03*
X23737D02*
D03*
X23500D02*
D03*
X23264D02*
D03*
X23028D02*
D03*
X22792D02*
D03*
X22556D02*
D03*
X22319D02*
D03*
X40951D02*
D03*
X40715D02*
D03*
X40479D02*
D03*
X40243D02*
D03*
X40006D02*
D03*
X39770D02*
D03*
X39534D02*
D03*
X39298D02*
D03*
X39061D02*
D03*
X38825D02*
D03*
X38589D02*
D03*
X38353D02*
D03*
X38117D02*
D03*
X37880D02*
D03*
X37644D02*
D03*
X37408D02*
D03*
X37172D02*
D03*
X36935D02*
D03*
X36699D02*
D03*
X36463D02*
D03*
X35282D02*
D03*
X35518D02*
D03*
X35754D02*
D03*
X35991D02*
D03*
X36227D02*
D03*
X34101D02*
D03*
X34337D02*
D03*
X34573D02*
D03*
X34809D02*
D03*
X35046D02*
D03*
X33865D02*
D03*
X33628D02*
D03*
X33392D02*
D03*
X33156D02*
D03*
X32920D02*
D03*
X32683D02*
D03*
X32447D02*
D03*
X32211D02*
D03*
X31975D02*
D03*
X31739D02*
D03*
X31502D02*
D03*
X31266D02*
D03*
X31030D02*
D03*
X30794D02*
D03*
X30557D02*
D03*
X30321D02*
D03*
X30085D02*
D03*
X29849D02*
D03*
X29613D02*
D03*
X29376D02*
D03*
X29140D02*
D03*
X28904D02*
D03*
X26306D02*
D03*
X26542D02*
D03*
X26778D02*
D03*
X27014D02*
D03*
X27250D02*
D03*
X27487D02*
D03*
X27723D02*
D03*
X27959D02*
D03*
X28195D02*
D03*
X28431D02*
D03*
X28668D02*
D03*
X26069D02*
D03*
X25833D02*
D03*
X16246Y10651D02*
D03*
X16483D02*
D03*
X16719D02*
D03*
X16955D02*
D03*
X17191D02*
D03*
X18372D02*
D03*
X18136D02*
D03*
X17900D02*
D03*
X17664D02*
D03*
X17428D02*
D03*
X19554D02*
D03*
X19317D02*
D03*
X19081D02*
D03*
X18845D02*
D03*
X18609D02*
D03*
X19790D02*
D03*
X20026D02*
D03*
X20262D02*
D03*
X20498D02*
D03*
X20735D02*
D03*
D18*
X20394Y14380D02*
D03*
X19252D02*
D03*
X19232Y12963D02*
D03*
X20374D02*
D03*
D19*
X17933Y17687D02*
D03*
Y16585D02*
D03*
%TF.MD5,94c7e3cfdce4e42dc68d7f4d302130f6*%
M02*
