%TF.GenerationSoftware,Altium Limited,CircuitMaker,2.0.2 (2.0.2.40)*%
G04 Layer_Physical_Order=1*
G04 Layer_Color=25308*
%FSLAX24Y24*%
%MOIN*%
%TF.SameCoordinates,FDAE7A5D-6217-40FD-BC7F-11D62B7A5D98*%
%TF.FilePolarity,Positive*%
%TF.FileFunction,Copper,L1,Top,Signal*%
%TF.Part,Single*%
G01*
G75*
%TA.AperFunction,SMDPad,CuDef*%
%ADD10R,0.0413X0.0276*%
%ADD11R,0.0205X0.0276*%
%ADD12R,0.0945X0.0945*%
%ADD13R,0.0787X0.1142*%
%TA.AperFunction,BGAPad,SMDef*%
%ADD14R,0.0236X0.0236*%
%ADD15R,0.0236X0.0236*%
%TA.AperFunction,SMDPad,CuDef*%
%ADD16R,0.0512X0.1063*%
%TA.AperFunction,ConnectorPad*%
%ADD17R,0.0157X0.0984*%
%TA.AperFunction,SMDPad,CuDef*%
%ADD18R,0.0472X0.1063*%
%ADD19R,0.0709X0.0512*%
%TA.AperFunction,Conductor*%
%ADD20C,0.0059*%
%ADD21C,0.0394*%
%ADD22R,0.0236X0.0512*%
%ADD23R,0.0874X0.1280*%
%ADD24R,0.5500X0.1689*%
%ADD25R,0.1600X0.0800*%
%ADD26R,0.0650X0.2900*%
%ADD27R,0.2205X0.1417*%
%ADD28R,0.1043X0.0640*%
%ADD29R,0.0709X0.1309*%
%ADD30R,0.1122X0.2185*%
%ADD31R,0.0010X0.0630*%
%ADD32R,0.0236X0.0630*%
%ADD33R,0.1024X0.0236*%
%ADD34R,0.0630X0.1417*%
%ADD35R,0.0256X0.0837*%
%ADD36R,0.0659X0.0236*%
%ADD37R,0.1929X0.1535*%
%ADD38R,0.1220X0.2126*%
%ADD39R,0.0669X0.2520*%
%TA.AperFunction,ViaPad*%
%ADD40C,0.0197*%
%ADD41C,0.0500*%
G36*
X24064Y16775D02*
X24055Y16457D01*
Y15472D01*
X25030Y14862D01*
X25994D01*
X26270Y14587D01*
Y11663D01*
X26939D01*
X27146Y11457D01*
Y11212D01*
X27132D01*
Y10187D01*
X22156D01*
X22148Y10195D01*
Y11222D01*
X22343Y11417D01*
Y15768D01*
X21870D01*
X21791Y15846D01*
Y16762D01*
X21841Y16811D01*
X24029D01*
X24064Y16775D01*
D02*
G37*
G36*
X41299Y19055D02*
Y18392D01*
X41257Y18314D01*
X41212Y18165D01*
X41204Y18081D01*
X41203Y18079D01*
X41193Y18033D01*
X41193Y18033D01*
X41193Y18033D01*
Y18033D01*
Y18033D01*
X41193Y18031D01*
X41196Y17996D01*
X41196Y17996D01*
X41196Y17996D01*
X41197Y17987D01*
X41197Y17984D01*
X41202Y17936D01*
X41212Y17830D01*
X41261Y17669D01*
X41299Y17598D01*
Y10394D01*
X41063Y10157D01*
X33543D01*
Y11890D01*
X30748D01*
Y20039D01*
X40315D01*
X41299Y19055D01*
D02*
G37*
G36*
X30465Y20054D02*
X30482Y20020D01*
X30482D01*
Y11634D01*
X33022Y11638D01*
X33054Y11619D01*
X33071Y11585D01*
X33071D01*
X33072Y11247D01*
X33038Y11212D01*
X33038D01*
Y10149D01*
X32991Y10141D01*
X27888D01*
X27841Y10149D01*
Y11212D01*
X27756D01*
Y11437D01*
X27303Y11433D01*
X27303Y11433D01*
X27275Y11444D01*
X27254Y11486D01*
Y11486D01*
X27254Y11486D01*
X27254Y11486D01*
X27250Y16850D01*
X27262Y16879D01*
X27303Y16900D01*
Y16900D01*
X28711Y16919D01*
X28701Y20014D01*
X28706Y20027D01*
X28732Y20059D01*
X30433Y20073D01*
X30465Y20054D01*
D02*
G37*
%LPC*%
G36*
X38632Y16125D02*
X38578Y16114D01*
X38533Y16084D01*
X38502Y16038D01*
X38491Y15984D01*
X38502Y15930D01*
X38533Y15885D01*
X38562Y15865D01*
Y15482D01*
X38410Y15331D01*
X38376Y15337D01*
X38322Y15327D01*
X38277Y15296D01*
X38246Y15251D01*
X38235Y15197D01*
X38246Y15143D01*
X38277Y15098D01*
X38322Y15067D01*
X38376Y15056D01*
X38430Y15067D01*
X38475Y15098D01*
X38506Y15143D01*
X38516Y15197D01*
X38510Y15231D01*
X38682Y15403D01*
X38697Y15426D01*
X38702Y15453D01*
Y15865D01*
X38731Y15885D01*
X38762Y15930D01*
X38772Y15984D01*
X38762Y16038D01*
X38731Y16084D01*
X38686Y16114D01*
X38632Y16125D01*
D02*
G37*
%LPD*%
D10*
X20295Y15325D02*
D03*
D11*
X19935D02*
D03*
D12*
X27943Y18898D02*
D03*
Y15906D02*
D03*
D13*
X24951Y17362D02*
D03*
D14*
X19685Y19685D02*
D03*
D15*
X20079D02*
D03*
X20472D02*
D03*
X20866D02*
D03*
X21260D02*
D03*
X21654D02*
D03*
X22047D02*
D03*
X22441D02*
D03*
X23228D02*
D03*
X19685Y19291D02*
D03*
X20079D02*
D03*
X20472D02*
D03*
X20866D02*
D03*
X21260D02*
D03*
X21654D02*
D03*
X22047D02*
D03*
X22441D02*
D03*
X23228D02*
D03*
X19685Y18898D02*
D03*
X20472D02*
D03*
X20866D02*
D03*
X21260D02*
D03*
X21654D02*
D03*
X22047D02*
D03*
X22441D02*
D03*
X23228D02*
D03*
X19685Y18504D02*
D03*
X20079D02*
D03*
X20472D02*
D03*
X20866D02*
D03*
X21260D02*
D03*
X21654D02*
D03*
X22047D02*
D03*
X22441D02*
D03*
X23228D02*
D03*
X19685Y18110D02*
D03*
X20079D02*
D03*
X20472D02*
D03*
X20866D02*
D03*
X21260D02*
D03*
X21654D02*
D03*
X22047D02*
D03*
X22441D02*
D03*
X23228D02*
D03*
X19685Y17717D02*
D03*
X20079D02*
D03*
X20472D02*
D03*
X20866D02*
D03*
X21260D02*
D03*
X21654D02*
D03*
X22047D02*
D03*
X22441D02*
D03*
X23228D02*
D03*
X19685Y17323D02*
D03*
X20079D02*
D03*
X20472D02*
D03*
X20866D02*
D03*
X21260D02*
D03*
X21654D02*
D03*
X22047D02*
D03*
X22441D02*
D03*
X23228D02*
D03*
X19685Y16929D02*
D03*
X20079D02*
D03*
X20472D02*
D03*
X20866D02*
D03*
X21260D02*
D03*
X19685Y16535D02*
D03*
X20079D02*
D03*
X20472D02*
D03*
X20866D02*
D03*
X21260D02*
D03*
X22047D02*
D03*
X22441D02*
D03*
X22835D02*
D03*
X23228D02*
D03*
X19685Y16142D02*
D03*
X20079D02*
D03*
X20472D02*
D03*
X20866D02*
D03*
X21260D02*
D03*
X22047D02*
D03*
X22441D02*
D03*
X22835D02*
D03*
X23228D02*
D03*
D16*
X31022Y16535D02*
D03*
X29920D02*
D03*
X31004Y17854D02*
D03*
X29902D02*
D03*
X30992Y15148D02*
D03*
X29890D02*
D03*
X31014Y13760D02*
D03*
X29911D02*
D03*
X31004Y19193D02*
D03*
X29902D02*
D03*
X31014Y12451D02*
D03*
X29911D02*
D03*
X22884Y12500D02*
D03*
X21781D02*
D03*
X26821Y12520D02*
D03*
X25719D02*
D03*
X22874Y15069D02*
D03*
X21772D02*
D03*
X25709Y13829D02*
D03*
X26811D02*
D03*
X22884Y13799D02*
D03*
X21781D02*
D03*
D17*
X25626Y10681D02*
D03*
X25390D02*
D03*
X25154D02*
D03*
X24918D02*
D03*
X24681D02*
D03*
X24445D02*
D03*
X24209D02*
D03*
X23973D02*
D03*
X23737D02*
D03*
X23500D02*
D03*
X23264D02*
D03*
X23028D02*
D03*
X22792D02*
D03*
X22556D02*
D03*
X22319D02*
D03*
X40951D02*
D03*
X40715D02*
D03*
X40479D02*
D03*
X40243D02*
D03*
X40006D02*
D03*
X39770D02*
D03*
X39534D02*
D03*
X39298D02*
D03*
X39061D02*
D03*
X38825D02*
D03*
X38589D02*
D03*
X38353D02*
D03*
X38117D02*
D03*
X37880D02*
D03*
X37644D02*
D03*
X37408D02*
D03*
X37172D02*
D03*
X36935D02*
D03*
X36699D02*
D03*
X36463D02*
D03*
X35282D02*
D03*
X35518D02*
D03*
X35754D02*
D03*
X35991D02*
D03*
X36227D02*
D03*
X34101D02*
D03*
X34337D02*
D03*
X34573D02*
D03*
X34809D02*
D03*
X35046D02*
D03*
X33865D02*
D03*
X33628D02*
D03*
X33392D02*
D03*
X33156D02*
D03*
X32920D02*
D03*
X32683D02*
D03*
X32447D02*
D03*
X32211D02*
D03*
X31975D02*
D03*
X31739D02*
D03*
X31502D02*
D03*
X31266D02*
D03*
X31030D02*
D03*
X30794D02*
D03*
X30557D02*
D03*
X30321D02*
D03*
X30085D02*
D03*
X29849D02*
D03*
X29613D02*
D03*
X29376D02*
D03*
X29140D02*
D03*
X28904D02*
D03*
X26306D02*
D03*
X26542D02*
D03*
X26778D02*
D03*
X27014D02*
D03*
X27250D02*
D03*
X27487D02*
D03*
X27723D02*
D03*
X27959D02*
D03*
X28195D02*
D03*
X28431D02*
D03*
X28668D02*
D03*
X26069D02*
D03*
X25833D02*
D03*
X16246Y10651D02*
D03*
X16483D02*
D03*
X16719D02*
D03*
X16955D02*
D03*
X17191D02*
D03*
X18372D02*
D03*
X18136D02*
D03*
X17900D02*
D03*
X17664D02*
D03*
X17428D02*
D03*
X19554D02*
D03*
X19317D02*
D03*
X19081D02*
D03*
X18845D02*
D03*
X18609D02*
D03*
X19790D02*
D03*
X20026D02*
D03*
X20262D02*
D03*
X20498D02*
D03*
X20735D02*
D03*
D18*
X20394Y14380D02*
D03*
X19252D02*
D03*
X19232Y12963D02*
D03*
X20374D02*
D03*
D19*
X17933Y17687D02*
D03*
Y16585D02*
D03*
D20*
X16720Y14467D02*
X18372Y12815D01*
X16713Y14467D02*
X16720D01*
X16713D02*
Y15315D01*
X16949Y15551D01*
X16614Y15404D02*
X16890Y15679D01*
X16614Y14426D02*
Y15404D01*
X16516Y14386D02*
Y15953D01*
X16417Y14345D02*
Y15994D01*
X16319Y14304D02*
Y16721D01*
X16220Y14263D02*
Y16762D01*
X16122Y14222D02*
Y16817D01*
X16024Y14134D02*
Y16857D01*
X15896Y14094D02*
Y16869D01*
X15797Y13957D02*
Y16909D01*
X16890Y15679D02*
X19616D01*
X16516Y14386D02*
X17900Y13001D01*
X16516Y15953D02*
X16576Y16014D01*
X16417Y14345D02*
X17664Y13098D01*
X16417Y15994D02*
X16535Y16112D01*
X16319Y16721D02*
X16752Y17154D01*
X16319Y14304D02*
X17428Y13195D01*
X16220Y16762D02*
X16654Y17195D01*
X16220Y14263D02*
X17191Y13292D01*
X16122Y16817D02*
X16555Y17250D01*
X16122Y14222D02*
X16955Y13389D01*
X16024Y14134D02*
X16719Y13439D01*
X16024Y16857D02*
X16457Y17291D01*
X15896Y14094D02*
X16483Y13507D01*
X15896Y16869D02*
X16358Y17331D01*
X15797Y13957D02*
X16246Y13507D01*
X15797Y16909D02*
X16260Y17372D01*
X18136Y10651D02*
Y12904D01*
X16614Y14426D02*
X18136Y12904D01*
X17900Y10651D02*
Y13001D01*
X16576Y16014D02*
X18486D01*
X18614Y16142D01*
X18927D01*
X16949Y15551D02*
X19627D01*
X20031Y15955D01*
X18372Y10651D02*
Y12815D01*
X38376Y15197D02*
X38632Y15453D01*
Y15984D01*
X19232Y12963D02*
Y14360D01*
X19252Y14380D01*
X19203Y14429D02*
X19252Y14380D01*
X19203Y14429D02*
Y15354D01*
X20225Y15955D02*
X20266Y15995D01*
X20031Y15955D02*
X20225D01*
X19616Y15679D02*
X20079Y16142D01*
X18927D02*
X19685D01*
X20266Y15995D02*
Y16142D01*
X20472D01*
X17664Y10651D02*
Y13098D01*
X16535Y16112D02*
X18445D01*
X18868Y16535D01*
X19685D01*
X17428Y10651D02*
Y13195D01*
X16752Y17154D02*
Y17726D01*
X17136Y18110D01*
X19685D01*
X17864Y16526D02*
X18248Y16909D01*
X17992Y17746D02*
X18258Y18012D01*
X19935Y13402D02*
X20374Y12963D01*
X19935Y13402D02*
Y15325D01*
X20463Y15738D02*
X20866Y16142D01*
X20226Y15738D02*
X20463D01*
X20020Y15532D02*
X20226Y15738D01*
X20020Y15409D02*
Y15532D01*
X19935Y15325D02*
X20020Y15409D01*
X25207Y15906D02*
X27943D01*
X24134Y16978D02*
X25207Y15906D01*
X21721Y16978D02*
X24134D01*
X21279Y16535D02*
X21721Y16978D01*
X21260Y16535D02*
X21279D01*
X21112Y16142D02*
X21260D01*
X21053Y16083D02*
X21112Y16142D01*
X21053Y15995D02*
Y16083D01*
X20383Y15325D02*
X21053Y15995D01*
X20295Y15325D02*
X20383D01*
X20295D02*
X20394Y15226D01*
Y14380D02*
Y15226D01*
X17191Y10651D02*
Y13292D01*
X16654Y17195D02*
Y18268D01*
X16457Y17291D02*
Y19575D01*
X16358Y17331D02*
Y19616D01*
X16260Y17372D02*
Y19685D01*
X16555Y17250D02*
Y18652D01*
X16654Y18268D02*
X16890Y18504D01*
X19685D01*
X16955Y10651D02*
Y13389D01*
X16555Y18652D02*
X16801Y18898D01*
X19685D01*
X16719Y10651D02*
Y13439D01*
X16457Y19575D02*
X16940Y20059D01*
X20394D01*
X20472Y19980D01*
Y19685D02*
Y19980D01*
X16483Y10651D02*
Y13507D01*
X16358Y19616D02*
X16900Y20157D01*
X20659D01*
X16260Y19685D02*
X16831Y20256D01*
X20659Y20157D02*
X20866Y19951D01*
Y19685D02*
Y19951D01*
X16246Y10651D02*
Y13507D01*
X16831Y20256D02*
X21014D01*
X21260Y20010D01*
Y19685D02*
Y20010D01*
X18258Y18012D02*
X19183D01*
X19478Y17717D01*
X19685D01*
X18248Y16909D02*
X19665D01*
X19685Y16929D01*
Y17717D02*
X19872Y17530D01*
Y17333D02*
Y17530D01*
X19685Y19685D02*
X20079D01*
Y19291D02*
Y19685D01*
X19685Y19291D02*
X20079D01*
X20285D01*
Y19145D02*
Y19291D01*
Y19145D02*
X20326Y19104D01*
X20472D01*
D21*
X26811Y13829D02*
Y15472D01*
X26644Y15640D02*
X26811Y15472D01*
X25097Y15640D02*
X26644D01*
X24949Y15787D02*
X25097Y15640D01*
X24291Y15787D02*
X24949D01*
D22*
X20866Y16398D02*
D03*
D23*
X24022Y17775D02*
D03*
D24*
X25685Y19191D02*
D03*
D25*
X22685Y16285D02*
D03*
D26*
X23260Y18585D02*
D03*
D27*
X21457Y18701D02*
D03*
D28*
X22028Y19719D02*
D03*
D29*
X21102Y17466D02*
D03*
D30*
X21998Y18297D02*
D03*
D31*
X22554Y19724D02*
D03*
D32*
X21260Y16339D02*
D03*
D33*
X20472Y16535D02*
D03*
D34*
X20276Y17126D02*
D03*
D35*
X20089Y18204D02*
D03*
D36*
X19897Y17323D02*
D03*
D37*
X21083Y12736D02*
D03*
D38*
X21437Y14567D02*
D03*
D39*
X26831Y13228D02*
D03*
D40*
X21063Y18701D02*
D03*
X37087Y19094D02*
D03*
X35512Y18661D02*
D03*
Y18268D02*
D03*
Y17795D02*
D03*
X21850Y17874D02*
D03*
X21063D02*
D03*
X21850Y18661D02*
D03*
X38376Y15197D02*
D03*
X38632Y15984D02*
D03*
X19203Y15354D02*
D03*
X18927Y16142D02*
D03*
D41*
X21142Y14449D02*
D03*
X21102Y13150D02*
D03*
X36732Y12992D02*
D03*
X36693Y14331D02*
D03*
X32126Y12992D02*
D03*
X24409Y15787D02*
D03*
%TF.MD5,0228e8a613228b5e46835cd4cbee9f83*%
M02*
