%TF.GenerationSoftware,Altium Limited,CircuitMaker,2.0.2 (2.0.2.40)*%
G04 Layer_Color=20142*
%FSLAX24Y24*%
%MOIN*%
%TF.SameCoordinates,FDAE7A5D-6217-40FD-BC7F-11D62B7A5D98*%
%TF.FilePolarity,Negative*%
%TF.FileFunction,Soldermask,Top*%
%TF.Part,Single*%
G01*
G75*
%TA.AperFunction,SMDPad,CuDef*%
%ADD52R,0.0789X0.0592*%
%TA.AperFunction,ConnectorPad*%
%ADD53R,0.0237X0.1064*%
%TA.AperFunction,SMDPad,CuDef*%
%ADD54R,0.0592X0.1143*%
%ADD55R,0.0552X0.1143*%
%ADD56R,0.0493X0.0356*%
%ADD57R,0.0285X0.0356*%
%TA.AperFunction,BGAPad,SMDef*%
%ADD58R,0.0217X0.0217*%
%ADD59R,0.0217X0.0217*%
%TA.AperFunction,SMDPad,CuDef*%
%ADD60R,0.1025X0.1025*%
%ADD61R,0.0867X0.1222*%
%TA.AperFunction,ViaPad*%
%ADD62C,0.0277*%
%ADD63C,0.0580*%
%TA.AperFunction,NonConductor*%
%ADD64R,0.1142X0.3031*%
D52*
X17933Y17687D02*
D03*
Y16585D02*
D03*
D53*
X25626Y10681D02*
D03*
X25390D02*
D03*
X25154D02*
D03*
X24918D02*
D03*
X24681D02*
D03*
X24445D02*
D03*
X24209D02*
D03*
X23973D02*
D03*
X23737D02*
D03*
X23500D02*
D03*
X23264D02*
D03*
X23028D02*
D03*
X22792D02*
D03*
X22556D02*
D03*
X22319D02*
D03*
X40951D02*
D03*
X40715D02*
D03*
X40479D02*
D03*
X40243D02*
D03*
X40006D02*
D03*
X39770D02*
D03*
X39534D02*
D03*
X39298D02*
D03*
X39061D02*
D03*
X38825D02*
D03*
X38589D02*
D03*
X38353D02*
D03*
X38117D02*
D03*
X37880D02*
D03*
X37644D02*
D03*
X37408D02*
D03*
X37172D02*
D03*
X36935D02*
D03*
X36699D02*
D03*
X36463D02*
D03*
X35282D02*
D03*
X35518D02*
D03*
X35754D02*
D03*
X35991D02*
D03*
X36227D02*
D03*
X34101D02*
D03*
X34337D02*
D03*
X34573D02*
D03*
X34809D02*
D03*
X35046D02*
D03*
X33865D02*
D03*
X33628D02*
D03*
X33392D02*
D03*
X33156D02*
D03*
X32920D02*
D03*
X32683D02*
D03*
X32447D02*
D03*
X32211D02*
D03*
X31975D02*
D03*
X31739D02*
D03*
X31502D02*
D03*
X31266D02*
D03*
X31030D02*
D03*
X30794D02*
D03*
X30557D02*
D03*
X30321D02*
D03*
X30085D02*
D03*
X29849D02*
D03*
X29613D02*
D03*
X29376D02*
D03*
X29140D02*
D03*
X28904D02*
D03*
X26306D02*
D03*
X26542D02*
D03*
X26778D02*
D03*
X27014D02*
D03*
X27250D02*
D03*
X27487D02*
D03*
X27723D02*
D03*
X27959D02*
D03*
X28195D02*
D03*
X28431D02*
D03*
X28668D02*
D03*
X26069D02*
D03*
X25833D02*
D03*
X16246Y10651D02*
D03*
X16483D02*
D03*
X16719D02*
D03*
X16955D02*
D03*
X17191D02*
D03*
X18372D02*
D03*
X18136D02*
D03*
X17900D02*
D03*
X17664D02*
D03*
X17428D02*
D03*
X19554D02*
D03*
X19317D02*
D03*
X19081D02*
D03*
X18845D02*
D03*
X18609D02*
D03*
X19790D02*
D03*
X20026D02*
D03*
X20262D02*
D03*
X20498D02*
D03*
X20735D02*
D03*
D54*
X31022Y16535D02*
D03*
X29920D02*
D03*
X31004Y17854D02*
D03*
X29902D02*
D03*
X30992Y15148D02*
D03*
X29890D02*
D03*
X31014Y13760D02*
D03*
X29911D02*
D03*
X31004Y19193D02*
D03*
X29902D02*
D03*
X31014Y12451D02*
D03*
X29911D02*
D03*
X22884Y12500D02*
D03*
X21781D02*
D03*
X26821Y12520D02*
D03*
X25719D02*
D03*
X22874Y15069D02*
D03*
X21772D02*
D03*
X25709Y13829D02*
D03*
X26811D02*
D03*
X22884Y13799D02*
D03*
X21781D02*
D03*
D55*
X20394Y14380D02*
D03*
X19252D02*
D03*
X19232Y12963D02*
D03*
X20374D02*
D03*
D56*
X20295Y15325D02*
D03*
D57*
X19935D02*
D03*
D58*
X19685Y19685D02*
D03*
D59*
X20079D02*
D03*
X20472D02*
D03*
X20866D02*
D03*
X21260D02*
D03*
X21654D02*
D03*
X22047D02*
D03*
X22441D02*
D03*
X23228D02*
D03*
X19685Y19291D02*
D03*
X20079D02*
D03*
X20472D02*
D03*
X20866D02*
D03*
X21260D02*
D03*
X21654D02*
D03*
X22047D02*
D03*
X22441D02*
D03*
X23228D02*
D03*
X19685Y18898D02*
D03*
X20472D02*
D03*
X20866D02*
D03*
X21260D02*
D03*
X21654D02*
D03*
X22047D02*
D03*
X22441D02*
D03*
X23228D02*
D03*
X19685Y18504D02*
D03*
X20079D02*
D03*
X20472D02*
D03*
X20866D02*
D03*
X21260D02*
D03*
X21654D02*
D03*
X22047D02*
D03*
X22441D02*
D03*
X23228D02*
D03*
X19685Y18110D02*
D03*
X20079D02*
D03*
X20472D02*
D03*
X20866D02*
D03*
X21260D02*
D03*
X21654D02*
D03*
X22047D02*
D03*
X22441D02*
D03*
X23228D02*
D03*
X19685Y17717D02*
D03*
X20079D02*
D03*
X20472D02*
D03*
X20866D02*
D03*
X21260D02*
D03*
X21654D02*
D03*
X22047D02*
D03*
X22441D02*
D03*
X23228D02*
D03*
X19685Y17323D02*
D03*
X20079D02*
D03*
X20472D02*
D03*
X20866D02*
D03*
X21260D02*
D03*
X21654D02*
D03*
X22047D02*
D03*
X22441D02*
D03*
X23228D02*
D03*
X19685Y16929D02*
D03*
X20079D02*
D03*
X20472D02*
D03*
X20866D02*
D03*
X21260D02*
D03*
X19685Y16535D02*
D03*
X20079D02*
D03*
X20472D02*
D03*
X20866D02*
D03*
X21260D02*
D03*
X22047D02*
D03*
X22441D02*
D03*
X22835D02*
D03*
X23228D02*
D03*
X19685Y16142D02*
D03*
X20079D02*
D03*
X20472D02*
D03*
X20866D02*
D03*
X21260D02*
D03*
X22047D02*
D03*
X22441D02*
D03*
X22835D02*
D03*
X23228D02*
D03*
D60*
X27943Y18898D02*
D03*
Y15906D02*
D03*
D61*
X24951Y17362D02*
D03*
D62*
X21063Y18701D02*
D03*
X37087Y19094D02*
D03*
X35512Y18661D02*
D03*
Y18268D02*
D03*
Y17795D02*
D03*
X21850Y17874D02*
D03*
X21063D02*
D03*
X21850Y18661D02*
D03*
X38376Y15197D02*
D03*
X38632Y15984D02*
D03*
X19203Y15354D02*
D03*
X18927Y16142D02*
D03*
D63*
X21142Y14449D02*
D03*
X21102Y13150D02*
D03*
X36732Y12992D02*
D03*
X36693Y14331D02*
D03*
X32126Y12992D02*
D03*
X24409Y15787D02*
D03*
D64*
X35138Y17933D02*
D03*
%TF.MD5,891bdba0d18b47c834716b12dba1ad3f*%
M02*
