%TF.GenerationSoftware,Altium Limited,CircuitMaker,2.0.2 (2.0.2.40)*%
G04 Layer_Color=15138737*
%FSLAX24Y24*%
%MOIN*%
%TF.SameCoordinates,FDAE7A5D-6217-40FD-BC7F-11D62B7A5D98*%
%TF.FilePolarity,Positive*%
%TF.FileFunction,Other,3D_Top*%
%TF.Part,Single*%
G01*
G75*
%TA.AperFunction,NonConductor*%
%ADD47C,0.0039*%
D47*
X20502Y15167D02*
Y15482D01*
X19872Y15167D02*
X20502D01*
X19872D02*
Y15482D01*
X20502D01*
X31140Y16004D02*
Y17067D01*
X29801Y16004D02*
Y17067D01*
Y16004D02*
X31140D01*
X29801Y17067D02*
X31140D01*
X31122Y17323D02*
Y18386D01*
X29783Y17323D02*
Y18386D01*
Y17323D02*
X31122D01*
X29783Y18386D02*
X31122D01*
X31110Y14616D02*
Y15679D01*
X29772Y14616D02*
Y15679D01*
Y14616D02*
X31110D01*
X29772Y15679D02*
X31110D01*
X31132Y13228D02*
Y14291D01*
X29793Y13228D02*
Y14291D01*
Y13228D02*
X31132D01*
X29793Y14291D02*
X31132D01*
X31122Y18661D02*
Y19724D01*
X29783Y18661D02*
Y19724D01*
Y18661D02*
X31122D01*
X29783Y19724D02*
X31122D01*
X31132Y11919D02*
Y12982D01*
X29793Y11919D02*
Y12982D01*
Y11919D02*
X31132D01*
X29793Y12982D02*
X31132D01*
X21663Y11968D02*
X23002D01*
X21663Y13032D02*
X23002D01*
Y11968D02*
Y13032D01*
X21663Y11968D02*
Y13032D01*
X25600Y11988D02*
X26939D01*
X25600Y13051D02*
X26939D01*
Y11988D02*
Y13051D01*
X25600Y11988D02*
Y13051D01*
X21654Y14537D02*
X22992D01*
X21654Y15600D02*
X22992D01*
Y14537D02*
Y15600D01*
X21654Y14537D02*
Y15600D01*
X25591Y14360D02*
X26929D01*
X25591Y13297D02*
X26929D01*
X25591D02*
Y14360D01*
X26929Y13297D02*
Y14360D01*
X21663Y13268D02*
X23002D01*
X21663Y14331D02*
X23002D01*
Y13268D02*
Y14331D01*
X21663Y13268D02*
Y14331D01*
X19154Y13848D02*
X20492D01*
X19154Y14911D02*
X20492D01*
Y13848D02*
Y14911D01*
X19154Y13848D02*
Y14911D01*
X19134Y13494D02*
X20472D01*
X19134Y12431D02*
X20472D01*
X19134D02*
Y13494D01*
X20472Y12431D02*
Y13494D01*
X17579Y17805D02*
X18287D01*
X17579Y16467D02*
X18287D01*
Y17805D01*
X17579Y16467D02*
Y17805D01*
%TF.MD5,0588d21cf85f5de35e0b50d27fb9d06f*%
M02*
