G04 Layer_Color=7318015*
%FSLAX24Y24*%
%MOIN*%
G70*
G01*
G75*
%ADD10R,0.0591X0.0748*%
%ADD11R,0.0295X0.0295*%
%ADD12R,0.0748X0.0591*%
%ADD13R,0.0217X0.0177*%
%ADD14R,0.0740X0.0980*%
%ADD15O,0.0413X0.0177*%
%ADD16R,0.0413X0.0177*%
%ADD17R,0.0236X0.0354*%
%ADD18R,0.0236X0.0354*%
%ADD19R,0.0236X0.0630*%
%ADD20R,0.0394X0.0551*%
%ADD21R,0.0472X0.1102*%
D10*
X14026Y33189D02*
D03*
X15207D02*
D03*
X15748Y28543D02*
D03*
X14567D02*
D03*
D11*
X18524Y28307D02*
D03*
X19075D02*
D03*
D12*
X18967Y29892D02*
D03*
Y31073D02*
D03*
X35679Y35846D02*
D03*
Y34665D02*
D03*
X14045Y35965D02*
D03*
Y34783D02*
D03*
D13*
X17283Y27126D02*
D03*
X17579D02*
D03*
Y28071D02*
D03*
X17283D02*
D03*
X16752Y35522D02*
D03*
X16457D02*
D03*
X33337Y35384D02*
D03*
X33041D02*
D03*
D14*
X13570Y31791D02*
D03*
X15760D02*
D03*
X13570Y30020D02*
D03*
X15760D02*
D03*
D15*
X17953Y30335D02*
D03*
Y30591D02*
D03*
Y30846D02*
D03*
Y31102D02*
D03*
X16929Y30335D02*
D03*
Y30591D02*
D03*
Y30846D02*
D03*
D16*
Y31102D02*
D03*
D17*
X34232Y35226D02*
D03*
X15492Y35354D02*
D03*
D18*
X34606Y34557D02*
D03*
X33858D02*
D03*
X15866Y34685D02*
D03*
X15118D02*
D03*
D19*
X14232Y47116D02*
D03*
X14980D02*
D03*
X14606Y47825D02*
D03*
D20*
X14774Y48671D02*
D03*
X14400Y49537D02*
D03*
X15148D02*
D03*
D21*
X16654Y29429D02*
D03*
X17795D02*
D03*
M02*
