G04 Layer_Color=15132400*
%FSLAX24Y24*%
%MOIN*%
G70*
G01*
G75*
%ADD32C,0.0098*%
%ADD60C,0.0160*%
%ADD61C,0.0100*%
%ADD62C,0.0050*%
%ADD63C,0.0079*%
%ADD64C,0.0157*%
%ADD65C,0.0220*%
D32*
X28725Y37561D02*
G03*
X28725Y37561I-49J0D01*
G01*
X23998Y38071D02*
G03*
X23998Y38071I-49J0D01*
G01*
X22490Y31378D02*
G03*
X22490Y31378I-49J0D01*
G01*
X38691Y23888D02*
G03*
X38691Y23888I-49J0D01*
G01*
X41957Y23467D02*
G03*
X41957Y23467I-49J0D01*
G01*
X35678Y26085D02*
G03*
X35678Y26085I-49J0D01*
G01*
X43544Y22591D02*
G03*
X43544Y22591I-49J0D01*
G01*
X35955Y22522D02*
G03*
X35955Y22522I-49J0D01*
G01*
D60*
X34865Y41842D02*
G03*
X35065Y42042I0J200D01*
G01*
Y45197D02*
G03*
X34865Y45394I-198J-2D01*
G01*
X30531Y45394D02*
G03*
X30335Y45197I0J-197D01*
G01*
X30335Y42042D02*
G03*
X30531Y41842I198J-2D01*
G01*
X35065Y42042D02*
Y45197D01*
X30531Y41842D02*
X31615D01*
X33976D02*
X34865D01*
X30531Y45394D02*
X31615D01*
X33976D02*
X34865D01*
D61*
X33324Y42489D02*
G03*
X33324Y44755I-528J1133D01*
G01*
X32267D02*
G03*
X32267Y42489I528J-1133D01*
G01*
X44313Y34882D02*
G03*
X44313Y34882I-6400J0D01*
G01*
X24593Y25335D02*
G03*
X22888Y25335I-852J-492D01*
G01*
X22885Y24343D02*
G03*
X24590Y24343I852J492D01*
G01*
X24593Y23051D02*
G03*
X22888Y23051I-852J-492D01*
G01*
X22885Y22059D02*
G03*
X24590Y22059I852J492D01*
G01*
X16746Y26870D02*
G03*
X18451Y26870I852J492D01*
G01*
X18453Y27862D02*
G03*
X16748Y27862I-852J-492D01*
G01*
X21850Y12700D02*
X21900D01*
X22800Y13900D02*
Y14050D01*
X21900Y12700D02*
X22800D01*
Y15900D01*
X20900Y12700D02*
Y13950D01*
Y12700D02*
X21850D01*
X22800Y15900D02*
Y16450D01*
X22300Y16950D02*
X22800Y16450D01*
X20900Y13950D02*
Y16400D01*
X21400Y16900D01*
X21450Y16950D01*
X22300D01*
X16325Y18028D02*
X21443D01*
X16325D02*
Y21572D01*
X21443D01*
X22821Y20194D01*
X21443Y18028D02*
X22821Y19406D01*
Y20194D01*
X27500Y18200D02*
Y18250D01*
X26150Y19150D02*
X26300D01*
X27500Y18250D02*
Y19150D01*
X24300D02*
X27500D01*
X26250Y17250D02*
X27500D01*
Y18200D01*
X23750Y19150D02*
X24300D01*
X23250Y18650D02*
X23750Y19150D01*
X23800Y17250D02*
X26250D01*
X23300Y17750D02*
X23800Y17250D01*
X23250Y17800D02*
X23300Y17750D01*
X23250Y17800D02*
Y18650D01*
X25240Y24843D02*
X25740D01*
X25490Y24593D02*
Y25093D01*
X25240Y22559D02*
X25740D01*
X25490Y22309D02*
Y22809D01*
X15598Y27362D02*
X16098D01*
X15848Y27112D02*
Y27612D01*
X32100Y18250D02*
Y18300D01*
X30750Y19200D02*
X30900D01*
X32100Y18300D02*
Y19200D01*
X28900D02*
X32100D01*
X30850Y17300D02*
X32100D01*
Y18250D01*
X28350Y19200D02*
X28900D01*
X27850Y18700D02*
X28350Y19200D01*
X28400Y17300D02*
X30850D01*
X27900Y17800D02*
X28400Y17300D01*
X27850Y17850D02*
X27900Y17800D01*
X27850Y17850D02*
Y18700D01*
X36150Y12450D02*
X36200D01*
X37100Y13650D02*
Y13800D01*
X36200Y12450D02*
X37100D01*
Y15650D01*
X35200Y12450D02*
Y13700D01*
Y12450D02*
X36150D01*
X37100Y15650D02*
Y16200D01*
X36600Y16700D02*
X37100Y16200D01*
X35200Y13700D02*
Y16150D01*
X35700Y16650D01*
X35750Y16700D01*
X36600D01*
X36750Y18250D02*
Y18300D01*
X35400Y19200D02*
X35550D01*
X36750Y18300D02*
Y19200D01*
X33550D02*
X36750D01*
X35500Y17300D02*
X36750D01*
Y18250D01*
X33000Y19200D02*
X33550D01*
X32500Y18700D02*
X33000Y19200D01*
X33050Y17300D02*
X35500D01*
X32550Y17800D02*
X33050Y17300D01*
X32500Y17850D02*
X32550Y17800D01*
X32500Y17850D02*
Y18700D01*
X46200Y22450D02*
Y25000D01*
X45200Y22450D02*
X46200D01*
X45200D02*
Y25000D01*
X46200D01*
X47550Y27400D02*
Y29950D01*
X46550Y27400D02*
X47550D01*
X46550D02*
Y29950D01*
X47550D01*
X44850Y27400D02*
Y29950D01*
X45850D01*
Y27400D02*
Y29950D01*
X44850Y27400D02*
X45850D01*
X19961Y33238D02*
Y32638D01*
Y32938D01*
X20361D01*
Y33238D01*
Y32638D01*
X20960Y33138D02*
X20860Y33238D01*
X20660D01*
X20560Y33138D01*
Y33038D01*
X20660Y32938D01*
X20860D01*
X20960Y32838D01*
Y32738D01*
X20860Y32638D01*
X20660D01*
X20560Y32738D01*
D62*
X33925Y43622D02*
G03*
X33925Y43622I-1130J0D01*
G01*
X31254Y42342D02*
G03*
X31254Y42342I-230J0D01*
G01*
X34805D02*
G03*
X34805Y42342I-230J0D01*
G01*
Y44902D02*
G03*
X34805Y44902I-230J0D01*
G01*
X31254D02*
G03*
X31254Y44902I-230J0D01*
G01*
X34797Y43622D02*
G03*
X34797Y43622I-230J0D01*
G01*
X31203D02*
G03*
X31203Y43622I-230J0D01*
G01*
D63*
X18878Y32402D02*
G03*
X18878Y32402I-1240J0D01*
G01*
X20993Y44206D02*
G03*
X20993Y44206I-1240J0D01*
G01*
X29640Y31850D02*
G03*
X29640Y31850I-1240J0D01*
G01*
X18839Y29764D02*
G03*
X18839Y29764I-1240J0D01*
G01*
X25059Y27205D02*
G03*
X25059Y27205I-1240J0D01*
G01*
X46804Y32752D02*
G03*
X45607Y32893I-654J-402D01*
G01*
X45634Y31782D02*
G03*
X46804Y31948I516J568D01*
G01*
X46854Y34852D02*
G03*
X45657Y34993I-654J-402D01*
G01*
X45684Y33882D02*
G03*
X46854Y34048I516J568D01*
G01*
X19193Y25768D02*
X19468D01*
X19193Y25177D02*
X19468D01*
X19193Y24193D02*
X19468D01*
X19193Y23602D02*
X19468D01*
X19193Y22697D02*
X19468D01*
X19193Y22106D02*
X19468D01*
X23681Y20177D02*
X23957D01*
X23681Y20768D02*
X23957D01*
X27446Y37640D02*
X28154D01*
X27446Y38860D02*
X28154D01*
X21398Y38661D02*
Y39646D01*
X17736D02*
X21398D01*
X17736Y37677D02*
Y39646D01*
Y37677D02*
X21398D01*
Y38661D01*
X28003Y40055D02*
X28397D01*
X28003Y39445D02*
X28397D01*
X23957Y37264D02*
Y37323D01*
X21319D02*
X23957D01*
X21319Y37264D02*
Y37323D01*
X22697Y30510D02*
Y32439D01*
X26752Y30510D02*
Y32439D01*
X22697Y30510D02*
X26752D01*
X22697Y32439D02*
X26752D01*
X22697Y32242D02*
X26752D01*
X25655Y39812D02*
Y40088D01*
X26245Y39812D02*
Y40088D01*
X24265Y42062D02*
Y42338D01*
X24935Y42062D02*
Y42338D01*
X38209Y24026D02*
Y25659D01*
X37461Y24026D02*
Y25659D01*
Y24026D02*
X38209D01*
X37461Y25659D02*
X38209D01*
X42085Y23920D02*
X43345D01*
Y25613D01*
X42085D02*
X43345D01*
X42085Y23920D02*
Y25613D01*
X34191Y25633D02*
X35451D01*
X34191Y23940D02*
Y25633D01*
Y23940D02*
X35451D01*
Y25633D01*
X41426Y22060D02*
X43394D01*
X41426Y21272D02*
X43394D01*
Y22060D01*
X41426Y21272D02*
Y22060D01*
X33837Y21991D02*
X35806D01*
X33837Y21204D02*
X35806D01*
Y21991D01*
X33837Y21204D02*
Y21991D01*
X45600Y31816D02*
X45634Y31782D01*
X45600Y32750D02*
Y32893D01*
Y31816D02*
Y31950D01*
X45650Y33916D02*
X45684Y33882D01*
X45650Y34850D02*
Y34993D01*
Y33916D02*
Y34050D01*
X37697Y23465D02*
X37972D01*
X37697Y22441D02*
X37972D01*
X24764Y38081D02*
X25157D01*
X24764Y38691D02*
X25157D01*
X18963Y26391D02*
X18898Y26457D01*
X18766D01*
X18701Y26391D01*
Y26129D01*
X18766Y26063D01*
X18898D01*
X18963Y26129D01*
X19094Y26063D02*
X19226D01*
X19160D01*
Y26325D01*
X19094D01*
X19422Y26063D02*
Y26325D01*
X19619D01*
X19685Y26260D01*
Y26063D01*
X19816Y26457D02*
X20078D01*
Y26391D01*
X19816Y26129D01*
Y26063D01*
X18924Y24856D02*
X18858Y24921D01*
X18727D01*
X18661Y24856D01*
Y24593D01*
X18727Y24528D01*
X18858D01*
X18924Y24593D01*
X19055Y24528D02*
X19186D01*
X19121D01*
Y24790D01*
X19055D01*
X19383Y24528D02*
Y24790D01*
X19580D01*
X19645Y24724D01*
Y24528D01*
X19777Y24856D02*
X19842Y24921D01*
X19973D01*
X20039Y24856D01*
Y24790D01*
X19973Y24724D01*
X20039Y24659D01*
Y24593D01*
X19973Y24528D01*
X19842D01*
X19777Y24593D01*
Y24659D01*
X19842Y24724D01*
X19777Y24790D01*
Y24856D01*
X19842Y24724D02*
X19973D01*
X18924Y23281D02*
X18858Y23346D01*
X18727D01*
X18661Y23281D01*
Y23018D01*
X18727Y22953D01*
X18858D01*
X18924Y23018D01*
X19055Y22953D02*
X19186D01*
X19121D01*
Y23215D01*
X19055D01*
X19383Y22953D02*
Y23215D01*
X19580D01*
X19645Y23150D01*
Y22953D01*
X20039Y23346D02*
X19908Y23281D01*
X19777Y23150D01*
Y23018D01*
X19842Y22953D01*
X19973D01*
X20039Y23018D01*
Y23084D01*
X19973Y23150D01*
X19777D01*
X23373Y21312D02*
X23307Y21378D01*
X23176D01*
X23110Y21312D01*
Y21050D01*
X23176Y20984D01*
X23307D01*
X23373Y21050D01*
X23569Y20984D02*
X23701D01*
X23766Y21050D01*
Y21181D01*
X23701Y21247D01*
X23569D01*
X23504Y21181D01*
Y21050D01*
X23569Y20984D01*
X23897Y21247D02*
Y21050D01*
X23963Y20984D01*
X24160D01*
Y21247D01*
X24357Y21312D02*
Y21247D01*
X24291D01*
X24422D01*
X24357D01*
Y21050D01*
X24422Y20984D01*
X24619Y21312D02*
X24685Y21378D01*
X24816D01*
X24881Y21312D01*
Y21247D01*
X24816Y21181D01*
X24881Y21115D01*
Y21050D01*
X24816Y20984D01*
X24685D01*
X24619Y21050D01*
Y21115D01*
X24685Y21181D01*
X24619Y21247D01*
Y21312D01*
X24685Y21181D02*
X24816D01*
X21162Y17608D02*
X21097Y17674D01*
X20966D01*
X20900Y17608D01*
Y17346D01*
X20966Y17280D01*
X21097D01*
X21162Y17346D01*
Y17477D01*
X21031D01*
X21294Y17280D02*
Y17674D01*
X21556Y17280D01*
Y17674D01*
X21687D02*
Y17280D01*
X21884D01*
X21950Y17346D01*
Y17608D01*
X21884Y17674D01*
X21687D01*
X16547Y21900D02*
Y22294D01*
X16350Y22097D01*
X16612D01*
X16744Y22228D02*
X16809Y22294D01*
X16940D01*
X17006Y22228D01*
Y22162D01*
X16940Y22097D01*
X17006Y22031D01*
Y21966D01*
X16940Y21900D01*
X16809D01*
X16744Y21966D01*
Y22031D01*
X16809Y22097D01*
X16744Y22162D01*
Y22228D01*
X16809Y22097D02*
X16940D01*
X17137Y22294D02*
Y22031D01*
X17268Y21900D01*
X17400Y22031D01*
Y22294D01*
X23280Y19560D02*
X23411D01*
X23346D01*
Y19954D01*
X23280Y19888D01*
X23870Y19560D02*
X23608D01*
X23870Y19822D01*
Y19888D01*
X23805Y19954D01*
X23674D01*
X23608Y19888D01*
X24002Y19954D02*
Y19691D01*
X24133Y19560D01*
X24264Y19691D01*
Y19954D01*
X24395Y19494D02*
X24658D01*
X24985Y19954D02*
X24854D01*
X24789Y19888D01*
Y19626D01*
X24854Y19560D01*
X24985D01*
X25051Y19626D01*
Y19888D01*
X24985Y19954D01*
X27520Y37323D02*
Y36995D01*
X27585Y36929D01*
X27716D01*
X27782Y36995D01*
Y37323D01*
X27913Y36929D02*
X28044D01*
X27979D01*
Y37323D01*
X27913Y37257D01*
X24173Y40315D02*
X23780D01*
Y40512D01*
X23845Y40577D01*
X23976D01*
X24042Y40512D01*
Y40315D01*
Y40446D02*
X24173Y40577D01*
X23845Y40774D02*
X23911D01*
Y40709D01*
Y40840D01*
Y40774D01*
X24108D01*
X24173Y40840D01*
X17780Y39960D02*
Y40354D01*
X17977D01*
X18042Y40288D01*
Y40157D01*
X17977Y40091D01*
X17780D01*
X17911D02*
X18042Y39960D01*
X18174D02*
X18370D01*
X18436Y40026D01*
X18370Y40091D01*
X18239D01*
X18174Y40157D01*
X18239Y40222D01*
X18436D01*
X18567Y39960D02*
Y40222D01*
X18764D01*
X18830Y40157D01*
Y39960D01*
X18961D02*
X19158D01*
X19223Y40026D01*
X19158Y40091D01*
X19026D01*
X18961Y40157D01*
X19026Y40222D01*
X19223D01*
X32395Y43022D02*
X32002D01*
Y43219D01*
X32067Y43284D01*
X32198D01*
X32264Y43219D01*
Y43022D01*
Y43153D02*
X32395Y43284D01*
Y43481D02*
X32067D01*
X32198D01*
Y43416D01*
Y43547D01*
Y43481D01*
X32067D01*
X32002Y43547D01*
Y43744D02*
X32395D01*
Y43940D01*
X32330Y44006D01*
X32264D01*
X32198D01*
X32133Y43940D01*
Y43744D01*
X32395Y44400D02*
Y44137D01*
X32133Y44400D01*
X32067D01*
X32002Y44334D01*
Y44203D01*
X32067Y44137D01*
X27900Y40450D02*
Y40844D01*
X28097D01*
X28162Y40778D01*
Y40647D01*
X28097Y40581D01*
X27900D01*
X28031D02*
X28162Y40450D01*
X28359D02*
Y40778D01*
Y40647D01*
X28294D01*
X28425D01*
X28359D01*
Y40778D01*
X28425Y40844D01*
X28622D02*
Y40450D01*
X28818D01*
X28884Y40516D01*
Y40581D01*
Y40647D01*
X28818Y40712D01*
X28622D01*
X29015Y40450D02*
X29146D01*
X29081D01*
Y40844D01*
X29015Y40778D01*
X25450Y43000D02*
Y43394D01*
X25647D01*
X25712Y43328D01*
Y43197D01*
X25647Y43131D01*
X25450D01*
X25581D02*
X25712Y43000D01*
X25909Y43262D02*
X26040D01*
X26106Y43197D01*
Y43000D01*
X25909D01*
X25844Y43066D01*
X25909Y43131D01*
X26106D01*
X26500Y43394D02*
Y43000D01*
X26303D01*
X26237Y43066D01*
Y43197D01*
X26303Y43262D01*
X26500D01*
X26631Y42869D02*
X26696D01*
X26762Y42934D01*
Y43262D01*
X22323Y33780D02*
Y34173D01*
X22454Y34042D01*
X22585Y34173D01*
Y33780D01*
X22716D02*
X22848D01*
X22782D01*
Y34173D01*
X22716Y34108D01*
X43513Y39225D02*
Y38832D01*
X43776D01*
X43907D02*
X44038D01*
X43973D01*
Y39225D01*
X43907Y39160D01*
X22674Y33072D02*
Y32678D01*
X22871D01*
X22937Y32744D01*
Y33006D01*
X22871Y33072D01*
X22674D01*
X23068Y32678D02*
X23199D01*
X23134D01*
Y33072D01*
X23068Y33006D01*
X26828Y40388D02*
X26894Y40453D01*
Y40584D01*
X26828Y40650D01*
X26566D01*
X26500Y40584D01*
Y40453D01*
X26566Y40388D01*
X26762Y40256D02*
X26500Y40125D01*
X26762Y39994D01*
Y39600D02*
Y39797D01*
X26697Y39863D01*
X26566D01*
X26500Y39797D01*
Y39600D01*
X26762Y39207D02*
Y39404D01*
X26697Y39469D01*
X26566D01*
X26500Y39404D01*
Y39207D01*
X25286Y25761D02*
X25220Y25827D01*
X25089D01*
X25024Y25761D01*
Y25499D01*
X25089Y25433D01*
X25220D01*
X25286Y25499D01*
X25483Y25433D02*
X25614D01*
X25680Y25499D01*
Y25630D01*
X25614Y25695D01*
X25483D01*
X25417Y25630D01*
Y25499D01*
X25483Y25433D01*
X25811Y25695D02*
Y25499D01*
X25876Y25433D01*
X26073D01*
Y25695D01*
X26270Y25761D02*
Y25695D01*
X26204D01*
X26335D01*
X26270D01*
Y25499D01*
X26335Y25433D01*
X26532Y25761D02*
X26598Y25827D01*
X26729D01*
X26795Y25761D01*
Y25695D01*
X26729Y25630D01*
X26663D01*
X26729D01*
X26795Y25564D01*
Y25499D01*
X26729Y25433D01*
X26598D01*
X26532Y25499D01*
X25253Y23537D02*
X25187Y23603D01*
X25056D01*
X24990Y23537D01*
Y23275D01*
X25056Y23209D01*
X25187D01*
X25253Y23275D01*
X25449Y23209D02*
X25581D01*
X25646Y23275D01*
Y23406D01*
X25581Y23471D01*
X25449D01*
X25384Y23406D01*
Y23275D01*
X25449Y23209D01*
X25777Y23471D02*
Y23275D01*
X25843Y23209D01*
X26040D01*
Y23471D01*
X26236Y23537D02*
Y23471D01*
X26171D01*
X26302D01*
X26236D01*
Y23275D01*
X26302Y23209D01*
X26696D02*
Y23603D01*
X26499Y23406D01*
X26761D01*
X29802Y39328D02*
X29737Y39394D01*
X29606D01*
X29540Y39328D01*
Y39066D01*
X29606Y39000D01*
X29737D01*
X29802Y39066D01*
X29999Y39000D02*
Y39328D01*
Y39197D01*
X29934D01*
X30065D01*
X29999D01*
Y39328D01*
X30065Y39394D01*
X30327Y39000D02*
Y39328D01*
Y39197D01*
X30262D01*
X30393D01*
X30327D01*
Y39328D01*
X30393Y39394D01*
X24362Y44028D02*
X24297Y44094D01*
X24166D01*
X24100Y44028D01*
Y43766D01*
X24166Y43700D01*
X24297D01*
X24362Y43766D01*
X24559Y43962D02*
X24690D01*
X24756Y43897D01*
Y43700D01*
X24559D01*
X24494Y43766D01*
X24559Y43831D01*
X24756D01*
X25150Y44094D02*
Y43700D01*
X24953D01*
X24887Y43766D01*
Y43897D01*
X24953Y43962D01*
X25150D01*
X25281Y43569D02*
X25346D01*
X25412Y43634D01*
Y43962D01*
X14350Y33230D02*
X14285Y33295D01*
X14153D01*
X14088Y33230D01*
Y32967D01*
X14153Y32902D01*
X14285D01*
X14350Y32967D01*
X14481Y32902D02*
X14613D01*
X14547D01*
Y33164D01*
X14481D01*
X14809Y32902D02*
Y33164D01*
X15006D01*
X15072Y33098D01*
Y32902D01*
X15400D02*
Y33295D01*
X15203Y33098D01*
X15465D01*
X16938Y31698D02*
X17200D01*
X17069Y31830D02*
Y31567D01*
X21247Y45485D02*
X21181Y45551D01*
X21050D01*
X20984Y45485D01*
Y45223D01*
X21050Y45157D01*
X21181D01*
X21247Y45223D01*
X21378Y45157D02*
X21509D01*
X21443D01*
Y45420D01*
X21378D01*
X21706Y45157D02*
Y45420D01*
X21903D01*
X21968Y45354D01*
Y45157D01*
X22099Y45485D02*
X22165Y45551D01*
X22296D01*
X22362Y45485D01*
Y45420D01*
X22296Y45354D01*
X22231D01*
X22296D01*
X22362Y45289D01*
Y45223D01*
X22296Y45157D01*
X22165D01*
X22099Y45223D01*
X19053Y43503D02*
X19316D01*
X19184Y43634D02*
Y43372D01*
X14411Y28140D02*
X14345Y28206D01*
X14214D01*
X14148Y28140D01*
Y27878D01*
X14214Y27812D01*
X14345D01*
X14411Y27878D01*
X14542Y27812D02*
X14673D01*
X14608D01*
Y28075D01*
X14542D01*
X14870Y27812D02*
Y28075D01*
X15067D01*
X15132Y28009D01*
Y27812D01*
X15526D02*
X15264D01*
X15526Y28075D01*
Y28140D01*
X15460Y28206D01*
X15329D01*
X15264Y28140D01*
X27452Y33748D02*
X27387Y33814D01*
X27256D01*
X27190Y33748D01*
Y33486D01*
X27256Y33420D01*
X27387D01*
X27452Y33486D01*
X27649Y33420D02*
X27780D01*
X27846Y33486D01*
Y33617D01*
X27780Y33682D01*
X27649D01*
X27584Y33617D01*
Y33486D01*
X27649Y33420D01*
X27977Y33682D02*
Y33486D01*
X28043Y33420D01*
X28240D01*
Y33682D01*
X28436Y33748D02*
Y33682D01*
X28371D01*
X28502D01*
X28436D01*
Y33486D01*
X28502Y33420D01*
X28961D02*
X28699D01*
X28961Y33682D01*
Y33748D01*
X28895Y33814D01*
X28764D01*
X28699Y33748D01*
X29100Y32553D02*
X28838D01*
X28969Y32422D02*
Y32684D01*
X14561Y30692D02*
X14495Y30757D01*
X14364D01*
X14298Y30692D01*
Y30429D01*
X14364Y30364D01*
X14495D01*
X14561Y30429D01*
X14692Y30364D02*
X14823D01*
X14758D01*
Y30626D01*
X14692D01*
X15020Y30364D02*
Y30626D01*
X15217D01*
X15282Y30561D01*
Y30364D01*
X15414D02*
X15545D01*
X15479D01*
Y30757D01*
X15414Y30692D01*
X16898Y29061D02*
X17161D01*
X17030Y29192D02*
Y28929D01*
X25465Y28423D02*
X25399Y28489D01*
X25268D01*
X25202Y28423D01*
Y28161D01*
X25268Y28095D01*
X25399D01*
X25465Y28161D01*
X25661Y28095D02*
X25793D01*
X25858Y28161D01*
Y28292D01*
X25793Y28358D01*
X25661D01*
X25596Y28292D01*
Y28161D01*
X25661Y28095D01*
X25989Y28358D02*
Y28161D01*
X26055Y28095D01*
X26252D01*
Y28358D01*
X26449Y28423D02*
Y28358D01*
X26383D01*
X26514D01*
X26449D01*
Y28161D01*
X26514Y28095D01*
X26711D02*
X26842D01*
X26777D01*
Y28489D01*
X26711Y28423D01*
X24519Y27908D02*
X24257D01*
X24388Y27777D02*
Y28039D01*
X27000Y19550D02*
X27131D01*
X27066D01*
Y19944D01*
X27000Y19878D01*
X27590Y19550D02*
X27328D01*
X27590Y19812D01*
Y19878D01*
X27525Y19944D01*
X27394D01*
X27328Y19878D01*
X27722Y19944D02*
Y19681D01*
X27853Y19550D01*
X27984Y19681D01*
Y19944D01*
X28115Y19484D02*
X28378D01*
X28771Y19878D02*
X28705Y19944D01*
X28574D01*
X28509Y19878D01*
Y19812D01*
X28574Y19747D01*
X28705D01*
X28771Y19681D01*
Y19616D01*
X28705Y19550D01*
X28574D01*
X28509Y19616D01*
X28902Y19944D02*
Y19550D01*
Y19747D01*
X28968Y19812D01*
X29099D01*
X29165Y19747D01*
Y19550D01*
X29361Y19812D02*
X29493D01*
X29558Y19747D01*
Y19550D01*
X29361D01*
X29296Y19616D01*
X29361Y19681D01*
X29558D01*
X29689Y19812D02*
Y19550D01*
Y19681D01*
X29755Y19747D01*
X29821Y19812D01*
X29886D01*
X30280Y19550D02*
X30149D01*
X30083Y19616D01*
Y19747D01*
X30149Y19812D01*
X30280D01*
X30345Y19747D01*
Y19681D01*
X30083D01*
X37400Y15900D02*
Y15769D01*
Y15834D01*
X37794D01*
X37728Y15900D01*
X37400Y15310D02*
Y15572D01*
X37662Y15310D01*
X37728D01*
X37794Y15375D01*
Y15506D01*
X37728Y15572D01*
X37794Y15178D02*
X37531D01*
X37400Y15047D01*
X37531Y14916D01*
X37794D01*
X37334Y14785D02*
Y14522D01*
X37794Y14391D02*
X37400D01*
Y14195D01*
X37466Y14129D01*
X37531D01*
X37597Y14195D01*
Y14391D01*
Y14195D01*
X37662Y14129D01*
X37728D01*
X37794Y14195D01*
Y14391D01*
X32550Y19550D02*
X32681D01*
X32616D01*
Y19944D01*
X32550Y19878D01*
X33140Y19550D02*
X32878D01*
X33140Y19812D01*
Y19878D01*
X33075Y19944D01*
X32944D01*
X32878Y19878D01*
X33272Y19944D02*
Y19681D01*
X33403Y19550D01*
X33534Y19681D01*
Y19944D01*
X33665Y19484D02*
X33928D01*
X34059Y19550D02*
Y19812D01*
X34190Y19944D01*
X34321Y19812D01*
Y19550D01*
Y19747D01*
X34059D01*
X37323Y26250D02*
Y25856D01*
X37585D01*
X37979Y26184D02*
X37913Y26250D01*
X37782D01*
X37716Y26184D01*
Y26119D01*
X37782Y26053D01*
X37913D01*
X37979Y25987D01*
Y25922D01*
X37913Y25856D01*
X37782D01*
X37716Y25922D01*
X38110Y25791D02*
X38372D01*
X44016Y27835D02*
X43622D01*
Y27572D01*
X43950Y27179D02*
X44016Y27244D01*
Y27375D01*
X43950Y27441D01*
X43884D01*
X43819Y27375D01*
Y27244D01*
X43753Y27179D01*
X43688D01*
X43622Y27244D01*
Y27375D01*
X43688Y27441D01*
X43556Y27048D02*
Y26785D01*
X43622Y26654D02*
X44016D01*
Y26457D01*
X43950Y26392D01*
X43819D01*
X43753Y26457D01*
Y26654D01*
Y26523D02*
X43622Y26392D01*
Y26260D02*
Y26064D01*
X43688Y25998D01*
X43753Y26064D01*
Y26195D01*
X43819Y26260D01*
X43884Y26195D01*
Y25998D01*
X43622Y25670D02*
Y25801D01*
X43688Y25867D01*
X43819D01*
X43884Y25801D01*
Y25670D01*
X43819Y25604D01*
X43753D01*
Y25867D01*
X43622Y25473D02*
X43884D01*
Y25276D01*
X43819Y25211D01*
X43622D01*
Y25080D02*
Y24883D01*
X43688Y24817D01*
X43753Y24883D01*
Y25014D01*
X43819Y25080D01*
X43884Y25014D01*
Y24817D01*
X43622Y24489D02*
Y24620D01*
X43688Y24686D01*
X43819D01*
X43884Y24620D01*
Y24489D01*
X43819Y24424D01*
X43753D01*
Y24686D01*
X43622Y24030D02*
Y24292D01*
X43884Y24030D01*
X43950D01*
X44016Y24096D01*
Y24227D01*
X43950Y24292D01*
X36260Y27559D02*
X35866D01*
Y27297D01*
X36194Y26903D02*
X36260Y26969D01*
Y27100D01*
X36194Y27165D01*
X36129D01*
X36063Y27100D01*
Y26969D01*
X35997Y26903D01*
X35932D01*
X35866Y26969D01*
Y27100D01*
X35932Y27165D01*
X35801Y26772D02*
Y26510D01*
X35866Y26378D02*
X36260D01*
Y26182D01*
X36194Y26116D01*
X36063D01*
X35997Y26182D01*
Y26378D01*
Y26247D02*
X35866Y26116D01*
Y25985D02*
Y25788D01*
X35932Y25722D01*
X35997Y25788D01*
Y25919D01*
X36063Y25985D01*
X36129Y25919D01*
Y25722D01*
X35866Y25394D02*
Y25526D01*
X35932Y25591D01*
X36063D01*
X36129Y25526D01*
Y25394D01*
X36063Y25329D01*
X35997D01*
Y25591D01*
X35866Y25198D02*
X36129D01*
Y25001D01*
X36063Y24935D01*
X35866D01*
Y24804D02*
Y24607D01*
X35932Y24542D01*
X35997Y24607D01*
Y24738D01*
X36063Y24804D01*
X36129Y24738D01*
Y24542D01*
X35866Y24214D02*
Y24345D01*
X35932Y24410D01*
X36063D01*
X36129Y24345D01*
Y24214D01*
X36063Y24148D01*
X35997D01*
Y24410D01*
X35866Y24017D02*
Y23886D01*
Y23951D01*
X36260D01*
X36194Y24017D01*
X46256Y22050D02*
X46650D01*
Y22312D01*
X46322Y22706D02*
X46256Y22640D01*
Y22509D01*
X46322Y22444D01*
X46388D01*
X46453Y22509D01*
Y22640D01*
X46519Y22706D01*
X46584D01*
X46650Y22640D01*
Y22509D01*
X46584Y22444D01*
X46716Y22837D02*
Y23100D01*
X46650Y23231D02*
X46256D01*
Y23428D01*
X46322Y23493D01*
X46453D01*
X46519Y23428D01*
Y23231D01*
Y23362D02*
X46650Y23493D01*
X46388Y23624D02*
X46650D01*
X46519D01*
X46453Y23690D01*
X46388Y23755D01*
Y23821D01*
Y24083D02*
Y24215D01*
X46453Y24280D01*
X46650D01*
Y24083D01*
X46584Y24018D01*
X46519Y24083D01*
Y24280D01*
X46650Y24411D02*
X46388D01*
Y24608D01*
X46453Y24674D01*
X46650D01*
X46781Y24936D02*
Y25002D01*
X46716Y25067D01*
X46388D01*
Y24871D01*
X46453Y24805D01*
X46584D01*
X46650Y24871D01*
Y25067D01*
Y25395D02*
Y25264D01*
X46584Y25199D01*
X46453D01*
X46388Y25264D01*
Y25395D01*
X46453Y25461D01*
X46519D01*
Y25199D01*
X47641Y28091D02*
X48034D01*
Y28353D01*
X47706Y28747D02*
X47641Y28681D01*
Y28550D01*
X47706Y28485D01*
X47772D01*
X47837Y28550D01*
Y28681D01*
X47903Y28747D01*
X47969D01*
X48034Y28681D01*
Y28550D01*
X47969Y28485D01*
X48100Y28878D02*
Y29140D01*
X48034Y29272D02*
X47641D01*
Y29468D01*
X47706Y29534D01*
X47837D01*
X47903Y29468D01*
Y29272D01*
Y29403D02*
X48034Y29534D01*
Y29665D02*
Y29796D01*
Y29731D01*
X47641D01*
Y29665D01*
X48034Y30190D02*
Y30059D01*
X47969Y29993D01*
X47837D01*
X47772Y30059D01*
Y30190D01*
X47837Y30256D01*
X47903D01*
Y29993D01*
X47641Y30649D02*
X48034D01*
Y30452D01*
X47969Y30387D01*
X47837D01*
X47772Y30452D01*
Y30649D01*
X45941Y27586D02*
X46334D01*
Y27848D01*
X46006Y28242D02*
X45941Y28176D01*
Y28045D01*
X46006Y27979D01*
X46072D01*
X46137Y28045D01*
Y28176D01*
X46203Y28242D01*
X46269D01*
X46334Y28176D01*
Y28045D01*
X46269Y27979D01*
X46400Y28373D02*
Y28635D01*
X46334Y28767D02*
X45941D01*
Y28963D01*
X46006Y29029D01*
X46137D01*
X46203Y28963D01*
Y28767D01*
Y28898D02*
X46334Y29029D01*
Y29160D02*
Y29291D01*
Y29226D01*
X45941D01*
Y29160D01*
X46334Y29685D02*
Y29554D01*
X46269Y29488D01*
X46137D01*
X46072Y29554D01*
Y29685D01*
X46137Y29750D01*
X46203D01*
Y29488D01*
X45941Y30144D02*
X46334D01*
Y29947D01*
X46269Y29882D01*
X46137D01*
X46072Y29947D01*
Y30144D01*
X46400Y30275D02*
Y30538D01*
X46334Y30669D02*
Y30800D01*
Y30734D01*
X45941D01*
X46006Y30669D01*
X43611Y20485D02*
X44004D01*
Y20747D01*
X43676Y21141D02*
X43611Y21075D01*
Y20944D01*
X43676Y20879D01*
X43742D01*
X43808Y20944D01*
Y21075D01*
X43873Y21141D01*
X43939D01*
X44004Y21075D01*
Y20944D01*
X43939Y20879D01*
X44070Y21272D02*
Y21535D01*
X44004Y21666D02*
X43611D01*
X43742Y21797D01*
X43611Y21928D01*
X44004D01*
Y22322D02*
Y22059D01*
X43742Y22322D01*
X43676D01*
X43611Y22256D01*
Y22125D01*
X43676Y22059D01*
X33168Y21430D02*
X33561D01*
Y21692D01*
X33233Y22086D02*
X33168Y22020D01*
Y21889D01*
X33233Y21823D01*
X33299D01*
X33365Y21889D01*
Y22020D01*
X33430Y22086D01*
X33496D01*
X33561Y22020D01*
Y21889D01*
X33496Y21823D01*
X33627Y22217D02*
Y22479D01*
X33561Y22611D02*
X33168D01*
X33299Y22742D01*
X33168Y22873D01*
X33561D01*
Y23004D02*
Y23135D01*
Y23070D01*
X33168D01*
X33233Y23004D01*
X47744Y33200D02*
X47350D01*
Y32938D01*
X47678Y32544D02*
X47744Y32610D01*
Y32741D01*
X47678Y32806D01*
X47612D01*
X47547Y32741D01*
Y32610D01*
X47481Y32544D01*
X47416D01*
X47350Y32610D01*
Y32741D01*
X47416Y32806D01*
X47284Y32413D02*
Y32150D01*
X47744Y32019D02*
X47350D01*
Y31822D01*
X47416Y31757D01*
X47678D01*
X47744Y31822D01*
Y32019D01*
X47350Y31363D02*
Y31626D01*
X47612Y31363D01*
X47678D01*
X47744Y31429D01*
Y31560D01*
X47678Y31626D01*
X45150Y32456D02*
Y32850D01*
Y32719D01*
X44888Y32456D01*
X45084Y32653D01*
X44888Y32850D01*
X45300Y36094D02*
Y35700D01*
X45562D01*
X45956Y36028D02*
X45890Y36094D01*
X45759D01*
X45694Y36028D01*
Y35962D01*
X45759Y35897D01*
X45890D01*
X45956Y35831D01*
Y35766D01*
X45890Y35700D01*
X45759D01*
X45694Y35766D01*
X46087Y35634D02*
X46350D01*
X46481Y36094D02*
Y35700D01*
X46678D01*
X46743Y35766D01*
Y36028D01*
X46678Y36094D01*
X46481D01*
X46874Y35700D02*
X47005D01*
X46940D01*
Y36094D01*
X46874Y36028D01*
X45200Y34556D02*
Y34950D01*
Y34819D01*
X44938Y34556D01*
X45134Y34753D01*
X44938Y34950D01*
X38977Y20827D02*
X39370D01*
Y21089D01*
X39042Y21483D02*
X38977Y21417D01*
Y21286D01*
X39042Y21220D01*
X39108D01*
X39173Y21286D01*
Y21417D01*
X39239Y21483D01*
X39304D01*
X39370Y21417D01*
Y21286D01*
X39304Y21220D01*
X39436Y21614D02*
Y21876D01*
X39042Y22270D02*
X38977Y22204D01*
Y22073D01*
X39042Y22007D01*
X39304D01*
X39370Y22073D01*
Y22204D01*
X39304Y22270D01*
X39108Y22401D02*
X39370Y22532D01*
X39108Y22663D01*
Y23057D02*
Y22860D01*
X39173Y22795D01*
X39304D01*
X39370Y22860D01*
Y23057D01*
X39108Y23451D02*
Y23254D01*
X39173Y23188D01*
X39304D01*
X39370Y23254D01*
Y23451D01*
X39329Y20278D02*
Y19885D01*
X39592D01*
X39985Y20213D02*
X39920Y20278D01*
X39788D01*
X39723Y20213D01*
Y20147D01*
X39788Y20081D01*
X39920D01*
X39985Y20016D01*
Y19950D01*
X39920Y19885D01*
X39788D01*
X39723Y19950D01*
X40116Y19819D02*
X40379D01*
X40772Y20213D02*
X40707Y20278D01*
X40575D01*
X40510Y20213D01*
Y19950D01*
X40575Y19885D01*
X40707D01*
X40772Y19950D01*
X40903Y19753D02*
Y20147D01*
X41100D01*
X41166Y20081D01*
Y19950D01*
X41100Y19885D01*
X40903D01*
X41363D02*
X41494D01*
X41559Y19950D01*
Y20081D01*
X41494Y20147D01*
X41363D01*
X41297Y20081D01*
Y19950D01*
X41363Y19885D01*
X41953D02*
X41691D01*
X41953Y20147D01*
Y20213D01*
X41887Y20278D01*
X41756D01*
X41691Y20213D01*
X40945Y23150D02*
X41339D01*
Y23412D01*
X41011Y23806D02*
X40945Y23740D01*
Y23609D01*
X41011Y23543D01*
X41076D01*
X41142Y23609D01*
Y23740D01*
X41207Y23806D01*
X41273D01*
X41339Y23740D01*
Y23609D01*
X41273Y23543D01*
X41404Y23937D02*
Y24199D01*
X41011Y24593D02*
X40945Y24527D01*
Y24396D01*
X41011Y24330D01*
X41273D01*
X41339Y24396D01*
Y24527D01*
X41273Y24593D01*
X41076Y24986D02*
Y24790D01*
X41142Y24724D01*
X41273D01*
X41339Y24790D01*
Y24986D01*
Y25183D02*
Y25314D01*
X41273Y25380D01*
X41142D01*
X41076Y25314D01*
Y25183D01*
X41142Y25117D01*
X41273D01*
X41339Y25183D01*
Y25511D02*
X41076D01*
Y25577D01*
X41142Y25642D01*
X41339D01*
X41142D01*
X41076Y25708D01*
X41142Y25773D01*
X41339D01*
X41470Y25905D02*
X41076D01*
Y26101D01*
X41142Y26167D01*
X41273D01*
X41339Y26101D01*
Y25905D01*
X24016Y37480D02*
Y37874D01*
X24213D01*
X24278Y37808D01*
Y37677D01*
X24213Y37612D01*
X24016D01*
X24147D02*
X24278Y37480D01*
X24541Y37349D02*
X24606D01*
X24672Y37415D01*
Y37743D01*
X24475D01*
X24409Y37677D01*
Y37546D01*
X24475Y37480D01*
X24672D01*
X24868Y37743D02*
X25000D01*
X25065Y37677D01*
Y37480D01*
X24868D01*
X24803Y37546D01*
X24868Y37612D01*
X25065D01*
X25262Y37808D02*
Y37743D01*
X25196D01*
X25328D01*
X25262D01*
Y37546D01*
X25328Y37480D01*
X25721D02*
X25590D01*
X25524Y37546D01*
Y37677D01*
X25590Y37743D01*
X25721D01*
X25787Y37677D01*
Y37612D01*
X25524D01*
X36260Y21811D02*
Y21417D01*
X36522D01*
X36916Y21745D02*
X36850Y21811D01*
X36719D01*
X36653Y21745D01*
Y21680D01*
X36719Y21614D01*
X36850D01*
X36916Y21549D01*
Y21483D01*
X36850Y21417D01*
X36719D01*
X36653Y21483D01*
X37047Y21352D02*
X37309D01*
X37703Y21745D02*
X37637Y21811D01*
X37506D01*
X37441Y21745D01*
Y21483D01*
X37506Y21417D01*
X37637D01*
X37703Y21483D01*
X37834Y21286D02*
Y21680D01*
X38031D01*
X38097Y21614D01*
Y21483D01*
X38031Y21417D01*
X37834D01*
X38293D02*
X38424D01*
X38490Y21483D01*
Y21614D01*
X38424Y21680D01*
X38293D01*
X38228Y21614D01*
Y21483D01*
X38293Y21417D01*
X38621D02*
X38752D01*
X38687D01*
Y21811D01*
X38621Y21745D01*
D64*
X37972Y24341D02*
G03*
X37972Y24341I-79J0D01*
G01*
X43158Y21745D02*
G03*
X43158Y21745I-79J0D01*
G01*
X35569Y21676D02*
G03*
X35569Y21676I-79J0D01*
G01*
D65*
X40434Y20731D02*
Y20763D01*
X37084Y20815D02*
Y20847D01*
M02*
