G04 Layer_Color=25308*
%FSLAX24Y24*%
%MOIN*%
G70*
G01*
G75*
%ADD10R,0.0217X0.0177*%
%ADD11O,0.0748X0.0236*%
%ADD12R,0.0610X0.0532*%
%ADD13R,0.0591X0.0354*%
%ADD14R,0.0417X0.0276*%
%ADD15R,0.0098X0.0248*%
%ADD16R,0.0248X0.0098*%
%ADD17R,0.0287X0.0098*%
%ADD18R,0.0512X0.0709*%
%ADD19R,0.0709X0.0512*%
%ADD22C,0.1575*%
%ADD23C,0.0709*%
%ADD24R,0.0709X0.0709*%
%ADD25C,0.0709*%
%ADD26R,0.0709X0.0709*%
%ADD27C,0.1181*%
%ADD28R,0.0610X0.0610*%
%ADD29C,0.0610*%
D10*
X33612Y28543D02*
D03*
X33907D02*
D03*
D11*
X32283Y27565D02*
D03*
Y28065D02*
D03*
Y28565D02*
D03*
Y29065D02*
D03*
Y29565D02*
D03*
Y30065D02*
D03*
Y30565D02*
D03*
Y31065D02*
D03*
Y31565D02*
D03*
Y32065D02*
D03*
Y32565D02*
D03*
Y33065D02*
D03*
X28543Y27565D02*
D03*
Y28065D02*
D03*
Y28565D02*
D03*
Y29065D02*
D03*
Y29565D02*
D03*
Y30065D02*
D03*
Y30565D02*
D03*
Y31065D02*
D03*
Y31565D02*
D03*
Y32065D02*
D03*
Y32565D02*
D03*
Y33065D02*
D03*
D12*
X35039Y44203D02*
D03*
Y44970D02*
D03*
D13*
X29803Y44865D02*
D03*
Y44308D02*
D03*
X31024Y44865D02*
D03*
Y44307D02*
D03*
D14*
X32402Y44587D02*
D03*
D15*
X32894Y44915D02*
D03*
X32736D02*
D03*
X32579D02*
D03*
X32421D02*
D03*
X32264D02*
D03*
Y44258D02*
D03*
X32421D02*
D03*
X32579D02*
D03*
X32736D02*
D03*
X32894D02*
D03*
D16*
X32907Y44508D02*
D03*
D17*
X32888Y44665D02*
D03*
D18*
X34705Y32776D02*
D03*
X33602D02*
D03*
D19*
X33760Y44134D02*
D03*
Y45236D02*
D03*
X27953D02*
D03*
Y44134D02*
D03*
D22*
X42598Y42048D02*
D03*
X17402Y16458D02*
D03*
X42598D02*
D03*
X17402Y42048D02*
D03*
D23*
X33673Y20783D02*
D03*
Y19783D02*
D03*
X32673Y20783D02*
D03*
Y19783D02*
D03*
X31673Y20783D02*
D03*
Y19783D02*
D03*
X20654Y25110D02*
D03*
X21654D02*
D03*
X20654Y24110D02*
D03*
X21654D02*
D03*
X20654Y23110D02*
D03*
X21654D02*
D03*
X39386Y17902D02*
D03*
X38386D02*
D03*
X39386Y18902D02*
D03*
X38386D02*
D03*
X39386Y19902D02*
D03*
X38386D02*
D03*
X15043Y30622D02*
D03*
X16043D02*
D03*
X15043Y29622D02*
D03*
X16043D02*
D03*
X15043Y28622D02*
D03*
X16043D02*
D03*
X44996Y22921D02*
D03*
X43996D02*
D03*
X44996Y23921D02*
D03*
X43996D02*
D03*
X44996Y24921D02*
D03*
X43996D02*
D03*
D24*
X26673Y19783D02*
D03*
D25*
Y20783D02*
D03*
X27673Y19783D02*
D03*
Y20783D02*
D03*
X28673Y19783D02*
D03*
Y20783D02*
D03*
X29673Y19783D02*
D03*
Y20783D02*
D03*
X30673Y19783D02*
D03*
Y20783D02*
D03*
X20654Y18110D02*
D03*
X21654Y19110D02*
D03*
X20654D02*
D03*
X21654Y20110D02*
D03*
X20654D02*
D03*
X21654Y21110D02*
D03*
X20654D02*
D03*
X21654Y22110D02*
D03*
X20654D02*
D03*
X39386Y24902D02*
D03*
X38386Y23902D02*
D03*
X39386D02*
D03*
X38386Y22902D02*
D03*
X39386D02*
D03*
X38386Y21902D02*
D03*
X39386D02*
D03*
X38386Y20902D02*
D03*
X39386D02*
D03*
X15043Y23622D02*
D03*
X16043Y24622D02*
D03*
X15043D02*
D03*
X16043Y25622D02*
D03*
X15043D02*
D03*
X16043Y26622D02*
D03*
X15043D02*
D03*
X16043Y27622D02*
D03*
X15043D02*
D03*
X44996Y29921D02*
D03*
X43996Y28921D02*
D03*
X44996D02*
D03*
X43996Y27921D02*
D03*
X44996D02*
D03*
X43996Y26921D02*
D03*
X44996D02*
D03*
X43996Y25921D02*
D03*
X44996D02*
D03*
D26*
X21654Y18110D02*
D03*
X38386Y24902D02*
D03*
X16043Y23622D02*
D03*
X43996Y29921D02*
D03*
D27*
X39370Y14272D02*
D03*
X37402D02*
D03*
X20669D02*
D03*
X22638D02*
D03*
D28*
X24901Y36862D02*
D03*
X27657D02*
D03*
X30413D02*
D03*
X33268D02*
D03*
X36023D02*
D03*
D29*
X24901Y37862D02*
D03*
Y38862D02*
D03*
Y39862D02*
D03*
X27657Y37862D02*
D03*
Y38862D02*
D03*
Y39862D02*
D03*
X30413Y37862D02*
D03*
Y38862D02*
D03*
Y39862D02*
D03*
X33268Y37862D02*
D03*
Y38862D02*
D03*
Y39862D02*
D03*
X36023Y37862D02*
D03*
Y38862D02*
D03*
Y39862D02*
D03*
M02*
