M48
;Layer_Color=6321
;FILE_FORMAT=2:4
INCH,LZ
T11F00S00C0.2000
%
G90
G05
T11
G00X049567Y00902
M15
G01X049758Y009078
G01X049933Y009174
G01X050086Y009302
G01X050211Y009458
G01X050302Y009636
G01X050355Y009829
G01X05037Y009999
G01X0504Y034349
G01X05038Y034548
G01X050321Y034738
G01X050226Y034914
G01X050097Y035067
G01X049941Y035191
G01X049763Y035282
G01X049571Y035335
G01X0494Y03535
G01X0225Y03535
G01X022301Y03533
G01X02211Y035271
G01X021935Y035175
G01X021782Y035046
G01X021658Y03489
G01X021568Y034712
G01X021514Y034519
G01X0215Y034352
G01X02145Y010052
G01X02147Y009853
G01X021528Y009662
G01X021624Y009487
G01X021752Y009334
G01X021908Y009209
G01X022086Y009119
G01X022279Y009065
G01X022448Y00905
G01X049368Y009
G01X049567Y00902
M16
M17
M30
