G04 Layer_Color=7318015*
%FSLAX24Y24*%
%MOIN*%
G70*
G01*
G75*
%ADD10R,0.0140X0.0200*%
%ADD11R,0.0118X0.0157*%
%ADD12R,0.0236X0.0354*%
%ADD13R,0.0236X0.0354*%
D10*
X33937Y37696D02*
D03*
X34134Y37186D02*
D03*
X33740D02*
D03*
D11*
X22070Y35354D02*
D03*
X22261D02*
D03*
X23009D02*
D03*
X22818D02*
D03*
X22109Y37598D02*
D03*
X22300D02*
D03*
X23088D02*
D03*
X22897D02*
D03*
X20292Y35354D02*
D03*
X20101D02*
D03*
X21080D02*
D03*
X20889D02*
D03*
X20101Y37598D02*
D03*
X20292D02*
D03*
X21159D02*
D03*
X20967D02*
D03*
X18212Y35354D02*
D03*
X18403D02*
D03*
X19151D02*
D03*
X18960D02*
D03*
X16204Y37598D02*
D03*
X16395D02*
D03*
X17300D02*
D03*
X17109D02*
D03*
X19190D02*
D03*
X18999D02*
D03*
X18172D02*
D03*
X18363D02*
D03*
X17261Y35354D02*
D03*
X17070D02*
D03*
X16243D02*
D03*
X16434D02*
D03*
D12*
X40768Y36260D02*
D03*
X39193Y36220D02*
D03*
X16752Y38898D02*
D03*
X18681D02*
D03*
X16752Y36614D02*
D03*
X20650Y38898D02*
D03*
X18681Y36654D02*
D03*
X20610D02*
D03*
X22579Y38898D02*
D03*
X22539Y36693D02*
D03*
D13*
X41142Y35591D02*
D03*
X40394D02*
D03*
X39567Y35551D02*
D03*
X38819D02*
D03*
X17126Y38228D02*
D03*
X16378D02*
D03*
X19055D02*
D03*
X18307D02*
D03*
X17126Y35945D02*
D03*
X16378D02*
D03*
X21024Y38228D02*
D03*
X20276D02*
D03*
X19055Y35984D02*
D03*
X18307D02*
D03*
X20984D02*
D03*
X20236D02*
D03*
X22953Y38228D02*
D03*
X22205D02*
D03*
X22913Y36024D02*
D03*
X22165D02*
D03*
M02*
