M48
;Layer_Color=6321
;FILE_FORMAT=2:4
INCH,LZ
;TYPE=PLATED
T1F00S00C0.0079
T2F00S00C0.0118
T3F00S00C0.0394
T4F00S00C0.0400
;TYPE=NON_PLATED
%
T01
X02565Y023366
X026083
Y023799
X02565
T02
X02479Y02167
X025118Y02163
X02531Y02215
X02673Y02447
X024781Y025435
X024345Y025148
T03
X022543Y026075
X023543
X024543
Y027075
X023543
X022543
T04
X019522Y023022
Y024222
X027722
Y023022
M30
