G04 Layer_Color=20142*
%FSLAX24Y24*%
%MOIN*%
G70*
G01*
G75*
%ADD804R,0.0887X0.0218*%
%ADD805R,0.0434X0.0474*%
%ADD806O,0.1064X0.0356*%
%ADD807R,0.0400X0.0430*%
%ADD808C,0.2442*%
%ADD809C,0.0867*%
%ADD810R,0.0867X0.0867*%
%ADD811O,0.0980X0.0680*%
%ADD812R,0.0980X0.0680*%
%ADD813C,0.1655*%
%ADD814C,0.0690*%
%ADD815R,0.0690X0.0690*%
%ADD816C,0.1261*%
%ADD817C,0.0375*%
%ADD818C,0.0580*%
D804*
X31772Y22860D02*
D03*
Y23096D02*
D03*
Y23333D02*
D03*
Y23569D02*
D03*
Y23805D02*
D03*
Y24041D02*
D03*
Y24277D02*
D03*
Y24513D02*
D03*
Y24749D02*
D03*
Y24985D02*
D03*
Y25222D02*
D03*
Y25458D02*
D03*
Y25694D02*
D03*
Y25930D02*
D03*
Y26166D02*
D03*
Y26402D02*
D03*
Y26638D02*
D03*
Y26874D02*
D03*
Y27111D02*
D03*
Y27347D02*
D03*
Y27583D02*
D03*
Y27819D02*
D03*
Y28055D02*
D03*
Y28291D02*
D03*
Y28527D02*
D03*
Y28763D02*
D03*
Y29000D02*
D03*
Y29236D02*
D03*
Y29472D02*
D03*
Y29708D02*
D03*
Y29944D02*
D03*
Y30180D02*
D03*
Y30416D02*
D03*
Y30652D02*
D03*
Y30889D02*
D03*
Y31125D02*
D03*
Y31361D02*
D03*
Y31597D02*
D03*
Y31833D02*
D03*
Y32069D02*
D03*
Y32305D02*
D03*
Y32541D02*
D03*
Y32778D02*
D03*
Y33014D02*
D03*
Y33250D02*
D03*
Y33486D02*
D03*
Y33722D02*
D03*
Y33958D02*
D03*
Y34194D02*
D03*
Y34430D02*
D03*
Y34667D02*
D03*
Y34903D02*
D03*
Y35139D02*
D03*
Y35375D02*
D03*
Y35611D02*
D03*
Y35847D02*
D03*
Y36083D02*
D03*
Y36319D02*
D03*
Y36556D02*
D03*
Y36792D02*
D03*
Y37028D02*
D03*
Y37264D02*
D03*
Y37500D02*
D03*
X28543Y20617D02*
D03*
Y20853D02*
D03*
Y21089D02*
D03*
Y21326D02*
D03*
Y21562D02*
D03*
Y21798D02*
D03*
Y22270D02*
D03*
Y22506D02*
D03*
Y22742D02*
D03*
Y22979D02*
D03*
Y23215D02*
D03*
Y23451D02*
D03*
Y23687D02*
D03*
Y23923D02*
D03*
Y24159D02*
D03*
Y24395D02*
D03*
Y24631D02*
D03*
Y24868D02*
D03*
Y25104D02*
D03*
Y25340D02*
D03*
Y25576D02*
D03*
Y25812D02*
D03*
Y26048D02*
D03*
Y26284D02*
D03*
Y26520D02*
D03*
Y26757D02*
D03*
Y26993D02*
D03*
Y27229D02*
D03*
Y27465D02*
D03*
Y27701D02*
D03*
Y27937D02*
D03*
Y28173D02*
D03*
Y28409D02*
D03*
Y28646D02*
D03*
Y28882D02*
D03*
Y29118D02*
D03*
Y29354D02*
D03*
Y29590D02*
D03*
Y30061D02*
D03*
Y30298D02*
D03*
Y30534D02*
D03*
Y30770D02*
D03*
Y31006D02*
D03*
Y31242D02*
D03*
Y31478D02*
D03*
Y31714D02*
D03*
Y31950D02*
D03*
Y32187D02*
D03*
Y32423D02*
D03*
Y32659D02*
D03*
Y32895D02*
D03*
Y33131D02*
D03*
Y33367D02*
D03*
Y33603D02*
D03*
Y33839D02*
D03*
Y34076D02*
D03*
Y34312D02*
D03*
Y34548D02*
D03*
Y34784D02*
D03*
Y35020D02*
D03*
Y35256D02*
D03*
Y35492D02*
D03*
Y35728D02*
D03*
Y35965D02*
D03*
Y36201D02*
D03*
Y36437D02*
D03*
Y36673D02*
D03*
Y36909D02*
D03*
Y37145D02*
D03*
Y37381D02*
D03*
Y37617D02*
D03*
Y22034D02*
D03*
Y29826D02*
D03*
X31772Y20735D02*
D03*
Y20971D02*
D03*
Y21208D02*
D03*
Y21444D02*
D03*
Y21680D02*
D03*
Y21916D02*
D03*
Y22152D02*
D03*
Y22388D02*
D03*
Y22624D02*
D03*
X28543Y20381D02*
D03*
X31772Y20499D02*
D03*
Y20263D02*
D03*
X28543Y20145D02*
D03*
Y19909D02*
D03*
Y19673D02*
D03*
Y19437D02*
D03*
Y19201D02*
D03*
Y18964D02*
D03*
X31772Y20027D02*
D03*
Y19791D02*
D03*
Y19555D02*
D03*
Y19319D02*
D03*
Y19082D02*
D03*
Y18846D02*
D03*
X28543Y17303D02*
D03*
Y17067D02*
D03*
Y16831D02*
D03*
Y16594D02*
D03*
Y16358D02*
D03*
X31772Y17185D02*
D03*
Y16949D02*
D03*
Y16713D02*
D03*
Y16476D02*
D03*
Y16240D02*
D03*
Y16004D02*
D03*
Y15768D02*
D03*
Y15532D02*
D03*
X28543Y16122D02*
D03*
Y15886D02*
D03*
Y15650D02*
D03*
Y15413D02*
D03*
X31772Y15295D02*
D03*
X28543Y15177D02*
D03*
Y14941D02*
D03*
Y14705D02*
D03*
Y14468D02*
D03*
Y14232D02*
D03*
Y13996D02*
D03*
Y13760D02*
D03*
X31772Y15059D02*
D03*
Y14823D02*
D03*
Y14350D02*
D03*
Y14114D02*
D03*
Y13878D02*
D03*
Y13642D02*
D03*
Y13406D02*
D03*
Y13169D02*
D03*
Y12933D02*
D03*
Y14587D02*
D03*
X28543Y13524D02*
D03*
Y13287D02*
D03*
Y13051D02*
D03*
Y12815D02*
D03*
X31772Y12697D02*
D03*
X18701Y22860D02*
D03*
Y23096D02*
D03*
Y23333D02*
D03*
Y23569D02*
D03*
Y23805D02*
D03*
Y24041D02*
D03*
Y24277D02*
D03*
Y24513D02*
D03*
Y24749D02*
D03*
Y24985D02*
D03*
Y25222D02*
D03*
Y25458D02*
D03*
Y25694D02*
D03*
Y25930D02*
D03*
Y26166D02*
D03*
Y26402D02*
D03*
Y26638D02*
D03*
Y26874D02*
D03*
Y27111D02*
D03*
Y27347D02*
D03*
Y27583D02*
D03*
Y27819D02*
D03*
Y28055D02*
D03*
Y28291D02*
D03*
Y28527D02*
D03*
Y28763D02*
D03*
Y29000D02*
D03*
Y29236D02*
D03*
Y29472D02*
D03*
Y29708D02*
D03*
Y29944D02*
D03*
Y30180D02*
D03*
Y30416D02*
D03*
Y30652D02*
D03*
Y30889D02*
D03*
Y31125D02*
D03*
Y31361D02*
D03*
Y31597D02*
D03*
Y31833D02*
D03*
Y32069D02*
D03*
Y32305D02*
D03*
Y32541D02*
D03*
Y32778D02*
D03*
Y33014D02*
D03*
Y33250D02*
D03*
Y33486D02*
D03*
Y33722D02*
D03*
Y33958D02*
D03*
Y34194D02*
D03*
Y34430D02*
D03*
Y34667D02*
D03*
Y34903D02*
D03*
Y35139D02*
D03*
Y35375D02*
D03*
Y35611D02*
D03*
Y35847D02*
D03*
Y36083D02*
D03*
Y36319D02*
D03*
Y36556D02*
D03*
Y36792D02*
D03*
Y37028D02*
D03*
Y37264D02*
D03*
Y37500D02*
D03*
X15472Y20617D02*
D03*
Y20853D02*
D03*
Y21089D02*
D03*
Y21326D02*
D03*
Y21562D02*
D03*
Y21798D02*
D03*
Y22270D02*
D03*
Y22506D02*
D03*
Y22742D02*
D03*
Y22979D02*
D03*
Y23215D02*
D03*
Y23451D02*
D03*
Y23687D02*
D03*
Y23923D02*
D03*
Y24159D02*
D03*
Y24395D02*
D03*
Y24631D02*
D03*
Y24868D02*
D03*
Y25104D02*
D03*
Y25340D02*
D03*
Y25576D02*
D03*
Y25812D02*
D03*
Y26048D02*
D03*
Y26284D02*
D03*
Y26520D02*
D03*
Y26757D02*
D03*
Y26993D02*
D03*
Y27229D02*
D03*
Y27465D02*
D03*
Y27701D02*
D03*
Y27937D02*
D03*
Y28173D02*
D03*
Y28409D02*
D03*
Y28646D02*
D03*
Y28882D02*
D03*
Y29118D02*
D03*
Y29354D02*
D03*
Y29590D02*
D03*
Y30061D02*
D03*
Y30298D02*
D03*
Y30534D02*
D03*
Y30770D02*
D03*
Y31006D02*
D03*
Y31242D02*
D03*
Y31478D02*
D03*
Y31714D02*
D03*
Y31950D02*
D03*
Y32187D02*
D03*
Y32423D02*
D03*
Y32659D02*
D03*
Y32895D02*
D03*
Y33131D02*
D03*
Y33367D02*
D03*
Y33603D02*
D03*
Y33839D02*
D03*
Y34076D02*
D03*
Y34312D02*
D03*
Y34548D02*
D03*
Y34784D02*
D03*
Y35020D02*
D03*
Y35256D02*
D03*
Y35492D02*
D03*
Y35728D02*
D03*
Y35965D02*
D03*
Y36201D02*
D03*
Y36437D02*
D03*
Y36673D02*
D03*
Y36909D02*
D03*
Y37145D02*
D03*
Y37381D02*
D03*
Y37617D02*
D03*
Y22034D02*
D03*
Y29826D02*
D03*
X18701Y20735D02*
D03*
Y20971D02*
D03*
Y21208D02*
D03*
Y21444D02*
D03*
Y21680D02*
D03*
Y21916D02*
D03*
Y22152D02*
D03*
Y22388D02*
D03*
Y22624D02*
D03*
X15472Y20381D02*
D03*
X18701Y20499D02*
D03*
Y20263D02*
D03*
X15472Y20145D02*
D03*
Y19909D02*
D03*
Y19673D02*
D03*
Y19437D02*
D03*
Y19201D02*
D03*
Y18964D02*
D03*
X18701Y20027D02*
D03*
Y19791D02*
D03*
Y19555D02*
D03*
Y19319D02*
D03*
Y19082D02*
D03*
Y18846D02*
D03*
X15472Y17303D02*
D03*
Y17067D02*
D03*
Y16831D02*
D03*
Y16594D02*
D03*
Y16358D02*
D03*
X18701Y17185D02*
D03*
Y16949D02*
D03*
Y16713D02*
D03*
Y16476D02*
D03*
Y16240D02*
D03*
Y16004D02*
D03*
Y15768D02*
D03*
Y15532D02*
D03*
X15472Y16122D02*
D03*
Y15886D02*
D03*
Y15650D02*
D03*
Y15413D02*
D03*
X18701Y15295D02*
D03*
X15472Y15177D02*
D03*
Y14941D02*
D03*
Y14705D02*
D03*
Y14468D02*
D03*
Y14232D02*
D03*
Y13996D02*
D03*
Y13760D02*
D03*
X18701Y15059D02*
D03*
Y14823D02*
D03*
Y14350D02*
D03*
Y14114D02*
D03*
Y13878D02*
D03*
Y13642D02*
D03*
Y13406D02*
D03*
Y13169D02*
D03*
Y12933D02*
D03*
Y14587D02*
D03*
X15472Y13524D02*
D03*
Y13287D02*
D03*
Y13051D02*
D03*
Y12815D02*
D03*
X18701Y12697D02*
D03*
D805*
X24823Y26191D02*
D03*
X24291D02*
D03*
X24833Y27106D02*
D03*
X24301D02*
D03*
X24803Y28809D02*
D03*
X24272D02*
D03*
X24823Y29656D02*
D03*
X24291D02*
D03*
X24833Y30512D02*
D03*
X24301D02*
D03*
X24833Y31437D02*
D03*
X24301D02*
D03*
X27215Y31496D02*
D03*
X26683D02*
D03*
X24803Y27953D02*
D03*
X24272D02*
D03*
D806*
X19902Y27561D02*
D03*
Y27061D02*
D03*
Y26561D02*
D03*
Y26061D02*
D03*
X21831Y27561D02*
D03*
Y27061D02*
D03*
Y26561D02*
D03*
Y26061D02*
D03*
X19902Y17718D02*
D03*
Y17219D02*
D03*
Y16718D02*
D03*
Y16219D02*
D03*
X21831Y17718D02*
D03*
Y17219D02*
D03*
Y16718D02*
D03*
Y16219D02*
D03*
X27343Y19407D02*
D03*
Y19907D02*
D03*
Y20407D02*
D03*
Y20907D02*
D03*
X25413Y19407D02*
D03*
Y19907D02*
D03*
Y20407D02*
D03*
Y20907D02*
D03*
X27343Y22203D02*
D03*
Y22703D02*
D03*
Y23203D02*
D03*
Y23703D02*
D03*
X25413Y22203D02*
D03*
Y22703D02*
D03*
Y23203D02*
D03*
Y23703D02*
D03*
D807*
X22795Y26511D02*
D03*
Y27111D02*
D03*
Y16668D02*
D03*
Y17269D02*
D03*
X24449Y20457D02*
D03*
Y19857D02*
D03*
Y23253D02*
D03*
Y22653D02*
D03*
D808*
X22126Y40709D02*
D03*
X25079D02*
D03*
X22165Y11024D02*
D03*
X25118D02*
D03*
D809*
X37874Y16087D02*
D03*
Y18567D02*
D03*
X9449Y16126D02*
D03*
Y18606D02*
D03*
X37874Y22063D02*
D03*
X9488D02*
D03*
X7835Y19346D02*
D03*
Y17142D02*
D03*
Y21551D02*
D03*
X39370Y21512D02*
D03*
Y19307D02*
D03*
Y17102D02*
D03*
X26388Y22451D02*
D03*
X32736Y13967D02*
D03*
D810*
X37874Y17087D02*
D03*
Y19567D02*
D03*
X9449Y17126D02*
D03*
Y19606D02*
D03*
X37874Y21063D02*
D03*
X9488D02*
D03*
X7835Y18346D02*
D03*
Y16142D02*
D03*
Y20551D02*
D03*
X39370Y20512D02*
D03*
Y18307D02*
D03*
Y16102D02*
D03*
D811*
X7835Y23775D02*
D03*
Y25901D02*
D03*
Y28027D02*
D03*
X39370Y30114D02*
D03*
X7835Y30153D02*
D03*
X13583Y28382D02*
D03*
Y26256D02*
D03*
Y24130D02*
D03*
Y22004D02*
D03*
X33622Y26256D02*
D03*
Y28382D02*
D03*
Y24130D02*
D03*
Y22004D02*
D03*
X39370Y23736D02*
D03*
Y25862D02*
D03*
Y27988D02*
D03*
D812*
X7835Y22775D02*
D03*
Y24901D02*
D03*
Y27027D02*
D03*
X39370Y29114D02*
D03*
X7835Y29153D02*
D03*
X13583Y27382D02*
D03*
Y25256D02*
D03*
Y23130D02*
D03*
Y21004D02*
D03*
X33622Y25256D02*
D03*
Y27382D02*
D03*
Y23130D02*
D03*
Y21004D02*
D03*
X39370Y22736D02*
D03*
Y24862D02*
D03*
Y26988D02*
D03*
D813*
X11811Y35433D02*
D03*
X35433Y11811D02*
D03*
X11811D02*
D03*
X35433Y35433D02*
D03*
D814*
X11024Y33173D02*
D03*
Y32173D02*
D03*
Y31173D02*
D03*
Y30173D02*
D03*
Y29173D02*
D03*
Y28173D02*
D03*
Y27173D02*
D03*
Y26173D02*
D03*
Y25173D02*
D03*
Y24173D02*
D03*
Y23173D02*
D03*
Y22173D02*
D03*
Y21173D02*
D03*
Y20173D02*
D03*
Y19173D02*
D03*
Y18173D02*
D03*
Y17173D02*
D03*
Y16173D02*
D03*
Y15173D02*
D03*
X12024Y33173D02*
D03*
Y32173D02*
D03*
Y31173D02*
D03*
Y30173D02*
D03*
Y29173D02*
D03*
Y28173D02*
D03*
Y27173D02*
D03*
Y26173D02*
D03*
Y25173D02*
D03*
Y24173D02*
D03*
Y23173D02*
D03*
Y22173D02*
D03*
Y21173D02*
D03*
Y20173D02*
D03*
Y19173D02*
D03*
Y18173D02*
D03*
Y17173D02*
D03*
Y16173D02*
D03*
Y15173D02*
D03*
Y14173D02*
D03*
X35433Y33173D02*
D03*
Y32173D02*
D03*
Y31173D02*
D03*
Y30173D02*
D03*
Y29173D02*
D03*
Y28173D02*
D03*
Y27173D02*
D03*
Y26173D02*
D03*
Y25173D02*
D03*
Y24173D02*
D03*
Y23173D02*
D03*
Y22173D02*
D03*
Y21173D02*
D03*
Y20173D02*
D03*
Y19173D02*
D03*
Y18173D02*
D03*
Y17173D02*
D03*
Y16173D02*
D03*
Y15173D02*
D03*
X36433Y33173D02*
D03*
Y32173D02*
D03*
Y31173D02*
D03*
Y30173D02*
D03*
Y29173D02*
D03*
Y28173D02*
D03*
Y27173D02*
D03*
Y26173D02*
D03*
Y25173D02*
D03*
Y24173D02*
D03*
Y23173D02*
D03*
Y22173D02*
D03*
Y21173D02*
D03*
Y20173D02*
D03*
Y19173D02*
D03*
Y18173D02*
D03*
Y17173D02*
D03*
Y16173D02*
D03*
Y15173D02*
D03*
Y14173D02*
D03*
D815*
X11024D02*
D03*
X35433D02*
D03*
D816*
X24370Y21496D02*
D03*
X20108Y24813D02*
D03*
X21654Y24803D02*
D03*
X24449D02*
D03*
X22825Y21496D02*
D03*
X20787Y15276D02*
D03*
X26457Y15197D02*
D03*
D817*
X24637Y17658D02*
D03*
X21280Y18110D02*
D03*
X32531Y17009D02*
D03*
X23376Y20699D02*
D03*
X34675Y37668D02*
D03*
X36378Y35069D02*
D03*
X25197Y32362D02*
D03*
X23740Y30906D02*
D03*
X27165Y30030D02*
D03*
X33681Y15305D02*
D03*
X14636Y29911D02*
D03*
X34124Y17402D02*
D03*
X36841Y35837D02*
D03*
X26978Y35551D02*
D03*
X34508Y15463D02*
D03*
X28671Y10354D02*
D03*
X27638D02*
D03*
X24813Y14970D02*
D03*
X26703Y34892D02*
D03*
X22628Y30817D02*
D03*
X24055Y22884D02*
D03*
X32490Y18258D02*
D03*
X32411Y17657D02*
D03*
X21063Y22657D02*
D03*
X24006Y26622D02*
D03*
X22788Y25849D02*
D03*
X23917Y20463D02*
D03*
D818*
X24450Y15749D02*
D03*
X30118Y16457D02*
D03*
X17559Y21998D02*
D03*
X17549Y20640D02*
D03*
Y21299D02*
D03*
X29941Y31919D02*
D03*
X29961Y33346D02*
D03*
Y32648D02*
D03*
X30935Y20817D02*
D03*
X30945Y21988D02*
D03*
Y23248D02*
D03*
X34291Y34961D02*
D03*
X17717Y34803D02*
D03*
Y35433D02*
D03*
X14567Y33189D02*
D03*
Y31181D02*
D03*
Y32165D02*
D03*
X17717Y36063D02*
D03*
X29331Y34646D02*
D03*
Y35236D02*
D03*
X33661Y32953D02*
D03*
X33819Y34449D02*
D03*
X33661Y33661D02*
D03*
X30984Y13071D02*
D03*
Y17047D02*
D03*
X16260D02*
D03*
X17913D02*
D03*
Y15197D02*
D03*
X16260D02*
D03*
X13032Y35669D02*
D03*
Y36339D02*
D03*
Y37008D02*
D03*
X12402Y37441D02*
D03*
X30984Y16378D02*
D03*
X26339Y17480D02*
D03*
X30039Y15728D02*
D03*
X30433Y15157D02*
D03*
X30079Y14606D02*
D03*
X21063Y34931D02*
D03*
Y34134D02*
D03*
Y33356D02*
D03*
X17717Y32283D02*
D03*
Y31496D02*
D03*
Y30709D02*
D03*
X22667Y18317D02*
D03*
X23081Y18780D02*
D03*
M02*
