G04 Layer_Physical_Order=1*
G04 Layer_Color=25308*
%FSLAX24Y24*%
%MOIN*%
G70*
G01*
G75*
%ADD10R,0.0807X0.0138*%
%ADD11R,0.0354X0.0394*%
%ADD12O,0.0984X0.0276*%
%ADD13R,0.0320X0.0350*%
%ADD14C,0.0100*%
%ADD15C,0.0079*%
%ADD16C,0.0787*%
%ADD17R,0.2087X0.3179*%
%ADD18R,0.2116X0.2470*%
%ADD19R,0.1959X0.1417*%
%ADD20R,0.1112X0.4134*%
%ADD21R,0.2254X0.2411*%
%ADD22R,0.1496X0.3967*%
%ADD23R,0.1821X0.2697*%
%ADD24R,0.2982X0.4872*%
%ADD25C,0.2362*%
%ADD26C,0.0787*%
%ADD27R,0.0787X0.0787*%
%ADD28O,0.0900X0.0600*%
%ADD29R,0.0900X0.0600*%
%ADD30C,0.1575*%
%ADD31C,0.0610*%
%ADD32R,0.0610X0.0610*%
%ADD33C,0.1181*%
%ADD34C,0.0295*%
%ADD35C,0.0500*%
G36*
X28937Y18898D02*
X28150D01*
Y21378D01*
Y21654D01*
X27756Y22047D01*
X26929D01*
X26850Y22126D01*
Y22795D01*
X26929Y22874D01*
X27756D01*
X28150Y23268D01*
Y24685D01*
X28937D01*
Y18898D01*
D02*
G37*
G36*
X32171Y29116D02*
Y28879D01*
Y28643D01*
Y28640D01*
X32173Y28634D01*
X32173Y28634D01*
X32173Y28634D01*
X32172Y28629D01*
X32172Y28629D01*
X32178Y28620D01*
Y28617D01*
X32182Y28612D01*
X32187Y28600D01*
X32192Y28598D01*
X32196Y28594D01*
X32198Y28592D01*
X32198Y28592D01*
X32198Y28585D01*
X32205Y28593D01*
X32172Y28430D01*
X32173Y28424D01*
X32171Y28419D01*
Y28407D01*
Y28171D01*
Y27935D01*
Y27699D01*
Y27463D01*
Y27227D01*
Y26990D01*
Y26754D01*
Y26518D01*
Y26282D01*
Y26046D01*
Y25810D01*
Y25574D01*
Y25338D01*
Y25102D01*
Y24865D01*
Y24629D01*
Y24449D01*
X31372D01*
X31152Y24228D01*
Y23760D01*
X30689D01*
X30610Y23681D01*
Y17963D01*
X30266Y17618D01*
Y17608D01*
X30246D01*
X30201Y17563D01*
X27949D01*
X27904Y17608D01*
X27677D01*
X26654Y18632D01*
Y18917D01*
X26358Y19213D01*
X26368Y19222D01*
Y20108D01*
X26801D01*
X26850Y20157D01*
X28031D01*
Y18819D01*
X28061Y18789D01*
X29016D01*
X29124Y18898D01*
Y28474D01*
X31317D01*
X31356Y28491D01*
X31372Y28530D01*
Y28643D01*
Y28879D01*
Y29116D01*
Y29352D01*
X32171D01*
Y29116D01*
D02*
G37*
G36*
X34123Y20652D02*
X34149Y20613D01*
Y20555D01*
X32919Y19325D01*
X32909Y19310D01*
X32859Y19325D01*
Y20095D01*
X33417Y20652D01*
X34123D01*
D02*
G37*
G36*
X23800Y21201D02*
X23834Y21138D01*
X23882Y21080D01*
Y20984D01*
X23898Y20945D01*
X23937Y20929D01*
X24070D01*
X24123Y20900D01*
X24244Y20864D01*
X24370Y20851D01*
X24496Y20864D01*
X24617Y20900D01*
X24670Y20929D01*
X24783D01*
X24823Y20945D01*
X25043Y21165D01*
X26116D01*
Y20295D01*
X26132Y20256D01*
X26221Y20168D01*
X26221Y20167D01*
X26221Y20167D01*
X26241Y20159D01*
X26260Y20151D01*
X26260Y20151D01*
X26261Y20151D01*
X26277Y20152D01*
X26310Y20112D01*
X26313Y20102D01*
Y19236D01*
X26310Y19231D01*
X26257Y19214D01*
X26110Y19361D01*
Y19506D01*
X26102Y19546D01*
X26080Y19579D01*
X25903Y19757D01*
X25904Y19771D01*
X25946Y19834D01*
X25960Y19907D01*
X25946Y19981D01*
X25904Y20044D01*
X25841Y20085D01*
X25768Y20100D01*
X25059D01*
X24985Y20085D01*
X24923Y20044D01*
X24901Y20011D01*
X24660D01*
Y20084D01*
X24238D01*
Y19640D01*
X24196Y19611D01*
X23715Y20092D01*
Y20549D01*
X23720Y20556D01*
X23728Y20596D01*
Y21210D01*
X23736Y21216D01*
X23800Y21201D01*
D02*
G37*
G36*
X24380Y18937D02*
Y17972D01*
X22313D01*
X20502Y18740D01*
X19134D01*
X19094Y18780D01*
X18307D01*
Y23622D01*
X19695D01*
X24380Y18937D01*
D02*
G37*
G36*
X24923Y19271D02*
X24985Y19229D01*
X25059Y19215D01*
X25310D01*
Y17848D01*
X24859Y17396D01*
X23291D01*
X22896Y17791D01*
X22863Y17814D01*
X22823Y17822D01*
X22343D01*
X22321Y17855D01*
X22317Y17858D01*
X22317Y17868D01*
X22365Y17917D01*
X24380D01*
X24419Y17933D01*
X24435Y17972D01*
Y18814D01*
X24482Y18833D01*
X24545Y18770D01*
Y17836D01*
X24494Y17802D01*
X24450Y17736D01*
X24434Y17658D01*
X24450Y17581D01*
X24494Y17515D01*
X24559Y17471D01*
X24637Y17456D01*
X24715Y17471D01*
X24780Y17515D01*
X24824Y17581D01*
X24840Y17658D01*
X24824Y17736D01*
X24780Y17802D01*
X24729Y17836D01*
Y18808D01*
X24722Y18843D01*
X24714Y18855D01*
X24702Y18873D01*
X24702Y18873D01*
X24317Y19258D01*
X24337Y19304D01*
X24901D01*
X24923Y19271D01*
D02*
G37*
G36*
X32165Y18780D02*
X31378D01*
Y23622D01*
X32165D01*
Y18780D01*
D02*
G37*
G36*
X18246Y19198D02*
Y18962D01*
Y18736D01*
X18054D01*
X17448Y19343D01*
X17468Y19393D01*
X18246D01*
Y19198D01*
D02*
G37*
G36*
X27785Y21919D02*
X28002Y21703D01*
Y20236D01*
X26260Y20207D01*
X26171Y20295D01*
Y21220D01*
X25020D01*
X24783Y20984D01*
X23937D01*
Y21900D01*
X23957Y21919D01*
X25502D01*
X26742Y21949D01*
X27785Y21919D01*
D02*
G37*
G36*
X26067Y23081D02*
X26083Y23042D01*
X26181Y22943D01*
X26220Y22927D01*
X26244D01*
X26254Y22877D01*
X26163Y22839D01*
X26071Y22768D01*
X26008Y22687D01*
X25971Y22699D01*
X25960Y22706D01*
X25946Y22776D01*
X25904Y22839D01*
X25841Y22881D01*
X25768Y22895D01*
X25059D01*
X24985Y22881D01*
X24923Y22839D01*
X24901Y22806D01*
X24660D01*
Y22879D01*
X24364D01*
X24343Y22893D01*
X24304Y22901D01*
X24264Y22893D01*
X24243Y22879D01*
X24238D01*
Y22875D01*
X24231Y22871D01*
X24209Y22837D01*
X24207Y22830D01*
X24115Y22738D01*
X23995D01*
X23909Y22824D01*
Y23886D01*
X23917Y23891D01*
X26067D01*
Y23081D01*
D02*
G37*
G36*
X17579Y23968D02*
X17612Y23946D01*
X17652Y23938D01*
X18246D01*
Y23921D01*
Y23685D01*
Y23449D01*
Y23213D01*
Y22976D01*
Y22740D01*
Y22683D01*
X17402D01*
X17362Y22667D01*
X17346Y22628D01*
X17299Y22636D01*
Y24055D01*
X17283Y24094D01*
X17244Y24111D01*
X15938D01*
X15930Y24114D01*
X15927Y24122D01*
Y24275D01*
Y24511D01*
Y24724D01*
Y24747D01*
Y24984D01*
Y25220D01*
Y25237D01*
X16310D01*
X17579Y23968D01*
D02*
G37*
G36*
X21043Y26014D02*
Y25866D01*
X22283Y25856D01*
X22569Y25571D01*
Y24065D01*
X21398D01*
X21388Y24055D01*
X20837Y24606D01*
X20659Y25285D01*
X20157Y25492D01*
X19478Y25512D01*
X19439Y25522D01*
X19400Y25541D01*
Y26713D01*
X20955D01*
X21043Y26014D01*
D02*
G37*
G36*
X28041Y23268D02*
X27756Y22982D01*
X26220D01*
X26122Y23081D01*
Y23947D01*
X23917D01*
X23799Y24065D01*
Y25344D01*
X23829Y25374D01*
X28041D01*
Y23268D01*
D02*
G37*
G36*
X21063Y22455D02*
X21110Y22464D01*
X21423Y22151D01*
X21457Y22129D01*
X21496Y22121D01*
X22527D01*
X22540Y22071D01*
X22467Y22032D01*
X22369Y21952D01*
X22289Y21854D01*
X22229Y21743D01*
X22192Y21622D01*
X22180Y21496D01*
X22192Y21370D01*
X22229Y21249D01*
X22243Y21223D01*
X22203Y21193D01*
X20971Y22424D01*
X20998Y22468D01*
X21063Y22455D01*
D02*
G37*
G36*
X23522Y20901D02*
X23472Y20874D01*
X23454Y20886D01*
X23376Y20902D01*
X23298Y20886D01*
X23233Y20842D01*
X23189Y20776D01*
X23173Y20699D01*
X23189Y20621D01*
X23233Y20555D01*
X23298Y20512D01*
X23323Y20507D01*
Y20138D01*
X23277Y20118D01*
X22521Y20874D01*
X22551Y20914D01*
X22578Y20900D01*
X22699Y20864D01*
X22825Y20851D01*
X22951Y20864D01*
X23072Y20900D01*
X23183Y20960D01*
X23281Y21040D01*
X23361Y21138D01*
X23421Y21249D01*
X23457Y21370D01*
X23470Y21496D01*
X23457Y21622D01*
X23421Y21743D01*
X23361Y21854D01*
X23281Y21952D01*
X23183Y22032D01*
X23110Y22071D01*
X23123Y22121D01*
X23522D01*
Y20901D01*
D02*
G37*
G36*
X20870Y22705D02*
X20860Y22657D01*
X20873Y22593D01*
X20830Y22565D01*
X19734Y23661D01*
X19695Y23677D01*
X19155D01*
Y23685D01*
Y23921D01*
Y23938D01*
X19637D01*
X20870Y22705D01*
D02*
G37*
G36*
X23703Y23828D02*
Y22781D01*
X23711Y22741D01*
X23733Y22708D01*
X23879Y22562D01*
X23913Y22540D01*
X23952Y22532D01*
X24158D01*
X24188Y22538D01*
X24222Y22519D01*
X24238Y22506D01*
Y22427D01*
X24660D01*
Y22600D01*
X24901D01*
X24923Y22567D01*
X24985Y22525D01*
X25059Y22510D01*
X25768D01*
X25841Y22525D01*
X25904Y22567D01*
X25952Y22548D01*
X25939Y22451D01*
X25951Y22358D01*
X25907Y22340D01*
X25903Y22339D01*
X25841Y22381D01*
X25768Y22395D01*
X25059D01*
X24985Y22381D01*
X24923Y22339D01*
X24915Y22328D01*
X23655D01*
X23650Y22332D01*
Y23803D01*
X23700Y23830D01*
X23703Y23828D01*
D02*
G37*
G36*
X18246Y14373D02*
Y14230D01*
Y13994D01*
Y13758D01*
Y13522D01*
Y13509D01*
X17972D01*
X17972D01*
X17933Y13501D01*
X17899Y13478D01*
X17670Y13249D01*
X17634Y13263D01*
X17623Y13273D01*
Y13816D01*
X18200Y14393D01*
X18246Y14373D01*
D02*
G37*
G36*
X19385Y13461D02*
Y12720D01*
X18107Y11442D01*
X17131D01*
X17110Y11492D01*
X18196Y12578D01*
X18246Y12577D01*
Y12577D01*
X19155D01*
Y12813D01*
Y13049D01*
Y13285D01*
Y13522D01*
Y13539D01*
X19308D01*
X19385Y13461D01*
D02*
G37*
G36*
X9015Y16010D02*
X9060Y15902D01*
X9132Y15809D01*
X9224Y15737D01*
X9333Y15693D01*
X9449Y15677D01*
X9565Y15693D01*
X9673Y15737D01*
X9684Y15745D01*
X9897Y15532D01*
Y13548D01*
X9886Y13539D01*
X9850Y13525D01*
X9788Y13586D01*
Y14921D01*
X9780Y14961D01*
X9758Y14994D01*
X8961Y15791D01*
Y16037D01*
X9011Y16040D01*
X9015Y16010D01*
D02*
G37*
G36*
X34251Y13556D02*
X34237Y13520D01*
X34227Y13509D01*
X32226D01*
Y13522D01*
Y13758D01*
Y13994D01*
Y14230D01*
Y14467D01*
Y14483D01*
X33323D01*
X34251Y13556D01*
D02*
G37*
G36*
X10085Y12683D02*
X10118Y12661D01*
X10157Y12653D01*
X11525D01*
X11532Y12603D01*
X11489Y12590D01*
X11343Y12512D01*
X11215Y12407D01*
X11110Y12279D01*
X11033Y12133D01*
X10985Y11975D01*
X10968Y11811D01*
X10985Y11647D01*
X11033Y11489D01*
X11110Y11343D01*
X11215Y11215D01*
X11343Y11110D01*
X11489Y11033D01*
X11647Y10985D01*
X11694Y10980D01*
X11691Y10930D01*
X11421D01*
X9395Y12956D01*
Y13302D01*
X9445Y13323D01*
X10085Y12683D01*
D02*
G37*
G36*
X31317Y13522D02*
Y13285D01*
Y13049D01*
Y12813D01*
Y12577D01*
X32226D01*
Y12594D01*
X32497D01*
X34573Y10518D01*
X34606Y10495D01*
X34646Y10487D01*
X35906D01*
X35945Y10495D01*
X35954Y10501D01*
X35986Y10462D01*
X35863Y10339D01*
X33232D01*
X30615Y12956D01*
Y13343D01*
X30810Y13539D01*
X31317D01*
Y13522D01*
D02*
G37*
G36*
X34297Y12840D02*
X34297Y12840D01*
X34297Y12840D01*
X34330Y12818D01*
X34331Y12818D01*
X34331Y12818D01*
X34370Y12810D01*
X36964D01*
X36973Y12799D01*
X36987Y12763D01*
X36423Y12199D01*
X36401Y12165D01*
X36393Y12126D01*
Y11539D01*
X36183Y11329D01*
X36142Y11359D01*
X36212Y11489D01*
X36260Y11647D01*
X36276Y11811D01*
X36260Y11975D01*
X36212Y12133D01*
X36134Y12279D01*
X36029Y12407D01*
X35901Y12512D01*
X35756Y12590D01*
X35597Y12637D01*
X35433Y12654D01*
X35269Y12637D01*
X35111Y12590D01*
X34965Y12512D01*
X34837Y12407D01*
X34732Y12279D01*
X34655Y12133D01*
X34607Y11975D01*
X34590Y11811D01*
X34607Y11647D01*
X34655Y11489D01*
X34732Y11343D01*
X34837Y11215D01*
X34965Y11110D01*
X35111Y11033D01*
X35269Y10985D01*
X35316Y10980D01*
X35313Y10930D01*
X34807D01*
X32730Y13006D01*
X32715Y13016D01*
X32730Y13066D01*
X34071D01*
X34297Y12840D01*
D02*
G37*
G36*
X14213Y11665D02*
X14218Y11634D01*
X14213Y11603D01*
X13540Y10930D01*
X11931D01*
X11928Y10980D01*
X11975Y10985D01*
X12133Y11033D01*
X12279Y11110D01*
X12407Y11215D01*
X12512Y11343D01*
X12590Y11489D01*
X12637Y11647D01*
X12654Y11811D01*
X12637Y11975D01*
X12590Y12133D01*
X12512Y12279D01*
X12407Y12407D01*
X12279Y12512D01*
X12133Y12590D01*
X12090Y12603D01*
X12097Y12653D01*
X13225D01*
X14213Y11665D01*
D02*
G37*
G36*
X12402Y13780D02*
X10630D01*
Y16535D01*
X12402D01*
Y13780D01*
D02*
G37*
G36*
X32075Y17351D02*
X32056Y17305D01*
X31317D01*
Y17065D01*
Y16829D01*
Y16593D01*
Y16356D01*
Y16120D01*
Y15884D01*
Y15871D01*
X30929D01*
X30413Y16387D01*
X30422Y16457D01*
X30412Y16535D01*
X30381Y16609D01*
X30333Y16672D01*
X30270Y16720D01*
X30197Y16750D01*
X30118Y16760D01*
X30040Y16750D01*
X29966Y16720D01*
X29903Y16672D01*
X29855Y16609D01*
X29825Y16535D01*
X29814Y16457D01*
X29825Y16378D01*
X29855Y16305D01*
X29903Y16242D01*
X29966Y16194D01*
X30040Y16163D01*
X30118Y16153D01*
X30197Y16163D01*
X30270Y16194D01*
X30295Y16213D01*
X30813Y15695D01*
X30828Y15685D01*
X30813Y15635D01*
X30732D01*
X30545Y15821D01*
X30512Y15843D01*
X30472Y15851D01*
X30314D01*
X30302Y15880D01*
X30254Y15943D01*
X30191Y15991D01*
X30118Y16022D01*
X30039Y16032D01*
X29961Y16022D01*
X29887Y15991D01*
X29825Y15943D01*
X29776Y15880D01*
X29746Y15807D01*
X29736Y15728D01*
X29746Y15650D01*
X29776Y15576D01*
X29825Y15514D01*
X29887Y15465D01*
X29961Y15435D01*
X30039Y15425D01*
X30118Y15435D01*
X30191Y15465D01*
X30254Y15514D01*
X30302Y15576D01*
X30331Y15645D01*
X30430D01*
X30612Y15463D01*
X30587Y15421D01*
X30585Y15421D01*
X30512Y15451D01*
X30433Y15461D01*
X30354Y15451D01*
X30281Y15421D01*
X30218Y15372D01*
X30170Y15309D01*
X30140Y15236D01*
X30129Y15157D01*
X30140Y15079D01*
X30170Y15006D01*
X30218Y14943D01*
X30281Y14894D01*
X30354Y14864D01*
X30433Y14854D01*
X30512Y14864D01*
X30515Y14865D01*
X30543Y14823D01*
X30430Y14709D01*
X30362D01*
X30342Y14758D01*
X30294Y14821D01*
X30231Y14869D01*
X30157Y14900D01*
X30079Y14910D01*
X30000Y14900D01*
X29927Y14869D01*
X29864Y14821D01*
X29816Y14758D01*
X29785Y14685D01*
X29775Y14606D01*
X29785Y14528D01*
X29816Y14454D01*
X29864Y14391D01*
X29927Y14343D01*
X30000Y14313D01*
X30079Y14303D01*
X30157Y14313D01*
X30231Y14343D01*
X30294Y14391D01*
X30342Y14454D01*
X30362Y14503D01*
X30472D01*
X30512Y14511D01*
X30545Y14533D01*
X30968Y14956D01*
X31317D01*
Y14939D01*
Y14703D01*
Y14467D01*
Y14454D01*
X30531D01*
X30492Y14446D01*
X30475Y14435D01*
X30459Y14423D01*
X29730Y13695D01*
X29719Y13678D01*
X29715Y13672D01*
X29665Y13682D01*
X29665Y13682D01*
Y16916D01*
X29846Y17097D01*
X30426D01*
X30426Y17097D01*
X30462Y17104D01*
X30492Y17124D01*
X30780Y17413D01*
X32014D01*
X32075Y17351D01*
D02*
G37*
G36*
X15872Y24511D02*
Y24275D01*
Y24111D01*
X15888Y24071D01*
X15927Y24055D01*
X17244D01*
X17244Y19468D01*
X18032Y18681D01*
X20394D01*
X20610Y18465D01*
X20787D01*
X20817Y18435D01*
Y16988D01*
X20531D01*
X20512Y16968D01*
X19331D01*
X19311Y16988D01*
X19262D01*
X19261Y17038D01*
X19258Y17042D01*
X19252Y17053D01*
X19252Y17055D01*
Y17312D01*
X19255Y17320D01*
X19253Y17416D01*
X19252Y17419D01*
Y17480D01*
X19242Y17470D01*
X15472D01*
X15394Y17549D01*
Y18543D01*
Y18698D01*
X15377Y18737D01*
X15236Y18878D01*
D01*
X15235Y18881D01*
X15225Y18886D01*
X15217Y18893D01*
X15206Y18893D01*
X15196Y18898D01*
X15079D01*
D01*
X15074Y18900D01*
X15073D01*
Y19080D01*
Y19317D01*
Y19553D01*
Y19789D01*
Y20025D01*
Y20261D01*
Y20497D01*
Y20733D01*
Y20969D01*
Y21206D01*
Y21442D01*
Y21678D01*
Y21914D01*
Y22150D01*
Y22386D01*
Y22622D01*
Y22859D01*
Y23095D01*
Y23331D01*
Y23567D01*
Y23803D01*
Y24039D01*
Y24275D01*
Y24511D01*
Y24724D01*
X15872D01*
Y24511D01*
D02*
G37*
G36*
X21258Y18360D02*
X21252Y18308D01*
X21202Y18298D01*
X21136Y18254D01*
X21092Y18188D01*
X21077Y18110D01*
X21092Y18033D01*
X21136Y17967D01*
X21202Y17923D01*
X21280Y17908D01*
X21302Y17912D01*
X21342Y17872D01*
X21340Y17855D01*
X21298Y17792D01*
X21284Y17718D01*
X21298Y17645D01*
X21340Y17582D01*
X21403Y17540D01*
X21476Y17526D01*
X22185D01*
X22259Y17540D01*
X22321Y17582D01*
X22343Y17615D01*
X22781D01*
X22855Y17541D01*
X22836Y17495D01*
X22584D01*
Y17322D01*
X22343D01*
X22321Y17355D01*
X22259Y17397D01*
X22185Y17411D01*
X21476D01*
X21403Y17397D01*
X21340Y17355D01*
X21318Y17322D01*
X21106D01*
X21067Y17314D01*
X21033Y17291D01*
X21010Y17268D01*
X20987Y17234D01*
X20980Y17195D01*
Y16152D01*
X20981Y16144D01*
X20987Y16112D01*
X21010Y16079D01*
X22102Y14987D01*
Y14492D01*
X21190Y13580D01*
X21046D01*
X21007Y13572D01*
X20973Y13550D01*
X20232Y12809D01*
X20182Y12830D01*
Y13819D01*
X20174Y13858D01*
X20152Y13892D01*
X19667Y14377D01*
X19686Y14423D01*
X21437D01*
X21476Y14439D01*
X21693Y14656D01*
X21698Y14668D01*
X21706Y14677D01*
X21705Y14686D01*
X21709Y14695D01*
X21704Y14707D01*
X21703Y14720D01*
X21431Y15264D01*
X21432Y15276D01*
X21420Y15401D01*
X21383Y15522D01*
X21324Y15634D01*
X21243Y15732D01*
X21146Y15812D01*
X21034Y15871D01*
X20913Y15908D01*
X20787Y15920D01*
X20780Y15927D01*
X20764Y16379D01*
X20754Y16871D01*
X20749Y16883D01*
X20757Y16904D01*
X20779Y16932D01*
X20780Y16933D01*
X20817D01*
X20856Y16949D01*
X20872Y16988D01*
Y18435D01*
X20861Y18463D01*
X20856Y18474D01*
X20854Y18477D01*
X20882Y18519D01*
X21258Y18360D01*
D02*
G37*
G36*
X26275Y18400D02*
Y17776D01*
X26260Y17774D01*
X26187Y17743D01*
X26124Y17695D01*
X26075Y17632D01*
X26045Y17559D01*
X26035Y17480D01*
X26045Y17402D01*
X26075Y17328D01*
X26124Y17266D01*
X26187Y17217D01*
X26260Y17187D01*
X26339Y17177D01*
X26417Y17187D01*
X26490Y17217D01*
X26553Y17266D01*
X26602Y17328D01*
X26632Y17402D01*
X26642Y17480D01*
X26632Y17559D01*
X26602Y17632D01*
X26553Y17695D01*
X26490Y17743D01*
X26481Y17747D01*
Y18401D01*
X26531Y18421D01*
X27555Y17398D01*
X27588Y17375D01*
X27628Y17367D01*
X27667Y17375D01*
X27672Y17378D01*
X29578D01*
X29597Y17332D01*
X29359Y17093D01*
X29337Y17060D01*
X29331Y17030D01*
Y12756D01*
X29328D01*
X28116Y11544D01*
X28094Y11511D01*
X28086Y11471D01*
Y10758D01*
Y10436D01*
X26886Y9237D01*
X26825D01*
X26806Y9283D01*
X27427Y9905D01*
X27683Y10161D01*
X27715Y10167D01*
X27781Y10211D01*
X27825Y10277D01*
X27841Y10354D01*
X27825Y10432D01*
X27781Y10498D01*
X27715Y10542D01*
X27638Y10557D01*
X27560Y10542D01*
X27494Y10498D01*
X27451Y10432D01*
X27435Y10354D01*
X27451Y10277D01*
X27486Y10224D01*
X27297Y10036D01*
X26628Y9367D01*
X20992D01*
X20508Y9850D01*
Y12553D01*
X20866Y12911D01*
Y12913D01*
X20875Y12919D01*
X21200Y13244D01*
X21293D01*
X21293Y13244D01*
X21328Y13251D01*
X21358Y13271D01*
X22965Y14878D01*
X24636D01*
X24670Y14827D01*
X24735Y14783D01*
X24813Y14768D01*
X24891Y14783D01*
X24956Y14827D01*
X25000Y14893D01*
X25016Y14970D01*
X25000Y15048D01*
X24956Y15114D01*
X24891Y15158D01*
X24813Y15173D01*
X24735Y15158D01*
X24670Y15114D01*
X24636Y15063D01*
X22927D01*
X22891Y15056D01*
X22879Y15048D01*
X22861Y15036D01*
X22861Y15036D01*
X22354Y14528D01*
X22308Y14548D01*
Y15030D01*
X22300Y15069D01*
X22291Y15082D01*
X22278Y15102D01*
X21186Y16194D01*
Y17115D01*
X21318D01*
X21340Y17082D01*
X21403Y17040D01*
X21476Y17026D01*
X22185D01*
X22259Y17040D01*
X22321Y17082D01*
X22343Y17115D01*
X22584D01*
Y17042D01*
X23006D01*
Y17324D01*
X23053Y17343D01*
X23135Y17261D01*
X23137Y17254D01*
X23159Y17220D01*
X23192Y17198D01*
X23232Y17190D01*
X24902D01*
X24902D01*
X24902D01*
X24915Y17193D01*
X24941Y17198D01*
X24958Y17209D01*
X24975Y17220D01*
X25486Y17732D01*
X25499Y17751D01*
X25509Y17766D01*
Y17766D01*
X25509Y17766D01*
X25513Y17786D01*
X25517Y17805D01*
Y19093D01*
X25563Y19112D01*
X26275Y18400D01*
D02*
G37*
G36*
X20699Y16870D02*
X20709Y16378D01*
X20728Y15817D01*
X21299Y15404D01*
X21654Y14695D01*
X21437Y14478D01*
X19301D01*
X19321Y16890D01*
X20699Y16870D01*
D02*
G37*
G36*
X38322Y15875D02*
Y14413D01*
X38024Y14115D01*
X37988Y14129D01*
X37977Y14139D01*
Y15651D01*
X37990Y15653D01*
X38098Y15698D01*
X38191Y15769D01*
X38263Y15862D01*
X38272Y15885D01*
X38322Y15875D01*
D02*
G37*
G36*
X32343Y17083D02*
X32328Y17009D01*
X32344Y16931D01*
X32388Y16865D01*
X32454Y16821D01*
X32531Y16806D01*
X32609Y16821D01*
X32627Y16833D01*
X32677Y16807D01*
Y16248D01*
X32300Y15871D01*
X32226D01*
Y15884D01*
Y16120D01*
Y16356D01*
Y16593D01*
Y16829D01*
Y17065D01*
Y17135D01*
X32273Y17154D01*
X32343Y17083D01*
D02*
G37*
G36*
X39792Y15607D02*
X38982Y14797D01*
X38972Y14782D01*
X38922Y14797D01*
Y15609D01*
X38925Y15657D01*
X38972Y15657D01*
X39772D01*
X39792Y15607D01*
D02*
G37*
G36*
X28835Y39118D02*
X27319Y37602D01*
X27296Y37569D01*
X27289Y37530D01*
Y35623D01*
X27229Y35564D01*
X27175Y35581D01*
X27166Y35629D01*
X27122Y35695D01*
X27082Y35721D01*
Y38008D01*
X28242Y39168D01*
X28814D01*
X28835Y39118D01*
D02*
G37*
G36*
X36282Y35701D02*
X36322Y35693D01*
X36385D01*
X36787Y35292D01*
Y33376D01*
X36779Y33372D01*
X36737Y33363D01*
X36687Y33427D01*
X36613Y33484D01*
X36526Y33520D01*
X36433Y33533D01*
X36340Y33520D01*
X36253Y33484D01*
X36179Y33427D01*
X36122Y33353D01*
X36086Y33266D01*
X36074Y33173D01*
X36086Y33080D01*
X36122Y32994D01*
X36179Y32919D01*
X36253Y32862D01*
X36340Y32826D01*
X36433Y32814D01*
X36526Y32826D01*
X36613Y32862D01*
X36687Y32919D01*
X36737Y32983D01*
X36779Y32974D01*
X36787Y32970D01*
Y32376D01*
X36779Y32372D01*
X36737Y32363D01*
X36687Y32427D01*
X36613Y32484D01*
X36526Y32520D01*
X36433Y32533D01*
X36340Y32520D01*
X36253Y32484D01*
X36179Y32427D01*
X36122Y32353D01*
X36086Y32266D01*
X36074Y32173D01*
X36086Y32080D01*
X36122Y31994D01*
X36179Y31919D01*
X36253Y31862D01*
X36340Y31826D01*
X36433Y31814D01*
X36526Y31826D01*
X36613Y31862D01*
X36687Y31919D01*
X36737Y31983D01*
X36779Y31974D01*
X36787Y31971D01*
Y31376D01*
X36779Y31372D01*
X36737Y31363D01*
X36687Y31427D01*
X36613Y31484D01*
X36526Y31520D01*
X36433Y31533D01*
X36340Y31520D01*
X36253Y31484D01*
X36179Y31427D01*
X36122Y31353D01*
X36086Y31266D01*
X36074Y31173D01*
X36086Y31080D01*
X36122Y30994D01*
X36179Y30919D01*
X36253Y30862D01*
X36340Y30826D01*
X36433Y30814D01*
X36526Y30826D01*
X36613Y30862D01*
X36687Y30919D01*
X36737Y30983D01*
X36779Y30974D01*
X36787Y30970D01*
Y30376D01*
X36779Y30372D01*
X36737Y30363D01*
X36687Y30427D01*
X36613Y30484D01*
X36526Y30520D01*
X36433Y30533D01*
X36340Y30520D01*
X36253Y30484D01*
X36179Y30427D01*
X36122Y30353D01*
X36086Y30266D01*
X36074Y30173D01*
X36086Y30080D01*
X36122Y29994D01*
X36179Y29919D01*
X36253Y29862D01*
X36340Y29826D01*
X36433Y29814D01*
X36526Y29826D01*
X36613Y29862D01*
X36687Y29919D01*
X36737Y29983D01*
X36779Y29974D01*
X36787Y29971D01*
Y29376D01*
X36779Y29372D01*
X36737Y29363D01*
X36687Y29427D01*
X36613Y29484D01*
X36526Y29520D01*
X36433Y29533D01*
X36340Y29520D01*
X36253Y29484D01*
X36179Y29427D01*
X36122Y29353D01*
X36086Y29266D01*
X36074Y29173D01*
X36086Y29080D01*
X36122Y28994D01*
X36179Y28919D01*
X36253Y28862D01*
X36340Y28826D01*
X36433Y28814D01*
X36526Y28826D01*
X36613Y28862D01*
X36687Y28919D01*
X36737Y28983D01*
X36779Y28974D01*
X36787Y28970D01*
Y28376D01*
X36779Y28372D01*
X36737Y28363D01*
X36687Y28427D01*
X36613Y28484D01*
X36526Y28520D01*
X36433Y28533D01*
X36340Y28520D01*
X36253Y28484D01*
X36179Y28427D01*
X36122Y28353D01*
X36086Y28266D01*
X36074Y28173D01*
X36086Y28080D01*
X36122Y27994D01*
X36179Y27919D01*
X36253Y27862D01*
X36340Y27826D01*
X36433Y27814D01*
X36526Y27826D01*
X36613Y27862D01*
X36687Y27919D01*
X36737Y27983D01*
X36779Y27974D01*
X36787Y27970D01*
Y27376D01*
X36779Y27372D01*
X36737Y27363D01*
X36687Y27427D01*
X36613Y27484D01*
X36526Y27520D01*
X36433Y27533D01*
X36340Y27520D01*
X36253Y27484D01*
X36179Y27427D01*
X36122Y27353D01*
X36086Y27266D01*
X36074Y27173D01*
X36086Y27080D01*
X36122Y26994D01*
X36179Y26919D01*
X36253Y26862D01*
X36340Y26826D01*
X36433Y26814D01*
X36526Y26826D01*
X36613Y26862D01*
X36687Y26919D01*
X36737Y26983D01*
X36779Y26974D01*
X36787Y26971D01*
Y26376D01*
X36779Y26372D01*
X36737Y26363D01*
X36687Y26427D01*
X36613Y26484D01*
X36526Y26520D01*
X36433Y26533D01*
X36340Y26520D01*
X36253Y26484D01*
X36179Y26427D01*
X36122Y26353D01*
X36086Y26266D01*
X36074Y26173D01*
X36086Y26080D01*
X36122Y25994D01*
X36179Y25919D01*
X36253Y25862D01*
X36340Y25826D01*
X36433Y25814D01*
X36526Y25826D01*
X36613Y25862D01*
X36687Y25919D01*
X36737Y25983D01*
X36779Y25974D01*
X36787Y25970D01*
Y25376D01*
X36779Y25372D01*
X36737Y25363D01*
X36687Y25427D01*
X36613Y25484D01*
X36526Y25520D01*
X36433Y25533D01*
X36340Y25520D01*
X36253Y25484D01*
X36179Y25427D01*
X36122Y25353D01*
X36086Y25266D01*
X36074Y25173D01*
X36086Y25080D01*
X36122Y24994D01*
X36179Y24919D01*
X36253Y24862D01*
X36340Y24826D01*
X36433Y24814D01*
X36526Y24826D01*
X36613Y24862D01*
X36687Y24919D01*
X36737Y24983D01*
X36779Y24974D01*
X36787Y24971D01*
Y24376D01*
X36779Y24372D01*
X36737Y24363D01*
X36687Y24427D01*
X36613Y24484D01*
X36526Y24520D01*
X36433Y24533D01*
X36340Y24520D01*
X36253Y24484D01*
X36179Y24427D01*
X36122Y24353D01*
X36086Y24266D01*
X36074Y24173D01*
X36086Y24080D01*
X36122Y23994D01*
X36179Y23919D01*
X36253Y23862D01*
X36340Y23826D01*
X36433Y23814D01*
X36526Y23826D01*
X36613Y23862D01*
X36687Y23919D01*
X36737Y23983D01*
X36779Y23974D01*
X36787Y23970D01*
Y23376D01*
X36779Y23372D01*
X36737Y23363D01*
X36687Y23427D01*
X36613Y23484D01*
X36526Y23520D01*
X36433Y23533D01*
X36340Y23520D01*
X36253Y23484D01*
X36179Y23427D01*
X36122Y23353D01*
X36086Y23266D01*
X36074Y23173D01*
X36086Y23080D01*
X36122Y22994D01*
X36179Y22919D01*
X36253Y22862D01*
X36340Y22826D01*
X36433Y22814D01*
X36526Y22826D01*
X36613Y22862D01*
X36687Y22919D01*
X36737Y22983D01*
X36779Y22974D01*
X36787Y22970D01*
Y22376D01*
X36779Y22372D01*
X36737Y22363D01*
X36687Y22427D01*
X36613Y22484D01*
X36526Y22520D01*
X36433Y22533D01*
X36340Y22520D01*
X36253Y22484D01*
X36179Y22427D01*
X36122Y22353D01*
X36086Y22266D01*
X36074Y22173D01*
X36086Y22080D01*
X36122Y21994D01*
X36179Y21919D01*
X36253Y21862D01*
X36340Y21826D01*
X36433Y21814D01*
X36526Y21826D01*
X36613Y21862D01*
X36687Y21919D01*
X36737Y21983D01*
X36779Y21974D01*
X36787Y21971D01*
Y21376D01*
X36779Y21372D01*
X36737Y21363D01*
X36687Y21427D01*
X36613Y21484D01*
X36526Y21520D01*
X36433Y21533D01*
X36340Y21520D01*
X36253Y21484D01*
X36179Y21427D01*
X36122Y21353D01*
X36086Y21266D01*
X36074Y21173D01*
X36086Y21080D01*
X36122Y20994D01*
X36179Y20919D01*
X36253Y20862D01*
X36340Y20826D01*
X36433Y20814D01*
X36526Y20826D01*
X36613Y20862D01*
X36664Y20901D01*
X36714Y20877D01*
Y20470D01*
X36664Y20445D01*
X36613Y20484D01*
X36526Y20520D01*
X36433Y20533D01*
X36340Y20520D01*
X36253Y20484D01*
X36179Y20427D01*
X36122Y20353D01*
X36086Y20266D01*
X36074Y20173D01*
X36086Y20080D01*
X36122Y19994D01*
X36179Y19919D01*
X36253Y19862D01*
X36340Y19826D01*
X36433Y19814D01*
X36526Y19826D01*
X36613Y19862D01*
X36664Y19901D01*
X36714Y19877D01*
Y19364D01*
X36722Y19324D01*
X36736Y19303D01*
Y19044D01*
X36722Y19022D01*
X36714Y18983D01*
Y18470D01*
X36664Y18445D01*
X36613Y18484D01*
X36526Y18520D01*
X36433Y18533D01*
X36340Y18520D01*
X36253Y18484D01*
X36179Y18427D01*
X36122Y18353D01*
X36086Y18266D01*
X36074Y18173D01*
X36086Y18080D01*
X36122Y17994D01*
X36179Y17919D01*
X36253Y17862D01*
X36340Y17826D01*
X36433Y17814D01*
X36526Y17826D01*
X36613Y17862D01*
X36664Y17901D01*
X36714Y17877D01*
Y17470D01*
X36664Y17445D01*
X36613Y17484D01*
X36526Y17520D01*
X36433Y17533D01*
X36340Y17520D01*
X36253Y17484D01*
X36179Y17427D01*
X36122Y17353D01*
X36090Y17276D01*
X35991D01*
X35951Y17269D01*
X35918Y17246D01*
X35839Y17167D01*
X35790Y17189D01*
X35780Y17266D01*
X35744Y17353D01*
X35687Y17427D01*
X35613Y17484D01*
X35549Y17511D01*
X35543Y17562D01*
X35988Y18008D01*
X36011Y18041D01*
X36019Y18081D01*
Y34564D01*
X36331Y34876D01*
X36378Y34866D01*
X36456Y34882D01*
X36521Y34926D01*
X36565Y34991D01*
X36581Y35069D01*
X36565Y35146D01*
X36521Y35212D01*
X36456Y35256D01*
X36378Y35272D01*
X36307Y35258D01*
X36304Y35258D01*
X36282Y35272D01*
X36262Y35290D01*
X36276Y35433D01*
X36260Y35597D01*
X36237Y35671D01*
X36280Y35702D01*
X36282Y35701D01*
D02*
G37*
G36*
X30880Y38663D02*
X29048Y36832D01*
X28998Y36852D01*
Y37025D01*
Y37261D01*
Y37497D01*
Y37737D01*
X28089D01*
Y37497D01*
Y37261D01*
Y37025D01*
Y36789D01*
Y36553D01*
Y36317D01*
Y36081D01*
Y35844D01*
Y35608D01*
Y35372D01*
Y35136D01*
Y34900D01*
Y34664D01*
Y34428D01*
Y34192D01*
Y33955D01*
Y33719D01*
Y33483D01*
Y33247D01*
Y33011D01*
Y32775D01*
Y32539D01*
Y32303D01*
Y32066D01*
Y31830D01*
Y31594D01*
Y31358D01*
Y31122D01*
Y30886D01*
Y30650D01*
Y30414D01*
Y30177D01*
Y29941D01*
Y29706D01*
Y29470D01*
Y29234D01*
Y28998D01*
Y28762D01*
Y28525D01*
Y28289D01*
Y28053D01*
Y27817D01*
Y27581D01*
Y27345D01*
Y27109D01*
Y26873D01*
Y26636D01*
Y26400D01*
Y26164D01*
Y25928D01*
Y25692D01*
Y25464D01*
X28072Y25446D01*
X28041Y25429D01*
X24621D01*
X24613Y25436D01*
X24632Y25486D01*
X24861D01*
X24900Y25494D01*
X24934Y25516D01*
X27996Y28578D01*
X28019Y28612D01*
X28026Y28651D01*
Y37772D01*
X28964Y38709D01*
X30860D01*
X30880Y38663D01*
D02*
G37*
G36*
X24461Y42843D02*
X25299Y42789D01*
X26133Y42697D01*
X26963Y42569D01*
X27786Y42406D01*
X28602Y42206D01*
X29408Y41971D01*
X30202Y41701D01*
X30985Y41397D01*
X31753Y41059D01*
X32506Y40688D01*
X33242Y40284D01*
X33960Y39849D01*
X34658Y39382D01*
X35334Y38886D01*
X35989Y38361D01*
X36620Y37807D01*
X37227Y37227D01*
X37807Y36620D01*
X38361Y35989D01*
X38886Y35334D01*
X39382Y34658D01*
X39849Y33960D01*
X40284Y33242D01*
X40688Y32506D01*
X41059Y31753D01*
X41397Y30985D01*
X41701Y30202D01*
X41971Y29408D01*
X42206Y28602D01*
X42406Y27786D01*
X42569Y26963D01*
X42697Y26133D01*
X42789Y25299D01*
X42843Y24461D01*
X42862Y23630D01*
X42860Y23622D01*
X42862Y23614D01*
X42843Y22783D01*
X42789Y21945D01*
X42697Y21111D01*
X42569Y20281D01*
X42406Y19458D01*
X42206Y18642D01*
X41971Y17837D01*
X41701Y17042D01*
X41397Y16259D01*
X41059Y15491D01*
X40688Y14738D01*
X40284Y14002D01*
X39849Y13285D01*
X39382Y12587D01*
X38886Y11910D01*
X38361Y11255D01*
X37807Y10624D01*
X37227Y10017D01*
X36620Y9437D01*
X35989Y8884D01*
X35334Y8358D01*
X34658Y7862D01*
X33960Y7395D01*
X33242Y6960D01*
X32506Y6556D01*
X31753Y6185D01*
X30985Y5847D01*
X30202Y5543D01*
X29661Y5359D01*
X29620Y5388D01*
Y8012D01*
X29622D01*
X29606Y8209D01*
X29560Y8402D01*
X29484Y8585D01*
X29381Y8753D01*
X29252Y8904D01*
X29252Y8903D01*
X29181Y8958D01*
X29098Y8992D01*
X29009Y9004D01*
Y9003D01*
X27005D01*
X26990Y9053D01*
X27002Y9061D01*
X28262Y10321D01*
X28284Y10354D01*
X28292Y10394D01*
Y10758D01*
Y11428D01*
X28533Y11669D01*
X28579Y11650D01*
Y10532D01*
X28528Y10498D01*
X28484Y10432D01*
X28469Y10354D01*
X28484Y10277D01*
X28528Y10211D01*
X28594Y10167D01*
X28671Y10152D01*
X28749Y10167D01*
X28815Y10211D01*
X28859Y10277D01*
X28874Y10354D01*
X28859Y10432D01*
X28815Y10498D01*
X28764Y10532D01*
Y11716D01*
X29638Y12590D01*
X29638Y12590D01*
X29650Y12608D01*
X29658Y12620D01*
X29659Y12627D01*
X29692Y12634D01*
X29711Y12633D01*
X29730Y12604D01*
X32880Y9455D01*
X32913Y9432D01*
X32953Y9424D01*
X36181D01*
X36221Y9432D01*
X36254Y9455D01*
X37750Y10951D01*
X37772Y10984D01*
X37780Y11024D01*
Y11650D01*
X39837Y13707D01*
X39859Y13740D01*
X39867Y13780D01*
Y13780D01*
Y14445D01*
X40821Y15399D01*
X40843Y15433D01*
X40851Y15472D01*
Y27795D01*
Y27795D01*
X40843Y27835D01*
X40821Y27868D01*
X39871Y28818D01*
Y29465D01*
X38869D01*
Y28763D01*
X39635D01*
X40645Y27753D01*
Y25919D01*
X40595Y25904D01*
X40585Y25919D01*
X39902Y26602D01*
X39871Y26637D01*
X39871D01*
X39871Y26637D01*
Y27339D01*
X38869D01*
Y26637D01*
X39575D01*
X40409Y25803D01*
Y24029D01*
X40359Y24014D01*
X40349Y24029D01*
X39902Y24476D01*
X39871Y24511D01*
X39871D01*
X39871Y24511D01*
Y25213D01*
X38869D01*
Y24511D01*
X39575D01*
X40172Y23914D01*
Y22150D01*
X40122Y22129D01*
X39902Y22350D01*
X39871Y22385D01*
X39871D01*
X39871Y22385D01*
Y23087D01*
X38869D01*
Y22385D01*
X39575D01*
X39976Y21985D01*
Y15791D01*
X39865Y15680D01*
X39815Y15701D01*
Y16547D01*
X38972D01*
X38925Y16547D01*
X38922Y16596D01*
Y16891D01*
X38972Y16901D01*
X38981Y16878D01*
X39053Y16785D01*
X39146Y16714D01*
X39254Y16669D01*
X39370Y16654D01*
X39486Y16669D01*
X39594Y16714D01*
X39687Y16785D01*
X39759Y16878D01*
X39804Y16986D01*
X39819Y17102D01*
X39804Y17219D01*
X39759Y17327D01*
X39687Y17420D01*
X39594Y17491D01*
X39486Y17536D01*
X39370Y17551D01*
X39254Y17536D01*
X39146Y17491D01*
X39053Y17420D01*
X38981Y17327D01*
X38972Y17304D01*
X38922Y17314D01*
Y17814D01*
X38925Y17862D01*
X38972Y17862D01*
X39815D01*
Y18752D01*
X38925D01*
Y18732D01*
X38875Y18712D01*
X38319Y19268D01*
Y20012D01*
X37429D01*
Y19122D01*
X38173D01*
X38716Y18579D01*
Y17942D01*
X38666Y17921D01*
X38255Y18332D01*
X38263Y18343D01*
X38307Y18451D01*
X38323Y18567D01*
X38307Y18683D01*
X38263Y18791D01*
X38191Y18884D01*
X38098Y18956D01*
X37990Y19000D01*
X37874Y19016D01*
X37758Y19000D01*
X37650Y18956D01*
X37557Y18884D01*
X37485Y18791D01*
X37441Y18683D01*
X37425Y18567D01*
X37441Y18451D01*
X37485Y18343D01*
X37557Y18250D01*
X37650Y18178D01*
X37758Y18133D01*
X37874Y18118D01*
X37990Y18133D01*
X38098Y18178D01*
X38109Y18186D01*
X38519Y17776D01*
Y16658D01*
X38469Y16638D01*
X38319Y16788D01*
Y17531D01*
X37429D01*
Y16642D01*
X38173D01*
X38322Y16493D01*
Y16298D01*
X38272Y16288D01*
X38263Y16311D01*
X38191Y16404D01*
X38098Y16475D01*
X37990Y16520D01*
X37874Y16535D01*
X37758Y16520D01*
X37650Y16475D01*
X37557Y16404D01*
X37485Y16311D01*
X37441Y16203D01*
X37425Y16087D01*
X37441Y15970D01*
X37485Y15862D01*
X37557Y15769D01*
X37650Y15698D01*
X37758Y15653D01*
X37771Y15651D01*
Y14177D01*
X37316Y13722D01*
X37280Y13736D01*
X37269Y13745D01*
Y20312D01*
X37575Y20618D01*
X38319D01*
Y21508D01*
X37530D01*
X37511Y21554D01*
X37639Y21682D01*
X37650Y21674D01*
X37758Y21630D01*
X37874Y21614D01*
X37990Y21630D01*
X38098Y21674D01*
X38191Y21746D01*
X38263Y21839D01*
X38307Y21947D01*
X38323Y22063D01*
X38307Y22179D01*
X38263Y22287D01*
X38191Y22380D01*
X38098Y22452D01*
X37990Y22496D01*
X37874Y22512D01*
X37758Y22496D01*
X37650Y22452D01*
X37557Y22380D01*
X37485Y22287D01*
X37441Y22179D01*
X37425Y22063D01*
X37441Y21947D01*
X37485Y21839D01*
X37493Y21828D01*
X37039Y21374D01*
X36993Y21393D01*
Y35335D01*
X36985Y35374D01*
X36963Y35408D01*
X36774Y35596D01*
X36799Y35642D01*
X36841Y35634D01*
X36918Y35649D01*
X36984Y35693D01*
X37028Y35759D01*
X37043Y35837D01*
X37028Y35914D01*
X36984Y35980D01*
X36918Y36024D01*
X36841Y36039D01*
X36793Y36030D01*
X35270Y37553D01*
Y37835D01*
X35263Y37874D01*
X35254Y37888D01*
X35240Y37908D01*
X33803Y39345D01*
X33770Y39367D01*
X33730Y39375D01*
X28199D01*
X28159Y39367D01*
X28126Y39345D01*
X26946Y38165D01*
X26896Y38185D01*
Y42165D01*
X26880Y42205D01*
X26841Y42221D01*
X23789D01*
X23750Y42205D01*
X23731Y42185D01*
X23714Y42146D01*
Y39541D01*
X20679Y36506D01*
X20663Y36467D01*
Y32746D01*
X20679Y32707D01*
X20719Y32691D01*
X23720D01*
X23760Y32707D01*
X26807Y35754D01*
X26858Y35735D01*
X26860Y35711D01*
X26835Y35695D01*
X26791Y35629D01*
X26776Y35551D01*
X26791Y35474D01*
X26835Y35408D01*
X26901Y35364D01*
X26949Y35354D01*
X26965Y35300D01*
X26750Y35085D01*
X26703Y35094D01*
X26625Y35079D01*
X26559Y35035D01*
X26515Y34969D01*
X26500Y34892D01*
X26515Y34814D01*
X26559Y34748D01*
X26625Y34704D01*
X26703Y34689D01*
X26780Y34704D01*
X26846Y34748D01*
X26890Y34814D01*
X26905Y34892D01*
X26896Y34939D01*
X27465Y35508D01*
Y35508D01*
X27465D01*
X27472Y35519D01*
X27487Y35541D01*
X27495Y35581D01*
Y35581D01*
Y37487D01*
X27774Y37766D01*
X27820Y37747D01*
Y28694D01*
X25101Y25975D01*
X25051Y25996D01*
Y26439D01*
X24926D01*
Y26858D01*
X25061D01*
Y27354D01*
X24926D01*
Y27705D01*
X25032D01*
Y28201D01*
X24926D01*
Y28561D01*
X25032D01*
Y29057D01*
X24906D01*
Y29407D01*
X25051D01*
Y29904D01*
X24926D01*
Y30264D01*
X25061D01*
Y30409D01*
X26230D01*
X26270Y30417D01*
X26303Y30439D01*
X27016Y31152D01*
X27062Y31132D01*
Y30200D01*
X27022Y30173D01*
X26978Y30107D01*
X26963Y30030D01*
X26978Y29952D01*
X27022Y29886D01*
X27088Y29842D01*
X27165Y29827D01*
X27243Y29842D01*
X27309Y29886D01*
X27353Y29952D01*
X27368Y30030D01*
X27353Y30107D01*
X27309Y30173D01*
X27269Y30200D01*
Y31248D01*
X27443D01*
Y31744D01*
X27112D01*
X26421Y32435D01*
X26388Y32458D01*
X26348Y32465D01*
X25367D01*
X25340Y32506D01*
X25274Y32549D01*
X25197Y32565D01*
X25119Y32549D01*
X25054Y32506D01*
X25010Y32440D01*
X24994Y32362D01*
X25010Y32285D01*
X25054Y32219D01*
X25119Y32175D01*
X25197Y32159D01*
X25274Y32175D01*
X25340Y32219D01*
X25367Y32259D01*
X26306D01*
X26986Y31579D01*
Y31414D01*
X26188Y30615D01*
X25061D01*
Y30760D01*
X24936D01*
Y31189D01*
X25061D01*
Y31685D01*
X24604D01*
Y31189D01*
X24730D01*
Y30760D01*
X24604D01*
Y30264D01*
X24720D01*
Y29904D01*
X24594D01*
Y29407D01*
X24700D01*
Y29057D01*
X24575D01*
Y28561D01*
X24720D01*
Y28201D01*
X24575D01*
Y27705D01*
X24720D01*
Y27354D01*
X24604D01*
Y26858D01*
X24720D01*
Y26439D01*
X24594D01*
Y25943D01*
X24998D01*
X25019Y25893D01*
X24818Y25692D01*
X23901D01*
X23861Y25684D01*
X23828Y25662D01*
X23696Y25530D01*
X23650Y25550D01*
Y27406D01*
X23732Y27488D01*
X23755Y27522D01*
X23763Y27561D01*
Y30707D01*
X23818Y30718D01*
X23884Y30762D01*
X23927Y30828D01*
X23943Y30906D01*
X23927Y30983D01*
X23884Y31049D01*
X23818Y31093D01*
X23740Y31108D01*
X23663Y31093D01*
X23597Y31049D01*
X23553Y30983D01*
X23537Y30906D01*
X23553Y30828D01*
X23556Y30823D01*
Y27664D01*
X22343D01*
X22321Y27697D01*
X22259Y27739D01*
X22185Y27754D01*
X21476D01*
X21403Y27739D01*
X21340Y27697D01*
X21320Y27668D01*
X21270Y27683D01*
Y28366D01*
X21263Y28406D01*
X21240Y28439D01*
X21183Y28496D01*
Y29080D01*
X21187Y29086D01*
X21195Y29126D01*
Y29238D01*
X22581Y30624D01*
X22628Y30614D01*
X22706Y30630D01*
X22771Y30674D01*
X22815Y30739D01*
X22831Y30817D01*
X22815Y30894D01*
X22771Y30960D01*
X22706Y31004D01*
X22628Y31020D01*
X22550Y31004D01*
X22485Y30960D01*
X22441Y30894D01*
X22425Y30817D01*
X22435Y30770D01*
X21019Y29354D01*
X20996Y29320D01*
X20989Y29281D01*
Y29281D01*
Y29159D01*
X20985Y29154D01*
X20977Y29114D01*
Y28454D01*
X20985Y28414D01*
X21007Y28381D01*
X21064Y28324D01*
Y27061D01*
X21072Y27022D01*
X21094Y26988D01*
X21128Y26966D01*
X21167Y26958D01*
X21318D01*
X21340Y26925D01*
X21403Y26883D01*
X21476Y26868D01*
X22185D01*
X22259Y26883D01*
X22321Y26925D01*
X22343Y26958D01*
X22584D01*
Y26885D01*
X23006D01*
Y27337D01*
X22584D01*
Y27164D01*
X22343D01*
X22321Y27197D01*
X22259Y27239D01*
X22185Y27254D01*
X21476D01*
X21403Y27239D01*
X21340Y27197D01*
X21318Y27164D01*
X21270D01*
Y27439D01*
X21320Y27454D01*
X21340Y27425D01*
X21403Y27383D01*
X21476Y27368D01*
X22185D01*
X22259Y27383D01*
X22321Y27425D01*
X22343Y27458D01*
X23436D01*
X23444Y27448D01*
Y22328D01*
X21539D01*
X21256Y22610D01*
X21266Y22657D01*
X21250Y22735D01*
X21206Y22801D01*
X21141Y22845D01*
X21063Y22860D01*
X21016Y22851D01*
X19752Y24114D01*
X19719Y24136D01*
X19679Y24144D01*
X19155D01*
Y24157D01*
Y24393D01*
Y24629D01*
Y24865D01*
Y25102D01*
Y25338D01*
Y25574D01*
Y25810D01*
Y26046D01*
Y26282D01*
Y26518D01*
Y26754D01*
Y26765D01*
X19312D01*
X19345Y26715D01*
X19344Y26713D01*
Y25541D01*
X19348Y25533D01*
X19347Y25524D01*
X19355Y25514D01*
X19360Y25502D01*
X19369Y25499D01*
X19375Y25492D01*
X19414Y25472D01*
X19420Y25472D01*
X19426Y25468D01*
X19465Y25458D01*
X19471Y25459D01*
X19477Y25456D01*
X19826Y25446D01*
X19838Y25396D01*
X19750Y25349D01*
X19652Y25269D01*
X19572Y25171D01*
X19513Y25060D01*
X19476Y24939D01*
X19463Y24813D01*
X19476Y24687D01*
X19513Y24566D01*
X19572Y24455D01*
X19652Y24357D01*
X19750Y24277D01*
X19861Y24217D01*
X19982Y24181D01*
X20108Y24168D01*
X20234Y24181D01*
X20355Y24217D01*
X20467Y24277D01*
X20564Y24357D01*
X20644Y24455D01*
X20704Y24566D01*
X20722Y24627D01*
X20774Y24626D01*
X20783Y24592D01*
X20792Y24581D01*
X20797Y24567D01*
X21349Y24016D01*
X21388Y24000D01*
X21412Y24010D01*
X22569D01*
X22608Y24026D01*
X22624Y24065D01*
Y25571D01*
X22608Y25610D01*
X22323Y25895D01*
X22303Y25903D01*
X22284Y25912D01*
X21099Y25921D01*
Y26014D01*
X21097Y26017D01*
X21098Y26021D01*
X21010Y26720D01*
X21001Y26735D01*
X20994Y26752D01*
X20990Y26753D01*
X20989Y26756D01*
X20971Y26761D01*
X20955Y26768D01*
X20511D01*
X20477Y26818D01*
X20479Y26821D01*
Y29291D01*
X20462Y29331D01*
X20423Y29347D01*
X19155D01*
Y29352D01*
Y29588D01*
Y29824D01*
Y30064D01*
X18246D01*
Y29824D01*
Y29588D01*
Y29352D01*
Y29116D01*
Y28879D01*
Y28643D01*
Y28407D01*
Y28171D01*
Y27935D01*
Y27699D01*
Y27463D01*
Y27227D01*
Y26990D01*
Y26754D01*
Y26518D01*
Y26282D01*
Y26046D01*
Y25810D01*
Y25574D01*
Y25338D01*
Y25102D01*
Y24865D01*
Y24629D01*
Y24393D01*
Y24157D01*
Y24144D01*
X17695D01*
X16426Y25413D01*
X16393Y25435D01*
X16353Y25443D01*
X15927D01*
Y25456D01*
Y25692D01*
Y25928D01*
Y26164D01*
Y26400D01*
Y26636D01*
Y26873D01*
Y27109D01*
Y27345D01*
Y27581D01*
Y27817D01*
Y28053D01*
Y28262D01*
X18061D01*
X18100Y28278D01*
X18116Y28317D01*
Y33189D01*
X18100Y33228D01*
X18061Y33244D01*
X15927D01*
Y33247D01*
Y33483D01*
Y33719D01*
Y33955D01*
Y34192D01*
Y34428D01*
Y34664D01*
Y34900D01*
Y35136D01*
Y35372D01*
Y35608D01*
Y35844D01*
Y36081D01*
Y36317D01*
Y36553D01*
Y36789D01*
Y37025D01*
Y37261D01*
Y37497D01*
Y37737D01*
X15018D01*
Y37497D01*
Y37261D01*
Y37025D01*
Y36789D01*
Y36776D01*
X14118D01*
X13380Y37514D01*
X13363Y37525D01*
X13347Y37536D01*
X13347D01*
X13347Y37536D01*
X13317Y37542D01*
X13307Y37544D01*
X12685D01*
X12665Y37593D01*
X12616Y37656D01*
X12553Y37704D01*
X12480Y37734D01*
X12402Y37745D01*
X12323Y37734D01*
X12250Y37704D01*
X12187Y37656D01*
X12139Y37593D01*
X12108Y37520D01*
X12098Y37441D01*
X12108Y37362D01*
X12139Y37289D01*
X12187Y37226D01*
X12250Y37178D01*
X12323Y37148D01*
X12402Y37137D01*
X12480Y37148D01*
X12553Y37178D01*
X12616Y37226D01*
X12665Y37289D01*
X12685Y37338D01*
X12910D01*
X12920Y37288D01*
X12880Y37271D01*
X12817Y37223D01*
X12768Y37160D01*
X12738Y37087D01*
X12728Y37008D01*
X12738Y36929D01*
X12768Y36856D01*
X12817Y36793D01*
X12880Y36745D01*
X12953Y36714D01*
X13032Y36704D01*
X13110Y36714D01*
X13159Y36735D01*
X13530Y36364D01*
X13518Y36312D01*
X13512Y36304D01*
X13366D01*
X13335Y36339D01*
X13325Y36417D01*
X13295Y36490D01*
X13246Y36553D01*
X13183Y36602D01*
X13110Y36632D01*
X13032Y36642D01*
X12953Y36632D01*
X12880Y36602D01*
X12817Y36553D01*
X12768Y36490D01*
X12738Y36417D01*
X12728Y36339D01*
X12738Y36260D01*
X12768Y36187D01*
X12817Y36124D01*
X12880Y36075D01*
X12953Y36045D01*
X13032Y36035D01*
X13110Y36045D01*
X13183Y36075D01*
X13207Y36094D01*
X13242Y36089D01*
X13254Y36038D01*
X13254Y36037D01*
X13159Y35943D01*
X13110Y35963D01*
X13032Y35973D01*
X12953Y35963D01*
X12880Y35932D01*
X12817Y35884D01*
X12768Y35821D01*
X12738Y35748D01*
X12728Y35669D01*
X12738Y35591D01*
X12768Y35517D01*
X12817Y35454D01*
X12880Y35406D01*
X12953Y35376D01*
X13032Y35366D01*
X13110Y35376D01*
X13183Y35406D01*
X13246Y35454D01*
X13295Y35517D01*
X13325Y35591D01*
X13335Y35669D01*
X13325Y35748D01*
X13305Y35797D01*
X13369Y35861D01*
X15018D01*
Y35844D01*
Y35608D01*
Y35372D01*
Y35136D01*
Y34900D01*
Y34664D01*
Y34428D01*
Y34192D01*
Y33955D01*
Y33719D01*
Y33483D01*
Y33247D01*
Y33011D01*
Y32775D01*
Y32539D01*
Y32303D01*
Y32066D01*
Y31830D01*
Y31594D01*
Y31358D01*
Y31122D01*
Y30886D01*
Y30650D01*
Y30414D01*
Y30177D01*
Y30015D01*
X14806D01*
X14779Y30055D01*
X14713Y30099D01*
X14636Y30114D01*
X14558Y30099D01*
X14492Y30055D01*
X14449Y29989D01*
X14433Y29911D01*
X14449Y29834D01*
X14492Y29768D01*
X14558Y29724D01*
X14636Y29709D01*
X14713Y29724D01*
X14779Y29768D01*
X14806Y29808D01*
X15018D01*
Y29706D01*
Y29470D01*
Y29234D01*
Y28998D01*
Y28762D01*
Y28525D01*
Y28289D01*
Y28053D01*
Y27817D01*
Y27581D01*
Y27345D01*
Y27109D01*
Y26873D01*
Y26636D01*
Y26400D01*
Y26164D01*
Y25928D01*
Y25692D01*
Y25456D01*
Y25443D01*
X14867D01*
X14867Y25443D01*
X14867Y25443D01*
X14846Y25439D01*
X14828Y25435D01*
X14828Y25435D01*
X14828Y25435D01*
X14811Y25424D01*
X14794Y25413D01*
X14794Y25413D01*
X14794Y25413D01*
X14228Y24847D01*
X14219Y24833D01*
X14206Y24813D01*
X14206Y24813D01*
X14206Y24813D01*
X14203Y24797D01*
X14198Y24774D01*
Y20494D01*
X12193Y18489D01*
X12117Y18520D01*
X12024Y18533D01*
X11931Y18520D01*
X11844Y18484D01*
X11769Y18427D01*
X11712Y18353D01*
X11681Y18276D01*
X11367D01*
X11335Y18353D01*
X11278Y18427D01*
X11203Y18484D01*
X11117Y18520D01*
X11024Y18533D01*
X10931Y18520D01*
X10844Y18484D01*
X10769Y18427D01*
X10712Y18353D01*
X10676Y18266D01*
X10664Y18173D01*
X10676Y18080D01*
X10712Y17994D01*
X10769Y17919D01*
X10844Y17862D01*
X10931Y17826D01*
X11024Y17814D01*
X11117Y17826D01*
X11203Y17862D01*
X11278Y17919D01*
X11335Y17994D01*
X11367Y18070D01*
X11681D01*
X11712Y17994D01*
X11769Y17919D01*
X11844Y17862D01*
X11920Y17830D01*
Y17516D01*
X11844Y17484D01*
X11769Y17427D01*
X11712Y17353D01*
X11681Y17276D01*
X11367D01*
X11335Y17353D01*
X11278Y17427D01*
X11203Y17484D01*
X11117Y17520D01*
X11024Y17533D01*
X10931Y17520D01*
X10844Y17484D01*
X10769Y17427D01*
X10712Y17353D01*
X10676Y17266D01*
X10664Y17173D01*
X10676Y17080D01*
X10712Y16994D01*
X10769Y16919D01*
X10844Y16862D01*
X10931Y16826D01*
X11024Y16814D01*
X11117Y16826D01*
X11203Y16862D01*
X11278Y16919D01*
X11335Y16994D01*
X11367Y17070D01*
X11681D01*
X11712Y16994D01*
X11769Y16919D01*
X11844Y16862D01*
X11931Y16826D01*
X12024Y16814D01*
X12117Y16826D01*
X12203Y16862D01*
X12278Y16919D01*
X12335Y16994D01*
X12371Y17080D01*
X12383Y17173D01*
X12371Y17266D01*
X12335Y17353D01*
X12278Y17427D01*
X12203Y17484D01*
X12127Y17516D01*
Y17830D01*
X12203Y17862D01*
X12278Y17919D01*
X12335Y17994D01*
X12371Y18080D01*
X12383Y18173D01*
X12371Y18266D01*
X12339Y18343D01*
X14374Y20378D01*
X14388Y20398D01*
X14396Y20411D01*
X14404Y20451D01*
Y24731D01*
X14910Y25237D01*
X15018D01*
Y25220D01*
Y24984D01*
Y24747D01*
Y24724D01*
Y24511D01*
Y24275D01*
Y24039D01*
Y23803D01*
Y23567D01*
Y23331D01*
Y23095D01*
Y22859D01*
Y22622D01*
Y22386D01*
Y22150D01*
Y21914D01*
Y21678D01*
Y21442D01*
Y21206D01*
Y20969D01*
Y20737D01*
Y20497D01*
Y20265D01*
Y20025D01*
Y19789D01*
Y19553D01*
Y19317D01*
Y19080D01*
Y18900D01*
Y18844D01*
X15074D01*
X15079Y18842D01*
X15196D01*
X15196Y18842D01*
X15197Y18839D01*
X15331Y18705D01*
X15338Y18687D01*
Y18543D01*
Y17549D01*
X15355Y17510D01*
X15433Y17431D01*
X15472Y17415D01*
X19198D01*
X19200Y17320D01*
X19155Y17305D01*
X19155D01*
X19155Y17305D01*
X19155Y17305D01*
X18246D01*
Y17065D01*
Y16829D01*
Y16593D01*
Y16356D01*
Y16120D01*
Y15884D01*
Y15648D01*
Y15411D01*
Y15175D01*
Y14957D01*
X18209Y14926D01*
X18169Y14918D01*
X18136Y14896D01*
X17250Y14010D01*
X17239Y13993D01*
X17228Y13976D01*
Y13976D01*
X17228Y13976D01*
X17222Y13947D01*
X17220Y13937D01*
Y13429D01*
X16414Y12623D01*
X14728D01*
X13734Y13616D01*
X13701Y13639D01*
X13661Y13646D01*
X10633D01*
X10595Y13684D01*
X10624Y13727D01*
X10630Y13724D01*
X12402D01*
X12441Y13740D01*
X12457Y13780D01*
Y16535D01*
X12441Y16575D01*
X12402Y16591D01*
X10630D01*
X10591Y16575D01*
X10575Y16535D01*
Y13780D01*
X10577Y13773D01*
X10535Y13745D01*
X10497Y13783D01*
Y21157D01*
X10489Y21197D01*
X10467Y21230D01*
X9869Y21828D01*
X9877Y21839D01*
X9922Y21947D01*
X9937Y22063D01*
X9922Y22179D01*
X9877Y22287D01*
X9805Y22380D01*
X9713Y22452D01*
X9604Y22496D01*
X9488Y22512D01*
X9372Y22496D01*
X9264Y22452D01*
X9171Y22380D01*
X9100Y22287D01*
X9055Y22179D01*
X9039Y22063D01*
X9055Y21947D01*
X9100Y21839D01*
X9171Y21746D01*
X9264Y21674D01*
X9372Y21630D01*
X9488Y21614D01*
X9604Y21630D01*
X9713Y21674D01*
X9723Y21682D01*
X9851Y21554D01*
X9832Y21508D01*
X9043D01*
Y20618D01*
X9787D01*
X10094Y20312D01*
Y15698D01*
X10044Y15677D01*
X9829Y15891D01*
X9837Y15902D01*
X9882Y16010D01*
X9898Y16126D01*
X9882Y16242D01*
X9837Y16350D01*
X9766Y16443D01*
X9673Y16515D01*
X9565Y16559D01*
X9449Y16575D01*
X9333Y16559D01*
X9224Y16515D01*
X9132Y16443D01*
X9060Y16350D01*
X9015Y16242D01*
X9011Y16212D01*
X8961Y16215D01*
Y16493D01*
X9150Y16681D01*
X9894D01*
Y17571D01*
X9004D01*
Y16827D01*
X8815Y16638D01*
X8765Y16658D01*
Y17776D01*
X9214Y18226D01*
X9224Y18218D01*
X9333Y18173D01*
X9449Y18158D01*
X9565Y18173D01*
X9673Y18218D01*
X9766Y18289D01*
X9837Y18382D01*
X9882Y18490D01*
X9898Y18606D01*
X9882Y18722D01*
X9837Y18831D01*
X9766Y18924D01*
X9673Y18995D01*
X9565Y19040D01*
X9449Y19055D01*
X9333Y19040D01*
X9224Y18995D01*
X9132Y18924D01*
X9060Y18831D01*
X9015Y18722D01*
X9000Y18606D01*
X9015Y18490D01*
X9060Y18382D01*
X9068Y18372D01*
X8618Y17921D01*
X8568Y17942D01*
Y18579D01*
X9150Y19161D01*
X9894D01*
Y20051D01*
X9004D01*
Y19307D01*
X8392Y18695D01*
X8369Y18662D01*
X8361Y18622D01*
Y15433D01*
X8369Y15394D01*
X8392Y15360D01*
X9188Y14564D01*
Y13949D01*
X9180Y13943D01*
X9128Y13931D01*
X7412Y15647D01*
X7433Y15697D01*
X8280D01*
Y16587D01*
X7397D01*
X7390Y16587D01*
X7347Y16605D01*
Y17052D01*
X7397Y17056D01*
X7401Y17026D01*
X7446Y16917D01*
X7517Y16824D01*
X7610Y16753D01*
X7718Y16708D01*
X7835Y16693D01*
X7951Y16708D01*
X8059Y16753D01*
X8152Y16824D01*
X8223Y16917D01*
X8268Y17026D01*
X8283Y17142D01*
X8268Y17258D01*
X8223Y17366D01*
X8152Y17459D01*
X8059Y17530D01*
X7951Y17575D01*
X7835Y17590D01*
X7718Y17575D01*
X7610Y17530D01*
X7517Y17459D01*
X7446Y17366D01*
X7401Y17258D01*
X7397Y17228D01*
X7347Y17231D01*
Y17883D01*
X7390Y17902D01*
X7397Y17902D01*
X8280D01*
Y18791D01*
X7397D01*
X7390Y18791D01*
X7347Y18809D01*
Y19257D01*
X7397Y19260D01*
X7401Y19230D01*
X7446Y19122D01*
X7517Y19029D01*
X7610Y18958D01*
X7718Y18913D01*
X7835Y18898D01*
X7951Y18913D01*
X8059Y18958D01*
X8152Y19029D01*
X8223Y19122D01*
X8268Y19230D01*
X8283Y19346D01*
X8268Y19463D01*
X8223Y19571D01*
X8152Y19664D01*
X8059Y19735D01*
X7951Y19780D01*
X7835Y19795D01*
X7718Y19780D01*
X7610Y19735D01*
X7517Y19664D01*
X7446Y19571D01*
X7401Y19463D01*
X7397Y19433D01*
X7347Y19436D01*
Y20088D01*
X7390Y20106D01*
X7397Y20106D01*
X8280D01*
Y20996D01*
X7397D01*
X7390Y20996D01*
X7347Y21014D01*
Y21462D01*
X7397Y21465D01*
X7401Y21435D01*
X7446Y21327D01*
X7517Y21234D01*
X7610Y21163D01*
X7718Y21118D01*
X7835Y21102D01*
X7951Y21118D01*
X8059Y21163D01*
X8152Y21234D01*
X8223Y21327D01*
X8268Y21435D01*
X8283Y21551D01*
X8268Y21667D01*
X8223Y21776D01*
X8152Y21868D01*
X8059Y21940D01*
X7951Y21985D01*
X7835Y22000D01*
X7718Y21985D01*
X7610Y21940D01*
X7517Y21868D01*
X7446Y21776D01*
X7401Y21667D01*
X7397Y21637D01*
X7347Y21641D01*
Y22142D01*
X7629Y22424D01*
X8336D01*
Y23126D01*
X7333D01*
Y22424D01*
X7333Y22424D01*
X7333D01*
X7302Y22389D01*
X7171Y22258D01*
X7161Y22243D01*
X7158Y22242D01*
X7111Y22258D01*
Y24032D01*
X7629Y24550D01*
X8336D01*
Y25252D01*
X7333D01*
Y24550D01*
X7333Y24550D01*
X7333D01*
X7302Y24515D01*
X6935Y24147D01*
X6925Y24132D01*
X6922Y24132D01*
X6875Y24147D01*
Y25922D01*
X7629Y26676D01*
X8336D01*
Y27378D01*
X7333D01*
Y26676D01*
X7333Y26676D01*
X7333D01*
X7302Y26641D01*
X6699Y26037D01*
X6689Y26022D01*
X6639Y26037D01*
Y27811D01*
X7629Y28802D01*
X8336D01*
Y29504D01*
X7333D01*
Y28802D01*
X7333Y28802D01*
X7333D01*
X7302Y28767D01*
X6462Y27927D01*
X6440Y27894D01*
X6432Y27854D01*
Y15354D01*
X6440Y15315D01*
X6449Y15301D01*
X6462Y15281D01*
X8361Y13382D01*
Y12638D01*
X8369Y12598D01*
X8392Y12565D01*
X10990Y9966D01*
X11010Y9953D01*
X11024Y9944D01*
X11063Y9936D01*
X14055D01*
X14095Y9944D01*
X14128Y9966D01*
X14807Y10645D01*
X18386D01*
X18425Y10653D01*
X18439Y10662D01*
X18459Y10675D01*
X20122Y12339D01*
X20172Y12318D01*
Y9754D01*
X20180Y9714D01*
X20203Y9681D01*
X20823Y9061D01*
X20835Y9053D01*
X20819Y9003D01*
X18309D01*
X18309Y9005D01*
Y9005D01*
X18190Y8989D01*
X18080Y8943D01*
X17985Y8870D01*
X17985Y8870D01*
X17856Y8720D01*
X17752Y8551D01*
X17677Y8368D01*
X17630Y8175D01*
X17615Y7978D01*
X17617D01*
Y5390D01*
X17576Y5361D01*
X17042Y5543D01*
X16259Y5847D01*
X15491Y6185D01*
X14738Y6556D01*
X14002Y6960D01*
X13285Y7395D01*
X12587Y7862D01*
X11910Y8358D01*
X11255Y8884D01*
X10624Y9437D01*
X10017Y10017D01*
X9437Y10624D01*
X8884Y11255D01*
X8358Y11910D01*
X7862Y12587D01*
X7395Y13285D01*
X6960Y14002D01*
X6556Y14738D01*
X6185Y15491D01*
X5847Y16259D01*
X5543Y17042D01*
X5273Y17837D01*
X5038Y18642D01*
X4838Y19458D01*
X4675Y20281D01*
X4547Y21111D01*
X4456Y21945D01*
X4401Y22783D01*
X4382Y23622D01*
X4401Y24461D01*
X4456Y25299D01*
X4547Y26133D01*
X4675Y26963D01*
X4838Y27786D01*
X5038Y28602D01*
X5273Y29408D01*
X5543Y30202D01*
X5847Y30985D01*
X6185Y31753D01*
X6556Y32506D01*
X6960Y33242D01*
X7395Y33960D01*
X7862Y34658D01*
X8358Y35334D01*
X8884Y35989D01*
X9437Y36620D01*
X10017Y37227D01*
X10624Y37807D01*
X11255Y38361D01*
X11910Y38886D01*
X12587Y39382D01*
X13285Y39849D01*
X14002Y40284D01*
X14738Y40688D01*
X15491Y41059D01*
X16259Y41397D01*
X17042Y41701D01*
X17837Y41971D01*
X18642Y42206D01*
X19458Y42406D01*
X20281Y42569D01*
X21111Y42697D01*
X21945Y42789D01*
X22783Y42843D01*
X23622Y42862D01*
X24461Y42843D01*
D02*
G37*
G36*
X28937Y28346D02*
X28150D01*
Y33189D01*
X28937D01*
Y28346D01*
D02*
G37*
G36*
X15866D02*
X15079D01*
Y33189D01*
X15866D01*
Y28346D01*
D02*
G37*
G36*
X33243Y37280D02*
Y35082D01*
X33077Y34915D01*
X33054Y34882D01*
X33046Y34843D01*
Y33465D01*
Y33465D01*
Y33465D01*
X33049Y33451D01*
X33054Y33425D01*
X33065Y33408D01*
X33077Y33392D01*
X33388Y33080D01*
X33368Y33031D01*
X33358Y32953D01*
X33368Y32874D01*
X33398Y32801D01*
X33447Y32738D01*
X33510Y32690D01*
X33583Y32659D01*
X33661Y32649D01*
X33740Y32659D01*
X33813Y32690D01*
X33876Y32738D01*
X33925Y32801D01*
X33955Y32874D01*
X33965Y32953D01*
X33955Y33031D01*
X33925Y33105D01*
X33876Y33168D01*
X33813Y33216D01*
X33740Y33246D01*
X33661Y33257D01*
X33583Y33246D01*
X33534Y33226D01*
X33253Y33507D01*
Y33864D01*
X33303Y33879D01*
X33313Y33864D01*
X33388Y33789D01*
X33368Y33740D01*
X33358Y33661D01*
X33368Y33583D01*
X33398Y33510D01*
X33447Y33447D01*
X33510Y33398D01*
X33583Y33368D01*
X33661Y33358D01*
X33740Y33368D01*
X33813Y33398D01*
X33876Y33447D01*
X33925Y33510D01*
X33955Y33583D01*
X33965Y33661D01*
X33955Y33740D01*
X33925Y33813D01*
X33876Y33876D01*
X33813Y33925D01*
X33740Y33955D01*
X33661Y33965D01*
X33583Y33955D01*
X33534Y33935D01*
X33489Y33980D01*
Y34328D01*
X33539Y34338D01*
X33556Y34297D01*
X33604Y34234D01*
X33667Y34186D01*
X33740Y34155D01*
X33819Y34145D01*
X33898Y34155D01*
X33971Y34186D01*
X34034Y34234D01*
X34082Y34297D01*
X34112Y34370D01*
X34123Y34449D01*
X34112Y34527D01*
X34082Y34601D01*
X34034Y34664D01*
X33971Y34712D01*
X33922Y34732D01*
Y35124D01*
X33972Y35139D01*
X33982Y35124D01*
X34018Y35088D01*
X33998Y35039D01*
X33988Y34961D01*
X33998Y34882D01*
X34028Y34809D01*
X34077Y34746D01*
X34139Y34698D01*
X34213Y34667D01*
X34291Y34657D01*
X34370Y34667D01*
X34443Y34698D01*
X34506Y34746D01*
X34554Y34809D01*
X34585Y34882D01*
X34595Y34961D01*
X34585Y35039D01*
X34554Y35113D01*
X34506Y35175D01*
X34443Y35224D01*
X34370Y35254D01*
X34291Y35264D01*
X34213Y35254D01*
X34208Y35252D01*
X34158Y35286D01*
Y37525D01*
X34208Y37545D01*
X35417Y36337D01*
X35435Y36325D01*
X35435Y36312D01*
X35420Y36274D01*
X35269Y36260D01*
X35111Y36212D01*
X34965Y36134D01*
X34837Y36029D01*
X34732Y35901D01*
X34655Y35756D01*
X34607Y35597D01*
X34590Y35433D01*
X34607Y35269D01*
X34655Y35111D01*
X34732Y34965D01*
X34837Y34837D01*
X34965Y34732D01*
X35111Y34655D01*
X35269Y34607D01*
X35433Y34590D01*
X35597Y34607D01*
X35756Y34655D01*
X35777Y34666D01*
X35782Y34664D01*
X35817Y34631D01*
X35812Y34606D01*
Y33320D01*
X35762Y33310D01*
X35744Y33353D01*
X35687Y33427D01*
X35613Y33484D01*
X35526Y33520D01*
X35433Y33533D01*
X35340Y33520D01*
X35253Y33484D01*
X35179Y33427D01*
X35122Y33353D01*
X35086Y33266D01*
X35074Y33173D01*
X35086Y33080D01*
X35122Y32994D01*
X35179Y32919D01*
X35253Y32862D01*
X35340Y32826D01*
X35433Y32814D01*
X35526Y32826D01*
X35613Y32862D01*
X35687Y32919D01*
X35744Y32994D01*
X35762Y33037D01*
X35812Y33027D01*
Y32320D01*
X35762Y32310D01*
X35744Y32353D01*
X35687Y32427D01*
X35613Y32484D01*
X35526Y32520D01*
X35433Y32533D01*
X35340Y32520D01*
X35253Y32484D01*
X35179Y32427D01*
X35122Y32353D01*
X35086Y32266D01*
X35074Y32173D01*
X35086Y32080D01*
X35122Y31994D01*
X35179Y31919D01*
X35253Y31862D01*
X35340Y31826D01*
X35433Y31814D01*
X35526Y31826D01*
X35613Y31862D01*
X35687Y31919D01*
X35744Y31994D01*
X35762Y32037D01*
X35812Y32027D01*
Y31320D01*
X35762Y31310D01*
X35744Y31353D01*
X35687Y31427D01*
X35613Y31484D01*
X35526Y31520D01*
X35433Y31533D01*
X35340Y31520D01*
X35253Y31484D01*
X35179Y31427D01*
X35122Y31353D01*
X35086Y31266D01*
X35074Y31173D01*
X35086Y31080D01*
X35122Y30994D01*
X35179Y30919D01*
X35253Y30862D01*
X35340Y30826D01*
X35433Y30814D01*
X35526Y30826D01*
X35613Y30862D01*
X35687Y30919D01*
X35744Y30994D01*
X35762Y31037D01*
X35812Y31027D01*
Y30320D01*
X35762Y30310D01*
X35744Y30353D01*
X35687Y30427D01*
X35613Y30484D01*
X35526Y30520D01*
X35433Y30533D01*
X35340Y30520D01*
X35253Y30484D01*
X35179Y30427D01*
X35122Y30353D01*
X35086Y30266D01*
X35074Y30173D01*
X35086Y30080D01*
X35122Y29994D01*
X35179Y29919D01*
X35253Y29862D01*
X35340Y29826D01*
X35433Y29814D01*
X35526Y29826D01*
X35613Y29862D01*
X35687Y29919D01*
X35744Y29994D01*
X35762Y30037D01*
X35812Y30027D01*
Y29320D01*
X35762Y29310D01*
X35744Y29353D01*
X35687Y29427D01*
X35613Y29484D01*
X35526Y29520D01*
X35433Y29533D01*
X35340Y29520D01*
X35253Y29484D01*
X35179Y29427D01*
X35122Y29353D01*
X35086Y29266D01*
X35074Y29173D01*
X35086Y29080D01*
X35122Y28994D01*
X35179Y28919D01*
X35253Y28862D01*
X35340Y28826D01*
X35433Y28814D01*
X35526Y28826D01*
X35613Y28862D01*
X35687Y28919D01*
X35744Y28994D01*
X35762Y29037D01*
X35812Y29027D01*
Y28320D01*
X35762Y28310D01*
X35744Y28353D01*
X35687Y28427D01*
X35613Y28484D01*
X35526Y28520D01*
X35433Y28533D01*
X35340Y28520D01*
X35253Y28484D01*
X35179Y28427D01*
X35122Y28353D01*
X35086Y28266D01*
X35074Y28173D01*
X35086Y28080D01*
X35122Y27994D01*
X35179Y27919D01*
X35253Y27862D01*
X35340Y27826D01*
X35433Y27814D01*
X35526Y27826D01*
X35613Y27862D01*
X35687Y27919D01*
X35744Y27994D01*
X35762Y28037D01*
X35812Y28027D01*
Y27320D01*
X35762Y27310D01*
X35744Y27353D01*
X35687Y27427D01*
X35613Y27484D01*
X35526Y27520D01*
X35433Y27533D01*
X35340Y27520D01*
X35253Y27484D01*
X35179Y27427D01*
X35122Y27353D01*
X35086Y27266D01*
X35074Y27173D01*
X35086Y27080D01*
X35122Y26994D01*
X35179Y26919D01*
X35253Y26862D01*
X35340Y26826D01*
X35433Y26814D01*
X35526Y26826D01*
X35613Y26862D01*
X35687Y26919D01*
X35744Y26994D01*
X35762Y27037D01*
X35812Y27027D01*
Y26320D01*
X35762Y26310D01*
X35744Y26353D01*
X35687Y26427D01*
X35613Y26484D01*
X35526Y26520D01*
X35433Y26533D01*
X35340Y26520D01*
X35253Y26484D01*
X35179Y26427D01*
X35122Y26353D01*
X35086Y26266D01*
X35074Y26173D01*
X35086Y26080D01*
X35122Y25994D01*
X35179Y25919D01*
X35253Y25862D01*
X35340Y25826D01*
X35433Y25814D01*
X35526Y25826D01*
X35613Y25862D01*
X35687Y25919D01*
X35744Y25994D01*
X35762Y26037D01*
X35812Y26027D01*
Y25320D01*
X35762Y25310D01*
X35744Y25353D01*
X35687Y25427D01*
X35613Y25484D01*
X35526Y25520D01*
X35433Y25533D01*
X35340Y25520D01*
X35253Y25484D01*
X35179Y25427D01*
X35122Y25353D01*
X35086Y25266D01*
X35074Y25173D01*
X35086Y25080D01*
X35122Y24994D01*
X35179Y24919D01*
X35253Y24862D01*
X35340Y24826D01*
X35433Y24814D01*
X35526Y24826D01*
X35613Y24862D01*
X35687Y24919D01*
X35744Y24994D01*
X35762Y25037D01*
X35812Y25027D01*
Y24320D01*
X35762Y24310D01*
X35744Y24353D01*
X35687Y24427D01*
X35613Y24484D01*
X35526Y24520D01*
X35433Y24533D01*
X35340Y24520D01*
X35253Y24484D01*
X35179Y24427D01*
X35122Y24353D01*
X35086Y24266D01*
X35074Y24173D01*
X35086Y24080D01*
X35122Y23994D01*
X35179Y23919D01*
X35253Y23862D01*
X35340Y23826D01*
X35433Y23814D01*
X35526Y23826D01*
X35613Y23862D01*
X35687Y23919D01*
X35744Y23994D01*
X35762Y24037D01*
X35812Y24027D01*
Y23320D01*
X35762Y23310D01*
X35744Y23353D01*
X35687Y23427D01*
X35613Y23484D01*
X35526Y23520D01*
X35433Y23533D01*
X35340Y23520D01*
X35253Y23484D01*
X35179Y23427D01*
X35122Y23353D01*
X35086Y23266D01*
X35074Y23173D01*
X35086Y23080D01*
X35122Y22994D01*
X35179Y22919D01*
X35253Y22862D01*
X35340Y22826D01*
X35433Y22814D01*
X35526Y22826D01*
X35613Y22862D01*
X35687Y22919D01*
X35744Y22994D01*
X35762Y23037D01*
X35812Y23027D01*
Y22320D01*
X35762Y22310D01*
X35744Y22353D01*
X35687Y22427D01*
X35613Y22484D01*
X35526Y22520D01*
X35433Y22533D01*
X35340Y22520D01*
X35253Y22484D01*
X35179Y22427D01*
X35122Y22353D01*
X35086Y22266D01*
X35074Y22173D01*
X35086Y22080D01*
X35122Y21994D01*
X35179Y21919D01*
X35253Y21862D01*
X35340Y21826D01*
X35433Y21814D01*
X35526Y21826D01*
X35613Y21862D01*
X35687Y21919D01*
X35744Y21994D01*
X35762Y22037D01*
X35812Y22027D01*
Y21320D01*
X35762Y21310D01*
X35744Y21353D01*
X35687Y21427D01*
X35613Y21484D01*
X35526Y21520D01*
X35433Y21533D01*
X35340Y21520D01*
X35253Y21484D01*
X35179Y21427D01*
X35122Y21353D01*
X35086Y21266D01*
X35074Y21173D01*
X35086Y21080D01*
X35122Y20994D01*
X35179Y20919D01*
X35253Y20862D01*
X35340Y20826D01*
X35433Y20814D01*
X35526Y20826D01*
X35613Y20862D01*
X35687Y20919D01*
X35744Y20994D01*
X35762Y21037D01*
X35812Y21027D01*
Y20320D01*
X35762Y20310D01*
X35744Y20353D01*
X35687Y20427D01*
X35613Y20484D01*
X35526Y20520D01*
X35433Y20533D01*
X35340Y20520D01*
X35253Y20484D01*
X35179Y20427D01*
X35122Y20353D01*
X35086Y20266D01*
X35074Y20173D01*
X35086Y20080D01*
X35122Y19994D01*
X35179Y19919D01*
X35253Y19862D01*
X35340Y19826D01*
X35433Y19814D01*
X35526Y19826D01*
X35613Y19862D01*
X35687Y19919D01*
X35744Y19994D01*
X35762Y20037D01*
X35812Y20027D01*
Y18320D01*
X35762Y18310D01*
X35744Y18353D01*
X35687Y18427D01*
X35613Y18484D01*
X35526Y18520D01*
X35433Y18533D01*
X35340Y18520D01*
X35253Y18484D01*
X35179Y18427D01*
X35122Y18353D01*
X35086Y18266D01*
X35074Y18173D01*
X35086Y18080D01*
X35122Y17994D01*
X35179Y17919D01*
X35253Y17862D01*
X35340Y17826D01*
X35432Y17814D01*
X35443Y17799D01*
X35458Y17769D01*
X35401Y17712D01*
X35394Y17711D01*
X35360Y17688D01*
X35338Y17655D01*
X35330Y17615D01*
Y17516D01*
X35253Y17484D01*
X35179Y17427D01*
X35122Y17353D01*
X35086Y17266D01*
X35074Y17173D01*
X35086Y17080D01*
X35122Y16994D01*
X35179Y16919D01*
X35253Y16862D01*
X35340Y16826D01*
X35433Y16814D01*
X35526Y16826D01*
X35613Y16862D01*
X35686Y16918D01*
X35705Y16916D01*
X35736Y16905D01*
Y16847D01*
X35577Y16688D01*
X34925D01*
X34302Y17310D01*
X34311Y17324D01*
X34327Y17402D01*
X34311Y17479D01*
X34267Y17545D01*
X34202Y17589D01*
X34124Y17604D01*
X34046Y17589D01*
X33981Y17545D01*
X33937Y17479D01*
X33921Y17402D01*
X33937Y17324D01*
X33981Y17258D01*
X34046Y17214D01*
X34121Y17199D01*
X34809Y16512D01*
X34842Y16489D01*
X34882Y16481D01*
X35172D01*
X35188Y16434D01*
X35179Y16427D01*
X35122Y16353D01*
X35086Y16266D01*
X35074Y16173D01*
X35086Y16080D01*
X35122Y15994D01*
X35179Y15919D01*
X35253Y15862D01*
X35340Y15826D01*
X35433Y15814D01*
X35526Y15826D01*
X35613Y15862D01*
X35687Y15919D01*
X35744Y15994D01*
X35780Y16080D01*
X35792Y16173D01*
X35780Y16266D01*
X35744Y16353D01*
X35687Y16427D01*
X35670Y16441D01*
X35667Y16452D01*
X35675Y16500D01*
X35693Y16512D01*
X35912Y16731D01*
X35935Y16764D01*
X35943Y16804D01*
Y16979D01*
X36034Y17070D01*
X36090D01*
X36122Y16994D01*
X36179Y16919D01*
X36253Y16862D01*
X36340Y16826D01*
X36433Y16814D01*
X36526Y16826D01*
X36613Y16862D01*
X36664Y16901D01*
X36714Y16877D01*
Y16729D01*
X36668Y16683D01*
X36265D01*
X36225Y16675D01*
X36192Y16652D01*
X35954Y16414D01*
X35931Y16381D01*
X35924Y16342D01*
Y15929D01*
X35931Y15890D01*
X35954Y15856D01*
X35999Y15811D01*
Y15605D01*
X35978Y15573D01*
X35970Y15533D01*
X35978Y15494D01*
X36000Y15461D01*
X36118Y15343D01*
X36086Y15266D01*
X36074Y15173D01*
X36086Y15080D01*
X36122Y14994D01*
X36179Y14919D01*
X36253Y14862D01*
X36340Y14826D01*
X36433Y14814D01*
X36526Y14826D01*
X36613Y14862D01*
X36675Y14909D01*
X36725Y14891D01*
Y14748D01*
X35354D01*
X35324Y14785D01*
X35347Y14825D01*
X35433Y14814D01*
X35526Y14826D01*
X35613Y14862D01*
X35687Y14919D01*
X35744Y14994D01*
X35780Y15080D01*
X35792Y15173D01*
X35780Y15266D01*
X35744Y15353D01*
X35687Y15427D01*
X35613Y15484D01*
X35526Y15520D01*
X35433Y15533D01*
X35340Y15520D01*
X35253Y15484D01*
X35179Y15427D01*
X35122Y15353D01*
X35086Y15266D01*
X35074Y15173D01*
X35085Y15087D01*
X35072Y15075D01*
X35040Y15061D01*
X34699Y15402D01*
X34711Y15463D01*
X34695Y15540D01*
X34651Y15606D01*
X34585Y15650D01*
X34508Y15665D01*
X34430Y15650D01*
X34365Y15606D01*
X34321Y15540D01*
X34305Y15463D01*
X34321Y15385D01*
X34365Y15319D01*
X34430Y15275D01*
X34508Y15260D01*
X34568Y15272D01*
X35250Y14590D01*
X35250Y14590D01*
X35266Y14580D01*
X35267Y14575D01*
X35251Y14530D01*
X35077D01*
Y13817D01*
X35789D01*
Y14513D01*
X35789Y14530D01*
X35825Y14563D01*
X35825Y14563D01*
X36313D01*
X36323Y14513D01*
X36253Y14484D01*
X36179Y14427D01*
X36122Y14353D01*
X36086Y14266D01*
X36074Y14173D01*
X36086Y14080D01*
X36122Y13994D01*
X36179Y13919D01*
X36253Y13862D01*
X36340Y13826D01*
X36433Y13814D01*
X36526Y13826D01*
X36613Y13862D01*
X36687Y13919D01*
X36744Y13994D01*
X36780Y14080D01*
X36792Y14173D01*
X36780Y14266D01*
X36744Y14353D01*
X36687Y14427D01*
X36613Y14484D01*
X36543Y14513D01*
X36553Y14563D01*
X36817D01*
X36865Y14523D01*
Y13940D01*
X36650Y13725D01*
X34688D01*
X33518Y14896D01*
X33484Y14918D01*
X33445Y14926D01*
X32652D01*
X32637Y14976D01*
X32652Y14986D01*
X33538Y15872D01*
X33560Y15905D01*
X33568Y15945D01*
Y19052D01*
X34797Y20281D01*
X34820Y20315D01*
X34826Y20346D01*
X34828Y20354D01*
Y26279D01*
X34820Y26319D01*
X34797Y26352D01*
X34154Y26995D01*
X34123Y27030D01*
X34123D01*
X34123Y27030D01*
Y27733D01*
X33121D01*
Y27030D01*
X33827D01*
X34621Y26236D01*
Y24462D01*
X34574Y24447D01*
X34571Y24447D01*
X34561Y24462D01*
X34154Y24870D01*
X34123Y24904D01*
X34123D01*
X34123Y24904D01*
Y25607D01*
X33121D01*
Y24904D01*
X33827D01*
X34385Y24347D01*
Y22573D01*
X34335Y22557D01*
X34325Y22573D01*
X34154Y22744D01*
X34123Y22778D01*
X34123D01*
X34123Y22778D01*
Y23481D01*
X33121D01*
Y22778D01*
X33827D01*
X34149Y22457D01*
Y22142D01*
X34099Y22132D01*
X34079Y22181D01*
X34023Y22254D01*
X33949Y22310D01*
X33864Y22346D01*
X33772Y22358D01*
X33472D01*
X33380Y22346D01*
X33295Y22310D01*
X33222Y22254D01*
X33165Y22181D01*
X33130Y22095D01*
X33118Y22004D01*
X33130Y21912D01*
X33165Y21827D01*
X33222Y21753D01*
X33295Y21697D01*
X33380Y21661D01*
X33472Y21649D01*
X33772D01*
X33864Y21661D01*
X33949Y21697D01*
X34023Y21753D01*
X34079Y21827D01*
X34099Y21875D01*
X34149Y21865D01*
Y21394D01*
X34123Y21355D01*
X33121D01*
Y20652D01*
X33121Y20652D01*
X33121D01*
X33090Y20617D01*
X32683Y20210D01*
X32661Y20177D01*
X32653Y20137D01*
Y18448D01*
X32603Y18422D01*
X32568Y18445D01*
X32490Y18461D01*
X32413Y18445D01*
X32347Y18401D01*
X32303Y18335D01*
X32287Y18258D01*
X32299Y18198D01*
X31980Y17879D01*
X30675D01*
X30660Y17904D01*
X30652Y17929D01*
X30666Y17963D01*
Y19598D01*
X30669Y19600D01*
X31317D01*
Y19435D01*
Y19198D01*
Y18962D01*
Y18726D01*
X31373D01*
X31378Y18724D01*
X32165D01*
X32170Y18726D01*
X32226D01*
Y18962D01*
Y19198D01*
Y19435D01*
Y19671D01*
Y19907D01*
Y20143D01*
Y20379D01*
Y20615D01*
Y20851D01*
Y21087D01*
Y21324D01*
Y21560D01*
Y21796D01*
Y22032D01*
Y22268D01*
Y22504D01*
Y22740D01*
Y22976D01*
Y23213D01*
Y23449D01*
Y23685D01*
Y23921D01*
Y24157D01*
Y24393D01*
Y24629D01*
Y24865D01*
Y25102D01*
Y25338D01*
Y25574D01*
Y25810D01*
Y26046D01*
Y26282D01*
Y26518D01*
Y26758D01*
Y26990D01*
Y27227D01*
Y27463D01*
Y27703D01*
Y27935D01*
Y28171D01*
Y28407D01*
Y28419D01*
X32232Y28449D01*
X32249Y28532D01*
X32259Y28582D01*
X32258Y28587D01*
X32260Y28593D01*
X32254Y28607D01*
X32251Y28623D01*
X32246Y28626D01*
X32244Y28632D01*
X32237Y28635D01*
X32237Y28635D01*
X32237Y28635D01*
X32229Y28638D01*
X32229Y28638D01*
X32226Y28640D01*
Y28643D01*
Y28879D01*
Y29116D01*
Y29352D01*
Y29588D01*
Y29824D01*
Y30064D01*
X31317D01*
Y29824D01*
Y29588D01*
Y29352D01*
Y29116D01*
Y28879D01*
Y28643D01*
Y28541D01*
X31314Y28533D01*
X31306Y28530D01*
X29124D01*
X29085Y28514D01*
X29069Y28474D01*
Y18937D01*
X29048Y18921D01*
X28998Y18946D01*
Y19080D01*
Y19317D01*
Y19553D01*
Y19789D01*
Y20025D01*
Y20261D01*
Y20497D01*
Y20733D01*
Y20969D01*
Y21206D01*
Y21442D01*
Y21678D01*
Y21914D01*
Y22150D01*
Y22386D01*
Y22622D01*
Y22859D01*
Y23095D01*
Y23331D01*
Y23567D01*
Y23803D01*
Y24039D01*
Y24275D01*
Y24511D01*
Y24747D01*
Y24984D01*
Y25220D01*
Y25456D01*
Y25692D01*
Y25928D01*
Y26164D01*
Y26400D01*
Y26636D01*
Y26873D01*
Y27109D01*
Y27345D01*
Y27581D01*
Y27817D01*
Y28053D01*
Y28289D01*
Y28525D01*
Y28762D01*
Y28998D01*
Y29234D01*
Y29470D01*
Y29571D01*
X30344D01*
X30384Y29587D01*
X30400Y29626D01*
Y30722D01*
X30404D01*
X30443Y30738D01*
X30459Y30778D01*
Y33189D01*
X30443Y33228D01*
X30404Y33244D01*
X30400D01*
Y33760D01*
X30384Y33799D01*
X30344Y33815D01*
X29232D01*
X29193Y33799D01*
X29177Y33760D01*
Y33244D01*
X28998D01*
Y33247D01*
Y33483D01*
Y33719D01*
Y33955D01*
Y34192D01*
Y34428D01*
Y34664D01*
Y34900D01*
Y35136D01*
Y35372D01*
Y35608D01*
Y35844D01*
Y35861D01*
X29272D01*
X29311Y35869D01*
X29345Y35892D01*
X31342Y37889D01*
X32634D01*
X33243Y37280D01*
D02*
G37*
G36*
X26841Y35866D02*
X23720Y32746D01*
X20719D01*
Y36467D01*
X23770Y39518D01*
Y42146D01*
X23789Y42165D01*
X26841D01*
Y35866D01*
D02*
G37*
G36*
X19094Y24449D02*
X18307D01*
Y29291D01*
X19094D01*
Y24449D01*
D02*
G37*
G36*
X34482Y37715D02*
X34472Y37668D01*
X34478Y37638D01*
X34432Y37613D01*
X33160Y38886D01*
X33126Y38908D01*
X33087Y38916D01*
X29004D01*
X28983Y38963D01*
X29006Y38992D01*
X33205D01*
X34482Y37715D01*
D02*
G37*
G36*
X35064Y37792D02*
Y37510D01*
X35072Y37470D01*
X35094Y37437D01*
X36647Y35884D01*
X36638Y35837D01*
X36646Y35795D01*
X36600Y35770D01*
X36501Y35869D01*
X36468Y35892D01*
X36428Y35899D01*
X36369D01*
X35786Y36483D01*
X35752Y36505D01*
X35713Y36513D01*
X35532D01*
X34621Y37425D01*
X34645Y37471D01*
X34675Y37465D01*
X34753Y37480D01*
X34818Y37524D01*
X34862Y37590D01*
X34878Y37668D01*
X34862Y37745D01*
X34818Y37811D01*
X34753Y37855D01*
X34675Y37870D01*
X34628Y37861D01*
X33370Y39118D01*
X33391Y39168D01*
X33688D01*
X35064Y37792D01*
D02*
G37*
%LPC*%
G36*
X25118Y12260D02*
X24925Y12244D01*
X24736Y12199D01*
X24557Y12125D01*
X24392Y12024D01*
X24244Y11898D01*
X24118Y11750D01*
X24017Y11585D01*
X23943Y11406D01*
X23897Y11217D01*
X23882Y11024D01*
X23897Y10830D01*
X23943Y10642D01*
X24017Y10462D01*
X24118Y10297D01*
X24244Y10150D01*
X24392Y10024D01*
X24557Y9922D01*
X24736Y9848D01*
X24925Y9803D01*
X25118Y9788D01*
X25311Y9803D01*
X25500Y9848D01*
X25679Y9922D01*
X25845Y10024D01*
X25992Y10150D01*
X26118Y10297D01*
X26219Y10462D01*
X26294Y10642D01*
X26339Y10830D01*
X26354Y11024D01*
X26339Y11217D01*
X26294Y11406D01*
X26219Y11585D01*
X26118Y11750D01*
X25992Y11898D01*
X25845Y12024D01*
X25679Y12125D01*
X25500Y12199D01*
X25311Y12244D01*
X25118Y12260D01*
D02*
G37*
G36*
X11024Y29533D02*
X10931Y29520D01*
X10844Y29484D01*
X10769Y29427D01*
X10712Y29353D01*
X10676Y29266D01*
X10664Y29173D01*
X10676Y29080D01*
X10712Y28994D01*
X10769Y28919D01*
X10844Y28862D01*
X10931Y28826D01*
X11024Y28814D01*
X11117Y28826D01*
X11203Y28862D01*
X11278Y28919D01*
X11335Y28994D01*
X11371Y29080D01*
X11383Y29173D01*
X11371Y29266D01*
X11335Y29353D01*
X11278Y29427D01*
X11203Y29484D01*
X11117Y29520D01*
X11024Y29533D01*
D02*
G37*
G36*
X39520Y30468D02*
X39220D01*
X39128Y30456D01*
X39043Y30421D01*
X38970Y30364D01*
X38913Y30291D01*
X38878Y30206D01*
X38866Y30114D01*
X38878Y30022D01*
X38913Y29937D01*
X38970Y29863D01*
X39043Y29807D01*
X39128Y29772D01*
X39220Y29760D01*
X39520D01*
X39612Y29772D01*
X39697Y29807D01*
X39771Y29863D01*
X39827Y29937D01*
X39862Y30022D01*
X39874Y30114D01*
X39862Y30206D01*
X39827Y30291D01*
X39771Y30364D01*
X39697Y30421D01*
X39612Y30456D01*
X39520Y30468D01*
D02*
G37*
G36*
X12024Y29533D02*
X11931Y29520D01*
X11844Y29484D01*
X11769Y29427D01*
X11712Y29353D01*
X11676Y29266D01*
X11664Y29173D01*
X11676Y29080D01*
X11712Y28994D01*
X11769Y28919D01*
X11844Y28862D01*
X11931Y28826D01*
X12024Y28814D01*
X12117Y28826D01*
X12203Y28862D01*
X12278Y28919D01*
X12335Y28994D01*
X12371Y29080D01*
X12383Y29173D01*
X12371Y29266D01*
X12335Y29353D01*
X12278Y29427D01*
X12203Y29484D01*
X12117Y29520D01*
X12024Y29533D01*
D02*
G37*
G36*
Y28533D02*
X11931Y28520D01*
X11844Y28484D01*
X11769Y28427D01*
X11712Y28353D01*
X11676Y28266D01*
X11664Y28173D01*
X11676Y28080D01*
X11712Y27994D01*
X11769Y27919D01*
X11844Y27862D01*
X11931Y27826D01*
X12024Y27814D01*
X12117Y27826D01*
X12203Y27862D01*
X12278Y27919D01*
X12335Y27994D01*
X12371Y28080D01*
X12383Y28173D01*
X12371Y28266D01*
X12335Y28353D01*
X12278Y28427D01*
X12203Y28484D01*
X12117Y28520D01*
X12024Y28533D01*
D02*
G37*
G36*
X11024Y19533D02*
X10931Y19520D01*
X10844Y19484D01*
X10769Y19427D01*
X10712Y19353D01*
X10676Y19266D01*
X10664Y19173D01*
X10676Y19080D01*
X10712Y18994D01*
X10769Y18919D01*
X10844Y18862D01*
X10931Y18826D01*
X11024Y18814D01*
X11117Y18826D01*
X11203Y18862D01*
X11278Y18919D01*
X11335Y18994D01*
X11371Y19080D01*
X11383Y19173D01*
X11371Y19266D01*
X11335Y19353D01*
X11278Y19427D01*
X11203Y19484D01*
X11117Y19520D01*
X11024Y19533D01*
D02*
G37*
G36*
X33772Y28736D02*
X33472D01*
X33380Y28724D01*
X33295Y28688D01*
X33222Y28632D01*
X33165Y28559D01*
X33130Y28473D01*
X33118Y28382D01*
X33130Y28290D01*
X33165Y28204D01*
X33222Y28131D01*
X33295Y28075D01*
X33380Y28039D01*
X33472Y28027D01*
X33772D01*
X33864Y28039D01*
X33949Y28075D01*
X34023Y28131D01*
X34079Y28204D01*
X34114Y28290D01*
X34126Y28382D01*
X34114Y28473D01*
X34079Y28559D01*
X34023Y28632D01*
X33949Y28688D01*
X33864Y28724D01*
X33772Y28736D01*
D02*
G37*
G36*
X13733D02*
X13433D01*
X13341Y28724D01*
X13256Y28688D01*
X13182Y28632D01*
X13126Y28559D01*
X13091Y28473D01*
X13078Y28382D01*
X13091Y28290D01*
X13126Y28204D01*
X13182Y28131D01*
X13256Y28075D01*
X13341Y28039D01*
X13433Y28027D01*
X13733D01*
X13824Y28039D01*
X13910Y28075D01*
X13983Y28131D01*
X14039Y28204D01*
X14075Y28290D01*
X14087Y28382D01*
X14075Y28473D01*
X14039Y28559D01*
X13983Y28632D01*
X13910Y28688D01*
X13824Y28724D01*
X13733Y28736D01*
D02*
G37*
G36*
X11811Y36276D02*
X11647Y36260D01*
X11489Y36212D01*
X11343Y36134D01*
X11215Y36029D01*
X11110Y35901D01*
X11033Y35756D01*
X10985Y35597D01*
X10968Y35433D01*
X10985Y35269D01*
X11033Y35111D01*
X11110Y34965D01*
X11215Y34837D01*
X11343Y34732D01*
X11489Y34655D01*
X11647Y34607D01*
X11811Y34590D01*
X11975Y34607D01*
X12133Y34655D01*
X12279Y34732D01*
X12407Y34837D01*
X12512Y34965D01*
X12590Y35111D01*
X12637Y35269D01*
X12654Y35433D01*
X12637Y35597D01*
X12590Y35756D01*
X12512Y35901D01*
X12407Y36029D01*
X12279Y36134D01*
X12133Y36212D01*
X11975Y36260D01*
X11811Y36276D01*
D02*
G37*
G36*
X30157Y10339D02*
X30090Y10330D01*
X30027Y10304D01*
X29974Y10263D01*
X29932Y10209D01*
X29906Y10146D01*
X29897Y10079D01*
X29906Y10011D01*
X29932Y9949D01*
X29974Y9895D01*
X30027Y9853D01*
X30090Y9827D01*
X30157Y9819D01*
X30225Y9827D01*
X30288Y9853D01*
X30341Y9895D01*
X30383Y9949D01*
X30409Y10011D01*
X30418Y10079D01*
X30409Y10146D01*
X30383Y10209D01*
X30341Y10263D01*
X30288Y10304D01*
X30225Y10330D01*
X30157Y10339D01*
D02*
G37*
G36*
X17087Y40576D02*
X16999Y40564D01*
X16917Y40530D01*
X16847Y40476D01*
X16793Y40406D01*
X16759Y40324D01*
X16747Y40236D01*
X16759Y40148D01*
X16793Y40066D01*
X16847Y39996D01*
X16917Y39942D01*
X16999Y39908D01*
X17087Y39897D01*
X17174Y39908D01*
X17256Y39942D01*
X17327Y39996D01*
X17381Y40066D01*
X17415Y40148D01*
X17426Y40236D01*
X17415Y40324D01*
X17381Y40406D01*
X17327Y40476D01*
X17256Y40530D01*
X17174Y40564D01*
X17087Y40576D01*
D02*
G37*
G36*
X30157D02*
X30070Y40564D01*
X29988Y40530D01*
X29917Y40476D01*
X29863Y40406D01*
X29830Y40324D01*
X29818Y40236D01*
X29830Y40148D01*
X29863Y40066D01*
X29917Y39996D01*
X29988Y39942D01*
X30070Y39908D01*
X30157Y39897D01*
X30245Y39908D01*
X30327Y39942D01*
X30398Y39996D01*
X30452Y40066D01*
X30485Y40148D01*
X30497Y40236D01*
X30485Y40324D01*
X30452Y40406D01*
X30398Y40476D01*
X30327Y40530D01*
X30245Y40564D01*
X30157Y40576D01*
D02*
G37*
G36*
X17087Y10339D02*
X17019Y10330D01*
X16957Y10304D01*
X16903Y10263D01*
X16861Y10209D01*
X16835Y10146D01*
X16827Y10079D01*
X16835Y10011D01*
X16861Y9949D01*
X16903Y9895D01*
X16957Y9853D01*
X17019Y9827D01*
X17087Y9819D01*
X17154Y9827D01*
X17217Y9853D01*
X17271Y9895D01*
X17312Y9949D01*
X17338Y10011D01*
X17347Y10079D01*
X17338Y10146D01*
X17312Y10209D01*
X17271Y10263D01*
X17217Y10304D01*
X17154Y10330D01*
X17087Y10339D01*
D02*
G37*
G36*
X11024Y30533D02*
X10931Y30520D01*
X10844Y30484D01*
X10769Y30427D01*
X10712Y30353D01*
X10676Y30266D01*
X10664Y30173D01*
X10676Y30080D01*
X10712Y29994D01*
X10769Y29919D01*
X10844Y29862D01*
X10931Y29826D01*
X11024Y29814D01*
X11117Y29826D01*
X11203Y29862D01*
X11278Y29919D01*
X11335Y29994D01*
X11371Y30080D01*
X11383Y30173D01*
X11371Y30266D01*
X11335Y30353D01*
X11278Y30427D01*
X11203Y30484D01*
X11117Y30520D01*
X11024Y30533D01*
D02*
G37*
G36*
X7985Y30507D02*
X7685D01*
X7593Y30495D01*
X7508Y30460D01*
X7434Y30404D01*
X7378Y30330D01*
X7343Y30245D01*
X7330Y30153D01*
X7343Y30062D01*
X7378Y29976D01*
X7434Y29903D01*
X7508Y29846D01*
X7593Y29811D01*
X7685Y29799D01*
X7985D01*
X8076Y29811D01*
X8162Y29846D01*
X8235Y29903D01*
X8291Y29976D01*
X8327Y30062D01*
X8339Y30153D01*
X8327Y30245D01*
X8291Y30330D01*
X8235Y30404D01*
X8162Y30460D01*
X8076Y30495D01*
X7985Y30507D01*
D02*
G37*
G36*
X26457Y15842D02*
X26331Y15829D01*
X26210Y15793D01*
X26098Y15733D01*
X26001Y15653D01*
X25921Y15555D01*
X25861Y15444D01*
X25824Y15323D01*
X25812Y15197D01*
X25824Y15071D01*
X25861Y14950D01*
X25921Y14839D01*
X26001Y14741D01*
X26098Y14661D01*
X26210Y14601D01*
X26331Y14564D01*
X26457Y14552D01*
X26583Y14564D01*
X26703Y14601D01*
X26815Y14661D01*
X26913Y14741D01*
X26993Y14839D01*
X27052Y14950D01*
X27089Y15071D01*
X27102Y15197D01*
X27089Y15323D01*
X27052Y15444D01*
X26993Y15555D01*
X26913Y15653D01*
X26815Y15733D01*
X26703Y15793D01*
X26583Y15829D01*
X26457Y15842D01*
D02*
G37*
G36*
X12024Y30533D02*
X11931Y30520D01*
X11844Y30484D01*
X11769Y30427D01*
X11712Y30353D01*
X11676Y30266D01*
X11664Y30173D01*
X11676Y30080D01*
X11712Y29994D01*
X11769Y29919D01*
X11844Y29862D01*
X11931Y29826D01*
X12024Y29814D01*
X12117Y29826D01*
X12203Y29862D01*
X12278Y29919D01*
X12335Y29994D01*
X12371Y30080D01*
X12383Y30173D01*
X12371Y30266D01*
X12335Y30353D01*
X12278Y30427D01*
X12203Y30484D01*
X12117Y30520D01*
X12024Y30533D01*
D02*
G37*
G36*
X7985Y26255D02*
X7685D01*
X7593Y26243D01*
X7508Y26208D01*
X7434Y26152D01*
X7378Y26078D01*
X7343Y25993D01*
X7330Y25901D01*
X7343Y25810D01*
X7378Y25724D01*
X7434Y25651D01*
X7508Y25594D01*
X7593Y25559D01*
X7685Y25547D01*
X7985D01*
X8076Y25559D01*
X8162Y25594D01*
X8235Y25651D01*
X8291Y25724D01*
X8327Y25810D01*
X8339Y25901D01*
X8327Y25993D01*
X8291Y26078D01*
X8235Y26152D01*
X8162Y26208D01*
X8076Y26243D01*
X7985Y26255D01*
D02*
G37*
G36*
X39520Y26216D02*
X39220D01*
X39128Y26204D01*
X39043Y26169D01*
X38970Y26112D01*
X38913Y26039D01*
X38878Y25954D01*
X38866Y25862D01*
X38878Y25770D01*
X38913Y25685D01*
X38970Y25611D01*
X39043Y25555D01*
X39128Y25520D01*
X39220Y25508D01*
X39520D01*
X39612Y25520D01*
X39697Y25555D01*
X39771Y25611D01*
X39827Y25685D01*
X39862Y25770D01*
X39874Y25862D01*
X39862Y25954D01*
X39827Y26039D01*
X39771Y26112D01*
X39697Y26169D01*
X39612Y26204D01*
X39520Y26216D01*
D02*
G37*
G36*
X14084Y23481D02*
X13082D01*
Y22778D01*
X14084D01*
Y23481D01*
D02*
G37*
G36*
X12024Y22533D02*
X11931Y22520D01*
X11844Y22484D01*
X11769Y22427D01*
X11712Y22353D01*
X11676Y22266D01*
X11664Y22173D01*
X11676Y22080D01*
X11712Y21994D01*
X11769Y21919D01*
X11844Y21862D01*
X11931Y21826D01*
X12024Y21814D01*
X12117Y21826D01*
X12203Y21862D01*
X12278Y21919D01*
X12335Y21994D01*
X12371Y22080D01*
X12383Y22173D01*
X12371Y22266D01*
X12335Y22353D01*
X12278Y22427D01*
X12203Y22484D01*
X12117Y22520D01*
X12024Y22533D01*
D02*
G37*
G36*
X33772Y26610D02*
X33472D01*
X33380Y26598D01*
X33295Y26562D01*
X33222Y26506D01*
X33165Y26433D01*
X33130Y26347D01*
X33118Y26256D01*
X33130Y26164D01*
X33165Y26078D01*
X33222Y26005D01*
X33295Y25949D01*
X33380Y25913D01*
X33472Y25901D01*
X33772D01*
X33864Y25913D01*
X33949Y25949D01*
X34023Y26005D01*
X34079Y26078D01*
X34114Y26164D01*
X34126Y26256D01*
X34114Y26347D01*
X34079Y26433D01*
X34023Y26506D01*
X33949Y26562D01*
X33864Y26598D01*
X33772Y26610D01*
D02*
G37*
G36*
X13733D02*
X13433D01*
X13341Y26598D01*
X13256Y26562D01*
X13182Y26506D01*
X13126Y26433D01*
X13091Y26347D01*
X13078Y26256D01*
X13091Y26164D01*
X13126Y26078D01*
X13182Y26005D01*
X13256Y25949D01*
X13341Y25913D01*
X13433Y25901D01*
X13733D01*
X13824Y25913D01*
X13910Y25949D01*
X13983Y26005D01*
X14039Y26078D01*
X14075Y26164D01*
X14087Y26256D01*
X14075Y26347D01*
X14039Y26433D01*
X13983Y26506D01*
X13910Y26562D01*
X13824Y26598D01*
X13733Y26610D01*
D02*
G37*
G36*
X11024Y23533D02*
X10931Y23520D01*
X10844Y23484D01*
X10769Y23427D01*
X10712Y23353D01*
X10676Y23266D01*
X10664Y23173D01*
X10676Y23080D01*
X10712Y22994D01*
X10769Y22919D01*
X10844Y22862D01*
X10931Y22826D01*
X11024Y22814D01*
X11117Y22826D01*
X11203Y22862D01*
X11278Y22919D01*
X11335Y22994D01*
X11371Y23080D01*
X11383Y23173D01*
X11371Y23266D01*
X11335Y23353D01*
X11278Y23427D01*
X11203Y23484D01*
X11117Y23520D01*
X11024Y23533D01*
D02*
G37*
G36*
X7985Y24129D02*
X7685D01*
X7593Y24117D01*
X7508Y24082D01*
X7434Y24026D01*
X7378Y23952D01*
X7343Y23867D01*
X7330Y23775D01*
X7343Y23684D01*
X7378Y23598D01*
X7434Y23525D01*
X7508Y23469D01*
X7593Y23433D01*
X7685Y23421D01*
X7985D01*
X8076Y23433D01*
X8162Y23469D01*
X8235Y23525D01*
X8291Y23598D01*
X8327Y23684D01*
X8339Y23775D01*
X8327Y23867D01*
X8291Y23952D01*
X8235Y24026D01*
X8162Y24082D01*
X8076Y24117D01*
X7985Y24129D01*
D02*
G37*
G36*
X13733Y24484D02*
X13433D01*
X13341Y24472D01*
X13256Y24436D01*
X13182Y24380D01*
X13126Y24307D01*
X13091Y24221D01*
X13078Y24130D01*
X13091Y24038D01*
X13126Y23952D01*
X13182Y23879D01*
X13256Y23823D01*
X13341Y23787D01*
X13433Y23775D01*
X13733D01*
X13824Y23787D01*
X13910Y23823D01*
X13983Y23879D01*
X14039Y23952D01*
X14075Y24038D01*
X14087Y24130D01*
X14075Y24221D01*
X14039Y24307D01*
X13983Y24380D01*
X13910Y24436D01*
X13824Y24472D01*
X13733Y24484D01*
D02*
G37*
G36*
X33772D02*
X33472D01*
X33380Y24472D01*
X33295Y24436D01*
X33222Y24380D01*
X33165Y24307D01*
X33130Y24221D01*
X33118Y24130D01*
X33130Y24038D01*
X33165Y23952D01*
X33222Y23879D01*
X33295Y23823D01*
X33380Y23787D01*
X33472Y23775D01*
X33772D01*
X33864Y23787D01*
X33949Y23823D01*
X34023Y23879D01*
X34079Y23952D01*
X34114Y24038D01*
X34126Y24130D01*
X34114Y24221D01*
X34079Y24307D01*
X34023Y24380D01*
X33949Y24436D01*
X33864Y24472D01*
X33772Y24484D01*
D02*
G37*
G36*
X12024Y23533D02*
X11931Y23520D01*
X11844Y23484D01*
X11769Y23427D01*
X11712Y23353D01*
X11676Y23266D01*
X11664Y23173D01*
X11676Y23080D01*
X11712Y22994D01*
X11769Y22919D01*
X11844Y22862D01*
X11931Y22826D01*
X12024Y22814D01*
X12117Y22826D01*
X12203Y22862D01*
X12278Y22919D01*
X12335Y22994D01*
X12371Y23080D01*
X12383Y23173D01*
X12371Y23266D01*
X12335Y23353D01*
X12278Y23427D01*
X12203Y23484D01*
X12117Y23520D01*
X12024Y23533D01*
D02*
G37*
G36*
X14084Y25607D02*
X13082D01*
Y24904D01*
X14084D01*
Y25607D01*
D02*
G37*
G36*
X39520Y24090D02*
X39220D01*
X39128Y24078D01*
X39043Y24043D01*
X38970Y23986D01*
X38913Y23913D01*
X38878Y23828D01*
X38866Y23736D01*
X38878Y23644D01*
X38913Y23559D01*
X38970Y23485D01*
X39043Y23429D01*
X39128Y23394D01*
X39220Y23382D01*
X39520D01*
X39612Y23394D01*
X39697Y23429D01*
X39771Y23485D01*
X39827Y23559D01*
X39862Y23644D01*
X39874Y23736D01*
X39862Y23828D01*
X39827Y23913D01*
X39771Y23986D01*
X39697Y24043D01*
X39612Y24078D01*
X39520Y24090D01*
D02*
G37*
G36*
X11024Y22533D02*
X10931Y22520D01*
X10844Y22484D01*
X10769Y22427D01*
X10712Y22353D01*
X10676Y22266D01*
X10664Y22173D01*
X10676Y22080D01*
X10712Y21994D01*
X10769Y21919D01*
X10844Y21862D01*
X10931Y21826D01*
X11024Y21814D01*
X11117Y21826D01*
X11203Y21862D01*
X11278Y21919D01*
X11335Y21994D01*
X11371Y22080D01*
X11383Y22173D01*
X11371Y22266D01*
X11335Y22353D01*
X11278Y22427D01*
X11203Y22484D01*
X11117Y22520D01*
X11024Y22533D01*
D02*
G37*
G36*
X7985Y28381D02*
X7685D01*
X7593Y28369D01*
X7508Y28334D01*
X7434Y28278D01*
X7378Y28204D01*
X7343Y28119D01*
X7330Y28027D01*
X7343Y27936D01*
X7378Y27850D01*
X7434Y27777D01*
X7508Y27720D01*
X7593Y27685D01*
X7685Y27673D01*
X7985D01*
X8076Y27685D01*
X8162Y27720D01*
X8235Y27777D01*
X8291Y27850D01*
X8327Y27936D01*
X8339Y28027D01*
X8327Y28119D01*
X8291Y28204D01*
X8235Y28278D01*
X8162Y28334D01*
X8076Y28369D01*
X7985Y28381D01*
D02*
G37*
G36*
X39520Y28342D02*
X39220D01*
X39128Y28330D01*
X39043Y28295D01*
X38970Y28238D01*
X38913Y28165D01*
X38878Y28080D01*
X38866Y27988D01*
X38878Y27896D01*
X38913Y27811D01*
X38970Y27737D01*
X39043Y27681D01*
X39128Y27646D01*
X39220Y27634D01*
X39520D01*
X39612Y27646D01*
X39697Y27681D01*
X39771Y27737D01*
X39827Y27811D01*
X39862Y27896D01*
X39874Y27988D01*
X39862Y28080D01*
X39827Y28165D01*
X39771Y28238D01*
X39697Y28295D01*
X39612Y28330D01*
X39520Y28342D01*
D02*
G37*
G36*
X39815Y20957D02*
X38925D01*
Y20067D01*
X39815D01*
Y20957D01*
D02*
G37*
G36*
X12024Y19533D02*
X11931Y19520D01*
X11844Y19484D01*
X11769Y19427D01*
X11712Y19353D01*
X11676Y19266D01*
X11664Y19173D01*
X11676Y19080D01*
X11712Y18994D01*
X11769Y18919D01*
X11844Y18862D01*
X11931Y18826D01*
X12024Y18814D01*
X12117Y18826D01*
X12203Y18862D01*
X12278Y18919D01*
X12335Y18994D01*
X12371Y19080D01*
X12383Y19173D01*
X12371Y19266D01*
X12335Y19353D01*
X12278Y19427D01*
X12203Y19484D01*
X12117Y19520D01*
X12024Y19533D01*
D02*
G37*
G36*
X39370Y19756D02*
X39254Y19741D01*
X39146Y19696D01*
X39053Y19624D01*
X38981Y19531D01*
X38937Y19423D01*
X38921Y19307D01*
X38937Y19191D01*
X38981Y19083D01*
X39053Y18990D01*
X39146Y18918D01*
X39254Y18874D01*
X39370Y18858D01*
X39486Y18874D01*
X39594Y18918D01*
X39687Y18990D01*
X39759Y19083D01*
X39804Y19191D01*
X39819Y19307D01*
X39804Y19423D01*
X39759Y19531D01*
X39687Y19624D01*
X39594Y19696D01*
X39486Y19741D01*
X39370Y19756D01*
D02*
G37*
G36*
X11024Y28533D02*
X10931Y28520D01*
X10844Y28484D01*
X10769Y28427D01*
X10712Y28353D01*
X10676Y28266D01*
X10664Y28173D01*
X10676Y28080D01*
X10712Y27994D01*
X10769Y27919D01*
X10844Y27862D01*
X10931Y27826D01*
X11024Y27814D01*
X11117Y27826D01*
X11203Y27862D01*
X11278Y27919D01*
X11335Y27994D01*
X11371Y28080D01*
X11383Y28173D01*
X11371Y28266D01*
X11335Y28353D01*
X11278Y28427D01*
X11203Y28484D01*
X11117Y28520D01*
X11024Y28533D01*
D02*
G37*
G36*
X14084Y27733D02*
X13082D01*
Y27030D01*
X14084D01*
Y27733D01*
D02*
G37*
G36*
X11024Y27533D02*
X10931Y27520D01*
X10844Y27484D01*
X10769Y27427D01*
X10712Y27353D01*
X10676Y27266D01*
X10664Y27173D01*
X10676Y27080D01*
X10712Y26994D01*
X10769Y26919D01*
X10844Y26862D01*
X10931Y26826D01*
X11024Y26814D01*
X11117Y26826D01*
X11203Y26862D01*
X11278Y26919D01*
X11335Y26994D01*
X11371Y27080D01*
X11383Y27173D01*
X11371Y27266D01*
X11335Y27353D01*
X11278Y27427D01*
X11203Y27484D01*
X11117Y27520D01*
X11024Y27533D01*
D02*
G37*
G36*
X12024Y21533D02*
X11931Y21520D01*
X11844Y21484D01*
X11769Y21427D01*
X11712Y21353D01*
X11681Y21276D01*
X11367D01*
X11335Y21353D01*
X11278Y21427D01*
X11203Y21484D01*
X11117Y21520D01*
X11024Y21533D01*
X10931Y21520D01*
X10844Y21484D01*
X10769Y21427D01*
X10712Y21353D01*
X10676Y21266D01*
X10664Y21173D01*
X10676Y21080D01*
X10712Y20994D01*
X10769Y20919D01*
X10844Y20862D01*
X10920Y20830D01*
Y20516D01*
X10844Y20484D01*
X10769Y20427D01*
X10712Y20353D01*
X10676Y20266D01*
X10664Y20173D01*
X10676Y20080D01*
X10712Y19994D01*
X10769Y19919D01*
X10844Y19862D01*
X10931Y19826D01*
X11024Y19814D01*
X11117Y19826D01*
X11203Y19862D01*
X11278Y19919D01*
X11335Y19994D01*
X11367Y20070D01*
X11681D01*
X11712Y19994D01*
X11769Y19919D01*
X11844Y19862D01*
X11931Y19826D01*
X12024Y19814D01*
X12117Y19826D01*
X12203Y19862D01*
X12278Y19919D01*
X12335Y19994D01*
X12371Y20080D01*
X12383Y20173D01*
X12371Y20266D01*
X12335Y20353D01*
X12278Y20427D01*
X12203Y20484D01*
X12117Y20520D01*
X12024Y20533D01*
X11931Y20520D01*
X11844Y20484D01*
X11769Y20427D01*
X11712Y20353D01*
X11681Y20276D01*
X11367D01*
X11335Y20353D01*
X11278Y20427D01*
X11203Y20484D01*
X11127Y20516D01*
Y20830D01*
X11203Y20862D01*
X11278Y20919D01*
X11335Y20994D01*
X11367Y21070D01*
X11681D01*
X11712Y20994D01*
X11769Y20919D01*
X11844Y20862D01*
X11931Y20826D01*
X12024Y20814D01*
X12117Y20826D01*
X12203Y20862D01*
X12278Y20919D01*
X12335Y20994D01*
X12371Y21080D01*
X12383Y21173D01*
X12371Y21266D01*
X12335Y21353D01*
X12278Y21427D01*
X12203Y21484D01*
X12117Y21520D01*
X12024Y21533D01*
D02*
G37*
G36*
X13733Y22358D02*
X13433D01*
X13341Y22346D01*
X13256Y22310D01*
X13182Y22254D01*
X13126Y22181D01*
X13091Y22095D01*
X13078Y22004D01*
X13091Y21912D01*
X13126Y21827D01*
X13182Y21753D01*
X13256Y21697D01*
X13341Y21661D01*
X13433Y21649D01*
X13733D01*
X13824Y21661D01*
X13910Y21697D01*
X13983Y21753D01*
X14039Y21827D01*
X14075Y21912D01*
X14087Y22004D01*
X14075Y22095D01*
X14039Y22181D01*
X13983Y22254D01*
X13910Y22310D01*
X13824Y22346D01*
X13733Y22358D01*
D02*
G37*
G36*
X14084Y21355D02*
X13082D01*
Y20652D01*
X14084D01*
Y21355D01*
D02*
G37*
G36*
X12024Y27533D02*
X11931Y27520D01*
X11844Y27484D01*
X11769Y27427D01*
X11712Y27353D01*
X11676Y27266D01*
X11664Y27173D01*
X11676Y27080D01*
X11712Y26994D01*
X11769Y26919D01*
X11844Y26862D01*
X11931Y26826D01*
X12024Y26814D01*
X12117Y26826D01*
X12203Y26862D01*
X12278Y26919D01*
X12335Y26994D01*
X12371Y27080D01*
X12383Y27173D01*
X12371Y27266D01*
X12335Y27353D01*
X12278Y27427D01*
X12203Y27484D01*
X12117Y27520D01*
X12024Y27533D01*
D02*
G37*
G36*
X39370Y21961D02*
X39254Y21945D01*
X39146Y21900D01*
X39053Y21829D01*
X38981Y21736D01*
X38937Y21628D01*
X38921Y21512D01*
X38937Y21396D01*
X38981Y21287D01*
X39053Y21195D01*
X39146Y21123D01*
X39254Y21078D01*
X39370Y21063D01*
X39486Y21078D01*
X39594Y21123D01*
X39687Y21195D01*
X39759Y21287D01*
X39804Y21396D01*
X39819Y21512D01*
X39804Y21628D01*
X39759Y21736D01*
X39687Y21829D01*
X39594Y21900D01*
X39486Y21945D01*
X39370Y21961D01*
D02*
G37*
%LPD*%
D10*
X31772Y22860D02*
D03*
Y23096D02*
D03*
Y23333D02*
D03*
Y23569D02*
D03*
Y23805D02*
D03*
Y24041D02*
D03*
Y24277D02*
D03*
Y24513D02*
D03*
Y24749D02*
D03*
Y24985D02*
D03*
Y25222D02*
D03*
Y25458D02*
D03*
Y25694D02*
D03*
Y25930D02*
D03*
Y26166D02*
D03*
Y26402D02*
D03*
Y26638D02*
D03*
Y26874D02*
D03*
Y27111D02*
D03*
Y27347D02*
D03*
Y27583D02*
D03*
Y27819D02*
D03*
Y28055D02*
D03*
Y28291D02*
D03*
Y28527D02*
D03*
Y28763D02*
D03*
Y29000D02*
D03*
Y29236D02*
D03*
Y29472D02*
D03*
Y29708D02*
D03*
Y29944D02*
D03*
Y30180D02*
D03*
Y30416D02*
D03*
Y30652D02*
D03*
Y30889D02*
D03*
Y31125D02*
D03*
Y31361D02*
D03*
Y31597D02*
D03*
Y31833D02*
D03*
Y32069D02*
D03*
Y32305D02*
D03*
Y32541D02*
D03*
Y32778D02*
D03*
Y33014D02*
D03*
Y33250D02*
D03*
Y33486D02*
D03*
Y33722D02*
D03*
Y33958D02*
D03*
Y34194D02*
D03*
Y34430D02*
D03*
Y34667D02*
D03*
Y34903D02*
D03*
Y35139D02*
D03*
Y35375D02*
D03*
Y35611D02*
D03*
Y35847D02*
D03*
Y36083D02*
D03*
Y36319D02*
D03*
Y36556D02*
D03*
Y36792D02*
D03*
Y37028D02*
D03*
Y37264D02*
D03*
Y37500D02*
D03*
X28543Y20617D02*
D03*
Y20853D02*
D03*
Y21089D02*
D03*
Y21326D02*
D03*
Y21562D02*
D03*
Y21798D02*
D03*
Y22270D02*
D03*
Y22506D02*
D03*
Y22742D02*
D03*
Y22979D02*
D03*
Y23215D02*
D03*
Y23451D02*
D03*
Y23687D02*
D03*
Y23923D02*
D03*
Y24159D02*
D03*
Y24395D02*
D03*
Y24631D02*
D03*
Y24868D02*
D03*
Y25104D02*
D03*
Y25340D02*
D03*
Y25576D02*
D03*
Y25812D02*
D03*
Y26048D02*
D03*
Y26284D02*
D03*
Y26520D02*
D03*
Y26757D02*
D03*
Y26993D02*
D03*
Y27229D02*
D03*
Y27465D02*
D03*
Y27701D02*
D03*
Y27937D02*
D03*
Y28173D02*
D03*
Y28409D02*
D03*
Y28646D02*
D03*
Y28882D02*
D03*
Y29118D02*
D03*
Y29354D02*
D03*
Y29590D02*
D03*
Y30061D02*
D03*
Y30298D02*
D03*
Y30534D02*
D03*
Y30770D02*
D03*
Y31006D02*
D03*
Y31242D02*
D03*
Y31478D02*
D03*
Y31714D02*
D03*
Y31950D02*
D03*
Y32187D02*
D03*
Y32423D02*
D03*
Y32659D02*
D03*
Y32895D02*
D03*
Y33131D02*
D03*
Y33367D02*
D03*
Y33603D02*
D03*
Y33839D02*
D03*
Y34076D02*
D03*
Y34312D02*
D03*
Y34548D02*
D03*
Y34784D02*
D03*
Y35020D02*
D03*
Y35256D02*
D03*
Y35492D02*
D03*
Y35728D02*
D03*
Y35965D02*
D03*
Y36201D02*
D03*
Y36437D02*
D03*
Y36673D02*
D03*
Y36909D02*
D03*
Y37145D02*
D03*
Y37381D02*
D03*
Y37617D02*
D03*
Y22034D02*
D03*
Y29826D02*
D03*
X31772Y20735D02*
D03*
Y20971D02*
D03*
Y21208D02*
D03*
Y21444D02*
D03*
Y21680D02*
D03*
Y21916D02*
D03*
Y22152D02*
D03*
Y22388D02*
D03*
Y22624D02*
D03*
X28543Y20381D02*
D03*
X31772Y20499D02*
D03*
Y20263D02*
D03*
X28543Y20145D02*
D03*
Y19909D02*
D03*
Y19673D02*
D03*
Y19437D02*
D03*
Y19201D02*
D03*
Y18964D02*
D03*
X31772Y20027D02*
D03*
Y19791D02*
D03*
Y19555D02*
D03*
Y19319D02*
D03*
Y19082D02*
D03*
Y18846D02*
D03*
X28543Y17303D02*
D03*
Y17067D02*
D03*
Y16831D02*
D03*
Y16594D02*
D03*
Y16358D02*
D03*
X31772Y17185D02*
D03*
Y16949D02*
D03*
Y16713D02*
D03*
Y16476D02*
D03*
Y16240D02*
D03*
Y16004D02*
D03*
Y15768D02*
D03*
Y15532D02*
D03*
X28543Y16122D02*
D03*
Y15886D02*
D03*
Y15650D02*
D03*
Y15413D02*
D03*
X31772Y15295D02*
D03*
X28543Y15177D02*
D03*
Y14941D02*
D03*
Y14705D02*
D03*
Y14468D02*
D03*
Y14232D02*
D03*
Y13996D02*
D03*
Y13760D02*
D03*
X31772Y15059D02*
D03*
Y14823D02*
D03*
Y14350D02*
D03*
Y14114D02*
D03*
Y13878D02*
D03*
Y13642D02*
D03*
Y13406D02*
D03*
Y13169D02*
D03*
Y12933D02*
D03*
Y14587D02*
D03*
X28543Y13524D02*
D03*
Y13287D02*
D03*
Y13051D02*
D03*
Y12815D02*
D03*
X31772Y12697D02*
D03*
X18701Y22860D02*
D03*
Y23096D02*
D03*
Y23333D02*
D03*
Y23569D02*
D03*
Y23805D02*
D03*
Y24041D02*
D03*
Y24277D02*
D03*
Y24513D02*
D03*
Y24749D02*
D03*
Y24985D02*
D03*
Y25222D02*
D03*
Y25458D02*
D03*
Y25694D02*
D03*
Y25930D02*
D03*
Y26166D02*
D03*
Y26402D02*
D03*
Y26638D02*
D03*
Y26874D02*
D03*
Y27111D02*
D03*
Y27347D02*
D03*
Y27583D02*
D03*
Y27819D02*
D03*
Y28055D02*
D03*
Y28291D02*
D03*
Y28527D02*
D03*
Y28763D02*
D03*
Y29000D02*
D03*
Y29236D02*
D03*
Y29472D02*
D03*
Y29708D02*
D03*
Y29944D02*
D03*
Y30180D02*
D03*
Y30416D02*
D03*
Y30652D02*
D03*
Y30889D02*
D03*
Y31125D02*
D03*
Y31361D02*
D03*
Y31597D02*
D03*
Y31833D02*
D03*
Y32069D02*
D03*
Y32305D02*
D03*
Y32541D02*
D03*
Y32778D02*
D03*
Y33014D02*
D03*
Y33250D02*
D03*
Y33486D02*
D03*
Y33722D02*
D03*
Y33958D02*
D03*
Y34194D02*
D03*
Y34430D02*
D03*
Y34667D02*
D03*
Y34903D02*
D03*
Y35139D02*
D03*
Y35375D02*
D03*
Y35611D02*
D03*
Y35847D02*
D03*
Y36083D02*
D03*
Y36319D02*
D03*
Y36556D02*
D03*
Y36792D02*
D03*
Y37028D02*
D03*
Y37264D02*
D03*
Y37500D02*
D03*
X15472Y20617D02*
D03*
Y20853D02*
D03*
Y21089D02*
D03*
Y21326D02*
D03*
Y21562D02*
D03*
Y21798D02*
D03*
Y22270D02*
D03*
Y22506D02*
D03*
Y22742D02*
D03*
Y22979D02*
D03*
Y23215D02*
D03*
Y23451D02*
D03*
Y23687D02*
D03*
Y23923D02*
D03*
Y24159D02*
D03*
Y24395D02*
D03*
Y24631D02*
D03*
Y24868D02*
D03*
Y25104D02*
D03*
Y25340D02*
D03*
Y25576D02*
D03*
Y25812D02*
D03*
Y26048D02*
D03*
Y26284D02*
D03*
Y26520D02*
D03*
Y26757D02*
D03*
Y26993D02*
D03*
Y27229D02*
D03*
Y27465D02*
D03*
Y27701D02*
D03*
Y27937D02*
D03*
Y28173D02*
D03*
Y28409D02*
D03*
Y28646D02*
D03*
Y28882D02*
D03*
Y29118D02*
D03*
Y29354D02*
D03*
Y29590D02*
D03*
Y30061D02*
D03*
Y30298D02*
D03*
Y30534D02*
D03*
Y30770D02*
D03*
Y31006D02*
D03*
Y31242D02*
D03*
Y31478D02*
D03*
Y31714D02*
D03*
Y31950D02*
D03*
Y32187D02*
D03*
Y32423D02*
D03*
Y32659D02*
D03*
Y32895D02*
D03*
Y33131D02*
D03*
Y33367D02*
D03*
Y33603D02*
D03*
Y33839D02*
D03*
Y34076D02*
D03*
Y34312D02*
D03*
Y34548D02*
D03*
Y34784D02*
D03*
Y35020D02*
D03*
Y35256D02*
D03*
Y35492D02*
D03*
Y35728D02*
D03*
Y35965D02*
D03*
Y36201D02*
D03*
Y36437D02*
D03*
Y36673D02*
D03*
Y36909D02*
D03*
Y37145D02*
D03*
Y37381D02*
D03*
Y37617D02*
D03*
Y22034D02*
D03*
Y29826D02*
D03*
X18701Y20735D02*
D03*
Y20971D02*
D03*
Y21208D02*
D03*
Y21444D02*
D03*
Y21680D02*
D03*
Y21916D02*
D03*
Y22152D02*
D03*
Y22388D02*
D03*
Y22624D02*
D03*
X15472Y20381D02*
D03*
X18701Y20499D02*
D03*
Y20263D02*
D03*
X15472Y20145D02*
D03*
Y19909D02*
D03*
Y19673D02*
D03*
Y19437D02*
D03*
Y19201D02*
D03*
Y18964D02*
D03*
X18701Y20027D02*
D03*
Y19791D02*
D03*
Y19555D02*
D03*
Y19319D02*
D03*
Y19082D02*
D03*
Y18846D02*
D03*
X15472Y17303D02*
D03*
Y17067D02*
D03*
Y16831D02*
D03*
Y16594D02*
D03*
Y16358D02*
D03*
X18701Y17185D02*
D03*
Y16949D02*
D03*
Y16713D02*
D03*
Y16476D02*
D03*
Y16240D02*
D03*
Y16004D02*
D03*
Y15768D02*
D03*
Y15532D02*
D03*
X15472Y16122D02*
D03*
Y15886D02*
D03*
Y15650D02*
D03*
Y15413D02*
D03*
X18701Y15295D02*
D03*
X15472Y15177D02*
D03*
Y14941D02*
D03*
Y14705D02*
D03*
Y14468D02*
D03*
Y14232D02*
D03*
Y13996D02*
D03*
Y13760D02*
D03*
X18701Y15059D02*
D03*
Y14823D02*
D03*
Y14350D02*
D03*
Y14114D02*
D03*
Y13878D02*
D03*
Y13642D02*
D03*
Y13406D02*
D03*
Y13169D02*
D03*
Y12933D02*
D03*
Y14587D02*
D03*
X15472Y13524D02*
D03*
Y13287D02*
D03*
Y13051D02*
D03*
Y12815D02*
D03*
X18701Y12697D02*
D03*
D11*
X24823Y26191D02*
D03*
X24291D02*
D03*
X24833Y27106D02*
D03*
X24301D02*
D03*
X24803Y28809D02*
D03*
X24272D02*
D03*
X24823Y29656D02*
D03*
X24291D02*
D03*
X24833Y30512D02*
D03*
X24301D02*
D03*
X24833Y31437D02*
D03*
X24301D02*
D03*
X27215Y31496D02*
D03*
X26683D02*
D03*
X24803Y27953D02*
D03*
X24272D02*
D03*
D12*
X19902Y27561D02*
D03*
Y27061D02*
D03*
Y26561D02*
D03*
Y26061D02*
D03*
X21831Y27561D02*
D03*
Y27061D02*
D03*
Y26561D02*
D03*
Y26061D02*
D03*
X19902Y17718D02*
D03*
Y17219D02*
D03*
Y16718D02*
D03*
Y16219D02*
D03*
X21831Y17718D02*
D03*
Y17219D02*
D03*
Y16718D02*
D03*
Y16219D02*
D03*
X27343Y19407D02*
D03*
Y19907D02*
D03*
Y20407D02*
D03*
Y20907D02*
D03*
X25413Y19407D02*
D03*
Y19907D02*
D03*
Y20407D02*
D03*
Y20907D02*
D03*
X27343Y22203D02*
D03*
Y22703D02*
D03*
Y23203D02*
D03*
Y23703D02*
D03*
X25413Y22203D02*
D03*
Y22703D02*
D03*
Y23203D02*
D03*
Y23703D02*
D03*
D13*
X22795Y26511D02*
D03*
Y27111D02*
D03*
Y16668D02*
D03*
Y17269D02*
D03*
X24449Y20457D02*
D03*
Y19857D02*
D03*
Y23253D02*
D03*
Y22653D02*
D03*
D14*
X24304Y22798D02*
X24449Y22653D01*
X24304Y22781D02*
Y22798D01*
X24158Y22635D02*
X24304Y22781D01*
X23952Y22635D02*
X24158D01*
X23806Y22781D02*
X23952Y22635D01*
X23806Y22781D02*
Y23915D01*
X23698Y24023D02*
X23806Y23915D01*
X23698Y24023D02*
Y25386D01*
X23901Y25589D01*
X23935D01*
X23547Y27448D02*
X23659Y27561D01*
X23547Y22290D02*
Y27448D01*
Y22290D02*
X23570Y22266D01*
X29741Y17330D02*
X30368D01*
X29432Y17020D02*
X29741Y17330D01*
X32400Y17646D02*
X32411Y17657D01*
X30684Y17646D02*
X32400D01*
X30368Y17330D02*
X30684Y17646D01*
X29432Y12714D02*
Y17020D01*
X28189Y11471D02*
X29432Y12714D01*
X28189Y10758D02*
Y11471D01*
X25995Y19330D02*
X26526Y18799D01*
X26007Y19330D02*
Y19506D01*
X25606Y19907D02*
X26007Y19506D01*
X25413Y19907D02*
X25606D01*
X23232Y17293D02*
X24902D01*
X21831Y17718D02*
X22823D01*
X23232Y17310D01*
Y17293D02*
Y17310D01*
X24450Y15749D02*
X25068D01*
X23717D02*
X24430D01*
X32343Y15768D02*
X32780Y16205D01*
Y17112D01*
X32756Y17136D02*
Y20137D01*
Y17136D02*
X32780Y17112D01*
X23625Y20596D02*
Y22212D01*
X23612Y22224D02*
X23625Y22212D01*
X23612Y20583D02*
X23625Y20596D01*
X23612Y20049D02*
Y20583D01*
X21092Y29126D02*
Y29281D01*
X21080Y29114D02*
X21092Y29126D01*
X21080Y28454D02*
Y29114D01*
Y28454D02*
X21167Y28366D01*
Y27061D02*
Y28366D01*
X20276Y12707D02*
X21046Y13477D01*
X21233D01*
X22205Y14449D01*
X20276Y9754D02*
Y12707D01*
X33248Y39095D02*
X34675Y37668D01*
X28957Y39095D02*
X33248D01*
X35713Y36410D02*
X36322Y35801D01*
X35490Y36410D02*
X35713D01*
X33087Y38813D02*
X35490Y36410D01*
X28921Y38813D02*
X33087D01*
X27923Y37815D02*
X28921Y38813D01*
X27923Y28651D02*
Y37815D01*
X27392Y35581D02*
Y37530D01*
X26978Y35551D02*
Y38051D01*
X28199Y39272D02*
X33730D01*
X26978Y38051D02*
X28199Y39272D01*
X33730D02*
X35167Y37835D01*
X27392Y37530D02*
X28957Y39095D01*
X24861Y25589D02*
X27923Y28651D01*
X27165Y30030D02*
Y31447D01*
X34055Y35197D02*
Y37559D01*
X32953Y38661D02*
X34055Y37559D01*
X31024Y38661D02*
X32953D01*
X35167Y37510D02*
Y37835D01*
Y37510D02*
X36841Y35837D01*
X35915Y34606D02*
X36378Y35069D01*
X36322Y35796D02*
X36428D01*
X36322D02*
Y35801D01*
X35915Y18081D02*
Y34606D01*
X35450Y17615D02*
X35915Y18081D01*
X35433Y17615D02*
X35450D01*
X36073Y15533D02*
X36433Y15173D01*
X36102Y15563D02*
Y15854D01*
X36027Y15929D02*
X36102Y15854D01*
X36027Y15929D02*
Y16342D01*
X36265Y16580D01*
X36687D01*
X36699Y16568D01*
X36969Y18426D02*
Y18920D01*
Y18426D02*
X36991Y18404D01*
Y17942D02*
Y18404D01*
X36969Y17920D02*
X36991Y17942D01*
X36969Y17426D02*
Y17920D01*
X36817Y18364D02*
Y18983D01*
Y18364D02*
X36839Y18342D01*
Y18005D02*
Y18342D01*
X36817Y17983D02*
X36839Y18005D01*
X36817Y17364D02*
Y17983D01*
X36969Y19426D02*
Y19920D01*
Y19426D02*
X36991Y19404D01*
Y18942D02*
Y19404D01*
X36969Y18920D02*
X36991Y18942D01*
X36817Y19364D02*
Y19983D01*
Y19364D02*
X36839Y19342D01*
Y19005D02*
Y19342D01*
X36817Y18983D02*
X36839Y19005D01*
X36969Y20426D02*
Y20920D01*
Y20426D02*
X36991Y20404D01*
Y19942D02*
Y20404D01*
X36969Y19920D02*
X36991Y19942D01*
X36817Y20364D02*
Y20983D01*
Y20364D02*
X36839Y20342D01*
Y20005D02*
Y20342D01*
X36817Y19983D02*
X36839Y20005D01*
X36991Y21180D02*
X37874Y22063D01*
X36991Y20942D02*
Y21180D01*
X36969Y20920D02*
X36991Y20942D01*
X36839Y21242D02*
X36890Y21293D01*
X36839Y21005D02*
Y21242D01*
X36817Y20983D02*
X36839Y21005D01*
X36969Y17426D02*
X36991Y17404D01*
Y16942D02*
Y17404D01*
X36969Y16920D02*
X36991Y16942D01*
X36969Y15396D02*
Y16920D01*
X36817Y17364D02*
X36839Y17342D01*
Y17005D02*
Y17342D01*
X36817Y16983D02*
X36839Y17005D01*
X36817Y16686D02*
Y16983D01*
X36890Y21293D02*
Y35335D01*
X36699Y16568D02*
X36817Y16686D01*
X36969Y15396D02*
X36969Y15395D01*
Y14951D02*
Y15395D01*
X36969Y14950D02*
X36969Y14951D01*
X36969Y13898D02*
Y14950D01*
X35839Y16804D02*
Y17022D01*
X35620Y16585D02*
X35839Y16804D01*
X34882Y16585D02*
X35620D01*
X35839Y17022D02*
X35991Y17173D01*
X34104Y17362D02*
X34882Y16585D01*
X11024Y18173D02*
X12024D01*
Y17173D02*
Y18173D01*
X11024Y17173D02*
X12024D01*
X26348Y32362D02*
X27215Y31496D01*
X25197Y32362D02*
X26348D01*
X23659Y30825D02*
X23740Y30906D01*
X23659Y27561D02*
Y30825D01*
X27165Y31447D02*
X27215Y31496D01*
X26230Y30512D02*
X27165Y31447D01*
X33681Y15305D02*
Y17421D01*
X35433Y19173D01*
X15387Y29911D02*
X15472Y29826D01*
X14636Y29911D02*
X15387D01*
X24833Y30512D02*
X26230D01*
X24291Y29656D02*
Y31427D01*
X24301Y31437D02*
X24311Y31447D01*
Y32087D01*
X26093D01*
X26683Y31496D01*
X24833Y30512D02*
Y31437D01*
X24823Y30502D02*
X24833Y30512D01*
X24823Y29656D02*
Y30502D01*
X14301Y24774D02*
X14867Y25340D01*
X14301Y20451D02*
Y24774D01*
X12024Y18173D02*
X14301Y20451D01*
X11024Y20173D02*
X12024D01*
X11024D02*
Y21173D01*
X12024D01*
X21210Y18150D02*
X21642Y17718D01*
X35991Y17173D02*
X36433D01*
X35433D02*
Y17615D01*
X36428Y35796D02*
X36890Y35335D01*
X37165Y20354D02*
X37874Y21063D01*
X37165Y13740D02*
Y20354D01*
X30039Y15748D02*
X30472D01*
X24823Y26191D02*
Y28789D01*
X19679Y24041D02*
X21496Y22224D01*
X24301Y27106D02*
Y28780D01*
X22788Y26504D02*
X22795Y26511D01*
X30472Y15748D02*
X30689Y15532D01*
X31772D01*
X28189Y10394D02*
Y10758D01*
X26929Y9134D02*
X28189Y10394D01*
X20896Y9134D02*
X26929D01*
X20276Y9754D02*
X20896Y9134D01*
X25561Y14498D02*
Y15256D01*
X25068Y15749D02*
X25561Y15256D01*
X23716Y15748D02*
X23717Y15749D01*
X24902Y17293D02*
X25413Y17805D01*
X34055Y35197D02*
X34291Y34961D01*
X26703Y34892D02*
X27392Y35581D01*
X21092Y29281D02*
X22628Y30817D01*
X21167Y27061D02*
X21831D01*
X23935Y25589D02*
X24861D01*
X23570Y22266D02*
X23612Y22224D01*
X24055Y22884D02*
Y23238D01*
X24040Y23253D02*
X24055Y23238D01*
X26526Y18573D02*
X27628Y17470D01*
X26526Y18573D02*
Y18799D01*
X22205Y14449D02*
Y15030D01*
X21083Y16152D02*
X22205Y15030D01*
X21083Y16152D02*
Y17195D01*
X21106Y17219D01*
X21831D01*
X21642Y17718D02*
X21831D01*
X24291Y26594D02*
Y27096D01*
Y26191D02*
Y26594D01*
X24033D02*
X24291D01*
X24006Y26622D02*
X24033Y26594D01*
X22745Y26561D02*
X22795Y26511D01*
X22788Y25849D02*
Y26504D01*
X24040Y23253D02*
X24449D01*
X23917Y20463D02*
X23922Y20457D01*
X24449D01*
X21831Y16219D02*
Y16718D01*
X22795Y16668D02*
X23716Y15748D01*
X25413Y17805D02*
Y19407D01*
X21831Y27561D02*
X23659D01*
X25392Y22224D02*
X25413Y22203D01*
X23612Y22224D02*
X25392D01*
X17652Y24041D02*
X19679D01*
X24254Y19407D02*
X25413D01*
X23612Y20049D02*
X24254Y19407D01*
X21496Y22224D02*
X23612D01*
X24803Y29636D02*
X24823Y29656D01*
X24803Y28809D02*
Y29636D01*
Y28809D02*
X24823Y28789D01*
X18701Y31361D02*
X18777Y31437D01*
X24301D01*
X24291Y31427D02*
X24301Y31437D01*
X24272Y29636D02*
X24291Y29656D01*
X24272Y28809D02*
Y29636D01*
Y28809D02*
X24301Y28780D01*
X24291Y27096D02*
X24301Y27106D01*
X33622Y27382D02*
X34724Y26279D01*
Y20354D02*
Y26279D01*
X33465Y19094D02*
X34724Y20354D01*
X33622Y25256D02*
X34488Y24389D01*
Y20433D02*
Y24389D01*
X33228Y19173D02*
X34488Y20433D01*
X33465Y15945D02*
Y19094D01*
X33228Y16024D02*
Y19173D01*
X32579Y15059D02*
X33465Y15945D01*
X32500Y15295D02*
X33228Y16024D01*
X32992Y19252D02*
X34252Y20512D01*
X32992Y16102D02*
Y19252D01*
X32421Y15532D02*
X32992Y16102D01*
X31772Y15532D02*
X32421D01*
X31772Y15059D02*
X32579D01*
X34252Y20512D02*
Y22500D01*
X33622Y23130D02*
X34252Y22500D01*
X32756Y20137D02*
X33622Y21004D01*
X31772Y15768D02*
X32343D01*
X31299Y37992D02*
X32677D01*
X29272Y35965D02*
X31299Y37992D01*
X28543Y35965D02*
X29272D01*
X31220Y38228D02*
X32756D01*
X29193Y36201D02*
X31220Y38228D01*
X28543Y36201D02*
X29193D01*
X31142Y38465D02*
X32835D01*
X29114Y36437D02*
X31142Y38465D01*
X28543Y36437D02*
X29114D01*
X29035Y36673D02*
X31024Y38661D01*
X28543Y36673D02*
X29035D01*
X32677Y37992D02*
X33346Y37323D01*
X32756Y38228D02*
X33583Y37402D01*
X32835Y38465D02*
X33819Y37480D01*
Y34449D02*
Y37480D01*
X33346Y35039D02*
Y37323D01*
X33150Y34843D02*
X33346Y35039D01*
X33150Y33465D02*
Y34843D01*
Y33465D02*
X33661Y32953D01*
X33583Y34921D02*
Y37402D01*
X33386Y34724D02*
X33583Y34921D01*
X33386Y33937D02*
Y34724D01*
Y33937D02*
X33661Y33661D01*
X21831Y16718D02*
X22745D01*
X21831Y17219D02*
X22745D01*
X24499Y20407D02*
X25413D01*
X24449Y20457D02*
X24499Y20407D01*
Y19907D02*
X25413D01*
X24449Y19857D02*
X24499Y19907D01*
X25413Y20407D02*
Y20907D01*
X27343Y22203D02*
Y22703D01*
X24499Y23203D02*
X25413D01*
X24449Y23253D02*
X24499Y23203D01*
Y22703D02*
X25413D01*
X16260Y17047D02*
X17913D01*
X18012Y13169D02*
X18701D01*
X8465Y18622D02*
X9449Y19606D01*
X8661Y17819D02*
X9449Y18606D01*
X9488Y21063D02*
X10197Y20354D01*
X9488Y22063D02*
X10394Y21157D01*
X21831Y26061D02*
Y26561D01*
X22745D01*
X21831Y27061D02*
X22745D01*
X22795Y27111D01*
X19902Y27061D02*
Y27561D01*
X25413Y23203D02*
Y23703D01*
X31772Y14587D02*
X33366D01*
X31772Y13406D02*
X34232D01*
X37874Y17008D02*
Y17087D01*
X31772Y13169D02*
X34114D01*
X31772Y14823D02*
X33445D01*
X31772Y12697D02*
X32539D01*
X34646Y10591D01*
X31772Y12933D02*
X32657D01*
X34764Y10827D01*
X8858Y16535D02*
X9449Y17126D01*
X8858Y15748D02*
Y16535D01*
X8661Y15591D02*
Y17819D01*
X8465Y15433D02*
Y18622D01*
X10394Y13740D02*
Y21157D01*
X14685Y12520D02*
X16457D01*
X17323Y13386D01*
X14567Y12323D02*
X16575D01*
X17520Y13268D01*
X10197Y13622D02*
Y20354D01*
X14488Y12126D02*
X16693D01*
X17972Y13406D01*
X18701D01*
X14409Y11929D02*
X16772D01*
X18012Y13169D01*
X13661Y13543D02*
X14685Y12520D01*
X10591Y13543D02*
X13661D01*
X10394Y13740D02*
X10591Y13543D01*
X10197Y13622D02*
X10472Y13346D01*
X13543D01*
X14567Y12323D01*
X10394Y13150D02*
X13465D01*
X14488Y12126D01*
X10276Y12953D02*
X13386D01*
X14409Y11929D01*
X10157Y12756D02*
X13268D01*
X14291Y11732D01*
X16890D01*
X18091Y12933D01*
X18701D01*
X17008Y11535D02*
X18169Y12697D01*
X18701D01*
X17520Y13268D02*
Y13858D01*
X18248Y14587D01*
X18701D01*
X17323Y13386D02*
Y13937D01*
X18209Y14823D01*
X18701D01*
X7244Y22185D02*
X7835Y22775D01*
X7244Y15669D02*
Y22185D01*
Y15669D02*
X9055Y13858D01*
X8858Y12795D02*
Y13701D01*
X8661Y12717D02*
Y13583D01*
X8858Y12795D02*
X11220Y10433D01*
X19429Y13878D02*
X19685Y13622D01*
X18701Y13878D02*
X19429D01*
X18701Y13642D02*
X19350D01*
X19488Y13504D01*
X8661Y12717D02*
X11142Y10236D01*
X18701Y14114D02*
X19508D01*
X19882Y13740D01*
X18150Y11339D02*
X19488Y12677D01*
Y13504D01*
X19685Y12598D02*
Y13622D01*
X18228Y11142D02*
X19685Y12598D01*
X18307Y10945D02*
X19882Y12520D01*
Y13740D01*
X13583Y10827D02*
X14291Y11535D01*
X17008D01*
X13701Y10630D02*
X14409Y11339D01*
X18150D01*
X11220Y10433D02*
X13819D01*
X14528Y11142D01*
X18228D01*
X11142Y10236D02*
X13937D01*
X14646Y10945D01*
X18307D01*
X8465Y12638D02*
Y13425D01*
Y12638D02*
X11063Y10039D01*
X18386Y10748D02*
X20079Y12441D01*
Y13819D01*
X19547Y14350D02*
X20079Y13819D01*
X18701Y14350D02*
X19547D01*
X11063Y10039D02*
X14055D01*
X14764Y10748D01*
X18386D01*
X9055Y12874D02*
Y13858D01*
Y12874D02*
X11299Y10630D01*
X13701D01*
X11378Y10827D02*
X13583D01*
X10000Y13543D02*
X10394Y13150D01*
X10000Y13543D02*
Y15575D01*
X9449Y16126D02*
X10000Y15575D01*
X9488Y13425D02*
X10157Y12756D01*
X9488Y13425D02*
Y14764D01*
X8661Y15591D02*
X9488Y14764D01*
X9291Y12913D02*
X11378Y10827D01*
X9291Y12913D02*
Y14606D01*
X8465Y15433D02*
X9291Y14606D01*
X9685Y13543D02*
X10276Y12953D01*
X9685Y13543D02*
Y14921D01*
X8858Y15748D02*
X9685Y14921D01*
X7008Y15551D02*
X8858Y13701D01*
X7008Y15551D02*
Y24074D01*
X7835Y24901D01*
X6772Y15472D02*
X8661Y13583D01*
X6772Y15472D02*
Y25964D01*
X7835Y27027D01*
X6535Y15354D02*
X8465Y13425D01*
X6535Y15354D02*
Y27854D01*
X7835Y29153D01*
X13032Y35669D02*
X13327Y35965D01*
X15472D01*
X13032Y36339D02*
X13169Y36201D01*
X15472D01*
X13032Y37008D02*
X13603Y36437D01*
X15472D01*
X12402Y37441D02*
X13307D01*
X14075Y36673D01*
X15472D01*
X14867Y25340D02*
X16353D01*
X17652Y24041D01*
X37874Y18567D02*
X38622Y17819D01*
X37874Y19567D02*
X38819Y18622D01*
X37874Y17087D02*
X38425Y16535D01*
X33445Y14823D02*
X34646Y13622D01*
X33366Y14587D02*
X34567Y13386D01*
X34232Y13406D02*
X34488Y13150D01*
X34114Y13169D02*
X34370Y12913D01*
X34764Y10827D02*
X35827D01*
X34646Y10591D02*
X35906D01*
X35827Y10827D02*
X36496Y11496D01*
Y12126D01*
X38622Y14252D01*
Y17819D01*
X38819Y14134D02*
Y18622D01*
X36732Y12047D02*
X38819Y14134D01*
X36732Y11417D02*
Y12047D01*
X35906Y10591D02*
X36732Y11417D01*
X34370Y12913D02*
X36969D01*
X38425Y14370D01*
Y16535D01*
X34488Y13150D02*
X36890D01*
X37874Y14134D01*
Y16087D01*
X34567Y13386D02*
X36811D01*
X37165Y13740D01*
X34646Y13622D02*
X36693D01*
X36969Y13898D01*
X30768Y13642D02*
X31772D01*
X33189Y10236D02*
X35906D01*
X36969Y11299D01*
X30689Y13878D02*
X31772D01*
X33110Y10000D02*
X35984D01*
X37205Y11220D01*
X30610Y14114D02*
X31772D01*
X30039Y13543D02*
X30610Y14114D01*
X30039Y12756D02*
Y13543D01*
Y12756D02*
X33031Y9764D01*
X36063D01*
X37441Y11142D01*
X32953Y9528D02*
X36181D01*
X37677Y11024D01*
X30531Y14350D02*
X31772D01*
X30512Y12913D02*
X33189Y10236D01*
X30512Y12913D02*
Y13386D01*
X30768Y13642D01*
X30276Y12835D02*
X33110Y10000D01*
X30276Y12835D02*
Y13465D01*
X30689Y13878D01*
X29803Y12677D02*
X32953Y9528D01*
X29803Y12677D02*
Y13622D01*
X36969Y11299D02*
Y11968D01*
X37205Y11220D02*
Y11850D01*
X39291Y13937D01*
X37441Y11142D02*
Y11772D01*
X39528Y13858D01*
X37677Y11024D02*
Y11693D01*
X39764Y13780D01*
X39055Y14724D02*
X40079Y15748D01*
X39055Y14055D02*
Y14724D01*
X36969Y11968D02*
X39055Y14055D01*
X39291Y13937D02*
Y14685D01*
X40079Y15748D02*
Y22027D01*
X39370Y22736D02*
X40079Y22027D01*
X39291Y14685D02*
X40276Y15669D01*
Y23956D01*
X39370Y24862D02*
X40276Y23956D01*
X39528Y13858D02*
Y14606D01*
X40512Y15591D01*
Y25846D01*
X39370Y26988D02*
X40512Y25846D01*
X39764Y13780D02*
Y14488D01*
X40748Y15472D01*
Y27795D01*
X39429Y29114D02*
X40748Y27795D01*
X39370Y29114D02*
X39429D01*
X25413Y19407D02*
X26378Y18443D01*
Y17520D02*
Y18443D01*
X29803Y13622D02*
X30531Y14350D01*
X30079Y14606D02*
X30472D01*
X30925Y15059D01*
X31772D01*
X30197Y16457D02*
X30886Y15768D01*
X31772D01*
Y15295D02*
X32500D01*
X30689D02*
X31772D01*
X30433Y15157D02*
X30551D01*
X30689Y15295D01*
D15*
X32531Y17009D02*
Y17026D01*
X32052Y17505D02*
X32531Y17026D01*
X30742Y17505D02*
X32052D01*
X30426Y17189D02*
X30742Y17505D01*
X29807Y17189D02*
X30426D01*
X29572Y16954D02*
X29807Y17189D01*
X29572Y12656D02*
Y16954D01*
X28671Y11755D02*
X29572Y12656D01*
X28671Y10354D02*
Y11755D01*
X27628Y17470D02*
X30310D01*
X23376Y20699D02*
X23415Y20659D01*
Y20030D02*
Y20659D01*
Y20030D02*
X24637Y18808D01*
Y17658D02*
Y18808D01*
X30626Y17786D02*
X32018D01*
X30310Y17470D02*
X30626Y17786D01*
X32018D02*
X32490Y18258D01*
X21293Y13337D02*
X22927Y14970D01*
X21161Y13337D02*
X21293D01*
X20416Y12591D02*
X21161Y13337D01*
X20416Y9812D02*
Y12591D01*
Y9812D02*
X20954Y9274D01*
X26666D01*
X27362Y9970D01*
X27638Y10246D01*
X36817Y15349D02*
Y15789D01*
Y15349D02*
X36829Y15337D01*
Y15009D02*
Y15337D01*
X36817Y14998D02*
X36829Y15009D01*
X36817Y14656D02*
Y14998D01*
X36683Y14656D02*
X36817D01*
X35315D02*
X36683D01*
X36433Y16173D02*
X36817Y15789D01*
X34508Y15463D02*
X35315Y14656D01*
X27638Y10246D02*
Y10354D01*
X22927Y14970D02*
X24813D01*
D16*
X10510Y32173D02*
X11024D01*
X9923Y31587D02*
X10510Y32173D01*
X9923Y26173D02*
Y31587D01*
Y26173D02*
X11024D01*
D17*
X18445Y21038D02*
D03*
D18*
X19365Y28056D02*
D03*
D19*
X29365Y30335D02*
D03*
D20*
X29788Y31693D02*
D03*
D21*
X29277Y31983D02*
D03*
D22*
X31417Y21639D02*
D03*
D23*
X11540Y25148D02*
D03*
D24*
X16570Y30753D02*
D03*
D25*
X22126Y40709D02*
D03*
X25079D02*
D03*
X22165Y11024D02*
D03*
X25118D02*
D03*
D26*
X37874Y16087D02*
D03*
Y18567D02*
D03*
X9449Y16126D02*
D03*
Y18606D02*
D03*
X37874Y22063D02*
D03*
X9488D02*
D03*
X7835Y19346D02*
D03*
Y17142D02*
D03*
Y21551D02*
D03*
X39370Y21512D02*
D03*
Y19307D02*
D03*
Y17102D02*
D03*
X26388Y22451D02*
D03*
X32736Y13967D02*
D03*
D27*
X37874Y17087D02*
D03*
Y19567D02*
D03*
X9449Y17126D02*
D03*
Y19606D02*
D03*
X37874Y21063D02*
D03*
X9488D02*
D03*
X7835Y18346D02*
D03*
Y16142D02*
D03*
Y20551D02*
D03*
X39370Y20512D02*
D03*
Y18307D02*
D03*
Y16102D02*
D03*
D28*
X7835Y23775D02*
D03*
Y25901D02*
D03*
Y28027D02*
D03*
X39370Y30114D02*
D03*
X7835Y30153D02*
D03*
X13583Y28382D02*
D03*
Y26256D02*
D03*
Y24130D02*
D03*
Y22004D02*
D03*
X33622Y26256D02*
D03*
Y28382D02*
D03*
Y24130D02*
D03*
Y22004D02*
D03*
X39370Y23736D02*
D03*
Y25862D02*
D03*
Y27988D02*
D03*
D29*
X7835Y22775D02*
D03*
Y24901D02*
D03*
Y27027D02*
D03*
X39370Y29114D02*
D03*
X7835Y29153D02*
D03*
X13583Y27382D02*
D03*
Y25256D02*
D03*
Y23130D02*
D03*
Y21004D02*
D03*
X33622Y25256D02*
D03*
Y27382D02*
D03*
Y23130D02*
D03*
Y21004D02*
D03*
X39370Y22736D02*
D03*
Y24862D02*
D03*
Y26988D02*
D03*
D30*
X11811Y35433D02*
D03*
X35433Y11811D02*
D03*
X11811D02*
D03*
X35433Y35433D02*
D03*
D31*
X11024Y33173D02*
D03*
Y32173D02*
D03*
Y31173D02*
D03*
Y30173D02*
D03*
Y29173D02*
D03*
Y28173D02*
D03*
Y27173D02*
D03*
Y26173D02*
D03*
Y25173D02*
D03*
Y24173D02*
D03*
Y23173D02*
D03*
Y22173D02*
D03*
Y21173D02*
D03*
Y20173D02*
D03*
Y19173D02*
D03*
Y18173D02*
D03*
Y17173D02*
D03*
Y16173D02*
D03*
Y15173D02*
D03*
X12024Y33173D02*
D03*
Y32173D02*
D03*
Y31173D02*
D03*
Y30173D02*
D03*
Y29173D02*
D03*
Y28173D02*
D03*
Y27173D02*
D03*
Y26173D02*
D03*
Y25173D02*
D03*
Y24173D02*
D03*
Y23173D02*
D03*
Y22173D02*
D03*
Y21173D02*
D03*
Y20173D02*
D03*
Y19173D02*
D03*
Y18173D02*
D03*
Y17173D02*
D03*
Y16173D02*
D03*
Y15173D02*
D03*
Y14173D02*
D03*
X35433Y33173D02*
D03*
Y32173D02*
D03*
Y31173D02*
D03*
Y30173D02*
D03*
Y29173D02*
D03*
Y28173D02*
D03*
Y27173D02*
D03*
Y26173D02*
D03*
Y25173D02*
D03*
Y24173D02*
D03*
Y23173D02*
D03*
Y22173D02*
D03*
Y21173D02*
D03*
Y20173D02*
D03*
Y19173D02*
D03*
Y18173D02*
D03*
Y17173D02*
D03*
Y16173D02*
D03*
Y15173D02*
D03*
X36433Y33173D02*
D03*
Y32173D02*
D03*
Y31173D02*
D03*
Y30173D02*
D03*
Y29173D02*
D03*
Y28173D02*
D03*
Y27173D02*
D03*
Y26173D02*
D03*
Y25173D02*
D03*
Y24173D02*
D03*
Y23173D02*
D03*
Y22173D02*
D03*
Y21173D02*
D03*
Y20173D02*
D03*
Y19173D02*
D03*
Y18173D02*
D03*
Y17173D02*
D03*
Y16173D02*
D03*
Y15173D02*
D03*
Y14173D02*
D03*
D32*
X11024D02*
D03*
X35433D02*
D03*
D33*
X24370Y21496D02*
D03*
X20108Y24813D02*
D03*
X21654Y24803D02*
D03*
X24449D02*
D03*
X22825Y21496D02*
D03*
X20787Y15276D02*
D03*
X26457Y15197D02*
D03*
D34*
X24637Y17658D02*
D03*
X21280Y18110D02*
D03*
X32531Y17009D02*
D03*
X23376Y20699D02*
D03*
X34675Y37668D02*
D03*
X36378Y35069D02*
D03*
X25197Y32362D02*
D03*
X23740Y30906D02*
D03*
X27165Y30030D02*
D03*
X33681Y15305D02*
D03*
X14636Y29911D02*
D03*
X34124Y17402D02*
D03*
X36841Y35837D02*
D03*
X26978Y35551D02*
D03*
X34508Y15463D02*
D03*
X28671Y10354D02*
D03*
X27638D02*
D03*
X24813Y14970D02*
D03*
X26703Y34892D02*
D03*
X22628Y30817D02*
D03*
X24055Y22884D02*
D03*
X32490Y18258D02*
D03*
X32411Y17657D02*
D03*
X21063Y22657D02*
D03*
X24006Y26622D02*
D03*
X22788Y25849D02*
D03*
X23917Y20463D02*
D03*
D35*
X24450Y15749D02*
D03*
X30118Y16457D02*
D03*
X17559Y21998D02*
D03*
X17549Y20640D02*
D03*
Y21299D02*
D03*
X29941Y31919D02*
D03*
X29961Y33346D02*
D03*
Y32648D02*
D03*
X30935Y20817D02*
D03*
X30945Y21988D02*
D03*
Y23248D02*
D03*
X34291Y34961D02*
D03*
X17717Y34803D02*
D03*
Y35433D02*
D03*
X14567Y33189D02*
D03*
Y31181D02*
D03*
Y32165D02*
D03*
X17717Y36063D02*
D03*
X29331Y34646D02*
D03*
Y35236D02*
D03*
X33661Y32953D02*
D03*
X33819Y34449D02*
D03*
X33661Y33661D02*
D03*
X30984Y13071D02*
D03*
Y17047D02*
D03*
X16260D02*
D03*
X17913D02*
D03*
Y15197D02*
D03*
X16260D02*
D03*
X13032Y35669D02*
D03*
Y36339D02*
D03*
Y37008D02*
D03*
X12402Y37441D02*
D03*
X30984Y16378D02*
D03*
X26339Y17480D02*
D03*
X30039Y15728D02*
D03*
X30433Y15157D02*
D03*
X30079Y14606D02*
D03*
X21063Y34931D02*
D03*
Y34134D02*
D03*
Y33356D02*
D03*
X17717Y32283D02*
D03*
Y31496D02*
D03*
Y30709D02*
D03*
X22667Y18317D02*
D03*
X23081Y18780D02*
D03*
M02*
