G04 Layer_Color=25308*
%FSLAX24Y24*%
%MOIN*%
G70*
G01*
G75*
G04:AMPARAMS|DCode=11|XSize=570.9mil|YSize=374mil|CornerRadius=9.4mil|HoleSize=0mil|Usage=FLASHONLY|Rotation=0.000|XOffset=0mil|YOffset=0mil|HoleType=Round|Shape=RoundedRectangle|*
%AMROUNDEDRECTD11*
21,1,0.5709,0.3553,0,0,0.0*
21,1,0.5522,0.3740,0,0,0.0*
1,1,0.0187,0.2761,-0.1777*
1,1,0.0187,-0.2761,-0.1777*
1,1,0.0187,-0.2761,0.1777*
1,1,0.0187,0.2761,0.1777*
%
%ADD11ROUNDEDRECTD11*%
%ADD12R,0.0433X0.0669*%
%ADD13R,0.0681X0.0728*%
%ADD14O,0.0728X0.0177*%
%ADD15R,0.0610X0.0532*%
%ADD16R,0.0827X0.1575*%
%ADD17R,0.0512X0.0689*%
%ADD18R,0.0433X0.0492*%
%ADD19R,0.0394X0.1181*%
%ADD20R,0.2598X0.2835*%
%ADD21R,0.0669X0.0433*%
%ADD22R,0.0394X0.0512*%
%ADD23R,0.0748X0.0591*%
%ADD24O,0.0551X0.0098*%
%ADD25R,0.1260X0.0591*%
%ADD26R,0.1260X0.0591*%
%ADD27O,0.0236X0.0748*%
%ADD28R,0.0591X0.1102*%
%ADD29R,0.0440X0.0400*%
%ADD30R,0.0571X0.0413*%
%ADD44C,0.1575*%
%ADD45C,0.2362*%
%ADD46R,0.1969X0.1181*%
%ADD47O,0.1320X0.0660*%
%ADD48C,0.1181*%
%ADD49R,0.0630X0.0630*%
%ADD50C,0.0630*%
%ADD51C,0.0600*%
%ADD52C,0.0512*%
%ADD53R,0.0512X0.0512*%
D11*
X22638Y35315D02*
D03*
D12*
X18819Y25472D02*
D03*
X19843D02*
D03*
X18819Y23898D02*
D03*
X19843D02*
D03*
X18819Y22402D02*
D03*
X19843D02*
D03*
X24331Y20472D02*
D03*
X23307D02*
D03*
D13*
X27800Y38250D02*
D03*
D14*
X28676Y37866D02*
D03*
Y38122D02*
D03*
Y38378D02*
D03*
Y38634D02*
D03*
X26924Y37866D02*
D03*
Y38122D02*
D03*
Y38378D02*
D03*
Y38634D02*
D03*
D15*
X24803Y40502D02*
D03*
Y39734D02*
D03*
D16*
X20787Y38661D02*
D03*
X18346D02*
D03*
D17*
X27600Y39750D02*
D03*
X28800D02*
D03*
X25561Y38386D02*
D03*
X24360D02*
D03*
D18*
X25800Y42335D02*
D03*
Y41665D02*
D03*
D19*
X23535Y38071D02*
D03*
X21740D02*
D03*
D20*
X22638Y35689D02*
D03*
D21*
X25950Y39438D02*
D03*
Y40462D02*
D03*
D22*
X29705Y38400D02*
D03*
X30295D02*
D03*
D23*
X24600Y41609D02*
D03*
Y42791D02*
D03*
D24*
X38642Y24154D02*
D03*
Y24350D02*
D03*
Y24547D02*
D03*
Y24744D02*
D03*
Y24941D02*
D03*
Y25138D02*
D03*
Y25335D02*
D03*
Y25531D02*
D03*
X37028Y24154D02*
D03*
Y24350D02*
D03*
Y24547D02*
D03*
Y24744D02*
D03*
Y24941D02*
D03*
Y25138D02*
D03*
Y25335D02*
D03*
Y25531D02*
D03*
D25*
X42715Y26066D02*
D03*
X34821Y23487D02*
D03*
D26*
X42715Y23467D02*
D03*
X34821Y26085D02*
D03*
D27*
X43160Y22591D02*
D03*
X42660D02*
D03*
X42160D02*
D03*
X41660D02*
D03*
X43160Y20741D02*
D03*
X42660D02*
D03*
X42160D02*
D03*
X41660D02*
D03*
X35571Y22522D02*
D03*
X35071D02*
D03*
X34571D02*
D03*
X34071D02*
D03*
X35571Y20672D02*
D03*
X35071D02*
D03*
X34571D02*
D03*
X34071D02*
D03*
D28*
X37244Y22953D02*
D03*
X38425D02*
D03*
D29*
X40769Y20751D02*
D03*
X40094D02*
D03*
X36749Y20827D02*
D03*
X37424D02*
D03*
D30*
X40433Y24892D02*
D03*
Y24321D02*
D03*
D44*
X21850Y15869D02*
D03*
Y13900D02*
D03*
X24332Y18200D02*
D03*
X26300D02*
D03*
X28932Y18250D02*
D03*
X30900D02*
D03*
X36150Y15618D02*
D03*
Y13650D02*
D03*
X33582Y18250D02*
D03*
X35550D02*
D03*
X41559Y41948D02*
D03*
Y16358D02*
D03*
X16362D02*
D03*
Y41948D02*
D03*
D45*
X17900Y19800D02*
D03*
X20853D02*
D03*
D46*
X32795Y41752D02*
D03*
Y45492D02*
D03*
D47*
X30039Y44606D02*
D03*
Y43622D02*
D03*
Y42632D02*
D03*
D48*
X43819Y34882D02*
D03*
X32008D02*
D03*
D49*
X23724Y31378D02*
D03*
D50*
X24724D02*
D03*
X25724D02*
D03*
X46650Y32350D02*
D03*
X45650D02*
D03*
X46700Y34450D02*
D03*
X45700D02*
D03*
D51*
X22756Y24843D02*
D03*
X24724D02*
D03*
X22756Y22559D02*
D03*
X24724D02*
D03*
X18583Y27362D02*
D03*
X16614D02*
D03*
X45700Y25700D02*
D03*
Y21700D02*
D03*
X47050Y30650D02*
D03*
Y26650D02*
D03*
X45350Y26700D02*
D03*
Y30700D02*
D03*
D52*
X18130Y32402D02*
D03*
X20245Y44206D02*
D03*
X27908Y31850D02*
D03*
X18091Y29764D02*
D03*
X23327Y27205D02*
D03*
D53*
X17146Y32402D02*
D03*
X19261Y44206D02*
D03*
X28892Y31850D02*
D03*
X17106Y29764D02*
D03*
X24311Y27205D02*
D03*
M02*
