G04 Layer_Color=7318015*
%FSLAX24Y24*%
%MOIN*%
G70*
G01*
G75*
%ADD10R,0.0217X0.0177*%
%ADD11O,0.0748X0.0236*%
%ADD12R,0.0610X0.0532*%
%ADD13R,0.0591X0.0354*%
%ADD14R,0.0417X0.0276*%
%ADD15R,0.0098X0.0248*%
%ADD16R,0.0248X0.0098*%
%ADD17R,0.0287X0.0098*%
%ADD18R,0.0512X0.0709*%
%ADD19R,0.0709X0.0512*%
D10*
X33612Y28543D02*
D03*
X33907D02*
D03*
D11*
X32283Y27565D02*
D03*
Y28065D02*
D03*
Y28565D02*
D03*
Y29065D02*
D03*
Y29565D02*
D03*
Y30065D02*
D03*
Y30565D02*
D03*
Y31065D02*
D03*
Y31565D02*
D03*
Y32065D02*
D03*
Y32565D02*
D03*
Y33065D02*
D03*
X28543Y27565D02*
D03*
Y28065D02*
D03*
Y28565D02*
D03*
Y29065D02*
D03*
Y29565D02*
D03*
Y30065D02*
D03*
Y30565D02*
D03*
Y31065D02*
D03*
Y31565D02*
D03*
Y32065D02*
D03*
Y32565D02*
D03*
Y33065D02*
D03*
D12*
X35039Y44203D02*
D03*
Y44970D02*
D03*
D13*
X29803Y44865D02*
D03*
Y44308D02*
D03*
X31024Y44865D02*
D03*
Y44307D02*
D03*
D14*
X32402Y44587D02*
D03*
D15*
X32894Y44915D02*
D03*
X32736D02*
D03*
X32579D02*
D03*
X32421D02*
D03*
X32264D02*
D03*
Y44258D02*
D03*
X32421D02*
D03*
X32579D02*
D03*
X32736D02*
D03*
X32894D02*
D03*
D16*
X32907Y44508D02*
D03*
D17*
X32888Y44665D02*
D03*
D18*
X34705Y32776D02*
D03*
X33602D02*
D03*
D19*
X33760Y44134D02*
D03*
Y45236D02*
D03*
X27953D02*
D03*
Y44134D02*
D03*
M02*
