G04 Layer_Color=16770453*
%FSLAX24Y24*%
%MOIN*%
G70*
G01*
G75*
D35*
X26185Y18116D02*
D03*
Y17860D02*
D03*
Y17604D02*
D03*
Y17348D02*
D03*
Y17093D02*
D03*
Y16837D02*
D03*
Y16581D02*
D03*
Y16325D02*
D03*
X23468Y18116D02*
D03*
Y17860D02*
D03*
Y17604D02*
D03*
Y17348D02*
D03*
Y17093D02*
D03*
Y16837D02*
D03*
Y16581D02*
D03*
Y16325D02*
D03*
D75*
X32083Y17201D02*
D03*
Y16807D02*
D03*
Y16413D02*
D03*
Y16020D02*
D03*
Y16217D02*
D03*
Y16610D02*
D03*
Y17004D02*
D03*
Y18972D02*
D03*
Y18579D02*
D03*
Y18185D02*
D03*
Y17791D02*
D03*
Y18776D02*
D03*
Y18382D02*
D03*
Y17988D02*
D03*
Y17398D02*
D03*
Y17594D02*
D03*
X27555Y17791D02*
D03*
Y18185D02*
D03*
Y18579D02*
D03*
Y18972D02*
D03*
Y18776D02*
D03*
Y18382D02*
D03*
Y17988D02*
D03*
Y16020D02*
D03*
Y16413D02*
D03*
Y16807D02*
D03*
Y17201D02*
D03*
Y16217D02*
D03*
Y16610D02*
D03*
Y17004D02*
D03*
Y17594D02*
D03*
Y17398D02*
D03*
D76*
X30114Y19760D02*
D03*
X30508D02*
D03*
X30902D02*
D03*
X31295D02*
D03*
X31098D02*
D03*
X30705D02*
D03*
X30311D02*
D03*
X28342D02*
D03*
X28736D02*
D03*
X29130D02*
D03*
X29524D02*
D03*
X28539D02*
D03*
X28933D02*
D03*
X29327D02*
D03*
X29917D02*
D03*
X29720D02*
D03*
X29524Y15232D02*
D03*
X29130D02*
D03*
X28736D02*
D03*
X28342D02*
D03*
X28539D02*
D03*
X28933D02*
D03*
X29327D02*
D03*
X31295D02*
D03*
X30902D02*
D03*
X30508D02*
D03*
X30114D02*
D03*
X31098D02*
D03*
X30705D02*
D03*
X30311D02*
D03*
X29720D02*
D03*
X29917D02*
D03*
D80*
X39701Y27665D02*
D03*
X39307D02*
D03*
D81*
X38211Y19520D02*
D03*
X38961Y18520D02*
D03*
X38211D02*
D03*
X38591Y18520D02*
D03*
X38961Y19520D02*
D03*
D82*
X35925Y19304D02*
D03*
X35610D02*
D03*
X35295D02*
D03*
X34980D02*
D03*
X34665D02*
D03*
X34350D02*
D03*
X34035D02*
D03*
X33720D02*
D03*
Y15924D02*
D03*
X34035D02*
D03*
X34350D02*
D03*
X34665D02*
D03*
X34980D02*
D03*
X35295D02*
D03*
X35610D02*
D03*
X35925D02*
D03*
D84*
X26522Y25522D02*
D03*
X26022D02*
D03*
X25522D02*
D03*
X25022D02*
D03*
Y23462D02*
D03*
X25522D02*
D03*
X26022D02*
D03*
X26522D02*
D03*
D88*
X33504Y20650D02*
D03*
X32756D02*
D03*
X33130Y21476D02*
D03*
D89*
X35315Y27736D02*
D03*
X34606D02*
D03*
D94*
X20744Y17382D02*
D03*
X19957D02*
D03*
D101*
X33133Y18717D02*
D03*
Y18402D02*
D03*
Y18087D02*
D03*
Y17772D02*
D03*
Y17457D02*
D03*
Y17142D02*
D03*
Y16827D02*
D03*
Y16512D02*
D03*
X36513D02*
D03*
Y16827D02*
D03*
Y17142D02*
D03*
Y17457D02*
D03*
Y17772D02*
D03*
Y18087D02*
D03*
Y18402D02*
D03*
Y18717D02*
D03*
D870*
X39197Y26783D02*
D03*
X39748D02*
D03*
D871*
X34272Y26854D02*
D03*
X35335D02*
D03*
D872*
X29378Y27311D02*
D03*
X30441D02*
D03*
D873*
X22059Y25343D02*
D03*
D874*
X21059Y21268D02*
D03*
X23059D02*
D03*
D875*
X16947Y17406D02*
D03*
X15549D02*
D03*
D876*
X21398Y16154D02*
D03*
X19626D02*
D03*
D877*
X13844Y15736D02*
D03*
X16581D02*
D03*
D878*
X38317Y21902D02*
D03*
X37431Y22276D02*
D03*
Y21528D02*
D03*
M02*
