G04 Layer_Color=16770453*
%FSLAX24Y24*%
%MOIN*%
G70*
G01*
G75*
%ADD764R,0.0220X0.0500*%
%ADD765R,0.0500X0.0220*%
%ADD766R,0.0236X0.0197*%
%ADD767R,0.0315X0.0354*%
%ADD768R,0.0315X0.0472*%
%ADD769R,0.0394X0.0087*%
%ADD770R,0.0087X0.0394*%
%ADD771R,0.0240X0.0870*%
%ADD772R,0.0433X0.0669*%
%ADD773R,0.0433X0.1024*%
%ADD774R,0.0394X0.0394*%
%ADD775R,0.4193X0.3504*%
%ADD776R,0.0413X0.0945*%
%ADD777R,0.0787X0.0984*%
%ADD778O,0.0827X0.0177*%
%ADD779R,0.0906X0.0906*%
%ADD780R,0.0945X0.1299*%
%ADD781R,0.0315X0.0354*%
%ADD782R,0.0453X0.0236*%
%ADD783R,0.0200X0.0500*%
D764*
X35925Y19304D02*
D03*
X35610D02*
D03*
X35295D02*
D03*
X34980D02*
D03*
X34665D02*
D03*
X34350D02*
D03*
X34035D02*
D03*
X33720D02*
D03*
Y15924D02*
D03*
X34035D02*
D03*
X34350D02*
D03*
X34665D02*
D03*
X34980D02*
D03*
X35295D02*
D03*
X35610D02*
D03*
X35925D02*
D03*
D765*
X33133Y18717D02*
D03*
Y18402D02*
D03*
Y18087D02*
D03*
Y17772D02*
D03*
Y17457D02*
D03*
Y17142D02*
D03*
Y16827D02*
D03*
Y16512D02*
D03*
X36513D02*
D03*
Y16827D02*
D03*
Y17142D02*
D03*
Y17457D02*
D03*
Y17772D02*
D03*
Y18087D02*
D03*
Y18402D02*
D03*
Y18717D02*
D03*
D766*
X39701Y27665D02*
D03*
X39307D02*
D03*
D767*
X39197Y26783D02*
D03*
X39748D02*
D03*
D768*
X35315Y27736D02*
D03*
X34606D02*
D03*
D769*
X32083Y17201D02*
D03*
Y16807D02*
D03*
Y16413D02*
D03*
Y16020D02*
D03*
Y16217D02*
D03*
Y16610D02*
D03*
Y17004D02*
D03*
Y18972D02*
D03*
Y18579D02*
D03*
Y18185D02*
D03*
Y17791D02*
D03*
Y18776D02*
D03*
Y18382D02*
D03*
Y17988D02*
D03*
Y17398D02*
D03*
Y17594D02*
D03*
X27555Y17791D02*
D03*
Y18185D02*
D03*
Y18579D02*
D03*
Y18972D02*
D03*
Y18776D02*
D03*
Y18382D02*
D03*
Y17988D02*
D03*
Y16020D02*
D03*
Y16413D02*
D03*
Y16807D02*
D03*
Y17201D02*
D03*
Y16217D02*
D03*
Y16610D02*
D03*
Y17004D02*
D03*
Y17594D02*
D03*
Y17398D02*
D03*
D770*
X30114Y19760D02*
D03*
X30508D02*
D03*
X30902D02*
D03*
X31295D02*
D03*
X31098D02*
D03*
X30705D02*
D03*
X30311D02*
D03*
X28342D02*
D03*
X28736D02*
D03*
X29130D02*
D03*
X29524D02*
D03*
X28539D02*
D03*
X28933D02*
D03*
X29327D02*
D03*
X29917D02*
D03*
X29720D02*
D03*
X29524Y15232D02*
D03*
X29130D02*
D03*
X28736D02*
D03*
X28342D02*
D03*
X28539D02*
D03*
X28933D02*
D03*
X29327D02*
D03*
X31295D02*
D03*
X30902D02*
D03*
X30508D02*
D03*
X30114D02*
D03*
X31098D02*
D03*
X30705D02*
D03*
X30311D02*
D03*
X29720D02*
D03*
X29917D02*
D03*
D771*
X26522Y25522D02*
D03*
X26022D02*
D03*
X25522D02*
D03*
X25022D02*
D03*
Y23462D02*
D03*
X25522D02*
D03*
X26022D02*
D03*
X26522D02*
D03*
D772*
X34272Y26854D02*
D03*
X35335D02*
D03*
D773*
X29378Y27311D02*
D03*
X30441D02*
D03*
D774*
X20744Y17382D02*
D03*
X19957D02*
D03*
D775*
X22059Y25343D02*
D03*
D776*
X21059Y21268D02*
D03*
X23059D02*
D03*
D777*
X16947Y17406D02*
D03*
X15549D02*
D03*
D778*
X26185Y18116D02*
D03*
Y17860D02*
D03*
Y17604D02*
D03*
Y17348D02*
D03*
Y17093D02*
D03*
Y16837D02*
D03*
Y16581D02*
D03*
Y16325D02*
D03*
X23468Y18116D02*
D03*
Y17860D02*
D03*
Y17604D02*
D03*
Y17348D02*
D03*
Y17093D02*
D03*
Y16837D02*
D03*
Y16581D02*
D03*
Y16325D02*
D03*
D779*
X21398Y16154D02*
D03*
X19626D02*
D03*
D780*
X13844Y15736D02*
D03*
X16581D02*
D03*
D781*
X33504Y20650D02*
D03*
X32756D02*
D03*
X33130Y21476D02*
D03*
D782*
X38317Y21902D02*
D03*
X37431Y22276D02*
D03*
Y21528D02*
D03*
D783*
X38211Y19520D02*
D03*
X38961Y18520D02*
D03*
X38211D02*
D03*
X38591Y18520D02*
D03*
X38961Y19520D02*
D03*
M02*
