G04 Layer_Color=20142*
%FSLAX24Y24*%
%MOIN*%
G70*
G01*
G75*
D24*
X10843Y12142D02*
D03*
X12575Y12209D02*
D03*
X14228Y12287D02*
D03*
X15646Y12366D02*
D03*
X16827Y12406D02*
D03*
X18008Y12484D02*
D03*
X19110Y12524D02*
D03*
X20094Y12563D02*
D03*
X20961Y12602D02*
D03*
X21787Y12642D02*
D03*
X22535Y12681D02*
D03*
X23283D02*
D03*
X23953Y12720D02*
D03*
X24583D02*
D03*
X25094D02*
D03*
X25606D02*
D03*
X26079D02*
D03*
X26551D02*
D03*
X26945D02*
D03*
X27378D02*
D03*
X27772D02*
D03*
X28165D02*
D03*
X28520D02*
D03*
X26512Y12681D02*
D03*
D27*
X10827Y20472D02*
Y23130D01*
X11024Y20571D02*
Y23130D01*
Y20571D02*
X11319Y20276D01*
X10630Y20571D02*
Y23130D01*
X10335Y20276D02*
X10630Y20571D01*
X11319Y22539D02*
Y23130D01*
Y22539D02*
X11811Y22047D01*
Y21654D02*
Y22047D01*
X11319Y21161D02*
X11811Y21654D01*
X11319Y20669D02*
Y21161D01*
Y20669D02*
X11713Y20276D01*
X11565Y20719D02*
Y21407D01*
Y20719D02*
X12008Y20276D01*
X12303Y22441D02*
Y23130D01*
X12011Y22149D02*
X12303Y22441D01*
X12011Y21361D02*
Y22149D01*
Y20968D02*
Y21361D01*
X11811Y20768D02*
X12011Y20968D01*
X11811Y23028D02*
Y23130D01*
Y23028D02*
X12103Y22736D01*
X13287Y23130D02*
X13780Y22638D01*
X15157D01*
X16831Y20965D01*
X21457D01*
X22146Y20276D01*
X13780Y23130D02*
X14948D01*
X19574D01*
X21543Y21161D01*
X21654D01*
X22343Y20472D01*
X15748Y22638D02*
X19783D01*
X21257Y21165D01*
X16043Y22638D02*
X16535Y22146D01*
X19587D01*
X20568Y21165D01*
X20974D01*
X14173Y22638D02*
X14862D01*
X16831Y20669D01*
X21161D01*
Y20276D02*
Y20669D01*
X16732Y21654D02*
X19787D01*
X20276Y21165D01*
X20285D01*
X20571Y22133D02*
X38472D01*
X40256Y23917D01*
X37598Y22133D02*
X37906Y22441D01*
X38497D01*
X40016Y23960D01*
X39284Y23228D02*
Y23831D01*
X39567Y24114D01*
X39469Y23130D02*
X39764D01*
X40354Y23720D01*
X21063Y22343D02*
X37008D01*
X37795Y23130D01*
Y24016D01*
Y24114D01*
Y23130D02*
X38386D01*
X39084Y23828D01*
Y23914D01*
X39078D02*
X39084D01*
X21260Y21457D02*
X23031D01*
X23228Y21654D01*
X25394D01*
X25492Y21555D01*
X27657D01*
X27756Y21654D01*
X21444Y21260D02*
X23031D01*
X23130Y21161D01*
X23228Y21063D01*
X25394D01*
X25492Y21161D01*
X27657D01*
X27756Y21063D01*
Y20866D02*
Y21063D01*
Y20866D02*
X28642D01*
X30217D01*
X29721Y23917D02*
X31102D01*
X28346Y22543D02*
X29721Y23917D01*
X25292Y22543D02*
X28346D01*
X33268D02*
Y24016D01*
X32480Y23031D02*
X33169Y23720D01*
X32480Y22543D02*
Y23031D01*
X34449Y22343D02*
X34646D01*
X32677Y22638D02*
Y22933D01*
X33268Y23524D01*
X38878Y22146D02*
X39272D01*
X41043Y23917D01*
X32972Y23806D02*
Y24114D01*
X32280Y23114D02*
X32972Y23806D01*
X32280Y22638D02*
Y23114D01*
Y22543D02*
Y22638D01*
X28740Y22539D02*
X29823Y23622D01*
X30217D01*
X31102D01*
X29035Y22539D02*
X30118Y23622D01*
X30709D01*
X30506Y23222D02*
X32388D01*
X30217Y22933D02*
X30506Y23222D01*
X30217Y22933D02*
X30413Y22736D01*
X30709D01*
X31880Y22638D02*
X31890D01*
X31582Y22936D02*
X31880Y22638D01*
X30512Y22936D02*
X31582D01*
X33268Y23130D02*
Y23228D01*
Y23130D02*
X34055Y22343D01*
X24803Y28740D02*
X30217D01*
X30610Y28346D01*
X24803Y28445D02*
X30217D01*
X30413Y28248D01*
X25787Y28445D02*
X26772D01*
X28051Y27165D01*
X28346D01*
X28839Y26673D01*
X27362Y28150D02*
Y28445D01*
Y28150D02*
X28146Y27365D01*
X28429D01*
X28728Y27067D01*
X24705Y27559D02*
X25492D01*
X26083Y28150D01*
X26784D01*
X27762Y27172D01*
X27811Y27122D01*
X28839Y26095D01*
Y24902D02*
Y26095D01*
X24902Y24508D02*
X27461D01*
X28639Y25686D01*
X25000Y24705D02*
X27362D01*
X28642Y25984D01*
X24902Y27067D02*
X27559D01*
X28500Y26126D01*
X29035Y20866D02*
X31594D01*
X36516Y15945D01*
X35433Y17028D02*
X39567D01*
X39862Y16732D01*
Y16535D02*
Y16732D01*
Y16535D02*
X40059Y16339D01*
X35925Y16535D02*
X38287D01*
X39173D01*
X39567Y16142D01*
X34350Y17618D02*
X34843D01*
X33169Y16437D02*
X34350Y17618D01*
X33169Y13681D02*
Y16437D01*
X33858Y17815D02*
X34547D01*
X32776Y16732D02*
X33858Y17815D01*
X32776Y13386D02*
Y16732D01*
X33169Y15059D02*
X33366D01*
X34350Y14075D01*
Y13681D02*
Y14075D01*
X34154Y13484D02*
Y14272D01*
X33563Y12894D02*
X34154Y13484D01*
X34350Y14075D02*
X34449D01*
X35039Y13484D01*
X33366Y15945D02*
X34941Y17520D01*
X34055Y14862D02*
Y16634D01*
Y14862D02*
X34941Y13976D01*
X34350Y14961D02*
Y16535D01*
Y14961D02*
X34843Y14469D01*
X34941Y14370D01*
X32480Y13386D02*
Y19587D01*
X31496Y20571D02*
X32480Y19587D01*
X27953Y20571D02*
X31496D01*
X32283Y20669D02*
X35433Y17520D01*
X35725Y17228D01*
X39373D01*
X33366Y19587D02*
X33858D01*
X35784Y17661D01*
X35842Y17720D01*
X15323Y12366D02*
X15559Y12602D01*
X32972Y21161D02*
Y21761D01*
X33172Y21561D01*
X33372Y21761D01*
Y21161D01*
X33672Y21561D02*
X33872D01*
X33972Y21461D01*
Y21161D01*
X33672D01*
X33572Y21261D01*
X33672Y21361D01*
X33972D01*
X34172Y21161D02*
X34372D01*
X34272D01*
Y21561D01*
X34172D01*
X34672Y21161D02*
X34872D01*
X34772D01*
Y21761D01*
X34672D01*
X35172Y21561D02*
X35272D01*
Y21461D01*
X35172D01*
Y21561D01*
Y21261D02*
X35272D01*
Y21161D01*
X35172D01*
Y21261D01*
X36671Y21161D02*
X36271D01*
X36671Y21561D01*
Y21661D01*
X36571Y21761D01*
X36371D01*
X36271Y21661D01*
X36871D02*
X36971Y21761D01*
X37171D01*
X37271Y21661D01*
Y21261D01*
X37171Y21161D01*
X36971D01*
X36871Y21261D01*
Y21661D01*
X37771Y21161D02*
Y21761D01*
X37471Y21461D01*
X37871D01*
X38671Y21161D02*
Y21761D01*
X38970D01*
X39070Y21661D01*
Y21461D01*
X38970Y21361D01*
X38671D01*
X38871D02*
X39070Y21161D01*
X39370D02*
X39570D01*
X39670Y21261D01*
Y21461D01*
X39570Y21561D01*
X39370D01*
X39270Y21461D01*
Y21261D01*
X39370Y21161D01*
X40070Y20961D02*
X40170D01*
X40270Y21061D01*
Y21561D01*
X39970D01*
X39870Y21461D01*
Y21261D01*
X39970Y21161D01*
X40270D01*
X40770D02*
X40570D01*
X40470Y21261D01*
Y21461D01*
X40570Y21561D01*
X40770D01*
X40870Y21461D01*
Y21361D01*
X40470D01*
X41070Y21561D02*
Y21161D01*
Y21361D01*
X41170Y21461D01*
X41270Y21561D01*
X41370D01*
X41670Y21161D02*
X41970D01*
X42070Y21261D01*
X41970Y21361D01*
X41770D01*
X41670Y21461D01*
X41770Y21561D01*
X42070D01*
X42869Y21761D02*
Y21161D01*
Y21461D01*
X42969Y21561D01*
X43169D01*
X43269Y21461D01*
Y21161D01*
X43569Y21561D02*
X43769D01*
X43869Y21461D01*
Y21161D01*
X43569D01*
X43469Y21261D01*
X43569Y21361D01*
X43869D01*
X44069Y21161D02*
X44269D01*
X44169D01*
Y21761D01*
X44069D01*
X44569Y21161D02*
X44769D01*
X44669D01*
Y21761D01*
X44569D01*
X33366Y20875D02*
Y20276D01*
X33766D01*
X34066Y20675D02*
X34266D01*
X34366Y20575D01*
Y20276D01*
X34066D01*
X33966Y20376D01*
X34066Y20476D01*
X34366D01*
X34566Y20875D02*
Y20276D01*
X34866D01*
X34966Y20376D01*
Y20476D01*
Y20575D01*
X34866Y20675D01*
X34566D01*
X35166D02*
X35266D01*
Y20575D01*
X35166D01*
Y20675D01*
Y20376D02*
X35266D01*
Y20276D01*
X35166D01*
Y20376D01*
X36665Y20276D02*
X36265D01*
X36665Y20675D01*
Y20775D01*
X36565Y20875D01*
X36365D01*
X36265Y20775D01*
X36865D02*
X36965Y20875D01*
X37165D01*
X37265Y20775D01*
Y20376D01*
X37165Y20276D01*
X36965D01*
X36865Y20376D01*
Y20775D01*
X37865Y20875D02*
X37665Y20775D01*
X37465Y20575D01*
Y20376D01*
X37565Y20276D01*
X37765D01*
X37865Y20376D01*
Y20476D01*
X37765Y20575D01*
X37465D01*
X39064Y20775D02*
X38964Y20875D01*
X38764D01*
X38664Y20775D01*
Y20376D01*
X38764Y20276D01*
X38964D01*
X39064Y20376D01*
Y20575D01*
X38864D01*
X39264Y20675D02*
Y20276D01*
Y20476D01*
X39364Y20575D01*
X39464Y20675D01*
X39564D01*
X39964D02*
X40164D01*
X40264Y20575D01*
Y20276D01*
X39964D01*
X39864Y20376D01*
X39964Y20476D01*
X40264D01*
X40564Y20276D02*
Y20775D01*
Y20575D01*
X40464D01*
X40664D01*
X40564D01*
Y20775D01*
X40664Y20875D01*
X41563D02*
Y20276D01*
Y20575D01*
X41963D01*
Y20875D01*
Y20276D01*
X42263Y20675D02*
X42463D01*
X42563Y20575D01*
Y20276D01*
X42263D01*
X42163Y20376D01*
X42263Y20476D01*
X42563D01*
X42763Y20276D02*
X42963D01*
X42863D01*
Y20875D01*
X42763D01*
X43263Y20276D02*
X43463D01*
X43363D01*
Y20875D01*
X43263D01*
X36620Y19890D02*
X36520Y19990D01*
X36320D01*
X36220Y19890D01*
Y19490D01*
X36320Y19390D01*
X36520D01*
X36620Y19490D01*
X36920Y19390D02*
X37120D01*
X37220Y19490D01*
Y19690D01*
X37120Y19790D01*
X36920D01*
X36820Y19690D01*
Y19490D01*
X36920Y19390D01*
X37420Y19790D02*
Y19390D01*
Y19590D01*
X37520Y19690D01*
X37620Y19790D01*
X37720D01*
X38020D02*
X38220Y19390D01*
X38420Y19790D01*
X38720D02*
X38920D01*
X39020Y19690D01*
Y19390D01*
X38720D01*
X38620Y19490D01*
X38720Y19590D01*
X39020D01*
X39220Y19390D02*
X39419D01*
X39319D01*
Y19990D01*
X39220D01*
X39719Y19390D02*
X39919D01*
X39819D01*
Y19990D01*
X39719D01*
X40219Y19390D02*
X40419D01*
X40319D01*
Y19790D01*
X40219D01*
X40719Y19390D02*
X41019D01*
X41119Y19490D01*
X41019Y19590D01*
X40819D01*
X40719Y19690D01*
X40819Y19790D01*
X41119D01*
X41419Y19290D02*
X41519Y19390D01*
Y19490D01*
X41419D01*
Y19390D01*
X41519D01*
X41419Y19290D01*
X41319Y19190D01*
X42818Y19990D02*
X42618D01*
X42518Y19890D01*
Y19490D01*
X42618Y19390D01*
X42818D01*
X42918Y19490D01*
Y19890D01*
X42818Y19990D01*
X43118Y19390D02*
Y19990D01*
X43418D01*
X43518Y19890D01*
Y19690D01*
X43418Y19590D01*
X43118D01*
X43318D02*
X43518Y19390D01*
X36220Y18505D02*
X36320Y18406D01*
X36520D01*
X36620Y18505D01*
Y18905D01*
X36520Y19005D01*
X36320D01*
X36220Y18905D01*
Y18805D01*
X36320Y18705D01*
X36620D01*
X36820Y19005D02*
X37220D01*
Y18905D01*
X36820Y18505D01*
Y18406D01*
X37420Y18905D02*
X37520Y19005D01*
X37720D01*
X37820Y18905D01*
Y18805D01*
X37720Y18705D01*
X37620D01*
X37720D01*
X37820Y18605D01*
Y18505D01*
X37720Y18406D01*
X37520D01*
X37420Y18505D01*
X38020Y18905D02*
X38120Y19005D01*
X38320D01*
X38420Y18905D01*
Y18805D01*
X38320Y18705D01*
X38220D01*
X38320D01*
X38420Y18605D01*
Y18505D01*
X38320Y18406D01*
X38120D01*
X38020Y18505D01*
X38620Y18406D02*
X38820D01*
X38720D01*
Y19005D01*
X38620Y18905D01*
X13687Y11427D02*
X13287D01*
Y10827D01*
X13687D01*
X13287Y11127D02*
X13487D01*
X13887Y10827D02*
Y11227D01*
X13987D01*
X14087Y11127D01*
Y10827D01*
Y11127D01*
X14187Y11227D01*
X14287Y11127D01*
Y10827D01*
X14587Y11227D02*
X14787D01*
X14887Y11127D01*
Y10827D01*
X14587D01*
X14487Y10927D01*
X14587Y11027D01*
X14887D01*
X15087Y10827D02*
X15287D01*
X15187D01*
Y11227D01*
X15087D01*
X15587Y10827D02*
X15787D01*
X15687D01*
Y11427D01*
X15587D01*
X16086Y11227D02*
X16186D01*
Y11127D01*
X16086D01*
Y11227D01*
Y10927D02*
X16186D01*
Y10827D01*
X16086D01*
Y10927D01*
X17286Y10827D02*
X17486D01*
X17586Y10927D01*
Y11127D01*
X17486Y11227D01*
X17286D01*
X17186Y11127D01*
Y10927D01*
X17286Y10827D01*
X17786D02*
X18086D01*
X18186Y10927D01*
X18086Y11027D01*
X17886D01*
X17786Y11127D01*
X17886Y11227D01*
X18186D01*
X18386D02*
Y10927D01*
X18486Y10827D01*
X18786D01*
Y11227D01*
X18986D02*
Y10827D01*
Y11027D01*
X19086Y11127D01*
X19185Y11227D01*
X19285D01*
X19985D02*
X19685D01*
X19585Y11127D01*
Y10927D01*
X19685Y10827D01*
X19985D01*
X20285D02*
X20485D01*
X20585Y10927D01*
Y11127D01*
X20485Y11227D01*
X20285D01*
X20185Y11127D01*
Y10927D01*
X20285Y10827D01*
X20885D02*
Y11327D01*
Y11127D01*
X20785D01*
X20985D01*
X20885D01*
Y11327D01*
X20985Y11427D01*
X21385Y10827D02*
Y11327D01*
Y11127D01*
X21285D01*
X21485D01*
X21385D01*
Y11327D01*
X21485Y11427D01*
X21785Y10827D02*
X21985D01*
X21885D01*
Y11227D01*
X21785D01*
X22684D02*
X22384D01*
X22284Y11127D01*
Y10927D01*
X22384Y10827D01*
X22684D01*
X23184D02*
X22984D01*
X22884Y10927D01*
Y11127D01*
X22984Y11227D01*
X23184D01*
X23284Y11127D01*
Y11027D01*
X22884D01*
X23484Y11227D02*
Y10827D01*
Y11027D01*
X23584Y11127D01*
X23684Y11227D01*
X23784D01*
X24084Y10827D02*
X24384D01*
X24484Y10927D01*
X24384Y11027D01*
X24184D01*
X24084Y11127D01*
X24184Y11227D01*
X24484D01*
X24984Y11027D02*
Y11127D01*
X24884D01*
Y11027D01*
X24984D01*
X25084Y11127D01*
Y11327D01*
X24984Y11427D01*
X24784D01*
X24684Y11327D01*
Y10927D01*
X24784Y10827D01*
X25084D01*
X25383D02*
X25583D01*
X25683Y10927D01*
Y11127D01*
X25583Y11227D01*
X25383D01*
X25284Y11127D01*
Y10927D01*
X25383Y10827D01*
X25883Y11227D02*
Y10827D01*
Y11027D01*
X25983Y11127D01*
X26083Y11227D01*
X26183D01*
X26783Y10827D02*
X26583D01*
X26483Y10927D01*
Y11127D01*
X26583Y11227D01*
X26783D01*
X26883Y11127D01*
Y11027D01*
X26483D01*
X27283Y10627D02*
X27383D01*
X27483Y10727D01*
Y11227D01*
X27183D01*
X27083Y11127D01*
Y10927D01*
X27183Y10827D01*
X27483D01*
X27783D02*
X27983D01*
X28083Y10927D01*
Y11127D01*
X27983Y11227D01*
X27783D01*
X27683Y11127D01*
Y10927D01*
X27783Y10827D01*
X28283D02*
Y11227D01*
X28582D01*
X28682Y11127D01*
Y10827D01*
X28882D02*
X29182D01*
X29282Y10927D01*
X29182Y11027D01*
X28982D01*
X28882Y11127D01*
X28982Y11227D01*
X29282D01*
X29582Y11327D02*
Y11227D01*
X29482D01*
X29682D01*
X29582D01*
Y10927D01*
X29682Y10827D01*
X30082Y11227D02*
X30282D01*
X30382Y11127D01*
Y10827D01*
X30082D01*
X29982Y10927D01*
X30082Y11027D01*
X30382D01*
X30682Y11327D02*
Y11227D01*
X30582D01*
X30782D01*
X30682D01*
Y10927D01*
X30782Y10827D01*
X31382D02*
X31182D01*
X31082Y10927D01*
Y11127D01*
X31182Y11227D01*
X31382D01*
X31482Y11127D01*
Y11027D01*
X31082D01*
X31681Y10827D02*
Y10927D01*
X31781D01*
Y10827D01*
X31681D01*
X32481D02*
X32281D01*
X32181Y10927D01*
Y11127D01*
X32281Y11227D01*
X32481D01*
X32581Y11127D01*
Y11027D01*
X32181D01*
X33181Y11427D02*
Y10827D01*
X32881D01*
X32781Y10927D01*
Y11127D01*
X32881Y11227D01*
X33181D01*
X33381D02*
Y10927D01*
X33481Y10827D01*
X33781D01*
Y11227D01*
X21161Y12014D02*
Y11714D01*
X21261Y11614D01*
X21361Y11714D01*
X21461Y11614D01*
X21561Y11714D01*
Y12014D01*
X21761D02*
Y11714D01*
X21861Y11614D01*
X21961Y11714D01*
X22061Y11614D01*
X22161Y11714D01*
Y12014D01*
X22361D02*
Y11714D01*
X22461Y11614D01*
X22561Y11714D01*
X22661Y11614D01*
X22761Y11714D01*
Y12014D01*
X22961Y11614D02*
Y11714D01*
X23061D01*
Y11614D01*
X22961D01*
X23561D02*
X23761D01*
X23861Y11714D01*
Y11914D01*
X23761Y12014D01*
X23561D01*
X23461Y11914D01*
Y11714D01*
X23561Y11614D01*
X24060D02*
X24360D01*
X24460Y11714D01*
X24360Y11814D01*
X24160D01*
X24060Y11914D01*
X24160Y12014D01*
X24460D01*
X24660D02*
Y11714D01*
X24760Y11614D01*
X25060D01*
Y12014D01*
X25260D02*
Y11614D01*
Y11814D01*
X25360Y11914D01*
X25460Y12014D01*
X25560D01*
X25960Y11614D02*
X26160D01*
X26260Y11714D01*
Y11914D01*
X26160Y12014D01*
X25960D01*
X25860Y11914D01*
Y11714D01*
X25960Y11614D01*
X26460Y12214D02*
Y11614D01*
X26760D01*
X26860Y11714D01*
Y11814D01*
Y11914D01*
X26760Y12014D01*
X26460D01*
X27159Y11614D02*
X27359D01*
X27459Y11714D01*
Y11914D01*
X27359Y12014D01*
X27159D01*
X27060Y11914D01*
Y11714D01*
X27159Y11614D01*
X27759Y12114D02*
Y12014D01*
X27659D01*
X27859D01*
X27759D01*
Y11714D01*
X27859Y11614D01*
X28159D02*
X28359D01*
X28259D01*
Y12014D01*
X28159D01*
X29059D02*
X28759D01*
X28659Y11914D01*
Y11714D01*
X28759Y11614D01*
X29059D01*
X29259D02*
X29559D01*
X29659Y11714D01*
X29559Y11814D01*
X29359D01*
X29259Y11914D01*
X29359Y12014D01*
X29659D01*
X29859Y11614D02*
Y11714D01*
X29959D01*
Y11614D01*
X29859D01*
X30758Y12014D02*
X30458D01*
X30358Y11914D01*
Y11714D01*
X30458Y11614D01*
X30758D01*
X30958D02*
X31158D01*
X31058D01*
Y12214D01*
X30958D01*
X31458Y12014D02*
Y11714D01*
X31558Y11614D01*
X31858D01*
Y12014D01*
X32058Y12214D02*
Y11614D01*
X32358D01*
X32458Y11714D01*
Y11814D01*
Y11914D01*
X32358Y12014D01*
X32058D01*
D37*
X15426Y12118D02*
X15871Y12563D01*
X26673Y18209D02*
Y19389D01*
X27067Y18996D01*
X27460Y19389D01*
Y18209D01*
X28051Y18996D02*
X28444D01*
X28641Y18799D01*
Y18209D01*
X28051D01*
X27854Y18405D01*
X28051Y18602D01*
X28641D01*
X29035Y18209D02*
Y19389D01*
Y18602D02*
X29625Y18996D01*
X29035Y18602D02*
X29625Y18209D01*
X30806D02*
X30412D01*
X30215Y18405D01*
Y18799D01*
X30412Y18996D01*
X30806D01*
X31003Y18799D01*
Y18602D01*
X30215D01*
X26673Y16634D02*
Y17815D01*
X27067Y17421D01*
X27460Y17815D01*
Y16634D01*
X28051D02*
X28444D01*
X28641Y16831D01*
Y17224D01*
X28444Y17421D01*
X28051D01*
X27854Y17224D01*
Y16831D01*
X28051Y16634D01*
X29035Y17421D02*
Y16634D01*
Y17027D01*
X29231Y17224D01*
X29428Y17421D01*
X29625D01*
X30806Y16634D02*
X30412D01*
X30215Y16831D01*
Y17224D01*
X30412Y17421D01*
X30806D01*
X31003Y17224D01*
Y17027D01*
X30215D01*
X26673Y15059D02*
Y16240D01*
X27264D01*
X27460Y16043D01*
Y15649D01*
X27264Y15453D01*
X26673D01*
X27067D02*
X27460Y15059D01*
X28051D02*
X28444D01*
X28641Y15256D01*
Y15649D01*
X28444Y15846D01*
X28051D01*
X27854Y15649D01*
Y15256D01*
X28051Y15059D01*
X29035Y16240D02*
Y15059D01*
X29625D01*
X29822Y15256D01*
Y15453D01*
Y15649D01*
X29625Y15846D01*
X29035D01*
X30412Y15059D02*
X30806D01*
X31003Y15256D01*
Y15649D01*
X30806Y15846D01*
X30412D01*
X30215Y15649D01*
Y15256D01*
X30412Y15059D01*
X31593Y16043D02*
Y15846D01*
X31396D01*
X31790D01*
X31593D01*
Y15256D01*
X31790Y15059D01*
D51*
X18853Y14256D02*
G03*
X18564Y14256I-144J0D01*
G01*
D02*
G03*
X18853Y14256I144J0D01*
G01*
D93*
X21908Y14455D02*
X21908Y14057D01*
X21509Y14057D01*
X21509Y14455D01*
X21908Y14455D01*
X21714Y14261D02*
X21704Y14251D01*
D118*
X23922Y29072D02*
D03*
D119*
X19695D02*
D03*
D120*
X21530Y24160D02*
D03*
X19513Y25519D02*
D03*
Y25529D02*
D03*
Y25548D02*
D03*
Y25568D02*
D03*
Y25588D02*
D03*
Y25597D02*
D03*
Y25617D02*
D03*
Y25637D02*
D03*
Y25657D02*
D03*
Y25666D02*
D03*
Y25686D02*
D03*
Y25706D02*
D03*
Y25716D02*
D03*
Y25735D02*
D03*
Y25755D02*
D03*
Y25775D02*
D03*
Y25784D02*
D03*
Y25804D02*
D03*
Y25824D02*
D03*
Y25844D02*
D03*
Y25853D02*
D03*
Y25873D02*
D03*
Y25893D02*
D03*
Y25912D02*
D03*
Y25922D02*
D03*
Y25942D02*
D03*
Y25962D02*
D03*
Y25981D02*
D03*
Y25991D02*
D03*
Y26011D02*
D03*
Y26031D02*
D03*
Y26050D02*
D03*
Y26060D02*
D03*
Y26080D02*
D03*
Y26099D02*
D03*
Y26109D02*
D03*
Y26129D02*
D03*
Y26149D02*
D03*
Y26168D02*
D03*
Y26178D02*
D03*
Y26198D02*
D03*
Y26218D02*
D03*
Y26237D02*
D03*
Y26247D02*
D03*
Y26267D02*
D03*
Y26286D02*
D03*
Y26306D02*
D03*
Y26316D02*
D03*
Y26336D02*
D03*
Y26355D02*
D03*
Y26375D02*
D03*
Y26385D02*
D03*
Y26405D02*
D03*
Y26424D02*
D03*
Y26444D02*
D03*
Y26454D02*
D03*
Y26473D02*
D03*
Y26493D02*
D03*
Y26503D02*
D03*
Y26523D02*
D03*
Y26542D02*
D03*
Y26562D02*
D03*
Y26572D02*
D03*
Y26592D02*
D03*
Y26611D02*
D03*
Y26631D02*
D03*
Y26641D02*
D03*
Y26660D02*
D03*
X18351Y26680D02*
D03*
X19513D02*
D03*
X18351Y26700D02*
D03*
X19513D02*
D03*
Y26710D02*
D03*
Y26729D02*
D03*
X16324Y26749D02*
D03*
X19513D02*
D03*
Y26769D02*
D03*
Y26779D02*
D03*
Y26798D02*
D03*
X16314Y26818D02*
D03*
X18371D02*
D03*
X19513D02*
D03*
X16314Y26838D02*
D03*
X18371D02*
D03*
X19513D02*
D03*
X16314Y26847D02*
D03*
X18371D02*
D03*
X19513D02*
D03*
X16314Y26867D02*
D03*
X18371D02*
D03*
X19513D02*
D03*
X16314Y26887D02*
D03*
Y26907D02*
D03*
Y26916D02*
D03*
X18381Y26985D02*
D03*
Y27005D02*
D03*
Y27025D02*
D03*
Y27034D02*
D03*
Y27054D02*
D03*
Y27074D02*
D03*
Y27094D02*
D03*
Y27103D02*
D03*
Y27123D02*
D03*
Y27143D02*
D03*
Y27162D02*
D03*
Y27172D02*
D03*
Y27192D02*
D03*
Y27212D02*
D03*
Y27231D02*
D03*
Y27241D02*
D03*
Y27261D02*
D03*
Y27281D02*
D03*
Y27300D02*
D03*
Y27310D02*
D03*
Y27330D02*
D03*
Y27349D02*
D03*
Y27359D02*
D03*
Y27379D02*
D03*
Y27399D02*
D03*
Y27418D02*
D03*
Y27428D02*
D03*
Y27448D02*
D03*
Y27468D02*
D03*
Y27487D02*
D03*
X19513D02*
D03*
X18381Y27497D02*
D03*
X19513D02*
D03*
X18381Y27517D02*
D03*
X19513D02*
D03*
X18381Y27536D02*
D03*
X19513D02*
D03*
X18381Y27556D02*
D03*
X19513D02*
D03*
X18381Y27566D02*
D03*
X19513D02*
D03*
X18381Y27586D02*
D03*
X19513D02*
D03*
X18381Y27605D02*
D03*
X19513D02*
D03*
X18381Y27625D02*
D03*
X19513D02*
D03*
X18381Y27635D02*
D03*
X19513D02*
D03*
X18381Y27655D02*
D03*
X19513D02*
D03*
X18381Y27674D02*
D03*
X19513D02*
D03*
X18381Y27694D02*
D03*
X19513D02*
D03*
X18381Y27704D02*
D03*
X19513D02*
D03*
X18381Y27723D02*
D03*
X19513D02*
D03*
X18381Y27743D02*
D03*
X19513D02*
D03*
X18381Y27753D02*
D03*
X19513D02*
D03*
X18381Y27773D02*
D03*
X19513D02*
D03*
X18381Y27792D02*
D03*
X19513D02*
D03*
X18381Y27812D02*
D03*
X19513D02*
D03*
X18381Y27822D02*
D03*
X19513D02*
D03*
X18381Y27842D02*
D03*
X19513D02*
D03*
X18381Y27861D02*
D03*
X19513D02*
D03*
X18381Y27881D02*
D03*
X19513D02*
D03*
X18381Y27891D02*
D03*
X19513D02*
D03*
X18381Y27910D02*
D03*
X19513D02*
D03*
X18381Y27930D02*
D03*
X19513D02*
D03*
X18381Y27950D02*
D03*
X19513D02*
D03*
X18381Y27960D02*
D03*
X19513D02*
D03*
X18381Y27979D02*
D03*
X19513D02*
D03*
X18381Y27999D02*
D03*
X19513D02*
D03*
X18381Y28019D02*
D03*
X19513D02*
D03*
X18381Y28029D02*
D03*
X19513D02*
D03*
X18381Y28048D02*
D03*
X19513D02*
D03*
X18381Y28068D02*
D03*
X19513D02*
D03*
X18381Y28088D02*
D03*
X19513D02*
D03*
X18381Y28097D02*
D03*
X19513D02*
D03*
X18381Y28117D02*
D03*
X19513D02*
D03*
X18381Y28137D02*
D03*
X19513D02*
D03*
X18381Y28157D02*
D03*
X19513D02*
D03*
X18381Y28166D02*
D03*
X19513D02*
D03*
X18381Y28186D02*
D03*
X19513D02*
D03*
X18381Y28206D02*
D03*
X19513D02*
D03*
X18381Y28216D02*
D03*
X19513D02*
D03*
X18381Y28235D02*
D03*
X19513D02*
D03*
X18381Y28255D02*
D03*
X19513D02*
D03*
X18381Y28275D02*
D03*
X19513D02*
D03*
X18381Y28284D02*
D03*
X19513D02*
D03*
X18381Y28304D02*
D03*
X19513D02*
D03*
X18381Y28324D02*
D03*
X19513D02*
D03*
X18381Y28344D02*
D03*
X19513D02*
D03*
X18381Y28353D02*
D03*
X19513D02*
D03*
X18381Y28373D02*
D03*
X19513D02*
D03*
X18381Y28393D02*
D03*
X19513D02*
D03*
X18381Y28412D02*
D03*
X19513D02*
D03*
X18381Y28422D02*
D03*
X19513D02*
D03*
X18381Y28442D02*
D03*
X19513D02*
D03*
X18381Y28462D02*
D03*
X19513D02*
D03*
X18381Y28481D02*
D03*
Y28491D02*
D03*
Y28511D02*
D03*
Y28531D02*
D03*
Y28550D02*
D03*
Y28560D02*
D03*
Y28580D02*
D03*
Y28599D02*
D03*
Y28609D02*
D03*
Y28629D02*
D03*
Y28649D02*
D03*
Y28668D02*
D03*
Y28678D02*
D03*
Y28698D02*
D03*
Y28718D02*
D03*
Y28737D02*
D03*
Y28747D02*
D03*
Y28767D02*
D03*
Y28786D02*
D03*
Y28806D02*
D03*
Y28816D02*
D03*
Y28836D02*
D03*
Y28855D02*
D03*
Y28875D02*
D03*
Y28885D02*
D03*
Y28905D02*
D03*
Y28924D02*
D03*
Y28944D02*
D03*
Y28954D02*
D03*
Y28973D02*
D03*
Y28993D02*
D03*
Y29003D02*
D03*
Y29023D02*
D03*
Y29042D02*
D03*
Y29062D02*
D03*
Y29072D02*
D03*
D121*
X18341Y26631D02*
D03*
Y26641D02*
D03*
X18361Y26729D02*
D03*
Y26749D02*
D03*
Y26769D02*
D03*
X16304Y26936D02*
D03*
Y26956D02*
D03*
Y26966D02*
D03*
Y26985D02*
D03*
Y27005D02*
D03*
Y27025D02*
D03*
Y27034D02*
D03*
Y27054D02*
D03*
Y27074D02*
D03*
Y27094D02*
D03*
Y27103D02*
D03*
Y27123D02*
D03*
Y27143D02*
D03*
Y27162D02*
D03*
Y27172D02*
D03*
Y27192D02*
D03*
Y27212D02*
D03*
Y27231D02*
D03*
Y27241D02*
D03*
Y27261D02*
D03*
Y27281D02*
D03*
Y27300D02*
D03*
Y27310D02*
D03*
Y27330D02*
D03*
Y27349D02*
D03*
Y27359D02*
D03*
Y27379D02*
D03*
Y27399D02*
D03*
Y27418D02*
D03*
Y27428D02*
D03*
Y27448D02*
D03*
Y27468D02*
D03*
Y27487D02*
D03*
Y27497D02*
D03*
Y27517D02*
D03*
Y27536D02*
D03*
Y27556D02*
D03*
Y27566D02*
D03*
Y27586D02*
D03*
Y27605D02*
D03*
Y27625D02*
D03*
Y27635D02*
D03*
Y27655D02*
D03*
Y27674D02*
D03*
Y27694D02*
D03*
Y27704D02*
D03*
Y27723D02*
D03*
Y27743D02*
D03*
Y27753D02*
D03*
Y27773D02*
D03*
Y27792D02*
D03*
Y27812D02*
D03*
Y27822D02*
D03*
Y27842D02*
D03*
Y27861D02*
D03*
Y27881D02*
D03*
Y27891D02*
D03*
Y27910D02*
D03*
Y27930D02*
D03*
Y27950D02*
D03*
Y27960D02*
D03*
Y27979D02*
D03*
Y27999D02*
D03*
Y28019D02*
D03*
Y28029D02*
D03*
Y28048D02*
D03*
Y28068D02*
D03*
Y28088D02*
D03*
Y28097D02*
D03*
Y28117D02*
D03*
Y28137D02*
D03*
Y28157D02*
D03*
Y28166D02*
D03*
Y28186D02*
D03*
Y28206D02*
D03*
Y28216D02*
D03*
Y28235D02*
D03*
Y28255D02*
D03*
Y28275D02*
D03*
Y28284D02*
D03*
Y28304D02*
D03*
Y28324D02*
D03*
Y28344D02*
D03*
Y28353D02*
D03*
Y28373D02*
D03*
Y28393D02*
D03*
Y28412D02*
D03*
Y28422D02*
D03*
Y28442D02*
D03*
Y28462D02*
D03*
Y28481D02*
D03*
Y28491D02*
D03*
Y28511D02*
D03*
Y28531D02*
D03*
Y28550D02*
D03*
Y28560D02*
D03*
Y28580D02*
D03*
Y28599D02*
D03*
Y28609D02*
D03*
Y28629D02*
D03*
Y28649D02*
D03*
Y28668D02*
D03*
Y28678D02*
D03*
Y28698D02*
D03*
Y28718D02*
D03*
Y28737D02*
D03*
Y28747D02*
D03*
Y28767D02*
D03*
Y28786D02*
D03*
Y28806D02*
D03*
Y28816D02*
D03*
Y28836D02*
D03*
Y28855D02*
D03*
Y28875D02*
D03*
Y28885D02*
D03*
Y28905D02*
D03*
Y28924D02*
D03*
Y28944D02*
D03*
Y28954D02*
D03*
Y28973D02*
D03*
Y28993D02*
D03*
Y29003D02*
D03*
Y29023D02*
D03*
Y29042D02*
D03*
Y29062D02*
D03*
Y29072D02*
D03*
D122*
X21373Y26099D02*
D03*
X21353Y26129D02*
D03*
X22652Y28353D02*
D03*
X15221Y29072D02*
D03*
D123*
X11767D02*
D03*
D124*
X22480Y26316D02*
D03*
X15187Y26867D02*
D03*
X23858Y29062D02*
D03*
D125*
X19754D02*
D03*
D126*
X15162D02*
D03*
D127*
X17382Y24023D02*
D03*
X19488D02*
D03*
X24055Y24072D02*
D03*
X11801Y24485D02*
D03*
X16496Y24731D02*
D03*
X20177Y24761D02*
D03*
X11762Y29062D02*
D03*
D128*
X21348Y26139D02*
D03*
X16663Y26188D02*
D03*
X10925Y26208D02*
D03*
X23819Y29052D02*
D03*
D129*
X23489Y28826D02*
D03*
X19788Y29052D02*
D03*
D130*
X21530Y24151D02*
D03*
Y24938D02*
D03*
X14306Y25007D02*
D03*
X19513Y25538D02*
D03*
Y25558D02*
D03*
Y25578D02*
D03*
Y25607D02*
D03*
Y25627D02*
D03*
Y25647D02*
D03*
Y25676D02*
D03*
Y25696D02*
D03*
Y25725D02*
D03*
Y25745D02*
D03*
Y25765D02*
D03*
Y25794D02*
D03*
Y25814D02*
D03*
Y25834D02*
D03*
Y25863D02*
D03*
Y25883D02*
D03*
Y25903D02*
D03*
Y25932D02*
D03*
Y25952D02*
D03*
Y25972D02*
D03*
Y26001D02*
D03*
Y26021D02*
D03*
Y26040D02*
D03*
Y26070D02*
D03*
Y26090D02*
D03*
Y26119D02*
D03*
Y26139D02*
D03*
Y26158D02*
D03*
Y26188D02*
D03*
Y26208D02*
D03*
Y26227D02*
D03*
Y26257D02*
D03*
Y26277D02*
D03*
Y26296D02*
D03*
Y26326D02*
D03*
Y26346D02*
D03*
Y26365D02*
D03*
Y26395D02*
D03*
Y26414D02*
D03*
Y26434D02*
D03*
Y26464D02*
D03*
Y26483D02*
D03*
Y26513D02*
D03*
Y26532D02*
D03*
Y26552D02*
D03*
Y26582D02*
D03*
Y26601D02*
D03*
Y26621D02*
D03*
Y26651D02*
D03*
X18351Y26670D02*
D03*
X19513D02*
D03*
X18351Y26690D02*
D03*
X19513D02*
D03*
Y26720D02*
D03*
Y26739D02*
D03*
X16324Y26759D02*
D03*
X19513D02*
D03*
Y26788D02*
D03*
X18371Y26808D02*
D03*
X19513D02*
D03*
X16314Y26828D02*
D03*
X18371D02*
D03*
X19513D02*
D03*
X16314Y26857D02*
D03*
X18371D02*
D03*
X19513D02*
D03*
X16314Y26877D02*
D03*
Y26897D02*
D03*
X18381Y26975D02*
D03*
Y26995D02*
D03*
Y27015D02*
D03*
Y27044D02*
D03*
Y27064D02*
D03*
Y27084D02*
D03*
Y27113D02*
D03*
Y27133D02*
D03*
Y27153D02*
D03*
Y27182D02*
D03*
Y27202D02*
D03*
Y27222D02*
D03*
Y27251D02*
D03*
Y27271D02*
D03*
Y27290D02*
D03*
Y27320D02*
D03*
Y27340D02*
D03*
Y27369D02*
D03*
Y27389D02*
D03*
Y27408D02*
D03*
Y27438D02*
D03*
Y27458D02*
D03*
Y27477D02*
D03*
Y27507D02*
D03*
X19513D02*
D03*
X18381Y27527D02*
D03*
X19513D02*
D03*
X18381Y27546D02*
D03*
X19513D02*
D03*
X18381Y27576D02*
D03*
X19513D02*
D03*
X18381Y27596D02*
D03*
X19513D02*
D03*
X18381Y27615D02*
D03*
X19513D02*
D03*
X18381Y27645D02*
D03*
X19513D02*
D03*
X18381Y27664D02*
D03*
X19513D02*
D03*
X18381Y27684D02*
D03*
X19513D02*
D03*
X18381Y27714D02*
D03*
X19513D02*
D03*
X18381Y27733D02*
D03*
X19513D02*
D03*
X18381Y27763D02*
D03*
X19513D02*
D03*
X18381Y27782D02*
D03*
X19513D02*
D03*
X18381Y27802D02*
D03*
X19513D02*
D03*
X18381Y27832D02*
D03*
X19513D02*
D03*
X18381Y27851D02*
D03*
X19513D02*
D03*
X18381Y27871D02*
D03*
X19513D02*
D03*
X18381Y27901D02*
D03*
X19513D02*
D03*
X18381Y27920D02*
D03*
X19513D02*
D03*
X18381Y27940D02*
D03*
X19513D02*
D03*
X18381Y27970D02*
D03*
X19513D02*
D03*
X18381Y27989D02*
D03*
X19513D02*
D03*
X18381Y28009D02*
D03*
X19513D02*
D03*
X18381Y28038D02*
D03*
X19513D02*
D03*
X18381Y28058D02*
D03*
X19513D02*
D03*
X18381Y28078D02*
D03*
X19513D02*
D03*
X18381Y28107D02*
D03*
X19513D02*
D03*
X18381Y28127D02*
D03*
X19513D02*
D03*
X18381Y28147D02*
D03*
X19513D02*
D03*
X18381Y28176D02*
D03*
X19513D02*
D03*
X18381Y28196D02*
D03*
X19513D02*
D03*
X18381Y28225D02*
D03*
X19513D02*
D03*
X18381Y28245D02*
D03*
X19513D02*
D03*
X18381Y28265D02*
D03*
X19513D02*
D03*
X18381Y28294D02*
D03*
X19513D02*
D03*
X18381Y28314D02*
D03*
X19513D02*
D03*
X18381Y28334D02*
D03*
X19513D02*
D03*
X18381Y28363D02*
D03*
X19513D02*
D03*
X18381Y28383D02*
D03*
X19513D02*
D03*
X18381Y28403D02*
D03*
X19513D02*
D03*
X18381Y28432D02*
D03*
X19513D02*
D03*
X18381Y28452D02*
D03*
X19513D02*
D03*
X18381Y28472D02*
D03*
X19513D02*
D03*
X18381Y28501D02*
D03*
Y28521D02*
D03*
Y28540D02*
D03*
Y28570D02*
D03*
Y28590D02*
D03*
Y28619D02*
D03*
Y28639D02*
D03*
Y28658D02*
D03*
Y28688D02*
D03*
Y28708D02*
D03*
Y28727D02*
D03*
Y28757D02*
D03*
Y28777D02*
D03*
Y28796D02*
D03*
Y28826D02*
D03*
Y28846D02*
D03*
Y28865D02*
D03*
Y28895D02*
D03*
Y28914D02*
D03*
Y28934D02*
D03*
Y28964D02*
D03*
Y28983D02*
D03*
Y29013D02*
D03*
Y29032D02*
D03*
Y29052D02*
D03*
D131*
X16353Y24121D02*
D03*
X23942D02*
D03*
X18361Y26720D02*
D03*
Y26739D02*
D03*
Y26759D02*
D03*
X16304Y26946D02*
D03*
Y26975D02*
D03*
Y26995D02*
D03*
Y27015D02*
D03*
Y27044D02*
D03*
Y27064D02*
D03*
Y27084D02*
D03*
Y27113D02*
D03*
Y27133D02*
D03*
Y27153D02*
D03*
Y27182D02*
D03*
Y27202D02*
D03*
Y27222D02*
D03*
Y27251D02*
D03*
Y27271D02*
D03*
Y27290D02*
D03*
Y27320D02*
D03*
Y27340D02*
D03*
Y27369D02*
D03*
Y27389D02*
D03*
Y27408D02*
D03*
Y27438D02*
D03*
Y27458D02*
D03*
Y27477D02*
D03*
Y27507D02*
D03*
Y27527D02*
D03*
Y27546D02*
D03*
Y27576D02*
D03*
Y27596D02*
D03*
Y27615D02*
D03*
Y27645D02*
D03*
Y27664D02*
D03*
Y27684D02*
D03*
Y27714D02*
D03*
Y27733D02*
D03*
Y27763D02*
D03*
Y27782D02*
D03*
Y27802D02*
D03*
Y27832D02*
D03*
Y27851D02*
D03*
Y27871D02*
D03*
Y27901D02*
D03*
Y27920D02*
D03*
Y27940D02*
D03*
Y27970D02*
D03*
Y27989D02*
D03*
Y28009D02*
D03*
Y28038D02*
D03*
Y28058D02*
D03*
Y28078D02*
D03*
Y28107D02*
D03*
Y28127D02*
D03*
Y28147D02*
D03*
Y28176D02*
D03*
Y28196D02*
D03*
Y28225D02*
D03*
Y28245D02*
D03*
Y28265D02*
D03*
Y28294D02*
D03*
Y28314D02*
D03*
Y28334D02*
D03*
Y28363D02*
D03*
Y28383D02*
D03*
Y28403D02*
D03*
Y28432D02*
D03*
Y28452D02*
D03*
Y28472D02*
D03*
Y28501D02*
D03*
Y28521D02*
D03*
Y28540D02*
D03*
Y28570D02*
D03*
Y28590D02*
D03*
Y28619D02*
D03*
Y28639D02*
D03*
Y28658D02*
D03*
Y28688D02*
D03*
Y28708D02*
D03*
Y28727D02*
D03*
Y28757D02*
D03*
Y28777D02*
D03*
Y28796D02*
D03*
Y28826D02*
D03*
Y28846D02*
D03*
Y28865D02*
D03*
Y28895D02*
D03*
Y28914D02*
D03*
Y28934D02*
D03*
Y28964D02*
D03*
Y28983D02*
D03*
Y29013D02*
D03*
Y29032D02*
D03*
Y29052D02*
D03*
D132*
X15128D02*
D03*
D133*
X15364Y24722D02*
D03*
X11762Y29052D02*
D03*
D134*
X21511Y25922D02*
D03*
X21491Y25942D02*
D03*
X15074Y26956D02*
D03*
X11757Y28973D02*
D03*
X23784Y29042D02*
D03*
D135*
X20079Y27192D02*
D03*
X19823Y29042D02*
D03*
D136*
X21757Y25666D02*
D03*
X14906Y27074D02*
D03*
X15093Y29042D02*
D03*
D137*
X22963Y24111D02*
D03*
X17382Y24141D02*
D03*
X21545Y24968D02*
D03*
X11762Y29042D02*
D03*
D138*
X23765Y29032D02*
D03*
D139*
X11717Y25794D02*
D03*
X20103Y27222D02*
D03*
X19847Y29032D02*
D03*
D140*
X21801Y25627D02*
D03*
X15069Y29032D02*
D03*
D141*
X15349Y26326D02*
D03*
X16393Y26464D02*
D03*
X15369Y26582D02*
D03*
X15359Y26601D02*
D03*
X12899Y26651D02*
D03*
X12908Y26690D02*
D03*
X12928Y26739D02*
D03*
X10507Y26808D02*
D03*
X10487Y26857D02*
D03*
Y26877D02*
D03*
X10477Y26926D02*
D03*
X22160D02*
D03*
Y26946D02*
D03*
X22151Y26975D02*
D03*
Y26995D02*
D03*
X12977Y27664D02*
D03*
X21088D02*
D03*
X12967Y27714D02*
D03*
X21117D02*
D03*
X22190D02*
D03*
X12958Y27763D02*
D03*
X10517Y27802D02*
D03*
X10527Y27832D02*
D03*
X12938D02*
D03*
X10536Y27851D02*
D03*
X13843Y28009D02*
D03*
X13834Y28038D02*
D03*
X21186Y28176D02*
D03*
X11757Y29032D02*
D03*
D142*
X23740Y29023D02*
D03*
D143*
X23410Y25784D02*
D03*
X20123Y26887D02*
D03*
Y27241D02*
D03*
X23410Y28718D02*
D03*
X19867Y29023D02*
D03*
D144*
X15044D02*
D03*
D145*
X15276Y26218D02*
D03*
X16486Y26306D02*
D03*
X12746Y26385D02*
D03*
X10659Y26454D02*
D03*
X22283Y26572D02*
D03*
X15305Y26729D02*
D03*
X20699Y26847D02*
D03*
X22362Y28088D02*
D03*
X22372Y28097D02*
D03*
X12785Y28166D02*
D03*
X10709Y28186D02*
D03*
X21122Y28353D02*
D03*
X11762Y29023D02*
D03*
D146*
X14232Y27576D02*
D03*
X23720Y29013D02*
D03*
D147*
X20148Y27271D02*
D03*
X19892Y29013D02*
D03*
D148*
X21875Y25578D02*
D03*
X14464Y27408D02*
D03*
X15025Y29013D02*
D03*
D149*
X20915Y27507D02*
D03*
X22480Y28225D02*
D03*
X12677Y28294D02*
D03*
X11762Y29013D02*
D03*
D150*
X23696Y29003D02*
D03*
D151*
X11717Y25844D02*
D03*
X23371D02*
D03*
Y28649D02*
D03*
X19906Y29003D02*
D03*
D152*
X15010D02*
D03*
D153*
X15177Y26149D02*
D03*
X12579Y26237D02*
D03*
X14035Y28442D02*
D03*
X11762Y29003D02*
D03*
D154*
X11713Y25657D02*
D03*
X21762D02*
D03*
X23681Y28993D02*
D03*
D155*
X11713Y25853D02*
D03*
X23356Y28629D02*
D03*
X11752Y28737D02*
D03*
X14764Y28747D02*
D03*
X19921Y28993D02*
D03*
D156*
X14990D02*
D03*
D157*
X12544Y26218D02*
D03*
X11757Y28993D02*
D03*
D158*
X23666Y28983D02*
D03*
D159*
X23337Y28590D02*
D03*
X19941Y28983D02*
D03*
D160*
X14975D02*
D03*
D161*
X21383Y26090D02*
D03*
X21363Y26119D02*
D03*
X15113Y26926D02*
D03*
X11757Y28983D02*
D03*
D162*
X23652Y28973D02*
D03*
D163*
X17333Y25912D02*
D03*
X23327D02*
D03*
X19951Y28973D02*
D03*
D164*
X23553Y25637D02*
D03*
X19980Y27103D02*
D03*
X14961Y28973D02*
D03*
D165*
X11717Y25676D02*
D03*
X23637Y28964D02*
D03*
D166*
X23312Y28540D02*
D03*
X19965Y28964D02*
D03*
D167*
X14946D02*
D03*
D168*
X11757D02*
D03*
D169*
X14764Y27172D02*
D03*
X14449Y27418D02*
D03*
X11752Y28905D02*
D03*
X23622Y28954D02*
D03*
D170*
X11717Y25893D02*
D03*
X17338Y25942D02*
D03*
X23302Y25962D02*
D03*
X20231Y27418D02*
D03*
X19975Y28954D02*
D03*
D171*
X11717Y25735D02*
D03*
X17328D02*
D03*
X11757Y28855D02*
D03*
X14936Y28954D02*
D03*
D172*
X14975Y27025D02*
D03*
X11757Y28954D02*
D03*
D173*
X23612Y25597D02*
D03*
X14714Y27212D02*
D03*
X14478Y27399D02*
D03*
X23612Y28944D02*
D03*
D174*
X17333Y25962D02*
D03*
X23287Y25991D02*
D03*
X20246Y27448D02*
D03*
X23287Y28481D02*
D03*
Y28491D02*
D03*
X14695Y28580D02*
D03*
X19990Y28944D02*
D03*
D175*
X14921D02*
D03*
D176*
X14257Y27556D02*
D03*
X11757Y28944D02*
D03*
D177*
X23597Y25607D02*
D03*
X14641Y27271D02*
D03*
X23597Y28934D02*
D03*
D178*
X17333Y25972D02*
D03*
X20000Y28934D02*
D03*
D179*
X14911D02*
D03*
D180*
X14301Y27527D02*
D03*
X11752Y28934D02*
D03*
D181*
X23588Y28924D02*
D03*
D182*
X23268Y26031D02*
D03*
Y28442D02*
D03*
X20010Y28924D02*
D03*
D183*
X11752Y28836D02*
D03*
X14901Y28924D02*
D03*
D184*
X14340Y27497D02*
D03*
X11752Y28924D02*
D03*
D185*
X23578Y28914D02*
D03*
D186*
X11717Y25932D02*
D03*
X23263Y28432D02*
D03*
X14670Y28501D02*
D03*
X11747Y28658D02*
D03*
X20015Y28914D02*
D03*
D187*
X23484Y25696D02*
D03*
X11752Y28826D02*
D03*
X14892Y28914D02*
D03*
D188*
X21831Y25607D02*
D03*
X11752Y28914D02*
D03*
D189*
X23568Y28905D02*
D03*
D190*
X11717Y25942D02*
D03*
X11747Y28649D02*
D03*
X20025Y28905D02*
D03*
D191*
X14882D02*
D03*
D192*
X21959Y25538D02*
D03*
X19980Y27113D02*
D03*
X23553Y28895D02*
D03*
D193*
X11717Y25952D02*
D03*
X23243Y26090D02*
D03*
X11747Y28639D02*
D03*
X20034Y28895D02*
D03*
D194*
X14872D02*
D03*
D195*
X11717Y25696D02*
D03*
X17328D02*
D03*
X14611Y27290D02*
D03*
X14582Y27320D02*
D03*
X14552Y27340D02*
D03*
X11757Y28895D02*
D03*
D196*
X19990Y27094D02*
D03*
Y27123D02*
D03*
X23543Y28885D02*
D03*
D197*
X11717Y25962D02*
D03*
X20044Y28885D02*
D03*
D198*
X14862D02*
D03*
D199*
X21934Y25548D02*
D03*
X23578Y25617D02*
D03*
X11717Y25706D02*
D03*
X17328D02*
D03*
X11757Y28885D02*
D03*
D200*
X21988Y25529D02*
D03*
X23533Y28875D02*
D03*
D201*
X23228Y26129D02*
D03*
X20049Y28875D02*
D03*
D202*
X11752Y28806D02*
D03*
X14852Y28875D02*
D03*
D203*
X17333Y25716D02*
D03*
X11752Y28875D02*
D03*
D204*
X23524Y28865D02*
D03*
D205*
X23218Y26158D02*
D03*
X20059Y28865D02*
D03*
D206*
X14847D02*
D03*
D207*
X23543Y25647D02*
D03*
X17333Y25725D02*
D03*
X11752Y28865D02*
D03*
D208*
X23519Y25666D02*
D03*
X20015Y27074D02*
D03*
X23519Y28855D02*
D03*
D209*
X23214Y26168D02*
D03*
Y26178D02*
D03*
X20064Y28855D02*
D03*
D210*
X14838D02*
D03*
D211*
X23509Y25676D02*
D03*
X11717Y25745D02*
D03*
X20025Y27064D02*
D03*
X23509Y28846D02*
D03*
D212*
X20074D02*
D03*
D213*
X14828D02*
D03*
D214*
X11752D02*
D03*
D215*
X22023Y25519D02*
D03*
X11717Y25755D02*
D03*
X23499Y28836D02*
D03*
D216*
X20079D02*
D03*
D217*
X23415Y25775D02*
D03*
X17333Y25824D02*
D03*
X20118Y26907D02*
D03*
X14823Y28836D02*
D03*
D218*
X11717Y26001D02*
D03*
X11747Y28590D02*
D03*
X20084Y28826D02*
D03*
D219*
X14813D02*
D03*
D220*
X23484Y28816D02*
D03*
D221*
X20089D02*
D03*
D222*
X14808D02*
D03*
D223*
X11713Y25775D02*
D03*
X17333Y25784D02*
D03*
X11752Y28816D02*
D03*
D224*
X23474Y25706D02*
D03*
Y28806D02*
D03*
D225*
X13376Y25519D02*
D03*
X20098Y28806D02*
D03*
D226*
X14803D02*
D03*
D227*
X20069Y26995D02*
D03*
Y27182D02*
D03*
X23465Y28796D02*
D03*
D228*
X11717Y26021D02*
D03*
X11747Y28570D02*
D03*
X20103Y28796D02*
D03*
D229*
X14793D02*
D03*
D230*
X20098Y26946D02*
D03*
X11752Y28796D02*
D03*
D231*
X20074Y26985D02*
D03*
X23460Y28786D02*
D03*
D232*
X20108D02*
D03*
D233*
X14788D02*
D03*
D234*
X11717Y25804D02*
D03*
X11747Y28786D02*
D03*
D235*
X17328Y25794D02*
D03*
X20084Y26975D02*
D03*
X23450Y28777D02*
D03*
D236*
X17338Y26158D02*
D03*
X20113Y28777D02*
D03*
D237*
X14783D02*
D03*
D238*
X23405Y25794D02*
D03*
X17333Y25834D02*
D03*
X20128Y26877D02*
D03*
X23405Y28708D02*
D03*
X11752Y28777D02*
D03*
D239*
X20089Y26966D02*
D03*
X23445Y28767D02*
D03*
D240*
X13465Y25529D02*
D03*
X20118Y28767D02*
D03*
D241*
X17333Y25873D02*
D03*
X20167Y27300D02*
D03*
X11752Y28747D02*
D03*
X14774Y28767D02*
D03*
D242*
X23396Y25804D02*
D03*
X17333Y25844D02*
D03*
X20138Y27261D02*
D03*
X23396Y28698D02*
D03*
X11752Y28767D02*
D03*
D243*
X23440Y25745D02*
D03*
Y28757D02*
D03*
D244*
X11717Y26040D02*
D03*
X20123Y28757D02*
D03*
D245*
X14769D02*
D03*
D246*
X11717Y25834D02*
D03*
X11747Y28757D02*
D03*
D247*
X20103Y26936D02*
D03*
X23430Y28747D02*
D03*
D248*
X20128D02*
D03*
D249*
X23425Y28737D02*
D03*
D250*
X11717Y26050D02*
D03*
X11747Y28531D02*
D03*
X20133Y28737D02*
D03*
D251*
X14759D02*
D03*
D252*
X23415Y28727D02*
D03*
D253*
X20138D02*
D03*
D254*
X14754D02*
D03*
D255*
X23346Y25883D02*
D03*
X11752Y28727D02*
D03*
D256*
X11717Y26060D02*
D03*
X20143Y28718D02*
D03*
D257*
X14749D02*
D03*
D258*
X11717Y25873D02*
D03*
X20202Y27359D02*
D03*
X14739Y28698D02*
D03*
X11747Y28718D02*
D03*
D259*
X11717Y26070D02*
D03*
X11747Y28521D02*
D03*
X20143Y28708D02*
D03*
D260*
X17333Y25903D02*
D03*
X14744Y28708D02*
D03*
D261*
X11713Y25883D02*
D03*
X14724Y28658D02*
D03*
X11752Y28708D02*
D03*
D262*
X20148Y28698D02*
D03*
D263*
X11752D02*
D03*
D264*
X23391Y25814D02*
D03*
Y28688D02*
D03*
D265*
X13706Y25578D02*
D03*
X20152Y28688D02*
D03*
D266*
X14734D02*
D03*
D267*
X11717Y25903D02*
D03*
X20241Y27438D02*
D03*
X23292Y28501D02*
D03*
X11747Y28688D02*
D03*
D268*
X23386Y28678D02*
D03*
D269*
X20157Y28668D02*
D03*
Y28678D02*
D03*
D270*
X23322Y25922D02*
D03*
X20212Y27379D02*
D03*
X23322Y28560D02*
D03*
X14729Y28678D02*
D03*
D271*
X11717Y25912D02*
D03*
X11747Y28678D02*
D03*
D272*
X23381Y25824D02*
D03*
X20152Y27281D02*
D03*
X23381Y28668D02*
D03*
D273*
X17333Y25922D02*
D03*
X14724Y28668D02*
D03*
D274*
X11747D02*
D03*
D275*
X23376Y25834D02*
D03*
X17333Y25863D02*
D03*
X20157Y27290D02*
D03*
X23376Y28658D02*
D03*
D276*
X11717Y26090D02*
D03*
X20162Y28658D02*
D03*
D277*
X13770Y25597D02*
D03*
X20167Y28649D02*
D03*
D278*
X14719D02*
D03*
D279*
X23361Y28639D02*
D03*
D280*
X14350Y26021D02*
D03*
X14370Y26040D02*
D03*
X20167Y28639D02*
D03*
D281*
X17333Y25932D02*
D03*
X20226Y27408D02*
D03*
X14714Y28639D02*
D03*
D282*
X13824Y25617D02*
D03*
X13873Y25637D02*
D03*
X14345Y26011D02*
D03*
X11717Y26099D02*
D03*
X11747Y28491D02*
D03*
X20172Y28629D02*
D03*
D283*
X14710D02*
D03*
D284*
X11747D02*
D03*
D285*
X23351Y28619D02*
D03*
D286*
X13848Y25627D02*
D03*
X14311Y25972D02*
D03*
X20177Y28619D02*
D03*
D287*
X17333Y25952D02*
D03*
X14705Y28619D02*
D03*
D288*
X11717Y25972D02*
D03*
X11747Y28619D02*
D03*
D289*
X17333Y25893D02*
D03*
X20187Y27330D02*
D03*
X23346Y28609D02*
D03*
D290*
X14301Y25962D02*
D03*
X14321Y25981D02*
D03*
X20177Y28609D02*
D03*
D291*
X14700Y28599D02*
D03*
Y28609D02*
D03*
D292*
X11717Y25981D02*
D03*
X11747Y28609D02*
D03*
D293*
X23341Y25893D02*
D03*
Y28599D02*
D03*
D294*
X13912Y25657D02*
D03*
X13932Y25666D02*
D03*
X14257Y25912D02*
D03*
X20182Y28599D02*
D03*
D295*
X11747D02*
D03*
D296*
X13893Y25647D02*
D03*
X13952Y25676D02*
D03*
X14277Y25932D02*
D03*
X20182Y28590D02*
D03*
D297*
X14695D02*
D03*
D298*
X23332Y28580D02*
D03*
D299*
X13966Y25686D02*
D03*
X14006Y25706D02*
D03*
X14016Y25716D02*
D03*
X14104Y25775D02*
D03*
X14144Y25804D02*
D03*
X14203Y25853D02*
D03*
X14242Y25893D02*
D03*
X20187Y28580D02*
D03*
D300*
X11717Y26011D02*
D03*
X17338Y26109D02*
D03*
X11747Y28580D02*
D03*
D301*
X20207Y27369D02*
D03*
X23327Y28570D02*
D03*
D302*
X13986Y25696D02*
D03*
X14035Y25725D02*
D03*
X14065Y25745D02*
D03*
X14134Y25794D02*
D03*
X14154Y25814D02*
D03*
X14213Y25863D02*
D03*
X14232Y25883D02*
D03*
X11742Y28472D02*
D03*
X20187Y28570D02*
D03*
D303*
X14690D02*
D03*
D304*
X14080Y25755D02*
D03*
X11747Y28462D02*
D03*
X20192Y28550D02*
D03*
Y28560D02*
D03*
D305*
X14685Y28550D02*
D03*
Y28560D02*
D03*
D306*
X11717Y26031D02*
D03*
X11747Y28560D02*
D03*
D307*
X23317Y28550D02*
D03*
D308*
X11747D02*
D03*
D309*
X20197Y28540D02*
D03*
D310*
X20261Y27477D02*
D03*
X14680Y28540D02*
D03*
D311*
X13533Y25538D02*
D03*
X11742Y28540D02*
D03*
D312*
X23307Y28531D02*
D03*
D313*
X11722Y26129D02*
D03*
X20197Y28531D02*
D03*
D314*
X17333Y25981D02*
D03*
X14675Y28531D02*
D03*
D315*
X23302Y28521D02*
D03*
D316*
X11717Y26139D02*
D03*
X11747Y28452D02*
D03*
X20202Y28501D02*
D03*
Y28521D02*
D03*
D317*
X14675D02*
D03*
D318*
X23297Y28511D02*
D03*
D319*
X20202D02*
D03*
D320*
X17338Y25991D02*
D03*
X23263Y26050D02*
D03*
X14670Y28511D02*
D03*
D321*
X13666Y25568D02*
D03*
X11717Y26080D02*
D03*
X14414Y26109D02*
D03*
X11747Y28511D02*
D03*
D322*
X14385Y26070D02*
D03*
X11747Y28501D02*
D03*
D323*
X20207Y28481D02*
D03*
Y28491D02*
D03*
D324*
X14665Y28481D02*
D03*
Y28491D02*
D03*
D325*
X14267Y25922D02*
D03*
X14286Y25942D02*
D03*
X11717Y26109D02*
D03*
X11747Y28481D02*
D03*
D326*
X23282Y26001D02*
D03*
X20251Y27458D02*
D03*
X23282Y28472D02*
D03*
D327*
X21471Y25972D02*
D03*
X14109Y27664D02*
D03*
X20930Y28472D02*
D03*
D328*
X23253Y26070D02*
D03*
X14660Y28472D02*
D03*
D329*
X23278Y26011D02*
D03*
X20256Y27468D02*
D03*
X23278Y28462D02*
D03*
D330*
X14060Y27704D02*
D03*
X20979Y28462D02*
D03*
D331*
X21437Y26011D02*
D03*
X10955Y26198D02*
D03*
X14114Y28462D02*
D03*
D332*
X23273Y26021D02*
D03*
Y28452D02*
D03*
D333*
X21004D02*
D03*
D334*
X22618Y28334D02*
D03*
X14065Y28452D02*
D03*
D335*
X21028Y28442D02*
D03*
D336*
X11742D02*
D03*
D337*
X15226Y26828D02*
D03*
X22520Y28265D02*
D03*
X21043Y28432D02*
D03*
D338*
X18081Y26208D02*
D03*
X10856Y28334D02*
D03*
X12628D02*
D03*
X14016Y28432D02*
D03*
D339*
X11742D02*
D03*
D340*
X23258Y26060D02*
D03*
Y28412D02*
D03*
Y28422D02*
D03*
D341*
X12653Y26286D02*
D03*
X10782Y26306D02*
D03*
X22397Y26405D02*
D03*
X21058Y28422D02*
D03*
D342*
X22406Y26385D02*
D03*
X15231Y26818D02*
D03*
X14001Y28422D02*
D03*
D343*
X11717Y26168D02*
D03*
X11747Y28422D02*
D03*
D344*
X15231Y26178D02*
D03*
X16540Y26247D02*
D03*
X12672Y26306D02*
D03*
X10753Y26336D02*
D03*
X22377Y26424D02*
D03*
X13942Y27812D02*
D03*
X13981Y28412D02*
D03*
X21068D02*
D03*
D345*
X11747D02*
D03*
D346*
X22795Y28403D02*
D03*
D347*
X10738Y26346D02*
D03*
X22451Y28196D02*
D03*
X12707Y28265D02*
D03*
X21083Y28403D02*
D03*
D348*
X10777Y28265D02*
D03*
X13966Y28403D02*
D03*
D349*
X21526Y25903D02*
D03*
X22608Y26227D02*
D03*
X12480Y28403D02*
D03*
D350*
X12461Y26188D02*
D03*
X14134Y27645D02*
D03*
X11004Y28403D02*
D03*
D351*
X14188Y27605D02*
D03*
X22751Y28393D02*
D03*
D352*
X15256Y26198D02*
D03*
X18140Y26247D02*
D03*
X10718Y26375D02*
D03*
X10709Y26385D02*
D03*
X22342Y26473D02*
D03*
X15276Y26769D02*
D03*
X22421Y28166D02*
D03*
X10768Y28255D02*
D03*
X13957Y28393D02*
D03*
X21092D02*
D03*
D353*
X21388Y26080D02*
D03*
X21368Y26109D02*
D03*
X12500Y26198D02*
D03*
X10974Y28393D02*
D03*
X12520D02*
D03*
D354*
X21555Y25863D02*
D03*
X10984Y26188D02*
D03*
X15049Y26975D02*
D03*
X22716Y28383D02*
D03*
D355*
X18154Y26257D02*
D03*
X16511Y26277D02*
D03*
X12712Y26346D02*
D03*
X10704Y26395D02*
D03*
X22318Y26513D02*
D03*
X10743Y28225D02*
D03*
X12741D02*
D03*
X21097Y28383D02*
D03*
D356*
X15266Y26208D02*
D03*
X12726Y26365D02*
D03*
X22303Y26532D02*
D03*
X15295Y26739D02*
D03*
X20679Y26857D02*
D03*
X22392Y28127D02*
D03*
X12766Y28196D02*
D03*
X13947Y28383D02*
D03*
D357*
X12544D02*
D03*
D358*
X18022Y26188D02*
D03*
X22529Y26277D02*
D03*
X10945Y28383D02*
D03*
D359*
X22697Y28373D02*
D03*
D360*
X12716Y26355D02*
D03*
X10689Y26405D02*
D03*
X10679Y26424D02*
D03*
X20964Y27536D02*
D03*
X13907Y27861D02*
D03*
X22401Y28137D02*
D03*
X12756Y28206D02*
D03*
X10728Y28216D02*
D03*
X21102Y28373D02*
D03*
D361*
X11717Y25568D02*
D03*
X18164Y26267D02*
D03*
X16501Y26286D02*
D03*
X10664Y26444D02*
D03*
X22288Y26562D02*
D03*
X22387Y28117D02*
D03*
X12771Y28186D02*
D03*
X13932Y28373D02*
D03*
D362*
X22515Y26286D02*
D03*
X15162Y26887D02*
D03*
X12564Y28373D02*
D03*
D363*
X11713Y25597D02*
D03*
X10925Y28373D02*
D03*
D364*
X22672Y28363D02*
D03*
D365*
X10684Y26414D02*
D03*
X13902Y27871D02*
D03*
X21117Y28363D02*
D03*
D366*
X10654Y26464D02*
D03*
X22278Y26582D02*
D03*
X15310Y26720D02*
D03*
X20723Y26828D02*
D03*
X12810Y28127D02*
D03*
X13922Y28363D02*
D03*
D367*
X15172Y26877D02*
D03*
X14021Y27733D02*
D03*
X22584Y28314D02*
D03*
X10901Y28363D02*
D03*
X12584D02*
D03*
D368*
X15295Y26237D02*
D03*
X16476Y26316D02*
D03*
X12795Y26454D02*
D03*
X10630Y26503D02*
D03*
X22264Y26611D02*
D03*
X22254Y26631D02*
D03*
X21004Y27566D02*
D03*
X22333Y28048D02*
D03*
X10659Y28117D02*
D03*
X12815D02*
D03*
X12805Y28137D02*
D03*
X13907Y28344D02*
D03*
X13917Y28353D02*
D03*
D369*
X18056Y26198D02*
D03*
X10851Y26247D02*
D03*
X14011Y27743D02*
D03*
X22574Y28304D02*
D03*
X10891Y28353D02*
D03*
X12603D02*
D03*
D370*
X22544Y26267D02*
D03*
X14070Y27694D02*
D03*
X22633Y28344D02*
D03*
D371*
X10645Y26473D02*
D03*
X22269Y26592D02*
D03*
X15320Y26700D02*
D03*
X20714Y26838D02*
D03*
X20989Y27556D02*
D03*
X13893Y27881D02*
D03*
X10674Y28137D02*
D03*
X10694Y28166D02*
D03*
X21127Y28344D02*
D03*
D372*
X22456Y26336D02*
D03*
X15202Y26847D02*
D03*
X14001Y27753D02*
D03*
X22544Y28284D02*
D03*
X10871Y28344D02*
D03*
X12613D02*
D03*
D373*
X10600Y24190D02*
D03*
X22244Y26651D02*
D03*
X10669Y28127D02*
D03*
X21132Y28334D02*
D03*
D374*
X17323Y25558D02*
D03*
X15335Y26670D02*
D03*
X22234D02*
D03*
X22303Y27989D02*
D03*
X21142Y28314D02*
D03*
X13898Y28334D02*
D03*
D375*
X14035Y27723D02*
D03*
X22598Y28324D02*
D03*
D376*
X10595Y24180D02*
D03*
X10605Y24948D02*
D03*
X18204Y26306D02*
D03*
X16462Y26336D02*
D03*
X12790Y26444D02*
D03*
X10615Y26523D02*
D03*
X10605Y26542D02*
D03*
X10595Y26562D02*
D03*
X22249Y26641D02*
D03*
X22239Y26660D02*
D03*
X15330Y26680D02*
D03*
X20733Y26818D02*
D03*
X13873Y27910D02*
D03*
X22318Y28019D02*
D03*
X22328Y28029D02*
D03*
X12830Y28088D02*
D03*
Y28097D02*
D03*
X21137Y28324D02*
D03*
D377*
X15320Y26267D02*
D03*
X18223Y26336D02*
D03*
X12820Y26493D02*
D03*
X10576Y26611D02*
D03*
X15340Y26660D02*
D03*
X20832Y26710D02*
D03*
X22219D02*
D03*
X20802Y26749D02*
D03*
X20782Y26769D02*
D03*
X21038Y27605D02*
D03*
X22288Y27960D02*
D03*
X10605Y28019D02*
D03*
X12869D02*
D03*
Y28029D02*
D03*
X10625Y28048D02*
D03*
X21156Y28284D02*
D03*
X13893Y28324D02*
D03*
D378*
X22436Y26355D02*
D03*
X22534Y28275D02*
D03*
X12643Y28324D02*
D03*
D379*
X16585Y26218D02*
D03*
X22421Y26375D02*
D03*
X22510Y28255D02*
D03*
X10846Y28324D02*
D03*
D380*
X10605Y24958D02*
D03*
X21137Y26227D02*
D03*
X21107Y26277D02*
D03*
X18214Y26326D02*
D03*
X16442Y26365D02*
D03*
X12830Y26513D02*
D03*
X10586Y26582D02*
D03*
X10576Y26601D02*
D03*
X22219Y26720D02*
D03*
X20812Y26739D02*
D03*
X20792Y26759D02*
D03*
X13863Y27940D02*
D03*
X22288Y27970D02*
D03*
X10615Y28038D02*
D03*
X12859D02*
D03*
X10625Y28058D02*
D03*
X12849D02*
D03*
X13883Y28314D02*
D03*
D381*
X13971Y27782D02*
D03*
X12652Y28314D02*
D03*
D382*
X16570Y26227D02*
D03*
X10832Y28314D02*
D03*
D383*
X18209Y26316D02*
D03*
X12805Y26473D02*
D03*
X12825Y26503D02*
D03*
X10581Y26592D02*
D03*
X22224Y26700D02*
D03*
X20758Y26798D02*
D03*
X21024Y27586D02*
D03*
X13868Y27930D02*
D03*
X22293Y27979D02*
D03*
X10630Y28068D02*
D03*
X12844D02*
D03*
X10640Y28088D02*
D03*
X10650Y28097D02*
D03*
X21152Y28304D02*
D03*
D384*
X10610Y24968D02*
D03*
X21142Y26218D02*
D03*
X21122Y26247D02*
D03*
X21102Y26286D02*
D03*
X21092Y26306D02*
D03*
X21073Y26336D02*
D03*
X21004Y26444D02*
D03*
X12835Y26523D02*
D03*
X20935Y26562D02*
D03*
X20915Y26592D02*
D03*
X10561Y26631D02*
D03*
Y26641D02*
D03*
X20866Y26660D02*
D03*
X20837Y26700D02*
D03*
X20817Y26729D02*
D03*
X22205Y26749D02*
D03*
Y26769D02*
D03*
X22274Y27930D02*
D03*
X13858Y27950D02*
D03*
X12884Y27979D02*
D03*
X10590Y27999D02*
D03*
X10610Y28029D02*
D03*
X21161Y28275D02*
D03*
X13878Y28304D02*
D03*
D385*
X18100Y26218D02*
D03*
X10817Y28304D02*
D03*
X12667D02*
D03*
D386*
X16604Y26208D02*
D03*
X10837Y26257D02*
D03*
X22470Y26326D02*
D03*
X15197Y26857D02*
D03*
X22559Y28294D02*
D03*
D387*
X10600Y24170D02*
D03*
X15305Y26257D02*
D03*
X16457Y26346D02*
D03*
X12815Y26483D02*
D03*
X10600Y26552D02*
D03*
X22224Y26690D02*
D03*
X20768Y26788D02*
D03*
X21033Y27596D02*
D03*
X22313Y28009D02*
D03*
X10640Y28078D02*
D03*
X21152Y28294D02*
D03*
D388*
X15330Y26296D02*
D03*
X21078Y26326D02*
D03*
X18243Y26365D02*
D03*
X20950Y26532D02*
D03*
X20940Y26552D02*
D03*
X12869Y26582D02*
D03*
X20920D02*
D03*
X12879Y26601D02*
D03*
X20910D02*
D03*
X10556Y26651D02*
D03*
X10546Y26670D02*
D03*
X20861D02*
D03*
X10526Y26720D02*
D03*
X22190Y26808D02*
D03*
X22180Y26828D02*
D03*
X12928Y27871D02*
D03*
X12918Y27901D02*
D03*
X22259D02*
D03*
X12908Y27920D02*
D03*
X12899Y27940D02*
D03*
X13853Y27970D02*
D03*
X21176Y28225D02*
D03*
X21166Y28245D02*
D03*
X13873Y28294D02*
D03*
D389*
X10807D02*
D03*
D390*
X15330Y26286D02*
D03*
X18233Y26355D02*
D03*
X21048Y26375D02*
D03*
X16432Y26385D02*
D03*
X16422Y26405D02*
D03*
X21028D02*
D03*
X16412Y26424D02*
D03*
X21019D02*
D03*
X20999Y26454D02*
D03*
X20989Y26473D02*
D03*
X20969Y26503D02*
D03*
X20960Y26523D02*
D03*
X12859Y26562D02*
D03*
X12869Y26592D02*
D03*
X12879Y26611D02*
D03*
X20900D02*
D03*
X15349Y26631D02*
D03*
X20891D02*
D03*
X20881Y26641D02*
D03*
X10546Y26680D02*
D03*
X10536Y26700D02*
D03*
Y26710D02*
D03*
X10526Y26729D02*
D03*
X22190Y26798D02*
D03*
Y26818D02*
D03*
X22180Y26838D02*
D03*
Y26847D02*
D03*
X21058Y27625D02*
D03*
X21068Y27635D02*
D03*
X22239Y27861D02*
D03*
X22249Y27881D02*
D03*
X12918Y27891D02*
D03*
X22249D02*
D03*
X12908Y27930D02*
D03*
X10576Y27950D02*
D03*
X12899D02*
D03*
X10576Y27960D02*
D03*
X13853D02*
D03*
X10586Y27979D02*
D03*
X21176Y28235D02*
D03*
X21166Y28255D02*
D03*
X13873Y28284D02*
D03*
D391*
X15256Y26798D02*
D03*
X12687Y28284D02*
D03*
D392*
X16555Y26237D02*
D03*
X10768Y26316D02*
D03*
X22470Y28216D02*
D03*
X10797Y28284D02*
D03*
D393*
X15344Y26316D02*
D03*
X18258Y26385D02*
D03*
X12894Y26631D02*
D03*
Y26641D02*
D03*
X10512Y26769D02*
D03*
Y26779D02*
D03*
X22175Y26867D02*
D03*
X21083Y27655D02*
D03*
X22224Y27822D02*
D03*
X12933Y27842D02*
D03*
Y27861D02*
D03*
X10551Y27891D02*
D03*
X12913Y27910D02*
D03*
X21181Y28206D02*
D03*
Y28216D02*
D03*
X13868Y28275D02*
D03*
D394*
X17323Y25568D02*
D03*
X18130Y26237D02*
D03*
X22352Y26454D02*
D03*
X15266Y26779D02*
D03*
X20935Y27517D02*
D03*
X22441Y28186D02*
D03*
X22461Y28206D02*
D03*
X12697Y28275D02*
D03*
D395*
X22362Y26444D02*
D03*
X13937Y27822D02*
D03*
X10787Y28275D02*
D03*
D396*
X21161Y26188D02*
D03*
X21122Y26257D02*
D03*
X21092Y26296D02*
D03*
X18228Y26346D02*
D03*
X21053Y26365D02*
D03*
X16427Y26395D02*
D03*
X21033D02*
D03*
X21024Y26414D02*
D03*
X20984Y26483D02*
D03*
X20964Y26513D02*
D03*
X12854Y26552D02*
D03*
X10571Y26621D02*
D03*
X20896D02*
D03*
X10541Y26690D02*
D03*
X20846D02*
D03*
X22205Y26759D02*
D03*
X21053Y27615D02*
D03*
X22274Y27940D02*
D03*
X10590Y27989D02*
D03*
X12884D02*
D03*
X12874Y28009D02*
D03*
X21161Y28265D02*
D03*
D397*
X10610Y24977D02*
D03*
X16417Y26414D02*
D03*
X12884Y26621D02*
D03*
X15354D02*
D03*
X12903Y26670D02*
D03*
X10522Y26739D02*
D03*
Y26759D02*
D03*
X22165Y26897D02*
D03*
X21073Y27645D02*
D03*
X22214Y27802D02*
D03*
X22234Y27851D02*
D03*
X10541Y27871D02*
D03*
X10561Y27920D02*
D03*
X10571Y27940D02*
D03*
X13848Y27989D02*
D03*
X13858Y28265D02*
D03*
D398*
X18273Y26424D02*
D03*
X10497Y26838D02*
D03*
Y26847D02*
D03*
X22210Y27773D02*
D03*
X12948Y27792D02*
D03*
X13853Y28255D02*
D03*
D399*
X12682Y26316D02*
D03*
X10733Y26355D02*
D03*
X12712Y28255D02*
D03*
D400*
X11713Y25578D02*
D03*
X12638Y26277D02*
D03*
X10787Y26296D02*
D03*
X22402Y26395D02*
D03*
X15246Y26808D02*
D03*
X22500Y28245D02*
D03*
D401*
X12741Y24190D02*
D03*
X10497Y26828D02*
D03*
X21097Y27684D02*
D03*
X12948Y27782D02*
D03*
X22210D02*
D03*
X12948Y27802D02*
D03*
X13853Y28245D02*
D03*
D402*
X22333Y26483D02*
D03*
X13927Y27832D02*
D03*
X22431Y28176D02*
D03*
X10758Y28245D02*
D03*
X12726D02*
D03*
D403*
X22485Y28235D02*
D03*
D404*
X10600Y24141D02*
D03*
X12736Y24180D02*
D03*
X15364Y26375D02*
D03*
Y26385D02*
D03*
X15374Y26503D02*
D03*
Y26523D02*
D03*
Y26542D02*
D03*
X12933Y26749D02*
D03*
X12943Y26779D02*
D03*
Y26798D02*
D03*
X12953Y26818D02*
D03*
X12963Y26867D02*
D03*
X10482Y26907D02*
D03*
Y26916D02*
D03*
X22155Y26956D02*
D03*
X10463Y27005D02*
D03*
X22146D02*
D03*
X10463Y27025D02*
D03*
X22146D02*
D03*
X10463Y27034D02*
D03*
X22146D02*
D03*
X10463Y27054D02*
D03*
X22146D02*
D03*
X22136Y27094D02*
D03*
Y27103D02*
D03*
Y27123D02*
D03*
X10453Y27143D02*
D03*
X22136D02*
D03*
X13002Y27448D02*
D03*
Y27468D02*
D03*
X12992Y27556D02*
D03*
X22155D02*
D03*
X12992Y27566D02*
D03*
Y27586D02*
D03*
X12982Y27605D02*
D03*
Y27625D02*
D03*
Y27635D02*
D03*
X10482Y27655D02*
D03*
X12982D02*
D03*
X22175D02*
D03*
X10492Y27694D02*
D03*
Y27704D02*
D03*
X21112D02*
D03*
X10502Y27723D02*
D03*
X22195D02*
D03*
X10502Y27743D02*
D03*
X12963D02*
D03*
X21132D02*
D03*
X10502Y27753D02*
D03*
X10512Y27773D02*
D03*
X13839Y28019D02*
D03*
Y28206D02*
D03*
X13848Y28235D02*
D03*
D405*
X12751Y28216D02*
D03*
X12731Y28235D02*
D03*
D406*
X22323Y26503D02*
D03*
X20659Y26867D02*
D03*
X10748Y28235D02*
D03*
D407*
X18268Y26414D02*
D03*
X18278Y26434D02*
D03*
X16388Y26483D02*
D03*
X15374Y26513D02*
D03*
Y26532D02*
D03*
Y26552D02*
D03*
X12933Y26759D02*
D03*
X12943Y26788D02*
D03*
X12953Y26828D02*
D03*
X12963Y26857D02*
D03*
X10482Y26897D02*
D03*
X10463Y27015D02*
D03*
X22146D02*
D03*
X10463Y27044D02*
D03*
X22146D02*
D03*
X22136Y27084D02*
D03*
Y27113D02*
D03*
X10453Y27133D02*
D03*
X22136D02*
D03*
X10453Y27153D02*
D03*
X13002Y27438D02*
D03*
Y27458D02*
D03*
Y27477D02*
D03*
X12992Y27546D02*
D03*
Y27576D02*
D03*
X12982Y27615D02*
D03*
X10482Y27645D02*
D03*
X12982D02*
D03*
X22175D02*
D03*
Y27664D02*
D03*
X10492Y27684D02*
D03*
X10502Y27733D02*
D03*
X12963D02*
D03*
X22195D02*
D03*
X10512Y27763D02*
D03*
X22205D02*
D03*
X10512Y27782D02*
D03*
X13839Y28196D02*
D03*
X13848Y28225D02*
D03*
D408*
X15369Y26405D02*
D03*
Y26424D02*
D03*
Y26444D02*
D03*
X18282D02*
D03*
X15369Y26454D02*
D03*
X18282D02*
D03*
X15369Y26493D02*
D03*
X12958Y26838D02*
D03*
Y26847D02*
D03*
X12987Y26985D02*
D03*
Y27005D02*
D03*
Y27025D02*
D03*
X10458Y27074D02*
D03*
Y27094D02*
D03*
Y27103D02*
D03*
Y27123D02*
D03*
X22131Y27162D02*
D03*
X13007Y27172D02*
D03*
X22131D02*
D03*
X13007Y27192D02*
D03*
X22131D02*
D03*
X13007Y27212D02*
D03*
X22131D02*
D03*
X13007Y27231D02*
D03*
X22131D02*
D03*
X13007Y27241D02*
D03*
X22131D02*
D03*
X13007Y27261D02*
D03*
X22131D02*
D03*
X13007Y27281D02*
D03*
X22131D02*
D03*
X13007Y27300D02*
D03*
X22131D02*
D03*
X13007Y27310D02*
D03*
X22131D02*
D03*
X13007Y27330D02*
D03*
X22131D02*
D03*
X13007Y27349D02*
D03*
X22131D02*
D03*
X13007Y27359D02*
D03*
Y27379D02*
D03*
Y27399D02*
D03*
Y27418D02*
D03*
X10458Y27428D02*
D03*
X13007D02*
D03*
X10458Y27448D02*
D03*
Y27468D02*
D03*
Y27487D02*
D03*
Y27497D02*
D03*
X22151D02*
D03*
Y27517D02*
D03*
Y27536D02*
D03*
X10487Y27674D02*
D03*
X21156Y27792D02*
D03*
X13843Y28216D02*
D03*
D409*
X12741Y26375D02*
D03*
X22298Y26542D02*
D03*
X10723Y28206D02*
D03*
D410*
X10600Y24151D02*
D03*
X11713Y25558D02*
D03*
X18258Y26395D02*
D03*
X16407Y26434D02*
D03*
X10512Y26788D02*
D03*
X22175Y26857D02*
D03*
Y26877D02*
D03*
X22224Y27832D02*
D03*
X12933Y27851D02*
D03*
X22244Y27871D02*
D03*
X10551Y27901D02*
D03*
X21181Y28196D02*
D03*
D411*
X18174Y26277D02*
D03*
X10674Y26434D02*
D03*
X22377Y28107D02*
D03*
X12780Y28176D02*
D03*
X10714Y28196D02*
D03*
D412*
X15349Y26336D02*
D03*
X18263Y26405D02*
D03*
X16403Y26444D02*
D03*
Y26454D02*
D03*
X16393Y26473D02*
D03*
X15369Y26562D02*
D03*
Y26572D02*
D03*
X15359Y26592D02*
D03*
X12899Y26660D02*
D03*
X12908Y26680D02*
D03*
X12918Y26700D02*
D03*
Y26710D02*
D03*
X12928Y26729D02*
D03*
X12938Y26769D02*
D03*
X10507Y26798D02*
D03*
X10487Y26867D02*
D03*
Y26887D02*
D03*
X22160Y26916D02*
D03*
Y26936D02*
D03*
X22151Y26966D02*
D03*
Y26985D02*
D03*
X21107Y27694D02*
D03*
X12967Y27704D02*
D03*
Y27723D02*
D03*
X22200Y27743D02*
D03*
X12958Y27753D02*
D03*
X22200D02*
D03*
X12958Y27773D02*
D03*
X10517Y27792D02*
D03*
X22219Y27812D02*
D03*
X10527Y27822D02*
D03*
Y27842D02*
D03*
X10536Y27861D02*
D03*
X10546Y27881D02*
D03*
X13843Y27999D02*
D03*
X13834Y28029D02*
D03*
X21186Y28157D02*
D03*
Y28166D02*
D03*
Y28186D02*
D03*
D413*
X16373Y24643D02*
D03*
X23962D02*
D03*
X18292Y26473D02*
D03*
X16383Y26493D02*
D03*
X16373Y26523D02*
D03*
X12967Y26887D02*
D03*
X12977Y26916D02*
D03*
Y26936D02*
D03*
Y26956D02*
D03*
Y26966D02*
D03*
X12997Y27054D02*
D03*
Y27074D02*
D03*
X22141D02*
D03*
X12997Y27094D02*
D03*
Y27103D02*
D03*
Y27123D02*
D03*
X10448Y27162D02*
D03*
Y27172D02*
D03*
Y27192D02*
D03*
Y27212D02*
D03*
Y27231D02*
D03*
Y27241D02*
D03*
Y27261D02*
D03*
Y27281D02*
D03*
Y27300D02*
D03*
Y27310D02*
D03*
Y27330D02*
D03*
Y27349D02*
D03*
Y27359D02*
D03*
Y27379D02*
D03*
X22141Y27418D02*
D03*
Y27428D02*
D03*
Y27448D02*
D03*
Y27468D02*
D03*
X12997Y27487D02*
D03*
Y27497D02*
D03*
Y27517D02*
D03*
X10467Y27536D02*
D03*
X12997D02*
D03*
X10467Y27556D02*
D03*
Y27566D02*
D03*
X22160D02*
D03*
Y27586D02*
D03*
X10477Y27605D02*
D03*
Y27625D02*
D03*
Y27635D02*
D03*
X22170D02*
D03*
X22180Y27674D02*
D03*
X21137Y27753D02*
D03*
X21147Y27773D02*
D03*
X21196Y27999D02*
D03*
Y28019D02*
D03*
Y28029D02*
D03*
Y28048D02*
D03*
Y28068D02*
D03*
X13834Y28088D02*
D03*
X21196D02*
D03*
X13834Y28097D02*
D03*
Y28137D02*
D03*
Y28157D02*
D03*
Y28166D02*
D03*
Y28186D02*
D03*
D414*
X12741Y24170D02*
D03*
X16373Y24653D02*
D03*
X18292Y26464D02*
D03*
X16373Y26513D02*
D03*
Y26532D02*
D03*
X12948Y26808D02*
D03*
X12967Y26877D02*
D03*
Y26897D02*
D03*
X12977Y26926D02*
D03*
Y26946D02*
D03*
X10467Y26995D02*
D03*
X12997Y27064D02*
D03*
X22141D02*
D03*
X12997Y27084D02*
D03*
Y27113D02*
D03*
X10448Y27182D02*
D03*
Y27202D02*
D03*
Y27222D02*
D03*
Y27251D02*
D03*
Y27271D02*
D03*
Y27290D02*
D03*
Y27320D02*
D03*
Y27340D02*
D03*
Y27369D02*
D03*
X22141Y27408D02*
D03*
Y27438D02*
D03*
Y27458D02*
D03*
Y27477D02*
D03*
X12997Y27507D02*
D03*
X10467Y27527D02*
D03*
X12997D02*
D03*
X10467Y27546D02*
D03*
Y27576D02*
D03*
X22160D02*
D03*
Y27596D02*
D03*
X10477Y27615D02*
D03*
X10497Y27714D02*
D03*
X21127Y27733D02*
D03*
X21147Y27782D02*
D03*
X21166Y27832D02*
D03*
X21186Y27920D02*
D03*
X21196Y27989D02*
D03*
Y28009D02*
D03*
Y28038D02*
D03*
Y28058D02*
D03*
X13834Y28078D02*
D03*
X21196D02*
D03*
X13834Y28107D02*
D03*
Y28147D02*
D03*
Y28176D02*
D03*
D415*
X16496Y26296D02*
D03*
X12756Y26395D02*
D03*
X22293Y26552D02*
D03*
X20984Y27546D02*
D03*
X10699Y28176D02*
D03*
D416*
X16521Y26267D02*
D03*
X12702Y26336D02*
D03*
X22328Y26493D02*
D03*
X15290Y26749D02*
D03*
X13922Y27842D02*
D03*
X22416Y28157D02*
D03*
D417*
X18184Y26286D02*
D03*
X12761Y26405D02*
D03*
X10635Y26493D02*
D03*
X15310Y26710D02*
D03*
X22347Y28068D02*
D03*
X10684Y28157D02*
D03*
X12790D02*
D03*
D418*
X20950Y27527D02*
D03*
X13912Y27851D02*
D03*
X22406Y28147D02*
D03*
D419*
X15354Y26346D02*
D03*
Y26365D02*
D03*
X12923Y26720D02*
D03*
X10472Y26946D02*
D03*
Y26975D02*
D03*
Y27596D02*
D03*
X22165Y27615D02*
D03*
X12972Y27684D02*
D03*
X22185D02*
D03*
X21142Y27763D02*
D03*
X13829Y28058D02*
D03*
X21191Y28107D02*
D03*
Y28127D02*
D03*
Y28147D02*
D03*
D420*
X12771Y26414D02*
D03*
X22269Y26601D02*
D03*
X22357Y28078D02*
D03*
X12800Y28147D02*
D03*
D421*
X10610Y24938D02*
D03*
X15285Y26227D02*
D03*
X18189Y26296D02*
D03*
X12785Y26434D02*
D03*
X10640Y26483D02*
D03*
X10620Y26513D02*
D03*
X22254Y26621D02*
D03*
X15325Y26690D02*
D03*
X21014Y27576D02*
D03*
X13878Y27901D02*
D03*
X22333Y28038D02*
D03*
X22342Y28058D02*
D03*
X10679Y28147D02*
D03*
D422*
X10610Y24987D02*
D03*
X15354Y26355D02*
D03*
X16378Y26503D02*
D03*
X12972Y26907D02*
D03*
X10472Y26936D02*
D03*
Y26956D02*
D03*
Y26966D02*
D03*
Y26985D02*
D03*
Y27586D02*
D03*
X22165Y27605D02*
D03*
Y27625D02*
D03*
X12972Y27674D02*
D03*
Y27694D02*
D03*
X22185D02*
D03*
Y27704D02*
D03*
X21122Y27723D02*
D03*
X10522Y27812D02*
D03*
X13829Y28048D02*
D03*
Y28068D02*
D03*
X21191Y28097D02*
D03*
Y28117D02*
D03*
Y28137D02*
D03*
D423*
X21516Y24190D02*
D03*
X14321Y24958D02*
D03*
X15374Y26464D02*
D03*
Y26483D02*
D03*
X18297D02*
D03*
X18317Y26532D02*
D03*
X16358Y26582D02*
D03*
X12992Y27044D02*
D03*
X13002Y27133D02*
D03*
Y27153D02*
D03*
X22136Y27369D02*
D03*
X10453Y27389D02*
D03*
X22136D02*
D03*
X10453Y27408D02*
D03*
X21171Y27851D02*
D03*
X21181Y27871D02*
D03*
Y27901D02*
D03*
X21191Y27940D02*
D03*
Y27970D02*
D03*
X13829Y28127D02*
D03*
D424*
X12736Y24160D02*
D03*
X16368D02*
D03*
Y24662D02*
D03*
Y24672D02*
D03*
X14321Y24948D02*
D03*
X10610Y24997D02*
D03*
X15374Y26473D02*
D03*
X18297Y26493D02*
D03*
X16368Y26542D02*
D03*
X16358Y26562D02*
D03*
Y26572D02*
D03*
X16348Y26611D02*
D03*
X12992Y27034D02*
D03*
X13002Y27143D02*
D03*
Y27162D02*
D03*
X22136Y27359D02*
D03*
Y27379D02*
D03*
X10453Y27399D02*
D03*
X22136D02*
D03*
X10453Y27418D02*
D03*
X22146Y27487D02*
D03*
X10463Y27517D02*
D03*
X21161Y27812D02*
D03*
Y27822D02*
D03*
X21171Y27842D02*
D03*
Y27861D02*
D03*
X21181Y27881D02*
D03*
Y27891D02*
D03*
Y27910D02*
D03*
X21191Y27930D02*
D03*
Y27950D02*
D03*
Y27960D02*
D03*
Y27979D02*
D03*
X13829Y28117D02*
D03*
D425*
X12800Y26464D02*
D03*
X12820Y28107D02*
D03*
D426*
X16471Y26326D02*
D03*
X10615Y26532D02*
D03*
X20743Y26808D02*
D03*
X13873Y27920D02*
D03*
X12839Y28078D02*
D03*
X10654Y28107D02*
D03*
D427*
X16447Y26355D02*
D03*
X10590Y26572D02*
D03*
X22234Y26680D02*
D03*
X22303Y27999D02*
D03*
X12854Y28048D02*
D03*
D428*
X21152Y26208D02*
D03*
X15325Y26277D02*
D03*
X21063Y26346D02*
D03*
X21014Y26434D02*
D03*
X20994Y26464D02*
D03*
X12844Y26532D02*
D03*
X15344Y26651D02*
D03*
X20876D02*
D03*
X20827Y26720D02*
D03*
X22195Y26788D02*
D03*
X22264Y27920D02*
D03*
X10581Y27970D02*
D03*
X12894D02*
D03*
X10600Y28009D02*
D03*
D429*
X22210Y26729D02*
D03*
X20773Y26779D02*
D03*
X22278Y27950D02*
D03*
X12879Y27999D02*
D03*
D430*
X15335Y26306D02*
D03*
X18248Y26375D02*
D03*
X15354Y26611D02*
D03*
X10522Y26749D02*
D03*
X10502Y26818D02*
D03*
X22165Y26887D02*
D03*
Y26907D02*
D03*
X21092Y27674D02*
D03*
X22214Y27792D02*
D03*
X12943Y27812D02*
D03*
Y27822D02*
D03*
X22234Y27842D02*
D03*
X12923Y27881D02*
D03*
X10561Y27910D02*
D03*
Y27930D02*
D03*
X13848Y27979D02*
D03*
D431*
X10600Y24160D02*
D03*
X21152Y26198D02*
D03*
X21132Y26237D02*
D03*
X21112Y26267D02*
D03*
X21083Y26316D02*
D03*
X21063Y26355D02*
D03*
X16437Y26375D02*
D03*
X21043Y26385D02*
D03*
X20974Y26493D02*
D03*
X12844Y26542D02*
D03*
X20945D02*
D03*
X12864Y26572D02*
D03*
X20925D02*
D03*
X15344Y26641D02*
D03*
X10551Y26660D02*
D03*
X20856Y26680D02*
D03*
X22195Y26779D02*
D03*
X22264Y27910D02*
D03*
X12894Y27960D02*
D03*
D432*
X12776Y26424D02*
D03*
X13888Y27891D02*
D03*
D433*
X15369Y26395D02*
D03*
Y26414D02*
D03*
Y26434D02*
D03*
X16363Y26552D02*
D03*
X12987Y26975D02*
D03*
Y26995D02*
D03*
Y27015D02*
D03*
X10458Y27064D02*
D03*
Y27084D02*
D03*
Y27113D02*
D03*
X22131Y27153D02*
D03*
X13007Y27182D02*
D03*
X22131D02*
D03*
X13007Y27202D02*
D03*
X22131D02*
D03*
X13007Y27222D02*
D03*
X22131D02*
D03*
X13007Y27251D02*
D03*
X22131D02*
D03*
X13007Y27271D02*
D03*
X22131D02*
D03*
X13007Y27290D02*
D03*
X22131D02*
D03*
X13007Y27320D02*
D03*
X22131D02*
D03*
X13007Y27340D02*
D03*
X22131D02*
D03*
X13007Y27369D02*
D03*
Y27389D02*
D03*
Y27408D02*
D03*
X10458Y27438D02*
D03*
Y27458D02*
D03*
Y27477D02*
D03*
Y27507D02*
D03*
X22151D02*
D03*
Y27527D02*
D03*
Y27546D02*
D03*
X12987Y27596D02*
D03*
X10487Y27664D02*
D03*
X21156Y27802D02*
D03*
D434*
X22387Y26414D02*
D03*
X13952Y27802D02*
D03*
D435*
X15216Y26168D02*
D03*
X13966Y27792D02*
D03*
D436*
X13981Y27773D02*
D03*
D437*
X17328Y25578D02*
D03*
X15192Y26158D02*
D03*
X13991Y27763D02*
D03*
D438*
X14045Y27714D02*
D03*
D439*
X21334Y26158D02*
D03*
X22554Y26257D02*
D03*
X14080Y27684D02*
D03*
D440*
X21412Y26050D02*
D03*
X21403Y26060D02*
D03*
X22574Y26247D02*
D03*
X14099Y27674D02*
D03*
D441*
X21476Y25962D02*
D03*
X14124Y27655D02*
D03*
D442*
X21545Y25873D02*
D03*
X14153Y27635D02*
D03*
D443*
X21575Y25844D02*
D03*
X14163Y27625D02*
D03*
D444*
X14178Y27615D02*
D03*
D445*
X21649Y25765D02*
D03*
X14208Y27596D02*
D03*
D446*
X11717Y25637D02*
D03*
X21678Y25735D02*
D03*
X14217Y27586D02*
D03*
D447*
X23711Y25548D02*
D03*
X14242Y27566D02*
D03*
D448*
X14277Y27546D02*
D03*
D449*
X14286Y27536D02*
D03*
D450*
X14316Y27517D02*
D03*
D451*
X14326Y27507D02*
D03*
D452*
X12623Y26267D02*
D03*
X10802Y26286D02*
D03*
X20891Y27497D02*
D03*
D453*
X17328Y25588D02*
D03*
X16629Y26198D02*
D03*
X10871Y26237D02*
D03*
X20841Y27487D02*
D03*
D454*
X14355D02*
D03*
D455*
X14370Y27477D02*
D03*
D456*
X14380Y27468D02*
D03*
D457*
X14395Y27458D02*
D03*
D458*
X14409Y27448D02*
D03*
D459*
X14424Y27438D02*
D03*
D460*
X20236Y27428D02*
D03*
D461*
X14778Y27162D02*
D03*
X14434Y27428D02*
D03*
D462*
X23312Y25942D02*
D03*
X20221Y27399D02*
D03*
D463*
X23317Y25932D02*
D03*
X20216Y27389D02*
D03*
D464*
X14488D02*
D03*
D465*
X14690Y27231D02*
D03*
X14503Y27379D02*
D03*
D466*
X14700Y27222D02*
D03*
X14513Y27369D02*
D03*
D467*
X21900Y25568D02*
D03*
X14675Y27241D02*
D03*
X14537Y27349D02*
D03*
X14528Y27359D02*
D03*
D468*
X20197Y27349D02*
D03*
D469*
X20192Y27340D02*
D03*
D470*
X14651Y27261D02*
D03*
X14631Y27281D02*
D03*
X14601Y27300D02*
D03*
X14562Y27330D02*
D03*
D471*
X23356Y25863D02*
D03*
X17333Y25883D02*
D03*
X20177Y27320D02*
D03*
D472*
X23361Y25853D02*
D03*
X20172Y27310D02*
D03*
D473*
X14591D02*
D03*
D474*
X20133Y27251D02*
D03*
D475*
X14665D02*
D03*
D476*
X20113Y26916D02*
D03*
Y27231D02*
D03*
D477*
X17333Y25804D02*
D03*
X20098Y27212D02*
D03*
D478*
X20089Y27202D02*
D03*
D479*
X14724D02*
D03*
D480*
X14744Y27192D02*
D03*
D481*
X14754Y27182D02*
D03*
D482*
X17328Y25775D02*
D03*
X20054Y27025D02*
D03*
Y27172D02*
D03*
D483*
X20044Y27034D02*
D03*
Y27162D02*
D03*
D484*
X20034Y27153D02*
D03*
D485*
X17333Y25676D02*
D03*
X14793Y27153D02*
D03*
D486*
X20020Y27143D02*
D03*
D487*
X21845Y25597D02*
D03*
X14808Y27143D02*
D03*
D488*
X20005Y27084D02*
D03*
Y27133D02*
D03*
D489*
X23642Y25578D02*
D03*
X14823Y27133D02*
D03*
D490*
X17328Y25666D02*
D03*
X14838Y27123D02*
D03*
D491*
X14847Y27113D02*
D03*
D492*
X11713Y25666D02*
D03*
X14862Y27103D02*
D03*
D493*
X21786Y25637D02*
D03*
X17328Y25657D02*
D03*
X14877Y27094D02*
D03*
D494*
X14897Y27084D02*
D03*
D495*
X21742Y25676D02*
D03*
X14921Y27064D02*
D03*
D496*
X17333Y25755D02*
D03*
X20029Y27054D02*
D03*
D497*
X14936D02*
D03*
D498*
X20039Y27044D02*
D03*
D499*
X11717Y25647D02*
D03*
X21717Y25696D02*
D03*
X14946Y27044D02*
D03*
D500*
X17328Y25637D02*
D03*
X21698Y25716D02*
D03*
X14966Y27034D02*
D03*
D501*
X20059Y27015D02*
D03*
D502*
X14990D02*
D03*
D503*
X20064Y27005D02*
D03*
D504*
X15010D02*
D03*
D505*
X11713Y25627D02*
D03*
X21604Y25814D02*
D03*
X22657Y26208D02*
D03*
X15020Y26995D02*
D03*
D506*
X21589Y25824D02*
D03*
X15034Y26985D02*
D03*
D507*
X10600Y24111D02*
D03*
X17382Y24160D02*
D03*
X11713Y25548D02*
D03*
X18376Y26887D02*
D03*
Y26907D02*
D03*
Y26916D02*
D03*
Y26936D02*
D03*
Y26956D02*
D03*
Y26966D02*
D03*
D508*
X21530Y25893D02*
D03*
X15064Y26966D02*
D03*
D509*
X20093Y26956D02*
D03*
D510*
X18376Y26877D02*
D03*
Y26897D02*
D03*
Y26926D02*
D03*
Y26946D02*
D03*
D511*
X15089D02*
D03*
D512*
X21422Y26031D02*
D03*
X15103Y26936D02*
D03*
D513*
X23425Y25765D02*
D03*
X17333Y25814D02*
D03*
X20108Y26926D02*
D03*
D514*
X10600Y24121D02*
D03*
X12736Y24151D02*
D03*
X21526Y24170D02*
D03*
X10610Y25007D02*
D03*
X18327Y26582D02*
D03*
X18337Y26601D02*
D03*
Y26621D02*
D03*
X18346Y26651D02*
D03*
X16319Y26788D02*
D03*
Y26808D02*
D03*
X16309Y26926D02*
D03*
D515*
X17323Y25597D02*
D03*
X21329Y26168D02*
D03*
X21319Y26178D02*
D03*
X15128Y26916D02*
D03*
D516*
X15138Y26907D02*
D03*
D517*
X20123Y26897D02*
D03*
D518*
X12525Y26208D02*
D03*
X15153Y26897D02*
D03*
D519*
X12598Y26247D02*
D03*
X10827Y26267D02*
D03*
X15216Y26838D02*
D03*
D520*
X16348Y24111D02*
D03*
X23937D02*
D03*
X12736Y24131D02*
D03*
X21535Y24141D02*
D03*
X22953D02*
D03*
X15354Y24160D02*
D03*
X22953D02*
D03*
X15364Y24643D02*
D03*
X21535Y24948D02*
D03*
X10610Y25017D02*
D03*
X14301D02*
D03*
X18366Y26779D02*
D03*
Y26798D02*
D03*
D521*
X16358Y24131D02*
D03*
X23947D02*
D03*
X12736Y24141D02*
D03*
X16358D02*
D03*
X23947D02*
D03*
X14311Y24987D02*
D03*
Y24997D02*
D03*
X17323Y25548D02*
D03*
X18327Y26572D02*
D03*
X18337Y26611D02*
D03*
X16339Y26660D02*
D03*
X18346D02*
D03*
X18356Y26710D02*
D03*
X16319Y26769D02*
D03*
Y26779D02*
D03*
Y26798D02*
D03*
D522*
X16348Y24101D02*
D03*
X22953Y24151D02*
D03*
X18366Y26788D02*
D03*
D523*
X18115Y26227D02*
D03*
X12662Y26296D02*
D03*
X10763Y26326D02*
D03*
X22367Y26434D02*
D03*
X15261Y26788D02*
D03*
D524*
X15285Y26759D02*
D03*
D525*
X22210Y26739D02*
D03*
D526*
X16329Y26720D02*
D03*
Y26739D02*
D03*
D527*
Y26700D02*
D03*
Y26710D02*
D03*
Y26729D02*
D03*
D528*
X14316Y24977D02*
D03*
X18322Y26552D02*
D03*
X16353Y26601D02*
D03*
X16334Y26670D02*
D03*
Y26690D02*
D03*
D529*
X14316Y24968D02*
D03*
X18322Y26542D02*
D03*
Y26562D02*
D03*
X16353Y26592D02*
D03*
X16334Y26680D02*
D03*
D530*
X16363Y24151D02*
D03*
X23952D02*
D03*
X16363Y24682D02*
D03*
X23952D02*
D03*
X16343Y26621D02*
D03*
Y26651D02*
D03*
D531*
X23952Y24160D02*
D03*
X21521Y24180D02*
D03*
X23952Y24672D02*
D03*
X18312Y26523D02*
D03*
X18332Y26592D02*
D03*
X16343Y26631D02*
D03*
Y26641D02*
D03*
D532*
X22313Y26523D02*
D03*
D533*
X23957Y24653D02*
D03*
X18307Y26513D02*
D03*
D534*
X10600Y24131D02*
D03*
X23957Y24662D02*
D03*
X18307Y26503D02*
D03*
D535*
X15241Y26188D02*
D03*
X22347Y26464D02*
D03*
D536*
X12613Y26257D02*
D03*
X10812Y26277D02*
D03*
X22426Y26365D02*
D03*
D537*
X16530Y26257D02*
D03*
X12692Y26326D02*
D03*
X10723Y26365D02*
D03*
D538*
X22446Y26346D02*
D03*
D539*
X22490Y26306D02*
D03*
D540*
X22500Y26296D02*
D03*
D541*
X15300Y26247D02*
D03*
D542*
X21462Y25981D02*
D03*
X21452Y25991D02*
D03*
X22593Y26237D02*
D03*
D543*
X12569Y26227D02*
D03*
D544*
X15143Y26139D02*
D03*
X10881Y26227D02*
D03*
D545*
X17328Y25617D02*
D03*
X21570Y25853D02*
D03*
X22633Y26218D02*
D03*
D546*
X10901D02*
D03*
D547*
X22687Y26198D02*
D03*
D548*
X22731Y26188D02*
D03*
D549*
X17338Y26168D02*
D03*
Y26178D02*
D03*
D550*
X11717D02*
D03*
D551*
X11717Y26158D02*
D03*
D552*
X23223Y26149D02*
D03*
D553*
X15113Y26129D02*
D03*
X21343Y26149D02*
D03*
D554*
X17338D02*
D03*
D555*
X11717D02*
D03*
D556*
X17333Y26040D02*
D03*
X23228Y26139D02*
D03*
D557*
X17338D02*
D03*
D558*
Y26129D02*
D03*
D559*
X23233Y26119D02*
D03*
D560*
X17333D02*
D03*
D561*
X13632Y25558D02*
D03*
X14419Y26119D02*
D03*
D562*
X14090Y25765D02*
D03*
X11717Y26119D02*
D03*
D563*
X23238Y26099D02*
D03*
Y26109D02*
D03*
D564*
X17338Y26099D02*
D03*
D565*
X14409D02*
D03*
D566*
X17333Y26090D02*
D03*
D567*
X14400D02*
D03*
D568*
X23248Y26080D02*
D03*
D569*
X11717Y25991D02*
D03*
X17338Y26080D02*
D03*
D570*
X14375Y26050D02*
D03*
X14395Y26080D02*
D03*
D571*
X21398Y26070D02*
D03*
D572*
X17333D02*
D03*
D573*
X17333Y26060D02*
D03*
D574*
X13735Y25588D02*
D03*
X14385Y26060D02*
D03*
D575*
X17338Y26050D02*
D03*
D576*
X23268Y26040D02*
D03*
D577*
X21432Y26021D02*
D03*
X21412Y26040D02*
D03*
D578*
X17333Y26031D02*
D03*
D579*
X14360D02*
D03*
D580*
X17338Y26021D02*
D03*
D581*
X17333Y26011D02*
D03*
D582*
X21447Y26001D02*
D03*
D583*
X17333D02*
D03*
D584*
X14336D02*
D03*
D585*
X14326Y25991D02*
D03*
D586*
X23292Y25981D02*
D03*
D587*
X23297Y25972D02*
D03*
D588*
X23307Y25952D02*
D03*
D589*
X21486D02*
D03*
D590*
X14247Y25903D02*
D03*
X14296Y25952D02*
D03*
D591*
X17328Y25607D02*
D03*
X21501Y25932D02*
D03*
D592*
X11717Y25922D02*
D03*
D593*
X23779Y25529D02*
D03*
X21516Y25912D02*
D03*
D594*
X23332Y25903D02*
D03*
D595*
X21540Y25883D02*
D03*
D596*
X23351Y25873D02*
D03*
D597*
X14222D02*
D03*
D598*
X11717Y25863D02*
D03*
D599*
X17333Y25853D02*
D03*
D600*
X14050Y25735D02*
D03*
X14119Y25784D02*
D03*
X14168Y25824D02*
D03*
X14188Y25844D02*
D03*
D601*
X21585Y25834D02*
D03*
D602*
X14178D02*
D03*
D603*
X11717Y25824D02*
D03*
D604*
Y25814D02*
D03*
D605*
X21614Y25804D02*
D03*
D606*
X21619Y25794D02*
D03*
D607*
X21629Y25784D02*
D03*
D608*
X23450Y25735D02*
D03*
X11717Y25784D02*
D03*
D609*
X21639Y25775D02*
D03*
D610*
X17328Y25765D02*
D03*
D611*
X11717D02*
D03*
D612*
X23435Y25755D02*
D03*
D613*
X21653D02*
D03*
D614*
X21668Y25745D02*
D03*
D615*
X17328D02*
D03*
D616*
X23460Y25725D02*
D03*
D617*
X21688D02*
D03*
D618*
X11717D02*
D03*
D619*
X23469Y25716D02*
D03*
D620*
X11717D02*
D03*
D621*
X21708Y25706D02*
D03*
D622*
X23494Y25686D02*
D03*
D623*
X21732D02*
D03*
D624*
X11717D02*
D03*
X17328D02*
D03*
D625*
X23528Y25657D02*
D03*
D626*
X21777Y25647D02*
D03*
D627*
X17328D02*
D03*
D628*
X23563Y25627D02*
D03*
D629*
X17323D02*
D03*
D630*
X21821Y25617D02*
D03*
D631*
X11713D02*
D03*
D632*
X13794Y25607D02*
D03*
D633*
X11713D02*
D03*
D634*
X21855Y25588D02*
D03*
X23627D02*
D03*
D635*
X11713D02*
D03*
D636*
X23666Y25568D02*
D03*
D637*
X23686Y25558D02*
D03*
D638*
X21914D02*
D03*
D639*
X13583Y25548D02*
D03*
D640*
X23740Y25538D02*
D03*
D641*
X17323D02*
D03*
D642*
X17382Y24082D02*
D03*
X11713Y25538D02*
D03*
D643*
X15359Y24042D02*
D03*
X19454Y24072D02*
D03*
X11678Y24574D02*
D03*
X11658Y24594D02*
D03*
X20143Y24692D02*
D03*
X19454Y24712D02*
D03*
X17318Y25529D02*
D03*
D644*
X10600Y24023D02*
D03*
X12736D02*
D03*
X11772Y24505D02*
D03*
X20157Y24731D02*
D03*
X19468Y24741D02*
D03*
X11713Y25529D02*
D03*
D645*
X23824Y25519D02*
D03*
D646*
X10595Y23993D02*
D03*
X16462Y24023D02*
D03*
X24050D02*
D03*
X12495Y24200D02*
D03*
X11895Y24416D02*
D03*
X11501Y24712D02*
D03*
X21294Y24899D02*
D03*
X11511Y24948D02*
D03*
X17318Y25519D02*
D03*
D647*
X12480Y24210D02*
D03*
X13002D02*
D03*
X21230Y24279D02*
D03*
X16132Y24603D02*
D03*
X24213Y24623D02*
D03*
X11476Y24731D02*
D03*
X10295Y24899D02*
D03*
X11713Y25519D02*
D03*
D648*
X12579Y25509D02*
D03*
D649*
X20339Y24180D02*
D03*
Y24229D02*
D03*
X22672Y24347D02*
D03*
Y24367D02*
D03*
Y24387D02*
D03*
Y24407D02*
D03*
Y24416D02*
D03*
Y24436D02*
D03*
Y24456D02*
D03*
Y24466D02*
D03*
Y24485D02*
D03*
Y24505D02*
D03*
Y24525D02*
D03*
Y24534D02*
D03*
Y24554D02*
D03*
Y24574D02*
D03*
X19965Y24594D02*
D03*
X22672D02*
D03*
X19965Y24603D02*
D03*
X22672D02*
D03*
Y24623D02*
D03*
Y24643D02*
D03*
Y24662D02*
D03*
Y24672D02*
D03*
Y24692D02*
D03*
Y24712D02*
D03*
Y24731D02*
D03*
Y24741D02*
D03*
Y24761D02*
D03*
Y24781D02*
D03*
Y24800D02*
D03*
X24080Y24810D02*
D03*
X18184Y24987D02*
D03*
X18765Y24997D02*
D03*
X16097Y25204D02*
D03*
X23686D02*
D03*
D650*
X22219Y23993D02*
D03*
X23214D02*
D03*
X22219Y24003D02*
D03*
X23214D02*
D03*
X22219Y24023D02*
D03*
X23214D02*
D03*
X22219Y24042D02*
D03*
X23214D02*
D03*
X22219Y24062D02*
D03*
X23214D02*
D03*
X22219Y24072D02*
D03*
X23214D02*
D03*
X22219Y24092D02*
D03*
X23214D02*
D03*
X22219Y24111D02*
D03*
Y24131D02*
D03*
Y24141D02*
D03*
Y24160D02*
D03*
Y24180D02*
D03*
Y24200D02*
D03*
Y24210D02*
D03*
Y24229D02*
D03*
Y24249D02*
D03*
Y24269D02*
D03*
Y24279D02*
D03*
Y24298D02*
D03*
Y24318D02*
D03*
X23214D02*
D03*
X22219Y24338D02*
D03*
X23214D02*
D03*
X22219Y24347D02*
D03*
X23214D02*
D03*
X22219Y24367D02*
D03*
X23214D02*
D03*
X22219Y24387D02*
D03*
X23214D02*
D03*
X22219Y24407D02*
D03*
X23214D02*
D03*
X22219Y24416D02*
D03*
X23214D02*
D03*
X22219Y24436D02*
D03*
X23214D02*
D03*
X22219Y24456D02*
D03*
X23214D02*
D03*
X22219Y24466D02*
D03*
X23214D02*
D03*
X22219Y24485D02*
D03*
X23214D02*
D03*
X22219Y24505D02*
D03*
X23214D02*
D03*
X22219Y24525D02*
D03*
X23214D02*
D03*
X22219Y24534D02*
D03*
X23214D02*
D03*
X22219Y24554D02*
D03*
X23214D02*
D03*
X22219Y24574D02*
D03*
X23214D02*
D03*
X22219Y24594D02*
D03*
X23214D02*
D03*
X22219Y24603D02*
D03*
X23214D02*
D03*
X22219Y24623D02*
D03*
X23214D02*
D03*
X22219Y24643D02*
D03*
X23214D02*
D03*
X22219Y24662D02*
D03*
X23214D02*
D03*
X22219Y24672D02*
D03*
X23214D02*
D03*
X22219Y24692D02*
D03*
X23214D02*
D03*
X22219Y24712D02*
D03*
X23214D02*
D03*
X22219Y24731D02*
D03*
X23214D02*
D03*
X22219Y24741D02*
D03*
X23214D02*
D03*
X22219Y24761D02*
D03*
X23214D02*
D03*
X22219Y24781D02*
D03*
X23214D02*
D03*
X22219Y24800D02*
D03*
X23214D02*
D03*
X22219Y24810D02*
D03*
Y24830D02*
D03*
Y24849D02*
D03*
Y24859D02*
D03*
Y24879D02*
D03*
Y24899D02*
D03*
Y24918D02*
D03*
Y24928D02*
D03*
Y24948D02*
D03*
Y24968D02*
D03*
Y24987D02*
D03*
Y24997D02*
D03*
Y25017D02*
D03*
Y25036D02*
D03*
Y25056D02*
D03*
Y25066D02*
D03*
Y25086D02*
D03*
Y25105D02*
D03*
Y25125D02*
D03*
Y25135D02*
D03*
Y25155D02*
D03*
Y25174D02*
D03*
Y25194D02*
D03*
Y25204D02*
D03*
D651*
X14045Y23993D02*
D03*
X16092D02*
D03*
X18760D02*
D03*
X22825D02*
D03*
X23681D02*
D03*
X24045D02*
D03*
X14045Y24003D02*
D03*
X16092D02*
D03*
X18760D02*
D03*
X23681D02*
D03*
X14045Y24023D02*
D03*
X16092D02*
D03*
X18760D02*
D03*
X23681D02*
D03*
X14045Y24042D02*
D03*
X16092D02*
D03*
X18760D02*
D03*
X23681D02*
D03*
X14045Y24062D02*
D03*
X16092D02*
D03*
X18760D02*
D03*
X23681D02*
D03*
X14045Y24072D02*
D03*
X16092D02*
D03*
X18760D02*
D03*
X23681D02*
D03*
X14045Y24092D02*
D03*
X18760D02*
D03*
X14045Y24111D02*
D03*
X18760D02*
D03*
X14045Y24131D02*
D03*
X18760D02*
D03*
X14045Y24141D02*
D03*
X18760D02*
D03*
X14045Y24160D02*
D03*
X18760D02*
D03*
X14045Y24180D02*
D03*
X18760D02*
D03*
X14045Y24200D02*
D03*
X18760D02*
D03*
X14045Y24210D02*
D03*
X18760D02*
D03*
X14045Y24229D02*
D03*
X18760D02*
D03*
X14045Y24249D02*
D03*
X18179D02*
D03*
X18760D02*
D03*
X20335D02*
D03*
X14045Y24269D02*
D03*
X18179D02*
D03*
X18760D02*
D03*
X22677D02*
D03*
X23209D02*
D03*
X14045Y24279D02*
D03*
X15059D02*
D03*
X15659D02*
D03*
X18179D02*
D03*
X18760D02*
D03*
X22677D02*
D03*
X23209D02*
D03*
X14045Y24298D02*
D03*
X16092D02*
D03*
X17077D02*
D03*
X17687D02*
D03*
X18179D02*
D03*
X18760D02*
D03*
X22677D02*
D03*
X23209D02*
D03*
X23681D02*
D03*
X14045Y24318D02*
D03*
X15049D02*
D03*
X16092D02*
D03*
X16683D02*
D03*
X17077D02*
D03*
X18179D02*
D03*
X18760D02*
D03*
X22677D02*
D03*
X23681D02*
D03*
X24272D02*
D03*
X13071Y24338D02*
D03*
X14045D02*
D03*
X15049D02*
D03*
X16092D02*
D03*
X17697D02*
D03*
X18179D02*
D03*
X18760D02*
D03*
X19183D02*
D03*
X22677D02*
D03*
X23681D02*
D03*
X24272D02*
D03*
X14045Y24347D02*
D03*
X15049D02*
D03*
X16092D02*
D03*
X17697D02*
D03*
X18179D02*
D03*
X18760D02*
D03*
X19183D02*
D03*
X23681D02*
D03*
X12401Y24367D02*
D03*
X13081D02*
D03*
X14045D02*
D03*
X15049D02*
D03*
X16092D02*
D03*
X16693D02*
D03*
X17067D02*
D03*
X17697D02*
D03*
X18179D02*
D03*
X18760D02*
D03*
X19183D02*
D03*
X23681D02*
D03*
X13081Y24387D02*
D03*
X14045D02*
D03*
X16092D02*
D03*
X16693D02*
D03*
X17067D02*
D03*
X17697D02*
D03*
X18179D02*
D03*
X18760D02*
D03*
X19183D02*
D03*
X23681D02*
D03*
X13081Y24407D02*
D03*
X14045D02*
D03*
X16092D02*
D03*
X16693D02*
D03*
X17067D02*
D03*
X17697D02*
D03*
X18179D02*
D03*
X18760D02*
D03*
X19183D02*
D03*
X23681D02*
D03*
X24281D02*
D03*
X13081Y24416D02*
D03*
X14045D02*
D03*
X16092D02*
D03*
X16693D02*
D03*
X17067D02*
D03*
X17697D02*
D03*
X18179D02*
D03*
X18760D02*
D03*
X19183D02*
D03*
X23681D02*
D03*
X24281D02*
D03*
X15049Y24436D02*
D03*
X16092D02*
D03*
X16693D02*
D03*
X17697D02*
D03*
X18179D02*
D03*
X18760D02*
D03*
X19183D02*
D03*
X23681D02*
D03*
X24281D02*
D03*
X12392Y24456D02*
D03*
X15049D02*
D03*
X16092D02*
D03*
X16693D02*
D03*
X17697D02*
D03*
X18179D02*
D03*
X18760D02*
D03*
X19183D02*
D03*
X23681D02*
D03*
X12392Y24466D02*
D03*
X15049D02*
D03*
X16092D02*
D03*
X16693D02*
D03*
X17077D02*
D03*
X17697D02*
D03*
X18179D02*
D03*
X18760D02*
D03*
X23681D02*
D03*
X12392Y24485D02*
D03*
X16092D02*
D03*
X17077D02*
D03*
X18179D02*
D03*
X18760D02*
D03*
X19193D02*
D03*
X23681D02*
D03*
X12392Y24505D02*
D03*
X18179D02*
D03*
X18760D02*
D03*
X12392Y24525D02*
D03*
X15659D02*
D03*
X18179D02*
D03*
X18760D02*
D03*
X12392Y24534D02*
D03*
X18179D02*
D03*
X18760D02*
D03*
X12392Y24554D02*
D03*
X18179D02*
D03*
X18760D02*
D03*
X12392Y24574D02*
D03*
X18179D02*
D03*
X18760D02*
D03*
X19961D02*
D03*
X12392Y24594D02*
D03*
X18179D02*
D03*
X18760D02*
D03*
X12392Y24603D02*
D03*
X18179D02*
D03*
X18760D02*
D03*
X12392Y24623D02*
D03*
X18760D02*
D03*
X19970D02*
D03*
X12392Y24643D02*
D03*
X14045D02*
D03*
X18760D02*
D03*
X12392Y24662D02*
D03*
X14045D02*
D03*
X18760D02*
D03*
X12392Y24672D02*
D03*
X14045D02*
D03*
X18760D02*
D03*
X12392Y24692D02*
D03*
X14045D02*
D03*
X16092D02*
D03*
X18760D02*
D03*
X23681D02*
D03*
X12392Y24712D02*
D03*
X14045D02*
D03*
X16092D02*
D03*
X18760D02*
D03*
X23681D02*
D03*
X12392Y24731D02*
D03*
X14045D02*
D03*
X16092D02*
D03*
X18760D02*
D03*
X23681D02*
D03*
X12392Y24741D02*
D03*
X14045D02*
D03*
X16092D02*
D03*
X18760D02*
D03*
X23681D02*
D03*
X12392Y24761D02*
D03*
X14045D02*
D03*
X16092D02*
D03*
X18760D02*
D03*
X23681D02*
D03*
X12392Y24781D02*
D03*
X14045D02*
D03*
X16092D02*
D03*
X18760D02*
D03*
X23681D02*
D03*
X12392Y24800D02*
D03*
X14045D02*
D03*
X16092D02*
D03*
X18760D02*
D03*
X23681D02*
D03*
X12392Y24810D02*
D03*
X14045D02*
D03*
X16092D02*
D03*
X18179D02*
D03*
X23681D02*
D03*
X12392Y24830D02*
D03*
X14045D02*
D03*
X16092D02*
D03*
X18179D02*
D03*
X23681D02*
D03*
X12392Y24849D02*
D03*
X14045D02*
D03*
X16092D02*
D03*
X18179D02*
D03*
X23681D02*
D03*
X12392Y24859D02*
D03*
X14045D02*
D03*
X16092D02*
D03*
X18179D02*
D03*
X23681D02*
D03*
X12392Y24879D02*
D03*
X14045D02*
D03*
X16092D02*
D03*
X18179D02*
D03*
X23681D02*
D03*
X12392Y24899D02*
D03*
X14045D02*
D03*
X16092D02*
D03*
X18179D02*
D03*
X23681D02*
D03*
X12392Y24918D02*
D03*
X14045D02*
D03*
X16092D02*
D03*
X18179D02*
D03*
X23681D02*
D03*
X12392Y24928D02*
D03*
X14045D02*
D03*
X16092D02*
D03*
X18179D02*
D03*
X23681D02*
D03*
X12392Y24948D02*
D03*
X16092D02*
D03*
X18179D02*
D03*
X23681D02*
D03*
X12392Y24968D02*
D03*
X16092D02*
D03*
X18179D02*
D03*
X23681D02*
D03*
X12392Y24987D02*
D03*
X16092D02*
D03*
X23681D02*
D03*
X12392Y24997D02*
D03*
X16092D02*
D03*
X23681D02*
D03*
X12392Y25017D02*
D03*
X16092D02*
D03*
X23681D02*
D03*
X12392Y25036D02*
D03*
X16092D02*
D03*
X23681D02*
D03*
X12392Y25056D02*
D03*
X16092D02*
D03*
X23681D02*
D03*
X12392Y25066D02*
D03*
X16092D02*
D03*
X23681D02*
D03*
X12392Y25086D02*
D03*
X16092D02*
D03*
X23681D02*
D03*
X12392Y25105D02*
D03*
X16092D02*
D03*
X23681D02*
D03*
X12392Y25125D02*
D03*
X16092D02*
D03*
X23681D02*
D03*
X12392Y25135D02*
D03*
X16092D02*
D03*
X18760D02*
D03*
X23681D02*
D03*
X16092Y25155D02*
D03*
X23681D02*
D03*
X16092Y25174D02*
D03*
X23681D02*
D03*
X16092Y25194D02*
D03*
X23681D02*
D03*
D652*
X18760D02*
D03*
D653*
X14045Y24013D02*
D03*
X16092D02*
D03*
X18760D02*
D03*
X23681D02*
D03*
X14045Y24032D02*
D03*
X16092D02*
D03*
X18760D02*
D03*
X23681D02*
D03*
X14045Y24052D02*
D03*
X16092D02*
D03*
X18760D02*
D03*
X23681D02*
D03*
X14045Y24082D02*
D03*
X18760D02*
D03*
X14045Y24101D02*
D03*
X18760D02*
D03*
X14045Y24121D02*
D03*
X18760D02*
D03*
X14045Y24151D02*
D03*
X18760D02*
D03*
X14045Y24170D02*
D03*
X18760D02*
D03*
X20335D02*
D03*
X14045Y24190D02*
D03*
X18760D02*
D03*
X14045Y24220D02*
D03*
X18760D02*
D03*
X14045Y24239D02*
D03*
X18179D02*
D03*
X18760D02*
D03*
X14045Y24259D02*
D03*
X17677D02*
D03*
X18179D02*
D03*
X18760D02*
D03*
X20335D02*
D03*
X22677D02*
D03*
X14045Y24288D02*
D03*
X15659D02*
D03*
X17687D02*
D03*
X18179D02*
D03*
X18760D02*
D03*
X22677D02*
D03*
X23209D02*
D03*
X23681D02*
D03*
X14045Y24308D02*
D03*
X16092D02*
D03*
X16683D02*
D03*
X17077D02*
D03*
X18179D02*
D03*
X18760D02*
D03*
X22677D02*
D03*
X23681D02*
D03*
X14045Y24328D02*
D03*
X15049D02*
D03*
X16092D02*
D03*
X17077D02*
D03*
X17697D02*
D03*
X18179D02*
D03*
X18760D02*
D03*
X22677D02*
D03*
X23681D02*
D03*
X24272D02*
D03*
X14045Y24357D02*
D03*
X15049D02*
D03*
X16092D02*
D03*
X17697D02*
D03*
X18179D02*
D03*
X18760D02*
D03*
X19183D02*
D03*
X23681D02*
D03*
X12401Y24377D02*
D03*
X13081D02*
D03*
X14045D02*
D03*
X16092D02*
D03*
X16693D02*
D03*
X17067D02*
D03*
X17697D02*
D03*
X18179D02*
D03*
X18760D02*
D03*
X19183D02*
D03*
X23681D02*
D03*
X13081Y24397D02*
D03*
X14045D02*
D03*
X16092D02*
D03*
X16693D02*
D03*
X17067D02*
D03*
X17697D02*
D03*
X18179D02*
D03*
X18760D02*
D03*
X19183D02*
D03*
X23681D02*
D03*
X15049Y24426D02*
D03*
X16092D02*
D03*
X16693D02*
D03*
X17067D02*
D03*
X17697D02*
D03*
X18179D02*
D03*
X18760D02*
D03*
X19183D02*
D03*
X23681D02*
D03*
X24281D02*
D03*
X12392Y24446D02*
D03*
X15049D02*
D03*
X16092D02*
D03*
X16693D02*
D03*
X17697D02*
D03*
X18179D02*
D03*
X18760D02*
D03*
X19183D02*
D03*
X23681D02*
D03*
X12392Y24475D02*
D03*
X15049D02*
D03*
X16092D02*
D03*
X17077D02*
D03*
X17697D02*
D03*
X18179D02*
D03*
X18760D02*
D03*
X23681D02*
D03*
X12392Y24495D02*
D03*
X17077D02*
D03*
X18179D02*
D03*
X18760D02*
D03*
X19193D02*
D03*
X23681D02*
D03*
X12392Y24515D02*
D03*
X15059D02*
D03*
X17687D02*
D03*
X18179D02*
D03*
X18760D02*
D03*
X12392Y24544D02*
D03*
X18179D02*
D03*
X18760D02*
D03*
X12392Y24564D02*
D03*
X18179D02*
D03*
X18760D02*
D03*
X19961D02*
D03*
X12392Y24584D02*
D03*
X18179D02*
D03*
X18760D02*
D03*
X19961D02*
D03*
X12392Y24613D02*
D03*
X18179D02*
D03*
X18760D02*
D03*
X12392Y24633D02*
D03*
X14045D02*
D03*
X18760D02*
D03*
X12392Y24653D02*
D03*
X14045D02*
D03*
X18760D02*
D03*
X12392Y24682D02*
D03*
X14045D02*
D03*
X18760D02*
D03*
X12392Y24702D02*
D03*
X14045D02*
D03*
X16092D02*
D03*
X18760D02*
D03*
X23681D02*
D03*
X12392Y24722D02*
D03*
X14045D02*
D03*
X16092D02*
D03*
X18760D02*
D03*
X23681D02*
D03*
X12392Y24751D02*
D03*
X14045D02*
D03*
X16092D02*
D03*
X18760D02*
D03*
X23681D02*
D03*
X12392Y24771D02*
D03*
X14045D02*
D03*
X16092D02*
D03*
X18760D02*
D03*
X23681D02*
D03*
X12392Y24790D02*
D03*
X14045D02*
D03*
X16092D02*
D03*
X18760D02*
D03*
X23681D02*
D03*
X12392Y24820D02*
D03*
X14045D02*
D03*
X16092D02*
D03*
X18179D02*
D03*
X23681D02*
D03*
X12392Y24840D02*
D03*
X14045D02*
D03*
X16092D02*
D03*
X18179D02*
D03*
X23681D02*
D03*
X12392Y24869D02*
D03*
X14045D02*
D03*
X16092D02*
D03*
X18179D02*
D03*
X23681D02*
D03*
X12392Y24889D02*
D03*
X14045D02*
D03*
X16092D02*
D03*
X18179D02*
D03*
X23681D02*
D03*
X12392Y24908D02*
D03*
X14045D02*
D03*
X16092D02*
D03*
X18179D02*
D03*
X23681D02*
D03*
X12392Y24938D02*
D03*
X14045D02*
D03*
X16092D02*
D03*
X18179D02*
D03*
X23681D02*
D03*
X12392Y24958D02*
D03*
X16092D02*
D03*
X18179D02*
D03*
X23681D02*
D03*
X12392Y24977D02*
D03*
X16092D02*
D03*
X18179D02*
D03*
X23681D02*
D03*
X12392Y25007D02*
D03*
X16092D02*
D03*
X18760D02*
D03*
X23681D02*
D03*
X12392Y25027D02*
D03*
X16092D02*
D03*
X23681D02*
D03*
X12392Y25046D02*
D03*
X16092D02*
D03*
X23681D02*
D03*
X12392Y25076D02*
D03*
X16092D02*
D03*
X23681D02*
D03*
X12392Y25096D02*
D03*
X16092D02*
D03*
X23681D02*
D03*
X12392Y25115D02*
D03*
X16092D02*
D03*
X23681D02*
D03*
X16092Y25145D02*
D03*
X23681D02*
D03*
X16092Y25164D02*
D03*
X23681D02*
D03*
X16092Y25184D02*
D03*
X23681D02*
D03*
D654*
X18332Y23983D02*
D03*
X22219Y24013D02*
D03*
X23214D02*
D03*
X22219Y24032D02*
D03*
X23214D02*
D03*
X22219Y24052D02*
D03*
X23214D02*
D03*
X22219Y24082D02*
D03*
X23214D02*
D03*
X22219Y24101D02*
D03*
X23214D02*
D03*
X22219Y24121D02*
D03*
Y24151D02*
D03*
Y24170D02*
D03*
Y24190D02*
D03*
Y24220D02*
D03*
Y24239D02*
D03*
Y24259D02*
D03*
Y24288D02*
D03*
Y24308D02*
D03*
X23214D02*
D03*
X22219Y24328D02*
D03*
X23214D02*
D03*
X22219Y24357D02*
D03*
X23214D02*
D03*
X22219Y24377D02*
D03*
X23214D02*
D03*
X22219Y24397D02*
D03*
X23214D02*
D03*
X22219Y24426D02*
D03*
X23214D02*
D03*
X22219Y24446D02*
D03*
X23214D02*
D03*
X22219Y24475D02*
D03*
X23214D02*
D03*
X22219Y24495D02*
D03*
X23214D02*
D03*
X22219Y24515D02*
D03*
X23214D02*
D03*
X22219Y24544D02*
D03*
X23214D02*
D03*
X22219Y24564D02*
D03*
X23214D02*
D03*
X22219Y24584D02*
D03*
X23214D02*
D03*
X22219Y24613D02*
D03*
X23214D02*
D03*
X22219Y24633D02*
D03*
X23214D02*
D03*
X22219Y24653D02*
D03*
X23214D02*
D03*
X22219Y24682D02*
D03*
X23214D02*
D03*
X22219Y24702D02*
D03*
X23214D02*
D03*
X22219Y24722D02*
D03*
X23214D02*
D03*
X22219Y24751D02*
D03*
X23214D02*
D03*
X22219Y24771D02*
D03*
X23214D02*
D03*
X22219Y24790D02*
D03*
X23214D02*
D03*
X22219Y24820D02*
D03*
Y24840D02*
D03*
Y24869D02*
D03*
Y24889D02*
D03*
Y24908D02*
D03*
Y24938D02*
D03*
Y24958D02*
D03*
Y24977D02*
D03*
Y25007D02*
D03*
Y25027D02*
D03*
Y25046D02*
D03*
Y25076D02*
D03*
Y25096D02*
D03*
Y25115D02*
D03*
Y25145D02*
D03*
Y25164D02*
D03*
Y25184D02*
D03*
D655*
X19911Y24151D02*
D03*
X18760Y24958D02*
D03*
Y25184D02*
D03*
D656*
Y25174D02*
D03*
D657*
X17392Y24820D02*
D03*
X18760Y25164D02*
D03*
D658*
X10595Y23973D02*
D03*
X19483D02*
D03*
X20084D02*
D03*
X21639Y25155D02*
D03*
D659*
X18760D02*
D03*
D660*
X12736Y23973D02*
D03*
X21831Y24928D02*
D03*
X11762Y25155D02*
D03*
D661*
X11368Y24210D02*
D03*
X21850D02*
D03*
X10610Y25155D02*
D03*
D662*
X22825Y24013D02*
D03*
X13012Y24220D02*
D03*
X20305Y24288D02*
D03*
X20000Y24515D02*
D03*
X15118Y24613D02*
D03*
X10945Y24869D02*
D03*
X11762Y25145D02*
D03*
X21644D02*
D03*
D663*
X20339Y24190D02*
D03*
Y24239D02*
D03*
X22672Y24357D02*
D03*
Y24377D02*
D03*
Y24397D02*
D03*
Y24426D02*
D03*
Y24446D02*
D03*
Y24475D02*
D03*
Y24495D02*
D03*
Y24515D02*
D03*
Y24544D02*
D03*
Y24564D02*
D03*
Y24584D02*
D03*
X19965Y24613D02*
D03*
X22672D02*
D03*
Y24633D02*
D03*
Y24653D02*
D03*
Y24682D02*
D03*
Y24702D02*
D03*
Y24722D02*
D03*
Y24751D02*
D03*
Y24771D02*
D03*
Y24790D02*
D03*
X18765Y25145D02*
D03*
D664*
X18184Y24220D02*
D03*
X15074Y24239D02*
D03*
X17672D02*
D03*
X23204D02*
D03*
X15654Y24259D02*
D03*
X17091D02*
D03*
X23204D02*
D03*
X23686D02*
D03*
X15054Y24288D02*
D03*
X16097D02*
D03*
X16678D02*
D03*
X19198D02*
D03*
X24267D02*
D03*
X12416Y24308D02*
D03*
X13066D02*
D03*
X15054D02*
D03*
X17692D02*
D03*
X24267D02*
D03*
X13066Y24328D02*
D03*
X17072Y24357D02*
D03*
X12397Y24397D02*
D03*
Y24426D02*
D03*
X13086D02*
D03*
Y24446D02*
D03*
X17072D02*
D03*
X13086Y24475D02*
D03*
Y24495D02*
D03*
X15054D02*
D03*
X16097D02*
D03*
X17692D02*
D03*
X11028Y24515D02*
D03*
X13086D02*
D03*
X16097D02*
D03*
X19198D02*
D03*
X23686D02*
D03*
X24267D02*
D03*
X11028Y24544D02*
D03*
X13086D02*
D03*
X15654D02*
D03*
X17091D02*
D03*
X13086Y24564D02*
D03*
X11028Y24584D02*
D03*
X13086D02*
D03*
X11028Y24613D02*
D03*
X13086D02*
D03*
Y24633D02*
D03*
Y24653D02*
D03*
Y24682D02*
D03*
Y24702D02*
D03*
Y24722D02*
D03*
Y24751D02*
D03*
Y24771D02*
D03*
Y24790D02*
D03*
X14611D02*
D03*
X13086Y24820D02*
D03*
Y24840D02*
D03*
Y24869D02*
D03*
Y24889D02*
D03*
Y24908D02*
D03*
Y24938D02*
D03*
Y24958D02*
D03*
Y24977D02*
D03*
Y25007D02*
D03*
Y25027D02*
D03*
Y25046D02*
D03*
Y25076D02*
D03*
Y25096D02*
D03*
Y25115D02*
D03*
X10615Y25145D02*
D03*
D665*
X18292Y24072D02*
D03*
X24080Y24761D02*
D03*
X21334Y24918D02*
D03*
X10871Y24928D02*
D03*
X11767Y25135D02*
D03*
X21649D02*
D03*
D666*
X20084Y24023D02*
D03*
X11619Y24623D02*
D03*
X24080Y24712D02*
D03*
X20162Y24741D02*
D03*
X14168Y25135D02*
D03*
D667*
X18184Y24229D02*
D03*
X17091Y24249D02*
D03*
X17672D02*
D03*
X23204D02*
D03*
X15654Y24269D02*
D03*
X16097D02*
D03*
X17091D02*
D03*
X23686D02*
D03*
X16097Y24279D02*
D03*
X16678D02*
D03*
X19198D02*
D03*
X23686D02*
D03*
X15054Y24298D02*
D03*
X16678D02*
D03*
X24267D02*
D03*
X13066Y24318D02*
D03*
X17692D02*
D03*
X17072Y24338D02*
D03*
Y24347D02*
D03*
X12397Y24387D02*
D03*
Y24407D02*
D03*
Y24416D02*
D03*
Y24436D02*
D03*
X13086D02*
D03*
X17072D02*
D03*
X13086Y24456D02*
D03*
X17072D02*
D03*
X13086Y24466D02*
D03*
Y24485D02*
D03*
X15054D02*
D03*
X17692D02*
D03*
X11028Y24505D02*
D03*
X13086D02*
D03*
X15054D02*
D03*
X16097D02*
D03*
X17692D02*
D03*
X19198D02*
D03*
X23686D02*
D03*
X11028Y24525D02*
D03*
X13086D02*
D03*
X16678D02*
D03*
X17091D02*
D03*
X23686D02*
D03*
X24267D02*
D03*
X11028Y24534D02*
D03*
X13086D02*
D03*
X15654D02*
D03*
X16678D02*
D03*
X17091D02*
D03*
X24267D02*
D03*
X11028Y24554D02*
D03*
X13086D02*
D03*
X15074D02*
D03*
X17672D02*
D03*
X19965D02*
D03*
X13086Y24574D02*
D03*
X11028Y24594D02*
D03*
X13086D02*
D03*
X11028Y24603D02*
D03*
X13086D02*
D03*
Y24623D02*
D03*
Y24643D02*
D03*
Y24662D02*
D03*
Y24672D02*
D03*
X21166D02*
D03*
X13086Y24692D02*
D03*
Y24712D02*
D03*
Y24731D02*
D03*
Y24741D02*
D03*
Y24761D02*
D03*
Y24781D02*
D03*
Y24800D02*
D03*
X14611D02*
D03*
X13086Y24810D02*
D03*
Y24830D02*
D03*
Y24849D02*
D03*
Y24859D02*
D03*
Y24879D02*
D03*
Y24899D02*
D03*
Y24918D02*
D03*
Y24928D02*
D03*
Y24948D02*
D03*
Y24968D02*
D03*
Y24987D02*
D03*
Y24997D02*
D03*
Y25017D02*
D03*
X18765D02*
D03*
X13086Y25036D02*
D03*
Y25056D02*
D03*
Y25066D02*
D03*
Y25086D02*
D03*
Y25105D02*
D03*
Y25125D02*
D03*
Y25135D02*
D03*
D668*
X18317Y24023D02*
D03*
X21260Y24249D02*
D03*
X16496Y24781D02*
D03*
X24085D02*
D03*
X10610Y25135D02*
D03*
D669*
X16466Y24072D02*
D03*
X22835Y24092D02*
D03*
X11772Y25125D02*
D03*
X21653D02*
D03*
D670*
X17116Y24210D02*
D03*
X15079Y24229D02*
D03*
X16653D02*
D03*
X23691Y24249D02*
D03*
X11004Y24387D02*
D03*
X23691Y24534D02*
D03*
X18760Y25036D02*
D03*
Y25105D02*
D03*
Y25125D02*
D03*
D671*
X20118Y24072D02*
D03*
X14203Y24505D02*
D03*
X18209Y24643D02*
D03*
Y24662D02*
D03*
Y24672D02*
D03*
Y24692D02*
D03*
Y24712D02*
D03*
Y24731D02*
D03*
Y24741D02*
D03*
Y24761D02*
D03*
Y24781D02*
D03*
Y24800D02*
D03*
X14203Y25125D02*
D03*
D672*
X16466Y24042D02*
D03*
X10610Y25125D02*
D03*
D673*
X11629Y24613D02*
D03*
X24080Y24702D02*
D03*
X20152Y24722D02*
D03*
X21649Y25115D02*
D03*
D674*
X23691Y24239D02*
D03*
X11004Y24377D02*
D03*
X23691Y24544D02*
D03*
X15079Y24564D02*
D03*
X17116Y24584D02*
D03*
X11004Y24751D02*
D03*
X18760Y25027D02*
D03*
Y25115D02*
D03*
D675*
X10610Y25076D02*
D03*
X14222Y25115D02*
D03*
D676*
X19459Y24722D02*
D03*
X11772Y25115D02*
D03*
D677*
X22830Y24082D02*
D03*
X20202Y24357D02*
D03*
X11816Y24475D02*
D03*
X19493Y24771D02*
D03*
X20182D02*
D03*
X10615Y25115D02*
D03*
D678*
X20113Y24062D02*
D03*
X19444Y24092D02*
D03*
X20133Y24662D02*
D03*
X19444Y24692D02*
D03*
X21639Y25105D02*
D03*
D679*
X21599Y24042D02*
D03*
X12731Y24062D02*
D03*
X14237Y25105D02*
D03*
D680*
X17382Y24042D02*
D03*
X20138Y24672D02*
D03*
X11762Y25105D02*
D03*
D681*
X10610D02*
D03*
D682*
X20123Y24082D02*
D03*
X21629Y25096D02*
D03*
D683*
X12736Y23983D02*
D03*
X20079D02*
D03*
X14714Y24013D02*
D03*
X14705Y24032D02*
D03*
X14665Y24101D02*
D03*
X14636Y24151D02*
D03*
X20305D02*
D03*
X15108Y24190D02*
D03*
X15610D02*
D03*
X11929Y24220D02*
D03*
X16112D02*
D03*
X14577Y24239D02*
D03*
X14567Y24259D02*
D03*
X10964Y24288D02*
D03*
X14547D02*
D03*
X10974Y24308D02*
D03*
X10984Y24328D02*
D03*
X11939Y24357D02*
D03*
X21191D02*
D03*
X14468Y24397D02*
D03*
X16112Y24564D02*
D03*
X19242Y24584D02*
D03*
X14547Y24653D02*
D03*
X21211Y24790D02*
D03*
X10236Y24820D02*
D03*
X10974D02*
D03*
X10246Y24840D02*
D03*
X10964D02*
D03*
X14596Y24889D02*
D03*
X18760Y25076D02*
D03*
Y25096D02*
D03*
D684*
X11634Y24052D02*
D03*
X15364Y24702D02*
D03*
X14252Y25096D02*
D03*
D685*
X15354Y24052D02*
D03*
X18209Y24633D02*
D03*
Y24653D02*
D03*
Y24682D02*
D03*
Y24702D02*
D03*
Y24722D02*
D03*
Y24751D02*
D03*
Y24771D02*
D03*
Y24790D02*
D03*
X11752Y25096D02*
D03*
D686*
X10610D02*
D03*
D687*
X15359Y24062D02*
D03*
X20133Y24111D02*
D03*
X19424Y24131D02*
D03*
Y24141D02*
D03*
Y24643D02*
D03*
X21619Y25086D02*
D03*
D688*
X14734Y23993D02*
D03*
X14724Y24003D02*
D03*
X14714Y24023D02*
D03*
X14705Y24042D02*
D03*
X14685Y24062D02*
D03*
Y24072D02*
D03*
X14665Y24092D02*
D03*
X14655Y24111D02*
D03*
X14646Y24131D02*
D03*
X14636Y24141D02*
D03*
X14616Y24180D02*
D03*
X15098Y24200D02*
D03*
X16634D02*
D03*
X23189D02*
D03*
X24222D02*
D03*
X14596Y24210D02*
D03*
X19222Y24229D02*
D03*
X12441Y24249D02*
D03*
X10955Y24279D02*
D03*
X20315D02*
D03*
X10236Y24298D02*
D03*
X10226Y24318D02*
D03*
X14527D02*
D03*
X10216Y24338D02*
D03*
X21191Y24347D02*
D03*
X14478Y24387D02*
D03*
X14459Y24407D02*
D03*
X15098Y24594D02*
D03*
X16653D02*
D03*
X24242D02*
D03*
X15108Y24603D02*
D03*
X17648D02*
D03*
X11447Y24781D02*
D03*
X10226Y24800D02*
D03*
X10984D02*
D03*
X21211D02*
D03*
X10984Y24810D02*
D03*
X21220D02*
D03*
X14596Y24879D02*
D03*
X18760Y25056D02*
D03*
Y25066D02*
D03*
Y25086D02*
D03*
D689*
X11644Y24072D02*
D03*
X21575D02*
D03*
X15364Y24692D02*
D03*
X11693Y24987D02*
D03*
Y24997D02*
D03*
X14262Y25086D02*
D03*
D690*
X21604Y24023D02*
D03*
X12736Y24042D02*
D03*
X20128Y24092D02*
D03*
X19429Y24662D02*
D03*
X17392Y24741D02*
D03*
X10610Y25086D02*
D03*
X11742D02*
D03*
D691*
X21599Y24032D02*
D03*
X10595Y24052D02*
D03*
X14227Y24475D02*
D03*
X21609Y25076D02*
D03*
D692*
X14267Y24564D02*
D03*
Y25076D02*
D03*
D693*
X12736Y24052D02*
D03*
X20138Y24121D02*
D03*
X19419Y24151D02*
D03*
X11732Y25076D02*
D03*
D694*
X11722Y25056D02*
D03*
X21604Y25066D02*
D03*
D695*
X21560Y24092D02*
D03*
X17387Y24672D02*
D03*
X21560Y24997D02*
D03*
X14276Y25066D02*
D03*
D696*
X15359Y24072D02*
D03*
X20143Y24141D02*
D03*
X19414Y24160D02*
D03*
X14227Y24525D02*
D03*
X11727Y25066D02*
D03*
D697*
X11624Y24042D02*
D03*
X10600Y24062D02*
D03*
X14242Y24456D02*
D03*
Y24534D02*
D03*
X15364Y24712D02*
D03*
X11713Y25036D02*
D03*
X21594Y25056D02*
D03*
X10610Y25066D02*
D03*
D698*
X19838Y24210D02*
D03*
X19513Y24830D02*
D03*
X12032Y24879D02*
D03*
X18302Y25056D02*
D03*
D699*
X10600Y24092D02*
D03*
X11663Y24111D02*
D03*
X17382Y24131D02*
D03*
X14281Y24594D02*
D03*
X15364Y24672D02*
D03*
X14281Y25056D02*
D03*
D700*
X12736Y24072D02*
D03*
X14252Y24436D02*
D03*
X11703Y25017D02*
D03*
X21585Y25036D02*
D03*
X10610Y25056D02*
D03*
D701*
X21590Y24052D02*
D03*
X11708Y25027D02*
D03*
X21590Y25046D02*
D03*
D702*
X10595Y23983D02*
D03*
X14651Y24121D02*
D03*
X14621Y24170D02*
D03*
X15084Y24220D02*
D03*
X16649D02*
D03*
X23194D02*
D03*
X24237D02*
D03*
X11944Y24239D02*
D03*
X16107D02*
D03*
X19217D02*
D03*
X12436Y24259D02*
D03*
X13046D02*
D03*
X14532Y24308D02*
D03*
X10212Y24357D02*
D03*
X10202Y24377D02*
D03*
X21176Y24397D02*
D03*
X16668Y24564D02*
D03*
X19227D02*
D03*
X24257D02*
D03*
X15093Y24584D02*
D03*
X16658D02*
D03*
X21186Y24751D02*
D03*
X10212Y24771D02*
D03*
X10999D02*
D03*
X21196D02*
D03*
X10989Y24790D02*
D03*
X14601Y24869D02*
D03*
X18765Y25046D02*
D03*
D703*
X19857Y24190D02*
D03*
X11324Y24259D02*
D03*
X21895Y24889D02*
D03*
X18282Y25046D02*
D03*
D704*
X11668Y24121D02*
D03*
X21550Y24977D02*
D03*
X14286Y25046D02*
D03*
D705*
X17387Y24722D02*
D03*
X11717Y25046D02*
D03*
D706*
X11649Y24082D02*
D03*
X21570D02*
D03*
X11688Y24977D02*
D03*
X10615Y25046D02*
D03*
D707*
X21880Y24229D02*
D03*
X18268Y25036D02*
D03*
D708*
X11673Y24141D02*
D03*
X14291Y25036D02*
D03*
D709*
X15354Y24131D02*
D03*
X21555Y24987D02*
D03*
X10610Y25036D02*
D03*
D710*
X12736Y24082D02*
D03*
X17382Y24101D02*
D03*
X21575Y25027D02*
D03*
D711*
X19665Y24170D02*
D03*
X18248Y25027D02*
D03*
D712*
X22958Y24121D02*
D03*
X15359Y24151D02*
D03*
X17387D02*
D03*
X11678Y24170D02*
D03*
X15359Y24653D02*
D03*
X17387D02*
D03*
X21540Y24958D02*
D03*
X14296Y25027D02*
D03*
D713*
X11673Y24151D02*
D03*
X14291Y24613D02*
D03*
X10610Y25027D02*
D03*
D714*
X15359Y24111D02*
D03*
X17387Y24692D02*
D03*
X21570Y25017D02*
D03*
D715*
X18332Y23973D02*
D03*
X18233Y25017D02*
D03*
D716*
X11683Y24958D02*
D03*
X21565Y25007D02*
D03*
D717*
X18214D02*
D03*
D718*
X15359Y24101D02*
D03*
X17387Y24702D02*
D03*
X11698Y25007D02*
D03*
D719*
X18199Y24997D02*
D03*
D720*
X18765Y24987D02*
D03*
D721*
X16462Y23983D02*
D03*
X18765Y24977D02*
D03*
D722*
X21826Y24200D02*
D03*
X18765Y24968D02*
D03*
D723*
X11653Y24092D02*
D03*
X12736D02*
D03*
X14272Y24574D02*
D03*
X11683Y24968D02*
D03*
D724*
X11983Y24928D02*
D03*
X18765Y24948D02*
D03*
D725*
X21594Y23973D02*
D03*
X11939Y24948D02*
D03*
D726*
X14547Y24938D02*
D03*
D727*
X20340Y24653D02*
D03*
X11964Y24938D02*
D03*
D728*
X18322Y24013D02*
D03*
X17160Y24170D02*
D03*
X21245Y24259D02*
D03*
X16137Y24613D02*
D03*
X10310Y24908D02*
D03*
X11491Y24938D02*
D03*
D729*
X12736Y24003D02*
D03*
X20079D02*
D03*
X18277Y24141D02*
D03*
Y24160D02*
D03*
X11545Y24672D02*
D03*
X21358Y24928D02*
D03*
D730*
X15359Y23993D02*
D03*
X17377D02*
D03*
X16137Y24180D02*
D03*
X19267D02*
D03*
X10290Y24229D02*
D03*
X20290Y24298D02*
D03*
X11904Y24407D02*
D03*
X19286Y24623D02*
D03*
X21275Y24879D02*
D03*
X14562Y24928D02*
D03*
D731*
X15118Y24180D02*
D03*
X16614D02*
D03*
X17146D02*
D03*
X10256Y24269D02*
D03*
X21220Y24298D02*
D03*
X11919Y24387D02*
D03*
X14537Y24643D02*
D03*
X15364Y24810D02*
D03*
X19518D02*
D03*
X21250Y24849D02*
D03*
X11476Y24928D02*
D03*
D732*
X15354Y24003D02*
D03*
X17382D02*
D03*
X22825Y24042D02*
D03*
X18297Y24062D02*
D03*
X10335Y24200D02*
D03*
X10866D02*
D03*
X20256Y24318D02*
D03*
X11870Y24436D02*
D03*
X20207Y24800D02*
D03*
X10344Y24928D02*
D03*
D733*
X21855Y24918D02*
D03*
D734*
X18332Y24003D02*
D03*
X23174Y24180D02*
D03*
X11914Y24200D02*
D03*
X10271Y24249D02*
D03*
X23716Y24603D02*
D03*
X15133Y24623D02*
D03*
X15595D02*
D03*
X16629D02*
D03*
X17151D02*
D03*
X17623D02*
D03*
X11471Y24741D02*
D03*
X20202Y24810D02*
D03*
X21255Y24859D02*
D03*
X10280Y24879D02*
D03*
X10940D02*
D03*
X14572Y24918D02*
D03*
D735*
X19680Y24180D02*
D03*
X11993Y24918D02*
D03*
D736*
X16462Y24003D02*
D03*
X15595Y24180D02*
D03*
X17623D02*
D03*
X22712D02*
D03*
X11924Y24210D02*
D03*
X16117D02*
D03*
X19237D02*
D03*
X23706D02*
D03*
X12456Y24229D02*
D03*
X13026D02*
D03*
X10950Y24269D02*
D03*
X21206Y24318D02*
D03*
X21196Y24338D02*
D03*
X11934Y24367D02*
D03*
X16117Y24574D02*
D03*
X19247Y24594D02*
D03*
X16649Y24603D02*
D03*
X17131D02*
D03*
X11452Y24761D02*
D03*
X10241Y24830D02*
D03*
X21235D02*
D03*
X10960Y24849D02*
D03*
X10261Y24859D02*
D03*
X14591Y24899D02*
D03*
X11462Y24918D02*
D03*
D737*
X11885Y24180D02*
D03*
X10891Y24210D02*
D03*
X16147Y24623D02*
D03*
X23735D02*
D03*
X10891Y24918D02*
D03*
D738*
X12736Y23993D02*
D03*
X18307Y24042D02*
D03*
X10315Y24210D02*
D03*
X21279Y24229D02*
D03*
X15364Y24800D02*
D03*
X17392D02*
D03*
X19518D02*
D03*
X10325Y24918D02*
D03*
D739*
X19882Y24170D02*
D03*
X21870Y24908D02*
D03*
D740*
X24050Y24032D02*
D03*
X21314Y24908D02*
D03*
D741*
X18214Y24170D02*
D03*
X10231Y24308D02*
D03*
X21225Y24820D02*
D03*
X14582Y24908D02*
D03*
D742*
X19695Y24190D02*
D03*
X12008Y24908D02*
D03*
D743*
X14695Y24052D02*
D03*
X14675Y24082D02*
D03*
X14606Y24190D02*
D03*
X17638D02*
D03*
X22707D02*
D03*
X23701Y24220D02*
D03*
X12451Y24239D02*
D03*
X13031D02*
D03*
X14488Y24377D02*
D03*
X21181D02*
D03*
X23701Y24564D02*
D03*
X11457Y24908D02*
D03*
D744*
X23159Y24170D02*
D03*
X10305Y24220D02*
D03*
X15571Y24633D02*
D03*
X17598D02*
D03*
X24193D02*
D03*
X11486Y24722D02*
D03*
X21289Y24889D02*
D03*
X10905Y24908D02*
D03*
D745*
X19867Y24180D02*
D03*
X21885Y24899D02*
D03*
D746*
X19705Y24200D02*
D03*
X21900Y24249D02*
D03*
X19705Y24603D02*
D03*
X20394Y24623D02*
D03*
X12018Y24899D02*
D03*
D747*
X18332Y23993D02*
D03*
X14601Y24200D02*
D03*
X17121D02*
D03*
X17643D02*
D03*
X22702D02*
D03*
X15093Y24210D02*
D03*
X17653D02*
D03*
X23194D02*
D03*
X24227D02*
D03*
X14582Y24229D02*
D03*
X16107D02*
D03*
X23696D02*
D03*
X13036Y24249D02*
D03*
X19208D02*
D03*
X12436Y24269D02*
D03*
X14562D02*
D03*
X12426Y24279D02*
D03*
X14552D02*
D03*
X10969Y24298D02*
D03*
X14542D02*
D03*
X10989Y24338D02*
D03*
X11944D02*
D03*
X14513D02*
D03*
X10212Y24347D02*
D03*
X11944D02*
D03*
X14513D02*
D03*
X10202Y24367D02*
D03*
X10999D02*
D03*
X14493D02*
D03*
X10202Y24387D02*
D03*
X21176D02*
D03*
Y24407D02*
D03*
X16107Y24554D02*
D03*
X19217D02*
D03*
X23696D02*
D03*
X15084Y24574D02*
D03*
X16668D02*
D03*
X15625Y24594D02*
D03*
X17121D02*
D03*
X17653D02*
D03*
X14562Y24672D02*
D03*
X11019Y24692D02*
D03*
X21176Y24712D02*
D03*
X11009Y24731D02*
D03*
X10202Y24741D02*
D03*
X11009D02*
D03*
X21186D02*
D03*
X10212Y24761D02*
D03*
X10999D02*
D03*
X21196D02*
D03*
X24080Y24800D02*
D03*
X10231Y24810D02*
D03*
X14601Y24859D02*
D03*
X11452Y24899D02*
D03*
D748*
X10915Y24229D02*
D03*
X21240Y24269D02*
D03*
X20010Y24505D02*
D03*
X10915Y24899D02*
D03*
D749*
X20403Y24613D02*
D03*
X12027Y24889D02*
D03*
D750*
X15354Y23983D02*
D03*
X17382D02*
D03*
X19488D02*
D03*
X18199Y24190D02*
D03*
X15630Y24220D02*
D03*
X17106D02*
D03*
X17657D02*
D03*
X22687D02*
D03*
X16663Y24239D02*
D03*
X17096D02*
D03*
X24242D02*
D03*
X11949Y24259D02*
D03*
X16102D02*
D03*
X19203D02*
D03*
X24252D02*
D03*
X11949Y24288D02*
D03*
X12421D02*
D03*
X11949Y24308D02*
D03*
Y24328D02*
D03*
X10994Y24357D02*
D03*
X10197Y24397D02*
D03*
X11014D02*
D03*
X10187Y24426D02*
D03*
X11014D02*
D03*
X10187Y24446D02*
D03*
X11024D02*
D03*
X21161D02*
D03*
X10177Y24475D02*
D03*
X11024D02*
D03*
X21161D02*
D03*
X10177Y24495D02*
D03*
X11024D02*
D03*
X10177Y24515D02*
D03*
X21152D02*
D03*
X10177Y24544D02*
D03*
X15069D02*
D03*
X16102D02*
D03*
X16673D02*
D03*
X19213D02*
D03*
X21152D02*
D03*
X24262D02*
D03*
X10177Y24564D02*
D03*
X11033D02*
D03*
X17106D02*
D03*
X17667D02*
D03*
X21152D02*
D03*
X10177Y24584D02*
D03*
X17657D02*
D03*
X10177Y24613D02*
D03*
Y24633D02*
D03*
X11024D02*
D03*
X21161D02*
D03*
X11024Y24653D02*
D03*
X21161D02*
D03*
X10187Y24682D02*
D03*
X11024D02*
D03*
X21171D02*
D03*
X10187Y24702D02*
D03*
X11014D02*
D03*
X14587D02*
D03*
X21171D02*
D03*
X10197Y24722D02*
D03*
X11014D02*
D03*
X14596D02*
D03*
X21181D02*
D03*
X10207Y24751D02*
D03*
X14606Y24771D02*
D03*
X11437Y24820D02*
D03*
X14606D02*
D03*
X11437Y24840D02*
D03*
X14606D02*
D03*
X11437Y24869D02*
D03*
X11447Y24889D02*
D03*
D751*
X11624Y23983D02*
D03*
X24045Y24013D02*
D03*
X15138Y24170D02*
D03*
X17608D02*
D03*
X11900Y24190D02*
D03*
X14518Y24633D02*
D03*
X10925Y24889D02*
D03*
D752*
X21604Y23983D02*
D03*
X16466Y24013D02*
D03*
X16604Y24170D02*
D03*
X10285Y24239D02*
D03*
X11909Y24397D02*
D03*
X10285Y24889D02*
D03*
D753*
X19847Y24200D02*
D03*
X11314Y24269D02*
D03*
X19710Y24594D02*
D03*
X21904Y24879D02*
D03*
D754*
X15620Y24200D02*
D03*
X18189D02*
D03*
X15630Y24210D02*
D03*
X18189D02*
D03*
X22697D02*
D03*
X15640Y24229D02*
D03*
X17106D02*
D03*
X22687D02*
D03*
X23199D02*
D03*
X24242D02*
D03*
X11949Y24249D02*
D03*
X15069D02*
D03*
X16102D02*
D03*
X16663D02*
D03*
X24252D02*
D03*
X11949Y24269D02*
D03*
X13051D02*
D03*
X16673D02*
D03*
X19203D02*
D03*
X20325D02*
D03*
X11949Y24279D02*
D03*
X13051D02*
D03*
X24262D02*
D03*
X11949Y24298D02*
D03*
X12421D02*
D03*
X13061D02*
D03*
X11949Y24318D02*
D03*
X12411D02*
D03*
X10994Y24347D02*
D03*
X11014Y24407D02*
D03*
Y24416D02*
D03*
X10187Y24436D02*
D03*
Y24456D02*
D03*
X11024D02*
D03*
X21161D02*
D03*
X10177Y24466D02*
D03*
X11024D02*
D03*
X21161D02*
D03*
X10177Y24485D02*
D03*
X11024D02*
D03*
X21161D02*
D03*
X10177Y24505D02*
D03*
Y24525D02*
D03*
X16102D02*
D03*
X21152D02*
D03*
X10177Y24534D02*
D03*
X16102D02*
D03*
X19980D02*
D03*
X21152D02*
D03*
X10177Y24554D02*
D03*
X15650D02*
D03*
X16673D02*
D03*
X17096D02*
D03*
X21152D02*
D03*
X24262D02*
D03*
X10177Y24574D02*
D03*
X11033D02*
D03*
X15640D02*
D03*
X17106D02*
D03*
X17667D02*
D03*
X10177Y24594D02*
D03*
Y24603D02*
D03*
Y24623D02*
D03*
X11024D02*
D03*
X21161D02*
D03*
X11024Y24643D02*
D03*
X19990D02*
D03*
X21161D02*
D03*
X10187Y24662D02*
D03*
X11024D02*
D03*
X21161D02*
D03*
X10187Y24672D02*
D03*
X11024D02*
D03*
X10187Y24692D02*
D03*
X14577D02*
D03*
X21171D02*
D03*
X10197Y24712D02*
D03*
X11014D02*
D03*
X14587D02*
D03*
X10197Y24731D02*
D03*
X14596D02*
D03*
X21181D02*
D03*
X14606Y24761D02*
D03*
X10216Y24781D02*
D03*
X14606D02*
D03*
X11437Y24810D02*
D03*
X14606D02*
D03*
X11437Y24830D02*
D03*
X14606D02*
D03*
X11437Y24849D02*
D03*
X14606D02*
D03*
X11437Y24859D02*
D03*
X11447Y24879D02*
D03*
D755*
X15586Y24170D02*
D03*
X22721D02*
D03*
X16127Y24190D02*
D03*
X19257D02*
D03*
X23716D02*
D03*
X12466Y24220D02*
D03*
X10920Y24239D02*
D03*
X10261Y24259D02*
D03*
X21225Y24288D02*
D03*
X14434Y24426D02*
D03*
X19267Y24613D02*
D03*
X24080Y24790D02*
D03*
X21265Y24869D02*
D03*
D756*
X23179Y24190D02*
D03*
X21211Y24308D02*
D03*
X11929Y24377D02*
D03*
X16634Y24613D02*
D03*
X24222D02*
D03*
X11466Y24751D02*
D03*
X21240Y24840D02*
D03*
X10266Y24869D02*
D03*
D757*
X24203Y24180D02*
D03*
X16122Y24200D02*
D03*
X19242D02*
D03*
X23711D02*
D03*
X10935Y24249D02*
D03*
X16122Y24594D02*
D03*
X23711D02*
D03*
X17392Y24810D02*
D03*
X10955Y24859D02*
D03*
D758*
X24050Y24003D02*
D03*
X10251Y24279D02*
D03*
X14444Y24416D02*
D03*
X19257Y24603D02*
D03*
X10969Y24830D02*
D03*
X10251Y24849D02*
D03*
D759*
X16491Y24830D02*
D03*
X24080D02*
D03*
D760*
X18484Y24180D02*
D03*
X19714Y24210D02*
D03*
X11309Y24279D02*
D03*
X15364Y24830D02*
D03*
X17392D02*
D03*
X20197D02*
D03*
D761*
X24080Y24820D02*
D03*
D762*
X15369D02*
D03*
X20202D02*
D03*
D763*
X20344Y24220D02*
D03*
X19518Y24820D02*
D03*
D764*
X16496D02*
D03*
D765*
X11417Y24180D02*
D03*
X20344Y24200D02*
D03*
Y24210D02*
D03*
X16496Y24810D02*
D03*
D766*
X18204Y24180D02*
D03*
X11934Y24229D02*
D03*
X14572Y24249D02*
D03*
X10979Y24318D02*
D03*
X10192Y24407D02*
D03*
Y24416D02*
D03*
X21166D02*
D03*
Y24436D02*
D03*
X19985Y24525D02*
D03*
X24247Y24574D02*
D03*
X11442Y24800D02*
D03*
X16491D02*
D03*
D767*
X18282Y24121D02*
D03*
X24080Y24751D02*
D03*
X17387Y24790D02*
D03*
X19513D02*
D03*
X20202D02*
D03*
D768*
X16491D02*
D03*
D769*
X22825Y24052D02*
D03*
X18287Y24101D02*
D03*
X20246Y24328D02*
D03*
X20059Y24475D02*
D03*
X11535Y24682D02*
D03*
X15364Y24790D02*
D03*
D770*
X14591Y24220D02*
D03*
X10221Y24328D02*
D03*
X14523D02*
D03*
X14503Y24357D02*
D03*
X21166Y24426D02*
D03*
X15635Y24584D02*
D03*
X24247D02*
D03*
X14572Y24682D02*
D03*
X10221Y24790D02*
D03*
X11442D02*
D03*
D771*
X22825Y24003D02*
D03*
X14626Y24160D02*
D03*
X16644Y24210D02*
D03*
X21181Y24367D02*
D03*
X19232Y24574D02*
D03*
X23701D02*
D03*
X15620Y24603D02*
D03*
X24232D02*
D03*
X14557Y24662D02*
D03*
X10994Y24781D02*
D03*
X21201D02*
D03*
D772*
X22830Y24072D02*
D03*
X21334Y24200D02*
D03*
X24080Y24741D02*
D03*
X19503Y24781D02*
D03*
X20192D02*
D03*
D773*
X24080Y24731D02*
D03*
X15369Y24781D02*
D03*
X17387D02*
D03*
D774*
X18302Y24052D02*
D03*
X11511Y24702D02*
D03*
X16491Y24771D02*
D03*
X24080D02*
D03*
D775*
X11786Y24495D02*
D03*
X17387Y24771D02*
D03*
D776*
X19478Y24032D02*
D03*
X20177Y24377D02*
D03*
X11604Y24633D02*
D03*
X19478Y24751D02*
D03*
X20167D02*
D03*
X15364Y24771D02*
D03*
D777*
X16629Y24190D02*
D03*
X17131D02*
D03*
X24217D02*
D03*
X19227Y24220D02*
D03*
X10940Y24259D02*
D03*
X10241Y24288D02*
D03*
X21206Y24328D02*
D03*
X16117Y24584D02*
D03*
X23706D02*
D03*
X15605Y24613D02*
D03*
X17141D02*
D03*
X17633D02*
D03*
X20005Y24653D02*
D03*
X11452Y24771D02*
D03*
D778*
X15359Y24023D02*
D03*
X20192Y24367D02*
D03*
X11589Y24643D02*
D03*
X19483Y24761D02*
D03*
D779*
X20098Y24042D02*
D03*
X19459Y24062D02*
D03*
X11732Y24534D02*
D03*
X11644Y24603D02*
D03*
X16496Y24692D02*
D03*
X20148Y24712D02*
D03*
X15364Y24761D02*
D03*
X17392D02*
D03*
D780*
X21604Y23993D02*
D03*
X10600Y24003D02*
D03*
X24055Y24042D02*
D03*
X18287Y24092D02*
D03*
X21309Y24210D02*
D03*
X16496Y24761D02*
D03*
D781*
X17387Y24751D02*
D03*
D782*
X16466Y24052D02*
D03*
X24055D02*
D03*
X18277Y24151D02*
D03*
X16496Y24751D02*
D03*
D783*
X15359D02*
D03*
D784*
X15645Y24239D02*
D03*
X22682D02*
D03*
X15064Y24259D02*
D03*
X16668D02*
D03*
X13056Y24288D02*
D03*
X17082D02*
D03*
X15664Y24308D02*
D03*
X19188D02*
D03*
X12406Y24328D02*
D03*
X16688D02*
D03*
X19188D02*
D03*
X12406Y24357D02*
D03*
X13076D02*
D03*
X15674D02*
D03*
X16688D02*
D03*
X24277D02*
D03*
X15044Y24377D02*
D03*
X15674D02*
D03*
X24277D02*
D03*
X15044Y24397D02*
D03*
X15674D02*
D03*
X24277D02*
D03*
X14050Y24426D02*
D03*
X15674D02*
D03*
Y24446D02*
D03*
X24277D02*
D03*
X16688Y24475D02*
D03*
X19188D02*
D03*
X24277D02*
D03*
X16688Y24495D02*
D03*
X21156D02*
D03*
X24277D02*
D03*
X15664Y24515D02*
D03*
X16688D02*
D03*
X17082D02*
D03*
X17682Y24544D02*
D03*
X19975D02*
D03*
X15645Y24564D02*
D03*
X21156Y24584D02*
D03*
Y24613D02*
D03*
X19975Y24633D02*
D03*
X10182Y24653D02*
D03*
X14601Y24751D02*
D03*
D785*
X24055Y24062D02*
D03*
X20089Y24456D02*
D03*
X11831Y24466D02*
D03*
X16496Y24741D02*
D03*
D786*
X11624Y24023D02*
D03*
X10600Y24042D02*
D03*
X17382Y24062D02*
D03*
X15364Y24741D02*
D03*
D787*
X16462Y23993D02*
D03*
X20320Y24160D02*
D03*
X17662Y24229D02*
D03*
X15645Y24249D02*
D03*
X22682D02*
D03*
X15064Y24269D02*
D03*
X17682D02*
D03*
X24257D02*
D03*
X17082Y24279D02*
D03*
X17682D02*
D03*
X15664Y24298D02*
D03*
X19188D02*
D03*
Y24318D02*
D03*
X12406Y24338D02*
D03*
X16688D02*
D03*
X12406Y24347D02*
D03*
X13076D02*
D03*
X16688D02*
D03*
X24277D02*
D03*
X15674Y24367D02*
D03*
X24277D02*
D03*
X15044Y24387D02*
D03*
X15674D02*
D03*
X24277D02*
D03*
X15044Y24407D02*
D03*
X15674D02*
D03*
X15044Y24416D02*
D03*
X15674D02*
D03*
X11019Y24436D02*
D03*
X15674D02*
D03*
Y24456D02*
D03*
X24277D02*
D03*
X19188Y24466D02*
D03*
X24277D02*
D03*
X16688Y24485D02*
D03*
X24277D02*
D03*
X15664Y24505D02*
D03*
X16688D02*
D03*
X17082D02*
D03*
X21156D02*
D03*
X24277D02*
D03*
X15064Y24525D02*
D03*
X17682D02*
D03*
X19208D02*
D03*
X15064Y24534D02*
D03*
X17682D02*
D03*
X19208D02*
D03*
X21156Y24574D02*
D03*
Y24594D02*
D03*
Y24603D02*
D03*
X10182Y24643D02*
D03*
X14601Y24741D02*
D03*
D788*
X19464Y24731D02*
D03*
D789*
X14222Y24485D02*
D03*
X17392Y24731D02*
D03*
D790*
X20138Y24131D02*
D03*
X15364Y24731D02*
D03*
D791*
X20074Y24013D02*
D03*
X22830Y24101D02*
D03*
X20123Y24426D02*
D03*
X16491Y24722D02*
D03*
X24080D02*
D03*
D792*
X17387Y24712D02*
D03*
D793*
X19473Y24042D02*
D03*
X16491Y24712D02*
D03*
D794*
X21609Y24013D02*
D03*
X11717Y24544D02*
D03*
X11698Y24564D02*
D03*
X20143Y24702D02*
D03*
D795*
X10600Y24032D02*
D03*
X12736D02*
D03*
X20108Y24052D02*
D03*
X19449Y24082D02*
D03*
X20138Y24682D02*
D03*
X19449Y24702D02*
D03*
D796*
X15354Y24032D02*
D03*
X17382D02*
D03*
X16496Y24702D02*
D03*
D797*
X11747Y24525D02*
D03*
X24080Y24692D02*
D03*
D798*
X19493Y24003D02*
D03*
X11521Y24692D02*
D03*
D799*
X17382Y24052D02*
D03*
X19439Y24101D02*
D03*
Y24682D02*
D03*
D800*
X11658Y24101D02*
D03*
X15359Y24121D02*
D03*
X14276Y24584D02*
D03*
X17387Y24682D02*
D03*
D801*
X10600Y24082D02*
D03*
X17382Y24121D02*
D03*
X15364Y24682D02*
D03*
D802*
X19434Y24111D02*
D03*
Y24672D02*
D03*
D803*
X21550Y24111D02*
D03*
X11668Y24131D02*
D03*
X15359Y24141D02*
D03*
X14286Y24603D02*
D03*
X15359Y24662D02*
D03*
X17387D02*
D03*
D804*
X16466Y24062D02*
D03*
X20216Y24347D02*
D03*
X11565Y24662D02*
D03*
D805*
X20128Y24101D02*
D03*
X19429Y24121D02*
D03*
Y24653D02*
D03*
D806*
X10600Y24013D02*
D03*
X11575Y24653D02*
D03*
D807*
X11348Y24229D02*
D03*
X19675Y24623D02*
D03*
X20364Y24643D02*
D03*
D808*
X16343Y24092D02*
D03*
X21540Y24131D02*
D03*
X22958D02*
D03*
X11678Y24160D02*
D03*
X14296Y24623D02*
D03*
X17387Y24643D02*
D03*
D809*
X16466Y24032D02*
D03*
X21289Y24220D02*
D03*
X19311Y24633D02*
D03*
X23750D02*
D03*
D810*
X19690Y24613D02*
D03*
X20379Y24633D02*
D03*
D811*
X19655D02*
D03*
D812*
X17175D02*
D03*
D813*
X16147Y24170D02*
D03*
X23735D02*
D03*
X16609Y24633D02*
D03*
D814*
X18292Y24082D02*
D03*
X16166Y24633D02*
D03*
D815*
X18312Y24032D02*
D03*
X19286Y24170D02*
D03*
X21265Y24239D02*
D03*
X20025Y24495D02*
D03*
X15153Y24633D02*
D03*
D816*
X18204Y24623D02*
D03*
D817*
X24188Y24170D02*
D03*
X10901Y24220D02*
D03*
X23725Y24613D02*
D03*
D818*
X19719Y24584D02*
D03*
D819*
X11619Y24013D02*
D03*
X11668Y24584D02*
D03*
D820*
X11639Y24062D02*
D03*
X14257Y24554D02*
D03*
D821*
X11708D02*
D03*
D822*
X14247Y24446D02*
D03*
Y24544D02*
D03*
D823*
X14217Y24515D02*
D03*
D824*
X20093Y24032D02*
D03*
X19464Y24052D02*
D03*
X11757Y24515D02*
D03*
D825*
X15669Y24328D02*
D03*
Y24475D02*
D03*
Y24495D02*
D03*
D826*
X14213D02*
D03*
D827*
X20044Y24485D02*
D03*
D828*
X15669Y24318D02*
D03*
Y24338D02*
D03*
Y24347D02*
D03*
Y24466D02*
D03*
Y24485D02*
D03*
D829*
X20226Y24338D02*
D03*
X20069Y24466D02*
D03*
D830*
X17382Y24072D02*
D03*
X14232Y24466D02*
D03*
D831*
X11619Y23993D02*
D03*
X22830Y24062D02*
D03*
X18282Y24111D02*
D03*
Y24131D02*
D03*
X11845Y24456D02*
D03*
D832*
X12736Y24013D02*
D03*
X20098Y24446D02*
D03*
D833*
X11860D02*
D03*
D834*
X20113Y24436D02*
D03*
D835*
X22825Y24032D02*
D03*
X20276Y24308D02*
D03*
X11880Y24426D02*
D03*
D836*
X20138Y24416D02*
D03*
D837*
X11624Y24003D02*
D03*
X21604D02*
D03*
X20167Y24387D02*
D03*
X20148Y24407D02*
D03*
D838*
X20157Y24397D02*
D03*
D839*
X21904Y24259D02*
D03*
D840*
X11329Y24249D02*
D03*
D841*
X21890Y24239D02*
D03*
D842*
X11339D02*
D03*
D843*
X11353Y24220D02*
D03*
X21865D02*
D03*
D844*
X19488Y23993D02*
D03*
X22825Y24023D02*
D03*
X12982Y24200D02*
D03*
D845*
X15354Y23973D02*
D03*
X11378Y24200D02*
D03*
D846*
X11398Y24190D02*
D03*
D847*
X23725Y24180D02*
D03*
D848*
X18474Y24170D02*
D03*
D849*
X19897Y24160D02*
D03*
D850*
X16339Y24082D02*
D03*
X23927D02*
D03*
X10600Y24101D02*
D03*
X12736Y24121D02*
D03*
X21545D02*
D03*
D851*
X17382Y24111D02*
D03*
D852*
X12741D02*
D03*
D853*
X23932Y24101D02*
D03*
D854*
X12736D02*
D03*
X21555D02*
D03*
D855*
X23932Y24092D02*
D03*
D856*
X10600Y24072D02*
D03*
X17382Y24092D02*
D03*
D857*
X15359D02*
D03*
D858*
Y24082D02*
D03*
D859*
X21580Y24062D02*
D03*
D860*
X11619Y24032D02*
D03*
D861*
X15359Y24013D02*
D03*
X17377D02*
D03*
X19493D02*
D03*
D862*
X20079Y23993D02*
D03*
D863*
X22825Y23983D02*
D03*
X24045D02*
D03*
D864*
X22825Y23973D02*
D03*
X24045D02*
D03*
D865*
X17382D02*
D03*
D866*
X16457D02*
D03*
D867*
X11629D02*
D03*
M02*
