M48
;Layer_Color=6321
;FILE_FORMAT=2:4
INCH,LZ
T8F00S00C0.2000
%
G90
G05
T08
G00X035353Y010811
M15
G01X035368Y010809
G01X035372Y010809
G01X035503Y010809
G01X03576Y010826
G01X03589Y010843
G01X036143Y010893
G01X036269Y010927
G01X036514Y01101
G01X036635Y01106
G01X036866Y011174
G01X036979Y01124
G01X037194Y011383
G01X037298Y011463
G01X037492Y011633
G01X037584Y011725
G01X037754Y011919
G01X037834Y012023
G01X037977Y012238
G01X038043Y012351
G01X038157Y012582
G01X038207Y012703
G01X03829Y012948
G01X038324Y013074
G01X038374Y013327
G01X038391Y013457
G01X03841Y01378
G01X038402Y023623
G01X0384Y023623
G01X038404Y023687
G01X038387Y023945
G01X03837Y024075
G01X038319Y024328
G01X038286Y024454
G01X038203Y024698
G01X038153Y024819
G01X038038Y025051
G01X037973Y025164
G01X03783Y025379
G01X03775Y025482
G01X03758Y025676
G01X037487Y025769
G01X037293Y025939
G01X03719Y026019
G01X036975Y026162
G01X036862Y026227
G01X03663Y026341
G01X036509Y026392
G01X036265Y026474
G01X036139Y026508
G01X035886Y026559
G01X035756Y026576
G01X035433Y026595
G01X011811Y026591
G01X011811Y026589
G01X011746Y026593
G01X011488Y026576
G01X011358Y026559
G01X011105Y026508
G01X010979Y026474
G01X010735Y026392
G01X010614Y026341
G01X010382Y026227
G01X010269Y026162
G01X010055Y026019
G01X009951Y025939
G01X009757Y025769
G01X009664Y025676
G01X009494Y025482
G01X009414Y025379
G01X009271Y025164
G01X009206Y025051
G01X009092Y024819
G01X009042Y024698
G01X008959Y024454
G01X008925Y024328
G01X008874Y024075
G01X008857Y023945
G01X008838Y023622
G01X008843Y013779
G01X008844Y013779
G01X00884Y013714
G01X008857Y013457
G01X008874Y013327
G01X008925Y013074
G01X008959Y012948
G01X009042Y012703
G01X009092Y012582
G01X009206Y012351
G01X009271Y012238
G01X009414Y012023
G01X009494Y011919
G01X009664Y011725
G01X009757Y011633
G01X009951Y011463
G01X010055Y011383
G01X010269Y01124
G01X010382Y011174
G01X010614Y01106
G01X010735Y01101
G01X010979Y010927
G01X011105Y010893
G01X011358Y010843
G01X011488Y010826
G01X011811Y010807
G01X035353Y010811
M16
M17
M30
