G04 Layer_Physical_Order=2*
G04 Layer_Color=11436288*
%FSLAX24Y24*%
%MOIN*%
G70*
G01*
G75*
%ADD10R,0.0807X0.0138*%
%ADD12O,0.0984X0.0276*%
%ADD13R,0.0320X0.0350*%
%ADD14C,0.0100*%
%ADD15C,0.0079*%
%ADD25C,0.2362*%
%ADD26C,0.0787*%
%ADD27R,0.0787X0.0787*%
%ADD28O,0.0900X0.0600*%
%ADD29R,0.0900X0.0600*%
%ADD30C,0.1575*%
%ADD31C,0.0610*%
%ADD32R,0.0610X0.0610*%
%ADD33C,0.1181*%
%ADD34C,0.0295*%
%ADD35C,0.0500*%
%ADD36C,0.0059*%
%ADD37R,0.2717X0.3878*%
%ADD38R,0.1575X0.1654*%
%ADD39R,0.3140X0.3917*%
%ADD40R,0.1644X0.4862*%
G36*
X28937Y20079D02*
Y18504D01*
X28150D01*
X27559Y17913D01*
X24606D01*
X24016Y17323D01*
Y15276D01*
X26378Y12913D01*
Y9843D01*
X23819D01*
Y12795D01*
X21850Y14764D01*
Y17913D01*
X22835Y18898D01*
X24016Y20079D01*
Y20078D01*
X27205Y20079D01*
X28150D01*
Y23622D01*
X28937D01*
Y20079D01*
D02*
G37*
G36*
X32165Y28346D02*
X31378D01*
Y33189D01*
X32165D01*
Y28346D01*
D02*
G37*
G36*
X32417Y35705D02*
Y30118D01*
X32418Y30110D01*
X32424Y30079D01*
X32447Y30045D01*
X33519Y28973D01*
Y28736D01*
X33472D01*
X33380Y28724D01*
X33295Y28688D01*
X33222Y28632D01*
X33165Y28559D01*
X33130Y28473D01*
X33118Y28382D01*
X33130Y28290D01*
X33165Y28204D01*
X33222Y28131D01*
X33295Y28075D01*
X33380Y28039D01*
X33472Y28027D01*
X33772D01*
X33864Y28039D01*
X33949Y28075D01*
X34023Y28131D01*
X34079Y28204D01*
X34099Y28253D01*
X34149Y28243D01*
Y27772D01*
X34123Y27733D01*
X34099Y27733D01*
X33121D01*
Y27030D01*
X34099D01*
X34123Y27030D01*
X34149Y26991D01*
X34149Y26991D01*
Y26928D01*
X33824Y26603D01*
X33772Y26610D01*
X33472D01*
X33380Y26598D01*
X33295Y26562D01*
X33222Y26506D01*
X33165Y26433D01*
X33130Y26347D01*
X33118Y26256D01*
X33130Y26164D01*
X33165Y26078D01*
X33222Y26005D01*
X33295Y25949D01*
X33380Y25913D01*
X33472Y25901D01*
X33772D01*
X33864Y25913D01*
X33949Y25949D01*
X34023Y26005D01*
X34079Y26078D01*
X34114Y26164D01*
X34126Y26256D01*
X34114Y26347D01*
X34079Y26433D01*
X34023Y26506D01*
X34022Y26510D01*
X34325Y26813D01*
X34335Y26828D01*
X34385Y26813D01*
Y25038D01*
X33824Y24477D01*
X33772Y24484D01*
X33472D01*
X33380Y24472D01*
X33295Y24436D01*
X33222Y24380D01*
X33165Y24307D01*
X33130Y24221D01*
X33118Y24130D01*
X33130Y24038D01*
X33165Y23952D01*
X33222Y23879D01*
X33295Y23823D01*
X33380Y23787D01*
X33472Y23775D01*
X33772D01*
X33864Y23787D01*
X33949Y23823D01*
X34023Y23879D01*
X34079Y23952D01*
X34114Y24038D01*
X34126Y24130D01*
X34114Y24221D01*
X34079Y24307D01*
X34023Y24380D01*
X34022Y24384D01*
X34561Y24923D01*
X34571Y24938D01*
X34621Y24923D01*
Y23149D01*
X33824Y22351D01*
X33772Y22358D01*
X33472D01*
X33380Y22346D01*
X33295Y22310D01*
X33222Y22254D01*
X33165Y22181D01*
X33130Y22095D01*
X33118Y22004D01*
X33130Y21912D01*
X33165Y21827D01*
X33222Y21753D01*
X33295Y21697D01*
X33380Y21661D01*
X33472Y21649D01*
X33772D01*
X33864Y21661D01*
X33949Y21697D01*
X34023Y21753D01*
X34079Y21827D01*
X34114Y21912D01*
X34126Y22004D01*
X34114Y22095D01*
X34079Y22181D01*
X34023Y22254D01*
X34022Y22258D01*
X34797Y23033D01*
X34817Y23063D01*
X34821Y23063D01*
X34867Y23033D01*
Y15960D01*
X34875Y15920D01*
X34898Y15887D01*
X34931Y15864D01*
X34970Y15856D01*
X35029D01*
X35320Y15566D01*
X35308Y15507D01*
X35253Y15484D01*
X35179Y15427D01*
X35139Y15425D01*
X32582Y17981D01*
Y18080D01*
X32634Y18115D01*
X32677Y18180D01*
X32693Y18258D01*
X32677Y18335D01*
X32634Y18401D01*
X32568Y18445D01*
X32490Y18461D01*
X32413Y18445D01*
X32347Y18401D01*
X32303Y18335D01*
X32287Y18258D01*
X32303Y18180D01*
X32347Y18115D01*
X32398Y18080D01*
Y17943D01*
X32398Y17943D01*
X32405Y17909D01*
X32405Y17907D01*
X32380Y17854D01*
X32334Y17845D01*
X32268Y17801D01*
X32224Y17735D01*
X32209Y17657D01*
X32218Y17610D01*
X32192Y17584D01*
X32192Y17584D01*
X32192Y17584D01*
X32181Y17568D01*
X32169Y17550D01*
X32169Y17550D01*
X32169Y17550D01*
X32166Y17536D01*
X32161Y17511D01*
X32161Y17511D01*
X32161Y17511D01*
Y17438D01*
X32169Y17398D01*
X32173Y17392D01*
Y16912D01*
X32181Y16872D01*
X32203Y16839D01*
X32355Y16687D01*
X32389Y16665D01*
X32428Y16657D01*
X32686D01*
X33952Y15390D01*
Y13612D01*
X33960Y13573D01*
X33982Y13539D01*
X34140Y13382D01*
X34173Y13359D01*
X34213Y13352D01*
X36309D01*
X36349Y13359D01*
X36382Y13382D01*
X36506Y13506D01*
X36528Y13539D01*
X36536Y13579D01*
Y13830D01*
X36613Y13862D01*
X36687Y13919D01*
X36744Y13994D01*
X36780Y14080D01*
X36792Y14173D01*
X36780Y14266D01*
X36744Y14353D01*
X36687Y14427D01*
X36613Y14484D01*
X36526Y14520D01*
X36433Y14533D01*
X36340Y14520D01*
X36253Y14484D01*
X36179Y14427D01*
X36122Y14353D01*
X36086Y14266D01*
X36074Y14173D01*
X36086Y14080D01*
X36122Y13994D01*
X36179Y13919D01*
X36253Y13862D01*
X36330Y13830D01*
Y13621D01*
X36266Y13558D01*
X34255D01*
X34158Y13655D01*
Y15433D01*
X34150Y15473D01*
X34128Y15506D01*
X32789Y16845D01*
X32789Y16845D01*
X32756Y16867D01*
X32764Y16916D01*
X32924D01*
X34317Y15523D01*
X34305Y15463D01*
X34321Y15385D01*
X34365Y15319D01*
X34430Y15275D01*
X34508Y15260D01*
X34585Y15275D01*
X34651Y15319D01*
X34695Y15385D01*
X34711Y15463D01*
X34696Y15536D01*
X34698Y15539D01*
X34753Y15550D01*
X35080Y15222D01*
X35074Y15173D01*
X35086Y15080D01*
X35122Y14994D01*
X35179Y14919D01*
X35253Y14862D01*
X35340Y14826D01*
X35433Y14814D01*
X35526Y14826D01*
X35613Y14862D01*
X35687Y14919D01*
X35744Y14994D01*
X35780Y15080D01*
X35785Y15114D01*
X35838Y15139D01*
X35852Y15131D01*
Y14738D01*
X35643Y14530D01*
X35077D01*
Y13817D01*
X35789D01*
Y14384D01*
X36028Y14622D01*
X36040Y14641D01*
X36050Y14655D01*
Y14655D01*
X36050Y14655D01*
X36054Y14675D01*
X36058Y14695D01*
Y15017D01*
X36108Y15027D01*
X36122Y14994D01*
X36179Y14919D01*
X36253Y14862D01*
X36340Y14826D01*
X36433Y14814D01*
X36526Y14826D01*
X36613Y14862D01*
X36687Y14919D01*
X36744Y14994D01*
X36780Y15080D01*
X36792Y15173D01*
X36780Y15266D01*
X36744Y15353D01*
X36687Y15427D01*
X36613Y15484D01*
X36526Y15520D01*
X36433Y15533D01*
X36340Y15520D01*
X36253Y15484D01*
X36179Y15427D01*
X36122Y15353D01*
X36091Y15278D01*
X36055Y15268D01*
X36036Y15270D01*
X36028Y15282D01*
X35936Y15374D01*
X35935Y15381D01*
X35912Y15414D01*
X35674Y15652D01*
X35641Y15675D01*
X35601Y15683D01*
X35495D01*
X35408Y15769D01*
X35423Y15799D01*
X35434Y15814D01*
X35526Y15826D01*
X35613Y15862D01*
X35687Y15919D01*
X35744Y15994D01*
X35780Y16080D01*
X35792Y16173D01*
X35780Y16266D01*
X35744Y16353D01*
X35744Y16353D01*
X36087Y16697D01*
X36227D01*
X36234Y16692D01*
X36269Y16685D01*
X36269Y16685D01*
X36597D01*
X36597Y16685D01*
X36632Y16692D01*
X36662Y16712D01*
X36894Y16944D01*
X36894Y16944D01*
X36914Y16974D01*
X36921Y17009D01*
X36921Y17009D01*
Y17337D01*
X36921Y17337D01*
X36914Y17372D01*
X36909Y17380D01*
Y17967D01*
X36914Y17974D01*
X36921Y18009D01*
X36921Y18009D01*
Y18337D01*
X36921Y18337D01*
X36914Y18372D01*
X36909Y18380D01*
Y18967D01*
X36914Y18974D01*
X36921Y19009D01*
X36921Y19009D01*
Y19337D01*
X36921Y19337D01*
X36914Y19372D01*
X36909Y19380D01*
Y19967D01*
X36914Y19974D01*
X36921Y20009D01*
X36921Y20009D01*
Y20337D01*
X36921Y20337D01*
X36914Y20372D01*
X36909Y20380D01*
Y20883D01*
X37383Y21357D01*
X37429Y21338D01*
Y20618D01*
X38319D01*
Y21495D01*
X38347Y21513D01*
X38680Y21847D01*
X39003D01*
X39028Y21797D01*
X38981Y21736D01*
X38937Y21628D01*
X38921Y21512D01*
X38937Y21396D01*
X38981Y21287D01*
X38989Y21277D01*
X38510Y20797D01*
X38499Y20781D01*
X38487Y20764D01*
Y20764D01*
X38487Y20764D01*
X38481Y20734D01*
X38480Y20724D01*
Y20594D01*
X38343Y20457D01*
X37362D01*
X37362D01*
X37362D01*
X37336Y20452D01*
X37323Y20450D01*
X37323Y20450D01*
X37323D01*
X37289Y20427D01*
X37014Y20152D01*
X36998Y20128D01*
X36991Y20118D01*
Y20118D01*
X36991Y20118D01*
X36987Y20094D01*
X36983Y20079D01*
Y12129D01*
X36183Y11329D01*
X36142Y11359D01*
X36212Y11489D01*
X36260Y11647D01*
X36276Y11811D01*
X36260Y11975D01*
X36212Y12133D01*
X36134Y12279D01*
X36029Y12407D01*
X35901Y12512D01*
X35756Y12590D01*
X35597Y12637D01*
X35433Y12654D01*
X35269Y12637D01*
X35111Y12590D01*
X34965Y12512D01*
X34837Y12407D01*
X34732Y12279D01*
X34655Y12133D01*
X34607Y11975D01*
X34590Y11811D01*
X34607Y11647D01*
X34655Y11489D01*
X34732Y11343D01*
X34837Y11215D01*
X34965Y11110D01*
X35111Y11033D01*
X35269Y10985D01*
X35433Y10968D01*
X35597Y10985D01*
X35756Y11033D01*
X35885Y11102D01*
X35915Y11061D01*
X35666Y10812D01*
X32759D01*
X29709Y13862D01*
Y14567D01*
X29702Y14602D01*
X29702Y14606D01*
X29702Y14606D01*
X29690Y14623D01*
X29679Y14640D01*
X29423Y14896D01*
X29423Y14896D01*
X29423Y14896D01*
X29408Y14906D01*
X29407Y14909D01*
X29423Y14956D01*
X29583D01*
X29806Y14734D01*
X29785Y14685D01*
X29775Y14606D01*
X29785Y14528D01*
X29816Y14454D01*
X29864Y14391D01*
X29927Y14343D01*
X30000Y14313D01*
X30079Y14303D01*
X30157Y14313D01*
X30231Y14343D01*
X30294Y14391D01*
X30342Y14454D01*
X30372Y14528D01*
X30383Y14606D01*
X30372Y14685D01*
X30342Y14758D01*
X30294Y14821D01*
X30231Y14869D01*
X30157Y14900D01*
X30079Y14910D01*
X30000Y14900D01*
X29951Y14880D01*
X29699Y15132D01*
X29684Y15142D01*
X29699Y15192D01*
X30099D01*
X30129Y15157D01*
X30140Y15079D01*
X30170Y15006D01*
X30218Y14943D01*
X30281Y14894D01*
X30354Y14864D01*
X30433Y14854D01*
X30512Y14864D01*
X30585Y14894D01*
X30648Y14943D01*
X30696Y15006D01*
X30727Y15079D01*
X30737Y15157D01*
X30727Y15236D01*
X30696Y15309D01*
X30648Y15372D01*
X30585Y15421D01*
X30512Y15451D01*
X30433Y15461D01*
X30354Y15451D01*
X30281Y15421D01*
X30252Y15398D01*
X30161D01*
X30151Y15448D01*
X30191Y15465D01*
X30254Y15514D01*
X30302Y15576D01*
X30333Y15650D01*
X30343Y15728D01*
X30333Y15807D01*
X30302Y15880D01*
X30254Y15943D01*
X30191Y15991D01*
X30118Y16022D01*
X30039Y16032D01*
X29961Y16022D01*
X29887Y15991D01*
X29825Y15943D01*
X29776Y15880D01*
X29746Y15807D01*
X29736Y15728D01*
X29741Y15685D01*
X29701Y15635D01*
X29463D01*
X29448Y15685D01*
X29463Y15695D01*
X29964Y16196D01*
X29966Y16194D01*
X30040Y16163D01*
X30118Y16153D01*
X30197Y16163D01*
X30270Y16194D01*
X30333Y16242D01*
X30381Y16305D01*
X30412Y16378D01*
X30422Y16457D01*
X30412Y16535D01*
X30381Y16609D01*
X30333Y16672D01*
X30270Y16720D01*
X30197Y16750D01*
X30118Y16760D01*
X30040Y16750D01*
X29966Y16720D01*
X29903Y16672D01*
X29855Y16609D01*
X29825Y16535D01*
X29814Y16457D01*
X29825Y16378D01*
X29833Y16357D01*
X29347Y15871D01*
X28998D01*
Y15884D01*
Y16120D01*
Y16356D01*
Y16373D01*
X29272D01*
X29311Y16381D01*
X29345Y16403D01*
X30257Y17315D01*
X30829D01*
X30869Y17323D01*
X30902Y17346D01*
X32076Y18519D01*
X32861D01*
X33931Y17449D01*
X33921Y17402D01*
X33937Y17324D01*
X33981Y17258D01*
X34046Y17214D01*
X34124Y17199D01*
X34202Y17214D01*
X34267Y17258D01*
X34311Y17324D01*
X34327Y17402D01*
X34311Y17479D01*
X34267Y17545D01*
X34202Y17589D01*
X34124Y17604D01*
X34077Y17595D01*
X32976Y18695D01*
X32943Y18717D01*
X32904Y18725D01*
X32137D01*
X32117Y18771D01*
X32190Y18844D01*
X32226D01*
Y19080D01*
Y19317D01*
Y19553D01*
Y19789D01*
Y20025D01*
Y20261D01*
Y20497D01*
Y20733D01*
Y20969D01*
Y21206D01*
Y21442D01*
Y21678D01*
Y21914D01*
Y22150D01*
Y22386D01*
Y22622D01*
Y22859D01*
Y23095D01*
Y23331D01*
Y23567D01*
Y23803D01*
Y24039D01*
Y24275D01*
Y24511D01*
Y24747D01*
Y24984D01*
Y25220D01*
Y25456D01*
Y25692D01*
Y25928D01*
Y26164D01*
Y26400D01*
Y26636D01*
Y26873D01*
Y27109D01*
Y27345D01*
Y27581D01*
Y27817D01*
Y28053D01*
Y28289D01*
Y28525D01*
Y28762D01*
Y28998D01*
Y29234D01*
Y29470D01*
Y29706D01*
Y29941D01*
Y30177D01*
Y30414D01*
Y30650D01*
Y30886D01*
Y31122D01*
Y31358D01*
Y31594D01*
Y31830D01*
Y32066D01*
Y32303D01*
Y32539D01*
Y32775D01*
Y33011D01*
Y33247D01*
Y33483D01*
Y33719D01*
Y33955D01*
Y34192D01*
Y34428D01*
Y34664D01*
Y34900D01*
Y35136D01*
Y35372D01*
Y35608D01*
Y35825D01*
X32274Y35845D01*
X32276Y35845D01*
X32417Y35705D01*
D02*
G37*
G36*
X26378Y40118D02*
Y40039D01*
X27047Y39370D01*
X30118D01*
X31102Y38386D01*
Y33268D01*
X31299Y33071D01*
X31378D01*
X31378Y30827D01*
X29734Y30817D01*
X29724Y32480D01*
X29724Y37598D01*
X29331Y37992D01*
X25236Y37992D01*
X23819Y39409D01*
Y42126D01*
X26378D01*
Y40118D01*
D02*
G37*
G36*
X31218Y19603D02*
X30016Y18402D01*
X28945D01*
X28937Y18449D01*
X28976Y18465D01*
X28992Y18504D01*
Y18726D01*
X28998D01*
Y18962D01*
Y19198D01*
Y19435D01*
Y19649D01*
X31199D01*
X31218Y19603D01*
D02*
G37*
G36*
X34218Y30990D02*
X34238Y30977D01*
X34252Y30968D01*
X34291Y30960D01*
X34867D01*
Y29049D01*
X34821Y29019D01*
X34817Y29019D01*
X34797Y29049D01*
X33262Y30584D01*
Y31881D01*
X33308Y31900D01*
X34218Y30990D01*
D02*
G37*
G36*
X37485Y15862D02*
X37557Y15769D01*
X37650Y15698D01*
X37758Y15653D01*
X37874Y15638D01*
X37990Y15653D01*
X38098Y15698D01*
X38191Y15769D01*
X38263Y15862D01*
X38272Y15885D01*
X38322Y15875D01*
Y13182D01*
X37472Y12333D01*
X37426Y12352D01*
Y15875D01*
X37476Y15885D01*
X37485Y15862D01*
D02*
G37*
G36*
X29267Y14367D02*
Y13740D01*
X29275Y13701D01*
X29297Y13667D01*
X29408Y13556D01*
X29394Y13520D01*
X29385Y13509D01*
X28998D01*
Y13522D01*
Y13758D01*
Y13994D01*
Y14230D01*
Y14467D01*
Y14483D01*
X29150D01*
X29267Y14367D01*
D02*
G37*
G36*
X27913Y16555D02*
X27923Y15896D01*
X27274Y15246D01*
Y14665D01*
X27028Y14419D01*
X25394D01*
Y15551D01*
X25512Y15669D01*
X26270D01*
X26407Y15807D01*
Y16575D01*
X26752D01*
X27913Y16555D01*
D02*
G37*
G36*
X28937Y24449D02*
X28465Y24409D01*
X28071D01*
Y23189D01*
X27874Y22992D01*
X26614D01*
Y24055D01*
X27126Y25118D01*
X27165Y29291D01*
X28937D01*
Y24449D01*
D02*
G37*
G36*
X34595Y15708D02*
X34584Y15653D01*
X34581Y15651D01*
X34508Y15665D01*
X34448Y15653D01*
X33027Y17074D01*
X33027Y17074D01*
X32997Y17094D01*
X32962Y17101D01*
X32962Y17101D01*
X32709D01*
X32674Y17152D01*
X32609Y17196D01*
X32531Y17211D01*
X32454Y17196D01*
X32430Y17180D01*
X32380Y17207D01*
Y17410D01*
X32411Y17455D01*
X32489Y17470D01*
X32555Y17514D01*
X32599Y17580D01*
X32608Y17624D01*
X32662Y17641D01*
X34595Y15708D01*
D02*
G37*
G36*
X40095Y14227D02*
X39630Y13762D01*
X39607Y13728D01*
X39599Y13689D01*
Y13216D01*
X39588Y13208D01*
X38820Y12441D01*
X38798Y12407D01*
X38790Y12368D01*
Y12192D01*
X36078Y9480D01*
X35773D01*
X35754Y9526D01*
X35993Y9765D01*
X36077D01*
X36117Y9772D01*
X36150Y9795D01*
X38001Y11645D01*
X38023Y11679D01*
X38031Y11718D01*
Y11802D01*
X39096Y12867D01*
X39118Y12901D01*
X39125Y12933D01*
X39126Y12940D01*
Y15657D01*
X39815D01*
Y16547D01*
X39026D01*
X39007Y16593D01*
X39135Y16722D01*
X39146Y16714D01*
X39254Y16669D01*
X39370Y16654D01*
X39486Y16669D01*
X39594Y16714D01*
X39687Y16785D01*
X39759Y16878D01*
X39804Y16986D01*
X39819Y17102D01*
X39804Y17219D01*
X39759Y17327D01*
X39687Y17420D01*
X39594Y17491D01*
X39486Y17536D01*
X39370Y17551D01*
X39254Y17536D01*
X39146Y17491D01*
X39053Y17420D01*
X38981Y17327D01*
X38937Y17219D01*
X38921Y17102D01*
X38937Y16986D01*
X38981Y16878D01*
X38989Y16868D01*
X38775Y16653D01*
X38725Y16674D01*
Y17516D01*
X39071Y17862D01*
X39815D01*
Y18752D01*
X39026D01*
X39007Y18798D01*
X39135Y18926D01*
X39146Y18918D01*
X39254Y18874D01*
X39370Y18858D01*
X39486Y18874D01*
X39594Y18918D01*
X39687Y18990D01*
X39759Y19083D01*
X39804Y19191D01*
X39819Y19307D01*
X39804Y19423D01*
X39759Y19531D01*
X39687Y19624D01*
X39594Y19696D01*
X39486Y19741D01*
X39370Y19756D01*
X39254Y19741D01*
X39146Y19696D01*
X39053Y19624D01*
X38981Y19531D01*
X38937Y19423D01*
X38921Y19307D01*
X38937Y19191D01*
X38981Y19083D01*
X38989Y19072D01*
X38699Y18782D01*
X38676Y18748D01*
X38668Y18709D01*
Y18342D01*
X38352Y18026D01*
X38330Y17992D01*
X38322Y17953D01*
Y17580D01*
X38319Y17531D01*
X38272Y17531D01*
X37476D01*
X37429Y17531D01*
X37426Y17580D01*
Y18355D01*
X37476Y18365D01*
X37485Y18343D01*
X37557Y18250D01*
X37650Y18178D01*
X37758Y18133D01*
X37874Y18118D01*
X37990Y18133D01*
X38098Y18178D01*
X38191Y18250D01*
X38263Y18343D01*
X38307Y18451D01*
X38323Y18567D01*
X38307Y18683D01*
X38263Y18791D01*
X38191Y18884D01*
X38098Y18956D01*
X37990Y19000D01*
X37874Y19016D01*
X37758Y19000D01*
X37650Y18956D01*
X37557Y18884D01*
X37485Y18791D01*
X37476Y18769D01*
X37426Y18779D01*
Y19073D01*
X37429Y19122D01*
X38319D01*
Y20012D01*
X38319Y20012D01*
X38319D01*
X38319Y20012D01*
X38337Y20054D01*
X39016D01*
X39055Y20062D01*
X39062Y20067D01*
X39815D01*
Y20957D01*
X39026D01*
X39007Y21003D01*
X39135Y21131D01*
X39146Y21123D01*
X39254Y21078D01*
X39370Y21063D01*
X39486Y21078D01*
X39594Y21123D01*
X39687Y21195D01*
X39759Y21287D01*
X39804Y21396D01*
X39819Y21512D01*
X39804Y21628D01*
X39759Y21736D01*
X39712Y21797D01*
X39737Y21847D01*
X40095D01*
Y14227D01*
D02*
G37*
G36*
X27913Y21801D02*
X27904Y21791D01*
X26004D01*
Y22864D01*
X26014Y22874D01*
X27904D01*
X27913Y21801D01*
D02*
G37*
G36*
X28228Y18402D02*
X28201Y18390D01*
X28189Y18386D01*
X27457Y17654D01*
X26811D01*
X26772Y17638D01*
X26756Y17598D01*
Y16895D01*
X26709Y16875D01*
X26584Y17001D01*
X26557Y17019D01*
X26526Y17025D01*
X25901D01*
X25865Y17079D01*
X25802Y17121D01*
X25728Y17136D01*
X25020D01*
X24946Y17121D01*
X24883Y17079D01*
X24861Y17046D01*
X24621D01*
Y17219D01*
X24511D01*
X24492Y17265D01*
X24694Y17467D01*
X24715Y17471D01*
X24780Y17515D01*
X24824Y17581D01*
X24840Y17658D01*
X24824Y17736D01*
X24780Y17802D01*
X24771Y17808D01*
X24786Y17858D01*
X27559D01*
X27598Y17874D01*
X28173Y18449D01*
X28220D01*
X28228Y18402D01*
D02*
G37*
G36*
X32165Y18898D02*
X30787Y17520D01*
X29055D01*
X28307Y16772D01*
X26811D01*
Y17598D01*
X27480D01*
X28228Y18346D01*
X30039D01*
X31378Y19685D01*
Y24685D01*
X32165D01*
Y18898D01*
D02*
G37*
G36*
X34622Y35647D02*
X34607Y35597D01*
X34590Y35433D01*
X34607Y35269D01*
X34655Y35111D01*
X34732Y34965D01*
X34837Y34837D01*
X34965Y34732D01*
X35111Y34655D01*
X35269Y34607D01*
X35316Y34602D01*
X35313Y34552D01*
X34570D01*
X34466Y34656D01*
X34473Y34720D01*
X34506Y34746D01*
X34554Y34809D01*
X34585Y34882D01*
X34595Y34961D01*
X34585Y35039D01*
X34554Y35113D01*
X34506Y35175D01*
X34443Y35224D01*
X34370Y35254D01*
X34291Y35264D01*
X34233Y35257D01*
X34210Y35304D01*
X34579Y35673D01*
X34622Y35647D01*
D02*
G37*
G36*
X26672Y16680D02*
X26651Y16630D01*
X26407D01*
X26368Y16614D01*
X26352Y16575D01*
Y15831D01*
X26331Y15829D01*
X26210Y15793D01*
X26098Y15733D01*
X26088Y15725D01*
X25512D01*
X25473Y15708D01*
X25355Y15590D01*
X25338Y15551D01*
Y14419D01*
X25355Y14380D01*
X25394Y14364D01*
X27028D01*
X27067Y14380D01*
X27252Y14566D01*
X27298Y14546D01*
Y14173D01*
Y14173D01*
Y14173D01*
X27301Y14160D01*
X27306Y14134D01*
X27317Y14117D01*
X27329Y14100D01*
X27860Y13569D01*
X27877Y13558D01*
X27894Y13546D01*
X27894D01*
X27894Y13546D01*
X27905Y13544D01*
X27933Y13539D01*
X28089D01*
Y13522D01*
Y13285D01*
Y13049D01*
Y12813D01*
Y12577D01*
X28998D01*
Y12594D01*
X29071D01*
X31774Y9891D01*
X31755Y9844D01*
X30358D01*
X30341Y9894D01*
X30341Y9895D01*
X30383Y9949D01*
X30409Y10011D01*
X30418Y10079D01*
X30409Y10146D01*
X30383Y10209D01*
X30341Y10263D01*
X30288Y10304D01*
X30225Y10330D01*
X30157Y10339D01*
X30090Y10330D01*
X30027Y10304D01*
X29974Y10263D01*
X29932Y10209D01*
X29906Y10146D01*
X29897Y10079D01*
X29906Y10011D01*
X29932Y9949D01*
X29974Y9895D01*
X29974Y9894D01*
X29957Y9844D01*
X26433D01*
Y12913D01*
X26422Y12941D01*
X26417Y12953D01*
X24532Y14838D01*
X24552Y14888D01*
X24629D01*
X24670Y14827D01*
X24735Y14783D01*
X24813Y14768D01*
X24891Y14783D01*
X24956Y14827D01*
X25000Y14893D01*
X25016Y14970D01*
X25000Y15048D01*
X24956Y15114D01*
X24891Y15158D01*
X24813Y15173D01*
X24735Y15158D01*
X24670Y15114D01*
X24642Y15073D01*
X24536D01*
X24202Y15407D01*
Y16767D01*
X24621D01*
Y16840D01*
X24861D01*
X24883Y16807D01*
X24946Y16765D01*
X25020Y16750D01*
X25728D01*
X25802Y16765D01*
X25865Y16807D01*
X25901Y16861D01*
X26492D01*
X26672Y16680D01*
D02*
G37*
G36*
X30067Y17418D02*
X29229Y16580D01*
X28998D01*
Y16593D01*
Y16829D01*
Y17065D01*
Y17305D01*
X28984D01*
X28965Y17351D01*
X29078Y17464D01*
X30048D01*
X30067Y17418D01*
D02*
G37*
G36*
X24461Y42843D02*
X25299Y42789D01*
X26133Y42697D01*
X26963Y42569D01*
X27786Y42406D01*
X28602Y42206D01*
X29408Y41971D01*
X30202Y41701D01*
X30985Y41397D01*
X31753Y41059D01*
X32506Y40688D01*
X33242Y40284D01*
X33960Y39849D01*
X34658Y39382D01*
X35334Y38886D01*
X35989Y38361D01*
X36620Y37807D01*
X37227Y37227D01*
X37807Y36620D01*
X38361Y35989D01*
X38886Y35334D01*
X39382Y34658D01*
X39849Y33960D01*
X40284Y33242D01*
X40688Y32506D01*
X41059Y31753D01*
X41397Y30985D01*
X41701Y30202D01*
X41971Y29408D01*
X42206Y28602D01*
X42406Y27786D01*
X42569Y26963D01*
X42697Y26133D01*
X42789Y25299D01*
X42843Y24461D01*
X42862Y23630D01*
X42860Y23622D01*
X42862Y23614D01*
X42843Y22783D01*
X42789Y21945D01*
X42697Y21111D01*
X42569Y20281D01*
X42406Y19458D01*
X42206Y18642D01*
X41971Y17837D01*
X41701Y17042D01*
X41397Y16259D01*
X41059Y15491D01*
X40688Y14738D01*
X40284Y14002D01*
X39856Y13296D01*
X39806Y13310D01*
Y13646D01*
X40260Y14100D01*
X40282Y14134D01*
X40290Y14173D01*
X40282Y14213D01*
X40279Y14217D01*
Y21939D01*
X40272Y21974D01*
X40252Y22004D01*
X40222Y22024D01*
X40187Y22031D01*
X39666D01*
X39636Y22061D01*
X39606Y22081D01*
X39571Y22088D01*
X39571Y22088D01*
X39169D01*
X39134Y22081D01*
X39104Y22061D01*
X39104Y22061D01*
X39074Y22031D01*
X38642D01*
X38642Y22031D01*
X38606Y22024D01*
X38576Y22004D01*
X38243Y21671D01*
X38176D01*
X38159Y21721D01*
X38191Y21746D01*
X38263Y21839D01*
X38307Y21947D01*
X38323Y22063D01*
X38307Y22179D01*
X38263Y22287D01*
X38191Y22380D01*
X38098Y22452D01*
X37990Y22496D01*
X37874Y22512D01*
X37758Y22496D01*
X37650Y22452D01*
X37557Y22380D01*
X37485Y22287D01*
X37441Y22179D01*
X37425Y22063D01*
X37441Y21947D01*
X37485Y21839D01*
X37556Y21747D01*
X37553Y21728D01*
X37543Y21697D01*
X37500D01*
X37500Y21697D01*
X37465Y21690D01*
X37435Y21670D01*
X36826Y21061D01*
X36794Y21075D01*
X36781Y21087D01*
X36792Y21173D01*
X36780Y21266D01*
X36744Y21353D01*
X36687Y21427D01*
X36613Y21484D01*
X36526Y21520D01*
X36433Y21533D01*
X36340Y21520D01*
X36253Y21484D01*
X36179Y21427D01*
X36122Y21353D01*
X36086Y21266D01*
X36074Y21173D01*
X36086Y21080D01*
X36122Y20994D01*
X36179Y20919D01*
X36253Y20862D01*
X36340Y20826D01*
X36433Y20814D01*
X36526Y20826D01*
X36613Y20862D01*
X36675Y20909D01*
X36716Y20895D01*
X36725Y20887D01*
Y20455D01*
X36675Y20437D01*
X36613Y20484D01*
X36526Y20520D01*
X36433Y20533D01*
X36340Y20520D01*
X36253Y20484D01*
X36179Y20427D01*
X36122Y20353D01*
X36086Y20266D01*
X36074Y20173D01*
X36086Y20080D01*
X36122Y19994D01*
X36179Y19919D01*
X36253Y19862D01*
X36340Y19826D01*
X36433Y19814D01*
X36526Y19826D01*
X36613Y19862D01*
X36675Y19909D01*
X36725Y19891D01*
Y19349D01*
X36725Y19349D01*
X36732Y19314D01*
X36736Y19306D01*
Y19040D01*
X36732Y19033D01*
X36725Y18997D01*
X36725Y18997D01*
Y18455D01*
X36675Y18437D01*
X36613Y18484D01*
X36526Y18520D01*
X36433Y18533D01*
X36340Y18520D01*
X36253Y18484D01*
X36179Y18427D01*
X36122Y18353D01*
X36086Y18266D01*
X36074Y18173D01*
X36086Y18080D01*
X36122Y17994D01*
X36179Y17919D01*
X36253Y17862D01*
X36340Y17826D01*
X36433Y17814D01*
X36526Y17826D01*
X36613Y17862D01*
X36675Y17909D01*
X36725Y17891D01*
Y17455D01*
X36675Y17437D01*
X36613Y17484D01*
X36526Y17520D01*
X36433Y17533D01*
X36340Y17520D01*
X36253Y17484D01*
X36179Y17427D01*
X36122Y17353D01*
X36086Y17266D01*
X36074Y17173D01*
X36086Y17080D01*
X36122Y16994D01*
X36169Y16932D01*
X36151Y16882D01*
X36049D01*
X36049Y16882D01*
X36014Y16875D01*
X36002Y16867D01*
X35984Y16855D01*
X35984Y16855D01*
X35613Y16484D01*
X35613Y16484D01*
X35526Y16520D01*
X35433Y16533D01*
X35340Y16520D01*
X35253Y16484D01*
X35179Y16427D01*
X35124Y16355D01*
X35119Y16355D01*
X35074Y16374D01*
Y16973D01*
X35119Y16992D01*
X35124Y16991D01*
X35179Y16919D01*
X35253Y16862D01*
X35340Y16826D01*
X35433Y16814D01*
X35526Y16826D01*
X35613Y16862D01*
X35687Y16919D01*
X35744Y16994D01*
X35780Y17080D01*
X35792Y17173D01*
X35780Y17266D01*
X35744Y17353D01*
X35687Y17427D01*
X35613Y17484D01*
X35526Y17520D01*
X35433Y17533D01*
X35340Y17520D01*
X35253Y17484D01*
X35179Y17427D01*
X35124Y17355D01*
X35119Y17355D01*
X35074Y17374D01*
Y17973D01*
X35119Y17992D01*
X35124Y17991D01*
X35179Y17919D01*
X35253Y17862D01*
X35340Y17826D01*
X35433Y17814D01*
X35526Y17826D01*
X35613Y17862D01*
X35687Y17919D01*
X35744Y17994D01*
X35780Y18080D01*
X35792Y18173D01*
X35780Y18266D01*
X35744Y18353D01*
X35687Y18427D01*
X35613Y18484D01*
X35526Y18520D01*
X35433Y18533D01*
X35340Y18520D01*
X35253Y18484D01*
X35179Y18427D01*
X35124Y18355D01*
X35119Y18355D01*
X35074Y18374D01*
Y19973D01*
X35119Y19992D01*
X35124Y19991D01*
X35179Y19919D01*
X35253Y19862D01*
X35340Y19826D01*
X35433Y19814D01*
X35526Y19826D01*
X35613Y19862D01*
X35687Y19919D01*
X35744Y19994D01*
X35780Y20080D01*
X35792Y20173D01*
X35780Y20266D01*
X35744Y20353D01*
X35687Y20427D01*
X35613Y20484D01*
X35526Y20520D01*
X35433Y20533D01*
X35340Y20520D01*
X35253Y20484D01*
X35179Y20427D01*
X35124Y20355D01*
X35119Y20355D01*
X35074Y20374D01*
Y20973D01*
X35119Y20992D01*
X35124Y20991D01*
X35179Y20919D01*
X35253Y20862D01*
X35340Y20826D01*
X35433Y20814D01*
X35526Y20826D01*
X35613Y20862D01*
X35687Y20919D01*
X35744Y20994D01*
X35780Y21080D01*
X35792Y21173D01*
X35780Y21266D01*
X35744Y21353D01*
X35687Y21427D01*
X35613Y21484D01*
X35526Y21520D01*
X35433Y21533D01*
X35340Y21520D01*
X35253Y21484D01*
X35179Y21427D01*
X35124Y21355D01*
X35119Y21355D01*
X35074Y21374D01*
Y21973D01*
X35119Y21992D01*
X35124Y21991D01*
X35179Y21919D01*
X35253Y21862D01*
X35340Y21826D01*
X35433Y21814D01*
X35526Y21826D01*
X35613Y21862D01*
X35687Y21919D01*
X35744Y21994D01*
X35780Y22080D01*
X35792Y22173D01*
X35780Y22266D01*
X35744Y22353D01*
X35687Y22427D01*
X35613Y22484D01*
X35526Y22520D01*
X35433Y22533D01*
X35340Y22520D01*
X35253Y22484D01*
X35179Y22427D01*
X35124Y22355D01*
X35119Y22355D01*
X35074Y22374D01*
Y22973D01*
X35119Y22992D01*
X35124Y22991D01*
X35179Y22919D01*
X35253Y22862D01*
X35340Y22826D01*
X35433Y22814D01*
X35526Y22826D01*
X35613Y22862D01*
X35687Y22919D01*
X35744Y22994D01*
X35780Y23080D01*
X35792Y23173D01*
X35780Y23266D01*
X35744Y23353D01*
X35687Y23427D01*
X35613Y23484D01*
X35526Y23520D01*
X35433Y23533D01*
X35340Y23520D01*
X35253Y23484D01*
X35179Y23427D01*
X35124Y23355D01*
X35119Y23355D01*
X35074Y23374D01*
Y23973D01*
X35119Y23992D01*
X35124Y23991D01*
X35179Y23919D01*
X35253Y23862D01*
X35340Y23826D01*
X35433Y23814D01*
X35526Y23826D01*
X35613Y23862D01*
X35687Y23919D01*
X35744Y23994D01*
X35780Y24080D01*
X35792Y24173D01*
X35780Y24266D01*
X35744Y24353D01*
X35687Y24427D01*
X35613Y24484D01*
X35526Y24520D01*
X35433Y24533D01*
X35340Y24520D01*
X35253Y24484D01*
X35179Y24427D01*
X35124Y24355D01*
X35119Y24355D01*
X35074Y24374D01*
Y24973D01*
X35119Y24992D01*
X35124Y24991D01*
X35179Y24919D01*
X35253Y24862D01*
X35340Y24826D01*
X35433Y24814D01*
X35526Y24826D01*
X35613Y24862D01*
X35687Y24919D01*
X35744Y24994D01*
X35780Y25080D01*
X35792Y25173D01*
X35780Y25266D01*
X35744Y25353D01*
X35687Y25427D01*
X35613Y25484D01*
X35526Y25520D01*
X35433Y25533D01*
X35340Y25520D01*
X35253Y25484D01*
X35179Y25427D01*
X35124Y25355D01*
X35119Y25355D01*
X35074Y25374D01*
Y25973D01*
X35119Y25992D01*
X35124Y25991D01*
X35179Y25919D01*
X35253Y25862D01*
X35340Y25826D01*
X35433Y25814D01*
X35526Y25826D01*
X35613Y25862D01*
X35687Y25919D01*
X35744Y25994D01*
X35780Y26080D01*
X35792Y26173D01*
X35780Y26266D01*
X35744Y26353D01*
X35687Y26427D01*
X35613Y26484D01*
X35526Y26520D01*
X35433Y26533D01*
X35340Y26520D01*
X35253Y26484D01*
X35179Y26427D01*
X35124Y26355D01*
X35119Y26355D01*
X35074Y26374D01*
Y26973D01*
X35119Y26992D01*
X35124Y26991D01*
X35179Y26919D01*
X35253Y26862D01*
X35340Y26826D01*
X35433Y26814D01*
X35526Y26826D01*
X35613Y26862D01*
X35687Y26919D01*
X35744Y26994D01*
X35780Y27080D01*
X35792Y27173D01*
X35780Y27266D01*
X35744Y27353D01*
X35687Y27427D01*
X35613Y27484D01*
X35526Y27520D01*
X35433Y27533D01*
X35340Y27520D01*
X35253Y27484D01*
X35179Y27427D01*
X35124Y27355D01*
X35119Y27355D01*
X35074Y27374D01*
Y27973D01*
X35119Y27992D01*
X35124Y27991D01*
X35179Y27919D01*
X35253Y27862D01*
X35340Y27826D01*
X35433Y27814D01*
X35526Y27826D01*
X35613Y27862D01*
X35687Y27919D01*
X35744Y27994D01*
X35780Y28080D01*
X35792Y28173D01*
X35780Y28266D01*
X35744Y28353D01*
X35687Y28427D01*
X35613Y28484D01*
X35526Y28520D01*
X35433Y28533D01*
X35340Y28520D01*
X35253Y28484D01*
X35179Y28427D01*
X35124Y28355D01*
X35119Y28355D01*
X35074Y28374D01*
Y28973D01*
X35119Y28992D01*
X35124Y28991D01*
X35179Y28919D01*
X35253Y28862D01*
X35340Y28826D01*
X35433Y28814D01*
X35526Y28826D01*
X35613Y28862D01*
X35687Y28919D01*
X35744Y28994D01*
X35780Y29080D01*
X35792Y29173D01*
X35780Y29266D01*
X35744Y29353D01*
X35687Y29427D01*
X35613Y29484D01*
X35526Y29520D01*
X35433Y29533D01*
X35340Y29520D01*
X35253Y29484D01*
X35179Y29427D01*
X35124Y29355D01*
X35119Y29355D01*
X35074Y29374D01*
Y29973D01*
X35119Y29992D01*
X35124Y29991D01*
X35179Y29919D01*
X35253Y29862D01*
X35340Y29826D01*
X35433Y29814D01*
X35526Y29826D01*
X35613Y29862D01*
X35687Y29919D01*
X35744Y29994D01*
X35780Y30080D01*
X35792Y30173D01*
X35780Y30266D01*
X35744Y30353D01*
X35687Y30427D01*
X35613Y30484D01*
X35526Y30520D01*
X35433Y30533D01*
X35340Y30520D01*
X35253Y30484D01*
X35179Y30427D01*
X35124Y30355D01*
X35119Y30355D01*
X35074Y30374D01*
Y30973D01*
X35119Y30992D01*
X35124Y30991D01*
X35179Y30919D01*
X35253Y30862D01*
X35340Y30826D01*
X35433Y30814D01*
X35526Y30826D01*
X35613Y30862D01*
X35687Y30919D01*
X35744Y30994D01*
X35780Y31080D01*
X35792Y31173D01*
X35780Y31266D01*
X35744Y31353D01*
X35687Y31427D01*
X35613Y31484D01*
X35526Y31520D01*
X35433Y31533D01*
X35340Y31520D01*
X35253Y31484D01*
X35179Y31427D01*
X35122Y31353D01*
X35086Y31266D01*
X35074Y31173D01*
X35027Y31147D01*
X35010Y31158D01*
X34970Y31166D01*
X34334D01*
X33413Y32087D01*
Y32703D01*
X33463Y32725D01*
X33510Y32690D01*
X33583Y32659D01*
X33661Y32649D01*
X33740Y32659D01*
X33813Y32690D01*
X33876Y32738D01*
X33925Y32801D01*
X33955Y32874D01*
X33965Y32953D01*
X33956Y33023D01*
X34570Y33637D01*
X36768D01*
X39267Y31138D01*
Y30468D01*
X39220D01*
X39128Y30456D01*
X39043Y30421D01*
X38970Y30364D01*
X38913Y30291D01*
X38878Y30206D01*
X38866Y30114D01*
X38878Y30022D01*
X38913Y29937D01*
X38970Y29863D01*
X39043Y29807D01*
X39128Y29772D01*
X39220Y29760D01*
X39520D01*
X39612Y29772D01*
X39697Y29807D01*
X39771Y29863D01*
X39827Y29937D01*
X39862Y30022D01*
X39874Y30114D01*
X39862Y30206D01*
X39827Y30291D01*
X39771Y30364D01*
X39697Y30421D01*
X39612Y30456D01*
X39520Y30468D01*
X39473D01*
Y31176D01*
X39484Y31185D01*
X39521Y31200D01*
X39936Y30784D01*
Y28700D01*
X39572Y28335D01*
X39520Y28342D01*
X39220D01*
X39128Y28330D01*
X39043Y28295D01*
X38970Y28238D01*
X38913Y28165D01*
X38878Y28080D01*
X38866Y27988D01*
X38878Y27896D01*
X38913Y27811D01*
X38970Y27737D01*
X39043Y27681D01*
X39128Y27646D01*
X39220Y27634D01*
X39520D01*
X39612Y27646D01*
X39697Y27681D01*
X39771Y27737D01*
X39827Y27811D01*
X39862Y27896D01*
X39874Y27988D01*
X39862Y28080D01*
X39827Y28165D01*
X39771Y28238D01*
X39770Y28242D01*
X40112Y28584D01*
Y28584D01*
X40112D01*
X40120Y28595D01*
X40122Y28599D01*
X40172Y28584D01*
Y26810D01*
X39572Y26209D01*
X39520Y26216D01*
X39220D01*
X39128Y26204D01*
X39043Y26169D01*
X38970Y26112D01*
X38913Y26039D01*
X38878Y25954D01*
X38866Y25862D01*
X38878Y25770D01*
X38913Y25685D01*
X38970Y25611D01*
X39043Y25555D01*
X39128Y25520D01*
X39220Y25508D01*
X39520D01*
X39612Y25520D01*
X39697Y25555D01*
X39771Y25611D01*
X39827Y25685D01*
X39862Y25770D01*
X39874Y25862D01*
X39862Y25954D01*
X39827Y26039D01*
X39771Y26112D01*
X39770Y26116D01*
X40349Y26694D01*
X40359Y26710D01*
X40409Y26694D01*
Y24920D01*
X39572Y24083D01*
X39520Y24090D01*
X39220D01*
X39128Y24078D01*
X39043Y24043D01*
X38970Y23986D01*
X38913Y23913D01*
X38878Y23828D01*
X38866Y23736D01*
X38878Y23644D01*
X38913Y23559D01*
X38970Y23485D01*
X39043Y23429D01*
X39128Y23394D01*
X39220Y23382D01*
X39520D01*
X39612Y23394D01*
X39697Y23429D01*
X39771Y23485D01*
X39827Y23559D01*
X39862Y23644D01*
X39874Y23736D01*
X39862Y23828D01*
X39827Y23913D01*
X39771Y23986D01*
X39770Y23990D01*
X40585Y24805D01*
X40607Y24838D01*
X40615Y24878D01*
Y30984D01*
X40607Y31024D01*
X40585Y31057D01*
X37120Y34522D01*
X37087Y34544D01*
X37047Y34552D01*
X35553D01*
X35550Y34602D01*
X35597Y34607D01*
X35756Y34655D01*
X35901Y34732D01*
X36029Y34837D01*
X36134Y34965D01*
X36145Y34986D01*
X36198Y34980D01*
X36235Y34926D01*
X36300Y34882D01*
X36378Y34866D01*
X36456Y34882D01*
X36521Y34926D01*
X36565Y34991D01*
X36581Y35069D01*
X36571Y35116D01*
X36913Y35459D01*
X36936Y35492D01*
X36944Y35531D01*
Y35666D01*
X36984Y35693D01*
X37028Y35759D01*
X37043Y35837D01*
X37028Y35914D01*
X36984Y35980D01*
X36918Y36024D01*
X36841Y36039D01*
X36763Y36024D01*
X36697Y35980D01*
X36653Y35914D01*
X36638Y35837D01*
X36653Y35759D01*
X36697Y35693D01*
X36737Y35666D01*
Y35574D01*
X36425Y35262D01*
X36378Y35272D01*
X36307Y35258D01*
X36304Y35258D01*
X36282Y35272D01*
X36262Y35290D01*
X36276Y35433D01*
X36260Y35597D01*
X36212Y35756D01*
X36134Y35901D01*
X36029Y36029D01*
X35901Y36134D01*
X35756Y36212D01*
X35597Y36260D01*
X35433Y36276D01*
X35269Y36260D01*
X35111Y36212D01*
X34965Y36134D01*
X34837Y36029D01*
X34825Y36014D01*
X34778Y36031D01*
Y37497D01*
X34818Y37524D01*
X34862Y37590D01*
X34878Y37668D01*
X34862Y37745D01*
X34818Y37811D01*
X34753Y37855D01*
X34675Y37870D01*
X34597Y37855D01*
X34532Y37811D01*
X34488Y37745D01*
X34472Y37668D01*
X34488Y37590D01*
X34532Y37524D01*
X34572Y37497D01*
Y35958D01*
X33407Y34792D01*
X33395Y34781D01*
X33382Y34761D01*
X33331Y34776D01*
Y36063D01*
X33324Y36102D01*
X33301Y36136D01*
X32691Y36746D01*
X32658Y36768D01*
X32618Y36776D01*
X32226D01*
Y36789D01*
Y37025D01*
Y37261D01*
Y37497D01*
Y37737D01*
X31317D01*
Y37497D01*
Y37261D01*
Y37025D01*
Y36789D01*
Y36553D01*
Y36317D01*
Y36081D01*
Y35844D01*
Y35608D01*
Y35372D01*
Y35136D01*
Y34900D01*
Y34664D01*
Y34428D01*
Y34192D01*
Y33955D01*
Y33719D01*
Y33483D01*
Y33247D01*
Y33197D01*
X31271Y33178D01*
X31158Y33291D01*
Y38386D01*
X31142Y38425D01*
X30157Y39409D01*
X30118Y39425D01*
X27070D01*
X26433Y40062D01*
Y40118D01*
Y42126D01*
X26417Y42165D01*
X26378Y42181D01*
X23819D01*
X23780Y42165D01*
X23763Y42126D01*
Y39409D01*
X23766Y39402D01*
X23766Y39395D01*
X23774Y39383D01*
X23780Y39370D01*
X25197Y37953D01*
X25236Y37937D01*
X29308Y37937D01*
X29669Y37575D01*
X29669Y33429D01*
X29667Y33425D01*
X29657Y33346D01*
X29667Y33268D01*
X29669Y33263D01*
Y32731D01*
X29667Y32726D01*
X29657Y32648D01*
X29667Y32569D01*
X29669Y32565D01*
Y32480D01*
X29669Y32480D01*
X29669Y32480D01*
X29672Y32056D01*
X29648Y31998D01*
X29637Y31919D01*
X29648Y31841D01*
X29673Y31779D01*
X29679Y30817D01*
X29679Y30817D01*
X29679Y30817D01*
X29695Y30778D01*
X29695Y30778D01*
X29695Y30778D01*
X29735Y30762D01*
X29735Y30762D01*
X29735Y30762D01*
X31281Y30771D01*
X31317Y30736D01*
Y30650D01*
Y30414D01*
Y30177D01*
Y29941D01*
Y29706D01*
Y29470D01*
Y29234D01*
Y28998D01*
Y28762D01*
Y28525D01*
Y28289D01*
Y28053D01*
Y27817D01*
Y27581D01*
Y27345D01*
Y27109D01*
Y26873D01*
Y26636D01*
Y26400D01*
Y26164D01*
Y25928D01*
Y25692D01*
Y25456D01*
Y25220D01*
Y24984D01*
Y24747D01*
Y24511D01*
Y24275D01*
Y24039D01*
Y23803D01*
Y23696D01*
X31289Y23677D01*
X28998D01*
Y23685D01*
Y23921D01*
Y24157D01*
Y24393D01*
Y24629D01*
Y24865D01*
Y25102D01*
Y25338D01*
Y25574D01*
Y25810D01*
Y26046D01*
Y26282D01*
Y26518D01*
Y26754D01*
Y26990D01*
Y27227D01*
Y27463D01*
Y27699D01*
Y27935D01*
Y28171D01*
Y28407D01*
Y28643D01*
Y28879D01*
Y29116D01*
Y29352D01*
Y29588D01*
Y29824D01*
Y30064D01*
X28089D01*
Y29824D01*
Y29588D01*
Y29352D01*
Y29347D01*
X27165D01*
X27146Y29339D01*
X27127Y29331D01*
X27126Y29331D01*
X27126Y29331D01*
X27118Y29311D01*
X27110Y29292D01*
X27071Y25131D01*
X26564Y24079D01*
X26564Y24067D01*
X26559Y24055D01*
Y22992D01*
X26564Y22979D01*
X26533Y22929D01*
X26014D01*
X25975Y22913D01*
X25965Y22903D01*
X25949Y22864D01*
Y22523D01*
X25939Y22451D01*
X25949Y22379D01*
Y21791D01*
X25965Y21752D01*
X26004Y21736D01*
X27904D01*
X27943Y21752D01*
X27953Y21762D01*
X27953Y21762D01*
X27953Y21762D01*
X27961Y21782D01*
X27969Y21801D01*
X27969Y21801D01*
X27969Y21802D01*
X27959Y22875D01*
X27951Y22894D01*
X27943Y22913D01*
X27942Y22913D01*
X27942Y22914D01*
X27941Y22914D01*
X27930Y22960D01*
X27932Y22972D01*
X28042Y23082D01*
X28089Y23063D01*
Y22976D01*
Y22740D01*
Y22504D01*
Y22268D01*
Y22032D01*
Y21796D01*
Y21560D01*
Y21324D01*
Y21087D01*
Y20851D01*
Y20615D01*
Y20379D01*
Y20143D01*
Y20134D01*
X27205D01*
X27205Y20134D01*
X27205Y20134D01*
X24018Y20133D01*
X24016Y20134D01*
X23988Y20123D01*
X23977Y20118D01*
X22935Y19077D01*
X22889Y19096D01*
Y19663D01*
X22997D01*
Y20116D01*
X22575D01*
Y20043D01*
X22334D01*
X22312Y20076D01*
X22249Y20117D01*
X22176Y20132D01*
X21467D01*
X21393Y20117D01*
X21331Y20076D01*
X21289Y20013D01*
X21274Y19939D01*
X21289Y19866D01*
X21331Y19803D01*
X21393Y19761D01*
X21467Y19747D01*
X22176D01*
X22249Y19761D01*
X22312Y19803D01*
X22334Y19836D01*
X22575D01*
Y19663D01*
X22683D01*
Y19035D01*
X21676Y18028D01*
X21654Y17995D01*
X21646Y17955D01*
Y14722D01*
X21654Y14682D01*
X21676Y14649D01*
X23615Y12711D01*
Y9801D01*
X23622Y9761D01*
X23645Y9728D01*
X23704Y9668D01*
X23738Y9646D01*
X23777Y9638D01*
X31813D01*
X32169Y9283D01*
X32202Y9260D01*
X32242Y9252D01*
X32325D01*
X32365Y9260D01*
X32384Y9273D01*
X35510D01*
X35529Y9260D01*
X35568Y9252D01*
X35652D01*
X35692Y9260D01*
X35711Y9273D01*
X36041D01*
X36060Y9260D01*
X36100Y9252D01*
X36139Y9260D01*
X36173Y9283D01*
X38891Y12001D01*
X38929Y11968D01*
X38886Y11910D01*
X38361Y11255D01*
X37807Y10624D01*
X37227Y10017D01*
X36620Y9437D01*
X35989Y8884D01*
X35334Y8358D01*
X34658Y7862D01*
X33960Y7395D01*
X33242Y6960D01*
X32506Y6556D01*
X31753Y6185D01*
X30985Y5847D01*
X30202Y5543D01*
X29661Y5359D01*
X29620Y5388D01*
Y8012D01*
X29622D01*
X29606Y8209D01*
X29560Y8402D01*
X29484Y8585D01*
X29381Y8753D01*
X29252Y8904D01*
X29252Y8903D01*
X29181Y8958D01*
X29098Y8992D01*
X29009Y9004D01*
Y9003D01*
X18309D01*
X18309Y9005D01*
Y9005D01*
X18190Y8989D01*
X18080Y8943D01*
X17985Y8870D01*
X17985Y8870D01*
X17856Y8720D01*
X17752Y8551D01*
X17677Y8368D01*
X17630Y8175D01*
X17615Y7978D01*
X17617D01*
Y5390D01*
X17576Y5361D01*
X17042Y5543D01*
X16259Y5847D01*
X15491Y6185D01*
X14738Y6556D01*
X14002Y6960D01*
X13285Y7395D01*
X12587Y7862D01*
X11910Y8358D01*
X11255Y8884D01*
X10624Y9437D01*
X10017Y10017D01*
X9437Y10624D01*
X8884Y11255D01*
X8358Y11910D01*
X7862Y12587D01*
X7395Y13285D01*
X6960Y14002D01*
X6556Y14738D01*
X6185Y15491D01*
X5847Y16259D01*
X5543Y17042D01*
X5273Y17837D01*
X5038Y18642D01*
X4838Y19458D01*
X4675Y20281D01*
X4547Y21111D01*
X4456Y21945D01*
X4401Y22783D01*
X4382Y23622D01*
X4401Y24461D01*
X4456Y25299D01*
X4547Y26133D01*
X4675Y26963D01*
X4838Y27786D01*
X5038Y28602D01*
X5273Y29408D01*
X5543Y30202D01*
X5847Y30985D01*
X6185Y31753D01*
X6556Y32506D01*
X6960Y33242D01*
X7395Y33960D01*
X7862Y34658D01*
X8358Y35334D01*
X8884Y35989D01*
X9437Y36620D01*
X10017Y37227D01*
X10624Y37807D01*
X11255Y38361D01*
X11910Y38886D01*
X12587Y39382D01*
X13285Y39849D01*
X14002Y40284D01*
X14738Y40688D01*
X15491Y41059D01*
X16259Y41397D01*
X17042Y41701D01*
X17837Y41971D01*
X18642Y42206D01*
X19458Y42406D01*
X20281Y42569D01*
X21111Y42697D01*
X21945Y42789D01*
X22783Y42843D01*
X23622Y42862D01*
X24461Y42843D01*
D02*
G37*
%LPC*%
G36*
X12024Y22533D02*
X11931Y22520D01*
X11844Y22484D01*
X11769Y22427D01*
X11712Y22353D01*
X11676Y22266D01*
X11664Y22173D01*
X11676Y22080D01*
X11712Y21994D01*
X11769Y21919D01*
X11844Y21862D01*
X11931Y21826D01*
X12024Y21814D01*
X12117Y21826D01*
X12203Y21862D01*
X12278Y21919D01*
X12335Y21994D01*
X12371Y22080D01*
X12383Y22173D01*
X12371Y22266D01*
X12335Y22353D01*
X12278Y22427D01*
X12203Y22484D01*
X12117Y22520D01*
X12024Y22533D01*
D02*
G37*
G36*
X11024D02*
X10931Y22520D01*
X10844Y22484D01*
X10769Y22427D01*
X10712Y22353D01*
X10676Y22266D01*
X10664Y22173D01*
X10676Y22080D01*
X10712Y21994D01*
X10769Y21919D01*
X10844Y21862D01*
X10931Y21826D01*
X11024Y21814D01*
X11117Y21826D01*
X11203Y21862D01*
X11278Y21919D01*
X11335Y21994D01*
X11371Y22080D01*
X11383Y22173D01*
X11371Y22266D01*
X11335Y22353D01*
X11278Y22427D01*
X11203Y22484D01*
X11117Y22520D01*
X11024Y22533D01*
D02*
G37*
G36*
X9488Y22512D02*
X9372Y22496D01*
X9264Y22452D01*
X9171Y22380D01*
X9100Y22287D01*
X9055Y22179D01*
X9039Y22063D01*
X9055Y21947D01*
X9100Y21839D01*
X9171Y21746D01*
X9264Y21674D01*
X9372Y21630D01*
X9488Y21614D01*
X9604Y21630D01*
X9713Y21674D01*
X9805Y21746D01*
X9877Y21839D01*
X9922Y21947D01*
X9937Y22063D01*
X9922Y22179D01*
X9877Y22287D01*
X9805Y22380D01*
X9713Y22452D01*
X9604Y22496D01*
X9488Y22512D01*
D02*
G37*
G36*
X12024Y17533D02*
X11931Y17520D01*
X11844Y17484D01*
X11769Y17427D01*
X11712Y17353D01*
X11676Y17266D01*
X11664Y17173D01*
X11676Y17080D01*
X11712Y16994D01*
X11769Y16919D01*
X11844Y16862D01*
X11931Y16826D01*
X12024Y16814D01*
X12117Y16826D01*
X12203Y16862D01*
X12278Y16919D01*
X12335Y16994D01*
X12371Y17080D01*
X12383Y17173D01*
X12371Y17266D01*
X12335Y17353D01*
X12278Y17427D01*
X12203Y17484D01*
X12117Y17520D01*
X12024Y17533D01*
D02*
G37*
G36*
X11024D02*
X10931Y17520D01*
X10844Y17484D01*
X10769Y17427D01*
X10712Y17353D01*
X10676Y17266D01*
X10664Y17173D01*
X10676Y17080D01*
X10712Y16994D01*
X10769Y16919D01*
X10844Y16862D01*
X10931Y16826D01*
X11024Y16814D01*
X11117Y16826D01*
X11203Y16862D01*
X11278Y16919D01*
X11335Y16994D01*
X11371Y17080D01*
X11383Y17173D01*
X11371Y17266D01*
X11335Y17353D01*
X11278Y17427D01*
X11203Y17484D01*
X11117Y17520D01*
X11024Y17533D01*
D02*
G37*
G36*
X36433Y22533D02*
X36340Y22520D01*
X36253Y22484D01*
X36179Y22427D01*
X36122Y22353D01*
X36086Y22266D01*
X36074Y22173D01*
X36086Y22080D01*
X36122Y21994D01*
X36179Y21919D01*
X36253Y21862D01*
X36340Y21826D01*
X36433Y21814D01*
X36526Y21826D01*
X36613Y21862D01*
X36687Y21919D01*
X36744Y21994D01*
X36780Y22080D01*
X36792Y22173D01*
X36780Y22266D01*
X36744Y22353D01*
X36687Y22427D01*
X36613Y22484D01*
X36526Y22520D01*
X36433Y22533D01*
D02*
G37*
G36*
X34123Y23481D02*
X33121D01*
Y22778D01*
X34123D01*
Y23481D01*
D02*
G37*
G36*
X20787Y15920D02*
X20662Y15908D01*
X20541Y15871D01*
X20429Y15812D01*
X20331Y15732D01*
X20251Y15634D01*
X20192Y15522D01*
X20155Y15401D01*
X20143Y15276D01*
X20155Y15150D01*
X20192Y15029D01*
X20251Y14917D01*
X20331Y14820D01*
X20429Y14739D01*
X20541Y14680D01*
X20662Y14643D01*
X20787Y14631D01*
X20913Y14643D01*
X21034Y14680D01*
X21146Y14739D01*
X21243Y14820D01*
X21324Y14917D01*
X21383Y15029D01*
X21420Y15150D01*
X21432Y15276D01*
X21420Y15401D01*
X21383Y15522D01*
X21324Y15634D01*
X21243Y15732D01*
X21146Y15812D01*
X21034Y15871D01*
X20913Y15908D01*
X20787Y15920D01*
D02*
G37*
G36*
X12024Y23533D02*
X11931Y23520D01*
X11844Y23484D01*
X11769Y23427D01*
X11712Y23353D01*
X11676Y23266D01*
X11664Y23173D01*
X11676Y23080D01*
X11712Y22994D01*
X11769Y22919D01*
X11844Y22862D01*
X11931Y22826D01*
X12024Y22814D01*
X12117Y22826D01*
X12203Y22862D01*
X12278Y22919D01*
X12335Y22994D01*
X12371Y23080D01*
X12383Y23173D01*
X12371Y23266D01*
X12335Y23353D01*
X12278Y23427D01*
X12203Y23484D01*
X12117Y23520D01*
X12024Y23533D01*
D02*
G37*
G36*
X11024D02*
X10931Y23520D01*
X10844Y23484D01*
X10769Y23427D01*
X10712Y23353D01*
X10676Y23266D01*
X10664Y23173D01*
X10676Y23080D01*
X10712Y22994D01*
X10769Y22919D01*
X10844Y22862D01*
X10931Y22826D01*
X11024Y22814D01*
X11117Y22826D01*
X11203Y22862D01*
X11278Y22919D01*
X11335Y22994D01*
X11371Y23080D01*
X11383Y23173D01*
X11371Y23266D01*
X11335Y23353D01*
X11278Y23427D01*
X11203Y23484D01*
X11117Y23520D01*
X11024Y23533D01*
D02*
G37*
G36*
X39871Y23087D02*
X38869D01*
Y22385D01*
X39871D01*
Y23087D01*
D02*
G37*
G36*
X12024Y15533D02*
X11931Y15520D01*
X11844Y15484D01*
X11769Y15427D01*
X11712Y15353D01*
X11676Y15266D01*
X11664Y15173D01*
X11676Y15080D01*
X11712Y14994D01*
X11769Y14919D01*
X11844Y14862D01*
X11931Y14826D01*
X12024Y14814D01*
X12117Y14826D01*
X12203Y14862D01*
X12278Y14919D01*
X12335Y14994D01*
X12371Y15080D01*
X12383Y15173D01*
X12371Y15266D01*
X12335Y15353D01*
X12278Y15427D01*
X12203Y15484D01*
X12117Y15520D01*
X12024Y15533D01*
D02*
G37*
G36*
X11024D02*
X10931Y15520D01*
X10844Y15484D01*
X10769Y15427D01*
X10712Y15353D01*
X10676Y15266D01*
X10664Y15173D01*
X10676Y15080D01*
X10712Y14994D01*
X10769Y14919D01*
X10844Y14862D01*
X10931Y14826D01*
X11024Y14814D01*
X11117Y14826D01*
X11203Y14862D01*
X11278Y14919D01*
X11335Y14994D01*
X11371Y15080D01*
X11383Y15173D01*
X11371Y15266D01*
X11335Y15353D01*
X11278Y15427D01*
X11203Y15484D01*
X11117Y15520D01*
X11024Y15533D01*
D02*
G37*
G36*
X8336Y23126D02*
X7333D01*
Y22424D01*
X8336D01*
Y23126D01*
D02*
G37*
G36*
X12024Y18533D02*
X11931Y18520D01*
X11844Y18484D01*
X11769Y18427D01*
X11712Y18353D01*
X11676Y18266D01*
X11664Y18173D01*
X11676Y18080D01*
X11712Y17994D01*
X11769Y17919D01*
X11844Y17862D01*
X11931Y17826D01*
X12024Y17814D01*
X12117Y17826D01*
X12203Y17862D01*
X12278Y17919D01*
X12335Y17994D01*
X12371Y18080D01*
X12383Y18173D01*
X12371Y18266D01*
X12335Y18353D01*
X12278Y18427D01*
X12203Y18484D01*
X12117Y18520D01*
X12024Y18533D01*
D02*
G37*
G36*
X11024Y16533D02*
X10931Y16520D01*
X10844Y16484D01*
X10769Y16427D01*
X10712Y16353D01*
X10676Y16266D01*
X10664Y16173D01*
X10676Y16080D01*
X10712Y15994D01*
X10769Y15919D01*
X10844Y15862D01*
X10931Y15826D01*
X11024Y15814D01*
X11117Y15826D01*
X11203Y15862D01*
X11278Y15919D01*
X11335Y15994D01*
X11371Y16080D01*
X11383Y16173D01*
X11371Y16266D01*
X11335Y16353D01*
X11278Y16427D01*
X11203Y16484D01*
X11117Y16520D01*
X11024Y16533D01*
D02*
G37*
G36*
X12024Y19533D02*
X11931Y19520D01*
X11844Y19484D01*
X11769Y19427D01*
X11712Y19353D01*
X11676Y19266D01*
X11664Y19173D01*
X11676Y19080D01*
X11712Y18994D01*
X11769Y18919D01*
X11844Y18862D01*
X11931Y18826D01*
X12024Y18814D01*
X12117Y18826D01*
X12203Y18862D01*
X12278Y18919D01*
X12335Y18994D01*
X12371Y19080D01*
X12383Y19173D01*
X12371Y19266D01*
X12335Y19353D01*
X12278Y19427D01*
X12203Y19484D01*
X12117Y19520D01*
X12024Y19533D01*
D02*
G37*
G36*
X11024D02*
X10931Y19520D01*
X10844Y19484D01*
X10769Y19427D01*
X10712Y19353D01*
X10676Y19266D01*
X10664Y19173D01*
X10676Y19080D01*
X10712Y18994D01*
X10769Y18919D01*
X10844Y18862D01*
X10931Y18826D01*
X11024Y18814D01*
X11117Y18826D01*
X11203Y18862D01*
X11278Y18919D01*
X11335Y18994D01*
X11371Y19080D01*
X11383Y19173D01*
X11371Y19266D01*
X11335Y19353D01*
X11278Y19427D01*
X11203Y19484D01*
X11117Y19520D01*
X11024Y19533D01*
D02*
G37*
G36*
X9449Y19055D02*
X9333Y19040D01*
X9224Y18995D01*
X9132Y18924D01*
X9060Y18831D01*
X9015Y18722D01*
X9000Y18606D01*
X9015Y18490D01*
X9060Y18382D01*
X9132Y18289D01*
X9224Y18218D01*
X9333Y18173D01*
X9449Y18158D01*
X9565Y18173D01*
X9673Y18218D01*
X9766Y18289D01*
X9837Y18382D01*
X9882Y18490D01*
X9898Y18606D01*
X9882Y18722D01*
X9837Y18831D01*
X9766Y18924D01*
X9673Y18995D01*
X9565Y19040D01*
X9449Y19055D01*
D02*
G37*
G36*
X36433Y16533D02*
X36340Y16520D01*
X36253Y16484D01*
X36179Y16427D01*
X36122Y16353D01*
X36086Y16266D01*
X36074Y16173D01*
X36086Y16080D01*
X36122Y15994D01*
X36179Y15919D01*
X36253Y15862D01*
X36340Y15826D01*
X36433Y15814D01*
X36526Y15826D01*
X36613Y15862D01*
X36687Y15919D01*
X36744Y15994D01*
X36780Y16080D01*
X36792Y16173D01*
X36780Y16266D01*
X36744Y16353D01*
X36687Y16427D01*
X36613Y16484D01*
X36526Y16520D01*
X36433Y16533D01*
D02*
G37*
G36*
X12024D02*
X11931Y16520D01*
X11844Y16484D01*
X11769Y16427D01*
X11712Y16353D01*
X11676Y16266D01*
X11664Y16173D01*
X11676Y16080D01*
X11712Y15994D01*
X11769Y15919D01*
X11844Y15862D01*
X11931Y15826D01*
X12024Y15814D01*
X12117Y15826D01*
X12203Y15862D01*
X12278Y15919D01*
X12335Y15994D01*
X12371Y16080D01*
X12383Y16173D01*
X12371Y16266D01*
X12335Y16353D01*
X12278Y16427D01*
X12203Y16484D01*
X12117Y16520D01*
X12024Y16533D01*
D02*
G37*
G36*
X22176Y19632D02*
X21467D01*
X21393Y19617D01*
X21331Y19576D01*
X21289Y19513D01*
X21274Y19439D01*
X21289Y19366D01*
X21331Y19303D01*
X21393Y19261D01*
X21467Y19247D01*
X21718D01*
Y18842D01*
X21118Y18242D01*
X21096Y18209D01*
X21088Y18169D01*
X21088Y18167D01*
X21077Y18110D01*
X21092Y18033D01*
X21136Y17967D01*
X21202Y17923D01*
X21280Y17908D01*
X21357Y17923D01*
X21423Y17967D01*
X21467Y18033D01*
X21482Y18110D01*
X21467Y18188D01*
X21423Y18254D01*
X21423Y18255D01*
X21894Y18727D01*
X21917Y18760D01*
X21925Y18800D01*
Y19247D01*
X22176D01*
X22249Y19261D01*
X22312Y19303D01*
X22354Y19366D01*
X22368Y19439D01*
X22354Y19513D01*
X22312Y19576D01*
X22249Y19617D01*
X22176Y19632D01*
D02*
G37*
G36*
X11024Y20533D02*
X10931Y20520D01*
X10844Y20484D01*
X10769Y20427D01*
X10712Y20353D01*
X10676Y20266D01*
X10664Y20173D01*
X10676Y20080D01*
X10712Y19994D01*
X10769Y19919D01*
X10844Y19862D01*
X10931Y19826D01*
X11024Y19814D01*
X11117Y19826D01*
X11203Y19862D01*
X11278Y19919D01*
X11335Y19994D01*
X11371Y20080D01*
X11383Y20173D01*
X11371Y20266D01*
X11335Y20353D01*
X11278Y20427D01*
X11203Y20484D01*
X11117Y20520D01*
X11024Y20533D01*
D02*
G37*
G36*
Y21533D02*
X10931Y21520D01*
X10844Y21484D01*
X10769Y21427D01*
X10712Y21353D01*
X10676Y21266D01*
X10664Y21173D01*
X10676Y21080D01*
X10712Y20994D01*
X10769Y20919D01*
X10844Y20862D01*
X10931Y20826D01*
X11024Y20814D01*
X11117Y20826D01*
X11203Y20862D01*
X11278Y20919D01*
X11335Y20994D01*
X11371Y21080D01*
X11383Y21173D01*
X11371Y21266D01*
X11335Y21353D01*
X11278Y21427D01*
X11203Y21484D01*
X11117Y21520D01*
X11024Y21533D01*
D02*
G37*
G36*
X34123Y21355D02*
X33121D01*
Y20652D01*
X34123D01*
Y21355D01*
D02*
G37*
G36*
X24370Y22141D02*
X24244Y22129D01*
X24123Y22092D01*
X24012Y22032D01*
X23914Y21952D01*
X23834Y21854D01*
X23774Y21743D01*
X23738Y21622D01*
X23725Y21496D01*
X23738Y21370D01*
X23774Y21249D01*
X23834Y21138D01*
X23914Y21040D01*
X24012Y20960D01*
X24123Y20900D01*
X24244Y20864D01*
X24370Y20851D01*
X24496Y20864D01*
X24617Y20900D01*
X24728Y20960D01*
X24826Y21040D01*
X24906Y21138D01*
X24966Y21249D01*
X25003Y21370D01*
X25015Y21496D01*
X25003Y21622D01*
X24966Y21743D01*
X24906Y21854D01*
X24826Y21952D01*
X24728Y22032D01*
X24617Y22092D01*
X24496Y22129D01*
X24370Y22141D01*
D02*
G37*
G36*
X12024Y21533D02*
X11931Y21520D01*
X11844Y21484D01*
X11769Y21427D01*
X11712Y21353D01*
X11676Y21266D01*
X11664Y21173D01*
X11676Y21080D01*
X11712Y20994D01*
X11769Y20919D01*
X11844Y20862D01*
X11931Y20826D01*
X12024Y20814D01*
X12117Y20826D01*
X12203Y20862D01*
X12278Y20919D01*
X12335Y20994D01*
X12371Y21080D01*
X12383Y21173D01*
X12371Y21266D01*
X12335Y21353D01*
X12278Y21427D01*
X12203Y21484D01*
X12117Y21520D01*
X12024Y21533D01*
D02*
G37*
G36*
X11024Y18533D02*
X10931Y18520D01*
X10844Y18484D01*
X10769Y18427D01*
X10712Y18353D01*
X10676Y18266D01*
X10664Y18173D01*
X10676Y18080D01*
X10712Y17994D01*
X10769Y17919D01*
X10844Y17862D01*
X10931Y17826D01*
X11024Y17814D01*
X11117Y17826D01*
X11203Y17862D01*
X11278Y17919D01*
X11335Y17994D01*
X11371Y18080D01*
X11383Y18173D01*
X11371Y18266D01*
X11335Y18353D01*
X11278Y18427D01*
X11203Y18484D01*
X11117Y18520D01*
X11024Y18533D01*
D02*
G37*
G36*
X12024Y20533D02*
X11931Y20520D01*
X11844Y20484D01*
X11769Y20427D01*
X11712Y20353D01*
X11676Y20266D01*
X11664Y20173D01*
X11676Y20080D01*
X11712Y19994D01*
X11769Y19919D01*
X11844Y19862D01*
X11931Y19826D01*
X12024Y19814D01*
X12117Y19826D01*
X12203Y19862D01*
X12278Y19919D01*
X12335Y19994D01*
X12371Y20080D01*
X12383Y20173D01*
X12371Y20266D01*
X12335Y20353D01*
X12278Y20427D01*
X12203Y20484D01*
X12117Y20520D01*
X12024Y20533D01*
D02*
G37*
G36*
X9933Y21508D02*
X9043D01*
Y20618D01*
X9933D01*
Y21508D01*
D02*
G37*
G36*
X26339Y17784D02*
X26260Y17774D01*
X26187Y17743D01*
X26124Y17695D01*
X26075Y17632D01*
X26055Y17583D01*
X25858D01*
X25802Y17621D01*
X25728Y17636D01*
X25020D01*
X24946Y17621D01*
X24883Y17579D01*
X24842Y17517D01*
X24827Y17443D01*
X24842Y17369D01*
X24883Y17307D01*
X24946Y17265D01*
X25020Y17250D01*
X25728D01*
X25802Y17265D01*
X25865Y17307D01*
X25906Y17369D01*
X25908Y17377D01*
X26055D01*
X26075Y17328D01*
X26124Y17266D01*
X26187Y17217D01*
X26260Y17187D01*
X26339Y17177D01*
X26417Y17187D01*
X26490Y17217D01*
X26553Y17266D01*
X26602Y17328D01*
X26632Y17402D01*
X26642Y17480D01*
X26632Y17559D01*
X26602Y17632D01*
X26553Y17695D01*
X26490Y17743D01*
X26417Y17774D01*
X26339Y17784D01*
D02*
G37*
G36*
X11024Y30533D02*
X10931Y30520D01*
X10844Y30484D01*
X10769Y30427D01*
X10712Y30353D01*
X10676Y30266D01*
X10664Y30173D01*
X10676Y30080D01*
X10712Y29994D01*
X10769Y29919D01*
X10844Y29862D01*
X10931Y29826D01*
X11024Y29814D01*
X11117Y29826D01*
X11203Y29862D01*
X11278Y29919D01*
X11335Y29994D01*
X11371Y30080D01*
X11383Y30173D01*
X11371Y30266D01*
X11335Y30353D01*
X11278Y30427D01*
X11203Y30484D01*
X11117Y30520D01*
X11024Y30533D01*
D02*
G37*
G36*
X36433Y29533D02*
X36340Y29520D01*
X36253Y29484D01*
X36179Y29427D01*
X36122Y29353D01*
X36086Y29266D01*
X36074Y29173D01*
X36086Y29080D01*
X36122Y28994D01*
X36179Y28919D01*
X36253Y28862D01*
X36340Y28826D01*
X36433Y28814D01*
X36526Y28826D01*
X36613Y28862D01*
X36687Y28919D01*
X36744Y28994D01*
X36780Y29080D01*
X36792Y29173D01*
X36780Y29266D01*
X36744Y29353D01*
X36687Y29427D01*
X36613Y29484D01*
X36526Y29520D01*
X36433Y29533D01*
D02*
G37*
G36*
X12024Y30533D02*
X11931Y30520D01*
X11844Y30484D01*
X11769Y30427D01*
X11712Y30353D01*
X11676Y30266D01*
X11664Y30173D01*
X11676Y30080D01*
X11712Y29994D01*
X11769Y29919D01*
X11844Y29862D01*
X11931Y29826D01*
X12024Y29814D01*
X12117Y29826D01*
X12203Y29862D01*
X12278Y29919D01*
X12335Y29994D01*
X12371Y30080D01*
X12383Y30173D01*
X12371Y30266D01*
X12335Y30353D01*
X12278Y30427D01*
X12203Y30484D01*
X12117Y30520D01*
X12024Y30533D01*
D02*
G37*
G36*
X36433Y31533D02*
X36340Y31520D01*
X36253Y31484D01*
X36179Y31427D01*
X36122Y31353D01*
X36086Y31266D01*
X36074Y31173D01*
X36086Y31080D01*
X36122Y30994D01*
X36179Y30919D01*
X36253Y30862D01*
X36340Y30826D01*
X36433Y30814D01*
X36526Y30826D01*
X36613Y30862D01*
X36687Y30919D01*
X36744Y30994D01*
X36780Y31080D01*
X36792Y31173D01*
X36780Y31266D01*
X36744Y31353D01*
X36687Y31427D01*
X36613Y31484D01*
X36526Y31520D01*
X36433Y31533D01*
D02*
G37*
G36*
Y30533D02*
X36340Y30520D01*
X36253Y30484D01*
X36179Y30427D01*
X36122Y30353D01*
X36086Y30266D01*
X36074Y30173D01*
X36086Y30080D01*
X36122Y29994D01*
X36179Y29919D01*
X36253Y29862D01*
X36340Y29826D01*
X36433Y29814D01*
X36526Y29826D01*
X36613Y29862D01*
X36687Y29919D01*
X36744Y29994D01*
X36780Y30080D01*
X36792Y30173D01*
X36780Y30266D01*
X36744Y30353D01*
X36687Y30427D01*
X36613Y30484D01*
X36526Y30520D01*
X36433Y30533D01*
D02*
G37*
G36*
X39871Y29465D02*
X38869D01*
Y28763D01*
X39871D01*
Y29465D01*
D02*
G37*
G36*
X28671Y10557D02*
X28594Y10542D01*
X28528Y10498D01*
X28494Y10447D01*
X27815D01*
X27781Y10498D01*
X27715Y10542D01*
X27638Y10557D01*
X27560Y10542D01*
X27494Y10498D01*
X27451Y10432D01*
X27435Y10354D01*
X27451Y10277D01*
X27494Y10211D01*
X27560Y10167D01*
X27638Y10152D01*
X27715Y10167D01*
X27781Y10211D01*
X27815Y10262D01*
X28494D01*
X28528Y10211D01*
X28594Y10167D01*
X28671Y10152D01*
X28749Y10167D01*
X28815Y10211D01*
X28859Y10277D01*
X28874Y10354D01*
X28859Y10432D01*
X28815Y10498D01*
X28749Y10542D01*
X28671Y10557D01*
D02*
G37*
G36*
X8336Y29504D02*
X7333D01*
Y28802D01*
X8336D01*
Y29504D01*
D02*
G37*
G36*
X12024Y29533D02*
X11931Y29520D01*
X11844Y29484D01*
X11769Y29427D01*
X11712Y29353D01*
X11676Y29266D01*
X11664Y29173D01*
X11676Y29080D01*
X11712Y28994D01*
X11769Y28919D01*
X11844Y28862D01*
X11931Y28826D01*
X12024Y28814D01*
X12117Y28826D01*
X12203Y28862D01*
X12278Y28919D01*
X12335Y28994D01*
X12371Y29080D01*
X12383Y29173D01*
X12371Y29266D01*
X12335Y29353D01*
X12278Y29427D01*
X12203Y29484D01*
X12117Y29520D01*
X12024Y29533D01*
D02*
G37*
G36*
X11024D02*
X10931Y29520D01*
X10844Y29484D01*
X10769Y29427D01*
X10712Y29353D01*
X10676Y29266D01*
X10664Y29173D01*
X10676Y29080D01*
X10712Y28994D01*
X10769Y28919D01*
X10844Y28862D01*
X10931Y28826D01*
X11024Y28814D01*
X11117Y28826D01*
X11203Y28862D01*
X11278Y28919D01*
X11335Y28994D01*
X11371Y29080D01*
X11383Y29173D01*
X11371Y29266D01*
X11335Y29353D01*
X11278Y29427D01*
X11203Y29484D01*
X11117Y29520D01*
X11024Y29533D01*
D02*
G37*
G36*
X35433Y32533D02*
X35340Y32520D01*
X35253Y32484D01*
X35179Y32427D01*
X35122Y32353D01*
X35086Y32266D01*
X35074Y32173D01*
X35086Y32080D01*
X35122Y31994D01*
X35179Y31919D01*
X35253Y31862D01*
X35340Y31826D01*
X35433Y31814D01*
X35526Y31826D01*
X35613Y31862D01*
X35687Y31919D01*
X35744Y31994D01*
X35780Y32080D01*
X35792Y32173D01*
X35780Y32266D01*
X35744Y32353D01*
X35687Y32427D01*
X35613Y32484D01*
X35526Y32520D01*
X35433Y32533D01*
D02*
G37*
G36*
X17087Y10339D02*
X17019Y10330D01*
X16957Y10304D01*
X16903Y10263D01*
X16861Y10209D01*
X16835Y10146D01*
X16827Y10079D01*
X16835Y10011D01*
X16861Y9949D01*
X16903Y9895D01*
X16957Y9853D01*
X17019Y9827D01*
X17087Y9819D01*
X17154Y9827D01*
X17217Y9853D01*
X17271Y9895D01*
X17312Y9949D01*
X17338Y10011D01*
X17347Y10079D01*
X17338Y10146D01*
X17312Y10209D01*
X17271Y10263D01*
X17217Y10304D01*
X17154Y10330D01*
X17087Y10339D01*
D02*
G37*
G36*
X26978Y35754D02*
X26901Y35738D01*
X26835Y35695D01*
X26791Y35629D01*
X26776Y35551D01*
X26791Y35474D01*
X26835Y35408D01*
X26875Y35381D01*
Y35075D01*
X26825Y35049D01*
X26780Y35079D01*
X26703Y35094D01*
X26625Y35079D01*
X26559Y35035D01*
X26515Y34969D01*
X26500Y34892D01*
X26509Y34844D01*
X22675Y31010D01*
X22628Y31020D01*
X22550Y31004D01*
X22485Y30960D01*
X22441Y30894D01*
X22425Y30817D01*
X22441Y30739D01*
X22485Y30674D01*
X22550Y30630D01*
X22628Y30614D01*
X22706Y30630D01*
X22771Y30674D01*
X22815Y30739D01*
X22831Y30817D01*
X22821Y30864D01*
X26655Y34698D01*
X26703Y34689D01*
X26708Y34690D01*
X26732Y34644D01*
X25518Y33429D01*
X25495Y33396D01*
X25487Y33356D01*
Y27356D01*
X23500Y25368D01*
X23478Y25335D01*
X23470Y25295D01*
Y24142D01*
X23478Y24103D01*
X23500Y24069D01*
X24237Y23332D01*
Y23040D01*
X24659D01*
Y23113D01*
X24900D01*
X24922Y23080D01*
X24985Y23039D01*
X25059Y23024D01*
X25767D01*
X25841Y23039D01*
X25903Y23080D01*
X25945Y23143D01*
X25960Y23217D01*
X25945Y23290D01*
X25903Y23353D01*
X25841Y23395D01*
X25767Y23409D01*
X25059D01*
X24985Y23395D01*
X24922Y23353D01*
X24900Y23320D01*
X24659D01*
Y23493D01*
X24368D01*
X23676Y24185D01*
Y25253D01*
X25263Y26840D01*
X25310Y26821D01*
Y23909D01*
X25059D01*
X24985Y23895D01*
X24922Y23853D01*
X24880Y23790D01*
X24866Y23717D01*
X24880Y23643D01*
X24922Y23580D01*
X24985Y23539D01*
X25059Y23524D01*
X25767D01*
X25841Y23539D01*
X25903Y23580D01*
X25945Y23643D01*
X25960Y23717D01*
X25945Y23790D01*
X25903Y23853D01*
X25841Y23895D01*
X25767Y23909D01*
X25516D01*
Y26879D01*
X25815Y27177D01*
X25837Y27211D01*
X25845Y27250D01*
Y28563D01*
X27118Y29836D01*
X27165Y29827D01*
X27243Y29842D01*
X27309Y29886D01*
X27353Y29952D01*
X27368Y30030D01*
X27353Y30107D01*
X27309Y30173D01*
X27243Y30217D01*
X27165Y30232D01*
X27088Y30217D01*
X27022Y30173D01*
X26978Y30107D01*
X26963Y30030D01*
X26972Y29982D01*
X25740Y28750D01*
X25694Y28769D01*
Y33314D01*
X27051Y34671D01*
X27074Y34705D01*
X27082Y34744D01*
Y35381D01*
X27122Y35408D01*
X27166Y35474D01*
X27181Y35551D01*
X27166Y35629D01*
X27122Y35695D01*
X27056Y35738D01*
X26978Y35754D01*
D02*
G37*
G36*
X12402Y37745D02*
X12323Y37734D01*
X12250Y37704D01*
X12187Y37656D01*
X12139Y37593D01*
X12108Y37520D01*
X12098Y37441D01*
X12104Y37397D01*
X12063Y37347D01*
X10984D01*
X10945Y37339D01*
X10911Y37317D01*
X7762Y34167D01*
X7739Y34134D01*
X7731Y34094D01*
Y32681D01*
X7053Y32002D01*
X7031Y31969D01*
X7023Y31929D01*
Y31106D01*
X6620Y30703D01*
X6607Y30684D01*
X6598Y30669D01*
Y30669D01*
X6598Y30669D01*
X6594Y30650D01*
X6590Y30630D01*
Y24917D01*
X6598Y24878D01*
X6620Y24844D01*
X7434Y24030D01*
X7434Y24026D01*
X7378Y23952D01*
X7343Y23867D01*
X7330Y23775D01*
X7343Y23684D01*
X7378Y23598D01*
X7434Y23525D01*
X7508Y23469D01*
X7593Y23433D01*
X7685Y23421D01*
X7985D01*
X8076Y23433D01*
X8162Y23469D01*
X8235Y23525D01*
X8291Y23598D01*
X8327Y23684D01*
X8339Y23775D01*
X8327Y23867D01*
X8291Y23952D01*
X8235Y24026D01*
X8162Y24082D01*
X8076Y24117D01*
X7985Y24129D01*
X7685D01*
X7633Y24123D01*
X6796Y24960D01*
Y26734D01*
X6843Y26750D01*
X6846Y26749D01*
X6856Y26734D01*
X7434Y26156D01*
X7434Y26152D01*
X7378Y26078D01*
X7343Y25993D01*
X7330Y25901D01*
X7343Y25810D01*
X7378Y25724D01*
X7434Y25651D01*
X7508Y25594D01*
X7593Y25559D01*
X7685Y25547D01*
X7985D01*
X8076Y25559D01*
X8162Y25594D01*
X8235Y25651D01*
X8291Y25724D01*
X8327Y25810D01*
X8339Y25901D01*
X8327Y25993D01*
X8291Y26078D01*
X8235Y26152D01*
X8162Y26208D01*
X8076Y26243D01*
X7985Y26255D01*
X7685D01*
X7633Y26249D01*
X7032Y26850D01*
Y28624D01*
X7079Y28639D01*
X7082Y28639D01*
X7092Y28624D01*
X7434Y28282D01*
X7434Y28278D01*
X7378Y28204D01*
X7343Y28119D01*
X7330Y28027D01*
X7343Y27936D01*
X7378Y27850D01*
X7434Y27777D01*
X7508Y27720D01*
X7593Y27685D01*
X7685Y27673D01*
X7985D01*
X8076Y27685D01*
X8162Y27720D01*
X8235Y27777D01*
X8291Y27850D01*
X8327Y27936D01*
X8339Y28027D01*
X8327Y28119D01*
X8291Y28204D01*
X8235Y28278D01*
X8162Y28334D01*
X8076Y28369D01*
X7985Y28381D01*
X7685D01*
X7633Y28375D01*
X7269Y28739D01*
Y30390D01*
X7671Y30793D01*
X7681Y30808D01*
X7731Y30793D01*
Y30507D01*
X7685D01*
X7593Y30495D01*
X7508Y30460D01*
X7434Y30404D01*
X7378Y30330D01*
X7343Y30245D01*
X7330Y30153D01*
X7343Y30062D01*
X7378Y29976D01*
X7434Y29903D01*
X7508Y29846D01*
X7593Y29811D01*
X7685Y29799D01*
X7985D01*
X8076Y29811D01*
X8162Y29846D01*
X8235Y29903D01*
X8291Y29976D01*
X8327Y30062D01*
X8339Y30153D01*
X8327Y30245D01*
X8291Y30330D01*
X8235Y30404D01*
X8162Y30460D01*
X8076Y30495D01*
X7985Y30507D01*
X7938D01*
Y31571D01*
X8616Y32250D01*
X8639Y32283D01*
X8646Y32323D01*
Y33697D01*
X11303Y36354D01*
X12201D01*
X12758Y35797D01*
X12738Y35748D01*
X12728Y35669D01*
X12738Y35591D01*
X12768Y35517D01*
X12817Y35454D01*
X12880Y35406D01*
X12953Y35376D01*
X13032Y35366D01*
X13110Y35376D01*
X13183Y35406D01*
X13246Y35454D01*
X13295Y35517D01*
X13325Y35591D01*
X13335Y35669D01*
X13325Y35748D01*
X13295Y35821D01*
X13246Y35884D01*
X13183Y35932D01*
X13110Y35963D01*
X13032Y35973D01*
X12953Y35963D01*
X12904Y35943D01*
X12317Y36530D01*
X12317D01*
Y36530D01*
X12306Y36537D01*
X12284Y36552D01*
X12244Y36560D01*
X12244D01*
X12244D01*
X11260D01*
X11220Y36552D01*
X11212Y36546D01*
X11180Y36585D01*
X11224Y36629D01*
X12319D01*
X12683Y36266D01*
X12716Y36243D01*
X12748Y36237D01*
X12768Y36187D01*
X12817Y36124D01*
X12880Y36075D01*
X12953Y36045D01*
X13032Y36035D01*
X13110Y36045D01*
X13183Y36075D01*
X13246Y36124D01*
X13295Y36187D01*
X13325Y36260D01*
X13335Y36339D01*
X13325Y36417D01*
X13295Y36490D01*
X13246Y36553D01*
X13183Y36602D01*
X13110Y36632D01*
X13032Y36642D01*
X12953Y36632D01*
X12880Y36602D01*
X12817Y36553D01*
X12791Y36520D01*
X12727Y36514D01*
X12435Y36805D01*
X12402Y36828D01*
X12362Y36835D01*
X11181D01*
X11142Y36828D01*
X11133Y36822D01*
X11101Y36860D01*
X11145Y36905D01*
X12748D01*
X12768Y36856D01*
X12817Y36793D01*
X12880Y36745D01*
X12953Y36714D01*
X13032Y36704D01*
X13110Y36714D01*
X13183Y36745D01*
X13246Y36793D01*
X13295Y36856D01*
X13325Y36929D01*
X13335Y37008D01*
X13325Y37087D01*
X13295Y37160D01*
X13246Y37223D01*
X13183Y37271D01*
X13110Y37301D01*
X13032Y37312D01*
X12953Y37301D01*
X12880Y37271D01*
X12817Y37223D01*
X12768Y37160D01*
X12748Y37111D01*
X12523D01*
X12513Y37161D01*
X12553Y37178D01*
X12616Y37226D01*
X12665Y37289D01*
X12695Y37362D01*
X12705Y37441D01*
X12695Y37520D01*
X12665Y37593D01*
X12616Y37656D01*
X12553Y37704D01*
X12480Y37734D01*
X12402Y37745D01*
D02*
G37*
G36*
X30157Y40576D02*
X30070Y40564D01*
X29988Y40530D01*
X29917Y40476D01*
X29863Y40406D01*
X29830Y40324D01*
X29818Y40236D01*
X29830Y40148D01*
X29863Y40066D01*
X29917Y39996D01*
X29988Y39942D01*
X30070Y39908D01*
X30157Y39897D01*
X30245Y39908D01*
X30327Y39942D01*
X30398Y39996D01*
X30452Y40066D01*
X30485Y40148D01*
X30497Y40236D01*
X30485Y40324D01*
X30452Y40406D01*
X30398Y40476D01*
X30327Y40530D01*
X30245Y40564D01*
X30157Y40576D01*
D02*
G37*
G36*
X17087D02*
X16999Y40564D01*
X16917Y40530D01*
X16847Y40476D01*
X16793Y40406D01*
X16759Y40324D01*
X16747Y40236D01*
X16759Y40148D01*
X16793Y40066D01*
X16847Y39996D01*
X16917Y39942D01*
X16999Y39908D01*
X17087Y39897D01*
X17174Y39908D01*
X17256Y39942D01*
X17327Y39996D01*
X17381Y40066D01*
X17415Y40148D01*
X17426Y40236D01*
X17415Y40324D01*
X17381Y40406D01*
X17327Y40476D01*
X17256Y40530D01*
X17174Y40564D01*
X17087Y40576D01*
D02*
G37*
G36*
X25197Y32565D02*
X25119Y32549D01*
X25054Y32506D01*
X25010Y32440D01*
X24994Y32362D01*
X25004Y32315D01*
X23788Y31099D01*
X23740Y31108D01*
X23663Y31093D01*
X23597Y31049D01*
X23553Y30983D01*
X23537Y30906D01*
X23553Y30828D01*
X23597Y30762D01*
X23663Y30718D01*
X23740Y30703D01*
X23818Y30718D01*
X23884Y30762D01*
X23927Y30828D01*
X23943Y30906D01*
X23933Y30953D01*
X25149Y32169D01*
X25197Y32159D01*
X25274Y32175D01*
X25340Y32219D01*
X25384Y32285D01*
X25400Y32362D01*
X25384Y32440D01*
X25340Y32506D01*
X25274Y32549D01*
X25197Y32565D01*
D02*
G37*
G36*
X36433Y32533D02*
X36340Y32520D01*
X36253Y32484D01*
X36179Y32427D01*
X36122Y32353D01*
X36086Y32266D01*
X36074Y32173D01*
X36086Y32080D01*
X36122Y31994D01*
X36179Y31919D01*
X36253Y31862D01*
X36340Y31826D01*
X36433Y31814D01*
X36526Y31826D01*
X36613Y31862D01*
X36687Y31919D01*
X36744Y31994D01*
X36780Y32080D01*
X36792Y32173D01*
X36780Y32266D01*
X36744Y32353D01*
X36687Y32427D01*
X36613Y32484D01*
X36526Y32520D01*
X36433Y32533D01*
D02*
G37*
G36*
X35433Y33533D02*
X35340Y33520D01*
X35253Y33484D01*
X35179Y33427D01*
X35122Y33353D01*
X35086Y33266D01*
X35074Y33173D01*
X35086Y33080D01*
X35122Y32994D01*
X35179Y32919D01*
X35253Y32862D01*
X35340Y32826D01*
X35433Y32814D01*
X35526Y32826D01*
X35613Y32862D01*
X35687Y32919D01*
X35744Y32994D01*
X35780Y33080D01*
X35792Y33173D01*
X35780Y33266D01*
X35744Y33353D01*
X35687Y33427D01*
X35613Y33484D01*
X35526Y33520D01*
X35433Y33533D01*
D02*
G37*
G36*
X11811Y36276D02*
X11647Y36260D01*
X11489Y36212D01*
X11343Y36134D01*
X11215Y36029D01*
X11110Y35901D01*
X11033Y35756D01*
X10985Y35597D01*
X10968Y35433D01*
X10985Y35269D01*
X11033Y35111D01*
X11110Y34965D01*
X11215Y34837D01*
X11343Y34732D01*
X11489Y34655D01*
X11647Y34607D01*
X11811Y34590D01*
X11975Y34607D01*
X12133Y34655D01*
X12279Y34732D01*
X12407Y34837D01*
X12512Y34965D01*
X12590Y35111D01*
X12637Y35269D01*
X12654Y35433D01*
X12637Y35597D01*
X12590Y35756D01*
X12512Y35901D01*
X12407Y36029D01*
X12279Y36134D01*
X12133Y36212D01*
X11975Y36260D01*
X11811Y36276D01*
D02*
G37*
G36*
X36433Y33533D02*
X36340Y33520D01*
X36253Y33484D01*
X36179Y33427D01*
X36122Y33353D01*
X36086Y33266D01*
X36074Y33173D01*
X36086Y33080D01*
X36122Y32994D01*
X36179Y32919D01*
X36253Y32862D01*
X36340Y32826D01*
X36433Y32814D01*
X36526Y32826D01*
X36613Y32862D01*
X36687Y32919D01*
X36744Y32994D01*
X36780Y33080D01*
X36792Y33173D01*
X36780Y33266D01*
X36744Y33353D01*
X36687Y33427D01*
X36613Y33484D01*
X36526Y33520D01*
X36433Y33533D01*
D02*
G37*
G36*
X39871Y25213D02*
X38869D01*
Y24511D01*
X39871D01*
Y25213D01*
D02*
G37*
G36*
X24449Y25448D02*
X24323Y25436D01*
X24202Y25399D01*
X24091Y25339D01*
X23993Y25259D01*
X23913Y25161D01*
X23853Y25050D01*
X23816Y24929D01*
X23804Y24803D01*
X23816Y24677D01*
X23853Y24556D01*
X23913Y24445D01*
X23993Y24347D01*
X24091Y24267D01*
X24202Y24207D01*
X24323Y24171D01*
X24449Y24158D01*
X24575Y24171D01*
X24696Y24207D01*
X24807Y24267D01*
X24905Y24347D01*
X24985Y24445D01*
X25045Y24556D01*
X25081Y24677D01*
X25094Y24803D01*
X25081Y24929D01*
X25045Y25050D01*
X24985Y25161D01*
X24905Y25259D01*
X24807Y25339D01*
X24696Y25399D01*
X24575Y25436D01*
X24449Y25448D01*
D02*
G37*
G36*
X8336Y25252D02*
X7333D01*
Y24550D01*
X8336D01*
Y25252D01*
D02*
G37*
G36*
X34123Y25607D02*
X33121D01*
Y24904D01*
X34123D01*
Y25607D01*
D02*
G37*
G36*
X36433Y25533D02*
X36340Y25520D01*
X36253Y25484D01*
X36179Y25427D01*
X36122Y25353D01*
X36086Y25266D01*
X36074Y25173D01*
X36086Y25080D01*
X36122Y24994D01*
X36179Y24919D01*
X36253Y24862D01*
X36340Y24826D01*
X36433Y24814D01*
X36526Y24826D01*
X36613Y24862D01*
X36687Y24919D01*
X36744Y24994D01*
X36780Y25080D01*
X36792Y25173D01*
X36780Y25266D01*
X36744Y25353D01*
X36687Y25427D01*
X36613Y25484D01*
X36526Y25520D01*
X36433Y25533D01*
D02*
G37*
G36*
X21654Y25448D02*
X21528Y25436D01*
X21407Y25399D01*
X21295Y25339D01*
X21198Y25259D01*
X21117Y25161D01*
X21058Y25050D01*
X21021Y24929D01*
X21009Y24803D01*
X21021Y24677D01*
X21058Y24556D01*
X21117Y24445D01*
X21198Y24347D01*
X21295Y24267D01*
X21407Y24207D01*
X21528Y24171D01*
X21654Y24158D01*
X21779Y24171D01*
X21900Y24207D01*
X22012Y24267D01*
X22110Y24347D01*
X22190Y24445D01*
X22249Y24556D01*
X22286Y24677D01*
X22298Y24803D01*
X22286Y24929D01*
X22249Y25050D01*
X22190Y25161D01*
X22110Y25259D01*
X22012Y25339D01*
X21900Y25399D01*
X21779Y25436D01*
X21654Y25448D01*
D02*
G37*
G36*
X11380Y14530D02*
X10667D01*
Y13817D01*
X11380D01*
Y14530D01*
D02*
G37*
G36*
X36433Y23533D02*
X36340Y23520D01*
X36253Y23484D01*
X36179Y23427D01*
X36122Y23353D01*
X36086Y23266D01*
X36074Y23173D01*
X36086Y23080D01*
X36122Y22994D01*
X36179Y22919D01*
X36253Y22862D01*
X36340Y22826D01*
X36433Y22814D01*
X36526Y22826D01*
X36613Y22862D01*
X36687Y22919D01*
X36744Y22994D01*
X36780Y23080D01*
X36792Y23173D01*
X36780Y23266D01*
X36744Y23353D01*
X36687Y23427D01*
X36613Y23484D01*
X36526Y23520D01*
X36433Y23533D01*
D02*
G37*
G36*
X12024Y14533D02*
X11931Y14520D01*
X11844Y14484D01*
X11769Y14427D01*
X11712Y14353D01*
X11676Y14266D01*
X11664Y14173D01*
X11676Y14080D01*
X11712Y13994D01*
X11769Y13919D01*
X11844Y13862D01*
X11931Y13826D01*
X12024Y13814D01*
X12117Y13826D01*
X12203Y13862D01*
X12278Y13919D01*
X12335Y13994D01*
X12371Y14080D01*
X12383Y14173D01*
X12371Y14266D01*
X12335Y14353D01*
X12278Y14427D01*
X12203Y14484D01*
X12117Y14520D01*
X12024Y14533D01*
D02*
G37*
G36*
X36433Y24533D02*
X36340Y24520D01*
X36253Y24484D01*
X36179Y24427D01*
X36122Y24353D01*
X36086Y24266D01*
X36074Y24173D01*
X36086Y24080D01*
X36122Y23994D01*
X36179Y23919D01*
X36253Y23862D01*
X36340Y23826D01*
X36433Y23814D01*
X36526Y23826D01*
X36613Y23862D01*
X36687Y23919D01*
X36744Y23994D01*
X36780Y24080D01*
X36792Y24173D01*
X36780Y24266D01*
X36744Y24353D01*
X36687Y24427D01*
X36613Y24484D01*
X36526Y24520D01*
X36433Y24533D01*
D02*
G37*
G36*
X16850Y39631D02*
X14803D01*
X14795Y39629D01*
X14764Y39623D01*
X14730Y39601D01*
X13470Y38341D01*
X13448Y38307D01*
X13440Y38268D01*
Y38268D01*
Y35003D01*
X13155Y34719D01*
X13144Y34702D01*
X13133Y34685D01*
X13133Y34685D01*
X13131Y34675D01*
X13125Y34646D01*
Y29373D01*
X12486Y28734D01*
X12464Y28701D01*
X12456Y28661D01*
Y23031D01*
X12457Y23024D01*
X12464Y22992D01*
X12486Y22959D01*
X13183Y22262D01*
X13182Y22254D01*
X13126Y22181D01*
X13091Y22095D01*
X13078Y22004D01*
X13091Y21912D01*
X13126Y21827D01*
X13182Y21753D01*
X13256Y21697D01*
X13341Y21661D01*
X13433Y21649D01*
X13733D01*
X13824Y21661D01*
X13910Y21697D01*
X13981Y21752D01*
X13999Y21749D01*
X14031Y21738D01*
Y21355D01*
X13082D01*
Y20652D01*
X13480D01*
Y18858D01*
X13487Y18819D01*
X13510Y18785D01*
X14691Y17604D01*
X14711Y17591D01*
X14724Y17582D01*
X14764Y17574D01*
X16256D01*
X16590Y17241D01*
Y14846D01*
X16197Y14454D01*
X15927D01*
Y14467D01*
Y14703D01*
Y14939D01*
Y15175D01*
Y15411D01*
Y15648D01*
Y15884D01*
Y16120D01*
Y16356D01*
Y16593D01*
Y16829D01*
Y17065D01*
Y17305D01*
X15018D01*
Y17065D01*
Y16829D01*
Y16593D01*
Y16356D01*
Y16120D01*
Y15884D01*
Y15648D01*
Y15411D01*
Y15175D01*
Y15070D01*
X14972Y15051D01*
X14911Y15112D01*
X14877Y15135D01*
X14838Y15143D01*
X13346D01*
X13346D01*
X13307Y15135D01*
X13285Y15120D01*
X13274Y15112D01*
Y15112D01*
X13274D01*
X12565Y14404D01*
X12554Y14387D01*
X12542Y14370D01*
Y14370D01*
X12542Y14370D01*
X12537Y14340D01*
X12535Y14331D01*
Y13704D01*
X11965Y13135D01*
X10791D01*
X10497Y13429D01*
Y19724D01*
X10489Y19764D01*
X10467Y19797D01*
X9876Y20388D01*
X9843Y20410D01*
X9803Y20418D01*
X8980D01*
X8607Y20791D01*
Y21063D01*
Y21063D01*
Y21063D01*
X8605Y21076D01*
X8599Y21102D01*
X8588Y21119D01*
X8577Y21136D01*
X8269Y21444D01*
X8283Y21551D01*
X8268Y21667D01*
X8223Y21776D01*
X8152Y21868D01*
X8059Y21940D01*
X7951Y21985D01*
X7835Y22000D01*
X7718Y21985D01*
X7610Y21940D01*
X7517Y21868D01*
X7446Y21776D01*
X7401Y21667D01*
X7386Y21551D01*
X7401Y21435D01*
X7446Y21327D01*
X7517Y21234D01*
X7610Y21163D01*
X7718Y21118D01*
X7835Y21102D01*
X7951Y21118D01*
X8059Y21163D01*
X8152Y21234D01*
X8185Y21236D01*
X8401Y21020D01*
Y20748D01*
X8405Y20728D01*
X8409Y20709D01*
X8409Y20709D01*
Y20709D01*
X8418Y20694D01*
X8431Y20675D01*
X8864Y20242D01*
X8864Y20242D01*
X8864Y20242D01*
X8886Y20227D01*
X8898Y20220D01*
X8898D01*
X8898Y20220D01*
X8937Y20212D01*
X9760D01*
X9871Y20101D01*
X9850Y20051D01*
X9004D01*
Y19161D01*
X9894D01*
Y20008D01*
X9944Y20029D01*
X10291Y19682D01*
Y17603D01*
X10241Y17583D01*
X9955Y17868D01*
X9938Y17879D01*
X9921Y17891D01*
X9921Y17891D01*
X9911Y17893D01*
X9882Y17898D01*
X9058D01*
X8843Y18114D01*
Y19646D01*
X8835Y19685D01*
X8813Y19719D01*
X8280Y20252D01*
Y20996D01*
X7390D01*
Y20106D01*
X8134D01*
X8637Y19603D01*
Y18105D01*
X8587Y18080D01*
X8568Y18095D01*
Y18717D01*
X8560Y18756D01*
X8538Y18789D01*
X8215Y19112D01*
X8223Y19122D01*
X8268Y19230D01*
X8283Y19346D01*
X8268Y19463D01*
X8223Y19571D01*
X8152Y19664D01*
X8059Y19735D01*
X7951Y19780D01*
X7835Y19795D01*
X7718Y19780D01*
X7610Y19735D01*
X7517Y19664D01*
X7446Y19571D01*
X7401Y19463D01*
X7386Y19346D01*
X7401Y19230D01*
X7446Y19122D01*
X7517Y19029D01*
X7610Y18958D01*
X7718Y18913D01*
X7835Y18898D01*
X7951Y18913D01*
X8059Y18958D01*
X8069Y18966D01*
X8198Y18838D01*
X8179Y18791D01*
X7390D01*
Y17902D01*
X8134D01*
X8558Y17477D01*
Y16737D01*
X8508Y16716D01*
X8248Y16977D01*
X8268Y17026D01*
X8283Y17142D01*
X8268Y17258D01*
X8223Y17366D01*
X8152Y17459D01*
X8059Y17530D01*
X7951Y17575D01*
X7835Y17590D01*
X7718Y17575D01*
X7610Y17530D01*
X7517Y17459D01*
X7446Y17366D01*
X7401Y17258D01*
X7386Y17142D01*
X7401Y17026D01*
X7446Y16917D01*
X7517Y16824D01*
X7610Y16753D01*
X7718Y16708D01*
X7835Y16693D01*
X7951Y16708D01*
X8059Y16753D01*
X8127Y16806D01*
X8282Y16651D01*
X8282Y16636D01*
X8282Y16634D01*
X8282Y16634D01*
X8236Y16587D01*
X8231Y16587D01*
X8230D01*
X8230D01*
X7390D01*
Y15697D01*
X7731D01*
Y12992D01*
X7739Y12953D01*
X7762Y12919D01*
X10714Y9966D01*
X10748Y9944D01*
X10787Y9936D01*
X12815D01*
X12854Y9944D01*
X12888Y9966D01*
X15498Y12577D01*
X15927D01*
Y12813D01*
Y13049D01*
Y13285D01*
Y13522D01*
Y13539D01*
X16358D01*
X16398Y13546D01*
X16431Y13569D01*
X17356Y14494D01*
X17379Y14527D01*
X17387Y14567D01*
Y17598D01*
X17384Y17614D01*
X17379Y17638D01*
X17379Y17638D01*
Y17638D01*
X17368Y17655D01*
X17356Y17671D01*
X16687Y18341D01*
X16687D01*
Y18341D01*
X16676Y18348D01*
X16654Y18363D01*
X16614Y18371D01*
X16614D01*
X16614D01*
X15043D01*
X14445Y18968D01*
Y25558D01*
X14439Y25590D01*
X14421Y25616D01*
X14273Y25765D01*
X14269Y25788D01*
X14246Y25821D01*
X14213Y25843D01*
X14173Y25851D01*
X13232D01*
X13056Y26027D01*
Y26117D01*
X13106Y26127D01*
X13126Y26078D01*
X13182Y26005D01*
X13256Y25949D01*
X13341Y25913D01*
X13433Y25901D01*
X13733D01*
X13824Y25913D01*
X13910Y25949D01*
X13983Y26005D01*
X14039Y26078D01*
X14075Y26164D01*
X14087Y26256D01*
X14081Y26298D01*
X14207Y26423D01*
X14207Y26423D01*
X14207Y26423D01*
X14218Y26440D01*
X14229Y26457D01*
Y26457D01*
X14229Y26457D01*
X14232Y26470D01*
X14237Y26496D01*
Y26496D01*
Y26496D01*
Y29134D01*
Y29134D01*
Y29134D01*
X14233Y29152D01*
X14229Y29173D01*
X14229Y29173D01*
Y29173D01*
X14214Y29196D01*
X14207Y29207D01*
X14207D01*
X14207Y29207D01*
X14040Y29373D01*
Y34367D01*
X14207Y34533D01*
X14229Y34567D01*
X14237Y34606D01*
Y37949D01*
X15043Y38755D01*
X16571D01*
X17220Y38107D01*
Y37323D01*
X17228Y37283D01*
X17250Y37250D01*
X18136Y36364D01*
X18169Y36341D01*
X18209Y36334D01*
X18246D01*
Y36317D01*
Y36081D01*
Y35844D01*
Y35608D01*
Y35372D01*
Y35136D01*
Y34900D01*
Y34664D01*
Y34428D01*
Y34192D01*
Y33955D01*
Y33719D01*
Y33483D01*
Y33264D01*
X17451D01*
X17412Y33248D01*
X17395Y33209D01*
Y28346D01*
X17412Y28307D01*
X17451Y28291D01*
X18246D01*
Y28289D01*
Y28053D01*
Y27817D01*
Y27581D01*
Y27345D01*
Y27109D01*
Y26873D01*
Y26636D01*
Y26400D01*
Y26164D01*
Y25928D01*
Y25692D01*
Y25456D01*
Y25220D01*
Y24984D01*
Y24747D01*
Y24740D01*
X17559D01*
X17520Y24724D01*
X17504Y24685D01*
Y23710D01*
X17501Y23706D01*
X17465Y23676D01*
X17454D01*
X17446Y23684D01*
X17446D01*
X16645Y24485D01*
X16548Y24582D01*
X16544Y24586D01*
X16539Y24589D01*
X16520Y24602D01*
X16510Y24609D01*
X16500Y24611D01*
X16500Y24611D01*
X16481Y24614D01*
X16471Y24616D01*
X15938D01*
X15930Y24620D01*
X15927Y24627D01*
Y24629D01*
Y24865D01*
Y25102D01*
Y25338D01*
Y25574D01*
Y25810D01*
Y26046D01*
Y26282D01*
Y26518D01*
Y26754D01*
Y26990D01*
Y27227D01*
Y27463D01*
Y27699D01*
Y27935D01*
Y28171D01*
Y28407D01*
Y28643D01*
Y28879D01*
Y29116D01*
Y29331D01*
Y29352D01*
Y29588D01*
Y29824D01*
Y30064D01*
X15018D01*
Y29824D01*
Y29588D01*
Y29352D01*
Y29331D01*
Y29116D01*
Y28879D01*
Y28643D01*
Y28407D01*
Y28171D01*
Y27935D01*
Y27699D01*
Y27463D01*
Y27227D01*
Y26990D01*
Y26754D01*
Y26518D01*
Y26282D01*
Y26046D01*
Y25810D01*
Y25574D01*
Y25338D01*
Y25102D01*
Y24865D01*
Y24629D01*
Y24449D01*
Y24393D01*
Y24157D01*
Y23921D01*
Y23685D01*
Y23449D01*
Y23213D01*
Y22976D01*
Y22928D01*
X14739D01*
Y29741D01*
X14779Y29768D01*
X14823Y29834D01*
X14839Y29911D01*
X14823Y29989D01*
X14779Y30055D01*
X14713Y30099D01*
X14636Y30114D01*
X14558Y30099D01*
X14492Y30055D01*
X14449Y29989D01*
X14433Y29911D01*
X14449Y29834D01*
X14492Y29768D01*
X14533Y29741D01*
Y22825D01*
X14541Y22785D01*
X14563Y22752D01*
X14596Y22729D01*
X14636Y22722D01*
X15018D01*
Y22504D01*
Y22268D01*
Y22032D01*
Y21796D01*
Y21560D01*
Y21324D01*
Y21087D01*
Y20851D01*
Y20615D01*
Y20379D01*
Y20143D01*
Y19907D01*
Y19671D01*
Y19435D01*
Y19198D01*
Y18962D01*
Y18726D01*
X15074D01*
X15079Y18724D01*
X17795D01*
X17834Y18740D01*
X17837Y18740D01*
X17844Y18740D01*
X17889Y18693D01*
Y18431D01*
Y18425D01*
X17891Y18413D01*
X17895Y18397D01*
X17895Y18397D01*
X17897Y18386D01*
X17919Y18352D01*
X18234Y18037D01*
X18248Y18028D01*
X18258Y18021D01*
X18258D01*
X18268Y18015D01*
X18278Y18013D01*
X18278D01*
X18302Y18008D01*
X18307Y18007D01*
X19213D01*
X19224Y18009D01*
X19241Y18013D01*
X19241Y18013D01*
X19252Y18015D01*
X19286Y18037D01*
X19965Y18717D01*
X19974Y18731D01*
X19981Y18741D01*
Y18741D01*
X19988Y18750D01*
X19990Y18761D01*
Y18761D01*
X19994Y18785D01*
X19995Y18790D01*
Y19236D01*
X19999Y19243D01*
X20006Y19247D01*
X20247D01*
X20274Y19252D01*
X20309Y19259D01*
X20309D01*
X20320Y19261D01*
X20329Y19267D01*
X20337Y19272D01*
X20383Y19303D01*
X20389Y19312D01*
X20418Y19356D01*
Y19356D01*
X20425Y19366D01*
X20433Y19407D01*
X20437Y19429D01*
Y19429D01*
X20439Y19439D01*
X20432Y19476D01*
X20427Y19502D01*
X20427Y19502D01*
X20425Y19513D01*
X20418Y19522D01*
X20414Y19530D01*
X20383Y19576D01*
X20374Y19582D01*
X20329Y19611D01*
X20329D01*
X20320Y19617D01*
X20247Y19632D01*
X20006D01*
X19999Y19635D01*
X19995Y19643D01*
Y19736D01*
X19999Y19743D01*
X20006Y19747D01*
X20247D01*
X20274Y19752D01*
X20309Y19759D01*
X20309D01*
X20320Y19761D01*
X20329Y19767D01*
X20337Y19772D01*
X20383Y19803D01*
X20389Y19812D01*
X20418Y19856D01*
Y19856D01*
X20425Y19866D01*
X20433Y19907D01*
X20437Y19929D01*
Y19929D01*
X20439Y19939D01*
X20432Y19976D01*
X20427Y20002D01*
X20427Y20002D01*
X20425Y20013D01*
X20418Y20022D01*
X20414Y20030D01*
X20383Y20076D01*
X20374Y20082D01*
X20329Y20111D01*
X20329D01*
X20320Y20117D01*
X20247Y20132D01*
X19538D01*
X19510Y20127D01*
X19475Y20120D01*
X19475D01*
X19464Y20117D01*
X19455Y20111D01*
X19448Y20106D01*
X19402Y20076D01*
X19396Y20066D01*
X19366Y20022D01*
Y20022D01*
X19360Y20013D01*
X19352Y19972D01*
X19347Y19950D01*
Y19950D01*
X19345Y19939D01*
X19353Y19902D01*
X19358Y19876D01*
X19358Y19876D01*
X19360Y19866D01*
X19366Y19856D01*
X19371Y19849D01*
X19402Y19803D01*
X19411Y19797D01*
X19455Y19767D01*
X19455D01*
X19464Y19761D01*
X19538Y19747D01*
X19778D01*
X19786Y19743D01*
X19789Y19736D01*
Y19643D01*
X19786Y19635D01*
X19778Y19632D01*
X19538D01*
X19510Y19627D01*
X19475Y19619D01*
X19475D01*
X19464Y19617D01*
X19455Y19611D01*
X19448Y19606D01*
X19402Y19576D01*
X19396Y19566D01*
X19366Y19522D01*
Y19522D01*
X19360Y19513D01*
X19352Y19472D01*
X19347Y19450D01*
Y19450D01*
X19345Y19439D01*
X19353Y19402D01*
X19358Y19376D01*
X19358Y19376D01*
X19360Y19366D01*
X19366Y19356D01*
X19371Y19349D01*
X19402Y19303D01*
X19411Y19297D01*
X19455Y19267D01*
X19455D01*
X19464Y19261D01*
X19538Y19247D01*
X19778D01*
X19786Y19243D01*
X19789Y19236D01*
Y18844D01*
X19781Y18825D01*
X19178Y18221D01*
X19159Y18213D01*
X18361D01*
X18342Y18221D01*
X18103Y18460D01*
X18095Y18479D01*
Y18661D01*
Y18811D01*
X18145Y18844D01*
X18150Y18842D01*
X19213D01*
X19252Y18858D01*
X19268Y18898D01*
Y20166D01*
X19305Y20200D01*
X19351Y20196D01*
X19358Y20194D01*
X19371Y20189D01*
X19390Y20181D01*
X19390Y20181D01*
X19391Y20181D01*
X21054Y20210D01*
X21073Y20219D01*
X21092Y20227D01*
X21093Y20227D01*
X21093Y20227D01*
X21101Y20247D01*
X21109Y20266D01*
Y21001D01*
X21263Y21155D01*
X22251D01*
X22569Y20837D01*
X22608Y20821D01*
X23158D01*
X23187Y20779D01*
X23188Y20774D01*
X23173Y20699D01*
X23189Y20621D01*
X23233Y20555D01*
X23298Y20512D01*
X23376Y20496D01*
X23454Y20512D01*
X23519Y20555D01*
X23563Y20621D01*
X23579Y20699D01*
X23563Y20776D01*
X23519Y20842D01*
X23550Y20880D01*
X23571Y20901D01*
X23571Y20901D01*
X23591Y20931D01*
X23598Y20967D01*
X23598Y20967D01*
Y21789D01*
X23598Y21789D01*
X23591Y21825D01*
X23571Y21855D01*
X23184Y22242D01*
X23154Y22262D01*
X23118Y22269D01*
X23118Y22269D01*
X22926D01*
X22880Y22315D01*
Y22442D01*
X22999D01*
Y22894D01*
X22577D01*
Y22821D01*
X22336D01*
X22314Y22854D01*
X22251Y22896D01*
X22178Y22910D01*
X21469D01*
X21395Y22896D01*
X21333Y22854D01*
X21291Y22791D01*
X21287Y22770D01*
X21234Y22760D01*
X21206Y22801D01*
X21141Y22845D01*
X21063Y22860D01*
X20985Y22845D01*
X20920Y22801D01*
X20876Y22735D01*
X20860Y22657D01*
X20876Y22580D01*
X20920Y22514D01*
X20985Y22470D01*
X21063Y22455D01*
X21110Y22464D01*
X21290Y22285D01*
X21276Y22218D01*
X21291Y22144D01*
X21333Y22082D01*
X21395Y22040D01*
X21422Y22035D01*
X21417Y21985D01*
X20819D01*
X20803Y22008D01*
Y22992D01*
X20802Y22995D01*
X20828Y23045D01*
X20847Y23053D01*
X20866Y23061D01*
X20866Y23062D01*
X20866Y23062D01*
X20874Y23081D01*
X20882Y23100D01*
X20892Y25390D01*
X20915Y25414D01*
X20931Y25453D01*
X20915Y25492D01*
X20876Y25508D01*
X19409D01*
X19409Y25508D01*
X19409Y25508D01*
X19390Y25500D01*
X19370Y25492D01*
X19370Y25492D01*
X19370Y25492D01*
X19362Y25472D01*
X19354Y25453D01*
X19354Y25453D01*
X19354Y25452D01*
X19360Y24778D01*
X19310Y24740D01*
X19155D01*
Y24747D01*
Y24984D01*
Y25220D01*
Y25456D01*
Y25692D01*
Y25928D01*
Y26164D01*
Y26400D01*
Y26636D01*
Y26873D01*
Y27109D01*
Y27345D01*
Y27581D01*
Y27817D01*
Y28053D01*
Y28289D01*
Y28329D01*
X22706Y31880D01*
X22723Y31919D01*
Y36476D01*
X22706Y36516D01*
X22667Y36532D01*
X20741D01*
X20738Y36535D01*
X20735Y36537D01*
X20733Y36540D01*
X20716Y36544D01*
X20699Y36551D01*
X20696Y36550D01*
X20692Y36551D01*
X20676Y36542D01*
X20660Y36535D01*
X20658Y36532D01*
X20655Y36530D01*
X19543Y35123D01*
X19538Y35105D01*
X19531Y35089D01*
Y33244D01*
X19155D01*
Y33247D01*
Y33483D01*
Y33719D01*
Y33955D01*
Y34192D01*
Y34428D01*
Y34664D01*
Y34900D01*
Y35136D01*
Y35372D01*
Y35608D01*
Y35844D01*
Y35861D01*
X19350D01*
X19390Y35869D01*
X19423Y35892D01*
X20034Y36502D01*
X20056Y36535D01*
X20064Y36575D01*
Y37559D01*
Y37559D01*
Y37559D01*
X20056Y37599D01*
X20041Y37621D01*
X20034Y37632D01*
X20034D01*
Y37632D01*
X19443Y38223D01*
X19426Y38234D01*
X19410Y38245D01*
X19410D01*
X19410Y38245D01*
X19386Y38250D01*
X19370Y38253D01*
X18271D01*
X16923Y39601D01*
X16890Y39623D01*
X16850Y39631D01*
D02*
G37*
G36*
X36433Y27533D02*
X36340Y27520D01*
X36253Y27484D01*
X36179Y27427D01*
X36122Y27353D01*
X36086Y27266D01*
X36074Y27173D01*
X36086Y27080D01*
X36122Y26994D01*
X36179Y26919D01*
X36253Y26862D01*
X36340Y26826D01*
X36433Y26814D01*
X36526Y26826D01*
X36613Y26862D01*
X36687Y26919D01*
X36744Y26994D01*
X36780Y27080D01*
X36792Y27173D01*
X36780Y27266D01*
X36744Y27353D01*
X36687Y27427D01*
X36613Y27484D01*
X36526Y27520D01*
X36433Y27533D01*
D02*
G37*
G36*
X12024D02*
X11931Y27520D01*
X11844Y27484D01*
X11769Y27427D01*
X11712Y27353D01*
X11676Y27266D01*
X11664Y27173D01*
X11676Y27080D01*
X11712Y26994D01*
X11769Y26919D01*
X11844Y26862D01*
X11931Y26826D01*
X12024Y26814D01*
X12117Y26826D01*
X12203Y26862D01*
X12278Y26919D01*
X12335Y26994D01*
X12371Y27080D01*
X12383Y27173D01*
X12371Y27266D01*
X12335Y27353D01*
X12278Y27427D01*
X12203Y27484D01*
X12117Y27520D01*
X12024Y27533D01*
D02*
G37*
G36*
X11024Y28533D02*
X10931Y28520D01*
X10844Y28484D01*
X10769Y28427D01*
X10712Y28353D01*
X10676Y28266D01*
X10664Y28173D01*
X10676Y28080D01*
X10712Y27994D01*
X10769Y27919D01*
X10844Y27862D01*
X10931Y27826D01*
X11024Y27814D01*
X11117Y27826D01*
X11203Y27862D01*
X11278Y27919D01*
X11335Y27994D01*
X11371Y28080D01*
X11383Y28173D01*
X11371Y28266D01*
X11335Y28353D01*
X11278Y28427D01*
X11203Y28484D01*
X11117Y28520D01*
X11024Y28533D01*
D02*
G37*
G36*
X36433D02*
X36340Y28520D01*
X36253Y28484D01*
X36179Y28427D01*
X36122Y28353D01*
X36086Y28266D01*
X36074Y28173D01*
X36086Y28080D01*
X36122Y27994D01*
X36179Y27919D01*
X36253Y27862D01*
X36340Y27826D01*
X36433Y27814D01*
X36526Y27826D01*
X36613Y27862D01*
X36687Y27919D01*
X36744Y27994D01*
X36780Y28080D01*
X36792Y28173D01*
X36780Y28266D01*
X36744Y28353D01*
X36687Y28427D01*
X36613Y28484D01*
X36526Y28520D01*
X36433Y28533D01*
D02*
G37*
G36*
X12024D02*
X11931Y28520D01*
X11844Y28484D01*
X11769Y28427D01*
X11712Y28353D01*
X11676Y28266D01*
X11664Y28173D01*
X11676Y28080D01*
X11712Y27994D01*
X11769Y27919D01*
X11844Y27862D01*
X11931Y27826D01*
X12024Y27814D01*
X12117Y27826D01*
X12203Y27862D01*
X12278Y27919D01*
X12335Y27994D01*
X12371Y28080D01*
X12383Y28173D01*
X12371Y28266D01*
X12335Y28353D01*
X12278Y28427D01*
X12203Y28484D01*
X12117Y28520D01*
X12024Y28533D01*
D02*
G37*
G36*
X39871Y27339D02*
X38869D01*
Y26637D01*
X39871D01*
Y27339D01*
D02*
G37*
G36*
X36433Y26533D02*
X36340Y26520D01*
X36253Y26484D01*
X36179Y26427D01*
X36122Y26353D01*
X36086Y26266D01*
X36074Y26173D01*
X36086Y26080D01*
X36122Y25994D01*
X36179Y25919D01*
X36253Y25862D01*
X36340Y25826D01*
X36433Y25814D01*
X36526Y25826D01*
X36613Y25862D01*
X36687Y25919D01*
X36744Y25994D01*
X36780Y26080D01*
X36792Y26173D01*
X36780Y26266D01*
X36744Y26353D01*
X36687Y26427D01*
X36613Y26484D01*
X36526Y26520D01*
X36433Y26533D01*
D02*
G37*
G36*
X8336Y27378D02*
X7333D01*
Y26676D01*
X8336D01*
Y27378D01*
D02*
G37*
G36*
X11024Y27533D02*
X10931Y27520D01*
X10844Y27484D01*
X10769Y27427D01*
X10712Y27353D01*
X10676Y27266D01*
X10664Y27173D01*
X10676Y27080D01*
X10712Y26994D01*
X10769Y26919D01*
X10844Y26862D01*
X10931Y26826D01*
X11024Y26814D01*
X11117Y26826D01*
X11203Y26862D01*
X11278Y26919D01*
X11335Y26994D01*
X11371Y27080D01*
X11383Y27173D01*
X11371Y27266D01*
X11335Y27353D01*
X11278Y27427D01*
X11203Y27484D01*
X11117Y27520D01*
X11024Y27533D01*
D02*
G37*
%LPD*%
G36*
X8327Y16589D02*
X8330Y16589D01*
X8343Y16589D01*
X8361Y16571D01*
Y12682D01*
X8311Y12661D01*
X7938Y13035D01*
Y15697D01*
X8280D01*
Y16537D01*
Y16537D01*
Y16538D01*
X8280Y16543D01*
X8327Y16589D01*
X8327Y16589D01*
D02*
G37*
G36*
X10094Y17438D02*
Y13268D01*
X10098Y13248D01*
X10102Y13228D01*
X10102Y13228D01*
Y13228D01*
X10111Y13214D01*
X10124Y13195D01*
X10557Y12762D01*
X10557Y12762D01*
X10557Y12762D01*
X10579Y12747D01*
X10590Y12739D01*
X10590D01*
X10590Y12739D01*
X10630Y12731D01*
X12087D01*
X12087D01*
X12126Y12739D01*
X12148Y12754D01*
X12160Y12762D01*
Y12762D01*
X12160D01*
X12908Y13510D01*
X12919Y13526D01*
X12930Y13543D01*
Y13543D01*
X12930Y13543D01*
X12936Y13573D01*
X12938Y13583D01*
Y14209D01*
X13468Y14739D01*
X14721D01*
X14947Y14514D01*
X14963Y14503D01*
X14980Y14491D01*
X14980Y14491D01*
X14984Y14491D01*
X15018Y14484D01*
Y14467D01*
Y14230D01*
Y13994D01*
Y13758D01*
Y13522D01*
Y13509D01*
X14902D01*
X14862Y13501D01*
X14829Y13478D01*
X14376Y13026D01*
X14354Y12992D01*
X14346Y12953D01*
Y12562D01*
X12516Y10733D01*
X11066D01*
X8961Y12838D01*
Y16037D01*
X9011Y16040D01*
X9015Y16010D01*
X9060Y15902D01*
X9132Y15809D01*
X9224Y15737D01*
X9333Y15693D01*
X9449Y15677D01*
X9565Y15693D01*
X9673Y15737D01*
X9766Y15809D01*
X9837Y15902D01*
X9882Y16010D01*
X9898Y16126D01*
X9882Y16242D01*
X9837Y16350D01*
X9766Y16443D01*
X9673Y16515D01*
X9565Y16559D01*
X9449Y16575D01*
X9333Y16559D01*
X9224Y16515D01*
X9132Y16443D01*
X9060Y16350D01*
X9015Y16242D01*
X9011Y16212D01*
X8961Y16215D01*
Y16663D01*
X9004Y16681D01*
X9011Y16681D01*
X9894D01*
Y17567D01*
X9932Y17599D01*
X10094Y17438D01*
D02*
G37*
G36*
X15872Y29116D02*
Y28879D01*
Y28643D01*
Y28407D01*
Y28171D01*
Y27935D01*
Y27699D01*
Y27463D01*
Y27227D01*
Y26990D01*
Y26754D01*
Y26518D01*
Y26282D01*
Y26046D01*
Y25810D01*
Y25574D01*
Y25338D01*
Y25102D01*
Y24865D01*
Y24629D01*
Y24616D01*
X15888Y24577D01*
X15927Y24561D01*
X16466D01*
X16489Y24556D01*
X16509Y24543D01*
X17414Y23637D01*
X17425Y23633D01*
X17432Y23625D01*
X17443D01*
X17454Y23621D01*
X17480Y23578D01*
Y23507D01*
X17443Y23474D01*
X16467Y24449D01*
X16428Y24465D01*
X15927D01*
X15888Y24449D01*
X15888Y24449D01*
X15073D01*
Y24629D01*
Y24865D01*
Y25102D01*
Y25338D01*
Y25574D01*
Y25810D01*
Y26046D01*
Y26282D01*
Y26518D01*
Y26754D01*
Y26990D01*
Y27227D01*
Y27463D01*
Y27699D01*
Y27935D01*
Y28171D01*
Y28407D01*
Y28643D01*
Y28879D01*
Y29116D01*
Y29331D01*
X15872D01*
Y29116D01*
D02*
G37*
G36*
X13116Y25675D02*
X13113Y25617D01*
X13105Y25607D01*
X13082D01*
Y24904D01*
X13709D01*
X14032Y24582D01*
Y24394D01*
X14000Y24384D01*
X13982Y24381D01*
X13910Y24436D01*
X13824Y24472D01*
X13733Y24484D01*
X13433D01*
X13341Y24472D01*
X13317Y24462D01*
X12855Y24925D01*
Y25866D01*
X12905Y25886D01*
X13116Y25675D01*
D02*
G37*
G36*
X14281Y25524D02*
Y22798D01*
X14235Y22779D01*
X14196Y22817D01*
Y24586D01*
X14209Y24606D01*
X14217Y24645D01*
X14209Y24685D01*
X14187Y24718D01*
X14047Y24858D01*
X14066Y24904D01*
X14084D01*
Y25607D01*
X14111Y25643D01*
X14160Y25645D01*
X14281Y25524D01*
D02*
G37*
G36*
X20837Y25413D02*
X20827Y23100D01*
X20118Y23091D01*
X19429Y23110D01*
X19409Y25453D01*
X20876D01*
X20837Y25413D01*
D02*
G37*
G36*
X20719Y36476D02*
X22667D01*
Y31919D01*
X19094Y28346D01*
X18307D01*
Y33189D01*
X19606D01*
X19587Y33209D01*
Y35089D01*
X20699Y36496D01*
X20719Y36476D01*
D02*
G37*
G36*
X18077Y37880D02*
X18110Y37857D01*
X18150Y37850D01*
X19209D01*
X19621Y37438D01*
Y36696D01*
X19229Y36304D01*
X19155D01*
Y36317D01*
Y36553D01*
Y36789D01*
Y37025D01*
Y37261D01*
Y37497D01*
Y37737D01*
X18246D01*
Y37497D01*
Y37261D01*
Y37025D01*
Y36886D01*
X18200Y36867D01*
X17623Y37444D01*
Y38228D01*
X17615Y38268D01*
X17609Y38277D01*
X17648Y38309D01*
X18077Y37880D01*
D02*
G37*
G36*
X14031Y26540D02*
X13995Y26505D01*
X13983Y26506D01*
X13910Y26562D01*
X13824Y26598D01*
X13733Y26610D01*
X13433D01*
X13341Y26598D01*
X13256Y26562D01*
X13182Y26506D01*
X13126Y26433D01*
X13106Y26384D01*
X13056Y26394D01*
Y26709D01*
X13377Y27030D01*
X14031D01*
Y26540D01*
D02*
G37*
G36*
X13598Y29218D02*
Y28736D01*
X13433D01*
X13341Y28724D01*
X13256Y28688D01*
X13182Y28632D01*
X13126Y28559D01*
X13091Y28473D01*
X13078Y28382D01*
X13091Y28290D01*
X13126Y28204D01*
X13182Y28131D01*
X13256Y28075D01*
X13341Y28039D01*
X13433Y28027D01*
X13733D01*
X13824Y28039D01*
X13910Y28075D01*
X13981Y28129D01*
X13998Y28126D01*
X14031Y28115D01*
Y27733D01*
X13082D01*
Y27030D01*
X13082Y27030D01*
X13082D01*
X13050Y26995D01*
X12905Y26850D01*
X12855Y26870D01*
Y28536D01*
X13538Y29218D01*
X13548Y29234D01*
X13551Y29234D01*
X13598Y29218D01*
D02*
G37*
G36*
X13933Y20606D02*
X13869Y20542D01*
X13851Y20515D01*
X13845Y20484D01*
Y18813D01*
X13795Y18792D01*
X13686Y18901D01*
Y20652D01*
X13914D01*
X13933Y20606D01*
D02*
G37*
G36*
X19331Y23031D02*
X19291Y22992D01*
X20748D01*
Y22008D01*
X19291D01*
Y20276D01*
X19213Y20197D01*
Y18898D01*
X18150D01*
Y23071D01*
X17559Y23661D01*
Y24685D01*
X19331D01*
Y23031D01*
D02*
G37*
G36*
X18032Y22953D02*
Y18661D01*
X18040D01*
Y18468D01*
X18056Y18429D01*
X18311Y18174D01*
X18350Y18158D01*
X19170D01*
X19209Y18174D01*
X19828Y18793D01*
X19844Y18833D01*
Y19247D01*
X19828Y19286D01*
X19789Y19302D01*
X19543D01*
X19486Y19314D01*
X19442Y19343D01*
X19412Y19387D01*
X19402Y19439D01*
X19412Y19491D01*
X19442Y19536D01*
X19486Y19565D01*
X19543Y19577D01*
X19789D01*
X19828Y19593D01*
X19844Y19632D01*
Y19747D01*
X19828Y19786D01*
X19789Y19802D01*
X19543D01*
X19486Y19814D01*
X19442Y19843D01*
X19412Y19887D01*
X19402Y19939D01*
X19412Y19991D01*
X19442Y20036D01*
X19486Y20065D01*
X19543Y20077D01*
X20241D01*
X20299Y20065D01*
X20343Y20036D01*
X20372Y19991D01*
X20383Y19939D01*
X20372Y19887D01*
X20343Y19843D01*
X20299Y19814D01*
X20241Y19802D01*
X19995D01*
X19956Y19786D01*
X19940Y19747D01*
Y19632D01*
X19956Y19593D01*
X19995Y19577D01*
X20241D01*
X20299Y19565D01*
X20343Y19536D01*
X20372Y19491D01*
X20383Y19439D01*
X20372Y19387D01*
X20343Y19343D01*
X20299Y19314D01*
X20241Y19302D01*
X19995D01*
X19956Y19286D01*
X19940Y19247D01*
Y18795D01*
X19935Y18772D01*
X19922Y18752D01*
X19250Y18080D01*
X19230Y18067D01*
X19207Y18062D01*
X18313D01*
X18289Y18067D01*
X18269Y18080D01*
X17962Y18388D01*
X17949Y18407D01*
X17944Y18431D01*
Y18741D01*
X17938Y18756D01*
X17935Y18772D01*
X17930Y18775D01*
X17928Y18780D01*
X17913Y18787D01*
X17900Y18796D01*
X17851Y18805D01*
Y20622D01*
X17853Y20640D01*
X17851Y20657D01*
Y21282D01*
X17853Y21299D01*
X17851Y21317D01*
Y21915D01*
X17852Y21919D01*
X17863Y21998D01*
X17852Y22077D01*
X17851Y22081D01*
Y22632D01*
X17900Y22641D01*
X17913Y22650D01*
X17928Y22657D01*
X17930Y22662D01*
X17935Y22665D01*
X17938Y22681D01*
X17944Y22696D01*
Y22949D01*
X17928Y22989D01*
X17966Y23019D01*
X18032Y22953D01*
D02*
G37*
G36*
X15866Y18780D02*
X15079D01*
Y23622D01*
X15866D01*
Y18780D01*
D02*
G37*
G36*
X16436Y24402D02*
X17881Y22957D01*
X17889Y22938D01*
Y22744D01*
X17844Y22697D01*
X17837Y22697D01*
X17834Y22697D01*
X17795Y22713D01*
X15927D01*
Y22740D01*
Y22976D01*
Y23213D01*
Y23449D01*
Y23685D01*
Y23921D01*
Y24157D01*
Y24393D01*
Y24406D01*
X15938Y24410D01*
X16417D01*
X16436Y24402D01*
D02*
G37*
G36*
X22577Y22442D02*
X22696D01*
Y22277D01*
X22696Y22277D01*
X22703Y22242D01*
X22723Y22212D01*
X22755Y22179D01*
X22738Y22132D01*
X22699Y22129D01*
X22578Y22092D01*
X22467Y22032D01*
X22420Y21994D01*
X22392D01*
X22368Y21985D01*
X22230D01*
X22225Y22035D01*
X22251Y22040D01*
X22314Y22082D01*
X22356Y22144D01*
X22370Y22218D01*
X22356Y22291D01*
X22314Y22354D01*
X22251Y22396D01*
X22178Y22410D01*
X21469D01*
X21458Y22408D01*
X21373Y22494D01*
X21395Y22537D01*
X21398Y22539D01*
X21469Y22525D01*
X22178D01*
X22251Y22540D01*
X22314Y22582D01*
X22336Y22615D01*
X22577D01*
Y22442D01*
D02*
G37*
G36*
X23228Y20925D02*
X23179Y20876D01*
X22608D01*
X22274Y21211D01*
X21260D01*
X21250Y21220D01*
X21053Y21024D01*
Y20266D01*
X19390Y20236D01*
Y21358D01*
X19961Y21929D01*
X22382D01*
X22392Y21939D01*
X23228D01*
Y20925D01*
D02*
G37*
G36*
X13150Y24338D02*
X13126Y24307D01*
X13091Y24221D01*
X13078Y24130D01*
X13091Y24038D01*
X13126Y23952D01*
X13182Y23879D01*
X13256Y23823D01*
X13341Y23787D01*
X13433Y23775D01*
X13733D01*
X13824Y23787D01*
X13910Y23823D01*
X13982Y23878D01*
X14000Y23876D01*
X14032Y23865D01*
Y23481D01*
X13082D01*
Y22778D01*
X13788D01*
X14031Y22535D01*
Y22269D01*
X13999Y22258D01*
X13981Y22256D01*
X13910Y22310D01*
X13824Y22346D01*
X13733Y22358D01*
X13433D01*
X13385Y22352D01*
X12662Y23074D01*
Y24755D01*
X12712Y24775D01*
X13150Y24338D01*
D02*
G37*
%LPC*%
G36*
X11811Y12654D02*
X11647Y12637D01*
X11489Y12590D01*
X11343Y12512D01*
X11215Y12407D01*
X11110Y12279D01*
X11033Y12133D01*
X10985Y11975D01*
X10968Y11811D01*
X10985Y11647D01*
X11033Y11489D01*
X11110Y11343D01*
X11215Y11215D01*
X11343Y11110D01*
X11489Y11033D01*
X11647Y10985D01*
X11811Y10968D01*
X11975Y10985D01*
X12133Y11033D01*
X12279Y11110D01*
X12407Y11215D01*
X12512Y11343D01*
X12590Y11489D01*
X12637Y11647D01*
X12654Y11811D01*
X12637Y11975D01*
X12590Y12133D01*
X12512Y12279D01*
X12407Y12407D01*
X12279Y12512D01*
X12133Y12590D01*
X11975Y12637D01*
X11811Y12654D01*
D02*
G37*
%LPD*%
D10*
X28543Y22860D02*
D03*
Y23096D02*
D03*
Y23333D02*
D03*
Y23569D02*
D03*
Y23805D02*
D03*
Y24041D02*
D03*
Y24277D02*
D03*
Y24513D02*
D03*
Y24749D02*
D03*
Y24985D02*
D03*
Y25222D02*
D03*
Y25458D02*
D03*
Y25694D02*
D03*
Y25930D02*
D03*
Y26166D02*
D03*
Y26402D02*
D03*
Y26638D02*
D03*
Y26874D02*
D03*
Y27111D02*
D03*
Y27347D02*
D03*
Y27583D02*
D03*
Y27819D02*
D03*
Y28055D02*
D03*
Y28291D02*
D03*
Y28527D02*
D03*
Y28763D02*
D03*
Y29000D02*
D03*
Y29236D02*
D03*
Y29472D02*
D03*
Y29708D02*
D03*
Y29944D02*
D03*
Y30180D02*
D03*
Y30416D02*
D03*
Y30652D02*
D03*
Y30889D02*
D03*
Y31125D02*
D03*
Y31361D02*
D03*
Y31597D02*
D03*
Y31833D02*
D03*
Y32069D02*
D03*
Y32305D02*
D03*
Y32541D02*
D03*
Y32778D02*
D03*
Y33014D02*
D03*
Y33250D02*
D03*
Y33486D02*
D03*
Y33722D02*
D03*
Y33958D02*
D03*
Y34194D02*
D03*
Y34430D02*
D03*
Y34667D02*
D03*
Y34903D02*
D03*
Y35139D02*
D03*
Y35375D02*
D03*
Y35611D02*
D03*
Y35847D02*
D03*
Y36083D02*
D03*
Y36319D02*
D03*
Y36556D02*
D03*
Y36792D02*
D03*
Y37028D02*
D03*
Y37264D02*
D03*
Y37500D02*
D03*
X31772Y20617D02*
D03*
Y20853D02*
D03*
Y21089D02*
D03*
Y21326D02*
D03*
Y21562D02*
D03*
Y21798D02*
D03*
Y22270D02*
D03*
Y22506D02*
D03*
Y22742D02*
D03*
Y22979D02*
D03*
Y23215D02*
D03*
Y23451D02*
D03*
Y23687D02*
D03*
Y23923D02*
D03*
Y24159D02*
D03*
Y24395D02*
D03*
Y24631D02*
D03*
Y24868D02*
D03*
Y25104D02*
D03*
Y25340D02*
D03*
Y25576D02*
D03*
Y25812D02*
D03*
Y26048D02*
D03*
Y26284D02*
D03*
Y26520D02*
D03*
Y26757D02*
D03*
Y26993D02*
D03*
Y27229D02*
D03*
Y27465D02*
D03*
Y27701D02*
D03*
Y27937D02*
D03*
Y28173D02*
D03*
Y28409D02*
D03*
Y28646D02*
D03*
Y28882D02*
D03*
Y29118D02*
D03*
Y29354D02*
D03*
Y29590D02*
D03*
Y30061D02*
D03*
Y30298D02*
D03*
Y30534D02*
D03*
Y30770D02*
D03*
Y31006D02*
D03*
Y31242D02*
D03*
Y31478D02*
D03*
Y31714D02*
D03*
Y31950D02*
D03*
Y32187D02*
D03*
Y32423D02*
D03*
Y32659D02*
D03*
Y32895D02*
D03*
Y33131D02*
D03*
Y33367D02*
D03*
Y33603D02*
D03*
Y33839D02*
D03*
Y34076D02*
D03*
Y34312D02*
D03*
Y34548D02*
D03*
Y34784D02*
D03*
Y35020D02*
D03*
Y35256D02*
D03*
Y35492D02*
D03*
Y35728D02*
D03*
Y35965D02*
D03*
Y36201D02*
D03*
Y36437D02*
D03*
Y36673D02*
D03*
Y36909D02*
D03*
Y37145D02*
D03*
Y37381D02*
D03*
Y37617D02*
D03*
Y22034D02*
D03*
Y29826D02*
D03*
X28543Y20735D02*
D03*
Y20971D02*
D03*
Y21208D02*
D03*
Y21444D02*
D03*
Y21680D02*
D03*
Y21916D02*
D03*
Y22152D02*
D03*
Y22388D02*
D03*
Y22624D02*
D03*
X31772Y20381D02*
D03*
X28543Y20499D02*
D03*
Y20263D02*
D03*
X31772Y20145D02*
D03*
Y19909D02*
D03*
Y19673D02*
D03*
Y19437D02*
D03*
Y19201D02*
D03*
Y18964D02*
D03*
X28543Y20027D02*
D03*
Y19791D02*
D03*
Y19555D02*
D03*
Y19319D02*
D03*
Y19082D02*
D03*
Y18846D02*
D03*
X31772Y17303D02*
D03*
Y17067D02*
D03*
Y16831D02*
D03*
Y16594D02*
D03*
Y16358D02*
D03*
X28543Y17185D02*
D03*
Y16949D02*
D03*
Y16713D02*
D03*
Y16476D02*
D03*
Y16240D02*
D03*
Y16004D02*
D03*
Y15768D02*
D03*
Y15532D02*
D03*
X31772Y16122D02*
D03*
Y15886D02*
D03*
Y15650D02*
D03*
Y15413D02*
D03*
X28543Y15295D02*
D03*
X31772Y15177D02*
D03*
Y14941D02*
D03*
Y14705D02*
D03*
Y14468D02*
D03*
Y14232D02*
D03*
Y13996D02*
D03*
Y13760D02*
D03*
X28543Y15059D02*
D03*
Y14823D02*
D03*
Y14350D02*
D03*
Y14114D02*
D03*
Y13878D02*
D03*
Y13642D02*
D03*
Y13406D02*
D03*
Y13169D02*
D03*
Y12933D02*
D03*
Y14587D02*
D03*
X31772Y13524D02*
D03*
Y13287D02*
D03*
Y13051D02*
D03*
Y12815D02*
D03*
X28543Y12697D02*
D03*
X15472Y22860D02*
D03*
Y23096D02*
D03*
Y23333D02*
D03*
Y23569D02*
D03*
Y23805D02*
D03*
Y24041D02*
D03*
Y24277D02*
D03*
Y24513D02*
D03*
Y24749D02*
D03*
Y24985D02*
D03*
Y25222D02*
D03*
Y25458D02*
D03*
Y25694D02*
D03*
Y25930D02*
D03*
Y26166D02*
D03*
Y26402D02*
D03*
Y26638D02*
D03*
Y26874D02*
D03*
Y27111D02*
D03*
Y27347D02*
D03*
Y27583D02*
D03*
Y27819D02*
D03*
Y28055D02*
D03*
Y28291D02*
D03*
Y28527D02*
D03*
Y28763D02*
D03*
Y29000D02*
D03*
Y29236D02*
D03*
Y29472D02*
D03*
Y29708D02*
D03*
Y29944D02*
D03*
Y30180D02*
D03*
Y30416D02*
D03*
Y30652D02*
D03*
Y30889D02*
D03*
Y31125D02*
D03*
Y31361D02*
D03*
Y31597D02*
D03*
Y31833D02*
D03*
Y32069D02*
D03*
Y32305D02*
D03*
Y32541D02*
D03*
Y32778D02*
D03*
Y33014D02*
D03*
Y33250D02*
D03*
Y33486D02*
D03*
Y33722D02*
D03*
Y33958D02*
D03*
Y34194D02*
D03*
Y34430D02*
D03*
Y34667D02*
D03*
Y34903D02*
D03*
Y35139D02*
D03*
Y35375D02*
D03*
Y35611D02*
D03*
Y35847D02*
D03*
Y36083D02*
D03*
Y36319D02*
D03*
Y36556D02*
D03*
Y36792D02*
D03*
Y37028D02*
D03*
Y37264D02*
D03*
Y37500D02*
D03*
X18701Y20617D02*
D03*
Y20853D02*
D03*
Y21089D02*
D03*
Y21326D02*
D03*
Y21562D02*
D03*
Y21798D02*
D03*
Y22270D02*
D03*
Y22506D02*
D03*
Y22742D02*
D03*
Y22979D02*
D03*
Y23215D02*
D03*
Y23451D02*
D03*
Y23687D02*
D03*
Y23923D02*
D03*
Y24159D02*
D03*
Y24395D02*
D03*
Y24631D02*
D03*
Y24868D02*
D03*
Y25104D02*
D03*
Y25340D02*
D03*
Y25576D02*
D03*
Y25812D02*
D03*
Y26048D02*
D03*
Y26284D02*
D03*
Y26520D02*
D03*
Y26757D02*
D03*
Y26993D02*
D03*
Y27229D02*
D03*
Y27465D02*
D03*
Y27701D02*
D03*
Y27937D02*
D03*
Y28173D02*
D03*
Y28409D02*
D03*
Y28646D02*
D03*
Y28882D02*
D03*
Y29118D02*
D03*
Y29354D02*
D03*
Y29590D02*
D03*
Y30061D02*
D03*
Y30298D02*
D03*
Y30534D02*
D03*
Y30770D02*
D03*
Y31006D02*
D03*
Y31242D02*
D03*
Y31478D02*
D03*
Y31714D02*
D03*
Y31950D02*
D03*
Y32187D02*
D03*
Y32423D02*
D03*
Y32659D02*
D03*
Y32895D02*
D03*
Y33131D02*
D03*
Y33367D02*
D03*
Y33603D02*
D03*
Y33839D02*
D03*
Y34076D02*
D03*
Y34312D02*
D03*
Y34548D02*
D03*
Y34784D02*
D03*
Y35020D02*
D03*
Y35256D02*
D03*
Y35492D02*
D03*
Y35728D02*
D03*
Y35965D02*
D03*
Y36201D02*
D03*
Y36437D02*
D03*
Y36673D02*
D03*
Y36909D02*
D03*
Y37145D02*
D03*
Y37381D02*
D03*
Y37617D02*
D03*
Y22034D02*
D03*
Y29826D02*
D03*
X15472Y20735D02*
D03*
Y20971D02*
D03*
Y21208D02*
D03*
Y21444D02*
D03*
Y21680D02*
D03*
Y21916D02*
D03*
Y22152D02*
D03*
Y22388D02*
D03*
Y22624D02*
D03*
X18701Y20381D02*
D03*
X15472Y20499D02*
D03*
Y20263D02*
D03*
X18701Y20145D02*
D03*
Y19909D02*
D03*
Y19673D02*
D03*
Y19437D02*
D03*
Y19201D02*
D03*
Y18964D02*
D03*
X15472Y20027D02*
D03*
Y19791D02*
D03*
Y19555D02*
D03*
Y19319D02*
D03*
Y19082D02*
D03*
Y18846D02*
D03*
X18701Y17303D02*
D03*
Y17067D02*
D03*
Y16831D02*
D03*
Y16594D02*
D03*
Y16358D02*
D03*
X15472Y17185D02*
D03*
Y16949D02*
D03*
Y16713D02*
D03*
Y16476D02*
D03*
Y16240D02*
D03*
Y16004D02*
D03*
Y15768D02*
D03*
Y15532D02*
D03*
X18701Y16122D02*
D03*
Y15886D02*
D03*
Y15650D02*
D03*
Y15413D02*
D03*
X15472Y15295D02*
D03*
X18701Y15177D02*
D03*
Y14941D02*
D03*
Y14705D02*
D03*
Y14468D02*
D03*
Y14232D02*
D03*
Y13996D02*
D03*
Y13760D02*
D03*
X15472Y15059D02*
D03*
Y14823D02*
D03*
Y14350D02*
D03*
Y14114D02*
D03*
Y13878D02*
D03*
Y13642D02*
D03*
Y13406D02*
D03*
Y13169D02*
D03*
Y12933D02*
D03*
Y14587D02*
D03*
X18701Y13524D02*
D03*
Y13287D02*
D03*
Y13051D02*
D03*
Y12815D02*
D03*
X15472Y12697D02*
D03*
D12*
X19892Y19439D02*
D03*
Y19939D02*
D03*
Y20439D02*
D03*
Y20939D02*
D03*
X21821Y19439D02*
D03*
Y19939D02*
D03*
Y20439D02*
D03*
Y20939D02*
D03*
X27342Y23717D02*
D03*
Y23217D02*
D03*
Y22717D02*
D03*
Y22217D02*
D03*
X25413Y23717D02*
D03*
Y23217D02*
D03*
Y22717D02*
D03*
Y22217D02*
D03*
X27303Y17443D02*
D03*
Y16943D02*
D03*
Y16443D02*
D03*
Y15943D02*
D03*
X25374Y17443D02*
D03*
Y16943D02*
D03*
Y16443D02*
D03*
Y15943D02*
D03*
X19894Y22218D02*
D03*
Y22718D02*
D03*
Y23218D02*
D03*
Y23718D02*
D03*
X21823Y22218D02*
D03*
Y22718D02*
D03*
Y23218D02*
D03*
Y23718D02*
D03*
D13*
X24409Y16393D02*
D03*
Y16993D02*
D03*
X22786Y20489D02*
D03*
Y19889D02*
D03*
X22788Y23268D02*
D03*
Y22668D02*
D03*
X24448Y22667D02*
D03*
Y23267D02*
D03*
D14*
X34291Y31063D02*
X34970D01*
X33310Y32044D02*
X34291Y31063D01*
X33310Y32044D02*
Y33807D01*
X33468Y33964D01*
Y34708D01*
X33480Y34719D01*
X33159Y30542D02*
Y33870D01*
Y30542D02*
X33183Y30518D01*
X33228Y33939D02*
Y36063D01*
X33159Y33870D02*
X33228Y33939D01*
X25742Y28606D02*
X27165Y30030D01*
X25742Y27250D02*
Y28606D01*
X25413Y26921D02*
X25742Y27250D01*
X25413Y23717D02*
Y26921D01*
X21143Y17264D02*
Y17845D01*
X21133D02*
X21143D01*
X20994Y17983D02*
X21133Y17845D01*
X20994Y17983D02*
Y19872D01*
X21562Y20439D01*
X24409Y16393D02*
X24450Y16352D01*
Y15749D02*
Y16352D01*
X32265Y17438D02*
Y17511D01*
Y17438D02*
X32276Y17426D01*
Y16912D02*
Y17426D01*
Y16912D02*
X32428Y16760D01*
X32705D01*
X32717Y16772D01*
X30829Y17419D02*
X32033Y18622D01*
X30214Y17419D02*
X30829D01*
X29272Y16476D02*
X30214Y17419D01*
X27402Y14173D02*
Y15135D01*
X27968Y15702D01*
X28477D01*
X28543Y15768D01*
X28012Y15532D02*
X28543D01*
X27598Y15118D02*
X28012Y15532D01*
X28051Y15295D02*
X28543D01*
X27795Y15039D02*
X28051Y15295D01*
X28091Y15059D02*
X28543D01*
X27992Y14961D02*
X28091Y15059D01*
X27992Y14449D02*
Y14961D01*
X27795Y14370D02*
Y15039D01*
X28135Y16476D02*
X28543D01*
X22786Y20489D02*
X22825Y20450D01*
X23905D01*
X23917Y20463D01*
X35839Y15325D02*
X35955Y15209D01*
X35839Y15325D02*
Y15342D01*
X35601Y15580D02*
X35839Y15342D01*
X35452Y15580D02*
X35601D01*
X35072Y15960D02*
X35452Y15580D01*
X34970Y15960D02*
X35072D01*
X14636Y22825D02*
X15187D01*
X13504Y21004D02*
X13583Y20925D01*
Y18858D02*
Y20925D01*
X14134Y26496D02*
Y29134D01*
X13583Y23130D02*
X14122Y22590D01*
X13543Y25216D02*
X14114Y24645D01*
X14363Y18904D02*
X15000Y18268D01*
X39703Y13689D02*
X40187Y14173D01*
X39703Y13168D02*
Y13689D01*
X39670Y13135D02*
X39703Y13168D01*
X39661Y13135D02*
X39670D01*
X38893Y12368D02*
X39661Y13135D01*
X38893Y12149D02*
Y12368D01*
X36100Y9356D02*
X38893Y12149D01*
X35748Y10342D02*
X35910D01*
X35630Y9764D02*
X35906Y10040D01*
X35992D01*
X35811Y10191D02*
X35973D01*
X35790Y10170D02*
X35811Y10191D01*
X35910Y10342D02*
X37474Y11906D01*
X35973Y10191D02*
X37625Y11843D01*
X36013Y10019D02*
X36015D01*
X35992Y10040D02*
X36013Y10019D01*
X35673Y9376D02*
X36079D01*
X35652Y9356D02*
X35673Y9376D01*
X35568Y9356D02*
X35652D01*
X35548Y9376D02*
X35568Y9356D01*
X32346Y9376D02*
X35548D01*
X39023Y12940D02*
Y15755D01*
X37928Y11845D02*
X39023Y12940D01*
X37928Y11845D02*
X37928Y11845D01*
X37928Y11718D02*
Y11845D01*
X36077Y9868D02*
X37928Y11718D01*
X35950Y9868D02*
X36077D01*
X35610Y9528D02*
X35950Y9868D01*
X32283Y9528D02*
X35610D01*
X36015Y10019D02*
X37776Y11781D01*
X38819Y12953D02*
Y16551D01*
X37776Y11910D02*
X38819Y12953D01*
X37776Y11781D02*
Y11910D01*
X32362Y9764D02*
X35630D01*
X32638Y10472D02*
X35665D01*
X35847Y10493D02*
X37323Y11968D01*
X35686Y10493D02*
X35847D01*
X35665Y10472D02*
X35686Y10493D01*
X35728Y10321D02*
X35748Y10342D01*
X35607Y10321D02*
X35728D01*
X38622Y13002D02*
Y17559D01*
X37625Y12005D02*
X38622Y13002D01*
X37625Y12005D02*
X37625Y12005D01*
X37625Y11843D02*
Y12005D01*
X35620Y10000D02*
X35790Y10170D01*
X32480Y10000D02*
X35620D01*
X38425Y13140D02*
Y17953D01*
X37474Y12189D02*
X38425Y13140D01*
X37474Y11906D02*
Y12189D01*
X35522Y10236D02*
X35607Y10321D01*
X32559Y10236D02*
X35522D01*
X36079Y9376D02*
X36100Y9356D01*
X32325D02*
X32346Y9376D01*
X32242Y9356D02*
X32325D01*
X31856Y9741D02*
X32242Y9356D01*
X23777Y9741D02*
X31856D01*
X23718Y9801D02*
X23777Y9741D01*
X23718Y9801D02*
Y12753D01*
X21749Y14722D02*
X23718Y12753D01*
X21749Y14722D02*
Y17955D01*
X22786Y18992D01*
Y19889D01*
X23917Y20463D02*
Y20604D01*
X23678Y20843D02*
X23917Y20604D01*
X23678Y20843D02*
Y21783D01*
X24045Y22149D01*
Y22667D01*
X23821Y22443D02*
X24045Y22667D01*
X23612Y22443D02*
X23821D01*
X34675Y35915D02*
Y37668D01*
X36378Y35069D02*
X36841Y35531D01*
X33480Y34719D02*
X34675Y35915D01*
X23740Y30906D02*
X25197Y32362D01*
X31998Y16506D02*
X32018Y16486D01*
X32500D01*
X32717Y16772D02*
X34055Y15433D01*
Y13612D02*
Y15433D01*
Y13612D02*
X34213Y13455D01*
X36309D01*
X32500Y16486D02*
X33681Y15305D01*
X14636Y22825D02*
Y29911D01*
X14224Y18768D02*
X14921Y18071D01*
X14085Y18632D02*
X14843Y17874D01*
X13543Y23090D02*
X13642D01*
X20473Y16594D02*
X21143Y17264D01*
X21191Y18169D02*
X21821Y18800D01*
X18701Y16594D02*
X20473D01*
X21562Y20439D02*
X21821D01*
X28543Y16476D02*
X29272D01*
X32033Y18622D02*
X32904D01*
X34124Y17402D01*
X36841Y35531D02*
Y35837D01*
X26978Y34744D02*
Y35551D01*
X25591Y33356D02*
X26978Y34744D01*
X25591Y27313D02*
Y33356D01*
X23573Y25295D02*
X25591Y27313D01*
X23573Y24142D02*
Y25295D01*
Y24142D02*
X24448Y23267D01*
X13504Y27303D02*
Y27421D01*
Y25256D02*
X13543Y25216D01*
X13543Y21964D02*
Y22047D01*
X12283Y37323D02*
Y37441D01*
X12953Y37008D02*
X13032Y37087D01*
X32265Y17511D02*
X32411Y17657D01*
X37323Y11968D02*
Y20039D01*
X37441Y20157D01*
X39023Y15755D02*
X39370Y16102D01*
X35433Y14173D02*
X35955Y14695D01*
Y15209D01*
X34970Y15960D02*
Y31063D01*
X33183Y30518D02*
X34724Y28976D01*
X34291Y34685D02*
Y34961D01*
Y34685D02*
X34528Y34449D01*
X37047D01*
X22628Y30817D02*
X26703Y34892D01*
X24045Y22873D02*
X24055Y22884D01*
X24045Y22667D02*
Y22873D01*
X36433Y13579D02*
Y14173D01*
X36309Y13455D02*
X36433Y13579D01*
X21503Y22218D02*
X21823D01*
X21063Y22657D02*
X21503Y22218D01*
X22788Y25404D02*
Y25849D01*
Y23268D02*
Y25404D01*
X24006Y26622D01*
X22788Y23268D02*
X23612Y22443D01*
X24045Y22667D02*
X24448D01*
X21821Y18800D02*
Y19439D01*
X13937Y29331D02*
X14134Y29134D01*
X13937Y29331D02*
Y34409D01*
X14134Y34606D01*
Y37992D01*
X13937Y34724D02*
Y38071D01*
X13701Y34488D02*
X13937Y34724D01*
X13701Y28500D02*
Y34488D01*
X13740Y34843D02*
Y38189D01*
X13465Y34567D02*
X13740Y34843D01*
X13465Y29291D02*
Y34567D01*
X13228Y34646D02*
X13543Y34961D01*
X13228Y29331D02*
Y34646D01*
X12559Y28661D02*
X13228Y29331D01*
X13583Y28382D02*
X13701Y28500D01*
X12752Y28578D02*
X13465Y29291D01*
X13543Y34961D02*
Y38268D01*
X11260Y36457D02*
X12244D01*
X8543Y33740D02*
X11260Y36457D01*
X8543Y32323D02*
Y33740D01*
X11102Y37008D02*
X12953D01*
X8071Y33976D02*
X11102Y37008D01*
X8071Y32520D02*
Y33976D01*
X10984Y37244D02*
X12205D01*
X7835Y34094D02*
X10984Y37244D01*
X7835Y32638D02*
Y34094D01*
X14134Y37992D02*
X15000Y38858D01*
X13893Y26256D02*
X14134Y26496D01*
X13937Y38071D02*
X14961Y39094D01*
X13740Y38189D02*
X14882Y39331D01*
X13543Y38268D02*
X14803Y39528D01*
X33622Y28382D02*
Y29016D01*
X32520Y30118D02*
X33622Y29016D01*
X32520Y30118D02*
Y35748D01*
X31772Y36673D02*
X32618D01*
X33228Y36063D01*
X34724Y23106D02*
Y28976D01*
X33622Y22004D02*
X34724Y23106D01*
X32992Y30354D02*
Y35984D01*
X32540Y36437D02*
X32992Y35984D01*
X31772Y36437D02*
X32540D01*
X32992Y30354D02*
X34488Y28858D01*
Y24996D02*
Y28858D01*
X33622Y24130D02*
X34488Y24996D01*
X34252Y26886D02*
Y28740D01*
X32756Y30236D02*
X34252Y28740D01*
X32756Y30236D02*
Y35866D01*
X32421Y36201D02*
X32756Y35866D01*
X31772Y36201D02*
X32421D01*
X33622Y26256D02*
X34252Y26886D01*
X31772Y35965D02*
X32303D01*
X32520Y35748D01*
X12953Y26752D02*
X13504Y27303D01*
X12953Y25984D02*
Y26752D01*
X33661Y32953D02*
X33740D01*
X34528Y33740D01*
X33819Y34370D02*
Y34449D01*
Y34370D02*
X33976Y34213D01*
Y33976D02*
X36890D01*
X33661Y33661D02*
X33976Y33976D01*
Y34213D02*
X36969D01*
X34528Y33740D02*
X36811D01*
X37047Y34449D02*
X40512Y30984D01*
Y24878D02*
Y30984D01*
X39370Y23736D02*
X40512Y24878D01*
X36969Y34213D02*
X40276Y30906D01*
Y26767D02*
Y30906D01*
X39370Y25862D02*
X40276Y26767D01*
X36890Y33976D02*
X40039Y30827D01*
Y28657D02*
Y30827D01*
X39370Y27988D02*
X40039Y28657D01*
X36811Y33740D02*
X39370Y31181D01*
Y30114D02*
Y31181D01*
X12815Y10039D02*
X15472Y12697D01*
X7835Y12992D02*
Y16142D01*
Y12992D02*
X10787Y10039D01*
X12815D01*
X8465Y12638D02*
X10866Y10236D01*
X7835Y17142D02*
X7937D01*
X8465Y16614D01*
Y12638D02*
Y16614D01*
X14941Y13169D02*
X15472D01*
X14646Y12874D02*
X14941Y13169D01*
X10945Y10433D02*
X12638D01*
X14646Y12441D01*
Y12874D01*
X11024Y10630D02*
X12559D01*
X14902Y13406D02*
X15472D01*
X12559Y10630D02*
X14449Y12520D01*
Y12953D01*
X14902Y13406D01*
X14843Y12795D02*
X14980Y12933D01*
X15472D01*
X14843Y12362D02*
Y12795D01*
X10866Y10236D02*
X12717D01*
X14843Y12362D01*
X7835Y20551D02*
X8740Y19646D01*
X10197Y13268D02*
X10630Y12835D01*
X7835Y21551D02*
X8016D01*
X8504Y20748D02*
Y21063D01*
X8016Y21551D02*
X8504Y21063D01*
Y20748D02*
X8937Y20315D01*
X9803D01*
X10394Y19724D01*
X9882Y17795D02*
X10197Y17480D01*
Y13268D02*
Y17480D01*
X8661Y12717D02*
X10945Y10433D01*
X8661Y12717D02*
Y17520D01*
X7835Y18346D02*
X8661Y17520D01*
X8858Y12795D02*
X11024Y10630D01*
X8858Y12795D02*
Y17638D01*
X8465Y18032D02*
X8858Y17638D01*
X8465Y18032D02*
Y18717D01*
X7835Y19346D02*
X8465Y18717D01*
X8740Y18071D02*
Y19646D01*
Y18071D02*
X9016Y17795D01*
X9882D01*
X10394Y13386D02*
Y19724D01*
Y13386D02*
X10748Y13032D01*
X12638Y14331D02*
X13346Y15039D01*
X14838D01*
X10748Y13032D02*
X12008D01*
X12638Y13661D01*
Y14331D01*
X10630Y12835D02*
X12087D01*
X14838Y15039D02*
X15054Y14823D01*
X15472D01*
X14764Y14843D02*
X15020Y14587D01*
X15472D01*
X12087Y12835D02*
X12835Y13583D01*
Y14252D01*
X13425Y14843D01*
X14764D01*
X27342Y23217D02*
Y23717D01*
Y24272D01*
X27583Y24513D01*
X28543D01*
X25413Y22217D02*
Y22717D01*
X24498Y23217D02*
X25413D01*
X24498Y22717D02*
X25413D01*
X24448Y22667D02*
X24498Y22717D01*
X25487Y17480D02*
X25524Y17443D01*
X25374D02*
X25524D01*
X24459Y16943D02*
X25374D01*
X24409Y16993D02*
X24459Y16943D01*
Y16443D02*
X25374D01*
Y15943D02*
Y16443D01*
X27303Y15943D02*
Y16443D01*
X21821Y19939D02*
X22736D01*
X22786Y19889D01*
X21821Y20439D02*
X22736D01*
X22786Y20489D01*
X21821Y20439D02*
Y20939D01*
X19892Y19439D02*
Y19939D01*
Y20439D02*
Y20939D01*
X19894Y22218D02*
Y22718D01*
X21823Y23218D02*
Y23718D01*
Y23218D02*
X22738D01*
X21823Y22718D02*
X22738D01*
X28543Y12933D02*
X29193D01*
X28543Y13169D02*
X29311D01*
X38772Y18709D02*
X39370Y19307D01*
X38772Y18299D02*
Y18709D01*
X38819Y16551D02*
X39370Y17102D01*
X38622Y17559D02*
X39370Y18307D01*
X28543Y13406D02*
X29390D01*
X39016Y20157D02*
X39370Y20512D01*
X37441Y20157D02*
X39016D01*
X29370Y13740D02*
Y14409D01*
X29193Y14587D02*
X29370Y14409D01*
X28543Y14587D02*
X29193D01*
X38583Y20724D02*
X39370Y21512D01*
X38583Y20551D02*
Y20724D01*
X38386Y20354D02*
X38583Y20551D01*
X37362Y20354D02*
X38386D01*
X29606Y13819D02*
Y14567D01*
X29350Y14823D02*
X29606Y14567D01*
X28543Y14823D02*
X29350D01*
X28543Y12697D02*
X29114D01*
X32283Y9528D01*
X29193Y12933D02*
X32362Y9764D01*
X29311Y13169D02*
X32480Y10000D01*
X29390Y13406D02*
X32559Y10236D01*
X29370Y13740D02*
X32638Y10472D01*
X29606Y13819D02*
X32717Y10709D01*
X35709D01*
X37087Y12087D01*
X19892Y18790D02*
Y19439D01*
X19213Y18110D02*
X19892Y18790D01*
X18307Y18110D02*
X19213D01*
X15472Y24513D02*
X16471D01*
X17992Y18425D02*
X18307Y18110D01*
X17992Y18425D02*
Y22992D01*
X16471Y24513D02*
X17992Y22992D01*
X7165Y28697D02*
X7835Y28027D01*
X7165Y28697D02*
Y30433D01*
X7598Y30866D01*
X6929Y26807D02*
X7835Y25901D01*
X6929Y26807D02*
Y30512D01*
X7362Y30945D01*
X6693Y24917D02*
X7835Y23775D01*
X6693Y24917D02*
Y30630D01*
X7126Y31063D01*
Y31929D01*
X7835Y30153D02*
Y31614D01*
X8543Y32323D01*
X7598Y30866D02*
Y31693D01*
X8307Y32402D01*
Y33858D01*
X7362Y30945D02*
Y31811D01*
X8071Y32520D01*
X7126Y31929D02*
X7835Y32638D01*
X12835Y35866D02*
X13032Y35669D01*
X12756Y36339D02*
X13032D01*
X12244Y36457D02*
X12835Y35866D01*
X8307Y33858D02*
X11181Y36732D01*
X12362D01*
X12756Y36339D01*
X12205Y37244D02*
X12283Y37323D01*
X16693Y14803D02*
Y17283D01*
X16240Y14350D02*
X16693Y14803D01*
X15472Y14350D02*
X16240D01*
X15472Y14114D02*
X16280D01*
X15472Y13878D02*
X16319D01*
X15472Y13642D02*
X16358D01*
X16280Y14114D02*
X16890Y14724D01*
X16319Y13878D02*
X17087Y14646D01*
X16358Y13642D02*
X17283Y14567D01*
Y17598D01*
X17087Y14646D02*
Y17480D01*
X16890Y14724D02*
Y17402D01*
X15000Y18268D02*
X16614D01*
X17283Y17598D01*
X14921Y18071D02*
X16496D01*
X17087Y17480D01*
X14843Y17874D02*
X16417D01*
X16890Y17402D01*
X14764Y17677D02*
X16299D01*
X16693Y17283D01*
X14961Y39094D02*
X16654D01*
X17520Y38228D01*
X15000Y38858D02*
X16614D01*
X17323Y38150D01*
X12752Y24882D02*
X13504Y24130D01*
X13583Y18858D02*
X14764Y17677D01*
X12559Y23031D02*
Y28661D01*
Y23031D02*
X13543Y22047D01*
X13189Y25748D02*
X14173D01*
X12953Y25984D02*
X13189Y25748D01*
X13583Y26256D02*
X13893D01*
X12752Y24882D02*
Y28578D01*
X14882Y39331D02*
X16772D01*
X18150Y37953D01*
X19252D01*
X19724Y37480D01*
X14803Y39528D02*
X16850D01*
X18228Y38150D01*
X19370D01*
X19961Y37559D01*
Y36575D02*
Y37559D01*
X19350Y35965D02*
X19961Y36575D01*
X18701Y35965D02*
X19350D01*
X18701Y36201D02*
X19272D01*
X19724Y36654D01*
Y37480D01*
X35433Y19173D02*
X36433D01*
X37087Y12087D02*
Y20079D01*
X37362Y20354D01*
X38425Y17953D02*
X38772Y18299D01*
X17520Y37402D02*
Y38228D01*
Y37402D02*
X18248Y36673D01*
X18701D01*
X17323Y37323D02*
Y38150D01*
Y37323D02*
X18209Y36437D01*
X18701D01*
X28091Y14350D02*
X28543D01*
X28051Y14114D02*
X28543D01*
X27303Y17443D02*
X27404D01*
X25487Y17480D02*
X26339D01*
X27992Y14449D02*
X28091Y14350D01*
X27795Y14370D02*
X28051Y14114D01*
X27402Y14173D02*
X27933Y13642D01*
X28543D01*
X27598Y14291D02*
X28012Y13878D01*
X28543D01*
X27598Y14291D02*
Y15118D01*
X28543Y15768D02*
X29390D01*
X30079Y16457D01*
X28543Y15532D02*
X29862D01*
X30039Y15709D01*
X29626Y15059D02*
X30079Y14606D01*
X28543Y15059D02*
X29626D01*
X28543Y15295D02*
X30374D01*
D15*
X24637Y17541D02*
Y17658D01*
X24370Y17273D02*
X24637Y17541D01*
X24193Y17273D02*
X24370D01*
X24109Y17190D02*
X24193Y17273D01*
X24109Y15369D02*
Y17190D01*
Y15369D02*
X24488Y14990D01*
Y14980D02*
Y14990D01*
X32531Y17009D02*
X32962D01*
X32962Y17009D01*
X23376Y20699D02*
Y20780D01*
X23348Y20808D02*
X23376Y20780D01*
X22788Y22277D02*
X22888Y22177D01*
X23118D01*
X23506Y21789D01*
Y20967D02*
Y21789D01*
X23483Y20944D02*
X23506Y20967D01*
X39628Y21939D02*
X40187D01*
X39571Y21996D02*
X39628Y21939D01*
X39169Y21996D02*
X39571D01*
X39112Y21939D02*
X39169Y21996D01*
X38642Y21939D02*
X39112D01*
X38281Y21579D02*
X38642Y21939D01*
X37673Y21579D02*
X38281D01*
X37500Y21604D02*
X37648D01*
X36817Y20921D02*
X37500Y21604D01*
X36817Y20349D02*
Y20921D01*
X37648Y21604D02*
X37673Y21579D01*
X36817Y18349D02*
Y18997D01*
Y18349D02*
X36829Y18337D01*
Y18009D02*
Y18337D01*
X36817Y17997D02*
X36829Y18009D01*
X36817Y17349D02*
Y17997D01*
Y19349D02*
Y19998D01*
Y19349D02*
X36829Y19337D01*
Y19009D02*
Y19337D01*
X36817Y18997D02*
X36829Y19009D01*
X36817Y20349D02*
X36829Y20337D01*
Y20009D02*
Y20337D01*
X36817Y19998D02*
X36829Y20009D01*
X36817Y17349D02*
X36829Y17337D01*
Y17009D02*
Y17337D01*
X36597Y16778D02*
X36829Y17009D01*
X36269Y16778D02*
X36597D01*
X36257Y16789D02*
X36269Y16778D01*
X36049Y16789D02*
X36257D01*
X35260Y15173D02*
X35433D01*
X32490Y17943D02*
X35260Y15173D01*
X32490Y17943D02*
Y18258D01*
X32962Y17009D02*
X34508Y15463D01*
X27638Y10354D02*
X28671D01*
X24488Y14980D02*
X24803D01*
X23348Y20808D02*
X23483Y20944D01*
X22788Y22277D02*
Y22668D01*
X35433Y16173D02*
X36049Y16789D01*
X40187Y14173D02*
Y21939D01*
D25*
X22126Y40709D02*
D03*
X25079D02*
D03*
X22165Y11024D02*
D03*
X25118D02*
D03*
D26*
X37874Y16087D02*
D03*
Y18567D02*
D03*
X9449Y16126D02*
D03*
Y18606D02*
D03*
X37874Y22063D02*
D03*
X9488D02*
D03*
X7835Y19346D02*
D03*
Y17142D02*
D03*
Y21551D02*
D03*
X39370Y21512D02*
D03*
Y19307D02*
D03*
Y17102D02*
D03*
X26388Y22451D02*
D03*
X32736Y13967D02*
D03*
D27*
X37874Y17087D02*
D03*
Y19567D02*
D03*
X9449Y17126D02*
D03*
Y19606D02*
D03*
X37874Y21063D02*
D03*
X9488D02*
D03*
X7835Y18346D02*
D03*
Y16142D02*
D03*
Y20551D02*
D03*
X39370Y20512D02*
D03*
Y18307D02*
D03*
Y16102D02*
D03*
D28*
X7835Y23775D02*
D03*
Y25901D02*
D03*
Y28027D02*
D03*
X39370Y30114D02*
D03*
X7835Y30153D02*
D03*
X13583Y28382D02*
D03*
Y26256D02*
D03*
Y24130D02*
D03*
Y22004D02*
D03*
X33622Y26256D02*
D03*
Y28382D02*
D03*
Y24130D02*
D03*
Y22004D02*
D03*
X39370Y23736D02*
D03*
Y25862D02*
D03*
Y27988D02*
D03*
D29*
X7835Y22775D02*
D03*
Y24901D02*
D03*
Y27027D02*
D03*
X39370Y29114D02*
D03*
X7835Y29153D02*
D03*
X13583Y27382D02*
D03*
Y25256D02*
D03*
Y23130D02*
D03*
Y21004D02*
D03*
X33622Y25256D02*
D03*
Y27382D02*
D03*
Y23130D02*
D03*
Y21004D02*
D03*
X39370Y22736D02*
D03*
Y24862D02*
D03*
Y26988D02*
D03*
D30*
X11811Y35433D02*
D03*
X35433Y11811D02*
D03*
X11811D02*
D03*
X35433Y35433D02*
D03*
D31*
X11024Y33173D02*
D03*
Y32173D02*
D03*
Y31173D02*
D03*
Y30173D02*
D03*
Y29173D02*
D03*
Y28173D02*
D03*
Y27173D02*
D03*
Y26173D02*
D03*
Y25173D02*
D03*
Y24173D02*
D03*
Y23173D02*
D03*
Y22173D02*
D03*
Y21173D02*
D03*
Y20173D02*
D03*
Y19173D02*
D03*
Y18173D02*
D03*
Y17173D02*
D03*
Y16173D02*
D03*
Y15173D02*
D03*
X12024Y33173D02*
D03*
Y32173D02*
D03*
Y31173D02*
D03*
Y30173D02*
D03*
Y29173D02*
D03*
Y28173D02*
D03*
Y27173D02*
D03*
Y26173D02*
D03*
Y25173D02*
D03*
Y24173D02*
D03*
Y23173D02*
D03*
Y22173D02*
D03*
Y21173D02*
D03*
Y20173D02*
D03*
Y19173D02*
D03*
Y18173D02*
D03*
Y17173D02*
D03*
Y16173D02*
D03*
Y15173D02*
D03*
Y14173D02*
D03*
X35433Y33173D02*
D03*
Y32173D02*
D03*
Y31173D02*
D03*
Y30173D02*
D03*
Y29173D02*
D03*
Y28173D02*
D03*
Y27173D02*
D03*
Y26173D02*
D03*
Y25173D02*
D03*
Y24173D02*
D03*
Y23173D02*
D03*
Y22173D02*
D03*
Y21173D02*
D03*
Y20173D02*
D03*
Y19173D02*
D03*
Y18173D02*
D03*
Y17173D02*
D03*
Y16173D02*
D03*
Y15173D02*
D03*
X36433Y33173D02*
D03*
Y32173D02*
D03*
Y31173D02*
D03*
Y30173D02*
D03*
Y29173D02*
D03*
Y28173D02*
D03*
Y27173D02*
D03*
Y26173D02*
D03*
Y25173D02*
D03*
Y24173D02*
D03*
Y23173D02*
D03*
Y22173D02*
D03*
Y21173D02*
D03*
Y20173D02*
D03*
Y19173D02*
D03*
Y18173D02*
D03*
Y17173D02*
D03*
Y16173D02*
D03*
Y15173D02*
D03*
Y14173D02*
D03*
D32*
X11024D02*
D03*
X35433D02*
D03*
D33*
X24370Y21496D02*
D03*
X20108Y24813D02*
D03*
X21654Y24803D02*
D03*
X24449D02*
D03*
X22825Y21496D02*
D03*
X20787Y15276D02*
D03*
X26457Y15197D02*
D03*
D34*
X24637Y17658D02*
D03*
X21280Y18110D02*
D03*
X32531Y17009D02*
D03*
X23376Y20699D02*
D03*
X34675Y37668D02*
D03*
X36378Y35069D02*
D03*
X25197Y32362D02*
D03*
X23740Y30906D02*
D03*
X27165Y30030D02*
D03*
X33681Y15305D02*
D03*
X14636Y29911D02*
D03*
X34124Y17402D02*
D03*
X36841Y35837D02*
D03*
X26978Y35551D02*
D03*
X34508Y15463D02*
D03*
X28671Y10354D02*
D03*
X27638D02*
D03*
X24813Y14970D02*
D03*
X26703Y34892D02*
D03*
X22628Y30817D02*
D03*
X24055Y22884D02*
D03*
X32490Y18258D02*
D03*
X32411Y17657D02*
D03*
X21063Y22657D02*
D03*
X24006Y26622D02*
D03*
X22788Y25849D02*
D03*
X23917Y20463D02*
D03*
D35*
X24450Y15749D02*
D03*
X30118Y16457D02*
D03*
X17559Y21998D02*
D03*
X17549Y20640D02*
D03*
Y21299D02*
D03*
X29941Y31919D02*
D03*
X29961Y33346D02*
D03*
Y32648D02*
D03*
X30935Y20817D02*
D03*
X30945Y21988D02*
D03*
Y23248D02*
D03*
X34291Y34961D02*
D03*
X17717Y34803D02*
D03*
Y35433D02*
D03*
X14567Y33189D02*
D03*
Y31181D02*
D03*
Y32165D02*
D03*
X17717Y36063D02*
D03*
X29331Y34646D02*
D03*
Y35236D02*
D03*
X33661Y32953D02*
D03*
X33819Y34449D02*
D03*
X33661Y33661D02*
D03*
X30984Y13071D02*
D03*
Y17047D02*
D03*
X16260D02*
D03*
X17913D02*
D03*
Y15197D02*
D03*
X16260D02*
D03*
X13032Y35669D02*
D03*
Y36339D02*
D03*
Y37008D02*
D03*
X12402Y37441D02*
D03*
X30984Y16378D02*
D03*
X26339Y17480D02*
D03*
X30039Y15728D02*
D03*
X30433Y15157D02*
D03*
X30079Y14606D02*
D03*
X21063Y34931D02*
D03*
Y34134D02*
D03*
Y33356D02*
D03*
X17717Y32283D02*
D03*
Y31496D02*
D03*
Y30709D02*
D03*
X22667Y18317D02*
D03*
X23081Y18780D02*
D03*
D36*
X25374Y16943D02*
X26526D01*
X26778Y16691D01*
X27921D01*
X28135Y16476D01*
X14173Y25748D02*
X14363Y25558D01*
Y18905D02*
Y25558D01*
X14114Y22783D02*
Y24645D01*
Y22783D02*
X14253Y22644D01*
Y20654D02*
Y22644D01*
X14037Y20438D02*
X14253Y20654D01*
X14037Y18955D02*
Y20438D01*
X14113Y20670D02*
Y22582D01*
X13927Y20484D02*
X14113Y20670D01*
X13927Y18789D02*
Y20484D01*
X14113Y22582D02*
X14122Y22590D01*
X14363Y18905D02*
X14363Y18904D01*
X14037Y18955D02*
X14224Y18768D01*
X13927Y18789D02*
X14085Y18632D01*
D37*
X16437Y20719D02*
D03*
D38*
X32323Y13563D02*
D03*
D39*
X29719Y21663D02*
D03*
D40*
X18273Y30778D02*
D03*
M02*
