M48
;Layer_Color=6321
;FILE_FORMAT=2:4
INCH,LZ
;TYPE=PLATED
T1F00S00C0.0236
T2F00S00C0.0280
T3F00S00C0.0390
T4F00S00C0.0394
T5F00S00C0.0402
T6F00S00C0.0512
T7F00S00C0.0787
T8F00S00C0.1378
T9F00S00C0.1772
;TYPE=NON_PLATED
T10F00S00C0.0413
T11F00S00C0.0571
%
T01
X027638Y010354
X028671
X024813Y01497
X033681Y015305
X034508Y015463
X034124Y017402
X032411Y017657
X03249Y018258
X032531Y017009
X024637Y017658
X023917Y020463
X023376Y020699
X024055Y022884
X021063Y022657
X02128Y01811
X022788Y025849
X024006Y026622
X02374Y030906
X022628Y030817
X027165Y03003
X014636Y029911
X025197Y032362
X026703Y034892
X026978Y035551
X034675Y037668
X036841Y035837
X036378Y035069
T02
X01626Y015197
X017913
X030433Y015157
X030079Y014606
X030984Y013071
Y016378
Y017047
X030118Y016457
X030039Y015728
X026339Y01748
X02445Y015749
X022667Y018317
X023081Y01878
X017913Y017047
X01626
X017549Y02064
Y021299
X017559Y021998
X017717Y030709
X030945Y023248
Y021988
X030935Y020817
X014567Y031181
Y032165
Y033189
X013032Y035669
Y036339
Y037008
X012402Y037441
X017717Y036063
Y035433
Y034803
Y032283
Y031496
X021063Y033356
Y034134
Y034931
X029331Y034646
Y035236
X029961Y033346
Y032648
X029941Y031919
X033661Y032953
Y033661
X033819Y034449
X034291Y034961
T03
X033622Y021004
Y022004
Y02313
Y02413
Y025256
Y026256
Y027382
Y028382
X03937Y027988
Y026988
Y025862
Y024862
Y023736
Y022736
Y029114
Y030114
X013583Y028382
Y027382
Y026256
Y025256
Y02413
Y02313
Y022004
Y021004
X007835Y022775
Y023775
Y024901
Y025901
Y027027
Y028027
Y029153
Y030153
T04
X037874Y016087
Y017087
Y018567
Y019567
Y021063
Y022063
X03937Y021512
Y020512
Y019307
Y018307
Y017102
Y016102
X026388Y022451
X009488Y022063
Y021063
X009449Y019606
Y018606
Y017126
Y016126
X007835Y016142
Y017142
Y018346
Y019346
Y020551
Y021551
T05
X011024Y014173
Y015173
X012024
Y014173
X035433
Y015173
X036433
Y014173
Y016173
X035433
Y017173
Y018173
Y019173
Y020173
Y021173
Y022173
Y023173
Y024173
Y025173
Y026173
Y027173
Y028173
Y029173
Y030173
Y031173
X036433
Y030173
Y029173
Y028173
Y027173
Y026173
Y025173
Y024173
Y023173
Y022173
Y021173
Y020173
Y019173
Y018173
Y017173
X012024
X011024
Y018173
Y019173
Y020173
Y021173
Y022173
Y023173
Y024173
Y025173
Y026173
Y027173
Y028173
Y029173
Y030173
Y031173
X012024
Y030173
Y029173
Y028173
Y027173
Y026173
Y025173
Y024173
Y023173
Y022173
Y021173
Y020173
Y019173
Y018173
Y016173
X011024
Y032173
Y033173
X012024
Y032173
X035433
Y033173
X036433
Y032173
T06
X032736Y013967
T07
X020787Y015276
X026457Y015197
X02437Y021496
X022825
X021654Y024803
X020108Y024813
X024449Y024803
T08
X011811Y011811
X035433
X011811Y035433
X035433
T09
X022165Y011024
X025118
X025079Y040709
X022126
T10
X017087Y010079
X030157
T11
X017087Y040236
X030157
M30
