G04 Layer_Color=13813960*
%FSLAX24Y24*%
%MOIN*%
G70*
G01*
G75*
%ADD25C,0.0100*%
D25*
X46134Y49986D02*
Y49486D01*
X46034Y49386D01*
X45834D01*
X45734Y49486D01*
Y49986D01*
X45534Y49386D02*
Y49986D01*
X45234D01*
X45134Y49886D01*
Y49686D01*
X45234Y49586D01*
X45534D01*
X45334D02*
X45134Y49386D01*
X44634Y49986D02*
X44834D01*
X44934Y49886D01*
Y49486D01*
X44834Y49386D01*
X44634D01*
X44534Y49486D01*
Y49886D01*
X44634Y49986D01*
X44334D02*
Y49586D01*
X44135Y49386D01*
X43935Y49586D01*
Y49986D01*
X43135Y49386D02*
Y49986D01*
X42835D01*
X42735Y49886D01*
Y49686D01*
X42835Y49586D01*
X43135D01*
X42435Y49386D02*
X42235D01*
X42135Y49486D01*
Y49686D01*
X42235Y49786D01*
X42435D01*
X42535Y49686D01*
Y49486D01*
X42435Y49386D01*
X41935Y49786D02*
Y49486D01*
X41835Y49386D01*
X41735Y49486D01*
X41635Y49386D01*
X41535Y49486D01*
Y49786D01*
X41036Y49386D02*
X41235D01*
X41335Y49486D01*
Y49686D01*
X41235Y49786D01*
X41036D01*
X40936Y49686D01*
Y49586D01*
X41335D01*
X40736Y49786D02*
Y49386D01*
Y49586D01*
X40636Y49686D01*
X40536Y49786D01*
X40436D01*
X39536Y49986D02*
Y49386D01*
X39236D01*
X39136Y49486D01*
Y49886D01*
X39236Y49986D01*
X39536D01*
X38936Y49386D02*
X38736D01*
X38836D01*
Y49786D01*
X38936D01*
X38436Y49386D02*
X38136D01*
X38036Y49486D01*
X38136Y49586D01*
X38336D01*
X38436Y49686D01*
X38336Y49786D01*
X38036D01*
X37737Y49886D02*
Y49786D01*
X37837D01*
X37637D01*
X37737D01*
Y49486D01*
X37637Y49386D01*
X37337Y49786D02*
Y49386D01*
Y49586D01*
X37237Y49686D01*
X37137Y49786D01*
X37037D01*
X36737Y49386D02*
X36537D01*
X36637D01*
Y49786D01*
X36737D01*
X36237Y49986D02*
Y49386D01*
X35937D01*
X35837Y49486D01*
Y49586D01*
Y49686D01*
X35937Y49786D01*
X36237D01*
X35637D02*
Y49486D01*
X35537Y49386D01*
X35237D01*
Y49786D01*
X34937Y49886D02*
Y49786D01*
X35037D01*
X34838D01*
X34937D01*
Y49486D01*
X34838Y49386D01*
X34538D02*
X34338D01*
X34438D01*
Y49786D01*
X34538D01*
X33938Y49386D02*
X33738D01*
X33638Y49486D01*
Y49686D01*
X33738Y49786D01*
X33938D01*
X34038Y49686D01*
Y49486D01*
X33938Y49386D01*
X33438D02*
Y49786D01*
X33138D01*
X33038Y49686D01*
Y49386D01*
X32238Y49986D02*
Y49386D01*
X31938D01*
X31838Y49486D01*
Y49586D01*
X31938Y49686D01*
X32238D01*
X31938D01*
X31838Y49786D01*
Y49886D01*
X31938Y49986D01*
X32238D01*
X31539Y49386D02*
X31339D01*
X31239Y49486D01*
Y49686D01*
X31339Y49786D01*
X31539D01*
X31639Y49686D01*
Y49486D01*
X31539Y49386D01*
X30939Y49786D02*
X30739D01*
X30639Y49686D01*
Y49386D01*
X30939D01*
X31039Y49486D01*
X30939Y49586D01*
X30639D01*
X30439Y49786D02*
Y49386D01*
Y49586D01*
X30339Y49686D01*
X30239Y49786D01*
X30139D01*
X29439Y49986D02*
Y49386D01*
X29739D01*
X29839Y49486D01*
Y49686D01*
X29739Y49786D01*
X29439D01*
X28640Y49986D02*
Y49586D01*
X28440Y49386D01*
X28240Y49586D01*
Y49986D01*
X28040Y49886D02*
X27940Y49986D01*
X27740D01*
X27640Y49886D01*
Y49786D01*
X27740Y49686D01*
X27840D01*
X27740D01*
X27640Y49586D01*
Y49486D01*
X27740Y49386D01*
X27940D01*
X28040Y49486D01*
X27440Y49386D02*
Y49486D01*
X27340D01*
Y49386D01*
X27440D01*
X26940Y49886D02*
X26840Y49986D01*
X26640D01*
X26540Y49886D01*
Y49486D01*
X26640Y49386D01*
X26840D01*
X26940Y49486D01*
Y49886D01*
X46134Y49001D02*
Y48402D01*
X45734D01*
X45534D02*
Y49001D01*
X45334Y48801D01*
X45134Y49001D01*
Y48402D01*
X44534Y49001D02*
X44934D01*
Y48701D01*
X44734Y48801D01*
X44634D01*
X44534Y48701D01*
Y48502D01*
X44634Y48402D01*
X44834D01*
X44934Y48502D01*
X44334Y48402D02*
X44135D01*
X44234D01*
Y49001D01*
X44334Y48901D01*
X43835Y48402D02*
X43635D01*
X43735D01*
Y49001D01*
X43835Y48901D01*
X43335Y49001D02*
X42935D01*
Y48901D01*
X43335Y48502D01*
Y48402D01*
X42135Y49001D02*
Y48402D01*
X41835D01*
X41735Y48502D01*
Y48602D01*
X41835Y48701D01*
X42135D01*
X41835D01*
X41735Y48801D01*
Y48901D01*
X41835Y49001D01*
X42135D01*
X41535Y48801D02*
Y48502D01*
X41435Y48402D01*
X41135D01*
Y48801D01*
X40536D02*
X40836D01*
X40936Y48701D01*
Y48502D01*
X40836Y48402D01*
X40536D01*
X40336D02*
Y49001D01*
Y48602D02*
X40036Y48801D01*
X40336Y48602D02*
X40036Y48402D01*
X39136Y48901D02*
X39036Y49001D01*
X38836D01*
X38736Y48901D01*
Y48801D01*
X38836Y48701D01*
X38936D01*
X38836D01*
X38736Y48602D01*
Y48502D01*
X38836Y48402D01*
X39036D01*
X39136Y48502D01*
X38536Y48901D02*
X38436Y49001D01*
X38236D01*
X38136Y48901D01*
Y48502D01*
X38236Y48402D01*
X38436D01*
X38536Y48502D01*
Y48901D01*
X37937Y48701D02*
X37537D01*
X36937Y49001D02*
X37137Y48901D01*
X37337Y48701D01*
Y48502D01*
X37237Y48402D01*
X37037D01*
X36937Y48502D01*
Y48602D01*
X37037Y48701D01*
X37337D01*
X36737Y48901D02*
X36637Y49001D01*
X36437D01*
X36337Y48901D01*
Y48502D01*
X36437Y48402D01*
X36637D01*
X36737Y48502D01*
Y48901D01*
X36137Y49001D02*
Y48602D01*
X35937Y48402D01*
X35737Y48602D01*
Y49001D01*
X34937D02*
X34738D01*
X34838D01*
Y48402D01*
X34937D01*
X34738D01*
X34438D02*
Y48801D01*
X34138D01*
X34038Y48701D01*
Y48402D01*
X33738Y48302D02*
X33638Y48402D01*
Y48502D01*
X33738D01*
Y48402D01*
X33638D01*
X33738Y48302D01*
X33838Y48202D01*
X32638Y48402D02*
X32438D01*
X32538D01*
Y49001D01*
X32638Y48901D01*
X31739Y48402D02*
X32138D01*
X31739Y48801D01*
Y48901D01*
X31838Y49001D01*
X32038D01*
X32138Y48901D01*
X31539Y49001D02*
Y48602D01*
X31339Y48402D01*
X31139Y48602D01*
Y49001D01*
X30039D02*
X30239D01*
X30339Y48901D01*
Y48502D01*
X30239Y48402D01*
X30039D01*
X29939Y48502D01*
Y48901D01*
X30039Y49001D01*
X29739Y48801D02*
Y48502D01*
X29639Y48402D01*
X29339D01*
Y48801D01*
X29039Y48901D02*
Y48801D01*
X29139D01*
X28939D01*
X29039D01*
Y48502D01*
X28939Y48402D01*
X45734Y46836D02*
X45934D01*
X45834D01*
Y46336D01*
X45934Y46236D01*
X46034D01*
X46134Y46336D01*
X45434Y46236D02*
X45234D01*
X45134Y46336D01*
Y46536D01*
X45234Y46636D01*
X45434D01*
X45534Y46536D01*
Y46336D01*
X45434Y46236D01*
X44934Y46636D02*
Y46236D01*
Y46436D01*
X44834Y46536D01*
X44734Y46636D01*
X44634D01*
X44334Y46236D02*
X44135D01*
X44234D01*
Y46636D01*
X44334D01*
X43735D02*
X43535D01*
X43435Y46536D01*
Y46236D01*
X43735D01*
X43835Y46336D01*
X43735Y46436D01*
X43435D01*
X43235Y46236D02*
Y46636D01*
X42935D01*
X42835Y46536D01*
Y46236D01*
X42035Y46836D02*
Y46236D01*
X41735D01*
X41635Y46336D01*
Y46436D01*
X41735Y46536D01*
X42035D01*
X41735D01*
X41635Y46636D01*
Y46736D01*
X41735Y46836D01*
X42035D01*
X41435Y46636D02*
Y46236D01*
Y46436D01*
X41335Y46536D01*
X41235Y46636D01*
X41135D01*
X40836D02*
Y46336D01*
X40736Y46236D01*
X40436D01*
Y46636D01*
X40236Y46236D02*
X39936D01*
X39836Y46336D01*
X39936Y46436D01*
X40136D01*
X40236Y46536D01*
X40136Y46636D01*
X39836D01*
X39636Y46236D02*
X39436D01*
X39536D01*
Y46836D01*
X39636D01*
X39136Y46236D02*
X38936D01*
X39036D01*
Y46636D01*
X39136D01*
X38636Y46236D02*
Y46636D01*
X38336D01*
X38236Y46536D01*
Y46236D01*
X37637Y46836D02*
Y46236D01*
X37937D01*
X38036Y46336D01*
Y46536D01*
X37937Y46636D01*
X37637D01*
X37337Y46136D02*
X37237Y46236D01*
Y46336D01*
X37337D01*
Y46236D01*
X37237D01*
X37337Y46136D01*
X37437Y46036D01*
X36237Y46336D02*
X36137Y46236D01*
X35937D01*
X35837Y46336D01*
Y46736D01*
X35937Y46836D01*
X36137D01*
X36237Y46736D01*
Y46636D01*
X36137Y46536D01*
X35837D01*
X35637Y46236D02*
X35237Y46636D01*
X34638Y46236D02*
X35037D01*
X34638Y46636D01*
Y46736D01*
X34738Y46836D01*
X34937D01*
X35037Y46736D01*
X34438D02*
X34338Y46836D01*
X34138D01*
X34038Y46736D01*
Y46336D01*
X34138Y46236D01*
X34338D01*
X34438Y46336D01*
Y46736D01*
X33838Y46236D02*
X33638D01*
X33738D01*
Y46836D01*
X33838Y46736D01*
X33338D02*
X33238Y46836D01*
X33038D01*
X32938Y46736D01*
Y46636D01*
X33038Y46536D01*
X32938Y46436D01*
Y46336D01*
X33038Y46236D01*
X33238D01*
X33338Y46336D01*
Y46436D01*
X33238Y46536D01*
X33338Y46636D01*
Y46736D01*
X33238Y46536D02*
X33038D01*
X46134Y48017D02*
X45934D01*
X46034D01*
Y47417D01*
X46134D01*
X45934D01*
X45634D02*
Y47817D01*
X45534D01*
X45434Y47717D01*
Y47417D01*
Y47717D01*
X45334Y47817D01*
X45234Y47717D01*
Y47417D01*
X44934Y47817D02*
X44734D01*
X44634Y47717D01*
Y47417D01*
X44934D01*
X45034Y47517D01*
X44934Y47617D01*
X44634D01*
X44434Y47817D02*
X44035Y47417D01*
X44234Y47617D01*
X44035Y47817D01*
X44434Y47417D01*
X43235Y47717D02*
X42835D01*
X41635Y47417D02*
X42035D01*
X41635Y47817D01*
Y47917D01*
X41735Y48017D01*
X41935D01*
X42035Y47917D01*
X41435D02*
X41335Y48017D01*
X41135D01*
X41036Y47917D01*
Y47517D01*
X41135Y47417D01*
X41335D01*
X41435Y47517D01*
Y47917D01*
X40836Y47417D02*
Y47817D01*
X40636Y48017D01*
X40436Y47817D01*
Y47417D01*
Y47717D01*
X40836D01*
X40136Y47317D02*
X40036Y47417D01*
Y47517D01*
X40136D01*
Y47417D01*
X40036D01*
X40136Y47317D01*
X40236Y47217D01*
X39036Y47417D02*
Y48017D01*
X38636Y47417D01*
Y48017D01*
X38136D02*
X38336D01*
X38436Y47917D01*
Y47517D01*
X38336Y47417D01*
X38136D01*
X38036Y47517D01*
Y47917D01*
X38136Y48017D01*
X36837D02*
X37237D01*
Y47717D01*
X37037D01*
X37237D01*
Y47417D01*
X36637Y48017D02*
Y47517D01*
X36537Y47417D01*
X36337D01*
X36237Y47517D01*
Y48017D01*
X35637Y47917D02*
X35737Y48017D01*
X35937D01*
X36037Y47917D01*
Y47817D01*
X35937Y47717D01*
X35737D01*
X35637Y47617D01*
Y47517D01*
X35737Y47417D01*
X35937D01*
X36037Y47517D01*
X35037Y48017D02*
X35437D01*
Y47417D01*
X35037D01*
X35437Y47717D02*
X35237D01*
M02*
