G04 Layer_Color=8150272*
%FSLAX24Y24*%
%MOIN*%
G70*
G01*
G75*
%ADD31C,0.0710*%
%ADD32R,0.0730X0.0880*%
%ADD33O,0.0730X0.0880*%
%ADD34C,0.0680*%
%ADD35O,0.0880X0.0680*%
%ADD36R,0.0880X0.0680*%
%ADD37R,0.0592X0.0592*%
%ADD38C,0.0592*%
%ADD39R,0.0710X0.0710*%
%ADD40R,0.0867X0.0867*%
%ADD41C,0.0867*%
%ADD42R,0.0680X0.0680*%
%ADD43C,0.1655*%
%ADD44C,0.0580*%
D31*
X23622Y20866D02*
D03*
Y16929D02*
D03*
Y26772D02*
D03*
Y22835D02*
D03*
X20472Y20866D02*
D03*
Y16929D02*
D03*
X22047Y26772D02*
D03*
Y22835D02*
D03*
X20472Y26772D02*
D03*
Y22835D02*
D03*
X11811Y31890D02*
D03*
Y27953D02*
D03*
X22047Y20866D02*
D03*
Y16929D02*
D03*
X12748Y23717D02*
D03*
Y22717D02*
D03*
X18748Y24717D02*
D03*
X12748Y21717D02*
D03*
Y20717D02*
D03*
Y19717D02*
D03*
Y18717D02*
D03*
Y17717D02*
D03*
Y16717D02*
D03*
Y15717D02*
D03*
Y14717D02*
D03*
Y13717D02*
D03*
Y12717D02*
D03*
Y11717D02*
D03*
Y10717D02*
D03*
X18748D02*
D03*
Y11717D02*
D03*
Y12717D02*
D03*
Y13717D02*
D03*
Y14717D02*
D03*
Y15717D02*
D03*
Y16717D02*
D03*
Y17717D02*
D03*
Y18717D02*
D03*
Y19717D02*
D03*
Y20717D02*
D03*
Y21717D02*
D03*
Y22717D02*
D03*
Y23717D02*
D03*
D32*
X20941Y10873D02*
D03*
D33*
X21941D02*
D03*
X23941D02*
D03*
Y14328D02*
D03*
X22941D02*
D03*
X21941D02*
D03*
X20941D02*
D03*
X22941Y10873D02*
D03*
D34*
X13780Y34449D02*
D03*
Y36417D02*
D03*
X11417Y24622D02*
D03*
X26378Y14386D02*
D03*
X28740Y14386D02*
D03*
X16535Y30315D02*
D03*
Y31315D02*
D03*
Y32315D02*
D03*
Y33315D02*
D03*
Y34315D02*
D03*
Y35315D02*
D03*
Y36315D02*
D03*
Y37315D02*
D03*
X27165Y11024D02*
D03*
X11024D02*
D03*
Y37795D02*
D03*
X11811Y34449D02*
D03*
Y36417D02*
D03*
X24803Y23622D02*
D03*
X26378Y22441D02*
D03*
D35*
X26398Y20898D02*
D03*
Y19898D02*
D03*
Y18898D02*
D03*
Y17898D02*
D03*
D36*
Y16898D02*
D03*
D37*
X26378Y24016D02*
D03*
D38*
Y24803D02*
D03*
Y25591D02*
D03*
Y26378D02*
D03*
D39*
X12748Y24717D02*
D03*
D40*
X28740Y18898D02*
D03*
D41*
Y19898D02*
D03*
Y20898D02*
D03*
D42*
X11417Y23622D02*
D03*
X26378Y13386D02*
D03*
X28740Y13386D02*
D03*
D43*
X19435Y29815D02*
D03*
X27435D02*
D03*
X27165Y37795D02*
D03*
X19435Y37815D02*
D03*
D44*
X27760Y19360D02*
D03*
X17390Y27410D02*
D03*
X22420Y18530D02*
D03*
X20820Y25930D02*
D03*
X21370Y24610D02*
D03*
X14470Y21160D02*
D03*
M02*
