G04 Layer_Physical_Order=1*
G04 Layer_Color=25308*
%FSLAX24Y24*%
%MOIN*%
G70*
G01*
G75*
%ADD10C,0.0394*%
%ADD11C,0.0630*%
%ADD12R,0.0650X0.0800*%
%ADD13O,0.0650X0.0800*%
%ADD14C,0.0600*%
%ADD15O,0.0800X0.0600*%
%ADD16R,0.0800X0.0600*%
%ADD17R,0.0512X0.0512*%
%ADD18C,0.0512*%
%ADD19R,0.0630X0.0630*%
%ADD20R,0.0787X0.0787*%
%ADD21C,0.0787*%
%ADD22R,0.0600X0.0600*%
%ADD23C,0.1575*%
%ADD24C,0.0500*%
G36*
X29425Y9945D02*
X9945D01*
Y23228D01*
Y25197D01*
Y39268D01*
X29425D01*
Y9945D01*
D02*
G37*
%LPC*%
G36*
X18748Y15135D02*
X18640Y15121D01*
X18539Y15079D01*
X18452Y15012D01*
X18386Y14926D01*
X18344Y14825D01*
X18329Y14717D01*
X18344Y14608D01*
X18386Y14507D01*
X18452Y14421D01*
X18539Y14354D01*
X18640Y14312D01*
X18748Y14298D01*
X18856Y14312D01*
X18957Y14354D01*
X19044Y14421D01*
X19111Y14507D01*
X19152Y14608D01*
X19167Y14717D01*
X19152Y14825D01*
X19111Y14926D01*
X19044Y15012D01*
X18957Y15079D01*
X18856Y15121D01*
X18748Y15135D01*
D02*
G37*
G36*
X12748Y16135D02*
X12640Y16121D01*
X12539Y16079D01*
X12452Y16012D01*
X12386Y15926D01*
X12344Y15825D01*
X12329Y15717D01*
X12344Y15608D01*
X12386Y15507D01*
X12452Y15421D01*
X12539Y15354D01*
X12640Y15312D01*
X12748Y15298D01*
X12856Y15312D01*
X12957Y15354D01*
X13044Y15421D01*
X13111Y15507D01*
X13152Y15608D01*
X13167Y15717D01*
X13152Y15825D01*
X13111Y15926D01*
X13044Y16012D01*
X12957Y16079D01*
X12856Y16121D01*
X12748Y16135D01*
D02*
G37*
G36*
X18748Y14135D02*
X18640Y14121D01*
X18539Y14079D01*
X18452Y14012D01*
X18386Y13926D01*
X18344Y13825D01*
X18329Y13717D01*
X18344Y13608D01*
X18386Y13507D01*
X18452Y13421D01*
X18539Y13354D01*
X18640Y13312D01*
X18748Y13298D01*
X18856Y13312D01*
X18957Y13354D01*
X19044Y13421D01*
X19111Y13507D01*
X19152Y13608D01*
X19167Y13717D01*
X19152Y13825D01*
X19111Y13926D01*
X19044Y14012D01*
X18957Y14079D01*
X18856Y14121D01*
X18748Y14135D01*
D02*
G37*
G36*
X20941Y14832D02*
X20830Y14817D01*
X20727Y14775D01*
X20638Y14707D01*
X20570Y14618D01*
X20527Y14514D01*
X20512Y14403D01*
Y14253D01*
X20527Y14142D01*
X20570Y14039D01*
X20638Y13950D01*
X20727Y13882D01*
X20830Y13839D01*
X20941Y13825D01*
X21052Y13839D01*
X21155Y13882D01*
X21244Y13950D01*
X21312Y14039D01*
X21355Y14142D01*
X21370Y14253D01*
Y14403D01*
X21355Y14514D01*
X21312Y14618D01*
X21244Y14707D01*
X21155Y14775D01*
X21052Y14817D01*
X20941Y14832D01*
D02*
G37*
G36*
X18748Y16135D02*
X18640Y16121D01*
X18539Y16079D01*
X18452Y16012D01*
X18386Y15926D01*
X18344Y15825D01*
X18329Y15717D01*
X18344Y15608D01*
X18386Y15507D01*
X18452Y15421D01*
X18539Y15354D01*
X18640Y15312D01*
X18748Y15298D01*
X18856Y15312D01*
X18957Y15354D01*
X19044Y15421D01*
X19111Y15507D01*
X19152Y15608D01*
X19167Y15717D01*
X19152Y15825D01*
X19111Y15926D01*
X19044Y16012D01*
X18957Y16079D01*
X18856Y16121D01*
X18748Y16135D01*
D02*
G37*
G36*
X26898Y17298D02*
X25898D01*
Y16498D01*
X26898D01*
Y17298D01*
D02*
G37*
G36*
X18748Y18135D02*
X18640Y18121D01*
X18539Y18079D01*
X18452Y18012D01*
X18386Y17926D01*
X18344Y17825D01*
X18329Y17717D01*
X18344Y17608D01*
X18386Y17507D01*
X18452Y17421D01*
X18539Y17354D01*
X18640Y17312D01*
X18748Y17298D01*
X18856Y17312D01*
X18957Y17354D01*
X19044Y17421D01*
X19111Y17507D01*
X19152Y17608D01*
X19167Y17717D01*
X19152Y17825D01*
X19111Y17926D01*
X19044Y18012D01*
X18957Y18079D01*
X18856Y18121D01*
X18748Y18135D01*
D02*
G37*
G36*
X12748Y17135D02*
X12640Y17121D01*
X12539Y17079D01*
X12452Y17012D01*
X12386Y16926D01*
X12344Y16825D01*
X12329Y16717D01*
X12344Y16608D01*
X12386Y16507D01*
X12452Y16421D01*
X12539Y16354D01*
X12640Y16312D01*
X12748Y16298D01*
X12856Y16312D01*
X12957Y16354D01*
X13044Y16421D01*
X13111Y16507D01*
X13152Y16608D01*
X13167Y16717D01*
X13152Y16825D01*
X13111Y16926D01*
X13044Y17012D01*
X12957Y17079D01*
X12856Y17121D01*
X12748Y17135D01*
D02*
G37*
G36*
X18748D02*
X18640Y17121D01*
X18539Y17079D01*
X18452Y17012D01*
X18386Y16926D01*
X18344Y16825D01*
X18329Y16717D01*
X18344Y16608D01*
X18386Y16507D01*
X18452Y16421D01*
X18539Y16354D01*
X18640Y16312D01*
X18748Y16298D01*
X18856Y16312D01*
X18957Y16354D01*
X19044Y16421D01*
X19111Y16507D01*
X19152Y16608D01*
X19167Y16717D01*
X19152Y16825D01*
X19111Y16926D01*
X19044Y17012D01*
X18957Y17079D01*
X18856Y17121D01*
X18748Y17135D01*
D02*
G37*
G36*
X12748Y11135D02*
X12640Y11121D01*
X12539Y11079D01*
X12452Y11012D01*
X12386Y10926D01*
X12344Y10825D01*
X12329Y10717D01*
X12344Y10608D01*
X12386Y10507D01*
X12452Y10421D01*
X12539Y10354D01*
X12640Y10312D01*
X12748Y10298D01*
X12856Y10312D01*
X12957Y10354D01*
X13044Y10421D01*
X13111Y10507D01*
X13152Y10608D01*
X13167Y10717D01*
X13152Y10825D01*
X13111Y10926D01*
X13044Y11012D01*
X12957Y11079D01*
X12856Y11121D01*
X12748Y11135D01*
D02*
G37*
G36*
X18748D02*
X18640Y11121D01*
X18539Y11079D01*
X18452Y11012D01*
X18386Y10926D01*
X18344Y10825D01*
X18329Y10717D01*
X18344Y10608D01*
X18386Y10507D01*
X18452Y10421D01*
X18539Y10354D01*
X18640Y10312D01*
X18748Y10298D01*
X18856Y10312D01*
X18957Y10354D01*
X19044Y10421D01*
X19111Y10507D01*
X19152Y10608D01*
X19167Y10717D01*
X19152Y10825D01*
X19111Y10926D01*
X19044Y11012D01*
X18957Y11079D01*
X18856Y11121D01*
X18748Y11135D01*
D02*
G37*
G36*
X11024Y11757D02*
X10881Y11743D01*
X10743Y11701D01*
X10616Y11633D01*
X10505Y11542D01*
X10414Y11431D01*
X10346Y11304D01*
X10304Y11167D01*
X10290Y11024D01*
X10304Y10881D01*
X10346Y10743D01*
X10414Y10616D01*
X10505Y10505D01*
X10616Y10414D01*
X10743Y10346D01*
X10881Y10304D01*
X11024Y10290D01*
X11167Y10304D01*
X11304Y10346D01*
X11431Y10414D01*
X11542Y10505D01*
X11633Y10616D01*
X11701Y10743D01*
X11743Y10881D01*
X11757Y11024D01*
X11743Y11167D01*
X11701Y11304D01*
X11633Y11431D01*
X11542Y11542D01*
X11431Y11633D01*
X11304Y11701D01*
X11167Y11743D01*
X11024Y11757D01*
D02*
G37*
G36*
X27165D02*
X27022Y11743D01*
X26885Y11701D01*
X26758Y11633D01*
X26647Y11542D01*
X26556Y11431D01*
X26488Y11304D01*
X26446Y11167D01*
X26432Y11024D01*
X26446Y10881D01*
X26488Y10743D01*
X26556Y10616D01*
X26647Y10505D01*
X26758Y10414D01*
X26885Y10346D01*
X27022Y10304D01*
X27165Y10290D01*
X27308Y10304D01*
X27446Y10346D01*
X27573Y10414D01*
X27684Y10505D01*
X27775Y10616D01*
X27843Y10743D01*
X27885Y10881D01*
X27899Y11024D01*
X27885Y11167D01*
X27843Y11304D01*
X27775Y11431D01*
X27684Y11542D01*
X27573Y11633D01*
X27446Y11701D01*
X27308Y11743D01*
X27165Y11757D01*
D02*
G37*
G36*
X21366Y11373D02*
X20516D01*
Y10373D01*
X21366D01*
Y11373D01*
D02*
G37*
G36*
X12748Y13135D02*
X12640Y13121D01*
X12539Y13079D01*
X12452Y13012D01*
X12386Y12926D01*
X12344Y12825D01*
X12329Y12717D01*
X12344Y12608D01*
X12386Y12507D01*
X12452Y12421D01*
X12539Y12354D01*
X12640Y12312D01*
X12748Y12298D01*
X12856Y12312D01*
X12957Y12354D01*
X13044Y12421D01*
X13111Y12507D01*
X13152Y12608D01*
X13167Y12717D01*
X13152Y12825D01*
X13111Y12926D01*
X13044Y13012D01*
X12957Y13079D01*
X12856Y13121D01*
X12748Y13135D01*
D02*
G37*
G36*
X18748D02*
X18640Y13121D01*
X18539Y13079D01*
X18452Y13012D01*
X18386Y12926D01*
X18344Y12825D01*
X18329Y12717D01*
X18344Y12608D01*
X18386Y12507D01*
X18452Y12421D01*
X18539Y12354D01*
X18640Y12312D01*
X18748Y12298D01*
X18856Y12312D01*
X18957Y12354D01*
X19044Y12421D01*
X19111Y12507D01*
X19152Y12608D01*
X19167Y12717D01*
X19152Y12825D01*
X19111Y12926D01*
X19044Y13012D01*
X18957Y13079D01*
X18856Y13121D01*
X18748Y13135D01*
D02*
G37*
G36*
X12748Y12135D02*
X12640Y12121D01*
X12539Y12079D01*
X12452Y12012D01*
X12386Y11926D01*
X12344Y11825D01*
X12329Y11717D01*
X12344Y11608D01*
X12386Y11507D01*
X12452Y11421D01*
X12539Y11354D01*
X12640Y11312D01*
X12748Y11298D01*
X12856Y11312D01*
X12957Y11354D01*
X13044Y11421D01*
X13111Y11507D01*
X13152Y11608D01*
X13167Y11717D01*
X13152Y11825D01*
X13111Y11926D01*
X13044Y12012D01*
X12957Y12079D01*
X12856Y12121D01*
X12748Y12135D01*
D02*
G37*
G36*
X18748D02*
X18640Y12121D01*
X18539Y12079D01*
X18452Y12012D01*
X18386Y11926D01*
X18344Y11825D01*
X18329Y11717D01*
X18344Y11608D01*
X18386Y11507D01*
X18452Y11421D01*
X18539Y11354D01*
X18640Y11312D01*
X18748Y11298D01*
X18856Y11312D01*
X18957Y11354D01*
X19044Y11421D01*
X19111Y11507D01*
X19152Y11608D01*
X19167Y11717D01*
X19152Y11825D01*
X19111Y11926D01*
X19044Y12012D01*
X18957Y12079D01*
X18856Y12121D01*
X18748Y12135D01*
D02*
G37*
G36*
X11811Y32308D02*
X11703Y32294D01*
X11602Y32252D01*
X11515Y32186D01*
X11449Y32099D01*
X11407Y31998D01*
X11392Y31890D01*
X11407Y31781D01*
X11449Y31680D01*
X11515Y31594D01*
X11602Y31527D01*
X11703Y31485D01*
X11811Y31471D01*
X11919Y31485D01*
X12020Y31527D01*
X12107Y31594D01*
X12173Y31680D01*
X12215Y31781D01*
X12230Y31890D01*
X12215Y31998D01*
X12173Y32099D01*
X12107Y32186D01*
X12020Y32252D01*
X11919Y32294D01*
X11811Y32308D01*
D02*
G37*
G36*
Y34852D02*
X11707Y34839D01*
X11609Y34798D01*
X11526Y34734D01*
X11462Y34651D01*
X11421Y34553D01*
X11408Y34449D01*
X11421Y34344D01*
X11462Y34247D01*
X11526Y34164D01*
X11609Y34099D01*
X11707Y34059D01*
X11811Y34045D01*
X11915Y34059D01*
X12013Y34099D01*
X12096Y34164D01*
X12160Y34247D01*
X12201Y34344D01*
X12214Y34449D01*
X12201Y34553D01*
X12160Y34651D01*
X12096Y34734D01*
X12013Y34798D01*
X11915Y34839D01*
X11811Y34852D01*
D02*
G37*
G36*
X19435Y30707D02*
X19261Y30690D01*
X19094Y30639D01*
X18940Y30556D01*
X18805Y30445D01*
X18694Y30310D01*
X18612Y30156D01*
X18561Y29989D01*
X18544Y29815D01*
X18561Y29641D01*
X18612Y29474D01*
X18694Y29320D01*
X18805Y29184D01*
X18940Y29074D01*
X19094Y28991D01*
X19261Y28940D01*
X19435Y28923D01*
X19609Y28940D01*
X19777Y28991D01*
X19931Y29074D01*
X20066Y29184D01*
X20177Y29320D01*
X20259Y29474D01*
X20310Y29641D01*
X20327Y29815D01*
X20310Y29989D01*
X20259Y30156D01*
X20177Y30310D01*
X20066Y30445D01*
X19931Y30556D01*
X19777Y30639D01*
X19609Y30690D01*
X19435Y30707D01*
D02*
G37*
G36*
X27435D02*
X27261Y30690D01*
X27094Y30639D01*
X26940Y30556D01*
X26805Y30445D01*
X26694Y30310D01*
X26612Y30156D01*
X26561Y29989D01*
X26544Y29815D01*
X26561Y29641D01*
X26612Y29474D01*
X26694Y29320D01*
X26805Y29184D01*
X26940Y29074D01*
X27094Y28991D01*
X27261Y28940D01*
X27435Y28923D01*
X27609Y28940D01*
X27777Y28991D01*
X27931Y29074D01*
X28066Y29184D01*
X28177Y29320D01*
X28259Y29474D01*
X28310Y29641D01*
X28327Y29815D01*
X28310Y29989D01*
X28259Y30156D01*
X28177Y30310D01*
X28066Y30445D01*
X27931Y30556D01*
X27777Y30639D01*
X27609Y30690D01*
X27435Y30707D01*
D02*
G37*
G36*
X16535Y37718D02*
X16431Y37705D01*
X16334Y37664D01*
X16250Y37600D01*
X16186Y37517D01*
X16146Y37419D01*
X16135Y37338D01*
X15718Y36921D01*
X15671Y36859D01*
X15650Y36808D01*
X15641Y36787D01*
X15631Y36710D01*
Y28870D01*
X15641Y28793D01*
X15650Y28771D01*
X15671Y28720D01*
X15718Y28658D01*
X17048Y27329D01*
X17049Y27319D01*
X17084Y27233D01*
X17140Y27160D01*
X17213Y27104D01*
X17299Y27069D01*
X17309Y27068D01*
X17378Y26998D01*
X17440Y26951D01*
X17491Y26930D01*
X17513Y26921D01*
X17590Y26911D01*
X19850D01*
X19927Y26921D01*
X19949Y26930D01*
X20000Y26951D01*
X20062Y26998D01*
X20069Y27005D01*
X20110Y26981D01*
X20068Y26880D01*
X20055Y26777D01*
X19648Y26371D01*
X19601Y26309D01*
X19580Y26258D01*
X19571Y26237D01*
X19561Y26159D01*
Y25538D01*
X19514Y25519D01*
X19462Y25572D01*
X19400Y25619D01*
X19349Y25640D01*
X19327Y25649D01*
X19250Y25659D01*
X18500D01*
X18423Y25649D01*
X18401Y25640D01*
X18350Y25619D01*
X18288Y25572D01*
X17698Y24982D01*
X17651Y24920D01*
X17630Y24869D01*
X17621Y24847D01*
X17611Y24770D01*
Y19003D01*
X13199Y14590D01*
X13170Y14601D01*
X13153Y14616D01*
X13167Y14717D01*
X13152Y14825D01*
X13111Y14926D01*
X13044Y15012D01*
X12957Y15079D01*
X12856Y15121D01*
X12748Y15135D01*
X12640Y15121D01*
X12539Y15079D01*
X12452Y15012D01*
X12386Y14926D01*
X12344Y14825D01*
X12329Y14717D01*
X12344Y14608D01*
X12386Y14507D01*
X12452Y14421D01*
X12539Y14354D01*
X12640Y14312D01*
X12748Y14298D01*
X12849Y14311D01*
X12863Y14294D01*
X12874Y14266D01*
X12742Y14134D01*
X12640Y14121D01*
X12539Y14079D01*
X12452Y14012D01*
X12386Y13926D01*
X12344Y13825D01*
X12329Y13717D01*
X12344Y13608D01*
X12386Y13507D01*
X12452Y13421D01*
X12539Y13354D01*
X12640Y13312D01*
X12748Y13298D01*
X12856Y13312D01*
X12957Y13354D01*
X13044Y13421D01*
X13111Y13507D01*
X13152Y13608D01*
X13166Y13711D01*
X18122Y18667D01*
X18169Y18729D01*
X18190Y18780D01*
X18199Y18801D01*
X18209Y18879D01*
Y24646D01*
X18282Y24719D01*
X18332Y24698D01*
X18344Y24608D01*
X18386Y24507D01*
X18452Y24421D01*
X18539Y24354D01*
X18640Y24312D01*
X18748Y24298D01*
X18856Y24312D01*
X18957Y24354D01*
X19011Y24395D01*
X19061Y24370D01*
Y23063D01*
X19011Y23038D01*
X18957Y23079D01*
X18856Y23121D01*
X18748Y23135D01*
X18640Y23121D01*
X18539Y23079D01*
X18452Y23012D01*
X18386Y22926D01*
X18344Y22825D01*
X18329Y22717D01*
X18344Y22608D01*
X18386Y22507D01*
X18452Y22421D01*
X18539Y22354D01*
X18640Y22312D01*
X18748Y22298D01*
X18856Y22312D01*
X18957Y22354D01*
X19011Y22395D01*
X19061Y22370D01*
Y22063D01*
X19011Y22038D01*
X18957Y22079D01*
X18856Y22121D01*
X18748Y22135D01*
X18640Y22121D01*
X18539Y22079D01*
X18452Y22012D01*
X18386Y21926D01*
X18344Y21825D01*
X18329Y21717D01*
X18344Y21608D01*
X18386Y21507D01*
X18452Y21421D01*
X18539Y21354D01*
X18640Y21312D01*
X18748Y21298D01*
X18856Y21312D01*
X18957Y21354D01*
X19011Y21395D01*
X19061Y21370D01*
Y21063D01*
X19011Y21038D01*
X18957Y21079D01*
X18856Y21121D01*
X18748Y21135D01*
X18640Y21121D01*
X18539Y21079D01*
X18452Y21012D01*
X18386Y20926D01*
X18344Y20825D01*
X18329Y20717D01*
X18344Y20608D01*
X18386Y20507D01*
X18452Y20421D01*
X18539Y20354D01*
X18640Y20312D01*
X18748Y20298D01*
X18856Y20312D01*
X18957Y20354D01*
X19011Y20395D01*
X19061Y20370D01*
Y20063D01*
X19011Y20038D01*
X18957Y20079D01*
X18856Y20121D01*
X18748Y20135D01*
X18640Y20121D01*
X18539Y20079D01*
X18452Y20012D01*
X18386Y19926D01*
X18344Y19825D01*
X18329Y19717D01*
X18344Y19608D01*
X18386Y19507D01*
X18452Y19421D01*
X18539Y19354D01*
X18640Y19312D01*
X18748Y19298D01*
X18856Y19312D01*
X18957Y19354D01*
X19011Y19395D01*
X19061Y19370D01*
Y19197D01*
X19071Y19119D01*
X19080Y19098D01*
X19101Y19047D01*
X19148Y18985D01*
X20451Y17683D01*
Y17345D01*
X20364Y17333D01*
X20263Y17292D01*
X20176Y17225D01*
X20110Y17138D01*
X20068Y17037D01*
X20054Y16929D01*
X20068Y16821D01*
X20110Y16720D01*
X20176Y16633D01*
X20263Y16567D01*
X20364Y16525D01*
X20472Y16511D01*
X20581Y16525D01*
X20682Y16567D01*
X20768Y16633D01*
X20835Y16720D01*
X20877Y16821D01*
X20890Y16924D01*
X20962Y16995D01*
X21009Y17057D01*
X21022Y17087D01*
X21039Y17129D01*
X21049Y17207D01*
Y17807D01*
X21039Y17884D01*
X21030Y17905D01*
X21009Y17956D01*
X20962Y18018D01*
X19659Y19321D01*
Y21932D01*
X19706Y21951D01*
X20173Y21484D01*
Y21158D01*
X20110Y21075D01*
X20068Y20974D01*
X20054Y20866D01*
X20068Y20758D01*
X20110Y20657D01*
X20176Y20570D01*
X20263Y20504D01*
X20364Y20462D01*
X20467Y20448D01*
X22029Y18886D01*
X22091Y18838D01*
X22127Y18824D01*
X22139Y18818D01*
X22144Y18813D01*
X22156Y18766D01*
X22155Y18760D01*
X22114Y18707D01*
X22079Y18621D01*
X22078Y18611D01*
X21218Y17752D01*
X21171Y17690D01*
X21150Y17639D01*
X21141Y17617D01*
X21131Y17540D01*
Y15798D01*
X21141Y15721D01*
X21150Y15700D01*
X21171Y15649D01*
X21218Y15587D01*
X21925Y14880D01*
X21907Y14828D01*
X21830Y14817D01*
X21727Y14775D01*
X21638Y14707D01*
X21570Y14618D01*
X21527Y14514D01*
X21512Y14403D01*
Y14253D01*
X21527Y14142D01*
X21570Y14039D01*
X21638Y13950D01*
X21727Y13882D01*
X21830Y13839D01*
X21941Y13825D01*
X22052Y13839D01*
X22155Y13882D01*
X22244Y13950D01*
X22312Y14039D01*
X22355Y14142D01*
X22370Y14253D01*
Y14365D01*
X22420Y14385D01*
X22512Y14293D01*
Y14253D01*
X22527Y14142D01*
X22570Y14039D01*
X22638Y13950D01*
X22727Y13882D01*
X22830Y13839D01*
X22941Y13825D01*
X23052Y13839D01*
X23155Y13882D01*
X23244Y13950D01*
X23312Y14039D01*
X23355Y14142D01*
X23370Y14253D01*
Y14403D01*
X23355Y14514D01*
X23312Y14618D01*
X23244Y14707D01*
X23155Y14775D01*
X23052Y14817D01*
X22941Y14832D01*
X22834Y14818D01*
X21729Y15922D01*
Y17416D01*
X22501Y18188D01*
X22511Y18189D01*
X22597Y18224D01*
X22661Y18273D01*
X22711Y18259D01*
Y16590D01*
X22721Y16513D01*
X22730Y16491D01*
X22751Y16440D01*
X22798Y16378D01*
X24271Y14906D01*
Y14749D01*
X24221Y14725D01*
X24155Y14775D01*
X24052Y14817D01*
X23941Y14832D01*
X23830Y14817D01*
X23727Y14775D01*
X23638Y14707D01*
X23570Y14618D01*
X23527Y14514D01*
X23512Y14403D01*
Y14253D01*
X23527Y14142D01*
X23570Y14039D01*
X23638Y13950D01*
X23727Y13882D01*
X23830Y13839D01*
X23941Y13825D01*
X24052Y13839D01*
X24155Y13882D01*
X24221Y13932D01*
X24271Y13908D01*
Y13754D01*
X22729Y12213D01*
X22682Y12151D01*
X22660Y12100D01*
X22652Y12078D01*
X22642Y12001D01*
Y11254D01*
X22638Y11252D01*
X22570Y11163D01*
X22527Y11059D01*
X22512Y10948D01*
Y10798D01*
X22527Y10687D01*
X22570Y10584D01*
X22638Y10495D01*
X22727Y10427D01*
X22830Y10384D01*
X22941Y10370D01*
X23052Y10384D01*
X23155Y10427D01*
X23244Y10495D01*
X23312Y10584D01*
X23355Y10687D01*
X23370Y10798D01*
Y10948D01*
X23355Y11059D01*
X23312Y11163D01*
X23244Y11252D01*
X23240Y11254D01*
Y11877D01*
X24782Y13418D01*
X24829Y13480D01*
X24850Y13531D01*
X24859Y13553D01*
X24869Y13630D01*
Y15030D01*
X24859Y15107D01*
X24842Y15150D01*
X24829Y15180D01*
X24782Y15242D01*
X23554Y16469D01*
X23578Y16516D01*
X23622Y16511D01*
X23730Y16525D01*
X23831Y16567D01*
X23918Y16633D01*
X23985Y16720D01*
X24026Y16821D01*
X24041Y16929D01*
X24026Y17037D01*
X23985Y17138D01*
X23918Y17225D01*
X23831Y17292D01*
X23730Y17333D01*
X23622Y17348D01*
X23514Y17333D01*
X23413Y17292D01*
X23359Y17251D01*
X23309Y17275D01*
Y18296D01*
X23359Y18306D01*
X23363Y18298D01*
X23410Y18236D01*
X24231Y17416D01*
Y16234D01*
X24241Y16156D01*
X24250Y16135D01*
X24271Y16084D01*
X24318Y16022D01*
X25978Y14363D01*
X25988Y14281D01*
X26029Y14184D01*
X26093Y14101D01*
X26176Y14036D01*
X26274Y13996D01*
X26378Y13982D01*
X26482Y13996D01*
X26580Y14036D01*
X26663Y14101D01*
X26727Y14184D01*
X26768Y14281D01*
X26781Y14386D01*
X26768Y14490D01*
X26727Y14588D01*
X26663Y14671D01*
X26580Y14735D01*
X26482Y14776D01*
X26401Y14786D01*
X24829Y16358D01*
Y16572D01*
X24876Y16591D01*
X27292Y14174D01*
X27354Y14127D01*
X27384Y14114D01*
X27427Y14097D01*
X27504Y14086D01*
X28473D01*
X28538Y14036D01*
X28636Y13996D01*
X28740Y13982D01*
X28845Y13996D01*
X28942Y14036D01*
X29025Y14101D01*
X29090Y14184D01*
X29130Y14281D01*
X29144Y14386D01*
X29130Y14490D01*
X29090Y14588D01*
X29025Y14671D01*
X28942Y14735D01*
X28845Y14776D01*
X28740Y14789D01*
X28636Y14776D01*
X28538Y14735D01*
X28473Y14685D01*
X27628D01*
X25323Y16990D01*
Y17744D01*
X25313Y17822D01*
X25304Y17843D01*
X25283Y17894D01*
X25235Y17956D01*
X24539Y18652D01*
Y19266D01*
X24589Y19283D01*
X24591Y19281D01*
X25904Y17968D01*
X25895Y17898D01*
X25908Y17793D01*
X25949Y17696D01*
X26013Y17612D01*
X26096Y17548D01*
X26194Y17508D01*
X26298Y17494D01*
X26498D01*
X26602Y17508D01*
X26700Y17548D01*
X26783Y17612D01*
X26847Y17696D01*
X26888Y17793D01*
X26901Y17898D01*
X26888Y18002D01*
X26847Y18099D01*
X26783Y18183D01*
X26700Y18247D01*
X26602Y18287D01*
X26498Y18301D01*
X26418D01*
X26269Y18450D01*
X26291Y18495D01*
X26298Y18494D01*
X26498D01*
X26602Y18508D01*
X26700Y18548D01*
X26783Y18612D01*
X26847Y18696D01*
X26888Y18793D01*
X26901Y18898D01*
X26895Y18949D01*
X26943Y18962D01*
X26951Y18944D01*
X26998Y18882D01*
X27288Y18592D01*
X27350Y18545D01*
X27401Y18523D01*
X27423Y18515D01*
X27500Y18505D01*
X28246D01*
Y18404D01*
X29234D01*
Y19391D01*
X28939D01*
X28929Y19441D01*
X28989Y19466D01*
X29092Y19546D01*
X29171Y19649D01*
X29221Y19769D01*
X29238Y19898D01*
X29221Y20027D01*
X29171Y20147D01*
X29092Y20250D01*
X28989Y20329D01*
X28869Y20379D01*
X28740Y20396D01*
X28611Y20379D01*
X28491Y20329D01*
X28388Y20250D01*
X28309Y20147D01*
X28259Y20027D01*
X28242Y19898D01*
X28259Y19769D01*
X28309Y19649D01*
X28388Y19546D01*
X28491Y19466D01*
X28552Y19441D01*
X28542Y19391D01*
X28246D01*
Y19170D01*
X28180Y19103D01*
X28067D01*
X28043Y19153D01*
X28066Y19183D01*
X28101Y19269D01*
X28113Y19360D01*
X28101Y19451D01*
X28066Y19537D01*
X28059Y19545D01*
Y24209D01*
X28049Y24286D01*
X28040Y24307D01*
X28019Y24358D01*
X27972Y24420D01*
X26727Y25665D01*
X26725Y25683D01*
X26689Y25770D01*
X26632Y25844D01*
X26557Y25901D01*
X26471Y25937D01*
X26378Y25950D01*
X26285Y25937D01*
X26198Y25901D01*
X26124Y25844D01*
X26067Y25770D01*
X26031Y25683D01*
X26019Y25591D01*
X26031Y25498D01*
X26067Y25411D01*
X26124Y25337D01*
X26198Y25280D01*
X26285Y25244D01*
X26304Y25241D01*
X26338Y25207D01*
X26320Y25154D01*
X26285Y25150D01*
X26198Y25114D01*
X26124Y25057D01*
X26067Y24983D01*
X26031Y24896D01*
X26027Y24861D01*
X25974Y24843D01*
X24779Y26038D01*
Y27000D01*
X24769Y27077D01*
X24752Y27120D01*
X24739Y27150D01*
X24692Y27212D01*
X23792Y28112D01*
X23730Y28159D01*
X23679Y28180D01*
X23657Y28189D01*
X23580Y28199D01*
X20540D01*
X20463Y28189D01*
X20420Y28172D01*
X20390Y28159D01*
X20328Y28112D01*
X19726Y27509D01*
X17728D01*
X17696Y27587D01*
X17640Y27660D01*
X17567Y27716D01*
X17481Y27751D01*
X17471Y27752D01*
X16229Y28994D01*
Y29983D01*
X16279Y30007D01*
X16334Y29966D01*
X16431Y29925D01*
X16535Y29912D01*
X16640Y29925D01*
X16737Y29966D01*
X16821Y30030D01*
X16885Y30113D01*
X16925Y30211D01*
X16939Y30315D01*
X16925Y30419D01*
X16885Y30517D01*
X16821Y30600D01*
X16737Y30664D01*
X16640Y30705D01*
X16535Y30718D01*
X16431Y30705D01*
X16334Y30664D01*
X16279Y30623D01*
X16229Y30647D01*
Y30983D01*
X16279Y31007D01*
X16334Y30966D01*
X16431Y30925D01*
X16535Y30912D01*
X16640Y30925D01*
X16737Y30966D01*
X16821Y31030D01*
X16885Y31113D01*
X16925Y31211D01*
X16939Y31315D01*
X16925Y31419D01*
X16885Y31517D01*
X16821Y31600D01*
X16737Y31664D01*
X16640Y31705D01*
X16535Y31718D01*
X16431Y31705D01*
X16334Y31664D01*
X16279Y31623D01*
X16229Y31647D01*
Y31983D01*
X16279Y32007D01*
X16334Y31966D01*
X16431Y31925D01*
X16535Y31912D01*
X16640Y31925D01*
X16737Y31966D01*
X16821Y32030D01*
X16885Y32113D01*
X16925Y32211D01*
X16939Y32315D01*
X16925Y32419D01*
X16885Y32517D01*
X16821Y32600D01*
X16737Y32664D01*
X16640Y32705D01*
X16535Y32718D01*
X16431Y32705D01*
X16334Y32664D01*
X16279Y32623D01*
X16229Y32647D01*
Y32983D01*
X16279Y33007D01*
X16334Y32966D01*
X16431Y32925D01*
X16535Y32912D01*
X16640Y32925D01*
X16737Y32966D01*
X16821Y33030D01*
X16885Y33113D01*
X16925Y33211D01*
X16939Y33315D01*
X16925Y33419D01*
X16885Y33517D01*
X16821Y33600D01*
X16737Y33664D01*
X16640Y33705D01*
X16535Y33718D01*
X16431Y33705D01*
X16334Y33664D01*
X16279Y33623D01*
X16229Y33647D01*
Y33983D01*
X16279Y34007D01*
X16334Y33966D01*
X16431Y33925D01*
X16535Y33912D01*
X16640Y33925D01*
X16737Y33966D01*
X16821Y34030D01*
X16885Y34113D01*
X16925Y34211D01*
X16939Y34315D01*
X16925Y34419D01*
X16885Y34517D01*
X16821Y34600D01*
X16737Y34664D01*
X16640Y34705D01*
X16535Y34718D01*
X16431Y34705D01*
X16334Y34664D01*
X16279Y34623D01*
X16229Y34647D01*
Y35983D01*
X16279Y36007D01*
X16334Y35966D01*
X16431Y35925D01*
X16535Y35912D01*
X16640Y35925D01*
X16737Y35966D01*
X16821Y36030D01*
X16885Y36113D01*
X16925Y36211D01*
X16939Y36315D01*
X16925Y36419D01*
X16885Y36517D01*
X16821Y36600D01*
X16737Y36664D01*
X16640Y36705D01*
X16535Y36718D01*
X16431Y36705D01*
X16411Y36696D01*
X16383Y36739D01*
X16558Y36915D01*
X16640Y36925D01*
X16737Y36966D01*
X16821Y37030D01*
X16885Y37113D01*
X16925Y37211D01*
X16939Y37315D01*
X16925Y37419D01*
X16885Y37517D01*
X16821Y37600D01*
X16737Y37664D01*
X16640Y37705D01*
X16535Y37718D01*
D02*
G37*
G36*
X19435Y38707D02*
X19261Y38690D01*
X19094Y38639D01*
X18940Y38556D01*
X18805Y38445D01*
X18694Y38310D01*
X18612Y38156D01*
X18561Y37989D01*
X18544Y37815D01*
X18561Y37641D01*
X18612Y37474D01*
X18694Y37320D01*
X18805Y37184D01*
X18940Y37074D01*
X19094Y36991D01*
X19261Y36940D01*
X19435Y36923D01*
X19609Y36940D01*
X19777Y36991D01*
X19931Y37074D01*
X20066Y37184D01*
X20177Y37320D01*
X20259Y37474D01*
X20310Y37641D01*
X20327Y37815D01*
X20310Y37989D01*
X20259Y38156D01*
X20177Y38310D01*
X20066Y38445D01*
X19931Y38556D01*
X19777Y38639D01*
X19609Y38690D01*
X19435Y38707D01*
D02*
G37*
G36*
X11024Y38529D02*
X10881Y38515D01*
X10743Y38473D01*
X10616Y38405D01*
X10505Y38314D01*
X10414Y38203D01*
X10346Y38076D01*
X10304Y37938D01*
X10290Y37795D01*
X10304Y37652D01*
X10346Y37515D01*
X10414Y37388D01*
X10505Y37277D01*
X10616Y37185D01*
X10743Y37118D01*
X10881Y37076D01*
X11024Y37062D01*
X11167Y37076D01*
X11304Y37118D01*
X11431Y37185D01*
X11542Y37277D01*
X11633Y37388D01*
X11701Y37515D01*
X11743Y37652D01*
X11757Y37795D01*
X11743Y37938D01*
X11701Y38076D01*
X11633Y38203D01*
X11542Y38314D01*
X11431Y38405D01*
X11304Y38473D01*
X11167Y38515D01*
X11024Y38529D01*
D02*
G37*
G36*
X11811Y36821D02*
X11707Y36807D01*
X11609Y36767D01*
X11526Y36703D01*
X11462Y36619D01*
X11421Y36522D01*
X11408Y36417D01*
X11421Y36313D01*
X11462Y36216D01*
X11526Y36132D01*
X11609Y36068D01*
X11707Y36028D01*
X11811Y36014D01*
X11915Y36028D01*
X12013Y36068D01*
X12096Y36132D01*
X12160Y36216D01*
X12201Y36313D01*
X12214Y36417D01*
X12201Y36522D01*
X12160Y36619D01*
X12096Y36703D01*
X12013Y36767D01*
X11915Y36807D01*
X11811Y36821D01*
D02*
G37*
G36*
X27165Y38687D02*
X26991Y38670D01*
X26824Y38619D01*
X26670Y38537D01*
X26535Y38426D01*
X26424Y38291D01*
X26342Y38137D01*
X26291Y37969D01*
X26274Y37795D01*
X26291Y37621D01*
X26342Y37454D01*
X26424Y37300D01*
X26535Y37165D01*
X26670Y37054D01*
X26824Y36971D01*
X26991Y36921D01*
X27165Y36904D01*
X27339Y36921D01*
X27507Y36971D01*
X27661Y37054D01*
X27796Y37165D01*
X27907Y37300D01*
X27989Y37454D01*
X28040Y37621D01*
X28057Y37795D01*
X28040Y37969D01*
X27989Y38137D01*
X27907Y38291D01*
X27796Y38426D01*
X27661Y38537D01*
X27507Y38619D01*
X27339Y38670D01*
X27165Y38687D01*
D02*
G37*
G36*
X14070Y37319D02*
X13450D01*
X13373Y37309D01*
X13351Y37300D01*
X13300Y37279D01*
X13238Y37232D01*
X12968Y36962D01*
X12921Y36900D01*
X12900Y36849D01*
X12891Y36827D01*
X12881Y36750D01*
Y35048D01*
X12891Y34971D01*
X12900Y34950D01*
X12921Y34899D01*
X12968Y34837D01*
X13379Y34426D01*
X13390Y34344D01*
X13430Y34247D01*
X13494Y34164D01*
X13578Y34099D01*
X13675Y34059D01*
X13780Y34045D01*
X13884Y34059D01*
X13981Y34099D01*
X14031Y34137D01*
X14081Y34113D01*
Y33304D01*
X10608Y29832D01*
X10561Y29770D01*
X10540Y29719D01*
X10531Y29697D01*
X10521Y29620D01*
Y24219D01*
X10531Y24142D01*
X10540Y24121D01*
X10561Y24070D01*
X10608Y24008D01*
X11017Y23599D01*
Y23222D01*
X11817D01*
Y24022D01*
X11441D01*
X11119Y24343D01*
Y29496D01*
X14534Y32911D01*
X14581Y32892D01*
Y21694D01*
X14389Y21502D01*
X14379Y21501D01*
X14293Y21466D01*
X14220Y21410D01*
X14164Y21337D01*
X14129Y21251D01*
X14117Y21160D01*
X14129Y21069D01*
X14164Y20983D01*
X14220Y20910D01*
X14293Y20854D01*
X14379Y20819D01*
X14470Y20807D01*
X14561Y20819D01*
X14647Y20854D01*
X14720Y20910D01*
X14776Y20983D01*
X14811Y21069D01*
X14812Y21079D01*
X15092Y21358D01*
X15139Y21420D01*
X15160Y21471D01*
X15169Y21493D01*
X15179Y21570D01*
Y36210D01*
X15169Y36287D01*
X15160Y36309D01*
X15139Y36360D01*
X15092Y36422D01*
X14282Y37232D01*
X14220Y37279D01*
X14169Y37300D01*
X14147Y37309D01*
X14070Y37319D01*
D02*
G37*
G36*
X11811Y28371D02*
X11703Y28357D01*
X11602Y28315D01*
X11515Y28249D01*
X11449Y28162D01*
X11407Y28061D01*
X11392Y27953D01*
X11407Y27844D01*
X11449Y27743D01*
X11515Y27657D01*
X11602Y27590D01*
X11703Y27548D01*
X11805Y27535D01*
X13061Y26280D01*
Y25131D01*
X12333D01*
Y24302D01*
X13061D01*
Y24063D01*
X13011Y24038D01*
X12957Y24079D01*
X12856Y24121D01*
X12748Y24135D01*
X12640Y24121D01*
X12539Y24079D01*
X12452Y24012D01*
X12386Y23926D01*
X12344Y23825D01*
X12329Y23717D01*
X12344Y23608D01*
X12386Y23507D01*
X12452Y23421D01*
X12539Y23354D01*
X12640Y23312D01*
X12748Y23298D01*
X12856Y23312D01*
X12957Y23354D01*
X13011Y23395D01*
X13061Y23370D01*
Y23063D01*
X13011Y23038D01*
X12957Y23079D01*
X12856Y23121D01*
X12748Y23135D01*
X12640Y23121D01*
X12539Y23079D01*
X12452Y23012D01*
X12386Y22926D01*
X12344Y22825D01*
X12329Y22717D01*
X12344Y22608D01*
X12386Y22507D01*
X12452Y22421D01*
X12539Y22354D01*
X12640Y22312D01*
X12748Y22298D01*
X12856Y22312D01*
X12957Y22354D01*
X13011Y22395D01*
X13061Y22370D01*
Y21063D01*
X13011Y21038D01*
X12957Y21079D01*
X12856Y21121D01*
X12748Y21135D01*
X12640Y21121D01*
X12539Y21079D01*
X12452Y21012D01*
X12386Y20926D01*
X12344Y20825D01*
X12329Y20717D01*
X12344Y20608D01*
X12386Y20507D01*
X12452Y20421D01*
X12539Y20354D01*
X12640Y20312D01*
X12748Y20298D01*
X12856Y20312D01*
X12957Y20354D01*
X13011Y20395D01*
X13061Y20370D01*
Y20063D01*
X13011Y20038D01*
X12957Y20079D01*
X12856Y20121D01*
X12748Y20135D01*
X12640Y20121D01*
X12539Y20079D01*
X12452Y20012D01*
X12386Y19926D01*
X12344Y19825D01*
X12329Y19717D01*
X12344Y19608D01*
X12386Y19507D01*
X12452Y19421D01*
X12539Y19354D01*
X12640Y19312D01*
X12748Y19298D01*
X12856Y19312D01*
X12957Y19354D01*
X13011Y19395D01*
X13061Y19370D01*
Y19063D01*
X13011Y19038D01*
X12957Y19079D01*
X12856Y19121D01*
X12748Y19135D01*
X12640Y19121D01*
X12539Y19079D01*
X12452Y19012D01*
X12386Y18926D01*
X12344Y18825D01*
X12329Y18717D01*
X12344Y18608D01*
X12386Y18507D01*
X12452Y18421D01*
X12539Y18354D01*
X12640Y18312D01*
X12748Y18298D01*
X12849Y18311D01*
X12863Y18294D01*
X12874Y18266D01*
X12742Y18134D01*
X12640Y18121D01*
X12539Y18079D01*
X12452Y18012D01*
X12386Y17926D01*
X12344Y17825D01*
X12329Y17717D01*
X12344Y17608D01*
X12386Y17507D01*
X12452Y17421D01*
X12539Y17354D01*
X12640Y17312D01*
X12748Y17298D01*
X12856Y17312D01*
X12957Y17354D01*
X13044Y17421D01*
X13111Y17507D01*
X13152Y17608D01*
X13166Y17711D01*
X13572Y18117D01*
X13619Y18179D01*
X13632Y18209D01*
X13649Y18251D01*
X13659Y18328D01*
Y26404D01*
X13649Y26481D01*
X13637Y26511D01*
X13619Y26553D01*
X13572Y26616D01*
X12229Y27958D01*
X12215Y28061D01*
X12173Y28162D01*
X12107Y28249D01*
X12020Y28315D01*
X11919Y28357D01*
X11811Y28371D01*
D02*
G37*
G36*
X18748Y19135D02*
X18640Y19121D01*
X18539Y19079D01*
X18452Y19012D01*
X18386Y18926D01*
X18344Y18825D01*
X18329Y18717D01*
X18344Y18608D01*
X18386Y18507D01*
X18452Y18421D01*
X18539Y18354D01*
X18640Y18312D01*
X18748Y18298D01*
X18856Y18312D01*
X18957Y18354D01*
X19044Y18421D01*
X19111Y18507D01*
X19152Y18608D01*
X19167Y18717D01*
X19152Y18825D01*
X19111Y18926D01*
X19044Y19012D01*
X18957Y19079D01*
X18856Y19121D01*
X18748Y19135D01*
D02*
G37*
%LPD*%
G36*
X27461Y24084D02*
Y23029D01*
X27411Y23013D01*
X26749Y23675D01*
X26734Y23686D01*
Y24372D01*
X26456D01*
X26427Y24406D01*
X26444Y24453D01*
X26471Y24456D01*
X26557Y24492D01*
X26632Y24549D01*
X26689Y24624D01*
X26725Y24710D01*
X26729Y24745D01*
X26782Y24763D01*
X27461Y24084D01*
D02*
G37*
G36*
X21838Y26409D02*
X21939Y26367D01*
X22047Y26353D01*
X22156Y26367D01*
X22257Y26409D01*
X22310Y26450D01*
X22694Y26066D01*
X22756Y26019D01*
X22807Y25998D01*
X22828Y25989D01*
X22905Y25979D01*
X23126D01*
X23157Y25948D01*
X23219Y25901D01*
X23249Y25888D01*
X23291Y25871D01*
X23369Y25860D01*
X23687D01*
Y25709D01*
X23697Y25632D01*
X23706Y25611D01*
X23727Y25559D01*
X23775Y25497D01*
X25526Y23746D01*
Y23637D01*
X25536Y23559D01*
X25545Y23538D01*
X25566Y23487D01*
X25613Y23425D01*
X25787Y23251D01*
X25849Y23204D01*
X25886Y23189D01*
X25922Y23174D01*
X25999Y23164D01*
X26413D01*
X26911Y22666D01*
Y20077D01*
X26861Y20067D01*
X26847Y20099D01*
X26783Y20183D01*
X26700Y20247D01*
X26602Y20287D01*
X26498Y20301D01*
X26298D01*
X26194Y20287D01*
X26096Y20247D01*
X26013Y20183D01*
X25949Y20099D01*
X25908Y20002D01*
X25895Y19898D01*
X25908Y19793D01*
X25949Y19696D01*
X26013Y19612D01*
X26096Y19548D01*
X26194Y19508D01*
X26298Y19494D01*
X26498D01*
X26602Y19508D01*
X26700Y19548D01*
X26783Y19612D01*
X26847Y19696D01*
X26861Y19728D01*
X26911Y19718D01*
Y19094D01*
X26914Y19070D01*
X26865Y19057D01*
X26847Y19099D01*
X26783Y19183D01*
X26700Y19247D01*
X26602Y19287D01*
X26498Y19301D01*
X26298D01*
X26194Y19287D01*
X26096Y19247D01*
X26013Y19183D01*
X25949Y19099D01*
X25908Y19002D01*
X25895Y18898D01*
X25895Y18891D01*
X25851Y18868D01*
X25103Y19616D01*
Y23355D01*
X25153Y23420D01*
X25193Y23518D01*
X25207Y23622D01*
X25193Y23726D01*
X25153Y23824D01*
X25088Y23907D01*
X25005Y23971D01*
X24908Y24012D01*
X24803Y24025D01*
X24699Y24012D01*
X24601Y23971D01*
X24518Y23907D01*
X24454Y23824D01*
X24413Y23726D01*
X24400Y23622D01*
X24413Y23518D01*
X24454Y23420D01*
X24504Y23355D01*
Y21706D01*
X24454Y21689D01*
X24452Y21692D01*
X23756Y22387D01*
X23768Y22446D01*
X23831Y22472D01*
X23918Y22539D01*
X23985Y22625D01*
X24026Y22726D01*
X24041Y22835D01*
X24026Y22943D01*
X23985Y23044D01*
X23918Y23131D01*
X23831Y23197D01*
X23730Y23239D01*
X23622Y23253D01*
X23514Y23239D01*
X23413Y23197D01*
X23326Y23131D01*
X23260Y23044D01*
X23218Y22943D01*
X23203Y22835D01*
X23218Y22726D01*
X23260Y22625D01*
X23303Y22569D01*
X23278Y22519D01*
X23064D01*
X22959Y22624D01*
Y24529D01*
X22949Y24607D01*
X22940Y24628D01*
X22919Y24679D01*
X22872Y24741D01*
X21729Y25883D01*
Y26429D01*
X21779Y26454D01*
X21838Y26409D01*
D02*
G37*
G36*
X24181Y26876D02*
Y26308D01*
X24134Y26289D01*
X24052Y26372D01*
X23990Y26419D01*
X23949Y26436D01*
X23942Y26444D01*
X23937Y26459D01*
X23933Y26495D01*
X23985Y26562D01*
X24026Y26663D01*
X24041Y26772D01*
X24026Y26880D01*
X23985Y26981D01*
X23918Y27068D01*
X23831Y27134D01*
X23730Y27176D01*
X23622Y27190D01*
X23514Y27176D01*
X23413Y27134D01*
X23331Y27071D01*
X23234D01*
X22751Y27554D01*
X22770Y27601D01*
X23456D01*
X24181Y26876D01*
D02*
G37*
G36*
X21491Y27554D02*
X21218Y27282D01*
X21171Y27220D01*
X21150Y27169D01*
X21141Y27147D01*
X21131Y27070D01*
Y26182D01*
X21081Y26165D01*
X21070Y26180D01*
X20997Y26236D01*
X20911Y26271D01*
X20820Y26283D01*
X20729Y26271D01*
X20643Y26236D01*
X20570Y26180D01*
X20514Y26107D01*
X20479Y26021D01*
X20467Y25930D01*
X20479Y25839D01*
X20514Y25753D01*
X20521Y25745D01*
Y23714D01*
X20531Y23637D01*
X20540Y23616D01*
X20561Y23565D01*
X20608Y23503D01*
X20785Y23326D01*
Y21829D01*
X20795Y21752D01*
X20804Y21730D01*
X20825Y21679D01*
X20873Y21617D01*
X21629Y20861D01*
X21643Y20758D01*
X21685Y20657D01*
X21751Y20570D01*
X21838Y20504D01*
X21939Y20462D01*
X22047Y20448D01*
X22156Y20462D01*
X22257Y20504D01*
X22343Y20570D01*
X22410Y20657D01*
X22452Y20758D01*
X22466Y20866D01*
X22452Y20974D01*
X22410Y21075D01*
X22343Y21162D01*
X22257Y21229D01*
X22156Y21270D01*
X22053Y21284D01*
X21384Y21953D01*
Y23450D01*
X21373Y23527D01*
X21356Y23570D01*
X21344Y23600D01*
X21296Y23662D01*
X21119Y23838D01*
Y24298D01*
X21169Y24323D01*
X21193Y24304D01*
X21279Y24269D01*
X21289Y24268D01*
X21748Y23809D01*
Y23126D01*
X21685Y23044D01*
X21643Y22943D01*
X21629Y22835D01*
X21643Y22726D01*
X21685Y22625D01*
X21751Y22539D01*
X21838Y22472D01*
X21939Y22430D01*
X22047Y22416D01*
X22156Y22430D01*
X22257Y22472D01*
X22311Y22514D01*
X22337Y22506D01*
X22362Y22490D01*
X22371Y22423D01*
X22380Y22401D01*
X22401Y22350D01*
X22448Y22288D01*
X22728Y22008D01*
X22790Y21961D01*
X22841Y21940D01*
X22863Y21931D01*
X22940Y21921D01*
X23376D01*
X23941Y21356D01*
Y21208D01*
X23891Y21183D01*
X23831Y21229D01*
X23730Y21270D01*
X23622Y21285D01*
X23514Y21270D01*
X23413Y21229D01*
X23326Y21162D01*
X23260Y21075D01*
X23218Y20974D01*
X23203Y20866D01*
X23218Y20758D01*
X23260Y20657D01*
X23323Y20575D01*
Y18989D01*
X23273Y18979D01*
X23269Y18988D01*
X23222Y19050D01*
X22962Y19310D01*
X22900Y19357D01*
X22849Y19378D01*
X22827Y19387D01*
X22750Y19397D01*
X22365D01*
X20890Y20872D01*
X20877Y20974D01*
X20835Y21075D01*
X20772Y21158D01*
Y21608D01*
X20762Y21685D01*
X20753Y21706D01*
X20732Y21757D01*
X20684Y21819D01*
X20159Y22344D01*
Y26035D01*
X20478Y26354D01*
X20581Y26367D01*
X20682Y26409D01*
X20768Y26476D01*
X20835Y26562D01*
X20877Y26663D01*
X20891Y26772D01*
X20877Y26880D01*
X20835Y26981D01*
X20768Y27068D01*
X20682Y27134D01*
X20581Y27176D01*
X20472Y27190D01*
X20364Y27176D01*
X20263Y27134D01*
X20239Y27175D01*
X20664Y27601D01*
X21472D01*
X21491Y27554D01*
D02*
G37*
G36*
X13578Y36068D02*
X13675Y36028D01*
X13757Y36017D01*
X14081Y35693D01*
Y34785D01*
X14031Y34760D01*
X13981Y34798D01*
X13884Y34839D01*
X13803Y34849D01*
X13479Y35172D01*
Y36080D01*
X13529Y36105D01*
X13578Y36068D01*
D02*
G37*
G36*
X21171Y25609D02*
X21218Y25547D01*
X22361Y24405D01*
Y24083D01*
X22311Y24073D01*
X22307Y24082D01*
X22259Y24144D01*
X21712Y24691D01*
X21711Y24701D01*
X21676Y24787D01*
X21620Y24860D01*
X21547Y24916D01*
X21461Y24951D01*
X21370Y24963D01*
X21279Y24951D01*
X21193Y24916D01*
X21169Y24897D01*
X21119Y24922D01*
Y25602D01*
X21169Y25612D01*
X21171Y25609D01*
D02*
G37*
%LPC*%
G36*
X26398Y22720D02*
X26320Y22710D01*
X26248Y22680D01*
X26186Y22633D01*
X26139Y22571D01*
X26109Y22498D01*
X26099Y22421D01*
Y20898D01*
X26109Y20820D01*
X26139Y20748D01*
X26186Y20686D01*
X26248Y20638D01*
X26320Y20608D01*
X26398Y20598D01*
X26475Y20608D01*
X26548Y20638D01*
X26610Y20686D01*
X26657Y20748D01*
X26687Y20820D01*
X26697Y20898D01*
Y22421D01*
X26687Y22498D01*
X26657Y22571D01*
X26610Y22633D01*
X26548Y22680D01*
X26475Y22710D01*
X26398Y22720D01*
D02*
G37*
%LPD*%
D10*
X12748Y17717D02*
X13360Y18328D01*
Y26404D01*
X11811Y27953D02*
X13360Y26404D01*
X19860Y26159D02*
X20472Y26772D01*
X19860Y22220D02*
Y26159D01*
Y22220D02*
X20472Y21608D01*
Y20866D02*
Y21608D01*
X12748Y13717D02*
X17910Y18879D01*
Y24770D01*
X18500Y25360D01*
X19250D01*
X19360Y25250D01*
Y19197D02*
Y25250D01*
Y19197D02*
X20750Y17807D01*
Y17207D02*
Y17807D01*
X20472Y16929D02*
X20750Y17207D01*
X24530Y16234D02*
X26378Y14386D01*
X24530Y16234D02*
Y17540D01*
X23622Y18448D02*
X24530Y17540D01*
X23622Y18448D02*
Y20866D01*
X27504Y14386D02*
X28740D01*
X23500Y22220D02*
X24240Y21480D01*
X22940Y22220D02*
X23500D01*
X22660Y22500D02*
X22940Y22220D01*
X22660Y22500D02*
Y24529D01*
X21430Y25759D02*
X22660Y24529D01*
X21430Y25759D02*
Y27070D01*
X21750Y27390D01*
X22492D01*
X26378Y25591D02*
X27760Y24209D01*
Y19360D02*
Y24209D01*
X15930Y36710D02*
X16535Y37315D01*
X15930Y28870D02*
Y36710D01*
Y28870D02*
X17390Y27410D01*
X22900Y14328D02*
X22941D01*
X21430Y15798D02*
X22900Y14328D01*
X21430Y15798D02*
Y17540D01*
X22420Y18530D01*
X20472Y20866D02*
X22241Y19098D01*
X22750D01*
X23010Y18838D01*
Y16590D02*
Y18838D01*
Y16590D02*
X24570Y15030D01*
Y13630D02*
Y15030D01*
X22941Y12001D02*
X24570Y13630D01*
X22941Y10873D02*
Y12001D01*
X24480Y25914D02*
X26378Y24016D01*
X24480Y25914D02*
Y27000D01*
X23580Y27900D02*
X24480Y27000D01*
X20540Y27900D02*
X23580D01*
X19850Y27210D02*
X20540Y27900D01*
X17590Y27210D02*
X19850D01*
X17390Y27410D02*
X17590Y27210D01*
X27210Y19094D02*
X27500Y18804D01*
X28304D01*
X28569Y19069D02*
X28740Y18898D01*
X20820Y23714D02*
Y25930D01*
Y23714D02*
X21084Y23450D01*
Y21829D02*
Y23450D01*
Y21829D02*
X22047Y20866D01*
Y22835D02*
Y23933D01*
X21370Y24610D02*
X22047Y23933D01*
X10820Y24219D02*
X11417Y23622D01*
X10820Y24219D02*
Y29620D01*
X14380Y33180D01*
Y35817D01*
X13780Y36417D02*
X14380Y35817D01*
X14470Y21160D02*
X14880Y21570D01*
Y36210D01*
X14070Y37020D02*
X14880Y36210D01*
X13450Y37020D02*
X14070D01*
X13180Y36750D02*
X13450Y37020D01*
X13180Y35048D02*
Y36750D01*
Y35048D02*
X13780Y34449D01*
X28304Y18804D02*
X28569Y19069D01*
X25024Y16866D02*
X27504Y14386D01*
X25024Y16866D02*
Y17744D01*
X24240Y18528D02*
Y21480D01*
Y18528D02*
X25024Y17744D01*
X24803Y19492D02*
X26398Y17898D01*
X24803Y19492D02*
Y23622D01*
X22492Y27390D02*
X23110Y26772D01*
X23622D01*
X27210Y19094D02*
Y22790D01*
X22047Y26772D02*
X22412D01*
X22905Y26278D01*
X23251D01*
X23369Y26160D01*
X23840D01*
X23986Y26014D01*
Y25709D02*
Y26014D01*
Y25709D02*
X25825Y23870D01*
Y23637D02*
Y23870D01*
Y23637D02*
X25999Y23463D01*
X26537D01*
X27210Y22790D01*
X26398Y20898D02*
Y22421D01*
D11*
X23622Y20866D02*
D03*
Y16929D02*
D03*
Y26772D02*
D03*
Y22835D02*
D03*
X20472Y20866D02*
D03*
Y16929D02*
D03*
X22047Y26772D02*
D03*
Y22835D02*
D03*
X20472Y26772D02*
D03*
Y22835D02*
D03*
X11811Y31890D02*
D03*
Y27953D02*
D03*
X22047Y20866D02*
D03*
Y16929D02*
D03*
X12748Y23717D02*
D03*
Y22717D02*
D03*
X18748Y24717D02*
D03*
X12748Y21717D02*
D03*
Y20717D02*
D03*
Y19717D02*
D03*
Y18717D02*
D03*
Y17717D02*
D03*
Y16717D02*
D03*
Y15717D02*
D03*
Y14717D02*
D03*
Y13717D02*
D03*
Y12717D02*
D03*
Y11717D02*
D03*
Y10717D02*
D03*
X18748D02*
D03*
Y11717D02*
D03*
Y12717D02*
D03*
Y13717D02*
D03*
Y14717D02*
D03*
Y15717D02*
D03*
Y16717D02*
D03*
Y17717D02*
D03*
Y18717D02*
D03*
Y19717D02*
D03*
Y20717D02*
D03*
Y21717D02*
D03*
Y22717D02*
D03*
Y23717D02*
D03*
D12*
X20941Y10873D02*
D03*
D13*
X21941D02*
D03*
X23941D02*
D03*
Y14328D02*
D03*
X22941D02*
D03*
X21941D02*
D03*
X20941D02*
D03*
X22941Y10873D02*
D03*
D14*
X13780Y34449D02*
D03*
Y36417D02*
D03*
X11417Y24622D02*
D03*
X26378Y14386D02*
D03*
X28740Y14386D02*
D03*
X16535Y30315D02*
D03*
Y31315D02*
D03*
Y32315D02*
D03*
Y33315D02*
D03*
Y34315D02*
D03*
Y35315D02*
D03*
Y36315D02*
D03*
Y37315D02*
D03*
X27165Y11024D02*
D03*
X11024D02*
D03*
Y37795D02*
D03*
X11811Y34449D02*
D03*
Y36417D02*
D03*
X24803Y23622D02*
D03*
X26378Y22441D02*
D03*
D15*
X26398Y20898D02*
D03*
Y19898D02*
D03*
Y18898D02*
D03*
Y17898D02*
D03*
D16*
Y16898D02*
D03*
D17*
X26378Y24016D02*
D03*
D18*
Y24803D02*
D03*
Y25591D02*
D03*
Y26378D02*
D03*
D19*
X12748Y24717D02*
D03*
D20*
X28740Y18898D02*
D03*
D21*
Y19898D02*
D03*
Y20898D02*
D03*
D22*
X11417Y23622D02*
D03*
X26378Y13386D02*
D03*
X28740Y13386D02*
D03*
D23*
X19435Y29815D02*
D03*
X27435D02*
D03*
X27165Y37795D02*
D03*
X19435Y37815D02*
D03*
D24*
X27760Y19360D02*
D03*
X17390Y27410D02*
D03*
X22420Y18530D02*
D03*
X20820Y25930D02*
D03*
X21370Y24610D02*
D03*
X14470Y21160D02*
D03*
M02*
