G04 Layer_Color=11619584*
%FSAX24Y24*%
%MOIN*%
G70*
G01*
G75*
%ADD97C,0.0011*%
D97*
X034873Y030337D02*
X034941Y030405D01*
X034873Y030473D01*
X034986D02*
Y030383D01*
X035032Y030337D01*
X035077Y030383D01*
Y030473D01*
X035122Y030337D02*
Y030428D01*
X035167Y030473D01*
X035213Y030428D01*
Y030337D01*
Y030405D01*
X035122D01*
X035258Y030473D02*
Y030337D01*
X035349D01*
X035394Y030473D02*
Y030360D01*
X035417Y030337D01*
X035462D01*
X035485Y030360D01*
Y030473D01*
X035621D02*
X035530D01*
Y030337D01*
X035621D01*
X035530Y030405D02*
X035575D01*
X037489Y031316D02*
X037421Y031248D01*
X037489Y031180D01*
X037376D02*
Y031271D01*
X037331Y031316D01*
X037285Y031271D01*
Y031180D01*
X037240Y031316D02*
Y031226D01*
X037195Y031180D01*
X037149Y031226D01*
Y031316D01*
Y031248D01*
X037240D01*
X037104Y031180D02*
Y031316D01*
X037013D01*
X036968Y031180D02*
Y031293D01*
X036945Y031316D01*
X036900D01*
X036877Y031293D01*
Y031180D01*
X036742D02*
X036832D01*
Y031316D01*
X036742D01*
X036832Y031248D02*
X036787D01*
X015181Y047867D02*
X015113Y047935D01*
X015045Y047867D01*
Y047980D02*
X015136D01*
X015181Y048025D01*
X015136Y048071D01*
X015045D01*
X015181Y048116D02*
X015090D01*
X015045Y048161D01*
X015090Y048207D01*
X015181D01*
X015113D01*
Y048116D01*
X015045Y048252D02*
X015181D01*
Y048343D01*
X015045Y048388D02*
X015158D01*
X015181Y048411D01*
Y048456D01*
X015158Y048479D01*
X015045D01*
Y048615D02*
Y048524D01*
X015181D01*
Y048615D01*
X015113Y048524D02*
Y048569D01*
X015189Y046422D02*
X015121Y046490D01*
X015053Y046422D01*
Y046535D02*
X015144D01*
X015189Y046581D01*
X015144Y046626D01*
X015053D01*
X015189Y046671D02*
X015098D01*
X015053Y046717D01*
X015098Y046762D01*
X015189D01*
X015121D01*
Y046671D01*
X015053Y046807D02*
X015189D01*
Y046898D01*
X015053Y046943D02*
X015166D01*
X015189Y046966D01*
Y047011D01*
X015166Y047034D01*
X015053D01*
Y047170D02*
Y047079D01*
X015189D01*
Y047170D01*
X015121Y047079D02*
Y047124D01*
X014273Y045771D02*
X014341Y045703D01*
X014409Y045771D01*
Y045657D02*
X014318D01*
X014273Y045612D01*
X014318Y045567D01*
X014409D01*
X014273Y045521D02*
X014364D01*
X014409Y045476D01*
X014364Y045431D01*
X014273D01*
X014341D01*
Y045521D01*
X014409Y045385D02*
X014273D01*
Y045295D01*
X014409Y045249D02*
X014296D01*
X014273Y045227D01*
Y045181D01*
X014296Y045159D01*
X014409D01*
Y045023D02*
Y045113D01*
X014273D01*
Y045023D01*
X014341Y045113D02*
Y045068D01*
X015177Y043548D02*
X015109Y043616D01*
X015041Y043548D01*
Y043661D02*
X015132D01*
X015177Y043707D01*
X015132Y043752D01*
X015041D01*
X015177Y043797D02*
X015086D01*
X015041Y043842D01*
X015086Y043888D01*
X015177D01*
X015109D01*
Y043797D01*
X015041Y043933D02*
X015177D01*
Y044024D01*
X015041Y044069D02*
X015154D01*
X015177Y044092D01*
Y044137D01*
X015154Y044160D01*
X015041D01*
Y044296D02*
Y044205D01*
X015177D01*
Y044296D01*
X015109Y044205D02*
Y044250D01*
M02*
