M48
;Layer_Color=6321
;FILE_FORMAT=2:4
INCH,LZ
;TYPE=PLATED
T1F00S00C0.0280
T2F00S00C0.0394
T3F00S00C0.0400
;TYPE=NON_PLATED
%
T01
X027795Y020945
X027598Y023819
X028583Y024016
X02808Y02452
X028937Y025905
X027047Y028189
X02701Y03015
X030394Y029409
X02834Y0321
T02
X027051Y033358
X028051
X029051
Y034358
X028051
X027051
X026693Y038425
X029291
T03
X032328Y027943
Y029143
X024128
Y027943
M30
