M48
;Layer_Color=6321
;FILE_FORMAT=2:4
INCH,LZ
;TYPE=PLATED
T1F00S00C0.0276
T2F00S00C0.0280
T3F00S00C0.0300
T4F00S00C0.0315
T5F00S00C0.0350
T6F00S00C0.0394
T7F00S00C0.0420
T8F00S00C0.1260
;TYPE=NON_PLATED
%
T01
X026378Y024016
Y024803
Y025591
Y026378
T02
X02242Y01853
X02776Y01936
X02137Y02461
X02082Y02593
X01739Y02741
X01447Y02116
T03
X016535Y030315
X024803Y023622
X026378Y022441
X01378Y034449
Y036417
X011811
Y034449
X016535Y034315
Y033315
Y032315
Y031315
Y035315
Y036315
Y037315
T04
X020472Y016929
X022047
X023622
Y020866
X022047
X020472
Y022835
X022047
X023622
Y026772
X022047
X020472
X011811Y027953
Y03189
T05
X020941Y010873
X021941
X022941
X023941
Y014328
X022941
X021941
X020941
T06
X012748Y010717
Y011717
Y012717
Y013717
Y014717
X018748
Y013717
Y012717
Y011717
Y010717
X026378Y013386
Y014386
X02874Y014386
Y013386
Y018898
Y019898
Y020898
X018748Y020717
Y019717
Y018717
Y017717
Y016717
Y015717
Y021717
Y022717
Y023717
Y024717
X012748
Y023717
Y022717
Y021717
Y020717
Y019717
Y018717
Y017717
Y016717
Y015717
X011417Y023622
Y024622
T07
X026398Y016898
Y017898
Y018898
Y019898
Y020898
T08
X011024Y011024
X027165
X027435Y029815
X019435
X011024Y037795
X019435Y037815
X027165Y037795
M30
