M48
;Layer_Color=6321
;FILE_FORMAT=2:4
INCH,LZ
T9F00S00C0.2000
%
G90
G05
T09
G00X029726Y008862
M15
G01X029917Y008922
G01X030092Y009017
G01X030245Y009146
G01X030369Y009303
G01X03046Y009481
G01X030513Y009673
G01X030528Y009843
G01X030528Y03937
G01X030508Y039569
G01X030449Y03976
G01X030353Y039935
G01X030224Y040088
G01X030068Y040212
G01X029889Y040302
G01X029697Y040356
G01X029528Y04037
G01X009843Y04037
G01X009644Y04035
G01X009453Y040291
G01X009278Y040195
G01X009125Y040067
G01X009001Y03991
G01X00891Y039732
G01X008857Y039539
G01X008843Y03937
G01X008843Y009843
G01X008862Y009644
G01X008922Y009453
G01X009017Y009278
G01X009146Y009125
G01X009303Y009001
G01X009481Y00891
G01X009673Y008857
G01X009843Y008843
G01X029528Y008843
G01X029726Y008862
M16
M17
M30
