G04 Layer_Color=25308*
%FSLAX24Y24*%
%MOIN*%
G70*
G01*
G75*
%ADD12C,0.0787*%
%ADD13R,0.0787X0.0787*%
%ADD14C,0.0900*%
%ADD17R,0.0280X0.0240*%
%ADD18R,0.0335X0.0630*%
G04:AMPARAMS|DCode=19|XSize=63mil|YSize=33.5mil|CornerRadius=8.4mil|HoleSize=0mil|Usage=FLASHONLY|Rotation=90.000|XOffset=0mil|YOffset=0mil|HoleType=Round|Shape=RoundedRectangle|*
%AMROUNDEDRECTD19*
21,1,0.0630,0.0167,0,0,90.0*
21,1,0.0463,0.0335,0,0,90.0*
1,1,0.0167,0.0084,0.0231*
1,1,0.0167,0.0084,-0.0231*
1,1,0.0167,-0.0084,-0.0231*
1,1,0.0167,-0.0084,0.0231*
%
%ADD19ROUNDEDRECTD19*%
%ADD20O,0.0276X0.0098*%
%ADD21O,0.0098X0.0276*%
%ADD22R,0.0240X0.0280*%
%ADD23R,0.0354X0.0315*%
%ADD24R,0.1063X0.1063*%
%ADD25O,0.0098X0.0354*%
%ADD26O,0.0354X0.0098*%
D12*
X24543Y27075D02*
D03*
X23543Y26075D02*
D03*
Y27075D02*
D03*
X22543D02*
D03*
Y26075D02*
D03*
D13*
X24543D02*
D03*
D14*
X19522Y24222D02*
D03*
Y23022D02*
D03*
X27722D02*
D03*
Y24222D02*
D03*
D17*
X25705Y25118D02*
D03*
X26185D02*
D03*
X23421Y19764D02*
D03*
X23901D02*
D03*
D18*
X23967Y24272D02*
D03*
X23278D02*
D03*
Y22972D02*
D03*
D19*
X23967D02*
D03*
D20*
X24232Y21024D02*
D03*
Y21220D02*
D03*
Y21417D02*
D03*
X23012D02*
D03*
Y21220D02*
D03*
Y21024D02*
D03*
D21*
X24016Y21831D02*
D03*
X23819D02*
D03*
X23622D02*
D03*
X23425D02*
D03*
X23228D02*
D03*
Y20610D02*
D03*
X23425D02*
D03*
X23622D02*
D03*
X23819D02*
D03*
X24016D02*
D03*
D22*
X25118Y21303D02*
D03*
Y20823D02*
D03*
D23*
X22480Y23376D02*
D03*
Y23868D02*
D03*
D24*
X25866Y23583D02*
D03*
D25*
X26260Y24390D02*
D03*
X26063D02*
D03*
X25866D02*
D03*
X25669D02*
D03*
X25472D02*
D03*
Y22776D02*
D03*
X25669D02*
D03*
X25866D02*
D03*
X26063D02*
D03*
X26260D02*
D03*
D26*
X25059Y23976D02*
D03*
Y23780D02*
D03*
Y23583D02*
D03*
Y23386D02*
D03*
Y23189D02*
D03*
X26673D02*
D03*
Y23386D02*
D03*
Y23583D02*
D03*
Y23780D02*
D03*
Y23976D02*
D03*
M02*
