G04 Layer_Color=13813960*
%FSLAX24Y24*%
%MOIN*%
G70*
G01*
G75*
%ADD27C,0.0100*%
%ADD44C,0.0098*%
%ADD45C,0.0079*%
%ADD46C,0.0059*%
%ADD47C,0.0039*%
G36*
X22747Y24222D02*
Y24472D01*
X22997D01*
X22747Y24222D01*
D02*
G37*
D27*
X21569Y25245D02*
X21769D01*
X21669D01*
Y24746D01*
X21769Y24646D01*
X21869D01*
X21969Y24746D01*
X21369Y24646D02*
X21169D01*
X21269D01*
Y25245D01*
X21369Y25146D01*
D44*
X24291Y20285D02*
G03*
X24291Y20285I-49J0D01*
G01*
X27047Y24400D02*
G03*
X27047Y24400I-49J0D01*
G01*
D45*
X22024Y25524D02*
X25094D01*
Y27610D01*
X22024D02*
X25094D01*
X22024Y25524D02*
Y27610D01*
X24301Y20541D02*
Y20817D01*
X24222Y20541D02*
X24301D01*
X24222Y21900D02*
X24301D01*
Y21624D02*
Y21900D01*
X22943Y20541D02*
X23022D01*
X22943D02*
Y20817D01*
Y21900D02*
X23022D01*
X22943Y21624D02*
Y21900D01*
X26742Y24183D02*
Y24459D01*
X26467D02*
X26742D01*
Y22707D02*
Y22982D01*
X26467Y22707D02*
X26742D01*
X24990D02*
Y22982D01*
Y22707D02*
X25266D01*
X24990Y24183D02*
Y24459D01*
X25266D01*
D46*
X25495Y24928D02*
Y25308D01*
Y24928D02*
X26395D01*
X25495Y25308D02*
X26395D01*
Y24928D02*
Y25308D01*
X24928Y21513D02*
X25308D01*
X24928Y20613D02*
Y21513D01*
X25308Y20613D02*
Y21513D01*
X24928Y20613D02*
X25308D01*
X23211Y19574D02*
Y19954D01*
Y19574D02*
X24111D01*
X23211Y19954D02*
X24111D01*
Y19574D02*
Y19954D01*
D47*
X23780Y25285D02*
X23829Y25335D01*
X23927D01*
X23976Y25285D01*
Y25236D01*
X23927Y25187D01*
X23829D01*
X23780Y25138D01*
Y25089D01*
X23829Y25039D01*
X23927D01*
X23976Y25089D01*
X23484Y25285D02*
X23534Y25335D01*
X23632D01*
X23681Y25285D01*
Y25089D01*
X23632Y25039D01*
X23534D01*
X23484Y25089D01*
X23386Y25335D02*
Y25039D01*
Y25138D01*
X23189Y25335D01*
X23337Y25187D01*
X23189Y25039D01*
X24055Y27638D02*
Y27933D01*
X23957Y27835D01*
X23858Y27933D01*
Y27638D01*
X23612Y27933D02*
X23711D01*
X23760Y27884D01*
Y27687D01*
X23711Y27638D01*
X23612D01*
X23563Y27687D01*
Y27884D01*
X23612Y27933D01*
X23268Y27884D02*
X23317Y27933D01*
X23416D01*
X23465Y27884D01*
Y27835D01*
X23416Y27785D01*
X23317D01*
X23268Y27736D01*
Y27687D01*
X23317Y27638D01*
X23416D01*
X23465Y27687D01*
X23170Y27933D02*
X23071D01*
X23120D01*
Y27638D01*
X23170D01*
X23071D01*
X21654Y27214D02*
X21703Y27264D01*
X21801D01*
X21850Y27214D01*
Y27018D01*
X21801Y26969D01*
X21703D01*
X21654Y27018D01*
Y27116D01*
X21752D01*
X21555Y26969D02*
Y27264D01*
X21358Y26969D01*
Y27264D01*
X21260D02*
Y26969D01*
X21112D01*
X21063Y27018D01*
Y27214D01*
X21112Y27264D01*
X21260D01*
X21890Y25709D02*
Y26004D01*
X21742D01*
X21693Y25955D01*
Y25856D01*
X21742Y25807D01*
X21890D01*
X21791D02*
X21693Y25709D01*
X21398Y25955D02*
X21447Y26004D01*
X21545D01*
X21595Y25955D01*
Y25905D01*
X21545Y25856D01*
X21447D01*
X21398Y25807D01*
Y25758D01*
X21447Y25709D01*
X21545D01*
X21595Y25758D01*
X21299Y26004D02*
X21103D01*
X21201D01*
Y25709D01*
X26181Y27214D02*
X26132Y27264D01*
X26034D01*
X25984Y27214D01*
Y27165D01*
X26034Y27116D01*
X26083D01*
X26034D01*
X25984Y27067D01*
Y27018D01*
X26034Y26969D01*
X26132D01*
X26181Y27018D01*
X25886Y26969D02*
Y27018D01*
X25837D01*
Y26969D01*
X25886D01*
X25640Y27214D02*
X25591Y27264D01*
X25492D01*
X25443Y27214D01*
Y27165D01*
X25492Y27116D01*
X25542D01*
X25492D01*
X25443Y27067D01*
Y27018D01*
X25492Y26969D01*
X25591D01*
X25640Y27018D01*
X25345Y27264D02*
Y27067D01*
X25246Y26969D01*
X25148Y27067D01*
Y27264D01*
X26220Y25945D02*
Y26240D01*
X26122Y26142D01*
X26024Y26240D01*
Y25945D01*
X25925Y26240D02*
X25827D01*
X25876D01*
Y25945D01*
X25925D01*
X25827D01*
X25483Y26191D02*
X25532Y26240D01*
X25630D01*
X25679Y26191D01*
Y26142D01*
X25630Y26092D01*
X25532D01*
X25483Y26043D01*
Y25994D01*
X25532Y25945D01*
X25630D01*
X25679Y25994D01*
X25237Y26240D02*
X25335D01*
X25384Y26191D01*
Y25994D01*
X25335Y25945D01*
X25237D01*
X25187Y25994D01*
Y26191D01*
X25237Y26240D01*
X26181Y25679D02*
X26230Y25728D01*
X26329D01*
X26378Y25679D01*
Y25482D01*
X26329Y25433D01*
X26230D01*
X26181Y25482D01*
X25886Y25728D02*
X26083D01*
Y25581D01*
X25984Y25630D01*
X25935D01*
X25886Y25581D01*
Y25482D01*
X25935Y25433D01*
X26034D01*
X26083Y25482D01*
X24528Y24291D02*
X24232D01*
Y24144D01*
X24282Y24095D01*
X24380D01*
X24429Y24144D01*
Y24291D01*
Y24193D02*
X24528Y24095D01*
X24282Y23799D02*
X24232Y23849D01*
Y23947D01*
X24282Y23996D01*
X24478D01*
X24528Y23947D01*
Y23849D01*
X24478Y23799D01*
X24380D01*
Y23898D01*
X24232Y23701D02*
X24528D01*
Y23553D01*
X24478Y23504D01*
X24429D01*
X24380Y23553D01*
Y23701D01*
Y23553D01*
X24331Y23504D01*
X24282D01*
X24232Y23553D01*
Y23701D01*
X24577Y23406D02*
Y23209D01*
X24528Y23111D02*
Y23012D01*
Y23061D01*
X24232D01*
X24282Y23111D01*
X22638Y21890D02*
X22441D01*
X22343Y21791D01*
X22441Y21693D01*
X22638D01*
X22490D01*
Y21890D01*
X22392Y21398D02*
X22343Y21447D01*
Y21545D01*
X22392Y21595D01*
X22589D01*
X22638Y21545D01*
Y21447D01*
X22589Y21398D01*
X22392Y21103D02*
X22343Y21152D01*
Y21250D01*
X22392Y21299D01*
X22589D01*
X22638Y21250D01*
Y21152D01*
X22589Y21103D01*
X22343Y20807D02*
Y21004D01*
X22638D01*
Y20807D01*
X22490Y21004D02*
Y20906D01*
X22343Y20709D02*
X22638D01*
Y20512D01*
X25709Y21151D02*
X25758Y21201D01*
X25856D01*
X25906Y21151D01*
Y20955D01*
X25856Y20906D01*
X25758D01*
X25709Y20955D01*
X25414Y20906D02*
X25610D01*
X25414Y21102D01*
Y21151D01*
X25463Y21201D01*
X25561D01*
X25610Y21151D01*
X24528Y19852D02*
X24577Y19901D01*
X24675D01*
X24724Y19852D01*
Y19655D01*
X24675Y19606D01*
X24577D01*
X24528Y19655D01*
X24282Y19606D02*
Y19901D01*
X24429Y19754D01*
X24232D01*
X21880Y23701D02*
X21831Y23750D01*
Y23848D01*
X21880Y23898D01*
X22077D01*
X22126Y23848D01*
Y23750D01*
X22077Y23701D01*
X21880Y23602D02*
X21831Y23553D01*
Y23455D01*
X21880Y23406D01*
X21929D01*
X21978Y23455D01*
Y23504D01*
Y23455D01*
X22028Y23406D01*
X22077D01*
X22126Y23455D01*
Y23553D01*
X22077Y23602D01*
X27054Y25207D02*
Y25059D01*
X27005Y25010D01*
X26858D01*
Y25207D01*
X26562Y25256D02*
X26612Y25305D01*
X26710D01*
X26759Y25256D01*
Y25059D01*
X26710Y25010D01*
X26612D01*
X26562Y25059D01*
M02*
