M48
;Layer_Color=6321
;FILE_FORMAT=2:4
INCH,LZ
T7F00S00C0.2000
%
G90
G05
T07
G00X036098Y010109
M15
G01X036274Y010151
G01X036962Y010386
G01X037787Y010708
G01X038597Y011065
G01X039391Y011458
G01X040167Y011884
G01X040923Y012345
G01X041659Y012837
G01X042373Y013362
G01X043063Y013917
G01X043728Y014501
G01X044367Y015114
G01X044978Y015755
G01X045561Y016421
G01X046115Y017112
G01X046638Y017827
G01X047129Y018564
G01X047587Y019321
G01X048013Y020098
G01X048403Y020892
G01X048759Y021703
G01X049079Y022529
G01X049363Y023368
G01X04961Y024218
G01X049819Y025079
G01X049991Y025947
G01X050125Y026823
G01X05022Y027703
G01X050277Y028587
G01X050296Y029472
G01X050275Y030357
G01X050217Y031241
G01X050119Y032121
G01X049984Y032996
G01X04981Y033864
G01X049598Y034724
G01X04935Y035574
G01X049064Y036412
G01X048742Y037237
G01X048385Y038047
G01X047992Y038841
G01X047566Y039617
G01X047105Y040373
G01X046613Y041109
G01X046088Y041823
G01X045533Y042513
G01X044949Y043178
G01X044336Y043817
G01X043695Y044428
G01X043029Y045011
G01X042338Y045565
G01X041623Y046088
G01X040886Y046579
G01X040129Y047037
G01X039352Y047463
G01X038558Y047853
G01X037747Y048209
G01X036921Y048529
G01X036082Y048813
G01X035232Y04906
G01X034371Y049269
G01X033503Y049441
G01X032627Y049575
G01X031747Y04967
G01X030863Y049727
G01X029978Y049746
G01X029093Y049725
G01X028209Y049667
G01X027329Y049569
G01X026454Y049434
G01X025586Y04926
G01X024726Y049048
G01X023876Y0488
G01X023038Y048514
G01X022213Y048192
G01X021403Y047835
G01X020609Y047442
G01X019833Y047016
G01X019077Y046555
G01X018341Y046063
G01X017627Y045538
G01X016937Y044983
G01X016272Y044399
G01X015633Y043786
G01X015022Y043145
G01X014439Y042479
G01X013885Y041788
G01X013362Y041073
G01X012871Y040336
G01X012413Y039579
G01X011987Y038802
G01X011597Y038008
G01X011241Y037197
G01X010921Y036371
G01X010637Y035532
G01X01039Y034682
G01X010181Y033821
G01X010009Y032953
G01X009875Y032077
G01X00978Y031197
G01X009723Y030313
G01X009704Y029428
G01X009725Y028543
G01X009783Y027659
G01X009881Y026779
G01X010016Y025904
G01X01019Y025036
G01X010402Y024176
G01X01065Y023326
G01X010936Y022488
G01X011258Y021663
G01X011615Y020853
G01X012008Y020059
G01X012434Y019283
G01X012895Y018527
G01X013387Y017791
G01X013912Y017077
G01X014467Y016387
G01X015051Y015722
G01X015664Y015083
G01X016305Y014472
G01X016971Y013889
G01X017662Y013335
G01X018377Y012812
G01X019114Y012321
G01X019871Y011863
G01X020648Y011437
G01X021442Y011047
G01X022253Y010691
G01X023079Y010371
G01X023726Y010151
G01X023921Y010106
G01X02412Y010101
G01X024317Y010135
G01X024503Y010208
G01X024671Y010316
G01X024814Y010456
G01X024926Y010621
G01X024999Y01079
G01X024999Y010791
G01X025042Y010987
G01X025048Y0111
G01X025048Y016167
G01X034945Y016167
G01X034945Y011107
G01X034965Y010908
G01X035024Y010717
G01X03512Y010542
G01X035191Y01045
G01X035198Y010441
G01X035344Y010305
G01X035514Y0102
G01X035701Y01013
G01X035899Y0101
G01X036098Y010109
M16
M17
M30
