G04 Layer_Color=13813960*
%FSLAX24Y24*%
%MOIN*%
G70*
G01*
G75*
%ADD17C,0.0059*%
%ADD34C,0.0079*%
%ADD37C,0.0100*%
D17*
X15110Y35194D02*
Y34800D01*
X14848D01*
X14520D02*
Y35194D01*
X14716Y34997D01*
X14454D01*
X15110Y27314D02*
Y26920D01*
X14848D01*
X14716Y27248D02*
X14651Y27314D01*
X14520D01*
X14454Y27248D01*
Y27182D01*
X14520Y27117D01*
X14585D01*
X14520D01*
X14454Y27051D01*
Y26986D01*
X14520Y26920D01*
X14651D01*
X14716Y26986D01*
X42270Y27314D02*
Y26920D01*
X42008D01*
X41614D02*
X41876D01*
X41614Y27182D01*
Y27248D01*
X41680Y27314D01*
X41811D01*
X41876Y27248D01*
X42270Y35194D02*
Y34800D01*
X42008D01*
X41876D02*
X41745D01*
X41811D01*
Y35194D01*
X41876Y35128D01*
D34*
X35528Y29976D02*
X35928D01*
X35528Y29276D02*
Y29976D01*
X35928Y29276D02*
Y29976D01*
X35528Y29276D02*
X35928D01*
D37*
X12362Y32835D02*
G03*
X12362Y32835I-39J0D01*
G01*
Y24961D02*
G03*
X12362Y24961I-39J0D01*
G01*
X39528D02*
G03*
X39528Y24961I-39J0D01*
G01*
Y32835D02*
G03*
X39528Y32835I-39J0D01*
G01*
X15118Y32559D02*
Y34488D01*
X12480Y32559D02*
Y34488D01*
X15118D01*
X12480Y32402D02*
X15118D01*
X12480D02*
Y32559D01*
X15118Y32402D02*
Y32559D01*
Y24685D02*
Y26614D01*
X12480Y24685D02*
Y26614D01*
X15118D01*
X12480Y24528D02*
X15118D01*
X12480D02*
Y24685D01*
X15118Y24528D02*
Y24685D01*
X42283D02*
Y26614D01*
X39646Y24685D02*
Y26614D01*
X42283D01*
X39646Y24528D02*
X42283D01*
X39646D02*
Y24685D01*
X42283Y24528D02*
Y24685D01*
Y32559D02*
Y34488D01*
X39646Y32559D02*
Y34488D01*
X42283D01*
X39646Y32402D02*
X42283D01*
X39646D02*
Y32559D01*
X42283Y32402D02*
Y32559D01*
M02*
