G04 Layer_Color=13813960*
%FSLAX24Y24*%
%MOIN*%
G70*
G01*
G75*
%ADD10C,0.0100*%
%ADD21C,0.0079*%
D10*
X43898Y11320D02*
Y11520D01*
X43998Y11620D01*
X44198D01*
X44298Y11520D01*
Y11320D01*
X44198Y11220D01*
X43998D01*
X43898Y11320D01*
Y11920D02*
X44397D01*
X44198D01*
Y11820D01*
Y12020D01*
Y11920D01*
X44397D01*
X44497Y12020D01*
Y12920D02*
X43898D01*
Y13220D01*
X43998Y13320D01*
X44098D01*
X44198D01*
X44298Y13220D01*
Y12920D01*
X43898Y13620D02*
Y13820D01*
X43998Y13920D01*
X44198D01*
X44298Y13820D01*
Y13620D01*
X44198Y13520D01*
X43998D01*
X43898Y13620D01*
X44298Y14219D02*
Y14419D01*
X44198Y14519D01*
X43898D01*
Y14219D01*
X43998Y14120D01*
X44098Y14219D01*
Y14519D01*
X44298Y14719D02*
X43898D01*
X44098D01*
X44198Y14819D01*
X44298Y14919D01*
Y15019D01*
X44497Y15719D02*
X43898D01*
Y15419D01*
X43998Y15319D01*
X44198D01*
X44298Y15419D01*
Y15719D01*
X43898Y16519D02*
Y16719D01*
Y16619D01*
X44298D01*
Y16519D01*
X43898Y17019D02*
X44298D01*
Y17319D01*
X44198Y17418D01*
X43898D01*
X44397Y17718D02*
X44298D01*
Y17618D01*
Y17818D01*
Y17718D01*
X43998D01*
X43898Y17818D01*
Y18218D02*
Y18418D01*
X43998Y18518D01*
X44198D01*
X44298Y18418D01*
Y18218D01*
X44198Y18118D01*
X43998D01*
X43898Y18218D01*
X44397Y19418D02*
X44298D01*
Y19318D01*
Y19518D01*
Y19418D01*
X43998D01*
X43898Y19518D01*
X44497Y19818D02*
X43898D01*
X44198D01*
X44298Y19918D01*
Y20118D01*
X44198Y20218D01*
X43898D01*
Y20717D02*
Y20517D01*
X43998Y20417D01*
X44198D01*
X44298Y20517D01*
Y20717D01*
X44198Y20817D01*
X44098D01*
Y20417D01*
X44497Y21617D02*
Y22017D01*
X44397D01*
X43998Y21617D01*
X43898D01*
Y22817D02*
Y23117D01*
X43998Y23217D01*
X44098Y23117D01*
Y22917D01*
X44198Y22817D01*
X44298Y22917D01*
Y23217D01*
X43898Y23716D02*
Y23516D01*
X43998Y23417D01*
X44198D01*
X44298Y23516D01*
Y23716D01*
X44198Y23816D01*
X44098D01*
Y23417D01*
X43698Y24216D02*
Y24316D01*
X43798Y24416D01*
X44298D01*
Y24116D01*
X44198Y24016D01*
X43998D01*
X43898Y24116D01*
Y24416D01*
Y24616D02*
X44298D01*
Y24716D01*
X44198Y24816D01*
X43898D01*
X44198D01*
X44298Y24916D01*
X44198Y25016D01*
X43898D01*
Y25516D02*
Y25316D01*
X43998Y25216D01*
X44198D01*
X44298Y25316D01*
Y25516D01*
X44198Y25616D01*
X44098D01*
Y25216D01*
X43898Y25816D02*
X44298D01*
Y26116D01*
X44198Y26216D01*
X43898D01*
X44397Y26516D02*
X44298D01*
Y26416D01*
Y26615D01*
Y26516D01*
X43998D01*
X43898Y26615D01*
X43698Y27515D02*
X44298D01*
Y27815D01*
X44198Y27915D01*
X43998D01*
X43898Y27815D01*
Y27515D01*
Y28115D02*
Y28315D01*
Y28215D01*
X44497D01*
Y28115D01*
X44298Y28615D02*
X43998D01*
X43898Y28715D01*
Y29015D01*
X44298D01*
X43698Y29415D02*
Y29515D01*
X43798Y29615D01*
X44298D01*
Y29315D01*
X44198Y29215D01*
X43998D01*
X43898Y29315D01*
Y29615D01*
Y29814D02*
Y30114D01*
X43998Y30214D01*
X44098Y30114D01*
Y29914D01*
X44198Y29814D01*
X44298Y29914D01*
Y30214D01*
X45482Y11220D02*
X44982D01*
X44882Y11320D01*
Y11520D01*
X44982Y11620D01*
X45482D01*
X44882Y11820D02*
Y12120D01*
X44982Y12220D01*
X45082Y12120D01*
Y11920D01*
X45182Y11820D01*
X45282Y11920D01*
Y12220D01*
X44882Y12720D02*
Y12520D01*
X44982Y12420D01*
X45182D01*
X45282Y12520D01*
Y12720D01*
X45182Y12820D01*
X45082D01*
Y12420D01*
X45282Y13020D02*
Y13120D01*
X45182D01*
Y13020D01*
X45282D01*
X44982D02*
Y13120D01*
X44882D01*
Y13020D01*
X44982D01*
X44882Y14120D02*
X45482D01*
Y14419D01*
X45382Y14519D01*
X45182D01*
X45082Y14419D01*
Y14120D01*
X44882Y14719D02*
Y14919D01*
Y14819D01*
X45482D01*
Y14719D01*
X45282Y15219D02*
X44982D01*
X44882Y15319D01*
Y15619D01*
X45282D01*
X44682Y16019D02*
Y16119D01*
X44782Y16219D01*
X45282D01*
Y15919D01*
X45182Y15819D01*
X44982D01*
X44882Y15919D01*
Y16219D01*
Y17019D02*
Y17219D01*
Y17119D01*
X45282D01*
Y17019D01*
X44882Y17518D02*
X45282D01*
Y17818D01*
X45182Y17918D01*
X44882D01*
X44682Y18718D02*
Y18818D01*
X44782Y18918D01*
X45282D01*
Y19318D02*
X44982D01*
X44882Y19418D01*
Y19718D01*
X45282D01*
X44882Y19918D02*
X45282D01*
Y20018D01*
X45182Y20118D01*
X44882D01*
X45182D01*
X45282Y20218D01*
X45182Y20318D01*
X44882D01*
X44682Y20517D02*
X45282D01*
Y20817D01*
X45182Y20917D01*
X44982D01*
X44882Y20817D01*
Y20517D01*
Y21417D02*
Y21217D01*
X44982Y21117D01*
X45182D01*
X45282Y21217D01*
Y21417D01*
X45182Y21517D01*
X45082D01*
Y21117D01*
X45282Y21717D02*
X44882D01*
X45082D01*
X45182Y21817D01*
X45282Y21917D01*
Y22017D01*
Y22917D02*
X44982D01*
X44882Y23017D01*
X44982Y23117D01*
X44882Y23217D01*
X44982Y23317D01*
X45282D01*
X44882Y23516D02*
Y23716D01*
Y23616D01*
X45282D01*
Y23516D01*
Y24016D02*
X44882D01*
X45082D01*
X45182Y24116D01*
X45282Y24216D01*
Y24316D01*
X44882Y24916D02*
Y24716D01*
X44982Y24616D01*
X45182D01*
X45282Y24716D01*
Y24916D01*
X45182Y25016D01*
X45082D01*
Y24616D01*
X44882Y25216D02*
Y25516D01*
X44982Y25616D01*
X45082Y25516D01*
Y25316D01*
X45182Y25216D01*
X45282Y25316D01*
Y25616D01*
X44882Y26516D02*
X45382D01*
X45182D01*
Y26416D01*
Y26615D01*
Y26516D01*
X45382D01*
X45482Y26615D01*
X45282Y26915D02*
X44882D01*
X45082D01*
X45182Y27015D01*
X45282Y27115D01*
Y27215D01*
X44882Y27615D02*
Y27815D01*
X44982Y27915D01*
X45182D01*
X45282Y27815D01*
Y27615D01*
X45182Y27515D01*
X44982D01*
X44882Y27615D01*
Y28115D02*
X45282D01*
Y28215D01*
X45182Y28315D01*
X44882D01*
X45182D01*
X45282Y28415D01*
X45182Y28515D01*
X44882D01*
X45482Y29315D02*
X44882D01*
Y29615D01*
X44982Y29714D01*
X45082D01*
X45182D01*
X45282Y29615D01*
Y29315D01*
X44882Y30014D02*
Y30214D01*
X44982Y30314D01*
X45182D01*
X45282Y30214D01*
Y30014D01*
X45182Y29914D01*
X44982D01*
X44882Y30014D01*
X45382Y30614D02*
X45282D01*
Y30514D01*
Y30714D01*
Y30614D01*
X44982D01*
X44882Y30714D01*
X45382Y31114D02*
X45282D01*
Y31014D01*
Y31214D01*
Y31114D01*
X44982D01*
X44882Y31214D01*
Y31614D02*
Y31814D01*
X44982Y31914D01*
X45182D01*
X45282Y31814D01*
Y31614D01*
X45182Y31514D01*
X44982D01*
X44882Y31614D01*
Y32114D02*
X45282D01*
Y32214D01*
X45182Y32314D01*
X44882D01*
X45182D01*
X45282Y32414D01*
X45182Y32514D01*
X44882D01*
X46760Y11620D02*
X46860Y11520D01*
Y11320D01*
X46760Y11220D01*
X46360D01*
X46260Y11320D01*
Y11520D01*
X46360Y11620D01*
X46260Y11820D02*
Y12020D01*
Y11920D01*
X46660D01*
Y11820D01*
Y12320D02*
X46260D01*
X46460D01*
X46560Y12420D01*
X46660Y12520D01*
Y12620D01*
Y13320D02*
Y13020D01*
X46560Y12920D01*
X46360D01*
X46260Y13020D01*
Y13320D01*
X46660Y13520D02*
X46360D01*
X46260Y13620D01*
Y13920D01*
X46660D01*
X46260Y14120D02*
Y14319D01*
Y14219D01*
X46660D01*
Y14120D01*
X46760Y14719D02*
X46660D01*
Y14619D01*
Y14819D01*
Y14719D01*
X46360D01*
X46260Y14819D01*
Y15119D02*
Y15419D01*
X46360Y15519D01*
X46460Y15419D01*
Y15219D01*
X46560Y15119D01*
X46660Y15219D01*
Y15519D01*
X46260Y16419D02*
X46760D01*
X46560D01*
Y16319D01*
Y16519D01*
Y16419D01*
X46760D01*
X46860Y16519D01*
X46260Y16919D02*
Y17119D01*
X46360Y17219D01*
X46560D01*
X46660Y17119D01*
Y16919D01*
X46560Y16819D01*
X46360D01*
X46260Y16919D01*
X46660Y17418D02*
X46260D01*
X46460D01*
X46560Y17518D01*
X46660Y17618D01*
Y17718D01*
X46860Y18618D02*
X46260D01*
X46460D01*
X46860Y19018D01*
X46560Y18718D01*
X46260Y19018D01*
Y19218D02*
Y19418D01*
Y19318D01*
X46660D01*
Y19218D01*
X46860Y20118D02*
X46260D01*
Y19818D01*
X46360Y19718D01*
X46560D01*
X46660Y19818D01*
Y20118D01*
X46260Y20318D02*
Y20617D01*
X46360Y20717D01*
X46460Y20617D01*
Y20417D01*
X46560Y20318D01*
X46660Y20417D01*
Y20717D01*
X46560Y21517D02*
Y21917D01*
X46860Y22717D02*
Y23117D01*
X46760D01*
X46360Y22717D01*
X46260D01*
Y23916D02*
Y24216D01*
X46360Y24316D01*
X46460Y24216D01*
Y24016D01*
X46560Y23916D01*
X46660Y24016D01*
Y24316D01*
X46260Y24816D02*
Y24616D01*
X46360Y24516D01*
X46560D01*
X46660Y24616D01*
Y24816D01*
X46560Y24916D01*
X46460D01*
Y24516D01*
X46060Y25316D02*
Y25416D01*
X46160Y25516D01*
X46660D01*
Y25216D01*
X46560Y25116D01*
X46360D01*
X46260Y25216D01*
Y25516D01*
Y25716D02*
X46660D01*
Y25816D01*
X46560Y25916D01*
X46260D01*
X46560D01*
X46660Y26016D01*
X46560Y26116D01*
X46260D01*
Y26615D02*
Y26416D01*
X46360Y26316D01*
X46560D01*
X46660Y26416D01*
Y26615D01*
X46560Y26715D01*
X46460D01*
Y26316D01*
X46260Y26915D02*
X46660D01*
Y27215D01*
X46560Y27315D01*
X46260D01*
X46760Y27615D02*
X46660D01*
Y27515D01*
Y27715D01*
Y27615D01*
X46360D01*
X46260Y27715D01*
X46860Y29015D02*
X46260D01*
Y28715D01*
X46360Y28615D01*
X46560D01*
X46660Y28715D01*
Y29015D01*
X46260Y29215D02*
Y29415D01*
Y29315D01*
X46660D01*
Y29215D01*
X46260Y29714D02*
Y30014D01*
X46360Y30114D01*
X46460Y30014D01*
Y29814D01*
X46560Y29714D01*
X46660Y29814D01*
Y30114D01*
X46060Y30314D02*
X46660D01*
Y30614D01*
X46560Y30714D01*
X46360D01*
X46260Y30614D01*
Y30314D01*
Y30914D02*
Y31114D01*
Y31014D01*
X46860D01*
Y30914D01*
X46660Y31514D02*
Y31714D01*
X46560Y31814D01*
X46260D01*
Y31514D01*
X46360Y31414D01*
X46460Y31514D01*
Y31814D01*
X46660Y32014D02*
X46360D01*
X46260Y32114D01*
Y32414D01*
X46160D01*
X46060Y32314D01*
Y32214D01*
X46260Y32414D02*
X46660D01*
D21*
X38976Y13386D02*
Y13648D01*
Y13517D01*
X38583D01*
X38976Y13779D02*
X38583D01*
X38779D01*
X38845Y13845D01*
Y13976D01*
X38779Y14042D01*
X38583D01*
Y14173D02*
Y14304D01*
Y14239D01*
X38845D01*
Y14173D01*
X38583Y14501D02*
Y14698D01*
X38648Y14763D01*
X38714Y14698D01*
Y14567D01*
X38779Y14501D01*
X38845Y14567D01*
Y14763D01*
X38583Y15288D02*
Y15419D01*
Y15354D01*
X38845D01*
Y15288D01*
X38583Y15616D02*
Y15813D01*
X38648Y15878D01*
X38714Y15813D01*
Y15682D01*
X38779Y15616D01*
X38845Y15682D01*
Y15878D01*
X38583Y16469D02*
X38911D01*
X38779D01*
Y16403D01*
Y16534D01*
Y16469D01*
X38911D01*
X38976Y16534D01*
X38583Y16797D02*
Y16928D01*
X38648Y16994D01*
X38779D01*
X38845Y16928D01*
Y16797D01*
X38779Y16731D01*
X38648D01*
X38583Y16797D01*
X38845Y17125D02*
X38583D01*
X38714D01*
X38779Y17190D01*
X38845Y17256D01*
Y17322D01*
X38583Y17912D02*
Y18043D01*
Y17978D01*
X38845D01*
Y17912D01*
X38583Y18305D02*
X38911D01*
X38779D01*
Y18240D01*
Y18371D01*
Y18305D01*
X38911D01*
X38976Y18371D01*
X38911Y19027D02*
X38845D01*
Y18961D01*
Y19093D01*
Y19027D01*
X38648D01*
X38583Y19093D01*
X38976Y19289D02*
X38583D01*
X38779D01*
X38845Y19355D01*
Y19486D01*
X38779Y19552D01*
X38583D01*
Y19880D02*
Y19749D01*
X38648Y19683D01*
X38779D01*
X38845Y19749D01*
Y19880D01*
X38779Y19945D01*
X38714D01*
Y19683D01*
X38976Y20733D02*
X38583D01*
Y20536D01*
X38648Y20470D01*
X38779D01*
X38845Y20536D01*
Y20733D01*
X38583Y20864D02*
Y20995D01*
Y20929D01*
X38845D01*
Y20864D01*
X38583Y21192D02*
Y21388D01*
X38648Y21454D01*
X38714Y21388D01*
Y21257D01*
X38779Y21192D01*
X38845Y21257D01*
Y21454D01*
X38451Y21585D02*
X38845D01*
Y21782D01*
X38779Y21848D01*
X38648D01*
X38583Y21782D01*
Y21585D01*
Y21979D02*
Y22110D01*
Y22044D01*
X38976D01*
Y21979D01*
X38845Y22372D02*
Y22504D01*
X38779Y22569D01*
X38583D01*
Y22372D01*
X38648Y22307D01*
X38714Y22372D01*
Y22569D01*
X38845Y22700D02*
X38648D01*
X38583Y22766D01*
Y22963D01*
X38517D01*
X38451Y22897D01*
Y22832D01*
X38583Y22963D02*
X38845D01*
X38583Y23094D02*
Y23291D01*
X38648Y23356D01*
X38714Y23291D01*
Y23160D01*
X38779Y23094D01*
X38845Y23160D01*
Y23356D01*
Y23947D02*
Y24078D01*
X38779Y24144D01*
X38583D01*
Y23947D01*
X38648Y23881D01*
X38714Y23947D01*
Y24144D01*
X38845Y24275D02*
X38583D01*
X38714D01*
X38779Y24340D01*
X38845Y24406D01*
Y24471D01*
X38583Y24865D02*
Y24734D01*
X38648Y24668D01*
X38779D01*
X38845Y24734D01*
Y24865D01*
X38779Y24931D01*
X38714D01*
Y24668D01*
X38911Y25718D02*
X38976Y25652D01*
Y25521D01*
X38911Y25455D01*
X38648D01*
X38583Y25521D01*
Y25652D01*
X38648Y25718D01*
X38583Y25915D02*
Y26046D01*
X38648Y26111D01*
X38779D01*
X38845Y26046D01*
Y25915D01*
X38779Y25849D01*
X38648D01*
X38583Y25915D01*
Y26243D02*
X38845D01*
Y26308D01*
X38779Y26374D01*
X38583D01*
X38779D01*
X38845Y26439D01*
X38779Y26505D01*
X38583D01*
Y26636D02*
X38845D01*
Y26702D01*
X38779Y26767D01*
X38583D01*
X38779D01*
X38845Y26833D01*
X38779Y26899D01*
X38583D01*
Y27095D02*
Y27227D01*
X38648Y27292D01*
X38779D01*
X38845Y27227D01*
Y27095D01*
X38779Y27030D01*
X38648D01*
X38583Y27095D01*
Y27423D02*
X38845D01*
Y27620D01*
X38779Y27686D01*
X38583D01*
X38911Y28473D02*
X38976Y28407D01*
Y28276D01*
X38911Y28210D01*
X38648D01*
X38583Y28276D01*
Y28407D01*
X38648Y28473D01*
X38779D01*
Y28342D01*
X38583Y28604D02*
X38976D01*
X38583Y28866D01*
X38976D01*
Y28998D02*
X38583D01*
Y29194D01*
X38648Y29260D01*
X38911D01*
X38976Y29194D01*
Y28998D01*
X38583Y29850D02*
Y29982D01*
X38648Y30047D01*
X38779D01*
X38845Y29982D01*
Y29850D01*
X38779Y29785D01*
X38648D01*
X38583Y29850D01*
X38845Y30178D02*
X38583D01*
X38714D01*
X38779Y30244D01*
X38845Y30310D01*
Y30375D01*
X38976Y31228D02*
Y30965D01*
X38779D01*
X38845Y31097D01*
Y31162D01*
X38779Y31228D01*
X38648D01*
X38583Y31162D01*
Y31031D01*
X38648Y30965D01*
X38976Y31359D02*
X38714D01*
X38583Y31490D01*
X38714Y31621D01*
X38976D01*
X39370Y13451D02*
X39698D01*
X39567D01*
Y13386D01*
Y13517D01*
Y13451D01*
X39698D01*
X39764Y13517D01*
X39632Y13714D02*
X39370D01*
X39501D01*
X39567Y13779D01*
X39632Y13845D01*
Y13911D01*
X39370Y14173D02*
Y14304D01*
X39436Y14370D01*
X39567D01*
X39632Y14304D01*
Y14173D01*
X39567Y14107D01*
X39436D01*
X39370Y14173D01*
Y14501D02*
X39632D01*
Y14567D01*
X39567Y14632D01*
X39370D01*
X39567D01*
X39632Y14698D01*
X39567Y14763D01*
X39370D01*
Y15288D02*
X39764D01*
Y15485D01*
X39698Y15550D01*
X39567D01*
X39501Y15485D01*
Y15288D01*
Y15419D02*
X39370Y15550D01*
X39764Y15944D02*
Y15682D01*
X39370D01*
Y15944D01*
X39567Y15682D02*
Y15813D01*
X39698Y16338D02*
X39764Y16272D01*
Y16141D01*
X39698Y16075D01*
X39632D01*
X39567Y16141D01*
Y16272D01*
X39501Y16338D01*
X39436D01*
X39370Y16272D01*
Y16141D01*
X39436Y16075D01*
X39632Y16928D02*
Y17059D01*
X39567Y17125D01*
X39370D01*
Y16928D01*
X39436Y16862D01*
X39501Y16928D01*
Y17125D01*
X39370Y17256D02*
X39632D01*
Y17453D01*
X39567Y17518D01*
X39370D01*
X39764Y17912D02*
X39370D01*
Y17715D01*
X39436Y17650D01*
X39567D01*
X39632Y17715D01*
Y17912D01*
X39764Y18437D02*
X39370D01*
Y18699D01*
X39764Y19093D02*
Y18830D01*
X39370D01*
Y19093D01*
X39567Y18830D02*
Y18961D01*
X39764Y19224D02*
X39370D01*
Y19421D01*
X39436Y19486D01*
X39698D01*
X39764Y19421D01*
Y19224D01*
X39698Y19880D02*
X39764Y19814D01*
Y19683D01*
X39698Y19617D01*
X39632D01*
X39567Y19683D01*
Y19814D01*
X39501Y19880D01*
X39436D01*
X39370Y19814D01*
Y19683D01*
X39436Y19617D01*
X39698Y20470D02*
X39632D01*
Y20405D01*
Y20536D01*
Y20470D01*
X39436D01*
X39370Y20536D01*
Y20798D02*
Y20929D01*
X39436Y20995D01*
X39567D01*
X39632Y20929D01*
Y20798D01*
X39567Y20733D01*
X39436D01*
X39370Y20798D01*
X39764Y21782D02*
Y21520D01*
X39567D01*
X39632Y21651D01*
Y21716D01*
X39567Y21782D01*
X39436D01*
X39370Y21716D01*
Y21585D01*
X39436Y21520D01*
X39764Y21913D02*
X39501D01*
X39370Y22044D01*
X39501Y22176D01*
X39764D01*
X39370Y22766D02*
Y22897D01*
X39436Y22963D01*
X39567D01*
X39632Y22897D01*
Y22766D01*
X39567Y22700D01*
X39436D01*
X39370Y22766D01*
X39632Y23094D02*
X39370D01*
X39501D01*
X39567Y23160D01*
X39632Y23225D01*
Y23291D01*
X39698Y24144D02*
X39764Y24078D01*
Y23947D01*
X39698Y23881D01*
X39436D01*
X39370Y23947D01*
Y24078D01*
X39436Y24144D01*
X39567D01*
Y24012D01*
X39370Y24275D02*
X39764D01*
X39370Y24537D01*
X39764D01*
Y24668D02*
X39370D01*
Y24865D01*
X39436Y24931D01*
X39698D01*
X39764Y24865D01*
Y24668D01*
X40354Y13386D02*
X40748D01*
X40354Y13648D01*
X40748D01*
X40354Y13845D02*
Y13976D01*
X40420Y14042D01*
X40551D01*
X40617Y13976D01*
Y13845D01*
X40551Y13779D01*
X40420D01*
X40354Y13845D01*
X40682Y14239D02*
X40617D01*
Y14173D01*
Y14304D01*
Y14239D01*
X40420D01*
X40354Y14304D01*
Y14698D02*
Y14567D01*
X40420Y14501D01*
X40551D01*
X40617Y14567D01*
Y14698D01*
X40551Y14763D01*
X40486D01*
Y14501D01*
X40617Y14895D02*
Y14960D01*
X40551D01*
Y14895D01*
X40617D01*
X40420D02*
Y14960D01*
X40354D01*
Y14895D01*
X40420D01*
X40617Y15616D02*
X40420D01*
X40354Y15682D01*
Y15878D01*
X40289D01*
X40223Y15813D01*
Y15747D01*
X40354Y15878D02*
X40617D01*
X40354Y16075D02*
Y16206D01*
X40420Y16272D01*
X40551D01*
X40617Y16206D01*
Y16075D01*
X40551Y16010D01*
X40420D01*
X40354Y16075D01*
X40617Y16403D02*
X40420D01*
X40354Y16469D01*
Y16666D01*
X40617D01*
X40354Y17190D02*
X40617D01*
Y17256D01*
X40551Y17322D01*
X40354D01*
X40551D01*
X40617Y17387D01*
X40551Y17453D01*
X40354D01*
X40617Y17584D02*
X40420D01*
X40354Y17650D01*
Y17846D01*
X40617D01*
X40354Y17978D02*
Y18174D01*
X40420Y18240D01*
X40486Y18174D01*
Y18043D01*
X40551Y17978D01*
X40617Y18043D01*
Y18240D01*
X40682Y18437D02*
X40617D01*
Y18371D01*
Y18502D01*
Y18437D01*
X40420D01*
X40354Y18502D01*
X40223Y19093D02*
X40617D01*
Y19289D01*
X40551Y19355D01*
X40420D01*
X40354Y19289D01*
Y19093D01*
Y19486D02*
Y19617D01*
Y19552D01*
X40748D01*
Y19486D01*
X40617Y19814D02*
X40420D01*
X40354Y19880D01*
Y20077D01*
X40617D01*
X40223Y20339D02*
Y20405D01*
X40289Y20470D01*
X40617D01*
Y20273D01*
X40551Y20208D01*
X40420D01*
X40354Y20273D01*
Y20470D01*
Y20995D02*
Y21126D01*
Y21061D01*
X40617D01*
Y20995D01*
X40354Y21323D02*
X40617D01*
Y21520D01*
X40551Y21585D01*
X40354D01*
X40223Y22110D02*
Y22176D01*
X40289Y22241D01*
X40617D01*
Y22504D02*
X40420D01*
X40354Y22569D01*
Y22766D01*
X40617D01*
X40354Y22897D02*
X40617D01*
Y22963D01*
X40551Y23028D01*
X40354D01*
X40551D01*
X40617Y23094D01*
X40551Y23160D01*
X40354D01*
X40223Y23291D02*
X40617D01*
Y23488D01*
X40551Y23553D01*
X40420D01*
X40354Y23488D01*
Y23291D01*
Y23881D02*
Y23750D01*
X40420Y23684D01*
X40551D01*
X40617Y23750D01*
Y23881D01*
X40551Y23947D01*
X40486D01*
Y23684D01*
X40617Y24078D02*
X40354D01*
X40486D01*
X40551Y24144D01*
X40617Y24209D01*
Y24275D01*
Y24865D02*
X40420D01*
X40354Y24931D01*
X40420Y24996D01*
X40354Y25062D01*
X40420Y25127D01*
X40617D01*
X40354Y25259D02*
Y25390D01*
Y25324D01*
X40617D01*
Y25259D01*
Y25587D02*
X40354D01*
X40486D01*
X40551Y25652D01*
X40617Y25718D01*
Y25783D01*
X40354Y26177D02*
Y26046D01*
X40420Y25980D01*
X40551D01*
X40617Y26046D01*
Y26177D01*
X40551Y26243D01*
X40486D01*
Y25980D01*
X40354Y26374D02*
Y26571D01*
X40420Y26636D01*
X40486Y26571D01*
Y26439D01*
X40551Y26374D01*
X40617Y26439D01*
Y26636D01*
M02*
