G04 Layer_Color=8150272*
%FSLAX24Y24*%
%MOIN*%
G70*
G01*
G75*
%ADD22P,0.2784X4X67.5*%
%ADD23P,0.2784X4X112.5*%
G04:AMPARAMS|DCode=24|XSize=196.9mil|YSize=196.9mil|CornerRadius=0mil|HoleSize=0mil|Usage=FLASHONLY|Rotation=67.500|XOffset=0mil|YOffset=0mil|HoleType=Round|Shape=Rectangle|*
%AMROTATEDRECTD24*
4,1,4,0.0533,-0.1286,-0.1286,-0.0533,-0.0533,0.1286,0.1286,0.0533,0.0533,-0.1286,0.0*
%
%ADD24ROTATEDRECTD24*%

%ADD25P,0.2784X4X67.5*%
G04:AMPARAMS|DCode=26|XSize=196.9mil|YSize=196.9mil|CornerRadius=0mil|HoleSize=0mil|Usage=FLASHONLY|Rotation=22.500|XOffset=0mil|YOffset=0mil|HoleType=Round|Shape=Rectangle|*
%AMROTATEDRECTD26*
4,1,4,-0.0533,-0.1286,-0.1286,0.0533,0.0533,0.1286,0.1286,-0.0533,-0.0533,-0.1286,0.0*
%
%ADD26ROTATEDRECTD26*%

%ADD723C,0.1064*%
%ADD724R,0.0710X0.0710*%
%ADD725C,0.0710*%
%ADD726C,0.0730*%
%ADD727C,0.0680*%
%ADD728C,0.0580*%
D22*
X16044Y23884D02*
D03*
X35060Y15971D02*
D03*
D23*
X23924Y16005D02*
D03*
X16050Y35100D02*
D03*
D24*
X35066Y43052D02*
D03*
X42940Y23918D02*
D03*
D25*
X23918Y42979D02*
D03*
D26*
X42974Y35184D02*
D03*
D723*
X16797Y34801D02*
D03*
X24254Y42258D02*
D03*
X42258Y34801D02*
D03*
X34801Y42258D02*
D03*
X16797Y24254D02*
D03*
X24254Y16797D02*
D03*
X34801Y16797D02*
D03*
X42258Y24254D02*
D03*
D724*
X39764Y29961D02*
D03*
D725*
Y28961D02*
D03*
D726*
X36530Y26550D02*
D03*
X35530D02*
D03*
X34530D02*
D03*
X33530D02*
D03*
X32530D02*
D03*
X31530D02*
D03*
X30530D02*
D03*
X29530D02*
D03*
X28530D02*
D03*
X27530D02*
D03*
X26530D02*
D03*
X25530D02*
D03*
X24530D02*
D03*
X23530D02*
D03*
X22530D02*
D03*
X36530Y32550D02*
D03*
X35530D02*
D03*
X34530D02*
D03*
X33530D02*
D03*
X32530D02*
D03*
X31530D02*
D03*
X30530D02*
D03*
X22530D02*
D03*
X23530D02*
D03*
X24530D02*
D03*
X25530D02*
D03*
X26530D02*
D03*
X27530D02*
D03*
X28530D02*
D03*
X29530D02*
D03*
D727*
X16929Y37402D02*
D03*
X42126D02*
D03*
X16929Y21654D02*
D03*
X42126D02*
D03*
D728*
X44854Y29528D02*
D03*
X23290Y18970D02*
D03*
X43560Y29720D02*
D03*
X19291Y27441D02*
D03*
X19450Y28400D02*
D03*
X19961Y32126D02*
D03*
X27874Y27835D02*
D03*
X30787Y27795D02*
D03*
X28040Y42677D02*
D03*
X21310Y40990D02*
D03*
X29430Y15620D02*
D03*
X31283Y43307D02*
D03*
X39911Y39020D02*
D03*
X37820Y17380D02*
D03*
X42640Y26100D02*
D03*
X42070Y32510D02*
D03*
X25350Y27730D02*
D03*
X20584Y39700D02*
D03*
X31010Y42610D02*
D03*
X31768Y15118D02*
D03*
X37440Y17870D02*
D03*
X20090Y40990D02*
D03*
X40330Y35480D02*
D03*
X39291Y39055D02*
D03*
X23031Y17559D02*
D03*
X27677Y15748D02*
D03*
X18346Y23425D02*
D03*
X17598Y27520D02*
D03*
X41142Y23268D02*
D03*
M02*
