G04 Layer_Physical_Order=1*
G04 Layer_Color=25308*
%FSLAX24Y24*%
%MOIN*%
G70*
G01*
G75*
%ADD10C,0.0059*%
G04:AMPARAMS|DCode=11|XSize=59.1mil|YSize=39.4mil|CornerRadius=0mil|HoleSize=0mil|Usage=FLASHONLY|Rotation=315.000|XOffset=0mil|YOffset=0mil|HoleType=Round|Shape=Rectangle|*
%AMROTATEDRECTD11*
4,1,4,-0.0348,0.0070,-0.0070,0.0348,0.0348,-0.0070,0.0070,-0.0348,-0.0348,0.0070,0.0*
%
%ADD11ROTATEDRECTD11*%

G04:AMPARAMS|DCode=12|XSize=59.1mil|YSize=39.4mil|CornerRadius=0mil|HoleSize=0mil|Usage=FLASHONLY|Rotation=45.000|XOffset=0mil|YOffset=0mil|HoleType=Round|Shape=Rectangle|*
%AMROTATEDRECTD12*
4,1,4,-0.0070,-0.0348,-0.0348,-0.0070,0.0070,0.0348,0.0348,0.0070,-0.0070,-0.0348,0.0*
%
%ADD12ROTATEDRECTD12*%

%ADD13R,0.0591X0.0394*%
G04:AMPARAMS|DCode=14|XSize=61mil|YSize=49.2mil|CornerRadius=0mil|HoleSize=0mil|Usage=FLASHONLY|Rotation=67.500|XOffset=0mil|YOffset=0mil|HoleType=Round|Shape=Rectangle|*
%AMROTATEDRECTD14*
4,1,4,0.0111,-0.0376,-0.0344,-0.0188,-0.0111,0.0376,0.0344,0.0188,0.0111,-0.0376,0.0*
%
%ADD14ROTATEDRECTD14*%

G04:AMPARAMS|DCode=15|XSize=61mil|YSize=49.2mil|CornerRadius=0mil|HoleSize=0mil|Usage=FLASHONLY|Rotation=22.500|XOffset=0mil|YOffset=0mil|HoleType=Round|Shape=Rectangle|*
%AMROTATEDRECTD15*
4,1,4,-0.0188,-0.0344,-0.0376,0.0111,0.0188,0.0344,0.0376,-0.0111,-0.0188,-0.0344,0.0*
%
%ADD15ROTATEDRECTD15*%

G04:AMPARAMS|DCode=16|XSize=61mil|YSize=49.2mil|CornerRadius=0mil|HoleSize=0mil|Usage=FLASHONLY|Rotation=292.500|XOffset=0mil|YOffset=0mil|HoleType=Round|Shape=Rectangle|*
%AMROTATEDRECTD16*
4,1,4,-0.0344,0.0188,0.0111,0.0376,0.0344,-0.0188,-0.0111,-0.0376,-0.0344,0.0188,0.0*
%
%ADD16ROTATEDRECTD16*%

G04:AMPARAMS|DCode=17|XSize=61mil|YSize=49.2mil|CornerRadius=0mil|HoleSize=0mil|Usage=FLASHONLY|Rotation=337.500|XOffset=0mil|YOffset=0mil|HoleType=Round|Shape=Rectangle|*
%AMROTATEDRECTD17*
4,1,4,-0.0376,-0.0111,-0.0188,0.0344,0.0376,0.0111,0.0188,-0.0344,-0.0376,-0.0111,0.0*
%
%ADD17ROTATEDRECTD17*%

%ADD18R,0.0413X0.0354*%
%ADD19R,0.0413X0.0394*%
G04:AMPARAMS|DCode=20|XSize=39.4mil|YSize=41.3mil|CornerRadius=0mil|HoleSize=0mil|Usage=FLASHONLY|Rotation=135.000|XOffset=0mil|YOffset=0mil|HoleType=Round|Shape=Rectangle|*
%AMROTATEDRECTD20*
4,1,4,0.0285,0.0007,-0.0007,-0.0285,-0.0285,-0.0007,0.0007,0.0285,0.0285,0.0007,0.0*
%
%ADD20ROTATEDRECTD20*%

G04:AMPARAMS|DCode=21|XSize=39.4mil|YSize=41.3mil|CornerRadius=0mil|HoleSize=0mil|Usage=FLASHONLY|Rotation=45.000|XOffset=0mil|YOffset=0mil|HoleType=Round|Shape=Rectangle|*
%AMROTATEDRECTD21*
4,1,4,0.0007,-0.0285,-0.0285,0.0007,-0.0007,0.0285,0.0285,-0.0007,0.0007,-0.0285,0.0*
%
%ADD21ROTATEDRECTD21*%

%ADD22P,0.2784X4X67.5*%
%ADD23P,0.2784X4X112.5*%
G04:AMPARAMS|DCode=24|XSize=196.9mil|YSize=196.9mil|CornerRadius=0mil|HoleSize=0mil|Usage=FLASHONLY|Rotation=67.500|XOffset=0mil|YOffset=0mil|HoleType=Round|Shape=Rectangle|*
%AMROTATEDRECTD24*
4,1,4,0.0533,-0.1286,-0.1286,-0.0533,-0.0533,0.1286,0.1286,0.0533,0.0533,-0.1286,0.0*
%
%ADD24ROTATEDRECTD24*%

%ADD25P,0.2784X4X67.5*%
G04:AMPARAMS|DCode=26|XSize=196.9mil|YSize=196.9mil|CornerRadius=0mil|HoleSize=0mil|Usage=FLASHONLY|Rotation=22.500|XOffset=0mil|YOffset=0mil|HoleType=Round|Shape=Rectangle|*
%AMROTATEDRECTD26*
4,1,4,-0.0533,-0.1286,-0.1286,0.0533,0.0533,0.1286,0.1286,-0.0533,-0.0533,-0.1286,0.0*
%
%ADD26ROTATEDRECTD26*%

%ADD27C,0.0984*%
%ADD28R,0.0630X0.0630*%
%ADD29C,0.0630*%
%ADD30C,0.0650*%
%ADD31C,0.0600*%
%ADD32C,0.0500*%
D10*
X40630Y34337D02*
G03*
X40939Y33591I1054J0D01*
G01*
X18121Y26045D02*
G03*
X18040Y26240I-276J0D01*
G01*
X44213Y29528D02*
X44854D01*
X40516Y24878D02*
X40634Y24996D01*
X40516Y23988D02*
Y24878D01*
X40634Y25187D02*
X40880Y25433D01*
X40634Y24996D02*
Y25187D01*
X22990Y19270D02*
X23290Y18970D01*
X43560Y29720D02*
X43780Y29500D01*
X16654Y29528D02*
X17205D01*
X19291Y27441D01*
X19293Y28780D02*
X19961Y29447D01*
X19293Y28780D02*
X19293D01*
X19070Y28557D02*
X19293Y28780D01*
X19070Y28243D02*
Y28557D01*
Y28243D02*
X19293Y28020D01*
X19605D01*
X19685Y27940D01*
Y26693D02*
Y27940D01*
X18203Y26693D02*
X19685D01*
X19450Y28400D02*
X21760Y26090D01*
X17756Y27140D02*
X18203Y26693D01*
X19961Y29447D02*
Y32126D01*
X27874Y26894D02*
Y27835D01*
X27530Y26550D02*
X27874Y26894D01*
X29775Y27795D02*
X30787D01*
X28530Y26550D02*
X29775Y27795D01*
X38701Y29754D02*
X39120D01*
X39327Y29961D01*
X39764D01*
X19589Y18698D02*
X20020D01*
X20423Y18295D01*
X20854D01*
X37901Y18831D02*
Y19260D01*
X38185Y19544D01*
Y19979D01*
X39076Y38185D02*
X39500D01*
X35137Y40751D02*
X37100D01*
X37494Y40357D01*
X39466D01*
X21114Y40185D02*
X22230D01*
X22836Y40790D01*
X23958D01*
X40602Y38200D02*
Y38358D01*
X41493Y29955D02*
Y33446D01*
X30080Y43937D02*
X30433D01*
X29862Y43719D02*
X30080Y43937D01*
X29862Y41772D02*
Y43719D01*
X28272Y15118D02*
X28622D01*
X28190Y15200D02*
X28272Y15118D01*
X28190Y16640D02*
X28755Y17205D01*
X29193D01*
X16654Y30157D02*
X17280D01*
X17601Y30479D01*
Y33446D01*
X15453Y27795D02*
Y28645D01*
X15200Y28898D02*
X15453Y28645D01*
X14843Y28898D02*
X15200D01*
X42402D02*
X42754D01*
X43012Y28640D01*
Y27874D02*
Y28640D01*
X29272Y41772D02*
Y42400D01*
X28995Y42677D02*
X29272Y42400D01*
X28622Y42677D02*
X28995D01*
X29783Y16640D02*
X30045Y16378D01*
X29783Y16640D02*
Y17205D01*
X23958Y40790D02*
X24280D01*
X24410Y40660D01*
X27757Y43307D02*
X28622D01*
X24254Y42258D02*
X24704Y41809D01*
Y41099D02*
Y41809D01*
X33530Y32550D02*
X35460Y30620D01*
X40828D01*
X41920Y29528D02*
X42402D01*
X16010Y25570D02*
X17562D01*
X14410Y27170D02*
X16010Y25570D01*
X14410Y27170D02*
Y29440D01*
X14498Y29528D01*
X14843D01*
X16220Y30157D02*
X16654D01*
X16043Y29981D02*
X16220Y30157D01*
X16043Y27795D02*
Y29981D01*
X34841Y40751D02*
X35137D01*
X29862Y41772D02*
X32898D01*
X28040Y42677D02*
X28622D01*
X20800Y40990D02*
X21310D01*
X20697Y40887D02*
X20800Y40990D01*
X20697Y40602D02*
Y40887D01*
X21272Y18713D02*
X22310D01*
X22837Y18186D01*
X23879D01*
X20870Y19520D02*
Y19979D01*
Y19520D02*
X21120Y19270D01*
X22990D01*
X29430Y15620D02*
X29558Y15748D01*
X30433D01*
X28622D02*
X28948D01*
X29578Y16378D01*
X28960Y15748D02*
X29050Y15658D01*
Y14820D02*
Y15658D01*
X28960Y14730D02*
X29050Y14820D01*
X34391Y41060D02*
X35340Y42009D01*
Y42258D01*
X34801D02*
X35340D01*
X30433Y43307D02*
X31283D01*
X39911Y39020D02*
X40357Y39466D01*
X20870Y39076D02*
X21114D01*
X30433Y16378D02*
X31838D01*
X35137Y18186D02*
X36610D01*
X36837Y18413D01*
X38319D01*
X34391Y17207D02*
Y17877D01*
Y17207D02*
X34801Y16797D01*
X16293Y26680D02*
X17600D01*
X43357Y30157D02*
X44213D01*
X43040Y29840D02*
X43357Y30157D01*
X43040Y29481D02*
Y29840D01*
Y29481D02*
X43602Y28919D01*
Y27874D02*
Y28919D01*
X42717Y29528D02*
X43347Y30157D01*
X42402Y29528D02*
X42717D01*
X15453Y27520D02*
X15773Y27200D01*
X15453Y27520D02*
Y27795D01*
X41454Y25570D02*
X41944D01*
X42101Y25412D01*
X43095D01*
X43602Y25920D01*
Y27874D01*
X37820Y17380D02*
X37920Y17280D01*
X38240D01*
X39190Y18230D01*
X39296D01*
X39466Y18400D01*
Y18698D01*
X40185Y35625D02*
Y37941D01*
X42310Y25680D02*
X42820D01*
X43070Y25930D01*
X43012Y27874D02*
X43070D01*
X29530Y26550D02*
X29990Y27010D01*
X41730D01*
X42640Y26100D01*
X42070Y32510D02*
X42258Y32698D01*
Y34801D01*
X20530Y40185D02*
X21114D01*
X17601Y33446D02*
X17896D01*
X28622Y43307D02*
X29210D01*
X29840Y43937D01*
X14843Y29528D02*
X15430D01*
X16060Y30157D01*
X20690Y18713D02*
X21272D01*
X38319Y18413D02*
Y18989D01*
X39764Y28961D02*
X41050D01*
X41113Y28898D01*
X42402D01*
X16797Y24254D02*
X17367Y24824D01*
X17871D01*
X24254Y16797D02*
X24625Y17167D01*
Y17877D01*
X41649Y34192D02*
X42258Y34801D01*
X41184Y34192D02*
X41649D01*
X16797Y34801D02*
X17406Y34192D01*
X17910D01*
X22530Y26550D02*
X25202Y29222D01*
X38701D01*
X25070Y26090D02*
X25530Y26550D01*
X21760Y26090D02*
X25070D01*
X25350Y27730D02*
X26530Y26550D01*
X30943Y42677D02*
X31010Y42610D01*
X30433Y42677D02*
X30943D01*
X43780Y28898D02*
X44213D01*
X43780D02*
Y29500D01*
X39911Y39611D02*
Y39911D01*
X30433Y15118D02*
X31768D01*
X37440Y17870D02*
X38605D01*
X38960Y18225D01*
Y18904D01*
X20090Y40990D02*
Y41000D01*
X40357Y19589D02*
Y20227D01*
X41454Y25186D02*
Y25570D01*
X15773Y27200D02*
X16293Y26680D01*
X20697Y40887D02*
Y41000D01*
X19120D02*
X20090D01*
X20697D01*
X43070Y25930D02*
Y27874D01*
X28948Y15748D02*
X28960D01*
X29578Y16378D02*
X30045D01*
X30433D01*
X16060Y30157D02*
X16220D01*
X21114Y39076D02*
Y40185D01*
X29840Y43937D02*
X30080D01*
X40828Y30620D02*
X41493Y29955D01*
X41920Y29528D01*
X43347Y30157D02*
X43357D01*
X23879Y18186D02*
X24264D01*
X24461Y18383D01*
X24834D01*
X25031Y18186D01*
X25294D01*
X18684Y18504D02*
X19395D01*
X19589Y18698D01*
X18032Y19157D02*
X18684Y18504D01*
X19144Y19144D02*
X19331Y19331D01*
X20072D01*
X20690Y18713D01*
X38031Y20133D02*
X38185Y19979D01*
X38031Y20133D02*
Y21116D01*
X38319Y18989D02*
X38780Y19450D01*
Y20276D01*
X38631Y20424D02*
X38780Y20276D01*
X38631Y20424D02*
X38828Y20227D01*
X40357D01*
X38960Y18904D02*
X39348Y19291D01*
X39764D01*
X39911Y19144D01*
X40185Y35625D02*
X40330Y35480D01*
X39642Y38358D02*
X40602D01*
X39500Y38185D02*
X39745Y37941D01*
X40185D01*
X40602Y38200D02*
X40750Y38052D01*
X40630Y35243D02*
X40710Y35323D01*
Y38012D01*
X40750Y38052D01*
X41084Y33446D02*
X41493D01*
X40939Y33591D02*
X41084Y33446D01*
X40630Y34337D02*
Y35243D01*
X38631Y38631D02*
X39060D01*
X39092Y38663D01*
X39200D01*
X39370Y38630D02*
X39642Y38358D01*
X39200Y38663D02*
X39232Y38630D01*
X39370D01*
X39355Y39055D02*
X39911Y39611D01*
X39291Y39055D02*
X39355D01*
X38740Y38858D02*
Y39179D01*
X39213Y39652D01*
Y39961D01*
X39466Y40214D01*
Y40357D01*
X20197Y38858D02*
X20424Y38631D01*
X20197Y38858D02*
Y39313D01*
X20584Y39700D01*
X19370Y38830D02*
Y39685D01*
X19144Y39911D02*
X19370Y39685D01*
X19144Y39911D02*
X19291Y39764D01*
X20109D01*
X20530Y40185D01*
X18465Y39700D02*
X18698Y39466D01*
X18465Y39700D02*
Y40345D01*
X19120Y41000D01*
X20854Y17559D02*
Y18295D01*
Y17559D02*
X23031D01*
X25294Y18186D02*
X27087Y16393D01*
Y15315D02*
Y16393D01*
Y15315D02*
X27672Y14730D01*
X28960D01*
X27677Y15748D02*
X28190D01*
Y15200D02*
Y15748D01*
Y16640D01*
X20424Y20424D02*
X20424D01*
X20158Y21962D02*
Y22007D01*
X18740Y23425D02*
X20158Y22007D01*
X18032Y19157D02*
Y23046D01*
X18346Y23425D02*
X18740D01*
X17967Y23046D02*
Y23805D01*
Y23046D02*
X18032D01*
X18121Y25748D02*
Y26045D01*
X17600Y26680D02*
X18040Y26240D01*
X18121Y25748D02*
X18366Y25118D01*
X17967Y23805D02*
X18366D01*
X18583Y24488D01*
X18377Y24986D02*
X18583Y24488D01*
X18377Y24986D02*
X18386Y24961D01*
X15773Y27200D02*
X15833Y27140D01*
X17756D01*
X17598Y27520D02*
Y27953D01*
X16654Y28898D02*
X17598Y27953D01*
X40357Y20227D02*
Y21249D01*
X41833Y22725D01*
X41521Y23037D02*
X41833Y22725D01*
X41142Y24821D02*
X41145Y24824D01*
X41142Y23268D02*
Y24821D01*
X41521Y23037D02*
Y24486D01*
X41650Y24615D01*
Y24990D01*
X41454Y25186D02*
X41650Y24990D01*
X38031Y21116D02*
X40710Y23795D01*
X40880Y25433D02*
Y25827D01*
X40516Y23988D02*
X40710Y23795D01*
X40880Y25827D02*
X41116Y26063D01*
X41927D01*
X42310Y25680D01*
X32898Y41772D02*
X33990Y40680D01*
X25110Y40660D02*
X27757Y43307D01*
X18350Y37810D02*
X19370Y38830D01*
X17896Y33446D02*
X18350Y33900D01*
X18622Y34606D01*
Y37538D01*
X18350Y37810D02*
X18622Y37538D01*
X18366Y24961D02*
Y25118D01*
Y24961D02*
X18386D01*
X31838Y16378D02*
X33770Y18310D01*
X34331Y18543D01*
X34779D01*
X35137Y18186D01*
X19144Y19144D02*
Y19262D01*
X19979Y20097D01*
Y20269D01*
X19947Y20301D02*
X19979Y20269D01*
X19947Y20838D02*
X19979Y20870D01*
X19947Y20301D02*
Y20838D01*
X20551Y20787D02*
Y21569D01*
X20158Y21962D02*
X20551Y21569D01*
X20424Y20424D02*
Y20661D01*
X20551Y20787D01*
X24488Y40433D02*
X25110Y40660D01*
X24410D02*
X24488Y40433D01*
X34710Y40620D02*
X34841Y40751D01*
X33990Y40680D02*
X34646Y40394D01*
X34710Y40620D01*
D11*
X19979Y38185D02*
D03*
X20424Y38631D02*
D03*
X20870Y39076D02*
D03*
X19589Y40357D02*
D03*
X19144Y39911D02*
D03*
X18698Y39466D02*
D03*
X39466Y18698D02*
D03*
X39911Y19144D02*
D03*
X40357Y19589D02*
D03*
X39076Y20870D02*
D03*
X38631Y20424D02*
D03*
X38185Y19979D02*
D03*
D12*
X40357Y39466D02*
D03*
X39911Y39911D02*
D03*
X39466Y40357D02*
D03*
X38185Y39076D02*
D03*
X38631Y38631D02*
D03*
X39076Y38185D02*
D03*
X20870Y19979D02*
D03*
X20424Y20424D02*
D03*
X19979Y20870D02*
D03*
X18698Y19589D02*
D03*
X19144Y19144D02*
D03*
X19589Y18698D02*
D03*
D13*
X44213Y28898D02*
D03*
Y29528D02*
D03*
Y30157D02*
D03*
X42402D02*
D03*
Y29528D02*
D03*
Y28898D02*
D03*
X16654D02*
D03*
Y29528D02*
D03*
Y30157D02*
D03*
X14843D02*
D03*
Y29528D02*
D03*
Y28898D02*
D03*
X30433Y15118D02*
D03*
Y15748D02*
D03*
Y16378D02*
D03*
X28622D02*
D03*
Y15748D02*
D03*
Y15118D02*
D03*
X30433Y42677D02*
D03*
Y43307D02*
D03*
Y43937D02*
D03*
X28622D02*
D03*
Y43307D02*
D03*
Y42677D02*
D03*
D14*
X24625Y17877D02*
D03*
X23879Y18186D02*
D03*
X34391Y41060D02*
D03*
X35137Y40751D02*
D03*
D15*
X17871Y24824D02*
D03*
X17562Y25570D02*
D03*
X41184Y34192D02*
D03*
X41493Y33446D02*
D03*
D16*
X34391Y17877D02*
D03*
X35137Y18186D02*
D03*
X24704Y41099D02*
D03*
X23958Y40790D02*
D03*
D17*
X41145Y24824D02*
D03*
X41454Y25570D02*
D03*
X17910Y34192D02*
D03*
X17601Y33446D02*
D03*
D18*
X38701Y29222D02*
D03*
Y29754D02*
D03*
D19*
X15453Y27795D02*
D03*
X16043D02*
D03*
X29193Y17205D02*
D03*
X29783D02*
D03*
X43012Y27874D02*
D03*
X43602D02*
D03*
X29272Y41772D02*
D03*
X29862D02*
D03*
D20*
X20854Y18295D02*
D03*
X21272Y18713D02*
D03*
X40185Y37941D02*
D03*
X40602Y38358D02*
D03*
D21*
X37901Y18831D02*
D03*
X38319Y18413D02*
D03*
X20697Y40602D02*
D03*
X21114Y40185D02*
D03*
D22*
X16050Y23877D02*
D03*
X35060Y15971D02*
D03*
D23*
X23924Y16005D02*
D03*
X16050Y35100D02*
D03*
D24*
X35066Y43052D02*
D03*
X42940Y23918D02*
D03*
D25*
X23918Y42979D02*
D03*
D26*
X42974Y35184D02*
D03*
D27*
X16797Y34801D02*
D03*
X24254Y42258D02*
D03*
X42258Y34801D02*
D03*
X34801Y42258D02*
D03*
X16797Y24254D02*
D03*
X24254Y16797D02*
D03*
X34801Y16797D02*
D03*
X42258Y24254D02*
D03*
D28*
X39764Y29961D02*
D03*
D29*
Y28961D02*
D03*
D30*
X36530Y26550D02*
D03*
X35530D02*
D03*
X34530D02*
D03*
X33530D02*
D03*
X32530D02*
D03*
X31530D02*
D03*
X30530D02*
D03*
X29530D02*
D03*
X28530D02*
D03*
X27530D02*
D03*
X26530D02*
D03*
X25530D02*
D03*
X24530D02*
D03*
X23530D02*
D03*
X22530D02*
D03*
X36530Y32550D02*
D03*
X35530D02*
D03*
X34530D02*
D03*
X33530D02*
D03*
X32530D02*
D03*
X31530D02*
D03*
X30530D02*
D03*
X22530D02*
D03*
X23530D02*
D03*
X24530D02*
D03*
X25530D02*
D03*
X26530D02*
D03*
X27530D02*
D03*
X28530D02*
D03*
X29530D02*
D03*
D31*
X16929Y37402D02*
D03*
X42126D02*
D03*
X16929Y21654D02*
D03*
X42126D02*
D03*
D32*
X44854Y29528D02*
D03*
X23290Y18970D02*
D03*
X43560Y29720D02*
D03*
X19291Y27441D02*
D03*
X19450Y28400D02*
D03*
X19961Y32126D02*
D03*
X27874Y27835D02*
D03*
X30787Y27795D02*
D03*
X28040Y42677D02*
D03*
X21310Y40990D02*
D03*
X29430Y15620D02*
D03*
X31283Y43307D02*
D03*
X39911Y39020D02*
D03*
X37820Y17380D02*
D03*
X42640Y26100D02*
D03*
X42070Y32510D02*
D03*
X25350Y27730D02*
D03*
X20584Y39700D02*
D03*
X31010Y42610D02*
D03*
X31768Y15118D02*
D03*
X37440Y17870D02*
D03*
X20090Y40990D02*
D03*
X40330Y35480D02*
D03*
X39291Y39055D02*
D03*
X23031Y17559D02*
D03*
X27677Y15748D02*
D03*
X18346Y23425D02*
D03*
X17598Y27520D02*
D03*
X41142Y23268D02*
D03*
M02*
