M48
;Layer_Color=6321
;FILE_FORMAT=2:4
INCH
T13F00S00C0.2000
%
G90
G05
T13
G00X031289Y019980
M15
G01X031308Y019981
G01X031317Y019983
G01X031355Y019987
G01X031426Y020009
G01X031486Y020024
G01X032176Y020259
G01X033003Y020581
G01X033815Y020940
G01X034611Y021333
G01X035389Y021761
G01X036147Y022222
G01X036885Y022716
G01X037600Y023242
G01X038292Y023798
G01X038958Y024384
G01X039599Y024999
G01X040212Y025641
G01X040797Y026309
G01X041352Y027002
G01X041876Y027718
G01X042368Y028457
G01X042828Y029216
G01X043254Y029995
G01X043646Y030791
G01X044002Y031604
G01X044323Y032432
G01X044608Y033273
G01X044855Y034125
G01X045065Y034988
G01X045237Y035859
G01X045371Y036736
G01X045467Y037619
G01X045524Y038504
G01X045543Y039392
G01X045522Y040279
G01X045463Y041165
G01X045366Y042047
G01X045230Y042925
G01X045056Y043795
G01X044844Y044657
G01X044594Y045509
G01X044308Y046349
G01X043986Y047176
G01X043627Y047988
G01X043234Y048784
G01X042806Y049562
G01X042345Y050320
G01X041851Y051058
G01X041325Y051773
G01X040769Y052465
G01X040183Y053132
G01X039568Y053772
G01X038926Y054385
G01X038258Y054970
G01X037565Y055525
G01X036849Y056049
G01X036110Y056541
G01X035351Y057001
G01X034572Y057427
G01X033776Y057819
G01X032963Y058176
G01X032135Y058496
G01X031294Y058781
G01X030442Y059028
G01X029579Y059238
G01X028708Y059411
G01X027831Y059545
G01X026948Y059640
G01X026063Y059698
G01X025175Y059716
G01X024288Y059696
G01X023402Y059637
G01X022520Y059539
G01X021642Y059403
G01X020772Y059229
G01X019910Y059017
G01X019058Y058768
G01X018218Y058481
G01X017391Y058159
G01X016579Y057800
G01X015783Y057407
G01X015005Y056979
G01X014247Y056518
G01X013509Y056024
G01X012794Y055498
G01X012102Y054942
G01X011435Y054356
G01X010795Y053741
G01X010182Y053099
G01X009597Y052431
G01X009042Y051739
G01X008518Y051022
G01X008026Y050284
G01X007566Y049524
G01X007140Y048745
G01X006748Y047949
G01X006391Y047136
G01X006071Y046308
G01X005786Y045467
G01X005539Y044615
G01X005329Y043752
G01X005156Y042882
G01X005022Y042004
G01X004927Y041122
G01X004869Y040236
G01X004851Y039348
G01X004871Y038461
G01X004930Y037575
G01X005028Y036693
G01X005164Y035816
G01X005338Y034945
G01X005550Y034083
G01X005799Y033231
G01X006085Y032391
G01X006408Y031564
G01X006766Y030752
G01X007160Y029956
G01X007588Y029178
G01X008049Y028420
G01X008543Y027682
G01X009069Y026967
G01X009625Y026275
G01X010211Y025609
G01X010826Y024968
G01X011467Y024355
G01X012135Y023770
G01X012828Y023215
G01X013545Y022691
G01X014283Y022199
G01X015043Y021739
G01X015822Y021313
G01X016618Y020921
G01X017431Y020565
G01X018259Y020244
G01X018907Y020024
G01X018972Y020009
G01X019053Y019984
G01X019094Y019980
G01X019102Y019979
G01X019118Y019978
G01X019252Y019966
G01X019451Y019987
G01X019627Y020042
G01X019666Y020058
G01X019842Y020152
G01X019867Y020173
G01X019895Y020188
G01X020049Y020316
G01X020174Y020471
G01X020261Y020635
G01X020279Y020680
G01X020337Y020872
G01X020355Y021070
G01X020351Y021115
G01X020351Y025909
G01X030042Y025909
G01X030038Y021064
G01X030058Y020865
G01X030114Y020680
G01X030133Y020635
G01X030228Y020459
G01X030355Y020305
G01X030511Y020180
G01X030536Y020167
G01X030564Y020144
G01X030728Y020058
G01X030766Y020042
G01X030957Y019984
G01X031156Y019966
G01X031289Y019980
M16
M17
M30
