G04 Layer_Color=8150272*
%FSLAX24Y24*%
%MOIN*%
G70*
G01*
G75*
%ADD30R,0.0591X0.0709*%
%ADD33C,0.0980*%
%ADD34C,0.0320*%
%ADD35C,0.0356*%
%ADD36C,0.0277*%
%ADD37R,0.0591X0.0709*%
G04:AMPARAMS|DCode=38|XSize=47.4mil|YSize=47.4mil|CornerRadius=8.9mil|HoleSize=0mil|Usage=FLASHONLY|Rotation=270.000|XOffset=0mil|YOffset=0mil|HoleType=Round|Shape=RoundedRectangle|*
%AMROUNDEDRECTD38*
21,1,0.0474,0.0295,0,0,270.0*
21,1,0.0295,0.0474,0,0,270.0*
1,1,0.0178,-0.0148,-0.0148*
1,1,0.0178,-0.0148,0.0148*
1,1,0.0178,0.0148,0.0148*
1,1,0.0178,0.0148,-0.0148*
%
%ADD38ROUNDEDRECTD38*%
G04:AMPARAMS|DCode=39|XSize=47.4mil|YSize=47.4mil|CornerRadius=8.9mil|HoleSize=0mil|Usage=FLASHONLY|Rotation=180.000|XOffset=0mil|YOffset=0mil|HoleType=Round|Shape=RoundedRectangle|*
%AMROUNDEDRECTD39*
21,1,0.0474,0.0295,0,0,180.0*
21,1,0.0295,0.0474,0,0,180.0*
1,1,0.0178,-0.0148,0.0148*
1,1,0.0178,0.0148,0.0148*
1,1,0.0178,0.0148,-0.0148*
1,1,0.0178,-0.0148,-0.0148*
%
%ADD39ROUNDEDRECTD39*%
%ADD40R,0.0319X0.0279*%
%ADD41R,0.0415X0.0710*%
G04:AMPARAMS|DCode=42|XSize=71mil|YSize=41.5mil|CornerRadius=12.4mil|HoleSize=0mil|Usage=FLASHONLY|Rotation=90.000|XOffset=0mil|YOffset=0mil|HoleType=Round|Shape=RoundedRectangle|*
%AMROUNDEDRECTD42*
21,1,0.0710,0.0167,0,0,90.0*
21,1,0.0463,0.0415,0,0,90.0*
1,1,0.0247,0.0084,0.0231*
1,1,0.0247,0.0084,-0.0231*
1,1,0.0247,-0.0084,-0.0231*
1,1,0.0247,-0.0084,0.0231*
%
%ADD42ROUNDEDRECTD42*%
%ADD43O,0.0356X0.0178*%
%ADD44O,0.0178X0.0356*%
%ADD45R,0.0279X0.0319*%
%ADD46R,0.0434X0.0395*%
%ADD47R,0.1143X0.1143*%
%ADD48O,0.0178X0.0434*%
%ADD49O,0.0434X0.0178*%
%ADD50R,0.0474X0.0434*%
D30*
X24469Y27205D02*
D03*
X23524D02*
D03*
X22579Y26063D02*
D03*
X23524D02*
D03*
X24508D02*
D03*
D33*
X19522Y24222D02*
D03*
Y23022D02*
D03*
X27722D02*
D03*
Y24222D02*
D03*
D34*
X23268Y27362D02*
D03*
X20866Y23583D02*
D03*
X22874Y25787D02*
D03*
X26929Y24685D02*
D03*
X22677Y20748D02*
D03*
X22953Y21811D02*
D03*
D35*
X27047Y21535D02*
D03*
X26650Y22900D02*
D03*
X24111Y25810D02*
D03*
X22020Y24966D02*
D03*
Y26700D02*
D03*
X21270Y22670D02*
D03*
X23228Y26070D02*
D03*
X24598Y21417D02*
D03*
X25230Y24840D02*
D03*
X22020Y24410D02*
D03*
X23425Y20180D02*
D03*
X24450Y20028D02*
D03*
D36*
X25650Y23366D02*
D03*
X26083D02*
D03*
X25650Y23799D02*
D03*
X26083D02*
D03*
D37*
X22539Y27205D02*
D03*
D38*
X22165Y21319D02*
D03*
Y21909D02*
D03*
D39*
X26122Y22008D02*
D03*
X26713D02*
D03*
X26122Y21260D02*
D03*
X26713D02*
D03*
D40*
X25705Y25118D02*
D03*
X26185D02*
D03*
X23421Y19764D02*
D03*
X23901D02*
D03*
D41*
X23967Y24272D02*
D03*
X23278D02*
D03*
Y22972D02*
D03*
D42*
X23967D02*
D03*
D43*
X24232Y21024D02*
D03*
Y21220D02*
D03*
Y21417D02*
D03*
X23012D02*
D03*
Y21220D02*
D03*
Y21024D02*
D03*
D44*
X24016Y21831D02*
D03*
X23819D02*
D03*
X23622D02*
D03*
X23425D02*
D03*
X23228D02*
D03*
Y20610D02*
D03*
X23425D02*
D03*
X23622D02*
D03*
X23819D02*
D03*
X24016D02*
D03*
D45*
X25118Y21303D02*
D03*
Y20823D02*
D03*
D46*
X22480Y23376D02*
D03*
Y23868D02*
D03*
D47*
X25866Y23583D02*
D03*
D48*
X26260Y24390D02*
D03*
X26063D02*
D03*
X25866D02*
D03*
X25669D02*
D03*
X25472D02*
D03*
Y22776D02*
D03*
X25669D02*
D03*
X25866D02*
D03*
X26063D02*
D03*
X26260D02*
D03*
D49*
X25059Y23976D02*
D03*
Y23780D02*
D03*
Y23583D02*
D03*
Y23386D02*
D03*
Y23189D02*
D03*
X26673D02*
D03*
Y23386D02*
D03*
Y23583D02*
D03*
Y23780D02*
D03*
Y23976D02*
D03*
D50*
X20453Y24252D02*
D03*
X21358D02*
D03*
M02*
