G04 Layer_Physical_Order=2*
G04 Layer_Color=11436288*
%FSLAX24Y24*%
%MOIN*%
G70*
G01*
G75*
%ADD11C,0.0083*%
%ADD12C,0.0079*%
%ADD13C,0.0900*%
%ADD14C,0.0240*%
%ADD15C,0.0276*%
%ADD16C,0.0197*%
G04:AMPARAMS|DCode=17|XSize=39.4mil|YSize=39.4mil|CornerRadius=4.9mil|HoleSize=0mil|Usage=FLASHONLY|Rotation=270.000|XOffset=0mil|YOffset=0mil|HoleType=Round|Shape=RoundedRectangle|*
%AMROUNDEDRECTD17*
21,1,0.0394,0.0295,0,0,270.0*
21,1,0.0295,0.0394,0,0,270.0*
1,1,0.0098,-0.0148,-0.0148*
1,1,0.0098,-0.0148,0.0148*
1,1,0.0098,0.0148,0.0148*
1,1,0.0098,0.0148,-0.0148*
%
%ADD17ROUNDEDRECTD17*%
G04:AMPARAMS|DCode=18|XSize=39.4mil|YSize=39.4mil|CornerRadius=4.9mil|HoleSize=0mil|Usage=FLASHONLY|Rotation=180.000|XOffset=0mil|YOffset=0mil|HoleType=Round|Shape=RoundedRectangle|*
%AMROUNDEDRECTD18*
21,1,0.0394,0.0295,0,0,180.0*
21,1,0.0295,0.0394,0,0,180.0*
1,1,0.0098,-0.0148,0.0148*
1,1,0.0098,0.0148,0.0148*
1,1,0.0098,0.0148,-0.0148*
1,1,0.0098,-0.0148,-0.0148*
%
%ADD18ROUNDEDRECTD18*%
%ADD19R,0.0280X0.0240*%
%ADD20R,0.0335X0.0630*%
G04:AMPARAMS|DCode=21|XSize=63mil|YSize=33.5mil|CornerRadius=8.4mil|HoleSize=0mil|Usage=FLASHONLY|Rotation=90.000|XOffset=0mil|YOffset=0mil|HoleType=Round|Shape=RoundedRectangle|*
%AMROUNDEDRECTD21*
21,1,0.0630,0.0167,0,0,90.0*
21,1,0.0463,0.0335,0,0,90.0*
1,1,0.0167,0.0084,0.0231*
1,1,0.0167,0.0084,-0.0231*
1,1,0.0167,-0.0084,-0.0231*
1,1,0.0167,-0.0084,0.0231*
%
%ADD21ROUNDEDRECTD21*%
%ADD22O,0.0276X0.0098*%
%ADD23O,0.0098X0.0276*%
%ADD24R,0.0240X0.0280*%
%ADD25R,0.0354X0.0315*%
%ADD26R,0.1063X0.1063*%
%ADD27O,0.0098X0.0354*%
%ADD28O,0.0354X0.0098*%
%ADD29R,0.0394X0.0354*%
%ADD30R,0.0591X0.0709*%
D11*
X20866Y21614D02*
Y23583D01*
Y21614D02*
X22704Y19777D01*
X21390Y22550D02*
X22925D01*
X21270Y22670D02*
X21390Y22550D01*
X21375Y25522D02*
X26462D01*
X20453Y24600D02*
X21375Y25522D01*
X21684Y23376D02*
X22480D01*
X21060Y24000D02*
X21684Y23376D01*
X21060Y24000D02*
Y24540D01*
X21859Y25339D01*
X26156D01*
X21601Y24690D02*
X23967D01*
X21601Y24256D02*
Y24690D01*
X24699Y19365D02*
X25094Y19761D01*
X24426Y19365D02*
X24699D01*
X24384Y19323D02*
X24426Y19365D01*
X23001Y19323D02*
X24384D01*
X24623Y19547D02*
X24912Y19836D01*
X24350Y19547D02*
X24623D01*
X24309Y19506D02*
X24350Y19547D01*
X23077Y19506D02*
X24309D01*
X24547Y19730D02*
X24729Y19912D01*
X23901Y19730D02*
X24547D01*
X25094Y19780D02*
X25354Y20039D01*
X25094Y19761D02*
Y19780D01*
X24912Y19855D02*
X25279Y20222D01*
X24912Y19836D02*
Y19855D01*
X24729Y19931D02*
X25203Y20405D01*
X24729Y19912D02*
Y19931D01*
X25118Y20578D02*
Y20823D01*
X25028Y20488D02*
X25118Y20578D01*
X24911Y20488D02*
X25028D01*
X25293Y20405D02*
X25340Y20452D01*
X25203Y20405D02*
X25293D01*
X25369Y20222D02*
X25523Y20376D01*
X25279Y20222D02*
X25369D01*
X22886Y19696D02*
X23077Y19506D01*
X25354Y20039D02*
X26181D01*
X24450Y20028D02*
X24911Y20488D01*
X25617Y20656D02*
Y20755D01*
X25523Y20562D02*
X25617Y20656D01*
X25523Y20376D02*
Y20562D01*
X25340Y20452D02*
Y21170D01*
X22704Y19621D02*
Y19777D01*
Y19621D02*
X23001Y19323D01*
X26181Y20039D02*
X27402Y21260D01*
Y22205D01*
X27024D02*
X27402D01*
X26923Y22306D02*
X27024Y22205D01*
X26286Y22306D02*
X26923D01*
X26122Y22470D02*
X26286Y22306D01*
X26345Y21640D02*
X26713Y22008D01*
X25680Y21640D02*
X26345D01*
X27047Y21535D02*
Y21540D01*
X27020Y21567D02*
X27047Y21540D01*
X26713Y21260D02*
X27020Y21567D01*
X26462Y25522D02*
X27722Y24262D01*
Y24222D02*
Y24262D01*
X26811Y24685D02*
X26929D01*
X26673Y24547D02*
X26811Y24685D01*
X26673Y23976D02*
Y24547D01*
X26650Y22900D02*
X26710Y22960D01*
X26673Y23780D02*
X26960D01*
Y22960D02*
Y23780D01*
X26710Y22960D02*
X26960D01*
X25866Y23584D02*
X26082Y23800D01*
X25836Y23180D02*
X25897D01*
X25650Y23366D02*
X25836Y23180D01*
X24230Y20823D02*
Y21024D01*
X24220Y20500D02*
Y21024D01*
X23010Y21380D02*
X23506D01*
X23010D02*
Y21417D01*
X24447Y23497D02*
X24730Y23780D01*
X24447Y22550D02*
X24450D01*
X21601Y22320D02*
X22000Y22719D01*
X25227Y22573D02*
Y23189D01*
X25185Y24885D02*
X25418Y25118D01*
X25187Y24838D02*
X25230Y23985D01*
X25185Y24885D02*
X25187Y24838D01*
X25118Y21170D02*
X25340D01*
X23967Y23976D02*
X25059D01*
X21880Y24410D02*
X22020D01*
X23278D01*
X24111Y25810D02*
X24213Y25709D01*
X22296Y24690D02*
X23967D01*
X22020Y24966D02*
X22296Y24690D01*
X22020Y26700D02*
X24023D01*
X24173Y26850D01*
X24450Y23500D02*
X24730Y23780D01*
X24450Y22550D02*
Y23500D01*
X23228Y25709D02*
Y26070D01*
X25187Y24838D02*
Y24838D01*
X25230Y23985D02*
Y23985D01*
X22778Y22160D02*
X25160D01*
X22925Y22550D02*
X24447D01*
X22756Y22719D02*
X22925Y22550D01*
X22661Y21024D02*
Y22042D01*
X22778Y22160D01*
X24447Y22550D02*
Y23497D01*
X25897Y23180D02*
X26083Y23366D01*
X25866Y23150D02*
X25897Y23180D01*
X24220Y21024D02*
X24230D01*
X24232D01*
X24120D02*
X24220D01*
X25230Y23985D02*
X25230Y23976D01*
X24598Y21417D02*
X24610D01*
X21601Y24256D02*
X21605Y24252D01*
X24724Y21303D02*
X25118D01*
X24610Y21417D02*
X24724Y21303D01*
X25418Y25118D02*
X25705D01*
X25059Y23976D02*
X25230D01*
X24232Y21417D02*
X24598D01*
X25185Y24885D02*
X25230Y24840D01*
X21605Y24252D02*
X21989Y23868D01*
X21358Y24252D02*
X21605D01*
X23278Y24272D02*
Y24410D01*
X23425Y20180D02*
Y20610D01*
X23421Y19764D02*
X23650D01*
Y19930D01*
X24220Y20500D01*
X23010Y21417D02*
X23012D01*
X23506Y21380D02*
X24016Y20870D01*
Y20610D02*
Y20870D01*
X23819Y21325D02*
Y21831D01*
Y21325D02*
X24120Y21024D01*
X25617Y20755D02*
X26122Y21260D01*
X22886Y19696D02*
Y19884D01*
X21601Y21169D02*
X22886Y19884D01*
X21601Y21169D02*
Y22320D01*
X22000Y22719D02*
X22756D01*
X24730Y23780D02*
X25059D01*
X25118Y21170D02*
Y21303D01*
X23901Y19730D02*
Y19764D01*
X24230Y20823D02*
X25118D01*
X24750Y23386D02*
X25059D01*
X24750Y22370D02*
Y23386D01*
X24740Y22360D02*
X24750Y22370D01*
X23967Y24272D02*
Y24690D01*
X21989Y23868D02*
X22480D01*
X25160Y22160D02*
X25680Y21640D01*
X22661Y21024D02*
X23012D01*
X26156Y25339D02*
X26185Y25310D01*
Y25118D02*
Y25310D01*
X20453Y24252D02*
Y24600D01*
X26122Y22008D02*
Y22470D01*
X25330D02*
X26122D01*
X25227Y22573D02*
X25330Y22470D01*
X25059Y23189D02*
X25227D01*
X26083Y23799D02*
X26420Y24137D01*
Y25118D01*
X26185D02*
X26420D01*
X25866Y22776D02*
Y23150D01*
X23091Y19764D02*
X23421D01*
X23091D02*
Y20322D01*
X23228Y20459D01*
Y20610D01*
X23967Y23976D02*
Y24272D01*
X25866Y23583D02*
Y23584D01*
X26082Y23800D02*
X26083Y23799D01*
X20000Y24252D02*
X20453D01*
X19970Y24222D02*
X20000Y24252D01*
X19522Y24222D02*
X19970D01*
X23074Y22972D02*
X23278D01*
X22670Y23376D02*
X23074Y22972D01*
X22480Y23376D02*
X22670D01*
X23819Y21831D02*
X24016D01*
D12*
X24721Y22341D02*
X24740Y22360D01*
X22704Y22341D02*
X24721D01*
X22480Y22117D02*
X22704Y22341D01*
X22480Y21909D02*
Y22117D01*
X22165Y21909D02*
X22480D01*
X22165Y21260D02*
Y21319D01*
Y21260D02*
X22677Y20748D01*
X22953Y21772D02*
Y21811D01*
Y21772D02*
X23150Y21575D01*
X23543D01*
X23622Y21654D01*
Y21831D01*
D13*
X19522Y24222D02*
D03*
Y23022D02*
D03*
X27722D02*
D03*
Y24222D02*
D03*
D14*
X23268Y27362D02*
D03*
X20866Y23583D02*
D03*
X22874Y25787D02*
D03*
X26929Y24685D02*
D03*
X22677Y20748D02*
D03*
X22953Y21811D02*
D03*
D15*
X27047Y21535D02*
D03*
X26650Y22900D02*
D03*
X24111Y25810D02*
D03*
X22020Y24966D02*
D03*
Y26700D02*
D03*
X21270Y22670D02*
D03*
X23228Y26070D02*
D03*
X24598Y21417D02*
D03*
X25230Y24840D02*
D03*
X22020Y24410D02*
D03*
X23425Y20180D02*
D03*
X24450Y20028D02*
D03*
D16*
X25650Y23366D02*
D03*
X26083D02*
D03*
X25650Y23799D02*
D03*
X26083D02*
D03*
D17*
X22165Y21319D02*
D03*
Y21909D02*
D03*
D18*
X26122Y22008D02*
D03*
X26713D02*
D03*
X26122Y21260D02*
D03*
X26713D02*
D03*
D19*
X25705Y25118D02*
D03*
X26185D02*
D03*
X23421Y19764D02*
D03*
X23901D02*
D03*
D20*
X23967Y24272D02*
D03*
X23278D02*
D03*
Y22972D02*
D03*
D21*
X23967D02*
D03*
D22*
X24232Y21024D02*
D03*
Y21220D02*
D03*
Y21417D02*
D03*
X23012D02*
D03*
Y21220D02*
D03*
Y21024D02*
D03*
D23*
X24016Y21831D02*
D03*
X23819D02*
D03*
X23622D02*
D03*
X23425D02*
D03*
X23228D02*
D03*
Y20610D02*
D03*
X23425D02*
D03*
X23622D02*
D03*
X23819D02*
D03*
X24016D02*
D03*
D24*
X25118Y21303D02*
D03*
Y20823D02*
D03*
D25*
X22480Y23376D02*
D03*
Y23868D02*
D03*
D26*
X25866Y23583D02*
D03*
D27*
X26260Y24390D02*
D03*
X26063D02*
D03*
X25866D02*
D03*
X25669D02*
D03*
X25472D02*
D03*
Y22776D02*
D03*
X25669D02*
D03*
X25866D02*
D03*
X26063D02*
D03*
X26260D02*
D03*
D28*
X25059Y23976D02*
D03*
Y23780D02*
D03*
Y23583D02*
D03*
Y23386D02*
D03*
Y23189D02*
D03*
X26673D02*
D03*
Y23386D02*
D03*
Y23583D02*
D03*
Y23780D02*
D03*
Y23976D02*
D03*
D29*
X20453Y24252D02*
D03*
X21358D02*
D03*
D30*
X24508Y26063D02*
D03*
X23524D02*
D03*
X22579D02*
D03*
X22539Y27205D02*
D03*
X23524D02*
D03*
X24469D02*
D03*
M02*
