G04 Layer_Physical_Order=1*
G04 Layer_Color=25308*
%FSLAX24Y24*%
%MOIN*%
G70*
G01*
G75*
%ADD10C,0.3000*%
%ADD11C,0.0063*%
%ADD12C,0.0900*%
%ADD13C,0.0236*%
%ADD14C,0.0197*%
D10*
X23622Y23622D02*
D03*
D11*
X22935Y27697D02*
X23543Y27088D01*
Y26075D02*
X24183Y25435D01*
X23040Y24640D02*
X23622D01*
X22543Y27075D02*
X23040Y26578D01*
X27722Y22402D02*
Y23022D01*
X25020Y19700D02*
X27722Y22402D01*
X22844Y19700D02*
X25020D01*
X19522Y23022D02*
X22844Y19700D01*
X24650Y20000D02*
Y21300D01*
X27722Y23022D02*
Y24222D01*
X19522Y23022D02*
Y24222D01*
X25394Y23622D02*
X25650Y23366D01*
X23622Y23622D02*
X25394D01*
X23040Y24640D02*
Y26578D01*
X23622Y23622D02*
Y24640D01*
X26083Y23366D02*
Y23799D01*
X24183Y25435D02*
X24781D01*
X24543Y26075D02*
X25870Y24748D01*
Y22710D02*
Y24748D01*
X25310Y22150D02*
X25870Y22710D01*
X22051Y26567D02*
X22543Y26075D01*
X22051Y26567D02*
Y27279D01*
X22339Y27567D01*
X22873D01*
X23051Y27389D01*
Y26871D02*
Y27389D01*
Y26871D02*
X23352Y26570D01*
X25030D01*
X25040Y26560D01*
Y26160D02*
Y26560D01*
Y26160D02*
X26730Y24470D01*
X23543Y27075D02*
Y27088D01*
X22040Y27697D02*
X22935D01*
X21920Y27577D02*
X22040Y27697D01*
X21920Y21975D02*
Y27577D01*
Y21975D02*
X22225Y21670D01*
X24790D01*
X24345Y25148D02*
Y25273D01*
X24183Y25435D02*
X24345Y25273D01*
D12*
X27722Y24222D02*
D03*
Y23022D02*
D03*
X19522D02*
D03*
Y24222D02*
D03*
D13*
X24650Y21300D02*
D03*
Y20000D02*
D03*
X24543Y26075D02*
D03*
X23543Y26063D02*
D03*
X22559Y27087D02*
D03*
Y26063D02*
D03*
X23504Y27165D02*
D03*
X24781Y25435D02*
D03*
X25310Y22150D02*
D03*
X26730Y24470D02*
D03*
X24790Y21670D02*
D03*
X24345Y25148D02*
D03*
D14*
X26083Y23799D02*
D03*
X25650D02*
D03*
X26083Y23366D02*
D03*
X25650D02*
D03*
M02*
