G04 Layer_Color=16711935*
%FSLAX24Y24*%
%MOIN*%
G70*
G01*
G75*
%ADD30C,0.0100*%
%ADD46C,0.0030*%
%ADD78C,0.0080*%
%ADD81R,0.0671X0.0277*%
%ADD82R,0.0277X0.0671*%
D30*
X38846Y19331D02*
X39200Y18976D01*
X38386Y19331D02*
X38846D01*
X37296Y18241D02*
X38386Y19331D01*
X38698Y17839D02*
Y18898D01*
X38654Y17795D02*
X38698Y17839D01*
X37520Y17795D02*
X38654D01*
X38898Y17756D02*
Y18858D01*
X38228Y17087D02*
X38898Y17756D01*
X34173Y19579D02*
Y19822D01*
Y19579D02*
X35512Y18241D01*
X33030Y18041D02*
X34164D01*
X34409Y17795D01*
X30271Y18934D02*
X30472D01*
X30154Y19051D02*
X30271Y18934D01*
X30154Y19051D02*
Y19217D01*
X30271Y19334D01*
X31736D01*
X32830Y18241D01*
X35918D01*
Y17862D02*
Y18241D01*
Y17862D02*
X35984Y17795D01*
X6732Y22080D02*
X8889D01*
X10740Y20230D01*
X27572D01*
X27980Y19822D01*
X34651D01*
Y19822D02*
Y19822D01*
Y19822D02*
X36233Y18241D01*
Y17862D02*
Y18241D01*
Y17862D02*
X36299Y17795D01*
X6732Y22280D02*
X8972D01*
X10823Y20430D01*
X27559D01*
X27655D01*
X28063Y20022D01*
X34734D01*
X36548Y18209D01*
Y17862D02*
Y18209D01*
Y17862D02*
X36614Y17795D01*
X6732Y22480D02*
X9055D01*
X10906Y20630D01*
X18701D01*
X27738D01*
X28145Y20222D01*
X34817D01*
X36799Y18241D01*
X37178D01*
Y17862D02*
Y18241D01*
Y17862D02*
X37244Y17795D01*
X38982Y17087D02*
X39200Y16868D01*
X38268Y17087D02*
X38982D01*
X39014Y16772D02*
X39200Y16585D01*
X38268Y16772D02*
X39014D01*
X39046Y16457D02*
X39200Y16302D01*
X38268Y16457D02*
X39046D01*
X38610Y15512D02*
X39200Y16102D01*
X38268Y15512D02*
X38610D01*
X38713Y15103D02*
X39200Y15591D01*
X38713Y15036D02*
Y15103D01*
X38625Y14948D02*
X38713Y15036D01*
X38334Y14948D02*
X38625D01*
X38268Y14882D02*
X38334Y14948D01*
X39200Y14567D02*
X39200Y14567D01*
X38268Y14567D02*
X39200D01*
X39200Y13039D02*
Y13760D01*
X38775Y14185D02*
X39200Y13760D01*
X38334Y14185D02*
X38775D01*
X38268Y14252D02*
X38334Y14185D01*
X38976Y12980D02*
X39200Y12756D01*
X38976Y12980D02*
Y13071D01*
Y13701D01*
X38740Y13937D02*
X38976Y13701D01*
X38268Y13937D02*
X38740D01*
X37287Y12056D02*
X37362Y11981D01*
X37287Y12056D02*
Y12130D01*
X37169Y12247D02*
X37287Y12130D01*
X36933Y12247D02*
X37169D01*
X36901Y12280D02*
X36933Y12247D01*
X36901Y12280D02*
X37404Y12783D01*
X37405D01*
X37492Y12871D01*
Y13162D01*
X37559Y13228D01*
X36850Y12047D02*
X37087D01*
X36618Y12280D02*
X36850Y12047D01*
X36618Y12280D02*
X37244Y12906D01*
Y13228D01*
X36102Y12047D02*
X36929Y12874D01*
Y13228D01*
X35669Y12717D02*
X35709Y12677D01*
X35669Y12717D02*
Y13228D01*
X35354Y12684D02*
X35889Y12149D01*
X35354Y12684D02*
Y13228D01*
X35039Y12717D02*
X35748Y12008D01*
X35039Y12717D02*
Y13228D01*
X34370Y12205D02*
X34724Y12559D01*
Y13228D01*
X33583Y12283D02*
X33819Y12047D01*
X33110Y12283D02*
X33583D01*
X33110D02*
X34055Y13228D01*
X34409D01*
X28110Y12362D02*
X28425Y12047D01*
X28780D01*
X30276D01*
X31102Y12874D01*
X31969D01*
X32283Y13189D01*
X33031Y13937D01*
X33701D01*
X25433Y12087D02*
X26339D01*
X26614Y12362D01*
X26850Y12598D01*
X27835D01*
X30236D01*
X30433Y12795D01*
X31635Y13997D01*
X31875D01*
X32130Y14252D01*
X33701D01*
X6251Y12708D02*
X6291Y12668D01*
X7768D01*
X8811Y13711D01*
X28378D01*
X28864Y14197D01*
X31792D01*
X32162Y14567D01*
X33701D01*
X6315Y12926D02*
X6374Y12868D01*
X7685D01*
X8728Y13911D01*
X28295D01*
X28781Y14397D01*
X31709D01*
X32194Y14882D01*
X33701D01*
X6457Y13068D02*
X7603D01*
X8645Y14111D01*
X28212D01*
X28645Y14544D01*
X28699Y14597D01*
X31626D01*
X32226Y15197D01*
X33701D01*
X6339Y13268D02*
X7520D01*
X8583Y14331D01*
X10197D01*
X28150D01*
X28616Y14797D01*
X31544D01*
X32259Y15512D01*
X33701D01*
X32323Y15827D02*
X32323Y15827D01*
X33701D01*
X31237Y15055D02*
X31295Y14997D01*
X31461D01*
X32011Y15547D01*
Y16106D01*
X32047Y16142D01*
X32047Y16142D01*
X33701D01*
X31378Y15197D02*
X31811Y15630D01*
Y16299D01*
X31969Y16457D01*
X33701D01*
X30354Y19134D02*
X31654D01*
X33701Y17087D01*
X38483Y25450D02*
Y26050D01*
X38283Y25850D01*
X38083Y26050D01*
Y25450D01*
X37783Y25850D02*
X37583D01*
X37483Y25750D01*
Y25450D01*
X37783D01*
X37883Y25550D01*
X37783Y25650D01*
X37483D01*
X37283Y25450D02*
X37083D01*
X37183D01*
Y25850D01*
X37283D01*
X36783Y25450D02*
X36583D01*
X36683D01*
Y26050D01*
X36783D01*
X36283Y25450D02*
X36083D01*
X36183D01*
Y25850D01*
X36283D01*
X35784Y25450D02*
Y25850D01*
X35484D01*
X35384Y25750D01*
Y25450D01*
X34984Y25250D02*
X34884D01*
X34784Y25350D01*
Y25850D01*
X35084D01*
X35184Y25750D01*
Y25550D01*
X35084Y25450D01*
X34784D01*
X34584Y25850D02*
X34484D01*
Y25750D01*
X34584D01*
Y25850D01*
Y25550D02*
X34484D01*
Y25450D01*
X34584D01*
Y25550D01*
X33084Y25450D02*
X33484D01*
X33084Y25850D01*
Y25950D01*
X33184Y26050D01*
X33384D01*
X33484Y25950D01*
X32884D02*
X32785Y26050D01*
X32585D01*
X32485Y25950D01*
Y25550D01*
X32585Y25450D01*
X32785D01*
X32884Y25550D01*
Y25950D01*
X31985Y25450D02*
Y26050D01*
X32285Y25750D01*
X31885D01*
X31085Y25450D02*
Y26050D01*
X30785D01*
X30685Y25950D01*
Y25750D01*
X30785Y25650D01*
X31085D01*
X30885D02*
X30685Y25450D01*
X30385D02*
X30185D01*
X30085Y25550D01*
Y25750D01*
X30185Y25850D01*
X30385D01*
X30485Y25750D01*
Y25550D01*
X30385Y25450D01*
X29686Y25250D02*
X29586D01*
X29486Y25350D01*
Y25850D01*
X29785D01*
X29885Y25750D01*
Y25550D01*
X29785Y25450D01*
X29486D01*
X28986D02*
X29186D01*
X29286Y25550D01*
Y25750D01*
X29186Y25850D01*
X28986D01*
X28886Y25750D01*
Y25650D01*
X29286D01*
X28686Y25850D02*
Y25450D01*
Y25650D01*
X28586Y25750D01*
X28486Y25850D01*
X28386D01*
X28086Y25450D02*
X27786D01*
X27686Y25550D01*
X27786Y25650D01*
X27986D01*
X28086Y25750D01*
X27986Y25850D01*
X27686D01*
X26886Y26050D02*
Y25450D01*
Y25750D01*
X26487D01*
Y26050D01*
Y25450D01*
X26187Y25850D02*
X25987D01*
X25887Y25750D01*
Y25450D01*
X26187D01*
X26287Y25550D01*
X26187Y25650D01*
X25887D01*
X25687Y25450D02*
X25487D01*
X25587D01*
Y26050D01*
X25687D01*
X25187Y25450D02*
X24987D01*
X25087D01*
Y26050D01*
X25187D01*
X38083Y24790D02*
X38183Y24890D01*
X38383D01*
X38483Y24790D01*
Y24390D01*
X38383Y24290D01*
X38183D01*
X38083Y24390D01*
X37783Y24290D02*
X37583D01*
X37483Y24390D01*
Y24590D01*
X37583Y24690D01*
X37783D01*
X37883Y24590D01*
Y24390D01*
X37783Y24290D01*
X37283Y24690D02*
Y24290D01*
Y24490D01*
X37183Y24590D01*
X37083Y24690D01*
X36983D01*
X36683D02*
X36483Y24290D01*
X36283Y24690D01*
X35983D02*
X35784D01*
X35684Y24590D01*
Y24290D01*
X35983D01*
X36083Y24390D01*
X35983Y24490D01*
X35684D01*
X35484Y24290D02*
X35284D01*
X35384D01*
Y24890D01*
X35484D01*
X34984Y24290D02*
X34784D01*
X34884D01*
Y24890D01*
X34984D01*
X34484Y24290D02*
X34284D01*
X34384D01*
Y24690D01*
X34484D01*
X33984Y24290D02*
X33684D01*
X33584Y24390D01*
X33684Y24490D01*
X33884D01*
X33984Y24590D01*
X33884Y24690D01*
X33584D01*
X33284Y24190D02*
X33184Y24290D01*
Y24390D01*
X33284D01*
Y24290D01*
X33184D01*
X33284Y24190D01*
X33384Y24090D01*
X31885Y24890D02*
X32085D01*
X32185Y24790D01*
Y24390D01*
X32085Y24290D01*
X31885D01*
X31785Y24390D01*
Y24790D01*
X31885Y24890D01*
X31585Y24290D02*
Y24890D01*
X31285D01*
X31185Y24790D01*
Y24590D01*
X31285Y24490D01*
X31585D01*
X31385D02*
X31185Y24290D01*
X30385Y24390D02*
X30285Y24290D01*
X30085D01*
X29985Y24390D01*
Y24790D01*
X30085Y24890D01*
X30285D01*
X30385Y24790D01*
Y24690D01*
X30285Y24590D01*
X29985D01*
X29785Y24890D02*
X29386D01*
Y24790D01*
X29785Y24390D01*
Y24290D01*
X29186Y24790D02*
X29086Y24890D01*
X28886D01*
X28786Y24790D01*
Y24690D01*
X28886Y24590D01*
X28986D01*
X28886D01*
X28786Y24490D01*
Y24390D01*
X28886Y24290D01*
X29086D01*
X29186Y24390D01*
X28586Y24790D02*
X28486Y24890D01*
X28286D01*
X28186Y24790D01*
Y24690D01*
X28286Y24590D01*
X28386D01*
X28286D01*
X28186Y24490D01*
Y24390D01*
X28286Y24290D01*
X28486D01*
X28586Y24390D01*
X27986Y24290D02*
X27786D01*
X27886D01*
Y24890D01*
X27986Y24790D01*
X38123Y23006D02*
X38386D01*
Y22612D01*
X38123D01*
X38386Y22809D02*
X38255D01*
X37992Y22612D02*
Y22875D01*
X37927D01*
X37861Y22809D01*
Y22612D01*
Y22809D01*
X37795Y22875D01*
X37730Y22809D01*
Y22612D01*
X37533Y22875D02*
X37402D01*
X37336Y22809D01*
Y22612D01*
X37533D01*
X37599Y22678D01*
X37533Y22744D01*
X37336D01*
X37205Y22612D02*
X37074D01*
X37140D01*
Y22875D01*
X37205D01*
X36877Y22612D02*
X36746D01*
X36812D01*
Y23006D01*
X36877D01*
X36549Y22875D02*
X36484D01*
Y22809D01*
X36549D01*
Y22875D01*
Y22678D02*
X36484D01*
Y22612D01*
X36549D01*
Y22678D01*
X35762Y22612D02*
X35631D01*
X35565Y22678D01*
Y22809D01*
X35631Y22875D01*
X35762D01*
X35828Y22809D01*
Y22678D01*
X35762Y22612D01*
X35434D02*
X35237D01*
X35172Y22678D01*
X35237Y22744D01*
X35368D01*
X35434Y22809D01*
X35368Y22875D01*
X35172D01*
X35040D02*
Y22678D01*
X34975Y22612D01*
X34778D01*
Y22875D01*
X34647D02*
Y22612D01*
Y22744D01*
X34581Y22809D01*
X34516Y22875D01*
X34450D01*
X33991D02*
X34188D01*
X34253Y22809D01*
Y22678D01*
X34188Y22612D01*
X33991D01*
X33794D02*
X33663D01*
X33597Y22678D01*
Y22809D01*
X33663Y22875D01*
X33794D01*
X33860Y22809D01*
Y22678D01*
X33794Y22612D01*
X33401D02*
Y22940D01*
Y22809D01*
X33466D01*
X33335D01*
X33401D01*
Y22940D01*
X33335Y23006D01*
X33073Y22612D02*
Y22940D01*
Y22809D01*
X33138D01*
X33007D01*
X33073D01*
Y22940D01*
X33007Y23006D01*
X32810Y22612D02*
X32679D01*
X32745D01*
Y22875D01*
X32810D01*
X32220D02*
X32417D01*
X32482Y22809D01*
Y22678D01*
X32417Y22612D01*
X32220D01*
X31892D02*
X32023D01*
X32089Y22678D01*
Y22809D01*
X32023Y22875D01*
X31892D01*
X31826Y22809D01*
Y22744D01*
X32089D01*
X31695Y22875D02*
Y22612D01*
Y22744D01*
X31629Y22809D01*
X31564Y22875D01*
X31498D01*
X31302Y22612D02*
X31105D01*
X31039Y22678D01*
X31105Y22744D01*
X31236D01*
X31302Y22809D01*
X31236Y22875D01*
X31039D01*
X30711Y22744D02*
Y22809D01*
X30777D01*
Y22744D01*
X30711D01*
X30646Y22809D01*
Y22940D01*
X30711Y23006D01*
X30842D01*
X30908Y22940D01*
Y22678D01*
X30842Y22612D01*
X30646D01*
X30318D02*
X30449D01*
X30514Y22678D01*
Y22809D01*
X30449Y22875D01*
X30318D01*
X30252Y22809D01*
Y22744D01*
X30514D01*
X30121Y22612D02*
Y22875D01*
X29924D01*
X29858Y22809D01*
Y22612D01*
X29596Y22481D02*
X29530D01*
X29465Y22547D01*
Y22875D01*
X29662D01*
X29727Y22809D01*
Y22678D01*
X29662Y22612D01*
X29465D01*
X29334Y22875D02*
Y22612D01*
Y22744D01*
X29268Y22809D01*
X29202Y22875D01*
X29137D01*
X28940Y22612D02*
Y22678D01*
X28874D01*
Y22612D01*
X28940D01*
X28546D02*
X28415D01*
X28350Y22678D01*
Y22809D01*
X28415Y22875D01*
X28546D01*
X28612Y22809D01*
Y22678D01*
X28546Y22612D01*
X28219Y22875D02*
Y22612D01*
Y22744D01*
X28153Y22809D01*
X28087Y22875D01*
X28022D01*
X27628Y22612D02*
X27759D01*
X27825Y22678D01*
Y22809D01*
X27759Y22875D01*
X27628D01*
X27563Y22809D01*
Y22744D01*
X27825D01*
X27300Y22481D02*
X27235D01*
X27169Y22547D01*
Y22875D01*
X27366D01*
X27431Y22809D01*
Y22678D01*
X27366Y22612D01*
X27169D01*
X26972D02*
X26841D01*
X26775Y22678D01*
Y22809D01*
X26841Y22875D01*
X26972D01*
X27038Y22809D01*
Y22678D01*
X26972Y22612D01*
X26644D02*
Y22875D01*
X26447D01*
X26382Y22809D01*
Y22612D01*
X26251D02*
X26054D01*
X25988Y22678D01*
X26054Y22744D01*
X26185D01*
X26251Y22809D01*
X26185Y22875D01*
X25988D01*
X25791Y22940D02*
Y22875D01*
X25857D01*
X25726D01*
X25791D01*
Y22678D01*
X25726Y22612D01*
X25463Y22875D02*
X25332D01*
X25267Y22809D01*
Y22612D01*
X25463D01*
X25529Y22678D01*
X25463Y22744D01*
X25267D01*
X25070Y22940D02*
Y22875D01*
X25136D01*
X25004D01*
X25070D01*
Y22678D01*
X25004Y22612D01*
X24611D02*
X24742D01*
X24808Y22678D01*
Y22809D01*
X24742Y22875D01*
X24611D01*
X24545Y22809D01*
Y22744D01*
X24808D01*
X24414Y22612D02*
Y22678D01*
X24348D01*
Y22612D01*
X24414D01*
X23889D02*
X24020D01*
X24086Y22678D01*
Y22809D01*
X24020Y22875D01*
X23889D01*
X23824Y22809D01*
Y22744D01*
X24086D01*
X23430Y23006D02*
Y22612D01*
X23627D01*
X23692Y22678D01*
Y22809D01*
X23627Y22875D01*
X23430D01*
X23299D02*
Y22678D01*
X23233Y22612D01*
X23036D01*
Y22875D01*
X37480Y20630D02*
Y21230D01*
X37280Y21030D01*
X37080Y21230D01*
Y20630D01*
X36781Y21030D02*
X36581D01*
X36481Y20930D01*
Y20630D01*
X36781D01*
X36881Y20730D01*
X36781Y20830D01*
X36481D01*
X36281Y20630D02*
Y21230D01*
Y20830D02*
X35981Y21030D01*
X36281Y20830D02*
X35981Y20630D01*
X35381D02*
X35581D01*
X35681Y20730D01*
Y20930D01*
X35581Y21030D01*
X35381D01*
X35281Y20930D01*
Y20830D01*
X35681D01*
X34481Y20630D02*
Y21230D01*
X34281Y21030D01*
X34081Y21230D01*
Y20630D01*
X33782D02*
X33582D01*
X33482Y20730D01*
Y20930D01*
X33582Y21030D01*
X33782D01*
X33881Y20930D01*
Y20730D01*
X33782Y20630D01*
X33282Y21030D02*
Y20630D01*
Y20830D01*
X33182Y20930D01*
X33082Y21030D01*
X32982D01*
X32382Y20630D02*
X32582D01*
X32682Y20730D01*
Y20930D01*
X32582Y21030D01*
X32382D01*
X32282Y20930D01*
Y20830D01*
X32682D01*
X31482Y20630D02*
Y21230D01*
X31182D01*
X31082Y21130D01*
Y20930D01*
X31182Y20830D01*
X31482D01*
X31282D02*
X31082Y20630D01*
X30782D02*
X30583D01*
X30483Y20730D01*
Y20930D01*
X30583Y21030D01*
X30782D01*
X30882Y20930D01*
Y20730D01*
X30782Y20630D01*
X30283Y21230D02*
Y20630D01*
X29983D01*
X29883Y20730D01*
Y20830D01*
Y20930D01*
X29983Y21030D01*
X30283D01*
X29583Y20630D02*
X29383D01*
X29283Y20730D01*
Y20930D01*
X29383Y21030D01*
X29583D01*
X29683Y20930D01*
Y20730D01*
X29583Y20630D01*
X28983Y21130D02*
Y21030D01*
X29083D01*
X28883D01*
X28983D01*
Y20730D01*
X28883Y20630D01*
X28583Y20830D02*
Y21330D01*
Y20730D02*
Y20630D01*
D46*
X27600Y26788D02*
X27630D01*
X27660D02*
X27690D01*
X28657D02*
X28687D01*
X28717D02*
X28747D01*
X29593D02*
X29623D01*
X29683D02*
X29714D01*
X29744D02*
X29774D01*
X30257D02*
X30287D01*
X30771D02*
X30801D01*
X30831D02*
X30861D01*
X30891D02*
X30922D01*
X31284D02*
X31314D01*
X31344D02*
X31375D01*
X31405D02*
X31435D01*
X32281D02*
X32311D01*
X32341D02*
X32371D01*
X33126D02*
X33156D01*
X33187D02*
X33217D01*
X33911D02*
X33942D01*
X33972D02*
X34002D01*
X34848D02*
X34878D01*
X34908D02*
X34938D01*
X36297D02*
X36327D01*
X36358D02*
X36388D01*
X36448D02*
X36478D01*
X37264D02*
X37294D01*
X37324D02*
X37354D01*
X37415D02*
X37445D01*
X38109D02*
X38139D01*
X38200D02*
X38230D01*
X38260D02*
X38290D01*
X27509Y26818D02*
X27781D01*
X27871D02*
X28053D01*
X28234D02*
X28445D01*
X28566D02*
X28808D01*
X29110D02*
X29321D01*
X29502D02*
X29834D01*
X30197D02*
X30378D01*
X30650D02*
X31042D01*
X31163D02*
X31526D01*
X31858D02*
X31948D01*
X31979D02*
X32099D01*
X32190D02*
X32462D01*
X32945D02*
X33307D01*
X33821D02*
X34093D01*
X34153D02*
X34364D01*
X34727D02*
X35059D01*
X35542D02*
X35784D01*
X36176D02*
X36569D01*
X37143D02*
X37566D01*
X38019D02*
X38411D01*
X27479Y26848D02*
X27811D01*
X27841D02*
X28083D01*
X28264D02*
X28475D01*
X28506D02*
X28868D01*
X29110D02*
X29321D01*
X29472D02*
X29895D01*
X30167D02*
X30408D01*
X30589D02*
X31073D01*
X31133D02*
X31556D01*
X31858D02*
X32069D01*
X32220D02*
X32522D01*
X32915D02*
X33398D01*
X33760D02*
X34093D01*
X34123D02*
X34334D01*
X34666D02*
X35119D01*
X35572D02*
X35784D01*
X36146D02*
X36660D01*
X37052D02*
X37626D01*
X37958D02*
X38472D01*
X27418Y26879D02*
X28053D01*
X28264D02*
X28475D01*
X28506D02*
X28898D01*
X29110D02*
X29321D01*
X29472D02*
X29925D01*
X30167D02*
X30408D01*
X30559D02*
X31042D01*
X31133D02*
X31616D01*
X31858D02*
X32099D01*
X32190D02*
X32552D01*
X32885D02*
X33428D01*
X33730D02*
X34123D01*
X34153D02*
X34364D01*
X34606D02*
X35180D01*
X35572D02*
X35784D01*
X36116D02*
X36690D01*
X37022D02*
X37596D01*
X37928D02*
X38532D01*
X27388Y26909D02*
X28053D01*
X28234D02*
X28898D01*
X29110D02*
X29321D01*
X29442D02*
X29985D01*
X30136D02*
X30408D01*
X30529D02*
X31042D01*
X31133D02*
X31646D01*
X31858D02*
X32069D01*
X32190D02*
X32552D01*
X32854D02*
X33458D01*
X33700D02*
X34364D01*
X34576D02*
X35180D01*
X35572D02*
X35784D01*
X36056D02*
X36720D01*
X36992D02*
X37626D01*
X37898D02*
X38562D01*
X27388Y26939D02*
X27720D01*
X27751D02*
X28083D01*
X28264D02*
X28898D01*
X29110D02*
X29321D01*
X29472D02*
X29623D01*
X29653D02*
X29985D01*
X30167D02*
X30408D01*
X30529D02*
X30771D01*
X30891D02*
X30922D01*
X30952D02*
X31042D01*
X31133D02*
X31314D01*
X31344D02*
X31677D01*
X31858D02*
X32069D01*
X32220D02*
X32552D01*
X32824D02*
X33489D01*
X33670D02*
X34364D01*
X34576D02*
X34878D01*
X34908D02*
X35210D01*
X35572D02*
X35784D01*
X36056D02*
X36720D01*
X36962D02*
X37626D01*
X37837D02*
X38592D01*
X27358Y26969D02*
X27630D01*
X27781D02*
X28053D01*
X28234D02*
X28536D01*
X28687D02*
X28928D01*
X29079D02*
X29321D01*
X29472D02*
X29502D01*
X29744D02*
X30016D01*
X30197D02*
X30378D01*
X30499D02*
X30740D01*
X31133D02*
X31163D01*
X31435D02*
X31677D01*
X31858D02*
X32099D01*
X32341D02*
X32583D01*
X32794D02*
X33036D01*
X33247D02*
X33489D01*
X33670D02*
X33911D01*
X34093D02*
X34364D01*
X34546D02*
X34787D01*
X34999D02*
X35240D01*
X35572D02*
X35784D01*
X36025D02*
X36358D01*
X36448D02*
X36750D01*
X36962D02*
X37233D01*
X37475D02*
X37626D01*
X37837D02*
X38170D01*
X38260D02*
X38623D01*
X27358Y26999D02*
X27600D01*
X27811D02*
X28083D01*
X28264D02*
X28475D01*
X28687D02*
X28928D01*
X29110D02*
X29321D01*
X29774D02*
X30016D01*
X30227D02*
X30287D01*
X30529D02*
X30710D01*
X31435D02*
X31707D01*
X31858D02*
X32069D01*
X32341D02*
X32552D01*
X32794D02*
X33036D01*
X33277D02*
X33489D01*
X33640D02*
X33881D01*
X34123D02*
X34364D01*
X34546D02*
X34757D01*
X34999D02*
X35240D01*
X35542D02*
X35784D01*
X36025D02*
X36267D01*
X36478D02*
X36780D01*
X36962D02*
X37203D01*
X37566D02*
X37626D01*
X37807D02*
X38079D01*
X38351D02*
X38623D01*
X27358Y27030D02*
X27569D01*
X27841D02*
X28053D01*
X28234D02*
X28475D01*
X28717D02*
X28928D01*
X29110D02*
X29321D01*
X29804D02*
X30046D01*
X30499D02*
X30771D01*
X31465D02*
X31707D01*
X31858D02*
X32099D01*
X32341D02*
X32583D01*
X32794D02*
X33005D01*
X33277D02*
X33519D01*
X33640D02*
X33881D01*
X34153D02*
X34364D01*
X34515D02*
X34757D01*
X35029D02*
X35270D01*
X35572D02*
X35784D01*
X35995D02*
X36237D01*
X36539D02*
X36780D01*
X36931D02*
X37203D01*
X37807D02*
X38079D01*
X38381D02*
X38653D01*
X27328Y27060D02*
X27569D01*
X27841D02*
X28053D01*
X28264D02*
X28475D01*
X28717D02*
X28928D01*
X29110D02*
X29321D01*
X29804D02*
X30046D01*
X30529D02*
X30801D01*
X31495D02*
X31707D01*
X31858D02*
X32069D01*
X32341D02*
X32583D01*
X32794D02*
X33005D01*
X33307D02*
X33519D01*
X33640D02*
X33851D01*
X34153D02*
X34364D01*
X34515D02*
X34727D01*
X35059D02*
X35270D01*
X35572D02*
X35784D01*
X35995D02*
X36237D01*
X36539D02*
X36780D01*
X36962D02*
X37173D01*
X37777D02*
X38019D01*
X38411D02*
X38653D01*
X27328Y27090D02*
X27539D01*
X27841D02*
X28083D01*
X28234D02*
X28475D01*
X28717D02*
X28928D01*
X29110D02*
X29321D01*
X29834D02*
X30046D01*
X30529D02*
X30922D01*
X31495D02*
X31737D01*
X31858D02*
X32099D01*
X32371D02*
X32583D01*
X32764D02*
X32975D01*
X33307D02*
X33519D01*
X33609D02*
X33851D01*
X34153D02*
X34364D01*
X34485D02*
X34727D01*
X35029D02*
X35270D01*
X35572D02*
X35784D01*
X35995D02*
X36207D01*
X36569D02*
X36780D01*
X36931D02*
X37173D01*
X37777D02*
X38019D01*
X38441D02*
X38683D01*
X27328Y27120D02*
X27569D01*
X27871D02*
X28053D01*
X28234D02*
X28445D01*
X28717D02*
X28928D01*
X29110D02*
X29321D01*
X29834D02*
X30046D01*
X30529D02*
X30982D01*
X31495D02*
X31707D01*
X31858D02*
X32069D01*
X32371D02*
X32552D01*
X32764D02*
X32975D01*
X33307D02*
X33549D01*
X33640D02*
X33851D01*
X34153D02*
X34364D01*
X34515D02*
X34727D01*
X35029D02*
X35270D01*
X35572D02*
X35814D01*
X35965D02*
X36207D01*
X36569D02*
X36780D01*
X36962D02*
X37233D01*
X37747D02*
X37988D01*
X38441D02*
X38683D01*
X27328Y27150D02*
X27539D01*
X27841D02*
X28083D01*
X28264D02*
X28475D01*
X28717D02*
X28928D01*
X29079D02*
X29321D01*
X29804D02*
X30046D01*
X30589D02*
X31012D01*
X31495D02*
X31737D01*
X31858D02*
X32099D01*
X32341D02*
X32583D01*
X32764D02*
X33005D01*
X33307D02*
X33519D01*
X33640D02*
X33851D01*
X34153D02*
X34364D01*
X34515D02*
X34757D01*
X35059D02*
X35270D01*
X35572D02*
X35784D01*
X35995D02*
X36207D01*
X36569D02*
X36811D01*
X36962D02*
X37264D01*
X37747D02*
X37988D01*
X38441D02*
X38713D01*
X27328Y27181D02*
X27539D01*
X27841D02*
X28053D01*
X28264D02*
X28475D01*
X28717D02*
X28928D01*
X29110D02*
X29321D01*
X29834D02*
X30046D01*
X30650D02*
X31042D01*
X31495D02*
X31707D01*
X31858D02*
X32099D01*
X32341D02*
X32583D01*
X32764D02*
X33005D01*
X33307D02*
X33519D01*
X33609D02*
X33851D01*
X34153D02*
X34364D01*
X34485D02*
X34727D01*
X35029D02*
X35270D01*
X35572D02*
X35784D01*
X35995D02*
X36207D01*
X36569D02*
X36811D01*
X36962D02*
X37324D01*
X37747D02*
X37988D01*
X38441D02*
X38683D01*
X27328Y27211D02*
X27569D01*
X27841D02*
X28083D01*
X28234D02*
X28475D01*
X28717D02*
X28928D01*
X29110D02*
X29321D01*
X29804D02*
X30046D01*
X30710D02*
X31042D01*
X31495D02*
X31707D01*
X31858D02*
X32069D01*
X32371D02*
X32552D01*
X32764D02*
X32975D01*
X33307D02*
X33519D01*
X33640D02*
X33851D01*
X34153D02*
X34364D01*
X34515D02*
X34727D01*
X35059D02*
X35270D01*
X35572D02*
X35784D01*
X35965D02*
X36207D01*
X36569D02*
X36780D01*
X36992D02*
X37445D01*
X37747D02*
X37958D01*
X38472D02*
X38713D01*
X27358Y27241D02*
X27569D01*
X27841D02*
X28053D01*
X28264D02*
X28445D01*
X28717D02*
X28928D01*
X29110D02*
X29321D01*
X29804D02*
X30016D01*
X30801D02*
X31042D01*
X31465D02*
X31707D01*
X31858D02*
X32099D01*
X32371D02*
X32583D01*
X32764D02*
X33005D01*
X33277D02*
X33519D01*
X33640D02*
X33881D01*
X34123D02*
X34364D01*
X34515D02*
X34757D01*
X35029D02*
X35270D01*
X35542D02*
X35784D01*
X35965D02*
X36207D01*
X36569D02*
X36811D01*
X37022D02*
X37445D01*
X37717D02*
X37988D01*
X38472D02*
X38683D01*
X27328Y27271D02*
X27569D01*
X27811D02*
X28053D01*
X28234D02*
X28475D01*
X28717D02*
X28928D01*
X29110D02*
X29321D01*
X29774D02*
X30016D01*
X30831D02*
X31042D01*
X31465D02*
X31707D01*
X31858D02*
X32069D01*
X32341D02*
X32583D01*
X32794D02*
X33005D01*
X33277D02*
X33519D01*
X33640D02*
X33881D01*
X34123D02*
X34364D01*
X34515D02*
X34757D01*
X35029D02*
X35240D01*
X35512D02*
X35784D01*
X35995D02*
X36207D01*
X36569D02*
X36780D01*
X37052D02*
X37505D01*
X37747D02*
X37958D01*
X38472D02*
X38713D01*
X27358Y27301D02*
X27630D01*
X27811D02*
X28053D01*
X28264D02*
X28475D01*
X28717D02*
X28928D01*
X29110D02*
X29321D01*
X29472D02*
X29502D01*
X29744D02*
X30016D01*
X30831D02*
X31042D01*
X31133D02*
X31163D01*
X31405D02*
X31677D01*
X31858D02*
X32099D01*
X32371D02*
X32583D01*
X32794D02*
X33036D01*
X33217D02*
X33489D01*
X33640D02*
X33911D01*
X34093D02*
X34364D01*
X34546D02*
X34787D01*
X34999D02*
X35240D01*
X35452D02*
X35814D01*
X35995D02*
X36207D01*
X36569D02*
X36780D01*
X37082D02*
X37535D01*
X37717D02*
X37988D01*
X38472D02*
X38713D01*
X27358Y27332D02*
X27660D01*
X27690D02*
X28053D01*
X28234D02*
X28475D01*
X28717D02*
X28928D01*
X29110D02*
X29321D01*
X29472D02*
X29593D01*
X29623D02*
X29985D01*
X30559D02*
X30620D01*
X30801D02*
X31042D01*
X31163D02*
X31284D01*
X31314D02*
X31677D01*
X31858D02*
X32069D01*
X32220D02*
X32673D01*
X32824D02*
X33096D01*
X33126D02*
X33156D01*
X33187D02*
X33489D01*
X33670D02*
X33972D01*
X34002D02*
X34364D01*
X34546D02*
X34878D01*
X34908D02*
X35210D01*
X35331D02*
X35784D01*
X35965D02*
X36207D01*
X36569D02*
X36811D01*
X37173D02*
X37596D01*
X37747D02*
X37958D01*
X38472D02*
X38713D01*
X27388Y27362D02*
X28053D01*
X28234D02*
X28445D01*
X28717D02*
X28928D01*
X29110D02*
X29321D01*
X29472D02*
X29955D01*
X30559D02*
X31042D01*
X31133D02*
X31646D01*
X31858D02*
X32099D01*
X32190D02*
X32673D01*
X32824D02*
X33458D01*
X33670D02*
X34364D01*
X34576D02*
X35180D01*
X35331D02*
X35784D01*
X35995D02*
X36207D01*
X36569D02*
X36811D01*
X37233D02*
X37596D01*
X37747D02*
X37988D01*
X38472D02*
X38683D01*
X27388Y27392D02*
X28083D01*
X28264D02*
X28475D01*
X28717D02*
X28928D01*
X29110D02*
X29321D01*
X29472D02*
X29925D01*
X30559D02*
X31012D01*
X31133D02*
X31586D01*
X31858D02*
X32069D01*
X32190D02*
X32703D01*
X32854D02*
X33428D01*
X33700D02*
X34123D01*
X34153D02*
X34364D01*
X34606D02*
X35180D01*
X35331D02*
X35542D01*
X35572D02*
X35784D01*
X35965D02*
X36207D01*
X36569D02*
X36780D01*
X37294D02*
X37596D01*
X37747D02*
X37988D01*
X38441D02*
X38683D01*
X27418Y27422D02*
X27811D01*
X27841D02*
X28053D01*
X28234D02*
X28475D01*
X28717D02*
X28928D01*
X29110D02*
X29321D01*
X29442D02*
X29895D01*
X30559D02*
X30982D01*
X31163D02*
X31556D01*
X31858D02*
X32069D01*
X32190D02*
X32673D01*
X32915D02*
X33398D01*
X33730D02*
X34093D01*
X34153D02*
X34364D01*
X34636D02*
X35119D01*
X35331D02*
X35542D01*
X35572D02*
X35784D01*
X35995D02*
X36207D01*
X36569D02*
X36811D01*
X37354D02*
X37626D01*
X37747D02*
X37988D01*
X38441D02*
X38683D01*
X27479Y27452D02*
X27751D01*
X27841D02*
X28083D01*
X28264D02*
X28475D01*
X28717D02*
X28928D01*
X29079D02*
X29321D01*
X29472D02*
X29834D01*
X30529D02*
X30922D01*
X31133D02*
X31526D01*
X31858D02*
X32099D01*
X32220D02*
X32703D01*
X32975D02*
X33307D01*
X33760D02*
X34062D01*
X34153D02*
X34364D01*
X34697D02*
X35089D01*
X35331D02*
X35482D01*
X35572D02*
X35784D01*
X35965D02*
X36207D01*
X36569D02*
X36780D01*
X37384D02*
X37626D01*
X37777D02*
X38019D01*
X38411D02*
X38653D01*
X27569Y27483D02*
X27660D01*
X27841D02*
X28053D01*
X29110D02*
X29321D01*
X29563D02*
X29683D01*
X30650D02*
X30771D01*
X30831D02*
X30861D01*
X31254D02*
X31344D01*
X31375D02*
X31405D01*
X32341D02*
X32583D01*
X33066D02*
X33126D01*
X33156D02*
X33217D01*
X33851D02*
X33911D01*
X33942D02*
X33972D01*
X34153D02*
X34364D01*
X34817D02*
X34908D01*
X35361D02*
X35421D01*
X35995D02*
X36207D01*
X36599D02*
X36811D01*
X37384D02*
X37626D01*
X37777D02*
X38049D01*
X38411D02*
X38653D01*
X27871Y27513D02*
X28083D01*
X29110D02*
X29321D01*
X32371D02*
X32583D01*
X34123D02*
X34364D01*
X35965D02*
X36207D01*
X36569D02*
X36780D01*
X37384D02*
X37596D01*
X37777D02*
X38049D01*
X38381D02*
X38653D01*
X27841Y27543D02*
X28083D01*
X29110D02*
X29321D01*
X32371D02*
X32583D01*
X34153D02*
X34364D01*
X35995D02*
X36207D01*
X36569D02*
X36780D01*
X36992D02*
X37022D01*
X37354D02*
X37626D01*
X37807D02*
X38109D01*
X38321D02*
X38623D01*
X27841Y27573D02*
X28053D01*
X29110D02*
X29321D01*
X31918D02*
X32009D01*
X32341D02*
X32583D01*
X34153D02*
X34364D01*
X35965D02*
X36207D01*
X36569D02*
X36811D01*
X36992D02*
X37113D01*
X37203D02*
X37233D01*
X37294D02*
X37596D01*
X37837D02*
X38170D01*
X38200D02*
X38592D01*
X27841Y27603D02*
X28053D01*
X29110D02*
X29321D01*
X31888D02*
X32069D01*
X32371D02*
X32552D01*
X34153D02*
X34364D01*
X35965D02*
X36207D01*
X36569D02*
X36780D01*
X36992D02*
X37596D01*
X37868D02*
X38592D01*
X27841Y27634D02*
X28083D01*
X29079D02*
X29321D01*
X31858D02*
X32099D01*
X32341D02*
X32492D01*
X34153D02*
X34364D01*
X35995D02*
X36207D01*
X36569D02*
X36811D01*
X36992D02*
X37566D01*
X37868D02*
X38532D01*
X27871Y27664D02*
X28053D01*
X29110D02*
X29321D01*
X31858D02*
X32099D01*
X34153D02*
X34364D01*
X35965D02*
X36207D01*
X36599D02*
X36780D01*
X36992D02*
X37535D01*
X37928D02*
X38502D01*
X27841Y27694D02*
X28053D01*
X29110D02*
X29321D01*
X31858D02*
X32099D01*
X34123D02*
X34364D01*
X35995D02*
X36207D01*
X36569D02*
X36811D01*
X36992D02*
X37505D01*
X37958D02*
X38472D01*
X27841Y27724D02*
X28083D01*
X29110D02*
X29321D01*
X31858D02*
X32069D01*
X34153D02*
X34364D01*
X35995D02*
X36086D01*
X36116D02*
X36207D01*
X36569D02*
X36780D01*
X37022D02*
X37384D01*
X38049D02*
X38351D01*
X27841Y27754D02*
X28053D01*
X29110D02*
X29321D01*
X31888D02*
X32069D01*
X34153D02*
X34364D01*
X37203D02*
X37233D01*
X37264D02*
X37294D01*
X38170D02*
X38200D01*
X38230D02*
X38260D01*
X27841Y27785D02*
X27871D01*
X27902D02*
X27932D01*
X27992D02*
X28022D01*
X29140D02*
X29170D01*
X29200D02*
X29230D01*
X29261D02*
X29291D01*
X31948D02*
X31979D01*
X34153D02*
X34183D01*
X34213D02*
X34244D01*
X34274D02*
X34304D01*
X26758Y28427D02*
X26789D01*
X26819D02*
X26849D01*
X26879D02*
X26909D01*
X26940D02*
X26970D01*
X27030D02*
X27060D01*
X27091D02*
X27121D01*
X27181D02*
X27211D01*
X27272D02*
X27302D01*
X27362D02*
X27393D01*
X27453D02*
X27513D01*
X27544D02*
X27574D01*
X27604D02*
X27634D01*
X27664D02*
X27695D01*
X28057D02*
X28087D01*
X28268D02*
X28299D01*
X28389D02*
X28419D01*
X28480D02*
X28510D01*
X28540D02*
X28570D01*
X28631D02*
X28661D01*
X28721D02*
X28752D01*
X28812D02*
X28842D01*
X28903D02*
X28963D01*
X28993D02*
X29023D01*
X29054D02*
X29084D01*
X29114D02*
X29144D01*
X29205D02*
X29235D01*
X29265D02*
X29295D01*
X29356D02*
X29386D01*
X29446D02*
X29476D01*
X29537D02*
X29567D01*
X30654D02*
X30684D01*
X30715D02*
X30745D01*
X30805D02*
X30835D01*
X30896D02*
X30926D01*
X30986D02*
X31017D01*
X31077D02*
X31137D01*
X31168D02*
X31198D01*
X32708D02*
X32738D01*
X32798D02*
X32829D01*
X32859D02*
X32889D01*
X32980D02*
X33010D01*
X35184D02*
X35214D01*
X35245D02*
X35275D01*
X35335D02*
X35365D01*
X35426D02*
X35486D01*
X35516D02*
X35547D01*
X35577D02*
X35607D01*
X35637D02*
X35667D01*
X35728D02*
X35758D01*
X35788D02*
X35818D01*
X35879D02*
X35909D01*
X35969D02*
X36000D01*
X36030D02*
X36060D01*
X36151D02*
X36211D01*
X36241D02*
X36271D01*
X36302D02*
X36332D01*
X36362D02*
X36392D01*
X36453D02*
X36483D01*
X36513D02*
X36543D01*
X36573D02*
X36604D01*
X36634D02*
X36664D01*
X36694D02*
X36755D01*
X36785D02*
X36815D01*
X36845D02*
X36875D01*
X36906D02*
X36936D01*
X36966D02*
X36996D01*
X37026D02*
X37057D01*
X37087D02*
X37117D01*
X37147D02*
X37177D01*
X37208D02*
X37238D01*
X37570D02*
X37600D01*
X37661D02*
X37691D01*
X37721D02*
X37751D01*
X26758Y28457D02*
X27936D01*
X28117D02*
X29567D01*
X30624D02*
X31288D01*
X32466D02*
X33100D01*
X33131D02*
X33161D01*
X34943D02*
X37117D01*
X37268D02*
X37298D01*
X37328D02*
X37932D01*
X37963D02*
X37993D01*
X26728Y28487D02*
X28027D01*
X28057D02*
X28087D01*
X28238D02*
X29597D01*
X30624D02*
X31288D01*
X32345D02*
X33312D01*
X34792D02*
X36996D01*
X37147D02*
X37177D01*
X37208D02*
X38083D01*
X26758Y28517D02*
X28178D01*
X28329D02*
X29627D01*
X30594D02*
X31258D01*
X32255D02*
X33372D01*
X34701D02*
X36936D01*
X37057D02*
X38204D01*
X26728Y28547D02*
X28268D01*
X28389D02*
X29627D01*
X30624D02*
X31288D01*
X32164D02*
X33463D01*
X34610D02*
X36845D01*
X36996D02*
X38234D01*
X26758Y28578D02*
X28329D01*
X28450D02*
X29658D01*
X30624D02*
X31288D01*
X32134D02*
X33493D01*
X34550D02*
X36815D01*
X36936D02*
X38325D01*
X26728Y28608D02*
X28389D01*
X28510D02*
X29688D01*
X30594D02*
X31258D01*
X32074D02*
X33553D01*
X34490D02*
X36755D01*
X36845D02*
X38385D01*
X26758Y28638D02*
X28450D01*
X28540D02*
X29688D01*
X30624D02*
X31288D01*
X32013D02*
X33614D01*
X34459D02*
X36724D01*
X36845D02*
X38446D01*
X26758Y28668D02*
X28480D01*
X28601D02*
X29718D01*
X30624D02*
X31288D01*
X31983D02*
X33644D01*
X34399D02*
X36664D01*
X36755D02*
X38476D01*
X26728Y28698D02*
X28540D01*
X28601D02*
X29718D01*
X30624D02*
X31258D01*
X31953D02*
X33674D01*
X34369D02*
X36634D01*
X36724D02*
X38536D01*
X26758Y28729D02*
X28570D01*
X28661D02*
X29748D01*
X30594D02*
X31288D01*
X31892D02*
X33735D01*
X34339D02*
X36604D01*
X36694D02*
X38567D01*
X26728Y28759D02*
X28601D01*
X28691D02*
X29778D01*
X30624D02*
X31288D01*
X31862D02*
X33735D01*
X34308D02*
X36573D01*
X36664D02*
X38597D01*
X26758Y28789D02*
X28661D01*
X28721D02*
X29778D01*
X30594D02*
X31288D01*
X31862D02*
X33795D01*
X34278D02*
X36543D01*
X36604D02*
X38627D01*
X26728Y28819D02*
X28661D01*
X28752D02*
X29809D01*
X30624D02*
X31258D01*
X31832D02*
X33795D01*
X34278D02*
X36483D01*
X36604D02*
X38687D01*
X26758Y28849D02*
X28691D01*
X28782D02*
X29839D01*
X30624D02*
X31258D01*
X31802D02*
X33825D01*
X34248D02*
X36483D01*
X36543D02*
X38687D01*
X26728Y28880D02*
X28721D01*
X28812D02*
X29839D01*
X30594D02*
X31288D01*
X31772D02*
X33825D01*
X34218D02*
X36453D01*
X36543D02*
X38718D01*
X26758Y28910D02*
X28752D01*
X28842D02*
X29869D01*
X30624D02*
X31258D01*
X31772D02*
X33855D01*
X34218D02*
X36392D01*
X36483D02*
X38748D01*
X26728Y28940D02*
X28782D01*
X28872D02*
X29869D01*
X30624D02*
X31288D01*
X31741D02*
X33886D01*
X34188D02*
X35124D01*
X36483D02*
X38778D01*
X26789Y28970D02*
X26849D01*
X26909D02*
X26940D01*
X26970D02*
X27000D01*
X27030D02*
X27060D01*
X27091D02*
X27121D01*
X27151D02*
X27181D01*
X27211D02*
X27272D01*
X27332D02*
X27362D01*
X27393D02*
X27453D01*
X27513D02*
X27574D01*
X27604D02*
X28812D01*
X28903D02*
X28933D01*
X28963D02*
X28993D01*
X29023D02*
X29054D01*
X29084D02*
X29114D01*
X29144D02*
X29899D01*
X30594D02*
X31288D01*
X31711D02*
X32678D01*
X32708D02*
X32768D01*
X32798D02*
X32829D01*
X32889D02*
X33886D01*
X34188D02*
X35033D01*
X36453D02*
X37540D01*
X37570D02*
X37600D01*
X37661D02*
X37721D01*
X37751D02*
X38808D01*
X27755Y29000D02*
X28812D01*
X29174D02*
X29929D01*
X30624D02*
X31258D01*
X31711D02*
X32587D01*
X33010D02*
X33916D01*
X34188D02*
X34973D01*
X36422D02*
X37389D01*
X37842D02*
X38808D01*
X27815Y29031D02*
X28842D01*
X29205D02*
X29929D01*
X30624D02*
X31288D01*
X31711D02*
X32496D01*
X33100D02*
X33916D01*
X34157D02*
X34912D01*
X36422D02*
X37298D01*
X37932D02*
X38838D01*
X27876Y29061D02*
X28872D01*
X29205D02*
X29960D01*
X30624D02*
X31288D01*
X31681D02*
X32466D01*
X33131D02*
X33916D01*
X34157D02*
X34882D01*
X36392D02*
X37238D01*
X37993D02*
X38869D01*
X27966Y29091D02*
X28872D01*
X29235D02*
X29990D01*
X30594D02*
X31258D01*
X31681D02*
X32406D01*
X33191D02*
X33946D01*
X34157D02*
X34882D01*
X36362D02*
X37208D01*
X38023D02*
X38869D01*
X27997Y29121D02*
X28903D01*
X29265D02*
X29990D01*
X30624D02*
X31288D01*
X31651D02*
X32406D01*
X33191D02*
X33946D01*
X34157D02*
X34852D01*
X36362D02*
X37147D01*
X38053D02*
X38899D01*
X28057Y29151D02*
X28903D01*
X29265D02*
X30020D01*
X30594D02*
X31288D01*
X31651D02*
X32376D01*
X33221D02*
X33976D01*
X34157D02*
X34852D01*
X36332D02*
X37117D01*
X38114D02*
X38929D01*
X28057Y29182D02*
X28933D01*
X29295D02*
X30020D01*
X30624D02*
X31258D01*
X31621D02*
X32345D01*
X33251D02*
X33976D01*
X34127D02*
X34852D01*
X36302D02*
X37087D01*
X38144D02*
X38929D01*
X28117Y29212D02*
X28933D01*
X29325D02*
X30050D01*
X30624D02*
X31288D01*
X31651D02*
X32315D01*
X33282D02*
X33976D01*
X34127D02*
X34822D01*
X36302D02*
X37057D01*
X38144D02*
X38929D01*
X28148Y29242D02*
X28963D01*
X29325D02*
X30080D01*
X30594D02*
X31288D01*
X31621D02*
X32315D01*
X33282D02*
X33976D01*
X34157D02*
X34852D01*
X36302D02*
X37057D01*
X38174D02*
X38959D01*
X28178Y29272D02*
X28963D01*
X29356D02*
X30080D01*
X30624D02*
X31288D01*
X31621D02*
X32315D01*
X33312D02*
X34006D01*
X34127D02*
X34852D01*
X36271D02*
X37026D01*
X38204D02*
X38959D01*
X28178Y29302D02*
X28963D01*
X29386D02*
X30111D01*
X30624D02*
X31258D01*
X31621D02*
X32285D01*
X33312D02*
X33976D01*
X34157D02*
X34852D01*
X36271D02*
X36996D01*
X38234D02*
X38989D01*
X28208Y29333D02*
X28993D01*
X29386D02*
X30141D01*
X30594D02*
X31258D01*
X31621D02*
X32285D01*
X33312D02*
X34006D01*
X34127D02*
X34882D01*
X36271D02*
X36966D01*
X38234D02*
X38989D01*
X28238Y29363D02*
X28993D01*
X29416D02*
X30141D01*
X30624D02*
X31288D01*
X31590D02*
X32285D01*
X33312D02*
X34006D01*
X34157D02*
X34912D01*
X36241D02*
X36966D01*
X38265D02*
X38989D01*
X28238Y29393D02*
X28993D01*
X29446D02*
X30171D01*
X30624D02*
X31258D01*
X31621D02*
X32255D01*
X33342D02*
X34006D01*
X34157D02*
X34943D01*
X36241D02*
X36966D01*
X38265D02*
X39020D01*
X28238Y29423D02*
X29023D01*
X29446D02*
X30231D01*
X30594D02*
X31288D01*
X31590D02*
X32255D01*
X33342D02*
X34006D01*
X34157D02*
X34973D01*
X36211D02*
X36936D01*
X38295D02*
X39020D01*
X28268Y29453D02*
X28993D01*
X29476D02*
X30231D01*
X30624D02*
X31288D01*
X31590D02*
X32285D01*
X33342D02*
X34006D01*
X34157D02*
X35003D01*
X36211D02*
X36936D01*
X38295D02*
X39020D01*
X28299Y29484D02*
X29023D01*
X29537D02*
X30292D01*
X30624D02*
X31258D01*
X31590D02*
X32255D01*
X33342D02*
X34037D01*
X34188D02*
X35063D01*
X36211D02*
X36906D01*
X38325D02*
X39020D01*
X28299Y29514D02*
X29023D01*
X29537D02*
X30352D01*
X30594D02*
X31288D01*
X31590D02*
X32255D01*
X33342D02*
X34037D01*
X34188D02*
X35124D01*
X36211D02*
X36906D01*
X38325D02*
X39050D01*
X28299Y29544D02*
X29023D01*
X29567D02*
X31288D01*
X31590D02*
X32255D01*
X33372D02*
X34006D01*
X34188D02*
X35184D01*
X36211D02*
X36906D01*
X38325D02*
X39050D01*
X28299Y29574D02*
X29054D01*
X29597D02*
X31258D01*
X31590D02*
X32255D01*
X33342D02*
X34037D01*
X34188D02*
X35245D01*
X36181D02*
X36906D01*
X38325D02*
X39050D01*
X28329Y29604D02*
X29023D01*
X29627D02*
X31288D01*
X31560D02*
X32255D01*
X33372D02*
X34037D01*
X34218D02*
X35305D01*
X36181D02*
X36906D01*
X38355D02*
X39050D01*
X28329Y29635D02*
X29054D01*
X29658D02*
X31288D01*
X31590D02*
X32255D01*
X33372D02*
X34037D01*
X34248D02*
X35396D01*
X36181D02*
X36875D01*
X38355D02*
X39050D01*
X28329Y29665D02*
X29023D01*
X29718D02*
X31258D01*
X31590D02*
X32255D01*
X33342D02*
X34006D01*
X34248D02*
X35456D01*
X36181D02*
X36875D01*
X38355D02*
X39050D01*
X28329Y29695D02*
X29054D01*
X29778D02*
X31288D01*
X31560D02*
X32255D01*
X33372D02*
X34037D01*
X34278D02*
X35547D01*
X36181D02*
X36875D01*
X38355D02*
X39080D01*
X28359Y29725D02*
X29054D01*
X29778D02*
X31288D01*
X31590D02*
X32255D01*
X33342D02*
X34037D01*
X34308D02*
X35607D01*
X36181D02*
X36875D01*
X38355D02*
X39050D01*
X28329Y29755D02*
X29054D01*
X29658D02*
X29688D01*
X29718D02*
X31288D01*
X31590D02*
X32255D01*
X33372D02*
X34006D01*
X34339D02*
X35667D01*
X36151D02*
X36875D01*
X38355D02*
X39050D01*
X28359Y29786D02*
X29054D01*
X29627D02*
X31258D01*
X31590D02*
X32225D01*
X33342D02*
X34037D01*
X34339D02*
X35728D01*
X36181D02*
X36875D01*
X38355D02*
X39080D01*
X28329Y29816D02*
X29023D01*
X29567D02*
X31258D01*
X31560D02*
X32255D01*
X33372D02*
X34037D01*
X34399D02*
X35788D01*
X36181D02*
X36875D01*
X38385D02*
X39050D01*
X28359Y29846D02*
X29054D01*
X29507D02*
X31288D01*
X31590D02*
X32255D01*
X33342D02*
X34006D01*
X34429D02*
X35818D01*
X36151D02*
X36875D01*
X38355D02*
X39050D01*
X28359Y29876D02*
X29054D01*
X29476D02*
X31258D01*
X31590D02*
X32255D01*
X33342D02*
X34037D01*
X34459D02*
X35849D01*
X36181D02*
X36875D01*
X38355D02*
X39080D01*
X28329Y29906D02*
X29054D01*
X29446D02*
X31288D01*
X31590D02*
X32225D01*
X33372D02*
X34037D01*
X34520D02*
X35909D01*
X36181D02*
X36875D01*
X38355D02*
X39050D01*
X28329Y29937D02*
X29054D01*
X29386D02*
X31288D01*
X31560D02*
X32255D01*
X33372D02*
X34006D01*
X34550D02*
X35939D01*
X36151D02*
X36875D01*
X38385D02*
X39080D01*
X28359Y29967D02*
X29023D01*
X29386D02*
X31258D01*
X31590D02*
X32255D01*
X33342D02*
X34037D01*
X34610D02*
X35969D01*
X36181D02*
X36875D01*
X38355D02*
X39050D01*
X28329Y29997D02*
X29054D01*
X29325D02*
X31288D01*
X31590D02*
X32255D01*
X33372D02*
X34037D01*
X34671D02*
X36000D01*
X36181D02*
X36875D01*
X38355D02*
X39050D01*
X28329Y30027D02*
X29023D01*
X29325D02*
X30201D01*
X30594D02*
X31288D01*
X31590D02*
X32255D01*
X33342D02*
X34006D01*
X34731D02*
X36000D01*
X36181D02*
X36875D01*
X38355D02*
X39050D01*
X28329Y30057D02*
X29023D01*
X29295D02*
X30111D01*
X30624D02*
X31258D01*
X31560D02*
X32255D01*
X33372D02*
X34037D01*
X34792D02*
X36060D01*
X36181D02*
X36906D01*
X38355D02*
X39050D01*
X28329Y30088D02*
X29023D01*
X29265D02*
X30050D01*
X30594D02*
X31288D01*
X31590D02*
X32225D01*
X33342D02*
X34037D01*
X34882D02*
X36060D01*
X36181D02*
X36875D01*
X38355D02*
X39050D01*
X28329Y30118D02*
X29023D01*
X29235D02*
X29990D01*
X30624D02*
X31288D01*
X31590D02*
X32255D01*
X33372D02*
X34037D01*
X34943D02*
X36090D01*
X36181D02*
X36875D01*
X38355D02*
X39050D01*
X28299Y30148D02*
X29023D01*
X29235D02*
X29960D01*
X30624D02*
X31258D01*
X31590D02*
X32255D01*
X33342D02*
X34037D01*
X35003D02*
X36090D01*
X36181D02*
X36906D01*
X38325D02*
X39050D01*
X28299Y30178D02*
X29023D01*
X29235D02*
X29929D01*
X30594D02*
X31288D01*
X31560D02*
X32225D01*
X33342D02*
X34006D01*
X35124D02*
X36120D01*
X36181D02*
X36906D01*
X38325D02*
X39020D01*
X28299Y30208D02*
X28993D01*
X29205D02*
X29929D01*
X30624D02*
X31288D01*
X31590D02*
X32255D01*
X33372D02*
X34037D01*
X35154D02*
X36120D01*
X36211D02*
X36906D01*
X38325D02*
X39020D01*
X28268Y30239D02*
X28993D01*
X29205D02*
X29899D01*
X30624D02*
X31288D01*
X31590D02*
X32255D01*
X33372D02*
X34006D01*
X35214D02*
X36120D01*
X36211D02*
X36936D01*
X38295D02*
X39020D01*
X28268Y30269D02*
X28993D01*
X29174D02*
X29869D01*
X30624D02*
X31258D01*
X31590D02*
X32225D01*
X33342D02*
X34037D01*
X35275D02*
X36151D01*
X36211D02*
X36936D01*
X38295D02*
X39020D01*
X28238Y30299D02*
X28963D01*
X29174D02*
X29869D01*
X30594D02*
X31258D01*
X31560D02*
X32255D01*
X33342D02*
X34006D01*
X35335D02*
X36151D01*
X36211D02*
X36936D01*
X38295D02*
X39020D01*
X28238Y30329D02*
X28963D01*
X29174D02*
X29869D01*
X30624D02*
X31288D01*
X31590D02*
X32255D01*
X33372D02*
X34037D01*
X35365D02*
X36151D01*
X36211D02*
X36936D01*
X38265D02*
X38989D01*
X28208Y30359D02*
X28963D01*
X29174D02*
X29869D01*
X30594D02*
X31258D01*
X31590D02*
X32255D01*
X33372D02*
X34037D01*
X35396D02*
X36151D01*
X36211D02*
X36966D01*
X38265D02*
X38989D01*
X28208Y30390D02*
X28933D01*
X29144D02*
X29839D01*
X30624D02*
X31288D01*
X31590D02*
X32255D01*
X33342D02*
X34037D01*
X35426D02*
X36151D01*
X36241D02*
X36996D01*
X38234D02*
X38989D01*
X28178Y30420D02*
X28933D01*
X29144D02*
X29839D01*
X30624D02*
X31288D01*
X31560D02*
X32255D01*
X33372D02*
X34006D01*
X35426D02*
X36181D01*
X36271D02*
X36996D01*
X38234D02*
X38959D01*
X28148Y30450D02*
X28933D01*
X29144D02*
X29839D01*
X30594D02*
X31258D01*
X31590D02*
X32255D01*
X33342D02*
X34037D01*
X35456D02*
X36151D01*
X36271D02*
X37026D01*
X38204D02*
X38959D01*
X28117Y30480D02*
X28903D01*
X29144D02*
X29869D01*
X30624D02*
X31288D01*
X31590D02*
X32255D01*
X33372D02*
X34006D01*
X35456D02*
X36181D01*
X36271D02*
X37026D01*
X38174D02*
X38929D01*
X28087Y30510D02*
X28872D01*
X29144D02*
X29839D01*
X30624D02*
X31288D01*
X31590D02*
X32225D01*
X33342D02*
X34037D01*
X35456D02*
X36151D01*
X36271D02*
X37057D01*
X38144D02*
X38929D01*
X28057Y30541D02*
X28872D01*
X29144D02*
X29869D01*
X30594D02*
X31258D01*
X31560D02*
X32255D01*
X33372D02*
X34006D01*
X35486D02*
X36181D01*
X36302D02*
X37087D01*
X38144D02*
X38899D01*
X28027Y30571D02*
X28872D01*
X29144D02*
X29869D01*
X30624D02*
X31288D01*
X31590D02*
X32255D01*
X33342D02*
X34037D01*
X35456D02*
X36151D01*
X36332D02*
X37117D01*
X38114D02*
X38899D01*
X27966Y30601D02*
X28842D01*
X29144D02*
X29869D01*
X30624D02*
X31288D01*
X31590D02*
X32255D01*
X33342D02*
X34037D01*
X35456D02*
X36151D01*
X36332D02*
X37147D01*
X38053D02*
X38869D01*
X27936Y30631D02*
X28812D01*
X29144D02*
X29899D01*
X30594D02*
X31288D01*
X31590D02*
X32255D01*
X33372D02*
X34006D01*
X35426D02*
X36151D01*
X36362D02*
X37177D01*
X38023D02*
X38869D01*
X27876Y30661D02*
X28812D01*
X29174D02*
X29899D01*
X30624D02*
X31258D01*
X31560D02*
X32255D01*
X33372D02*
X34037D01*
X35396D02*
X36151D01*
X36362D02*
X37238D01*
X37993D02*
X38838D01*
X27815Y30692D02*
X28782D01*
X29144D02*
X29960D01*
X30624D02*
X31288D01*
X31590D02*
X32255D01*
X33342D02*
X34006D01*
X35396D02*
X36151D01*
X36392D02*
X37298D01*
X37932D02*
X38808D01*
X27725Y30722D02*
X28752D01*
X29174D02*
X29960D01*
X30594D02*
X31288D01*
X31590D02*
X32255D01*
X33372D02*
X34037D01*
X35335D02*
X36120D01*
X36392D02*
X37328D01*
X37842D02*
X38808D01*
X26849Y30752D02*
X26879D01*
X26940D02*
X26970D01*
X27091D02*
X27121D01*
X27181D02*
X27211D01*
X27332D02*
X27393D01*
X27513D02*
X27544D01*
X27574D02*
X28752D01*
X29174D02*
X30020D01*
X30624D02*
X31258D01*
X31590D02*
X32225D01*
X33342D02*
X34037D01*
X35275D02*
X36120D01*
X36422D02*
X37479D01*
X37570D02*
X37600D01*
X37630D02*
X37661D01*
X37721D02*
X38778D01*
X26728Y30782D02*
X28691D01*
X29174D02*
X30111D01*
X30624D02*
X31288D01*
X31560D02*
X32255D01*
X33372D02*
X34006D01*
X35184D02*
X36120D01*
X36453D02*
X38748D01*
X26758Y30812D02*
X28691D01*
X29205D02*
X30201D01*
X30231D02*
X30322D01*
X30352D02*
X30382D01*
X30413D02*
X30473D01*
X30503D02*
X30533D01*
X30564D02*
X31288D01*
X31319D02*
X31379D01*
X31409D02*
X31439D01*
X31470D02*
X31500D01*
X31590D02*
X32255D01*
X33342D02*
X34037D01*
X34127D02*
X34399D01*
X34429D02*
X34580D01*
X34610D02*
X34822D01*
X34852D02*
X36090D01*
X36483D02*
X38718D01*
X26728Y30843D02*
X28631D01*
X29205D02*
X31500D01*
X31590D02*
X32255D01*
X33372D02*
X34037D01*
X34097D02*
X36090D01*
X36483D02*
X38687D01*
X26758Y30873D02*
X28631D01*
X29235D02*
X31500D01*
X31590D02*
X32225D01*
X33342D02*
X34006D01*
X34127D02*
X36060D01*
X36543D02*
X38687D01*
X26728Y30903D02*
X28601D01*
X29235D02*
X31500D01*
X31560D02*
X32255D01*
X33342D02*
X34037D01*
X34097D02*
X36030D01*
X36543D02*
X38627D01*
X26758Y30933D02*
X28540D01*
X29265D02*
X31500D01*
X31590D02*
X32255D01*
X33372D02*
X34037D01*
X34097D02*
X36000D01*
X36604D02*
X38627D01*
X26728Y30963D02*
X28510D01*
X29265D02*
X31500D01*
X31590D02*
X32255D01*
X33372D02*
X34006D01*
X34097D02*
X36000D01*
X36604D02*
X38567D01*
X26758Y30994D02*
X28480D01*
X29295D02*
X31500D01*
X31590D02*
X32255D01*
X33342D02*
X34037D01*
X34127D02*
X35939D01*
X36664D02*
X38536D01*
X26728Y31024D02*
X28419D01*
X29325D02*
X31500D01*
X31560D02*
X32255D01*
X33342D02*
X34037D01*
X34097D02*
X35939D01*
X36694D02*
X38506D01*
X26758Y31054D02*
X28389D01*
X29356D02*
X31500D01*
X31590D02*
X32225D01*
X33372D02*
X34006D01*
X34127D02*
X35879D01*
X36724D02*
X38476D01*
X26728Y31084D02*
X28329D01*
X29386D02*
X31500D01*
X31590D02*
X32255D01*
X33372D02*
X34037D01*
X34097D02*
X35849D01*
X36785D02*
X38416D01*
X26758Y31114D02*
X28268D01*
X29446D02*
X31500D01*
X31590D02*
X32255D01*
X33342D02*
X34037D01*
X34127D02*
X35788D01*
X36845D02*
X38355D01*
X26728Y31145D02*
X28238D01*
X29476D02*
X31500D01*
X31560D02*
X32225D01*
X33372D02*
X34037D01*
X34097D02*
X35758D01*
X36875D02*
X38295D01*
X26758Y31175D02*
X28148D01*
X29537D02*
X31500D01*
X31590D02*
X32255D01*
X33342D02*
X34006D01*
X34127D02*
X35667D01*
X36966D02*
X38234D01*
X26728Y31205D02*
X28087D01*
X29597D02*
X31500D01*
X31590D02*
X32255D01*
X33372D02*
X34037D01*
X34097D02*
X35607D01*
X37026D02*
X38144D01*
X26758Y31235D02*
X27966D01*
X29718D02*
X31500D01*
X31590D02*
X32225D01*
X33342D02*
X34037D01*
X34097D02*
X35516D01*
X37117D02*
X38053D01*
X26728Y31265D02*
X27815D01*
X29809D02*
X29839D01*
X29869D02*
X31500D01*
X31560D02*
X32255D01*
X33372D02*
X34006D01*
X34097D02*
X35365D01*
X37238D02*
X37932D01*
X26758Y31296D02*
X26789D01*
X26849D02*
X26879D01*
X26909D02*
X26940D01*
X26970D02*
X27030D01*
X27060D02*
X27091D01*
X27121D02*
X27151D01*
X27181D02*
X27211D01*
X27242D02*
X27272D01*
X27302D02*
X27332D01*
X27362D02*
X27393D01*
X27423D02*
X27453D01*
X27513D02*
X27544D01*
X27574D02*
X27604D01*
X27634D02*
X27664D01*
X29960D02*
X29990D01*
X30080D02*
X30111D01*
X30141D02*
X30171D01*
X30201D02*
X30231D01*
X30262D02*
X30292D01*
X30322D02*
X30352D01*
X30413D02*
X30443D01*
X30473D02*
X30503D01*
X30533D02*
X30564D01*
X30594D02*
X30654D01*
X30684D02*
X30715D01*
X30775D02*
X30805D01*
X30866D02*
X30896D01*
X30926D02*
X30956D01*
X30986D02*
X31017D01*
X31047D02*
X31077D01*
X31137D02*
X31168D01*
X31198D02*
X31228D01*
X31258D02*
X31288D01*
X31319D02*
X31379D01*
X31439D02*
X31470D01*
X31590D02*
X31621D01*
X31651D02*
X31681D01*
X31711D02*
X31741D01*
X31772D02*
X31802D01*
X31862D02*
X31892D01*
X31923D02*
X31953D01*
X31983D02*
X32013D01*
X32043D02*
X32104D01*
X32134D02*
X32164D01*
X32194D02*
X32225D01*
X33372D02*
X33402D01*
X33433D02*
X33463D01*
X33493D02*
X33553D01*
X33584D02*
X33614D01*
X33674D02*
X33704D01*
X33765D02*
X33795D01*
X33825D02*
X33855D01*
X33886D02*
X33916D01*
X33946D02*
X33976D01*
X34157D02*
X34188D01*
X34218D02*
X34278D01*
X34308D02*
X34339D01*
X34369D02*
X34399D01*
X34429D02*
X34459D01*
X34490D02*
X34520D01*
X34550D02*
X34580D01*
X34610D02*
X34641D01*
X34671D02*
X34701D01*
X34761D02*
X34792D01*
X34822D02*
X34852D01*
X34882D02*
X34912D01*
X34943D02*
X35003D01*
X35033D02*
X35063D01*
X35124D02*
X35154D01*
X37419D02*
X37449D01*
X37510D02*
X37540D01*
X37570D02*
X37600D01*
X37661D02*
X37691D01*
X37721D02*
X37751D01*
D78*
X24252Y28740D02*
D03*
X22520Y28858D02*
D03*
X20866Y28937D02*
D03*
X19449Y29016D02*
D03*
X18268Y29055D02*
D03*
X17087Y29134D02*
D03*
X15984Y29173D02*
D03*
X15000Y29213D02*
D03*
X14134Y29252D02*
D03*
X13307Y29291D02*
D03*
X12559Y29331D02*
D03*
X11811D02*
D03*
X11142Y29370D02*
D03*
X10512D02*
D03*
X10000D02*
D03*
X9488D02*
D03*
X9016D02*
D03*
X8543D02*
D03*
X8150D02*
D03*
X7717D02*
D03*
X7323D02*
D03*
X6929D02*
D03*
X6575D02*
D03*
X8583Y29331D02*
D03*
D81*
X38228Y17087D02*
D03*
Y16772D02*
D03*
Y16457D02*
D03*
Y16142D02*
D03*
Y15827D02*
D03*
Y15512D02*
D03*
Y15197D02*
D03*
Y14882D02*
D03*
Y14567D02*
D03*
Y14252D02*
D03*
Y13937D02*
D03*
X33661D02*
D03*
Y14252D02*
D03*
Y14567D02*
D03*
Y14882D02*
D03*
Y15197D02*
D03*
Y15512D02*
D03*
Y15827D02*
D03*
Y16142D02*
D03*
Y16457D02*
D03*
Y16772D02*
D03*
Y17087D02*
D03*
D82*
X37520Y13228D02*
D03*
X37205D02*
D03*
X36890D02*
D03*
X36575D02*
D03*
X36260D02*
D03*
X35945D02*
D03*
X35630D02*
D03*
X35315D02*
D03*
X35000D02*
D03*
X34685D02*
D03*
X34370D02*
D03*
Y17795D02*
D03*
X34685D02*
D03*
X35000D02*
D03*
X35315D02*
D03*
X35630D02*
D03*
X35945D02*
D03*
X36260D02*
D03*
X36575D02*
D03*
X36890D02*
D03*
X37205D02*
D03*
X37520D02*
D03*
M02*
