G04 Layer_Color=15132400*
%FSLAX24Y24*%
%MOIN*%
G70*
G01*
G75*
%ADD29C,0.0098*%
%ADD32C,0.0100*%
%ADD59C,0.0079*%
%ADD60C,0.0118*%
%ADD61C,0.0080*%
%ADD62C,0.0050*%
%ADD63C,0.0039*%
%ADD64C,0.0059*%
%ADD65C,0.0063*%
G36*
X25313Y43950D02*
X25315Y43950D01*
X25318Y43950D01*
X25320Y43949D01*
X25323Y43949D01*
X25329Y43947D01*
X25332Y43945D01*
X25335Y43944D01*
X25339Y43942D01*
X25342Y43939D01*
X25345Y43937D01*
X25348Y43934D01*
X25349Y43933D01*
X25349Y43933D01*
X25350Y43932D01*
X25351Y43931D01*
X25352Y43929D01*
X25354Y43927D01*
X25355Y43925D01*
X25356Y43922D01*
X25358Y43919D01*
X25359Y43916D01*
X25361Y43912D01*
X25362Y43909D01*
X25363Y43905D01*
X25364Y43900D01*
X25364Y43896D01*
X25364Y43891D01*
Y43891D01*
Y43890D01*
Y43889D01*
X25364Y43887D01*
X25364Y43885D01*
X25364Y43883D01*
X25363Y43880D01*
X25363Y43878D01*
X25361Y43871D01*
X25359Y43865D01*
X25357Y43862D01*
X25355Y43859D01*
X25353Y43856D01*
X25351Y43853D01*
X25350Y43852D01*
X25350Y43852D01*
X25349Y43851D01*
X25348Y43850D01*
X25347Y43849D01*
X25345Y43848D01*
X25343Y43846D01*
X25341Y43845D01*
X25338Y43843D01*
X25336Y43842D01*
X25330Y43839D01*
X25323Y43836D01*
X25319Y43836D01*
X25315Y43835D01*
X25312Y43857D01*
X25312D01*
X25313Y43857D01*
X25314Y43857D01*
X25315Y43858D01*
X25317Y43858D01*
X25318Y43858D01*
X25322Y43860D01*
X25327Y43861D01*
X25331Y43864D01*
X25335Y43866D01*
X25339Y43869D01*
X25339Y43870D01*
X25340Y43871D01*
X25341Y43873D01*
X25343Y43875D01*
X25344Y43879D01*
X25345Y43882D01*
X25346Y43887D01*
X25347Y43891D01*
Y43892D01*
Y43892D01*
Y43893D01*
X25346Y43894D01*
X25346Y43897D01*
X25345Y43900D01*
X25344Y43904D01*
X25342Y43909D01*
X25340Y43913D01*
X25336Y43917D01*
X25336Y43918D01*
X25334Y43919D01*
X25332Y43920D01*
X25329Y43922D01*
X25325Y43924D01*
X25321Y43926D01*
X25316Y43927D01*
X25310Y43928D01*
X25308D01*
X25307Y43928D01*
X25305Y43927D01*
X25301Y43926D01*
X25297Y43925D01*
X25293Y43924D01*
X25289Y43921D01*
X25285Y43918D01*
X25285Y43917D01*
X25284Y43916D01*
X25282Y43914D01*
X25280Y43911D01*
X25279Y43908D01*
X25277Y43903D01*
X25276Y43898D01*
X25275Y43893D01*
Y43893D01*
Y43892D01*
Y43891D01*
X25276Y43889D01*
X25276Y43887D01*
X25277Y43884D01*
X25277Y43881D01*
X25278Y43878D01*
X25259Y43880D01*
Y43881D01*
Y43882D01*
X25259Y43883D01*
Y43884D01*
Y43884D01*
Y43884D01*
Y43885D01*
Y43886D01*
X25258Y43889D01*
X25258Y43892D01*
X25257Y43896D01*
X25256Y43900D01*
X25254Y43904D01*
X25252Y43909D01*
Y43909D01*
X25252Y43909D01*
X25250Y43910D01*
X25249Y43912D01*
X25246Y43914D01*
X25243Y43916D01*
X25239Y43918D01*
X25235Y43919D01*
X25232Y43920D01*
X25228D01*
X25226Y43919D01*
X25223Y43919D01*
X25220Y43918D01*
X25216Y43917D01*
X25213Y43914D01*
X25210Y43912D01*
X25210Y43911D01*
X25209Y43910D01*
X25207Y43908D01*
X25206Y43906D01*
X25205Y43903D01*
X25203Y43899D01*
X25202Y43895D01*
X25202Y43891D01*
Y43891D01*
Y43890D01*
Y43889D01*
X25203Y43886D01*
X25203Y43883D01*
X25204Y43880D01*
X25205Y43877D01*
X25207Y43873D01*
X25210Y43870D01*
X25210Y43870D01*
X25211Y43869D01*
X25213Y43867D01*
X25216Y43865D01*
X25219Y43864D01*
X25223Y43862D01*
X25228Y43860D01*
X25234Y43859D01*
X25230Y43837D01*
X25230D01*
X25229Y43838D01*
X25228Y43838D01*
X25226Y43838D01*
X25224Y43839D01*
X25222Y43840D01*
X25218Y43841D01*
X25212Y43844D01*
X25206Y43847D01*
X25201Y43850D01*
X25196Y43855D01*
X25196Y43856D01*
X25196Y43856D01*
X25195Y43857D01*
X25194Y43858D01*
X25193Y43859D01*
X25192Y43861D01*
X25191Y43863D01*
X25190Y43865D01*
X25188Y43870D01*
X25186Y43876D01*
X25185Y43883D01*
X25184Y43886D01*
Y43890D01*
Y43891D01*
Y43891D01*
Y43892D01*
Y43893D01*
X25184Y43896D01*
X25185Y43899D01*
X25186Y43903D01*
X25187Y43908D01*
X25189Y43912D01*
X25191Y43917D01*
Y43917D01*
X25191Y43917D01*
X25192Y43919D01*
X25193Y43921D01*
X25195Y43924D01*
X25197Y43927D01*
X25200Y43930D01*
X25204Y43933D01*
X25207Y43935D01*
X25208Y43936D01*
X25209Y43936D01*
X25211Y43937D01*
X25214Y43939D01*
X25218Y43940D01*
X25221Y43941D01*
X25226Y43942D01*
X25230Y43942D01*
X25232D01*
X25234Y43942D01*
X25237Y43941D01*
X25240Y43941D01*
X25244Y43939D01*
X25247Y43938D01*
X25251Y43936D01*
X25252Y43935D01*
X25253Y43935D01*
X25254Y43933D01*
X25256Y43931D01*
X25259Y43929D01*
X25261Y43925D01*
X25264Y43922D01*
X25266Y43918D01*
Y43918D01*
X25266Y43918D01*
X25266Y43919D01*
X25267Y43920D01*
X25268Y43923D01*
X25269Y43926D01*
X25271Y43931D01*
X25274Y43935D01*
X25277Y43938D01*
X25281Y43942D01*
X25281Y43942D01*
X25283Y43943D01*
X25285Y43945D01*
X25289Y43946D01*
X25293Y43948D01*
X25298Y43949D01*
X25303Y43950D01*
X25309Y43951D01*
X25312D01*
X25313Y43950D01*
D02*
G37*
G36*
X22619Y44274D02*
X22661D01*
Y44252D01*
X22619D01*
Y44175D01*
X22599D01*
X22485Y44256D01*
Y44274D01*
X22599D01*
Y44298D01*
X22619D01*
Y44274D01*
D02*
G37*
G36*
X25365Y42917D02*
X25362D01*
X25360Y42918D01*
X25358Y42918D01*
X25355Y42918D01*
X25353Y42919D01*
X25350Y42920D01*
X25350D01*
X25350Y42920D01*
X25348Y42921D01*
X25346Y42922D01*
X25343Y42923D01*
X25339Y42925D01*
X25335Y42928D01*
X25331Y42931D01*
X25327Y42934D01*
X25326D01*
X25326Y42935D01*
X25325Y42936D01*
X25322Y42938D01*
X25319Y42942D01*
X25315Y42945D01*
X25311Y42950D01*
X25305Y42956D01*
X25300Y42962D01*
X25300Y42963D01*
X25299Y42964D01*
X25298Y42965D01*
X25296Y42967D01*
X25294Y42969D01*
X25292Y42972D01*
X25289Y42975D01*
X25287Y42978D01*
X25280Y42985D01*
X25274Y42991D01*
X25271Y42994D01*
X25268Y42997D01*
X25265Y42999D01*
X25263Y43001D01*
X25262D01*
X25262Y43002D01*
X25261Y43003D01*
X25260Y43003D01*
X25258Y43005D01*
X25254Y43007D01*
X25250Y43009D01*
X25246Y43010D01*
X25241Y43011D01*
X25236Y43012D01*
X25236D01*
X25234Y43012D01*
X25232Y43011D01*
X25229Y43011D01*
X25225Y43010D01*
X25222Y43008D01*
X25218Y43006D01*
X25215Y43003D01*
X25214Y43002D01*
X25213Y43001D01*
X25212Y42999D01*
X25210Y42996D01*
X25209Y42993D01*
X25207Y42988D01*
X25206Y42984D01*
X25206Y42978D01*
Y42978D01*
Y42978D01*
Y42977D01*
X25206Y42976D01*
X25206Y42973D01*
X25207Y42969D01*
X25208Y42965D01*
X25210Y42961D01*
X25212Y42957D01*
X25215Y42953D01*
X25216Y42953D01*
X25217Y42952D01*
X25219Y42950D01*
X25222Y42948D01*
X25226Y42947D01*
X25230Y42945D01*
X25235Y42944D01*
X25241Y42944D01*
X25239Y42921D01*
X25239D01*
X25238Y42922D01*
X25237D01*
X25235Y42922D01*
X25233Y42922D01*
X25230Y42923D01*
X25228Y42924D01*
X25225Y42924D01*
X25219Y42927D01*
X25213Y42930D01*
X25210Y42931D01*
X25207Y42934D01*
X25204Y42936D01*
X25201Y42939D01*
X25201Y42939D01*
X25201Y42939D01*
X25200Y42940D01*
X25199Y42941D01*
X25198Y42943D01*
X25197Y42945D01*
X25196Y42947D01*
X25195Y42949D01*
X25193Y42952D01*
X25192Y42955D01*
X25191Y42958D01*
X25190Y42962D01*
X25189Y42966D01*
X25188Y42970D01*
X25188Y42974D01*
X25188Y42979D01*
Y42979D01*
Y42980D01*
Y42981D01*
X25188Y42983D01*
X25188Y42985D01*
X25189Y42988D01*
X25189Y42991D01*
X25190Y42993D01*
X25191Y43000D01*
X25194Y43007D01*
X25196Y43010D01*
X25197Y43013D01*
X25200Y43016D01*
X25202Y43019D01*
X25202Y43019D01*
X25203Y43020D01*
X25204Y43020D01*
X25205Y43021D01*
X25206Y43023D01*
X25208Y43024D01*
X25210Y43025D01*
X25212Y43027D01*
X25217Y43029D01*
X25223Y43032D01*
X25226Y43033D01*
X25229Y43033D01*
X25233Y43034D01*
X25237Y43034D01*
X25239D01*
X25241Y43034D01*
X25243Y43034D01*
X25247Y43033D01*
X25250Y43032D01*
X25254Y43031D01*
X25258Y43030D01*
X25258Y43029D01*
X25260Y43029D01*
X25262Y43028D01*
X25264Y43026D01*
X25267Y43024D01*
X25271Y43022D01*
X25275Y43019D01*
X25279Y43015D01*
X25280Y43014D01*
X25281Y43013D01*
X25283Y43012D01*
X25284Y43011D01*
X25286Y43009D01*
X25288Y43007D01*
X25290Y43005D01*
X25292Y43003D01*
X25294Y43000D01*
X25297Y42997D01*
X25300Y42994D01*
X25303Y42990D01*
X25307Y42986D01*
X25310Y42982D01*
X25311Y42982D01*
X25311Y42981D01*
X25312Y42980D01*
X25313Y42979D01*
X25314Y42977D01*
X25316Y42975D01*
X25319Y42971D01*
X25323Y42967D01*
X25327Y42963D01*
X25330Y42959D01*
X25331Y42958D01*
X25333Y42957D01*
X25333Y42956D01*
X25334Y42956D01*
X25335Y42955D01*
X25336Y42953D01*
X25338Y42952D01*
X25340Y42950D01*
X25344Y42947D01*
Y43034D01*
X25365D01*
Y42917D01*
D02*
G37*
G36*
X25361Y42109D02*
X25223D01*
X25224Y42109D01*
X25225Y42108D01*
X25226Y42106D01*
X25228Y42104D01*
X25230Y42101D01*
X25233Y42097D01*
X25236Y42093D01*
X25239Y42089D01*
Y42088D01*
X25239Y42088D01*
X25240Y42087D01*
X25241Y42084D01*
X25243Y42081D01*
X25244Y42077D01*
X25246Y42074D01*
X25248Y42070D01*
X25249Y42066D01*
X25229D01*
Y42066D01*
X25228Y42067D01*
X25228Y42068D01*
X25227Y42069D01*
X25226Y42070D01*
X25225Y42072D01*
X25223Y42077D01*
X25220Y42082D01*
X25216Y42087D01*
X25212Y42092D01*
X25208Y42098D01*
X25208Y42098D01*
X25207Y42098D01*
X25207Y42099D01*
X25206Y42100D01*
X25203Y42102D01*
X25200Y42105D01*
X25197Y42108D01*
X25193Y42112D01*
X25189Y42114D01*
X25184Y42117D01*
Y42131D01*
X25361D01*
Y42109D01*
D02*
G37*
%LPC*%
G36*
X22599Y44252D02*
X22520D01*
X22599Y44196D01*
Y44252D01*
D02*
G37*
%LPD*%
D29*
X12876Y46398D02*
G03*
X12876Y46398I-49J0D01*
G01*
X31900Y21301D02*
G03*
X31900Y21301I-49J0D01*
G01*
X22244Y28327D02*
G03*
X22244Y28327I-49J0D01*
G01*
X17965Y18504D02*
G03*
X17965Y18504I-49J0D01*
G01*
X24854Y18425D02*
G03*
X24854Y18425I-49J0D01*
G01*
D32*
X30809Y30215D02*
G03*
X29275Y30215I-767J-443D01*
G01*
X29272Y29321D02*
G03*
X30807Y29321I767J443D01*
G01*
X29077Y28053D02*
G03*
X29077Y26519I443J-767D01*
G01*
X29970Y26516D02*
G03*
X29970Y28051I-443J767D01*
G01*
X26557Y28014D02*
G03*
X26557Y26479I443J-767D01*
G01*
X27451Y26477D02*
G03*
X27451Y28011I-443J767D01*
G01*
X28489Y29764D02*
X28989D01*
X28739Y29514D02*
Y30014D01*
X27425Y43549D02*
X32185D01*
X27425Y49081D02*
X32185D01*
X27425Y43549D02*
Y49081D01*
X32185Y43549D02*
Y49081D01*
X29528Y25733D02*
Y26233D01*
X29278Y25983D02*
X29778D01*
X27008Y25694D02*
Y26194D01*
X26758Y25944D02*
X27258D01*
X17519Y33322D02*
X17659D01*
X25366D02*
X25506D01*
X25356Y30733D02*
Y33332D01*
X17669D02*
X25356D01*
X25506Y33322D02*
Y41156D01*
X17519Y33322D02*
Y41156D01*
X25506D01*
X23771Y30733D02*
X25356D01*
X17669D02*
Y33332D01*
Y30733D02*
X23771D01*
X27641Y40896D02*
X30941D01*
X27641Y38403D02*
X30941D01*
X27641D02*
Y40896D01*
X30941Y38403D02*
Y40896D01*
X31342D02*
X34642D01*
X31342Y38403D02*
X34642D01*
X31342D02*
Y40896D01*
X34642Y38403D02*
Y40896D01*
X24532Y46196D02*
X25232D01*
Y46296D01*
X24532D02*
X25232D01*
X24532Y46196D02*
Y46296D01*
D59*
X13264Y45433D02*
Y46299D01*
X13114Y45433D02*
Y46299D01*
Y45433D02*
X13264D01*
X13114Y46299D02*
X13264D01*
X30551Y25354D02*
X31260D01*
X30551Y21417D02*
X31260D01*
X30551D02*
Y25354D01*
X31260Y21417D02*
Y25354D01*
X21230Y26929D02*
Y27323D01*
X22392Y26929D02*
Y27323D01*
X21230Y26929D02*
X22392D01*
X21230Y27323D02*
X22392D01*
X31319Y42283D02*
X31594D01*
X31319Y41968D02*
X31594D01*
X31319Y42598D02*
X31594D01*
X28366Y41929D02*
X28642D01*
X28366Y41614D02*
X28642D01*
X28366Y42244D02*
X28642D01*
X21969Y19094D02*
Y19803D01*
X18032Y19094D02*
Y19803D01*
X21969D01*
X18032Y19094D02*
X21969D01*
X28858Y19016D02*
Y19724D01*
X24921Y19016D02*
Y19724D01*
X28858D01*
X24921Y19016D02*
X28858D01*
X33386Y30975D02*
Y31950D01*
X32835Y30975D02*
X33386D01*
X32835D02*
Y32000D01*
Y32249D01*
Y32175D02*
X33386D01*
Y31950D02*
Y32249D01*
X33310Y32325D02*
X33386Y32249D01*
X32835D02*
X32910Y32325D01*
X33310D01*
X33385Y32250D01*
X32835D02*
X33385D01*
X32283Y30975D02*
Y31950D01*
X31732Y30975D02*
X32283D01*
X31732D02*
Y32000D01*
Y32249D01*
Y32175D02*
X32283D01*
Y31950D02*
Y32249D01*
X32208Y32325D02*
X32283Y32249D01*
X31732D02*
X31808Y32325D01*
X32208D01*
X32283Y32250D01*
X31733D02*
X32283D01*
X34567Y30975D02*
Y31950D01*
X34016Y30975D02*
X34567D01*
X34016D02*
Y32000D01*
Y32249D01*
Y32175D02*
X34567D01*
Y31950D02*
Y32249D01*
X34491Y32325D02*
X34567Y32249D01*
X34016D02*
X34091Y32325D01*
X34491D01*
X34566Y32250D01*
X34016D02*
X34566D01*
D60*
X33612Y22677D02*
Y28976D01*
X37008D01*
X36811Y22677D02*
X37008D01*
X33612D02*
X36811D01*
X28150Y15679D02*
X34449D01*
Y12283D02*
Y15679D01*
X28150Y12283D02*
Y12480D01*
Y15679D01*
X21575D02*
X27874D01*
Y12283D02*
Y15679D01*
X21575Y12283D02*
Y12480D01*
Y15679D01*
X14921Y15640D02*
X21220D01*
Y12244D02*
Y15640D01*
X14921Y12244D02*
Y12441D01*
Y15640D01*
X33533Y16063D02*
Y22362D01*
X36929D01*
X36732Y16063D02*
X36929D01*
X33533D02*
X36732D01*
X15915Y15984D02*
Y22283D01*
X12520Y15984D02*
X15915D01*
X12520Y22283D02*
X12717D01*
X15915D01*
D61*
X23189Y46535D02*
Y47362D01*
X22598Y45472D02*
X22953D01*
X20433D02*
X20787D01*
X20197Y46535D02*
Y47362D01*
X22961Y42135D02*
Y44715D01*
Y42135D02*
X24361D01*
Y44715D01*
X22961D02*
X24361D01*
D62*
X31708Y33975D02*
X32308D01*
X31708Y32875D02*
Y33975D01*
Y32875D02*
X32308D01*
Y33975D01*
D63*
X12705Y48657D02*
Y48933D01*
X12843D01*
X12889Y48887D01*
Y48795D01*
X12843Y48749D01*
X12705D01*
X12797D02*
X12889Y48657D01*
X12981D02*
X13073D01*
X13027D01*
Y48933D01*
X12981Y48887D01*
X13210D02*
X13256Y48933D01*
X13348D01*
X13394Y48887D01*
Y48841D01*
X13348Y48795D01*
X13394Y48749D01*
Y48703D01*
X13348Y48657D01*
X13256D01*
X13210Y48703D01*
Y48749D01*
X13256Y48795D01*
X13210Y48841D01*
Y48887D01*
X13256Y48795D02*
X13348D01*
X11772Y44528D02*
Y44803D01*
X11909D01*
X11955Y44757D01*
Y44665D01*
X11909Y44619D01*
X11772D01*
X11863D02*
X11955Y44528D01*
X12047D02*
X12139D01*
X12093D01*
Y44803D01*
X12047Y44757D01*
X12277Y44803D02*
X12460D01*
Y44757D01*
X12277Y44573D01*
Y44528D01*
X18032Y27795D02*
Y28071D01*
X18169D01*
X18215Y28025D01*
Y27933D01*
X18169Y27887D01*
X18032D01*
X18123D02*
X18215Y27795D01*
X18307D02*
X18399D01*
X18353D01*
Y28071D01*
X18307Y28025D01*
X18720Y28071D02*
X18537D01*
Y27933D01*
X18628Y27979D01*
X18674D01*
X18720Y27933D01*
Y27841D01*
X18674Y27795D01*
X18583D01*
X18537Y27841D01*
X14055Y46614D02*
Y46890D01*
X14193D01*
X14239Y46844D01*
Y46752D01*
X14193Y46706D01*
X14055D01*
X14147D02*
X14239Y46614D01*
X14331D02*
X14422D01*
X14377D01*
Y46890D01*
X14331Y46844D01*
X14744Y46614D02*
X14560D01*
X14744Y46798D01*
Y46844D01*
X14698Y46890D01*
X14606D01*
X14560Y46844D01*
X13530Y45085D02*
Y45269D01*
X13484Y45315D01*
X13392D01*
X13346Y45269D01*
Y45085D01*
X13392Y45039D01*
X13484D01*
X13438Y45131D02*
X13530Y45039D01*
X13484D02*
X13530Y45085D01*
X13622Y45039D02*
X13714D01*
X13668D01*
Y45315D01*
X13622Y45269D01*
X14213Y26614D02*
X14029D01*
X13937Y26522D01*
X14029Y26430D01*
X14213D01*
Y26339D02*
Y26247D01*
Y26293D01*
X13937D01*
Y26339D01*
Y26247D01*
Y26109D02*
X14213D01*
X13937Y25925D01*
X14213D01*
X13937Y25466D02*
X14029Y25558D01*
X14121D01*
X14213Y25466D01*
X13937Y25329D02*
Y25237D01*
Y25283D01*
X14213D01*
X14167Y25329D01*
X13937Y24915D02*
Y25099D01*
X14121Y24915D01*
X14167D01*
X14213Y24961D01*
Y25053D01*
X14167Y25099D01*
X14075Y24548D02*
Y24364D01*
X13937Y23813D02*
Y23997D01*
X14121Y23813D01*
X14167D01*
X14213Y23859D01*
Y23951D01*
X14167Y23997D01*
X13937Y23584D02*
X14213D01*
X14075Y23721D01*
Y23538D01*
X14213Y23446D02*
X14029D01*
X13937Y23354D01*
X14029Y23262D01*
X14213D01*
X13937Y23170D02*
X14029Y23079D01*
X14121D01*
X14213Y23170D01*
X30978Y28478D02*
X31024Y28524D01*
Y28616D01*
X30978Y28661D01*
X30794D01*
X30748Y28616D01*
Y28524D01*
X30794Y28478D01*
X30748Y28386D02*
Y28294D01*
Y28340D01*
X31024D01*
X30978Y28386D01*
X28621Y28883D02*
X28575Y28929D01*
X28483D01*
X28438Y28883D01*
Y28699D01*
X28483Y28653D01*
X28575D01*
X28621Y28699D01*
X28897Y28653D02*
X28713D01*
X28897Y28837D01*
Y28883D01*
X28851Y28929D01*
X28759D01*
X28713Y28883D01*
X26102Y28844D02*
X26056Y28890D01*
X25964D01*
X25918Y28844D01*
Y28660D01*
X25964Y28614D01*
X26056D01*
X26102Y28660D01*
X26193Y28844D02*
X26239Y28890D01*
X26331D01*
X26377Y28844D01*
Y28798D01*
X26331Y28752D01*
X26285D01*
X26331D01*
X26377Y28706D01*
Y28660D01*
X26331Y28614D01*
X26239D01*
X26193Y28660D01*
X30764Y43220D02*
X30718Y43266D01*
X30626D01*
X30580Y43220D01*
Y43036D01*
X30626Y42990D01*
X30718D01*
X30764Y43036D01*
X30993Y42990D02*
Y43266D01*
X30856Y43128D01*
X31039D01*
X27814Y42860D02*
X27768Y42906D01*
X27676D01*
X27630Y42860D01*
Y42676D01*
X27676Y42630D01*
X27768D01*
X27814Y42676D01*
X28089Y42906D02*
X27997Y42860D01*
X27905Y42768D01*
Y42676D01*
X27951Y42630D01*
X28043D01*
X28089Y42676D01*
Y42722D01*
X28043Y42768D01*
X27905D01*
X9007Y22859D02*
X8915D01*
X8961D01*
Y22630D01*
X8915Y22584D01*
X8869D01*
X8823Y22630D01*
X9099Y22584D02*
X9191D01*
X9145D01*
Y22859D01*
X9099Y22813D01*
X17821Y16142D02*
X17730D01*
X17776D01*
Y15912D01*
X17730Y15866D01*
X17684D01*
X17638Y15912D01*
X18097Y15866D02*
X17913D01*
X18097Y16050D01*
Y16096D01*
X18051Y16142D01*
X17959D01*
X17913Y16096D01*
X24672Y16181D02*
X24580D01*
X24626D01*
Y15951D01*
X24580Y15906D01*
X24534D01*
X24488Y15951D01*
X24764Y16135D02*
X24810Y16181D01*
X24901D01*
X24947Y16135D01*
Y16089D01*
X24901Y16043D01*
X24856D01*
X24901D01*
X24947Y15997D01*
Y15951D01*
X24901Y15906D01*
X24810D01*
X24764Y15951D01*
X31286Y16142D02*
X31194D01*
X31240D01*
Y15912D01*
X31194Y15866D01*
X31148D01*
X31102Y15912D01*
X31516Y15866D02*
Y16142D01*
X31378Y16004D01*
X31562D01*
X32992Y19318D02*
Y19226D01*
Y19272D01*
X33222D01*
X33268Y19226D01*
Y19180D01*
X33222Y19134D01*
X32992Y19593D02*
Y19409D01*
X33130D01*
X33084Y19501D01*
Y19547D01*
X33130Y19593D01*
X33222D01*
X33268Y19547D01*
Y19455D01*
X33222Y19409D01*
X33071Y26010D02*
Y25919D01*
Y25965D01*
X33301D01*
X33346Y25919D01*
Y25873D01*
X33301Y25827D01*
X33071Y26286D02*
X33117Y26194D01*
X33209Y26102D01*
X33301D01*
X33346Y26148D01*
Y26240D01*
X33301Y26286D01*
X33255D01*
X33209Y26240D01*
Y26102D01*
X38609Y39134D02*
X38517D01*
X38563D01*
Y38904D01*
X38517Y38858D01*
X38471D01*
X38425Y38904D01*
X38701Y39134D02*
X38884D01*
Y39088D01*
X38701Y38904D01*
Y38858D01*
X38570Y34252D02*
X38478D01*
X38524D01*
Y34022D01*
X38478Y33976D01*
X38432D01*
X38386Y34022D01*
X38661Y34206D02*
X38707Y34252D01*
X38799D01*
X38845Y34206D01*
Y34160D01*
X38799Y34114D01*
X38845Y34068D01*
Y34022D01*
X38799Y33976D01*
X38707D01*
X38661Y34022D01*
Y34068D01*
X38707Y34114D01*
X38661Y34160D01*
Y34206D01*
X38707Y34114D02*
X38799D01*
X35451Y34370D02*
X35359D01*
X35405D01*
Y34141D01*
X35359Y34095D01*
X35313D01*
X35267Y34141D01*
X35543D02*
X35589Y34095D01*
X35681D01*
X35727Y34141D01*
Y34325D01*
X35681Y34370D01*
X35589D01*
X35543Y34325D01*
Y34279D01*
X35589Y34233D01*
X35727D01*
X14370Y39423D02*
Y39514D01*
Y39469D01*
X14140D01*
X14094Y39514D01*
Y39560D01*
X14140Y39606D01*
X14094Y39331D02*
Y39239D01*
Y39285D01*
X14370D01*
X14324Y39331D01*
Y39101D02*
X14370Y39055D01*
Y38963D01*
X14324Y38918D01*
X14140D01*
X14094Y38963D01*
Y39055D01*
X14140Y39101D01*
X14324D01*
X14291Y34580D02*
Y34672D01*
Y34626D01*
X14062D01*
X14016Y34672D01*
Y34718D01*
X14062Y34764D01*
X14016Y34488D02*
Y34396D01*
Y34442D01*
X14291D01*
X14245Y34488D01*
X14016Y34259D02*
Y34167D01*
Y34213D01*
X14291D01*
X14245Y34259D01*
X10368Y34344D02*
X10276D01*
X10322D01*
Y34115D01*
X10276Y34069D01*
X10230D01*
X10184Y34115D01*
X10460Y34069D02*
X10552D01*
X10506D01*
Y34344D01*
X10460Y34298D01*
X10873Y34069D02*
X10689D01*
X10873Y34252D01*
Y34298D01*
X10827Y34344D01*
X10735D01*
X10689Y34298D01*
X31601Y43386D02*
X31509D01*
X31555D01*
Y43156D01*
X31509Y43110D01*
X31463D01*
X31417Y43156D01*
X31693Y43110D02*
X31785D01*
X31739D01*
Y43386D01*
X31693Y43340D01*
X31922D02*
X31968Y43386D01*
X32060D01*
X32106Y43340D01*
Y43294D01*
X32060Y43248D01*
X32014D01*
X32060D01*
X32106Y43202D01*
Y43156D01*
X32060Y43110D01*
X31968D01*
X31922Y43156D01*
X24318Y45905D02*
X24226D01*
X24272D01*
Y45676D01*
X24226Y45630D01*
X24180D01*
X24134Y45676D01*
X17504Y41442D02*
Y41717D01*
X17596Y41626D01*
X17688Y41717D01*
Y41442D01*
X17779D02*
X17871D01*
X17825D01*
Y41717D01*
X17779Y41671D01*
X22717Y25079D02*
Y25354D01*
X22854D01*
X22900Y25308D01*
Y25216D01*
X22854Y25171D01*
X22717D01*
X22808D02*
X22900Y25079D01*
X22992D02*
X23084D01*
X23038D01*
Y25354D01*
X22992Y25308D01*
X22677Y22795D02*
Y23071D01*
X22815D01*
X22861Y23025D01*
Y22933D01*
X22815Y22887D01*
X22677D01*
X22769D02*
X22861Y22795D01*
X23136D02*
X22953D01*
X23136Y22979D01*
Y23025D01*
X23090Y23071D01*
X22999D01*
X22953Y23025D01*
X25039Y26260D02*
Y26535D01*
X25177D01*
X25223Y26489D01*
Y26398D01*
X25177Y26352D01*
X25039D01*
X25131D02*
X25223Y26260D01*
X25315Y26489D02*
X25361Y26535D01*
X25453D01*
X25499Y26489D01*
Y26444D01*
X25453Y26398D01*
X25407D01*
X25453D01*
X25499Y26352D01*
Y26306D01*
X25453Y26260D01*
X25361D01*
X25315Y26306D01*
X30748Y36969D02*
Y37244D01*
X30886D01*
X30932Y37198D01*
Y37106D01*
X30886Y37060D01*
X30748D01*
X30840D02*
X30932Y36969D01*
X31161D02*
Y37244D01*
X31024Y37106D01*
X31207D01*
X30748Y35866D02*
Y36142D01*
X30886D01*
X30932Y36096D01*
Y36004D01*
X30886Y35958D01*
X30748D01*
X30840D02*
X30932Y35866D01*
X31207Y36142D02*
X31024D01*
Y36004D01*
X31115Y36050D01*
X31161D01*
X31207Y36004D01*
Y35912D01*
X31161Y35866D01*
X31069D01*
X31024Y35912D01*
X30748Y34764D02*
Y35039D01*
X30886D01*
X30932Y34993D01*
Y34902D01*
X30886Y34856D01*
X30748D01*
X30840D02*
X30932Y34764D01*
X31207Y35039D02*
X31115Y34993D01*
X31024Y34902D01*
Y34810D01*
X31069Y34764D01*
X31161D01*
X31207Y34810D01*
Y34856D01*
X31161Y34902D01*
X31024D01*
X30748Y33543D02*
Y33819D01*
X30886D01*
X30932Y33773D01*
Y33681D01*
X30886Y33635D01*
X30748D01*
X30840D02*
X30932Y33543D01*
X31024Y33819D02*
X31207D01*
Y33773D01*
X31024Y33589D01*
Y33543D01*
X30709Y32362D02*
Y32638D01*
X30846D01*
X30892Y32592D01*
Y32500D01*
X30846Y32454D01*
X30709D01*
X30800D02*
X30892Y32362D01*
X30984Y32592D02*
X31030Y32638D01*
X31122D01*
X31168Y32592D01*
Y32546D01*
X31122Y32500D01*
X31168Y32454D01*
Y32408D01*
X31122Y32362D01*
X31030D01*
X30984Y32408D01*
Y32454D01*
X31030Y32500D01*
X30984Y32546D01*
Y32592D01*
X31030Y32500D02*
X31122D01*
X30709Y31181D02*
Y31457D01*
X30846D01*
X30892Y31411D01*
Y31319D01*
X30846Y31273D01*
X30709D01*
X30800D02*
X30892Y31181D01*
X30984Y31227D02*
X31030Y31181D01*
X31122D01*
X31168Y31227D01*
Y31411D01*
X31122Y31457D01*
X31030D01*
X30984Y31411D01*
Y31365D01*
X31030Y31319D01*
X31168D01*
X31568Y37872D02*
Y38147D01*
X31706D01*
X31752Y38102D01*
Y38010D01*
X31706Y37964D01*
X31568D01*
X31660D02*
X31752Y37872D01*
X31844D02*
X31936D01*
X31890D01*
Y38147D01*
X31844Y38102D01*
X32073D02*
X32119Y38147D01*
X32211D01*
X32257Y38102D01*
Y38056D01*
X32211Y38010D01*
X32165D01*
X32211D01*
X32257Y37964D01*
Y37918D01*
X32211Y37872D01*
X32119D01*
X32073Y37918D01*
X22913Y29016D02*
Y29291D01*
X23051D01*
X23097Y29245D01*
Y29153D01*
X23051Y29108D01*
X22913D01*
X23005D02*
X23097Y29016D01*
X23189D02*
X23281D01*
X23235D01*
Y29291D01*
X23189Y29245D01*
X23556Y29016D02*
Y29291D01*
X23418Y29153D01*
X23602D01*
X22441Y23937D02*
Y24213D01*
X22579D01*
X22625Y24167D01*
Y24075D01*
X22579Y24029D01*
X22441D01*
X22533D02*
X22625Y23937D01*
X22716D02*
X22808D01*
X22762D01*
Y24213D01*
X22716Y24167D01*
X23130Y24213D02*
X23038Y24167D01*
X22946Y24075D01*
Y23983D01*
X22992Y23937D01*
X23084D01*
X23130Y23983D01*
Y24029D01*
X23084Y24075D01*
X22946D01*
X14401Y43144D02*
Y43419D01*
X14539D01*
X14585Y43373D01*
Y43282D01*
X14539Y43236D01*
X14401D01*
X14493D02*
X14585Y43144D01*
X14860D02*
X14677D01*
X14860Y43327D01*
Y43373D01*
X14815Y43419D01*
X14723D01*
X14677Y43373D01*
X14952Y43144D02*
X15044D01*
X14998D01*
Y43419D01*
X14952Y43373D01*
X27815Y41415D02*
X27769Y41461D01*
X27677D01*
X27631Y41415D01*
Y41369D01*
X27677Y41323D01*
X27769D01*
X27815Y41277D01*
Y41232D01*
X27769Y41186D01*
X27677D01*
X27631Y41232D01*
X27907Y41186D02*
X27999D01*
X27953D01*
Y41461D01*
X27907Y41415D01*
X31516D02*
X31470Y41461D01*
X31378D01*
X31332Y41415D01*
Y41369D01*
X31378Y41323D01*
X31470D01*
X31516Y41277D01*
Y41232D01*
X31470Y41186D01*
X31378D01*
X31332Y41232D01*
X31791Y41186D02*
X31608D01*
X31791Y41369D01*
Y41415D01*
X31745Y41461D01*
X31654D01*
X31608Y41415D01*
X22087Y41653D02*
Y41424D01*
X22133Y41378D01*
X22224D01*
X22270Y41424D01*
Y41653D01*
X22362Y41378D02*
X22454D01*
X22408D01*
Y41653D01*
X22362Y41608D01*
X17856Y21463D02*
Y21233D01*
X17902Y21188D01*
X17994D01*
X18039Y21233D01*
Y21463D01*
X18131Y21417D02*
X18177Y21463D01*
X18269D01*
X18315Y21417D01*
Y21371D01*
X18269Y21325D01*
X18223D01*
X18269D01*
X18315Y21279D01*
Y21233D01*
X18269Y21188D01*
X18177D01*
X18131Y21233D01*
X24746Y21383D02*
Y21154D01*
X24792Y21108D01*
X24884D01*
X24930Y21154D01*
Y21383D01*
X25159Y21108D02*
Y21383D01*
X25022Y21246D01*
X25205D01*
X28819Y21653D02*
Y21424D01*
X28865Y21378D01*
X28957D01*
X29003Y21424D01*
Y21653D01*
X29278D02*
X29186Y21608D01*
X29094Y21516D01*
Y21424D01*
X29140Y21378D01*
X29232D01*
X29278Y21424D01*
Y21470D01*
X29232Y21516D01*
X29094D01*
X21220Y28504D02*
Y28274D01*
X21266Y28228D01*
X21358D01*
X21404Y28274D01*
Y28504D01*
X21496D02*
X21680D01*
Y28458D01*
X21496Y28274D01*
Y28228D01*
X24525Y47879D02*
Y47696D01*
X24617Y47604D01*
X24708Y47696D01*
Y47879D01*
X24800D02*
Y47604D01*
X24938D01*
X24984Y47650D01*
Y47833D01*
X24938Y47879D01*
X24800D01*
X25076Y47604D02*
X25168D01*
X25122D01*
Y47879D01*
X25076Y47833D01*
X15315Y48976D02*
Y48747D01*
X15361Y48701D01*
X15453D01*
X15499Y48747D01*
Y48976D01*
X15590Y48930D02*
X15636Y48976D01*
X15728D01*
X15774Y48930D01*
Y48884D01*
X15728Y48839D01*
X15774Y48793D01*
Y48747D01*
X15728Y48701D01*
X15636D01*
X15590Y48747D01*
Y48793D01*
X15636Y48839D01*
X15590Y48884D01*
Y48930D01*
X15636Y48839D02*
X15728D01*
X23545Y32072D02*
Y32347D01*
Y32255D01*
X23361Y32072D01*
X23499Y32209D01*
X23361Y32347D01*
X23086Y32072D02*
X23269D01*
Y32347D01*
X23086D01*
X23269Y32209D02*
X23178D01*
X22810Y32072D02*
X22994D01*
Y32347D01*
X22810D01*
X22994Y32209D02*
X22902D01*
X22718Y32347D02*
Y32072D01*
X22581D01*
X22535Y32118D01*
Y32209D01*
X22581Y32255D01*
X22718D01*
X22305Y32072D02*
X22397D01*
X22443Y32118D01*
Y32301D01*
X22397Y32347D01*
X22305D01*
X22259Y32301D01*
Y32118D01*
X22305Y32072D01*
X22167D02*
Y32301D01*
X22121Y32347D01*
X22030D01*
X21984Y32301D01*
Y32072D01*
X21892D02*
X21708D01*
X21800D01*
Y32347D01*
D64*
X31575Y32749D02*
X31621Y32795D01*
X31713D01*
X31758Y32749D01*
Y32703D01*
X31713Y32657D01*
X31667D01*
X31713D01*
X31758Y32612D01*
Y32566D01*
X31713Y32520D01*
X31621D01*
X31575Y32566D01*
X31850Y32474D02*
X32034D01*
X32126Y32749D02*
X32172Y32795D01*
X32264D01*
X32309Y32749D01*
Y32703D01*
X32264Y32657D01*
X32218D01*
X32264D01*
X32309Y32612D01*
Y32566D01*
X32264Y32520D01*
X32172D01*
X32126Y32566D01*
X32401Y32795D02*
Y32612D01*
X32493Y32520D01*
X32585Y32612D01*
Y32795D01*
X34160Y32520D02*
X33976D01*
X34160Y32703D01*
Y32749D01*
X34114Y32795D01*
X34022D01*
X33976Y32749D01*
X34390Y32520D02*
Y32795D01*
X34252Y32657D01*
X34436D01*
X34527Y32795D02*
Y32612D01*
X34619Y32520D01*
X34711Y32612D01*
Y32795D01*
X33976Y34213D02*
Y34488D01*
X34114D01*
X34160Y34442D01*
Y34350D01*
X34114Y34304D01*
X33976D01*
X34068D02*
X34160Y34213D01*
X34252D02*
X34344D01*
X34298D01*
Y34488D01*
X34252Y34442D01*
X34481Y34259D02*
X34527Y34213D01*
X34619D01*
X34665Y34259D01*
Y34442D01*
X34619Y34488D01*
X34527D01*
X34481Y34442D01*
Y34396D01*
X34527Y34350D01*
X34665D01*
X32795Y34409D02*
Y34685D01*
X32933D01*
X32979Y34639D01*
Y34547D01*
X32933Y34501D01*
X32795D01*
X32887D02*
X32979Y34409D01*
X33254D02*
X33071D01*
X33254Y34593D01*
Y34639D01*
X33209Y34685D01*
X33117D01*
X33071Y34639D01*
X33346D02*
X33392Y34685D01*
X33484D01*
X33530Y34639D01*
Y34455D01*
X33484Y34409D01*
X33392D01*
X33346Y34455D01*
Y34639D01*
X31654Y34134D02*
Y34409D01*
X31791D01*
X31837Y34363D01*
Y34272D01*
X31791Y34226D01*
X31654D01*
X31745D02*
X31837Y34134D01*
X32113D02*
X31929D01*
X32113Y34318D01*
Y34363D01*
X32067Y34409D01*
X31975D01*
X31929Y34363D01*
X32388Y34134D02*
X32205D01*
X32388Y34318D01*
Y34363D01*
X32342Y34409D01*
X32250D01*
X32205Y34363D01*
D65*
X33097Y32795D02*
X32913D01*
Y32657D01*
X33005Y32703D01*
X33051D01*
X33097Y32657D01*
Y32566D01*
X33051Y32520D01*
X32959D01*
X32913Y32566D01*
X33189Y32795D02*
Y32612D01*
X33281Y32520D01*
X33373Y32612D01*
Y32795D01*
M02*
