M48
;Layer_Color=6321
;FILE_FORMAT=2:4
INCH,LZ
T6F00S00C0.2000
%
G90
G05
T06
G00X039395Y034051
M15
G01X039312Y034236
G01X039032Y034777
G01X038723Y035301
G01X038385Y035807
G01X038019Y036294
G01X037626Y036759
G01X037208Y037201
G01X036766Y037619
G01X036301Y038012
G01X035814Y038378
G01X035308Y038716
G01X034784Y039025
G01X034243Y039305
G01X033687Y039553
G01X033119Y03977
G01X032539Y039955
G01X031949Y040107
G01X031352Y040226
G01X03075Y040311
G01X030143Y040362
G01X029535Y040379
G01X028926Y040362
G01X02832Y040311
G01X027717Y040226
G01X02712Y040107
G01X02653Y039955
G01X025951Y03977
G01X025382Y039553
G01X024826Y039305
G01X024285Y039025
G01X023761Y038716
G01X023255Y038378
G01X022769Y038012
G01X022304Y037619
G01X021861Y037201
G01X021443Y036759
G01X02105Y036294
G01X020684Y035807
G01X020346Y035301
G01X020037Y034777
G01X019757Y034236
G01X019674Y03405
G01X039395Y034051
M16
G00X041099Y032292
M15
G01X0411Y032292
G01X041282Y032373
G01X041445Y032489
G01X041581Y032635
G01X041686Y032805
G01X041754Y032993
G01X041784Y03319
G01X041775Y03339
G01X041739Y033545
G01X041738Y033546
G01X041659Y033729
G01X041545Y033893
G01X041401Y034031
G01X041232Y034137
G01X041045Y034208
G01X040848Y03424
G01X040648Y034233
G01X040454Y034186
G01X040273Y034101
G01X040113Y033982
G01X039979Y033833
G01X03986Y03362
G01X039859Y033619
G01X039803Y033427
G01X039785Y033228
G01X039808Y03303
G01X039869Y03284
G01X039967Y032666
G01X040098Y032515
G01X040256Y032393
G01X040435Y032305
G01X040628Y032254
G01X040828Y032242
G01X041099Y032292
M16
G00X030105Y018675
M15
G01X030708Y018726
G01X031307Y01881
G01X0319Y018928
G01X032486Y01908
G01X033062Y019263
G01X033627Y019479
G01X034179Y019726
G01X034716Y020004
G01X035237Y020311
G01X03574Y020647
G01X036224Y021011
G01X036686Y021401
G01X037125Y021816
G01X037541Y022256
G01X037931Y022718
G01X038295Y023201
G01X038631Y023704
G01X038938Y024225
G01X039216Y024763
G01X039299Y02495
G01X019701Y02495
G01X019785Y024763
G01X020063Y024225
G01X02037Y023704
G01X020706Y023201
G01X02107Y022718
G01X02146Y022256
G01X021876Y021816
G01X022315Y021401
G01X022777Y021011
G01X023261Y020647
G01X023763Y020311
G01X024284Y020004
G01X024822Y019726
G01X025374Y019479
G01X025939Y019263
G01X026515Y01908
G01X027101Y018928
G01X027694Y01881
G01X028293Y018726
G01X028896Y018675
G01X0295Y018658
G01X030105Y018675
M16
G00X030393Y012403
M15
G01X031233Y012466
G01X032068Y01257
G01X032897Y012716
G01X033718Y012901
G01X034528Y013127
G01X035327Y013392
G01X036112Y013696
G01X036881Y014038
G01X037632Y014417
G01X038364Y014833
G01X039074Y015285
G01X039761Y01577
G01X040424Y016289
G01X04106Y016839
G01X041669Y017421
G01X042249Y018031
G01X042797Y018669
G01X043314Y019333
G01X043798Y020022
G01X044247Y020734
G01X044661Y021466
G01X045038Y022219
G01X045378Y022989
G01X04568Y023774
G01X045943Y024574
G01X046166Y025385
G01X046349Y026207
G01X046492Y027036
G01X046594Y027871
G01X046654Y028711
G01X046674Y029552
G01X046652Y030393
G01X046589Y031233
G01X046485Y032068
G01X04634Y032897
G01X046154Y033718
G01X045928Y034528
G01X045663Y035327
G01X045359Y036112
G01X045017Y036881
G01X044638Y037632
G01X044222Y038364
G01X043771Y039074
G01X043285Y039761
G01X042766Y040424
G01X042216Y04106
G01X041634Y041669
G01X041024Y042249
G01X040386Y042797
G01X039722Y043314
G01X039033Y043798
G01X038321Y044247
G01X037589Y044661
G01X036836Y045038
G01X036066Y045378
G01X035281Y04568
G01X034481Y045943
G01X03367Y046166
G01X032849Y046349
G01X032019Y046492
G01X031184Y046594
G01X030344Y046654
G01X029503Y046674
G01X028662Y046652
G01X027823Y046589
G01X026987Y046485
G01X026158Y04634
G01X025338Y046154
G01X024527Y045928
G01X023728Y045663
G01X022943Y045359
G01X022174Y045017
G01X021423Y044638
G01X020692Y044222
G01X019981Y043771
G01X019294Y043285
G01X018631Y042766
G01X017995Y042216
G01X017386Y041634
G01X016807Y041024
G01X016258Y040386
G01X015741Y039722
G01X015257Y039033
G01X014808Y038321
G01X014394Y037589
G01X014017Y036836
G01X013677Y036066
G01X013375Y035281
G01X013112Y034481
G01X012889Y03367
G01X012706Y032849
G01X012563Y032019
G01X012461Y031184
G01X012401Y030344
G01X012381Y029503
G01X012403Y028662
G01X012466Y027823
G01X01257Y026987
G01X012716Y026158
G01X012901Y025338
G01X013127Y024527
G01X013392Y023728
G01X013696Y022943
G01X014038Y022174
G01X014417Y021423
G01X014833Y020692
G01X015285Y019981
G01X01577Y019294
G01X016289Y018631
G01X016839Y017995
G01X017421Y017386
G01X018031Y016807
G01X018669Y016258
G01X019333Y015741
G01X020022Y015257
G01X020734Y014808
G01X021466Y014394
G01X022219Y014017
G01X022989Y013677
G01X023774Y013375
G01X024574Y013112
G01X025385Y012889
G01X026207Y012706
G01X027036Y012563
G01X027871Y012461
G01X028711Y012401
G01X029552Y012381
G01X030393Y012403
M16
M17
M30
