M48
;Layer_Color=6321
;FILE_FORMAT=2:4
INCH
;TYPE=PLATED
T1F00S00C0.0122
T2F00S00C0.0162
T3F00S00C0.0197
T4F00S00C0.0280
T5F00S00C0.0300
T6F00S00C0.0315
T7F00S00C0.0320
T8F00S00C0.0394
T9F00S00C0.0800
T10F00S00C0.1024
T11F00S00C0.1378
T12F00S00C0.1772
;TYPE=NON_PLATED
%
T01
X018363Y047203
X018307Y047539
X018701
X018757Y047203
X019150
X019154Y047539
X019150Y047990
X018757
Y048384
X019150
X018363
Y047990
T02
X033683Y030541
X034393Y030851
X015459Y041730
X014596Y042743
X014727Y043092
X015361Y044029
X017003Y043191
X017916Y042893
X018476Y041833
X019686Y042738
X020337Y045423
X021192Y045785
Y046636
X021818Y045537
X022426Y045293
X025450Y045234
X025226Y046110
X019180Y046630
X018090Y046360
X018186Y045923
X018534Y045423
X018452Y044852
X016349Y045888
X017072Y046642
X032559Y034528
X033150Y035079
X034213Y035472
X034843Y035728
X035728Y034843
X035630Y034252
X035853Y033511
X035217Y033614
X036500Y033768
X036909Y033957
X037053Y034511
X036730Y036630
X036772Y037894
X041043Y037205
X041083Y036713
Y035161
X041003Y034801
X039623Y034051
X038315Y033249
X034413Y032711
X034280Y034270
X025150Y048570
X024296Y047723
X023756Y047343
X022113Y047626
X021030Y048177
X020440Y047921
X018816Y049023
X016926Y048807
X017116Y048199
X017062Y047793
X016621Y047752
X015994Y048002
X016997Y047153
X015256Y047933
T03
X026926Y047498
Y048285
X028501Y048275
Y047498
T04
X032913Y031024
X038465Y029488
X039055Y030079
X039646Y029488
X030000Y030984
X028688Y043905
Y045086
X027507
X028097Y044496
X026916
X026326Y045086
Y043905
X027507
X032835Y033622
Y032598
X040472Y032559
Y033701
T05
X041831Y032382
Y036382
X041043Y038028
Y042028
X040945Y043343
Y047343
T06
X010949Y039895
X011933
Y044423
X010949
X029002Y043400
X029986
X030010Y045919
X029026
Y040407
X030010
X011933Y048557
X010949
T07
X011016Y037500
X012016
X011941Y042061
X010941
Y046588
X011941
T08
X018077Y038508
X019077
X042315Y037894
X043315
X043315Y040256
X042315
X027690Y049388
X026690
X025690
X023312Y049368
X022312
X021312
T09
X032983Y044882
X038583
T10
X032480Y023917
Y025886
X031594Y028543
X029626
X026969
X025000
X022441
X020472
X017913Y025787
Y023819
T11
X037795Y026378
X012598
X037795Y051968
X012598
T12
X016732Y029528
X013780
M30
