M48
;Layer_Color=9474304
;FILE_FORMAT=2:5
INCH,LZ
;TYPE=PLATED
T1F00S00C0.01220
T2F00S00C0.02800
T3F00S00C0.03000
T4F00S00C0.03150
T5F00S00C0.03346
T6F00S00C0.03543
T7F00S00C0.04000
T8F00S00C0.04724
T9F00S00C0.05906
T10F00S00C0.06500
T11F00S00C0.11024
T12F00S00C0.12598
%
T01
X0323228Y0206299
X0347244Y0201575
X0374016Y0202756
X0337402Y0243701
X0294094Y0417717
X0300394Y042874
X029786Y0432062
X0288976Y0431496
X0272047Y0417717
X0268898Y0401575
X0251181Y0419685
X0350787Y0430315
X0391732
X0397638Y0431496
X0398031Y0390551
X0437402Y0388189
X0458873Y0388976
X0437008Y041811
X0417323Y0357874
X0419685Y0327165
X0438189Y033937
T02
X02421Y01349
X0400659Y01369
X0439Y0278
X04299Y02955
X03676Y03024
X03194Y02982
X03156Y02583
X03073Y02912
X02938Y02948
X0279508Y02868
X02397Y0309
X02231Y03058
X02171Y0303864
X02154Y02887
X0209Y02862
X01853Y03077
X016475Y03073
X0177Y02505
X0247244Y0248819
X01273Y02505
X01313Y02737
X01118Y02941
X01552Y03335
X01394Y04078
X01564Y038805
X01969Y03861
X01987Y03788
X0217067Y03927
X02112Y04283
X02303Y04242
X025715Y0418
X02573Y04584
X02882Y04573
X02817Y0382
X0256964Y03709
X0248814Y036653
X02532Y03619
X02594Y03523
X02456Y0345
X0235Y03294
X02149Y03478
X01846Y03459
X0174055Y03391
X01843Y04159
X01583Y04325
X01614Y04637
X03096Y03912
X02835Y03439
X02895Y0324
X03355Y03169
X03345Y03543
X0337059Y036115
X03708Y03682
X03616Y041966
X0364197Y0425591
X03958Y04085
X04255Y0353701
X04093Y03227
X03983Y0313701
X04613Y04372
X04803Y04601
T03
X0190551Y0235433
X0212992
X0223228Y0250394
X0211024Y0260236
X025748Y0239764
X0270472Y0238976
X028622Y0238583
X0293307Y0251181
X0273228Y0201181
X0247244Y0208268
X0140945Y0360236
T04
X0324803Y0304331
X0305118Y0304331
X0300787Y0374803
X0291732
Y0393701
X0300787
X0272047Y0393701
Y0374803
X0320473
X0329921Y037441
X0330315Y0393701
X0320472
X035Y0393701
X0349606Y037441
T05
X0375984Y0210984
Y0240984
X0393661Y0240158
Y0249606
X0423661
Y0240158
X0174055Y0287008
X0174055Y0303937
X0144055
X0144055Y0287008
X0235039Y0317677
Y0347677
X0233819Y0382283
X0263819
X0302362Y0358307
Y0328307
X0205118Y0451929
X0322441Y0358701
X0341339Y0352795
Y0322795
X0322441Y0328701
X0205118Y0481929
T06
X0334488Y0110236
X0344488
X0354488
X0364488
X0374488
X0384488
X0394488
X0404488
X0414488
X0424488
X0434488
X0444488
X0454488
X0464488
X0474488
X0474331Y0194882
X0475118Y0215748
X0485118
X0483622Y0296299
X0473622
Y0306299
X0483622
X0455906Y0304016
Y0294016
Y0284016
Y0274016
X0454646Y0250394
X0444646
X0434646
X0435118Y0215748
X0425118
X0415118
X0405118
X0395118
X0394331Y0194882
X0404331
X0414331
X0424331
X0434331
X0444331
X0454331
X0464331
X0465118Y0215748
X0455118
X0445118
X0384331Y0194882
X0374331
X0364331
X0354331
X0344331
X0334331
X0375591Y0273228
Y0283228
Y0293228
Y0303228
X0211575Y0191339
Y0181339
X0201575
Y0191339
X0191575
Y0181339
X0181575
Y0191339
X0171575
Y0181339
X0161575
Y0191339
X0151575
Y0181339
X0141575
Y0191339
X0131575
Y0181339
X0121575
Y0191339
X0111575
Y0181339
X0108661Y0444724
Y0454724
Y0464724
X013252Y0448425
Y0438425
X014252
Y0448425
X015252
Y0438425
X014622Y0429921
X013622
X026378Y0438032
X027378
X028378
X029378
X030378
Y0448032
X029378
X028378
X027378
X026378
X0275512Y0425591
X0285512
X0295512
X0305512
X0315512
X0325512
X0335512
X033378Y0438032
X034378
X035378
X036378
X037378
X038378
X039378
X040378
X041378
X042378
X043378
X044378
X045378
Y0448032
X044378
X043378
X042378
X041378
X040378
X039378
X038378
X037378
X036378
X035378
X034378
X033378
X032378
Y0438032
X031378
Y0448032
X0375591Y0413228
Y0403228
Y0393228
Y0383228
Y0373228
Y0363228
Y0353228
Y0343228
Y0333228
Y0323228
Y0313228
X0455906Y0314016
Y0324016
Y0334016
Y0344016
Y0354016
Y0364016
Y0374016
Y0384016
Y0394016
Y0404016
Y0414016
X0473622Y0412756
Y0402756
Y0392756
X0483622
Y0402756
Y0412756
Y0363543
Y0353543
Y0343543
X0473622
Y0353543
Y0363543
Y0316299
X0483622
X045378Y047126
Y048126
X044378
Y047126
X043378
Y048126
X042378
Y047126
X041378
Y048126
X040378
Y047126
X039378
Y048126
X038378
Y047126
X037378
Y048126
X036378
Y047126
X035378
Y048126
X034378
Y047126
X033378
Y048126
X032378
Y047126
X031378
Y048126
X030378
Y047126
X029378
Y048126
X028378
Y047126
X027378
Y048126
X026378
Y047126
X0108661Y0474724
T07
X0334488Y0123071
X0344488
X0354488
X0364488
X0374488
X0384488
X0394488
X0404488
X0414488
X0424488
X0434488
X0444488
X0454488
X0464488
X0334888Y0142971
Y0152971
X0324888
Y0142971
X0474488Y0123071
Y0183071
X0464488
X0454488
X0444488
X0434488
X0424488
X0414488
X0404488
X0394488
X0384488
X0374488
X0364488
X0354488
X0344488
X0334488
X0334888Y0162971
X0324888
X0329106Y0217874
X0339106
X0349106
X0319106
X0349606Y0307874
X0359606
X0385827Y0303701
Y0293701
Y0283701
Y0273701
X0445827
Y0283701
Y0293701
Y0303701
X0309106Y0217874
X0299106
X0279106
X0269106
X0259106
X0249106
X0239106
X0229106
X0219106
X0209106
X0213106Y0407874
X0223106
X0233106
X0243106
X0253106
X0263106
X0279106
X0289106
X0299106
X0309106
X0203106
X0193106
X0183106
X0173106
X0319106
X0329106
X0339106
X0349106
X0385827Y0403701
Y0413701
Y0393701
Y0383701
Y0373701
Y0363701
Y0353701
Y0343701
Y0333701
Y0323701
Y0313701
X0359606Y0317874
Y0327874
X0349606
Y0317874
X0445827Y0313701
Y0323701
Y0333701
Y0343701
Y0353701
Y0363701
Y0373701
Y0383701
Y0393701
Y0403701
Y0413701
X0425727Y0413301
Y0423301
X0415727
Y0413301
X0405727
Y0423301
T08
X0168504Y0443583
X0181496
X0194488Y0443583
X0215748Y0442402
X0228346Y0442795
Y0483976
X0215748Y0483583
X0194488Y0484764
X0181496
X0168504
T09
X0108661Y0113386
X0128346
X014685Y011378
Y0155118
X012874
X0109055
X0166536
X0186614Y0155512
X0206299
X0235039
X0254724
X0286614Y0155118
X0306299
X0307087Y0114173
X0287402
X0254724Y0113779
X0235039
X0206299Y011378
X0186614
X0166535
X0235039Y0192126
X0254724
X0477165Y043189
Y0451575
X0147638Y0476378
X0127953
T10
X0324488Y0123071
X0484488
Y0183071
X0445827Y0263701
X0385827
X0324488Y0183071
X0385827Y0423701
X0445827
T11
X0472441Y0279528
X0244094
X0472441Y0476378
X0244094
T12
X0359106Y0237874
X0154106Y0217874
X0159106Y0407874
X0359106Y0347874
M30
