G04 Layer_Color=16711935*
%FSLAX25Y25*%
%MOIN*%
G70*
G01*
G75*
%ADD58C,0.06706*%
%ADD59R,0.06706X0.06706*%
%ADD60C,0.02375*%
%ADD61C,0.02178*%
%ADD62C,0.02414*%
%ADD63C,0.02800*%
%ADD64C,0.06800*%
%ADD65C,0.08674*%
%ADD66R,0.08674X0.08674*%
%ADD67C,0.13398*%
%ADD68P,0.08621X8X112.5*%
%ADD69C,0.08200*%
%ADD70R,0.08674X0.08674*%
%ADD71C,0.06312*%
%ADD72R,0.06706X0.06706*%
%ADD73C,0.06115*%
%ADD74R,0.06115X0.06115*%
%ADD75C,0.07300*%
%ADD76P,0.08202X8X22.5*%
%ADD77C,0.07800*%
%ADD78P,0.08202X8X112.5*%
%ADD79C,0.24422*%
%ADD80C,0.05800*%
%ADD81O,0.03950X0.06509*%
D58*
X108661Y474724D02*
D03*
Y464724D02*
D03*
Y454724D02*
D03*
X455906Y274016D02*
D03*
Y284016D02*
D03*
Y294016D02*
D03*
Y304016D02*
D03*
Y314016D02*
D03*
Y324016D02*
D03*
Y334016D02*
D03*
Y344016D02*
D03*
Y354016D02*
D03*
Y364016D02*
D03*
Y374016D02*
D03*
Y384016D02*
D03*
Y394016D02*
D03*
Y404016D02*
D03*
X444646Y250394D02*
D03*
X454646D02*
D03*
X334488Y110236D02*
D03*
X344488D02*
D03*
X354488D02*
D03*
X364488D02*
D03*
X374488D02*
D03*
X384488D02*
D03*
X394488D02*
D03*
X404488D02*
D03*
X414488D02*
D03*
X424488D02*
D03*
X434488D02*
D03*
X444488D02*
D03*
X454488D02*
D03*
X464488D02*
D03*
X132520Y448425D02*
D03*
X142520Y438425D02*
D03*
Y448425D02*
D03*
X152520Y438425D02*
D03*
Y448425D02*
D03*
X473622Y343543D02*
D03*
X483622Y353543D02*
D03*
X473622D02*
D03*
X483622Y363543D02*
D03*
X473622D02*
D03*
Y392756D02*
D03*
X483622Y402756D02*
D03*
X473622D02*
D03*
X483622Y412756D02*
D03*
X473622D02*
D03*
Y296299D02*
D03*
X483622Y306299D02*
D03*
X473622D02*
D03*
X483622Y316299D02*
D03*
X473622D02*
D03*
X453780Y448032D02*
D03*
Y438032D02*
D03*
X443780Y448032D02*
D03*
Y438032D02*
D03*
X433780Y448032D02*
D03*
Y438032D02*
D03*
X423780Y448032D02*
D03*
Y438032D02*
D03*
X413780Y448032D02*
D03*
Y438032D02*
D03*
X403780Y448032D02*
D03*
Y438032D02*
D03*
X393780Y448032D02*
D03*
Y438032D02*
D03*
X383780Y448032D02*
D03*
Y438032D02*
D03*
X373780Y448032D02*
D03*
Y438032D02*
D03*
X363780Y448032D02*
D03*
Y438032D02*
D03*
X353780Y448032D02*
D03*
Y438032D02*
D03*
X343780Y448032D02*
D03*
Y438032D02*
D03*
X333780Y448032D02*
D03*
Y438032D02*
D03*
X323780Y448032D02*
D03*
Y438032D02*
D03*
X313780Y448032D02*
D03*
Y438032D02*
D03*
X303780Y448032D02*
D03*
Y438032D02*
D03*
X293780Y448032D02*
D03*
Y438032D02*
D03*
X283780Y448032D02*
D03*
Y438032D02*
D03*
X273780Y448032D02*
D03*
Y438032D02*
D03*
X263780Y448032D02*
D03*
X453780Y481260D02*
D03*
Y471260D02*
D03*
X443780Y481260D02*
D03*
Y471260D02*
D03*
X433780Y481260D02*
D03*
Y471260D02*
D03*
X423780Y481260D02*
D03*
Y471260D02*
D03*
X413780Y481260D02*
D03*
Y471260D02*
D03*
X403780Y481260D02*
D03*
Y471260D02*
D03*
X393780Y481260D02*
D03*
Y471260D02*
D03*
X383780Y481260D02*
D03*
Y471260D02*
D03*
X373780Y481260D02*
D03*
Y471260D02*
D03*
X363780Y481260D02*
D03*
Y471260D02*
D03*
X353780Y481260D02*
D03*
Y471260D02*
D03*
X343780Y481260D02*
D03*
Y471260D02*
D03*
X333780Y481260D02*
D03*
Y471260D02*
D03*
X323780Y481260D02*
D03*
Y471260D02*
D03*
X313780Y481260D02*
D03*
Y471260D02*
D03*
X303780Y481260D02*
D03*
Y471260D02*
D03*
X293780Y481260D02*
D03*
Y471260D02*
D03*
X283780Y481260D02*
D03*
Y471260D02*
D03*
X273780Y481260D02*
D03*
Y471260D02*
D03*
X263780Y481260D02*
D03*
X474331Y194882D02*
D03*
X464331D02*
D03*
X454331D02*
D03*
X444331D02*
D03*
X434331D02*
D03*
X424331D02*
D03*
X414331D02*
D03*
X404331D02*
D03*
X394331D02*
D03*
X384331D02*
D03*
X374331D02*
D03*
X364331D02*
D03*
X354331D02*
D03*
X344331D02*
D03*
X375591Y413228D02*
D03*
Y403228D02*
D03*
Y393228D02*
D03*
Y383228D02*
D03*
Y373228D02*
D03*
Y363228D02*
D03*
Y353228D02*
D03*
Y343228D02*
D03*
Y333228D02*
D03*
Y323228D02*
D03*
Y313228D02*
D03*
Y303228D02*
D03*
Y293228D02*
D03*
Y283228D02*
D03*
X465118Y215748D02*
D03*
X395118D02*
D03*
X405118D02*
D03*
X415118D02*
D03*
X425118D02*
D03*
X435118D02*
D03*
X445118D02*
D03*
X455118D02*
D03*
X475118D02*
D03*
X211575Y191339D02*
D03*
Y181339D02*
D03*
X201575Y191339D02*
D03*
Y181339D02*
D03*
X191575Y191339D02*
D03*
Y181339D02*
D03*
X181575Y191339D02*
D03*
Y181339D02*
D03*
X171575Y191339D02*
D03*
Y181339D02*
D03*
X161575Y191339D02*
D03*
Y181339D02*
D03*
X151575Y191339D02*
D03*
Y181339D02*
D03*
X141575Y191339D02*
D03*
Y181339D02*
D03*
X131575Y191339D02*
D03*
Y181339D02*
D03*
X121575Y191339D02*
D03*
Y181339D02*
D03*
X111575Y191339D02*
D03*
X275512Y425591D02*
D03*
X285512D02*
D03*
X295512D02*
D03*
X305512D02*
D03*
X325512D02*
D03*
X315512D02*
D03*
X146220Y429921D02*
D03*
D59*
X108661Y444724D02*
D03*
X455906Y414016D02*
D03*
X483622Y343543D02*
D03*
Y392756D02*
D03*
Y296299D02*
D03*
X375591Y273228D02*
D03*
D60*
X337402Y243701D02*
D03*
X347244Y201575D02*
D03*
X374016Y202756D02*
D03*
X458873Y388976D02*
D03*
X437402Y388189D02*
D03*
X397638Y431496D02*
D03*
D61*
X323228Y206299D02*
D03*
X297860Y432062D02*
D03*
X288976Y431496D02*
D03*
D62*
X437008Y418110D02*
D03*
D63*
X251181Y419685D02*
D03*
X268898Y401575D02*
D03*
X272047Y417717D02*
D03*
X294094D02*
D03*
X300394Y428740D02*
D03*
X350787Y430315D02*
D03*
X391732D02*
D03*
X398031Y390551D02*
D03*
X419685Y327165D02*
D03*
X438189Y339370D02*
D03*
X417323Y357874D02*
D03*
D64*
X212992Y235433D02*
D03*
X190551D02*
D03*
X286220Y238583D02*
D03*
X270472Y238976D02*
D03*
X211024Y260236D02*
D03*
X273228Y201181D02*
D03*
X247244Y208268D02*
D03*
X257480Y239764D02*
D03*
X293307Y251181D02*
D03*
X223228Y250394D02*
D03*
X140945Y360236D02*
D03*
D65*
X206299Y155512D02*
D03*
X194488Y443583D02*
D03*
X181496Y443583D02*
D03*
X166535Y113780D02*
D03*
X128740Y155118D02*
D03*
X166536D02*
D03*
X128346Y113386D02*
D03*
X286614Y155118D02*
D03*
X477165Y431890D02*
D03*
X287402Y114173D02*
D03*
X147638Y476378D02*
D03*
X254724Y192126D02*
D03*
Y113779D02*
D03*
X206299Y113780D02*
D03*
X254724Y155512D02*
D03*
X228346Y483976D02*
D03*
X215748Y483583D02*
D03*
X168504Y443583D02*
D03*
D66*
X186614Y155512D02*
D03*
X146850Y113780D02*
D03*
X109055Y155118D02*
D03*
X146850D02*
D03*
X108661Y113386D02*
D03*
X306299Y155118D02*
D03*
X307087Y114173D02*
D03*
X127953Y476378D02*
D03*
X235039Y192126D02*
D03*
X235039Y113779D02*
D03*
X186614Y113780D02*
D03*
X235039Y155512D02*
D03*
D67*
X154106Y217874D02*
D03*
X159106Y407874D02*
D03*
X359106Y347874D02*
D03*
Y237874D02*
D03*
D68*
X349606Y327874D02*
D03*
X359606D02*
D03*
X349606Y317874D02*
D03*
X359606D02*
D03*
X349606Y307874D02*
D03*
X359606D02*
D03*
D69*
X209106Y217874D02*
D03*
X219106D02*
D03*
X279106D02*
D03*
X269106D02*
D03*
X259106D02*
D03*
X249106D02*
D03*
X239106D02*
D03*
X229106D02*
D03*
X299106D02*
D03*
X349106D02*
D03*
X339106D02*
D03*
X329106D02*
D03*
X319106D02*
D03*
X309106D02*
D03*
X173106Y407874D02*
D03*
X183106D02*
D03*
X193106D02*
D03*
X263106D02*
D03*
X253106D02*
D03*
X243106D02*
D03*
X233106D02*
D03*
X223106D02*
D03*
X213106D02*
D03*
X203106D02*
D03*
X279106D02*
D03*
X349106D02*
D03*
X339106D02*
D03*
X329106D02*
D03*
X319106D02*
D03*
X309106D02*
D03*
X299106D02*
D03*
X289106D02*
D03*
D70*
X194488Y484764D02*
D03*
X181496D02*
D03*
X477165Y451575D02*
D03*
X228346Y442795D02*
D03*
X215748Y442402D02*
D03*
X168504Y484764D02*
D03*
D71*
X423661Y249606D02*
D03*
X393661D02*
D03*
Y240158D02*
D03*
X423661D02*
D03*
X235039Y347677D02*
D03*
Y317677D02*
D03*
X233819Y382283D02*
D03*
X263819D02*
D03*
X322441Y358701D02*
D03*
Y328701D02*
D03*
X341339Y352795D02*
D03*
Y322795D02*
D03*
X144055Y287008D02*
D03*
X174055D02*
D03*
X144055Y303937D02*
D03*
X174055D02*
D03*
X302362Y358307D02*
D03*
Y328307D02*
D03*
X205118Y481929D02*
D03*
Y451929D02*
D03*
X375984Y240984D02*
D03*
Y210984D02*
D03*
D72*
X434646Y250394D02*
D03*
X474488Y110236D02*
D03*
X132520Y438425D02*
D03*
X263780Y438032D02*
D03*
Y471260D02*
D03*
X334331Y194882D02*
D03*
X485118Y215748D02*
D03*
X111575Y181339D02*
D03*
X335512Y425591D02*
D03*
X136220Y429921D02*
D03*
D73*
X272047Y393701D02*
D03*
X300787Y393701D02*
D03*
X320473Y374803D02*
D03*
X305118Y304331D02*
D03*
X330315Y393701D02*
D03*
X349606Y374410D02*
D03*
X291732Y374803D02*
D03*
D74*
Y393701D02*
D03*
X320472D02*
D03*
X300787Y374803D02*
D03*
X324803Y304331D02*
D03*
X350000Y393701D02*
D03*
X329921Y374410D02*
D03*
X272047Y374803D02*
D03*
D75*
X445827Y423701D02*
D03*
X385827D02*
D03*
Y263701D02*
D03*
X445827D02*
D03*
X324488Y183071D02*
D03*
Y123071D02*
D03*
X484488D02*
D03*
Y183071D02*
D03*
D76*
X425727Y423301D02*
D03*
Y413301D02*
D03*
X415727Y423301D02*
D03*
Y413301D02*
D03*
X405727Y423301D02*
D03*
Y413301D02*
D03*
D77*
X385827Y363701D02*
D03*
Y373701D02*
D03*
Y413701D02*
D03*
Y403701D02*
D03*
Y393701D02*
D03*
Y383701D02*
D03*
Y273701D02*
D03*
Y283701D02*
D03*
Y293701D02*
D03*
Y353701D02*
D03*
Y343701D02*
D03*
Y333701D02*
D03*
Y323701D02*
D03*
Y313701D02*
D03*
Y303701D02*
D03*
X445827Y363701D02*
D03*
Y373701D02*
D03*
Y413701D02*
D03*
Y403701D02*
D03*
Y393701D02*
D03*
Y383701D02*
D03*
Y273701D02*
D03*
Y283701D02*
D03*
Y293701D02*
D03*
Y353701D02*
D03*
Y343701D02*
D03*
Y333701D02*
D03*
Y323701D02*
D03*
Y313701D02*
D03*
Y303701D02*
D03*
X384488Y123071D02*
D03*
X374488D02*
D03*
X334488D02*
D03*
X344488D02*
D03*
X354488D02*
D03*
X364488D02*
D03*
X474488D02*
D03*
X464488D02*
D03*
X454488D02*
D03*
X394488D02*
D03*
X404488D02*
D03*
X414488D02*
D03*
X424488D02*
D03*
X434488D02*
D03*
X444488D02*
D03*
X384488Y183071D02*
D03*
X374488D02*
D03*
X334488D02*
D03*
X344488D02*
D03*
X354488D02*
D03*
X364488D02*
D03*
X474488D02*
D03*
X464488D02*
D03*
X454488D02*
D03*
X394488D02*
D03*
X404488D02*
D03*
X414488D02*
D03*
X424488D02*
D03*
X434488D02*
D03*
X444488D02*
D03*
D78*
X324888Y162971D02*
D03*
X334888D02*
D03*
X324888Y152971D02*
D03*
X334888D02*
D03*
X324888Y142971D02*
D03*
X334888D02*
D03*
D79*
X244094Y279528D02*
D03*
X472441D02*
D03*
X244094Y476378D02*
D03*
X472441D02*
D03*
D80*
X370800Y368200D02*
D03*
X215400Y288700D02*
D03*
X209000Y286200D02*
D03*
X217100Y303864D02*
D03*
X223100Y305800D02*
D03*
X185300Y307700D02*
D03*
X247244Y248819D02*
D03*
X139400Y407800D02*
D03*
X161400Y463700D02*
D03*
X198700Y378800D02*
D03*
X367600Y302400D02*
D03*
X395800Y408500D02*
D03*
X279508Y286800D02*
D03*
X259400Y352300D02*
D03*
X364197Y425591D02*
D03*
X334500Y354300D02*
D03*
X253200Y361900D02*
D03*
X245600Y345000D02*
D03*
X158300Y432500D02*
D03*
X217067Y392700D02*
D03*
X196900Y386100D02*
D03*
X307300Y291200D02*
D03*
X257300Y458400D02*
D03*
X335500Y316900D02*
D03*
X289500Y324000D02*
D03*
X131300Y273700D02*
D03*
X315600Y258300D02*
D03*
X177000Y250500D02*
D03*
X127300D02*
D03*
X111800Y294100D02*
D03*
X398300Y313701D02*
D03*
X400659Y136900D02*
D03*
X184300Y415900D02*
D03*
X309600Y391200D02*
D03*
X319400Y298200D02*
D03*
X439000Y278000D02*
D03*
X480300Y460100D02*
D03*
X425500Y353701D02*
D03*
X242100Y134900D02*
D03*
X256964Y370900D02*
D03*
X184600Y345900D02*
D03*
X461300Y437200D02*
D03*
X211200Y428300D02*
D03*
X230300Y424200D02*
D03*
X288200Y457300D02*
D03*
X235000Y329400D02*
D03*
X248814Y366530D02*
D03*
X361600Y419660D02*
D03*
X337059Y361150D02*
D03*
X281700Y382000D02*
D03*
X409300Y322700D02*
D03*
X214900Y347800D02*
D03*
X257150Y418000D02*
D03*
X293800Y294800D02*
D03*
X239700Y309000D02*
D03*
X164750Y307300D02*
D03*
X156400Y388050D02*
D03*
X429900Y295500D02*
D03*
X283500Y343900D02*
D03*
X155200Y333500D02*
D03*
X174055Y339100D02*
D03*
D81*
X222854Y318799D02*
D03*
X217854D02*
D03*
X212854D02*
D03*
X207854D02*
D03*
X222854Y340256D02*
D03*
X217854D02*
D03*
X212854D02*
D03*
X207854D02*
D03*
X222067Y360925D02*
D03*
X217067D02*
D03*
X212067D02*
D03*
X207067D02*
D03*
X222067Y382382D02*
D03*
X217067D02*
D03*
X212067D02*
D03*
X207067D02*
D03*
X294508Y279035D02*
D03*
X289508D02*
D03*
X284508D02*
D03*
X279508D02*
D03*
X294508Y300492D02*
D03*
X289508D02*
D03*
X284508D02*
D03*
X279508D02*
D03*
X279154Y324311D02*
D03*
X274154D02*
D03*
X269154D02*
D03*
X264154D02*
D03*
X279154Y345768D02*
D03*
X274154D02*
D03*
X269154D02*
D03*
X264154D02*
D03*
X165374Y318799D02*
D03*
X160374D02*
D03*
X155374D02*
D03*
X150374D02*
D03*
X165374Y340256D02*
D03*
X160374D02*
D03*
X155374D02*
D03*
X150374D02*
D03*
X224036Y274705D02*
D03*
X219036D02*
D03*
X214036D02*
D03*
X209036D02*
D03*
X224036Y296161D02*
D03*
X219036D02*
D03*
X214036D02*
D03*
X209036D02*
D03*
X165768Y360532D02*
D03*
X160768D02*
D03*
X155768D02*
D03*
X150768D02*
D03*
X165768Y381988D02*
D03*
X160768D02*
D03*
X155768D02*
D03*
X150768D02*
D03*
M02*
