G04 Layer_Color=25308*
%FSLAX24Y24*%
%MOIN*%
G70*
G01*
G75*
%ADD15R,0.0709X0.0709*%
%ADD16C,0.0709*%
%ADD18R,0.0200X0.0500*%
%ADD19R,0.0453X0.0236*%
%ADD20R,0.0315X0.0354*%
%ADD21R,0.0945X0.1299*%
%ADD22R,0.0906X0.0906*%
%ADD23O,0.0827X0.0177*%
%ADD24R,0.0787X0.0984*%
%ADD25R,0.0413X0.0945*%
%ADD26R,0.4193X0.3504*%
%ADD27R,0.0394X0.0394*%
%ADD28R,0.0433X0.1024*%
%ADD29R,0.0433X0.0669*%
%ADD30R,0.0240X0.0870*%
%ADD31R,0.0087X0.0394*%
%ADD32R,0.0394X0.0087*%
%ADD33R,0.0315X0.0472*%
%ADD34R,0.0315X0.0354*%
%ADD35R,0.0236X0.0197*%
%ADD36R,0.0500X0.0220*%
%ADD37R,0.0220X0.0500*%
D15*
X21709Y14256D02*
D03*
D16*
X18709D02*
D03*
D18*
X38961Y19520D02*
D03*
X38591Y18520D02*
D03*
X38211Y18520D02*
D03*
X38961D02*
D03*
X38211Y19520D02*
D03*
D19*
X37431Y21528D02*
D03*
Y22276D02*
D03*
X38317Y21902D02*
D03*
D20*
X33130Y21476D02*
D03*
X32756Y20650D02*
D03*
X33504D02*
D03*
D21*
X16581Y15736D02*
D03*
X13844D02*
D03*
D22*
X19626Y16154D02*
D03*
X21398D02*
D03*
D23*
X23468Y16325D02*
D03*
Y16581D02*
D03*
Y16837D02*
D03*
Y17093D02*
D03*
Y17348D02*
D03*
Y17604D02*
D03*
Y17860D02*
D03*
Y18116D02*
D03*
X26185Y16325D02*
D03*
Y16581D02*
D03*
Y16837D02*
D03*
Y17093D02*
D03*
Y17348D02*
D03*
Y17604D02*
D03*
Y17860D02*
D03*
Y18116D02*
D03*
D24*
X15549Y17406D02*
D03*
X16947D02*
D03*
D25*
X23059Y21268D02*
D03*
X21059D02*
D03*
D26*
X22059Y25343D02*
D03*
D27*
X19957Y17382D02*
D03*
X20744D02*
D03*
D28*
X30441Y27311D02*
D03*
X29378D02*
D03*
D29*
X35335Y26854D02*
D03*
X34272D02*
D03*
D30*
X26522Y23462D02*
D03*
X26022D02*
D03*
X25522D02*
D03*
X25022D02*
D03*
Y25522D02*
D03*
X25522D02*
D03*
X26022D02*
D03*
X26522D02*
D03*
D31*
X29917Y15232D02*
D03*
X29720D02*
D03*
X30311D02*
D03*
X30705D02*
D03*
X31098D02*
D03*
X30114D02*
D03*
X30508D02*
D03*
X30902D02*
D03*
X31295D02*
D03*
X29327D02*
D03*
X28933D02*
D03*
X28539D02*
D03*
X28342D02*
D03*
X28736D02*
D03*
X29130D02*
D03*
X29524D02*
D03*
X29720Y19760D02*
D03*
X29917D02*
D03*
X29327D02*
D03*
X28933D02*
D03*
X28539D02*
D03*
X29524D02*
D03*
X29130D02*
D03*
X28736D02*
D03*
X28342D02*
D03*
X30311D02*
D03*
X30705D02*
D03*
X31098D02*
D03*
X31295D02*
D03*
X30902D02*
D03*
X30508D02*
D03*
X30114D02*
D03*
D32*
X27555Y17398D02*
D03*
Y17594D02*
D03*
Y17004D02*
D03*
Y16610D02*
D03*
Y16217D02*
D03*
Y17201D02*
D03*
Y16807D02*
D03*
Y16413D02*
D03*
Y16020D02*
D03*
Y17988D02*
D03*
Y18382D02*
D03*
Y18776D02*
D03*
Y18972D02*
D03*
Y18579D02*
D03*
Y18185D02*
D03*
Y17791D02*
D03*
X32083Y17594D02*
D03*
Y17398D02*
D03*
Y17988D02*
D03*
Y18382D02*
D03*
Y18776D02*
D03*
Y17791D02*
D03*
Y18185D02*
D03*
Y18579D02*
D03*
Y18972D02*
D03*
Y17004D02*
D03*
Y16610D02*
D03*
Y16217D02*
D03*
Y16020D02*
D03*
Y16413D02*
D03*
Y16807D02*
D03*
Y17201D02*
D03*
D33*
X34606Y27736D02*
D03*
X35315D02*
D03*
D34*
X39748Y26783D02*
D03*
X39197D02*
D03*
D35*
X39307Y27665D02*
D03*
X39701D02*
D03*
D36*
X36513Y18717D02*
D03*
Y18402D02*
D03*
Y18087D02*
D03*
Y17772D02*
D03*
Y17457D02*
D03*
Y17142D02*
D03*
Y16827D02*
D03*
Y16512D02*
D03*
X33133D02*
D03*
Y16827D02*
D03*
Y17142D02*
D03*
Y17457D02*
D03*
Y17772D02*
D03*
Y18087D02*
D03*
Y18402D02*
D03*
Y18717D02*
D03*
D37*
X35925Y15924D02*
D03*
X35610D02*
D03*
X35295D02*
D03*
X34980D02*
D03*
X34665D02*
D03*
X34350D02*
D03*
X34035D02*
D03*
X33720D02*
D03*
Y19304D02*
D03*
X34035D02*
D03*
X34350D02*
D03*
X34665D02*
D03*
X34980D02*
D03*
X35295D02*
D03*
X35610D02*
D03*
X35925D02*
D03*
M02*
