G04 Layer_Physical_Order=2*
G04 Layer_Color=11436288*
%FSLAX24Y24*%
%MOIN*%
G70*
G01*
G75*
%ADD10C,0.0100*%
G04:AMPARAMS|DCode=11|XSize=60mil|YSize=60mil|CornerRadius=15mil|HoleSize=0mil|Usage=FLASHONLY|Rotation=90.000|XOffset=0mil|YOffset=0mil|HoleType=Round|Shape=RoundedRectangle|*
%AMROUNDEDRECTD11*
21,1,0.0600,0.0300,0,0,90.0*
21,1,0.0300,0.0600,0,0,90.0*
1,1,0.0300,0.0150,0.0150*
1,1,0.0300,0.0150,-0.0150*
1,1,0.0300,-0.0150,-0.0150*
1,1,0.0300,-0.0150,0.0150*
%
%ADD11ROUNDEDRECTD11*%
%ADD12C,0.0600*%
%ADD13C,0.0700*%
%ADD14O,0.0800X0.0600*%
%ADD15C,0.1070*%
%ADD16C,0.0472*%
%ADD17P,0.0639X8X22.5*%
%ADD18O,0.1181X0.1969*%
%ADD19C,0.0500*%
G36*
X49110Y10141D02*
X16870Y9946D01*
X16835Y9981D01*
Y10557D01*
X16885Y10571D01*
X16949Y10521D01*
X17035Y10486D01*
X17126Y10474D01*
X17217Y10486D01*
X17302Y10521D01*
X17376Y10577D01*
X17432Y10650D01*
X17441Y10674D01*
X19537D01*
X19595Y10685D01*
X19645Y10719D01*
X19645Y10719D01*
X20418Y11492D01*
X20451Y11541D01*
X20463Y11600D01*
Y13714D01*
X20451Y13772D01*
X20418Y13822D01*
X20220Y14020D01*
X20240Y14069D01*
X20254Y14173D01*
X20240Y14278D01*
X20200Y14375D01*
X20136Y14459D01*
X20052Y14523D01*
X19955Y14563D01*
X19850Y14577D01*
X19746Y14563D01*
X19649Y14523D01*
X19565Y14459D01*
X19501Y14375D01*
X19461Y14278D01*
X19447Y14173D01*
X19461Y14069D01*
X19501Y13971D01*
X19565Y13888D01*
X19649Y13824D01*
X19746Y13784D01*
X19850Y13770D01*
X19955Y13784D01*
X20004Y13804D01*
X20157Y13650D01*
Y12340D01*
X20107Y12315D01*
X20052Y12357D01*
X19955Y12398D01*
X19850Y12411D01*
X19746Y12398D01*
X19649Y12357D01*
X19565Y12293D01*
X19501Y12210D01*
X19461Y12112D01*
X19447Y12008D01*
X19461Y11903D01*
X19501Y11806D01*
X19565Y11723D01*
X19649Y11658D01*
X19746Y11618D01*
X19850Y11604D01*
X19955Y11618D01*
X20052Y11658D01*
X20071Y11673D01*
X20125Y11652D01*
X20128Y11634D01*
X19473Y10980D01*
X17441D01*
X17432Y11003D01*
X17376Y11076D01*
X17302Y11132D01*
X17217Y11168D01*
X17126Y11180D01*
X17035Y11168D01*
X16949Y11132D01*
X16885Y11083D01*
X16835Y11097D01*
Y32438D01*
X17759Y33362D01*
X49110D01*
Y10141D01*
D02*
G37*
%LPC*%
G36*
X18307Y18462D02*
X18190Y18446D01*
X18080Y18401D01*
X17986Y18329D01*
X17914Y18235D01*
X17869Y18125D01*
X17853Y18008D01*
X17869Y17890D01*
X17914Y17781D01*
X17986Y17687D01*
X18080Y17615D01*
X18190Y17569D01*
X18307Y17554D01*
X18425Y17569D01*
X18534Y17615D01*
X18628Y17687D01*
X18700Y17781D01*
X18745Y17890D01*
X18761Y18008D01*
X18745Y18125D01*
X18700Y18235D01*
X18628Y18329D01*
X18534Y18401D01*
X18425Y18446D01*
X18307Y18462D01*
D02*
G37*
G36*
X23850Y19695D02*
X23746Y19681D01*
X23649Y19641D01*
X23565Y19577D01*
X23501Y19493D01*
X23461Y19396D01*
X23447Y19291D01*
X23461Y19187D01*
X23501Y19090D01*
X23565Y19006D01*
X23649Y18942D01*
X23746Y18902D01*
X23850Y18888D01*
X23955Y18902D01*
X24052Y18942D01*
X24136Y19006D01*
X24200Y19090D01*
X24240Y19187D01*
X24254Y19291D01*
X24240Y19396D01*
X24200Y19493D01*
X24136Y19577D01*
X24052Y19641D01*
X23955Y19681D01*
X23850Y19695D01*
D02*
G37*
G36*
X28772D02*
X28667Y19681D01*
X28570Y19641D01*
X28486Y19577D01*
X28422Y19493D01*
X28382Y19396D01*
X28368Y19291D01*
X28382Y19187D01*
X28422Y19090D01*
X28486Y19006D01*
X28570Y18942D01*
X28667Y18902D01*
X28772Y18888D01*
X28876Y18902D01*
X28973Y18942D01*
X29057Y19006D01*
X29121Y19090D01*
X29161Y19187D01*
X29175Y19291D01*
X29161Y19396D01*
X29121Y19493D01*
X29057Y19577D01*
X28973Y19641D01*
X28876Y19681D01*
X28772Y19695D01*
D02*
G37*
G36*
X24772Y16742D02*
X24667Y16728D01*
X24570Y16688D01*
X24486Y16624D01*
X24422Y16540D01*
X24382Y16443D01*
X24368Y16339D01*
X24382Y16234D01*
X24422Y16137D01*
X24486Y16053D01*
X24570Y15989D01*
X24667Y15949D01*
X24772Y15935D01*
X24876Y15949D01*
X24973Y15989D01*
X25057Y16053D01*
X25121Y16137D01*
X25161Y16234D01*
X25175Y16339D01*
X25161Y16443D01*
X25121Y16540D01*
X25057Y16624D01*
X24973Y16688D01*
X24876Y16728D01*
X24772Y16742D01*
D02*
G37*
G36*
X28060Y17203D02*
X24562D01*
X24503Y17191D01*
X24454Y17158D01*
X24004Y16708D01*
X23955Y16728D01*
X23850Y16742D01*
X23746Y16728D01*
X23649Y16688D01*
X23565Y16624D01*
X23501Y16540D01*
X23461Y16443D01*
X23447Y16339D01*
X23461Y16234D01*
X23501Y16137D01*
X23565Y16053D01*
X23649Y15989D01*
X23746Y15949D01*
X23850Y15935D01*
X23955Y15949D01*
X24052Y15989D01*
X24136Y16053D01*
X24200Y16137D01*
X24240Y16234D01*
X24254Y16339D01*
X24240Y16443D01*
X24220Y16492D01*
X24625Y16897D01*
X27997D01*
X28402Y16492D01*
X28382Y16443D01*
X28368Y16339D01*
X28382Y16234D01*
X28422Y16137D01*
X28486Y16053D01*
X28570Y15989D01*
X28619Y15969D01*
Y14543D01*
X28570Y14523D01*
X28486Y14459D01*
X28422Y14375D01*
X28382Y14278D01*
X28368Y14173D01*
X28382Y14069D01*
X28422Y13971D01*
X28486Y13888D01*
X28570Y13824D01*
X28667Y13784D01*
X28772Y13770D01*
X28876Y13784D01*
X28973Y13824D01*
X29057Y13888D01*
X29121Y13971D01*
X29161Y14069D01*
X29175Y14173D01*
X29161Y14278D01*
X29121Y14375D01*
X29057Y14459D01*
X28973Y14523D01*
X28925Y14543D01*
Y15899D01*
X28975Y15919D01*
X29202Y15692D01*
X29252Y15659D01*
X29310Y15647D01*
X33548D01*
X33607Y15659D01*
X33656Y15692D01*
X33933Y15969D01*
X33982Y15949D01*
X34087Y15935D01*
X34191Y15949D01*
X34288Y15989D01*
X34372Y16053D01*
X34436Y16137D01*
X34476Y16234D01*
X34490Y16339D01*
X34476Y16443D01*
X34436Y16540D01*
X34372Y16624D01*
X34288Y16688D01*
X34191Y16728D01*
X34087Y16742D01*
X33982Y16728D01*
X33885Y16688D01*
X33801Y16624D01*
X33737Y16540D01*
X33697Y16443D01*
X33683Y16339D01*
X33697Y16234D01*
X33717Y16185D01*
X33485Y15953D01*
X30323D01*
X30306Y16003D01*
X30372Y16053D01*
X30436Y16137D01*
X30476Y16234D01*
X30490Y16339D01*
X30476Y16443D01*
X30436Y16540D01*
X30372Y16624D01*
X30288Y16688D01*
X30191Y16728D01*
X30087Y16742D01*
X29982Y16728D01*
X29885Y16688D01*
X29801Y16624D01*
X29737Y16540D01*
X29697Y16443D01*
X29683Y16339D01*
X29697Y16234D01*
X29737Y16137D01*
X29801Y16053D01*
X29867Y16003D01*
X29850Y15953D01*
X29374D01*
X29141Y16185D01*
X29161Y16234D01*
X29175Y16339D01*
X29161Y16443D01*
X29121Y16540D01*
X29057Y16624D01*
X28973Y16688D01*
X28876Y16728D01*
X28772Y16742D01*
X28667Y16728D01*
X28618Y16708D01*
X28168Y17158D01*
X28119Y17191D01*
X28060Y17203D01*
D02*
G37*
G36*
X18307Y17462D02*
X18190Y17446D01*
X18080Y17401D01*
X17986Y17329D01*
X17914Y17235D01*
X17869Y17125D01*
X17853Y17008D01*
X17869Y16890D01*
X17914Y16781D01*
X17986Y16687D01*
X18080Y16615D01*
X18190Y16569D01*
X18307Y16554D01*
X18425Y16569D01*
X18534Y16615D01*
X18628Y16687D01*
X18700Y16781D01*
X18745Y16890D01*
X18761Y17008D01*
X18745Y17125D01*
X18700Y17235D01*
X18628Y17329D01*
X18534Y17401D01*
X18425Y17446D01*
X18307Y17462D01*
D02*
G37*
G36*
X47685Y21057D02*
X47581Y21043D01*
X47483Y21003D01*
X47400Y20939D01*
X47336Y20855D01*
X47295Y20758D01*
X47282Y20654D01*
X47295Y20549D01*
X47336Y20452D01*
X47400Y20368D01*
X47483Y20304D01*
X47581Y20264D01*
X47685Y20250D01*
X47789Y20264D01*
X47887Y20304D01*
X47970Y20368D01*
X48034Y20452D01*
X48075Y20549D01*
X48088Y20654D01*
X48075Y20758D01*
X48034Y20855D01*
X47970Y20939D01*
X47887Y21003D01*
X47789Y21043D01*
X47685Y21057D01*
D02*
G37*
G36*
X23850Y21860D02*
X23746Y21846D01*
X23649Y21806D01*
X23565Y21742D01*
X23501Y21658D01*
X23461Y21561D01*
X23447Y21457D01*
X23461Y21352D01*
X23501Y21255D01*
X23565Y21171D01*
X23649Y21107D01*
X23746Y21067D01*
X23850Y21053D01*
X23955Y21067D01*
X24052Y21107D01*
X24136Y21171D01*
X24200Y21255D01*
X24240Y21352D01*
X24254Y21457D01*
X24240Y21561D01*
X24200Y21658D01*
X24136Y21742D01*
X24052Y21806D01*
X23955Y21846D01*
X23850Y21860D01*
D02*
G37*
G36*
X24772D02*
X24667Y21846D01*
X24570Y21806D01*
X24486Y21742D01*
X24422Y21658D01*
X24382Y21561D01*
X24368Y21457D01*
X24382Y21352D01*
X24422Y21255D01*
X24486Y21171D01*
X24570Y21107D01*
X24667Y21067D01*
X24772Y21053D01*
X24876Y21067D01*
X24973Y21107D01*
X25057Y21171D01*
X25121Y21255D01*
X25161Y21352D01*
X25175Y21457D01*
X25161Y21561D01*
X25121Y21658D01*
X25057Y21742D01*
X24973Y21806D01*
X24876Y21846D01*
X24772Y21860D01*
D02*
G37*
G36*
X41685Y20057D02*
X41581Y20043D01*
X41483Y20003D01*
X41400Y19939D01*
X41336Y19855D01*
X41295Y19758D01*
X41282Y19654D01*
X41295Y19549D01*
X41336Y19452D01*
X41400Y19368D01*
X41483Y19304D01*
X41581Y19264D01*
X41685Y19250D01*
X41789Y19264D01*
X41887Y19304D01*
X41970Y19368D01*
X42034Y19452D01*
X42075Y19549D01*
X42088Y19654D01*
X42075Y19758D01*
X42034Y19855D01*
X41970Y19939D01*
X41887Y20003D01*
X41789Y20043D01*
X41685Y20057D01*
D02*
G37*
G36*
X47685D02*
X47581Y20043D01*
X47483Y20003D01*
X47400Y19939D01*
X47336Y19855D01*
X47295Y19758D01*
X47282Y19654D01*
X47295Y19549D01*
X47336Y19452D01*
X47400Y19368D01*
X47483Y19304D01*
X47581Y19264D01*
X47685Y19250D01*
X47789Y19264D01*
X47887Y19304D01*
X47970Y19368D01*
X48034Y19452D01*
X48075Y19549D01*
X48088Y19654D01*
X48075Y19758D01*
X48034Y19855D01*
X47970Y19939D01*
X47887Y20003D01*
X47789Y20043D01*
X47685Y20057D01*
D02*
G37*
G36*
X41685Y21057D02*
X41581Y21043D01*
X41483Y21003D01*
X41400Y20939D01*
X41336Y20855D01*
X41295Y20758D01*
X41282Y20654D01*
X41295Y20549D01*
X41336Y20452D01*
X41400Y20368D01*
X41483Y20304D01*
X41581Y20264D01*
X41685Y20250D01*
X41789Y20264D01*
X41887Y20304D01*
X41970Y20368D01*
X42034Y20452D01*
X42075Y20549D01*
X42088Y20654D01*
X42075Y20758D01*
X42034Y20855D01*
X41970Y20939D01*
X41887Y21003D01*
X41789Y21043D01*
X41685Y21057D01*
D02*
G37*
G36*
X47685Y12774D02*
X47581Y12760D01*
X47483Y12719D01*
X47400Y12655D01*
X47336Y12572D01*
X47295Y12474D01*
X47282Y12370D01*
X47295Y12266D01*
X47336Y12168D01*
X47400Y12085D01*
X47483Y12021D01*
X47581Y11980D01*
X47685Y11967D01*
X47789Y11980D01*
X47887Y12021D01*
X47970Y12085D01*
X48034Y12168D01*
X48075Y12266D01*
X48088Y12370D01*
X48075Y12474D01*
X48034Y12572D01*
X47970Y12655D01*
X47887Y12719D01*
X47789Y12760D01*
X47685Y12774D01*
D02*
G37*
G36*
X18307Y13462D02*
X18190Y13446D01*
X18080Y13401D01*
X17986Y13329D01*
X17914Y13235D01*
X17869Y13125D01*
X17853Y13008D01*
X17869Y12890D01*
X17914Y12781D01*
X17986Y12687D01*
X18080Y12615D01*
X18190Y12569D01*
X18307Y12554D01*
X18425Y12569D01*
X18534Y12615D01*
X18628Y12687D01*
X18700Y12781D01*
X18745Y12890D01*
X18761Y13008D01*
X18745Y13125D01*
X18700Y13235D01*
X18628Y13329D01*
X18534Y13401D01*
X18425Y13446D01*
X18307Y13462D01*
D02*
G37*
G36*
Y14462D02*
X18190Y14446D01*
X18080Y14401D01*
X17986Y14329D01*
X17914Y14235D01*
X17869Y14125D01*
X17853Y14008D01*
X17869Y13890D01*
X17914Y13781D01*
X17986Y13687D01*
X18080Y13615D01*
X18190Y13569D01*
X18307Y13554D01*
X18425Y13569D01*
X18534Y13615D01*
X18628Y13687D01*
X18700Y13781D01*
X18745Y13890D01*
X18761Y14008D01*
X18745Y14125D01*
X18700Y14235D01*
X18628Y14329D01*
X18534Y14401D01*
X18425Y14446D01*
X18307Y14462D01*
D02*
G37*
G36*
X30612Y11018D02*
X30412D01*
X30307Y11004D01*
X30210Y10964D01*
X30127Y10899D01*
X30062Y10816D01*
X30022Y10719D01*
X30008Y10614D01*
X30022Y10510D01*
X30062Y10412D01*
X30127Y10329D01*
X30210Y10265D01*
X30307Y10224D01*
X30412Y10211D01*
X30612D01*
X30716Y10224D01*
X30814Y10265D01*
X30897Y10329D01*
X30961Y10412D01*
X31002Y10510D01*
X31015Y10614D01*
X31002Y10719D01*
X30961Y10816D01*
X30897Y10899D01*
X30814Y10964D01*
X30716Y11004D01*
X30612Y11018D01*
D02*
G37*
G36*
X23850Y12411D02*
X23746Y12398D01*
X23649Y12357D01*
X23565Y12293D01*
X23501Y12210D01*
X23461Y12112D01*
X23447Y12008D01*
X23461Y11903D01*
X23501Y11806D01*
X23565Y11723D01*
X23649Y11658D01*
X23746Y11618D01*
X23850Y11604D01*
X23955Y11618D01*
X24052Y11658D01*
X24136Y11723D01*
X24200Y11806D01*
X24240Y11903D01*
X24254Y12008D01*
X24240Y12112D01*
X24200Y12210D01*
X24136Y12293D01*
X24052Y12357D01*
X23955Y12398D01*
X23850Y12411D01*
D02*
G37*
G36*
X28772D02*
X28667Y12398D01*
X28570Y12357D01*
X28486Y12293D01*
X28422Y12210D01*
X28382Y12112D01*
X28368Y12008D01*
X28382Y11903D01*
X28422Y11806D01*
X28486Y11723D01*
X28570Y11658D01*
X28667Y11618D01*
X28772Y11604D01*
X28876Y11618D01*
X28973Y11658D01*
X29057Y11723D01*
X29121Y11806D01*
X29161Y11903D01*
X29175Y12008D01*
X29161Y12112D01*
X29121Y12210D01*
X29057Y12293D01*
X28973Y12357D01*
X28876Y12398D01*
X28772Y12411D01*
D02*
G37*
G36*
X41685Y15774D02*
X41581Y15760D01*
X41483Y15719D01*
X41400Y15655D01*
X41336Y15572D01*
X41295Y15474D01*
X41282Y15370D01*
X41295Y15266D01*
X41336Y15168D01*
X41400Y15085D01*
X41483Y15021D01*
X41581Y14980D01*
X41685Y14967D01*
X41789Y14980D01*
X41887Y15021D01*
X41970Y15085D01*
X42034Y15168D01*
X42075Y15266D01*
X42088Y15370D01*
X42075Y15474D01*
X42034Y15572D01*
X41970Y15655D01*
X41887Y15719D01*
X41789Y15760D01*
X41685Y15774D01*
D02*
G37*
G36*
X37402Y20285D02*
X37297Y20272D01*
X37200Y20231D01*
X37116Y20167D01*
X37052Y20084D01*
X37012Y19986D01*
X36998Y19882D01*
X37012Y19777D01*
X37052Y19680D01*
X37116Y19597D01*
X37200Y19533D01*
X37241Y19515D01*
Y19461D01*
X37200Y19444D01*
X37116Y19380D01*
X37052Y19296D01*
X37012Y19199D01*
X36998Y19094D01*
X37012Y18990D01*
X37052Y18893D01*
X37116Y18809D01*
X37200Y18745D01*
X37241Y18728D01*
Y18674D01*
X37200Y18656D01*
X37116Y18592D01*
X37052Y18509D01*
X37012Y18412D01*
X36998Y18307D01*
X37012Y18203D01*
X37052Y18105D01*
X37116Y18022D01*
X37200Y17958D01*
X37241Y17940D01*
Y17886D01*
X37200Y17869D01*
X37116Y17805D01*
X37052Y17721D01*
X37012Y17624D01*
X36998Y17520D01*
X37012Y17415D01*
X37052Y17318D01*
X37116Y17234D01*
X37192Y17176D01*
X37191Y17147D01*
X37182Y17123D01*
X37154Y17118D01*
X37071Y17063D01*
X37016Y16980D01*
X36997Y16882D01*
Y16582D01*
X37016Y16485D01*
X37071Y16402D01*
X37154Y16347D01*
X37182Y16341D01*
X37191Y16318D01*
X37192Y16288D01*
X37116Y16230D01*
X37052Y16147D01*
X37012Y16049D01*
X36998Y15945D01*
X37012Y15840D01*
X37052Y15743D01*
X37116Y15660D01*
X37200Y15595D01*
X37241Y15578D01*
Y15524D01*
X37200Y15507D01*
X37116Y15443D01*
X37052Y15359D01*
X37012Y15262D01*
X36998Y15157D01*
X37012Y15053D01*
X37052Y14956D01*
X37116Y14872D01*
X37200Y14808D01*
X37297Y14768D01*
X37402Y14754D01*
X37506Y14768D01*
X37555Y14788D01*
X38301Y14042D01*
X38351Y14009D01*
X38409Y13997D01*
X39842D01*
X41316Y12523D01*
X41295Y12474D01*
X41282Y12370D01*
X41295Y12266D01*
X41336Y12168D01*
X41400Y12085D01*
X41428Y12063D01*
X41411Y12013D01*
X40733D01*
X40178Y12568D01*
X40129Y12601D01*
X40070Y12613D01*
X37160D01*
X37101Y12601D01*
X37052Y12568D01*
X36507Y12023D01*
X35475D01*
X35455Y12069D01*
X35533Y12147D01*
Y12542D01*
X35337Y12738D01*
X35533Y12934D01*
Y13330D01*
X35422Y13441D01*
X35441Y13487D01*
X35551D01*
X35727Y13311D01*
Y12934D01*
X35924Y12737D01*
X36320D01*
X36517Y12934D01*
Y13330D01*
X36320Y13527D01*
X35943D01*
X35722Y13748D01*
X35672Y13781D01*
X35614Y13793D01*
X32740D01*
X32681Y13781D01*
X32632Y13748D01*
X32192Y13308D01*
X32159Y13259D01*
X32147Y13200D01*
Y12043D01*
X32105Y12015D01*
X32094Y12020D01*
X31990Y12033D01*
X31790D01*
X31685Y12020D01*
X31588Y11979D01*
X31504Y11915D01*
X31440Y11832D01*
X31400Y11734D01*
X31386Y11630D01*
X31399Y11532D01*
X31386Y11520D01*
X31354Y11507D01*
X31138Y11722D01*
X31089Y11755D01*
X31030Y11767D01*
X30981D01*
X30961Y11816D01*
X30897Y11899D01*
X30814Y11964D01*
X30716Y12004D01*
X30612Y12018D01*
X30412D01*
X30307Y12004D01*
X30210Y11964D01*
X30127Y11899D01*
X30062Y11816D01*
X30022Y11719D01*
X30008Y11614D01*
X30022Y11510D01*
X30062Y11412D01*
X30127Y11329D01*
X30210Y11265D01*
X30307Y11224D01*
X30412Y11211D01*
X30612D01*
X30716Y11224D01*
X30814Y11265D01*
X30897Y11329D01*
X30954Y11403D01*
X31010Y11417D01*
X31366Y11062D01*
X31416Y11029D01*
X31474Y11017D01*
X31555D01*
X31572Y10967D01*
X31504Y10915D01*
X31440Y10832D01*
X31400Y10734D01*
X31386Y10630D01*
X31400Y10525D01*
X31440Y10428D01*
X31504Y10345D01*
X31588Y10281D01*
X31685Y10240D01*
X31790Y10226D01*
X31990D01*
X32094Y10240D01*
X32191Y10281D01*
X32275Y10345D01*
X32339Y10428D01*
X32379Y10525D01*
X32393Y10630D01*
X32379Y10734D01*
X32339Y10832D01*
X32275Y10915D01*
X32207Y10967D01*
X32224Y11017D01*
X32280D01*
X32339Y11029D01*
X32388Y11062D01*
X32618Y11292D01*
X32651Y11341D01*
X32663Y11400D01*
Y11937D01*
X32993Y12267D01*
X34277D01*
X34782Y11762D01*
X34831Y11729D01*
X34841Y11727D01*
X34890Y11717D01*
X36570D01*
X36629Y11729D01*
X36678Y11762D01*
X37223Y12307D01*
X40007D01*
X40562Y11752D01*
X40611Y11719D01*
X40670Y11707D01*
X42000D01*
X42059Y11719D01*
X42108Y11752D01*
X42248Y11892D01*
X42281Y11941D01*
X42293Y12000D01*
Y13915D01*
X42281Y13974D01*
X42248Y14023D01*
X42094Y14177D01*
X42115Y14227D01*
X47311D01*
X47336Y14168D01*
X47400Y14085D01*
X47483Y14021D01*
X47581Y13980D01*
X47685Y13967D01*
X47789Y13980D01*
X47887Y14021D01*
X47970Y14085D01*
X48034Y14168D01*
X48075Y14266D01*
X48088Y14370D01*
X48075Y14475D01*
X48034Y14572D01*
X47970Y14655D01*
X47887Y14719D01*
X47789Y14760D01*
X47685Y14774D01*
X47581Y14760D01*
X47483Y14719D01*
X47400Y14655D01*
X47336Y14572D01*
X47320Y14533D01*
X42051D01*
X42034Y14572D01*
X41970Y14655D01*
X41887Y14719D01*
X41789Y14760D01*
X41685Y14774D01*
X41581Y14760D01*
X41483Y14719D01*
X41400Y14655D01*
X41336Y14572D01*
X41295Y14475D01*
X41282Y14370D01*
X41295Y14266D01*
X41336Y14168D01*
X41400Y14085D01*
X41483Y14021D01*
X41581Y13980D01*
X41685Y13967D01*
X41789Y13980D01*
X41838Y14001D01*
X41987Y13852D01*
Y13706D01*
X41937Y13681D01*
X41887Y13719D01*
X41789Y13760D01*
X41685Y13774D01*
X41581Y13760D01*
X41532Y13740D01*
X41455Y13817D01*
X41405Y13850D01*
X41347Y13861D01*
X40965D01*
X38773Y16053D01*
X38724Y16086D01*
X38665Y16098D01*
X37771D01*
X37751Y16147D01*
X37687Y16230D01*
X37611Y16288D01*
X37612Y16318D01*
X37621Y16341D01*
X37649Y16347D01*
X37732Y16402D01*
X37787Y16485D01*
X37806Y16579D01*
X38532D01*
X38591Y16591D01*
X38640Y16624D01*
X38773Y16757D01*
X41450D01*
X41467Y16707D01*
X41400Y16655D01*
X41336Y16572D01*
X41295Y16474D01*
X41282Y16370D01*
X41295Y16266D01*
X41336Y16168D01*
X41400Y16085D01*
X41483Y16021D01*
X41581Y15980D01*
X41685Y15967D01*
X41789Y15980D01*
X41887Y16021D01*
X41970Y16085D01*
X42034Y16168D01*
X42075Y16266D01*
X42088Y16370D01*
X42075Y16474D01*
X42034Y16572D01*
X41970Y16655D01*
X41903Y16707D01*
X41920Y16757D01*
X47082D01*
X47316Y16523D01*
X47295Y16474D01*
X47282Y16370D01*
X47295Y16266D01*
X47336Y16168D01*
X47400Y16085D01*
X47483Y16021D01*
X47581Y15980D01*
X47685Y15967D01*
X47789Y15980D01*
X47887Y16021D01*
X47937Y16059D01*
X47987Y16035D01*
Y15888D01*
X47838Y15740D01*
X47789Y15760D01*
X47685Y15774D01*
X47581Y15760D01*
X47483Y15719D01*
X47400Y15655D01*
X47336Y15572D01*
X47295Y15474D01*
X47282Y15370D01*
X47295Y15266D01*
X47336Y15168D01*
X47400Y15085D01*
X47483Y15021D01*
X47581Y14980D01*
X47685Y14967D01*
X47789Y14980D01*
X47887Y15021D01*
X47970Y15085D01*
X48034Y15168D01*
X48075Y15266D01*
X48088Y15370D01*
X48075Y15474D01*
X48055Y15523D01*
X48141Y15610D01*
X48187Y15590D01*
Y14088D01*
X47838Y13740D01*
X47789Y13760D01*
X47685Y13774D01*
X47581Y13760D01*
X47483Y13719D01*
X47400Y13655D01*
X47336Y13572D01*
X47295Y13475D01*
X47282Y13370D01*
X47295Y13266D01*
X47336Y13168D01*
X47400Y13085D01*
X47483Y13021D01*
X47581Y12980D01*
X47685Y12967D01*
X47789Y12980D01*
X47887Y13021D01*
X47970Y13085D01*
X48034Y13168D01*
X48075Y13266D01*
X48088Y13370D01*
X48075Y13475D01*
X48055Y13523D01*
X48448Y13917D01*
X48481Y13967D01*
X48493Y14025D01*
Y18300D01*
X48481Y18359D01*
X48448Y18408D01*
X48441Y18415D01*
X48391Y18448D01*
X48333Y18460D01*
X37771D01*
X37751Y18509D01*
X37687Y18592D01*
X37603Y18656D01*
X37562Y18674D01*
Y18728D01*
X37603Y18745D01*
X37687Y18809D01*
X37751Y18893D01*
X37791Y18990D01*
X37805Y19094D01*
X37791Y19199D01*
X37751Y19296D01*
X37687Y19380D01*
X37603Y19444D01*
X37562Y19461D01*
Y19515D01*
X37603Y19533D01*
X37687Y19597D01*
X37751Y19680D01*
X37791Y19777D01*
X37805Y19882D01*
X37791Y19986D01*
X37751Y20084D01*
X37687Y20167D01*
X37603Y20231D01*
X37506Y20272D01*
X37402Y20285D01*
D02*
G37*
G36*
X19850Y16742D02*
X19746Y16728D01*
X19649Y16688D01*
X19565Y16624D01*
X19501Y16540D01*
X19481Y16493D01*
X18307D01*
X18249Y16481D01*
X18199Y16448D01*
X18198Y16447D01*
X18190Y16446D01*
X18080Y16401D01*
X17986Y16329D01*
X17914Y16235D01*
X17869Y16125D01*
X17853Y16008D01*
X17869Y15890D01*
X17914Y15781D01*
X17986Y15687D01*
X18080Y15615D01*
X18190Y15569D01*
X18307Y15554D01*
X18425Y15569D01*
X18534Y15615D01*
X18628Y15687D01*
X18700Y15781D01*
X18745Y15890D01*
X18761Y16008D01*
X18745Y16125D01*
X18737Y16145D01*
X18765Y16187D01*
X19480D01*
X19501Y16137D01*
X19565Y16053D01*
X19649Y15989D01*
X19746Y15949D01*
X19850Y15935D01*
X19955Y15949D01*
X20052Y15989D01*
X20136Y16053D01*
X20200Y16137D01*
X20240Y16234D01*
X20254Y16339D01*
X20240Y16443D01*
X20200Y16540D01*
X20136Y16624D01*
X20052Y16688D01*
X19955Y16728D01*
X19850Y16742D01*
D02*
G37*
G36*
X23850Y14577D02*
X23746Y14563D01*
X23649Y14523D01*
X23565Y14459D01*
X23501Y14375D01*
X23461Y14278D01*
X23447Y14173D01*
X23461Y14069D01*
X23501Y13971D01*
X23565Y13888D01*
X23649Y13824D01*
X23746Y13784D01*
X23850Y13770D01*
X23955Y13784D01*
X24052Y13824D01*
X24136Y13888D01*
X24200Y13971D01*
X24240Y14069D01*
X24254Y14173D01*
X24240Y14278D01*
X24200Y14375D01*
X24136Y14459D01*
X24052Y14523D01*
X23955Y14563D01*
X23850Y14577D01*
D02*
G37*
G36*
X24772D02*
X24667Y14563D01*
X24570Y14523D01*
X24486Y14459D01*
X24422Y14375D01*
X24382Y14278D01*
X24368Y14173D01*
X24382Y14069D01*
X24422Y13971D01*
X24486Y13888D01*
X24570Y13824D01*
X24667Y13784D01*
X24772Y13770D01*
X24876Y13784D01*
X24973Y13824D01*
X25057Y13888D01*
X25121Y13971D01*
X25161Y14069D01*
X25175Y14173D01*
X25161Y14278D01*
X25121Y14375D01*
X25057Y14459D01*
X24973Y14523D01*
X24876Y14563D01*
X24772Y14577D01*
D02*
G37*
G36*
X18307Y15462D02*
X18190Y15446D01*
X18080Y15401D01*
X17986Y15329D01*
X17914Y15235D01*
X17869Y15125D01*
X17853Y15008D01*
X17869Y14890D01*
X17914Y14781D01*
X17986Y14687D01*
X18080Y14615D01*
X18190Y14569D01*
X18307Y14554D01*
X18425Y14569D01*
X18534Y14615D01*
X18628Y14687D01*
X18700Y14781D01*
X18745Y14890D01*
X18761Y15008D01*
X18745Y15125D01*
X18700Y15235D01*
X18628Y15329D01*
X18534Y15401D01*
X18425Y15446D01*
X18307Y15462D01*
D02*
G37*
G36*
X19850Y26585D02*
X19746Y26571D01*
X19649Y26530D01*
X19565Y26466D01*
X19501Y26383D01*
X19461Y26286D01*
X19447Y26181D01*
X19461Y26077D01*
X19481Y26028D01*
X19046Y25593D01*
X18653D01*
X18594Y25581D01*
X18544Y25548D01*
X18499Y25502D01*
X18425Y25533D01*
X18307Y25548D01*
X18190Y25533D01*
X18080Y25488D01*
X17986Y25415D01*
X17914Y25321D01*
X17869Y25212D01*
X17853Y25094D01*
X17869Y24977D01*
X17914Y24868D01*
X17986Y24774D01*
X18080Y24701D01*
X18190Y24656D01*
X18307Y24641D01*
X18425Y24656D01*
X18534Y24701D01*
X18628Y24774D01*
X18700Y24868D01*
X18745Y24977D01*
X18761Y25094D01*
X18745Y25212D01*
X18735Y25237D01*
X18769Y25287D01*
X19109D01*
X19168Y25299D01*
X19217Y25332D01*
X19697Y25812D01*
X19746Y25791D01*
X19850Y25778D01*
X19955Y25791D01*
X20052Y25832D01*
X20136Y25896D01*
X20200Y25979D01*
X20240Y26077D01*
X20254Y26181D01*
X20240Y26286D01*
X20200Y26383D01*
X20136Y26466D01*
X20052Y26530D01*
X19955Y26571D01*
X19850Y26585D01*
D02*
G37*
G36*
X23850D02*
X23746Y26571D01*
X23649Y26530D01*
X23565Y26466D01*
X23501Y26383D01*
X23461Y26286D01*
X23447Y26181D01*
X23461Y26077D01*
X23501Y25979D01*
X23565Y25896D01*
X23649Y25832D01*
X23746Y25791D01*
X23850Y25778D01*
X23955Y25791D01*
X24052Y25832D01*
X24136Y25896D01*
X24200Y25979D01*
X24240Y26077D01*
X24254Y26181D01*
X24240Y26286D01*
X24200Y26383D01*
X24136Y26466D01*
X24052Y26530D01*
X23955Y26571D01*
X23850Y26585D01*
D02*
G37*
G36*
X28969Y30718D02*
X28864Y30705D01*
X28767Y30664D01*
X28683Y30600D01*
X28619Y30517D01*
X28579Y30419D01*
X28565Y30315D01*
X28579Y30211D01*
X28619Y30113D01*
X28683Y30030D01*
X28767Y29966D01*
X28864Y29925D01*
X28969Y29912D01*
X29073Y29925D01*
X29170Y29966D01*
X29254Y30030D01*
X29318Y30113D01*
X29358Y30211D01*
X29372Y30315D01*
X29358Y30419D01*
X29318Y30517D01*
X29254Y30600D01*
X29170Y30664D01*
X29073Y30705D01*
X28969Y30718D01*
D02*
G37*
G36*
X18307Y26635D02*
X18190Y26620D01*
X18080Y26574D01*
X17986Y26502D01*
X17914Y26408D01*
X17869Y26299D01*
X17853Y26181D01*
X17869Y26064D01*
X17914Y25954D01*
X17986Y25860D01*
X18080Y25788D01*
X18190Y25743D01*
X18307Y25727D01*
X18425Y25743D01*
X18534Y25788D01*
X18628Y25860D01*
X18700Y25954D01*
X18745Y26064D01*
X18761Y26181D01*
X18745Y26299D01*
X18700Y26408D01*
X18628Y26502D01*
X18534Y26574D01*
X18425Y26620D01*
X18307Y26635D01*
D02*
G37*
G36*
X24969Y30718D02*
X24864Y30705D01*
X24767Y30664D01*
X24683Y30600D01*
X24619Y30517D01*
X24579Y30419D01*
X24565Y30315D01*
X24579Y30211D01*
X24619Y30113D01*
X24683Y30030D01*
X24767Y29966D01*
X24864Y29925D01*
X24969Y29912D01*
X25073Y29925D01*
X25170Y29966D01*
X25254Y30030D01*
X25318Y30113D01*
X25358Y30211D01*
X25372Y30315D01*
X25358Y30419D01*
X25318Y30517D01*
X25254Y30600D01*
X25170Y30664D01*
X25073Y30705D01*
X24969Y30718D01*
D02*
G37*
G36*
X41685Y30537D02*
X41581Y30524D01*
X41483Y30483D01*
X41400Y30419D01*
X41336Y30336D01*
X41295Y30238D01*
X41282Y30134D01*
X41295Y30029D01*
X41336Y29932D01*
X41400Y29849D01*
X41483Y29784D01*
X41581Y29744D01*
X41685Y29730D01*
X41789Y29744D01*
X41887Y29784D01*
X41970Y29849D01*
X42034Y29932D01*
X42075Y30029D01*
X42088Y30134D01*
X42075Y30238D01*
X42034Y30336D01*
X41970Y30419D01*
X41887Y30483D01*
X41789Y30524D01*
X41685Y30537D01*
D02*
G37*
G36*
X18307Y30635D02*
X18190Y30620D01*
X18080Y30574D01*
X17986Y30502D01*
X17914Y30408D01*
X17869Y30299D01*
X17853Y30181D01*
X17869Y30064D01*
X17914Y29954D01*
X17986Y29860D01*
X18080Y29788D01*
X18190Y29743D01*
X18307Y29727D01*
X18425Y29743D01*
X18534Y29788D01*
X18628Y29860D01*
X18700Y29954D01*
X18745Y30064D01*
X18761Y30181D01*
X18745Y30299D01*
X18700Y30408D01*
X18628Y30502D01*
X18534Y30574D01*
X18425Y30620D01*
X18307Y30635D01*
D02*
G37*
G36*
X28969Y26585D02*
X28864Y26571D01*
X28767Y26530D01*
X28683Y26466D01*
X28619Y26383D01*
X28579Y26286D01*
X28565Y26181D01*
X28579Y26077D01*
X28619Y25979D01*
X28683Y25896D01*
X28767Y25832D01*
X28864Y25791D01*
X28969Y25778D01*
X29073Y25791D01*
X29170Y25832D01*
X29254Y25896D01*
X29318Y25979D01*
X29358Y26077D01*
X29372Y26181D01*
X29358Y26286D01*
X29318Y26383D01*
X29254Y26466D01*
X29170Y26530D01*
X29073Y26571D01*
X28969Y26585D01*
D02*
G37*
G36*
X23850Y30718D02*
X23746Y30705D01*
X23649Y30664D01*
X23565Y30600D01*
X23501Y30517D01*
X23461Y30419D01*
X23447Y30315D01*
X23461Y30211D01*
X23501Y30113D01*
X23565Y30030D01*
X23649Y29966D01*
X23746Y29925D01*
X23850Y29912D01*
X23955Y29925D01*
X24052Y29966D01*
X24136Y30030D01*
X24200Y30113D01*
X24240Y30211D01*
X24254Y30315D01*
X24240Y30419D01*
X24200Y30517D01*
X24136Y30600D01*
X24052Y30664D01*
X23955Y30705D01*
X23850Y30718D01*
D02*
G37*
G36*
X41685Y31537D02*
X41581Y31524D01*
X41483Y31483D01*
X41400Y31419D01*
X41336Y31336D01*
X41295Y31238D01*
X41282Y31134D01*
X41295Y31029D01*
X41336Y30932D01*
X41400Y30849D01*
X41483Y30784D01*
X41581Y30744D01*
X41685Y30730D01*
X41789Y30744D01*
X41887Y30784D01*
X41970Y30849D01*
X42034Y30932D01*
X42075Y31029D01*
X42088Y31134D01*
X42075Y31238D01*
X42034Y31336D01*
X41970Y31419D01*
X41887Y31483D01*
X41789Y31524D01*
X41685Y31537D01*
D02*
G37*
G36*
X18307Y23548D02*
X18190Y23533D01*
X18080Y23488D01*
X17986Y23415D01*
X17914Y23321D01*
X17869Y23212D01*
X17853Y23094D01*
X17869Y22977D01*
X17914Y22868D01*
X17986Y22774D01*
X18080Y22701D01*
X18190Y22656D01*
X18307Y22641D01*
X18425Y22656D01*
X18534Y22701D01*
X18628Y22774D01*
X18700Y22868D01*
X18745Y22977D01*
X18761Y23094D01*
X18745Y23212D01*
X18700Y23321D01*
X18628Y23415D01*
X18534Y23488D01*
X18425Y23533D01*
X18307Y23548D01*
D02*
G37*
G36*
X41685Y23057D02*
X41581Y23043D01*
X41483Y23003D01*
X41400Y22939D01*
X41336Y22855D01*
X41295Y22758D01*
X41282Y22654D01*
X41295Y22549D01*
X41316Y22500D01*
X40168Y21353D01*
X37105D01*
X37096Y21377D01*
X37040Y21450D01*
X36967Y21506D01*
X36881Y21541D01*
X36790Y21553D01*
X36699Y21541D01*
X36613Y21506D01*
X36540Y21450D01*
X36484Y21377D01*
X36449Y21291D01*
X36437Y21200D01*
X36449Y21109D01*
X36484Y21023D01*
X36540Y20950D01*
X36613Y20894D01*
X36699Y20859D01*
X36790Y20847D01*
X36881Y20859D01*
X36967Y20894D01*
X37040Y20950D01*
X37096Y21023D01*
X37105Y21047D01*
X40231D01*
X40290Y21059D01*
X40340Y21092D01*
X41532Y22284D01*
X41581Y22264D01*
X41685Y22250D01*
X41789Y22264D01*
X41887Y22304D01*
X41970Y22368D01*
X42034Y22452D01*
X42075Y22549D01*
X42088Y22654D01*
X42075Y22758D01*
X42034Y22855D01*
X41970Y22939D01*
X41887Y23003D01*
X41789Y23043D01*
X41685Y23057D01*
D02*
G37*
G36*
X47620Y32273D02*
X39480D01*
X39421Y32261D01*
X39372Y32228D01*
X37587Y30443D01*
X36976D01*
X36951Y30493D01*
X36987Y30539D01*
X37020Y30621D01*
X37032Y30709D01*
X37020Y30796D01*
X36987Y30878D01*
X36933Y30948D01*
X36862Y31002D01*
X36781Y31036D01*
X36738Y31042D01*
X36706Y31093D01*
X36717Y31181D01*
X36706Y31269D01*
X36672Y31351D01*
X36618Y31421D01*
X36548Y31475D01*
X36466Y31509D01*
X36378Y31520D01*
X36290Y31509D01*
X36208Y31475D01*
X36138Y31421D01*
X36092Y31360D01*
X36068Y31356D01*
X36058D01*
X36034Y31360D01*
X35988Y31421D01*
X35918Y31475D01*
X35836Y31509D01*
X35748Y31520D01*
X35660Y31509D01*
X35578Y31475D01*
X35508Y31421D01*
X35454Y31351D01*
X35420Y31269D01*
X35409Y31181D01*
X35420Y31093D01*
X35454Y31012D01*
X35508Y30941D01*
X35578Y30887D01*
X35660Y30854D01*
X35703Y30848D01*
X35735Y30796D01*
X35724Y30709D01*
X35735Y30621D01*
X35769Y30539D01*
X35823Y30469D01*
X35873Y30430D01*
X35883Y30375D01*
X35880Y30366D01*
X35022Y29508D01*
X34989Y29459D01*
X34977Y29400D01*
Y28684D01*
X34927Y28659D01*
X34879Y28696D01*
X34782Y28736D01*
X34677Y28750D01*
X34573Y28736D01*
X34475Y28696D01*
X34392Y28632D01*
X34328Y28548D01*
X34308Y28499D01*
X32597D01*
X32118Y28978D01*
X32069Y29011D01*
X32010Y29023D01*
X29689D01*
X29640Y29013D01*
X29630Y29011D01*
X29581Y28978D01*
X29122Y28519D01*
X29073Y28539D01*
X28969Y28553D01*
X28864Y28539D01*
X28767Y28499D01*
X28683Y28435D01*
X28619Y28351D01*
X28579Y28254D01*
X28565Y28150D01*
X28579Y28045D01*
X28619Y27948D01*
X28683Y27864D01*
X28767Y27800D01*
X28864Y27760D01*
X28969Y27746D01*
X29073Y27760D01*
X29170Y27800D01*
X29254Y27864D01*
X29318Y27948D01*
X29358Y28045D01*
X29372Y28150D01*
X29358Y28254D01*
X29338Y28303D01*
X29752Y28717D01*
X30421D01*
X30438Y28667D01*
X30392Y28632D01*
X30328Y28548D01*
X30287Y28451D01*
X30274Y28346D01*
X30287Y28242D01*
X30308Y28193D01*
X29067Y26953D01*
X27490D01*
X27431Y26941D01*
X27382Y26908D01*
X25949Y25475D01*
X25903Y25495D01*
Y28930D01*
X25893Y28979D01*
X25891Y28989D01*
X25858Y29038D01*
X25308Y29588D01*
X25259Y29621D01*
X25200Y29633D01*
X20072D01*
X19837Y29867D01*
X19862Y29913D01*
X19955Y29925D01*
X20052Y29966D01*
X20136Y30030D01*
X20200Y30113D01*
X20240Y30211D01*
X20254Y30315D01*
X20240Y30419D01*
X20200Y30517D01*
X20136Y30600D01*
X20052Y30664D01*
X19955Y30705D01*
X19850Y30718D01*
X19746Y30705D01*
X19649Y30664D01*
X19565Y30600D01*
X19501Y30517D01*
X19461Y30419D01*
X19448Y30327D01*
X19403Y30302D01*
X18715Y30990D01*
X18745Y31064D01*
X18761Y31181D01*
X18745Y31299D01*
X18700Y31408D01*
X18628Y31502D01*
X18534Y31574D01*
X18425Y31620D01*
X18307Y31635D01*
X18190Y31620D01*
X18080Y31574D01*
X17986Y31502D01*
X17914Y31408D01*
X17869Y31299D01*
X17853Y31181D01*
X17869Y31064D01*
X17914Y30954D01*
X17986Y30860D01*
X18080Y30788D01*
X18190Y30743D01*
X18307Y30727D01*
X18425Y30743D01*
X18499Y30773D01*
X19900Y29372D01*
X19950Y29339D01*
X20008Y29327D01*
X25137D01*
X25597Y28867D01*
Y28495D01*
X25547Y28480D01*
X25528Y28508D01*
X25328Y28708D01*
X25279Y28741D01*
X25220Y28753D01*
X18726D01*
X18667Y28741D01*
X18618Y28708D01*
X18499Y28589D01*
X18425Y28620D01*
X18307Y28635D01*
X18190Y28620D01*
X18080Y28574D01*
X18003Y28515D01*
X17953Y28537D01*
Y28611D01*
X18116Y28773D01*
X18190Y28743D01*
X18307Y28727D01*
X18425Y28743D01*
X18534Y28788D01*
X18628Y28860D01*
X18700Y28954D01*
X18745Y29064D01*
X18761Y29181D01*
X18745Y29299D01*
X18700Y29408D01*
X18628Y29502D01*
X18534Y29574D01*
X18425Y29620D01*
X18307Y29635D01*
X18190Y29620D01*
X18080Y29574D01*
X17986Y29502D01*
X17914Y29408D01*
X17869Y29299D01*
X17853Y29181D01*
X17869Y29064D01*
X17899Y28990D01*
X17692Y28782D01*
X17659Y28733D01*
X17647Y28674D01*
Y27881D01*
X17659Y27823D01*
X17692Y27773D01*
X17892Y27573D01*
X17941Y27540D01*
X17953Y27537D01*
X17955Y27535D01*
X17971Y27483D01*
X17914Y27408D01*
X17869Y27299D01*
X17853Y27181D01*
X17869Y27064D01*
X17914Y26954D01*
X17986Y26860D01*
X18080Y26788D01*
X18190Y26743D01*
X18307Y26727D01*
X18425Y26743D01*
X18534Y26788D01*
X18628Y26860D01*
X18700Y26954D01*
X18745Y27064D01*
X18761Y27181D01*
X18745Y27299D01*
X18700Y27408D01*
X18646Y27478D01*
X18671Y27528D01*
X24500D01*
X24559Y27540D01*
X24608Y27573D01*
X24815Y27780D01*
X24864Y27760D01*
X24969Y27746D01*
X25073Y27760D01*
X25170Y27800D01*
X25217Y27836D01*
X25267Y27811D01*
Y26519D01*
X25217Y26495D01*
X25170Y26530D01*
X25073Y26571D01*
X24969Y26585D01*
X24864Y26571D01*
X24767Y26530D01*
X24683Y26466D01*
X24619Y26383D01*
X24579Y26286D01*
X24565Y26181D01*
X24579Y26077D01*
X24599Y26028D01*
X20819Y22247D01*
X18731D01*
X18700Y22321D01*
X18628Y22415D01*
X18534Y22488D01*
X18425Y22533D01*
X18307Y22548D01*
X18190Y22533D01*
X18080Y22488D01*
X17986Y22415D01*
X17914Y22321D01*
X17869Y22212D01*
X17853Y22094D01*
X17869Y21977D01*
X17914Y21868D01*
X17971Y21793D01*
X17955Y21740D01*
X17953Y21738D01*
X17951Y21738D01*
X17941Y21736D01*
X17892Y21703D01*
X17492Y21303D01*
X17459Y21253D01*
X17447Y21194D01*
Y12715D01*
X17459Y12656D01*
X17492Y12607D01*
X17899Y12199D01*
X17869Y12125D01*
X17853Y12008D01*
X17869Y11890D01*
X17914Y11781D01*
X17986Y11687D01*
X18080Y11615D01*
X18190Y11569D01*
X18307Y11554D01*
X18425Y11569D01*
X18534Y11615D01*
X18628Y11687D01*
X18700Y11781D01*
X18745Y11890D01*
X18761Y12008D01*
X18745Y12125D01*
X18700Y12235D01*
X18628Y12329D01*
X18534Y12401D01*
X18425Y12446D01*
X18307Y12462D01*
X18190Y12446D01*
X18116Y12416D01*
X17753Y12778D01*
Y19367D01*
X17799Y19386D01*
X17899Y19286D01*
X17869Y19212D01*
X17853Y19094D01*
X17869Y18977D01*
X17914Y18868D01*
X17986Y18774D01*
X18080Y18701D01*
X18190Y18656D01*
X18307Y18641D01*
X18425Y18656D01*
X18534Y18701D01*
X18628Y18774D01*
X18700Y18868D01*
X18745Y18977D01*
X18761Y19094D01*
X18745Y19212D01*
X18700Y19321D01*
X18628Y19415D01*
X18534Y19488D01*
X18425Y19533D01*
X18307Y19548D01*
X18190Y19533D01*
X18116Y19502D01*
X17953Y19665D01*
Y19739D01*
X18003Y19761D01*
X18080Y19701D01*
X18190Y19656D01*
X18307Y19641D01*
X18425Y19656D01*
X18499Y19687D01*
X21137Y17048D01*
Y15490D01*
X21149Y15431D01*
X21182Y15381D01*
X24402Y12161D01*
X24382Y12112D01*
X24368Y12008D01*
X24382Y11903D01*
X24422Y11806D01*
X24486Y11723D01*
X24570Y11658D01*
X24667Y11618D01*
X24772Y11604D01*
X24876Y11618D01*
X24973Y11658D01*
X25057Y11723D01*
X25121Y11806D01*
X25161Y11903D01*
X25175Y12008D01*
X25161Y12112D01*
X25121Y12210D01*
X25057Y12293D01*
X24973Y12357D01*
X24876Y12398D01*
X24772Y12411D01*
X24667Y12398D01*
X24618Y12377D01*
X21443Y15553D01*
Y17112D01*
X21431Y17170D01*
X21398Y17220D01*
X19770Y18848D01*
X19793Y18895D01*
X19850Y18888D01*
X19955Y18902D01*
X20052Y18942D01*
X20136Y19006D01*
X20200Y19090D01*
X20240Y19187D01*
X20254Y19291D01*
X20240Y19396D01*
X20200Y19493D01*
X20136Y19577D01*
X20052Y19641D01*
X19955Y19681D01*
X19850Y19695D01*
X19746Y19681D01*
X19649Y19641D01*
X19565Y19577D01*
X19501Y19493D01*
X19461Y19396D01*
X19447Y19291D01*
X19454Y19234D01*
X19407Y19211D01*
X18715Y19903D01*
X18745Y19977D01*
X18761Y20094D01*
X18745Y20212D01*
X18738Y20230D01*
X18780Y20259D01*
X19107Y19932D01*
X19157Y19899D01*
X19215Y19887D01*
X20787D01*
X22232Y18442D01*
X22281Y18409D01*
X22340Y18397D01*
X29408D01*
X29467Y18409D01*
X29516Y18442D01*
X30555Y19481D01*
X30604Y19461D01*
X30709Y19447D01*
X30813Y19461D01*
X30910Y19501D01*
X30994Y19565D01*
X31058Y19649D01*
X31098Y19746D01*
X31112Y19850D01*
X31098Y19955D01*
X31058Y20052D01*
X30994Y20136D01*
X30910Y20200D01*
X30813Y20240D01*
X30709Y20254D01*
X30604Y20240D01*
X30507Y20200D01*
X30423Y20136D01*
X30359Y20052D01*
X30319Y19955D01*
X30305Y19850D01*
X30319Y19746D01*
X30339Y19697D01*
X29345Y18703D01*
X22403D01*
X20958Y20148D01*
X20909Y20181D01*
X20850Y20193D01*
X19279D01*
X18769Y20703D01*
X18719Y20736D01*
X18670Y20746D01*
X18654Y20770D01*
X18646Y20797D01*
X18700Y20868D01*
X18731Y20942D01*
X18802D01*
X19292Y20452D01*
X19341Y20419D01*
X19400Y20407D01*
X23440D01*
X24402Y19445D01*
X24382Y19396D01*
X24368Y19291D01*
X24382Y19187D01*
X24422Y19090D01*
X24486Y19006D01*
X24570Y18942D01*
X24667Y18902D01*
X24772Y18888D01*
X24876Y18902D01*
X24973Y18942D01*
X25057Y19006D01*
X25121Y19090D01*
X25161Y19187D01*
X25175Y19291D01*
X25161Y19396D01*
X25121Y19493D01*
X25057Y19577D01*
X24973Y19641D01*
X24876Y19681D01*
X24772Y19695D01*
X24667Y19681D01*
X24618Y19661D01*
X23611Y20668D01*
X23562Y20701D01*
X23503Y20713D01*
X19463D01*
X19389Y20787D01*
X19410Y20837D01*
X21860D01*
X21919Y20849D01*
X21968Y20882D01*
X23263Y22177D01*
X24000D01*
X24059Y22189D01*
X24108Y22222D01*
X24518Y22632D01*
X24551Y22681D01*
X24563Y22740D01*
Y23228D01*
X24613Y23238D01*
X24619Y23223D01*
X24683Y23140D01*
X24767Y23076D01*
X24864Y23036D01*
X24969Y23022D01*
X25073Y23036D01*
X25170Y23076D01*
X25254Y23140D01*
X25318Y23223D01*
X25358Y23321D01*
X25372Y23425D01*
X25358Y23530D01*
X25318Y23627D01*
X25254Y23710D01*
X25170Y23775D01*
X25073Y23815D01*
X24969Y23829D01*
X24864Y23815D01*
X24767Y23775D01*
X24704Y23726D01*
X24704D01*
X24702Y23725D01*
X24702Y23725D01*
X24702Y23725D01*
X24701Y23725D01*
X24701Y23725D01*
X24680Y23749D01*
X24680Y23749D01*
X24669Y23762D01*
X27553Y26647D01*
X29131D01*
X29189Y26659D01*
X29239Y26692D01*
X30524Y27977D01*
X30573Y27957D01*
X30677Y27943D01*
X30782Y27957D01*
X30879Y27997D01*
X30962Y28061D01*
X31027Y28145D01*
X31067Y28242D01*
X31081Y28346D01*
X31067Y28451D01*
X31027Y28548D01*
X30962Y28632D01*
X30916Y28667D01*
X30933Y28717D01*
X31947D01*
X32425Y28238D01*
X32475Y28205D01*
X32534Y28194D01*
X34308D01*
X34328Y28145D01*
X34392Y28061D01*
X34475Y27997D01*
X34573Y27957D01*
X34677Y27943D01*
X34782Y27957D01*
X34879Y27997D01*
X34927Y28034D01*
X34977Y28009D01*
Y24170D01*
X33499Y22691D01*
X33456Y22720D01*
X33461Y22730D01*
X33474Y22835D01*
X33461Y22939D01*
X33420Y23036D01*
X33356Y23120D01*
X33273Y23184D01*
X33231Y23201D01*
Y23255D01*
X33273Y23273D01*
X33356Y23337D01*
X33420Y23420D01*
X33461Y23518D01*
X33474Y23622D01*
X33461Y23726D01*
X33420Y23824D01*
X33356Y23907D01*
X33273Y23971D01*
X33231Y23989D01*
Y24043D01*
X33273Y24060D01*
X33356Y24124D01*
X33420Y24208D01*
X33461Y24305D01*
X33474Y24409D01*
X33461Y24514D01*
X33420Y24611D01*
X33356Y24695D01*
X33273Y24759D01*
X33175Y24799D01*
X33071Y24813D01*
X32966Y24799D01*
X32869Y24759D01*
X32786Y24695D01*
X32721Y24611D01*
X32681Y24514D01*
X32667Y24409D01*
X32681Y24305D01*
X32721Y24208D01*
X32786Y24124D01*
X32869Y24060D01*
X32911Y24043D01*
Y23989D01*
X32869Y23971D01*
X32786Y23907D01*
X32721Y23824D01*
X32681Y23726D01*
X32667Y23622D01*
X32681Y23518D01*
X32721Y23420D01*
X32786Y23337D01*
X32869Y23273D01*
X32911Y23255D01*
Y23201D01*
X32869Y23184D01*
X32786Y23120D01*
X32721Y23036D01*
X32681Y22939D01*
X32667Y22835D01*
X32681Y22730D01*
X32721Y22633D01*
X32786Y22549D01*
X32869Y22485D01*
X32911Y22468D01*
Y22414D01*
X32869Y22397D01*
X32786Y22333D01*
X32721Y22249D01*
X32681Y22152D01*
X32667Y22047D01*
X32681Y21943D01*
X32721Y21846D01*
X32786Y21762D01*
X32861Y21704D01*
X32860Y21674D01*
X32852Y21651D01*
X32823Y21645D01*
X32741Y21590D01*
X32685Y21507D01*
X32666Y21410D01*
Y21110D01*
X32685Y21012D01*
X32741Y20930D01*
X32823Y20874D01*
X32852Y20869D01*
X32860Y20845D01*
X32861Y20816D01*
X32786Y20758D01*
X32721Y20674D01*
X32681Y20577D01*
X32667Y20472D01*
X32681Y20368D01*
X32721Y20271D01*
X32786Y20187D01*
X32869Y20123D01*
X32911Y20106D01*
Y20052D01*
X32869Y20034D01*
X32786Y19970D01*
X32721Y19887D01*
X32681Y19789D01*
X32667Y19685D01*
X32681Y19581D01*
X32721Y19483D01*
X32786Y19400D01*
X32869Y19336D01*
X32966Y19295D01*
X33071Y19282D01*
X33175Y19295D01*
X33273Y19336D01*
X33356Y19400D01*
X33420Y19483D01*
X33440Y19532D01*
X34236D01*
X34295Y19544D01*
X34344Y19577D01*
X36388Y21620D01*
X36421Y21670D01*
X36432Y21728D01*
Y21794D01*
X36482Y21811D01*
X36543Y21764D01*
X36629Y21729D01*
X36720Y21717D01*
X36811Y21729D01*
X36897Y21764D01*
X36970Y21820D01*
X37026Y21893D01*
X37035Y21917D01*
X37960D01*
X38019Y21929D01*
X38068Y21962D01*
X39113Y23007D01*
X41192D01*
X41250Y23019D01*
X41300Y23052D01*
X41532Y23284D01*
X41581Y23264D01*
X41685Y23250D01*
X41789Y23264D01*
X41887Y23304D01*
X41970Y23368D01*
X42034Y23452D01*
X42075Y23549D01*
X42088Y23654D01*
X42075Y23758D01*
X42034Y23855D01*
X41970Y23939D01*
X41887Y24003D01*
X41789Y24043D01*
X41685Y24057D01*
X41581Y24043D01*
X41483Y24003D01*
X41400Y23939D01*
X41336Y23855D01*
X41295Y23758D01*
X41282Y23654D01*
X41295Y23549D01*
X41316Y23500D01*
X41128Y23313D01*
X39050D01*
X38991Y23301D01*
X38942Y23268D01*
X37897Y22223D01*
X37035D01*
X37026Y22247D01*
X36975Y22313D01*
X36987Y22363D01*
X37067D01*
X37126Y22375D01*
X37175Y22408D01*
X41532Y26764D01*
X41581Y26744D01*
X41685Y26730D01*
X41789Y26744D01*
X41887Y26784D01*
X41970Y26849D01*
X42034Y26932D01*
X42075Y27029D01*
X42088Y27134D01*
X42075Y27238D01*
X42034Y27336D01*
X41970Y27419D01*
X41957Y27430D01*
X41973Y27477D01*
X43645D01*
X47316Y23807D01*
X47295Y23758D01*
X47282Y23654D01*
X47295Y23549D01*
X47336Y23452D01*
X47400Y23368D01*
X47420Y23353D01*
X47403Y23303D01*
X43936D01*
X43878Y23291D01*
X43828Y23258D01*
X42377Y21806D01*
X42055D01*
X42034Y21855D01*
X41970Y21939D01*
X41887Y22003D01*
X41789Y22043D01*
X41685Y22057D01*
X41581Y22043D01*
X41483Y22003D01*
X41400Y21939D01*
X41336Y21855D01*
X41295Y21758D01*
X41282Y21654D01*
X41295Y21549D01*
X41336Y21452D01*
X41400Y21368D01*
X41483Y21304D01*
X41581Y21264D01*
X41685Y21250D01*
X41789Y21264D01*
X41887Y21304D01*
X41970Y21368D01*
X42034Y21452D01*
X42055Y21501D01*
X42440D01*
X42472Y21507D01*
X47313D01*
X47336Y21452D01*
X47400Y21368D01*
X47483Y21304D01*
X47581Y21264D01*
X47685Y21250D01*
X47789Y21264D01*
X47887Y21304D01*
X47970Y21368D01*
X48034Y21452D01*
X48075Y21549D01*
X48088Y21654D01*
X48075Y21758D01*
X48034Y21855D01*
X47970Y21939D01*
X47887Y22003D01*
X47789Y22043D01*
X47685Y22057D01*
X47581Y22043D01*
X47483Y22003D01*
X47400Y21939D01*
X47336Y21855D01*
X47318Y21813D01*
X42881D01*
X42862Y21859D01*
X44000Y22997D01*
X47398D01*
X47414Y22950D01*
X47400Y22939D01*
X47336Y22855D01*
X47295Y22758D01*
X47282Y22654D01*
X47295Y22549D01*
X47336Y22452D01*
X47400Y22368D01*
X47483Y22304D01*
X47581Y22264D01*
X47685Y22250D01*
X47789Y22264D01*
X47887Y22304D01*
X47970Y22368D01*
X48034Y22452D01*
X48075Y22549D01*
X48088Y22654D01*
X48075Y22758D01*
X48034Y22855D01*
X47970Y22939D01*
X47942Y22960D01*
X47955Y23013D01*
X47998Y23042D01*
X48248Y23292D01*
X48281Y23341D01*
X48283Y23351D01*
X48293Y23400D01*
Y28630D01*
X48281Y28689D01*
X48248Y28738D01*
X48040Y28946D01*
X48075Y29029D01*
X48088Y29134D01*
X48075Y29238D01*
X48034Y29336D01*
X47970Y29419D01*
X47887Y29483D01*
X47789Y29524D01*
X47685Y29537D01*
X47581Y29524D01*
X47483Y29483D01*
X47400Y29419D01*
X47336Y29336D01*
X47315Y29287D01*
X46564D01*
X46544Y29283D01*
X42146D01*
X42126Y29287D01*
X42055D01*
X42034Y29336D01*
X41970Y29419D01*
X41887Y29483D01*
X41789Y29524D01*
X41685Y29537D01*
X41581Y29524D01*
X41483Y29483D01*
X41400Y29419D01*
X41336Y29336D01*
X41295Y29238D01*
X41282Y29134D01*
X41295Y29029D01*
X41336Y28932D01*
X41400Y28849D01*
X41483Y28784D01*
X41581Y28744D01*
X41685Y28730D01*
X41789Y28744D01*
X41887Y28784D01*
X41970Y28849D01*
X42034Y28932D01*
X42055Y28981D01*
X42111D01*
X42130Y28977D01*
X46560D01*
X46579Y28981D01*
X47315D01*
X47336Y28932D01*
X47400Y28849D01*
X47483Y28784D01*
X47581Y28744D01*
X47685Y28730D01*
X47789Y28744D01*
X47804Y28750D01*
X47987Y28567D01*
Y28469D01*
X47937Y28445D01*
X47887Y28483D01*
X47789Y28524D01*
X47685Y28537D01*
X47581Y28524D01*
X47483Y28483D01*
X47400Y28419D01*
X47336Y28336D01*
X47295Y28238D01*
X47282Y28134D01*
X47295Y28029D01*
X47336Y27932D01*
X47400Y27849D01*
X47483Y27784D01*
X47581Y27744D01*
X47685Y27730D01*
X47789Y27744D01*
X47887Y27784D01*
X47937Y27823D01*
X47987Y27798D01*
Y27469D01*
X47937Y27445D01*
X47887Y27483D01*
X47789Y27524D01*
X47685Y27537D01*
X47581Y27524D01*
X47483Y27483D01*
X47400Y27419D01*
X47336Y27336D01*
X47295Y27238D01*
X47282Y27134D01*
X47295Y27029D01*
X47336Y26932D01*
X47400Y26849D01*
X47483Y26784D01*
X47581Y26744D01*
X47685Y26730D01*
X47789Y26744D01*
X47887Y26784D01*
X47937Y26823D01*
X47987Y26798D01*
Y23989D01*
X47937Y23964D01*
X47887Y24003D01*
X47789Y24043D01*
X47685Y24057D01*
X47581Y24043D01*
X47532Y24023D01*
X43817Y27738D01*
X43767Y27771D01*
X43709Y27783D01*
X41967D01*
X41950Y27833D01*
X41970Y27849D01*
X42034Y27932D01*
X42075Y28029D01*
X42088Y28134D01*
X42075Y28238D01*
X42034Y28336D01*
X41970Y28419D01*
X41887Y28483D01*
X41789Y28524D01*
X41685Y28537D01*
X41581Y28524D01*
X41532Y28503D01*
X40407Y29628D01*
X40357Y29661D01*
X40299Y29673D01*
X36750D01*
X36691Y29661D01*
X36642Y29628D01*
X35922Y28908D01*
X35889Y28859D01*
X35877Y28800D01*
Y22166D01*
X34337Y20625D01*
X33440D01*
X33420Y20674D01*
X33356Y20758D01*
X33280Y20816D01*
X33281Y20845D01*
X33290Y20869D01*
X33318Y20874D01*
X33401Y20930D01*
X33456Y21012D01*
X33476Y21110D01*
Y21410D01*
X33469Y21442D01*
X35468Y23441D01*
X35501Y23490D01*
X35513Y23549D01*
Y28877D01*
X36513Y29877D01*
X38630D01*
X38689Y29889D01*
X38738Y29922D01*
X40483Y31667D01*
X46936D01*
X47316Y31287D01*
X47295Y31238D01*
X47282Y31134D01*
X47295Y31029D01*
X47336Y30932D01*
X47400Y30849D01*
X47483Y30784D01*
X47581Y30744D01*
X47685Y30730D01*
X47789Y30744D01*
X47887Y30784D01*
X47937Y30823D01*
X47987Y30798D01*
Y30652D01*
X47838Y30503D01*
X47789Y30524D01*
X47685Y30537D01*
X47581Y30524D01*
X47483Y30483D01*
X47400Y30419D01*
X47336Y30336D01*
X47295Y30238D01*
X47282Y30134D01*
X47295Y30029D01*
X47336Y29932D01*
X47400Y29849D01*
X47483Y29784D01*
X47581Y29744D01*
X47685Y29730D01*
X47789Y29744D01*
X47887Y29784D01*
X47970Y29849D01*
X48034Y29932D01*
X48075Y30029D01*
X48088Y30134D01*
X48075Y30238D01*
X48055Y30287D01*
X48248Y30481D01*
X48281Y30530D01*
X48293Y30589D01*
Y31600D01*
X48281Y31659D01*
X48248Y31708D01*
X47728Y32228D01*
X47679Y32261D01*
X47620Y32273D01*
D02*
G37*
G36*
X18307Y24548D02*
X18190Y24533D01*
X18080Y24488D01*
X17986Y24415D01*
X17914Y24321D01*
X17869Y24212D01*
X17853Y24094D01*
X17869Y23977D01*
X17914Y23868D01*
X17986Y23774D01*
X18080Y23701D01*
X18190Y23656D01*
X18307Y23641D01*
X18425Y23656D01*
X18534Y23701D01*
X18628Y23774D01*
X18700Y23868D01*
X18745Y23977D01*
X18761Y24094D01*
X18745Y24212D01*
X18700Y24321D01*
X18628Y24415D01*
X18534Y24488D01*
X18425Y24533D01*
X18307Y24548D01*
D02*
G37*
G36*
X30709Y24254D02*
X30604Y24240D01*
X30507Y24200D01*
X30423Y24136D01*
X30359Y24052D01*
X30339Y24003D01*
X29394D01*
X29335Y23992D01*
X29286Y23959D01*
X29122Y23795D01*
X29073Y23815D01*
X28969Y23829D01*
X28864Y23815D01*
X28767Y23775D01*
X28683Y23710D01*
X28619Y23627D01*
X28579Y23530D01*
X28565Y23425D01*
X28579Y23321D01*
X28619Y23223D01*
X28683Y23140D01*
X28767Y23076D01*
X28816Y23056D01*
Y21892D01*
X28778Y21859D01*
X28772Y21860D01*
X28667Y21846D01*
X28570Y21806D01*
X28486Y21742D01*
X28422Y21658D01*
X28382Y21561D01*
X28368Y21457D01*
X28382Y21352D01*
X28422Y21255D01*
X28486Y21171D01*
X28570Y21107D01*
X28667Y21067D01*
X28772Y21053D01*
X28876Y21067D01*
X28973Y21107D01*
X29057Y21171D01*
X29121Y21255D01*
X29161Y21352D01*
X29175Y21457D01*
X29161Y21561D01*
X29121Y21658D01*
Y23056D01*
X29170Y23076D01*
X29254Y23140D01*
X29318Y23223D01*
X29358Y23321D01*
X29372Y23425D01*
X29358Y23530D01*
X29338Y23578D01*
X29457Y23697D01*
X30339D01*
X30359Y23649D01*
X30423Y23565D01*
X30507Y23501D01*
X30604Y23461D01*
X30709Y23447D01*
X30813Y23461D01*
X30910Y23501D01*
X30994Y23565D01*
X31058Y23649D01*
X31098Y23746D01*
X31112Y23850D01*
X31098Y23955D01*
X31058Y24052D01*
X30994Y24136D01*
X30910Y24200D01*
X30813Y24240D01*
X30709Y24254D01*
D02*
G37*
G36*
X19850Y23829D02*
X19746Y23815D01*
X19649Y23775D01*
X19565Y23710D01*
X19501Y23627D01*
X19461Y23530D01*
X19447Y23425D01*
X19461Y23321D01*
X19501Y23223D01*
X19565Y23140D01*
X19649Y23076D01*
X19746Y23036D01*
X19850Y23022D01*
X19955Y23036D01*
X20052Y23076D01*
X20136Y23140D01*
X20200Y23223D01*
X20240Y23321D01*
X20254Y23425D01*
X20240Y23530D01*
X20200Y23627D01*
X20136Y23710D01*
X20052Y23775D01*
X19955Y23815D01*
X19850Y23829D01*
D02*
G37*
G36*
X18307Y32635D02*
X18190Y32620D01*
X18080Y32574D01*
X17986Y32502D01*
X17914Y32408D01*
X17869Y32299D01*
X17853Y32181D01*
X17869Y32064D01*
X17914Y31954D01*
X17986Y31860D01*
X18080Y31788D01*
X18190Y31743D01*
X18307Y31727D01*
X18425Y31743D01*
X18534Y31788D01*
X18628Y31860D01*
X18700Y31954D01*
X18745Y32064D01*
X18761Y32181D01*
X18745Y32299D01*
X18700Y32408D01*
X18628Y32502D01*
X18534Y32574D01*
X18425Y32620D01*
X18307Y32635D01*
D02*
G37*
%LPD*%
G36*
X34854Y13441D02*
X34743Y13330D01*
Y12934D01*
X34939Y12738D01*
X34743Y12542D01*
Y12299D01*
X34696Y12280D01*
X34448Y12528D01*
X34399Y12561D01*
X34340Y12573D01*
X32930D01*
X32871Y12561D01*
X32822Y12528D01*
X32499Y12205D01*
X32453Y12225D01*
Y13137D01*
X32803Y13487D01*
X34835D01*
X34854Y13441D01*
D02*
G37*
G36*
X40287Y31961D02*
X40301Y31917D01*
X38567Y30183D01*
X37825D01*
X37805Y30229D01*
X39543Y31967D01*
X40282D01*
X40287Y31961D01*
D02*
G37*
G36*
X40793Y13600D02*
X40843Y13567D01*
X40902Y13556D01*
X41282D01*
X41313Y13518D01*
X41295Y13475D01*
X41282Y13370D01*
X41295Y13266D01*
X41336Y13168D01*
X41400Y13085D01*
X41483Y13021D01*
X41581Y12980D01*
X41685Y12967D01*
X41789Y12980D01*
X41887Y13021D01*
X41937Y13059D01*
X41987Y13035D01*
Y12706D01*
X41937Y12681D01*
X41887Y12719D01*
X41789Y12760D01*
X41685Y12774D01*
X41581Y12760D01*
X41532Y12740D01*
X40013Y14258D01*
X39964Y14291D01*
X39905Y14303D01*
X38472D01*
X37771Y15004D01*
X37791Y15053D01*
X37805Y15157D01*
X37791Y15262D01*
X37751Y15359D01*
X37687Y15443D01*
X37603Y15507D01*
X37562Y15524D01*
Y15578D01*
X37603Y15595D01*
X37687Y15660D01*
X37751Y15743D01*
X37771Y15792D01*
X38602D01*
X40793Y13600D01*
D02*
G37*
G36*
X36127Y21917D02*
Y21792D01*
X34173Y19838D01*
X33440D01*
X33420Y19887D01*
X33356Y19970D01*
X33273Y20034D01*
X33231Y20052D01*
Y20106D01*
X33273Y20123D01*
X33356Y20187D01*
X33420Y20271D01*
X33440Y20319D01*
X34400D01*
X34459Y20331D01*
X34508Y20364D01*
X36080Y21937D01*
X36127Y21917D01*
D02*
G37*
G36*
X48187Y17701D02*
X48148Y17669D01*
X48130Y17673D01*
X37771D01*
X37751Y17721D01*
X37687Y17805D01*
X37603Y17869D01*
X37562Y17886D01*
Y17940D01*
X37603Y17958D01*
X37687Y18022D01*
X37751Y18105D01*
X37771Y18154D01*
X48187D01*
Y17701D01*
D02*
G37*
G36*
X37274Y29317D02*
X37200Y29286D01*
X37116Y29222D01*
X37052Y29139D01*
X37012Y29041D01*
X36998Y28937D01*
X37012Y28833D01*
X37052Y28735D01*
X37116Y28652D01*
X37200Y28588D01*
X37241Y28570D01*
Y28516D01*
X37200Y28499D01*
X37116Y28435D01*
X37052Y28351D01*
X37012Y28254D01*
X36998Y28150D01*
X37012Y28045D01*
X37052Y27948D01*
X37116Y27864D01*
X37200Y27800D01*
X37241Y27783D01*
Y27729D01*
X37200Y27712D01*
X37116Y27647D01*
X37052Y27564D01*
X37012Y27467D01*
X36998Y27362D01*
X37012Y27258D01*
X37052Y27160D01*
X37116Y27077D01*
X37200Y27013D01*
X37241Y26996D01*
Y26941D01*
X37200Y26924D01*
X37116Y26860D01*
X37052Y26777D01*
X37012Y26679D01*
X36998Y26575D01*
X37012Y26470D01*
X37052Y26373D01*
X37116Y26290D01*
X37192Y26231D01*
X37191Y26202D01*
X37182Y26179D01*
X37154Y26173D01*
X37071Y26118D01*
X37016Y26035D01*
X36997Y25937D01*
Y25637D01*
X37016Y25540D01*
X37071Y25457D01*
X37154Y25402D01*
X37182Y25396D01*
X37191Y25373D01*
X37192Y25343D01*
X37116Y25285D01*
X37052Y25202D01*
X37012Y25104D01*
X36998Y25000D01*
X37012Y24896D01*
X37052Y24798D01*
X37116Y24715D01*
X37200Y24651D01*
X37241Y24633D01*
Y24579D01*
X37200Y24562D01*
X37116Y24498D01*
X37052Y24414D01*
X37012Y24317D01*
X36998Y24213D01*
X37012Y24108D01*
X37052Y24011D01*
X37116Y23927D01*
X37200Y23863D01*
X37297Y23823D01*
X37402Y23809D01*
X37506Y23823D01*
X37603Y23863D01*
X37687Y23927D01*
X37751Y24011D01*
X37791Y24108D01*
X37805Y24213D01*
X37791Y24317D01*
X37751Y24414D01*
X37687Y24498D01*
X37603Y24562D01*
X37562Y24579D01*
Y24633D01*
X37603Y24651D01*
X37687Y24715D01*
X37751Y24798D01*
X37791Y24896D01*
X37805Y25000D01*
X37791Y25104D01*
X37751Y25202D01*
X37687Y25285D01*
X37611Y25343D01*
X37612Y25373D01*
X37621Y25396D01*
X37649Y25402D01*
X37732Y25457D01*
X37787Y25540D01*
X37806Y25637D01*
Y25937D01*
X37800Y25970D01*
X39308Y27477D01*
X41397D01*
X41414Y27430D01*
X41400Y27419D01*
X41336Y27336D01*
X41295Y27238D01*
X41282Y27134D01*
X41295Y27029D01*
X41316Y26981D01*
X37004Y22669D01*
X36595D01*
X36537Y22657D01*
X36487Y22624D01*
X36229Y22366D01*
X36183Y22385D01*
Y28737D01*
X36813Y29367D01*
X37264D01*
X37274Y29317D01*
D02*
G37*
G36*
X23464Y23537D02*
X23461Y23530D01*
X23447Y23425D01*
X23461Y23321D01*
X23501Y23223D01*
X23565Y23140D01*
X23649Y23076D01*
X23746Y23036D01*
X23850Y23022D01*
X23955Y23036D01*
X24052Y23076D01*
X24136Y23140D01*
X24200Y23223D01*
X24207Y23241D01*
X24257Y23231D01*
Y22803D01*
X23937Y22483D01*
X23200D01*
X23141Y22471D01*
X23092Y22438D01*
X21797Y21143D01*
X20177D01*
X20152Y21193D01*
X20200Y21255D01*
X20240Y21352D01*
X20254Y21457D01*
X20246Y21517D01*
X20290Y21567D01*
X21360D01*
X21419Y21579D01*
X21468Y21612D01*
X23421Y23565D01*
X23464Y23537D01*
D02*
G37*
G36*
X35207Y23902D02*
Y23612D01*
X33499Y21904D01*
X33456Y21932D01*
X33461Y21943D01*
X33474Y22047D01*
X33461Y22152D01*
X33440Y22200D01*
X35161Y23921D01*
X35207Y23902D01*
D02*
G37*
G36*
X19536Y28397D02*
X19501Y28351D01*
X19461Y28254D01*
X19447Y28150D01*
X19461Y28045D01*
X19501Y27948D01*
X19550Y27884D01*
X19525Y27834D01*
X18671D01*
X18646Y27884D01*
X18700Y27954D01*
X18745Y28064D01*
X18761Y28181D01*
X18745Y28299D01*
X18715Y28373D01*
X18789Y28447D01*
X19511D01*
X19536Y28397D01*
D02*
G37*
G36*
X23536D02*
X23501Y28351D01*
X23461Y28254D01*
X23447Y28150D01*
X23461Y28045D01*
X23501Y27948D01*
X23550Y27884D01*
X23525Y27834D01*
X20175D01*
X20151Y27884D01*
X20200Y27948D01*
X20240Y28045D01*
X20254Y28150D01*
X20240Y28254D01*
X20200Y28351D01*
X20165Y28397D01*
X20189Y28447D01*
X23511D01*
X23536Y28397D01*
D02*
G37*
G36*
X41316Y28287D02*
X41295Y28238D01*
X41282Y28134D01*
X41295Y28029D01*
X41336Y27932D01*
X41400Y27849D01*
X41420Y27833D01*
X41403Y27783D01*
X39244D01*
X39186Y27771D01*
X39136Y27738D01*
X37829Y26431D01*
X37787Y26460D01*
X37791Y26470D01*
X37805Y26575D01*
X37791Y26679D01*
X37751Y26777D01*
X37687Y26860D01*
X37603Y26924D01*
X37562Y26941D01*
Y26996D01*
X37603Y27013D01*
X37687Y27077D01*
X37751Y27160D01*
X37791Y27258D01*
X37805Y27362D01*
X37791Y27467D01*
X37751Y27564D01*
X37687Y27647D01*
X37603Y27712D01*
X37562Y27729D01*
Y27783D01*
X37603Y27800D01*
X37687Y27864D01*
X37751Y27948D01*
X37791Y28045D01*
X37805Y28150D01*
X37791Y28254D01*
X37751Y28351D01*
X37687Y28435D01*
X37603Y28499D01*
X37562Y28516D01*
Y28570D01*
X37603Y28588D01*
X37687Y28652D01*
X37751Y28735D01*
X37791Y28833D01*
X37805Y28937D01*
X37791Y29041D01*
X37751Y29139D01*
X37687Y29222D01*
X37603Y29286D01*
X37529Y29317D01*
X37539Y29367D01*
X40236D01*
X41316Y28287D01*
D02*
G37*
G36*
X47987Y16706D02*
X47937Y16681D01*
X47887Y16719D01*
X47789Y16760D01*
X47685Y16774D01*
X47581Y16760D01*
X47532Y16740D01*
X47253Y17018D01*
X47204Y17051D01*
X47145Y17063D01*
X38710D01*
X38651Y17051D01*
X38602Y17018D01*
X38469Y16885D01*
X37806D01*
X37787Y16980D01*
X37732Y17063D01*
X37649Y17118D01*
X37621Y17123D01*
X37612Y17147D01*
X37611Y17176D01*
X37687Y17234D01*
X37751Y17318D01*
X37771Y17367D01*
X47987D01*
Y16706D01*
D02*
G37*
G36*
X25189Y25785D02*
X24625Y25221D01*
X24601Y25231D01*
X24510Y25243D01*
X24419Y25231D01*
X24333Y25196D01*
X24260Y25140D01*
X24204Y25067D01*
X24169Y24981D01*
X24157Y24890D01*
X24169Y24799D01*
X24204Y24713D01*
X24260Y24640D01*
X24333Y24584D01*
X24419Y24549D01*
X24510Y24537D01*
X24601Y24549D01*
X24654Y24571D01*
X24682Y24528D01*
X24537Y24383D01*
X23870D01*
X23811Y24371D01*
X23762Y24338D01*
X21297Y21873D01*
X20114D01*
X20065Y21863D01*
X20055Y21861D01*
X20006Y21828D01*
X20004Y21826D01*
X19955Y21846D01*
X19850Y21860D01*
X19746Y21846D01*
X19649Y21806D01*
X19565Y21742D01*
X19501Y21658D01*
X19461Y21561D01*
X19447Y21457D01*
X19461Y21352D01*
X19501Y21255D01*
X19549Y21193D01*
X19524Y21143D01*
X19423D01*
X18864Y21703D01*
X18814Y21736D01*
X18756Y21747D01*
X18671D01*
X18646Y21797D01*
X18700Y21868D01*
X18731Y21942D01*
X20882D01*
X20940Y21953D01*
X20990Y21986D01*
X24815Y25812D01*
X24864Y25791D01*
X24969Y25778D01*
X25073Y25791D01*
X25161Y25828D01*
X25189Y25785D01*
D02*
G37*
D10*
X19537Y10827D02*
X20310Y11600D01*
X17126Y10827D02*
X19537D01*
X19537Y10827D01*
X32300Y11630D02*
Y13200D01*
X47636Y29134D02*
X48140Y28630D01*
X47636Y29134D02*
X47685D01*
X42446Y21660D02*
X47679D01*
X42440D02*
X42446D01*
X43936Y23150D01*
X42440Y21654D02*
X42446Y21660D01*
X18307Y16340D02*
X19849D01*
X17600Y12715D02*
X18307Y12008D01*
X17600Y12715D02*
Y21194D01*
X18000Y21594D01*
X18756D01*
X19360Y20990D01*
X21860D01*
X23200Y22330D01*
X24000D01*
X24410Y22740D01*
Y23720D01*
X27490Y26800D01*
X29131D01*
X30677Y28346D01*
X18307Y31181D02*
X20008Y29480D01*
X25200D01*
X25750Y28930D01*
Y25380D02*
Y28930D01*
X24600Y24230D02*
X25750Y25380D01*
X23870Y24230D02*
X24600D01*
X21360Y21720D02*
X23870Y24230D01*
X20114Y21720D02*
X21360D01*
X19850Y21457D02*
X20114Y21720D01*
X19850Y14173D02*
X20310Y13714D01*
Y11600D02*
Y13714D01*
X17800Y28674D02*
X18307Y29181D01*
X17800Y27881D02*
Y28674D01*
Y27881D02*
X18000Y27681D01*
X24500D01*
X24969Y28150D01*
X18307Y28181D02*
X18726Y28600D01*
X25220D01*
X25420Y28400D01*
Y25800D02*
Y28400D01*
X24510Y24890D02*
X25420Y25800D01*
X18307Y16008D02*
Y16340D01*
X19849D02*
X19850Y16339D01*
X23503Y20560D02*
X24772Y19291D01*
X19400Y20560D02*
X23503D01*
X18866Y21094D02*
X19400Y20560D01*
X18307Y21094D02*
X18866D01*
X29408Y18550D02*
X30709Y19850D01*
X22340Y18550D02*
X29408D01*
X20850Y20040D02*
X22340Y18550D01*
X19215Y20040D02*
X20850D01*
X18661Y20594D02*
X19215Y20040D01*
X18000Y20594D02*
X18661D01*
X17800Y20394D02*
X18000Y20594D01*
X17800Y19602D02*
Y20394D01*
Y19602D02*
X18307Y19094D01*
X47675Y14380D02*
X47685Y14370D01*
X41695Y14380D02*
X47675D01*
X41685Y14370D02*
X41695Y14380D01*
X39905Y14150D02*
X41685Y12370D01*
X38409Y14150D02*
X39905D01*
X37402Y15157D02*
X38409Y14150D01*
X37402Y15945D02*
X38665D01*
X40902Y13708D01*
X41347D01*
X41685Y13370D01*
Y14370D02*
X42140Y13915D01*
Y12000D02*
Y13915D01*
X42000Y11860D02*
X42140Y12000D01*
X40670Y11860D02*
X42000D01*
X40070Y12460D02*
X40670Y11860D01*
X37160Y12460D02*
X40070D01*
X36570Y11870D02*
X37160Y12460D01*
X34890Y11870D02*
X36570D01*
X34340Y12420D02*
X34890Y11870D01*
X32930Y12420D02*
X34340D01*
X32510Y12000D02*
X32930Y12420D01*
X32510Y11400D02*
Y12000D01*
X32280Y11170D02*
X32510Y11400D01*
X31474Y11170D02*
X32280D01*
X31030Y11614D02*
X31474Y11170D01*
X30512Y11614D02*
X31030D01*
X42434Y21654D02*
X42440D01*
X43936Y23150D02*
X47890D01*
X48140Y23400D01*
Y28630D01*
X46564Y29134D02*
X47636D01*
X46560Y29130D02*
X46564Y29134D01*
X41685D02*
X42126D01*
X41685Y21654D02*
X42434D01*
X42440Y21660D01*
X47679D02*
X47685Y21654D01*
X42130Y29130D02*
X46560D01*
X42126Y29134D02*
X42130Y29130D01*
X37402Y18307D02*
X48333D01*
X48340Y18300D01*
Y14025D02*
Y18300D01*
X47685Y13370D02*
X48340Y14025D01*
X37402Y17520D02*
X48130D01*
X48140Y17510D01*
Y15825D02*
Y17510D01*
X47685Y15370D02*
X48140Y15825D01*
X37402Y16732D02*
X38532D01*
X38710Y16910D01*
X47145D01*
X47685Y16370D01*
X36720Y22070D02*
X37960D01*
X39050Y23160D01*
X41192D01*
X41685Y23654D01*
X36790Y21200D02*
X40231D01*
X41685Y22654D01*
X33071Y19685D02*
X34236D01*
X36279Y21728D01*
Y22200D01*
X36595Y22516D01*
X37067D01*
X41685Y27134D01*
X43709Y27630D02*
X47685Y23654D01*
X39244Y27630D02*
X43709D01*
X37402Y25787D02*
X39244Y27630D01*
X33071Y21260D02*
X35360Y23549D01*
Y28940D01*
X36450Y30030D01*
X38630D01*
X40420Y31820D01*
X46999D01*
X47685Y31134D01*
X33071Y22047D02*
X35130Y24106D01*
Y29400D01*
X36020Y30290D01*
X37650D01*
X39480Y32120D01*
X47620D01*
X48140Y31600D01*
Y30589D02*
Y31600D01*
X47685Y30134D02*
X48140Y30589D01*
X40299Y29520D02*
X41685Y28134D01*
X36750Y29520D02*
X40299D01*
X36030Y28800D02*
X36750Y29520D01*
X36030Y22102D02*
Y28800D01*
X34400Y20472D02*
X36030Y22102D01*
X33071Y20472D02*
X34400D01*
X28060Y17050D02*
X28772Y16339D01*
X24562Y17050D02*
X28060D01*
X23850Y16339D02*
X24562Y17050D01*
X28772Y21457D02*
X28969Y21654D01*
Y23425D01*
X29394Y23850D02*
X30709D01*
X28969Y23425D02*
X29394Y23850D01*
X32534Y28346D02*
X34677D01*
X32010Y28870D02*
X32534Y28346D01*
X29689Y28870D02*
X32010D01*
X28969Y28150D02*
X29689Y28870D01*
X28772Y14173D02*
Y16339D01*
X29310Y15800D01*
X33548D01*
X34087Y16339D01*
X35614Y13640D02*
X36122Y13132D01*
X32740Y13640D02*
X35614D01*
X32300Y13200D02*
X32740Y13640D01*
X31890Y11630D02*
X32300D01*
X21290Y15490D02*
X24772Y12008D01*
X21290Y15490D02*
Y17112D01*
X18307Y20094D02*
X21290Y17112D01*
X20882Y22094D02*
X24969Y26181D01*
X18307Y22094D02*
X20882D01*
X19109Y25440D02*
X19850Y26181D01*
X18653Y25440D02*
X19109D01*
X18307Y25094D02*
X18653Y25440D01*
D11*
X33071Y21260D02*
D03*
X37402Y25787D02*
D03*
Y16732D02*
D03*
D12*
X33071Y22047D02*
D03*
Y22835D02*
D03*
Y20472D02*
D03*
Y23622D02*
D03*
Y19685D02*
D03*
Y24409D02*
D03*
X23850Y30315D02*
D03*
X19850D02*
D03*
X23850Y28150D02*
D03*
X19850D02*
D03*
X23850Y26181D02*
D03*
X19850D02*
D03*
X23850Y23425D02*
D03*
X19850D02*
D03*
X23850Y21457D02*
D03*
X19850D02*
D03*
X23850Y19291D02*
D03*
X19850D02*
D03*
X23850Y16339D02*
D03*
X19850D02*
D03*
X23850Y14173D02*
D03*
X19850D02*
D03*
X23850Y12008D02*
D03*
X19850D02*
D03*
X28969Y30315D02*
D03*
X24969D02*
D03*
X28969Y28150D02*
D03*
X24969D02*
D03*
X28969Y26181D02*
D03*
X24969D02*
D03*
X28969Y23425D02*
D03*
X24969D02*
D03*
X28772Y21457D02*
D03*
X24772D02*
D03*
X28772Y19291D02*
D03*
X24772D02*
D03*
X28772Y16339D02*
D03*
X24772D02*
D03*
X28772Y14173D02*
D03*
X24772D02*
D03*
X28772Y12008D02*
D03*
X24772D02*
D03*
X34677Y28346D02*
D03*
X30677D02*
D03*
X34087Y16339D02*
D03*
X30087D02*
D03*
X30709Y23850D02*
D03*
Y19850D02*
D03*
X47685Y23654D02*
D03*
Y22654D02*
D03*
Y21654D02*
D03*
Y20654D02*
D03*
Y19654D02*
D03*
X41685Y23654D02*
D03*
Y22654D02*
D03*
Y21654D02*
D03*
Y20654D02*
D03*
Y19654D02*
D03*
X47685Y31134D02*
D03*
Y30134D02*
D03*
Y29134D02*
D03*
Y28134D02*
D03*
Y27134D02*
D03*
X41685Y31134D02*
D03*
Y30134D02*
D03*
Y29134D02*
D03*
Y28134D02*
D03*
Y27134D02*
D03*
X37402Y26575D02*
D03*
Y27362D02*
D03*
Y25000D02*
D03*
Y28150D02*
D03*
Y24213D02*
D03*
Y28937D02*
D03*
X47685Y16370D02*
D03*
Y15370D02*
D03*
Y14370D02*
D03*
Y13370D02*
D03*
Y12370D02*
D03*
X41685Y16370D02*
D03*
Y15370D02*
D03*
Y14370D02*
D03*
Y13370D02*
D03*
Y12370D02*
D03*
X37402Y17520D02*
D03*
Y18307D02*
D03*
Y15945D02*
D03*
Y19094D02*
D03*
Y15157D02*
D03*
Y19882D02*
D03*
D13*
X18307Y16008D02*
D03*
Y14008D02*
D03*
Y13008D02*
D03*
Y12008D02*
D03*
Y15008D02*
D03*
Y17008D02*
D03*
Y18008D02*
D03*
Y23094D02*
D03*
Y21094D02*
D03*
Y20094D02*
D03*
Y19094D02*
D03*
Y22094D02*
D03*
Y24094D02*
D03*
Y25094D02*
D03*
Y30181D02*
D03*
Y28181D02*
D03*
Y27181D02*
D03*
Y26181D02*
D03*
Y29181D02*
D03*
Y31181D02*
D03*
Y32181D02*
D03*
D14*
X32480Y31709D02*
D03*
Y30709D02*
D03*
X30512Y10614D02*
D03*
Y11614D02*
D03*
X31890Y11630D02*
D03*
Y10630D02*
D03*
D15*
X37520Y32697D02*
D03*
X34646D02*
D03*
D16*
X36693Y30709D02*
D03*
X36378Y31181D02*
D03*
X36063Y30709D02*
D03*
X35748Y31181D02*
D03*
X35433Y30709D02*
D03*
D17*
X35138Y12344D02*
D03*
Y13132D02*
D03*
X36122D02*
D03*
Y12344D02*
D03*
D18*
X38000Y11278D02*
D03*
X33260D02*
D03*
D19*
X17126Y10827D02*
D03*
X24510Y24890D02*
D03*
X36720Y22070D02*
D03*
X36790Y21200D02*
D03*
M02*
