G04 Layer_Color=15132400*
%FSLAX24Y24*%
%MOIN*%
G70*
G01*
G75*
%ADD10C,0.0100*%
%ADD20C,0.0157*%
%ADD21C,0.0079*%
%ADD22C,0.0039*%
D10*
X20600Y30815D02*
X23100D01*
Y29815D02*
Y30815D01*
X20600Y29815D02*
Y30815D01*
Y29815D02*
X23100D01*
X20600Y28650D02*
X23100D01*
Y27650D02*
Y28650D01*
X20600Y27650D02*
Y28650D01*
Y27650D02*
X23100D01*
X20600Y26681D02*
X23100D01*
Y25681D02*
Y26681D01*
X20600Y25681D02*
Y26681D01*
Y25681D02*
X23100D01*
X20600Y23925D02*
X23100D01*
Y22925D02*
Y23925D01*
X20600Y22925D02*
Y23925D01*
Y22925D02*
X23100D01*
X20600Y21957D02*
X23100D01*
Y20957D02*
Y21957D01*
X20600Y20957D02*
Y21957D01*
Y20957D02*
X23100D01*
X20600Y19791D02*
X23100D01*
Y18791D02*
Y19791D01*
X20600Y18791D02*
Y19791D01*
Y18791D02*
X23100D01*
X20600Y16839D02*
X23100D01*
Y15839D02*
Y16839D01*
X20600Y15839D02*
Y16839D01*
Y15839D02*
X23100D01*
X20600Y14673D02*
X23100D01*
Y13673D02*
Y14673D01*
X20600Y13673D02*
Y14673D01*
Y13673D02*
X23100D01*
X20600Y12508D02*
X23100D01*
Y11508D02*
Y12508D01*
X20600Y11508D02*
Y12508D01*
Y11508D02*
X23100D01*
X25719Y30815D02*
X28219D01*
Y29815D02*
Y30815D01*
X25719Y29815D02*
Y30815D01*
Y29815D02*
X28219D01*
X25719Y28650D02*
X28219D01*
Y27650D02*
Y28650D01*
X25719Y27650D02*
Y28650D01*
Y27650D02*
X28219D01*
X25719Y26681D02*
X28219D01*
Y25681D02*
Y26681D01*
X25719Y25681D02*
Y26681D01*
Y25681D02*
X28219D01*
X25719Y23925D02*
X28219D01*
Y22925D02*
Y23925D01*
X25719Y22925D02*
Y23925D01*
Y22925D02*
X28219D01*
X25522Y21957D02*
X28022D01*
Y20957D02*
Y21957D01*
X25522Y20957D02*
Y21957D01*
Y20957D02*
X28022D01*
X25522Y19791D02*
X28022D01*
Y18791D02*
Y19791D01*
X25522Y18791D02*
Y19791D01*
Y18791D02*
X28022D01*
X25522Y16839D02*
X28022D01*
Y15839D02*
Y16839D01*
X25522Y15839D02*
Y16839D01*
Y15839D02*
X28022D01*
X25522Y14673D02*
X28022D01*
Y13673D02*
Y14673D01*
X25522Y13673D02*
Y14673D01*
Y13673D02*
X28022D01*
X25522Y12508D02*
X28022D01*
Y11508D02*
Y12508D01*
X25522Y11508D02*
Y12508D01*
Y11508D02*
X28022D01*
X31427Y28846D02*
X33927D01*
Y27846D02*
Y28846D01*
X31427Y27846D02*
Y28846D01*
Y27846D02*
X33927D01*
X30837Y16839D02*
X33337D01*
Y15839D02*
Y16839D01*
X30837Y15839D02*
Y16839D01*
Y15839D02*
X33337D01*
X30209Y20600D02*
Y23100D01*
X31209D01*
X30209Y20600D02*
X31209D01*
Y23100D01*
X32480Y30209D02*
X32980D01*
Y32209D01*
X31980D02*
X32980D01*
X31980Y30209D02*
Y32209D01*
Y30209D02*
X32480D01*
X30012Y12114D02*
X30512D01*
X30012Y10114D02*
Y12114D01*
Y10114D02*
X31012D01*
Y12114D01*
X30512D02*
X31012D01*
X31890Y10130D02*
X32390D01*
Y12130D01*
X31390D02*
X32390D01*
X31390Y10130D02*
Y12130D01*
Y10130D02*
X31890D01*
X28740Y13198D02*
Y12598D01*
X29140D01*
X29740Y13198D02*
X29340D01*
Y12598D01*
X29740D01*
X29340Y12898D02*
X29540D01*
X29940Y13198D02*
Y12598D01*
X30240D01*
X30340Y12698D01*
Y13098D01*
X30240Y13198D01*
X29940D01*
X30939Y13098D02*
X30839Y13198D01*
X30640D01*
X30540Y13098D01*
Y12998D01*
X30640Y12898D01*
X30839D01*
X30939Y12798D01*
Y12698D01*
X30839Y12598D01*
X30640D01*
X30540Y12698D01*
X28150Y10433D02*
Y11033D01*
X28450D01*
X28549Y10933D01*
Y10733D01*
X28450Y10633D01*
X28150D01*
X28350D02*
X28549Y10433D01*
X29149Y11033D02*
X28749D01*
Y10433D01*
X29149D01*
X28749Y10733D02*
X28949D01*
X29749Y10933D02*
X29649Y11033D01*
X29449D01*
X29349Y10933D01*
Y10833D01*
X29449Y10733D01*
X29649D01*
X29749Y10633D01*
Y10533D01*
X29649Y10433D01*
X29449D01*
X29349Y10533D01*
X34252Y24606D02*
X34452D01*
X34352D01*
Y25206D01*
X34252Y25106D01*
X19298Y18710D02*
X19098D01*
X19198D01*
Y18210D01*
X19098Y18110D01*
X18998D01*
X18898Y18210D01*
X19897Y18110D02*
X19497D01*
X19897Y18510D01*
Y18610D01*
X19797Y18710D01*
X19597D01*
X19497Y18610D01*
X19298Y25600D02*
X19098D01*
X19198D01*
Y25100D01*
X19098Y25000D01*
X18998D01*
X18898Y25100D01*
X19897Y25600D02*
X19697Y25500D01*
X19497Y25300D01*
Y25100D01*
X19597Y25000D01*
X19797D01*
X19897Y25100D01*
Y25200D01*
X19797Y25300D01*
X19497D01*
X19298Y32686D02*
X19098D01*
X19198D01*
Y32187D01*
X19098Y32087D01*
X18998D01*
X18898Y32187D01*
X19797Y32087D02*
Y32686D01*
X19497Y32387D01*
X19897D01*
X19613Y31162D02*
Y31762D01*
X19913D01*
X20013Y31662D01*
Y31462D01*
X19913Y31362D01*
X19613D01*
X19813D02*
X20013Y31162D01*
X20213D02*
X20413D01*
X20313D01*
Y31762D01*
X20213Y31662D01*
X19613Y28998D02*
Y29598D01*
X19913D01*
X20013Y29498D01*
Y29298D01*
X19913Y29198D01*
X19613D01*
X19813D02*
X20013Y28998D01*
X20613D02*
X20213D01*
X20613Y29398D01*
Y29498D01*
X20513Y29598D01*
X20313D01*
X20213Y29498D01*
X19613Y27035D02*
Y27634D01*
X19913D01*
X20013Y27534D01*
Y27335D01*
X19913Y27235D01*
X19613D01*
X19813D02*
X20013Y27035D01*
X20213Y27534D02*
X20313Y27634D01*
X20513D01*
X20613Y27534D01*
Y27435D01*
X20513Y27335D01*
X20413D01*
X20513D01*
X20613Y27235D01*
Y27135D01*
X20513Y27035D01*
X20313D01*
X20213Y27135D01*
X19613Y24270D02*
Y24870D01*
X19913D01*
X20013Y24770D01*
Y24570D01*
X19913Y24470D01*
X19613D01*
X19813D02*
X20013Y24270D01*
X20513D02*
Y24870D01*
X20213Y24570D01*
X20613D01*
X19613Y22304D02*
Y22903D01*
X19913D01*
X20013Y22803D01*
Y22603D01*
X19913Y22503D01*
X19613D01*
X19813D02*
X20013Y22304D01*
X20613Y22903D02*
X20213D01*
Y22603D01*
X20413Y22703D01*
X20513D01*
X20613Y22603D01*
Y22404D01*
X20513Y22304D01*
X20313D01*
X20213Y22404D01*
X19613Y20143D02*
Y20743D01*
X19913D01*
X20013Y20643D01*
Y20443D01*
X19913Y20343D01*
X19613D01*
X19813D02*
X20013Y20143D01*
X20613Y20743D02*
X20413Y20643D01*
X20213Y20443D01*
Y20243D01*
X20313Y20143D01*
X20513D01*
X20613Y20243D01*
Y20343D01*
X20513Y20443D01*
X20213D01*
X19613Y17192D02*
Y17792D01*
X19913D01*
X20013Y17692D01*
Y17492D01*
X19913Y17392D01*
X19613D01*
X19813D02*
X20013Y17192D01*
X20213Y17792D02*
X20613D01*
Y17692D01*
X20213Y17292D01*
Y17192D01*
X19613Y15028D02*
Y15628D01*
X19913D01*
X20013Y15528D01*
Y15328D01*
X19913Y15228D01*
X19613D01*
X19813D02*
X20013Y15028D01*
X20213Y15528D02*
X20313Y15628D01*
X20513D01*
X20613Y15528D01*
Y15428D01*
X20513Y15328D01*
X20613Y15228D01*
Y15128D01*
X20513Y15028D01*
X20313D01*
X20213Y15128D01*
Y15228D01*
X20313Y15328D01*
X20213Y15428D01*
Y15528D01*
X20313Y15328D02*
X20513D01*
X19613Y12858D02*
Y13457D01*
X19913D01*
X20013Y13357D01*
Y13158D01*
X19913Y13058D01*
X19613D01*
X19813D02*
X20013Y12858D01*
X20213Y12958D02*
X20313Y12858D01*
X20513D01*
X20613Y12958D01*
Y13357D01*
X20513Y13457D01*
X20313D01*
X20213Y13357D01*
Y13257D01*
X20313Y13158D01*
X20613D01*
X24732Y31160D02*
Y31760D01*
X25031D01*
X25131Y31660D01*
Y31460D01*
X25031Y31360D01*
X24732D01*
X24931D02*
X25131Y31160D01*
X25331D02*
X25531D01*
X25431D01*
Y31760D01*
X25331Y31660D01*
X25831D02*
X25931Y31760D01*
X26131D01*
X26231Y31660D01*
Y31260D01*
X26131Y31160D01*
X25931D01*
X25831Y31260D01*
Y31660D01*
X24732Y29000D02*
Y29600D01*
X25031D01*
X25131Y29500D01*
Y29300D01*
X25031Y29200D01*
X24732D01*
X24931D02*
X25131Y29000D01*
X25331D02*
X25531D01*
X25431D01*
Y29600D01*
X25331Y29500D01*
X25831Y29000D02*
X26031D01*
X25931D01*
Y29600D01*
X25831Y29500D01*
X24732Y27027D02*
Y27627D01*
X25031D01*
X25131Y27527D01*
Y27327D01*
X25031Y27227D01*
X24732D01*
X24931D02*
X25131Y27027D01*
X25331D02*
X25531D01*
X25431D01*
Y27627D01*
X25331Y27527D01*
X26231Y27027D02*
X25831D01*
X26231Y27427D01*
Y27527D01*
X26131Y27627D01*
X25931D01*
X25831Y27527D01*
X24732Y24276D02*
Y24876D01*
X25031D01*
X25131Y24776D01*
Y24576D01*
X25031Y24476D01*
X24732D01*
X24931D02*
X25131Y24276D01*
X25331D02*
X25531D01*
X25431D01*
Y24876D01*
X25331Y24776D01*
X25831D02*
X25931Y24876D01*
X26131D01*
X26231Y24776D01*
Y24676D01*
X26131Y24576D01*
X26031D01*
X26131D01*
X26231Y24476D01*
Y24376D01*
X26131Y24276D01*
X25931D01*
X25831Y24376D01*
X24535Y22303D02*
Y22903D01*
X24835D01*
X24935Y22803D01*
Y22603D01*
X24835Y22503D01*
X24535D01*
X24735D02*
X24935Y22303D01*
X25134D02*
X25334D01*
X25234D01*
Y22903D01*
X25134Y22803D01*
X25934Y22303D02*
Y22903D01*
X25634Y22603D01*
X26034D01*
X24535Y20143D02*
Y20743D01*
X24835D01*
X24935Y20643D01*
Y20443D01*
X24835Y20343D01*
X24535D01*
X24735D02*
X24935Y20143D01*
X25134D02*
X25334D01*
X25234D01*
Y20743D01*
X25134Y20643D01*
X26034Y20743D02*
X25634D01*
Y20443D01*
X25834Y20543D01*
X25934D01*
X26034Y20443D01*
Y20243D01*
X25934Y20143D01*
X25734D01*
X25634Y20243D01*
X24535Y17186D02*
Y17786D01*
X24835D01*
X24935Y17686D01*
Y17486D01*
X24835Y17386D01*
X24535D01*
X24735D02*
X24935Y17186D01*
X25134D02*
X25334D01*
X25234D01*
Y17786D01*
X25134Y17686D01*
X26034Y17786D02*
X25834Y17686D01*
X25634Y17486D01*
Y17286D01*
X25734Y17186D01*
X25934D01*
X26034Y17286D01*
Y17386D01*
X25934Y17486D01*
X25634D01*
X24535Y15023D02*
Y15622D01*
X24835D01*
X24935Y15522D01*
Y15323D01*
X24835Y15223D01*
X24535D01*
X24735D02*
X24935Y15023D01*
X25134D02*
X25334D01*
X25234D01*
Y15622D01*
X25134Y15522D01*
X25634Y15622D02*
X26034D01*
Y15522D01*
X25634Y15123D01*
Y15023D01*
X24535Y12857D02*
Y13457D01*
X24835D01*
X24935Y13357D01*
Y13157D01*
X24835Y13057D01*
X24535D01*
X24735D02*
X24935Y12857D01*
X25134D02*
X25334D01*
X25234D01*
Y13457D01*
X25134Y13357D01*
X25634D02*
X25734Y13457D01*
X25934D01*
X26034Y13357D01*
Y13257D01*
X25934Y13157D01*
X26034Y13057D01*
Y12957D01*
X25934Y12857D01*
X25734D01*
X25634Y12957D01*
Y13057D01*
X25734Y13157D01*
X25634Y13257D01*
Y13357D01*
X25734Y13157D02*
X25934D01*
X30440Y29195D02*
Y29794D01*
X30740D01*
X30840Y29694D01*
Y29495D01*
X30740Y29395D01*
X30440D01*
X30640D02*
X30840Y29195D01*
X31040D02*
X31240D01*
X31140D01*
Y29794D01*
X31040Y29694D01*
X31540Y29295D02*
X31640Y29195D01*
X31840D01*
X31940Y29295D01*
Y29694D01*
X31840Y29794D01*
X31640D01*
X31540Y29694D01*
Y29595D01*
X31640Y29495D01*
X31940D01*
X29850Y17192D02*
Y17792D01*
X30150D01*
X30249Y17692D01*
Y17492D01*
X30150Y17392D01*
X29850D01*
X30050D02*
X30249Y17192D01*
X30849D02*
X30449D01*
X30849Y17592D01*
Y17692D01*
X30749Y17792D01*
X30549D01*
X30449Y17692D01*
X31049D02*
X31149Y17792D01*
X31349D01*
X31449Y17692D01*
Y17292D01*
X31349Y17192D01*
X31149D01*
X31049Y17292D01*
Y17692D01*
X30261Y24486D02*
Y25086D01*
X30561D01*
X30661Y24986D01*
Y24786D01*
X30561Y24686D01*
X30261D01*
X30461D02*
X30661Y24486D01*
X31261D02*
X30861D01*
X31261Y24886D01*
Y24986D01*
X31161Y25086D01*
X30961D01*
X30861Y24986D01*
X31461Y24486D02*
X31661D01*
X31561D01*
Y25086D01*
X31461Y24986D01*
X32425Y33054D02*
X32325Y33153D01*
X32125D01*
X32025Y33054D01*
Y32654D01*
X32125Y32554D01*
X32325D01*
X32425Y32654D01*
Y32854D01*
X32225D01*
X32625Y32554D02*
Y33153D01*
X33025Y32554D01*
Y33153D01*
X33225D02*
Y32554D01*
X33525D01*
X33625Y32654D01*
Y33054D01*
X33525Y33153D01*
X33225D01*
X34478Y35193D02*
X34278D01*
X34378D01*
Y34694D01*
X34278Y34594D01*
X34178D01*
X34078Y34694D01*
X34678Y35094D02*
X34778Y35193D01*
X34978D01*
X35078Y35094D01*
Y34994D01*
X34978Y34894D01*
X34878D01*
X34978D01*
X35078Y34794D01*
Y34694D01*
X34978Y34594D01*
X34778D01*
X34678Y34694D01*
X31835Y13075D02*
X31435D01*
Y12775D01*
X31635Y12875D01*
X31735D01*
X31835Y12775D01*
Y12575D01*
X31735Y12475D01*
X31535D01*
X31435Y12575D01*
X32035Y13075D02*
Y12675D01*
X32234Y12475D01*
X32434Y12675D01*
Y13075D01*
X33125Y14600D02*
X32925D01*
X33025D01*
Y14100D01*
X32925Y14000D01*
X32825D01*
X32725Y14100D01*
X33725Y14600D02*
X33325D01*
Y14300D01*
X33525Y14400D01*
X33625D01*
X33725Y14300D01*
Y14100D01*
X33625Y14000D01*
X33425D01*
X33325Y14100D01*
X41423Y25557D02*
Y24957D01*
X41823D01*
X42423Y25557D02*
X42023D01*
Y24957D01*
X42423D01*
X42023Y25257D02*
X42223D01*
X42623Y25557D02*
Y24957D01*
X42923D01*
X43023Y25057D01*
Y25457D01*
X42923Y25557D01*
X42623D01*
X43622Y24957D02*
X43223D01*
X43622Y25357D01*
Y25457D01*
X43522Y25557D01*
X43323D01*
X43223Y25457D01*
X41426Y33033D02*
Y32434D01*
X41826D01*
X42426Y33033D02*
X42026D01*
Y32434D01*
X42426D01*
X42026Y32734D02*
X42226D01*
X42626Y33033D02*
Y32434D01*
X42926D01*
X43026Y32534D01*
Y32933D01*
X42926Y33033D01*
X42626D01*
X43226Y32434D02*
X43426D01*
X43326D01*
Y33033D01*
X43226Y32933D01*
X36236Y29100D02*
X35837D01*
X36236Y29500D01*
Y29600D01*
X36136Y29700D01*
X35937D01*
X35837Y29600D01*
X41417Y18277D02*
Y17677D01*
X41817D01*
X42417Y18277D02*
X42017D01*
Y17677D01*
X42417D01*
X42017Y17977D02*
X42217D01*
X42617Y18277D02*
Y17677D01*
X42917D01*
X43017Y17777D01*
Y18177D01*
X42917Y18277D01*
X42617D01*
X43217Y18177D02*
X43317Y18277D01*
X43517D01*
X43617Y18177D01*
Y18077D01*
X43517Y17977D01*
X43417D01*
X43517D01*
X43617Y17877D01*
Y17777D01*
X43517Y17677D01*
X43317D01*
X43217Y17777D01*
X35837Y20545D02*
X35937Y20644D01*
X36136D01*
X36236Y20545D01*
Y20445D01*
X36136Y20345D01*
X36037D01*
X36136D01*
X36236Y20245D01*
Y20145D01*
X36136Y20045D01*
X35937D01*
X35837Y20145D01*
D20*
X32283Y18898D02*
Y21654D01*
Y18898D02*
X33858D01*
Y25197D01*
X32283D02*
X33858D01*
X32283Y22441D02*
Y25197D01*
X36614Y23425D02*
Y26181D01*
Y23425D02*
X38189D01*
Y29724D01*
X36614D02*
X38189D01*
X36614Y26969D02*
Y29724D01*
Y14370D02*
Y17126D01*
Y14370D02*
X38189D01*
Y20669D01*
X36614D02*
X38189D01*
X36614Y17913D02*
Y20669D01*
D21*
X37677Y33268D02*
Y33386D01*
X34449D02*
X37677D01*
X34449Y33268D02*
Y33386D01*
X37677Y30394D02*
Y32087D01*
X34449Y30394D02*
X37677D01*
X34449D02*
Y32087D01*
Y33386D02*
Y34213D01*
X37677D01*
Y33386D02*
Y34213D01*
D22*
X30131Y12597D02*
X30066D01*
X30098D01*
Y12433D01*
X30066Y12400D01*
X30033D01*
X30000Y12433D01*
X30197Y12400D02*
X30262D01*
X30230D01*
Y12597D01*
X30197Y12564D01*
M02*
