M48
;Layer_Color=6321
;FILE_FORMAT=2:4
INCH,LZ
;TYPE=PLATED
T1F00S00C0.0200
T2F00S00C0.0250
T3F00S00C0.0276
T4F00S00C0.0280
T5F00S00C0.0300
T6F00S00C0.0315
T7F00S00C0.0362
T8F00S00C0.0400
T9F00S00C0.0748
T10F00S00C0.0756
T11F00S00C0.0906
;TYPE=NON_PLATED
%
T01
X030512Y010614
Y011614
X03189Y01163
Y01063
X03248Y030709
Y031709
T02
X01985Y012008
Y014173
X02385
X024772
Y012008
X02385
X028772
Y014173
X034087Y016339
X034677Y028346
X030677
X028969Y02815
Y026181
Y023425
X028772Y021457
Y019291
X030709Y01985
Y02385
X024969Y023425
X02385
Y021457
X024772
Y019291
X02385
Y016339
X024772
X028772
X030087
X01985
Y019291
Y021457
Y023425
Y026181
Y02815
Y030315
X02385
X024969
Y02815
X02385
Y026181
X024969
X028969Y030315
T03
X035433Y030709
X036063
X036693
X036378Y031181
X035748
T04
X017126Y010827
X03679Y0212
X03672Y02207
X02451Y02489
T05
X037402Y015157
X041685Y01537
Y01437
Y01337
Y01237
X047685
Y01337
Y01437
Y01537
Y01637
Y019654
Y020654
Y021654
Y022654
Y023654
Y027134
Y028134
Y029134
Y030134
Y031134
X041685
Y030134
Y029134
Y028134
Y027134
Y023654
Y022654
Y021654
Y020654
Y019654
Y01637
X037402Y015945
Y019094
Y019882
Y024213
Y025
Y02815
Y028937
X033071Y024409
Y023622
Y020472
Y019685
T06
X037402Y016732
Y01752
Y018307
X033071Y02126
Y022047
Y022835
X037402Y025787
Y026575
Y027362
T07
X035138Y012344
Y013132
X036122
Y012344
T08
X018307Y012008
Y013008
Y014008
Y015008
Y016008
Y017008
Y018008
Y019094
Y020094
Y021094
Y022094
Y023094
Y024094
Y025094
Y026181
Y027181
Y028181
Y029181
Y030181
Y031181
Y032181
T09
X03752Y032697
T10
X034646Y032697
T11
X03326Y011278
X038
M30
