G04*
G04 #@! TF.GenerationSoftware,Altium Limited,CircuitMaker,2.2.0 (2.2.0.5)*
G04*
G04 Layer_Color=15132400*
%FSLAX25Y25*%
%MOIN*%
G70*
G04*
G04 #@! TF.SameCoordinates,81B0039B-3CC0-4BB0-BBFD-AD45440123D6*
G04*
G04*
G04 #@! TF.FilePolarity,Positive*
G04*
G01*
G75*
%ADD10C,0.00984*%
%ADD11C,0.01000*%
%ADD12C,0.00787*%
D10*
X248917Y173228D02*
G03*
X248917Y173228I-492J0D01*
G01*
D11*
X229528Y172835D02*
G03*
X229528Y172835I-394J0D01*
G01*
X276185Y210035D02*
Y293035D01*
X263185D02*
X276185D01*
X263185Y210035D02*
Y293035D01*
Y210035D02*
X276185D01*
X173823D02*
Y293035D01*
X160823D02*
X173823D01*
X160823Y210035D02*
Y293035D01*
Y210035D02*
X173823D01*
X226972D02*
Y293035D01*
X213972D02*
X226972D01*
X213972Y210035D02*
Y293035D01*
Y210035D02*
X226972D01*
X350331Y250972D02*
X358831D01*
X349831Y250472D02*
X350331Y250972D01*
X344831Y245472D02*
X349831Y250472D01*
X344831Y220972D02*
Y245472D01*
X358831Y250972D02*
X363831Y245972D01*
Y240472D02*
Y245972D01*
X344831Y208472D02*
X354331D01*
X344831D02*
Y220972D01*
X363831Y208472D02*
Y240472D01*
X354831Y208472D02*
X363831D01*
Y220472D02*
Y221972D01*
X354331Y208472D02*
X354831D01*
X273150Y120079D02*
X333150D01*
Y155512D01*
X273150D02*
X333150D01*
X273150Y120079D02*
Y155512D01*
X139291Y120079D02*
X199291D01*
Y155512D01*
X139291D02*
X199291D01*
X139291Y120079D02*
Y155512D01*
X206221Y120079D02*
X266220D01*
Y155512D01*
X206221D02*
X266220D01*
X206221Y120079D02*
Y155512D01*
X286839Y250996D02*
X295339D01*
X295839Y251496D01*
X300839Y256496D01*
Y280996D01*
X281839Y255996D02*
X286839Y250996D01*
X281839Y255996D02*
Y261496D01*
X291339Y293496D02*
X300839D01*
Y280996D02*
Y293496D01*
X281839Y261496D02*
Y293496D01*
X290839D01*
X281839Y279996D02*
Y281496D01*
X290839Y293496D02*
X291339D01*
X237626Y250996D02*
X246126D01*
X246626Y251496D01*
X251626Y256496D01*
Y280996D01*
X232626Y255996D02*
X237626Y250996D01*
X232626Y255996D02*
Y261496D01*
X242126Y293496D02*
X251626D01*
Y280996D02*
Y293496D01*
X232626Y261496D02*
Y293496D01*
X241626D01*
X232626Y279996D02*
Y281496D01*
X241626Y293496D02*
X242126D01*
X188413Y250996D02*
X196913D01*
X197413Y251496D01*
X202413Y256496D01*
Y280996D01*
X183413Y255996D02*
X188413Y250996D01*
X183413Y255996D02*
Y261496D01*
X192913Y293496D02*
X202413D01*
Y280996D02*
Y293496D01*
X183413Y261496D02*
Y293496D01*
X192413D01*
X183413Y279996D02*
Y281496D01*
X192413Y293496D02*
X192913D01*
X201181Y170079D02*
Y189370D01*
X227559Y170079D02*
X227559Y170079D01*
Y189370D01*
X201181D02*
X227559D01*
X201181Y168504D02*
X227559D01*
Y170079D01*
X201181Y168504D02*
Y170079D01*
X300120Y164416D02*
Y160418D01*
X302119Y158418D01*
X304118Y160418D01*
Y164416D01*
X306118Y161417D02*
X310117D01*
X308117Y163417D02*
Y159418D01*
X281434Y163417D02*
X280435Y164416D01*
X278435D01*
X277436Y163417D01*
Y159418D01*
X278435Y158418D01*
X280435D01*
X281434Y159418D01*
Y161417D01*
X279435D01*
X283434Y158418D02*
Y164416D01*
X287432Y158418D01*
Y164416D01*
X289432D02*
Y158418D01*
X292431D01*
X293430Y159418D01*
Y163417D01*
X292431Y164416D01*
X289432D01*
X231222D02*
Y160418D01*
X233221Y158418D01*
X235221Y160418D01*
Y164416D01*
X237220Y161417D02*
X241219D01*
X239219Y163417D02*
Y159418D01*
X212537Y163417D02*
X211537Y164416D01*
X209538D01*
X208538Y163417D01*
Y159418D01*
X209538Y158418D01*
X211537D01*
X212537Y159418D01*
Y161417D01*
X210537D01*
X214536Y158418D02*
Y164416D01*
X218535Y158418D01*
Y164416D01*
X220534D02*
Y158418D01*
X223533D01*
X224533Y159418D01*
Y163417D01*
X223533Y164416D01*
X220534D01*
X145608Y163417D02*
X144608Y164416D01*
X142609D01*
X141609Y163417D01*
Y159418D01*
X142609Y158418D01*
X144608D01*
X145608Y159418D01*
Y161417D01*
X143608D01*
X147607Y158418D02*
Y164416D01*
X151606Y158418D01*
Y164416D01*
X153605D02*
Y158418D01*
X156604D01*
X157604Y159418D01*
Y163417D01*
X156604Y164416D01*
X153605D01*
X164293D02*
Y160418D01*
X166292Y158418D01*
X168292Y160418D01*
Y164416D01*
X170291Y161417D02*
X174290D01*
X172290Y163417D02*
Y159418D01*
X338867Y252906D02*
Y256905D01*
X340866Y258905D01*
X342865Y256905D01*
Y252906D01*
Y255906D01*
X338867D01*
X348863Y257905D02*
X347864Y258905D01*
X345864D01*
X344865Y257905D01*
Y253906D01*
X345864Y252906D01*
X347864D01*
X348863Y253906D01*
X356861Y258905D02*
X358860D01*
X357860D01*
Y252906D01*
X356861D01*
X358860D01*
X361859D02*
Y256905D01*
X364858D01*
X365858Y255906D01*
Y252906D01*
X152513Y235159D02*
X157511D01*
X158511Y236159D01*
Y238158D01*
X157511Y239158D01*
X152513D01*
Y245156D02*
Y241157D01*
X155512D01*
X154512Y243157D01*
Y244156D01*
X155512Y245156D01*
X157511D01*
X158511Y244156D01*
Y242157D01*
X157511Y241157D01*
X205662Y235159D02*
X210661D01*
X211660Y236159D01*
Y238158D01*
X210661Y239158D01*
X205662D01*
X211660Y244156D02*
X205662D01*
X208661Y241157D01*
Y245156D01*
X254875Y235159D02*
X259873D01*
X260873Y236159D01*
Y238158D01*
X259873Y239158D01*
X254875D01*
X255875Y241157D02*
X254875Y242157D01*
Y244156D01*
X255875Y245156D01*
X256874D01*
X257874Y244156D01*
Y243157D01*
Y244156D01*
X258874Y245156D01*
X259873D01*
X260873Y244156D01*
Y242157D01*
X259873Y241157D01*
X177980Y165416D02*
X181979D01*
X179979D01*
Y159418D01*
X186977D02*
X184978D01*
X183978Y160418D01*
Y162417D01*
X184978Y163417D01*
X186977D01*
X187977Y162417D01*
Y161417D01*
X183978D01*
X189976Y159418D02*
Y163417D01*
X190976D01*
X191975Y162417D01*
Y159418D01*
Y162417D01*
X192975Y163417D01*
X193975Y162417D01*
Y159418D01*
X195974Y157419D02*
Y163417D01*
X198973D01*
X199973Y162417D01*
Y160418D01*
X198973Y159418D01*
X195974D01*
X201694Y211568D02*
Y217566D01*
X204694D01*
X205693Y216566D01*
Y214567D01*
X204694Y213567D01*
X201694D01*
X203694D02*
X205693Y211568D01*
X211691Y217566D02*
X207693D01*
Y214567D01*
X209692Y215567D01*
X210692D01*
X211691Y214567D01*
Y212568D01*
X210692Y211568D01*
X208692D01*
X207693Y212568D01*
X201694Y221410D02*
Y227409D01*
X204694D01*
X205693Y226409D01*
Y224410D01*
X204694Y223410D01*
X201694D01*
X203694D02*
X205693Y221410D01*
X210692D02*
Y227409D01*
X207693Y224410D01*
X211691D01*
X250907Y221410D02*
Y227409D01*
X253906D01*
X254906Y226409D01*
Y224410D01*
X253906Y223410D01*
X250907D01*
X252906D02*
X254906Y221410D01*
X256905Y226409D02*
X257905Y227409D01*
X259904D01*
X260904Y226409D01*
Y225409D01*
X259904Y224410D01*
X258905D01*
X259904D01*
X260904Y223410D01*
Y222410D01*
X259904Y221410D01*
X257905D01*
X256905Y222410D01*
X235159Y174166D02*
Y180164D01*
X238158D01*
X239158Y179165D01*
Y177165D01*
X238158Y176166D01*
X235159D01*
X237158D02*
X239158Y174166D01*
X245156D02*
X241157D01*
X245156Y178165D01*
Y179165D01*
X244156Y180164D01*
X242157D01*
X241157Y179165D01*
X234190Y166292D02*
Y172290D01*
X237189D01*
X238189Y171291D01*
Y169291D01*
X237189Y168292D01*
X234190D01*
X236190D02*
X238189Y166292D01*
X240188D02*
X242188D01*
X241188D01*
Y172290D01*
X240188Y171291D01*
X251969Y186977D02*
Y190976D01*
X250969Y191975D01*
X248970D01*
X247970Y190976D01*
Y186977D01*
X248970Y185977D01*
X250969D01*
X249969Y187977D02*
X251969Y185977D01*
X250969D02*
X251969Y186977D01*
X253968Y185977D02*
X255967D01*
X254967D01*
Y191975D01*
X253968Y190976D01*
X256813Y157419D02*
Y163417D01*
X259812D01*
X260811Y162417D01*
Y160418D01*
X259812Y159418D01*
X256813D01*
X262811Y165416D02*
Y159418D01*
Y162417D01*
X266809D01*
Y165416D01*
Y159418D01*
X205662Y259596D02*
X211660D01*
X208661D01*
Y263594D01*
X205662D01*
X211660D01*
Y268593D02*
Y266594D01*
X210661Y265594D01*
X208661D01*
X207662Y266594D01*
Y268593D01*
X208661Y269592D01*
X209661D01*
Y265594D01*
X207662Y272591D02*
Y274591D01*
X208661Y275591D01*
X211660D01*
Y272591D01*
X210661Y271592D01*
X209661Y272591D01*
Y275591D01*
X206662Y278590D02*
X207662D01*
Y277590D01*
Y279589D01*
Y278590D01*
X210661D01*
X211660Y279589D01*
Y285587D02*
Y283588D01*
X210661Y282588D01*
X208661D01*
X207662Y283588D01*
Y285587D01*
X208661Y286587D01*
X209661D01*
Y282588D01*
X207662Y288586D02*
X211660D01*
X209661D01*
X208661Y289586D01*
X207662Y290586D01*
Y291585D01*
X259873Y270500D02*
X253875D01*
Y273499D01*
X254875Y274498D01*
X256874D01*
X257874Y273499D01*
Y270500D01*
X255875Y276498D02*
X258874D01*
X259873Y277497D01*
Y280496D01*
X255875D01*
X259873Y282496D02*
X255875D01*
Y283495D01*
X256874Y284495D01*
X259873D01*
X256874D01*
X255875Y285495D01*
X256874Y286494D01*
X259873D01*
X261873Y288494D02*
X255875D01*
Y291493D01*
X256874Y292493D01*
X258874D01*
X259873Y291493D01*
Y288494D01*
X303088Y259596D02*
X309086D01*
Y263594D01*
Y265594D02*
Y267593D01*
Y266594D01*
X305087D01*
Y265594D01*
X311085Y272591D02*
Y273591D01*
X310086Y274591D01*
X305087D01*
Y271592D01*
X306087Y270592D01*
X308086D01*
X309086Y271592D01*
Y274591D01*
X303088Y276590D02*
X309086D01*
X306087D01*
X305087Y277590D01*
Y279589D01*
X306087Y280589D01*
X309086D01*
X304088Y283588D02*
X305087D01*
Y282588D01*
Y284588D01*
Y283588D01*
X308086D01*
X309086Y284588D01*
Y287587D02*
Y290586D01*
X308086Y291585D01*
X307087Y290586D01*
Y288586D01*
X306087Y287587D01*
X305087Y288586D01*
Y291585D01*
X317836Y164416D02*
Y158418D01*
X320835D01*
X321835Y159418D01*
Y163417D01*
X320835Y164416D01*
X317836D01*
X324834Y158418D02*
X326833D01*
X327833Y159418D01*
Y161417D01*
X326833Y162417D01*
X324834D01*
X323834Y161417D01*
Y159418D01*
X324834Y158418D01*
X190883Y190007D02*
Y184009D01*
X193882D01*
X194882Y185009D01*
Y189007D01*
X193882Y190007D01*
X190883D01*
X196881Y184009D02*
X198881D01*
X197881D01*
Y190007D01*
X196881Y189007D01*
D12*
X250157Y176516D02*
Y179724D01*
X252756D01*
X261653Y176516D02*
Y179724D01*
X259055D02*
X261653D01*
M02*
