G04 Layer_Color=20142*
%FSLAX24Y24*%
%MOIN*%
G70*
G01*
G75*
%ADD51R,0.0533X0.0612*%
%ADD52R,0.0552X0.0552*%
%ADD53R,0.0671X0.0710*%
%ADD54R,0.0415X0.0454*%
%ADD55R,0.0493X0.0474*%
%ADD56R,0.0671X0.0513*%
%ADD57R,0.0671X0.0513*%
%ADD58R,0.0671X0.0513*%
%ADD59R,0.0474X0.0493*%
%ADD60R,0.0560X0.0438*%
%ADD61O,0.0178X0.0395*%
%ADD62O,0.0395X0.0178*%
%ADD63R,0.1537X0.1537*%
%ADD64R,0.0828X0.0690*%
G04:AMPARAMS|DCode=65|XSize=31.5mil|YSize=118.1mil|CornerRadius=8.9mil|HoleSize=0mil|Usage=FLASHONLY|Rotation=0.000|XOffset=0mil|YOffset=0mil|HoleType=Round|Shape=RoundedRectangle|*
%AMROUNDEDRECTD65*
21,1,0.0315,0.1004,0,0,0.0*
21,1,0.0138,0.1181,0,0,0.0*
1,1,0.0177,0.0069,-0.0502*
1,1,0.0177,-0.0069,-0.0502*
1,1,0.0177,-0.0069,0.0502*
1,1,0.0177,0.0069,0.0502*
%
%ADD65ROUNDEDRECTD65*%
%ADD66C,0.1537*%
%ADD67O,0.0552X0.0946*%
%ADD68C,0.0080*%
%ADD69C,0.0680*%
%ADD70C,0.0320*%
%ADD71C,0.1300*%
%ADD72C,0.0316*%
%ADD73C,0.0277*%
D51*
X13218Y17884D02*
D03*
X13907D02*
D03*
X13228Y15718D02*
D03*
X13917D02*
D03*
D52*
X17982Y19350D02*
D03*
Y18563D02*
D03*
D53*
X16703Y18957D02*
D03*
D54*
X18248Y17726D02*
D03*
X18780D02*
D03*
X17215Y14094D02*
D03*
X16683D02*
D03*
D55*
X21486Y16437D02*
D03*
X22077D02*
D03*
X19331Y16024D02*
D03*
X19921D02*
D03*
X20827Y15502D02*
D03*
X21417D02*
D03*
X19843Y18396D02*
D03*
X20433D02*
D03*
X17146Y15098D02*
D03*
X16555D02*
D03*
D56*
X23140Y13341D02*
D03*
Y12341D02*
D03*
Y14341D02*
D03*
D57*
X19636D02*
D03*
D58*
Y13341D02*
D03*
Y12341D02*
D03*
D59*
X15768Y13553D02*
D03*
Y14144D02*
D03*
X18553Y13169D02*
D03*
Y13760D02*
D03*
D60*
X24321Y15535D02*
D03*
Y16827D02*
D03*
D61*
X15935Y15856D02*
D03*
X16132D02*
D03*
X16329D02*
D03*
X16526D02*
D03*
X16722D02*
D03*
X16919D02*
D03*
X17116D02*
D03*
Y17766D02*
D03*
X16919D02*
D03*
X16722D02*
D03*
X16526D02*
D03*
X16329D02*
D03*
X16132D02*
D03*
X15935D02*
D03*
D62*
X17480Y16220D02*
D03*
Y16417D02*
D03*
Y16614D02*
D03*
Y16811D02*
D03*
Y17008D02*
D03*
Y17205D02*
D03*
Y17402D02*
D03*
X15571D02*
D03*
Y17205D02*
D03*
Y17008D02*
D03*
Y16811D02*
D03*
Y16614D02*
D03*
Y16417D02*
D03*
Y16220D02*
D03*
D63*
X16526Y16811D02*
D03*
D64*
X18543Y16004D02*
D03*
Y14843D02*
D03*
D65*
X15167Y12165D02*
D03*
D66*
X19163Y25573D02*
D03*
X14636D02*
D03*
D67*
X17650Y23073D02*
D03*
X18650D02*
D03*
X16650D02*
D03*
X15650D02*
D03*
X16150Y22073D02*
D03*
X15150D02*
D03*
X17150D02*
D03*
X18150D02*
D03*
D68*
X25246Y21941D02*
D03*
Y17941D02*
D03*
D69*
X21746Y20693D02*
D03*
X22746Y21189D02*
D03*
X21746Y19693D02*
D03*
X22746Y20189D02*
D03*
X21746Y18693D02*
D03*
X22746Y19189D02*
D03*
X11240Y18780D02*
D03*
Y17402D02*
D03*
Y16024D02*
D03*
Y14646D02*
D03*
D70*
X15394Y15935D02*
D03*
X15374Y17726D02*
D03*
X18543Y12943D02*
D03*
X16634Y13652D02*
D03*
X18386Y11959D02*
D03*
X12835Y17874D02*
D03*
X12894Y15718D02*
D03*
X18642Y17992D02*
D03*
X18268Y19331D02*
D03*
X22077Y16142D02*
D03*
X21713Y15492D02*
D03*
X19902Y15728D02*
D03*
X18346Y14488D02*
D03*
X22598Y17648D02*
D03*
X20443Y17972D02*
D03*
X18061Y15915D02*
D03*
X17864Y18081D02*
D03*
D71*
X24272Y24272D02*
D03*
X12067D02*
D03*
X24272Y12067D02*
D03*
X12067D02*
D03*
D72*
X15167Y11762D02*
D03*
Y12569D02*
D03*
D73*
X16093Y16378D02*
D03*
Y16811D02*
D03*
Y17244D02*
D03*
X16526Y16378D02*
D03*
Y16811D02*
D03*
Y17244D02*
D03*
X16959Y16378D02*
D03*
Y16811D02*
D03*
Y17244D02*
D03*
M02*
