M48
;Layer_Color=6321
;FILE_FORMAT=2:4
INCH,LZ
T7F00S00C0.2000
%
G90
G05
T07
G00X029721Y004281
M15
G01X029896Y004323
G01X030584Y004558
G01X031409Y00488
G01X032219Y005237
G01X033013Y00563
G01X033789Y006056
G01X034545Y006517
G01X035281Y007009
G01X035995Y007534
G01X036685Y008089
G01X03735Y008673
G01X037989Y009286
G01X0386Y009927
G01X039183Y010593
G01X039737Y011284
G01X04026Y011999
G01X040751Y012736
G01X04121Y013493
G01X041635Y01427
G01X042025Y015064
G01X042381Y015875
G01X042701Y016701
G01X042985Y01754
G01X043232Y01839
G01X043441Y019251
G01X043613Y020119
G01X043747Y020995
G01X043842Y021875
G01X043899Y022759
G01X043918Y023644
G01X043897Y024529
G01X043839Y025413
G01X043741Y026293
G01X043606Y027168
G01X043432Y028036
G01X043221Y028896
G01X042972Y029746
G01X042686Y030584
G01X042364Y031409
G01X042007Y032219
G01X041614Y033013
G01X041188Y033789
G01X040728Y034545
G01X040235Y035281
G01X03971Y035995
G01X039155Y036685
G01X038571Y03735
G01X037958Y037989
G01X037318Y0386
G01X036651Y039183
G01X03596Y039737
G01X035245Y04026
G01X034509Y040751
G01X033751Y04121
G01X032974Y041635
G01X03218Y042025
G01X031369Y042381
G01X030543Y042701
G01X029704Y042985
G01X028854Y043232
G01X027994Y043441
G01X027125Y043613
G01X02625Y043747
G01X025369Y043842
G01X024486Y043899
G01X0236Y043918
G01X022715Y043897
G01X021831Y043839
G01X020951Y043741
G01X020076Y043606
G01X019208Y043432
G01X018348Y043221
G01X017498Y042972
G01X01666Y042686
G01X015835Y042364
G01X015025Y042007
G01X014231Y041614
G01X013455Y041188
G01X012699Y040728
G01X011963Y040235
G01X01125Y03971
G01X01056Y039155
G01X009894Y038571
G01X009255Y037958
G01X008644Y037318
G01X008061Y036651
G01X007507Y03596
G01X006984Y035245
G01X006493Y034509
G01X006035Y033751
G01X005609Y032974
G01X005219Y03218
G01X004863Y031369
G01X004543Y030543
G01X004259Y029704
G01X004012Y028854
G01X003803Y027994
G01X003631Y027125
G01X003497Y02625
G01X003402Y025369
G01X003345Y024486
G01X003326Y0236
G01X003347Y022715
G01X003405Y021831
G01X003503Y020951
G01X003638Y020076
G01X003812Y019208
G01X004024Y018348
G01X004272Y017498
G01X004558Y01666
G01X00488Y015835
G01X005237Y015025
G01X00563Y014231
G01X006056Y013455
G01X006517Y012699
G01X007009Y011963
G01X007534Y01125
G01X008089Y01056
G01X008673Y009894
G01X009286Y009255
G01X009927Y008644
G01X010593Y008061
G01X011284Y007507
G01X011999Y006984
G01X012736Y006493
G01X013493Y006035
G01X01427Y005609
G01X015064Y005219
G01X015875Y004863
G01X016701Y004543
G01X017348Y004323
G01X017543Y004278
G01X017742Y004273
G01X017939Y004307
G01X018125Y00438
G01X018293Y004488
G01X018436Y004628
G01X018548Y004793
G01X018621Y004962
G01X018621Y004963
G01X018664Y005159
G01X01867Y005273
G01X018666Y007939
G01X018667Y00795
G01X028567Y007952
G01X028567Y005279
G01X028587Y00508
G01X028646Y004889
G01X028742Y004714
G01X028813Y004622
G01X028821Y004613
G01X028966Y004476
G01X029136Y004371
G01X029324Y004302
G01X029521Y004272
G01X029721Y004281
M16
M17
M30
