G04 Layer_Color=8150272*
%FSLAX24Y24*%
%MOIN*%
G70*
G01*
G75*
%ADD37C,0.0680*%
%ADD38C,0.0780*%
%ADD39R,0.0780X0.0780*%
%ADD40R,0.0749X0.0749*%
%ADD41C,0.0749*%
%ADD42R,0.0749X0.0749*%
%ADD43R,0.0830X0.0830*%
%ADD44C,0.0830*%
%ADD45C,0.1261*%
%ADD46C,0.0789*%
%ADD47C,0.0474*%
%ADD48R,0.0680X0.0680*%
%ADD49R,0.1261X0.1261*%
%ADD50C,0.2049*%
%ADD51C,0.0730*%
%ADD52C,0.0580*%
D37*
X15488Y28425D02*
D03*
X19488D02*
D03*
X22244Y19945D02*
D03*
Y15945D02*
D03*
X23819Y19945D02*
D03*
Y15945D02*
D03*
X13858Y21638D02*
D03*
Y17638D02*
D03*
X18780Y21638D02*
D03*
Y17638D02*
D03*
X17205Y21638D02*
D03*
Y17638D02*
D03*
X15433Y21638D02*
D03*
Y17638D02*
D03*
X13819Y11669D02*
D03*
Y15669D02*
D03*
X15394Y11669D02*
D03*
Y15669D02*
D03*
X18740Y11709D02*
D03*
Y15709D02*
D03*
X17205Y11709D02*
D03*
Y15709D02*
D03*
X30709Y42126D02*
D03*
X10630D02*
D03*
Y10630D02*
D03*
X30709D02*
D03*
X21772Y29173D02*
D03*
Y28173D02*
D03*
Y27173D02*
D03*
Y26173D02*
D03*
Y25173D02*
D03*
X29685Y10409D02*
D03*
Y14409D02*
D03*
X23454Y28335D02*
D03*
Y27335D02*
D03*
D38*
X20669Y10717D02*
D03*
Y11717D02*
D03*
Y12717D02*
D03*
Y13717D02*
D03*
Y14717D02*
D03*
Y15717D02*
D03*
Y16717D02*
D03*
Y17717D02*
D03*
Y18717D02*
D03*
Y19717D02*
D03*
Y20717D02*
D03*
Y21717D02*
D03*
Y22717D02*
D03*
Y23717D02*
D03*
X12205Y10717D02*
D03*
Y11717D02*
D03*
Y12717D02*
D03*
Y13717D02*
D03*
Y14717D02*
D03*
Y15717D02*
D03*
Y16717D02*
D03*
Y17717D02*
D03*
Y18717D02*
D03*
Y19717D02*
D03*
Y20717D02*
D03*
Y21717D02*
D03*
Y22717D02*
D03*
Y23717D02*
D03*
D39*
X20669Y24717D02*
D03*
X12205D02*
D03*
D40*
X22441Y11205D02*
D03*
X25472Y11205D02*
D03*
X28346D02*
D03*
D41*
X22441Y12205D02*
D03*
Y13205D02*
D03*
X25472Y12205D02*
D03*
Y13205D02*
D03*
X28346Y12205D02*
D03*
Y13205D02*
D03*
X12835Y28425D02*
D03*
X11835D02*
D03*
D42*
X13835D02*
D03*
D43*
X29837Y36067D02*
D03*
D44*
Y35067D02*
D03*
Y34067D02*
D03*
Y33067D02*
D03*
D45*
X11811Y40709D02*
D03*
X13780D02*
D03*
X18307Y40630D02*
D03*
X16339D02*
D03*
D46*
X29331Y15929D02*
D03*
X29331Y16929D02*
D03*
X29331Y17929D02*
D03*
Y18929D02*
D03*
X26260Y21402D02*
D03*
X26260Y22402D02*
D03*
X26260Y23402D02*
D03*
Y24402D02*
D03*
Y15929D02*
D03*
X26260Y16929D02*
D03*
X26260Y17929D02*
D03*
Y18929D02*
D03*
X29370Y21402D02*
D03*
X29370Y22402D02*
D03*
X29370Y23402D02*
D03*
Y24402D02*
D03*
D47*
X30181Y16929D02*
D03*
X27110Y22402D02*
D03*
Y16929D02*
D03*
X30220Y22402D02*
D03*
D48*
X21772Y24173D02*
D03*
D49*
X11260Y38150D02*
D03*
X27205D02*
D03*
Y31063D02*
D03*
X11260D02*
D03*
D50*
X13228Y37756D02*
D03*
X25236Y31457D02*
D03*
D51*
X20787Y40669D02*
D03*
X24331D02*
D03*
D52*
X19724Y31772D02*
D03*
X19409Y29370D02*
D03*
X22510Y30620D02*
D03*
X15945Y13976D02*
D03*
X15390Y13670D02*
D03*
X21650Y21090D02*
D03*
X14961Y16968D02*
D03*
X16780Y16460D02*
D03*
X20620Y25660D02*
D03*
X25590Y28650D02*
D03*
X22650Y31270D02*
D03*
X14470Y30650D02*
D03*
X14280Y18750D02*
D03*
X18180Y20330D02*
D03*
X30040Y17530D02*
D03*
X16110Y30780D02*
D03*
X23400Y31760D02*
D03*
X25100Y29865D02*
D03*
X17360Y16670D02*
D03*
X22800Y27240D02*
D03*
X18870Y24010D02*
D03*
X18480Y23490D02*
D03*
X17370Y16670D02*
D03*
X18400Y16580D02*
D03*
M02*
