G04 Layer_Physical_Order=1*
G04 Layer_Color=25308*
%FSLAX24Y24*%
%MOIN*%
G70*
G01*
G75*
%ADD10C,0.0394*%
%ADD11C,0.0276*%
%ADD12C,0.0197*%
%ADD13C,0.0650*%
%ADD14C,0.1969*%
%ADD15R,0.1181X0.1181*%
%ADD16C,0.1181*%
%ADD17C,0.0600*%
%ADD18R,0.0600X0.0600*%
%ADD19C,0.0394*%
%ADD20C,0.0709*%
%ADD21C,0.0750*%
%ADD22R,0.0750X0.0750*%
%ADD23C,0.0669*%
%ADD24R,0.0669X0.0669*%
%ADD25R,0.0669X0.0669*%
%ADD26R,0.0700X0.0700*%
%ADD27C,0.0700*%
%ADD28C,0.0500*%
G36*
X19068Y21548D02*
Y17728D01*
X19018Y17723D01*
X19015Y17735D01*
X18960Y17818D01*
X18877Y17873D01*
X18780Y17893D01*
X18682Y17873D01*
X18599Y17818D01*
X18564Y17765D01*
X18229Y17430D01*
X18205Y17394D01*
X18155Y17409D01*
Y19623D01*
X18136Y19715D01*
X18084Y19794D01*
X17931Y19947D01*
Y20023D01*
X17976Y20045D01*
X18003Y20024D01*
X18089Y19989D01*
X18180Y19977D01*
X18271Y19989D01*
X18357Y20024D01*
X18430Y20080D01*
X18486Y20153D01*
X18506Y20204D01*
X18701Y20399D01*
X18754Y20477D01*
X18772Y20570D01*
Y21288D01*
X18907Y21422D01*
X18960Y21458D01*
X19015Y21540D01*
X19018Y21553D01*
X19068Y21548D01*
D02*
G37*
G36*
X28318Y24630D02*
Y20730D01*
X28336Y20637D01*
X28389Y20559D01*
X28949Y19999D01*
X29027Y19946D01*
X29120Y19928D01*
X29610D01*
X29798Y19740D01*
Y18120D01*
X29748Y18110D01*
X29728Y18158D01*
X29655Y18253D01*
X29560Y18326D01*
X29449Y18372D01*
X29331Y18387D01*
X29212Y18372D01*
X29102Y18326D01*
X29007Y18253D01*
X28934Y18158D01*
X28888Y18048D01*
X28872Y17929D01*
X28888Y17811D01*
X28934Y17700D01*
X29007Y17605D01*
X29102Y17532D01*
X29212Y17486D01*
X29331Y17471D01*
X29449Y17486D01*
X29560Y17532D01*
X29646Y17598D01*
X29678Y17586D01*
X29693Y17574D01*
X29687Y17530D01*
X29699Y17439D01*
X29734Y17353D01*
X29790Y17280D01*
X29863Y17224D01*
X29900Y17209D01*
X29914Y17149D01*
X29879Y17104D01*
X29844Y17019D01*
X29836Y16957D01*
X29785D01*
X29773Y17048D01*
X29728Y17158D01*
X29655Y17253D01*
X29560Y17326D01*
X29449Y17372D01*
X29331Y17387D01*
X29212Y17372D01*
X29102Y17326D01*
X29007Y17253D01*
X28934Y17158D01*
X28888Y17048D01*
X28872Y16929D01*
X28888Y16811D01*
X28934Y16700D01*
X29007Y16605D01*
X29102Y16532D01*
X29212Y16487D01*
X29331Y16471D01*
X29449Y16487D01*
X29560Y16532D01*
X29655Y16605D01*
X29728Y16700D01*
X29773Y16811D01*
X29785Y16901D01*
X29836D01*
X29844Y16839D01*
X29879Y16755D01*
X29934Y16682D01*
X30007Y16627D01*
X30091Y16592D01*
X30181Y16580D01*
X30271Y16592D01*
X30312Y16609D01*
X30323Y16603D01*
X30351Y16571D01*
X30336Y16492D01*
Y16349D01*
X30159Y16171D01*
X30106Y16093D01*
X30088Y16000D01*
Y14651D01*
X30041Y14632D01*
X29241Y15432D01*
X29265Y15480D01*
X29331Y15471D01*
X29449Y15487D01*
X29560Y15532D01*
X29655Y15605D01*
X29728Y15700D01*
X29773Y15811D01*
X29789Y15929D01*
X29773Y16048D01*
X29728Y16158D01*
X29655Y16253D01*
X29560Y16326D01*
X29449Y16372D01*
X29331Y16387D01*
X29212Y16372D01*
X29102Y16326D01*
X29007Y16253D01*
X28934Y16158D01*
X28888Y16048D01*
X28872Y15929D01*
X28881Y15863D01*
X28834Y15840D01*
X28212Y16461D01*
X28212Y17789D01*
Y17789D01*
Y17789D01*
X28205Y17826D01*
X28194Y17881D01*
X28194Y17881D01*
Y17881D01*
X28167Y17921D01*
X28141Y17960D01*
X28141D01*
Y17960D01*
X28102Y17986D01*
X28062Y18013D01*
X28062D01*
X28062Y18013D01*
X28042Y18017D01*
Y23950D01*
X28024Y24043D01*
X27971Y24121D01*
X24587Y27506D01*
X24508Y27559D01*
X24415Y27577D01*
X23772D01*
X23739Y27620D01*
X23656Y27684D01*
X23558Y27724D01*
X23454Y27738D01*
X23350Y27724D01*
X23252Y27684D01*
X23169Y27620D01*
X23105Y27536D01*
X23093Y27508D01*
X23092Y27507D01*
X23042Y27517D01*
Y29834D01*
X23067Y29853D01*
X23085Y29863D01*
X28318Y24630D01*
D02*
G37*
G36*
X18303Y23184D02*
X18389Y23149D01*
X18480Y23137D01*
X18489Y23138D01*
X18537Y23090D01*
Y21738D01*
X18359Y21560D01*
X18306Y21481D01*
X18288Y21388D01*
Y20717D01*
X18286Y20714D01*
X18238Y20675D01*
X18180Y20683D01*
X18089Y20671D01*
X18003Y20636D01*
X17976Y20615D01*
X17931Y20637D01*
Y20721D01*
X18161Y20951D01*
X18214Y21030D01*
X18232Y21123D01*
Y23182D01*
X18277Y23204D01*
X18303Y23184D01*
D02*
G37*
G36*
X16105Y30361D02*
X16096Y30319D01*
Y17462D01*
X16050Y17443D01*
X15684Y17809D01*
X15605Y17862D01*
X15512Y17880D01*
X15496D01*
X15433Y17893D01*
X15336Y17873D01*
X15327Y17867D01*
X15282Y17891D01*
Y21385D01*
X15327Y21408D01*
X15336Y21402D01*
X15433Y21383D01*
X15531Y21402D01*
X15613Y21458D01*
X15669Y21540D01*
X15688Y21638D01*
X15669Y21735D01*
X15613Y21818D01*
X15531Y21873D01*
X15433Y21893D01*
X15336Y21873D01*
X15327Y21867D01*
X15282Y21891D01*
Y28202D01*
X15332Y28229D01*
X15391Y28190D01*
X15488Y28170D01*
X15586Y28190D01*
X15668Y28245D01*
X15724Y28328D01*
X15743Y28425D01*
X15724Y28523D01*
X15668Y28605D01*
X15586Y28661D01*
X15488Y28680D01*
X15391Y28661D01*
X15332Y28622D01*
X15282Y28649D01*
Y29610D01*
X16058Y30386D01*
X16105Y30361D01*
D02*
G37*
G36*
X17372Y24519D02*
Y21880D01*
X17328Y21856D01*
X17302Y21873D01*
X17205Y21893D01*
X17107Y21873D01*
X17024Y21818D01*
X16969Y21735D01*
X16950Y21638D01*
X16969Y21540D01*
X17024Y21458D01*
X17106Y21403D01*
X17109Y21401D01*
X17127Y21347D01*
X17089Y21290D01*
X17071Y21197D01*
Y17849D01*
X17024Y17818D01*
X16969Y17735D01*
X16950Y17638D01*
X16969Y17540D01*
X17024Y17458D01*
X17071Y17427D01*
Y16868D01*
X17054Y16847D01*
X17025Y16776D01*
X16973Y16753D01*
X16957Y16766D01*
X16871Y16801D01*
X16848Y16804D01*
Y17076D01*
X16830Y17168D01*
X16777Y17247D01*
X16581Y17443D01*
Y25244D01*
X16627Y25263D01*
X17372Y24519D01*
D02*
G37*
G36*
X17670Y16408D02*
Y16260D01*
X17688Y16167D01*
X17741Y16089D01*
X17909Y15921D01*
X17987Y15868D01*
X18080Y15850D01*
X18256D01*
X18493Y15612D01*
X18473Y15562D01*
X17468D01*
X17439Y15603D01*
X17440Y15612D01*
X17460Y15709D01*
X17440Y15806D01*
X17385Y15889D01*
X17302Y15944D01*
X17205Y15964D01*
X17107Y15944D01*
X17024Y15889D01*
X16969Y15806D01*
X16950Y15709D01*
X16969Y15612D01*
X16970Y15603D01*
X16942Y15562D01*
X16690D01*
X16472Y15780D01*
Y16204D01*
X16522Y16221D01*
X16530Y16210D01*
X16603Y16154D01*
X16689Y16119D01*
X16780Y16107D01*
X16871Y16119D01*
X16957Y16154D01*
X17030Y16210D01*
X17086Y16283D01*
X17115Y16354D01*
X17167Y16377D01*
X17183Y16364D01*
X17269Y16329D01*
X17360Y16317D01*
X17365Y16318D01*
X17370Y16317D01*
X17461Y16329D01*
X17547Y16364D01*
X17620Y16420D01*
X17622Y16424D01*
X17670Y16408D01*
D02*
G37*
G36*
X19068Y16932D02*
Y15880D01*
X19018Y15831D01*
X18954Y15838D01*
X18920Y15889D01*
X18867Y15924D01*
X18567Y16225D01*
X18572Y16251D01*
X18583Y16279D01*
X18650Y16330D01*
X18706Y16403D01*
X18741Y16489D01*
X18753Y16580D01*
X18752Y16589D01*
X18951Y16788D01*
X19004Y16867D01*
X19018Y16937D01*
X19068Y16932D01*
D02*
G37*
G36*
X15336Y17402D02*
X15422Y17385D01*
X15988Y16820D01*
Y16048D01*
X15938Y16027D01*
X15733Y16231D01*
X15654Y16284D01*
X15561Y16302D01*
X15140D01*
X14865Y16578D01*
X14889Y16625D01*
X14961Y16615D01*
X15052Y16628D01*
X15137Y16663D01*
X15210Y16719D01*
X15266Y16792D01*
X15302Y16877D01*
X15314Y16968D01*
X15302Y17060D01*
X15266Y17145D01*
X15210Y17218D01*
X15203Y17224D01*
Y17442D01*
X15253Y17458D01*
X15336Y17402D01*
D02*
G37*
G36*
X26031Y21005D02*
X26141Y20959D01*
X26260Y20943D01*
X26362Y20957D01*
X26908Y20411D01*
Y17930D01*
X26926Y17837D01*
X26979Y17759D01*
X27352Y17385D01*
Y17237D01*
X27307Y17215D01*
X27285Y17231D01*
X27201Y17266D01*
X27110Y17278D01*
X27020Y17266D01*
X26936Y17231D01*
X26863Y17176D01*
X26808Y17104D01*
X26773Y17019D01*
X26765Y16957D01*
X26714D01*
X26703Y17048D01*
X26657Y17158D01*
X26584Y17253D01*
X26489Y17326D01*
X26378Y17372D01*
X26260Y17387D01*
X26158Y17374D01*
X26070Y17462D01*
X26098Y17504D01*
X26141Y17486D01*
X26260Y17471D01*
X26378Y17486D01*
X26489Y17532D01*
X26584Y17605D01*
X26657Y17700D01*
X26702Y17811D01*
X26718Y17929D01*
X26702Y18048D01*
X26657Y18158D01*
X26584Y18253D01*
X26489Y18326D01*
X26378Y18372D01*
X26260Y18387D01*
X26141Y18372D01*
X26031Y18326D01*
X25952Y18266D01*
X25902Y18288D01*
Y21043D01*
X25952Y21065D01*
X26031Y21005D01*
D02*
G37*
G36*
X17670Y19522D02*
Y16986D01*
X17620Y16960D01*
X17612Y16965D01*
Y17473D01*
X17594Y17565D01*
X17556Y17623D01*
Y19571D01*
X17602Y19590D01*
X17670Y19522D01*
D02*
G37*
G36*
X30259Y36588D02*
X30240Y36542D01*
X29362D01*
Y35592D01*
X29803D01*
X29806Y35542D01*
X29713Y35530D01*
X29598Y35482D01*
X29499Y35406D01*
X29422Y35307D01*
X29375Y35191D01*
X29358Y35067D01*
X29374Y34947D01*
X27350Y32922D01*
X19021D01*
X19002Y32969D01*
X22830Y36798D01*
X30050D01*
X30259Y36588D01*
D02*
G37*
G36*
X24680Y32388D02*
X24597Y32337D01*
X24467Y32226D01*
X24356Y32096D01*
X24267Y31950D01*
X24202Y31793D01*
X24162Y31627D01*
X24149Y31457D01*
X24162Y31287D01*
X24184Y31194D01*
X24139Y31169D01*
X23711Y31596D01*
X23741Y31669D01*
X23753Y31760D01*
X23741Y31851D01*
X23706Y31937D01*
X23650Y32010D01*
X23577Y32066D01*
X23491Y32101D01*
X23400Y32113D01*
X23309Y32101D01*
X23223Y32066D01*
X23150Y32010D01*
X23094Y31937D01*
X23059Y31851D01*
X23047Y31760D01*
X23059Y31669D01*
X23094Y31583D01*
X23150Y31510D01*
X23172Y31494D01*
X23176Y31472D01*
X23229Y31393D01*
X23425Y31197D01*
X23424Y31184D01*
X23370Y31143D01*
X23331Y31151D01*
X23112D01*
X23002Y31261D01*
X23003Y31270D01*
X22991Y31361D01*
X22956Y31447D01*
X22900Y31520D01*
X22827Y31576D01*
X22741Y31611D01*
X22650Y31623D01*
X22559Y31611D01*
X22473Y31576D01*
X22400Y31520D01*
X22344Y31447D01*
X22309Y31361D01*
X22297Y31270D01*
X22309Y31179D01*
X22344Y31093D01*
X22400Y31020D01*
X22418Y31007D01*
X22404Y30955D01*
X22333Y30926D01*
X22260Y30870D01*
X22227Y30826D01*
X22163Y30820D01*
X22163Y30820D01*
X20592Y32391D01*
X20611Y32438D01*
X24666D01*
X24680Y32388D01*
D02*
G37*
G36*
X21780Y30517D02*
Y30418D01*
X21798Y30325D01*
X21851Y30247D01*
X22086Y30011D01*
X22085Y30004D01*
X22064Y29962D01*
X20480D01*
X20387Y29944D01*
X20309Y29891D01*
X19709Y29291D01*
X19656Y29213D01*
X19638Y29120D01*
Y28679D01*
X19593Y28656D01*
X19586Y28661D01*
X19488Y28680D01*
X19391Y28661D01*
X19308Y28605D01*
X19253Y28523D01*
X19233Y28425D01*
X19253Y28328D01*
X19308Y28245D01*
X19391Y28190D01*
X19488Y28170D01*
X19586Y28190D01*
X19593Y28195D01*
X19638Y28171D01*
Y27830D01*
X19186Y27379D01*
X19134Y27301D01*
X19115Y27208D01*
Y24319D01*
X19071Y24297D01*
X19047Y24316D01*
X18961Y24351D01*
X18870Y24363D01*
X18861Y24362D01*
X18608Y24615D01*
Y24930D01*
X18590Y25023D01*
X18537Y25102D01*
X17708Y25931D01*
Y29752D01*
X17896Y29940D01*
X17949Y30018D01*
X17967Y30111D01*
X17967Y30111D01*
Y30872D01*
X19157Y32062D01*
X20235D01*
X21780Y30517D01*
D02*
G37*
G36*
X30234Y42937D02*
X30181Y42872D01*
X30122Y42763D01*
X30086Y42643D01*
X30074Y42520D01*
X30086Y42396D01*
X30122Y42277D01*
X30181Y42167D01*
X30260Y42071D01*
X30356Y41992D01*
X30466Y41933D01*
X30585Y41897D01*
X30709Y41885D01*
X30832Y41897D01*
X30951Y41933D01*
X31061Y41992D01*
X31157Y42071D01*
X31236Y42167D01*
X31295Y42277D01*
X31324Y42372D01*
X31374Y42365D01*
Y38658D01*
X31324Y38653D01*
X31314Y38703D01*
X31261Y38781D01*
X30891Y39151D01*
X30813Y39204D01*
X30720Y39222D01*
X23440D01*
X23363Y39207D01*
X23338Y39253D01*
X24326Y40241D01*
X24331Y40241D01*
X24442Y40255D01*
X24545Y40298D01*
X24634Y40366D01*
X24702Y40455D01*
X24745Y40558D01*
X24759Y40669D01*
X24745Y40780D01*
X24702Y40884D01*
X24634Y40972D01*
X24545Y41040D01*
X24442Y41083D01*
X24331Y41098D01*
X24220Y41083D01*
X24116Y41040D01*
X24028Y40972D01*
X23960Y40884D01*
X23917Y40780D01*
X23902Y40669D01*
X23903Y40665D01*
X22671Y39433D01*
X13510D01*
X12463Y40480D01*
X12492Y40573D01*
X12505Y40709D01*
X12492Y40844D01*
X12452Y40974D01*
X12388Y41094D01*
X12302Y41199D01*
X12197Y41286D01*
X12077Y41350D01*
X11946Y41389D01*
X11811Y41403D01*
X11676Y41389D01*
X11545Y41350D01*
X11426Y41286D01*
X11320Y41199D01*
X11234Y41094D01*
X11170Y40974D01*
X11130Y40844D01*
X11117Y40709D01*
X11130Y40573D01*
X11170Y40443D01*
X11234Y40323D01*
X11320Y40218D01*
X11426Y40132D01*
X11545Y40068D01*
X11676Y40028D01*
X11811Y40015D01*
X11946Y40028D01*
X12040Y40056D01*
X13174Y38922D01*
X13213Y38892D01*
X13198Y38841D01*
X13058Y38830D01*
X12892Y38790D01*
X12735Y38725D01*
X12589Y38636D01*
X12459Y38525D01*
X12348Y38395D01*
X12259Y38250D01*
X12194Y38092D01*
X12154Y37926D01*
X12141Y37756D01*
X12154Y37586D01*
X12194Y37420D01*
X12259Y37262D01*
X12348Y37117D01*
X12459Y36987D01*
X12589Y36876D01*
X12735Y36787D01*
X12892Y36722D01*
X13058Y36682D01*
X13228Y36668D01*
X13398Y36682D01*
X13564Y36722D01*
X13722Y36787D01*
X13868Y36876D01*
X13997Y36987D01*
X14108Y37117D01*
X14197Y37262D01*
X14263Y37420D01*
X14303Y37586D01*
X14316Y37756D01*
X14303Y37926D01*
X14263Y38092D01*
X14197Y38250D01*
X14108Y38395D01*
X13997Y38525D01*
X13868Y38636D01*
X13722Y38725D01*
X13578Y38784D01*
X13588Y38834D01*
X22795D01*
X22873Y38845D01*
X22894Y38853D01*
X22904Y38858D01*
X22932Y38815D01*
X16167Y32050D01*
X16115Y31971D01*
X16096Y31879D01*
Y31241D01*
X16108Y31181D01*
X16073Y31129D01*
X16072Y31128D01*
X16019Y31121D01*
X15933Y31086D01*
X15860Y31030D01*
X15804Y30957D01*
X15769Y30871D01*
X15757Y30780D01*
X15758Y30771D01*
X14869Y29881D01*
X14816Y29803D01*
X14798Y29710D01*
Y17810D01*
X14789Y17802D01*
X14737Y17723D01*
X14718Y17631D01*
Y17224D01*
X14711Y17218D01*
X14655Y17145D01*
X14620Y17060D01*
X14608Y16968D01*
X14617Y16897D01*
X14570Y16873D01*
X14171Y17271D01*
X14136Y17295D01*
X14134Y17345D01*
X14144Y17353D01*
X14208Y17436D01*
X14248Y17533D01*
X14262Y17638D01*
X14248Y17742D01*
X14208Y17840D01*
X14144Y17923D01*
X14060Y17987D01*
X13963Y18028D01*
X13858Y18041D01*
X13754Y18028D01*
X13657Y17987D01*
X13612Y17953D01*
X13562Y17978D01*
Y18240D01*
X13544Y18333D01*
X13491Y18411D01*
X13015Y18888D01*
X12936Y18941D01*
X12843Y18959D01*
X12586D01*
X12526Y19037D01*
X12432Y19110D01*
X12322Y19155D01*
X12205Y19170D01*
X12087Y19155D01*
X11978Y19110D01*
X11884Y19037D01*
X11812Y18943D01*
X11766Y18834D01*
X11751Y18717D01*
X11766Y18599D01*
X11812Y18490D01*
X11884Y18396D01*
X11978Y18323D01*
X12087Y18278D01*
X12205Y18263D01*
X12322Y18278D01*
X12432Y18323D01*
X12526Y18396D01*
X12586Y18474D01*
X12743D01*
X13078Y18140D01*
Y17657D01*
X13077Y17657D01*
X13028Y17649D01*
X12981Y17718D01*
X12811Y17888D01*
X12733Y17941D01*
X12640Y17959D01*
X12586D01*
X12526Y18037D01*
X12432Y18110D01*
X12322Y18155D01*
X12205Y18170D01*
X12087Y18155D01*
X11978Y18110D01*
X11884Y18037D01*
X11812Y17943D01*
X11766Y17834D01*
X11751Y17717D01*
X11766Y17599D01*
X11812Y17490D01*
X11884Y17396D01*
X11978Y17323D01*
X12087Y17278D01*
X12205Y17263D01*
X12322Y17278D01*
X12432Y17323D01*
X12518Y17389D01*
X12548Y17381D01*
X12568Y17368D01*
Y17057D01*
X12518Y17044D01*
X12432Y17110D01*
X12322Y17155D01*
X12205Y17170D01*
X12087Y17155D01*
X11978Y17110D01*
X11884Y17037D01*
X11812Y16943D01*
X11766Y16834D01*
X11751Y16717D01*
X11766Y16599D01*
X11812Y16490D01*
X11884Y16396D01*
X11978Y16323D01*
X12087Y16278D01*
X12205Y16263D01*
X12322Y16278D01*
X12432Y16323D01*
X12526Y16396D01*
X12598Y16490D01*
X12608Y16514D01*
X12667Y16526D01*
X12707Y16486D01*
X12785Y16434D01*
X12878Y16415D01*
X13486D01*
X13977Y15924D01*
X13945Y15886D01*
X13916Y15905D01*
X13819Y15924D01*
X13721Y15905D01*
X13639Y15850D01*
X13583Y15767D01*
X13564Y15669D01*
X13583Y15572D01*
X13639Y15489D01*
X13692Y15454D01*
X14037Y15109D01*
X14115Y15056D01*
X14208Y15038D01*
X15702D01*
X15794Y15056D01*
X15873Y15109D01*
X15953Y15189D01*
X16006Y15267D01*
X16024Y15360D01*
Y15472D01*
X16074Y15493D01*
X16419Y15149D01*
X16497Y15096D01*
X16590Y15078D01*
X18839D01*
X18858Y15031D01*
X18786Y14959D01*
X12586D01*
X12526Y15037D01*
X12432Y15110D01*
X12322Y15155D01*
X12205Y15170D01*
X12087Y15155D01*
X11978Y15110D01*
X11884Y15037D01*
X11812Y14943D01*
X11766Y14834D01*
X11751Y14717D01*
X11766Y14599D01*
X11812Y14490D01*
X11884Y14396D01*
X11978Y14323D01*
X12087Y14278D01*
X12205Y14263D01*
X12322Y14278D01*
X12432Y14323D01*
X12526Y14396D01*
X12586Y14474D01*
X18887D01*
X18979Y14493D01*
X19058Y14545D01*
X20172Y15660D01*
X20225Y15642D01*
X20231Y15599D01*
X20276Y15490D01*
X20348Y15396D01*
X20442Y15323D01*
X20552Y15278D01*
X20669Y15263D01*
X20787Y15278D01*
X20896Y15323D01*
X20990Y15396D01*
X21062Y15490D01*
X21108Y15599D01*
X21123Y15717D01*
X21108Y15834D01*
X21062Y15943D01*
X20990Y16037D01*
X20896Y16110D01*
X20787Y16155D01*
X20669Y16170D01*
X20552Y16155D01*
X20442Y16110D01*
X20348Y16037D01*
X20324Y16006D01*
X20274Y16023D01*
Y16411D01*
X20324Y16428D01*
X20348Y16396D01*
X20442Y16323D01*
X20552Y16278D01*
X20669Y16263D01*
X20787Y16278D01*
X20896Y16323D01*
X20990Y16396D01*
X21062Y16490D01*
X21108Y16599D01*
X21123Y16717D01*
X21108Y16834D01*
X21062Y16943D01*
X20990Y17037D01*
X20896Y17110D01*
X20787Y17155D01*
X20669Y17170D01*
X20552Y17155D01*
X20442Y17110D01*
X20348Y17037D01*
X20324Y17006D01*
X20274Y17023D01*
Y17411D01*
X20324Y17428D01*
X20348Y17396D01*
X20442Y17323D01*
X20552Y17278D01*
X20669Y17263D01*
X20787Y17278D01*
X20896Y17323D01*
X20990Y17396D01*
X21062Y17490D01*
X21108Y17599D01*
X21123Y17717D01*
X21108Y17834D01*
X21062Y17943D01*
X20990Y18037D01*
X20896Y18110D01*
X20787Y18155D01*
X20669Y18170D01*
X20552Y18155D01*
X20442Y18110D01*
X20348Y18037D01*
X20324Y18006D01*
X20274Y18023D01*
Y18411D01*
X20324Y18428D01*
X20348Y18396D01*
X20442Y18323D01*
X20552Y18278D01*
X20669Y18263D01*
X20787Y18278D01*
X20896Y18323D01*
X20990Y18396D01*
X21062Y18490D01*
X21108Y18599D01*
X21123Y18717D01*
X21108Y18834D01*
X21062Y18943D01*
X20990Y19037D01*
X20896Y19110D01*
X20787Y19155D01*
X20669Y19170D01*
X20552Y19155D01*
X20442Y19110D01*
X20348Y19037D01*
X20324Y19006D01*
X20274Y19023D01*
Y19411D01*
X20324Y19428D01*
X20348Y19396D01*
X20442Y19323D01*
X20552Y19278D01*
X20669Y19263D01*
X20787Y19278D01*
X20896Y19323D01*
X20990Y19396D01*
X21062Y19490D01*
X21108Y19599D01*
X21123Y19717D01*
X21108Y19834D01*
X21062Y19943D01*
X20990Y20037D01*
X20896Y20110D01*
X20787Y20155D01*
X20669Y20170D01*
X20552Y20155D01*
X20442Y20110D01*
X20348Y20037D01*
X20324Y20006D01*
X20274Y20023D01*
Y20411D01*
X20324Y20428D01*
X20348Y20396D01*
X20442Y20323D01*
X20552Y20278D01*
X20669Y20263D01*
X20787Y20278D01*
X20896Y20323D01*
X20990Y20396D01*
X21062Y20490D01*
X21108Y20599D01*
X21123Y20717D01*
X21108Y20834D01*
X21062Y20943D01*
X20990Y21037D01*
X20896Y21110D01*
X20787Y21155D01*
X20669Y21170D01*
X20552Y21155D01*
X20442Y21110D01*
X20348Y21037D01*
X20324Y21006D01*
X20274Y21023D01*
Y21411D01*
X20324Y21428D01*
X20348Y21396D01*
X20442Y21323D01*
X20552Y21278D01*
X20669Y21263D01*
X20787Y21278D01*
X20896Y21323D01*
X20990Y21396D01*
X21062Y21490D01*
X21108Y21599D01*
X21123Y21717D01*
X21108Y21834D01*
X21062Y21943D01*
X20990Y22037D01*
X20896Y22110D01*
X20787Y22155D01*
X20669Y22170D01*
X20552Y22155D01*
X20442Y22110D01*
X20348Y22037D01*
X20324Y22006D01*
X20274Y22023D01*
Y22411D01*
X20324Y22428D01*
X20348Y22396D01*
X20442Y22323D01*
X20552Y22278D01*
X20669Y22263D01*
X20787Y22278D01*
X20896Y22323D01*
X20990Y22396D01*
X21062Y22490D01*
X21108Y22599D01*
X21123Y22717D01*
X21108Y22834D01*
X21062Y22943D01*
X20990Y23037D01*
X20896Y23110D01*
X20787Y23155D01*
X20669Y23170D01*
X20552Y23155D01*
X20442Y23110D01*
X20348Y23037D01*
X20324Y23006D01*
X20274Y23023D01*
Y24267D01*
X21119D01*
Y25167D01*
X20274D01*
Y25456D01*
X20324Y25471D01*
X20370Y25410D01*
X20443Y25354D01*
X20529Y25319D01*
X20620Y25307D01*
X20711Y25319D01*
X20797Y25354D01*
X20870Y25410D01*
X20926Y25483D01*
X20961Y25569D01*
X20973Y25660D01*
X20972Y25669D01*
X21234Y25931D01*
X21454D01*
X21486Y25888D01*
X21570Y25824D01*
X21667Y25784D01*
X21772Y25770D01*
X21876Y25784D01*
X21973Y25824D01*
X22057Y25888D01*
X22121Y25971D01*
X22161Y26069D01*
X22175Y26173D01*
X22161Y26278D01*
X22121Y26375D01*
X22057Y26458D01*
X21973Y26523D01*
X21876Y26563D01*
X21772Y26577D01*
X21667Y26563D01*
X21570Y26523D01*
X21486Y26458D01*
X21454Y26416D01*
X21133D01*
X21040Y26397D01*
X20962Y26345D01*
X20629Y26012D01*
X20620Y26013D01*
X20529Y26001D01*
X20443Y25966D01*
X20370Y25910D01*
X20324Y25849D01*
X20274Y25864D01*
Y26140D01*
X21065Y26931D01*
X21454D01*
X21486Y26888D01*
X21570Y26824D01*
X21667Y26784D01*
X21772Y26770D01*
X21876Y26784D01*
X21973Y26824D01*
X22057Y26888D01*
X22068Y26902D01*
X22117Y26900D01*
X22126Y26888D01*
X22139Y26869D01*
X22363Y26644D01*
X22393Y26624D01*
X22439Y26579D01*
X22517Y26526D01*
X22610Y26508D01*
X23420D01*
X24718Y25210D01*
Y14300D01*
X23860Y13442D01*
X22806D01*
X22751Y13515D01*
X22660Y13584D01*
X22554Y13628D01*
X22441Y13643D01*
X22327Y13628D01*
X22222Y13584D01*
X22131Y13515D01*
X22061Y13424D01*
X22017Y13318D01*
X22003Y13205D01*
X22017Y13091D01*
X22061Y12986D01*
X22131Y12895D01*
X22222Y12825D01*
X22327Y12781D01*
X22441Y12766D01*
X22554Y12781D01*
X22660Y12825D01*
X22751Y12895D01*
X22799Y12958D01*
X23960D01*
X24053Y12976D01*
X24131Y13029D01*
X25131Y14029D01*
X25184Y14107D01*
X25202Y14200D01*
Y25310D01*
X25202Y25310D01*
X25184Y25403D01*
X25131Y25481D01*
X23691Y26921D01*
X23664Y26940D01*
X23670Y26996D01*
X23739Y27049D01*
X23772Y27092D01*
X24315D01*
X27558Y23850D01*
Y17931D01*
X27511Y17912D01*
X27392Y18030D01*
Y20511D01*
X27374Y20604D01*
X27321Y20683D01*
X26705Y21300D01*
X26718Y21402D01*
X26702Y21520D01*
X26657Y21631D01*
X26584Y21726D01*
X26489Y21798D01*
X26378Y21844D01*
X26260Y21860D01*
X26141Y21844D01*
X26098Y21826D01*
X26070Y21869D01*
X26158Y21957D01*
X26260Y21943D01*
X26378Y21959D01*
X26489Y22005D01*
X26584Y22078D01*
X26657Y22172D01*
X26703Y22283D01*
X26714Y22374D01*
X26765D01*
X26773Y22311D01*
X26808Y22227D01*
X26863Y22155D01*
X26936Y22099D01*
X27020Y22064D01*
X27110Y22053D01*
X27201Y22064D01*
X27285Y22099D01*
X27357Y22155D01*
X27413Y22227D01*
X27447Y22311D01*
X27459Y22402D01*
X27447Y22492D01*
X27413Y22576D01*
X27357Y22648D01*
X27285Y22704D01*
X27201Y22739D01*
X27110Y22751D01*
X27020Y22739D01*
X26936Y22704D01*
X26863Y22648D01*
X26808Y22576D01*
X26773Y22492D01*
X26765Y22430D01*
X26714D01*
X26703Y22520D01*
X26657Y22631D01*
X26584Y22726D01*
X26489Y22798D01*
X26378Y22844D01*
X26260Y22860D01*
X26141Y22844D01*
X26031Y22798D01*
X25936Y22726D01*
X25863Y22631D01*
X25817Y22520D01*
X25802Y22402D01*
X25815Y22300D01*
X25489Y21973D01*
X25436Y21894D01*
X25418Y21802D01*
Y17529D01*
X25436Y17436D01*
X25489Y17358D01*
X25815Y17031D01*
X25802Y16929D01*
X25817Y16811D01*
X25863Y16700D01*
X25936Y16605D01*
X26031Y16532D01*
X26141Y16487D01*
X26260Y16471D01*
X26378Y16487D01*
X26440Y16512D01*
X26463Y16468D01*
X26439Y16451D01*
X26362Y16374D01*
X26260Y16387D01*
X26141Y16372D01*
X26031Y16326D01*
X25936Y16253D01*
X25863Y16158D01*
X25817Y16048D01*
X25802Y15929D01*
X25817Y15811D01*
X25863Y15700D01*
X25936Y15605D01*
X26031Y15532D01*
X26141Y15487D01*
X26260Y15471D01*
X26378Y15487D01*
X26489Y15532D01*
X26584Y15605D01*
X26657Y15700D01*
X26702Y15811D01*
X26718Y15929D01*
X26710Y15988D01*
X26754Y16038D01*
X27234D01*
X27327Y16056D01*
X27406Y16109D01*
X27681Y16384D01*
X27709Y16372D01*
X27727Y16360D01*
X27735Y16324D01*
X27746Y16268D01*
X27746Y16268D01*
Y16268D01*
X27772Y16229D01*
X27798Y16190D01*
X27798D01*
Y16190D01*
X29462Y14526D01*
X29450Y14507D01*
X29430Y14409D01*
X29450Y14312D01*
X29505Y14229D01*
X29587Y14174D01*
X29685Y14155D01*
X29783Y14174D01*
X29814Y14195D01*
X29828Y14185D01*
X29921Y14167D01*
X30014Y14185D01*
X30038Y14201D01*
X30069Y14162D01*
X30010Y14102D01*
X25732D01*
X25732Y14102D01*
X25640Y14084D01*
X25561Y14031D01*
X25301Y13771D01*
X25248Y13693D01*
X25230Y13600D01*
Y13567D01*
X25162Y13515D01*
X25093Y13424D01*
X25049Y13318D01*
X25034Y13205D01*
X25049Y13091D01*
X25093Y12986D01*
X25162Y12895D01*
X25253Y12825D01*
X25359Y12781D01*
X25472Y12766D01*
X25586Y12781D01*
X25692Y12825D01*
X25782Y12895D01*
X25852Y12986D01*
X25896Y13091D01*
X25911Y13205D01*
X25896Y13318D01*
X25852Y13424D01*
X25782Y13515D01*
X25779Y13564D01*
X25833Y13618D01*
X28088D01*
X28105Y13568D01*
X28036Y13515D01*
X27967Y13424D01*
X27923Y13318D01*
X27908Y13205D01*
X27923Y13091D01*
X27967Y12986D01*
X28036Y12895D01*
X28127Y12825D01*
X28233Y12781D01*
X28346Y12766D01*
X28460Y12781D01*
X28566Y12825D01*
X28656Y12895D01*
X28726Y12986D01*
X28770Y13091D01*
X28785Y13205D01*
X28770Y13318D01*
X28726Y13424D01*
X28656Y13515D01*
X28588Y13568D01*
X28605Y13618D01*
X30110D01*
X30203Y13636D01*
X30281Y13689D01*
X30501Y13909D01*
X30554Y13987D01*
X30572Y14080D01*
Y15900D01*
X30621Y15948D01*
X30668Y15929D01*
Y13640D01*
X29259Y12231D01*
X29206Y12153D01*
X29188Y12060D01*
Y11300D01*
X28827Y10940D01*
X28781Y10959D01*
Y11639D01*
X27912D01*
Y10862D01*
X25907D01*
Y11639D01*
X25038D01*
Y10770D01*
X25230D01*
Y10720D01*
X25248Y10627D01*
X25301Y10549D01*
X25401Y10449D01*
X25480Y10396D01*
X25572Y10378D01*
X28850D01*
X28943Y10396D01*
X29021Y10449D01*
X29601Y11029D01*
X29654Y11107D01*
X29672Y11200D01*
Y11960D01*
X31081Y13369D01*
X31134Y13447D01*
X31152Y13540D01*
Y15970D01*
X31261Y16079D01*
X31314Y16157D01*
X31324Y16207D01*
X31374Y16202D01*
Y10785D01*
X31324Y10777D01*
X31295Y10873D01*
X31236Y10982D01*
X31157Y11079D01*
X31061Y11158D01*
X30951Y11216D01*
X30832Y11252D01*
X30709Y11264D01*
X30585Y11252D01*
X30466Y11216D01*
X30356Y11158D01*
X30260Y11079D01*
X30181Y10982D01*
X30122Y10873D01*
X30086Y10754D01*
X30074Y10630D01*
X30086Y10506D01*
X30122Y10387D01*
X30181Y10277D01*
X30260Y10181D01*
X30356Y10102D01*
X30466Y10044D01*
X30585Y10008D01*
X30709Y9995D01*
X30832Y10008D01*
X30951Y10044D01*
X31061Y10102D01*
X31157Y10181D01*
X31236Y10277D01*
X31295Y10387D01*
X31324Y10482D01*
X31374Y10475D01*
Y9945D01*
X9945D01*
Y42968D01*
X10117Y42969D01*
X10140Y42919D01*
X10102Y42872D01*
X10044Y42763D01*
X10008Y42643D01*
X9995Y42520D01*
X10008Y42396D01*
X10044Y42277D01*
X10102Y42167D01*
X10181Y42071D01*
X10277Y41992D01*
X10387Y41933D01*
X10506Y41897D01*
X10630Y41885D01*
X10754Y41897D01*
X10873Y41933D01*
X10982Y41992D01*
X11079Y42071D01*
X11158Y42167D01*
X11216Y42277D01*
X11252Y42396D01*
X11264Y42520D01*
X11252Y42643D01*
X11216Y42763D01*
X11158Y42872D01*
X11119Y42919D01*
X11142Y42969D01*
X30210Y42987D01*
X30234Y42937D01*
D02*
G37*
G36*
X30848Y38510D02*
Y36751D01*
X30801Y36732D01*
X30321Y37211D01*
X30243Y37264D01*
X30150Y37282D01*
X22730D01*
X22637Y37264D01*
X22559Y37211D01*
X16802Y31455D01*
X16749Y31376D01*
X16731Y31283D01*
Y31257D01*
X16685Y31238D01*
X16581Y31342D01*
Y31778D01*
X23540Y38738D01*
X26514D01*
Y37459D01*
X27895D01*
Y38738D01*
X30620D01*
X30848Y38510D01*
D02*
G37*
G36*
X30468Y36380D02*
Y22711D01*
X30418Y22687D01*
X30395Y22704D01*
X30311Y22739D01*
X30220Y22751D01*
X30130Y22739D01*
X30046Y22704D01*
X29974Y22648D01*
X29918Y22576D01*
X29883Y22492D01*
X29875Y22430D01*
X29825D01*
X29813Y22520D01*
X29767Y22631D01*
X29694Y22726D01*
X29599Y22798D01*
X29489Y22844D01*
X29370Y22860D01*
X29252Y22844D01*
X29141Y22798D01*
X29046Y22726D01*
X28973Y22631D01*
X28927Y22520D01*
X28912Y22402D01*
X28927Y22283D01*
X28973Y22172D01*
X29046Y22078D01*
X29141Y22005D01*
X29252Y21959D01*
X29370Y21943D01*
X29489Y21959D01*
X29599Y22005D01*
X29694Y22078D01*
X29767Y22172D01*
X29813Y22283D01*
X29825Y22374D01*
X29875D01*
X29883Y22311D01*
X29918Y22227D01*
X29974Y22155D01*
X30046Y22099D01*
X30130Y22064D01*
X30220Y22053D01*
X30311Y22064D01*
X30395Y22099D01*
X30418Y22117D01*
X30468Y22092D01*
Y17200D01*
X30418Y17184D01*
X30356Y17231D01*
X30323Y17245D01*
X30321Y17246D01*
X30309Y17305D01*
X30346Y17353D01*
X30381Y17439D01*
X30393Y17530D01*
X30381Y17621D01*
X30346Y17707D01*
X30290Y17780D01*
X30282Y17785D01*
Y19840D01*
X30264Y19933D01*
X30211Y20011D01*
X29881Y20341D01*
X29803Y20394D01*
X29710Y20412D01*
X29220D01*
X28802Y20830D01*
Y24730D01*
X28784Y24823D01*
X28731Y24901D01*
X23017Y30616D01*
X23037Y30666D01*
X23231D01*
X25238Y28659D01*
X25237Y28650D01*
X25249Y28559D01*
X25284Y28473D01*
X25340Y28400D01*
X25413Y28344D01*
X25499Y28309D01*
X25590Y28297D01*
X25681Y28309D01*
X25767Y28344D01*
X25840Y28400D01*
X25896Y28473D01*
X25931Y28559D01*
X25943Y28650D01*
X25931Y28741D01*
X25896Y28827D01*
X25840Y28900D01*
X25767Y28956D01*
X25681Y28991D01*
X25590Y29003D01*
X25581Y29002D01*
X25119Y29464D01*
X25137Y29516D01*
X25191Y29524D01*
X25277Y29559D01*
X25350Y29615D01*
X25406Y29688D01*
X25441Y29773D01*
X25453Y29865D01*
X25441Y29956D01*
X25406Y30041D01*
X25350Y30114D01*
X25277Y30170D01*
X25191Y30206D01*
X25100Y30218D01*
X25091Y30216D01*
X24948Y30359D01*
X24974Y30405D01*
X25066Y30382D01*
X25236Y30369D01*
X25406Y30382D01*
X25572Y30422D01*
X25730Y30488D01*
X25875Y30577D01*
X26005Y30688D01*
X26116Y30817D01*
X26205Y30963D01*
X26271Y31121D01*
X26310Y31287D01*
X26324Y31457D01*
X26310Y31627D01*
X26271Y31793D01*
X26205Y31950D01*
X26116Y32096D01*
X26005Y32226D01*
X25875Y32337D01*
X25792Y32388D01*
X25806Y32438D01*
X27450D01*
X27543Y32456D01*
X27622Y32509D01*
X29332Y34219D01*
X29375Y34191D01*
X29358Y34067D01*
X29375Y33943D01*
X29422Y33827D01*
X29499Y33728D01*
X29598Y33652D01*
X29713Y33604D01*
X29837Y33588D01*
X29961Y33604D01*
X30077Y33652D01*
X30176Y33728D01*
X30252Y33827D01*
X30300Y33943D01*
X30316Y34067D01*
X30300Y34191D01*
X30252Y34307D01*
X30176Y34406D01*
X30077Y34482D01*
X29961Y34530D01*
X29870Y34542D01*
Y34592D01*
X29961Y34604D01*
X30077Y34652D01*
X30176Y34728D01*
X30252Y34827D01*
X30300Y34943D01*
X30316Y35067D01*
X30300Y35191D01*
X30252Y35307D01*
X30176Y35406D01*
X30077Y35482D01*
X29961Y35530D01*
X29869Y35542D01*
X29872Y35592D01*
X30312D01*
Y36469D01*
X30359Y36489D01*
X30468Y36380D01*
D02*
G37*
G36*
X22068Y29390D02*
Y28513D01*
X22018Y28489D01*
X21973Y28523D01*
X21876Y28563D01*
X21772Y28577D01*
X21667Y28563D01*
X21570Y28523D01*
X21486Y28458D01*
X21422Y28375D01*
X21382Y28278D01*
X21368Y28173D01*
X21382Y28069D01*
X21422Y27971D01*
X21486Y27888D01*
X21570Y27824D01*
X21667Y27784D01*
X21772Y27770D01*
X21876Y27784D01*
X21973Y27824D01*
X22018Y27858D01*
X22068Y27833D01*
Y27513D01*
X22018Y27489D01*
X21973Y27523D01*
X21876Y27563D01*
X21772Y27577D01*
X21667Y27563D01*
X21570Y27523D01*
X21486Y27459D01*
X21454Y27416D01*
X20965D01*
X20872Y27397D01*
X20793Y27345D01*
X19860Y26411D01*
X19807Y26333D01*
X19789Y26240D01*
Y15962D01*
X19599Y15772D01*
X19552Y15796D01*
Y23382D01*
X19582Y23426D01*
X19600Y23518D01*
Y27107D01*
X20051Y27559D01*
X20104Y27637D01*
X20122Y27730D01*
Y29020D01*
X20580Y29478D01*
X21980D01*
X22068Y29390D01*
D02*
G37*
%LPC*%
G36*
X12205Y13170D02*
X12087Y13155D01*
X11978Y13110D01*
X11884Y13037D01*
X11812Y12943D01*
X11766Y12834D01*
X11751Y12717D01*
X11766Y12599D01*
X11812Y12490D01*
X11884Y12396D01*
X11978Y12323D01*
X12087Y12278D01*
X12205Y12263D01*
X12322Y12278D01*
X12432Y12323D01*
X12526Y12396D01*
X12598Y12490D01*
X12643Y12599D01*
X12659Y12717D01*
X12643Y12834D01*
X12598Y12943D01*
X12526Y13037D01*
X12432Y13110D01*
X12322Y13155D01*
X12205Y13170D01*
D02*
G37*
G36*
X20669D02*
X20552Y13155D01*
X20442Y13110D01*
X20348Y13037D01*
X20276Y12943D01*
X20231Y12834D01*
X20215Y12717D01*
X20231Y12599D01*
X20276Y12490D01*
X20348Y12396D01*
X20442Y12323D01*
X20552Y12278D01*
X20669Y12263D01*
X20787Y12278D01*
X20896Y12323D01*
X20990Y12396D01*
X21062Y12490D01*
X21108Y12599D01*
X21123Y12717D01*
X21108Y12834D01*
X21062Y12943D01*
X20990Y13037D01*
X20896Y13110D01*
X20787Y13155D01*
X20669Y13170D01*
D02*
G37*
G36*
X28346Y12643D02*
X28233Y12628D01*
X28127Y12584D01*
X28036Y12515D01*
X27967Y12424D01*
X27923Y12318D01*
X27908Y12205D01*
X27923Y12091D01*
X27967Y11986D01*
X28036Y11895D01*
X28127Y11825D01*
X28233Y11781D01*
X28346Y11766D01*
X28460Y11781D01*
X28566Y11825D01*
X28656Y11895D01*
X28726Y11986D01*
X28770Y12091D01*
X28785Y12205D01*
X28770Y12318D01*
X28726Y12424D01*
X28656Y12515D01*
X28566Y12584D01*
X28460Y12628D01*
X28346Y12643D01*
D02*
G37*
G36*
X21650Y21443D02*
X21559Y21431D01*
X21473Y21396D01*
X21400Y21340D01*
X21344Y21267D01*
X21309Y21181D01*
X21297Y21090D01*
X21309Y20999D01*
X21344Y20913D01*
X21400Y20840D01*
X21408Y20835D01*
Y12800D01*
Y12635D01*
X21426Y12542D01*
X21479Y12463D01*
X21909Y12033D01*
X21987Y11981D01*
X22079Y11962D01*
X22131Y11895D01*
X22222Y11825D01*
X22327Y11781D01*
X22441Y11766D01*
X22554Y11781D01*
X22660Y11825D01*
X22751Y11895D01*
X22821Y11986D01*
X22864Y12091D01*
X22879Y12205D01*
X22864Y12318D01*
X22821Y12424D01*
X22751Y12515D01*
X22660Y12584D01*
X22554Y12628D01*
X22441Y12643D01*
X22327Y12628D01*
X22311Y12621D01*
X22256Y12632D01*
X22160D01*
X21892Y12900D01*
Y20835D01*
X21900Y20840D01*
X21956Y20913D01*
X21991Y20999D01*
X22003Y21090D01*
X21991Y21181D01*
X21956Y21267D01*
X21900Y21340D01*
X21827Y21396D01*
X21741Y21431D01*
X21650Y21443D01*
D02*
G37*
G36*
X12205Y14170D02*
X12087Y14155D01*
X11978Y14110D01*
X11884Y14037D01*
X11812Y13943D01*
X11766Y13834D01*
X11751Y13717D01*
X11766Y13599D01*
X11812Y13490D01*
X11884Y13396D01*
X11978Y13323D01*
X12087Y13278D01*
X12205Y13263D01*
X12322Y13278D01*
X12432Y13323D01*
X12526Y13396D01*
X12598Y13490D01*
X12643Y13599D01*
X12659Y13717D01*
X12643Y13834D01*
X12598Y13943D01*
X12526Y14037D01*
X12432Y14110D01*
X12322Y14155D01*
X12205Y14170D01*
D02*
G37*
G36*
X20669Y15170D02*
X20552Y15155D01*
X20442Y15110D01*
X20348Y15037D01*
X20276Y14943D01*
X20231Y14834D01*
X20215Y14717D01*
X20231Y14599D01*
X20276Y14490D01*
X20348Y14396D01*
X20442Y14323D01*
X20552Y14278D01*
X20669Y14263D01*
X20787Y14278D01*
X20896Y14323D01*
X20990Y14396D01*
X21062Y14490D01*
X21108Y14599D01*
X21123Y14717D01*
X21108Y14834D01*
X21062Y14943D01*
X20990Y15037D01*
X20896Y15110D01*
X20787Y15155D01*
X20669Y15170D01*
D02*
G37*
G36*
X12205Y16170D02*
X12087Y16155D01*
X11978Y16110D01*
X11884Y16037D01*
X11812Y15943D01*
X11766Y15834D01*
X11751Y15717D01*
X11766Y15599D01*
X11812Y15490D01*
X11884Y15396D01*
X11978Y15323D01*
X12087Y15278D01*
X12205Y15263D01*
X12322Y15278D01*
X12432Y15323D01*
X12526Y15396D01*
X12598Y15490D01*
X12643Y15599D01*
X12659Y15717D01*
X12643Y15834D01*
X12598Y15943D01*
X12526Y16037D01*
X12432Y16110D01*
X12322Y16155D01*
X12205Y16170D01*
D02*
G37*
G36*
X20669Y14170D02*
X20552Y14155D01*
X20442Y14110D01*
X20348Y14037D01*
X20276Y13943D01*
X20231Y13834D01*
X20215Y13717D01*
X20231Y13599D01*
X20276Y13490D01*
X20348Y13396D01*
X20442Y13323D01*
X20552Y13278D01*
X20669Y13263D01*
X20787Y13278D01*
X20896Y13323D01*
X20990Y13396D01*
X21062Y13490D01*
X21108Y13599D01*
X21123Y13717D01*
X21108Y13834D01*
X21062Y13943D01*
X20990Y14037D01*
X20896Y14110D01*
X20787Y14155D01*
X20669Y14170D01*
D02*
G37*
G36*
X15945Y14329D02*
X15853Y14317D01*
X15768Y14282D01*
X15695Y14226D01*
X15639Y14153D01*
X15604Y14068D01*
X15597Y14015D01*
X15592Y14009D01*
X15543Y13986D01*
X15481Y14011D01*
X15390Y14023D01*
X15299Y14011D01*
X15213Y13976D01*
X15140Y13920D01*
X15084Y13847D01*
X15049Y13761D01*
X15037Y13670D01*
X15049Y13579D01*
X15084Y13493D01*
X15140Y13420D01*
X15148Y13415D01*
Y11713D01*
X15139Y11669D01*
X15158Y11572D01*
X15213Y11489D01*
X15296Y11434D01*
X15394Y11414D01*
X15491Y11434D01*
X15574Y11489D01*
X15629Y11572D01*
X15649Y11669D01*
X15632Y11750D01*
Y13393D01*
X15652Y13409D01*
X15702Y13385D01*
Y13058D01*
X15688Y12983D01*
X15706Y12891D01*
X15759Y12812D01*
X16989Y11581D01*
X17024Y11528D01*
X17107Y11473D01*
X17205Y11454D01*
X17302Y11473D01*
X17385Y11528D01*
X17440Y11611D01*
X17460Y11709D01*
X17440Y11806D01*
X17385Y11889D01*
X17332Y11924D01*
X16187Y13069D01*
Y13721D01*
X16194Y13727D01*
X16251Y13800D01*
X16286Y13885D01*
X16298Y13976D01*
X16286Y14068D01*
X16251Y14153D01*
X16194Y14226D01*
X16121Y14282D01*
X16036Y14317D01*
X15945Y14329D01*
D02*
G37*
G36*
X25472Y12643D02*
X25359Y12628D01*
X25253Y12584D01*
X25162Y12515D01*
X25093Y12424D01*
X25049Y12318D01*
X25034Y12205D01*
X25049Y12091D01*
X25093Y11986D01*
X25162Y11895D01*
X25253Y11825D01*
X25359Y11781D01*
X25472Y11766D01*
X25586Y11781D01*
X25692Y11825D01*
X25782Y11895D01*
X25852Y11986D01*
X25896Y12091D01*
X25911Y12205D01*
X25896Y12318D01*
X25852Y12424D01*
X25782Y12515D01*
X25692Y12584D01*
X25586Y12628D01*
X25472Y12643D01*
D02*
G37*
G36*
X12205Y11170D02*
X12087Y11155D01*
X11978Y11110D01*
X11884Y11037D01*
X11812Y10943D01*
X11766Y10834D01*
X11751Y10717D01*
X11766Y10599D01*
X11812Y10490D01*
X11884Y10396D01*
X11978Y10323D01*
X12087Y10278D01*
X12205Y10263D01*
X12322Y10278D01*
X12432Y10323D01*
X12526Y10396D01*
X12598Y10490D01*
X12643Y10599D01*
X12659Y10717D01*
X12643Y10834D01*
X12598Y10943D01*
X12526Y11037D01*
X12432Y11110D01*
X12322Y11155D01*
X12205Y11170D01*
D02*
G37*
G36*
X20669D02*
X20552Y11155D01*
X20442Y11110D01*
X20348Y11037D01*
X20276Y10943D01*
X20231Y10834D01*
X20215Y10717D01*
X20231Y10599D01*
X20276Y10490D01*
X20348Y10396D01*
X20442Y10323D01*
X20552Y10278D01*
X20669Y10263D01*
X20787Y10278D01*
X20896Y10323D01*
X20990Y10396D01*
X21062Y10490D01*
X21108Y10599D01*
X21123Y10717D01*
X21108Y10834D01*
X21062Y10943D01*
X20990Y11037D01*
X20896Y11110D01*
X20787Y11155D01*
X20669Y11170D01*
D02*
G37*
G36*
X10630Y11264D02*
X10506Y11252D01*
X10387Y11216D01*
X10277Y11158D01*
X10181Y11079D01*
X10102Y10982D01*
X10044Y10873D01*
X10008Y10754D01*
X9995Y10630D01*
X10008Y10506D01*
X10044Y10387D01*
X10102Y10277D01*
X10181Y10181D01*
X10277Y10102D01*
X10387Y10044D01*
X10506Y10008D01*
X10630Y9995D01*
X10754Y10008D01*
X10873Y10044D01*
X10982Y10102D01*
X11079Y10181D01*
X11158Y10277D01*
X11216Y10387D01*
X11252Y10506D01*
X11264Y10630D01*
X11252Y10754D01*
X11216Y10873D01*
X11158Y10982D01*
X11079Y11079D01*
X10982Y11158D01*
X10873Y11216D01*
X10754Y11252D01*
X10630Y11264D01*
D02*
G37*
G36*
X29685Y10664D02*
X29587Y10645D01*
X29505Y10590D01*
X29450Y10507D01*
X29430Y10409D01*
X29450Y10312D01*
X29505Y10229D01*
X29587Y10174D01*
X29685Y10155D01*
X29783Y10174D01*
X29865Y10229D01*
X29921Y10312D01*
X29940Y10409D01*
X29921Y10507D01*
X29865Y10590D01*
X29783Y10645D01*
X29685Y10664D01*
D02*
G37*
G36*
X22876Y11639D02*
X22006D01*
Y10770D01*
X22876D01*
Y11639D01*
D02*
G37*
G36*
X13819Y11924D02*
X13721Y11905D01*
X13639Y11850D01*
X13583Y11767D01*
X13564Y11669D01*
X13583Y11572D01*
X13639Y11489D01*
X13721Y11434D01*
X13819Y11414D01*
X13916Y11434D01*
X13999Y11489D01*
X14054Y11572D01*
X14074Y11669D01*
X14054Y11767D01*
X13999Y11850D01*
X13916Y11905D01*
X13819Y11924D01*
D02*
G37*
G36*
X18740Y11964D02*
X18643Y11944D01*
X18560Y11889D01*
X18505Y11806D01*
X18485Y11709D01*
X18505Y11611D01*
X18560Y11528D01*
X18643Y11473D01*
X18740Y11454D01*
X18838Y11473D01*
X18920Y11528D01*
X18976Y11611D01*
X18995Y11709D01*
X18976Y11806D01*
X18920Y11889D01*
X18838Y11944D01*
X18740Y11964D01*
D02*
G37*
G36*
X12205Y12170D02*
X12087Y12155D01*
X11978Y12110D01*
X11884Y12037D01*
X11812Y11943D01*
X11766Y11834D01*
X11751Y11717D01*
X11766Y11599D01*
X11812Y11490D01*
X11884Y11396D01*
X11978Y11323D01*
X12087Y11278D01*
X12205Y11263D01*
X12322Y11278D01*
X12432Y11323D01*
X12526Y11396D01*
X12598Y11490D01*
X12643Y11599D01*
X12659Y11717D01*
X12643Y11834D01*
X12598Y11943D01*
X12526Y12037D01*
X12432Y12110D01*
X12322Y12155D01*
X12205Y12170D01*
D02*
G37*
G36*
X20669D02*
X20552Y12155D01*
X20442Y12110D01*
X20348Y12037D01*
X20276Y11943D01*
X20231Y11834D01*
X20215Y11717D01*
X20231Y11599D01*
X20276Y11490D01*
X20348Y11396D01*
X20442Y11323D01*
X20552Y11278D01*
X20669Y11263D01*
X20787Y11278D01*
X20896Y11323D01*
X20990Y11396D01*
X21062Y11490D01*
X21108Y11599D01*
X21123Y11717D01*
X21108Y11834D01*
X21062Y11943D01*
X20990Y12037D01*
X20896Y12110D01*
X20787Y12155D01*
X20669Y12170D01*
D02*
G37*
G36*
X29370Y21860D02*
X29251Y21844D01*
X29141Y21798D01*
X29046Y21726D01*
X28973Y21631D01*
X28927Y21520D01*
X28912Y21402D01*
X28927Y21283D01*
X28973Y21172D01*
X29046Y21078D01*
X29141Y21005D01*
X29251Y20959D01*
X29370Y20943D01*
X29489Y20959D01*
X29599Y21005D01*
X29694Y21078D01*
X29767Y21172D01*
X29813Y21283D01*
X29828Y21402D01*
X29813Y21520D01*
X29767Y21631D01*
X29694Y21726D01*
X29599Y21798D01*
X29489Y21844D01*
X29370Y21860D01*
D02*
G37*
G36*
X12205Y22170D02*
X12087Y22155D01*
X11978Y22110D01*
X11884Y22037D01*
X11812Y21943D01*
X11766Y21834D01*
X11751Y21717D01*
X11766Y21599D01*
X11812Y21490D01*
X11884Y21396D01*
X11978Y21323D01*
X12087Y21278D01*
X12205Y21263D01*
X12322Y21278D01*
X12432Y21323D01*
X12526Y21396D01*
X12598Y21490D01*
X12643Y21599D01*
X12659Y21717D01*
X12643Y21834D01*
X12598Y21943D01*
X12526Y22037D01*
X12432Y22110D01*
X12322Y22155D01*
X12205Y22170D01*
D02*
G37*
G36*
Y21170D02*
X12087Y21155D01*
X11978Y21110D01*
X11884Y21037D01*
X11812Y20943D01*
X11766Y20834D01*
X11751Y20717D01*
X11766Y20599D01*
X11812Y20490D01*
X11884Y20396D01*
X11978Y20323D01*
X12087Y20278D01*
X12205Y20263D01*
X12322Y20278D01*
X12432Y20323D01*
X12526Y20396D01*
X12598Y20490D01*
X12643Y20599D01*
X12659Y20717D01*
X12643Y20834D01*
X12598Y20943D01*
X12526Y21037D01*
X12432Y21110D01*
X12322Y21155D01*
X12205Y21170D01*
D02*
G37*
G36*
X19724Y31974D02*
X19449D01*
X19371Y31959D01*
X19306Y31915D01*
X19266Y31875D01*
X19223Y31810D01*
X19207Y31732D01*
Y29370D01*
X19223Y29293D01*
X19266Y29227D01*
X19332Y29183D01*
X19409Y29168D01*
X19487Y29183D01*
X19553Y29227D01*
X19596Y29293D01*
X19612Y29370D01*
Y31569D01*
X19724D01*
X19802Y31585D01*
X19867Y31629D01*
X19911Y31694D01*
X19927Y31772D01*
X19911Y31849D01*
X19867Y31915D01*
X19802Y31959D01*
X19724Y31974D01*
D02*
G37*
G36*
X22172Y24573D02*
X21372D01*
Y23773D01*
X22172D01*
Y24573D01*
D02*
G37*
G36*
X26260Y23860D02*
X26141Y23844D01*
X26031Y23798D01*
X25936Y23726D01*
X25863Y23631D01*
X25817Y23520D01*
X25802Y23402D01*
X25817Y23283D01*
X25863Y23172D01*
X25936Y23078D01*
X26031Y23005D01*
X26141Y22959D01*
X26260Y22943D01*
X26378Y22959D01*
X26489Y23005D01*
X26584Y23078D01*
X26657Y23172D01*
X26702Y23283D01*
X26718Y23402D01*
X26702Y23520D01*
X26657Y23631D01*
X26584Y23726D01*
X26489Y23798D01*
X26378Y23844D01*
X26260Y23860D01*
D02*
G37*
G36*
X29370D02*
X29251Y23844D01*
X29141Y23798D01*
X29046Y23726D01*
X28973Y23631D01*
X28927Y23520D01*
X28912Y23402D01*
X28927Y23283D01*
X28973Y23172D01*
X29046Y23078D01*
X29141Y23005D01*
X29251Y22959D01*
X29370Y22943D01*
X29489Y22959D01*
X29599Y23005D01*
X29694Y23078D01*
X29767Y23172D01*
X29813Y23283D01*
X29828Y23402D01*
X29813Y23520D01*
X29767Y23631D01*
X29694Y23726D01*
X29599Y23798D01*
X29489Y23844D01*
X29370Y23860D01*
D02*
G37*
G36*
X14470Y31003D02*
X14379Y30991D01*
X14293Y30956D01*
X14220Y30900D01*
X14164Y30827D01*
X14129Y30741D01*
X14117Y30650D01*
X14129Y30559D01*
X14164Y30473D01*
X14220Y30400D01*
X14228Y30395D01*
Y28860D01*
X13400D01*
Y27991D01*
X14228D01*
Y27110D01*
X14176Y27033D01*
X14158Y26940D01*
Y21975D01*
X14108Y21951D01*
X14060Y21987D01*
X13963Y22028D01*
X13858Y22041D01*
X13754Y22028D01*
X13657Y21987D01*
X13573Y21923D01*
X13509Y21840D01*
X13469Y21742D01*
X13455Y21638D01*
X13469Y21533D01*
X13509Y21436D01*
X13573Y21353D01*
X13657Y21288D01*
X13754Y21248D01*
X13858Y21234D01*
X13963Y21248D01*
X14060Y21288D01*
X14108Y21325D01*
X14158Y21300D01*
Y19078D01*
X14103Y19056D01*
X14030Y19000D01*
X13974Y18927D01*
X13939Y18841D01*
X13927Y18750D01*
X13939Y18659D01*
X13974Y18573D01*
X14030Y18500D01*
X14103Y18444D01*
X14189Y18409D01*
X14280Y18397D01*
X14371Y18409D01*
X14457Y18444D01*
X14530Y18500D01*
X14586Y18573D01*
X14621Y18659D01*
X14633Y18750D01*
X14627Y18794D01*
X14635Y18834D01*
X14642Y18870D01*
Y26840D01*
X14694Y26917D01*
X14712Y27010D01*
Y30395D01*
X14720Y30400D01*
X14776Y30473D01*
X14811Y30559D01*
X14823Y30650D01*
X14811Y30741D01*
X14776Y30827D01*
X14720Y30900D01*
X14647Y30956D01*
X14561Y30991D01*
X14470Y31003D01*
D02*
G37*
G36*
X12205Y23170D02*
X12087Y23155D01*
X11978Y23110D01*
X11884Y23037D01*
X11812Y22943D01*
X11766Y22834D01*
X11751Y22717D01*
X11766Y22599D01*
X11812Y22490D01*
X11884Y22396D01*
X11978Y22323D01*
X12087Y22278D01*
X12205Y22263D01*
X12322Y22278D01*
X12432Y22323D01*
X12526Y22396D01*
X12598Y22490D01*
X12643Y22599D01*
X12659Y22717D01*
X12643Y22834D01*
X12598Y22943D01*
X12526Y23037D01*
X12432Y23110D01*
X12322Y23155D01*
X12205Y23170D01*
D02*
G37*
G36*
X23819Y20200D02*
X23756Y20187D01*
X22307D01*
X22244Y20200D01*
X22147Y20180D01*
X22064Y20125D01*
X22009Y20042D01*
X21989Y19945D01*
X22009Y19847D01*
X22064Y19765D01*
X22147Y19709D01*
X22244Y19690D01*
X22307Y19702D01*
X23756D01*
X23819Y19690D01*
X23916Y19709D01*
X23999Y19765D01*
X24054Y19847D01*
X24074Y19945D01*
X24054Y20042D01*
X23999Y20125D01*
X23916Y20180D01*
X23819Y20200D01*
D02*
G37*
G36*
X16339Y41324D02*
X16203Y41310D01*
X16073Y41271D01*
X15953Y41207D01*
X15848Y41121D01*
X15762Y41015D01*
X15698Y40895D01*
X15658Y40765D01*
X15645Y40630D01*
X15658Y40495D01*
X15698Y40364D01*
X15762Y40244D01*
X15848Y40139D01*
X15953Y40053D01*
X16073Y39989D01*
X16203Y39949D01*
X16339Y39936D01*
X16474Y39949D01*
X16604Y39989D01*
X16724Y40053D01*
X16829Y40139D01*
X16916Y40244D01*
X16980Y40364D01*
X17019Y40495D01*
X17032Y40630D01*
X17019Y40765D01*
X16980Y40895D01*
X16916Y41015D01*
X16829Y41121D01*
X16724Y41207D01*
X16604Y41271D01*
X16474Y41310D01*
X16339Y41324D01*
D02*
G37*
G36*
X12835Y28864D02*
X12721Y28849D01*
X12615Y28805D01*
X12525Y28735D01*
X12455Y28644D01*
X12411Y28539D01*
X12396Y28425D01*
X12411Y28312D01*
X12455Y28206D01*
X12525Y28115D01*
X12615Y28046D01*
X12721Y28002D01*
X12835Y27987D01*
X12948Y28002D01*
X13054Y28046D01*
X13145Y28115D01*
X13214Y28206D01*
X13258Y28312D01*
X13273Y28425D01*
X13258Y28539D01*
X13214Y28644D01*
X13145Y28735D01*
X13054Y28805D01*
X12948Y28849D01*
X12835Y28864D01*
D02*
G37*
G36*
X12205Y24170D02*
X12087Y24155D01*
X11978Y24110D01*
X11884Y24037D01*
X11812Y23943D01*
X11766Y23834D01*
X11751Y23717D01*
X11766Y23599D01*
X11812Y23490D01*
X11884Y23396D01*
X11978Y23323D01*
X12087Y23278D01*
X12205Y23263D01*
X12322Y23278D01*
X12432Y23323D01*
X12526Y23396D01*
X12598Y23490D01*
X12643Y23599D01*
X12659Y23717D01*
X12643Y23834D01*
X12598Y23943D01*
X12526Y24037D01*
X12432Y24110D01*
X12322Y24155D01*
X12205Y24170D01*
D02*
G37*
G36*
X23819Y16200D02*
X23782Y16192D01*
X22281D01*
X22244Y16200D01*
X22147Y16180D01*
X22064Y16125D01*
X22009Y16042D01*
X21989Y15945D01*
X22009Y15847D01*
X22064Y15765D01*
X22147Y15709D01*
X22244Y15690D01*
X22332Y15708D01*
X23731D01*
X23819Y15690D01*
X23916Y15709D01*
X23999Y15765D01*
X24054Y15847D01*
X24074Y15945D01*
X24054Y16042D01*
X23999Y16125D01*
X23916Y16180D01*
X23819Y16200D01*
D02*
G37*
G36*
X11950Y38840D02*
X10569D01*
Y37459D01*
X11950D01*
Y38840D01*
D02*
G37*
G36*
X12205Y20170D02*
X12087Y20155D01*
X11978Y20110D01*
X11884Y20037D01*
X11812Y19943D01*
X11766Y19834D01*
X11751Y19717D01*
X11766Y19599D01*
X11812Y19490D01*
X11884Y19396D01*
X11978Y19323D01*
X12087Y19278D01*
X12205Y19263D01*
X12322Y19278D01*
X12432Y19323D01*
X12526Y19396D01*
X12598Y19490D01*
X12643Y19599D01*
X12659Y19717D01*
X12643Y19834D01*
X12598Y19943D01*
X12526Y20037D01*
X12432Y20110D01*
X12322Y20155D01*
X12205Y20170D01*
D02*
G37*
G36*
X12655Y25167D02*
X11755D01*
Y24267D01*
X12655D01*
Y25167D01*
D02*
G37*
G36*
X11835Y28864D02*
X11721Y28849D01*
X11615Y28805D01*
X11525Y28735D01*
X11455Y28644D01*
X11411Y28539D01*
X11396Y28425D01*
X11411Y28312D01*
X11455Y28206D01*
X11525Y28115D01*
X11615Y28046D01*
X11721Y28002D01*
X11835Y27987D01*
X11948Y28002D01*
X12054Y28046D01*
X12145Y28115D01*
X12214Y28206D01*
X12258Y28312D01*
X12273Y28425D01*
X12258Y28539D01*
X12214Y28644D01*
X12145Y28735D01*
X12054Y28805D01*
X11948Y28849D01*
X11835Y28864D01*
D02*
G37*
G36*
X21772Y25577D02*
X21667Y25563D01*
X21570Y25523D01*
X21486Y25459D01*
X21422Y25375D01*
X21382Y25278D01*
X21368Y25173D01*
X21382Y25069D01*
X21422Y24971D01*
X21486Y24888D01*
X21570Y24824D01*
X21667Y24784D01*
X21772Y24770D01*
X21876Y24784D01*
X21973Y24824D01*
X22057Y24888D01*
X22121Y24971D01*
X22161Y25069D01*
X22175Y25173D01*
X22161Y25278D01*
X22121Y25375D01*
X22057Y25459D01*
X21973Y25523D01*
X21876Y25563D01*
X21772Y25577D01*
D02*
G37*
%LPD*%
D10*
X11811Y40709D02*
X13386Y39134D01*
X22795D01*
X24331Y40669D01*
D11*
X20965Y27173D02*
X21772D01*
X20031Y26240D02*
X20965Y27173D01*
X20031Y15861D02*
Y26240D01*
X18887Y14717D02*
X20031Y15861D01*
X12205Y14717D02*
X18887D01*
X18780Y16960D02*
Y17638D01*
X18400Y16580D02*
X18780Y16960D01*
X22244Y15945D02*
X22249Y15950D01*
X23814D01*
X23819Y15945D01*
X18480Y23490D02*
X18780Y23190D01*
Y21638D02*
Y23190D01*
X22800Y27240D02*
Y29840D01*
X18400Y17258D02*
X18780Y17638D01*
X18400Y16580D02*
Y17258D01*
X17313Y16717D02*
X17360Y16670D01*
X17313Y21197D02*
X17614Y21499D01*
Y24619D01*
X22730Y37040D02*
X30150D01*
X30710Y36480D01*
Y16624D02*
Y36480D01*
X30578Y16492D02*
X30710Y16624D01*
X30578Y16248D02*
Y16492D01*
X30330Y16000D02*
X30578Y16248D01*
X30330Y14080D02*
Y16000D01*
X30110Y13860D02*
X30330Y14080D01*
X25732Y13860D02*
X30110D01*
X25472Y13600D02*
X25732Y13860D01*
X25472Y13205D02*
Y13600D01*
X27450Y32680D02*
X29837Y35067D01*
X17990Y21123D02*
Y23928D01*
X17689Y20822D02*
X17990Y21123D01*
X17689Y19846D02*
Y20822D01*
Y19846D02*
X17912Y19623D01*
Y16260D02*
Y19623D01*
Y16260D02*
X18080Y16092D01*
X18357D01*
X18740Y15709D01*
X25660Y17529D02*
X26260Y16929D01*
X25660Y17529D02*
Y21802D01*
X26260Y22402D01*
X23400Y31565D02*
X25100Y29865D01*
X23400Y31565D02*
Y31760D01*
X15040Y29710D02*
X16110Y30780D01*
X22670Y30620D02*
X28560Y24730D01*
Y20730D02*
Y24730D01*
Y20730D02*
X29120Y20170D01*
X29710D01*
X30040Y19840D01*
Y17530D02*
Y19840D01*
X18530Y21388D02*
X18780Y21638D01*
X18530Y20570D02*
Y21388D01*
X18180Y20220D02*
Y20330D01*
X14280Y18750D02*
X14400Y18870D01*
Y26940D01*
X14470Y27010D01*
Y30650D01*
X23331Y30909D02*
X25590Y28650D01*
X26260Y15929D02*
X26611Y16280D01*
X27234D01*
X27594Y16640D01*
Y17486D01*
X27150Y17930D02*
X27594Y17486D01*
X27150Y17930D02*
Y20511D01*
X26260Y21402D02*
X27150Y20511D01*
X27970Y16361D02*
X29921Y14409D01*
X27970Y16361D02*
X27970Y17789D01*
X27859D02*
X27970D01*
X27800Y17848D02*
X27859Y17789D01*
X27800Y17848D02*
Y23950D01*
X24415Y27335D02*
X27800Y23950D01*
X23454Y27335D02*
X24415D01*
X22244Y19945D02*
X23819D01*
X20620Y25660D02*
X21133Y26173D01*
X21772D01*
X13819Y15669D02*
X14208Y15280D01*
X15702D01*
X15782Y15360D01*
Y15840D01*
X15561Y16060D02*
X15782Y15840D01*
X15040Y16060D02*
X15561D01*
X13320Y17280D02*
Y18240D01*
X12843Y18717D02*
X13320Y18240D01*
X12205Y18717D02*
X12843D01*
X14575Y15669D02*
X15394D01*
X12810Y16726D02*
Y17547D01*
X12640Y17717D02*
X12810Y17547D01*
X12205Y17717D02*
X12640D01*
X23960Y13200D02*
X24960Y14200D01*
Y25310D01*
X23520Y26750D02*
X24960Y25310D01*
X22610Y26750D02*
X23520D01*
X22544Y26816D02*
X22610Y26750D01*
X22534Y26816D02*
X22544D01*
X22310Y27040D02*
X22534Y26816D01*
X22310Y27040D02*
Y29490D01*
X22080Y29720D02*
X22310Y29490D01*
X20480Y29720D02*
X22080D01*
X19880Y29120D02*
X20480Y29720D01*
X19880Y27730D02*
Y29120D01*
X19358Y27208D02*
X19880Y27730D01*
X19358Y23518D02*
Y27208D01*
X19310Y23471D02*
X19358Y23518D01*
X19310Y15780D02*
Y23471D01*
X19130Y15600D02*
X19310Y15780D01*
X19130Y15520D02*
Y15600D01*
X18930Y15320D02*
X19130Y15520D01*
X16590Y15320D02*
X18930D01*
X16230Y15680D02*
X16590Y15320D01*
X16230Y15680D02*
Y16920D01*
X15512Y17638D02*
X16230Y16920D01*
X15433Y17638D02*
X15512D01*
X15930Y12983D02*
X17205Y11709D01*
X23440Y38980D02*
X30720D01*
X31090Y38610D01*
Y16250D02*
Y38610D01*
X30910Y16070D02*
X31090Y16250D01*
X30910Y13540D02*
Y16070D01*
X29430Y12060D02*
X30910Y13540D01*
X29430Y11200D02*
Y12060D01*
X28850Y10620D02*
X29430Y11200D01*
X25572Y10620D02*
X28850D01*
X25472Y10720D02*
X25572Y10620D01*
X25472Y10720D02*
Y11205D01*
X22256Y12390D02*
X22441Y12205D01*
X22060Y12390D02*
X22256D01*
X21650Y12800D02*
X22060Y12390D01*
X22080Y12205D02*
X22441D01*
X21650Y12635D02*
X22080Y12205D01*
X21650Y12635D02*
Y12800D01*
X18180Y20220D02*
X18530Y20570D01*
X17370Y16670D02*
Y17473D01*
X17205Y17638D02*
X17313Y17529D01*
X17370Y17473D01*
X17313Y16717D02*
Y17529D01*
Y21197D01*
X12810Y16726D02*
X12878Y16658D01*
X13320Y17280D02*
X13500Y17100D01*
X12878Y16658D02*
X13587D01*
X14575Y15669D01*
X13500Y17100D02*
X14000D01*
X15040Y16060D01*
Y17710D02*
Y29710D01*
X14961Y17631D02*
X15040Y17710D01*
X14961Y16968D02*
Y17631D01*
X22446Y13200D02*
X23960D01*
X22441Y13205D02*
X22446Y13200D01*
X21650Y12800D02*
Y21090D01*
X15390Y11673D02*
X15394Y11669D01*
X15390Y11673D02*
Y13670D01*
X15930Y12983D02*
X15945Y12998D01*
Y13976D01*
X16606Y16634D02*
X16780Y16460D01*
X16606Y16634D02*
Y17076D01*
X16339Y17343D02*
X16606Y17076D01*
X16339Y31879D02*
X23440Y38980D01*
X16339Y17343D02*
Y30319D01*
X16598Y30578D01*
Y30982D01*
X16339Y31241D02*
X16598Y30982D01*
X16339Y31241D02*
Y31879D01*
X16714Y25519D02*
X17614Y24619D01*
X16714Y25519D02*
Y30163D01*
X16973Y30422D01*
Y31283D02*
X22730Y37040D01*
X16973Y30422D02*
Y31283D01*
X17990Y23928D02*
X17990Y23928D01*
X17990Y23928D02*
Y24775D01*
X17090Y25675D02*
X17990Y24775D01*
X18366Y24514D02*
X18870Y24010D01*
X18366Y24514D02*
Y24930D01*
X17465Y25830D02*
X18366Y24930D01*
X22650Y31270D02*
X23011Y30909D01*
X23331D01*
X22510Y30620D02*
X22670D01*
X22022Y30418D02*
Y30618D01*
Y30418D02*
X22308Y30132D01*
X22508D01*
X22800Y29840D01*
X17090Y25675D02*
Y30008D01*
X17349Y30267D01*
Y31128D01*
X18901Y32680D01*
X27450D01*
X17465Y25830D02*
Y29852D01*
X17725Y30111D01*
Y30972D01*
X19057Y32304D01*
X20336D01*
X22022Y30618D01*
D12*
X19409Y29370D02*
Y31732D01*
X19449Y31772D01*
X19724D01*
D13*
X24331Y40669D02*
D03*
X20787D02*
D03*
D14*
X25236Y31457D02*
D03*
X13228Y37756D02*
D03*
D15*
X11260Y31063D02*
D03*
X27205D02*
D03*
Y38150D02*
D03*
X11260D02*
D03*
D16*
X16339Y40630D02*
D03*
X18307D02*
D03*
X13780Y40709D02*
D03*
X11811D02*
D03*
D17*
X23454Y27335D02*
D03*
Y28335D02*
D03*
X13858Y17638D02*
D03*
Y21638D02*
D03*
X21772Y25173D02*
D03*
Y26173D02*
D03*
Y27173D02*
D03*
Y28173D02*
D03*
Y29173D02*
D03*
X30709Y10630D02*
D03*
X10630D02*
D03*
Y42520D02*
D03*
X30709D02*
D03*
D18*
X21772Y24173D02*
D03*
D19*
X30220Y22402D02*
D03*
X27110Y16929D02*
D03*
Y22402D02*
D03*
X30181Y16929D02*
D03*
D20*
X29370Y24402D02*
D03*
Y23402D02*
D03*
X29370Y22402D02*
D03*
X29370Y21402D02*
D03*
X26260Y18929D02*
D03*
Y17929D02*
D03*
X26260Y16929D02*
D03*
X26260Y15929D02*
D03*
Y24402D02*
D03*
Y23402D02*
D03*
X26260Y22402D02*
D03*
X26260Y21402D02*
D03*
X29331Y18929D02*
D03*
Y17929D02*
D03*
X29331Y16929D02*
D03*
X29331Y15929D02*
D03*
D21*
X29837Y33067D02*
D03*
Y34067D02*
D03*
Y35067D02*
D03*
D22*
Y36067D02*
D03*
D23*
X11835Y28425D02*
D03*
X12835D02*
D03*
X28346Y13205D02*
D03*
Y12205D02*
D03*
X25472Y13205D02*
D03*
Y12205D02*
D03*
X22441Y13205D02*
D03*
Y12205D02*
D03*
D24*
X13835Y28425D02*
D03*
D25*
X28346Y11205D02*
D03*
X25472D02*
D03*
X22441Y11205D02*
D03*
D26*
X12205Y24717D02*
D03*
X20669D02*
D03*
D27*
X12205Y23717D02*
D03*
Y22717D02*
D03*
Y21717D02*
D03*
Y20717D02*
D03*
Y19717D02*
D03*
Y18717D02*
D03*
Y17717D02*
D03*
Y16717D02*
D03*
Y15717D02*
D03*
Y14717D02*
D03*
Y13717D02*
D03*
Y12717D02*
D03*
Y11717D02*
D03*
Y10717D02*
D03*
X20669Y23717D02*
D03*
Y22717D02*
D03*
Y21717D02*
D03*
Y20717D02*
D03*
Y19717D02*
D03*
Y18717D02*
D03*
Y17717D02*
D03*
Y16717D02*
D03*
Y15717D02*
D03*
Y14717D02*
D03*
Y13717D02*
D03*
Y12717D02*
D03*
Y11717D02*
D03*
Y10717D02*
D03*
D28*
X18400Y16580D02*
D03*
X17370Y16670D02*
D03*
X18480Y23490D02*
D03*
X18870Y24010D02*
D03*
X22800Y27240D02*
D03*
X17360Y16670D02*
D03*
X25100Y29865D02*
D03*
X23400Y31760D02*
D03*
X16110Y30780D02*
D03*
X30040Y17530D02*
D03*
X18180Y20330D02*
D03*
X14280Y18750D02*
D03*
X14470Y30650D02*
D03*
X22650Y31270D02*
D03*
X25590Y28650D02*
D03*
X20620Y25660D02*
D03*
X16780Y16460D02*
D03*
X14961Y16968D02*
D03*
X21650Y21090D02*
D03*
X15390Y13670D02*
D03*
X15945Y13976D02*
D03*
X22510Y30620D02*
D03*
X19409Y29370D02*
D03*
X19724Y31772D02*
D03*
M02*
