G04 Layer_Color=25308*
%FSLAX24Y24*%
%MOIN*%
G70*
G01*
G75*
%ADD10R,0.0591X0.0748*%
%ADD11R,0.0295X0.0295*%
%ADD12R,0.0748X0.0591*%
%ADD13R,0.0217X0.0177*%
%ADD14R,0.0740X0.0980*%
%ADD15O,0.0413X0.0177*%
%ADD16R,0.0413X0.0177*%
%ADD17R,0.0236X0.0354*%
%ADD18R,0.0236X0.0354*%
%ADD19R,0.0236X0.0630*%
%ADD20R,0.0394X0.0551*%
%ADD21R,0.0472X0.1102*%
%ADD40C,0.1575*%
%ADD41C,0.0600*%
%ADD42R,0.0540X0.0540*%
%ADD43C,0.0650*%
%ADD44C,0.0669*%
%ADD45R,0.0540X0.0540*%
D10*
X14026Y33189D02*
D03*
X15207D02*
D03*
X15748Y28543D02*
D03*
X14567D02*
D03*
D11*
X18524Y28307D02*
D03*
X19075D02*
D03*
D12*
X18967Y29892D02*
D03*
Y31073D02*
D03*
X35679Y35846D02*
D03*
Y34665D02*
D03*
X14045Y35965D02*
D03*
Y34783D02*
D03*
D13*
X17283Y27126D02*
D03*
X17579D02*
D03*
Y28071D02*
D03*
X17283D02*
D03*
X16752Y35522D02*
D03*
X16457D02*
D03*
X33337Y35384D02*
D03*
X33041D02*
D03*
D14*
X13570Y31791D02*
D03*
X15760D02*
D03*
X13570Y30020D02*
D03*
X15760D02*
D03*
D15*
X17953Y30335D02*
D03*
Y30591D02*
D03*
Y30846D02*
D03*
Y31102D02*
D03*
X16929Y30335D02*
D03*
Y30591D02*
D03*
Y30846D02*
D03*
D16*
Y31102D02*
D03*
D17*
X34232Y35226D02*
D03*
X15492Y35354D02*
D03*
D18*
X34606Y34557D02*
D03*
X33858D02*
D03*
X15866Y34685D02*
D03*
X15118D02*
D03*
D19*
X14232Y47116D02*
D03*
X14980D02*
D03*
X14606Y47825D02*
D03*
D20*
X14774Y48671D02*
D03*
X14400Y49537D02*
D03*
X15148D02*
D03*
D21*
X16654Y29429D02*
D03*
X17795D02*
D03*
D40*
X27165Y28346D02*
D03*
X29134D02*
D03*
X21260D02*
D03*
X23228D02*
D03*
X18110Y25295D02*
D03*
Y23327D02*
D03*
X32382Y25295D02*
D03*
Y23327D02*
D03*
X30276Y45472D02*
D03*
X28307D02*
D03*
X25236Y45512D02*
D03*
X23268D02*
D03*
X10817Y30020D02*
D03*
Y31988D02*
D03*
X30197Y37283D02*
D03*
X28228D02*
D03*
X30236Y40039D02*
D03*
X28268D02*
D03*
X30236Y42756D02*
D03*
X28268D02*
D03*
X25236Y39961D02*
D03*
X23268D02*
D03*
X25276Y37283D02*
D03*
X23307D02*
D03*
X25197Y42717D02*
D03*
X23228D02*
D03*
X20266D02*
D03*
X18297D02*
D03*
X20285Y37254D02*
D03*
X18317D02*
D03*
X20256Y40000D02*
D03*
X18287D02*
D03*
X41407Y35571D02*
D03*
X39439D02*
D03*
X41398Y38327D02*
D03*
X39429D02*
D03*
X41270Y41093D02*
D03*
X39301D02*
D03*
X37795Y51968D02*
D03*
Y26378D02*
D03*
X12598D02*
D03*
Y51968D02*
D03*
D41*
X15512Y37195D02*
D03*
X14512D02*
D03*
X34045Y37067D02*
D03*
X35045D02*
D03*
X13661Y44354D02*
D03*
X12661D02*
D03*
X11661D02*
D03*
X10661D02*
D03*
X13661Y45354D02*
D03*
X12661D02*
D03*
X11661D02*
D03*
X10661D02*
D03*
X17014Y49429D02*
D03*
Y48429D02*
D03*
Y47429D02*
D03*
Y46429D02*
D03*
X16014Y49429D02*
D03*
Y48429D02*
D03*
Y47429D02*
D03*
Y46429D02*
D03*
D42*
X8661Y43366D02*
D03*
D43*
X7661D02*
D03*
X8661Y42366D02*
D03*
X7661D02*
D03*
X8661Y41366D02*
D03*
X7661D02*
D03*
X8661Y40366D02*
D03*
X7661D02*
D03*
X8661Y39366D02*
D03*
X7661D02*
D03*
X8661Y38366D02*
D03*
X7661D02*
D03*
X8661Y37366D02*
D03*
X7661D02*
D03*
X8661Y36366D02*
D03*
X7661D02*
D03*
X21319Y32307D02*
D03*
X22319Y33307D02*
D03*
Y32307D02*
D03*
X23319Y33307D02*
D03*
Y32307D02*
D03*
X24319Y33307D02*
D03*
Y32307D02*
D03*
X25319Y33307D02*
D03*
Y32307D02*
D03*
X26319Y33307D02*
D03*
Y32307D02*
D03*
X27319Y33307D02*
D03*
Y32307D02*
D03*
X28319Y33307D02*
D03*
Y32307D02*
D03*
X35276Y43242D02*
D03*
X36276Y44242D02*
D03*
Y43242D02*
D03*
X37276Y44242D02*
D03*
Y43242D02*
D03*
X38276Y44242D02*
D03*
Y43242D02*
D03*
X39276Y44242D02*
D03*
Y43242D02*
D03*
X40276Y44242D02*
D03*
Y43242D02*
D03*
X41276Y44242D02*
D03*
Y43242D02*
D03*
X42276Y44242D02*
D03*
Y43242D02*
D03*
D44*
X9270Y48848D02*
D03*
X13270D02*
D03*
Y47195D02*
D03*
X9270D02*
D03*
D45*
X21319Y33307D02*
D03*
X35276Y44242D02*
D03*
M02*
