G04 Layer_Physical_Order=1*
G04 Layer_Color=25308*
%FSLAX24Y24*%
%MOIN*%
G70*
G01*
G75*
%ADD10R,0.0140X0.0200*%
%ADD11R,0.0118X0.0157*%
%ADD12R,0.0236X0.0354*%
%ADD13R,0.0236X0.0354*%
%ADD14C,0.0100*%
%ADD15C,0.0071*%
%ADD16C,0.0600*%
%ADD17R,0.0600X0.0600*%
%ADD18C,0.0709*%
%ADD19R,0.0709X0.0709*%
%ADD20C,0.0709*%
%ADD21O,0.0600X0.0800*%
%ADD22R,0.0600X0.0800*%
%ADD23C,0.1102*%
%ADD24C,0.1575*%
%ADD25C,0.0570*%
%ADD26R,0.0650X0.0650*%
%ADD27C,0.0650*%
%ADD28C,0.1181*%
%ADD29R,0.0600X0.0600*%
%ADD30C,0.0500*%
G36*
X10521Y37870D02*
X10536Y37865D01*
Y35570D01*
X10536Y35570D01*
X10544Y35530D01*
X10566Y35496D01*
X11676Y34387D01*
Y33237D01*
X11629Y33218D01*
X9930Y34917D01*
Y37696D01*
X10052Y37818D01*
X10133Y37784D01*
X10228Y37772D01*
X10324Y37784D01*
X10413Y37821D01*
X10486Y37877D01*
X10521Y37870D01*
D02*
G37*
G36*
X15402Y38478D02*
X15411Y38407D01*
X15443Y38330D01*
X15494Y38264D01*
X15560Y38213D01*
X15637Y38181D01*
X15720Y38170D01*
X15757Y38175D01*
X15780Y38128D01*
X15585Y37932D01*
X15458D01*
X15418Y37924D01*
X15384Y37902D01*
X15165Y37682D01*
X15132Y37690D01*
X15115Y37701D01*
Y38262D01*
X15356Y38503D01*
X15402Y38478D01*
D02*
G37*
G36*
X18726Y37912D02*
Y37680D01*
X18726Y37680D01*
X18734Y37640D01*
X18756Y37606D01*
X18846Y37516D01*
X18846Y37516D01*
X18873Y37498D01*
Y37453D01*
X18895D01*
Y37417D01*
X18903Y37377D01*
X18925Y37343D01*
X18959Y37321D01*
X18999Y37313D01*
X19351D01*
X19391Y37321D01*
X19425Y37343D01*
X19448Y37377D01*
X19449Y37383D01*
X19502Y37395D01*
X19534Y37354D01*
X19600Y37303D01*
X19677Y37271D01*
X19681Y37271D01*
X19695Y37218D01*
X19690Y37214D01*
X19690Y37214D01*
X18736D01*
X18489Y37462D01*
Y37744D01*
X18453D01*
X18428Y37794D01*
X18443Y37813D01*
X18518D01*
X18518Y37813D01*
X18558Y37821D01*
X18592Y37844D01*
X18679Y37931D01*
X18726Y37912D01*
D02*
G37*
G36*
X16440Y44147D02*
X16422Y44095D01*
X16374Y44088D01*
X16297Y44056D01*
X16231Y44006D01*
X16180Y43939D01*
X16148Y43862D01*
X16137Y43780D01*
X16148Y43697D01*
X16180Y43620D01*
X16231Y43553D01*
X16297Y43503D01*
X16352Y43480D01*
Y41021D01*
X15993Y40662D01*
X15971Y40628D01*
X15963Y40588D01*
X15963Y40588D01*
Y38880D01*
X15858Y38776D01*
X15803Y38799D01*
X15720Y38810D01*
X15637Y38799D01*
X15560Y38767D01*
X15522Y38738D01*
X15472Y38762D01*
Y43662D01*
X15472Y43662D01*
X15464Y43702D01*
X15441Y43736D01*
X15248Y43930D01*
X15258Y43990D01*
X15305Y44026D01*
X15356Y44092D01*
X15388Y44169D01*
X15398Y44252D01*
X15388Y44335D01*
X15356Y44412D01*
X15326Y44450D01*
X15351Y44500D01*
X16087D01*
X16440Y44147D01*
D02*
G37*
G36*
X17022Y39024D02*
Y38472D01*
X16941D01*
Y37984D01*
X17024D01*
X17030Y37954D01*
X17047Y37928D01*
X17038Y37904D01*
X17020Y37882D01*
X17009Y37884D01*
X17009Y37884D01*
X16683D01*
X16563Y38005D01*
Y38472D01*
X16244D01*
Y38588D01*
X16452Y38796D01*
X16567D01*
Y38654D01*
X16937D01*
Y39021D01*
X16979Y39045D01*
X17022Y39024D01*
D02*
G37*
G36*
X22626Y37873D02*
Y37680D01*
X22626Y37680D01*
X22634Y37640D01*
X22656Y37606D01*
X22746Y37516D01*
X22746Y37516D01*
X22771Y37500D01*
Y37453D01*
X22771Y37453D01*
Y37453D01*
X22771Y37453D01*
X22771D01*
X22771Y37453D01*
X22797Y37415D01*
X22797Y37414D01*
X22800Y37400D01*
X22823Y37366D01*
X23063Y37126D01*
X23063Y37126D01*
X23051Y37105D01*
X23033Y37084D01*
X23023Y37089D01*
X22940Y37100D01*
X22857Y37089D01*
X22780Y37057D01*
X22714Y37006D01*
X22663Y36940D01*
X22662Y36937D01*
X22446D01*
X22405Y36958D01*
X22405Y36958D01*
Y37453D01*
X22426D01*
Y37714D01*
X22426Y37744D01*
X22462Y37778D01*
X22474Y37786D01*
X22579Y37892D01*
X22626Y37873D01*
D02*
G37*
G36*
X28018Y38872D02*
X28036Y38860D01*
Y37860D01*
X27098Y36923D01*
X27085Y36934D01*
X26978Y36991D01*
X26861Y37026D01*
X26740Y37038D01*
X26619Y37026D01*
X26502Y36991D01*
X26395Y36934D01*
X26301Y36857D01*
X26224Y36762D01*
X26166Y36655D01*
X26131Y36538D01*
X26119Y36417D01*
X26131Y36296D01*
X26152Y36226D01*
X26108Y36200D01*
X26034Y36273D01*
Y36928D01*
X27986Y38879D01*
X28018Y38872D01*
D02*
G37*
G36*
X29276Y45846D02*
X29506Y45616D01*
X29540Y45594D01*
X29580Y45586D01*
X29672D01*
X29675Y45536D01*
X29646Y45532D01*
X29561Y45496D01*
X29487Y45440D01*
X29431Y45366D01*
X29395Y45281D01*
X29383Y45189D01*
X29395Y45097D01*
X29431Y45012D01*
X29487Y44938D01*
X29561Y44882D01*
X29646Y44846D01*
X29738Y44834D01*
X29830Y44846D01*
X29916Y44882D01*
X29989Y44938D01*
X30046Y45012D01*
X30081Y45097D01*
X30093Y45189D01*
X30081Y45281D01*
X30046Y45366D01*
X29989Y45440D01*
X29916Y45496D01*
X29830Y45532D01*
X29801Y45536D01*
X29805Y45586D01*
X30087D01*
X30596Y45077D01*
Y36853D01*
X30546Y36832D01*
X29224Y38153D01*
Y45834D01*
X29274Y45849D01*
X29276Y45846D01*
D02*
G37*
G36*
X28555Y40882D02*
X28640Y40846D01*
X28732Y40834D01*
X28824Y40846D01*
X28910Y40882D01*
X28966Y40924D01*
X29016Y40902D01*
Y38110D01*
X29016Y38110D01*
X29024Y38070D01*
X29046Y38036D01*
X30016Y37066D01*
X29991Y37023D01*
X29979Y37026D01*
X29858Y37038D01*
X29737Y37026D01*
X29621Y36991D01*
X29513Y36934D01*
X29419Y36857D01*
X29342Y36762D01*
X29284Y36655D01*
X29249Y36538D01*
X29237Y36417D01*
X29249Y36296D01*
X29284Y36180D01*
X29342Y36072D01*
X29419Y35978D01*
X29513Y35901D01*
X29621Y35844D01*
X29737Y35808D01*
X29791Y35803D01*
X29814Y35750D01*
X29783Y35710D01*
X29760Y35654D01*
X28138D01*
X27750Y36042D01*
Y37085D01*
X28414Y37748D01*
X28436Y37782D01*
X28444Y37822D01*
X28444Y37822D01*
Y40910D01*
X28494Y40928D01*
X28555Y40882D01*
D02*
G37*
G36*
X18046Y37691D02*
Y37453D01*
X18212D01*
X18259Y37440D01*
X18267Y37400D01*
X18289Y37366D01*
X18619Y37036D01*
X18619Y37036D01*
X18653Y37014D01*
X18693Y37006D01*
X19373D01*
X19392Y36959D01*
X18912Y36480D01*
X18866Y36499D01*
Y36898D01*
X18496D01*
Y36409D01*
X18577D01*
Y35883D01*
X18538Y35845D01*
X18492Y35864D01*
Y36228D01*
X18411D01*
Y36800D01*
X18404Y36840D01*
X18381Y36874D01*
X18381Y36874D01*
X18061Y37194D01*
X18027Y37216D01*
X17987Y37224D01*
X17987Y37224D01*
X17442D01*
X17400Y37267D01*
X17419Y37313D01*
X17554D01*
X17554Y37313D01*
X17594Y37321D01*
X17628Y37343D01*
X17996Y37712D01*
X18046Y37691D01*
D02*
G37*
G36*
X20489Y37096D02*
X20489Y37096D01*
X20491Y37094D01*
X20476Y37044D01*
X20320D01*
X20320Y37044D01*
X20287Y37038D01*
X20280Y37036D01*
X20246Y37014D01*
X20246Y37014D01*
X20162Y36930D01*
X20140Y36896D01*
X20132Y36856D01*
X20132Y36856D01*
Y36348D01*
X20082Y36338D01*
X20077Y36350D01*
X20026Y36416D01*
X19960Y36467D01*
X19883Y36499D01*
X19800Y36510D01*
X19717Y36499D01*
X19640Y36467D01*
X19574Y36416D01*
X19523Y36350D01*
X19491Y36273D01*
X19480Y36190D01*
X19481Y36182D01*
X19448Y36144D01*
X19240D01*
Y36228D01*
X19021D01*
X19002Y36275D01*
X19733Y37006D01*
X19962D01*
X19962Y37006D01*
X20002Y37014D01*
X20036Y37036D01*
X20292Y37292D01*
X20489Y37096D01*
D02*
G37*
G36*
X36952Y43337D02*
X36913Y43244D01*
X36900Y43142D01*
X36913Y43039D01*
X36953Y42944D01*
X37016Y42862D01*
X37039Y42844D01*
X37022Y42794D01*
X36333D01*
X36316Y42844D01*
X36363Y42881D01*
X36431Y42969D01*
X36473Y43071D01*
X36488Y43181D01*
X36473Y43291D01*
X36431Y43394D01*
X36363Y43482D01*
X36293Y43536D01*
X36310Y43586D01*
X36704D01*
X36952Y43337D01*
D02*
G37*
G36*
X35833Y43536D02*
X35763Y43482D01*
X35695Y43394D01*
X35653Y43291D01*
X35638Y43181D01*
X35653Y43071D01*
X35695Y42969D01*
X35763Y42881D01*
X35810Y42844D01*
X35793Y42794D01*
X34814D01*
X34811Y42844D01*
X34824Y42846D01*
X34910Y42882D01*
X34983Y42938D01*
X35040Y43011D01*
X35075Y43097D01*
X35087Y43189D01*
X35075Y43281D01*
X35040Y43366D01*
X34983Y43440D01*
X34910Y43496D01*
X34824Y43532D01*
X34795Y43536D01*
X34799Y43586D01*
X35816D01*
X35833Y43536D01*
D02*
G37*
G36*
X14831Y44450D02*
X14802Y44412D01*
X14770Y44335D01*
X14759Y44252D01*
X14770Y44169D01*
X14802Y44092D01*
X14853Y44026D01*
X14919Y43975D01*
X14974Y43952D01*
Y43951D01*
X14974Y43951D01*
X14982Y43911D01*
X15005Y43877D01*
X15263Y43619D01*
Y43547D01*
X15213Y43532D01*
X15146Y43584D01*
X15056Y43621D01*
X14961Y43634D01*
X14865Y43621D01*
X14776Y43584D01*
X14699Y43525D01*
X14640Y43449D01*
X14603Y43360D01*
X14591Y43264D01*
X14603Y43168D01*
X14640Y43079D01*
X14699Y43002D01*
X14776Y42943D01*
X14865Y42906D01*
X14961Y42894D01*
X15056Y42906D01*
X15146Y42943D01*
X15213Y42995D01*
X15263Y42981D01*
Y38706D01*
X14936Y38379D01*
X14914Y38345D01*
X14906Y38305D01*
X14906Y38305D01*
Y26036D01*
X14893Y26020D01*
X14861Y25943D01*
X14850Y25860D01*
X14861Y25777D01*
X14893Y25700D01*
X14944Y25634D01*
X15010Y25583D01*
X15087Y25551D01*
X15170Y25540D01*
X15253Y25551D01*
X15330Y25583D01*
X15396Y25634D01*
X15447Y25700D01*
X15479Y25777D01*
X15490Y25860D01*
X15479Y25943D01*
X15447Y26020D01*
X15396Y26086D01*
X15330Y26137D01*
X15253Y26169D01*
X15170Y26180D01*
X15152Y26177D01*
X15115Y26210D01*
Y35168D01*
X15132Y35179D01*
X15165Y35187D01*
X16246Y34106D01*
Y26209D01*
X16246Y26209D01*
X16254Y26169D01*
X16276Y26135D01*
X16468Y25943D01*
Y25314D01*
X15083D01*
X14792Y25605D01*
Y27892D01*
X14792Y27892D01*
X14786Y27926D01*
X14784Y27932D01*
X14762Y27966D01*
X14762Y27966D01*
X14205Y28523D01*
Y43498D01*
X14215Y43503D01*
X14281Y43553D01*
X14332Y43620D01*
X14364Y43697D01*
X14375Y43780D01*
X14364Y43862D01*
X14332Y43939D01*
X14281Y44006D01*
X14215Y44056D01*
X14138Y44088D01*
X14090Y44095D01*
X14072Y44147D01*
X14425Y44500D01*
X14807D01*
X14831Y44450D01*
D02*
G37*
G36*
X19004Y46147D02*
X19036Y46134D01*
Y44906D01*
X18986Y44882D01*
X18940Y44917D01*
X18863Y44949D01*
X18780Y44960D01*
X18774Y44965D01*
Y45985D01*
X18854Y46018D01*
X18931Y46077D01*
X18986Y46148D01*
X19004Y46147D01*
D02*
G37*
G36*
X38756Y44390D02*
Y43750D01*
X38491Y43485D01*
X38398Y43524D01*
X38295Y43537D01*
X38193Y43524D01*
X38098Y43484D01*
X38016Y43421D01*
X38012Y43417D01*
X37965Y43433D01*
Y43851D01*
X38012Y43867D01*
X38016Y43862D01*
X38098Y43799D01*
X38193Y43760D01*
X38295Y43746D01*
X38398Y43760D01*
X38493Y43799D01*
X38575Y43862D01*
X38638Y43944D01*
X38677Y44039D01*
X38691Y44142D01*
X38677Y44244D01*
X38638Y44337D01*
X38710Y44409D01*
X38756Y44390D01*
D02*
G37*
G36*
X32870Y44263D02*
X32947Y44231D01*
X33030Y44220D01*
X33113Y44231D01*
X33168Y44254D01*
X33806Y43616D01*
X33806Y43616D01*
X33829Y43601D01*
X33840Y43594D01*
X33880Y43586D01*
X33880Y43586D01*
X34666D01*
X34669Y43536D01*
X34640Y43532D01*
X34555Y43496D01*
X34481Y43440D01*
X34425Y43366D01*
X34389Y43281D01*
X34377Y43189D01*
X34389Y43097D01*
X34425Y43011D01*
X34481Y42938D01*
X34555Y42882D01*
X34640Y42846D01*
X34654Y42844D01*
X34650Y42794D01*
X33430D01*
X33430Y42794D01*
X33397Y42788D01*
X33390Y42786D01*
X33356Y42764D01*
X33356Y42764D01*
X33258Y42666D01*
X33217Y42690D01*
X33249Y42767D01*
X33260Y42850D01*
X33249Y42933D01*
X33217Y43010D01*
X33166Y43076D01*
X33100Y43127D01*
X33023Y43159D01*
X32940Y43170D01*
X32857Y43159D01*
X32815Y43141D01*
X32774Y43174D01*
Y44274D01*
X32824Y44298D01*
X32870Y44263D01*
D02*
G37*
G36*
X16705Y43507D02*
Y43467D01*
X16705Y43467D01*
X16713Y43427D01*
X16735Y43393D01*
X17556Y42572D01*
Y38720D01*
X17556Y38720D01*
X17564Y38680D01*
X17586Y38646D01*
X18076Y38157D01*
X18086Y38096D01*
X17511Y37522D01*
X17426D01*
Y37744D01*
X17405D01*
Y37820D01*
X17397Y37860D01*
X17374Y37894D01*
X17374Y37894D01*
X17328Y37940D01*
X17311Y37984D01*
X17311D01*
X17311Y37984D01*
Y38472D01*
X17230D01*
Y39040D01*
X17286Y39063D01*
X17352Y39114D01*
X17403Y39180D01*
X17435Y39257D01*
X17446Y39340D01*
X17435Y39423D01*
X17403Y39500D01*
X17352Y39566D01*
X17286Y39617D01*
X17209Y39649D01*
X17126Y39660D01*
X17043Y39649D01*
X16966Y39617D01*
X16900Y39566D01*
X16849Y39500D01*
X16817Y39423D01*
X16806Y39340D01*
X16817Y39257D01*
X16844Y39192D01*
X16822Y39142D01*
X16567D01*
Y39004D01*
X16409D01*
X16409Y39004D01*
X16376Y38998D01*
X16369Y38996D01*
X16335Y38974D01*
X16221Y38860D01*
X16171Y38881D01*
Y39974D01*
X16221Y39991D01*
X16265Y39934D01*
X16383Y39843D01*
X16521Y39786D01*
X16669Y39767D01*
X16817Y39786D01*
X16955Y39843D01*
X17074Y39934D01*
X17165Y40053D01*
X17222Y40191D01*
X17241Y40339D01*
X17222Y40487D01*
X17165Y40624D01*
X17074Y40743D01*
X16955Y40834D01*
X16817Y40891D01*
X16669Y40910D01*
X16588Y40900D01*
X16570Y40919D01*
X16554Y40945D01*
X16561Y40978D01*
X16561Y40978D01*
Y43480D01*
X16617Y43503D01*
X16655Y43532D01*
X16705Y43507D01*
D02*
G37*
G36*
X27676Y40871D02*
Y39059D01*
X27473Y38857D01*
X27427Y38876D01*
Y40770D01*
X27433Y40771D01*
X27535Y40813D01*
X27623Y40881D01*
X27628Y40887D01*
X27676Y40871D01*
D02*
G37*
G36*
X35833Y42536D02*
X35763Y42482D01*
X35695Y42394D01*
X35653Y42291D01*
X35638Y42181D01*
X35653Y42071D01*
X35695Y41969D01*
X35763Y41881D01*
X35851Y41813D01*
X35896Y41794D01*
X35886Y41744D01*
X35600D01*
X35600Y41744D01*
X35560Y41736D01*
X35549Y41729D01*
X35526Y41714D01*
X35526Y41714D01*
X35046Y41234D01*
X35024Y41200D01*
X35016Y41160D01*
X35016Y41160D01*
Y40513D01*
X33666Y39164D01*
X33644Y39130D01*
X33636Y39090D01*
X33636Y39090D01*
Y37353D01*
X33603D01*
Y37019D01*
X33636D01*
Y35393D01*
X32966Y34724D01*
X32944Y34690D01*
X32936Y34650D01*
X32936Y34650D01*
Y30220D01*
X32936Y30220D01*
X32944Y30180D01*
X32966Y30146D01*
X33139Y29973D01*
X33136Y29968D01*
X33094Y29866D01*
X33079Y29756D01*
X33094Y29646D01*
X33136Y29543D01*
X33203Y29455D01*
X33223Y29441D01*
X33210Y29387D01*
X33194Y29384D01*
X32774Y29803D01*
Y30780D01*
X32766Y30820D01*
X32744Y30854D01*
X32744Y30854D01*
X28198Y35399D01*
X28217Y35446D01*
X29760D01*
X29783Y35390D01*
X29834Y35324D01*
X29900Y35273D01*
X29977Y35241D01*
X30060Y35230D01*
X30143Y35241D01*
X30146Y35243D01*
X30150Y35241D01*
X30190Y35207D01*
Y34240D01*
X30190Y34240D01*
X30198Y34200D01*
X30220Y34166D01*
X30430Y33956D01*
X30464Y33934D01*
X30471Y33932D01*
X30504Y33926D01*
X30504Y33926D01*
X30980D01*
X31003Y33870D01*
X31054Y33804D01*
X31120Y33753D01*
X31197Y33721D01*
X31280Y33710D01*
X31363Y33721D01*
X31440Y33753D01*
X31478Y33783D01*
X31528Y33758D01*
Y32967D01*
X31473Y32944D01*
X31407Y32893D01*
X31356Y32827D01*
X31324Y32750D01*
X31313Y32667D01*
X31324Y32585D01*
X31356Y32508D01*
X31407Y32441D01*
X31473Y32390D01*
X31550Y32359D01*
X31633Y32348D01*
X31715Y32359D01*
X31792Y32390D01*
X31859Y32441D01*
X31909Y32508D01*
X31941Y32585D01*
X31952Y32667D01*
X31941Y32750D01*
X31909Y32827D01*
X31859Y32893D01*
X31792Y32944D01*
X31737Y32967D01*
Y34319D01*
X31737Y34319D01*
X31734Y34333D01*
X31780Y34361D01*
X31790Y34353D01*
X31867Y34321D01*
X31950Y34310D01*
X32033Y34321D01*
X32110Y34353D01*
X32176Y34404D01*
X32227Y34470D01*
X32259Y34547D01*
X32266Y34599D01*
X32316Y34596D01*
Y33900D01*
X32260Y33877D01*
X32194Y33826D01*
X32143Y33760D01*
X32111Y33683D01*
X32100Y33600D01*
X32111Y33517D01*
X32143Y33440D01*
X32194Y33374D01*
X32260Y33323D01*
X32337Y33291D01*
X32420Y33280D01*
X32503Y33291D01*
X32580Y33323D01*
X32646Y33374D01*
X32697Y33440D01*
X32729Y33517D01*
X32740Y33600D01*
X32729Y33683D01*
X32697Y33760D01*
X32646Y33826D01*
X32580Y33877D01*
X32524Y33900D01*
Y41414D01*
X32574Y41438D01*
X32620Y41403D01*
X32697Y41371D01*
X32780Y41360D01*
X32863Y41371D01*
X32940Y41403D01*
X33006Y41454D01*
X33057Y41520D01*
X33089Y41597D01*
X33100Y41680D01*
X33089Y41763D01*
X33057Y41840D01*
X33006Y41906D01*
X32940Y41957D01*
X32922Y41964D01*
X32911Y42023D01*
X33473Y42586D01*
X34666D01*
X34669Y42536D01*
X34640Y42532D01*
X34555Y42496D01*
X34481Y42440D01*
X34425Y42366D01*
X34389Y42281D01*
X34377Y42189D01*
X34389Y42097D01*
X34425Y42011D01*
X34481Y41938D01*
X34555Y41882D01*
X34640Y41846D01*
X34732Y41834D01*
X34824Y41846D01*
X34910Y41882D01*
X34983Y41938D01*
X35040Y42011D01*
X35075Y42097D01*
X35087Y42189D01*
X35075Y42281D01*
X35040Y42366D01*
X34983Y42440D01*
X34910Y42496D01*
X34824Y42532D01*
X34795Y42536D01*
X34799Y42586D01*
X35816D01*
X35833Y42536D01*
D02*
G37*
G36*
X26034Y58536D02*
X26869Y58482D01*
X27701Y58391D01*
X28528Y58263D01*
X29349Y58100D01*
X30162Y57901D01*
X30966Y57667D01*
X31758Y57398D01*
X32538Y57094D01*
X33305Y56757D01*
X34055Y56387D01*
X34789Y55984D01*
X35505Y55550D01*
X36201Y55085D01*
X36876Y54590D01*
X37528Y54066D01*
X38158Y53514D01*
X38762Y52936D01*
X39341Y52331D01*
X39893Y51702D01*
X40417Y51049D01*
X40912Y50374D01*
X41377Y49678D01*
X41811Y48962D01*
X42214Y48229D01*
X42584Y47478D01*
X42921Y46712D01*
X43224Y45932D01*
X43494Y45139D01*
X43728Y44335D01*
X43927Y43522D01*
X44090Y42701D01*
X44217Y41874D01*
X44308Y41042D01*
X44363Y40207D01*
X44381Y39370D01*
X44363Y38533D01*
X44308Y37698D01*
X44217Y36866D01*
X44090Y36039D01*
X43927Y35218D01*
X43728Y34405D01*
X43494Y33601D01*
X43224Y32809D01*
X42921Y32028D01*
X42584Y31262D01*
X42214Y30512D01*
X41811Y29778D01*
X41377Y29062D01*
X40912Y28366D01*
X40417Y27691D01*
X39893Y27038D01*
X39341Y26409D01*
X38762Y25805D01*
X38158Y25226D01*
X37528Y24674D01*
X36876Y24150D01*
X36201Y23655D01*
X35505Y23190D01*
X34789Y22756D01*
X34055Y22353D01*
X33305Y21983D01*
X32538Y21646D01*
X31758Y21342D01*
X31298Y21186D01*
X31257Y21215D01*
Y21629D01*
X31250Y21665D01*
Y27087D01*
X31242Y27128D01*
X31218Y27163D01*
X31183Y27187D01*
X31142Y27195D01*
X20795D01*
X20775Y27241D01*
X24264Y30730D01*
X24286Y30763D01*
X24294Y30803D01*
X24294Y30803D01*
Y32228D01*
X24294Y32228D01*
X24286Y32268D01*
X24279Y32279D01*
X24264Y32302D01*
X24264Y32302D01*
X24083Y32483D01*
X24088Y32519D01*
X24097Y32536D01*
X24116Y32540D01*
X24463Y32192D01*
X24430Y32112D01*
X24417Y32016D01*
X24430Y31920D01*
X24467Y31831D01*
X24526Y31754D01*
X24602Y31695D01*
X24692Y31658D01*
X24787Y31646D01*
X24883Y31658D01*
X24972Y31695D01*
X25036Y31744D01*
X25086Y31725D01*
Y31462D01*
X24964Y31340D01*
X24883Y31373D01*
X24787Y31386D01*
X24692Y31373D01*
X24602Y31336D01*
X24526Y31277D01*
X24467Y31201D01*
X24430Y31112D01*
X24417Y31016D01*
X24430Y30920D01*
X24467Y30831D01*
X24526Y30754D01*
X24602Y30695D01*
X24692Y30658D01*
X24787Y30646D01*
X24883Y30658D01*
X24972Y30695D01*
X25049Y30754D01*
X25108Y30831D01*
X25145Y30920D01*
X25157Y31016D01*
X25145Y31112D01*
X25111Y31192D01*
X25226Y31306D01*
X25276Y31286D01*
Y30830D01*
X25276Y30830D01*
X25284Y30790D01*
X25306Y30756D01*
X25526Y30536D01*
X25560Y30514D01*
X25600Y30506D01*
X25600Y30506D01*
X27080D01*
X27080Y30506D01*
X27120Y30514D01*
X27154Y30536D01*
X27264Y30646D01*
X27264Y30646D01*
X27286Y30680D01*
X27294Y30720D01*
Y35937D01*
X27344Y35958D01*
X32566Y30737D01*
Y29760D01*
X32566Y29760D01*
X32574Y29720D01*
X32596Y29686D01*
X33096Y29186D01*
X33096Y29186D01*
X33130Y29164D01*
X33137Y29162D01*
X33170Y29156D01*
X33170Y29156D01*
X33820D01*
X33820Y29156D01*
X33860Y29164D01*
X33894Y29186D01*
X34074Y29366D01*
X34074Y29366D01*
X34096Y29400D01*
X34104Y29440D01*
Y29503D01*
X34154Y29519D01*
X34203Y29455D01*
X34291Y29388D01*
X34394Y29345D01*
X34504Y29331D01*
X34614Y29345D01*
X34716Y29388D01*
X34804Y29455D01*
X34872Y29543D01*
X34914Y29646D01*
X34929Y29756D01*
X34914Y29866D01*
X34872Y29968D01*
X34804Y30056D01*
X34716Y30124D01*
X34614Y30166D01*
X34594Y30169D01*
X34578Y30194D01*
X34544Y30216D01*
X34504Y30224D01*
X34283D01*
X34114Y30394D01*
X34104Y30400D01*
Y30503D01*
X34154Y30519D01*
X34203Y30455D01*
X34291Y30388D01*
X34394Y30345D01*
X34504Y30331D01*
X34614Y30345D01*
X34716Y30388D01*
X34804Y30455D01*
X34872Y30543D01*
X34914Y30646D01*
X34929Y30756D01*
X34914Y30866D01*
X34872Y30968D01*
X34804Y31056D01*
X34716Y31124D01*
X34614Y31166D01*
X34504Y31181D01*
X34394Y31166D01*
X34291Y31124D01*
X34203Y31056D01*
X34154Y30992D01*
X34104Y31009D01*
Y31503D01*
X34154Y31519D01*
X34203Y31455D01*
X34291Y31388D01*
X34394Y31345D01*
X34504Y31331D01*
X34614Y31345D01*
X34716Y31388D01*
X34804Y31455D01*
X34872Y31543D01*
X34914Y31646D01*
X34929Y31756D01*
X34914Y31866D01*
X34872Y31968D01*
X34804Y32056D01*
X34716Y32124D01*
X34614Y32166D01*
X34504Y32181D01*
X34394Y32166D01*
X34291Y32124D01*
X34203Y32056D01*
X34154Y31992D01*
X34104Y32009D01*
Y32503D01*
X34154Y32519D01*
X34203Y32455D01*
X34291Y32388D01*
X34394Y32345D01*
X34504Y32331D01*
X34614Y32345D01*
X34716Y32388D01*
X34804Y32455D01*
X34872Y32543D01*
X34914Y32646D01*
X34929Y32756D01*
X34914Y32866D01*
X34872Y32968D01*
X34804Y33056D01*
X34716Y33124D01*
X34614Y33166D01*
X34504Y33181D01*
X34394Y33166D01*
X34291Y33124D01*
X34203Y33056D01*
X34154Y32992D01*
X34104Y33009D01*
Y36896D01*
X34114Y36902D01*
X34136Y36936D01*
X34144Y36972D01*
X34191Y37019D01*
X34271D01*
Y37076D01*
X36861D01*
X36861Y37076D01*
X36901Y37084D01*
X36935Y37106D01*
X40611Y40782D01*
X40692Y40749D01*
X40787Y40736D01*
X40883Y40749D01*
X40972Y40786D01*
X41049Y40845D01*
X41108Y40921D01*
X41145Y41011D01*
X41157Y41106D01*
X41145Y41202D01*
X41108Y41291D01*
X41049Y41368D01*
X40972Y41427D01*
X40883Y41464D01*
X40787Y41476D01*
X40692Y41464D01*
X40602Y41427D01*
X40526Y41368D01*
X40467Y41291D01*
X40430Y41202D01*
X40417Y41106D01*
X40430Y41011D01*
X40463Y40930D01*
X36818Y37284D01*
X34271D01*
Y37353D01*
X33997D01*
Y37121D01*
X33966Y37090D01*
X33950Y37066D01*
X33927Y37051D01*
X33921Y37052D01*
X33877Y37067D01*
Y37353D01*
X33845D01*
Y39047D01*
X35194Y40396D01*
X35194Y40396D01*
X35216Y40430D01*
X35224Y40470D01*
Y41117D01*
X35643Y41536D01*
X38596D01*
X38849Y41283D01*
X38816Y41202D01*
X38803Y41106D01*
X38816Y41011D01*
X38853Y40921D01*
X38912Y40845D01*
X38988Y40786D01*
X39077Y40749D01*
X39173Y40736D01*
X39269Y40749D01*
X39358Y40786D01*
X39435Y40845D01*
X39494Y40921D01*
X39531Y41011D01*
X39543Y41106D01*
X39531Y41202D01*
X39494Y41291D01*
X39435Y41368D01*
X39358Y41427D01*
X39269Y41464D01*
X39173Y41476D01*
X39077Y41464D01*
X38997Y41430D01*
X38713Y41714D01*
X38679Y41736D01*
X38640Y41744D01*
X38640Y41744D01*
X38491D01*
X38481Y41794D01*
X38493Y41799D01*
X38575Y41862D01*
X38638Y41944D01*
X38677Y42039D01*
X38691Y42142D01*
X38677Y42244D01*
X38638Y42339D01*
X38575Y42421D01*
X38493Y42484D01*
X38398Y42524D01*
X38295Y42537D01*
X38193Y42524D01*
X38098Y42484D01*
X38016Y42421D01*
X37953Y42339D01*
X37913Y42244D01*
X37900Y42142D01*
X37913Y42039D01*
X37953Y41944D01*
X38016Y41862D01*
X38098Y41799D01*
X38110Y41794D01*
X38100Y41744D01*
X37735D01*
X37687Y41750D01*
X37687Y41794D01*
Y42534D01*
X36903D01*
Y41794D01*
X36903Y41750D01*
X36856Y41744D01*
X36240D01*
X36230Y41794D01*
X36275Y41813D01*
X36363Y41881D01*
X36431Y41969D01*
X36473Y42071D01*
X36488Y42181D01*
X36473Y42291D01*
X36431Y42394D01*
X36363Y42482D01*
X36293Y42536D01*
X36310Y42586D01*
X37540D01*
X37540Y42586D01*
X37580Y42594D01*
X37614Y42616D01*
X37913Y42915D01*
X37972Y42915D01*
X37978Y42912D01*
X38016Y42862D01*
X38098Y42799D01*
X38193Y42760D01*
X38295Y42746D01*
X38398Y42760D01*
X38493Y42799D01*
X38575Y42862D01*
X38638Y42944D01*
X38677Y43039D01*
X38691Y43142D01*
X38677Y43244D01*
X38638Y43337D01*
X38934Y43633D01*
X38934Y43633D01*
X38957Y43667D01*
X38965Y43707D01*
Y50270D01*
X38965Y50270D01*
X38958Y50303D01*
X38957Y50309D01*
X38934Y50343D01*
X38934Y50343D01*
X38634Y50644D01*
X38600Y50666D01*
X38560Y50674D01*
X38560Y50674D01*
X37163D01*
X36834Y51003D01*
Y53440D01*
X36826Y53480D01*
X36804Y53514D01*
X36804Y53514D01*
X36564Y53754D01*
X36530Y53776D01*
X36490Y53784D01*
X36490Y53784D01*
X36320D01*
X36303Y53834D01*
X36363Y53881D01*
X36431Y53969D01*
X36473Y54071D01*
X36488Y54181D01*
X36473Y54291D01*
X36431Y54394D01*
X36363Y54482D01*
X36275Y54549D01*
X36173Y54592D01*
X36063Y54606D01*
X35953Y54592D01*
X35851Y54549D01*
X35763Y54482D01*
X35695Y54394D01*
X35653Y54291D01*
X35638Y54181D01*
X35653Y54071D01*
X35695Y53969D01*
X35763Y53881D01*
X35823Y53834D01*
X35806Y53784D01*
X33514D01*
X33455Y53843D01*
Y53901D01*
X33505Y53924D01*
X33561Y53882D01*
X33646Y53846D01*
X33738Y53834D01*
X33830Y53846D01*
X33916Y53882D01*
X33989Y53938D01*
X34046Y54012D01*
X34081Y54097D01*
X34093Y54189D01*
X34081Y54281D01*
X34046Y54366D01*
X33989Y54440D01*
X33916Y54496D01*
X33843Y54527D01*
Y54809D01*
X33860Y54836D01*
X33862Y54842D01*
X33868Y54875D01*
X33868Y54875D01*
Y55097D01*
X33949Y55131D01*
X34025Y55189D01*
X34084Y55266D01*
X34121Y55355D01*
X34134Y55451D01*
Y55651D01*
X34121Y55747D01*
X34084Y55836D01*
X34025Y55913D01*
X33949Y55972D01*
X33860Y56009D01*
X33764Y56021D01*
X33668Y56009D01*
X33579Y55972D01*
X33502Y55913D01*
X33497Y55906D01*
X33482Y55904D01*
X33440Y55910D01*
X33425Y55933D01*
X33425Y55933D01*
X33134Y56224D01*
X33100Y56246D01*
X33060Y56254D01*
X33060Y56254D01*
X31680D01*
X31680Y56254D01*
X31647Y56248D01*
X31640Y56246D01*
X31606Y56224D01*
X31606Y56224D01*
X31186Y55804D01*
X31165Y55772D01*
X31153Y55770D01*
X31112Y55769D01*
X31084Y55836D01*
X31025Y55913D01*
X30949Y55972D01*
X30860Y56009D01*
X30764Y56021D01*
X30668Y56009D01*
X30579Y55972D01*
X30502Y55913D01*
X30443Y55836D01*
X30406Y55747D01*
X30394Y55651D01*
Y55451D01*
X30406Y55355D01*
X30443Y55266D01*
X30502Y55189D01*
X30579Y55131D01*
X30659Y55097D01*
Y54916D01*
X30642Y54890D01*
X30634Y54850D01*
X30634Y54850D01*
Y54527D01*
X30561Y54496D01*
X30487Y54440D01*
X30431Y54366D01*
X30395Y54281D01*
X30383Y54189D01*
X30395Y54097D01*
X30431Y54012D01*
X30487Y53938D01*
X30561Y53882D01*
X30646Y53846D01*
X30738Y53834D01*
X30750Y53836D01*
X30780Y53789D01*
X30777Y53784D01*
X28580D01*
X28540Y53776D01*
X28506Y53754D01*
X28506Y53754D01*
X28266Y53514D01*
X28244Y53480D01*
X28236Y53440D01*
X28236Y53440D01*
Y52960D01*
X28236Y52960D01*
X28244Y52920D01*
X28266Y52886D01*
X28426Y52726D01*
X28426Y52726D01*
X28460Y52704D01*
X28500Y52696D01*
X28857D01*
X29634Y51918D01*
Y46527D01*
X29561Y46496D01*
X29504Y46453D01*
X29454Y46475D01*
Y50571D01*
X29454Y50571D01*
X29446Y50611D01*
X29424Y50645D01*
X29045Y51024D01*
X29075Y51097D01*
X29087Y51189D01*
X29075Y51281D01*
X29040Y51366D01*
X28983Y51440D01*
X28910Y51496D01*
X28824Y51532D01*
X28732Y51544D01*
X28640Y51532D01*
X28555Y51496D01*
X28494Y51450D01*
X28444Y51468D01*
Y51753D01*
X28567Y51876D01*
X28640Y51846D01*
X28732Y51834D01*
X28824Y51846D01*
X28910Y51882D01*
X28983Y51938D01*
X29040Y52011D01*
X29075Y52097D01*
X29087Y52189D01*
X29075Y52281D01*
X29040Y52366D01*
X28983Y52440D01*
X28910Y52496D01*
X28824Y52532D01*
X28732Y52544D01*
X28640Y52532D01*
X28555Y52496D01*
X28481Y52440D01*
X28425Y52366D01*
X28389Y52281D01*
X28377Y52189D01*
X28389Y52097D01*
X28420Y52024D01*
X28266Y51870D01*
X28244Y51837D01*
X28236Y51797D01*
X28236Y51797D01*
Y48487D01*
X28186Y48466D01*
X27687Y48964D01*
X27691Y48969D01*
X27733Y49071D01*
X27748Y49181D01*
X27733Y49291D01*
X27691Y49394D01*
X27623Y49482D01*
X27535Y49549D01*
X27433Y49592D01*
X27323Y49606D01*
X27213Y49592D01*
X27110Y49549D01*
X27022Y49482D01*
X26955Y49394D01*
X26912Y49291D01*
X26898Y49181D01*
X26912Y49071D01*
X26955Y48969D01*
X27022Y48881D01*
X27083Y48834D01*
X27066Y48784D01*
X26923D01*
X26824Y48883D01*
Y50350D01*
X26824Y50350D01*
X26818Y50383D01*
X26816Y50390D01*
X26794Y50424D01*
X26794Y50424D01*
X26576Y50642D01*
X26599Y50697D01*
X26610Y50780D01*
X26599Y50863D01*
X26567Y50940D01*
X26516Y51006D01*
X26450Y51057D01*
X26373Y51089D01*
X26290Y51100D01*
X26207Y51089D01*
X26130Y51057D01*
X26064Y51006D01*
X26013Y50940D01*
X25981Y50863D01*
X25970Y50780D01*
X25981Y50697D01*
X26013Y50620D01*
X26064Y50554D01*
X26130Y50503D01*
X26207Y50471D01*
X26290Y50460D01*
X26373Y50471D01*
X26428Y50494D01*
X26616Y50307D01*
Y48840D01*
X26616Y48840D01*
X26624Y48800D01*
X26646Y48766D01*
X26806Y48606D01*
X26806Y48606D01*
X26840Y48584D01*
X26880Y48576D01*
X27063D01*
X27080Y48526D01*
X27022Y48482D01*
X26955Y48394D01*
X26912Y48291D01*
X26898Y48181D01*
X26912Y48071D01*
X26955Y47969D01*
X27022Y47881D01*
X27110Y47813D01*
X27213Y47771D01*
X27323Y47756D01*
X27433Y47771D01*
X27535Y47813D01*
X27540Y47817D01*
X27676Y47681D01*
Y47491D01*
X27628Y47475D01*
X27623Y47482D01*
X27535Y47549D01*
X27433Y47592D01*
X27323Y47606D01*
X27213Y47592D01*
X27110Y47549D01*
X27022Y47482D01*
X26955Y47394D01*
X26912Y47291D01*
X26898Y47181D01*
X26912Y47071D01*
X26955Y46969D01*
X27022Y46881D01*
X27110Y46813D01*
X27213Y46771D01*
X27323Y46756D01*
X27433Y46771D01*
X27535Y46813D01*
X27623Y46881D01*
X27628Y46887D01*
X27676Y46871D01*
Y46491D01*
X27628Y46475D01*
X27623Y46482D01*
X27535Y46549D01*
X27433Y46592D01*
X27323Y46606D01*
X27213Y46592D01*
X27110Y46549D01*
X27022Y46482D01*
X26955Y46394D01*
X26912Y46291D01*
X26898Y46181D01*
X26912Y46071D01*
X26955Y45969D01*
X26958Y45964D01*
X26571Y45576D01*
X26524Y45596D01*
Y49657D01*
X26524Y49657D01*
X26518Y49691D01*
X26516Y49697D01*
X26494Y49731D01*
X25562Y50663D01*
Y51444D01*
X26512Y52394D01*
X26567Y52371D01*
X26650Y52360D01*
X26733Y52371D01*
X26810Y52403D01*
X26876Y52454D01*
X26927Y52520D01*
X26959Y52597D01*
X26970Y52680D01*
X26959Y52763D01*
X26927Y52840D01*
X26876Y52906D01*
X26810Y52957D01*
X26733Y52989D01*
X26650Y53000D01*
X26567Y52989D01*
X26490Y52957D01*
X26424Y52906D01*
X26373Y52840D01*
X26341Y52763D01*
X26330Y52680D01*
X26341Y52597D01*
X26364Y52542D01*
X25384Y51561D01*
X25361Y51528D01*
X25353Y51488D01*
X25353Y51488D01*
Y50620D01*
X25353Y50620D01*
X25361Y50580D01*
X25384Y50546D01*
X26316Y49614D01*
Y49561D01*
X26266Y49544D01*
X26192Y49641D01*
X26073Y49731D01*
X25935Y49789D01*
X25787Y49808D01*
X25639Y49789D01*
X25501Y49731D01*
X25383Y49641D01*
X25292Y49522D01*
X25235Y49384D01*
X25216Y49236D01*
X25235Y49088D01*
X25292Y48950D01*
X25383Y48832D01*
X25501Y48741D01*
X25639Y48684D01*
X25787Y48664D01*
X25935Y48684D01*
X26073Y48741D01*
X26192Y48832D01*
X26266Y48928D01*
X26316Y48911D01*
Y39598D01*
X23258Y36541D01*
X23216Y36545D01*
X23195Y36591D01*
X23217Y36620D01*
X23249Y36697D01*
X23260Y36780D01*
X23250Y36855D01*
X23283Y36896D01*
X23294Y36891D01*
X23377Y36880D01*
X23459Y36891D01*
X23536Y36923D01*
X23603Y36974D01*
X23653Y37040D01*
X23685Y37117D01*
X23696Y37200D01*
X23685Y37283D01*
X23653Y37360D01*
X23603Y37426D01*
X23536Y37477D01*
X23459Y37509D01*
X23377Y37520D01*
X23294Y37509D01*
X23264Y37496D01*
X23214Y37530D01*
Y37744D01*
X23192D01*
Y37840D01*
X23192Y37840D01*
X23185Y37873D01*
X23184Y37880D01*
X23161Y37914D01*
X23161Y37914D01*
X23138Y37937D01*
X23138Y37984D01*
X23138D01*
X23138Y37984D01*
Y38472D01*
X23057D01*
Y39757D01*
X25134Y41833D01*
X25134Y41833D01*
X25156Y41867D01*
X25164Y41907D01*
Y45983D01*
X25214Y46000D01*
X25265Y45934D01*
X25383Y45843D01*
X25521Y45786D01*
X25669Y45767D01*
X25817Y45786D01*
X25955Y45843D01*
X26074Y45934D01*
X26165Y46053D01*
X26222Y46191D01*
X26241Y46339D01*
X26222Y46487D01*
X26165Y46624D01*
X26074Y46743D01*
X25955Y46834D01*
X25817Y46891D01*
X25669Y46910D01*
X25521Y46891D01*
X25383Y46834D01*
X25265Y46743D01*
X25214Y46677D01*
X25164Y46694D01*
Y46850D01*
X25220Y46873D01*
X25286Y46924D01*
X25337Y46990D01*
X25369Y47067D01*
X25380Y47150D01*
X25369Y47233D01*
X25337Y47310D01*
X25286Y47376D01*
X25220Y47427D01*
X25143Y47459D01*
X25060Y47470D01*
X24977Y47459D01*
X24900Y47427D01*
X24834Y47376D01*
X24783Y47310D01*
X24751Y47233D01*
X24740Y47150D01*
X24751Y47067D01*
X24783Y46990D01*
X24834Y46924D01*
X24900Y46873D01*
X24956Y46850D01*
Y41950D01*
X22879Y39874D01*
X22856Y39840D01*
X22848Y39800D01*
X22848Y39800D01*
Y39565D01*
X22802Y39545D01*
X22794Y39554D01*
X22760Y39576D01*
X22720Y39584D01*
X22720Y39584D01*
X22640D01*
X22640Y39584D01*
X22607Y39578D01*
X22600Y39576D01*
X22566Y39554D01*
X22131Y39119D01*
X22108Y39085D01*
X22100Y39045D01*
X22100Y39045D01*
Y38472D01*
X22020D01*
Y38124D01*
X21885D01*
X21885Y38124D01*
X21845Y38116D01*
X21834Y38109D01*
X21811Y38094D01*
X21811Y38094D01*
X21331Y37613D01*
X21285Y37632D01*
Y37744D01*
X21263D01*
Y37840D01*
X21263Y37840D01*
X21256Y37873D01*
X21255Y37880D01*
X21232Y37914D01*
X21232Y37914D01*
X21209Y37937D01*
X21209Y37984D01*
X21209D01*
X21209Y37984D01*
Y38472D01*
X21128D01*
Y38597D01*
X21154Y38623D01*
X21154Y38623D01*
X21176Y38656D01*
X21184Y38696D01*
Y42660D01*
X21176Y42700D01*
X21154Y42734D01*
X20364Y43523D01*
Y46059D01*
X20414Y46072D01*
X20484Y46018D01*
X20574Y45981D01*
X20669Y45968D01*
X20765Y45981D01*
X20854Y46018D01*
X20931Y46077D01*
X20990Y46154D01*
X21027Y46243D01*
X21039Y46339D01*
X21027Y46434D01*
X20993Y46515D01*
X23264Y48785D01*
X23286Y48819D01*
X23294Y48859D01*
Y52834D01*
X23294Y52834D01*
X23286Y52874D01*
X23279Y52885D01*
X23264Y52907D01*
X23264Y52907D01*
X21111Y55060D01*
X21145Y55140D01*
X21157Y55236D01*
X21145Y55332D01*
X21108Y55421D01*
X21049Y55498D01*
X20972Y55557D01*
X20883Y55594D01*
X20787Y55606D01*
X20692Y55594D01*
X20602Y55557D01*
X20526Y55498D01*
X20467Y55421D01*
X20430Y55332D01*
X20417Y55236D01*
X20430Y55140D01*
X20467Y55051D01*
X20526Y54975D01*
X20602Y54916D01*
X20692Y54879D01*
X20787Y54866D01*
X20883Y54879D01*
X20964Y54912D01*
X23086Y52790D01*
Y49527D01*
X23036Y49508D01*
X22972Y49557D01*
X22883Y49594D01*
X22787Y49606D01*
X22692Y49594D01*
X22602Y49557D01*
X22526Y49498D01*
X22467Y49421D01*
X22430Y49332D01*
X22417Y49236D01*
X22430Y49140D01*
X22467Y49051D01*
X22526Y48975D01*
X22602Y48916D01*
X22692Y48879D01*
X22787Y48866D01*
X22883Y48879D01*
X22972Y48916D01*
X23032Y48962D01*
X23077Y48944D01*
X23082Y48899D01*
X20846Y46663D01*
X20765Y46696D01*
X20669Y46709D01*
X20574Y46696D01*
X20484Y46659D01*
X20414Y46605D01*
X20364Y46618D01*
Y46777D01*
X22274Y48686D01*
X22274Y48686D01*
X22296Y48720D01*
X22304Y48760D01*
Y50590D01*
X22360Y50613D01*
X22426Y50664D01*
X22477Y50730D01*
X22509Y50807D01*
X22520Y50890D01*
X22509Y50973D01*
X22477Y51050D01*
X22426Y51116D01*
X22360Y51167D01*
X22283Y51199D01*
X22200Y51210D01*
X22117Y51199D01*
X22040Y51167D01*
X21974Y51116D01*
X21923Y51050D01*
X21891Y50973D01*
X21880Y50890D01*
X21891Y50807D01*
X21923Y50730D01*
X21974Y50664D01*
X22040Y50613D01*
X22096Y50590D01*
Y49514D01*
X22070Y49505D01*
X22046Y49501D01*
X21972Y49557D01*
X21883Y49594D01*
X21787Y49606D01*
X21692Y49594D01*
X21602Y49557D01*
X21526Y49498D01*
X21467Y49421D01*
X21430Y49332D01*
X21417Y49236D01*
X21430Y49140D01*
X21467Y49051D01*
X21526Y48975D01*
X21602Y48916D01*
X21692Y48879D01*
X21787Y48866D01*
X21883Y48879D01*
X21972Y48916D01*
X22046Y48972D01*
X22070Y48967D01*
X22096Y48959D01*
Y48803D01*
X20186Y46894D01*
X20164Y46860D01*
X20156Y46820D01*
X20156Y46820D01*
Y43480D01*
X20156Y43480D01*
X20164Y43440D01*
X20186Y43406D01*
X20976Y42617D01*
Y40615D01*
X20975Y40615D01*
X20926Y40604D01*
X20854Y40659D01*
X20765Y40696D01*
X20669Y40709D01*
X20574Y40696D01*
X20484Y40659D01*
X20408Y40600D01*
X20349Y40524D01*
X20312Y40434D01*
X20299Y40339D01*
X20312Y40243D01*
X20349Y40154D01*
X20408Y40077D01*
X20484Y40018D01*
X20574Y39981D01*
X20669Y39968D01*
X20765Y39981D01*
X20854Y40018D01*
X20926Y40073D01*
X20975Y40062D01*
X20976Y40062D01*
Y39283D01*
X20926Y39262D01*
X20815Y39373D01*
X20781Y39395D01*
X20741Y39403D01*
X20741Y39403D01*
X20480D01*
X20440Y39395D01*
X20406Y39373D01*
X20406Y39373D01*
X20202Y39168D01*
X20179Y39134D01*
X20171Y39095D01*
X20171Y39094D01*
Y38472D01*
X20091D01*
Y38274D01*
X19764D01*
X19724Y38266D01*
X19690Y38244D01*
X19336Y37890D01*
X19326Y37888D01*
X19274Y37899D01*
X19264Y37914D01*
X19264Y37914D01*
X19240Y37937D01*
X19240Y37984D01*
X19240D01*
X19240Y37984D01*
Y38472D01*
X19200D01*
X19165Y38508D01*
X19244Y42418D01*
X19244Y42419D01*
X19244Y42420D01*
Y46557D01*
X19294Y46572D01*
X19306Y46554D01*
X19345Y46515D01*
X19312Y46434D01*
X19299Y46339D01*
X19312Y46243D01*
X19349Y46154D01*
X19408Y46077D01*
X19484Y46018D01*
X19574Y45981D01*
X19669Y45968D01*
X19765Y45981D01*
X19854Y46018D01*
X19931Y46077D01*
X19990Y46154D01*
X20027Y46243D01*
X20039Y46339D01*
X20027Y46434D01*
X19990Y46524D01*
X19931Y46600D01*
X19854Y46659D01*
X19765Y46696D01*
X19669Y46709D01*
X19574Y46696D01*
X19534Y46680D01*
X19484Y46713D01*
Y48954D01*
X19534Y48968D01*
X19602Y48916D01*
X19692Y48879D01*
X19787Y48866D01*
X19883Y48879D01*
X19972Y48916D01*
X20049Y48975D01*
X20108Y49051D01*
X20145Y49140D01*
X20157Y49236D01*
X20145Y49332D01*
X20108Y49421D01*
X20049Y49498D01*
X19972Y49557D01*
X19883Y49594D01*
X19787Y49606D01*
X19692Y49594D01*
X19602Y49557D01*
X19534Y49505D01*
X19484Y49519D01*
Y54786D01*
X19611Y54912D01*
X19692Y54879D01*
X19787Y54866D01*
X19883Y54879D01*
X19972Y54916D01*
X20049Y54975D01*
X20108Y55051D01*
X20145Y55140D01*
X20157Y55236D01*
X20145Y55332D01*
X20108Y55421D01*
X20049Y55498D01*
X19972Y55557D01*
X19883Y55594D01*
X19787Y55606D01*
X19692Y55594D01*
X19602Y55557D01*
X19526Y55498D01*
X19467Y55421D01*
X19430Y55332D01*
X19417Y55236D01*
X19430Y55140D01*
X19463Y55060D01*
X19306Y54903D01*
X19284Y54869D01*
X19276Y54829D01*
X19276Y54829D01*
Y49465D01*
X19226Y49441D01*
X19185Y49472D01*
X19108Y49504D01*
X19025Y49515D01*
X18942Y49504D01*
X18934Y49501D01*
X18891Y49537D01*
X18892Y49542D01*
X18892Y49542D01*
Y54882D01*
X18972Y54916D01*
X19049Y54975D01*
X19108Y55051D01*
X19145Y55140D01*
X19157Y55236D01*
X19145Y55332D01*
X19108Y55421D01*
X19049Y55498D01*
X18972Y55557D01*
X18883Y55594D01*
X18787Y55606D01*
X18692Y55594D01*
X18602Y55557D01*
X18526Y55498D01*
X18467Y55421D01*
X18430Y55332D01*
X18417Y55236D01*
X18430Y55140D01*
X18467Y55051D01*
X18526Y54975D01*
X18602Y54916D01*
X18683Y54882D01*
Y49585D01*
X18578Y49481D01*
X18523Y49504D01*
X18440Y49514D01*
X18357Y49504D01*
X18280Y49472D01*
X18214Y49421D01*
X18163Y49355D01*
X18131Y49277D01*
X18120Y49195D01*
X18131Y49112D01*
X18163Y49035D01*
X18214Y48969D01*
X18280Y48918D01*
X18357Y48886D01*
X18440Y48875D01*
X18523Y48886D01*
X18600Y48918D01*
X18666Y48969D01*
X18702Y49016D01*
X18710Y49019D01*
X18755Y49019D01*
X18763Y49016D01*
X18799Y48969D01*
X18865Y48918D01*
X18942Y48886D01*
X19025Y48875D01*
X19036Y48866D01*
Y46543D01*
X19004Y46530D01*
X18986Y46529D01*
X18931Y46600D01*
X18854Y46659D01*
X18765Y46696D01*
X18669Y46709D01*
X18574Y46696D01*
X18484Y46659D01*
X18408Y46600D01*
X18349Y46524D01*
X18312Y46434D01*
X18299Y46339D01*
X18312Y46243D01*
X18349Y46154D01*
X18408Y46077D01*
X18484Y46018D01*
X18565Y45985D01*
Y44874D01*
X18554Y44866D01*
X18503Y44800D01*
X18471Y44723D01*
X18460Y44640D01*
X18471Y44557D01*
X18503Y44480D01*
X18554Y44414D01*
X18620Y44363D01*
X18697Y44331D01*
X18780Y44320D01*
X18863Y44331D01*
X18940Y44363D01*
X18986Y44398D01*
X19036Y44374D01*
Y42421D01*
X18974Y39369D01*
X18927Y39350D01*
X18896Y39382D01*
X18862Y39404D01*
X18822Y39412D01*
X18822Y39412D01*
X18035D01*
X18035Y39412D01*
X17996Y39404D01*
X17984Y39397D01*
X17962Y39382D01*
X17962Y39382D01*
X17854Y39274D01*
X17831Y39240D01*
X17823Y39200D01*
X17823Y39200D01*
Y38820D01*
X17773Y38793D01*
X17764Y38799D01*
Y42616D01*
X17764Y42616D01*
X17764Y42616D01*
Y43900D01*
X17764Y43900D01*
X17758Y43933D01*
X17756Y43940D01*
X17734Y43974D01*
X17734Y43974D01*
X15370Y46338D01*
X15336Y46360D01*
X15316Y46364D01*
X15285Y46440D01*
X15564Y46719D01*
X15586Y46753D01*
X15594Y46793D01*
Y51167D01*
X15594Y51167D01*
X15588Y51201D01*
X15586Y51207D01*
X15564Y51241D01*
X15363Y51442D01*
X15397Y51522D01*
X15409Y51618D01*
X15397Y51714D01*
X15360Y51803D01*
X15301Y51880D01*
X15224Y51939D01*
X15135Y51976D01*
X15039Y51988D01*
X14944Y51976D01*
X14854Y51939D01*
X14778Y51880D01*
X14719Y51803D01*
X14682Y51714D01*
X14669Y51618D01*
X14682Y51522D01*
X14719Y51433D01*
X14778Y51356D01*
X14854Y51298D01*
X14944Y51261D01*
X15039Y51248D01*
X15135Y51261D01*
X15216Y51294D01*
X15386Y51124D01*
Y48852D01*
X15336Y48835D01*
X15301Y48880D01*
X15224Y48939D01*
X15135Y48976D01*
X15039Y48988D01*
X14944Y48976D01*
X14854Y48939D01*
X14778Y48880D01*
X14719Y48803D01*
X14682Y48714D01*
X14669Y48618D01*
X14682Y48522D01*
X14719Y48433D01*
X14756Y48385D01*
X12918Y46548D01*
X12896Y46514D01*
X12888Y46474D01*
X12888Y46474D01*
Y44555D01*
X12888Y44555D01*
X12896Y44515D01*
X12918Y44482D01*
X13461Y43939D01*
Y42918D01*
X11644Y41101D01*
X11596Y41124D01*
X11598Y41142D01*
X11586Y41238D01*
X11549Y41327D01*
X11490Y41403D01*
X11413Y41462D01*
X11324Y41499D01*
X11228Y41512D01*
X11133Y41499D01*
X11043Y41462D01*
X10967Y41403D01*
X10908Y41327D01*
X10871Y41238D01*
X10858Y41142D01*
X10871Y41046D01*
X10908Y40957D01*
X10967Y40880D01*
X11043Y40821D01*
X11108Y40794D01*
X11098Y40744D01*
X10773D01*
X10552Y40965D01*
X10586Y41046D01*
X10598Y41142D01*
X10586Y41238D01*
X10549Y41327D01*
X10490Y41403D01*
X10413Y41462D01*
X10324Y41499D01*
X10228Y41512D01*
X10133Y41499D01*
X10043Y41462D01*
X9967Y41403D01*
X9908Y41327D01*
X9871Y41238D01*
X9858Y41142D01*
X9871Y41046D01*
X9908Y40957D01*
X9967Y40880D01*
X10043Y40821D01*
X10133Y40784D01*
X10228Y40772D01*
X10324Y40784D01*
X10405Y40818D01*
X10656Y40566D01*
X10656Y40566D01*
X10679Y40551D01*
X10690Y40544D01*
X10730Y40536D01*
X10730Y40536D01*
X11090D01*
X11100Y40486D01*
X11043Y40462D01*
X10967Y40403D01*
X10908Y40327D01*
X10871Y40238D01*
X10858Y40142D01*
X10871Y40046D01*
X10908Y39957D01*
X10967Y39880D01*
X11043Y39821D01*
X11133Y39784D01*
X11143Y39783D01*
X11155Y39766D01*
X13506Y37415D01*
Y30710D01*
X13450Y30687D01*
X13384Y30636D01*
X13333Y30570D01*
X13301Y30493D01*
X13290Y30410D01*
X13301Y30327D01*
X13333Y30250D01*
X13384Y30184D01*
X13450Y30133D01*
X13527Y30101D01*
X13610Y30090D01*
X13693Y30101D01*
X13770Y30133D01*
X13808Y30162D01*
X13858Y30138D01*
Y29156D01*
X13597Y28894D01*
X12046D01*
X12022Y28944D01*
X12057Y28990D01*
X12089Y29067D01*
X12100Y29150D01*
X12089Y29233D01*
X12057Y29310D01*
X12006Y29376D01*
X11940Y29427D01*
X11884Y29450D01*
Y34430D01*
X11876Y34470D01*
X11854Y34504D01*
X11854Y34504D01*
X10744Y35613D01*
Y36367D01*
X10794Y36388D01*
X11434Y35748D01*
X11411Y35693D01*
X11400Y35610D01*
X11411Y35527D01*
X11443Y35450D01*
X11494Y35384D01*
X11560Y35333D01*
X11637Y35301D01*
X11720Y35290D01*
X11803Y35301D01*
X11880Y35333D01*
X11946Y35384D01*
X11997Y35450D01*
X12029Y35527D01*
X12040Y35610D01*
X12029Y35693D01*
X11997Y35770D01*
X11946Y35836D01*
X11880Y35887D01*
X11803Y35919D01*
X11720Y35930D01*
X11637Y35919D01*
X11582Y35896D01*
X10924Y36553D01*
Y39350D01*
X10924Y39350D01*
X10918Y39383D01*
X10916Y39390D01*
X10894Y39424D01*
X10894Y39424D01*
X10487Y39831D01*
X10490Y39880D01*
X10549Y39957D01*
X10586Y40046D01*
X10598Y40142D01*
X10586Y40238D01*
X10549Y40327D01*
X10490Y40403D01*
X10413Y40462D01*
X10324Y40499D01*
X10228Y40512D01*
X10133Y40499D01*
X10043Y40462D01*
X9967Y40403D01*
X9908Y40327D01*
X9871Y40238D01*
X9858Y40142D01*
X9871Y40046D01*
X9908Y39957D01*
X9967Y39880D01*
X10043Y39821D01*
X10133Y39784D01*
X10228Y39772D01*
X10248Y39774D01*
X10716Y39307D01*
Y38873D01*
X10666Y38852D01*
X10552Y38965D01*
X10586Y39046D01*
X10598Y39142D01*
X10586Y39238D01*
X10549Y39327D01*
X10490Y39403D01*
X10413Y39462D01*
X10324Y39499D01*
X10228Y39512D01*
X10133Y39499D01*
X10043Y39462D01*
X9967Y39403D01*
X9908Y39327D01*
X9871Y39238D01*
X9858Y39142D01*
X9871Y39046D01*
X9908Y38957D01*
X9967Y38880D01*
X10043Y38821D01*
X10133Y38784D01*
X10228Y38772D01*
X10324Y38784D01*
X10405Y38818D01*
X10536Y38687D01*
Y38419D01*
X10521Y38414D01*
X10486Y38407D01*
X10413Y38462D01*
X10324Y38499D01*
X10228Y38512D01*
X10133Y38499D01*
X10043Y38462D01*
X9967Y38403D01*
X9908Y38327D01*
X9871Y38238D01*
X9858Y38142D01*
X9871Y38046D01*
X9904Y37965D01*
X9752Y37813D01*
X9730Y37779D01*
X9722Y37739D01*
X9722Y37739D01*
Y34874D01*
X9722Y34874D01*
X9730Y34834D01*
X9752Y34800D01*
X11536Y33017D01*
Y32752D01*
X11486Y32740D01*
X11412Y32829D01*
X11312Y32912D01*
X11198Y32973D01*
X11074Y33010D01*
X10945Y33023D01*
X10816Y33010D01*
X10692Y32973D01*
X10578Y32912D01*
X10478Y32829D01*
X10396Y32729D01*
X10335Y32615D01*
X10297Y32491D01*
X10284Y32362D01*
X10297Y32233D01*
X10335Y32109D01*
X10396Y31995D01*
X10478Y31895D01*
X10578Y31813D01*
X10692Y31752D01*
X10816Y31714D01*
X10945Y31702D01*
X11074Y31714D01*
X11198Y31752D01*
X11312Y31813D01*
X11412Y31895D01*
X11486Y31985D01*
X11536Y31973D01*
Y31553D01*
X10522Y30540D01*
X10479Y30567D01*
X10469Y30643D01*
X10437Y30720D01*
X10386Y30786D01*
X10320Y30837D01*
X10243Y30869D01*
X10160Y30880D01*
X10077Y30869D01*
X10022Y30846D01*
X9514Y31353D01*
Y48277D01*
X9785Y48548D01*
X10616Y48546D01*
Y46296D01*
X10566Y46286D01*
X10549Y46327D01*
X10490Y46403D01*
X10413Y46462D01*
X10324Y46499D01*
X10228Y46512D01*
X10133Y46499D01*
X10043Y46462D01*
X9967Y46403D01*
X9908Y46327D01*
X9871Y46238D01*
X9858Y46142D01*
X9871Y46046D01*
X9908Y45957D01*
X9967Y45880D01*
X10043Y45821D01*
X10133Y45784D01*
X10228Y45772D01*
X10324Y45784D01*
X10413Y45821D01*
X10490Y45880D01*
X10549Y45957D01*
X10566Y45997D01*
X10616Y45987D01*
Y45296D01*
X10566Y45286D01*
X10549Y45327D01*
X10490Y45403D01*
X10413Y45462D01*
X10324Y45499D01*
X10228Y45512D01*
X10133Y45499D01*
X10043Y45462D01*
X9967Y45403D01*
X9908Y45327D01*
X9871Y45238D01*
X9858Y45142D01*
X9871Y45046D01*
X9908Y44957D01*
X9967Y44880D01*
X10043Y44821D01*
X10133Y44784D01*
X10228Y44772D01*
X10324Y44784D01*
X10413Y44821D01*
X10490Y44880D01*
X10549Y44957D01*
X10566Y44997D01*
X10616Y44987D01*
Y44677D01*
X10405Y44466D01*
X10324Y44499D01*
X10228Y44512D01*
X10133Y44499D01*
X10043Y44462D01*
X9967Y44403D01*
X9908Y44327D01*
X9871Y44238D01*
X9858Y44142D01*
X9871Y44046D01*
X9908Y43957D01*
X9967Y43880D01*
X10043Y43821D01*
X10133Y43784D01*
X10228Y43772D01*
X10324Y43784D01*
X10413Y43821D01*
X10490Y43880D01*
X10549Y43957D01*
X10586Y44046D01*
X10598Y44142D01*
X10586Y44238D01*
X10552Y44318D01*
X10794Y44560D01*
X10794Y44560D01*
X10816Y44593D01*
X10824Y44633D01*
Y45034D01*
X10871Y45046D01*
X10908Y44957D01*
X10967Y44880D01*
X11043Y44821D01*
X11133Y44784D01*
X11228Y44772D01*
X11324Y44784D01*
X11413Y44821D01*
X11490Y44880D01*
X11549Y44957D01*
X11586Y45046D01*
X11598Y45142D01*
X11586Y45238D01*
X11549Y45327D01*
X11490Y45403D01*
X11413Y45462D01*
X11324Y45499D01*
X11228Y45512D01*
X11133Y45499D01*
X11043Y45462D01*
X10967Y45403D01*
X10908Y45327D01*
X10871Y45238D01*
X10824Y45249D01*
Y46034D01*
X10871Y46046D01*
X10908Y45957D01*
X10967Y45880D01*
X11043Y45821D01*
X11133Y45784D01*
X11228Y45772D01*
X11324Y45784D01*
X11413Y45821D01*
X11490Y45880D01*
X11549Y45957D01*
X11586Y46046D01*
X11598Y46142D01*
X11586Y46238D01*
X11549Y46327D01*
X11490Y46403D01*
X11413Y46462D01*
X11324Y46499D01*
X11228Y46512D01*
X11133Y46499D01*
X11043Y46462D01*
X10967Y46403D01*
X10908Y46327D01*
X10871Y46238D01*
X10824Y46249D01*
Y47678D01*
X10874Y47695D01*
X10908Y47652D01*
X10984Y47593D01*
X11074Y47556D01*
X11169Y47543D01*
X11265Y47556D01*
X11354Y47593D01*
X11431Y47652D01*
X11490Y47728D01*
X11527Y47818D01*
X11539Y47913D01*
X11527Y48009D01*
X11493Y48090D01*
X13656Y50253D01*
X13656Y50253D01*
X13672Y50275D01*
X13678Y50276D01*
X13768Y50313D01*
X13844Y50372D01*
X13903Y50449D01*
X13940Y50538D01*
X13953Y50634D01*
X13940Y50730D01*
X13903Y50819D01*
X13844Y50896D01*
X13768Y50954D01*
X13678Y50991D01*
X13583Y51004D01*
X13487Y50991D01*
X13398Y50954D01*
X13321Y50896D01*
X13262Y50819D01*
X13225Y50730D01*
X13213Y50634D01*
X13225Y50538D01*
X13262Y50449D01*
X13321Y50372D01*
X13371Y50334D01*
X13379Y50271D01*
X11346Y48237D01*
X11265Y48271D01*
X11169Y48283D01*
X11074Y48271D01*
X10984Y48234D01*
X10908Y48175D01*
X10874Y48132D01*
X10824Y48149D01*
Y48650D01*
X10820Y48670D01*
X10817Y48690D01*
X10816Y48690D01*
X10816Y48690D01*
X10805Y48707D01*
X10794Y48724D01*
X10794Y48724D01*
X10794Y48724D01*
X10777Y48735D01*
X10760Y48746D01*
X10760Y48746D01*
X10760Y48746D01*
X10740Y48750D01*
X10720Y48754D01*
X9743Y48757D01*
X9742Y48757D01*
X9742Y48757D01*
X9723Y48753D01*
X9703Y48749D01*
X9702Y48749D01*
X9702Y48749D01*
X9686Y48738D01*
X9669Y48726D01*
X9669Y48726D01*
X9668Y48726D01*
X9336Y48394D01*
X9314Y48360D01*
X9306Y48320D01*
X9306Y48320D01*
Y44230D01*
X9256Y44205D01*
X9210Y44240D01*
X9133Y44272D01*
X9050Y44283D01*
X8967Y44272D01*
X8890Y44240D01*
X8824Y44189D01*
X8773Y44123D01*
X8741Y44046D01*
X8730Y43963D01*
X8741Y43881D01*
X8773Y43804D01*
X8824Y43737D01*
X8890Y43687D01*
X8946Y43664D01*
Y29790D01*
X8946Y29790D01*
X8954Y29750D01*
X8976Y29716D01*
X9586Y29107D01*
Y28309D01*
X9536Y28293D01*
X9482Y28366D01*
X9017Y29062D01*
X8583Y29778D01*
X8180Y30512D01*
X7810Y31262D01*
X7473Y32028D01*
X7169Y32809D01*
X6900Y33601D01*
X6666Y34405D01*
X6467Y35218D01*
X6304Y36039D01*
X6176Y36866D01*
X6085Y37698D01*
X6030Y38533D01*
X6012Y39370D01*
X6030Y40207D01*
X6085Y41042D01*
X6176Y41874D01*
X6304Y42701D01*
X6467Y43522D01*
X6666Y44335D01*
X6900Y45139D01*
X7169Y45932D01*
X7473Y46712D01*
X7810Y47478D01*
X8180Y48229D01*
X8583Y48962D01*
X9017Y49678D01*
X9482Y50374D01*
X9977Y51049D01*
X10501Y51702D01*
X11052Y52331D01*
X11631Y52936D01*
X12236Y53514D01*
X12865Y54066D01*
X13518Y54590D01*
X14193Y55085D01*
X14889Y55550D01*
X15605Y55984D01*
X16338Y56387D01*
X17089Y56757D01*
X17855Y57094D01*
X18635Y57398D01*
X19428Y57667D01*
X20232Y57901D01*
X21045Y58100D01*
X21865Y58263D01*
X22693Y58391D01*
X23525Y58482D01*
X24360Y58536D01*
X25197Y58555D01*
X26034Y58536D01*
D02*
G37*
G36*
X32473Y42433D02*
X32478Y42383D01*
X32346Y42252D01*
X32324Y42218D01*
X32316Y42178D01*
X32316Y42178D01*
Y34664D01*
X32266Y34661D01*
X32259Y34713D01*
X32227Y34790D01*
X32176Y34856D01*
X32110Y34907D01*
X32033Y34939D01*
X31982Y34945D01*
Y42428D01*
X32032Y42452D01*
X32070Y42423D01*
X32147Y42391D01*
X32230Y42380D01*
X32313Y42391D01*
X32390Y42423D01*
X32430Y42454D01*
X32473Y42433D01*
D02*
G37*
G36*
X17998Y36373D02*
X17979Y36327D01*
X17523D01*
X17483Y36319D01*
X17449Y36297D01*
X17449Y36297D01*
X17386Y36234D01*
X17364Y36200D01*
X17361Y36187D01*
X17311Y36189D01*
X17311Y36189D01*
X17311Y36189D01*
X17230D01*
Y36854D01*
X17230Y36854D01*
X17222Y36894D01*
X17215Y36905D01*
X17200Y36928D01*
X17200Y36928D01*
X17162Y36966D01*
X17183Y37016D01*
X17356D01*
X17998Y36373D01*
D02*
G37*
G36*
X19548Y31154D02*
X19525Y31098D01*
X19515Y31016D01*
X19523Y30952D01*
X19483Y30915D01*
X19473Y30919D01*
X19390Y30930D01*
X19307Y30919D01*
X19230Y30887D01*
X19164Y30836D01*
X19113Y30770D01*
X19081Y30693D01*
X19070Y30610D01*
X19081Y30527D01*
X19113Y30450D01*
X19164Y30384D01*
X19230Y30333D01*
X19286Y30310D01*
Y29676D01*
X19236Y29652D01*
X19190Y29687D01*
X19113Y29719D01*
X19030Y29730D01*
X18947Y29719D01*
X18892Y29696D01*
X18384Y30203D01*
Y32253D01*
X18430Y32272D01*
X19548Y31154D01*
D02*
G37*
G36*
X13858Y43331D02*
Y30682D01*
X13808Y30658D01*
X13770Y30687D01*
X13714Y30710D01*
Y37458D01*
X13714Y37458D01*
X13708Y37492D01*
X13706Y37498D01*
X13684Y37532D01*
X11436Y39780D01*
X11443Y39844D01*
X11490Y39880D01*
X11549Y39957D01*
X11586Y40046D01*
X11598Y40142D01*
X11586Y40238D01*
X11549Y40327D01*
X11490Y40403D01*
X11413Y40462D01*
X11350Y40489D01*
X11355Y40541D01*
X11370Y40544D01*
X11404Y40566D01*
X13639Y42801D01*
X13661Y42835D01*
X13669Y42875D01*
Y43454D01*
X13716Y43473D01*
X13858Y43331D01*
D02*
G37*
G36*
X18603Y33760D02*
X18654Y33694D01*
X18720Y33643D01*
X18776Y33620D01*
Y33587D01*
X18776Y33587D01*
X18784Y33547D01*
X18806Y33513D01*
X19198Y33121D01*
X19231Y33099D01*
X19238Y33097D01*
X19271Y33091D01*
X19271Y33091D01*
X24642D01*
X25086Y32647D01*
Y32307D01*
X25036Y32288D01*
X24972Y32336D01*
X24883Y32373D01*
X24787Y32386D01*
X24692Y32373D01*
X24611Y32340D01*
X24217Y32734D01*
X24183Y32756D01*
X24143Y32764D01*
X24143Y32764D01*
X20580D01*
X20580Y32764D01*
X20547Y32758D01*
X20540Y32756D01*
X20506Y32734D01*
X20506Y32734D01*
X20126Y32354D01*
X20103Y32320D01*
X20095Y32280D01*
X20095Y32280D01*
Y31273D01*
X20045Y31253D01*
X19994Y31293D01*
X19917Y31325D01*
X19834Y31335D01*
X19752Y31325D01*
X19696Y31302D01*
X18522Y32476D01*
Y33830D01*
X18571Y33837D01*
X18603Y33760D01*
D02*
G37*
G36*
X25826Y36230D02*
X25834Y36190D01*
X25856Y36156D01*
X26446Y35567D01*
Y33050D01*
X26390Y33027D01*
X26344Y32992D01*
X26294Y33016D01*
Y35408D01*
X26294Y35408D01*
X26286Y35448D01*
X26264Y35482D01*
X25687Y36059D01*
X25698Y36072D01*
X25755Y36180D01*
X25762Y36202D01*
X25823Y36231D01*
X25826Y36230D01*
D02*
G37*
G36*
X23137Y32506D02*
X23116Y32492D01*
X23116Y32492D01*
X22964Y32340D01*
X22883Y32373D01*
X22787Y32386D01*
X22692Y32373D01*
X22602Y32336D01*
X22526Y32277D01*
X22467Y32201D01*
X22430Y32112D01*
X22417Y32016D01*
X22430Y31920D01*
X22467Y31831D01*
X22526Y31754D01*
X22602Y31695D01*
X22692Y31658D01*
X22787Y31646D01*
X22883Y31658D01*
X22972Y31695D01*
X23049Y31754D01*
X23108Y31831D01*
X23145Y31920D01*
X23157Y32016D01*
X23145Y32112D01*
X23111Y32192D01*
X23233Y32314D01*
X23496D01*
X23515Y32264D01*
X23467Y32201D01*
X23430Y32112D01*
X23417Y32016D01*
X23430Y31920D01*
X23467Y31831D01*
X23526Y31754D01*
X23602Y31695D01*
X23692Y31658D01*
X23787Y31646D01*
X23883Y31658D01*
X23972Y31695D01*
X24036Y31744D01*
X24086Y31725D01*
Y31307D01*
X24036Y31288D01*
X23972Y31336D01*
X23883Y31373D01*
X23787Y31386D01*
X23692Y31373D01*
X23611Y31340D01*
X23437Y31514D01*
X23403Y31536D01*
X23363Y31544D01*
X23363Y31544D01*
X20500D01*
X20500Y31544D01*
X20460Y31536D01*
X20426Y31514D01*
X20350Y31438D01*
X20304Y31457D01*
Y32237D01*
X20623Y32556D01*
X23121D01*
X23137Y32506D01*
D02*
G37*
G36*
X23463Y31192D02*
X23430Y31112D01*
X23417Y31016D01*
X23430Y30920D01*
X23467Y30831D01*
X23526Y30754D01*
X23602Y30695D01*
X23692Y30658D01*
X23787Y30646D01*
X23818Y30650D01*
X23841Y30602D01*
X20583Y27344D01*
X19090D01*
X19050Y27336D01*
X19034Y27326D01*
X19002Y27365D01*
X20764Y29126D01*
X20764Y29126D01*
X20786Y29160D01*
X20794Y29200D01*
Y30100D01*
X20850Y30123D01*
X20916Y30174D01*
X20967Y30240D01*
X20999Y30317D01*
X21010Y30400D01*
X20999Y30483D01*
X20967Y30560D01*
X20921Y30620D01*
X20922Y30648D01*
X20931Y30678D01*
X20972Y30695D01*
X21049Y30754D01*
X21108Y30831D01*
X21145Y30920D01*
X21157Y31016D01*
X21145Y31112D01*
X21108Y31201D01*
X21049Y31277D01*
X21035Y31288D01*
X21051Y31336D01*
X21524D01*
X21540Y31288D01*
X21526Y31277D01*
X21467Y31201D01*
X21430Y31112D01*
X21417Y31016D01*
X21430Y30920D01*
X21467Y30831D01*
X21526Y30754D01*
X21602Y30695D01*
X21692Y30658D01*
X21787Y30646D01*
X21883Y30658D01*
X21972Y30695D01*
X22049Y30754D01*
X22108Y30831D01*
X22145Y30920D01*
X22157Y31016D01*
X22145Y31112D01*
X22108Y31201D01*
X22049Y31277D01*
X22035Y31288D01*
X22051Y31336D01*
X22524D01*
X22540Y31288D01*
X22526Y31277D01*
X22467Y31201D01*
X22430Y31112D01*
X22417Y31016D01*
X22430Y30920D01*
X22463Y30839D01*
X21450Y29826D01*
X21394Y29849D01*
X21312Y29860D01*
X21229Y29849D01*
X21152Y29817D01*
X21086Y29766D01*
X21035Y29700D01*
X21003Y29623D01*
X20992Y29540D01*
X21003Y29457D01*
X21035Y29380D01*
X21086Y29314D01*
X21152Y29263D01*
X21229Y29231D01*
X21312Y29220D01*
X21394Y29231D01*
X21471Y29263D01*
X21538Y29314D01*
X21588Y29380D01*
X21620Y29457D01*
X21631Y29540D01*
X21620Y29623D01*
X21597Y29678D01*
X22611Y30692D01*
X22692Y30658D01*
X22787Y30646D01*
X22883Y30658D01*
X22972Y30695D01*
X23049Y30754D01*
X23108Y30831D01*
X23145Y30920D01*
X23157Y31016D01*
X23145Y31112D01*
X23108Y31201D01*
X23049Y31277D01*
X23035Y31288D01*
X23051Y31336D01*
X23320D01*
X23463Y31192D01*
D02*
G37*
G36*
X17720Y34446D02*
X17797Y34414D01*
X17880Y34403D01*
X17888Y34404D01*
X17926Y34371D01*
Y29770D01*
X17926Y29770D01*
X17934Y29730D01*
X17956Y29696D01*
X18669Y28984D01*
X18669Y28984D01*
X18702Y28961D01*
X18742Y28953D01*
X19178D01*
X19178Y28953D01*
X19218Y28961D01*
X19251Y28984D01*
X19464Y29196D01*
X19464Y29196D01*
X19486Y29230D01*
X19488Y29237D01*
X19494Y29270D01*
X19494Y29270D01*
Y30310D01*
X19550Y30333D01*
X19616Y30384D01*
X19667Y30450D01*
X19699Y30527D01*
X19710Y30610D01*
X19701Y30674D01*
X19741Y30711D01*
X19752Y30707D01*
X19834Y30696D01*
X19917Y30707D01*
X19994Y30739D01*
X20045Y30778D01*
X20095Y30758D01*
Y29601D01*
X17614Y27119D01*
X17591Y27085D01*
X17583Y27045D01*
X17583Y27045D01*
Y25314D01*
X17311D01*
Y26091D01*
X16616D01*
X16454Y26252D01*
Y26489D01*
X16504Y26499D01*
X16522Y26457D01*
X16589Y26369D01*
X16677Y26301D01*
X16780Y26259D01*
X16890Y26244D01*
X17000Y26259D01*
X17102Y26301D01*
X17190Y26369D01*
X17258Y26457D01*
X17300Y26559D01*
X17315Y26669D01*
X17300Y26779D01*
X17258Y26882D01*
X17254Y26886D01*
X17834Y27466D01*
X17834Y27466D01*
X17856Y27500D01*
X17864Y27540D01*
Y33978D01*
X17856Y34018D01*
X17834Y34051D01*
X17622Y34263D01*
Y34459D01*
X17672Y34483D01*
X17720Y34446D01*
D02*
G37*
G36*
X10116Y27656D02*
X10116Y27656D01*
X10150Y27634D01*
X10157Y27632D01*
X10190Y27626D01*
X10190Y27626D01*
X12987D01*
X13756Y26857D01*
Y25240D01*
X13756Y25240D01*
X13764Y25200D01*
X13786Y25166D01*
X14326Y24626D01*
X14326Y24626D01*
X14360Y24604D01*
X14400Y24596D01*
X17600D01*
X17600Y24596D01*
X17640Y24604D01*
X17674Y24626D01*
X18442Y25394D01*
X18483Y25370D01*
X18451Y25293D01*
X18440Y25210D01*
X18451Y25127D01*
X18483Y25050D01*
X18534Y24984D01*
X18600Y24933D01*
X18677Y24901D01*
X18760Y24890D01*
X18843Y24901D01*
X18920Y24933D01*
X18986Y24984D01*
X19037Y25050D01*
X19069Y25127D01*
X19080Y25210D01*
X19069Y25293D01*
X19046Y25348D01*
X19090Y25393D01*
X19136Y25373D01*
Y21215D01*
X19096Y21186D01*
X18635Y21342D01*
X17855Y21646D01*
X17089Y21983D01*
X16338Y22353D01*
X15605Y22756D01*
X14889Y23190D01*
X14193Y23655D01*
X13518Y24150D01*
X12865Y24674D01*
X12236Y25226D01*
X11631Y25805D01*
X11052Y26409D01*
X10501Y27038D01*
X9977Y27691D01*
X9883Y27819D01*
X9921Y27851D01*
X10116Y27656D01*
D02*
G37*
G36*
X9306Y43697D02*
Y31310D01*
X9306Y31310D01*
X9314Y31270D01*
X9336Y31236D01*
X9874Y30698D01*
X9851Y30643D01*
X9840Y30560D01*
X9851Y30477D01*
X9883Y30400D01*
X9934Y30334D01*
X10000Y30283D01*
X10077Y30251D01*
X10153Y30241D01*
X10180Y30198D01*
X10136Y30154D01*
X10114Y30120D01*
X10106Y30080D01*
X10106Y30080D01*
Y28710D01*
X10106Y28710D01*
X10114Y28670D01*
X10136Y28636D01*
X10486Y28286D01*
X10486Y28286D01*
X10520Y28264D01*
X10527Y28262D01*
X10560Y28256D01*
X10560Y28256D01*
X13337D01*
X13914Y27678D01*
X13891Y27623D01*
X13880Y27540D01*
X13891Y27457D01*
X13923Y27380D01*
X13974Y27314D01*
X14040Y27263D01*
X14117Y27231D01*
X14200Y27220D01*
X14283Y27231D01*
X14360Y27263D01*
X14426Y27314D01*
X14477Y27380D01*
X14509Y27457D01*
X14520Y27540D01*
X14509Y27623D01*
X14477Y27700D01*
X14426Y27766D01*
X14360Y27817D01*
X14283Y27849D01*
X14200Y27860D01*
X14117Y27849D01*
X14062Y27826D01*
X13454Y28434D01*
X13420Y28456D01*
X13380Y28464D01*
X13380Y28464D01*
X10603D01*
X10314Y28753D01*
Y29100D01*
X10364Y29111D01*
X10438Y29021D01*
X10538Y28939D01*
X10653Y28878D01*
X10777Y28840D01*
X10906Y28828D01*
X11034Y28840D01*
X11158Y28878D01*
X11273Y28939D01*
X11292Y28954D01*
X11530Y28716D01*
X11530Y28716D01*
X11564Y28694D01*
X11570Y28692D01*
X11604Y28686D01*
X11604Y28686D01*
X13640D01*
X13640Y28686D01*
X13680Y28694D01*
X13714Y28716D01*
X13950Y28952D01*
X13996Y28933D01*
Y28480D01*
X13996Y28480D01*
X14004Y28440D01*
X14026Y28406D01*
X14583Y27849D01*
Y25562D01*
X14583Y25562D01*
X14591Y25522D01*
X14614Y25488D01*
X14966Y25136D01*
X15000Y25114D01*
X15040Y25106D01*
X15040Y25106D01*
X17670D01*
X17670Y25106D01*
X17710Y25114D01*
X17744Y25136D01*
X17761Y25154D01*
X17761Y25154D01*
X17784Y25188D01*
X17792Y25227D01*
Y27002D01*
X20187Y29397D01*
X20233Y29378D01*
Y29086D01*
X18548Y27401D01*
X18480Y27410D01*
X18397Y27399D01*
X18320Y27367D01*
X18254Y27316D01*
X18203Y27250D01*
X18171Y27173D01*
X18160Y27090D01*
X18171Y27007D01*
X18203Y26930D01*
X18254Y26864D01*
X18320Y26813D01*
X18397Y26781D01*
X18480Y26770D01*
X18563Y26781D01*
X18640Y26813D01*
X18706Y26864D01*
X18722Y26885D01*
X18772Y26868D01*
Y26020D01*
X17557Y24804D01*
X14443D01*
X13964Y25283D01*
Y26900D01*
X13956Y26940D01*
X13934Y26974D01*
X13934Y26974D01*
X13104Y27804D01*
X13070Y27826D01*
X13030Y27834D01*
X13030Y27834D01*
X10233D01*
X9794Y28273D01*
Y29150D01*
X9794Y29150D01*
X9788Y29183D01*
X9786Y29190D01*
X9764Y29224D01*
X9764Y29224D01*
X9154Y29833D01*
Y43664D01*
X9210Y43687D01*
X9256Y43722D01*
X9306Y43697D01*
D02*
G37*
G36*
X11676Y31333D02*
Y29450D01*
X11620Y29427D01*
X11605Y29415D01*
X11561Y29440D01*
X11566Y29488D01*
X11553Y29617D01*
X11516Y29741D01*
X11455Y29855D01*
X11373Y29955D01*
X11273Y30038D01*
X11158Y30099D01*
X11034Y30136D01*
X10906Y30149D01*
X10777Y30136D01*
X10653Y30099D01*
X10538Y30038D01*
X10438Y29955D01*
X10364Y29865D01*
X10314Y29876D01*
Y30037D01*
X11629Y31352D01*
X11676Y31333D01*
D02*
G37*
G36*
X17380Y29947D02*
Y28307D01*
X17107Y28034D01*
X17102Y28037D01*
X17000Y28080D01*
X16890Y28094D01*
X16780Y28080D01*
X16677Y28037D01*
X16589Y27970D01*
X16522Y27882D01*
X16504Y27840D01*
X16454Y27850D01*
Y28489D01*
X16504Y28499D01*
X16522Y28457D01*
X16589Y28369D01*
X16677Y28301D01*
X16780Y28259D01*
X16890Y28244D01*
X17000Y28259D01*
X17102Y28301D01*
X17190Y28369D01*
X17258Y28457D01*
X17300Y28559D01*
X17315Y28669D01*
X17300Y28779D01*
X17258Y28882D01*
X17190Y28970D01*
X17102Y29037D01*
X17000Y29080D01*
X16890Y29094D01*
X16780Y29080D01*
X16677Y29037D01*
X16589Y28970D01*
X16522Y28882D01*
X16504Y28840D01*
X16454Y28850D01*
Y29489D01*
X16504Y29499D01*
X16522Y29457D01*
X16589Y29369D01*
X16677Y29301D01*
X16780Y29259D01*
X16890Y29244D01*
X17000Y29259D01*
X17102Y29301D01*
X17190Y29369D01*
X17258Y29457D01*
X17300Y29559D01*
X17315Y29669D01*
X17300Y29779D01*
X17258Y29882D01*
X17254Y29886D01*
X17334Y29966D01*
X17380Y29947D01*
D02*
G37*
G36*
X21276Y36516D02*
X21276Y36516D01*
X21409Y36383D01*
X21386Y36328D01*
X21375Y36245D01*
X21386Y36162D01*
X21418Y36085D01*
X21469Y36019D01*
X21535Y35968D01*
X21595Y35943D01*
X21606Y35898D01*
X21605Y35887D01*
X21564Y35856D01*
X21513Y35790D01*
X21481Y35713D01*
X21470Y35630D01*
X21481Y35547D01*
X21513Y35470D01*
X21564Y35404D01*
X21630Y35353D01*
X21707Y35321D01*
X21759Y35314D01*
X21756Y35264D01*
X21206D01*
Y35500D01*
X21184D01*
Y35620D01*
X21184Y35620D01*
X21178Y35653D01*
X21176Y35660D01*
X21156Y35690D01*
X21157Y35695D01*
X21169Y35740D01*
X21169Y35740D01*
X21169Y35740D01*
X21169Y35740D01*
Y36228D01*
X20892D01*
X20876Y36278D01*
X20914Y36316D01*
X20936Y36350D01*
X20944Y36390D01*
Y36777D01*
X20994Y36798D01*
X21276Y36516D01*
D02*
G37*
G36*
X18122Y35740D02*
X18313D01*
X18340Y35690D01*
X18337Y35685D01*
X18334D01*
X18294Y35678D01*
X18260Y35655D01*
X18138Y35532D01*
X18116Y35500D01*
X18086D01*
Y35255D01*
X18086Y35209D01*
Y35209D01*
X18086Y35209D01*
X18108Y35168D01*
X18115Y35130D01*
X18138Y35096D01*
X18175Y35058D01*
Y34940D01*
X18125Y34923D01*
X18106Y34948D01*
X18040Y34999D01*
X17963Y35031D01*
X17880Y35042D01*
X17797Y35031D01*
X17720Y34999D01*
X17654Y34948D01*
X17603Y34882D01*
X17591Y34853D01*
X17542Y34843D01*
X17387Y34999D01*
X17361Y35016D01*
X17360Y35045D01*
X17367Y35067D01*
X17400Y35074D01*
X17434Y35096D01*
X17534Y35196D01*
X17534Y35196D01*
X17556Y35230D01*
X17564Y35270D01*
Y36117D01*
X17566Y36119D01*
X18122D01*
Y35740D01*
D02*
G37*
G36*
X27086Y35844D02*
Y32307D01*
X27036Y32288D01*
X26972Y32336D01*
X26883Y32373D01*
X26787Y32386D01*
X26692Y32373D01*
X26602Y32336D01*
X26526Y32277D01*
X26467Y32201D01*
X26430Y32112D01*
X26417Y32016D01*
X26430Y31920D01*
X26467Y31831D01*
X26526Y31754D01*
X26602Y31695D01*
X26692Y31658D01*
X26787Y31646D01*
X26883Y31658D01*
X26972Y31695D01*
X27036Y31744D01*
X27086Y31725D01*
Y31307D01*
X27036Y31288D01*
X26972Y31336D01*
X26883Y31373D01*
X26787Y31386D01*
X26692Y31373D01*
X26602Y31336D01*
X26526Y31277D01*
X26467Y31201D01*
X26430Y31112D01*
X26417Y31016D01*
X26430Y30920D01*
X26467Y30831D01*
X26518Y30764D01*
X26502Y30714D01*
X26073D01*
X26057Y30764D01*
X26108Y30831D01*
X26145Y30920D01*
X26157Y31016D01*
X26145Y31112D01*
X26111Y31192D01*
X26264Y31345D01*
X26264Y31345D01*
X26286Y31378D01*
X26294Y31418D01*
Y32484D01*
X26344Y32508D01*
X26390Y32473D01*
X26467Y32441D01*
X26550Y32430D01*
X26633Y32441D01*
X26710Y32473D01*
X26776Y32524D01*
X26827Y32590D01*
X26859Y32667D01*
X26870Y32750D01*
X26859Y32833D01*
X26827Y32910D01*
X26776Y32976D01*
X26710Y33027D01*
X26654Y33050D01*
Y35610D01*
X26646Y35650D01*
X26624Y35684D01*
X26624Y35684D01*
X26522Y35785D01*
X26549Y35829D01*
X26619Y35808D01*
X26740Y35796D01*
X26861Y35808D01*
X26978Y35844D01*
X27036Y35874D01*
X27086Y35844D01*
D02*
G37*
G36*
X24356Y36949D02*
X24344Y36930D01*
X24336Y36890D01*
X24336Y36890D01*
Y35803D01*
X22539Y34007D01*
X21229D01*
X21204Y34057D01*
X21237Y34100D01*
X21269Y34177D01*
X21280Y34260D01*
X21269Y34342D01*
X21237Y34419D01*
X21186Y34486D01*
X21120Y34536D01*
X21043Y34568D01*
X20960Y34579D01*
X20877Y34568D01*
X20822Y34545D01*
X20397Y34970D01*
Y35209D01*
X20418D01*
Y35500D01*
X20418Y35500D01*
X20418D01*
X20447Y35537D01*
X20613Y35703D01*
X20627Y35703D01*
X20672Y35691D01*
X20686Y35670D01*
X20784Y35572D01*
Y35500D01*
X20763D01*
Y35257D01*
X20763Y35209D01*
Y35209D01*
X20763Y35209D01*
X20787Y35169D01*
X20792Y35141D01*
X20815Y35108D01*
X21046Y34876D01*
X21046Y34876D01*
X21080Y34854D01*
X21087Y34852D01*
X21120Y34846D01*
X21120Y34846D01*
X22568D01*
X22568Y34846D01*
X22608Y34854D01*
X22642Y34876D01*
X22892Y35126D01*
X22892Y35126D01*
X22914Y35160D01*
X22922Y35200D01*
Y35209D01*
X23135D01*
Y35500D01*
X23113D01*
Y35640D01*
X23105Y35680D01*
X23083Y35714D01*
X23083Y35714D01*
X23067Y35730D01*
X23088Y35780D01*
X23098D01*
Y36137D01*
X23430D01*
X23430Y36137D01*
X23470Y36145D01*
X23504Y36167D01*
X24317Y36981D01*
X24356Y36949D01*
D02*
G37*
G36*
X20051Y35920D02*
Y35743D01*
X19575Y35267D01*
X19277D01*
Y35500D01*
X19255D01*
Y35620D01*
X19255Y35620D01*
X19248Y35653D01*
X19247Y35660D01*
X19227Y35690D01*
X19228Y35695D01*
X19240Y35740D01*
X19240Y35740D01*
X19240Y35740D01*
X19240Y35740D01*
Y35936D01*
X19611D01*
X19640Y35913D01*
X19717Y35881D01*
X19800Y35870D01*
X19883Y35881D01*
X19960Y35913D01*
X20001Y35945D01*
X20051Y35920D01*
D02*
G37*
G36*
X17413Y34365D02*
Y34220D01*
X17413Y34220D01*
X17421Y34180D01*
X17444Y34146D01*
X17656Y33934D01*
Y27583D01*
X17107Y27034D01*
X17102Y27037D01*
X17000Y27080D01*
X16890Y27094D01*
X16780Y27080D01*
X16677Y27037D01*
X16589Y26970D01*
X16522Y26882D01*
X16504Y26840D01*
X16454Y26850D01*
Y27489D01*
X16504Y27499D01*
X16522Y27457D01*
X16589Y27369D01*
X16677Y27301D01*
X16780Y27259D01*
X16890Y27244D01*
X17000Y27259D01*
X17102Y27301D01*
X17190Y27369D01*
X17258Y27457D01*
X17300Y27559D01*
X17315Y27669D01*
X17300Y27779D01*
X17258Y27882D01*
X17254Y27886D01*
X17558Y28190D01*
X17581Y28224D01*
X17582Y28230D01*
X17589Y28264D01*
X17589Y28264D01*
Y33623D01*
X17589Y33623D01*
X17582Y33656D01*
X17581Y33663D01*
X17558Y33697D01*
X17060Y34195D01*
X17083Y34243D01*
X17100Y34240D01*
X17183Y34251D01*
X17260Y34283D01*
X17326Y34334D01*
X17363Y34382D01*
X17413Y34365D01*
D02*
G37*
G36*
X19460Y34373D02*
X19516Y34350D01*
Y34330D01*
X19516Y34330D01*
X19524Y34290D01*
X19546Y34256D01*
X20326Y33476D01*
X20326Y33476D01*
X20360Y33454D01*
X20367Y33452D01*
X20400Y33446D01*
X20400Y33446D01*
X20710D01*
X20733Y33390D01*
X20764Y33350D01*
X20740Y33300D01*
X19315D01*
X19027Y33587D01*
X19033Y33637D01*
X19041Y33644D01*
X19106Y33694D01*
X19161Y33684D01*
X19183Y33630D01*
X19234Y33564D01*
X19300Y33513D01*
X19377Y33481D01*
X19460Y33470D01*
X19543Y33481D01*
X19620Y33513D01*
X19686Y33564D01*
X19737Y33630D01*
X19769Y33707D01*
X19780Y33790D01*
X19769Y33873D01*
X19737Y33950D01*
X19686Y34016D01*
X19620Y34067D01*
X19543Y34099D01*
X19460Y34110D01*
X19421Y34104D01*
X19369Y34148D01*
X19362Y34387D01*
X19411Y34411D01*
X19460Y34373D01*
D02*
G37*
G36*
X33896Y36924D02*
Y33177D01*
X33144D01*
Y34607D01*
X33814Y35276D01*
X33814Y35276D01*
X33837Y35310D01*
X33838Y35317D01*
X33845Y35350D01*
X33845Y35350D01*
Y36957D01*
X33846Y36958D01*
X33896Y36924D01*
D02*
G37*
G36*
X15430Y37133D02*
X15486Y37110D01*
Y35278D01*
X15486Y35278D01*
X15494Y35238D01*
X15516Y35204D01*
X16270Y34451D01*
X16270Y34451D01*
X16304Y34428D01*
X16310Y34427D01*
X16343Y34420D01*
X16343Y34420D01*
X16540D01*
X17128Y33832D01*
X17099Y33789D01*
X17053Y33809D01*
X16970Y33820D01*
X16887Y33809D01*
X16810Y33777D01*
X16744Y33726D01*
X16693Y33660D01*
X16661Y33583D01*
X16650Y33500D01*
X16661Y33417D01*
X16693Y33340D01*
X16744Y33274D01*
X16810Y33223D01*
X16887Y33191D01*
X16970Y33180D01*
X17053Y33191D01*
X17108Y33214D01*
X17242Y33080D01*
Y32980D01*
X17195Y32964D01*
X17190Y32970D01*
X17102Y33037D01*
X17000Y33080D01*
X16890Y33094D01*
X16780Y33080D01*
X16677Y33037D01*
X16589Y32970D01*
X16522Y32882D01*
X16504Y32840D01*
X16454Y32850D01*
Y34149D01*
X16446Y34189D01*
X16424Y34223D01*
X16424Y34223D01*
X15334Y35312D01*
Y37144D01*
X15384Y37168D01*
X15430Y37133D01*
D02*
G37*
G36*
X20674Y34398D02*
X20651Y34342D01*
X20640Y34260D01*
X20651Y34177D01*
X20683Y34100D01*
X20716Y34057D01*
X20691Y34007D01*
X20322D01*
X20206Y34123D01*
Y34796D01*
X20256Y34816D01*
X20674Y34398D01*
D02*
G37*
G36*
X24607Y36180D02*
X24665Y36072D01*
X24742Y35978D01*
X24836Y35901D01*
X24943Y35844D01*
X25060Y35808D01*
X25181Y35796D01*
X25302Y35808D01*
X25419Y35844D01*
X25526Y35901D01*
X25539Y35912D01*
X26086Y35365D01*
Y32307D01*
X26036Y32288D01*
X25972Y32336D01*
X25883Y32373D01*
X25787Y32386D01*
X25692Y32373D01*
X25602Y32336D01*
X25526Y32277D01*
X25467Y32201D01*
X25430Y32112D01*
X25417Y32016D01*
X25430Y31920D01*
X25463Y31839D01*
X25344Y31720D01*
X25294Y31741D01*
Y32690D01*
X25294Y32690D01*
X25288Y32723D01*
X25286Y32730D01*
X25264Y32764D01*
X25264Y32764D01*
X24759Y33269D01*
X24725Y33292D01*
X24685Y33300D01*
X24685Y33300D01*
X21280D01*
X21256Y33350D01*
X21287Y33390D01*
X21319Y33467D01*
X21330Y33550D01*
X21319Y33633D01*
X21287Y33710D01*
X21258Y33748D01*
X21282Y33798D01*
X22582D01*
X22582Y33798D01*
X22622Y33806D01*
X22656Y33829D01*
X24514Y35686D01*
X24514Y35686D01*
X24536Y35720D01*
X24544Y35760D01*
Y36215D01*
X24594Y36222D01*
X24607Y36180D01*
D02*
G37*
G36*
X38011Y50416D02*
X37953Y50339D01*
X37913Y50244D01*
X37900Y50142D01*
X37913Y50039D01*
X37953Y49944D01*
X38016Y49862D01*
X38098Y49799D01*
X38193Y49760D01*
X38295Y49746D01*
X38398Y49760D01*
X38493Y49799D01*
X38575Y49862D01*
X38638Y49944D01*
X38677Y50039D01*
X38691Y50142D01*
X38679Y50233D01*
X38707Y50254D01*
X38723Y50259D01*
X38756Y50226D01*
Y46586D01*
X38710Y46567D01*
X38634Y46643D01*
X38600Y46666D01*
X38560Y46673D01*
X38560Y46673D01*
X38314D01*
X38291Y46703D01*
X38314Y46749D01*
X38398Y46760D01*
X38493Y46799D01*
X38575Y46862D01*
X38638Y46944D01*
X38677Y47039D01*
X38691Y47142D01*
X38677Y47244D01*
X38638Y47339D01*
X38575Y47421D01*
X38493Y47484D01*
X38398Y47524D01*
X38295Y47537D01*
X38193Y47524D01*
X38098Y47484D01*
X38022Y47426D01*
X37972Y47438D01*
Y47845D01*
X38022Y47857D01*
X38098Y47799D01*
X38193Y47760D01*
X38295Y47746D01*
X38398Y47760D01*
X38493Y47799D01*
X38575Y47862D01*
X38638Y47944D01*
X38677Y48039D01*
X38691Y48142D01*
X38677Y48244D01*
X38638Y48339D01*
X38575Y48421D01*
X38493Y48484D01*
X38398Y48524D01*
X38295Y48537D01*
X38193Y48524D01*
X38098Y48484D01*
X38022Y48426D01*
X37972Y48438D01*
Y48845D01*
X38022Y48857D01*
X38098Y48799D01*
X38193Y48760D01*
X38295Y48746D01*
X38398Y48760D01*
X38493Y48799D01*
X38575Y48862D01*
X38638Y48944D01*
X38677Y49039D01*
X38691Y49142D01*
X38677Y49244D01*
X38638Y49339D01*
X38575Y49421D01*
X38493Y49484D01*
X38398Y49524D01*
X38295Y49537D01*
X38193Y49524D01*
X38098Y49484D01*
X38016Y49421D01*
X37984Y49380D01*
X37980Y49377D01*
X37919Y49377D01*
X37552Y49744D01*
X37525Y49761D01*
X37517Y49796D01*
X37517Y49818D01*
X37575Y49862D01*
X37638Y49944D01*
X37677Y50039D01*
X37691Y50142D01*
X37677Y50244D01*
X37638Y50339D01*
X37579Y50416D01*
X37590Y50466D01*
X38000D01*
X38011Y50416D01*
D02*
G37*
G36*
X36596Y50197D02*
Y50090D01*
X36596Y50090D01*
X36604Y50050D01*
X36626Y50016D01*
X37046Y49596D01*
X37046Y49596D01*
X37080Y49574D01*
X37087Y49572D01*
X37120Y49566D01*
X37151Y49560D01*
X37156Y49508D01*
X37098Y49484D01*
X37016Y49421D01*
X36953Y49339D01*
X36913Y49244D01*
X36900Y49142D01*
X36913Y49039D01*
X36953Y48944D01*
X37016Y48862D01*
X37098Y48799D01*
X37193Y48760D01*
X37295Y48746D01*
X37398Y48760D01*
X37493Y48799D01*
X37575Y48862D01*
X37638Y48944D01*
X37677Y49039D01*
X37691Y49142D01*
X37677Y49244D01*
X37671Y49258D01*
X37714Y49287D01*
X37764Y49237D01*
Y48499D01*
X37717Y48480D01*
X37554Y48644D01*
X37520Y48666D01*
X37480Y48674D01*
X37480Y48674D01*
X36452D01*
X36452Y48674D01*
X36419Y48668D01*
X36412Y48666D01*
X36378Y48644D01*
X36378Y48644D01*
X36280Y48546D01*
X36275Y48549D01*
X36173Y48592D01*
X36063Y48606D01*
X35953Y48592D01*
X35851Y48549D01*
X35763Y48482D01*
X35752Y48467D01*
X35704Y48483D01*
Y48879D01*
X35752Y48895D01*
X35763Y48881D01*
X35851Y48813D01*
X35953Y48771D01*
X36063Y48756D01*
X36173Y48771D01*
X36275Y48813D01*
X36363Y48881D01*
X36431Y48969D01*
X36473Y49071D01*
X36488Y49181D01*
X36473Y49291D01*
X36431Y49394D01*
X36363Y49482D01*
X36275Y49549D01*
X36173Y49592D01*
X36063Y49606D01*
X35953Y49592D01*
X35851Y49549D01*
X35763Y49482D01*
X35752Y49467D01*
X35704Y49483D01*
Y49675D01*
X35846Y49817D01*
X35851Y49813D01*
X35953Y49771D01*
X36063Y49756D01*
X36173Y49771D01*
X36275Y49813D01*
X36363Y49881D01*
X36431Y49969D01*
X36473Y50071D01*
X36488Y50181D01*
X36480Y50242D01*
X36527Y50265D01*
X36596Y50197D01*
D02*
G37*
G36*
X15386Y48384D02*
Y46836D01*
X15137Y46588D01*
X15056Y46621D01*
X14961Y46634D01*
X14865Y46621D01*
X14776Y46584D01*
X14699Y46525D01*
X14647Y46458D01*
X14113D01*
X14096Y46498D01*
X14045Y46565D01*
X13979Y46615D01*
X13902Y46647D01*
X13819Y46658D01*
X13736Y46647D01*
X13659Y46615D01*
X13593Y46565D01*
X13542Y46498D01*
X13510Y46421D01*
X13499Y46339D01*
X13510Y46256D01*
X13542Y46179D01*
X13593Y46113D01*
X13659Y46062D01*
X13736Y46030D01*
X13819Y46019D01*
X13902Y46030D01*
X13979Y46062D01*
X14045Y46113D01*
X14096Y46179D01*
X14113Y46219D01*
X14596D01*
X14603Y46168D01*
X14640Y46079D01*
X14699Y46002D01*
X14776Y45943D01*
X14865Y45906D01*
X14961Y45894D01*
X15056Y45906D01*
X15146Y45943D01*
X15222Y46002D01*
X15273Y46068D01*
X15330Y46082D01*
X17556Y43857D01*
Y42933D01*
X17509Y42914D01*
X16913Y43510D01*
Y43925D01*
X16905Y43965D01*
X16883Y43999D01*
X16883Y43999D01*
X16204Y44678D01*
X16170Y44701D01*
X16130Y44709D01*
X16130Y44709D01*
X14382D01*
X14342Y44701D01*
X14308Y44678D01*
X14308Y44678D01*
X13682Y44052D01*
X13639Y44056D01*
X13096Y44599D01*
Y46431D01*
X14931Y48266D01*
X14944Y48261D01*
X15039Y48248D01*
X15135Y48261D01*
X15224Y48298D01*
X15301Y48356D01*
X15336Y48401D01*
X15386Y48384D01*
D02*
G37*
G36*
X31468Y49334D02*
Y34380D01*
X31468Y34380D01*
X31475Y34343D01*
X31467Y34332D01*
X31445Y34312D01*
X31437Y34308D01*
X31363Y34339D01*
X31280Y34350D01*
X31197Y34339D01*
X31120Y34307D01*
X31054Y34256D01*
X31003Y34190D01*
X30980Y34134D01*
X30547D01*
X30398Y34283D01*
Y34350D01*
X30448Y34367D01*
X30474Y34334D01*
X30540Y34283D01*
X30617Y34251D01*
X30700Y34240D01*
X30783Y34251D01*
X30860Y34283D01*
X30926Y34334D01*
X30977Y34400D01*
X31009Y34477D01*
X31020Y34560D01*
X31009Y34643D01*
X30977Y34720D01*
X30926Y34786D01*
X30860Y34837D01*
X30804Y34860D01*
Y45120D01*
X30804Y45120D01*
X30798Y45153D01*
X30796Y45160D01*
X30774Y45194D01*
X30774Y45194D01*
X30204Y45764D01*
X30170Y45786D01*
X30130Y45794D01*
X30130Y45794D01*
X29820D01*
X29817Y45844D01*
X29830Y45846D01*
X29916Y45882D01*
X29989Y45938D01*
X30046Y46012D01*
X30081Y46097D01*
X30093Y46189D01*
X30081Y46281D01*
X30046Y46366D01*
X29989Y46440D01*
X29916Y46496D01*
X29843Y46527D01*
Y46923D01*
X29843Y46923D01*
X29893Y46934D01*
X29961Y46882D01*
X30046Y46846D01*
X30138Y46834D01*
X30230Y46846D01*
X30316Y46882D01*
X30389Y46938D01*
X30446Y47011D01*
X30481Y47097D01*
X30493Y47189D01*
X30481Y47281D01*
X30451Y47354D01*
X31274Y48177D01*
X31296Y48211D01*
X31298Y48217D01*
X31304Y48251D01*
X31304Y48251D01*
Y49280D01*
X31360Y49303D01*
X31418Y49348D01*
X31468Y49334D01*
D02*
G37*
G36*
X37011Y48416D02*
X36953Y48339D01*
X36913Y48244D01*
X36900Y48142D01*
X36913Y48039D01*
X36953Y47944D01*
X37016Y47862D01*
X37098Y47799D01*
X37193Y47760D01*
X37295Y47746D01*
X37398Y47760D01*
X37493Y47799D01*
X37575Y47862D01*
X37578Y47867D01*
X37626Y47851D01*
Y47433D01*
X37578Y47417D01*
X37575Y47421D01*
X37493Y47484D01*
X37398Y47524D01*
X37295Y47537D01*
X37193Y47524D01*
X37098Y47484D01*
X37016Y47421D01*
X36985Y47381D01*
X36980Y47378D01*
X36920Y47378D01*
X36554Y47744D01*
X36520Y47766D01*
X36480Y47774D01*
X36480Y47774D01*
X36307D01*
X36290Y47824D01*
X36363Y47881D01*
X36431Y47969D01*
X36473Y48071D01*
X36488Y48181D01*
X36473Y48291D01*
X36431Y48394D01*
X36428Y48398D01*
X36495Y48466D01*
X37000D01*
X37011Y48416D01*
D02*
G37*
G36*
X35807Y50516D02*
X35763Y50482D01*
X35695Y50394D01*
X35653Y50291D01*
X35638Y50181D01*
X35653Y50071D01*
X35695Y49969D01*
X35698Y49964D01*
X35526Y49792D01*
X35504Y49758D01*
X35496Y49718D01*
X35496Y49718D01*
Y47840D01*
X35496Y47840D01*
X35504Y47800D01*
X35526Y47766D01*
X35696Y47596D01*
X35696Y47596D01*
X35730Y47574D01*
X35770Y47566D01*
X35790D01*
X35807Y47516D01*
X35763Y47482D01*
X35695Y47394D01*
X35653Y47291D01*
X35638Y47181D01*
X35653Y47071D01*
X35695Y46969D01*
X35763Y46881D01*
X35823Y46834D01*
X35806Y46784D01*
X33633D01*
X33314Y47103D01*
Y49510D01*
X33364Y49527D01*
X33394Y49488D01*
X33460Y49437D01*
X33537Y49405D01*
X33620Y49394D01*
X33703Y49405D01*
X33780Y49437D01*
X33846Y49488D01*
X33897Y49554D01*
X33929Y49631D01*
X33940Y49714D01*
X33929Y49797D01*
X33906Y49852D01*
X34340Y50286D01*
X34387Y50263D01*
X34377Y50189D01*
X34389Y50097D01*
X34425Y50012D01*
X34481Y49938D01*
X34555Y49882D01*
X34640Y49846D01*
X34732Y49834D01*
X34824Y49846D01*
X34910Y49882D01*
X34983Y49938D01*
X35040Y50012D01*
X35075Y50097D01*
X35087Y50189D01*
X35075Y50281D01*
X35040Y50366D01*
X34983Y50440D01*
X34910Y50496D01*
X34863Y50516D01*
X34873Y50566D01*
X35790D01*
X35807Y50516D01*
D02*
G37*
G36*
X30031Y53526D02*
X29961Y53496D01*
X29887Y53440D01*
X29831Y53366D01*
X29795Y53281D01*
X29783Y53189D01*
X29795Y53097D01*
X29831Y53011D01*
X29874Y52956D01*
X29851Y52906D01*
X29163D01*
X29045Y53024D01*
X29075Y53097D01*
X29087Y53189D01*
X29075Y53281D01*
X29040Y53366D01*
X28983Y53440D01*
X28910Y53496D01*
X28839Y53526D01*
X28849Y53576D01*
X30022D01*
X30031Y53526D01*
D02*
G37*
G36*
X32637Y55996D02*
X32579Y55972D01*
X32502Y55913D01*
X32443Y55836D01*
X32406Y55747D01*
X32394Y55651D01*
Y55451D01*
X32406Y55355D01*
X32443Y55266D01*
X32502Y55189D01*
X32579Y55131D01*
X32659Y55097D01*
Y55046D01*
X32659Y55046D01*
X32667Y55006D01*
X32690Y54972D01*
X33106Y54557D01*
Y54353D01*
X33056Y54343D01*
X33046Y54366D01*
X32989Y54440D01*
X32916Y54496D01*
X32830Y54532D01*
X32738Y54544D01*
X32646Y54532D01*
X32561Y54496D01*
X32487Y54440D01*
X32431Y54366D01*
X32395Y54281D01*
X32383Y54189D01*
X32395Y54097D01*
X32431Y54012D01*
X32487Y53938D01*
X32561Y53882D01*
X32646Y53846D01*
X32738Y53834D01*
X32830Y53846D01*
X32916Y53882D01*
X32989Y53938D01*
X33046Y54012D01*
X33056Y54035D01*
X33106Y54025D01*
Y47060D01*
X33106Y47060D01*
X33114Y47020D01*
X33136Y46986D01*
X33486Y46637D01*
Y46123D01*
X33367Y46004D01*
X32670D01*
X32670Y46004D01*
X32637Y45998D01*
X32630Y45996D01*
X32596Y45974D01*
X32156Y45534D01*
X32134Y45500D01*
X32126Y45460D01*
X32126Y45460D01*
Y43000D01*
X32070Y42977D01*
X32032Y42948D01*
X31982Y42972D01*
Y46999D01*
X32027Y47011D01*
X32032Y47010D01*
X32087Y46938D01*
X32161Y46882D01*
X32246Y46846D01*
X32338Y46834D01*
X32430Y46846D01*
X32516Y46882D01*
X32589Y46938D01*
X32646Y47011D01*
X32681Y47097D01*
X32693Y47189D01*
X32681Y47281D01*
X32646Y47366D01*
X32589Y47440D01*
X32516Y47496D01*
X32430Y47532D01*
X32401Y47536D01*
X32405Y47586D01*
X32480D01*
X32480Y47586D01*
X32520Y47594D01*
X32554Y47616D01*
X32719Y47782D01*
X32766Y47763D01*
Y46940D01*
X32710Y46917D01*
X32644Y46866D01*
X32593Y46800D01*
X32561Y46723D01*
X32550Y46640D01*
X32561Y46557D01*
X32593Y46480D01*
X32644Y46414D01*
X32710Y46363D01*
X32787Y46331D01*
X32870Y46320D01*
X32953Y46331D01*
X33030Y46363D01*
X33096Y46414D01*
X33147Y46480D01*
X33179Y46557D01*
X33190Y46640D01*
X33179Y46723D01*
X33147Y46800D01*
X33096Y46866D01*
X33030Y46917D01*
X32974Y46940D01*
Y49657D01*
X32974Y49657D01*
X32968Y49691D01*
X32966Y49697D01*
X32944Y49731D01*
X32944Y49731D01*
X32651Y50024D01*
X32681Y50097D01*
X32693Y50189D01*
X32681Y50281D01*
X32646Y50366D01*
X32589Y50440D01*
X32516Y50496D01*
X32430Y50532D01*
X32338Y50544D01*
X32246Y50532D01*
X32161Y50496D01*
X32087Y50440D01*
X32031Y50366D01*
X31995Y50281D01*
X31983Y50189D01*
X31995Y50097D01*
X32031Y50012D01*
X32087Y49938D01*
X32161Y49882D01*
X32246Y49846D01*
X32338Y49834D01*
X32430Y49846D01*
X32503Y49876D01*
X32766Y49614D01*
Y48975D01*
X32719Y48955D01*
X32651Y49024D01*
X32681Y49097D01*
X32693Y49189D01*
X32681Y49281D01*
X32646Y49366D01*
X32589Y49440D01*
X32516Y49496D01*
X32430Y49532D01*
X32338Y49544D01*
X32246Y49532D01*
X32161Y49496D01*
X32087Y49440D01*
X32031Y49366D01*
X31995Y49281D01*
X31983Y49189D01*
X31995Y49097D01*
X32031Y49012D01*
X32087Y48938D01*
X32161Y48882D01*
X32246Y48846D01*
X32338Y48834D01*
X32430Y48846D01*
X32503Y48876D01*
X32626Y48754D01*
Y47983D01*
X32437Y47794D01*
X32280D01*
X32240Y47786D01*
X32206Y47764D01*
X32206Y47764D01*
X31804Y47361D01*
X31781Y47328D01*
X31773Y47288D01*
X31773Y47288D01*
Y34894D01*
X31727Y34858D01*
X31709Y34861D01*
X31677Y34872D01*
Y51962D01*
X31677Y51962D01*
X31670Y51996D01*
X31669Y52002D01*
X31646Y52036D01*
X31646Y52036D01*
X30807Y52875D01*
X30773Y52898D01*
X30733Y52906D01*
X30733Y52906D01*
X30426D01*
X30403Y52956D01*
X30446Y53011D01*
X30481Y53097D01*
X30493Y53189D01*
X30481Y53281D01*
X30446Y53366D01*
X30389Y53440D01*
X30316Y53496D01*
X30245Y53526D01*
X30255Y53576D01*
X30860D01*
X30860Y53576D01*
X30900Y53584D01*
X30934Y53606D01*
X31334Y54006D01*
X31334Y54006D01*
X31356Y54040D01*
X31364Y54080D01*
Y55687D01*
X31723Y56046D01*
X32627D01*
X32637Y55996D01*
D02*
G37*
G36*
X31468Y51919D02*
Y49826D01*
X31418Y49812D01*
X31360Y49857D01*
X31283Y49889D01*
X31200Y49900D01*
X31117Y49889D01*
X31040Y49857D01*
X30974Y49806D01*
X30923Y49740D01*
X30891Y49663D01*
X30880Y49580D01*
X30891Y49497D01*
X30923Y49420D01*
X30974Y49354D01*
X31040Y49303D01*
X31096Y49280D01*
Y48294D01*
X30303Y47502D01*
X30230Y47532D01*
X30138Y47544D01*
X30046Y47532D01*
X29961Y47496D01*
X29893Y47444D01*
X29843Y47455D01*
X29843Y47455D01*
Y47923D01*
X29843Y47923D01*
X29893Y47934D01*
X29961Y47882D01*
X30046Y47846D01*
X30138Y47834D01*
X30230Y47846D01*
X30316Y47882D01*
X30389Y47938D01*
X30446Y48011D01*
X30481Y48097D01*
X30493Y48189D01*
X30481Y48281D01*
X30446Y48366D01*
X30389Y48440D01*
X30316Y48496D01*
X30230Y48532D01*
X30138Y48544D01*
X30046Y48532D01*
X29961Y48496D01*
X29893Y48444D01*
X29843Y48455D01*
X29843Y48455D01*
Y48923D01*
X29843Y48923D01*
X29893Y48934D01*
X29961Y48882D01*
X30046Y48846D01*
X30138Y48834D01*
X30230Y48846D01*
X30316Y48882D01*
X30389Y48938D01*
X30446Y49012D01*
X30481Y49097D01*
X30493Y49189D01*
X30481Y49281D01*
X30446Y49366D01*
X30389Y49440D01*
X30316Y49496D01*
X30230Y49532D01*
X30138Y49544D01*
X30046Y49532D01*
X29961Y49496D01*
X29893Y49444D01*
X29843Y49455D01*
X29843Y49455D01*
Y49923D01*
X29843Y49923D01*
X29893Y49934D01*
X29961Y49882D01*
X30046Y49846D01*
X30138Y49834D01*
X30230Y49846D01*
X30316Y49882D01*
X30389Y49938D01*
X30446Y50012D01*
X30481Y50097D01*
X30493Y50189D01*
X30481Y50281D01*
X30446Y50366D01*
X30389Y50440D01*
X30316Y50496D01*
X30230Y50532D01*
X30138Y50544D01*
X30046Y50532D01*
X29961Y50496D01*
X29893Y50444D01*
X29843Y50455D01*
X29843Y50455D01*
Y50923D01*
X29843Y50923D01*
X29893Y50934D01*
X29961Y50882D01*
X30046Y50846D01*
X30138Y50834D01*
X30230Y50846D01*
X30316Y50882D01*
X30389Y50938D01*
X30446Y51012D01*
X30481Y51097D01*
X30493Y51189D01*
X30481Y51281D01*
X30446Y51366D01*
X30389Y51440D01*
X30316Y51496D01*
X30230Y51532D01*
X30138Y51544D01*
X30046Y51532D01*
X29961Y51496D01*
X29893Y51444D01*
X29843Y51455D01*
X29843Y51455D01*
Y51914D01*
X29871Y51929D01*
X29893Y51934D01*
X29961Y51882D01*
X30046Y51846D01*
X30138Y51834D01*
X30230Y51846D01*
X30316Y51882D01*
X30389Y51938D01*
X30446Y52011D01*
X30481Y52097D01*
X30493Y52189D01*
X30481Y52281D01*
X30446Y52366D01*
X30389Y52440D01*
X30316Y52496D01*
X30230Y52532D01*
X30138Y52544D01*
X30046Y52532D01*
X29961Y52496D01*
X29887Y52440D01*
X29831Y52366D01*
X29795Y52281D01*
X29783Y52189D01*
X29792Y52127D01*
X29744Y52103D01*
X29197Y52651D01*
X29216Y52697D01*
X30690D01*
X31468Y51919D01*
D02*
G37*
G36*
X28555Y50882D02*
X28640Y50846D01*
X28732Y50834D01*
X28824Y50846D01*
X28897Y50876D01*
X29246Y50528D01*
Y49887D01*
X29196Y49872D01*
X29194Y49875D01*
X29045Y50024D01*
X29075Y50097D01*
X29087Y50189D01*
X29075Y50281D01*
X29040Y50366D01*
X28983Y50440D01*
X28910Y50496D01*
X28824Y50532D01*
X28732Y50544D01*
X28640Y50532D01*
X28555Y50496D01*
X28494Y50450D01*
X28444Y50468D01*
Y50910D01*
X28494Y50928D01*
X28555Y50882D01*
D02*
G37*
G36*
X33397Y53606D02*
X33397Y53606D01*
X33431Y53584D01*
X33438Y53582D01*
X33471Y53576D01*
X33471Y53576D01*
X34615D01*
X34625Y53526D01*
X34555Y53496D01*
X34481Y53440D01*
X34425Y53366D01*
X34389Y53281D01*
X34377Y53189D01*
X34389Y53097D01*
X34425Y53011D01*
X34481Y52938D01*
X34555Y52882D01*
X34640Y52846D01*
X34732Y52834D01*
X34824Y52846D01*
X34910Y52882D01*
X34983Y52938D01*
X35040Y53011D01*
X35075Y53097D01*
X35087Y53189D01*
X35075Y53281D01*
X35040Y53366D01*
X34983Y53440D01*
X34910Y53496D01*
X34839Y53526D01*
X34849Y53576D01*
X35803D01*
X35820Y53526D01*
X35763Y53482D01*
X35695Y53394D01*
X35653Y53291D01*
X35638Y53181D01*
X35653Y53071D01*
X35695Y52969D01*
X35763Y52881D01*
X35851Y52813D01*
X35953Y52771D01*
X36063Y52756D01*
X36173Y52771D01*
X36275Y52813D01*
X36363Y52881D01*
X36431Y52969D01*
X36473Y53071D01*
X36488Y53181D01*
X36473Y53291D01*
X36431Y53394D01*
X36363Y53482D01*
X36306Y53526D01*
X36323Y53576D01*
X36447D01*
X36626Y53397D01*
Y50960D01*
X36626Y50960D01*
X36634Y50920D01*
X36656Y50886D01*
X37040Y50503D01*
X37044Y50479D01*
X37040Y50440D01*
X37016Y50421D01*
X36953Y50339D01*
X36913Y50244D01*
X36900Y50142D01*
X36905Y50103D01*
X36858Y50080D01*
X36804Y50133D01*
Y50240D01*
X36804Y50240D01*
X36798Y50273D01*
X36796Y50280D01*
X36774Y50314D01*
X36774Y50314D01*
X36344Y50744D01*
X36310Y50766D01*
X36297Y50769D01*
X36291Y50780D01*
X36287Y50822D01*
X36363Y50881D01*
X36431Y50969D01*
X36473Y51071D01*
X36488Y51181D01*
X36473Y51291D01*
X36431Y51394D01*
X36363Y51482D01*
X36275Y51549D01*
X36173Y51592D01*
X36063Y51606D01*
X35953Y51592D01*
X35851Y51549D01*
X35763Y51482D01*
X35695Y51394D01*
X35653Y51291D01*
X35638Y51181D01*
X35653Y51071D01*
X35695Y50969D01*
X35763Y50881D01*
X35836Y50824D01*
X35819Y50774D01*
X34576D01*
X34576Y50774D01*
X34543Y50768D01*
X34536Y50766D01*
X34502Y50744D01*
X33758Y50000D01*
X33703Y50023D01*
X33620Y50034D01*
X33537Y50023D01*
X33460Y49991D01*
X33394Y49940D01*
X33364Y49902D01*
X33314Y49919D01*
Y53624D01*
X33361Y53643D01*
X33397Y53606D01*
D02*
G37*
G36*
X35820Y46526D02*
X35763Y46482D01*
X35695Y46394D01*
X35653Y46291D01*
X35638Y46181D01*
X35653Y46071D01*
X35695Y45969D01*
X35763Y45881D01*
X35851Y45813D01*
X35896Y45794D01*
X35886Y45744D01*
X33240D01*
X33200Y45736D01*
X33166Y45714D01*
X32384Y44932D01*
X32334Y44953D01*
Y45417D01*
X32713Y45796D01*
X33410D01*
X33410Y45796D01*
X33450Y45804D01*
X33484Y45826D01*
X33664Y46006D01*
X33664Y46006D01*
X33686Y46040D01*
X33694Y46080D01*
Y46576D01*
X34615D01*
X34625Y46526D01*
X34555Y46496D01*
X34481Y46440D01*
X34425Y46366D01*
X34389Y46281D01*
X34377Y46189D01*
X34389Y46097D01*
X34425Y46012D01*
X34481Y45938D01*
X34555Y45882D01*
X34640Y45846D01*
X34732Y45834D01*
X34824Y45846D01*
X34910Y45882D01*
X34983Y45938D01*
X35040Y46012D01*
X35075Y46097D01*
X35087Y46189D01*
X35075Y46281D01*
X35040Y46366D01*
X34983Y46440D01*
X34910Y46496D01*
X34839Y46526D01*
X34849Y46576D01*
X35803D01*
X35820Y46526D01*
D02*
G37*
G36*
X34541Y45486D02*
X34481Y45440D01*
X34425Y45366D01*
X34395Y45293D01*
X33139D01*
X33139Y45293D01*
X33095Y45335D01*
X33095Y45336D01*
X33094Y45346D01*
X33283Y45536D01*
X34524D01*
X34541Y45486D01*
D02*
G37*
G36*
X27676Y45871D02*
Y45491D01*
X27628Y45475D01*
X27623Y45482D01*
X27535Y45549D01*
X27433Y45592D01*
X27323Y45606D01*
X27213Y45592D01*
X27110Y45549D01*
X27022Y45482D01*
X26955Y45394D01*
X26912Y45291D01*
X26898Y45181D01*
X26912Y45071D01*
X26955Y44969D01*
X27022Y44881D01*
X27110Y44813D01*
X27213Y44771D01*
X27323Y44756D01*
X27433Y44771D01*
X27535Y44813D01*
X27623Y44881D01*
X27628Y44887D01*
X27676Y44871D01*
Y44491D01*
X27628Y44475D01*
X27623Y44482D01*
X27535Y44549D01*
X27433Y44592D01*
X27323Y44606D01*
X27213Y44592D01*
X27110Y44549D01*
X27022Y44482D01*
X26955Y44394D01*
X26912Y44291D01*
X26898Y44181D01*
X26912Y44071D01*
X26955Y43969D01*
X27022Y43881D01*
X27110Y43813D01*
X27213Y43771D01*
X27323Y43756D01*
X27433Y43771D01*
X27535Y43813D01*
X27623Y43881D01*
X27628Y43887D01*
X27676Y43871D01*
Y43491D01*
X27628Y43475D01*
X27623Y43482D01*
X27535Y43549D01*
X27433Y43592D01*
X27323Y43606D01*
X27213Y43592D01*
X27110Y43549D01*
X27022Y43482D01*
X26955Y43394D01*
X26912Y43291D01*
X26898Y43181D01*
X26912Y43071D01*
X26955Y42969D01*
X27022Y42881D01*
X27110Y42813D01*
X27213Y42771D01*
X27323Y42756D01*
X27433Y42771D01*
X27535Y42813D01*
X27623Y42881D01*
X27628Y42887D01*
X27676Y42871D01*
Y42491D01*
X27628Y42475D01*
X27623Y42482D01*
X27535Y42549D01*
X27433Y42592D01*
X27323Y42606D01*
X27213Y42592D01*
X27110Y42549D01*
X27022Y42482D01*
X26955Y42394D01*
X26912Y42291D01*
X26898Y42181D01*
X26912Y42071D01*
X26955Y41969D01*
X27022Y41881D01*
X27110Y41813D01*
X27213Y41771D01*
X27323Y41756D01*
X27433Y41771D01*
X27535Y41813D01*
X27623Y41881D01*
X27628Y41887D01*
X27676Y41871D01*
Y41491D01*
X27628Y41475D01*
X27623Y41482D01*
X27535Y41549D01*
X27433Y41592D01*
X27323Y41606D01*
X27213Y41592D01*
X27110Y41549D01*
X27022Y41482D01*
X26955Y41394D01*
X26912Y41291D01*
X26898Y41181D01*
X26912Y41071D01*
X26955Y40969D01*
X27022Y40881D01*
X27110Y40813D01*
X27213Y40771D01*
X27218Y40770D01*
Y38797D01*
X25615Y37194D01*
X24640D01*
X24640Y37194D01*
X24607Y37188D01*
X24600Y37186D01*
X24581Y37174D01*
X24549Y37212D01*
X26634Y39297D01*
X26656Y39331D01*
X26658Y39337D01*
X26664Y39371D01*
X26664Y39371D01*
Y45375D01*
X27106Y45817D01*
X27110Y45813D01*
X27213Y45771D01*
X27323Y45756D01*
X27433Y45771D01*
X27535Y45813D01*
X27623Y45881D01*
X27628Y45887D01*
X27676Y45871D01*
D02*
G37*
G36*
X37756Y45713D02*
Y43053D01*
X37723Y43020D01*
X37691Y43034D01*
X37678Y43046D01*
X37691Y43142D01*
X37677Y43244D01*
X37638Y43339D01*
X37575Y43421D01*
X37493Y43484D01*
X37398Y43524D01*
X37295Y43537D01*
X37193Y43524D01*
X37100Y43485D01*
X36821Y43764D01*
X36787Y43786D01*
X36747Y43794D01*
X36747Y43794D01*
X36333D01*
X36316Y43844D01*
X36363Y43881D01*
X36431Y43969D01*
X36473Y44071D01*
X36488Y44181D01*
X36473Y44291D01*
X36431Y44394D01*
X36363Y44482D01*
X36275Y44549D01*
X36173Y44592D01*
X36063Y44606D01*
X35953Y44592D01*
X35851Y44549D01*
X35763Y44482D01*
X35695Y44394D01*
X35653Y44291D01*
X35638Y44181D01*
X35653Y44071D01*
X35695Y43969D01*
X35763Y43881D01*
X35810Y43844D01*
X35793Y43794D01*
X34814D01*
X34811Y43844D01*
X34824Y43846D01*
X34910Y43882D01*
X34983Y43938D01*
X35040Y44012D01*
X35075Y44097D01*
X35087Y44189D01*
X35075Y44281D01*
X35040Y44366D01*
X34983Y44440D01*
X34910Y44496D01*
X34824Y44532D01*
X34732Y44544D01*
X34640Y44532D01*
X34555Y44496D01*
X34481Y44440D01*
X34425Y44366D01*
X34389Y44281D01*
X34377Y44189D01*
X34389Y44097D01*
X34425Y44012D01*
X34481Y43938D01*
X34555Y43882D01*
X34640Y43846D01*
X34654Y43844D01*
X34650Y43794D01*
X33923D01*
X33316Y44402D01*
X33339Y44457D01*
X33350Y44540D01*
X33339Y44623D01*
X33307Y44700D01*
X33256Y44766D01*
X33190Y44817D01*
X33113Y44849D01*
X33030Y44860D01*
X33028Y44859D01*
X33004Y44907D01*
X33182Y45085D01*
X34395D01*
X34425Y45012D01*
X34481Y44938D01*
X34555Y44882D01*
X34640Y44846D01*
X34732Y44834D01*
X34824Y44846D01*
X34910Y44882D01*
X34983Y44938D01*
X35040Y45012D01*
X35075Y45097D01*
X35087Y45189D01*
X35075Y45281D01*
X35040Y45366D01*
X34983Y45440D01*
X34924Y45486D01*
X34941Y45536D01*
X35755D01*
X35771Y45488D01*
X35763Y45482D01*
X35695Y45394D01*
X35653Y45291D01*
X35638Y45181D01*
X35653Y45071D01*
X35695Y44969D01*
X35763Y44881D01*
X35851Y44813D01*
X35953Y44771D01*
X36063Y44756D01*
X36173Y44771D01*
X36275Y44813D01*
X36363Y44881D01*
X36431Y44969D01*
X36473Y45071D01*
X36488Y45181D01*
X36473Y45291D01*
X36431Y45394D01*
X36363Y45482D01*
X36355Y45488D01*
X36371Y45536D01*
X37470D01*
X37470Y45536D01*
X37510Y45544D01*
X37544Y45566D01*
X37710Y45732D01*
X37756Y45713D01*
D02*
G37*
G36*
X36656Y46399D02*
X36690Y46377D01*
X36730Y46369D01*
X36918D01*
X36949Y46331D01*
X36913Y46244D01*
X36900Y46142D01*
X36913Y46039D01*
X36953Y45944D01*
X37016Y45862D01*
X37098Y45799D01*
X37110Y45794D01*
X37100Y45744D01*
X36240D01*
X36230Y45794D01*
X36275Y45813D01*
X36363Y45881D01*
X36431Y45969D01*
X36473Y46071D01*
X36488Y46181D01*
X36473Y46291D01*
X36431Y46394D01*
X36363Y46482D01*
X36306Y46526D01*
X36323Y46576D01*
X36480D01*
X36656Y46399D01*
D02*
G37*
%LPC*%
G36*
X32338Y53544D02*
X32246Y53532D01*
X32161Y53496D01*
X32087Y53440D01*
X32031Y53366D01*
X31995Y53281D01*
X31983Y53189D01*
X31995Y53097D01*
X32031Y53011D01*
X32087Y52938D01*
X32161Y52882D01*
X32246Y52846D01*
X32338Y52834D01*
X32430Y52846D01*
X32516Y52882D01*
X32589Y52938D01*
X32646Y53011D01*
X32681Y53097D01*
X32693Y53189D01*
X32681Y53281D01*
X32646Y53366D01*
X32589Y53440D01*
X32516Y53496D01*
X32430Y53532D01*
X32338Y53544D01*
D02*
G37*
G36*
X34504Y26181D02*
X34394Y26166D01*
X34291Y26124D01*
X34203Y26056D01*
X34136Y25968D01*
X34094Y25866D01*
X34079Y25756D01*
X34094Y25646D01*
X34136Y25543D01*
X34203Y25455D01*
X34291Y25388D01*
X34394Y25345D01*
X34504Y25331D01*
X34614Y25345D01*
X34716Y25388D01*
X34804Y25455D01*
X34872Y25543D01*
X34914Y25646D01*
X34929Y25756D01*
X34914Y25866D01*
X34872Y25968D01*
X34804Y26056D01*
X34716Y26124D01*
X34614Y26166D01*
X34504Y26181D01*
D02*
G37*
G36*
X33504D02*
X33394Y26166D01*
X33291Y26124D01*
X33203Y26056D01*
X33136Y25968D01*
X33094Y25866D01*
X33079Y25756D01*
X33094Y25646D01*
X33136Y25543D01*
X33203Y25455D01*
X33291Y25388D01*
X33394Y25345D01*
X33504Y25331D01*
X33614Y25345D01*
X33716Y25388D01*
X33804Y25455D01*
X33872Y25543D01*
X33914Y25646D01*
X33929Y25756D01*
X33914Y25866D01*
X33872Y25968D01*
X33804Y26056D01*
X33716Y26124D01*
X33614Y26166D01*
X33504Y26181D01*
D02*
G37*
G36*
X20787Y32386D02*
X20692Y32373D01*
X20602Y32336D01*
X20526Y32277D01*
X20467Y32201D01*
X20430Y32112D01*
X20417Y32016D01*
X20430Y31920D01*
X20467Y31831D01*
X20526Y31754D01*
X20602Y31695D01*
X20692Y31658D01*
X20787Y31646D01*
X20883Y31658D01*
X20972Y31695D01*
X21049Y31754D01*
X21108Y31831D01*
X21145Y31920D01*
X21157Y32016D01*
X21145Y32112D01*
X21108Y32201D01*
X21049Y32277D01*
X20972Y32336D01*
X20883Y32373D01*
X20787Y32386D01*
D02*
G37*
G36*
X21787D02*
X21692Y32373D01*
X21602Y32336D01*
X21526Y32277D01*
X21467Y32201D01*
X21430Y32112D01*
X21417Y32016D01*
X21430Y31920D01*
X21467Y31831D01*
X21526Y31754D01*
X21602Y31695D01*
X21692Y31658D01*
X21787Y31646D01*
X21883Y31658D01*
X21972Y31695D01*
X22049Y31754D01*
X22108Y31831D01*
X22145Y31920D01*
X22157Y32016D01*
X22145Y32112D01*
X22108Y32201D01*
X22049Y32277D01*
X21972Y32336D01*
X21883Y32373D01*
X21787Y32386D01*
D02*
G37*
G36*
X29738Y44544D02*
X29646Y44532D01*
X29561Y44496D01*
X29487Y44440D01*
X29431Y44366D01*
X29395Y44281D01*
X29383Y44189D01*
X29395Y44097D01*
X29431Y44012D01*
X29487Y43938D01*
X29561Y43882D01*
X29646Y43846D01*
X29738Y43834D01*
X29830Y43846D01*
X29916Y43882D01*
X29989Y43938D01*
X30046Y44012D01*
X30081Y44097D01*
X30093Y44189D01*
X30081Y44281D01*
X30046Y44366D01*
X29989Y44440D01*
X29916Y44496D01*
X29830Y44532D01*
X29738Y44544D01*
D02*
G37*
G36*
X27323Y53606D02*
X27213Y53592D01*
X27110Y53549D01*
X27022Y53482D01*
X26955Y53394D01*
X26912Y53291D01*
X26898Y53181D01*
X26912Y53071D01*
X26955Y52969D01*
X27022Y52881D01*
X27110Y52813D01*
X27213Y52771D01*
X27323Y52756D01*
X27433Y52771D01*
X27535Y52813D01*
X27623Y52881D01*
X27691Y52969D01*
X27733Y53071D01*
X27748Y53181D01*
X27733Y53291D01*
X27691Y53394D01*
X27623Y53482D01*
X27535Y53549D01*
X27433Y53592D01*
X27323Y53606D01*
D02*
G37*
G36*
X11228Y44512D02*
X11133Y44499D01*
X11043Y44462D01*
X10967Y44403D01*
X10908Y44327D01*
X10871Y44238D01*
X10858Y44142D01*
X10871Y44046D01*
X10908Y43957D01*
X10967Y43880D01*
X11043Y43821D01*
X11133Y43784D01*
X11228Y43772D01*
X11324Y43784D01*
X11413Y43821D01*
X11490Y43880D01*
X11549Y43957D01*
X11586Y44046D01*
X11598Y44142D01*
X11586Y44238D01*
X11549Y44327D01*
X11490Y44403D01*
X11413Y44462D01*
X11324Y44499D01*
X11228Y44512D01*
D02*
G37*
G36*
X36063Y52606D02*
X35953Y52592D01*
X35851Y52549D01*
X35763Y52482D01*
X35695Y52394D01*
X35653Y52291D01*
X35638Y52181D01*
X35653Y52071D01*
X35695Y51969D01*
X35763Y51881D01*
X35851Y51813D01*
X35953Y51771D01*
X36063Y51756D01*
X36173Y51771D01*
X36275Y51813D01*
X36363Y51881D01*
X36431Y51969D01*
X36473Y52071D01*
X36488Y52181D01*
X36473Y52291D01*
X36431Y52394D01*
X36363Y52482D01*
X36275Y52549D01*
X36173Y52592D01*
X36063Y52606D01*
D02*
G37*
G36*
X41327Y35835D02*
X40957D01*
Y35346D01*
X41037D01*
Y34024D01*
X40925Y33911D01*
X40844Y33944D01*
X40748Y33957D01*
X40652Y33944D01*
X40563Y33907D01*
X40486Y33848D01*
X40428Y33772D01*
X40391Y33682D01*
X40378Y33587D01*
X40391Y33491D01*
X40428Y33402D01*
X40486Y33325D01*
X40563Y33266D01*
X40652Y33229D01*
X40748Y33217D01*
X40844Y33229D01*
X40933Y33266D01*
X41010Y33325D01*
X41069Y33402D01*
X41106Y33491D01*
X41118Y33587D01*
X41106Y33682D01*
X41072Y33763D01*
X41216Y33907D01*
X41238Y33940D01*
X41239Y33947D01*
X41246Y33980D01*
X41246Y33980D01*
Y35346D01*
X41327D01*
Y35835D01*
D02*
G37*
G36*
X22787Y55606D02*
X22692Y55594D01*
X22602Y55557D01*
X22526Y55498D01*
X22467Y55421D01*
X22430Y55332D01*
X22417Y55236D01*
X22430Y55140D01*
X22467Y55051D01*
X22526Y54975D01*
X22602Y54916D01*
X22692Y54879D01*
X22787Y54866D01*
X22883Y54879D01*
X22972Y54916D01*
X23049Y54975D01*
X23108Y55051D01*
X23145Y55140D01*
X23157Y55236D01*
X23145Y55332D01*
X23108Y55421D01*
X23049Y55498D01*
X22972Y55557D01*
X22883Y55594D01*
X22787Y55606D01*
D02*
G37*
G36*
X34732Y52544D02*
X34640Y52532D01*
X34555Y52496D01*
X34481Y52440D01*
X34425Y52366D01*
X34389Y52281D01*
X34377Y52189D01*
X34389Y52097D01*
X34425Y52011D01*
X34481Y51938D01*
X34555Y51882D01*
X34640Y51846D01*
X34732Y51834D01*
X34824Y51846D01*
X34910Y51882D01*
X34983Y51938D01*
X35040Y52011D01*
X35075Y52097D01*
X35087Y52189D01*
X35075Y52281D01*
X35040Y52366D01*
X34983Y52440D01*
X34910Y52496D01*
X34824Y52532D01*
X34732Y52544D01*
D02*
G37*
G36*
X32338D02*
X32246Y52532D01*
X32161Y52496D01*
X32087Y52440D01*
X32031Y52366D01*
X31995Y52281D01*
X31983Y52189D01*
X31995Y52097D01*
X32031Y52011D01*
X32087Y51938D01*
X32161Y51882D01*
X32246Y51846D01*
X32338Y51834D01*
X32430Y51846D01*
X32516Y51882D01*
X32589Y51938D01*
X32646Y52011D01*
X32681Y52097D01*
X32693Y52189D01*
X32681Y52281D01*
X32646Y52366D01*
X32589Y52440D01*
X32516Y52496D01*
X32430Y52532D01*
X32338Y52544D01*
D02*
G37*
G36*
X27323Y54606D02*
X27213Y54592D01*
X27110Y54549D01*
X27022Y54482D01*
X26955Y54394D01*
X26912Y54291D01*
X26898Y54181D01*
X26912Y54071D01*
X26955Y53969D01*
X27022Y53881D01*
X27110Y53813D01*
X27213Y53771D01*
X27323Y53756D01*
X27433Y53771D01*
X27535Y53813D01*
X27623Y53881D01*
X27691Y53969D01*
X27733Y54071D01*
X27748Y54181D01*
X27733Y54291D01*
X27691Y54394D01*
X27623Y54482D01*
X27535Y54549D01*
X27433Y54592D01*
X27323Y54606D01*
D02*
G37*
G36*
X33504Y28181D02*
X33394Y28166D01*
X33291Y28124D01*
X33203Y28056D01*
X33136Y27968D01*
X33094Y27866D01*
X33079Y27756D01*
X33094Y27646D01*
X33136Y27543D01*
X33203Y27455D01*
X33291Y27388D01*
X33394Y27345D01*
X33504Y27331D01*
X33614Y27345D01*
X33716Y27388D01*
X33804Y27455D01*
X33872Y27543D01*
X33914Y27646D01*
X33929Y27756D01*
X33914Y27866D01*
X33872Y27968D01*
X33804Y28056D01*
X33716Y28124D01*
X33614Y28166D01*
X33504Y28181D01*
D02*
G37*
G36*
X34504D02*
X34394Y28166D01*
X34291Y28124D01*
X34203Y28056D01*
X34136Y27968D01*
X34094Y27866D01*
X34079Y27756D01*
X34094Y27646D01*
X34136Y27543D01*
X34203Y27455D01*
X34291Y27388D01*
X34394Y27345D01*
X34504Y27331D01*
X34614Y27345D01*
X34716Y27388D01*
X34804Y27455D01*
X34872Y27543D01*
X34914Y27646D01*
X34929Y27756D01*
X34914Y27866D01*
X34872Y27968D01*
X34804Y28056D01*
X34716Y28124D01*
X34614Y28166D01*
X34504Y28181D01*
D02*
G37*
G36*
X16787Y55808D02*
X16639Y55789D01*
X16501Y55731D01*
X16383Y55641D01*
X16292Y55522D01*
X16235Y55384D01*
X16216Y55236D01*
X16235Y55088D01*
X16292Y54950D01*
X16383Y54832D01*
X16501Y54741D01*
X16639Y54684D01*
X16787Y54664D01*
X16935Y54684D01*
X17073Y54741D01*
X17192Y54832D01*
X17283Y54950D01*
X17340Y55088D01*
X17359Y55236D01*
X17340Y55384D01*
X17283Y55522D01*
X17192Y55641D01*
X17073Y55731D01*
X16935Y55789D01*
X16787Y55808D01*
D02*
G37*
G36*
X25787D02*
X25639Y55789D01*
X25501Y55731D01*
X25383Y55641D01*
X25292Y55522D01*
X25235Y55384D01*
X25216Y55236D01*
X25235Y55088D01*
X25292Y54950D01*
X25383Y54832D01*
X25501Y54741D01*
X25639Y54684D01*
X25787Y54664D01*
X25935Y54684D01*
X26073Y54741D01*
X26192Y54832D01*
X26283Y54950D01*
X26340Y55088D01*
X26359Y55236D01*
X26340Y55384D01*
X26283Y55522D01*
X26192Y55641D01*
X26073Y55731D01*
X25935Y55789D01*
X25787Y55808D01*
D02*
G37*
G36*
X33504Y27181D02*
X33394Y27166D01*
X33291Y27124D01*
X33203Y27056D01*
X33136Y26968D01*
X33094Y26866D01*
X33079Y26756D01*
X33094Y26646D01*
X33136Y26543D01*
X33203Y26455D01*
X33291Y26388D01*
X33394Y26345D01*
X33504Y26331D01*
X33614Y26345D01*
X33716Y26388D01*
X33804Y26455D01*
X33872Y26543D01*
X33914Y26646D01*
X33929Y26756D01*
X33914Y26866D01*
X33872Y26968D01*
X33804Y27056D01*
X33716Y27124D01*
X33614Y27166D01*
X33504Y27181D01*
D02*
G37*
G36*
X34504D02*
X34394Y27166D01*
X34291Y27124D01*
X34203Y27056D01*
X34136Y26968D01*
X34094Y26866D01*
X34079Y26756D01*
X34094Y26646D01*
X34136Y26543D01*
X34203Y26455D01*
X34291Y26388D01*
X34394Y26345D01*
X34504Y26331D01*
X34614Y26345D01*
X34716Y26388D01*
X34804Y26455D01*
X34872Y26543D01*
X34914Y26646D01*
X34929Y26756D01*
X34914Y26866D01*
X34872Y26968D01*
X34804Y27056D01*
X34716Y27124D01*
X34614Y27166D01*
X34504Y27181D01*
D02*
G37*
G36*
X37795Y27236D02*
X37628Y27220D01*
X37467Y27171D01*
X37318Y27092D01*
X37188Y26985D01*
X37081Y26855D01*
X37002Y26706D01*
X36953Y26545D01*
X36937Y26378D01*
X36953Y26210D01*
X37002Y26049D01*
X37081Y25901D01*
X37188Y25771D01*
X37318Y25664D01*
X37467Y25585D01*
X37628Y25536D01*
X37795Y25519D01*
X37963Y25536D01*
X38124Y25585D01*
X38272Y25664D01*
X38402Y25771D01*
X38509Y25901D01*
X38588Y26049D01*
X38637Y26210D01*
X38654Y26378D01*
X38637Y26545D01*
X38588Y26706D01*
X38509Y26855D01*
X38402Y26985D01*
X38272Y27092D01*
X38124Y27171D01*
X37963Y27220D01*
X37795Y27236D01*
D02*
G37*
G36*
X12598D02*
X12431Y27220D01*
X12270Y27171D01*
X12121Y27092D01*
X11991Y26985D01*
X11885Y26855D01*
X11805Y26706D01*
X11756Y26545D01*
X11740Y26378D01*
X11756Y26210D01*
X11805Y26049D01*
X11885Y25901D01*
X11991Y25771D01*
X12121Y25664D01*
X12270Y25585D01*
X12431Y25536D01*
X12598Y25519D01*
X12766Y25536D01*
X12927Y25585D01*
X13075Y25664D01*
X13205Y25771D01*
X13312Y25901D01*
X13392Y26049D01*
X13440Y26210D01*
X13457Y26378D01*
X13440Y26545D01*
X13392Y26706D01*
X13312Y26855D01*
X13205Y26985D01*
X13075Y27092D01*
X12927Y27171D01*
X12766Y27220D01*
X12598Y27236D01*
D02*
G37*
G36*
X28787Y31386D02*
X28692Y31373D01*
X28602Y31336D01*
X28526Y31277D01*
X28467Y31201D01*
X28430Y31112D01*
X28417Y31016D01*
X28430Y30920D01*
X28467Y30831D01*
X28526Y30754D01*
X28602Y30695D01*
X28692Y30658D01*
X28787Y30646D01*
X28883Y30658D01*
X28972Y30695D01*
X29049Y30754D01*
X29108Y30831D01*
X29145Y30920D01*
X29157Y31016D01*
X29145Y31112D01*
X29108Y31201D01*
X29049Y31277D01*
X28972Y31336D01*
X28883Y31373D01*
X28787Y31386D01*
D02*
G37*
G36*
X28732Y54544D02*
X28640Y54532D01*
X28555Y54496D01*
X28481Y54440D01*
X28425Y54366D01*
X28389Y54281D01*
X28377Y54189D01*
X28389Y54097D01*
X28425Y54012D01*
X28481Y53938D01*
X28555Y53882D01*
X28640Y53846D01*
X28732Y53834D01*
X28824Y53846D01*
X28910Y53882D01*
X28983Y53938D01*
X29040Y54012D01*
X29075Y54097D01*
X29087Y54189D01*
X29075Y54281D01*
X29040Y54366D01*
X28983Y54440D01*
X28910Y54496D01*
X28824Y54532D01*
X28732Y54544D01*
D02*
G37*
G36*
X34732D02*
X34640Y54532D01*
X34555Y54496D01*
X34481Y54440D01*
X34425Y54366D01*
X34389Y54281D01*
X34377Y54189D01*
X34389Y54097D01*
X34425Y54012D01*
X34481Y53938D01*
X34555Y53882D01*
X34640Y53846D01*
X34732Y53834D01*
X34824Y53846D01*
X34910Y53882D01*
X34983Y53938D01*
X35040Y54012D01*
X35075Y54097D01*
X35087Y54189D01*
X35075Y54281D01*
X35040Y54366D01*
X34983Y54440D01*
X34910Y54496D01*
X34824Y54532D01*
X34732Y54544D01*
D02*
G37*
G36*
X30131Y56018D02*
X29397D01*
Y55084D01*
X29659D01*
Y54916D01*
X29642Y54890D01*
X29634Y54850D01*
X29634Y54850D01*
Y54527D01*
X29561Y54496D01*
X29487Y54440D01*
X29431Y54366D01*
X29395Y54281D01*
X29383Y54189D01*
X29395Y54097D01*
X29431Y54012D01*
X29487Y53938D01*
X29561Y53882D01*
X29646Y53846D01*
X29738Y53834D01*
X29830Y53846D01*
X29916Y53882D01*
X29989Y53938D01*
X30046Y54012D01*
X30081Y54097D01*
X30093Y54189D01*
X30081Y54281D01*
X30046Y54366D01*
X29989Y54440D01*
X29916Y54496D01*
X29843Y54527D01*
Y54809D01*
X29860Y54836D01*
X29862Y54842D01*
X29868Y54875D01*
X29868Y54875D01*
Y55084D01*
X30131D01*
Y56018D01*
D02*
G37*
G36*
X27787Y31386D02*
X27692Y31373D01*
X27602Y31336D01*
X27526Y31277D01*
X27467Y31201D01*
X27430Y31112D01*
X27417Y31016D01*
X27430Y30920D01*
X27467Y30831D01*
X27526Y30754D01*
X27602Y30695D01*
X27692Y30658D01*
X27787Y30646D01*
X27883Y30658D01*
X27972Y30695D01*
X28049Y30754D01*
X28108Y30831D01*
X28145Y30920D01*
X28157Y31016D01*
X28145Y31112D01*
X28108Y31201D01*
X28049Y31277D01*
X27972Y31336D01*
X27883Y31373D01*
X27787Y31386D01*
D02*
G37*
G36*
X27323Y52606D02*
X27213Y52592D01*
X27110Y52549D01*
X27022Y52482D01*
X26955Y52394D01*
X26912Y52291D01*
X26898Y52181D01*
X26912Y52071D01*
X26955Y51969D01*
X27022Y51881D01*
X27110Y51813D01*
X27213Y51771D01*
X27323Y51756D01*
X27433Y51771D01*
X27535Y51813D01*
X27623Y51881D01*
X27691Y51969D01*
X27733Y52071D01*
X27748Y52181D01*
X27733Y52291D01*
X27691Y52394D01*
X27623Y52482D01*
X27535Y52549D01*
X27433Y52592D01*
X27323Y52606D01*
D02*
G37*
G36*
X25669Y40910D02*
X25521Y40891D01*
X25383Y40834D01*
X25265Y40743D01*
X25174Y40624D01*
X25117Y40487D01*
X25097Y40339D01*
X25117Y40191D01*
X25174Y40053D01*
X25265Y39934D01*
X25383Y39843D01*
X25521Y39786D01*
X25669Y39767D01*
X25817Y39786D01*
X25955Y39843D01*
X26074Y39934D01*
X26165Y40053D01*
X26222Y40191D01*
X26241Y40339D01*
X26222Y40487D01*
X26165Y40624D01*
X26074Y40743D01*
X25955Y40834D01*
X25817Y40891D01*
X25669Y40910D01*
D02*
G37*
G36*
X19669Y40709D02*
X19574Y40696D01*
X19484Y40659D01*
X19408Y40600D01*
X19349Y40524D01*
X19312Y40434D01*
X19299Y40339D01*
X19312Y40243D01*
X19349Y40154D01*
X19408Y40077D01*
X19484Y40018D01*
X19574Y39981D01*
X19669Y39968D01*
X19765Y39981D01*
X19854Y40018D01*
X19931Y40077D01*
X19990Y40154D01*
X20027Y40243D01*
X20039Y40339D01*
X20027Y40434D01*
X19990Y40524D01*
X19931Y40600D01*
X19854Y40659D01*
X19765Y40696D01*
X19669Y40709D01*
D02*
G37*
G36*
X21669D02*
X21574Y40696D01*
X21484Y40659D01*
X21408Y40600D01*
X21349Y40524D01*
X21312Y40434D01*
X21299Y40339D01*
X21312Y40243D01*
X21349Y40154D01*
X21408Y40077D01*
X21484Y40018D01*
X21574Y39981D01*
X21669Y39968D01*
X21765Y39981D01*
X21854Y40018D01*
X21931Y40077D01*
X21990Y40154D01*
X22027Y40243D01*
X22039Y40339D01*
X22027Y40434D01*
X21990Y40524D01*
X21931Y40600D01*
X21854Y40659D01*
X21765Y40696D01*
X21669Y40709D01*
D02*
G37*
G36*
X10228Y43512D02*
X10133Y43499D01*
X10043Y43462D01*
X9967Y43403D01*
X9908Y43327D01*
X9871Y43238D01*
X9858Y43142D01*
X9871Y43046D01*
X9908Y42957D01*
X9967Y42880D01*
X10043Y42821D01*
X10133Y42784D01*
X10228Y42772D01*
X10324Y42784D01*
X10413Y42821D01*
X10490Y42880D01*
X10549Y42957D01*
X10586Y43046D01*
X10598Y43142D01*
X10586Y43238D01*
X10549Y43327D01*
X10490Y43403D01*
X10413Y43462D01*
X10324Y43499D01*
X10228Y43512D01*
D02*
G37*
G36*
X10536Y48280D02*
X9802D01*
Y47546D01*
X10536D01*
Y48280D01*
D02*
G37*
G36*
X11228Y43512D02*
X11133Y43499D01*
X11043Y43462D01*
X10967Y43403D01*
X10908Y43327D01*
X10871Y43238D01*
X10858Y43142D01*
X10871Y43046D01*
X10908Y42957D01*
X10967Y42880D01*
X11043Y42821D01*
X11133Y42784D01*
X11228Y42772D01*
X11324Y42784D01*
X11413Y42821D01*
X11490Y42880D01*
X11549Y42957D01*
X11586Y43046D01*
X11598Y43142D01*
X11586Y43238D01*
X11549Y43327D01*
X11490Y43403D01*
X11413Y43462D01*
X11324Y43499D01*
X11228Y43512D01*
D02*
G37*
G36*
X33780Y49260D02*
X33697Y49249D01*
X33620Y49217D01*
X33554Y49166D01*
X33503Y49100D01*
X33471Y49023D01*
X33460Y48940D01*
X33471Y48857D01*
X33503Y48780D01*
X33554Y48714D01*
X33620Y48663D01*
X33676Y48640D01*
Y48141D01*
X33676Y48141D01*
X33684Y48101D01*
X33706Y48067D01*
X34420Y47354D01*
X34389Y47281D01*
X34377Y47189D01*
X34389Y47097D01*
X34425Y47011D01*
X34481Y46938D01*
X34555Y46882D01*
X34640Y46846D01*
X34732Y46834D01*
X34824Y46846D01*
X34910Y46882D01*
X34983Y46938D01*
X35040Y47011D01*
X35075Y47097D01*
X35087Y47189D01*
X35075Y47281D01*
X35040Y47366D01*
X34983Y47440D01*
X34910Y47496D01*
X34824Y47532D01*
X34732Y47544D01*
X34640Y47532D01*
X34567Y47502D01*
X33884Y48184D01*
Y48640D01*
X33940Y48663D01*
X34006Y48714D01*
X34057Y48780D01*
X34089Y48857D01*
X34100Y48940D01*
X34089Y49023D01*
X34057Y49100D01*
X34006Y49166D01*
X33940Y49217D01*
X33863Y49249D01*
X33780Y49260D01*
D02*
G37*
G36*
X23787Y55606D02*
X23692Y55594D01*
X23602Y55557D01*
X23526Y55498D01*
X23467Y55421D01*
X23430Y55332D01*
X23417Y55236D01*
X23430Y55140D01*
X23467Y55051D01*
X23526Y54975D01*
X23602Y54916D01*
X23683Y54882D01*
Y50881D01*
X23595Y50794D01*
X23573Y50760D01*
X23565Y50720D01*
X23565Y50720D01*
Y46693D01*
X23484Y46659D01*
X23408Y46600D01*
X23349Y46524D01*
X23312Y46434D01*
X23299Y46339D01*
X23312Y46243D01*
X23349Y46154D01*
X23408Y46077D01*
X23484Y46018D01*
X23574Y45981D01*
X23669Y45968D01*
X23765Y45981D01*
X23854Y46018D01*
X23931Y46077D01*
X23990Y46154D01*
X24027Y46243D01*
X24039Y46339D01*
X24027Y46434D01*
X23990Y46524D01*
X23931Y46600D01*
X23854Y46659D01*
X23774Y46693D01*
Y50677D01*
X23861Y50764D01*
X23861Y50764D01*
X23884Y50798D01*
X23885Y50805D01*
X23892Y50838D01*
X23892Y50838D01*
Y54882D01*
X23972Y54916D01*
X24049Y54975D01*
X24108Y55051D01*
X24145Y55140D01*
X24157Y55236D01*
X24145Y55332D01*
X24108Y55421D01*
X24049Y55498D01*
X23972Y55557D01*
X23883Y55594D01*
X23787Y55606D01*
D02*
G37*
G36*
X22669Y46709D02*
X22574Y46696D01*
X22484Y46659D01*
X22408Y46600D01*
X22349Y46524D01*
X22312Y46434D01*
X22299Y46339D01*
X22312Y46243D01*
X22349Y46154D01*
X22408Y46077D01*
X22484Y46018D01*
X22574Y45981D01*
X22669Y45968D01*
X22765Y45981D01*
X22854Y46018D01*
X22931Y46077D01*
X22990Y46154D01*
X23027Y46243D01*
X23039Y46339D01*
X23027Y46434D01*
X22990Y46524D01*
X22931Y46600D01*
X22854Y46659D01*
X22765Y46696D01*
X22669Y46709D01*
D02*
G37*
G36*
X40815Y48283D02*
X40719Y48271D01*
X40630Y48234D01*
X40553Y48175D01*
X40494Y48098D01*
X40457Y48009D01*
X40445Y47913D01*
X40457Y47818D01*
X40494Y47728D01*
X40553Y47652D01*
X40630Y47593D01*
X40711Y47559D01*
Y46453D01*
X40216Y45958D01*
X40135Y45991D01*
X40039Y46004D01*
X39944Y45991D01*
X39854Y45954D01*
X39784Y45901D01*
X39734Y45913D01*
Y47382D01*
X39889Y47536D01*
X39896Y47546D01*
X40182D01*
Y48280D01*
X39448D01*
Y47546D01*
X39538D01*
X39550Y47518D01*
X39555Y47496D01*
X39534Y47465D01*
X39526Y47425D01*
X39526Y47425D01*
Y43890D01*
X39526Y43890D01*
X39534Y43850D01*
X39556Y43816D01*
X41546Y41827D01*
Y40330D01*
X41546Y40330D01*
X41554Y40290D01*
X41576Y40257D01*
X42153Y39680D01*
Y39094D01*
X42739D01*
X42946Y38887D01*
Y36874D01*
X42896Y36857D01*
X42860Y36903D01*
X42783Y36962D01*
X42694Y36999D01*
X42598Y37012D01*
X42503Y36999D01*
X42413Y36962D01*
X42337Y36903D01*
X42278Y36827D01*
X42244Y36746D01*
X41150D01*
X41110Y36738D01*
X41076Y36716D01*
X40864Y36504D01*
X40583D01*
Y36016D01*
X40953D01*
Y36297D01*
X41193Y36537D01*
X42244D01*
X42278Y36457D01*
X42337Y36380D01*
X42413Y36321D01*
X42503Y36284D01*
X42598Y36272D01*
X42694Y36284D01*
X42783Y36321D01*
X42860Y36380D01*
X42896Y36426D01*
X42946Y36409D01*
Y36137D01*
X42818Y36009D01*
X42231D01*
Y35275D01*
X42965D01*
Y35861D01*
X43039Y35935D01*
X43086Y35916D01*
Y35313D01*
X40857Y33084D01*
X40383D01*
X40124Y33343D01*
Y35680D01*
X40116Y35720D01*
X40094Y35754D01*
X40094Y35754D01*
X39934Y35914D01*
X39900Y35936D01*
X39860Y35944D01*
X39860Y35944D01*
X39415D01*
X39378Y35976D01*
X39378D01*
Y36465D01*
X39008D01*
Y35976D01*
X39093D01*
X39097Y35960D01*
X39119Y35926D01*
X39279Y35766D01*
X39279Y35766D01*
X39313Y35744D01*
X39353Y35736D01*
X39382D01*
Y35307D01*
X39463D01*
Y34024D01*
X39350Y33911D01*
X39269Y33944D01*
X39173Y33957D01*
X39077Y33944D01*
X38988Y33907D01*
X38912Y33848D01*
X38853Y33772D01*
X38816Y33682D01*
X38803Y33587D01*
X38816Y33491D01*
X38853Y33402D01*
X38912Y33325D01*
X38988Y33266D01*
X39077Y33229D01*
X39173Y33217D01*
X39269Y33229D01*
X39358Y33266D01*
X39435Y33325D01*
X39494Y33402D01*
X39531Y33491D01*
X39543Y33587D01*
X39531Y33682D01*
X39497Y33763D01*
X39641Y33907D01*
X39663Y33940D01*
X39665Y33947D01*
X39671Y33980D01*
X39671Y33980D01*
Y35307D01*
X39752D01*
Y35736D01*
X39817D01*
X39916Y35637D01*
Y33300D01*
X39916Y33300D01*
X39924Y33260D01*
X39946Y33226D01*
X40266Y32906D01*
X40266Y32906D01*
X40300Y32884D01*
X40340Y32876D01*
X40900D01*
X40900Y32876D01*
X40940Y32884D01*
X40974Y32906D01*
X43264Y35196D01*
X43286Y35230D01*
X43294Y35270D01*
X43294Y35270D01*
Y39790D01*
X43294Y39790D01*
X43288Y39824D01*
X43286Y39830D01*
X43264Y39864D01*
X43264Y39864D01*
X42844Y40284D01*
X42877Y40365D01*
X42890Y40461D01*
X42877Y40556D01*
X42840Y40646D01*
X42781Y40722D01*
X42705Y40781D01*
X42615Y40818D01*
X42520Y40831D01*
X42424Y40818D01*
X42335Y40781D01*
X42258Y40722D01*
X42199Y40646D01*
X42162Y40556D01*
X42150Y40461D01*
X42162Y40365D01*
X42199Y40276D01*
X42258Y40199D01*
X42335Y40140D01*
X42424Y40103D01*
X42520Y40091D01*
X42615Y40103D01*
X42696Y40137D01*
X43086Y39747D01*
Y39108D01*
X43039Y39088D01*
X42887Y39241D01*
Y39828D01*
X42300D01*
X41754Y40374D01*
Y41870D01*
X41746Y41910D01*
X41724Y41944D01*
X41724Y41944D01*
X39734Y43933D01*
Y45355D01*
X39784Y45367D01*
X39854Y45313D01*
X39944Y45276D01*
X40039Y45264D01*
X40135Y45276D01*
X40224Y45313D01*
X40301Y45372D01*
X40360Y45449D01*
X40397Y45538D01*
X40409Y45634D01*
X40397Y45730D01*
X40363Y45810D01*
X40889Y46336D01*
X40889Y46336D01*
X40911Y46370D01*
X40913Y46376D01*
X40919Y46409D01*
X40919Y46409D01*
Y47559D01*
X41000Y47593D01*
X41077Y47652D01*
X41135Y47728D01*
X41172Y47818D01*
X41185Y47913D01*
X41172Y48009D01*
X41135Y48098D01*
X41077Y48175D01*
X41000Y48234D01*
X40911Y48271D01*
X40815Y48283D01*
D02*
G37*
G36*
X29738Y42544D02*
X29646Y42532D01*
X29561Y42496D01*
X29487Y42440D01*
X29431Y42366D01*
X29395Y42281D01*
X29383Y42189D01*
X29395Y42097D01*
X29431Y42011D01*
X29487Y41938D01*
X29561Y41882D01*
X29646Y41846D01*
X29738Y41834D01*
X29830Y41846D01*
X29916Y41882D01*
X29989Y41938D01*
X30046Y42011D01*
X30081Y42097D01*
X30093Y42189D01*
X30081Y42281D01*
X30046Y42366D01*
X29989Y42440D01*
X29916Y42496D01*
X29830Y42532D01*
X29738Y42544D01*
D02*
G37*
G36*
X22669Y40709D02*
X22574Y40696D01*
X22484Y40659D01*
X22408Y40600D01*
X22349Y40524D01*
X22312Y40434D01*
X22299Y40339D01*
X22312Y40243D01*
X22349Y40154D01*
X22408Y40077D01*
X22484Y40018D01*
X22574Y39981D01*
X22669Y39968D01*
X22765Y39981D01*
X22854Y40018D01*
X22931Y40077D01*
X22990Y40154D01*
X23027Y40243D01*
X23039Y40339D01*
X23027Y40434D01*
X22990Y40524D01*
X22931Y40600D01*
X22854Y40659D01*
X22765Y40696D01*
X22669Y40709D01*
D02*
G37*
G36*
X10228Y42512D02*
X10133Y42499D01*
X10043Y42462D01*
X9967Y42403D01*
X9908Y42327D01*
X9871Y42238D01*
X9858Y42142D01*
X9871Y42046D01*
X9908Y41957D01*
X9967Y41880D01*
X10043Y41821D01*
X10133Y41784D01*
X10228Y41772D01*
X10324Y41784D01*
X10413Y41821D01*
X10490Y41880D01*
X10549Y41957D01*
X10586Y42046D01*
X10598Y42142D01*
X10586Y42238D01*
X10549Y42327D01*
X10490Y42403D01*
X10413Y42462D01*
X10324Y42499D01*
X10228Y42512D01*
D02*
G37*
G36*
X11228D02*
X11133Y42499D01*
X11043Y42462D01*
X10967Y42403D01*
X10908Y42327D01*
X10871Y42238D01*
X10858Y42142D01*
X10871Y42046D01*
X10908Y41957D01*
X10967Y41880D01*
X11043Y41821D01*
X11133Y41784D01*
X11228Y41772D01*
X11324Y41784D01*
X11413Y41821D01*
X11490Y41880D01*
X11549Y41957D01*
X11586Y42046D01*
X11598Y42142D01*
X11586Y42238D01*
X11549Y42327D01*
X11490Y42403D01*
X11413Y42462D01*
X11324Y42499D01*
X11228Y42512D01*
D02*
G37*
G36*
X27323Y51606D02*
X27213Y51592D01*
X27110Y51549D01*
X27022Y51482D01*
X26955Y51394D01*
X26912Y51291D01*
X26898Y51181D01*
X26912Y51071D01*
X26955Y50969D01*
X27022Y50881D01*
X27110Y50813D01*
X27213Y50771D01*
X27323Y50756D01*
X27433Y50771D01*
X27535Y50813D01*
X27623Y50881D01*
X27691Y50969D01*
X27733Y51071D01*
X27748Y51181D01*
X27733Y51291D01*
X27691Y51394D01*
X27623Y51482D01*
X27535Y51549D01*
X27433Y51592D01*
X27323Y51606D01*
D02*
G37*
G36*
X37295Y44537D02*
X37193Y44524D01*
X37098Y44484D01*
X37016Y44421D01*
X36953Y44339D01*
X36913Y44244D01*
X36900Y44142D01*
X36913Y44039D01*
X36953Y43944D01*
X37016Y43862D01*
X37098Y43799D01*
X37193Y43760D01*
X37295Y43746D01*
X37398Y43760D01*
X37493Y43799D01*
X37575Y43862D01*
X37638Y43944D01*
X37677Y44039D01*
X37691Y44142D01*
X37677Y44244D01*
X37638Y44339D01*
X37575Y44421D01*
X37493Y44484D01*
X37398Y44524D01*
X37295Y44537D01*
D02*
G37*
G36*
X27323Y50606D02*
X27213Y50592D01*
X27110Y50549D01*
X27022Y50482D01*
X26955Y50394D01*
X26912Y50291D01*
X26898Y50181D01*
X26912Y50071D01*
X26955Y49969D01*
X27022Y49881D01*
X27110Y49813D01*
X27213Y49771D01*
X27323Y49756D01*
X27433Y49771D01*
X27535Y49813D01*
X27623Y49881D01*
X27691Y49969D01*
X27733Y50071D01*
X27748Y50181D01*
X27733Y50291D01*
X27691Y50394D01*
X27623Y50482D01*
X27535Y50549D01*
X27433Y50592D01*
X27323Y50606D01*
D02*
G37*
G36*
X32338Y51544D02*
X32246Y51532D01*
X32161Y51496D01*
X32087Y51440D01*
X32031Y51366D01*
X31995Y51281D01*
X31983Y51189D01*
X31995Y51097D01*
X32031Y51012D01*
X32087Y50938D01*
X32161Y50882D01*
X32246Y50846D01*
X32338Y50834D01*
X32430Y50846D01*
X32516Y50882D01*
X32589Y50938D01*
X32646Y51012D01*
X32681Y51097D01*
X32693Y51189D01*
X32681Y51281D01*
X32646Y51366D01*
X32589Y51440D01*
X32516Y51496D01*
X32430Y51532D01*
X32338Y51544D01*
D02*
G37*
G36*
X37795Y52827D02*
X37628Y52810D01*
X37467Y52762D01*
X37318Y52682D01*
X37188Y52576D01*
X37081Y52445D01*
X37002Y52297D01*
X36953Y52136D01*
X36937Y51968D01*
X36953Y51801D01*
X37002Y51640D01*
X37081Y51492D01*
X37188Y51361D01*
X37318Y51255D01*
X37467Y51175D01*
X37628Y51127D01*
X37795Y51110D01*
X37963Y51127D01*
X38124Y51175D01*
X38272Y51255D01*
X38402Y51361D01*
X38509Y51492D01*
X38588Y51640D01*
X38637Y51801D01*
X38654Y51968D01*
X38637Y52136D01*
X38588Y52297D01*
X38509Y52445D01*
X38402Y52576D01*
X38272Y52682D01*
X38124Y52762D01*
X37963Y52810D01*
X37795Y52827D01*
D02*
G37*
G36*
X12598D02*
X12431Y52810D01*
X12270Y52762D01*
X12121Y52682D01*
X11991Y52576D01*
X11885Y52445D01*
X11805Y52297D01*
X11756Y52136D01*
X11740Y51968D01*
X11756Y51801D01*
X11805Y51640D01*
X11885Y51492D01*
X11991Y51361D01*
X12121Y51255D01*
X12270Y51175D01*
X12431Y51127D01*
X12598Y51110D01*
X12766Y51127D01*
X12927Y51175D01*
X13075Y51255D01*
X13205Y51361D01*
X13312Y51492D01*
X13392Y51640D01*
X13440Y51801D01*
X13457Y51968D01*
X13440Y52136D01*
X13392Y52297D01*
X13312Y52445D01*
X13205Y52576D01*
X13075Y52682D01*
X12927Y52762D01*
X12766Y52810D01*
X12598Y52827D01*
D02*
G37*
G36*
X34732Y51544D02*
X34640Y51532D01*
X34555Y51496D01*
X34481Y51440D01*
X34425Y51366D01*
X34389Y51281D01*
X34377Y51189D01*
X34389Y51097D01*
X34425Y51012D01*
X34481Y50938D01*
X34555Y50882D01*
X34640Y50846D01*
X34732Y50834D01*
X34824Y50846D01*
X34910Y50882D01*
X34983Y50938D01*
X35040Y51012D01*
X35075Y51097D01*
X35087Y51189D01*
X35075Y51281D01*
X35040Y51366D01*
X34983Y51440D01*
X34910Y51496D01*
X34824Y51532D01*
X34732Y51544D01*
D02*
G37*
G36*
X39173Y38476D02*
X39077Y38464D01*
X38988Y38427D01*
X38912Y38368D01*
X38853Y38291D01*
X38816Y38202D01*
X38803Y38106D01*
X38816Y38011D01*
X38849Y37930D01*
X38745Y37826D01*
X38722Y37792D01*
X38715Y37752D01*
X38715Y37752D01*
Y35795D01*
X38634D01*
Y35307D01*
X39004D01*
Y35795D01*
X38923D01*
Y37709D01*
X38997Y37782D01*
X39077Y37749D01*
X39173Y37736D01*
X39269Y37749D01*
X39358Y37786D01*
X39435Y37845D01*
X39494Y37921D01*
X39531Y38011D01*
X39543Y38106D01*
X39531Y38202D01*
X39494Y38291D01*
X39435Y38368D01*
X39358Y38427D01*
X39269Y38464D01*
X39173Y38476D01*
D02*
G37*
G36*
X40787D02*
X40692Y38464D01*
X40602Y38427D01*
X40526Y38368D01*
X40467Y38291D01*
X40430Y38202D01*
X40417Y38106D01*
X40430Y38011D01*
X40463Y37930D01*
X40320Y37786D01*
X40297Y37753D01*
X40289Y37713D01*
X40289Y37713D01*
Y35835D01*
X40209D01*
Y35346D01*
X40579D01*
Y35835D01*
X40498D01*
Y37669D01*
X40611Y37782D01*
X40692Y37749D01*
X40787Y37736D01*
X40883Y37749D01*
X40972Y37786D01*
X41049Y37845D01*
X41108Y37921D01*
X41145Y38011D01*
X41157Y38106D01*
X41145Y38202D01*
X41108Y38291D01*
X41049Y38368D01*
X40972Y38427D01*
X40883Y38464D01*
X40787Y38476D01*
D02*
G37*
G36*
X34732Y48544D02*
X34640Y48532D01*
X34555Y48496D01*
X34481Y48440D01*
X34425Y48366D01*
X34389Y48281D01*
X34377Y48189D01*
X34389Y48097D01*
X34425Y48011D01*
X34481Y47938D01*
X34555Y47882D01*
X34640Y47846D01*
X34732Y47834D01*
X34824Y47846D01*
X34910Y47882D01*
X34983Y47938D01*
X35040Y48011D01*
X35075Y48097D01*
X35087Y48189D01*
X35075Y48281D01*
X35040Y48366D01*
X34983Y48440D01*
X34910Y48496D01*
X34824Y48532D01*
X34732Y48544D01*
D02*
G37*
G36*
X16787Y49808D02*
X16639Y49789D01*
X16501Y49731D01*
X16383Y49641D01*
X16292Y49522D01*
X16235Y49384D01*
X16216Y49236D01*
X16235Y49088D01*
X16292Y48950D01*
X16383Y48832D01*
X16501Y48741D01*
X16639Y48684D01*
X16787Y48664D01*
X16935Y48684D01*
X17073Y48741D01*
X17192Y48832D01*
X17283Y48950D01*
X17340Y49088D01*
X17359Y49236D01*
X17340Y49384D01*
X17283Y49522D01*
X17192Y49641D01*
X17073Y49731D01*
X16935Y49789D01*
X16787Y49808D01*
D02*
G37*
G36*
X20787Y49606D02*
X20692Y49594D01*
X20602Y49557D01*
X20526Y49498D01*
X20467Y49421D01*
X20430Y49332D01*
X20417Y49236D01*
X20430Y49140D01*
X20467Y49051D01*
X20526Y48975D01*
X20602Y48916D01*
X20692Y48879D01*
X20787Y48866D01*
X20883Y48879D01*
X20972Y48916D01*
X21049Y48975D01*
X21108Y49051D01*
X21145Y49140D01*
X21157Y49236D01*
X21145Y49332D01*
X21108Y49421D01*
X21049Y49498D01*
X20972Y49557D01*
X20883Y49594D01*
X20787Y49606D01*
D02*
G37*
G36*
X34732Y49544D02*
X34640Y49532D01*
X34555Y49496D01*
X34481Y49440D01*
X34425Y49366D01*
X34389Y49281D01*
X34377Y49189D01*
X34389Y49097D01*
X34425Y49012D01*
X34481Y48938D01*
X34555Y48882D01*
X34640Y48846D01*
X34732Y48834D01*
X34824Y48846D01*
X34910Y48882D01*
X34983Y48938D01*
X35040Y49012D01*
X35075Y49097D01*
X35087Y49189D01*
X35075Y49281D01*
X35040Y49366D01*
X34983Y49440D01*
X34910Y49496D01*
X34824Y49532D01*
X34732Y49544D01*
D02*
G37*
G36*
X16669Y46910D02*
X16521Y46891D01*
X16383Y46834D01*
X16265Y46743D01*
X16174Y46624D01*
X16117Y46487D01*
X16097Y46339D01*
X16117Y46191D01*
X16174Y46053D01*
X16265Y45934D01*
X16383Y45843D01*
X16521Y45786D01*
X16669Y45767D01*
X16817Y45786D01*
X16955Y45843D01*
X17074Y45934D01*
X17165Y46053D01*
X17222Y46191D01*
X17241Y46339D01*
X17222Y46487D01*
X17165Y46624D01*
X17074Y46743D01*
X16955Y46834D01*
X16817Y46891D01*
X16669Y46910D01*
D02*
G37*
%LPD*%
D10*
X33937Y37696D02*
D03*
X34134Y37186D02*
D03*
X33740D02*
D03*
D11*
X22070Y35354D02*
D03*
X22261D02*
D03*
X23009D02*
D03*
X22818D02*
D03*
X22109Y37598D02*
D03*
X22300D02*
D03*
X23088D02*
D03*
X22897D02*
D03*
X20292Y35354D02*
D03*
X20101D02*
D03*
X21080D02*
D03*
X20889D02*
D03*
X20101Y37598D02*
D03*
X20292D02*
D03*
X21159D02*
D03*
X20967D02*
D03*
X18212Y35354D02*
D03*
X18403D02*
D03*
X19151D02*
D03*
X18960D02*
D03*
X16204Y37598D02*
D03*
X16395D02*
D03*
X17300D02*
D03*
X17109D02*
D03*
X19190D02*
D03*
X18999D02*
D03*
X18172D02*
D03*
X18363D02*
D03*
X17261Y35354D02*
D03*
X17070D02*
D03*
X16243D02*
D03*
X16434D02*
D03*
D12*
X40768Y36260D02*
D03*
X39193Y36220D02*
D03*
X16752Y38898D02*
D03*
X18681D02*
D03*
X16752Y36614D02*
D03*
X20650Y38898D02*
D03*
X18681Y36654D02*
D03*
X20610D02*
D03*
X22579Y38898D02*
D03*
X22539Y36693D02*
D03*
D13*
X41142Y35591D02*
D03*
X40394D02*
D03*
X39567Y35551D02*
D03*
X38819D02*
D03*
X17126Y38228D02*
D03*
X16378D02*
D03*
X19055D02*
D03*
X18307D02*
D03*
X17126Y35945D02*
D03*
X16378D02*
D03*
X21024Y38228D02*
D03*
X20276D02*
D03*
X19055Y35984D02*
D03*
X18307D02*
D03*
X20984D02*
D03*
X20236D02*
D03*
X22953Y38228D02*
D03*
X22205D02*
D03*
X22913Y36024D02*
D03*
X22165D02*
D03*
D14*
X13819Y46339D02*
X14886D01*
D15*
X12992Y46474D02*
X15039Y48522D01*
X12992Y44555D02*
Y46474D01*
Y44555D02*
X13565Y43983D01*
X15039Y48522D02*
Y48618D01*
X20480Y39299D02*
X20741D01*
X20880Y39160D01*
X20276Y39095D02*
X20480Y39299D01*
X20276Y38228D02*
Y39095D01*
X34134Y37180D02*
X36861D01*
X34240Y30120D02*
X34504D01*
X19055Y36040D02*
X19650D01*
X16140Y37954D02*
Y38340D01*
X16752Y35840D02*
Y36614D01*
Y35268D02*
Y35840D01*
X18280Y38750D02*
X18681D01*
X19760Y37580D02*
X20101D01*
X22539Y36780D02*
X22940D01*
X22300Y36410D02*
Y36958D01*
X20101Y35200D02*
Y35354D01*
Y34080D02*
Y35200D01*
X18693Y37110D02*
X19690D01*
X18403Y35370D02*
X18690D01*
X16434Y35226D02*
Y35354D01*
Y35200D02*
Y35226D01*
X18667Y35006D02*
X18823Y34850D01*
X18403Y35270D02*
X18667Y35006D01*
X22820Y37590D02*
X22897D01*
Y37598D01*
Y37440D02*
Y37590D01*
X21885Y38020D02*
X22205D01*
X19764Y38170D02*
X20276D01*
X20880Y37590D02*
X20967D01*
X21350Y36590D02*
X21695Y36245D01*
X20840Y36940D02*
X21000D01*
X20967Y37390D02*
Y37590D01*
X18307Y38170D02*
Y38220D01*
X18920Y37590D02*
X18999D01*
X18095Y38393D02*
X18307D01*
X18160Y38220D02*
X18307D01*
X18999Y37590D02*
Y37598D01*
Y37417D02*
Y37590D01*
X17399Y37120D02*
X17987D01*
X16270D02*
X17399D01*
X18296Y36223D02*
X18307Y36212D01*
X17399Y37120D02*
X18296Y36223D01*
X17109Y37410D02*
X17399Y37120D01*
X18296Y36223D02*
X18307D01*
X17523D02*
X18296D01*
X18307D02*
Y36800D01*
Y36212D02*
Y36223D01*
X17109Y37417D02*
Y37598D01*
Y37410D02*
Y37417D01*
X16110Y36000D02*
X16378D01*
X21787Y55236D02*
X23330Y53694D01*
Y47999D02*
Y53694D01*
X21669Y46339D02*
X23330Y47999D01*
X10730Y39640D02*
X11228Y39142D01*
X10730Y39640D02*
Y40310D01*
X10490Y40550D02*
X10730Y40310D01*
X10070Y40550D02*
X10490D01*
X9826Y40794D02*
X10070Y40550D01*
X9826Y40794D02*
Y41440D01*
X10026Y41640D01*
X11780D01*
X12740Y42600D01*
Y46791D01*
X13583Y47634D01*
X32870Y46640D02*
Y49657D01*
X32338Y50189D02*
X32870Y49657D01*
X29738Y46189D02*
Y51962D01*
X28900Y52800D02*
X29738Y51962D01*
X28500Y52800D02*
X28900D01*
X28340Y52960D02*
X28500Y52800D01*
X28340Y52960D02*
Y53440D01*
X28580Y53680D01*
X30860D01*
X31260Y54080D01*
Y55730D01*
X31680Y56150D01*
X33060D01*
X33351Y55859D01*
Y53800D02*
Y55859D01*
Y53800D02*
X33471Y53680D01*
X36490D01*
X36730Y53440D01*
Y50960D02*
Y53440D01*
Y50960D02*
X37120Y50570D01*
X38560D01*
X38860Y50270D01*
Y43707D02*
Y50270D01*
X38295Y43142D02*
X38860Y43707D01*
X30138Y47189D02*
X31200Y48251D01*
Y49580D01*
X33620Y49714D02*
X34576Y50670D01*
X36270D01*
X36700Y50240D01*
Y50090D02*
Y50240D01*
Y50090D02*
X37120Y49670D01*
X37478D01*
X37868Y49280D01*
Y46965D02*
Y49280D01*
Y46965D02*
X38263Y46569D01*
X38560D01*
X38723Y46406D01*
Y44569D02*
Y46406D01*
X38295Y44142D02*
X38723Y44569D01*
X18440Y49195D02*
X18787Y49542D01*
Y55236D01*
X31633Y32667D02*
Y34319D01*
X31572Y34380D02*
X31633Y34319D01*
X31572Y34380D02*
Y51962D01*
X30733Y52801D02*
X31572Y51962D01*
X29120Y52801D02*
X30733D01*
X28732Y53189D02*
X29120Y52801D01*
X32338Y49189D02*
X32730Y48797D01*
Y47940D02*
Y48797D01*
X32480Y47690D02*
X32730Y47940D01*
X32280Y47690D02*
X32480D01*
X31878Y47288D02*
X32280Y47690D01*
X31878Y34702D02*
Y47288D01*
Y34702D02*
X31950Y34630D01*
X32420Y33600D02*
Y42178D01*
X32585Y42343D01*
Y42883D01*
X32420Y43047D02*
X32585Y42883D01*
X32420Y43047D02*
Y44820D01*
X33240Y45640D01*
X37470D01*
X37723Y45893D01*
Y46400D01*
X37473Y46650D02*
X37723Y46400D01*
X36928Y46650D02*
X37473D01*
X36868Y46710D02*
X36928Y46650D01*
X36868Y46710D02*
Y47282D01*
X36480Y47670D02*
X36868Y47282D01*
X35770Y47670D02*
X36480D01*
X35600Y47840D02*
X35770Y47670D01*
X35600Y47840D02*
Y49718D01*
X36063Y50181D01*
X28340Y51797D02*
X28732Y52189D01*
X28340Y37822D02*
Y51797D01*
X27646Y37128D02*
X28340Y37822D01*
X27646Y35999D02*
Y37128D01*
Y35999D02*
X28095Y35550D01*
X30060D01*
X30700Y34560D02*
Y45120D01*
X30130Y45690D02*
X30700Y45120D01*
X29580Y45690D02*
X30130D01*
X29350Y45920D02*
X29580Y45690D01*
X29350Y45920D02*
Y50571D01*
X28732Y51189D02*
X29350Y50571D01*
X30504Y34030D02*
X31280D01*
X30294Y34240D02*
X30504Y34030D01*
X30294Y34240D02*
Y35224D01*
X30520Y35450D01*
Y36710D01*
X29120Y38110D02*
X30520Y36710D01*
X29120Y38110D02*
Y49801D01*
X28732Y50189D02*
X29120Y49801D01*
X33139Y45189D02*
X34732D01*
X32670Y44720D02*
X33139Y45189D01*
X32670Y43120D02*
Y44720D01*
Y43120D02*
X32940Y42850D01*
X17126Y38228D02*
Y39340D01*
X33780Y48141D02*
X34732Y47189D01*
X33780Y48141D02*
Y48940D01*
X19025Y49195D02*
X19140Y49080D01*
Y42420D02*
Y49080D01*
X19055Y38228D02*
X19140Y42420D01*
X25458Y51488D02*
X26650Y52680D01*
X25458Y50620D02*
Y51488D01*
Y50620D02*
X26420Y49657D01*
Y39555D02*
Y49657D01*
X23292Y36428D02*
X26420Y39555D01*
X22728Y36428D02*
X23292D01*
X22600Y36300D02*
X22728Y36428D01*
X22600Y35280D02*
Y36300D01*
X22480Y35160D02*
X22600Y35280D01*
X21120Y35160D02*
X22480D01*
X21080Y35354D02*
X21120Y35160D01*
X22953Y37975D02*
Y38228D01*
Y37975D02*
X23088Y37840D01*
Y37598D02*
Y37840D01*
X26560Y45418D02*
X27323Y46181D01*
X26560Y39371D02*
Y45418D01*
X23430Y36241D02*
X26560Y39371D01*
X22913Y36241D02*
X23430D01*
X22913Y36024D02*
Y36241D01*
X16752Y38898D02*
Y38900D01*
X15628Y37828D02*
X16140Y38340D01*
X15458Y37828D02*
X15628D01*
X15230Y37600D02*
X15458Y37828D01*
X15230Y35269D02*
Y37600D01*
Y35269D02*
X16350Y34149D01*
Y26209D02*
Y34149D01*
Y26209D02*
X16890Y25669D01*
Y26669D02*
X17760Y27540D01*
Y33978D01*
X17518Y34220D02*
X17760Y33978D01*
X17518Y34220D02*
Y34720D01*
X17313Y34925D02*
X17518Y34720D01*
X17095Y34925D02*
X17313D01*
X16752Y35268D02*
X17095Y34925D01*
X16512Y35600D02*
X16752Y35840D01*
X16323Y35600D02*
X16512D01*
X16243Y35520D02*
X16323Y35600D01*
X16243Y35354D02*
Y35520D01*
X18681Y38080D02*
Y38750D01*
X18518Y37917D02*
X18681Y38080D01*
X18379Y37917D02*
X18518D01*
X18172Y37710D02*
X18379Y37917D01*
X18172Y37598D02*
Y37710D01*
X18681Y38750D02*
Y38898D01*
X15590Y35278D02*
Y37410D01*
Y35278D02*
X16343Y34524D01*
X16583D01*
X17484Y33623D01*
Y28264D02*
Y33623D01*
X16890Y27669D02*
X17484Y28264D01*
X18681Y35840D02*
Y36654D01*
X18422Y35581D02*
X18681Y35840D01*
X18334Y35581D02*
X18422D01*
X18212Y35458D02*
X18334Y35581D01*
X18212Y35354D02*
Y35458D01*
X20292Y34927D02*
X20960Y34260D01*
X20292Y34927D02*
Y35354D01*
X42598Y35642D02*
X43050Y36093D01*
Y38930D01*
X42520Y39461D02*
X43050Y38930D01*
X18823Y34850D02*
X19040D01*
X19250Y34640D01*
X19270Y33980D01*
X19460Y33790D01*
X22300Y36410D02*
X22390D01*
Y35543D02*
Y36410D01*
X22261Y35414D02*
X22390Y35543D01*
X22261Y35354D02*
Y35414D01*
X16344Y35110D02*
X16434Y35200D01*
X16010Y35110D02*
X16344D01*
X15810Y35310D02*
X16010Y35110D01*
X15810Y35310D02*
Y36855D01*
X16395Y37440D01*
Y37598D01*
X16434Y35226D02*
X17100Y34560D01*
X19907Y35006D02*
X20101Y35200D01*
X18667Y35006D02*
X19907D01*
X18403Y35270D02*
Y35354D01*
X20236Y35984D02*
Y36856D01*
X15039Y51618D02*
X15490Y51167D01*
Y46793D02*
Y51167D01*
X14961Y46264D02*
X15490Y46793D01*
X39193Y36000D02*
Y36220D01*
Y36000D02*
X39353Y35840D01*
X39860D01*
X40020Y35680D01*
Y33300D02*
Y35680D01*
Y33300D02*
X40340Y32980D01*
X40900D01*
X43190Y35270D01*
Y39790D01*
X42520Y40461D02*
X43190Y39790D01*
X41150Y36642D02*
X42598D01*
X40768Y36260D02*
X41150Y36642D01*
X38819Y35551D02*
Y37752D01*
X39173Y38106D01*
X39567Y33980D02*
Y35551D01*
X39173Y33587D02*
X39567Y33980D01*
X40394Y35591D02*
Y37713D01*
X40787Y38106D01*
X41142Y33980D02*
Y35591D01*
X40748Y33587D02*
X41142Y33980D01*
X24787Y31016D02*
X25190Y31418D01*
Y32690D01*
X24685Y33195D02*
X25190Y32690D01*
X19271Y33195D02*
X24685D01*
X18880Y33587D02*
X19271Y33195D01*
X18880Y33587D02*
Y33920D01*
X24143Y32660D02*
X24787Y32016D01*
X20580Y32660D02*
X24143D01*
X20200Y32280D02*
X20580Y32660D01*
X20200Y29558D02*
Y32280D01*
X17687Y27045D02*
X20200Y29558D01*
X17687Y25227D02*
Y27045D01*
X17670Y25210D02*
X17687Y25227D01*
X15040Y25210D02*
X17670D01*
X14688Y25562D02*
X15040Y25210D01*
X14688Y25562D02*
Y27892D01*
X9826Y37739D02*
X10228Y38142D01*
X9826Y34874D02*
Y37739D01*
Y34874D02*
X11640Y33060D01*
Y31510D02*
Y33060D01*
X10210Y30080D02*
X11640Y31510D01*
X10210Y28710D02*
Y30080D01*
Y28710D02*
X10560Y28360D01*
X13380D01*
X14200Y27540D01*
X10228Y39942D02*
Y40142D01*
Y39942D02*
X10820Y39350D01*
Y36510D02*
Y39350D01*
Y36510D02*
X11720Y35610D01*
X17880Y34722D02*
X18030Y34572D01*
Y29770D02*
Y34572D01*
Y29770D02*
X18742Y29058D01*
X19178D01*
X19390Y29270D01*
Y30610D01*
X11228Y39840D02*
Y40142D01*
Y39840D02*
X13610Y37458D01*
Y30410D02*
Y37458D01*
X26290Y50780D02*
X26720Y50350D01*
Y48840D02*
Y50350D01*
Y48840D02*
X26880Y48680D01*
X27470D01*
X27920Y48230D01*
Y38961D02*
Y48230D01*
X25930Y36971D02*
X27920Y38961D01*
X25930Y36230D02*
Y36971D01*
Y36230D02*
X26550Y35610D01*
Y32750D02*
Y35610D01*
X20690Y29200D02*
Y30400D01*
X18876Y27386D02*
X20690Y29200D01*
X18876Y25976D02*
Y27386D01*
X17600Y24700D02*
X18876Y25976D01*
X14400Y24700D02*
X17600D01*
X13860Y25240D02*
X14400Y24700D01*
X13860Y25240D02*
Y26900D01*
X13030Y27730D02*
X13860Y26900D01*
X10190Y27730D02*
X13030D01*
X9690Y28230D02*
X10190Y27730D01*
X9690Y28230D02*
Y29150D01*
X9050Y29790D02*
X9690Y29150D01*
X9050Y29790D02*
Y43963D01*
X22787Y32016D02*
X23190Y32418D01*
X24000D01*
X24190Y32228D01*
Y30803D02*
Y32228D01*
X20627Y27240D02*
X24190Y30803D01*
X19090Y27240D02*
X20627D01*
X19090Y25540D02*
Y27240D01*
X18760Y25210D02*
X19090Y25540D01*
X15010Y26020D02*
X15170Y25860D01*
X15010Y26020D02*
Y38305D01*
X15368Y38662D01*
X10228Y44142D02*
X10720Y44633D01*
Y48650D01*
X9742Y48652D02*
X10720Y48650D01*
X9410Y48320D02*
X9742Y48652D01*
X9410Y31310D02*
Y48320D01*
Y31310D02*
X10160Y30560D01*
X21312Y29540D02*
X22787Y31016D01*
X19620Y34330D02*
Y34650D01*
Y34330D02*
X20400Y33550D01*
X21010D01*
X32764Y55046D02*
Y55551D01*
X33590Y46080D02*
Y46680D01*
X33410Y45900D02*
X33590Y46080D01*
X32670Y45900D02*
X33410D01*
X32230Y45460D02*
X32670Y45900D01*
X32230Y42700D02*
Y45460D01*
X32764Y55046D02*
X33210Y54600D01*
Y47060D02*
Y54600D01*
Y47060D02*
X33590Y46680D01*
X36523D01*
X36730Y46473D01*
X36964D01*
X37295Y46142D01*
X13583Y50327D02*
Y50634D01*
X11169Y47913D02*
X13583Y50327D01*
X40815Y46409D02*
Y47913D01*
X40039Y45634D02*
X40815Y46409D01*
X27323Y38754D02*
Y41181D01*
X25659Y37090D02*
X27323Y38754D01*
X24640Y37090D02*
X25659D01*
X24440Y36890D02*
X24640Y37090D01*
X24440Y35760D02*
Y36890D01*
X22582Y33902D02*
X24440Y35760D01*
X20279Y33902D02*
X22582D01*
X20101Y34080D02*
X20279Y33902D01*
X20236Y35780D02*
Y35984D01*
X19619Y35162D02*
X20236Y35780D01*
X18988Y35162D02*
X19619D01*
X18960Y35190D02*
X18988Y35162D01*
X18960Y35190D02*
Y35354D01*
X20101Y37580D02*
Y37598D01*
X16970Y33500D02*
X17346Y33124D01*
Y30126D02*
Y33124D01*
X16890Y29669D02*
X17346Y30126D01*
X18280Y30160D02*
X19030Y29410D01*
X18280Y30160D02*
Y35102D01*
X18212Y35170D02*
X18280Y35102D01*
X18212Y35170D02*
Y35354D01*
X18418Y34008D02*
X18900Y34490D01*
X18418Y32432D02*
Y34008D01*
Y32432D02*
X19834Y31016D01*
X18480Y27090D02*
Y27185D01*
X20338Y29042D01*
Y31278D01*
X20500Y31440D01*
X23363D01*
X23787Y31016D01*
X22109Y37489D02*
Y37598D01*
X21830Y37210D02*
X22109Y37489D01*
X18403Y35354D02*
Y35370D01*
X18690D02*
X18830Y35510D01*
Y36250D01*
X19690Y37110D01*
X19962D01*
X20292Y37440D01*
Y37598D01*
X17070Y35170D02*
Y35354D01*
Y35170D02*
X17360D01*
X17460Y35270D01*
Y36160D01*
X17523Y36223D01*
X16140Y37954D02*
X16204Y37890D01*
Y37598D02*
Y37890D01*
X18307Y38220D02*
Y38228D01*
X17660Y38720D02*
X18160Y38220D01*
X10906Y29488D02*
X11604Y28790D01*
X18363Y37440D02*
X18693Y37110D01*
X18363Y37440D02*
Y37598D01*
X16378Y35945D02*
Y36000D01*
X15950Y36160D02*
X16110Y36000D01*
X15950Y36160D02*
Y36800D01*
X16270Y37120D01*
X17987D02*
X18307Y36800D01*
Y35984D02*
Y36212D01*
X17126Y35945D02*
Y36854D01*
X17070Y36910D02*
X17126Y36854D01*
X16530Y36910D02*
X17070D01*
X16310Y36690D02*
X16530Y36910D01*
X16310Y36570D02*
Y36690D01*
X16378Y38042D02*
Y38228D01*
Y38042D02*
X16640Y37780D01*
X17009D01*
X17109Y37680D01*
Y37598D02*
Y37680D01*
X11228Y37142D02*
X12913Y35457D01*
Y32362D02*
Y35457D01*
X18307Y38228D02*
Y38393D01*
X17928Y38560D02*
X18095Y38393D01*
X17928Y38560D02*
Y39200D01*
X18035Y39308D01*
X18822D01*
X18910Y39220D01*
Y38640D02*
Y39220D01*
X18830Y38560D02*
X18910Y38640D01*
X18830Y37680D02*
Y38560D01*
Y37680D02*
X18920Y37590D01*
X14961Y46264D02*
X15296D01*
X17660Y43900D01*
X19055Y35984D02*
Y36040D01*
X19650D02*
X19800Y36190D01*
X32780Y41680D02*
Y42040D01*
X33430Y42690D01*
X37540D01*
X37860Y43010D01*
Y46560D01*
X37730Y46690D02*
X37860Y46560D01*
X37730Y46690D02*
Y48320D01*
X37480Y48570D02*
X37730Y48320D01*
X36452Y48570D02*
X37480D01*
X36063Y48181D02*
X36452Y48570D01*
X10228Y39142D02*
X10640Y38730D01*
Y35570D02*
Y38730D01*
Y35570D02*
X11780Y34430D01*
Y29150D02*
Y34430D01*
X20236Y36856D02*
X20320Y36940D01*
X21000D02*
X21350Y36590D01*
X21825D01*
X22165Y36250D01*
Y36024D02*
Y36250D01*
X20967Y37390D02*
X21255D01*
X21885Y38020D01*
X22205D02*
Y38228D01*
X22897Y37440D02*
X23137Y37200D01*
X23377D01*
X22070Y35354D02*
Y35520D01*
X21960Y35630D02*
X22070Y35520D01*
X21790Y35630D02*
X21960D01*
X22539Y36693D02*
Y36780D01*
X22300Y36958D02*
Y37598D01*
X22180Y36838D02*
X22300Y36958D01*
X21596Y36838D02*
X22180D01*
X21263Y37170D02*
X21596Y36838D01*
X20562Y37170D02*
X21263D01*
X20292Y37440D02*
X20562Y37170D01*
X18999Y37417D02*
X19351D01*
Y37758D01*
X19764Y38170D01*
X20276D02*
Y38228D01*
X20320Y36940D02*
X20840D01*
Y36390D02*
Y36940D01*
X20760Y36310D02*
X20840Y36390D01*
X20760Y35744D02*
Y36310D01*
Y35744D02*
X20889Y35615D01*
Y35354D02*
Y35615D01*
X22200Y48760D02*
Y50890D01*
X20260Y46820D02*
X22200Y48760D01*
X20260Y43480D02*
Y46820D01*
Y43480D02*
X21080Y42660D01*
Y38696D02*
Y42660D01*
X21024Y38640D02*
X21080Y38696D01*
X21024Y38228D02*
Y38640D01*
X36747Y43690D02*
X37295Y43142D01*
X33880Y43690D02*
X36747D01*
X33030Y44540D02*
X33880Y43690D01*
X18669Y44751D02*
Y46339D01*
Y44751D02*
X18780Y44640D01*
X33937Y37696D02*
Y39055D01*
X36063Y41181D01*
X41650Y40330D02*
X42520Y39461D01*
X41650Y40330D02*
Y41870D01*
X39630Y43890D02*
X41650Y41870D01*
X39630Y43890D02*
Y47425D01*
X39815Y47610D01*
Y47913D01*
X40039Y42634D02*
X41190Y41483D01*
Y40710D02*
Y41483D01*
X38590Y38110D02*
X41190Y40710D01*
X38590Y31170D02*
Y38110D01*
Y31170D02*
X39173Y30587D01*
X17126Y35715D02*
Y35945D01*
Y35715D02*
X17261Y35580D01*
Y35354D02*
Y35580D01*
X25060Y41907D02*
Y47150D01*
X22953Y39800D02*
X25060Y41907D01*
X22953Y38228D02*
Y39800D01*
X20880Y38640D02*
Y39160D01*
X20800Y38560D02*
X20880Y38640D01*
X20800Y37670D02*
Y38560D01*
Y37670D02*
X20880Y37590D01*
X20967D02*
Y37598D01*
X22730Y37680D02*
X22820Y37590D01*
X22730Y37680D02*
Y38510D01*
X22800Y38580D01*
Y39400D01*
X22720Y39480D02*
X22800Y39400D01*
X22640Y39480D02*
X22720D01*
X22205Y39045D02*
X22640Y39480D01*
X22205Y38228D02*
Y39045D01*
X17109Y37417D02*
X17554D01*
X18307Y38170D01*
X20650Y38030D02*
Y38898D01*
X20480Y37860D02*
X20650Y38030D01*
X20241Y37860D02*
X20480D01*
X20101Y37720D02*
X20241Y37860D01*
X20101Y37598D02*
Y37720D01*
X22579Y38039D02*
Y38898D01*
X22400Y37860D02*
X22579Y38039D01*
X22249Y37860D02*
X22400D01*
X22109Y37720D02*
X22249Y37860D01*
X22109Y37598D02*
Y37720D01*
X20610Y35848D02*
Y36654D01*
X20292Y35530D02*
X20610Y35848D01*
X20292Y35354D02*
Y35530D01*
X31738Y48789D02*
X32338Y48189D01*
X31738Y48789D02*
Y54189D01*
X22818Y35200D02*
Y35354D01*
X22568Y34950D02*
X22818Y35200D01*
X21120Y34950D02*
X22568D01*
X20889Y35181D02*
X21120Y34950D01*
X20889Y35181D02*
Y35354D01*
X31764Y54875D02*
Y55551D01*
X31738Y54850D02*
X31764Y54875D01*
X31738Y54189D02*
Y54850D01*
X29787Y31016D02*
Y32016D01*
X11228Y38142D02*
Y39142D01*
Y37142D02*
Y38142D01*
X12913Y30939D02*
Y32362D01*
X12874Y30900D02*
X12913Y30939D01*
X12874Y29488D02*
Y30900D01*
X15890Y25669D02*
Y26669D01*
Y27669D01*
Y31669D02*
Y32669D01*
Y30669D02*
Y31669D01*
Y29669D02*
Y30669D01*
Y27669D02*
Y28669D01*
Y29669D01*
X29764Y54875D02*
Y55551D01*
X29738Y54850D02*
X29764Y54875D01*
X29738Y54189D02*
Y54850D01*
X30764Y54875D02*
Y55551D01*
X30738Y54850D02*
X30764Y54875D01*
X30738Y54189D02*
Y54850D01*
X33764Y54875D02*
Y55551D01*
X33738Y54850D02*
X33764Y54875D01*
X33738Y54189D02*
Y54850D01*
X17126Y37994D02*
Y38228D01*
Y37994D02*
X17300Y37820D01*
Y37598D02*
Y37820D01*
X19055Y37975D02*
Y38228D01*
Y37975D02*
X19190Y37840D01*
Y37598D02*
Y37840D01*
X19055Y35716D02*
Y35984D01*
Y35716D02*
X19151Y35620D01*
Y35354D02*
Y35620D01*
X21024Y37975D02*
Y38228D01*
Y37975D02*
X21159Y37840D01*
Y37598D02*
Y37840D01*
X20984Y35716D02*
Y35984D01*
Y35716D02*
X21080Y35620D01*
Y35354D02*
Y35620D01*
X22913Y35736D02*
Y36024D01*
Y35736D02*
X23009Y35640D01*
Y35354D02*
Y35640D01*
X23787Y50838D02*
Y55236D01*
X23669Y50720D02*
X23787Y50838D01*
X23669Y46339D02*
Y50720D01*
X34134Y37180D02*
Y37186D01*
Y37110D02*
Y37180D01*
X34000Y30320D02*
Y36976D01*
Y29440D02*
Y30320D01*
X26740Y36417D02*
X28140Y37817D01*
Y48364D01*
X27323Y49181D02*
X28140Y48364D01*
X19380Y46628D02*
X19669Y46339D01*
X19380Y46628D02*
Y54829D01*
X19787Y55236D01*
X26740Y36417D02*
X27190Y35967D01*
Y30720D02*
Y35967D01*
X27080Y30610D02*
X27190Y30720D01*
X25600Y30610D02*
X27080D01*
X25380Y30830D02*
X25600Y30610D01*
X25380Y30830D02*
Y31608D01*
X25787Y32016D01*
X34504Y29756D02*
Y30120D01*
X34040Y30320D02*
X34240Y30120D01*
X34000Y30320D02*
X34040D01*
Y37016D02*
X34134Y37110D01*
X26740Y36417D02*
X27033D01*
X32670Y30780D01*
Y29760D02*
Y30780D01*
Y29760D02*
X33170Y29260D01*
X33820D01*
X34000Y29440D01*
Y36976D02*
X34040D01*
Y37016D01*
X36861Y37180D02*
X40787Y41106D01*
X10730Y40640D02*
X11330D01*
X10228Y41142D02*
X10730Y40640D01*
X20787Y55236D02*
X23190Y52834D01*
Y48859D02*
Y52834D01*
X20669Y46339D02*
X23190Y48859D01*
X27323Y48181D02*
X27780Y47724D01*
Y39016D02*
Y47724D01*
X25181Y36417D02*
X27780Y39016D01*
X25787Y31016D02*
X26190Y31418D01*
Y35408D01*
X25181Y36417D02*
X26190Y35408D01*
X33740Y35350D02*
Y37186D01*
X33040Y34650D02*
X33740Y35350D01*
X33040Y30220D02*
Y34650D01*
Y30220D02*
X33504Y29756D01*
X38640Y41640D02*
X39173Y41106D01*
X35600Y41640D02*
X38640D01*
X35120Y41160D02*
X35600Y41640D01*
X35120Y40470D02*
Y41160D01*
X33740Y39090D02*
X35120Y40470D01*
X33740Y37186D02*
Y39090D01*
X17660Y38720D02*
Y43900D01*
X15368Y38662D02*
Y43662D01*
X15079Y43951D02*
X15368Y43662D01*
X15079Y43951D02*
Y44252D01*
X15720Y38490D02*
X16067Y38837D01*
Y40588D01*
X16457Y40978D02*
Y43780D01*
X16067Y40588D02*
X16457Y40978D01*
X16809Y43467D02*
X17660Y42616D01*
X16809Y43467D02*
Y43925D01*
X16130Y44604D02*
X16809Y43925D01*
X16140Y38340D02*
Y38631D01*
X16409Y38900D01*
X16752D01*
X11604Y28790D02*
X13640D01*
X13703Y43634D02*
Y43925D01*
X14055Y43780D02*
X14100Y43734D01*
Y28480D02*
Y43734D01*
X13640Y28790D02*
X13962Y29112D01*
Y43374D01*
X13703Y43634D02*
X13962Y43374D01*
X11330Y40640D02*
X13565Y42875D01*
Y43983D01*
X13703Y43925D02*
X14382Y44604D01*
X16130D01*
X14100Y28480D02*
X14688Y27892D01*
D16*
X21669Y40339D02*
D03*
X20669D02*
D03*
X18669Y46339D02*
D03*
X19669D02*
D03*
X22669Y40339D02*
D03*
X20669Y46339D02*
D03*
X23669D02*
D03*
X22669D02*
D03*
X19669Y40339D02*
D03*
X21669Y46339D02*
D03*
X16669Y40339D02*
D03*
X25669D02*
D03*
X16669Y46339D02*
D03*
X25669D02*
D03*
X21787Y49236D02*
D03*
X20787D02*
D03*
X18787Y55236D02*
D03*
X19787D02*
D03*
X22787Y49236D02*
D03*
X20787Y55236D02*
D03*
X23787D02*
D03*
X22787D02*
D03*
X19787Y49236D02*
D03*
X21787Y55236D02*
D03*
X16787Y49236D02*
D03*
X25787D02*
D03*
X16787Y55236D02*
D03*
X25787D02*
D03*
X13583Y47634D02*
D03*
Y50634D02*
D03*
X11169Y47913D02*
D03*
X40815D02*
D03*
X40039Y42634D02*
D03*
Y45634D02*
D03*
X39173Y41106D02*
D03*
Y38106D02*
D03*
X40787Y41106D02*
D03*
Y38106D02*
D03*
X40748Y33587D02*
D03*
Y30587D02*
D03*
X39173Y33587D02*
D03*
Y30587D02*
D03*
X15039Y51618D02*
D03*
Y48618D02*
D03*
X14961Y46264D02*
D03*
Y43264D02*
D03*
X10228Y46142D02*
D03*
X11228D02*
D03*
X10228Y45142D02*
D03*
X11228D02*
D03*
X10228Y44142D02*
D03*
X11228D02*
D03*
X10228Y43142D02*
D03*
X11228D02*
D03*
X10228Y42142D02*
D03*
X11228D02*
D03*
X10228Y41142D02*
D03*
X11228D02*
D03*
X10228Y40142D02*
D03*
X11228D02*
D03*
X10228Y39142D02*
D03*
X11228D02*
D03*
X10228Y38142D02*
D03*
X11228D02*
D03*
X10228Y37142D02*
D03*
X11228D02*
D03*
X29787Y32016D02*
D03*
Y31016D02*
D03*
X28787Y32016D02*
D03*
Y31016D02*
D03*
X27787Y32016D02*
D03*
Y31016D02*
D03*
X26787Y32016D02*
D03*
Y31016D02*
D03*
X25787Y32016D02*
D03*
Y31016D02*
D03*
X24787Y32016D02*
D03*
Y31016D02*
D03*
X23787Y32016D02*
D03*
Y31016D02*
D03*
X22787Y32016D02*
D03*
Y31016D02*
D03*
X21787Y32016D02*
D03*
Y31016D02*
D03*
X20787Y32016D02*
D03*
Y31016D02*
D03*
X42520Y40461D02*
D03*
X42598Y36642D02*
D03*
D17*
X10169Y47913D02*
D03*
X39815D02*
D03*
D18*
X34504Y28756D02*
D03*
X33504D02*
D03*
X34504Y29756D02*
D03*
X33504D02*
D03*
X34504Y30756D02*
D03*
X33504D02*
D03*
X34504Y31756D02*
D03*
X33504D02*
D03*
X34504Y32756D02*
D03*
X27323Y41181D02*
D03*
Y42181D02*
D03*
Y43181D02*
D03*
Y44181D02*
D03*
Y45181D02*
D03*
Y46181D02*
D03*
Y47181D02*
D03*
Y48181D02*
D03*
Y49181D02*
D03*
Y50181D02*
D03*
Y51181D02*
D03*
Y52181D02*
D03*
Y53181D02*
D03*
Y54181D02*
D03*
X15890Y29669D02*
D03*
X16890D02*
D03*
X15890Y28669D02*
D03*
X16890D02*
D03*
X15890Y27669D02*
D03*
X16890D02*
D03*
X15890Y26669D02*
D03*
X16890D02*
D03*
X15890Y25669D02*
D03*
X36063Y41181D02*
D03*
Y42181D02*
D03*
Y43181D02*
D03*
Y44181D02*
D03*
Y45181D02*
D03*
Y46181D02*
D03*
Y47181D02*
D03*
Y48181D02*
D03*
Y49181D02*
D03*
Y50181D02*
D03*
Y51181D02*
D03*
Y52181D02*
D03*
Y53181D02*
D03*
Y54181D02*
D03*
D19*
X33504Y32756D02*
D03*
X16890Y25669D02*
D03*
D20*
X33504Y27756D02*
D03*
X34504D02*
D03*
X33504Y26756D02*
D03*
X34504D02*
D03*
X33504Y25756D02*
D03*
X34504D02*
D03*
X16890Y30669D02*
D03*
X15890D02*
D03*
X16890Y31669D02*
D03*
X15890D02*
D03*
X16890Y32669D02*
D03*
X15890D02*
D03*
D21*
X33764Y55551D02*
D03*
X32764D02*
D03*
X31764D02*
D03*
X30764D02*
D03*
D22*
X29764D02*
D03*
D23*
X25181Y36417D02*
D03*
X26740D02*
D03*
X28299D02*
D03*
X29858D02*
D03*
D24*
X37795Y51968D02*
D03*
X12598Y26378D02*
D03*
X37795D02*
D03*
X12598Y51968D02*
D03*
D25*
X34732Y41189D02*
D03*
Y42189D02*
D03*
Y43189D02*
D03*
Y44189D02*
D03*
Y45189D02*
D03*
Y46189D02*
D03*
Y47189D02*
D03*
Y48189D02*
D03*
Y49189D02*
D03*
Y50189D02*
D03*
Y51189D02*
D03*
Y52189D02*
D03*
Y53189D02*
D03*
Y54189D02*
D03*
X28732D02*
D03*
Y53189D02*
D03*
Y52189D02*
D03*
Y51189D02*
D03*
Y50189D02*
D03*
Y49189D02*
D03*
Y48189D02*
D03*
Y47189D02*
D03*
Y46189D02*
D03*
Y45189D02*
D03*
Y44189D02*
D03*
Y43189D02*
D03*
Y42189D02*
D03*
Y41189D02*
D03*
X29738Y54189D02*
D03*
X30738D02*
D03*
X31738D02*
D03*
X32738D02*
D03*
X33738D02*
D03*
X30138Y53189D02*
D03*
X32338D02*
D03*
Y52189D02*
D03*
X30138D02*
D03*
Y51189D02*
D03*
X32338D02*
D03*
Y50189D02*
D03*
X30138D02*
D03*
Y49189D02*
D03*
X32338D02*
D03*
Y48189D02*
D03*
X30138D02*
D03*
Y47189D02*
D03*
X32338D02*
D03*
X29738Y46189D02*
D03*
Y45189D02*
D03*
Y44189D02*
D03*
Y42189D02*
D03*
D26*
X37295Y42142D02*
D03*
D27*
X38295D02*
D03*
X37295Y43142D02*
D03*
X38295D02*
D03*
X37295Y44142D02*
D03*
X38295D02*
D03*
X37295Y45142D02*
D03*
X38295D02*
D03*
X37295Y46142D02*
D03*
X38295D02*
D03*
X37295Y47142D02*
D03*
X38295D02*
D03*
X37295Y48142D02*
D03*
X38295D02*
D03*
X37295Y49142D02*
D03*
X38295D02*
D03*
X37295Y50142D02*
D03*
X38295D02*
D03*
D28*
X10906Y29488D02*
D03*
X12874D02*
D03*
X10945Y32362D02*
D03*
X12913D02*
D03*
D29*
X42520Y39461D02*
D03*
X42598Y35642D02*
D03*
D30*
X13819Y46339D02*
D03*
X32870Y46640D02*
D03*
X31200Y49580D02*
D03*
X33620Y49714D02*
D03*
X18440Y49195D02*
D03*
X31633Y32667D02*
D03*
X31950Y34630D02*
D03*
X32420Y33600D02*
D03*
X30060Y35550D02*
D03*
X30700Y34560D02*
D03*
X31280Y34030D02*
D03*
X32940Y42850D02*
D03*
X17126Y39340D02*
D03*
X33780Y48940D02*
D03*
X19025Y49195D02*
D03*
X26650Y52680D02*
D03*
X18280Y38750D02*
D03*
X15590Y37410D02*
D03*
X20960Y34260D02*
D03*
X21790Y35630D02*
D03*
X19460Y33790D02*
D03*
X17100Y34560D02*
D03*
X21695Y36245D02*
D03*
X18880Y33920D02*
D03*
X14200Y27540D02*
D03*
X11720Y35610D02*
D03*
X17880Y34722D02*
D03*
X19390Y30610D02*
D03*
X13610Y30410D02*
D03*
X26290Y50780D02*
D03*
X26550Y32750D02*
D03*
X20690Y30400D02*
D03*
X9050Y43963D02*
D03*
X18760Y25210D02*
D03*
X15170Y25860D02*
D03*
X10160Y30560D02*
D03*
X21312Y29540D02*
D03*
X15720Y38490D02*
D03*
X19620Y34650D02*
D03*
X21010Y33550D02*
D03*
X32230Y42700D02*
D03*
X19760Y37580D02*
D03*
X16970Y33500D02*
D03*
X19030Y29410D02*
D03*
X18900Y34490D02*
D03*
X19834Y31016D02*
D03*
X18480Y27090D02*
D03*
X21830Y37210D02*
D03*
X16310Y36570D02*
D03*
X19800Y36190D02*
D03*
X32780Y41680D02*
D03*
X11780Y29150D02*
D03*
X23377Y37200D02*
D03*
X22940Y36780D02*
D03*
X22200Y50890D02*
D03*
X33030Y44540D02*
D03*
X18780Y44640D02*
D03*
X25060Y47150D02*
D03*
X15079Y44252D02*
D03*
X16457Y43780D02*
D03*
X14055D02*
D03*
M02*
