M48
;Layer_Color=6321
;FILE_FORMAT=2:4
INCH,LZ
;TYPE=PLATED
T1F00S00C0.0118
T2F00S00C0.0280
T3F00S00C0.0350
T4F00S00C0.0362
T5F00S00C0.0390
T6F00S00C0.0433
T7F00S00C0.0591
T8F00S00C0.0906
T9F00S00C0.1024
T10F00S00C0.1220
;TYPE=NON_PLATED
T11F00S00C0.0787
%
T01
X033465Y025886
X034154Y026378
X036909Y029626
X037795Y030217
X039567Y028445
X042323Y028051
T02
X034Y0252
X034786Y02528
X03517Y026265
X033975Y02782
X03262Y02802
X03309Y02857
X036545Y02384
X03869Y02412
X04065Y02756
X0418Y02675
X03078Y02707
X03027Y02574
X03121Y02466
X02807Y02659
X028319Y02782
X024384Y02707
X023105Y02519
X02525Y02365
X04078Y03151
X041055Y034094
T03
X026024Y021535
X027024
Y024535
X026024
T04
X018957Y025927
Y026715
X019941
Y025927
T05
X01672Y029035
X01772
X01872
X01972
X02072
X02172
X02272
X02372
X02472
X02572
X02672
X02772
X02872
X02972
X03072
Y0375
X02972
X02872
X02772
X02672
X02572
X02472
X02372
X02272
X02172
X02072
X01972
X01872
X01772
X01672
T06
X023394Y02626
X024394
X025394
T07
X032539Y035039
X036437
T08
X017079Y02486
X021819
T09
X024094Y022165
Y024134
T10
X044882Y019685
X009843
Y03937
X044882
T11
X036476Y033189
X038091Y035984
X034862
M30
