G04 Layer_Color=25308*
%FSLAX24Y24*%
%MOIN*%
G70*
G01*
G75*
%ADD10R,0.0807X0.0138*%
%ADD11R,0.0354X0.0394*%
%ADD12O,0.0984X0.0276*%
%ADD13R,0.0320X0.0350*%
%ADD25C,0.2362*%
%ADD26C,0.0787*%
%ADD27R,0.0787X0.0787*%
%ADD28O,0.0900X0.0600*%
%ADD29R,0.0900X0.0600*%
%ADD30C,0.1575*%
%ADD31C,0.0610*%
%ADD32R,0.0610X0.0610*%
%ADD33C,0.1181*%
D10*
X31772Y22860D02*
D03*
Y23096D02*
D03*
Y23333D02*
D03*
Y23569D02*
D03*
Y23805D02*
D03*
Y24041D02*
D03*
Y24277D02*
D03*
Y24513D02*
D03*
Y24749D02*
D03*
Y24985D02*
D03*
Y25222D02*
D03*
Y25458D02*
D03*
Y25694D02*
D03*
Y25930D02*
D03*
Y26166D02*
D03*
Y26402D02*
D03*
Y26638D02*
D03*
Y26874D02*
D03*
Y27111D02*
D03*
Y27347D02*
D03*
Y27583D02*
D03*
Y27819D02*
D03*
Y28055D02*
D03*
Y28291D02*
D03*
Y28527D02*
D03*
Y28763D02*
D03*
Y29000D02*
D03*
Y29236D02*
D03*
Y29472D02*
D03*
Y29708D02*
D03*
Y29944D02*
D03*
Y30180D02*
D03*
Y30416D02*
D03*
Y30652D02*
D03*
Y30889D02*
D03*
Y31125D02*
D03*
Y31361D02*
D03*
Y31597D02*
D03*
Y31833D02*
D03*
Y32069D02*
D03*
Y32305D02*
D03*
Y32541D02*
D03*
Y32778D02*
D03*
Y33014D02*
D03*
Y33250D02*
D03*
Y33486D02*
D03*
Y33722D02*
D03*
Y33958D02*
D03*
Y34194D02*
D03*
Y34430D02*
D03*
Y34667D02*
D03*
Y34903D02*
D03*
Y35139D02*
D03*
Y35375D02*
D03*
Y35611D02*
D03*
Y35847D02*
D03*
Y36083D02*
D03*
Y36319D02*
D03*
Y36556D02*
D03*
Y36792D02*
D03*
Y37028D02*
D03*
Y37264D02*
D03*
Y37500D02*
D03*
X28543Y20617D02*
D03*
Y20853D02*
D03*
Y21089D02*
D03*
Y21326D02*
D03*
Y21562D02*
D03*
Y21798D02*
D03*
Y22270D02*
D03*
Y22506D02*
D03*
Y22742D02*
D03*
Y22979D02*
D03*
Y23215D02*
D03*
Y23451D02*
D03*
Y23687D02*
D03*
Y23923D02*
D03*
Y24159D02*
D03*
Y24395D02*
D03*
Y24631D02*
D03*
Y24868D02*
D03*
Y25104D02*
D03*
Y25340D02*
D03*
Y25576D02*
D03*
Y25812D02*
D03*
Y26048D02*
D03*
Y26284D02*
D03*
Y26520D02*
D03*
Y26757D02*
D03*
Y26993D02*
D03*
Y27229D02*
D03*
Y27465D02*
D03*
Y27701D02*
D03*
Y27937D02*
D03*
Y28173D02*
D03*
Y28409D02*
D03*
Y28646D02*
D03*
Y28882D02*
D03*
Y29118D02*
D03*
Y29354D02*
D03*
Y29590D02*
D03*
Y30061D02*
D03*
Y30298D02*
D03*
Y30534D02*
D03*
Y30770D02*
D03*
Y31006D02*
D03*
Y31242D02*
D03*
Y31478D02*
D03*
Y31714D02*
D03*
Y31950D02*
D03*
Y32187D02*
D03*
Y32423D02*
D03*
Y32659D02*
D03*
Y32895D02*
D03*
Y33131D02*
D03*
Y33367D02*
D03*
Y33603D02*
D03*
Y33839D02*
D03*
Y34076D02*
D03*
Y34312D02*
D03*
Y34548D02*
D03*
Y34784D02*
D03*
Y35020D02*
D03*
Y35256D02*
D03*
Y35492D02*
D03*
Y35728D02*
D03*
Y35965D02*
D03*
Y36201D02*
D03*
Y36437D02*
D03*
Y36673D02*
D03*
Y36909D02*
D03*
Y37145D02*
D03*
Y37381D02*
D03*
Y37617D02*
D03*
Y22034D02*
D03*
Y29826D02*
D03*
X31772Y20735D02*
D03*
Y20971D02*
D03*
Y21208D02*
D03*
Y21444D02*
D03*
Y21680D02*
D03*
Y21916D02*
D03*
Y22152D02*
D03*
Y22388D02*
D03*
Y22624D02*
D03*
X28543Y20381D02*
D03*
X31772Y20499D02*
D03*
Y20263D02*
D03*
X28543Y20145D02*
D03*
Y19909D02*
D03*
Y19673D02*
D03*
Y19437D02*
D03*
Y19201D02*
D03*
Y18964D02*
D03*
X31772Y20027D02*
D03*
Y19791D02*
D03*
Y19555D02*
D03*
Y19319D02*
D03*
Y19082D02*
D03*
Y18846D02*
D03*
X28543Y17303D02*
D03*
Y17067D02*
D03*
Y16831D02*
D03*
Y16594D02*
D03*
Y16358D02*
D03*
X31772Y17185D02*
D03*
Y16949D02*
D03*
Y16713D02*
D03*
Y16476D02*
D03*
Y16240D02*
D03*
Y16004D02*
D03*
Y15768D02*
D03*
Y15532D02*
D03*
X28543Y16122D02*
D03*
Y15886D02*
D03*
Y15650D02*
D03*
Y15413D02*
D03*
X31772Y15295D02*
D03*
X28543Y15177D02*
D03*
Y14941D02*
D03*
Y14705D02*
D03*
Y14468D02*
D03*
Y14232D02*
D03*
Y13996D02*
D03*
Y13760D02*
D03*
X31772Y15059D02*
D03*
Y14823D02*
D03*
Y14350D02*
D03*
Y14114D02*
D03*
Y13878D02*
D03*
Y13642D02*
D03*
Y13406D02*
D03*
Y13169D02*
D03*
Y12933D02*
D03*
Y14587D02*
D03*
X28543Y13524D02*
D03*
Y13287D02*
D03*
Y13051D02*
D03*
Y12815D02*
D03*
X31772Y12697D02*
D03*
X18701Y22860D02*
D03*
Y23096D02*
D03*
Y23333D02*
D03*
Y23569D02*
D03*
Y23805D02*
D03*
Y24041D02*
D03*
Y24277D02*
D03*
Y24513D02*
D03*
Y24749D02*
D03*
Y24985D02*
D03*
Y25222D02*
D03*
Y25458D02*
D03*
Y25694D02*
D03*
Y25930D02*
D03*
Y26166D02*
D03*
Y26402D02*
D03*
Y26638D02*
D03*
Y26874D02*
D03*
Y27111D02*
D03*
Y27347D02*
D03*
Y27583D02*
D03*
Y27819D02*
D03*
Y28055D02*
D03*
Y28291D02*
D03*
Y28527D02*
D03*
Y28763D02*
D03*
Y29000D02*
D03*
Y29236D02*
D03*
Y29472D02*
D03*
Y29708D02*
D03*
Y29944D02*
D03*
Y30180D02*
D03*
Y30416D02*
D03*
Y30652D02*
D03*
Y30889D02*
D03*
Y31125D02*
D03*
Y31361D02*
D03*
Y31597D02*
D03*
Y31833D02*
D03*
Y32069D02*
D03*
Y32305D02*
D03*
Y32541D02*
D03*
Y32778D02*
D03*
Y33014D02*
D03*
Y33250D02*
D03*
Y33486D02*
D03*
Y33722D02*
D03*
Y33958D02*
D03*
Y34194D02*
D03*
Y34430D02*
D03*
Y34667D02*
D03*
Y34903D02*
D03*
Y35139D02*
D03*
Y35375D02*
D03*
Y35611D02*
D03*
Y35847D02*
D03*
Y36083D02*
D03*
Y36319D02*
D03*
Y36556D02*
D03*
Y36792D02*
D03*
Y37028D02*
D03*
Y37264D02*
D03*
Y37500D02*
D03*
X15472Y20617D02*
D03*
Y20853D02*
D03*
Y21089D02*
D03*
Y21326D02*
D03*
Y21562D02*
D03*
Y21798D02*
D03*
Y22270D02*
D03*
Y22506D02*
D03*
Y22742D02*
D03*
Y22979D02*
D03*
Y23215D02*
D03*
Y23451D02*
D03*
Y23687D02*
D03*
Y23923D02*
D03*
Y24159D02*
D03*
Y24395D02*
D03*
Y24631D02*
D03*
Y24868D02*
D03*
Y25104D02*
D03*
Y25340D02*
D03*
Y25576D02*
D03*
Y25812D02*
D03*
Y26048D02*
D03*
Y26284D02*
D03*
Y26520D02*
D03*
Y26757D02*
D03*
Y26993D02*
D03*
Y27229D02*
D03*
Y27465D02*
D03*
Y27701D02*
D03*
Y27937D02*
D03*
Y28173D02*
D03*
Y28409D02*
D03*
Y28646D02*
D03*
Y28882D02*
D03*
Y29118D02*
D03*
Y29354D02*
D03*
Y29590D02*
D03*
Y30061D02*
D03*
Y30298D02*
D03*
Y30534D02*
D03*
Y30770D02*
D03*
Y31006D02*
D03*
Y31242D02*
D03*
Y31478D02*
D03*
Y31714D02*
D03*
Y31950D02*
D03*
Y32187D02*
D03*
Y32423D02*
D03*
Y32659D02*
D03*
Y32895D02*
D03*
Y33131D02*
D03*
Y33367D02*
D03*
Y33603D02*
D03*
Y33839D02*
D03*
Y34076D02*
D03*
Y34312D02*
D03*
Y34548D02*
D03*
Y34784D02*
D03*
Y35020D02*
D03*
Y35256D02*
D03*
Y35492D02*
D03*
Y35728D02*
D03*
Y35965D02*
D03*
Y36201D02*
D03*
Y36437D02*
D03*
Y36673D02*
D03*
Y36909D02*
D03*
Y37145D02*
D03*
Y37381D02*
D03*
Y37617D02*
D03*
Y22034D02*
D03*
Y29826D02*
D03*
X18701Y20735D02*
D03*
Y20971D02*
D03*
Y21208D02*
D03*
Y21444D02*
D03*
Y21680D02*
D03*
Y21916D02*
D03*
Y22152D02*
D03*
Y22388D02*
D03*
Y22624D02*
D03*
X15472Y20381D02*
D03*
X18701Y20499D02*
D03*
Y20263D02*
D03*
X15472Y20145D02*
D03*
Y19909D02*
D03*
Y19673D02*
D03*
Y19437D02*
D03*
Y19201D02*
D03*
Y18964D02*
D03*
X18701Y20027D02*
D03*
Y19791D02*
D03*
Y19555D02*
D03*
Y19319D02*
D03*
Y19082D02*
D03*
Y18846D02*
D03*
X15472Y17303D02*
D03*
Y17067D02*
D03*
Y16831D02*
D03*
Y16594D02*
D03*
Y16358D02*
D03*
X18701Y17185D02*
D03*
Y16949D02*
D03*
Y16713D02*
D03*
Y16476D02*
D03*
Y16240D02*
D03*
Y16004D02*
D03*
Y15768D02*
D03*
Y15532D02*
D03*
X15472Y16122D02*
D03*
Y15886D02*
D03*
Y15650D02*
D03*
Y15413D02*
D03*
X18701Y15295D02*
D03*
X15472Y15177D02*
D03*
Y14941D02*
D03*
Y14705D02*
D03*
Y14468D02*
D03*
Y14232D02*
D03*
Y13996D02*
D03*
Y13760D02*
D03*
X18701Y15059D02*
D03*
Y14823D02*
D03*
Y14350D02*
D03*
Y14114D02*
D03*
Y13878D02*
D03*
Y13642D02*
D03*
Y13406D02*
D03*
Y13169D02*
D03*
Y12933D02*
D03*
Y14587D02*
D03*
X15472Y13524D02*
D03*
Y13287D02*
D03*
Y13051D02*
D03*
Y12815D02*
D03*
X18701Y12697D02*
D03*
D11*
X24823Y26191D02*
D03*
X24291D02*
D03*
X24833Y27106D02*
D03*
X24301D02*
D03*
X24803Y28809D02*
D03*
X24272D02*
D03*
X24823Y29656D02*
D03*
X24291D02*
D03*
X24833Y30512D02*
D03*
X24301D02*
D03*
X24833Y31437D02*
D03*
X24301D02*
D03*
X27215Y31496D02*
D03*
X26683D02*
D03*
X24803Y27953D02*
D03*
X24272D02*
D03*
D12*
X19902Y27561D02*
D03*
Y27061D02*
D03*
Y26561D02*
D03*
Y26061D02*
D03*
X21831Y27561D02*
D03*
Y27061D02*
D03*
Y26561D02*
D03*
Y26061D02*
D03*
X19902Y17718D02*
D03*
Y17219D02*
D03*
Y16718D02*
D03*
Y16219D02*
D03*
X21831Y17718D02*
D03*
Y17219D02*
D03*
Y16718D02*
D03*
Y16219D02*
D03*
X27343Y19407D02*
D03*
Y19907D02*
D03*
Y20407D02*
D03*
Y20907D02*
D03*
X25413Y19407D02*
D03*
Y19907D02*
D03*
Y20407D02*
D03*
Y20907D02*
D03*
X27343Y22203D02*
D03*
Y22703D02*
D03*
Y23203D02*
D03*
Y23703D02*
D03*
X25413Y22203D02*
D03*
Y22703D02*
D03*
Y23203D02*
D03*
Y23703D02*
D03*
D13*
X22795Y26511D02*
D03*
Y27111D02*
D03*
Y16668D02*
D03*
Y17269D02*
D03*
X24449Y20457D02*
D03*
Y19857D02*
D03*
Y23253D02*
D03*
Y22653D02*
D03*
D25*
X22126Y40709D02*
D03*
X25079D02*
D03*
X22165Y11024D02*
D03*
X25118D02*
D03*
D26*
X37874Y16087D02*
D03*
Y18567D02*
D03*
X9449Y16126D02*
D03*
Y18606D02*
D03*
X37874Y22063D02*
D03*
X9488D02*
D03*
X7835Y19346D02*
D03*
Y17142D02*
D03*
Y21551D02*
D03*
X39370Y21512D02*
D03*
Y19307D02*
D03*
Y17102D02*
D03*
X26388Y22451D02*
D03*
D27*
X37874Y17087D02*
D03*
Y19567D02*
D03*
X9449Y17126D02*
D03*
Y19606D02*
D03*
X37874Y21063D02*
D03*
X9488D02*
D03*
X7835Y18346D02*
D03*
Y16142D02*
D03*
Y20551D02*
D03*
X39370Y20512D02*
D03*
Y18307D02*
D03*
Y16102D02*
D03*
D28*
X7835Y23775D02*
D03*
Y25901D02*
D03*
Y28027D02*
D03*
X39370Y30114D02*
D03*
X7835Y30153D02*
D03*
X13583Y28382D02*
D03*
Y26256D02*
D03*
Y24130D02*
D03*
Y22004D02*
D03*
X33622Y26256D02*
D03*
Y28382D02*
D03*
Y24130D02*
D03*
Y22004D02*
D03*
X39370Y23736D02*
D03*
Y25862D02*
D03*
Y27988D02*
D03*
D29*
X7835Y22775D02*
D03*
Y24901D02*
D03*
Y27027D02*
D03*
X39370Y29114D02*
D03*
X7835Y29153D02*
D03*
X13583Y27382D02*
D03*
Y25256D02*
D03*
Y23130D02*
D03*
Y21004D02*
D03*
X33622Y25256D02*
D03*
Y27382D02*
D03*
Y23130D02*
D03*
Y21004D02*
D03*
X39370Y22736D02*
D03*
Y24862D02*
D03*
Y26988D02*
D03*
D30*
X11811Y35433D02*
D03*
X35433Y11811D02*
D03*
X11811D02*
D03*
X35433Y35433D02*
D03*
D31*
X11024Y33173D02*
D03*
Y32173D02*
D03*
Y31173D02*
D03*
Y30173D02*
D03*
Y29173D02*
D03*
Y28173D02*
D03*
Y27173D02*
D03*
Y26173D02*
D03*
Y25173D02*
D03*
Y24173D02*
D03*
Y23173D02*
D03*
Y22173D02*
D03*
Y21173D02*
D03*
Y20173D02*
D03*
Y19173D02*
D03*
Y18173D02*
D03*
Y17173D02*
D03*
Y16173D02*
D03*
Y15173D02*
D03*
X12024Y33173D02*
D03*
Y32173D02*
D03*
Y31173D02*
D03*
Y30173D02*
D03*
Y29173D02*
D03*
Y28173D02*
D03*
Y27173D02*
D03*
Y26173D02*
D03*
Y25173D02*
D03*
Y24173D02*
D03*
Y23173D02*
D03*
Y22173D02*
D03*
Y21173D02*
D03*
Y20173D02*
D03*
Y19173D02*
D03*
Y18173D02*
D03*
Y17173D02*
D03*
Y16173D02*
D03*
Y15173D02*
D03*
Y14173D02*
D03*
X35433Y33173D02*
D03*
Y32173D02*
D03*
Y31173D02*
D03*
Y30173D02*
D03*
Y29173D02*
D03*
Y28173D02*
D03*
Y27173D02*
D03*
Y26173D02*
D03*
Y25173D02*
D03*
Y24173D02*
D03*
Y23173D02*
D03*
Y22173D02*
D03*
Y21173D02*
D03*
Y20173D02*
D03*
Y19173D02*
D03*
Y18173D02*
D03*
Y17173D02*
D03*
Y16173D02*
D03*
Y15173D02*
D03*
X36433Y33173D02*
D03*
Y32173D02*
D03*
Y31173D02*
D03*
Y30173D02*
D03*
Y29173D02*
D03*
Y28173D02*
D03*
Y27173D02*
D03*
Y26173D02*
D03*
Y25173D02*
D03*
Y24173D02*
D03*
Y23173D02*
D03*
Y22173D02*
D03*
Y21173D02*
D03*
Y20173D02*
D03*
Y19173D02*
D03*
Y18173D02*
D03*
Y17173D02*
D03*
Y16173D02*
D03*
Y15173D02*
D03*
Y14173D02*
D03*
D32*
X11024D02*
D03*
X35433D02*
D03*
D33*
X24370Y21496D02*
D03*
X20108Y24813D02*
D03*
X21654Y24803D02*
D03*
X24449D02*
D03*
X22825Y21496D02*
D03*
X20787Y15276D02*
D03*
X26457Y15197D02*
D03*
M02*
