G04 Layer_Color=15132400*
%FSLAX24Y24*%
%MOIN*%
G70*
G01*
G75*
%ADD14C,0.0100*%
%ADD15C,0.0079*%
%ADD36C,0.0059*%
%ADD41C,0.0098*%
%ADD42C,0.0050*%
%ADD43C,0.0000*%
%ADD44R,0.0060X0.0004*%
%ADD45R,0.0074X0.0004*%
%ADD46R,0.0064X0.0004*%
%ADD47R,0.0057X0.0004*%
%ADD48R,0.0043X0.0004*%
%ADD49R,0.0053X0.0004*%
%ADD50R,0.0060X0.0004*%
%ADD51R,0.0071X0.0004*%
%ADD52R,0.0103X0.0004*%
%ADD53R,0.0120X0.0004*%
%ADD54R,0.0106X0.0004*%
%ADD55R,0.0099X0.0004*%
%ADD56R,0.0074X0.0004*%
%ADD57R,0.0089X0.0004*%
%ADD58R,0.0121X0.0004*%
%ADD59R,0.0071X0.0004*%
%ADD60R,0.0071X0.0004*%
%ADD61R,0.0131X0.0004*%
%ADD62R,0.0152X0.0004*%
%ADD63R,0.0135X0.0004*%
%ADD64R,0.0092X0.0004*%
%ADD65R,0.0106X0.0004*%
%ADD66R,0.0124X0.0004*%
%ADD67R,0.0096X0.0004*%
%ADD68R,0.0103X0.0004*%
%ADD69R,0.0092X0.0004*%
%ADD70R,0.0128X0.0004*%
%ADD71R,0.0149X0.0004*%
%ADD72R,0.0089X0.0004*%
%ADD73R,0.0089X0.0004*%
%ADD74R,0.0149X0.0004*%
%ADD75R,0.0177X0.0004*%
%ADD76R,0.0156X0.0004*%
%ADD77R,0.0092X0.0004*%
%ADD78R,0.0142X0.0004*%
%ADD79R,0.0110X0.0004*%
%ADD80R,0.0142X0.0004*%
%ADD81R,0.0117X0.0004*%
%ADD82R,0.0092X0.0004*%
%ADD83R,0.0145X0.0004*%
%ADD84R,0.0156X0.0004*%
%ADD85R,0.0089X0.0004*%
%ADD86R,0.0110X0.0004*%
%ADD87R,0.0170X0.0004*%
%ADD88R,0.0195X0.0004*%
%ADD89R,0.0106X0.0004*%
%ADD90R,0.0159X0.0004*%
%ADD91R,0.0160X0.0004*%
%ADD92R,0.0124X0.0004*%
%ADD93R,0.0174X0.0004*%
%ADD94R,0.0113X0.0004*%
%ADD95R,0.0184X0.0004*%
%ADD96R,0.0213X0.0004*%
%ADD97R,0.0106X0.0004*%
%ADD98R,0.0174X0.0004*%
%ADD99R,0.0170X0.0004*%
%ADD100R,0.0128X0.0004*%
%ADD101R,0.0170X0.0004*%
%ADD102R,0.0181X0.0004*%
%ADD103R,0.0198X0.0004*%
%ADD104R,0.0223X0.0004*%
%ADD105R,0.0184X0.0004*%
%ADD106R,0.0184X0.0004*%
%ADD107R,0.0131X0.0004*%
%ADD108R,0.0177X0.0004*%
%ADD109R,0.0188X0.0004*%
%ADD110R,0.0223X0.0004*%
%ADD111R,0.0135X0.0004*%
%ADD112R,0.0138X0.0004*%
%ADD113R,0.0234X0.0004*%
%ADD114R,0.0195X0.0004*%
%ADD115R,0.0198X0.0004*%
%ADD116R,0.0191X0.0004*%
%ADD117R,0.0230X0.0004*%
%ADD118R,0.0142X0.0004*%
%ADD119R,0.0241X0.0004*%
%ADD120R,0.0220X0.0004*%
%ADD121R,0.0206X0.0004*%
%ADD122R,0.0237X0.0004*%
%ADD123R,0.0245X0.0004*%
%ADD124R,0.0216X0.0004*%
%ADD125R,0.0163X0.0004*%
%ADD126R,0.0142X0.0004*%
%ADD127R,0.0191X0.0004*%
%ADD128R,0.0202X0.0004*%
%ADD129R,0.0152X0.0004*%
%ADD130R,0.0241X0.0004*%
%ADD131R,0.0248X0.0004*%
%ADD132R,0.0227X0.0004*%
%ADD133R,0.0145X0.0004*%
%ADD134R,0.0195X0.0004*%
%ADD135R,0.0255X0.0004*%
%ADD136R,0.0252X0.0004*%
%ADD137R,0.0230X0.0004*%
%ADD138R,0.0269X0.0004*%
%ADD139R,0.0234X0.0004*%
%ADD140R,0.0209X0.0004*%
%ADD141R,0.0252X0.0004*%
%ADD142R,0.0167X0.0004*%
%ADD143R,0.0262X0.0004*%
%ADD144R,0.0255X0.0004*%
%ADD145R,0.0255X0.0004*%
%ADD146R,0.0237X0.0004*%
%ADD147R,0.0273X0.0004*%
%ADD148R,0.0241X0.0004*%
%ADD149R,0.0202X0.0004*%
%ADD150R,0.0259X0.0004*%
%ADD151R,0.0269X0.0004*%
%ADD152R,0.0259X0.0004*%
%ADD153R,0.0262X0.0004*%
%ADD154R,0.0245X0.0004*%
%ADD155R,0.0276X0.0004*%
%ADD156R,0.0248X0.0004*%
%ADD157R,0.0213X0.0004*%
%ADD158R,0.0174X0.0004*%
%ADD159R,0.0273X0.0004*%
%ADD160R,0.0276X0.0004*%
%ADD161R,0.0266X0.0004*%
%ADD162R,0.0252X0.0004*%
%ADD163R,0.0209X0.0004*%
%ADD164R,0.0269X0.0004*%
%ADD165R,0.0283X0.0004*%
%ADD166R,0.0266X0.0004*%
%ADD167R,0.0103X0.0004*%
%ADD168R,0.0280X0.0004*%
%ADD169R,0.0255X0.0004*%
%ADD170R,0.0152X0.0004*%
%ADD171R,0.0220X0.0004*%
%ADD172R,0.0291X0.0004*%
%ADD173R,0.0284X0.0004*%
%ADD174R,0.0216X0.0004*%
%ADD175R,0.0220X0.0004*%
%ADD176R,0.0298X0.0004*%
%ADD177R,0.0266X0.0004*%
%ADD178R,0.0284X0.0004*%
%ADD179R,0.0216X0.0004*%
%ADD180R,0.0276X0.0004*%
%ADD181R,0.0305X0.0004*%
%ADD182R,0.0283X0.0004*%
%ADD183R,0.0287X0.0004*%
%ADD184R,0.0156X0.0004*%
%ADD185R,0.0220X0.0004*%
%ADD186R,0.0280X0.0004*%
%ADD187R,0.0276X0.0004*%
%ADD188R,0.0312X0.0004*%
%ADD189R,0.0291X0.0004*%
%ADD190R,0.0046X0.0004*%
%ADD191R,0.0096X0.0004*%
%ADD192R,0.0287X0.0004*%
%ADD193R,0.0319X0.0004*%
%ADD194R,0.0294X0.0004*%
%ADD195R,0.0014X0.0004*%
%ADD196R,0.0043X0.0004*%
%ADD197R,0.0036X0.0004*%
%ADD198R,0.0128X0.0004*%
%ADD199R,0.0322X0.0004*%
%ADD200R,0.0085X0.0004*%
%ADD201R,0.0131X0.0004*%
%ADD202R,0.0298X0.0004*%
%ADD203R,0.0113X0.0004*%
%ADD204R,0.0110X0.0004*%
%ADD205R,0.0110X0.0004*%
%ADD206R,0.0103X0.0004*%
%ADD207R,0.0007X0.0004*%
%ADD208R,0.0032X0.0004*%
%ADD209R,0.0025X0.0004*%
%ADD210R,0.0117X0.0004*%
%ADD211R,0.0113X0.0004*%
%ADD212R,0.0326X0.0004*%
%ADD213R,0.0301X0.0004*%
%ADD214R,0.0021X0.0004*%
%ADD215R,0.0018X0.0004*%
%ADD216R,0.0113X0.0004*%
%ADD217R,0.0099X0.0004*%
%ADD218R,0.0014X0.0004*%
%ADD219R,0.0011X0.0004*%
%ADD220R,0.0160X0.0004*%
%ADD221R,0.0067X0.0004*%
%ADD222R,0.0135X0.0004*%
%ADD223R,0.0050X0.0004*%
%ADD224R,0.0007X0.0004*%
%ADD225R,0.0004X0.0004*%
%ADD226R,0.0085X0.0004*%
%ADD227R,0.0039X0.0004*%
%ADD228R,0.0099X0.0004*%
%ADD229R,0.0039X0.0004*%
%ADD230R,0.0035X0.0004*%
%ADD231R,0.0096X0.0004*%
%ADD232R,0.0028X0.0004*%
%ADD233R,0.0021X0.0004*%
%ADD234R,0.0117X0.0004*%
%ADD235R,0.0021X0.0004*%
%ADD236R,0.0096X0.0004*%
%ADD237R,0.0014X0.0004*%
%ADD238R,0.0099X0.0004*%
%ADD239R,0.0120X0.0004*%
%ADD240R,0.0007X0.0004*%
%ADD241R,0.0163X0.0004*%
%ADD242R,0.0167X0.0004*%
%ADD243R,0.0177X0.0004*%
%ADD244R,0.0135X0.0004*%
%ADD245R,0.0174X0.0004*%
%ADD246R,0.0149X0.0004*%
%ADD247R,0.0152X0.0004*%
%ADD248R,0.0227X0.0004*%
%ADD249R,0.0223X0.0004*%
%ADD250R,0.0170X0.0004*%
%ADD251R,0.0188X0.0004*%
%ADD252R,0.0191X0.0004*%
%ADD253R,0.0004X0.0004*%
%ADD254R,0.0011X0.0004*%
%ADD255R,0.0191X0.0004*%
%ADD256R,0.0181X0.0004*%
%ADD257R,0.0117X0.0004*%
%ADD258R,0.0202X0.0004*%
%ADD259R,0.0014X0.0004*%
%ADD260R,0.0121X0.0004*%
%ADD261R,0.0145X0.0004*%
%ADD262R,0.0206X0.0004*%
%ADD263R,0.0050X0.0004*%
%ADD264R,0.0294X0.0004*%
%ADD265R,0.0053X0.0004*%
%ADD266R,0.0291X0.0004*%
%ADD267R,0.0291X0.0004*%
%ADD268R,0.0209X0.0004*%
%ADD269R,0.0199X0.0004*%
%ADD270R,0.0259X0.0004*%
%ADD271R,0.0199X0.0004*%
%ADD272R,0.0202X0.0004*%
%ADD273R,0.0138X0.0004*%
%ADD274R,0.0184X0.0004*%
%ADD275R,0.0227X0.0004*%
%ADD276R,0.0177X0.0004*%
%ADD277R,0.0138X0.0004*%
%ADD278R,0.0167X0.0004*%
%ADD279R,0.0167X0.0004*%
%ADD280R,0.0128X0.0004*%
%ADD281R,0.0085X0.0004*%
%ADD282R,0.0082X0.0004*%
%ADD283R,0.0064X0.0004*%
%ADD284R,0.0078X0.0004*%
%ADD285R,0.0085X0.0004*%
%ADD286R,0.0060X0.0004*%
%ADD287R,0.0004X0.0004*%
%ADD288R,0.0131X0.0004*%
%ADD289R,0.0025X0.0004*%
%ADD290R,0.0035X0.0004*%
%ADD291R,0.0032X0.0004*%
%ADD292R,0.0053X0.0004*%
%ADD293R,0.0323X0.0004*%
%ADD294R,0.0071X0.0004*%
%ADD295R,0.0315X0.0004*%
%ADD296R,0.0057X0.0004*%
%ADD297R,0.0067X0.0004*%
%ADD298R,0.0305X0.0004*%
%ADD299R,0.0298X0.0004*%
%ADD300R,0.0248X0.0004*%
%ADD301R,0.0078X0.0004*%
%ADD302R,0.0234X0.0004*%
%ADD303R,0.0018X0.0004*%
%ADD304R,0.0234X0.0004*%
%ADD305R,0.0227X0.0004*%
%ADD306R,0.0149X0.0004*%
%ADD307R,0.0383X0.0004*%
%ADD308R,0.0886X0.0004*%
%ADD309R,0.0656X0.0004*%
%ADD310R,0.0422X0.0004*%
%ADD311R,0.0900X0.0004*%
%ADD312R,0.0631X0.0004*%
%ADD313R,0.0454X0.0004*%
%ADD314R,0.0907X0.0004*%
%ADD315R,0.0617X0.0004*%
%ADD316R,0.0482X0.0004*%
%ADD317R,0.0914X0.0004*%
%ADD318R,0.0599X0.0004*%
%ADD319R,0.0503X0.0004*%
%ADD320R,0.0305X0.0004*%
%ADD321R,0.0921X0.0004*%
%ADD322R,0.0592X0.0004*%
%ADD323R,0.0521X0.0004*%
%ADD324R,0.0337X0.0004*%
%ADD325R,0.0925X0.0004*%
%ADD326R,0.0354X0.0004*%
%ADD327R,0.0581X0.0004*%
%ADD328R,0.0535X0.0004*%
%ADD329R,0.0369X0.0004*%
%ADD330R,0.0925X0.0004*%
%ADD331R,0.0379X0.0004*%
%ADD332R,0.0571X0.0004*%
%ADD333R,0.0553X0.0004*%
%ADD334R,0.0390X0.0004*%
%ADD335R,0.0932X0.0004*%
%ADD336R,0.0400X0.0004*%
%ADD337R,0.0563X0.0004*%
%ADD338R,0.0411X0.0004*%
%ADD339R,0.0935X0.0004*%
%ADD340R,0.0425X0.0004*%
%ADD341R,0.0556X0.0004*%
%ADD342R,0.0574X0.0004*%
%ADD343R,0.0432X0.0004*%
%ADD344R,0.0939X0.0004*%
%ADD345R,0.0450X0.0004*%
%ADD346R,0.0553X0.0004*%
%ADD347R,0.0585X0.0004*%
%ADD348R,0.0939X0.0004*%
%ADD349R,0.0464X0.0004*%
%ADD350R,0.0546X0.0004*%
%ADD351R,0.0599X0.0004*%
%ADD352R,0.0475X0.0004*%
%ADD353R,0.0943X0.0004*%
%ADD354R,0.0482X0.0004*%
%ADD355R,0.0539X0.0004*%
%ADD356R,0.0610X0.0004*%
%ADD357R,0.0493X0.0004*%
%ADD358R,0.0939X0.0004*%
%ADD359R,0.0500X0.0004*%
%ADD360R,0.0617X0.0004*%
%ADD361R,0.0507X0.0004*%
%ADD362R,0.0946X0.0004*%
%ADD363R,0.0514X0.0004*%
%ADD364R,0.0528X0.0004*%
%ADD365R,0.0624X0.0004*%
%ADD366R,0.0524X0.0004*%
%ADD367R,0.0946X0.0004*%
%ADD368R,0.0634X0.0004*%
%ADD369R,0.0946X0.0004*%
%ADD370R,0.0549X0.0004*%
%ADD371R,0.0641X0.0004*%
%ADD372R,0.0556X0.0004*%
%ADD373R,0.0946X0.0004*%
%ADD374R,0.0560X0.0004*%
%ADD375R,0.0517X0.0004*%
%ADD376R,0.0648X0.0004*%
%ADD377R,0.0950X0.0004*%
%ADD378R,0.0510X0.0004*%
%ADD379R,0.0659X0.0004*%
%ADD380R,0.0950X0.0004*%
%ADD381R,0.0507X0.0004*%
%ADD382R,0.0666X0.0004*%
%ADD383R,0.0673X0.0004*%
%ADD384R,0.0613X0.0004*%
%ADD385R,0.0609X0.0004*%
%ADD386R,0.0500X0.0004*%
%ADD387R,0.0677X0.0004*%
%ADD388R,0.0620X0.0004*%
%ADD389R,0.0624X0.0004*%
%ADD390R,0.0500X0.0004*%
%ADD391R,0.0684X0.0004*%
%ADD392R,0.0634X0.0004*%
%ADD393R,0.0953X0.0004*%
%ADD394R,0.0493X0.0004*%
%ADD395R,0.0691X0.0004*%
%ADD396R,0.0648X0.0004*%
%ADD397R,0.0641X0.0004*%
%ADD398R,0.0698X0.0004*%
%ADD399R,0.0656X0.0004*%
%ADD400R,0.0652X0.0004*%
%ADD401R,0.0489X0.0004*%
%ADD402R,0.0702X0.0004*%
%ADD403R,0.0670X0.0004*%
%ADD404R,0.0953X0.0004*%
%ADD405R,0.0663X0.0004*%
%ADD406R,0.0486X0.0004*%
%ADD407R,0.0709X0.0004*%
%ADD408R,0.0680X0.0004*%
%ADD409R,0.0670X0.0004*%
%ADD410R,0.0485X0.0004*%
%ADD411R,0.0716X0.0004*%
%ADD412R,0.0691X0.0004*%
%ADD413R,0.0478X0.0004*%
%ADD414R,0.0719X0.0004*%
%ADD415R,0.0705X0.0004*%
%ADD416R,0.0691X0.0004*%
%ADD417R,0.0478X0.0004*%
%ADD418R,0.0723X0.0004*%
%ADD419R,0.0712X0.0004*%
%ADD420R,0.0730X0.0004*%
%ADD421R,0.0719X0.0004*%
%ADD422R,0.0475X0.0004*%
%ADD423R,0.0734X0.0004*%
%ADD424R,0.0734X0.0004*%
%ADD425R,0.0471X0.0004*%
%ADD426R,0.0741X0.0004*%
%ADD427R,0.0740X0.0004*%
%ADD428R,0.0723X0.0004*%
%ADD429R,0.0468X0.0004*%
%ADD430R,0.0744X0.0004*%
%ADD431R,0.0748X0.0004*%
%ADD432R,0.0730X0.0004*%
%ADD433R,0.0468X0.0004*%
%ADD434R,0.0758X0.0004*%
%ADD435R,0.0950X0.0004*%
%ADD436R,0.0737X0.0004*%
%ADD437R,0.0464X0.0004*%
%ADD438R,0.0755X0.0004*%
%ADD439R,0.0769X0.0004*%
%ADD440R,0.0461X0.0004*%
%ADD441R,0.0758X0.0004*%
%ADD442R,0.0776X0.0004*%
%ADD443R,0.0751X0.0004*%
%ADD444R,0.0461X0.0004*%
%ADD445R,0.0762X0.0004*%
%ADD446R,0.0787X0.0004*%
%ADD447R,0.0457X0.0004*%
%ADD448R,0.0765X0.0004*%
%ADD449R,0.0797X0.0004*%
%ADD450R,0.0765X0.0004*%
%ADD451R,0.0457X0.0004*%
%ADD452R,0.0769X0.0004*%
%ADD453R,0.0804X0.0004*%
%ADD454R,0.0772X0.0004*%
%ADD455R,0.0454X0.0004*%
%ADD456R,0.0776X0.0004*%
%ADD457R,0.0811X0.0004*%
%ADD458R,0.0780X0.0004*%
%ADD459R,0.0454X0.0004*%
%ADD460R,0.0780X0.0004*%
%ADD461R,0.0818X0.0004*%
%ADD462R,0.0787X0.0004*%
%ADD463R,0.0450X0.0004*%
%ADD464R,0.0783X0.0004*%
%ADD465R,0.0826X0.0004*%
%ADD466R,0.0794X0.0004*%
%ADD467R,0.0787X0.0004*%
%ADD468R,0.0833X0.0004*%
%ADD469R,0.0797X0.0004*%
%ADD470R,0.0790X0.0004*%
%ADD471R,0.0840X0.0004*%
%ADD472R,0.0801X0.0004*%
%ADD473R,0.0446X0.0004*%
%ADD474R,0.0847X0.0004*%
%ADD475R,0.0808X0.0004*%
%ADD476R,0.0447X0.0004*%
%ADD477R,0.0854X0.0004*%
%ADD478R,0.0943X0.0004*%
%ADD479R,0.0815X0.0004*%
%ADD480R,0.0443X0.0004*%
%ADD481R,0.0861X0.0004*%
%ADD482R,0.0822X0.0004*%
%ADD483R,0.0443X0.0004*%
%ADD484R,0.0804X0.0004*%
%ADD485R,0.0868X0.0004*%
%ADD486R,0.0443X0.0004*%
%ADD487R,0.0808X0.0004*%
%ADD488R,0.0875X0.0004*%
%ADD489R,0.0829X0.0004*%
%ADD490R,0.0439X0.0004*%
%ADD491R,0.0812X0.0004*%
%ADD492R,0.0882X0.0004*%
%ADD493R,0.0836X0.0004*%
%ADD494R,0.0815X0.0004*%
%ADD495R,0.0889X0.0004*%
%ADD496R,0.0935X0.0004*%
%ADD497R,0.0840X0.0004*%
%ADD498R,0.0436X0.0004*%
%ADD499R,0.0818X0.0004*%
%ADD500R,0.0897X0.0004*%
%ADD501R,0.0843X0.0004*%
%ADD502R,0.0436X0.0004*%
%ADD503R,0.0822X0.0004*%
%ADD504R,0.0904X0.0004*%
%ADD505R,0.0850X0.0004*%
%ADD506R,0.0822X0.0004*%
%ADD507R,0.0911X0.0004*%
%ADD508R,0.0932X0.0004*%
%ADD509R,0.0854X0.0004*%
%ADD510R,0.0826X0.0004*%
%ADD511R,0.0918X0.0004*%
%ADD512R,0.0932X0.0004*%
%ADD513R,0.0858X0.0004*%
%ADD514R,0.0829X0.0004*%
%ADD515R,0.0918X0.0004*%
%ADD516R,0.0932X0.0004*%
%ADD517R,0.0865X0.0004*%
%ADD518R,0.0432X0.0004*%
%ADD519R,0.0868X0.0004*%
%ADD520R,0.0432X0.0004*%
%ADD521R,0.0836X0.0004*%
%ADD522R,0.0928X0.0004*%
%ADD523R,0.0872X0.0004*%
%ADD524R,0.0429X0.0004*%
%ADD525R,0.0928X0.0004*%
%ADD526R,0.0429X0.0004*%
%ADD527R,0.0882X0.0004*%
%ADD528R,0.0843X0.0004*%
%ADD529R,0.0921X0.0004*%
%ADD530R,0.0886X0.0004*%
%ADD531R,0.0429X0.0004*%
%ADD532R,0.0957X0.0004*%
%ADD533R,0.0889X0.0004*%
%ADD534R,0.0429X0.0004*%
%ADD535R,0.0960X0.0004*%
%ADD536R,0.0408X0.0004*%
%ADD537R,0.0889X0.0004*%
%ADD538R,0.0850X0.0004*%
%ADD539R,0.0967X0.0004*%
%ADD540R,0.0390X0.0004*%
%ADD541R,0.0896X0.0004*%
%ADD542R,0.0974X0.0004*%
%ADD543R,0.0379X0.0004*%
%ADD544R,0.0896X0.0004*%
%ADD545R,0.0974X0.0004*%
%ADD546R,0.0904X0.0004*%
%ADD547R,0.0861X0.0004*%
%ADD548R,0.0982X0.0004*%
%ADD549R,0.0358X0.0004*%
%ADD550R,0.0904X0.0004*%
%ADD551R,0.0425X0.0004*%
%ADD552R,0.0861X0.0004*%
%ADD553R,0.0461X0.0004*%
%ADD554R,0.0351X0.0004*%
%ADD555R,0.0418X0.0004*%
%ADD556R,0.0439X0.0004*%
%ADD557R,0.0347X0.0004*%
%ADD558R,0.0400X0.0004*%
%ADD559R,0.0393X0.0004*%
%ADD560R,0.0312X0.0004*%
%ADD561R,0.0496X0.0004*%
%ADD562R,0.0415X0.0004*%
%ADD563R,0.0340X0.0004*%
%ADD564R,0.0390X0.0004*%
%ADD565R,0.0475X0.0004*%
%ADD566R,0.0407X0.0004*%
%ADD567R,0.0333X0.0004*%
%ADD568R,0.0376X0.0004*%
%ADD569R,0.0408X0.0004*%
%ADD570R,0.0397X0.0004*%
%ADD571R,0.0326X0.0004*%
%ADD572R,0.0372X0.0004*%
%ADD573R,0.0358X0.0004*%
%ADD574R,0.0315X0.0004*%
%ADD575R,0.0400X0.0004*%
%ADD576R,0.0326X0.0004*%
%ADD577R,0.0361X0.0004*%
%ADD578R,0.0354X0.0004*%
%ADD579R,0.0383X0.0004*%
%ADD580R,0.0347X0.0004*%
%ADD581R,0.0379X0.0004*%
%ADD582R,0.0344X0.0004*%
%ADD583R,0.0372X0.0004*%
%ADD584R,0.0344X0.0004*%
%ADD585R,0.0312X0.0004*%
%ADD586R,0.0422X0.0004*%
%ADD587R,0.0337X0.0004*%
%ADD588R,0.0315X0.0004*%
%ADD589R,0.0372X0.0004*%
%ADD590R,0.0365X0.0004*%
%ADD591R,0.0308X0.0004*%
%ADD592R,0.0330X0.0004*%
%ADD593R,0.0369X0.0004*%
%ADD594R,0.0308X0.0004*%
%ADD595R,0.0333X0.0004*%
%ADD596R,0.0404X0.0004*%
%ADD597R,0.0365X0.0004*%
%ADD598R,0.0358X0.0004*%
%ADD599R,0.0305X0.0004*%
%ADD600R,0.0333X0.0004*%
%ADD601R,0.0322X0.0004*%
%ADD602R,0.0397X0.0004*%
%ADD603R,0.0361X0.0004*%
%ADD604R,0.0351X0.0004*%
%ADD605R,0.0326X0.0004*%
%ADD606R,0.0319X0.0004*%
%ADD607R,0.0351X0.0004*%
%ADD608R,0.0301X0.0004*%
%ADD609R,0.0301X0.0004*%
%ADD610R,0.0386X0.0004*%
%ADD611R,0.0354X0.0004*%
%ADD612R,0.0386X0.0004*%
%ADD613R,0.0340X0.0004*%
%ADD614R,0.0340X0.0004*%
%ADD615R,0.0347X0.0004*%
%ADD616R,0.0298X0.0004*%
%ADD617R,0.0308X0.0004*%
%ADD618R,0.0330X0.0004*%
%ADD619R,0.0301X0.0004*%
%ADD620R,0.0365X0.0004*%
%ADD621R,0.0330X0.0004*%
%ADD622R,0.0340X0.0004*%
%ADD623R,0.0354X0.0004*%
%ADD624R,0.0330X0.0004*%
%ADD625R,0.0308X0.0004*%
%ADD626R,0.0315X0.0004*%
%ADD627R,0.0280X0.0004*%
%ADD628R,0.0280X0.0004*%
%ADD629R,0.0323X0.0004*%
%ADD630R,0.0312X0.0004*%
%ADD631R,0.0376X0.0004*%
%ADD632R,0.0347X0.0004*%
%ADD633R,0.0723X0.0004*%
%ADD634R,0.0418X0.0004*%
%ADD635R,0.0716X0.0004*%
%ADD636R,0.0436X0.0004*%
%ADD637R,0.0705X0.0004*%
%ADD638R,0.0447X0.0004*%
%ADD639R,0.0702X0.0004*%
%ADD640R,0.0698X0.0004*%
%ADD641R,0.0695X0.0004*%
%ADD642R,0.0471X0.0004*%
%ADD643R,0.0684X0.0004*%
%ADD644R,0.0680X0.0004*%
%ADD645R,0.0482X0.0004*%
%ADD646R,0.0489X0.0004*%
%ADD647R,0.0673X0.0004*%
%ADD648R,0.0493X0.0004*%
%ADD649R,0.0663X0.0004*%
%ADD650R,0.0659X0.0004*%
%ADD651R,0.0514X0.0004*%
%ADD652R,0.0517X0.0004*%
%ADD653R,0.0521X0.0004*%
%ADD654R,0.0641X0.0004*%
%ADD655R,0.0528X0.0004*%
%ADD656R,0.0535X0.0004*%
%ADD657R,0.0624X0.0004*%
%ADD658R,0.0539X0.0004*%
%ADD659R,0.0617X0.0004*%
%ADD660R,0.0542X0.0004*%
%ADD661R,0.0549X0.0004*%
%ADD662R,0.0645X0.0004*%
%ADD663R,0.0560X0.0004*%
%ADD664R,0.0656X0.0004*%
%ADD665R,0.0563X0.0004*%
%ADD666R,0.0567X0.0004*%
%ADD667R,0.0567X0.0004*%
%ADD668R,0.0574X0.0004*%
%ADD669R,0.0687X0.0004*%
%ADD670R,0.0574X0.0004*%
%ADD671R,0.0695X0.0004*%
%ADD672R,0.0578X0.0004*%
%ADD673R,0.0578X0.0004*%
%ADD674R,0.0581X0.0004*%
%ADD675R,0.0726X0.0004*%
%ADD676R,0.0585X0.0004*%
%ADD677R,0.0585X0.0004*%
%ADD678R,0.0737X0.0004*%
%ADD679R,0.0585X0.0004*%
%ADD680R,0.0755X0.0004*%
%ADD681R,0.0758X0.0004*%
%ADD682R,0.0772X0.0004*%
%ADD683R,0.0783X0.0004*%
%ADD684R,0.0571X0.0004*%
%ADD685R,0.0804X0.0004*%
%ADD686R,0.0546X0.0004*%
%ADD687R,0.0542X0.0004*%
%ADD688R,0.0539X0.0004*%
%ADD689R,0.0528X0.0004*%
%ADD690R,0.0524X0.0004*%
%ADD691R,0.0514X0.0004*%
%ADD692R,0.0333X0.0004*%
%ADD693R,0.0503X0.0004*%
%ADD694R,0.0496X0.0004*%
%ADD695R,0.0436X0.0004*%
%ADD696R,0.0294X0.0004*%
%ADD697R,0.0422X0.0004*%
%ADD698R,0.0415X0.0004*%
%ADD699R,0.0411X0.0004*%
%ADD700R,0.0404X0.0004*%
%ADD701R,0.0372X0.0004*%
%ADD702R,0.0337X0.0004*%
%ADD703R,0.0376X0.0004*%
%ADD704R,0.0393X0.0004*%
%ADD705R,0.0404X0.0004*%
%ADD706R,0.0383X0.0004*%
%ADD707R,0.0411X0.0004*%
%ADD708R,0.0478X0.0004*%
%ADD709R,0.0503X0.0004*%
%ADD710R,0.0982X0.0004*%
%ADD711R,0.0358X0.0004*%
%ADD712R,0.0829X0.0004*%
%ADD713R,0.0971X0.0004*%
%ADD714R,0.0376X0.0004*%
%ADD715R,0.0964X0.0004*%
%ADD716R,0.0960X0.0004*%
%ADD717R,0.0411X0.0004*%
%ADD718R,0.0953X0.0004*%
%ADD719R,0.0439X0.0004*%
%ADD720R,0.0833X0.0004*%
%ADD721R,0.0812X0.0004*%
%ADD722R,0.0964X0.0004*%
%ADD723R,0.0960X0.0004*%
%ADD724R,0.0801X0.0004*%
%ADD725R,0.0918X0.0004*%
%ADD726R,0.0797X0.0004*%
%ADD727R,0.0911X0.0004*%
%ADD728R,0.0957X0.0004*%
%ADD729R,0.0794X0.0004*%
%ADD730R,0.0907X0.0004*%
%ADD731R,0.0819X0.0004*%
%ADD732R,0.0790X0.0004*%
%ADD733R,0.0787X0.0004*%
%ADD734R,0.0953X0.0004*%
%ADD735R,0.0882X0.0004*%
%ADD736R,0.0875X0.0004*%
%ADD737R,0.0773X0.0004*%
%ADD738R,0.0861X0.0004*%
%ADD739R,0.0804X0.0004*%
%ADD740R,0.0847X0.0004*%
%ADD741R,0.0840X0.0004*%
%ADD742R,0.0794X0.0004*%
%ADD743R,0.0935X0.0004*%
%ADD744R,0.0833X0.0004*%
%ADD745R,0.0811X0.0004*%
%ADD746R,0.0928X0.0004*%
%ADD747R,0.0737X0.0004*%
%ADD748R,0.0921X0.0004*%
%ADD749R,0.0730X0.0004*%
%ADD750R,0.0773X0.0004*%
%ADD751R,0.0723X0.0004*%
%ADD752R,0.0765X0.0004*%
%ADD753R,0.0914X0.0004*%
%ADD754R,0.0716X0.0004*%
%ADD755R,0.0709X0.0004*%
%ADD756R,0.0751X0.0004*%
%ADD757R,0.0705X0.0004*%
%ADD758R,0.0904X0.0004*%
%ADD759R,0.0698X0.0004*%
%ADD760R,0.0730X0.0004*%
%ADD761R,0.0900X0.0004*%
%ADD762R,0.0744X0.0004*%
%ADD763R,0.0893X0.0004*%
%ADD764R,0.0680X0.0004*%
%ADD765R,0.0726X0.0004*%
%ADD766R,0.0879X0.0004*%
%ADD767R,0.0666X0.0004*%
%ADD768R,0.0712X0.0004*%
%ADD769R,0.0648X0.0004*%
%ADD770R,0.0641X0.0004*%
%ADD771R,0.0858X0.0004*%
%ADD772R,0.0638X0.0004*%
%ADD773R,0.0599X0.0004*%
%ADD774R,0.0688X0.0004*%
%ADD775R,0.0624X0.0004*%
%ADD776R,0.0680X0.0004*%
%ADD777R,0.0840X0.0004*%
%ADD778R,0.0617X0.0004*%
%ADD779R,0.0673X0.0004*%
%ADD780R,0.0606X0.0004*%
%ADD781R,0.0553X0.0004*%
%ADD782R,0.0666X0.0004*%
%ADD783R,0.0539X0.0004*%
%ADD784R,0.0822X0.0004*%
%ADD785R,0.0592X0.0004*%
%ADD786R,0.0815X0.0004*%
%ADD787R,0.0808X0.0004*%
%ADD788R,0.0797X0.0004*%
%ADD789R,0.0567X0.0004*%
%ADD790R,0.0627X0.0004*%
%ADD791R,0.0790X0.0004*%
%ADD792R,0.0780X0.0004*%
%ADD793R,0.0606X0.0004*%
%ADD794R,0.0595X0.0004*%
%ADD795R,0.0758X0.0004*%
%ADD796R,0.0525X0.0004*%
%ADD797R,0.0581X0.0004*%
%ADD798R,0.0748X0.0004*%
%ADD799R,0.0521X0.0004*%
%ADD800R,0.0687X0.0004*%
%ADD801R,0.0471X0.0004*%
%ADD802R,0.0638X0.0004*%
%ADD803R,0.0595X0.0004*%
D14*
X20157Y40315D02*
Y41102D01*
X21535Y42480D01*
X20157Y40315D02*
X21535Y38937D01*
X26654D01*
Y42480D01*
X21535D02*
X26654D01*
X20197Y10630D02*
Y11417D01*
X21575Y12795D01*
X20197Y10630D02*
X21575Y9252D01*
X26693D01*
Y12795D01*
X21575D02*
X26693D01*
X28602Y41763D02*
X28402D01*
X28502D01*
Y41263D01*
X28402Y41163D01*
X28302D01*
X28202Y41263D01*
X29102Y41163D02*
Y41763D01*
X28802Y41463D01*
X29202D01*
X14219Y37627D02*
X14019D01*
X14119D01*
Y37128D01*
X14019Y37028D01*
X13919D01*
X13819Y37128D01*
X14419Y37527D02*
X14519Y37627D01*
X14719D01*
X14819Y37527D01*
Y37427D01*
X14719Y37327D01*
X14619D01*
X14719D01*
X14819Y37227D01*
Y37128D01*
X14719Y37028D01*
X14519D01*
X14419Y37128D01*
X19612Y39773D02*
X19413D01*
X19512D01*
Y39273D01*
X19413Y39173D01*
X19313D01*
X19213Y39273D01*
X19812Y39173D02*
X20012D01*
X19912D01*
Y39773D01*
X19812Y39673D01*
X20312Y39173D02*
X20512D01*
X20412D01*
Y39773D01*
X20312Y39673D01*
X25646Y26484D02*
X25546Y26584D01*
X25346D01*
X25246Y26484D01*
Y26084D01*
X25346Y25984D01*
X25546D01*
X25646Y26084D01*
X26246Y26584D02*
X26046Y26484D01*
X25846Y26284D01*
Y26084D01*
X25946Y25984D01*
X26146D01*
X26246Y26084D01*
Y26184D01*
X26146Y26284D01*
X25846D01*
X25666Y27449D02*
X25566Y27549D01*
X25366D01*
X25266Y27449D01*
Y27049D01*
X25366Y26949D01*
X25566D01*
X25666Y27049D01*
X25866Y26949D02*
X26065D01*
X25966D01*
Y27549D01*
X25866Y27449D01*
X26665Y26949D02*
Y27549D01*
X26365Y27249D01*
X26765D01*
X25636Y29083D02*
X25536Y29182D01*
X25336D01*
X25236Y29083D01*
Y28683D01*
X25336Y28583D01*
X25536D01*
X25636Y28683D01*
X25836Y28583D02*
X26036D01*
X25936D01*
Y29182D01*
X25836Y29083D01*
X26336D02*
X26436Y29182D01*
X26636D01*
X26736Y29083D01*
Y28683D01*
X26636Y28583D01*
X26436D01*
X26336Y28683D01*
Y29083D01*
X25656Y29978D02*
X25556Y30078D01*
X25356D01*
X25256Y29978D01*
Y29578D01*
X25356Y29478D01*
X25556D01*
X25656Y29578D01*
X25856D02*
X25956Y29478D01*
X26156D01*
X26256Y29578D01*
Y29978D01*
X26156Y30078D01*
X25956D01*
X25856Y29978D01*
Y29878D01*
X25956Y29778D01*
X26256D01*
X25666Y30854D02*
X25566Y30954D01*
X25366D01*
X25266Y30854D01*
Y30454D01*
X25366Y30354D01*
X25566D01*
X25666Y30454D01*
X26265Y30954D02*
X25866D01*
Y30654D01*
X26065Y30754D01*
X26165D01*
X26265Y30654D01*
Y30454D01*
X26165Y30354D01*
X25966D01*
X25866Y30454D01*
X25666Y31779D02*
X25566Y31879D01*
X25366D01*
X25266Y31779D01*
Y31379D01*
X25366Y31280D01*
X25566D01*
X25666Y31379D01*
X26265Y31280D02*
X25866D01*
X26265Y31679D01*
Y31779D01*
X26165Y31879D01*
X25966D01*
X25866Y31779D01*
X26985Y30962D02*
X26885Y31062D01*
X26685D01*
X26585Y30962D01*
Y30563D01*
X26685Y30463D01*
X26885D01*
X26985Y30563D01*
X27184Y30463D02*
X27384D01*
X27284D01*
Y31062D01*
X27184Y30962D01*
X20651Y13740D02*
X20451D01*
X20551D01*
Y13241D01*
X20451Y13141D01*
X20351D01*
X20252Y13241D01*
X20851Y13141D02*
X21051D01*
X20951D01*
Y13740D01*
X20851Y13640D01*
X21751Y13141D02*
X21351D01*
X21751Y13541D01*
Y13640D01*
X21651Y13740D01*
X21451D01*
X21351Y13640D01*
X25433Y24891D02*
Y24391D01*
X25533Y24291D01*
X25733D01*
X25833Y24391D01*
Y24891D01*
X26033Y24791D02*
X26133Y24891D01*
X26333D01*
X26433Y24791D01*
Y24691D01*
X26333Y24591D01*
X26433Y24491D01*
Y24391D01*
X26333Y24291D01*
X26133D01*
X26033Y24391D01*
Y24491D01*
X26133Y24591D01*
X26033Y24691D01*
Y24791D01*
X26133Y24591D02*
X26333D01*
X25079Y21899D02*
Y21399D01*
X25179Y21299D01*
X25379D01*
X25479Y21399D01*
Y21899D01*
X26078D02*
X25878Y21799D01*
X25679Y21599D01*
Y21399D01*
X25779Y21299D01*
X25978D01*
X26078Y21399D01*
Y21499D01*
X25978Y21599D01*
X25679D01*
X19300Y19074D02*
Y18574D01*
X19400Y18474D01*
X19600D01*
X19700Y18574D01*
Y19074D01*
X20200Y18474D02*
Y19074D01*
X19900Y18774D01*
X20300D01*
X19305Y28911D02*
Y28411D01*
X19405Y28311D01*
X19605D01*
X19705Y28411D01*
Y28911D01*
X20305Y28311D02*
X19905D01*
X20305Y28711D01*
Y28811D01*
X20205Y28911D01*
X20005D01*
X19905Y28811D01*
X37788Y23537D02*
X37588D01*
X37688D01*
Y23037D01*
X37588Y22937D01*
X37488D01*
X37388Y23037D01*
X37988Y22937D02*
X38188D01*
X38088D01*
Y23537D01*
X37988Y23437D01*
X38488Y23537D02*
X38888D01*
Y23437D01*
X38488Y23037D01*
Y22937D01*
X9398Y23542D02*
X9198D01*
X9298D01*
Y23042D01*
X9198Y22942D01*
X9098D01*
X8998Y23042D01*
X9598Y22942D02*
X9798D01*
X9698D01*
Y23542D01*
X9598Y23442D01*
X10498Y23542D02*
X10298Y23442D01*
X10098Y23242D01*
Y23042D01*
X10198Y22942D01*
X10398D01*
X10498Y23042D01*
Y23142D01*
X10398Y23242D01*
X10098D01*
X37780Y18582D02*
X37581D01*
X37681D01*
Y18082D01*
X37581Y17982D01*
X37481D01*
X37381Y18082D01*
X37980Y17982D02*
X38180D01*
X38080D01*
Y18582D01*
X37980Y18482D01*
X38880Y18582D02*
X38480D01*
Y18282D01*
X38680Y18382D01*
X38780D01*
X38880Y18282D01*
Y18082D01*
X38780Y17982D01*
X38580D01*
X38480Y18082D01*
X37781Y21058D02*
X37581D01*
X37681D01*
Y20558D01*
X37581Y20458D01*
X37481D01*
X37381Y20558D01*
X37981Y20458D02*
X38181D01*
X38081D01*
Y21058D01*
X37981Y20958D01*
X38781Y20458D02*
Y21058D01*
X38481Y20758D01*
X38881D01*
X9360Y18621D02*
X9161D01*
X9261D01*
Y18121D01*
X9161Y18021D01*
X9061D01*
X8961Y18121D01*
X9560Y18021D02*
X9760D01*
X9660D01*
Y18621D01*
X9560Y18521D01*
X10060D02*
X10160Y18621D01*
X10360D01*
X10460Y18521D01*
Y18421D01*
X10360Y18321D01*
X10260D01*
X10360D01*
X10460Y18221D01*
Y18121D01*
X10360Y18021D01*
X10160D01*
X10060Y18121D01*
X9360Y21092D02*
X9160D01*
X9260D01*
Y20592D01*
X9160Y20492D01*
X9060D01*
X8960Y20592D01*
X9560Y20492D02*
X9760D01*
X9660D01*
Y21092D01*
X9560Y20992D01*
X10460Y20492D02*
X10060D01*
X10460Y20892D01*
Y20992D01*
X10360Y21092D01*
X10160D01*
X10060Y20992D01*
X40557Y22135D02*
X40357D01*
X40457D01*
Y21635D01*
X40357Y21535D01*
X40257D01*
X40157Y21635D01*
X40757Y21535D02*
X40957D01*
X40857D01*
Y22135D01*
X40757Y22035D01*
X41257D02*
X41357Y22135D01*
X41557D01*
X41657Y22035D01*
Y21635D01*
X41557Y21535D01*
X41357D01*
X41257Y21635D01*
Y22035D01*
X6605Y20833D02*
Y20633D01*
Y20733D01*
X7105D01*
X7205Y20633D01*
Y20533D01*
X7105Y20433D01*
Y21033D02*
X7205Y21133D01*
Y21333D01*
X7105Y21433D01*
X6705D01*
X6605Y21333D01*
Y21133D01*
X6705Y21033D01*
X6805D01*
X6905Y21133D01*
Y21433D01*
X40597Y19694D02*
X40397D01*
X40497D01*
Y19194D01*
X40397Y19094D01*
X40297D01*
X40197Y19194D01*
X40797Y19594D02*
X40897Y19694D01*
X41097D01*
X41197Y19594D01*
Y19494D01*
X41097Y19394D01*
X41197Y19294D01*
Y19194D01*
X41097Y19094D01*
X40897D01*
X40797Y19194D01*
Y19294D01*
X40897Y19394D01*
X40797Y19494D01*
Y19594D01*
X40897Y19394D02*
X41097D01*
X40479Y17608D02*
X40279D01*
X40379D01*
Y17108D01*
X40279Y17008D01*
X40179D01*
X40079Y17108D01*
X40679Y17608D02*
X41078D01*
Y17508D01*
X40679Y17108D01*
Y17008D01*
X6605Y18746D02*
Y18546D01*
Y18646D01*
X7105D01*
X7205Y18546D01*
Y18446D01*
X7105Y18346D01*
X7205Y19346D02*
Y18946D01*
X6805Y19346D01*
X6705D01*
X6605Y19246D01*
Y19046D01*
X6705Y18946D01*
X6644Y16660D02*
Y16460D01*
Y16560D01*
X7144D01*
X7244Y16460D01*
Y16360D01*
X7144Y16260D01*
X7244Y16860D02*
Y17060D01*
Y16960D01*
X6644D01*
X6744Y16860D01*
X39318Y31491D02*
X39218Y31591D01*
X39018D01*
X38918Y31491D01*
Y31091D01*
X39018Y30991D01*
X39218D01*
X39318Y31091D01*
X39518Y30991D02*
Y31591D01*
X39918Y30991D01*
Y31591D01*
X40118Y30991D02*
X40318D01*
X40218D01*
Y31591D01*
X40118Y31491D01*
X41018Y31591D02*
X40818Y31491D01*
X40618Y31291D01*
Y31091D01*
X40718Y30991D01*
X40918D01*
X41018Y31091D01*
Y31191D01*
X40918Y31291D01*
X40618D01*
X7782Y31523D02*
X7682Y31623D01*
X7483D01*
X7383Y31523D01*
Y31123D01*
X7483Y31023D01*
X7682D01*
X7782Y31123D01*
X7982Y31023D02*
Y31623D01*
X8382Y31023D01*
Y31623D01*
X8582Y31023D02*
X8782D01*
X8682D01*
Y31623D01*
X8582Y31523D01*
X9482Y31623D02*
X9082D01*
Y31323D01*
X9282Y31423D01*
X9382D01*
X9482Y31323D01*
Y31123D01*
X9382Y31023D01*
X9182D01*
X9082Y31123D01*
X40479Y28295D02*
X40379Y28395D01*
X40179D01*
X40079Y28295D01*
Y27895D01*
X40179Y27795D01*
X40379D01*
X40479Y27895D01*
X40679Y27795D02*
Y28395D01*
X41078Y27795D01*
Y28395D01*
X41278Y27795D02*
X41478D01*
X41378D01*
Y28395D01*
X41278Y28295D01*
X42078Y27795D02*
Y28395D01*
X41778Y28095D01*
X42178D01*
X7780Y29407D02*
X7680Y29507D01*
X7480D01*
X7380Y29407D01*
Y29007D01*
X7480Y28907D01*
X7680D01*
X7780Y29007D01*
X7980Y28907D02*
Y29507D01*
X8380Y28907D01*
Y29507D01*
X8579Y28907D02*
X8779D01*
X8679D01*
Y29507D01*
X8579Y29407D01*
X9079D02*
X9179Y29507D01*
X9379D01*
X9479Y29407D01*
Y29307D01*
X9379Y29207D01*
X9279D01*
X9379D01*
X9479Y29107D01*
Y29007D01*
X9379Y28907D01*
X9179D01*
X9079Y29007D01*
X40518Y26248D02*
X40418Y26348D01*
X40218D01*
X40118Y26248D01*
Y25848D01*
X40218Y25748D01*
X40418D01*
X40518Y25848D01*
X40718Y25748D02*
Y26348D01*
X41118Y25748D01*
Y26348D01*
X41318Y25748D02*
X41518D01*
X41418D01*
Y26348D01*
X41318Y26248D01*
X42217Y25748D02*
X41818D01*
X42217Y26148D01*
Y26248D01*
X42117Y26348D01*
X41918D01*
X41818Y26248D01*
X7782Y27272D02*
X7682Y27372D01*
X7482D01*
X7382Y27272D01*
Y26872D01*
X7482Y26772D01*
X7682D01*
X7782Y26872D01*
X7982Y26772D02*
Y27372D01*
X8382Y26772D01*
Y27372D01*
X8582Y26772D02*
X8782D01*
X8682D01*
Y27372D01*
X8582Y27272D01*
X9082Y26772D02*
X9282D01*
X9182D01*
Y27372D01*
X9082Y27272D01*
X40439Y24122D02*
X40339Y24222D01*
X40139D01*
X40039Y24122D01*
Y23722D01*
X40139Y23622D01*
X40339D01*
X40439Y23722D01*
X40639Y23622D02*
Y24222D01*
X41039Y23622D01*
Y24222D01*
X41239Y23622D02*
X41439D01*
X41339D01*
Y24222D01*
X41239Y24122D01*
X41739D02*
X41839Y24222D01*
X42039D01*
X42139Y24122D01*
Y23722D01*
X42039Y23622D01*
X41839D01*
X41739Y23722D01*
Y24122D01*
X7784Y25150D02*
X7684Y25250D01*
X7484D01*
X7384Y25150D01*
Y24750D01*
X7484Y24650D01*
X7684D01*
X7784Y24750D01*
X7984Y24650D02*
Y25250D01*
X8384Y24650D01*
Y25250D01*
X8583Y24750D02*
X8683Y24650D01*
X8883D01*
X8983Y24750D01*
Y25150D01*
X8883Y25250D01*
X8683D01*
X8583Y25150D01*
Y25050D01*
X8683Y24950D01*
X8983D01*
X32492Y27526D02*
X32392Y27426D01*
Y27226D01*
X32492Y27126D01*
X32892D01*
X32992Y27226D01*
Y27426D01*
X32892Y27526D01*
X32992Y27726D02*
X32392D01*
X32992Y28126D01*
X32392D01*
X32492Y28326D02*
X32392Y28426D01*
Y28626D01*
X32492Y28725D01*
X32592D01*
X32692Y28626D01*
X32792Y28725D01*
X32892D01*
X32992Y28626D01*
Y28426D01*
X32892Y28326D01*
X32792D01*
X32692Y28426D01*
X32592Y28326D01*
X32492D01*
X32692Y28426D02*
Y28626D01*
X13523Y23383D02*
X13423Y23482D01*
X13223D01*
X13123Y23383D01*
Y22983D01*
X13223Y22883D01*
X13423D01*
X13523Y22983D01*
X13723Y22883D02*
Y23482D01*
X14123Y22883D01*
Y23482D01*
X14323D02*
X14723D01*
Y23383D01*
X14323Y22983D01*
Y22883D01*
X32453Y25557D02*
X32353Y25457D01*
Y25257D01*
X32453Y25157D01*
X32853D01*
X32953Y25257D01*
Y25457D01*
X32853Y25557D01*
X32953Y25757D02*
X32353D01*
X32953Y26157D01*
X32353D01*
Y26757D02*
X32453Y26557D01*
X32653Y26357D01*
X32853D01*
X32953Y26457D01*
Y26657D01*
X32853Y26757D01*
X32753D01*
X32653Y26657D01*
Y26357D01*
X13530Y25506D02*
X13430Y25606D01*
X13230D01*
X13130Y25506D01*
Y25106D01*
X13230Y25006D01*
X13430D01*
X13530Y25106D01*
X13730Y25006D02*
Y25606D01*
X14130Y25006D01*
Y25606D01*
X14729D02*
X14330D01*
Y25306D01*
X14529Y25406D01*
X14629D01*
X14729Y25306D01*
Y25106D01*
X14629Y25006D01*
X14430D01*
X14330Y25106D01*
X32414Y23235D02*
X32314Y23135D01*
Y22935D01*
X32414Y22835D01*
X32813D01*
X32913Y22935D01*
Y23135D01*
X32813Y23235D01*
X32913Y23434D02*
X32314D01*
X32913Y23834D01*
X32314D01*
X32913Y24334D02*
X32314D01*
X32613Y24034D01*
Y24434D01*
X13526Y27632D02*
X13426Y27732D01*
X13226D01*
X13126Y27632D01*
Y27232D01*
X13226Y27132D01*
X13426D01*
X13526Y27232D01*
X13726Y27132D02*
Y27732D01*
X14126Y27132D01*
Y27732D01*
X14326Y27632D02*
X14426Y27732D01*
X14626D01*
X14726Y27632D01*
Y27532D01*
X14626Y27432D01*
X14526D01*
X14626D01*
X14726Y27332D01*
Y27232D01*
X14626Y27132D01*
X14426D01*
X14326Y27232D01*
X32453Y21187D02*
X32353Y21087D01*
Y20887D01*
X32453Y20787D01*
X32853D01*
X32953Y20887D01*
Y21087D01*
X32853Y21187D01*
X32953Y21387D02*
X32353D01*
X32953Y21787D01*
X32353D01*
X32953Y22387D02*
Y21987D01*
X32553Y22387D01*
X32453D01*
X32353Y22287D01*
Y22087D01*
X32453Y21987D01*
X13530Y29760D02*
X13430Y29860D01*
X13230D01*
X13130Y29760D01*
Y29360D01*
X13230Y29260D01*
X13430D01*
X13530Y29360D01*
X13730Y29260D02*
Y29860D01*
X14130Y29260D01*
Y29860D01*
X14330Y29260D02*
X14530D01*
X14430D01*
Y29860D01*
X14330Y29760D01*
X22630Y22703D02*
X22530Y22603D01*
Y22403D01*
X22630Y22303D01*
X23030D01*
X23130Y22403D01*
Y22603D01*
X23030Y22703D01*
X23130Y22903D02*
Y23103D01*
Y23003D01*
X22530D01*
X22630Y22903D01*
X22530Y23803D02*
X22630Y23603D01*
X22830Y23403D01*
X23030D01*
X23130Y23503D01*
Y23703D01*
X23030Y23803D01*
X22930D01*
X22830Y23703D01*
Y23403D01*
X25636Y28305D02*
X25536Y28405D01*
X25336D01*
X25236Y28305D01*
Y27905D01*
X25336Y27805D01*
X25536D01*
X25636Y27905D01*
X25836Y27805D02*
X26036D01*
X25936D01*
Y28405D01*
X25836Y28305D01*
X26336D02*
X26436Y28405D01*
X26636D01*
X26736Y28305D01*
Y28205D01*
X26636Y28105D01*
X26536D01*
X26636D01*
X26736Y28005D01*
Y27905D01*
X26636Y27805D01*
X26436D01*
X26336Y27905D01*
X22797Y19593D02*
X22697Y19493D01*
Y19293D01*
X22797Y19193D01*
X23197D01*
X23297Y19293D01*
Y19493D01*
X23197Y19593D01*
X23297Y19793D02*
Y19993D01*
Y19893D01*
X22697D01*
X22797Y19793D01*
X23297Y20692D02*
Y20293D01*
X22897Y20692D01*
X22797D01*
X22697Y20592D01*
Y20393D01*
X22797Y20293D01*
X23022Y18361D02*
X22922Y18461D01*
X22722D01*
X22623Y18361D01*
Y17961D01*
X22722Y17861D01*
X22922D01*
X23022Y17961D01*
X23222Y18361D02*
X23322Y18461D01*
X23522D01*
X23622Y18361D01*
Y18261D01*
X23522Y18161D01*
X23622Y18061D01*
Y17961D01*
X23522Y17861D01*
X23322D01*
X23222Y17961D01*
Y18061D01*
X23322Y18161D01*
X23222Y18261D01*
Y18361D01*
X23322Y18161D02*
X23522D01*
X23022Y28201D02*
X22922Y28301D01*
X22722D01*
X22622Y28201D01*
Y27802D01*
X22722Y27702D01*
X22922D01*
X23022Y27802D01*
X23522Y27702D02*
Y28301D01*
X23222Y28001D01*
X23622D01*
D15*
X37323Y17638D02*
X38425D01*
Y15551D02*
Y17638D01*
X37323Y15551D02*
X38425D01*
X37323D02*
Y17638D01*
Y20118D02*
X38425D01*
Y18032D02*
Y20118D01*
X37323Y18032D02*
X38425D01*
X37323D02*
Y20118D01*
X8898Y17677D02*
X10000D01*
Y15591D02*
Y17677D01*
X8898Y15591D02*
X10000D01*
X8898D02*
Y17677D01*
Y20157D02*
X10000D01*
Y18071D02*
Y20157D01*
X8898Y18071D02*
X10000D01*
X8898D02*
Y20157D01*
X37323Y20512D02*
X38425D01*
X37323D02*
Y22598D01*
X38425D01*
Y20512D02*
Y22598D01*
X8937Y20512D02*
X10039D01*
X8937D02*
Y22598D01*
X10039D01*
Y20512D02*
Y22598D01*
X20551Y25827D02*
Y27795D01*
X21181Y25827D02*
Y27795D01*
X20551D02*
X21181D01*
X20551Y25827D02*
X21181D01*
X20551Y15984D02*
Y17953D01*
X21181Y15984D02*
Y17953D01*
X20551D02*
X21181D01*
X20551Y15984D02*
X21181D01*
X7283Y17795D02*
X8386D01*
X7283D02*
Y19882D01*
X8386D01*
Y17795D02*
Y19882D01*
X7283Y15591D02*
X8386D01*
X7283D02*
Y17677D01*
X8386D01*
Y15591D02*
Y17677D01*
X7283Y20000D02*
X8386D01*
X7283D02*
Y22087D01*
X8386D01*
Y20000D02*
Y22087D01*
X38819Y19961D02*
X39921D01*
X38819D02*
Y22047D01*
X39921D01*
Y19961D02*
Y22047D01*
X38819Y17756D02*
X39921D01*
X38819D02*
Y19843D01*
X39921D01*
Y17756D02*
Y19843D01*
X38819Y15551D02*
X39921D01*
X38819D02*
Y17638D01*
X39921D01*
Y15551D02*
Y17638D01*
X26693Y19173D02*
Y21142D01*
X26063Y19173D02*
Y21142D01*
Y19173D02*
X26693D01*
X26063Y21142D02*
X26693D01*
Y21969D02*
Y23937D01*
X26063Y21969D02*
Y23937D01*
Y21969D02*
X26693D01*
X26063Y23937D02*
X26693D01*
D36*
X20157Y35866D02*
Y36161D01*
X20010Y36014D01*
X20207D01*
X20305Y36112D02*
X20354Y36161D01*
X20453D01*
X20502Y36112D01*
Y36063D01*
X20453Y36014D01*
X20502Y35965D01*
Y35915D01*
X20453Y35866D01*
X20354D01*
X20305Y35915D01*
Y35965D01*
X20354Y36014D01*
X20305Y36063D01*
Y36112D01*
X20354Y36014D02*
X20453D01*
X20895D02*
X21092D01*
X21486Y35866D02*
X21584D01*
X21535D01*
Y36161D01*
X21486Y36112D01*
X21929Y35866D02*
X21732D01*
X21929Y36063D01*
Y36112D01*
X21879Y36161D01*
X21781D01*
X21732Y36112D01*
X22027Y36161D02*
Y35965D01*
X22125Y35866D01*
X22224Y35965D01*
Y36161D01*
X22617Y35768D02*
Y36063D01*
X22765D01*
X22814Y36014D01*
Y35915D01*
X22765Y35866D01*
X22617D01*
X22962D02*
X23060D01*
X23109Y35915D01*
Y36014D01*
X23060Y36063D01*
X22962D01*
X22912Y36014D01*
Y35915D01*
X22962Y35866D01*
X23208Y36063D02*
Y35915D01*
X23257Y35866D01*
X23306Y35915D01*
X23355Y35866D01*
X23404Y35915D01*
Y36063D01*
X23650Y35866D02*
X23552D01*
X23503Y35915D01*
Y36014D01*
X23552Y36063D01*
X23650D01*
X23700Y36014D01*
Y35965D01*
X23503D01*
X23798Y36063D02*
Y35866D01*
Y35965D01*
X23847Y36014D01*
X23896Y36063D01*
X23946D01*
X24388Y35866D02*
X24536D01*
X24585Y35915D01*
X24536Y35965D01*
X24438D01*
X24388Y36014D01*
X24438Y36063D01*
X24585D01*
X24684D02*
Y35915D01*
X24733Y35866D01*
X24880D01*
Y36063D01*
X24979Y35768D02*
Y36063D01*
X25126D01*
X25176Y36014D01*
Y35915D01*
X25126Y35866D01*
X24979D01*
X25274Y35768D02*
Y36063D01*
X25421D01*
X25471Y36014D01*
Y35915D01*
X25421Y35866D01*
X25274D01*
X25569D02*
X25667D01*
X25618D01*
Y36161D01*
X25569D01*
X25815Y35866D02*
X25913D01*
X25864D01*
Y36063D01*
X25815D01*
X26209Y35866D02*
X26110D01*
X26061Y35915D01*
Y36014D01*
X26110Y36063D01*
X26209D01*
X26258Y36014D01*
Y35965D01*
X26061D01*
X26356Y35866D02*
X26504D01*
X26553Y35915D01*
X26504Y35965D01*
X26405D01*
X26356Y36014D01*
X26405Y36063D01*
X26553D01*
X20197Y36565D02*
X20148Y36614D01*
X20049D01*
X20000Y36565D01*
Y36368D01*
X20049Y36319D01*
X20148D01*
X20197Y36368D01*
X20344Y36516D02*
X20443D01*
X20492Y36466D01*
Y36319D01*
X20344D01*
X20295Y36368D01*
X20344Y36417D01*
X20492D01*
X20590Y36516D02*
Y36319D01*
Y36417D01*
X20640Y36466D01*
X20689Y36516D01*
X20738D01*
X20886D02*
Y36319D01*
Y36417D01*
X20935Y36466D01*
X20984Y36516D01*
X21033D01*
X21181Y36319D02*
X21279D01*
X21230D01*
Y36516D01*
X21181D01*
X21574Y36319D02*
X21476D01*
X21427Y36368D01*
Y36466D01*
X21476Y36516D01*
X21574D01*
X21623Y36466D01*
Y36417D01*
X21427D01*
X21722Y36516D02*
Y36319D01*
Y36417D01*
X21771Y36466D01*
X21820Y36516D01*
X21869D01*
X22312Y36614D02*
Y36319D01*
X22460D01*
X22509Y36368D01*
Y36417D01*
Y36466D01*
X22460Y36516D01*
X22312D01*
X22657Y36319D02*
X22755D01*
X22804Y36368D01*
Y36466D01*
X22755Y36516D01*
X22657D01*
X22607Y36466D01*
Y36368D01*
X22657Y36319D01*
X22952Y36516D02*
X23050D01*
X23099Y36466D01*
Y36319D01*
X22952D01*
X22903Y36368D01*
X22952Y36417D01*
X23099D01*
X23198Y36516D02*
Y36319D01*
Y36417D01*
X23247Y36466D01*
X23296Y36516D01*
X23345D01*
X23690Y36614D02*
Y36319D01*
X23542D01*
X23493Y36368D01*
Y36466D01*
X23542Y36516D01*
X23690D01*
X24133Y36319D02*
Y36565D01*
Y36466D01*
X24083D01*
X24182D01*
X24133D01*
Y36565D01*
X24182Y36614D01*
X24379Y36319D02*
X24477D01*
X24526Y36368D01*
Y36466D01*
X24477Y36516D01*
X24379D01*
X24329Y36466D01*
Y36368D01*
X24379Y36319D01*
X24625Y36516D02*
Y36319D01*
Y36417D01*
X24674Y36466D01*
X24723Y36516D01*
X24772D01*
X25412Y36565D02*
X25362Y36614D01*
X25264D01*
X25215Y36565D01*
Y36516D01*
X25264Y36466D01*
X25362D01*
X25412Y36417D01*
Y36368D01*
X25362Y36319D01*
X25264D01*
X25215Y36368D01*
X25658Y36614D02*
X25559D01*
X25510Y36565D01*
Y36368D01*
X25559Y36319D01*
X25658D01*
X25707Y36368D01*
Y36565D01*
X25658Y36614D01*
X25805D02*
Y36319D01*
X25953D01*
X26002Y36368D01*
Y36565D01*
X25953Y36614D01*
X25805D01*
X26100D02*
X26199D01*
X26150D01*
Y36319D01*
X26100D01*
X26199D01*
X26346D02*
Y36614D01*
X26445Y36516D01*
X26543Y36614D01*
Y36319D01*
X26642D02*
Y36614D01*
X26740Y36516D01*
X26838Y36614D01*
Y36319D01*
X19990Y37087D02*
Y36841D01*
X20039Y36791D01*
X20138D01*
X20187Y36841D01*
Y37087D01*
X20285Y36791D02*
Y37087D01*
X20433D01*
X20482Y37037D01*
Y36939D01*
X20433Y36890D01*
X20285D01*
X20384D02*
X20482Y36791D01*
X20728Y37087D02*
X20630D01*
X20581Y37037D01*
Y36841D01*
X20630Y36791D01*
X20728D01*
X20777Y36841D01*
Y37037D01*
X20728Y37087D01*
X20876D02*
Y36890D01*
X20974Y36791D01*
X21072Y36890D01*
Y37087D01*
X21466Y36791D02*
X21564D01*
X21515D01*
Y37087D01*
X21466Y37037D01*
X21712Y36841D02*
X21761Y36791D01*
X21860D01*
X21909Y36841D01*
Y37037D01*
X21860Y37087D01*
X21761D01*
X21712Y37037D01*
Y36988D01*
X21761Y36939D01*
X21909D01*
X22302D02*
X22499D01*
X23090Y36791D02*
X22893D01*
X23090Y36988D01*
Y37037D01*
X23040Y37087D01*
X22942D01*
X22893Y37037D01*
X23188D02*
X23237Y37087D01*
X23336D01*
X23385Y37037D01*
Y36841D01*
X23336Y36791D01*
X23237D01*
X23188Y36841D01*
Y37037D01*
X23532Y36742D02*
X23582Y36791D01*
Y36841D01*
X23532D01*
Y36791D01*
X23582D01*
X23532Y36742D01*
X23483Y36693D01*
X24270Y37087D02*
X24172D01*
X24221D01*
Y36841D01*
X24172Y36791D01*
X24123D01*
X24073Y36841D01*
X24418Y36988D02*
X24516D01*
X24565Y36939D01*
Y36791D01*
X24418D01*
X24369Y36841D01*
X24418Y36890D01*
X24565D01*
X24664Y36791D02*
Y36988D01*
X24811D01*
X24861Y36939D01*
Y36791D01*
X25008Y36742D02*
X25057Y36791D01*
Y36841D01*
X25008D01*
Y36791D01*
X25057D01*
X25008Y36742D01*
X24959Y36693D01*
X25746Y36791D02*
X25549D01*
X25746Y36988D01*
Y37037D01*
X25697Y37087D01*
X25599D01*
X25549Y37037D01*
X25845D02*
X25894Y37087D01*
X25992D01*
X26041Y37037D01*
Y36841D01*
X25992Y36791D01*
X25894D01*
X25845Y36841D01*
Y37037D01*
X26337Y36791D02*
X26140D01*
X26337Y36988D01*
Y37037D01*
X26287Y37087D01*
X26189D01*
X26140Y37037D01*
X26435D02*
X26484Y37087D01*
X26583D01*
X26632Y37037D01*
Y36841D01*
X26583Y36791D01*
X26484D01*
X26435Y36841D01*
Y37037D01*
X20030Y37648D02*
Y37402D01*
X20079Y37352D01*
X20177D01*
X20226Y37402D01*
Y37648D01*
X20325Y37352D02*
Y37648D01*
X20472D01*
X20522Y37598D01*
Y37500D01*
X20472Y37451D01*
X20325D01*
X20423D02*
X20522Y37352D01*
X20767Y37648D02*
X20669D01*
X20620Y37598D01*
Y37402D01*
X20669Y37352D01*
X20767D01*
X20817Y37402D01*
Y37598D01*
X20767Y37648D01*
X20915D02*
Y37451D01*
X21013Y37352D01*
X21112Y37451D01*
Y37648D01*
X21210Y37303D02*
X21407D01*
X21505Y37352D02*
Y37648D01*
X21653D01*
X21702Y37598D01*
Y37500D01*
X21653Y37451D01*
X21505D01*
X21997Y37598D02*
X21948Y37648D01*
X21850D01*
X21801Y37598D01*
Y37549D01*
X21850Y37500D01*
X21948D01*
X21997Y37451D01*
Y37402D01*
X21948Y37352D01*
X21850D01*
X21801Y37402D01*
X22293Y37598D02*
X22243Y37648D01*
X22145D01*
X22096Y37598D01*
Y37402D01*
X22145Y37352D01*
X22243D01*
X22293Y37402D01*
X22440Y37549D02*
X22539D01*
X22588Y37500D01*
Y37352D01*
X22440D01*
X22391Y37402D01*
X22440Y37451D01*
X22588D01*
X22686Y37549D02*
Y37352D01*
Y37451D01*
X22735Y37500D01*
X22785Y37549D01*
X22834D01*
X22981D02*
Y37352D01*
Y37451D01*
X23031Y37500D01*
X23080Y37549D01*
X23129D01*
X23277Y37352D02*
X23375D01*
X23326D01*
Y37549D01*
X23277D01*
X23670Y37352D02*
X23572D01*
X23523Y37402D01*
Y37500D01*
X23572Y37549D01*
X23670D01*
X23719Y37500D01*
Y37451D01*
X23523D01*
X23818Y37549D02*
Y37352D01*
Y37451D01*
X23867Y37500D01*
X23916Y37549D01*
X23965D01*
X20246Y38602D02*
X20148D01*
X20197D01*
Y38356D01*
X20148Y38307D01*
X20098D01*
X20049Y38356D01*
X20394Y38307D02*
X20492D01*
X20541Y38356D01*
Y38455D01*
X20492Y38504D01*
X20394D01*
X20344Y38455D01*
Y38356D01*
X20394Y38307D01*
X20640Y38504D02*
Y38307D01*
Y38405D01*
X20689Y38455D01*
X20738Y38504D01*
X20787D01*
X20935Y38307D02*
X21033D01*
X20984D01*
Y38504D01*
X20935D01*
X21230D02*
X21328D01*
X21378Y38455D01*
Y38307D01*
X21230D01*
X21181Y38356D01*
X21230Y38405D01*
X21378D01*
X21476Y38307D02*
Y38504D01*
X21624D01*
X21673Y38455D01*
Y38307D01*
X22066Y38602D02*
Y38307D01*
X22214D01*
X22263Y38356D01*
Y38405D01*
X22214Y38455D01*
X22066D01*
X22214D01*
X22263Y38504D01*
Y38553D01*
X22214Y38602D01*
X22066D01*
X22361Y38504D02*
Y38307D01*
Y38405D01*
X22411Y38455D01*
X22460Y38504D01*
X22509D01*
X22657D02*
Y38356D01*
X22706Y38307D01*
X22853D01*
Y38504D01*
X22952Y38307D02*
X23099D01*
X23149Y38356D01*
X23099Y38405D01*
X23001D01*
X22952Y38455D01*
X23001Y38504D01*
X23149D01*
X23247Y38307D02*
X23345D01*
X23296D01*
Y38602D01*
X23247D01*
X23493Y38307D02*
X23591D01*
X23542D01*
Y38504D01*
X23493D01*
X23739Y38307D02*
Y38504D01*
X23887D01*
X23936Y38455D01*
Y38307D01*
X24231Y38602D02*
Y38307D01*
X24083D01*
X24034Y38356D01*
Y38455D01*
X24083Y38504D01*
X24231D01*
X20020Y38179D02*
Y37884D01*
X20167D01*
X20216Y37933D01*
Y37982D01*
X20167Y38031D01*
X20020D01*
X20167D01*
X20216Y38081D01*
Y38130D01*
X20167Y38179D01*
X20020D01*
X20462Y37884D02*
X20364D01*
X20315Y37933D01*
Y38031D01*
X20364Y38081D01*
X20462D01*
X20512Y38031D01*
Y37982D01*
X20315D01*
X20610Y37884D02*
Y38081D01*
X20758D01*
X20807Y38031D01*
Y37884D01*
X20905Y37785D02*
X20954D01*
X21004Y37835D01*
Y38081D01*
X21250D02*
X21348D01*
X21397Y38031D01*
Y37884D01*
X21250D01*
X21200Y37933D01*
X21250Y37982D01*
X21397D01*
X21496Y37884D02*
Y38081D01*
X21545D01*
X21594Y38031D01*
Y37884D01*
Y38031D01*
X21643Y38081D01*
X21692Y38031D01*
Y37884D01*
X21791D02*
X21889D01*
X21840D01*
Y38081D01*
X21791D01*
X22037Y37884D02*
Y38081D01*
X22184D01*
X22234Y38031D01*
Y37884D01*
X22824Y38130D02*
X22775Y38179D01*
X22676D01*
X22627Y38130D01*
Y37933D01*
X22676Y37884D01*
X22775D01*
X22824Y37933D01*
Y38031D01*
X22726D01*
X22922Y38081D02*
Y37884D01*
Y37982D01*
X22971Y38031D01*
X23021Y38081D01*
X23070D01*
X23365Y37884D02*
X23267D01*
X23217Y37933D01*
Y38031D01*
X23267Y38081D01*
X23365D01*
X23414Y38031D01*
Y37982D01*
X23217D01*
X23660Y37884D02*
X23562D01*
X23513Y37933D01*
Y38031D01*
X23562Y38081D01*
X23660D01*
X23709Y38031D01*
Y37982D01*
X23513D01*
X23808Y37884D02*
Y38081D01*
X23955D01*
X24005Y38031D01*
Y37884D01*
X19478Y35541D02*
Y35394D01*
X19528Y35344D01*
X19577Y35394D01*
X19626Y35344D01*
X19675Y35394D01*
Y35541D01*
X19774Y35344D02*
X19872D01*
X19823D01*
Y35541D01*
X19774D01*
X20069Y35590D02*
Y35541D01*
X20020D01*
X20118D01*
X20069D01*
Y35394D01*
X20118Y35344D01*
X20266Y35640D02*
Y35344D01*
Y35492D01*
X20315Y35541D01*
X20413D01*
X20462Y35492D01*
Y35344D01*
X20856Y35246D02*
Y35541D01*
X21003D01*
X21053Y35492D01*
Y35394D01*
X21003Y35344D01*
X20856D01*
X21200D02*
X21299D01*
X21348Y35394D01*
Y35492D01*
X21299Y35541D01*
X21200D01*
X21151Y35492D01*
Y35394D01*
X21200Y35344D01*
X21446D02*
X21594D01*
X21643Y35394D01*
X21594Y35443D01*
X21495D01*
X21446Y35492D01*
X21495Y35541D01*
X21643D01*
X21741Y35344D02*
X21889D01*
X21938Y35394D01*
X21889Y35443D01*
X21791D01*
X21741Y35492D01*
X21791Y35541D01*
X21938D01*
X22037Y35344D02*
X22135D01*
X22086D01*
Y35541D01*
X22037D01*
X22283Y35640D02*
Y35344D01*
X22430D01*
X22479Y35394D01*
Y35443D01*
Y35492D01*
X22430Y35541D01*
X22283D01*
X22578Y35344D02*
X22676D01*
X22627D01*
Y35640D01*
X22578D01*
X22971Y35344D02*
X22873D01*
X22824Y35394D01*
Y35492D01*
X22873Y35541D01*
X22971D01*
X23021Y35492D01*
Y35443D01*
X22824D01*
X23611Y35541D02*
X23463D01*
X23414Y35492D01*
Y35394D01*
X23463Y35344D01*
X23611D01*
X23709Y35541D02*
Y35394D01*
X23758Y35344D01*
X23906D01*
Y35541D01*
X24004D02*
Y35344D01*
Y35443D01*
X24054Y35492D01*
X24103Y35541D01*
X24152D01*
X24300D02*
Y35344D01*
Y35443D01*
X24349Y35492D01*
X24398Y35541D01*
X24447D01*
X24742Y35344D02*
X24644D01*
X24595Y35394D01*
Y35492D01*
X24644Y35541D01*
X24742D01*
X24792Y35492D01*
Y35443D01*
X24595D01*
X24890Y35344D02*
Y35541D01*
X25038D01*
X25087Y35492D01*
Y35344D01*
X25234Y35590D02*
Y35541D01*
X25185D01*
X25284D01*
X25234D01*
Y35394D01*
X25284Y35344D01*
X25726D02*
X25874D01*
X25923Y35394D01*
X25874Y35443D01*
X25776D01*
X25726Y35492D01*
X25776Y35541D01*
X25923D01*
X26022Y35640D02*
Y35344D01*
Y35492D01*
X26071Y35541D01*
X26169D01*
X26218Y35492D01*
Y35344D01*
X26366Y35541D02*
X26464D01*
X26513Y35492D01*
Y35344D01*
X26366D01*
X26317Y35394D01*
X26366Y35443D01*
X26513D01*
X26612Y35541D02*
Y35344D01*
Y35443D01*
X26661Y35492D01*
X26710Y35541D01*
X26759D01*
X26907Y35344D02*
X27005D01*
X26956D01*
Y35541D01*
X26907D01*
X27153Y35344D02*
Y35541D01*
X27301D01*
X27350Y35492D01*
Y35344D01*
X27547Y35246D02*
X27596D01*
X27645Y35295D01*
Y35541D01*
X27497D01*
X27448Y35492D01*
Y35394D01*
X27497Y35344D01*
X27645D01*
D41*
X19951Y27915D02*
G03*
X19951Y27915I-49J0D01*
G01*
Y18073D02*
G03*
X19951Y18073I-49J0D01*
G01*
X27392Y19053D02*
G03*
X27392Y19053I-49J0D01*
G01*
Y21848D02*
G03*
X27392Y21848I-49J0D01*
G01*
D42*
X7305Y22265D02*
Y24325D01*
Y22265D02*
X8365D01*
Y24325D01*
X7305D02*
X8365D01*
X7305Y24391D02*
Y26451D01*
Y24391D02*
X8365D01*
Y26451D01*
X7305D02*
X8365D01*
X7305Y26517D02*
Y28577D01*
Y26517D02*
X8365D01*
Y28577D01*
X7305D02*
X8365D01*
X38840Y28604D02*
Y30664D01*
Y28604D02*
X39900D01*
Y30664D01*
X38840D02*
X39900D01*
X7305Y28643D02*
Y30703D01*
Y28643D02*
X8365D01*
Y30703D01*
X7305D02*
X8365D01*
X22545Y26241D02*
Y26661D01*
Y26961D02*
Y27381D01*
X23045D01*
Y26961D02*
Y27381D01*
Y26241D02*
Y26661D01*
X22545Y26241D02*
X23045D01*
X22545Y16399D02*
Y16818D01*
Y17119D02*
Y17538D01*
X23045D01*
Y17119D02*
Y17538D01*
Y16399D02*
Y16818D01*
X22545Y16399D02*
X23045D01*
X13053Y26872D02*
Y28932D01*
Y26872D02*
X14113D01*
Y28932D01*
X13053D02*
X14113D01*
X13053Y24746D02*
Y26806D01*
Y24746D02*
X14113D01*
Y26806D01*
X13053D02*
X14113D01*
X13053Y22620D02*
Y24680D01*
Y22620D02*
X14113D01*
Y24680D01*
X13053D02*
X14113D01*
X13053Y20494D02*
Y22554D01*
Y20494D02*
X14113D01*
Y22554D01*
X13053D02*
X14113D01*
X33092Y24746D02*
Y26806D01*
Y24746D02*
X34152D01*
Y26806D01*
X33092D02*
X34152D01*
X33092Y26872D02*
Y28932D01*
Y26872D02*
X34152D01*
Y28932D01*
X33092D02*
X34152D01*
X33092Y22620D02*
Y24680D01*
Y22620D02*
X34152D01*
Y24680D01*
X33092D02*
X34152D01*
X33092Y20494D02*
Y22554D01*
Y20494D02*
X34152D01*
Y22554D01*
X33092D02*
X34152D01*
X38840Y22226D02*
Y24286D01*
Y22226D02*
X39900D01*
Y24286D01*
X38840D02*
X39900D01*
X38840Y24352D02*
Y26412D01*
Y24352D02*
X39900D01*
Y26412D01*
X38840D02*
X39900D01*
X38840Y26478D02*
Y28538D01*
Y26478D02*
X39900D01*
Y28538D01*
X38840D02*
X39900D01*
X24699Y20307D02*
Y20727D01*
Y19587D02*
Y20007D01*
X24199Y19587D02*
X24699D01*
X24199D02*
Y20007D01*
Y20307D02*
Y20727D01*
X24699D01*
Y23103D02*
Y23523D01*
Y22383D02*
Y22803D01*
X24199Y22383D02*
X24699D01*
X24199D02*
Y22803D01*
Y23103D02*
Y23523D01*
X24699D01*
X8785Y22745D02*
Y22845D01*
Y22795D01*
X8485D01*
X8535Y22745D01*
X8785Y24871D02*
Y24971D01*
Y24921D01*
X8485D01*
X8535Y24871D01*
X8785Y26997D02*
Y27097D01*
Y27047D01*
X8485D01*
X8535Y26997D01*
X40320Y29084D02*
Y29184D01*
Y29134D01*
X40020D01*
X40070Y29084D01*
X8785Y29123D02*
Y29223D01*
Y29173D01*
X8485D01*
X8535Y29123D01*
X14533Y27352D02*
Y27452D01*
Y27402D01*
X14233D01*
X14283Y27352D01*
X14533Y25226D02*
Y25326D01*
Y25276D01*
X14233D01*
X14283Y25226D01*
X14533Y23100D02*
Y23200D01*
Y23150D01*
X14233D01*
X14283Y23100D01*
X14533Y20974D02*
Y21074D01*
Y21024D01*
X14233D01*
X14283Y20974D01*
X34572Y25226D02*
Y25326D01*
Y25276D01*
X34272D01*
X34322Y25226D01*
X34572Y27352D02*
Y27452D01*
Y27402D01*
X34272D01*
X34322Y27352D01*
X34572Y23100D02*
Y23200D01*
Y23150D01*
X34272D01*
X34322Y23100D01*
X34572Y20974D02*
Y21074D01*
Y21024D01*
X34272D01*
X34322Y20974D01*
X40320Y22706D02*
Y22806D01*
Y22756D01*
X40020D01*
X40070Y22706D01*
X40320Y24832D02*
Y24932D01*
Y24882D01*
X40020D01*
X40070Y24832D01*
X40320Y26958D02*
Y27058D01*
Y27008D01*
X40020D01*
X40070Y26958D01*
D43*
X21654Y33209D02*
X21654Y33209D01*
X21654D01*
X21654Y33209D01*
Y33209D01*
X21654Y33209D01*
X21654D01*
X21654Y33209D01*
X21654Y33209D02*
X21654D01*
Y33209D01*
X21654D01*
Y33209D01*
Y33209D02*
X21654D01*
Y33209D01*
X21654D01*
Y33209D01*
X21654Y33209D02*
X21654Y33209D01*
X21654Y33209D02*
Y33209D01*
X21654Y33209D01*
X21654D01*
X21654Y33209D01*
Y33209D01*
X21654Y33209D02*
X21654D01*
X21654Y33209D01*
X21654Y33209D01*
X21654D01*
X21654Y33209D01*
X21654Y33209D01*
X21654D01*
X21654Y33209D02*
X21654D01*
X21654Y33209D01*
Y33209D01*
X21654Y33209D01*
X21654D01*
X21654Y33209D01*
Y33209D01*
X21654D01*
X21655Y33209D02*
Y33209D01*
Y33209D01*
X21655Y33209D01*
X21655Y33209D01*
X21655D01*
X21655Y33209D02*
X21655D01*
X21655Y33209D01*
X21655Y33209D01*
X21655D01*
X21655Y33209D01*
X21655Y33209D01*
X21655D01*
X21655Y33209D02*
X21655Y33209D01*
X21655Y33209D02*
X21655D01*
X21655D01*
Y33209D01*
X21655Y33209D01*
X21655D01*
X21655Y33209D01*
X21655Y33209D02*
X21655D01*
X21655Y33209D01*
Y33209D01*
X21655Y33209D01*
X21655D01*
X21655Y33209D01*
Y33209D01*
X21655Y33209D01*
X21655Y33209D02*
Y33209D01*
Y33209D01*
X21655Y33209D01*
X21655Y33209D01*
X21655D01*
X21656Y33209D02*
X21656D01*
X21656D01*
Y33209D01*
X21656D01*
X21656D02*
X21656D01*
X21656Y33209D01*
Y33209D01*
X21656D01*
X21656Y33209D01*
X21656Y33209D01*
X21656D01*
X21656Y33209D02*
Y33209D01*
X21656D01*
X21656Y33209D01*
Y33209D01*
X21656Y33209D02*
Y33209D01*
X21656D01*
X21656Y33209D01*
Y33209D01*
X21656Y33209D01*
X21656D01*
X21656D01*
X21656Y33209D01*
Y33209D01*
X21656Y33209D01*
X21656D01*
X21656Y33209D02*
Y33209D01*
Y33209D01*
X21656Y33209D01*
X21656Y33209D01*
X21656D01*
X21657D02*
Y33209D01*
X21657Y33209D01*
X21657D01*
Y33209D01*
X21657Y33209D02*
X21657D01*
X21657Y33209D01*
X21657Y33209D01*
X21657D01*
X21657Y33209D01*
X21657Y33209D01*
X21657D01*
X21657Y33209D02*
X21657D01*
X21657D01*
Y33209D01*
X21657D01*
X21657Y33209D02*
X21657D01*
X21657D01*
Y33209D01*
X21657D01*
X21657Y33209D02*
Y33209D01*
X21657D01*
X21657Y33209D01*
Y33209D01*
X21657Y33209D02*
Y33209D01*
X21657D01*
X21657Y33209D01*
Y33209D01*
X21657Y33209D01*
X21657D01*
X21658Y33209D02*
X21658Y33209D01*
X21658Y33209D02*
Y33209D01*
X21658D01*
X21658Y33209D01*
Y33209D01*
X21658Y33209D01*
X21658D01*
X21658Y33209D02*
X21658D01*
X21658Y33209D01*
Y33209D01*
X21658Y33209D01*
X21658D01*
X21658Y33209D01*
Y33209D01*
X21658Y33209D01*
X21658Y33209D02*
X21658D01*
X21658Y33209D01*
Y33209D01*
X21658Y33209D01*
X21658D01*
X21658Y33209D02*
Y33209D01*
X21658Y33209D01*
X21658D01*
Y33209D01*
X21658Y33209D02*
Y33209D01*
X21658D01*
X21658Y33209D01*
Y33209D01*
Y33209D01*
X21658Y33209D01*
X21658Y33209D01*
Y33209D01*
X21659D02*
X21659D01*
X21659Y33209D01*
Y33209D01*
X21659Y33209D01*
X21659D01*
X21659Y33209D01*
Y33209D01*
X21659D01*
X21659Y33209D02*
Y33209D01*
X21659D01*
X21659Y33209D01*
Y33209D01*
X21659Y33209D02*
Y33209D01*
X21659D01*
X21659D01*
X21659D01*
Y33209D01*
X21659Y33209D01*
X21659D02*
X21659D01*
X21659Y33209D01*
X21659Y33209D01*
X21659D01*
X21659Y33209D01*
X21659Y33209D01*
X21659D01*
X21659Y33209D02*
X21659Y33209D01*
X21659Y33209D02*
X21659Y33209D01*
X21659D01*
X21659Y33209D01*
Y33209D01*
X21659Y33209D01*
X21659D01*
X21659Y33209D01*
Y33209D01*
X21659D01*
X21660Y33209D02*
X21660D01*
X21660D01*
Y33209D01*
X21660D01*
X21660Y33209D02*
Y33209D01*
X21660D01*
X21660D01*
X21660D01*
Y33209D01*
X21660Y33209D01*
X21660Y33209D02*
Y33209D01*
Y33209D01*
X21660D01*
Y33209D01*
Y33209D01*
X21660Y33209D02*
Y33209D01*
X21660Y33209D01*
X21660D01*
Y33209D01*
X21660Y33209D02*
Y33209D01*
X21660D01*
X21660Y33209D01*
Y33209D01*
Y33209D01*
X21660Y33209D01*
X21660D01*
X21660Y33209D02*
X21660Y33209D01*
X21660Y33209D02*
Y33209D01*
X21661D01*
X21661Y33209D01*
Y33209D01*
X21661Y33209D01*
X21660D01*
X21661Y33209D02*
X21661D01*
X21661Y33209D01*
Y33209D01*
X21661Y33209D01*
X21661D01*
X21661Y33209D01*
Y33209D01*
X21661D01*
X21661Y33209D02*
Y33209D01*
Y33209D01*
X21661Y33209D01*
X21661Y33209D01*
X21661D01*
X21661Y33209D02*
X21661D01*
X21661Y33209D01*
X21661Y33209D01*
X21661D01*
X21661Y33209D01*
X21661Y33209D01*
X21661D01*
X21661Y33209D02*
X21661D01*
X21661Y33209D01*
Y33209D01*
X21661Y33209D01*
X21661D01*
X21661Y33209D01*
Y33209D01*
X21661Y33209D01*
X21661D02*
Y33209D01*
X21661D01*
X21661Y33209D01*
Y33209D01*
X21662Y33209D02*
X21662D01*
X21662Y33209D01*
Y33209D01*
X21662D01*
X21662Y33209D01*
X21662Y33209D01*
X21662D01*
X21662Y33209D02*
X21662D01*
X21662D01*
Y33209D01*
X21662D01*
X21662Y33209D02*
Y33209D01*
X21662D01*
X21662Y33209D01*
Y33209D01*
X21662Y33209D01*
X21662D01*
X21662Y33209D02*
Y33209D01*
Y33209D01*
X21662Y33209D01*
X21662Y33209D01*
X21662D01*
X21662Y33209D02*
X21662D01*
X21662Y33209D01*
Y33209D01*
X21662Y33209D01*
X21662D01*
X21662Y33209D01*
Y33209D01*
X21662Y33209D01*
X21662Y33209D02*
X21662D01*
X21662Y33209D01*
Y33209D01*
X21663Y33209D02*
X21663D01*
X21663Y33209D01*
Y33209D01*
X21663Y33209D01*
X21663D01*
X21663Y33209D01*
Y33209D01*
X21663D01*
X21663Y33209D02*
X21663D01*
X21663Y33209D01*
Y33209D01*
X21663Y33209D01*
X21663D01*
X21663Y33209D02*
Y33209D01*
X21663D01*
X21663D01*
X21663D01*
Y33209D01*
X21663Y33209D01*
X21663D02*
X21663D01*
X21663Y33209D01*
X21663Y33209D01*
X21663D01*
X21663Y33209D01*
X21663Y33209D01*
X21663D01*
X21663Y33209D02*
X21663Y33209D01*
X21663Y33209D02*
Y33209D01*
X21663Y33209D01*
X21663Y33209D01*
Y33209D01*
Y33209D01*
X21663D01*
X21664Y33209D02*
X21664D01*
X21664D01*
Y33209D01*
X21664D01*
X21664Y33209D02*
Y33209D01*
X21664D01*
X21664D01*
X21664D01*
Y33209D01*
X21664Y33209D01*
X21664D02*
X21664D01*
X21664D01*
Y33209D01*
X21664D01*
X21664D02*
Y33209D01*
X21664Y33209D01*
X21664D01*
Y33209D01*
X21664Y33209D02*
Y33209D01*
X21664D01*
X21664Y33209D01*
Y33209D01*
Y33209D01*
X21664Y33209D01*
X21664Y33209D01*
Y33209D01*
X21664Y33209D02*
X21664D01*
X21665Y33209D02*
X21665Y33209D01*
X21664D01*
X21664Y33209D01*
Y33209D01*
X21664Y33209D01*
X21665D01*
X21665Y33209D01*
X21665Y33209D02*
X21665D01*
X21665D01*
Y33209D01*
X21665D01*
X21665D02*
Y33209D01*
Y33209D01*
X21665Y33209D01*
X21665Y33209D01*
X21665D01*
X21665D02*
X21665D01*
X21665Y33209D01*
Y33209D01*
X21665Y33209D01*
X21665D01*
X21665Y33209D02*
Y33209D01*
X21665Y33209D01*
X21665D01*
Y33209D01*
X21665Y33209D02*
X21665D01*
X21665D01*
Y33209D01*
X21665D01*
X21665Y33209D02*
Y33209D01*
X21665D01*
X21665D01*
X21665D01*
Y33209D01*
X21665Y33209D01*
X21666D02*
Y33209D01*
X21666D01*
X21666Y33209D01*
Y33209D01*
Y33209D01*
X21666Y33209D01*
X21666Y33209D01*
Y33209D01*
X21666Y33209D02*
X21666D01*
X21666Y33209D01*
Y33209D01*
X21666D01*
X21666Y33209D01*
X21666Y33209D01*
X21666D01*
X21666Y33209D02*
Y33209D01*
Y33209D02*
X21666Y33209D01*
X21666Y33209D02*
X21666Y33209D01*
X21666D02*
X21666D01*
X21666Y33209D01*
Y33209D01*
X21666Y33209D01*
X21666D01*
X21666Y33209D01*
Y33209D01*
X21666D01*
X21666Y33209D02*
Y33209D01*
Y33209D01*
X21666Y33209D01*
X21666Y33209D01*
X21666D01*
X21667Y33209D02*
Y33209D01*
X21667D01*
X21667Y33209D01*
Y33209D01*
X21667Y33209D01*
X21667D01*
X21667Y33209D02*
Y33209D01*
Y33209D01*
X21667Y33209D01*
X21667Y33209D01*
X21667D01*
X21667Y33209D02*
X21667D01*
X21667Y33209D01*
Y33209D01*
X21667Y33209D01*
X21667D01*
X21667Y33209D01*
Y33209D01*
X21667Y33209D01*
X21667Y33209D02*
X21667D01*
X21667Y33209D01*
Y33209D01*
X21667Y33209D02*
X21667D01*
X21667Y33209D01*
Y33209D01*
X21667Y33209D01*
X21667D01*
X21667Y33209D01*
Y33209D01*
X21667D01*
X21668Y33209D02*
X21667D01*
X21667Y33209D01*
Y33209D01*
X21667Y33209D01*
X21668D01*
X21668Y33209D02*
Y33209D01*
X21668D01*
X21668D01*
X21668D01*
Y33209D01*
X21668Y33209D01*
X21668D02*
X21668D01*
X21668Y33209D01*
X21668Y33209D01*
X21668D01*
X21668Y33209D01*
X21668Y33209D01*
X21668D01*
X21668Y33209D02*
X21668Y33209D01*
X21668Y33209D02*
Y33209D01*
X21668D01*
X21668Y33209D01*
Y33209D01*
X21668Y33209D01*
X21668D01*
X21668D01*
X21668Y33209D01*
Y33209D01*
X21668Y33209D01*
X21668D01*
X21668Y33209D02*
Y33209D01*
X21668Y33209D01*
X21668D01*
Y33209D01*
X21668Y33209D02*
X21668D01*
X21669Y33209D01*
X21668Y33209D01*
X21668D01*
X21668Y33209D01*
X21668Y33209D01*
X21669D01*
X21669Y33209D02*
X21669D01*
X21669D01*
Y33209D01*
X21669D01*
X21669Y33209D02*
Y33209D01*
X21669D01*
X21669Y33209D01*
Y33209D01*
X21669D02*
X21669D01*
X21669Y33209D01*
Y33209D01*
X21669Y33209D01*
X21669D01*
X21669Y33209D01*
Y33209D01*
X21669D01*
X21669Y33209D02*
X21669D01*
X21669Y33209D01*
X21669Y33209D01*
X21669D01*
X21669Y33209D01*
X21669Y33209D01*
X21669D01*
X21669Y33209D02*
X21669D01*
X21669Y33209D01*
X21669Y33209D01*
X21669D01*
X21669Y33209D01*
X21669Y33209D01*
X21669D01*
X21669Y33209D02*
X21670D01*
X21670Y33209D02*
X21670Y33209D01*
X21670D01*
X21670Y33209D01*
Y33209D01*
X21670Y33209D01*
X21670D01*
X21670Y33209D01*
X21670Y33209D02*
X21670D01*
X21670Y33209D01*
Y33209D01*
X21670D01*
X21670Y33209D01*
X21670Y33209D01*
X21670D01*
X21670Y33209D02*
Y33209D01*
Y33209D01*
X21670Y33209D01*
X21670Y33209D01*
X21670D01*
X21670Y33209D02*
Y33209D01*
X21670D01*
X21670Y33209D01*
Y33209D01*
X21670Y33209D01*
X21670D01*
X21670Y33209D02*
X21670D01*
X21670Y33209D01*
X21670Y33209D01*
X21670D01*
X21670Y33209D01*
X21670Y33209D01*
X21670D01*
X21670Y33209D02*
X21671Y33209D01*
X21671Y33209D02*
X21671D01*
X21671Y33209D01*
Y33209D01*
X21671Y33209D01*
X21671D01*
X21671Y33209D01*
Y33209D01*
X21671Y33209D01*
X21671Y33209D02*
X21671Y33209D01*
X21671D01*
X21671Y33209D01*
Y33209D01*
X21671Y33209D01*
X21671D01*
X21671Y33209D01*
Y33209D01*
X21671Y33209D01*
X21671D01*
X21671Y33209D01*
X21671Y33209D02*
Y33209D01*
X21671Y33209D01*
X21671D01*
X21671Y33209D01*
Y33209D01*
X21671Y33209D02*
Y33209D01*
X21671D01*
X21671Y33209D01*
Y33209D01*
X21671Y33209D01*
X21671D01*
X21671D02*
X21671Y33209D01*
X21671Y33209D02*
X21671Y33209D01*
X21671D01*
X21671Y33209D01*
Y33209D01*
X21671Y33209D01*
X21671D01*
X21671Y33209D01*
X21672Y33209D02*
X21672Y33209D01*
X21672D01*
X21672Y33209D01*
Y33209D01*
X21672Y33209D01*
X21672D01*
X21672Y33209D01*
X21672Y33209D02*
X21672D01*
X21672Y33209D01*
Y33209D01*
X21672D01*
X21672Y33209D01*
X21672Y33209D01*
X21672D01*
X21672Y33209D02*
Y33209D01*
Y33209D01*
X21672Y33209D01*
X21672Y33209D01*
X21672D01*
X21672Y33209D02*
Y33209D01*
X21672D01*
X21672Y33209D01*
Y33209D01*
X21672Y33209D01*
X21672D01*
X21672Y33209D02*
X21672D01*
X21672Y33209D01*
X21672Y33209D01*
X21672D01*
X21672Y33209D01*
X21672Y33209D01*
X21672D01*
X21672Y33209D02*
X21673Y33209D01*
X21673Y33209D02*
Y33209D01*
X21673D01*
X21673D02*
X21673D01*
X21673Y33209D01*
Y33209D01*
X21673Y33209D01*
X21673D01*
X21673Y33209D01*
Y33209D01*
X21673Y33209D01*
X21673Y33209D02*
X21673D01*
X21673Y33209D01*
Y33209D01*
X21673D01*
X21673Y33209D01*
Y33209D01*
X21673Y33209D01*
X21673D01*
X21673D02*
X21673D01*
X21673Y33209D01*
Y33209D01*
X21673Y33209D01*
X21673D01*
X21673Y33209D01*
Y33209D01*
X21673Y33209D01*
X21673Y33209D02*
Y33209D01*
X21673D01*
X21673Y33209D01*
Y33209D01*
X21673Y33209D01*
X21673D01*
X21673D01*
X21673Y33209D01*
Y33209D01*
X21673Y33209D01*
X21673D01*
X21673Y33209D02*
X21674D01*
X21674D01*
Y33209D01*
X21673D01*
X21674Y33209D02*
X21674D01*
X21674Y33209D01*
Y33209D01*
X21674D01*
X21674Y33209D01*
X21674Y33209D01*
X21674D01*
X21674Y33209D02*
X21674D01*
X21674Y33209D01*
Y33209D01*
X21674Y33209D01*
X21674D01*
X21674D02*
Y33209D01*
Y33209D02*
X21674Y33209D01*
X21674Y33209D02*
X21674Y33209D01*
X21674D02*
Y33209D01*
X21674D01*
Y33209D01*
X21674D01*
X21674Y33209D02*
Y33209D01*
X21674D01*
X21674Y33209D01*
Y33209D01*
Y33209D01*
X21674Y33209D01*
X21674D01*
X21674Y33209D02*
Y33209D01*
X21674D01*
X21674Y33209D01*
Y33209D01*
Y33209D01*
X21675Y33209D01*
X21675Y33209D01*
Y33209D01*
X21675Y33209D02*
Y33209D01*
X21675D01*
X21675Y33209D01*
Y33209D01*
X21675Y33209D01*
X21675D01*
D44*
X21636Y33324D02*
D03*
X25052D02*
D03*
X25611Y33750D02*
D03*
D45*
X22008Y33324D02*
D03*
X24577Y33686D02*
D03*
D46*
X22407Y33324D02*
D03*
X25681Y33668D02*
D03*
X22056Y33750D02*
D03*
X24575Y33757D02*
D03*
D47*
X23349Y33324D02*
D03*
X24079D02*
D03*
X24990Y33388D02*
D03*
X21918Y33406D02*
D03*
D48*
X23746Y33324D02*
D03*
X26038D02*
D03*
X26478D02*
D03*
D49*
X24421D02*
D03*
X24386Y33700D02*
D03*
D50*
X24836Y33324D02*
D03*
D51*
X25596D02*
D03*
D52*
X21636Y33328D02*
D03*
X23255Y33409D02*
D03*
X24176D02*
D03*
X26543D02*
D03*
X22118Y33416D02*
D03*
X23620D02*
D03*
Y33420D02*
D03*
X22298Y33427D02*
D03*
X22518D02*
D03*
X22295Y33434D02*
D03*
X23057Y33441D02*
D03*
X21501Y33452D02*
D03*
X23050D02*
D03*
X21494Y33466D02*
D03*
X21781D02*
D03*
X23039D02*
D03*
X21494Y33470D02*
D03*
X25445Y33477D02*
D03*
X23620Y33533D02*
D03*
X23252Y33540D02*
D03*
X26550D02*
D03*
X24176Y33548D02*
D03*
X23064Y33576D02*
D03*
X21788Y33583D02*
D03*
X25445Y33590D02*
D03*
X25448Y33604D02*
D03*
X21781Y33608D02*
D03*
X21944Y33657D02*
D03*
D53*
X22006Y33328D02*
D03*
X23749Y33338D02*
D03*
X21524Y33420D02*
D03*
X25025Y33516D02*
D03*
X26538Y33558D02*
D03*
X21524Y33654D02*
D03*
D54*
X22407Y33328D02*
D03*
X25050D02*
D03*
X23122Y33335D02*
D03*
X26038D02*
D03*
X23115Y33346D02*
D03*
X23112Y33353D02*
D03*
X23108Y33360D02*
D03*
X23105Y33363D02*
D03*
X23101Y33370D02*
D03*
X23090Y33385D02*
D03*
X23087Y33392D02*
D03*
X23080Y33402D02*
D03*
X23261D02*
D03*
X23441D02*
D03*
X24171D02*
D03*
X25996D02*
D03*
X23076Y33409D02*
D03*
X23813D02*
D03*
X24742Y33416D02*
D03*
X22304Y33420D02*
D03*
X22513D02*
D03*
X23069D02*
D03*
X23066Y33427D02*
D03*
X21765Y33434D02*
D03*
X25135D02*
D03*
X21507Y33441D02*
D03*
X21772Y33445D02*
D03*
X21776Y33452D02*
D03*
X25450Y33459D02*
D03*
X25447Y33466D02*
D03*
X23037Y33470D02*
D03*
X25447D02*
D03*
X23030Y33477D02*
D03*
X24745Y33540D02*
D03*
X26354D02*
D03*
X23257Y33548D02*
D03*
X23817D02*
D03*
X26549D02*
D03*
X23261Y33551D02*
D03*
X23445D02*
D03*
X24175D02*
D03*
X26545D02*
D03*
X23062Y33572D02*
D03*
X21779Y33615D02*
D03*
X21942D02*
D03*
X25454D02*
D03*
X21503Y33622D02*
D03*
X21776D02*
D03*
X25457D02*
D03*
X21507Y33629D02*
D03*
X21772D02*
D03*
X23076Y33654D02*
D03*
X24575Y33714D02*
D03*
Y33721D02*
D03*
Y33728D02*
D03*
D55*
X23349Y33328D02*
D03*
X24079D02*
D03*
X24837D02*
D03*
X24373Y33402D02*
D03*
X23448Y33409D02*
D03*
X23983D02*
D03*
X24370D02*
D03*
X25992D02*
D03*
X23250Y33416D02*
D03*
X23452D02*
D03*
X23817D02*
D03*
X23980D02*
D03*
X25989D02*
D03*
X26173D02*
D03*
X26549D02*
D03*
X23820Y33420D02*
D03*
X23976D02*
D03*
X26350D02*
D03*
X26549D02*
D03*
X22123Y33427D02*
D03*
X23618D02*
D03*
X26552D02*
D03*
X22123Y33434D02*
D03*
X22520D02*
D03*
X26556D02*
D03*
X22123Y33441D02*
D03*
X22293D02*
D03*
X22523D02*
D03*
X22123Y33445D02*
D03*
Y33452D02*
D03*
X21779Y33459D02*
D03*
X21783Y33470D02*
D03*
X21492Y33477D02*
D03*
X21786D02*
D03*
Y33484D02*
D03*
X21489Y33491D02*
D03*
Y33498D02*
D03*
X21790D02*
D03*
X25440D02*
D03*
X21485Y33501D02*
D03*
X21790D02*
D03*
X25440D02*
D03*
X21485Y33509D02*
D03*
X21790D02*
D03*
X25440D02*
D03*
X21485Y33516D02*
D03*
Y33523D02*
D03*
X23618D02*
D03*
X25436D02*
D03*
X21485Y33526D02*
D03*
X23618D02*
D03*
X25014D02*
D03*
X25436D02*
D03*
X26350D02*
D03*
X21485Y33533D02*
D03*
X23455D02*
D03*
X23824D02*
D03*
X23976D02*
D03*
X25436D02*
D03*
X26556D02*
D03*
X21485Y33540D02*
D03*
X21794D02*
D03*
X23452D02*
D03*
X23980D02*
D03*
X24182D02*
D03*
X21485Y33548D02*
D03*
Y33551D02*
D03*
Y33558D02*
D03*
X21790D02*
D03*
X25440D02*
D03*
X21790Y33565D02*
D03*
X25018D02*
D03*
X25440D02*
D03*
X21489Y33572D02*
D03*
X21790D02*
D03*
X25440D02*
D03*
X21489Y33576D02*
D03*
X21790D02*
D03*
X21489Y33583D02*
D03*
X23069D02*
D03*
X25443D02*
D03*
X21492Y33590D02*
D03*
X21786D02*
D03*
X23073D02*
D03*
X21492Y33597D02*
D03*
X23076D02*
D03*
X21496Y33604D02*
D03*
X21783D02*
D03*
X23080Y33608D02*
D03*
X21499Y33615D02*
D03*
X23080D02*
D03*
X21939Y33629D02*
D03*
X23080D02*
D03*
X21939Y33633D02*
D03*
X23080D02*
D03*
X21939Y33640D02*
D03*
X23080D02*
D03*
X21939Y33647D02*
D03*
X21942Y33654D02*
D03*
X24575Y33703D02*
D03*
Y33707D02*
D03*
Y33735D02*
D03*
Y33739D02*
D03*
D56*
X23748Y33328D02*
D03*
D57*
X24421D02*
D03*
X25821Y33335D02*
D03*
Y33338D02*
D03*
Y33346D02*
D03*
Y33353D02*
D03*
Y33360D02*
D03*
Y33363D02*
D03*
Y33370D02*
D03*
Y33377D02*
D03*
Y33385D02*
D03*
Y33392D02*
D03*
Y33395D02*
D03*
X25144Y33402D02*
D03*
X25821D02*
D03*
Y33409D02*
D03*
X25144Y33416D02*
D03*
X25821D02*
D03*
X25144Y33420D02*
D03*
X25821D02*
D03*
Y33427D02*
D03*
Y33434D02*
D03*
Y33441D02*
D03*
Y33445D02*
D03*
Y33452D02*
D03*
Y33459D02*
D03*
X25984D02*
D03*
X25821Y33466D02*
D03*
X25984D02*
D03*
X25821Y33470D02*
D03*
X25984D02*
D03*
X25821Y33477D02*
D03*
X25984D02*
D03*
X25821Y33484D02*
D03*
X25984D02*
D03*
X25821Y33491D02*
D03*
X25984D02*
D03*
X25821Y33498D02*
D03*
X25984D02*
D03*
X25821Y33501D02*
D03*
X25984D02*
D03*
X25821Y33509D02*
D03*
X25984D02*
D03*
X25821Y33516D02*
D03*
X25984D02*
D03*
X25821Y33523D02*
D03*
X25984D02*
D03*
X25821Y33526D02*
D03*
X25984D02*
D03*
X25821Y33533D02*
D03*
X25984D02*
D03*
X25821Y33540D02*
D03*
X25984D02*
D03*
X25821Y33548D02*
D03*
X25984D02*
D03*
X25821Y33551D02*
D03*
X25984D02*
D03*
X25821Y33558D02*
D03*
X25984D02*
D03*
X25821Y33565D02*
D03*
X25984D02*
D03*
X25821Y33572D02*
D03*
X25984D02*
D03*
X25821Y33576D02*
D03*
X25984D02*
D03*
X25821Y33583D02*
D03*
X25984D02*
D03*
X25821Y33590D02*
D03*
X25984D02*
D03*
X25821Y33597D02*
D03*
X25984D02*
D03*
X25821Y33604D02*
D03*
X25984D02*
D03*
X25821Y33608D02*
D03*
X25984D02*
D03*
X25821Y33615D02*
D03*
X25984D02*
D03*
X25821Y33622D02*
D03*
X25984D02*
D03*
X25821Y33629D02*
D03*
Y33633D02*
D03*
Y33640D02*
D03*
Y33647D02*
D03*
Y33654D02*
D03*
Y33657D02*
D03*
Y33664D02*
D03*
Y33672D02*
D03*
Y33679D02*
D03*
Y33682D02*
D03*
X24368Y33689D02*
D03*
X25821D02*
D03*
Y33696D02*
D03*
Y33703D02*
D03*
Y33707D02*
D03*
Y33714D02*
D03*
Y33721D02*
D03*
Y33728D02*
D03*
Y33735D02*
D03*
Y33739D02*
D03*
X24577Y33746D02*
D03*
X25821D02*
D03*
Y33753D02*
D03*
Y33760D02*
D03*
Y33764D02*
D03*
D58*
X25599Y33328D02*
D03*
X26478Y33338D02*
D03*
X23271Y33395D02*
D03*
X23799D02*
D03*
X24161D02*
D03*
X22105Y33402D02*
D03*
X22314Y33409D02*
D03*
X22502D02*
D03*
X21751Y33416D02*
D03*
X25464Y33434D02*
D03*
X22109Y33477D02*
D03*
X23629Y33551D02*
D03*
X21953Y33597D02*
D03*
X21755Y33654D02*
D03*
X21528Y33657D02*
D03*
X21751D02*
D03*
D59*
X26038Y33328D02*
D03*
X21925Y33402D02*
D03*
D60*
X26478Y33328D02*
D03*
D61*
X21636Y33331D02*
D03*
X23748Y33342D02*
D03*
X26480D02*
D03*
X22320Y33406D02*
D03*
X25030Y33512D02*
D03*
X23276Y33562D02*
D03*
X23801D02*
D03*
X21965Y33675D02*
D03*
X24056Y33881D02*
D03*
D62*
X22004Y33331D02*
D03*
X24081Y33618D02*
D03*
X25094D02*
D03*
D63*
X22407Y33331D02*
D03*
X25050D02*
D03*
X24412Y33349D02*
D03*
D64*
X22878Y33331D02*
D03*
X23615D02*
D03*
X26038D02*
D03*
X26347D02*
D03*
X26478D02*
D03*
X22878Y33342D02*
D03*
X23615D02*
D03*
X26347D02*
D03*
X22878Y33349D02*
D03*
X23615D02*
D03*
X26347D02*
D03*
X22878Y33356D02*
D03*
X23615D02*
D03*
X26347D02*
D03*
X22878Y33367D02*
D03*
Y33374D02*
D03*
Y33381D02*
D03*
Y33388D02*
D03*
Y33399D02*
D03*
Y33406D02*
D03*
Y33413D02*
D03*
Y33424D02*
D03*
X24366D02*
D03*
X25142D02*
D03*
X22878Y33431D02*
D03*
X24366D02*
D03*
X25985D02*
D03*
X26177D02*
D03*
X22878Y33438D02*
D03*
X23459D02*
D03*
X24189D02*
D03*
X24366D02*
D03*
X25985D02*
D03*
X26177D02*
D03*
X26347D02*
D03*
X22878Y33448D02*
D03*
X23239D02*
D03*
X23615D02*
D03*
X23827D02*
D03*
X24366D02*
D03*
X25985D02*
D03*
X26347D02*
D03*
X26559D02*
D03*
X22527Y33455D02*
D03*
X22878D02*
D03*
X23239D02*
D03*
X23615D02*
D03*
X24192D02*
D03*
X24366D02*
D03*
X24727D02*
D03*
X25985D02*
D03*
X26347D02*
D03*
X26559D02*
D03*
X22878Y33463D02*
D03*
X23239D02*
D03*
X23615D02*
D03*
X24192D02*
D03*
X24366D02*
D03*
X24727D02*
D03*
X26347D02*
D03*
X22878Y33473D02*
D03*
X23615D02*
D03*
X23966D02*
D03*
X24192D02*
D03*
X24366D02*
D03*
X24727D02*
D03*
X26347D02*
D03*
X22878Y33480D02*
D03*
X23615D02*
D03*
X23966D02*
D03*
X24192D02*
D03*
X24366D02*
D03*
X24727D02*
D03*
X26347D02*
D03*
X23239Y33487D02*
D03*
X23615D02*
D03*
X23966D02*
D03*
X24192D02*
D03*
X24366D02*
D03*
X24727D02*
D03*
X26347D02*
D03*
X22283Y33494D02*
D03*
X23239D02*
D03*
X23615D02*
D03*
X24192D02*
D03*
X24366D02*
D03*
X24727D02*
D03*
X26347D02*
D03*
X22283Y33505D02*
D03*
X23239D02*
D03*
X23615D02*
D03*
X24192D02*
D03*
X24366D02*
D03*
X26347D02*
D03*
X22283Y33512D02*
D03*
X24366D02*
D03*
X26347D02*
D03*
X22283Y33519D02*
D03*
X23243D02*
D03*
X24189D02*
D03*
X24366D02*
D03*
X22283Y33530D02*
D03*
X24366D02*
D03*
X22283Y33537D02*
D03*
X24366D02*
D03*
X25007D02*
D03*
X22283Y33544D02*
D03*
X24366D02*
D03*
X25007D02*
D03*
X22283Y33555D02*
D03*
X24366D02*
D03*
X22283Y33562D02*
D03*
X22878D02*
D03*
X22283Y33569D02*
D03*
X22878D02*
D03*
X22283Y33579D02*
D03*
X22878D02*
D03*
X22283Y33587D02*
D03*
X22878D02*
D03*
X23615D02*
D03*
X26347D02*
D03*
X22283Y33594D02*
D03*
X22878D02*
D03*
X23615D02*
D03*
X26347D02*
D03*
X22283Y33601D02*
D03*
X22878D02*
D03*
X23615D02*
D03*
X26347D02*
D03*
X22283Y33611D02*
D03*
X22878D02*
D03*
X23615D02*
D03*
X26347D02*
D03*
X22283Y33618D02*
D03*
X22878D02*
D03*
X23615D02*
D03*
X26347D02*
D03*
X22283Y33626D02*
D03*
X22878D02*
D03*
X23615D02*
D03*
X24366D02*
D03*
X26347D02*
D03*
X22283Y33636D02*
D03*
X22878D02*
D03*
X23615D02*
D03*
X24366D02*
D03*
X26347D02*
D03*
X22283Y33643D02*
D03*
X22878D02*
D03*
X23615D02*
D03*
X24366D02*
D03*
X26347D02*
D03*
X22283Y33650D02*
D03*
X22878D02*
D03*
X23615D02*
D03*
X24366D02*
D03*
X26347D02*
D03*
X22283Y33661D02*
D03*
X22878D02*
D03*
X23615D02*
D03*
X24366D02*
D03*
X26347D02*
D03*
X22283Y33668D02*
D03*
X22878D02*
D03*
X23615D02*
D03*
X24366D02*
D03*
X26347D02*
D03*
X22283Y33675D02*
D03*
X23615D02*
D03*
X24366D02*
D03*
X26347D02*
D03*
X22283Y33686D02*
D03*
X23615D02*
D03*
X24366D02*
D03*
X26347D02*
D03*
X22283Y33693D02*
D03*
X23615D02*
D03*
X26347D02*
D03*
X22283Y33700D02*
D03*
X23615D02*
D03*
X26347D02*
D03*
X22283Y33711D02*
D03*
X23615D02*
D03*
X26347D02*
D03*
X22283Y33718D02*
D03*
X23615D02*
D03*
X26347D02*
D03*
X22283Y33725D02*
D03*
X23615D02*
D03*
X26347D02*
D03*
X22283Y33732D02*
D03*
X23615D02*
D03*
X26347D02*
D03*
X22283Y33742D02*
D03*
X23615D02*
D03*
X26347D02*
D03*
X23615Y33750D02*
D03*
X26347D02*
D03*
X23615Y33757D02*
D03*
X26347D02*
D03*
D65*
X23126Y33331D02*
D03*
X23115Y33349D02*
D03*
X23108Y33356D02*
D03*
X23101Y33367D02*
D03*
X23098Y33374D02*
D03*
X23094Y33381D02*
D03*
X23090Y33388D02*
D03*
X25131D02*
D03*
X23083Y33399D02*
D03*
X23257Y33406D02*
D03*
X23810D02*
D03*
X26170D02*
D03*
X26542D02*
D03*
X22116Y33413D02*
D03*
X23622D02*
D03*
X26354D02*
D03*
X22300Y33424D02*
D03*
X23059Y33438D02*
D03*
X21503Y33448D02*
D03*
X23051D02*
D03*
X21500Y33455D02*
D03*
X22120Y33463D02*
D03*
X25450D02*
D03*
X23034Y33473D02*
D03*
X23027Y33480D02*
D03*
X23622Y33537D02*
D03*
X26354D02*
D03*
X24749Y33544D02*
D03*
X23059Y33569D02*
D03*
X25457Y33618D02*
D03*
X21776Y33626D02*
D03*
X25461D02*
D03*
X21510Y33636D02*
D03*
X23076Y33650D02*
D03*
X21946Y33661D02*
D03*
X24575Y33718D02*
D03*
Y33725D02*
D03*
D66*
X23351Y33331D02*
D03*
X24077D02*
D03*
X23631Y33399D02*
D03*
X24758D02*
D03*
X26363D02*
D03*
X21746Y33413D02*
D03*
X22107Y33480D02*
D03*
X23631Y33555D02*
D03*
X26363D02*
D03*
X25480Y33650D02*
D03*
X21533Y33661D02*
D03*
X23064Y33668D02*
D03*
D67*
X23748Y33331D02*
D03*
X24368Y33413D02*
D03*
X23454Y33424D02*
D03*
X24184D02*
D03*
X23617Y33431D02*
D03*
X26349D02*
D03*
X26554D02*
D03*
X22522Y33438D02*
D03*
X23241D02*
D03*
X23617D02*
D03*
X23971D02*
D03*
X24733D02*
D03*
X26558D02*
D03*
X24191Y33448D02*
D03*
X24729D02*
D03*
X23829Y33455D02*
D03*
X23967D02*
D03*
X22529Y33463D02*
D03*
X23464D02*
D03*
X23829D02*
D03*
X23967D02*
D03*
X26561D02*
D03*
X22284Y33473D02*
D03*
X23464D02*
D03*
X26561D02*
D03*
X22284Y33480D02*
D03*
X23464D02*
D03*
X22284Y33487D02*
D03*
X22532D02*
D03*
X22880D02*
D03*
X23464D02*
D03*
X22532Y33494D02*
D03*
X23464D02*
D03*
X23967D02*
D03*
X26561D02*
D03*
X22532Y33505D02*
D03*
X23829D02*
D03*
X24729D02*
D03*
X26561D02*
D03*
X22532Y33512D02*
D03*
X23241D02*
D03*
X23617D02*
D03*
X23829D02*
D03*
X24191D02*
D03*
X26561D02*
D03*
X21792Y33519D02*
D03*
X22532D02*
D03*
X23461D02*
D03*
X23617D02*
D03*
X23829D02*
D03*
X23971D02*
D03*
X24733D02*
D03*
X26349D02*
D03*
X26558D02*
D03*
X21792Y33530D02*
D03*
X22532D02*
D03*
Y33537D02*
D03*
X23454D02*
D03*
X21792Y33544D02*
D03*
X22532D02*
D03*
X21792Y33555D02*
D03*
X22532D02*
D03*
Y33562D02*
D03*
Y33569D02*
D03*
Y33579D02*
D03*
Y33587D02*
D03*
Y33594D02*
D03*
Y33601D02*
D03*
X23078D02*
D03*
X22532Y33611D02*
D03*
Y33618D02*
D03*
Y33626D02*
D03*
Y33636D02*
D03*
Y33643D02*
D03*
Y33650D02*
D03*
Y33661D02*
D03*
Y33668D02*
D03*
Y33675D02*
D03*
Y33686D02*
D03*
Y33693D02*
D03*
Y33700D02*
D03*
X24577D02*
D03*
X22532Y33711D02*
D03*
Y33718D02*
D03*
Y33725D02*
D03*
Y33732D02*
D03*
Y33742D02*
D03*
D68*
X24421Y33331D02*
D03*
X23078Y33406D02*
D03*
X23985D02*
D03*
X24173D02*
D03*
X23815Y33413D02*
D03*
X26171D02*
D03*
X26547D02*
D03*
X22515Y33424D02*
D03*
X21778Y33455D02*
D03*
X22121D02*
D03*
X23046D02*
D03*
X21498Y33463D02*
D03*
X21491Y33480D02*
D03*
X25441Y33487D02*
D03*
X23822Y33537D02*
D03*
X26554D02*
D03*
X21785Y33601D02*
D03*
X21498Y33611D02*
D03*
X25452D02*
D03*
X21778Y33618D02*
D03*
X21941D02*
D03*
X23078Y33643D02*
D03*
X24577Y33711D02*
D03*
D69*
X24575Y33331D02*
D03*
Y33342D02*
D03*
Y33349D02*
D03*
Y33356D02*
D03*
Y33367D02*
D03*
Y33374D02*
D03*
Y33381D02*
D03*
Y33388D02*
D03*
Y33399D02*
D03*
Y33406D02*
D03*
Y33413D02*
D03*
Y33424D02*
D03*
Y33431D02*
D03*
Y33438D02*
D03*
X23462Y33448D02*
D03*
X23969D02*
D03*
X24575D02*
D03*
X23462Y33455D02*
D03*
X24575D02*
D03*
Y33463D02*
D03*
X22531Y33473D02*
D03*
X23831D02*
D03*
X24575D02*
D03*
X22531Y33480D02*
D03*
X23831D02*
D03*
X24575D02*
D03*
X26563D02*
D03*
X23831Y33487D02*
D03*
X24575D02*
D03*
X26563D02*
D03*
X23831Y33494D02*
D03*
X24575D02*
D03*
X23462Y33505D02*
D03*
X23969D02*
D03*
X24575D02*
D03*
X23462Y33512D02*
D03*
X23969D02*
D03*
X24575D02*
D03*
X24731D02*
D03*
X24575Y33519D02*
D03*
Y33530D02*
D03*
Y33537D02*
D03*
Y33544D02*
D03*
Y33555D02*
D03*
Y33562D02*
D03*
Y33569D02*
D03*
Y33579D02*
D03*
Y33587D02*
D03*
Y33594D02*
D03*
Y33601D02*
D03*
Y33611D02*
D03*
Y33618D02*
D03*
Y33742D02*
D03*
D70*
X24837Y33331D02*
D03*
X26038Y33342D02*
D03*
X22495Y33406D02*
D03*
X21531Y33413D02*
D03*
X25475Y33424D02*
D03*
X24005Y33562D02*
D03*
X24157D02*
D03*
X26531D02*
D03*
X21957Y33594D02*
D03*
D71*
X25599Y33331D02*
D03*
X23749Y33349D02*
D03*
X26481D02*
D03*
X24405Y33367D02*
D03*
X25043Y33505D02*
D03*
X21974Y33579D02*
D03*
D72*
X25821Y33331D02*
D03*
Y33342D02*
D03*
Y33349D02*
D03*
Y33356D02*
D03*
Y33367D02*
D03*
Y33374D02*
D03*
Y33381D02*
D03*
Y33388D02*
D03*
X25144Y33399D02*
D03*
X25821D02*
D03*
Y33406D02*
D03*
Y33413D02*
D03*
Y33424D02*
D03*
Y33431D02*
D03*
Y33438D02*
D03*
Y33448D02*
D03*
Y33455D02*
D03*
Y33463D02*
D03*
X25984D02*
D03*
X25821Y33473D02*
D03*
X25984D02*
D03*
X25821Y33480D02*
D03*
X25984D02*
D03*
X25821Y33487D02*
D03*
X25984D02*
D03*
X25821Y33494D02*
D03*
X25984D02*
D03*
X25821Y33505D02*
D03*
X25984D02*
D03*
X25821Y33512D02*
D03*
X25984D02*
D03*
X25821Y33519D02*
D03*
X25984D02*
D03*
X25821Y33530D02*
D03*
X25984D02*
D03*
X25821Y33537D02*
D03*
X25984D02*
D03*
X25821Y33544D02*
D03*
X25984D02*
D03*
X25821Y33555D02*
D03*
X25984D02*
D03*
X25821Y33562D02*
D03*
X25984D02*
D03*
X25821Y33569D02*
D03*
X25984D02*
D03*
X25821Y33579D02*
D03*
X25984D02*
D03*
X25821Y33587D02*
D03*
X25984D02*
D03*
X25821Y33594D02*
D03*
X25984D02*
D03*
X25821Y33601D02*
D03*
X25984D02*
D03*
X25821Y33611D02*
D03*
X25984D02*
D03*
X25821Y33618D02*
D03*
X25984D02*
D03*
X25821Y33626D02*
D03*
Y33636D02*
D03*
Y33643D02*
D03*
Y33650D02*
D03*
Y33661D02*
D03*
Y33668D02*
D03*
Y33675D02*
D03*
Y33686D02*
D03*
X24577Y33693D02*
D03*
X25821D02*
D03*
Y33700D02*
D03*
Y33711D02*
D03*
Y33718D02*
D03*
Y33725D02*
D03*
Y33732D02*
D03*
Y33742D02*
D03*
Y33750D02*
D03*
Y33757D02*
D03*
X23617Y33767D02*
D03*
X25821D02*
D03*
X26348D02*
D03*
D73*
X26178Y33331D02*
D03*
Y33342D02*
D03*
Y33349D02*
D03*
Y33356D02*
D03*
Y33367D02*
D03*
Y33448D02*
D03*
Y33455D02*
D03*
Y33463D02*
D03*
Y33473D02*
D03*
Y33480D02*
D03*
Y33487D02*
D03*
Y33494D02*
D03*
Y33505D02*
D03*
Y33512D02*
D03*
Y33519D02*
D03*
Y33530D02*
D03*
Y33537D02*
D03*
Y33544D02*
D03*
X25009Y33555D02*
D03*
X26178D02*
D03*
Y33562D02*
D03*
Y33569D02*
D03*
Y33579D02*
D03*
Y33587D02*
D03*
Y33594D02*
D03*
Y33601D02*
D03*
Y33611D02*
D03*
Y33618D02*
D03*
X26490Y33626D02*
D03*
D74*
X21638Y33335D02*
D03*
X26038Y33353D02*
D03*
X24405Y33370D02*
D03*
X25493Y33409D02*
D03*
X25110Y33452D02*
D03*
X23760Y33608D02*
D03*
D75*
X22006Y33335D02*
D03*
X25599D02*
D03*
X25082Y33604D02*
D03*
D76*
X22407Y33335D02*
D03*
X23750Y33353D02*
D03*
X24401Y33385D02*
D03*
Y33392D02*
D03*
X25046Y33501D02*
D03*
X21978Y33576D02*
D03*
X23760Y33604D02*
D03*
D77*
X22878Y33335D02*
D03*
X23615D02*
D03*
X26347D02*
D03*
X22878Y33338D02*
D03*
X23615D02*
D03*
X26347D02*
D03*
X22878Y33346D02*
D03*
X23615D02*
D03*
X26347D02*
D03*
X22878Y33353D02*
D03*
X23615D02*
D03*
X26347D02*
D03*
X22878Y33360D02*
D03*
X23615D02*
D03*
X26347D02*
D03*
X22878Y33363D02*
D03*
Y33370D02*
D03*
Y33377D02*
D03*
Y33385D02*
D03*
Y33392D02*
D03*
Y33395D02*
D03*
X25142D02*
D03*
X22878Y33402D02*
D03*
Y33409D02*
D03*
Y33416D02*
D03*
Y33420D02*
D03*
X24366D02*
D03*
X22878Y33427D02*
D03*
X24185D02*
D03*
X24366D02*
D03*
X25142D02*
D03*
X25985D02*
D03*
X22878Y33434D02*
D03*
X23243D02*
D03*
X23459D02*
D03*
X24366D02*
D03*
X25985D02*
D03*
X26177D02*
D03*
X22878Y33441D02*
D03*
X23615D02*
D03*
X24189D02*
D03*
X24366D02*
D03*
X25985D02*
D03*
X26177D02*
D03*
X26347D02*
D03*
X22878Y33445D02*
D03*
X23615D02*
D03*
X23827D02*
D03*
X24366D02*
D03*
X25985D02*
D03*
X26347D02*
D03*
X22878Y33452D02*
D03*
X23239D02*
D03*
X23615D02*
D03*
X24192D02*
D03*
X24366D02*
D03*
X25985D02*
D03*
X26347D02*
D03*
X26559D02*
D03*
X22878Y33459D02*
D03*
X23239D02*
D03*
X23615D02*
D03*
X24192D02*
D03*
X24366D02*
D03*
X24727D02*
D03*
X26347D02*
D03*
X22286Y33466D02*
D03*
X22878D02*
D03*
X23239D02*
D03*
X23615D02*
D03*
X23966D02*
D03*
X24192D02*
D03*
X24366D02*
D03*
X24727D02*
D03*
X26347D02*
D03*
X22286Y33470D02*
D03*
X22878D02*
D03*
X23615D02*
D03*
X23966D02*
D03*
X24192D02*
D03*
X24366D02*
D03*
X24727D02*
D03*
X26347D02*
D03*
X22878Y33477D02*
D03*
X23615D02*
D03*
X23966D02*
D03*
X24192D02*
D03*
X24366D02*
D03*
X24727D02*
D03*
X26347D02*
D03*
X22878Y33484D02*
D03*
X23615D02*
D03*
X23966D02*
D03*
X24192D02*
D03*
X24366D02*
D03*
X24727D02*
D03*
X26347D02*
D03*
X23239Y33491D02*
D03*
X23615D02*
D03*
X24192D02*
D03*
X24366D02*
D03*
X24727D02*
D03*
X26347D02*
D03*
X22283Y33498D02*
D03*
X23239D02*
D03*
X23615D02*
D03*
X24192D02*
D03*
X24366D02*
D03*
X24727D02*
D03*
X26347D02*
D03*
X22283Y33501D02*
D03*
X23239D02*
D03*
X23615D02*
D03*
X24192D02*
D03*
X24366D02*
D03*
X26347D02*
D03*
X22283Y33509D02*
D03*
X23615D02*
D03*
X24366D02*
D03*
X26347D02*
D03*
X22283Y33516D02*
D03*
X24366D02*
D03*
X22283Y33523D02*
D03*
X23459D02*
D03*
X24366D02*
D03*
X22283Y33526D02*
D03*
X24366D02*
D03*
X22283Y33533D02*
D03*
X24366D02*
D03*
X22283Y33540D02*
D03*
X24366D02*
D03*
X25007D02*
D03*
X22283Y33548D02*
D03*
X24366D02*
D03*
X22283Y33551D02*
D03*
X24366D02*
D03*
X22283Y33558D02*
D03*
X25011D02*
D03*
X22283Y33565D02*
D03*
X22878D02*
D03*
X22283Y33572D02*
D03*
X22878D02*
D03*
X22283Y33576D02*
D03*
X22878D02*
D03*
X22283Y33583D02*
D03*
X22878D02*
D03*
X23615D02*
D03*
X26347D02*
D03*
X22283Y33590D02*
D03*
X22878D02*
D03*
X23615D02*
D03*
X26347D02*
D03*
X22283Y33597D02*
D03*
X22878D02*
D03*
X23615D02*
D03*
X26347D02*
D03*
X22283Y33604D02*
D03*
X22878D02*
D03*
X23615D02*
D03*
X26347D02*
D03*
X22283Y33608D02*
D03*
X22878D02*
D03*
X23615D02*
D03*
X26347D02*
D03*
X22283Y33615D02*
D03*
X22878D02*
D03*
X23615D02*
D03*
X26347D02*
D03*
X22283Y33622D02*
D03*
X22878D02*
D03*
X23615D02*
D03*
X26347D02*
D03*
X22283Y33629D02*
D03*
X22878D02*
D03*
X23615D02*
D03*
X24366D02*
D03*
X26347D02*
D03*
X22283Y33633D02*
D03*
X22878D02*
D03*
X23615D02*
D03*
X24366D02*
D03*
X26347D02*
D03*
X22283Y33640D02*
D03*
X22878D02*
D03*
X23615D02*
D03*
X24366D02*
D03*
X26347D02*
D03*
X22283Y33647D02*
D03*
X22878D02*
D03*
X23615D02*
D03*
X24366D02*
D03*
X26347D02*
D03*
X22283Y33654D02*
D03*
X22878D02*
D03*
X23615D02*
D03*
X24366D02*
D03*
X26347D02*
D03*
X22283Y33657D02*
D03*
X22878D02*
D03*
X23615D02*
D03*
X24366D02*
D03*
X26347D02*
D03*
X22283Y33664D02*
D03*
X22878D02*
D03*
X23615D02*
D03*
X24366D02*
D03*
X26347D02*
D03*
X22283Y33672D02*
D03*
X22878D02*
D03*
X23615D02*
D03*
X24366D02*
D03*
X26347D02*
D03*
X22283Y33679D02*
D03*
X23615D02*
D03*
X24366D02*
D03*
X26347D02*
D03*
X22283Y33682D02*
D03*
X23615D02*
D03*
X24366D02*
D03*
X26347D02*
D03*
X22283Y33689D02*
D03*
X23615D02*
D03*
X26347D02*
D03*
X22283Y33696D02*
D03*
X23615D02*
D03*
X26347D02*
D03*
X22283Y33703D02*
D03*
X23615D02*
D03*
X26347D02*
D03*
X22283Y33707D02*
D03*
X23615D02*
D03*
X26347D02*
D03*
X22283Y33714D02*
D03*
X23615D02*
D03*
X26347D02*
D03*
X22283Y33721D02*
D03*
X23615D02*
D03*
X26347D02*
D03*
X22283Y33728D02*
D03*
X23615D02*
D03*
X26347D02*
D03*
X22283Y33735D02*
D03*
X23615D02*
D03*
X26347D02*
D03*
X22283Y33739D02*
D03*
X23615D02*
D03*
X26347D02*
D03*
X23615Y33746D02*
D03*
X26347D02*
D03*
X23615Y33753D02*
D03*
X26347D02*
D03*
X23615Y33760D02*
D03*
X26347D02*
D03*
X23615Y33764D02*
D03*
X26347D02*
D03*
D78*
X23349Y33335D02*
D03*
X23749Y33346D02*
D03*
X22095Y33491D02*
D03*
D79*
X23748Y33335D02*
D03*
X24378Y33395D02*
D03*
X26540Y33402D02*
D03*
X24747Y33409D02*
D03*
X21760Y33427D02*
D03*
X23021Y33484D02*
D03*
X23815Y33551D02*
D03*
X24754D02*
D03*
X21508Y33633D02*
D03*
X25466D02*
D03*
X21948Y33664D02*
D03*
D80*
X24079Y33335D02*
D03*
X25096Y33622D02*
D03*
D81*
X24421Y33335D02*
D03*
X23432Y33395D02*
D03*
X26001D02*
D03*
X23627Y33402D02*
D03*
X24754D02*
D03*
X26359D02*
D03*
X21753Y33420D02*
D03*
X21515Y33427D02*
D03*
X26359Y33551D02*
D03*
X23436Y33558D02*
D03*
X23808D02*
D03*
X23996D02*
D03*
X24166D02*
D03*
X25477Y33647D02*
D03*
X23067Y33664D02*
D03*
D82*
X24575Y33335D02*
D03*
Y33338D02*
D03*
Y33346D02*
D03*
Y33353D02*
D03*
Y33360D02*
D03*
Y33363D02*
D03*
Y33370D02*
D03*
Y33377D02*
D03*
Y33385D02*
D03*
Y33392D02*
D03*
Y33395D02*
D03*
Y33402D02*
D03*
Y33409D02*
D03*
Y33416D02*
D03*
Y33420D02*
D03*
Y33427D02*
D03*
Y33434D02*
D03*
X23969Y33441D02*
D03*
X24575D02*
D03*
X23969Y33445D02*
D03*
X24575D02*
D03*
X23462Y33452D02*
D03*
X23969D02*
D03*
X24575D02*
D03*
X23462Y33459D02*
D03*
X24575D02*
D03*
X22531Y33466D02*
D03*
X23831D02*
D03*
X24575D02*
D03*
X22531Y33470D02*
D03*
X23831D02*
D03*
X24575D02*
D03*
X22531Y33477D02*
D03*
X23831D02*
D03*
X24575D02*
D03*
X22531Y33484D02*
D03*
X23831D02*
D03*
X24575D02*
D03*
X26563D02*
D03*
X23831Y33491D02*
D03*
X24575D02*
D03*
X26563D02*
D03*
X23831Y33498D02*
D03*
X24575D02*
D03*
X23462Y33501D02*
D03*
X23831D02*
D03*
X23969D02*
D03*
X24575D02*
D03*
X23462Y33509D02*
D03*
X23969D02*
D03*
X24575D02*
D03*
X24731D02*
D03*
X24575Y33516D02*
D03*
Y33523D02*
D03*
Y33526D02*
D03*
Y33533D02*
D03*
Y33540D02*
D03*
Y33548D02*
D03*
Y33551D02*
D03*
Y33558D02*
D03*
Y33565D02*
D03*
Y33572D02*
D03*
Y33576D02*
D03*
Y33583D02*
D03*
Y33590D02*
D03*
Y33597D02*
D03*
Y33604D02*
D03*
Y33608D02*
D03*
Y33615D02*
D03*
Y33622D02*
D03*
Y33696D02*
D03*
D83*
X24839Y33335D02*
D03*
X26490Y33608D02*
D03*
X25502Y33664D02*
D03*
D84*
X25050Y33335D02*
D03*
X26481Y33353D02*
D03*
D85*
X26178Y33335D02*
D03*
Y33338D02*
D03*
Y33346D02*
D03*
Y33353D02*
D03*
Y33360D02*
D03*
Y33363D02*
D03*
Y33370D02*
D03*
Y33445D02*
D03*
Y33452D02*
D03*
Y33459D02*
D03*
Y33466D02*
D03*
Y33470D02*
D03*
Y33477D02*
D03*
Y33484D02*
D03*
Y33491D02*
D03*
Y33498D02*
D03*
Y33501D02*
D03*
Y33509D02*
D03*
Y33516D02*
D03*
Y33523D02*
D03*
Y33526D02*
D03*
Y33533D02*
D03*
Y33540D02*
D03*
X25009Y33548D02*
D03*
X26178D02*
D03*
X25009Y33551D02*
D03*
X26178D02*
D03*
Y33558D02*
D03*
Y33565D02*
D03*
Y33572D02*
D03*
Y33576D02*
D03*
Y33583D02*
D03*
Y33590D02*
D03*
Y33597D02*
D03*
Y33604D02*
D03*
Y33608D02*
D03*
Y33615D02*
D03*
Y33622D02*
D03*
D86*
X26480Y33335D02*
D03*
X23808Y33402D02*
D03*
X23989D02*
D03*
X22114Y33409D02*
D03*
X23624D02*
D03*
X26356D02*
D03*
X22306Y33416D02*
D03*
X22511D02*
D03*
X21512Y33434D02*
D03*
X21505Y33445D02*
D03*
X25456Y33452D02*
D03*
X22118Y33466D02*
D03*
X23624Y33540D02*
D03*
X24750Y33548D02*
D03*
X23989Y33551D02*
D03*
X21944Y33608D02*
D03*
X25463Y33629D02*
D03*
X21771Y33633D02*
D03*
X21512Y33640D02*
D03*
X21767D02*
D03*
X23074Y33657D02*
D03*
D87*
X21638Y33338D02*
D03*
X22407D02*
D03*
X23749Y33360D02*
D03*
X26481D02*
D03*
D88*
X22004Y33338D02*
D03*
X25601D02*
D03*
X22036Y33533D02*
D03*
X22026Y33540D02*
D03*
X25073Y33583D02*
D03*
D89*
X23119Y33338D02*
D03*
D90*
X23351D02*
D03*
X24839D02*
D03*
X24843Y33615D02*
D03*
D91*
X24077Y33338D02*
D03*
X26040Y33360D02*
D03*
X25091Y33615D02*
D03*
D92*
X24417Y33338D02*
D03*
X23999Y33395D02*
D03*
X26529D02*
D03*
X21526Y33416D02*
D03*
X25470Y33427D02*
D03*
X25126Y33441D02*
D03*
X24765Y33558D02*
D03*
X21958Y33672D02*
D03*
D93*
X25048Y33338D02*
D03*
X25062Y33491D02*
D03*
X21994Y33565D02*
D03*
X24835Y33608D02*
D03*
D94*
X26038Y33338D02*
D03*
X25461Y33441D02*
D03*
X25457Y33445D02*
D03*
X23625Y33548D02*
D03*
X26357D02*
D03*
X23055Y33565D02*
D03*
X21949Y33604D02*
D03*
X21517Y33647D02*
D03*
X21762D02*
D03*
X22056Y33746D02*
D03*
X25613D02*
D03*
D95*
X21638Y33342D02*
D03*
X22407D02*
D03*
X24830Y33601D02*
D03*
D96*
X22006Y33342D02*
D03*
X25599D02*
D03*
X21638Y33349D02*
D03*
X22407D02*
D03*
X24079Y33356D02*
D03*
X25068Y33367D02*
D03*
X22938Y33512D02*
D03*
X24816Y33569D02*
D03*
X23353Y33601D02*
D03*
X24083D02*
D03*
X21641Y33725D02*
D03*
X22049D02*
D03*
D97*
X23119Y33342D02*
D03*
X21769Y33438D02*
D03*
Y33636D02*
D03*
D98*
X23351Y33342D02*
D03*
X23758Y33594D02*
D03*
D99*
X24079Y33342D02*
D03*
X26042Y33367D02*
D03*
X25057Y33494D02*
D03*
X21988Y33569D02*
D03*
D100*
X24416Y33342D02*
D03*
X23427Y33562D02*
D03*
X21748Y33661D02*
D03*
X21641Y33742D02*
D03*
D101*
X24837Y33342D02*
D03*
X22056Y35156D02*
D03*
D102*
X25052Y33342D02*
D03*
X24832Y33349D02*
D03*
X22065Y33512D02*
D03*
X25080Y33601D02*
D03*
X24081Y33611D02*
D03*
X22922Y33742D02*
D03*
D103*
X21638Y33346D02*
D03*
X22407D02*
D03*
X25060Y33353D02*
D03*
X24823Y33363D02*
D03*
D104*
X22004Y33346D02*
D03*
X21636Y33353D02*
D03*
X23351Y33360D02*
D03*
X25073Y33385D02*
D03*
X24811Y33392D02*
D03*
X22943Y33523D02*
D03*
X25601Y33721D02*
D03*
D105*
X23349Y33346D02*
D03*
X22038Y33884D02*
D03*
D106*
X24079Y33346D02*
D03*
X22059Y33516D02*
D03*
X25078Y33597D02*
D03*
D107*
X24414Y33346D02*
D03*
X23634Y33395D02*
D03*
X24765D02*
D03*
X26366D02*
D03*
X21742Y33409D02*
D03*
X25477Y33420D02*
D03*
X22104Y33484D02*
D03*
X23634Y33558D02*
D03*
X26366D02*
D03*
X21962Y33590D02*
D03*
X21742Y33664D02*
D03*
D108*
X24834Y33346D02*
D03*
X25085Y33470D02*
D03*
X25078Y33477D02*
D03*
X25071Y33484D02*
D03*
X24834Y33604D02*
D03*
D109*
X25055Y33346D02*
D03*
X24828Y33353D02*
D03*
X22050Y33523D02*
D03*
X26490Y33583D02*
D03*
X24828Y33597D02*
D03*
X25615Y33735D02*
D03*
D110*
X25597Y33346D02*
D03*
D111*
X26038D02*
D03*
X25482Y33416D02*
D03*
X24083Y33622D02*
D03*
X21538Y33664D02*
D03*
D112*
X26480Y33346D02*
D03*
X24410Y33353D02*
D03*
X25037Y33509D02*
D03*
D113*
X22006Y33349D02*
D03*
X21638Y33356D02*
D03*
X22038Y33888D02*
D03*
D114*
X23351Y33349D02*
D03*
X22040Y33530D02*
D03*
X22033Y33537D02*
D03*
X22022Y33544D02*
D03*
X25073Y33587D02*
D03*
D115*
X24079Y33349D02*
D03*
X24823Y33587D02*
D03*
X22056Y33732D02*
D03*
D116*
X25057Y33349D02*
D03*
D117*
X25597D02*
D03*
X22405Y33356D02*
D03*
X24081Y33594D02*
D03*
X22040Y33711D02*
D03*
X22947Y33732D02*
D03*
D118*
X26038Y33349D02*
D03*
D119*
X22010Y33353D02*
D03*
X22952Y33491D02*
D03*
X25592Y33707D02*
D03*
X21641Y33714D02*
D03*
X22952Y33728D02*
D03*
D120*
X22407Y33353D02*
D03*
D121*
X23349D02*
D03*
X24079D02*
D03*
X25064Y33360D02*
D03*
X24820Y33370D02*
D03*
X22935Y33516D02*
D03*
X24377Y33565D02*
D03*
Y33572D02*
D03*
Y33576D02*
D03*
Y33583D02*
D03*
Y33590D02*
D03*
Y33597D02*
D03*
Y33604D02*
D03*
Y33608D02*
D03*
Y33615D02*
D03*
Y33622D02*
D03*
X22052Y33728D02*
D03*
X22935Y33739D02*
D03*
D122*
X25594Y33353D02*
D03*
X24081Y33590D02*
D03*
X22036Y33703D02*
D03*
D123*
X22012Y33356D02*
D03*
X25590D02*
D03*
X24081Y33587D02*
D03*
D124*
X23351Y33356D02*
D03*
X25069Y33374D02*
D03*
D125*
X23749Y33356D02*
D03*
X26481D02*
D03*
X23760Y33601D02*
D03*
D126*
X24409Y33356D02*
D03*
X21542Y33406D02*
D03*
X21733D02*
D03*
X25486Y33413D02*
D03*
X25114Y33448D02*
D03*
X24774Y33562D02*
D03*
X26372D02*
D03*
X21546Y33668D02*
D03*
D127*
X24827Y33356D02*
D03*
Y33594D02*
D03*
D128*
X25062Y33356D02*
D03*
X25611Y33732D02*
D03*
D129*
X26040Y33356D02*
D03*
X24403Y33374D02*
D03*
Y33381D02*
D03*
X24846Y33618D02*
D03*
D130*
X21638Y33360D02*
D03*
X22407D02*
D03*
D131*
X22013D02*
D03*
X25588D02*
D03*
X22407Y33363D02*
D03*
X22031Y33689D02*
D03*
X25588Y33703D02*
D03*
D132*
X24079Y33360D02*
D03*
D133*
X24407D02*
D03*
Y33363D02*
D03*
X21969Y33583D02*
D03*
D134*
X24825Y33360D02*
D03*
X22019Y33548D02*
D03*
X24825Y33590D02*
D03*
X24056Y33884D02*
D03*
D135*
X21638Y33363D02*
D03*
D136*
X22015D02*
D03*
D137*
X23351D02*
D03*
D138*
X23703D02*
D03*
X26435D02*
D03*
X22407Y33377D02*
D03*
X25578D02*
D03*
X22024Y33385D02*
D03*
X24079D02*
D03*
X25578Y33682D02*
D03*
X21641Y33703D02*
D03*
X22966Y33707D02*
D03*
D139*
X24079Y33363D02*
D03*
X22949Y33498D02*
D03*
Y33526D02*
D03*
X23353Y33590D02*
D03*
X25596Y33714D02*
D03*
D140*
X25066Y33363D02*
D03*
X25608Y33728D02*
D03*
D141*
X25587Y33363D02*
D03*
X24081Y33583D02*
D03*
X22958Y33721D02*
D03*
D142*
X26040Y33363D02*
D03*
X26490Y33597D02*
D03*
X23354Y33615D02*
D03*
D143*
X21638Y33367D02*
D03*
X22020Y33374D02*
D03*
X23349Y33381D02*
D03*
X24079D02*
D03*
D144*
X22017Y33367D02*
D03*
X24079Y33374D02*
D03*
X23353Y33579D02*
D03*
D145*
X22407Y33367D02*
D03*
D146*
X23351D02*
D03*
X22950Y33494D02*
D03*
Y33530D02*
D03*
X25594Y33711D02*
D03*
D147*
X23705Y33367D02*
D03*
X26437D02*
D03*
X25576Y33381D02*
D03*
X26086D02*
D03*
X23351Y33388D02*
D03*
X24081D02*
D03*
X23351Y33569D02*
D03*
X24081D02*
D03*
D148*
X24079Y33367D02*
D03*
X23353Y33587D02*
D03*
X22035Y33700D02*
D03*
D149*
X24821Y33367D02*
D03*
D150*
X25583D02*
D03*
X22961Y33544D02*
D03*
X25583Y33693D02*
D03*
X22961Y33718D02*
D03*
D151*
X21638Y33370D02*
D03*
D152*
X22019D02*
D03*
X23351Y33377D02*
D03*
X24081Y33576D02*
D03*
D153*
X22407Y33370D02*
D03*
X25581D02*
D03*
X22963Y33548D02*
D03*
X23353Y33576D02*
D03*
X25581Y33689D02*
D03*
X21641Y33707D02*
D03*
X22963Y33714D02*
D03*
D154*
X23351Y33370D02*
D03*
X22954Y33533D02*
D03*
X22033Y33696D02*
D03*
D155*
X23707Y33370D02*
D03*
X25574Y33385D02*
D03*
X23349Y33392D02*
D03*
X24079D02*
D03*
X22038Y33891D02*
D03*
X24433Y34334D02*
D03*
Y34341D02*
D03*
X24437Y34370D02*
D03*
Y34377D02*
D03*
Y34384D02*
D03*
Y34391D02*
D03*
Y34398D02*
D03*
Y34401D02*
D03*
D156*
X24079Y33370D02*
D03*
X23353Y33583D02*
D03*
D157*
X25068Y33370D02*
D03*
X24816Y33377D02*
D03*
Y33572D02*
D03*
D158*
X26040Y33370D02*
D03*
X25091Y33466D02*
D03*
D159*
X26437Y33370D02*
D03*
X26086Y33377D02*
D03*
X22026Y33392D02*
D03*
Y33395D02*
D03*
X22968Y33558D02*
D03*
X24081Y33565D02*
D03*
X25576Y33679D02*
D03*
X22968Y33703D02*
D03*
D160*
X21638Y33374D02*
D03*
X23707D02*
D03*
X26439D02*
D03*
X22407Y33381D02*
D03*
X25574Y33675D02*
D03*
X22970Y33700D02*
D03*
X24433Y34338D02*
D03*
X24437Y34373D02*
D03*
Y34380D02*
D03*
Y34387D02*
D03*
Y34394D02*
D03*
D161*
X22408Y33374D02*
D03*
X25580D02*
D03*
X22022Y33381D02*
D03*
X25580Y33686D02*
D03*
X22965Y33711D02*
D03*
D162*
X23351Y33374D02*
D03*
X22958Y33537D02*
D03*
X22029Y33686D02*
D03*
X25587Y33700D02*
D03*
X21643Y33711D02*
D03*
D163*
X24818Y33374D02*
D03*
D164*
X26088D02*
D03*
X22024Y33388D02*
D03*
X22966Y33555D02*
D03*
X22056Y35149D02*
D03*
D165*
X21638Y33377D02*
D03*
X22407Y33385D02*
D03*
X24419Y34260D02*
D03*
Y34263D02*
D03*
X23700Y34309D02*
D03*
Y34316D02*
D03*
Y34320D02*
D03*
D166*
X22022Y33377D02*
D03*
X22965Y33551D02*
D03*
D167*
X23096Y33377D02*
D03*
X23085Y33395D02*
D03*
X26171Y33409D02*
D03*
X23071Y33416D02*
D03*
X26352D02*
D03*
X22121Y33420D02*
D03*
X24740D02*
D03*
X23060Y33434D02*
D03*
X21771Y33441D02*
D03*
X23053Y33445D02*
D03*
X21498Y33459D02*
D03*
X22121D02*
D03*
X23046D02*
D03*
X21491Y33484D02*
D03*
X25441D02*
D03*
Y33491D02*
D03*
X25016Y33523D02*
D03*
X24740Y33533D02*
D03*
X26352D02*
D03*
X23822Y33540D02*
D03*
X23447Y33548D02*
D03*
X23985D02*
D03*
X21785Y33597D02*
D03*
X21498Y33608D02*
D03*
X25452D02*
D03*
X21941Y33622D02*
D03*
X23758D02*
D03*
X26490D02*
D03*
X23078Y33647D02*
D03*
D168*
X23709Y33377D02*
D03*
X26441D02*
D03*
X25573Y33392D02*
D03*
Y33672D02*
D03*
X22972Y33696D02*
D03*
X24846Y33884D02*
D03*
Y33891D02*
D03*
Y33895D02*
D03*
Y33902D02*
D03*
Y33909D02*
D03*
Y33916D02*
D03*
Y33920D02*
D03*
Y33927D02*
D03*
Y33934D02*
D03*
Y33941D02*
D03*
Y33948D02*
D03*
Y33951D02*
D03*
Y33959D02*
D03*
Y33966D02*
D03*
Y33973D02*
D03*
Y33976D02*
D03*
Y33983D02*
D03*
Y33990D02*
D03*
Y33998D02*
D03*
Y34001D02*
D03*
Y34008D02*
D03*
Y34015D02*
D03*
Y34022D02*
D03*
Y34026D02*
D03*
Y34033D02*
D03*
Y34040D02*
D03*
Y34047D02*
D03*
Y34054D02*
D03*
Y34058D02*
D03*
Y34065D02*
D03*
Y34072D02*
D03*
Y34079D02*
D03*
Y34083D02*
D03*
Y34090D02*
D03*
Y34097D02*
D03*
Y34104D02*
D03*
Y34107D02*
D03*
Y34114D02*
D03*
Y34122D02*
D03*
Y34129D02*
D03*
Y34132D02*
D03*
Y34139D02*
D03*
Y34146D02*
D03*
Y34153D02*
D03*
Y34157D02*
D03*
Y34164D02*
D03*
Y34171D02*
D03*
Y34178D02*
D03*
Y34185D02*
D03*
Y34189D02*
D03*
Y34196D02*
D03*
Y34203D02*
D03*
Y34210D02*
D03*
Y34214D02*
D03*
Y34221D02*
D03*
Y34228D02*
D03*
Y34235D02*
D03*
Y34238D02*
D03*
Y34246D02*
D03*
Y34253D02*
D03*
Y34260D02*
D03*
Y34263D02*
D03*
Y34270D02*
D03*
Y34277D02*
D03*
Y34285D02*
D03*
Y34292D02*
D03*
X24428Y34295D02*
D03*
X24846D02*
D03*
X24428Y34302D02*
D03*
X24846D02*
D03*
Y34309D02*
D03*
Y34316D02*
D03*
Y34320D02*
D03*
X23698Y34327D02*
D03*
X24846D02*
D03*
Y34334D02*
D03*
Y34341D02*
D03*
X24435Y34345D02*
D03*
X24846D02*
D03*
X23695Y34352D02*
D03*
X24435D02*
D03*
X24846D02*
D03*
X23695Y34359D02*
D03*
X24435D02*
D03*
X24846D02*
D03*
X23695Y34366D02*
D03*
X24435D02*
D03*
X24846D02*
D03*
X23695Y34370D02*
D03*
Y34377D02*
D03*
Y34384D02*
D03*
X23691Y34391D02*
D03*
Y34398D02*
D03*
Y34401D02*
D03*
Y34409D02*
D03*
X24439D02*
D03*
X23691Y34416D02*
D03*
X24439D02*
D03*
X23691Y34423D02*
D03*
X24439D02*
D03*
X23691Y34426D02*
D03*
X24439D02*
D03*
X23691Y34433D02*
D03*
X24439D02*
D03*
X23691Y34440D02*
D03*
X24439D02*
D03*
X23691Y34448D02*
D03*
X24439D02*
D03*
X23691Y34451D02*
D03*
X24439D02*
D03*
X23691Y34458D02*
D03*
X24439D02*
D03*
X23691Y34465D02*
D03*
X24439D02*
D03*
X23691Y34472D02*
D03*
X24439D02*
D03*
X23691Y34476D02*
D03*
X24439D02*
D03*
X23691Y34483D02*
D03*
X24439D02*
D03*
X23691Y34490D02*
D03*
X24439D02*
D03*
X23691Y34497D02*
D03*
X24439D02*
D03*
X23691Y34504D02*
D03*
X24439D02*
D03*
X23691Y34508D02*
D03*
X24439D02*
D03*
X23691Y34515D02*
D03*
X24439D02*
D03*
X23691Y34522D02*
D03*
X24439D02*
D03*
X23691Y34529D02*
D03*
X24439D02*
D03*
X23691Y34533D02*
D03*
X24439D02*
D03*
X23691Y34540D02*
D03*
X24439D02*
D03*
X23691Y34547D02*
D03*
X24439D02*
D03*
X23691Y34554D02*
D03*
X24439D02*
D03*
X23691Y34557D02*
D03*
X24439D02*
D03*
X23691Y34564D02*
D03*
X24439D02*
D03*
X23691Y34572D02*
D03*
X24439D02*
D03*
X23691Y34579D02*
D03*
X24439D02*
D03*
X23691Y34582D02*
D03*
X24439D02*
D03*
X23691Y34589D02*
D03*
X24439D02*
D03*
X24846D02*
D03*
X23691Y34596D02*
D03*
X24439D02*
D03*
X24846D02*
D03*
X23691Y34603D02*
D03*
X24439D02*
D03*
X24846D02*
D03*
X23691Y34607D02*
D03*
X24439D02*
D03*
X24846D02*
D03*
X23691Y34614D02*
D03*
X24439D02*
D03*
X24846D02*
D03*
X23691Y34621D02*
D03*
X24439D02*
D03*
X24846D02*
D03*
X23691Y34628D02*
D03*
X24439D02*
D03*
X24846D02*
D03*
X23691Y34635D02*
D03*
X24439D02*
D03*
X24846D02*
D03*
X23691Y34639D02*
D03*
X24439D02*
D03*
X24846D02*
D03*
X23691Y34646D02*
D03*
X24439D02*
D03*
X24846D02*
D03*
X23691Y34653D02*
D03*
X24439D02*
D03*
X24846D02*
D03*
X23691Y34660D02*
D03*
X24439D02*
D03*
X24846D02*
D03*
X23691Y34664D02*
D03*
X24439D02*
D03*
X24846D02*
D03*
X23691Y34671D02*
D03*
X24439D02*
D03*
X24846D02*
D03*
X23691Y34678D02*
D03*
X24439D02*
D03*
X24846D02*
D03*
X23691Y34685D02*
D03*
X24439D02*
D03*
X24846D02*
D03*
X23691Y34688D02*
D03*
X24439D02*
D03*
X24846D02*
D03*
X23691Y34696D02*
D03*
X24439D02*
D03*
X24846D02*
D03*
X23691Y34703D02*
D03*
X24439D02*
D03*
X24846D02*
D03*
X23691Y34710D02*
D03*
X24439D02*
D03*
X24846D02*
D03*
X23691Y34713D02*
D03*
X24439D02*
D03*
X24846D02*
D03*
X23691Y34720D02*
D03*
X24439D02*
D03*
X24846D02*
D03*
X23691Y34727D02*
D03*
X24439D02*
D03*
X24846D02*
D03*
X23691Y34735D02*
D03*
X24439D02*
D03*
X24846D02*
D03*
X23691Y34742D02*
D03*
X24439D02*
D03*
X24846D02*
D03*
X23691Y34745D02*
D03*
X24439D02*
D03*
X24846D02*
D03*
X23691Y34752D02*
D03*
X24439D02*
D03*
X24846D02*
D03*
X23691Y34759D02*
D03*
X24439D02*
D03*
X24846D02*
D03*
X23691Y34766D02*
D03*
X24439D02*
D03*
X24846D02*
D03*
X23691Y34770D02*
D03*
X24439D02*
D03*
X24846D02*
D03*
X23691Y34777D02*
D03*
X24439D02*
D03*
X24846D02*
D03*
X23691Y34784D02*
D03*
X24439D02*
D03*
X24846D02*
D03*
X23691Y34791D02*
D03*
X24439D02*
D03*
X24846D02*
D03*
X23691Y34795D02*
D03*
X24439D02*
D03*
X24846D02*
D03*
X23691Y34802D02*
D03*
X24439D02*
D03*
X24846D02*
D03*
X23691Y34809D02*
D03*
X24439D02*
D03*
X24846D02*
D03*
X23691Y34816D02*
D03*
X24439D02*
D03*
X24846D02*
D03*
X23691Y34820D02*
D03*
X24439D02*
D03*
X24846D02*
D03*
X23691Y34827D02*
D03*
X24439D02*
D03*
X24846D02*
D03*
X23691Y34834D02*
D03*
X24439D02*
D03*
X24846D02*
D03*
X23691Y34841D02*
D03*
X24439D02*
D03*
X24846D02*
D03*
X23691Y34848D02*
D03*
X24439D02*
D03*
X24846D02*
D03*
X23691Y34851D02*
D03*
X24439D02*
D03*
X24846D02*
D03*
X23691Y34859D02*
D03*
X24439D02*
D03*
X24846D02*
D03*
X23691Y34866D02*
D03*
X24439D02*
D03*
X24846D02*
D03*
X23691Y34873D02*
D03*
X24439D02*
D03*
X24846D02*
D03*
X23691Y34876D02*
D03*
X24439D02*
D03*
X24846D02*
D03*
X23691Y34883D02*
D03*
X24439D02*
D03*
X24846D02*
D03*
X23691Y34890D02*
D03*
X24439D02*
D03*
X24846D02*
D03*
X23691Y34898D02*
D03*
X24439D02*
D03*
X24846D02*
D03*
X23691Y34901D02*
D03*
X24439D02*
D03*
X24846D02*
D03*
X23691Y34908D02*
D03*
X24439D02*
D03*
X24846D02*
D03*
X23691Y34915D02*
D03*
X24439D02*
D03*
X24846D02*
D03*
X23691Y34922D02*
D03*
X24439D02*
D03*
X24846D02*
D03*
X23691Y34926D02*
D03*
X24439D02*
D03*
X24846D02*
D03*
X23691Y34933D02*
D03*
X24439D02*
D03*
X24846D02*
D03*
X23691Y34940D02*
D03*
X24439D02*
D03*
X24846D02*
D03*
X23691Y34947D02*
D03*
X24439D02*
D03*
X23691Y34954D02*
D03*
X24439D02*
D03*
X23691Y34958D02*
D03*
X24439D02*
D03*
X23691Y34965D02*
D03*
X24439D02*
D03*
X23691Y34972D02*
D03*
X24439D02*
D03*
X23691Y34979D02*
D03*
X24439D02*
D03*
X23691Y34983D02*
D03*
X24439D02*
D03*
X23691Y34990D02*
D03*
X24439D02*
D03*
X23691Y34997D02*
D03*
X24439D02*
D03*
X23691Y35004D02*
D03*
X24439D02*
D03*
X23691Y35007D02*
D03*
X24439D02*
D03*
X23691Y35014D02*
D03*
X24439D02*
D03*
X23691Y35022D02*
D03*
X24439D02*
D03*
X23691Y35029D02*
D03*
X24439D02*
D03*
X23691Y35032D02*
D03*
X24439D02*
D03*
X23691Y35039D02*
D03*
X24439D02*
D03*
X23691Y35046D02*
D03*
X24439D02*
D03*
X23691Y35053D02*
D03*
X24439D02*
D03*
X23691Y35057D02*
D03*
X24439D02*
D03*
X23691Y35064D02*
D03*
X24439D02*
D03*
X23691Y35071D02*
D03*
X24439D02*
D03*
X23691Y35078D02*
D03*
X24439D02*
D03*
X23691Y35085D02*
D03*
X24439D02*
D03*
X23691Y35089D02*
D03*
X24439D02*
D03*
X23691Y35096D02*
D03*
X24439D02*
D03*
X23691Y35103D02*
D03*
X24439D02*
D03*
X23691Y35110D02*
D03*
X24439D02*
D03*
X23691Y35114D02*
D03*
X24439D02*
D03*
X23691Y35121D02*
D03*
X24439D02*
D03*
X23691Y35128D02*
D03*
X24439D02*
D03*
X23691Y35135D02*
D03*
X24439D02*
D03*
X23691Y35138D02*
D03*
X24439D02*
D03*
X23691Y35146D02*
D03*
X24439D02*
D03*
X23691Y35153D02*
D03*
X24439D02*
D03*
X23691Y35160D02*
D03*
X24439D02*
D03*
D169*
X24079Y33377D02*
D03*
X22959Y33540D02*
D03*
X22027Y33679D02*
D03*
Y33682D02*
D03*
X25585Y33696D02*
D03*
D170*
X24403Y33377D02*
D03*
X26490Y33604D02*
D03*
D171*
X25071Y33377D02*
D03*
X22942Y33509D02*
D03*
X23353Y33597D02*
D03*
X24083D02*
D03*
X21641Y33721D02*
D03*
X22045D02*
D03*
X22942Y33735D02*
D03*
D172*
X21638Y33381D02*
D03*
X23356Y34224D02*
D03*
X23714Y34249D02*
D03*
X23707Y34274D02*
D03*
X22499Y34430D02*
D03*
X21588Y34600D02*
D03*
X25443Y34717D02*
D03*
Y34724D02*
D03*
X25450Y34749D02*
D03*
Y34756D02*
D03*
Y34763D02*
D03*
D173*
X23711Y33381D02*
D03*
X26442D02*
D03*
X22974Y33693D02*
D03*
X24423Y34274D02*
D03*
X24426Y34288D02*
D03*
X23696Y34331D02*
D03*
Y34338D02*
D03*
D174*
X24814Y33381D02*
D03*
X22940Y33519D02*
D03*
X25604Y33725D02*
D03*
D175*
X25071Y33381D02*
D03*
D176*
X21638Y33385D02*
D03*
X23349Y34178D02*
D03*
Y34185D02*
D03*
X24401Y34210D02*
D03*
X23356Y34235D02*
D03*
X23718D02*
D03*
X23356Y34238D02*
D03*
Y34246D02*
D03*
Y34253D02*
D03*
X22481Y34334D02*
D03*
Y34341D02*
D03*
X22488Y34366D02*
D03*
X21595Y34377D02*
D03*
Y34384D02*
D03*
X21588Y34416D02*
D03*
X25794D02*
D03*
X21588Y34423D02*
D03*
X25794D02*
D03*
X21588Y34426D02*
D03*
X25794D02*
D03*
X21588Y34433D02*
D03*
X25794D02*
D03*
X22499Y34614D02*
D03*
Y34621D02*
D03*
X22495Y34635D02*
D03*
X25801D02*
D03*
X22495Y34639D02*
D03*
X25801D02*
D03*
X21595Y34646D02*
D03*
X22495D02*
D03*
X25805D02*
D03*
Y34653D02*
D03*
X21599Y34660D02*
D03*
X25808D02*
D03*
X21599Y34664D02*
D03*
X25808D02*
D03*
X22488Y34678D02*
D03*
X25812D02*
D03*
X21606Y34688D02*
D03*
X25433D02*
D03*
X21606Y34696D02*
D03*
X22800Y34791D02*
D03*
Y34795D02*
D03*
X25450Y34809D02*
D03*
Y34816D02*
D03*
Y34820D02*
D03*
Y34827D02*
D03*
X22807Y34859D02*
D03*
D177*
X23351Y33385D02*
D03*
Y33572D02*
D03*
X24081D02*
D03*
D178*
X23711Y33385D02*
D03*
X26442D02*
D03*
X25571Y33395D02*
D03*
X22974Y33689D02*
D03*
X21641Y33696D02*
D03*
X24058Y33891D02*
D03*
X24423Y34270D02*
D03*
Y34277D02*
D03*
X23703Y34292D02*
D03*
X24426D02*
D03*
X24430Y34309D02*
D03*
X23696Y34334D02*
D03*
Y34341D02*
D03*
Y34345D02*
D03*
D179*
X24814Y33385D02*
D03*
Y33565D02*
D03*
D180*
X26085Y33385D02*
D03*
Y33392D02*
D03*
X23353Y33565D02*
D03*
D181*
X21638Y33388D02*
D03*
X24394Y34192D02*
D03*
X22463Y34281D02*
D03*
X21606Y34331D02*
D03*
Y34338D02*
D03*
X25819Y34699D02*
D03*
X22481Y34706D02*
D03*
D182*
X22407Y33388D02*
D03*
X23700Y34306D02*
D03*
Y34313D02*
D03*
X23693Y34387D02*
D03*
D183*
X23712Y33388D02*
D03*
X26444D02*
D03*
X25569Y33399D02*
D03*
X23712Y33579D02*
D03*
X26444D02*
D03*
X22975Y33686D02*
D03*
X24414Y34242D02*
D03*
X24417Y34249D02*
D03*
Y34256D02*
D03*
X23709Y34267D02*
D03*
X24421D02*
D03*
X23705Y34281D02*
D03*
Y34288D02*
D03*
X23702Y34299D02*
D03*
D184*
X24401Y33388D02*
D03*
X25103Y33455D02*
D03*
X25511Y33668D02*
D03*
D185*
X24812Y33388D02*
D03*
D186*
X25573D02*
D03*
X24846Y33881D02*
D03*
Y33888D02*
D03*
Y33898D02*
D03*
Y33905D02*
D03*
Y33913D02*
D03*
Y33923D02*
D03*
Y33930D02*
D03*
Y33937D02*
D03*
Y33944D02*
D03*
Y33955D02*
D03*
Y33962D02*
D03*
Y33969D02*
D03*
Y33980D02*
D03*
Y33987D02*
D03*
Y33994D02*
D03*
Y34005D02*
D03*
Y34012D02*
D03*
Y34019D02*
D03*
Y34029D02*
D03*
Y34037D02*
D03*
Y34044D02*
D03*
Y34051D02*
D03*
Y34061D02*
D03*
Y34068D02*
D03*
Y34076D02*
D03*
Y34086D02*
D03*
Y34093D02*
D03*
Y34100D02*
D03*
Y34111D02*
D03*
Y34118D02*
D03*
Y34125D02*
D03*
Y34136D02*
D03*
Y34143D02*
D03*
Y34150D02*
D03*
Y34161D02*
D03*
Y34168D02*
D03*
Y34175D02*
D03*
Y34182D02*
D03*
Y34192D02*
D03*
Y34200D02*
D03*
Y34207D02*
D03*
Y34217D02*
D03*
Y34224D02*
D03*
Y34231D02*
D03*
Y34242D02*
D03*
Y34249D02*
D03*
Y34256D02*
D03*
Y34267D02*
D03*
Y34274D02*
D03*
Y34281D02*
D03*
Y34288D02*
D03*
X24428Y34299D02*
D03*
X24846D02*
D03*
X24428Y34306D02*
D03*
X24846D02*
D03*
Y34313D02*
D03*
X23698Y34324D02*
D03*
X24846D02*
D03*
Y34331D02*
D03*
Y34338D02*
D03*
X23695Y34348D02*
D03*
X24435D02*
D03*
X24846D02*
D03*
X23695Y34355D02*
D03*
X24435D02*
D03*
X24846D02*
D03*
X23695Y34363D02*
D03*
X24435D02*
D03*
X24846D02*
D03*
X23695Y34373D02*
D03*
Y34380D02*
D03*
X23691Y34394D02*
D03*
Y34405D02*
D03*
X24439D02*
D03*
X23691Y34412D02*
D03*
X24439D02*
D03*
X23691Y34419D02*
D03*
X24439D02*
D03*
X23691Y34430D02*
D03*
X24439D02*
D03*
X23691Y34437D02*
D03*
X24439D02*
D03*
X23691Y34444D02*
D03*
X24439D02*
D03*
X23691Y34455D02*
D03*
X24439D02*
D03*
X23691Y34462D02*
D03*
X24439D02*
D03*
X23691Y34469D02*
D03*
X24439D02*
D03*
X23691Y34479D02*
D03*
X24439D02*
D03*
X23691Y34487D02*
D03*
X24439D02*
D03*
X23691Y34494D02*
D03*
X24439D02*
D03*
X23691Y34501D02*
D03*
X24439D02*
D03*
X23691Y34511D02*
D03*
X24439D02*
D03*
X23691Y34518D02*
D03*
X24439D02*
D03*
X23691Y34526D02*
D03*
X24439D02*
D03*
X23691Y34536D02*
D03*
X24439D02*
D03*
X23691Y34543D02*
D03*
X24439D02*
D03*
X23691Y34550D02*
D03*
X24439D02*
D03*
X23691Y34561D02*
D03*
X24439D02*
D03*
X23691Y34568D02*
D03*
X24439D02*
D03*
X23691Y34575D02*
D03*
X24439D02*
D03*
X23691Y34586D02*
D03*
X24439D02*
D03*
X23691Y34593D02*
D03*
X24439D02*
D03*
X24846D02*
D03*
X23691Y34600D02*
D03*
X24439D02*
D03*
X24846D02*
D03*
X23691Y34611D02*
D03*
X24439D02*
D03*
X24846D02*
D03*
X23691Y34618D02*
D03*
X24439D02*
D03*
X24846D02*
D03*
X23691Y34625D02*
D03*
X24439D02*
D03*
X24846D02*
D03*
X23691Y34632D02*
D03*
X24439D02*
D03*
X24846D02*
D03*
X23691Y34642D02*
D03*
X24439D02*
D03*
X24846D02*
D03*
X23691Y34650D02*
D03*
X24439D02*
D03*
X24846D02*
D03*
X23691Y34657D02*
D03*
X24439D02*
D03*
X24846D02*
D03*
X23691Y34667D02*
D03*
X24439D02*
D03*
X24846D02*
D03*
X23691Y34674D02*
D03*
X24439D02*
D03*
X24846D02*
D03*
X23691Y34681D02*
D03*
X24439D02*
D03*
X24846D02*
D03*
X23691Y34692D02*
D03*
X24439D02*
D03*
X24846D02*
D03*
X23691Y34699D02*
D03*
X24439D02*
D03*
X24846D02*
D03*
X23691Y34706D02*
D03*
X24439D02*
D03*
X24846D02*
D03*
X23691Y34717D02*
D03*
X24439D02*
D03*
X24846D02*
D03*
X23691Y34724D02*
D03*
X24439D02*
D03*
X24846D02*
D03*
X23691Y34731D02*
D03*
X24439D02*
D03*
X24846D02*
D03*
X23691Y34738D02*
D03*
X24439D02*
D03*
X24846D02*
D03*
X23691Y34749D02*
D03*
X24439D02*
D03*
X24846D02*
D03*
X23691Y34756D02*
D03*
X24439D02*
D03*
X24846D02*
D03*
X23691Y34763D02*
D03*
X24439D02*
D03*
X24846D02*
D03*
X23691Y34774D02*
D03*
X24439D02*
D03*
X24846D02*
D03*
X23691Y34781D02*
D03*
X24439D02*
D03*
X24846D02*
D03*
X23691Y34788D02*
D03*
X24439D02*
D03*
X24846D02*
D03*
X23691Y34798D02*
D03*
X24439D02*
D03*
X24846D02*
D03*
X23691Y34805D02*
D03*
X24439D02*
D03*
X24846D02*
D03*
X23691Y34813D02*
D03*
X24439D02*
D03*
X24846D02*
D03*
X23691Y34823D02*
D03*
X24439D02*
D03*
X24846D02*
D03*
X23691Y34830D02*
D03*
X24439D02*
D03*
X24846D02*
D03*
X23691Y34837D02*
D03*
X24439D02*
D03*
X24846D02*
D03*
X23691Y34844D02*
D03*
X24439D02*
D03*
X24846D02*
D03*
X23691Y34855D02*
D03*
X24439D02*
D03*
X24846D02*
D03*
X23691Y34862D02*
D03*
X24439D02*
D03*
X24846D02*
D03*
X23691Y34869D02*
D03*
X24439D02*
D03*
X24846D02*
D03*
X23691Y34880D02*
D03*
X24439D02*
D03*
X24846D02*
D03*
X23691Y34887D02*
D03*
X24439D02*
D03*
X24846D02*
D03*
X23691Y34894D02*
D03*
X24439D02*
D03*
X24846D02*
D03*
X23691Y34905D02*
D03*
X24439D02*
D03*
X24846D02*
D03*
X23691Y34912D02*
D03*
X24439D02*
D03*
X24846D02*
D03*
X23691Y34919D02*
D03*
X24439D02*
D03*
X24846D02*
D03*
X23691Y34929D02*
D03*
X24439D02*
D03*
X24846D02*
D03*
X23691Y34937D02*
D03*
X24439D02*
D03*
X24846D02*
D03*
X23691Y34944D02*
D03*
X24439D02*
D03*
X24846D02*
D03*
X23691Y34951D02*
D03*
X24439D02*
D03*
X23691Y34961D02*
D03*
X24439D02*
D03*
X23691Y34968D02*
D03*
X24439D02*
D03*
X23691Y34976D02*
D03*
X24439D02*
D03*
X23691Y34986D02*
D03*
X24439D02*
D03*
X23691Y34993D02*
D03*
X24439D02*
D03*
X23691Y35000D02*
D03*
X24439D02*
D03*
X23691Y35011D02*
D03*
X24439D02*
D03*
X23691Y35018D02*
D03*
X24439D02*
D03*
X23691Y35025D02*
D03*
X24439D02*
D03*
X23691Y35036D02*
D03*
X24439D02*
D03*
X23691Y35043D02*
D03*
X24439D02*
D03*
X23691Y35050D02*
D03*
X24439D02*
D03*
X23691Y35061D02*
D03*
X24439D02*
D03*
X23691Y35068D02*
D03*
X24439D02*
D03*
X23691Y35075D02*
D03*
X24439D02*
D03*
X23691Y35082D02*
D03*
X24439D02*
D03*
X23691Y35092D02*
D03*
X24439D02*
D03*
X23691Y35100D02*
D03*
X24439D02*
D03*
X23691Y35107D02*
D03*
X24439D02*
D03*
X23691Y35117D02*
D03*
X24439D02*
D03*
X23691Y35124D02*
D03*
X24439D02*
D03*
X23691Y35131D02*
D03*
X24439D02*
D03*
X23691Y35142D02*
D03*
X24439D02*
D03*
X23691Y35149D02*
D03*
X24439D02*
D03*
X23691Y35156D02*
D03*
X24439D02*
D03*
D187*
X26085Y33388D02*
D03*
X21641Y33700D02*
D03*
D188*
X21638Y33392D02*
D03*
X21641Y33682D02*
D03*
X25440Y34122D02*
D03*
X25436Y34129D02*
D03*
X25433Y34132D02*
D03*
X25429Y34139D02*
D03*
X25425Y34146D02*
D03*
X23338Y34153D02*
D03*
X25418Y34157D02*
D03*
X25415Y34164D02*
D03*
X24384Y34178D02*
D03*
X25404D02*
D03*
X25401Y34185D02*
D03*
X23739Y34189D02*
D03*
X23735Y34196D02*
D03*
X25394D02*
D03*
X25390Y34203D02*
D03*
X25386Y34210D02*
D03*
X25383Y34214D02*
D03*
X25379Y34221D02*
D03*
X25376Y34228D02*
D03*
X25369Y34238D02*
D03*
X22446Y34246D02*
D03*
X22449Y34253D02*
D03*
X22453Y34260D02*
D03*
X25355D02*
D03*
X21627Y34277D02*
D03*
X25344D02*
D03*
X21623Y34285D02*
D03*
X23346D02*
D03*
X21620Y34292D02*
D03*
X25333D02*
D03*
X21616Y34302D02*
D03*
X25326D02*
D03*
X25815Y34327D02*
D03*
X25812Y34334D02*
D03*
X25401Y34635D02*
D03*
X25836Y34742D02*
D03*
Y34745D02*
D03*
X25840Y34752D02*
D03*
X22463Y34759D02*
D03*
X21638Y34777D02*
D03*
X22456D02*
D03*
X21641Y34784D02*
D03*
X25440Y34873D02*
D03*
X22818Y34883D02*
D03*
D189*
X22407Y33392D02*
D03*
X23714D02*
D03*
X25567Y33402D02*
D03*
X23714Y33572D02*
D03*
Y33576D02*
D03*
X23356Y34221D02*
D03*
Y34228D02*
D03*
X24412Y34235D02*
D03*
Y34238D02*
D03*
X22499Y34426D02*
D03*
X25794Y34589D02*
D03*
X25443Y34720D02*
D03*
X25450Y34752D02*
D03*
Y34759D02*
D03*
Y34766D02*
D03*
X22800Y34816D02*
D03*
Y34820D02*
D03*
D190*
X24984Y33392D02*
D03*
X25689Y33664D02*
D03*
D191*
X25137Y33392D02*
D03*
X25987Y33420D02*
D03*
X26175D02*
D03*
X23245Y33427D02*
D03*
X23457D02*
D03*
X23974D02*
D03*
X26175D02*
D03*
X23826Y33434D02*
D03*
X24187D02*
D03*
X23826Y33441D02*
D03*
X22525Y33445D02*
D03*
X22288Y33452D02*
D03*
X22525D02*
D03*
X22288Y33459D02*
D03*
X23237Y33470D02*
D03*
Y33477D02*
D03*
Y33484D02*
D03*
X21788Y33491D02*
D03*
X25438Y33516D02*
D03*
X23245Y33523D02*
D03*
X23826D02*
D03*
X23974D02*
D03*
X24187D02*
D03*
X23245Y33526D02*
D03*
X23457D02*
D03*
X23826D02*
D03*
X23974D02*
D03*
X24187D02*
D03*
X25438Y33540D02*
D03*
Y33548D02*
D03*
Y33551D02*
D03*
X21487Y33565D02*
D03*
X23082Y33622D02*
D03*
X21643Y33746D02*
D03*
D192*
X26444Y33392D02*
D03*
Y33576D02*
D03*
X22975Y33682D02*
D03*
X24417Y34253D02*
D03*
X23709Y34270D02*
D03*
X23705Y34277D02*
D03*
Y34285D02*
D03*
X23702Y34295D02*
D03*
Y34302D02*
D03*
D193*
X21638Y33395D02*
D03*
X24058Y33895D02*
D03*
X23331Y34146D02*
D03*
X23746Y34178D02*
D03*
X22435Y34228D02*
D03*
X22438Y34235D02*
D03*
X21638Y34253D02*
D03*
X21634Y34260D02*
D03*
X23342Y34295D02*
D03*
X25826D02*
D03*
X25822Y34302D02*
D03*
X25294Y34341D02*
D03*
X25394Y34628D02*
D03*
X25847Y34766D02*
D03*
X25851Y34770D02*
D03*
X25854Y34777D02*
D03*
X22449Y34791D02*
D03*
X21652Y34802D02*
D03*
X21655Y34809D02*
D03*
X25436Y34883D02*
D03*
D194*
X22408Y33395D02*
D03*
X23716Y33565D02*
D03*
X26448D02*
D03*
X23354Y34196D02*
D03*
Y34203D02*
D03*
Y34210D02*
D03*
Y34214D02*
D03*
X24403D02*
D03*
X24407Y34221D02*
D03*
X23716Y34238D02*
D03*
Y34246D02*
D03*
X23712Y34253D02*
D03*
X22483Y34345D02*
D03*
X22486Y34359D02*
D03*
X22490Y34370D02*
D03*
Y34377D02*
D03*
X22493Y34384D02*
D03*
Y34391D02*
D03*
Y34398D02*
D03*
Y34401D02*
D03*
X22497Y34409D02*
D03*
Y34416D02*
D03*
Y34423D02*
D03*
X22500Y34433D02*
D03*
X21586Y34440D02*
D03*
X22500D02*
D03*
X25792D02*
D03*
X21586Y34448D02*
D03*
X22500D02*
D03*
X21586Y34451D02*
D03*
X22500D02*
D03*
X21586Y34458D02*
D03*
X22500D02*
D03*
X21583Y34472D02*
D03*
X25789D02*
D03*
X21583Y34476D02*
D03*
X22504D02*
D03*
X25789D02*
D03*
X21583Y34483D02*
D03*
X22504D02*
D03*
X25789D02*
D03*
X21583Y34490D02*
D03*
X22504D02*
D03*
X25789D02*
D03*
X21583Y34497D02*
D03*
X22504D02*
D03*
X25789D02*
D03*
X21583Y34504D02*
D03*
X22504D02*
D03*
X25789D02*
D03*
X21583Y34508D02*
D03*
X22504D02*
D03*
X25789D02*
D03*
X21583Y34515D02*
D03*
X22504D02*
D03*
X25789D02*
D03*
X21583Y34522D02*
D03*
X22504D02*
D03*
X25789D02*
D03*
X21583Y34529D02*
D03*
X22504D02*
D03*
X25789D02*
D03*
X21583Y34533D02*
D03*
X22504D02*
D03*
X25789D02*
D03*
X21583Y34540D02*
D03*
X22504D02*
D03*
X25789D02*
D03*
X21583Y34547D02*
D03*
X22504D02*
D03*
Y34554D02*
D03*
Y34557D02*
D03*
Y34564D02*
D03*
X25792D02*
D03*
X21586Y34572D02*
D03*
X25792D02*
D03*
X21586Y34579D02*
D03*
X25792D02*
D03*
X21586Y34582D02*
D03*
X25792D02*
D03*
X21586Y34589D02*
D03*
X22500D02*
D03*
X21586Y34596D02*
D03*
X22500D02*
D03*
X25796D02*
D03*
X21590Y34603D02*
D03*
X22500D02*
D03*
X25796D02*
D03*
X21590Y34607D02*
D03*
X22500D02*
D03*
X25796D02*
D03*
X21590Y34614D02*
D03*
Y34621D02*
D03*
X25799D02*
D03*
X22497Y34628D02*
D03*
X25799D02*
D03*
X21593Y34635D02*
D03*
Y34639D02*
D03*
X21597Y34653D02*
D03*
X21600Y34671D02*
D03*
X25427Y34678D02*
D03*
X25431Y34685D02*
D03*
X25434Y34696D02*
D03*
X25438Y34703D02*
D03*
X25441Y34713D02*
D03*
X25449Y34745D02*
D03*
X25452Y34770D02*
D03*
Y34777D02*
D03*
Y34784D02*
D03*
Y34791D02*
D03*
Y34795D02*
D03*
X22802Y34802D02*
D03*
X25452D02*
D03*
X22802Y34809D02*
D03*
Y34827D02*
D03*
Y34834D02*
D03*
Y34841D02*
D03*
X22805Y34851D02*
D03*
D195*
X24472Y33395D02*
D03*
X24915Y33551D02*
D03*
D196*
X24901Y33395D02*
D03*
X24391Y33703D02*
D03*
D197*
X24979Y33395D02*
D03*
X25153Y33565D02*
D03*
D198*
X26159Y33395D02*
D03*
X23760Y33615D02*
D03*
D199*
X21636Y33399D02*
D03*
X23330Y34143D02*
D03*
X21643Y34242D02*
D03*
X21636Y34256D02*
D03*
X25856Y34781D02*
D03*
X21657Y34813D02*
D03*
X22437D02*
D03*
D200*
X21932Y33399D02*
D03*
X25146Y33406D02*
D03*
Y33413D02*
D03*
X24575Y33750D02*
D03*
D201*
X22100Y33399D02*
D03*
D202*
X22407D02*
D03*
X23349Y34182D02*
D03*
X23356Y34242D02*
D03*
Y34249D02*
D03*
X22474Y34313D02*
D03*
X22481Y34338D02*
D03*
X22488Y34363D02*
D03*
X21595Y34380D02*
D03*
X21588Y34419D02*
D03*
X25794D02*
D03*
X21588Y34430D02*
D03*
X25794D02*
D03*
X22499Y34611D02*
D03*
Y34618D02*
D03*
Y34625D02*
D03*
X22495Y34632D02*
D03*
X25801D02*
D03*
X22495Y34642D02*
D03*
X21595Y34650D02*
D03*
X22495D02*
D03*
X25805D02*
D03*
X21599Y34667D02*
D03*
X25808D02*
D03*
X25425Y34674D02*
D03*
X25812D02*
D03*
X22488Y34681D02*
D03*
X21606Y34692D02*
D03*
X22800Y34798D02*
D03*
X25450Y34813D02*
D03*
Y34823D02*
D03*
X22807Y34855D02*
D03*
D203*
X23264Y33399D02*
D03*
X23803D02*
D03*
X23994D02*
D03*
X23625Y33406D02*
D03*
X24749D02*
D03*
X26357D02*
D03*
X22506Y33413D02*
D03*
X21758Y33424D02*
D03*
X21514Y33431D02*
D03*
X25131Y33438D02*
D03*
X22112Y33473D02*
D03*
X23264Y33555D02*
D03*
X26542D02*
D03*
X23353Y33626D02*
D03*
X24083D02*
D03*
X24848D02*
D03*
X25468Y33636D02*
D03*
D204*
X23436Y33399D02*
D03*
X24743Y33413D02*
D03*
X21763Y33431D02*
D03*
X25456Y33448D02*
D03*
X23624Y33544D02*
D03*
X26356D02*
D03*
X23992Y33555D02*
D03*
X24169D02*
D03*
X25023Y33569D02*
D03*
X21944Y33611D02*
D03*
D205*
X24166Y33399D02*
D03*
X25998D02*
D03*
X21508Y33438D02*
D03*
X25452Y33455D02*
D03*
X23439Y33555D02*
D03*
X21515Y33643D02*
D03*
X23071Y33661D02*
D03*
D206*
X24375Y33399D02*
D03*
X25994Y33406D02*
D03*
X23074Y33413D02*
D03*
X23252D02*
D03*
X23067Y33424D02*
D03*
X24736D02*
D03*
X22298Y33431D02*
D03*
X23064D02*
D03*
X21774Y33448D02*
D03*
X23043Y33463D02*
D03*
X21494Y33473D02*
D03*
X25445D02*
D03*
Y33480D02*
D03*
X24743Y33537D02*
D03*
X23255Y33544D02*
D03*
X23450D02*
D03*
X23819D02*
D03*
X26550D02*
D03*
X23067Y33579D02*
D03*
X21494Y33601D02*
D03*
X25448D02*
D03*
X21781Y33611D02*
D03*
X21501Y33618D02*
D03*
X21505Y33626D02*
D03*
D207*
X24476Y33399D02*
D03*
X25167Y33555D02*
D03*
D208*
X24906Y33399D02*
D03*
D209*
X24974D02*
D03*
X24910Y33555D02*
D03*
X25158Y33562D02*
D03*
D210*
X26164Y33399D02*
D03*
X22111Y33406D02*
D03*
X22309Y33413D02*
D03*
X23018Y33487D02*
D03*
X24758Y33555D02*
D03*
X21951Y33601D02*
D03*
X23758Y33618D02*
D03*
X26490D02*
D03*
X25473Y33643D02*
D03*
X21523Y33650D02*
D03*
X21760D02*
D03*
D211*
X26535Y33399D02*
D03*
X25022Y33519D02*
D03*
X23810Y33555D02*
D03*
X21765Y33643D02*
D03*
X21953Y33668D02*
D03*
D212*
X21638Y33402D02*
D03*
X21641Y33672D02*
D03*
X22424Y34210D02*
D03*
X21652Y34228D02*
D03*
X21648Y34235D02*
D03*
X21645Y34238D02*
D03*
X25833Y34277D02*
D03*
X23338Y34302D02*
D03*
X25386Y34621D02*
D03*
X22821Y34735D02*
D03*
X25861Y34791D02*
D03*
X25865Y34795D02*
D03*
X22435Y34816D02*
D03*
X21662Y34820D02*
D03*
X22832Y34901D02*
D03*
D213*
X22408Y33402D02*
D03*
X23726Y34214D02*
D03*
X23723Y34221D02*
D03*
X23354Y34260D02*
D03*
Y34263D02*
D03*
X23351Y34270D02*
D03*
X22465Y34292D02*
D03*
X22469Y34302D02*
D03*
X22476Y34316D02*
D03*
Y34320D02*
D03*
X21604Y34341D02*
D03*
Y34345D02*
D03*
X21600Y34352D02*
D03*
Y34359D02*
D03*
X25799Y34384D02*
D03*
Y34391D02*
D03*
X25796Y34401D02*
D03*
Y34409D02*
D03*
X22493Y34653D02*
D03*
X25413D02*
D03*
X25417Y34660D02*
D03*
X25420Y34664D02*
D03*
X22490Y34671D02*
D03*
X25424D02*
D03*
X22486Y34685D02*
D03*
X25813D02*
D03*
X22486Y34688D02*
D03*
X22483Y34696D02*
D03*
X25817D02*
D03*
X21608Y34703D02*
D03*
X22483D02*
D03*
X21611Y34710D02*
D03*
Y34713D02*
D03*
X22479D02*
D03*
X21615Y34720D02*
D03*
X22805Y34777D02*
D03*
X22802Y34784D02*
D03*
X25448Y34834D02*
D03*
Y34841D02*
D03*
X22809Y34866D02*
D03*
X22054Y35146D02*
D03*
D214*
X24912Y33402D02*
D03*
D215*
X24970D02*
D03*
X21898Y33427D02*
D03*
X25704Y33654D02*
D03*
D216*
X26166Y33402D02*
D03*
X22116Y33470D02*
D03*
X25472Y33640D02*
D03*
D217*
X23445Y33406D02*
D03*
X24370D02*
D03*
X23448Y33413D02*
D03*
X23980D02*
D03*
X25989D02*
D03*
X22123Y33424D02*
D03*
X23246D02*
D03*
X23618D02*
D03*
X23820D02*
D03*
X26350D02*
D03*
X26552D02*
D03*
X22123Y33431D02*
D03*
X22520D02*
D03*
X23824D02*
D03*
X25138D02*
D03*
X22123Y33438D02*
D03*
X22293D02*
D03*
X22123Y33448D02*
D03*
X22290D02*
D03*
X21779Y33463D02*
D03*
X21783Y33473D02*
D03*
X21786Y33480D02*
D03*
X21489Y33487D02*
D03*
X21786D02*
D03*
X21489Y33494D02*
D03*
X21790D02*
D03*
X25440D02*
D03*
X21485Y33505D02*
D03*
X21790D02*
D03*
X25440D02*
D03*
X21485Y33512D02*
D03*
X21790D02*
D03*
X21485Y33519D02*
D03*
X25436D02*
D03*
X21485Y33530D02*
D03*
X23246D02*
D03*
X23618D02*
D03*
X23824D02*
D03*
X24738D02*
D03*
X25436D02*
D03*
X26350D02*
D03*
X26556D02*
D03*
X21485Y33537D02*
D03*
X21794D02*
D03*
X23250D02*
D03*
X23980D02*
D03*
X24182D02*
D03*
X25436D02*
D03*
X21485Y33544D02*
D03*
X23983D02*
D03*
X21485Y33555D02*
D03*
Y33562D02*
D03*
X21790D02*
D03*
X25440D02*
D03*
X21790Y33569D02*
D03*
X25440D02*
D03*
X21489Y33579D02*
D03*
X21790D02*
D03*
X25443D02*
D03*
X21489Y33587D02*
D03*
X21786D02*
D03*
X23073D02*
D03*
X25443D02*
D03*
X21492Y33594D02*
D03*
X21786D02*
D03*
X23076D02*
D03*
X23080Y33611D02*
D03*
X21939Y33626D02*
D03*
X23080D02*
D03*
X21939Y33636D02*
D03*
X23080D02*
D03*
X21939Y33643D02*
D03*
X21942Y33650D02*
D03*
X24575Y33732D02*
D03*
D218*
X24915Y33406D02*
D03*
D219*
X24967D02*
D03*
X21895Y33431D02*
D03*
X25707Y33650D02*
D03*
D220*
X25502Y33406D02*
D03*
X26490Y33601D02*
D03*
D221*
X25679Y33406D02*
D03*
D222*
X21535Y33409D02*
D03*
X25121Y33445D02*
D03*
X23353Y33622D02*
D03*
X24848D02*
D03*
X23059Y33672D02*
D03*
D223*
X21914Y33409D02*
D03*
X25688D02*
D03*
D224*
X24919D02*
D03*
D225*
X24963D02*
D03*
X25707Y33427D02*
D03*
D226*
X25146Y33409D02*
D03*
D227*
X21909Y33413D02*
D03*
D228*
X24178D02*
D03*
X24735Y33431D02*
D03*
X24178Y33544D02*
D03*
X25447Y33594D02*
D03*
D229*
X25693Y33413D02*
D03*
X22135Y33668D02*
D03*
X24577Y33675D02*
D03*
D230*
X21907Y33416D02*
D03*
X24905Y33558D02*
D03*
X24575Y33764D02*
D03*
D231*
X24180Y33416D02*
D03*
X24368D02*
D03*
X23248Y33420D02*
D03*
X23454D02*
D03*
X24184D02*
D03*
X23822Y33427D02*
D03*
X26349D02*
D03*
X23617Y33434D02*
D03*
X23971D02*
D03*
X24733D02*
D03*
X26349D02*
D03*
X23241Y33441D02*
D03*
X23461D02*
D03*
X24729D02*
D03*
X26558D02*
D03*
X22291Y33445D02*
D03*
X23241D02*
D03*
X23461D02*
D03*
X24191D02*
D03*
X24729D02*
D03*
X26558D02*
D03*
X23829Y33452D02*
D03*
X24729D02*
D03*
X22529Y33459D02*
D03*
X23829D02*
D03*
X23967D02*
D03*
X26561D02*
D03*
X23464Y33466D02*
D03*
X26561D02*
D03*
X23464Y33470D02*
D03*
X26561D02*
D03*
X22284Y33477D02*
D03*
X23464D02*
D03*
X26561D02*
D03*
X22284Y33484D02*
D03*
X23464D02*
D03*
X22284Y33491D02*
D03*
X22532D02*
D03*
X23464D02*
D03*
X23967D02*
D03*
X22532Y33498D02*
D03*
X23464D02*
D03*
X23967D02*
D03*
X26561D02*
D03*
X22532Y33501D02*
D03*
X24729D02*
D03*
X26561D02*
D03*
X22532Y33509D02*
D03*
X23241D02*
D03*
X23829D02*
D03*
X24191D02*
D03*
X26561D02*
D03*
X21792Y33516D02*
D03*
X22532D02*
D03*
X23241D02*
D03*
X23461D02*
D03*
X23617D02*
D03*
X23829D02*
D03*
X23971D02*
D03*
X24191D02*
D03*
X24733D02*
D03*
X26349D02*
D03*
X26561D02*
D03*
X21792Y33523D02*
D03*
X22532D02*
D03*
X24736D02*
D03*
X26349D02*
D03*
X26558D02*
D03*
X21792Y33526D02*
D03*
X22532D02*
D03*
X24736D02*
D03*
X26558D02*
D03*
X21792Y33533D02*
D03*
X22532D02*
D03*
X23248D02*
D03*
X24184D02*
D03*
X25009D02*
D03*
X22532Y33540D02*
D03*
X21792Y33548D02*
D03*
X22532D02*
D03*
X21792Y33551D02*
D03*
X22532D02*
D03*
Y33558D02*
D03*
Y33565D02*
D03*
Y33572D02*
D03*
Y33576D02*
D03*
X25441D02*
D03*
X22532Y33583D02*
D03*
Y33590D02*
D03*
Y33597D02*
D03*
Y33604D02*
D03*
X23078D02*
D03*
X22532Y33608D02*
D03*
Y33615D02*
D03*
Y33622D02*
D03*
Y33629D02*
D03*
Y33633D02*
D03*
Y33640D02*
D03*
Y33647D02*
D03*
Y33654D02*
D03*
Y33657D02*
D03*
Y33664D02*
D03*
Y33672D02*
D03*
Y33679D02*
D03*
Y33682D02*
D03*
Y33689D02*
D03*
Y33696D02*
D03*
Y33703D02*
D03*
Y33707D02*
D03*
Y33714D02*
D03*
Y33721D02*
D03*
Y33728D02*
D03*
Y33735D02*
D03*
Y33739D02*
D03*
D232*
X25698Y33416D02*
D03*
X21903Y33420D02*
D03*
X24398Y33707D02*
D03*
D233*
X25702Y33420D02*
D03*
D234*
X21519Y33424D02*
D03*
X25463Y33438D02*
D03*
X25094Y33626D02*
D03*
D235*
X21900Y33424D02*
D03*
X22144Y33661D02*
D03*
D236*
X23974Y33424D02*
D03*
X25987D02*
D03*
X26175D02*
D03*
X23245Y33431D02*
D03*
X23457D02*
D03*
X23974D02*
D03*
X24187D02*
D03*
X23826Y33438D02*
D03*
X22525Y33448D02*
D03*
X22288Y33455D02*
D03*
Y33463D02*
D03*
X23237Y33473D02*
D03*
Y33480D02*
D03*
X25438Y33512D02*
D03*
X23457Y33530D02*
D03*
X23974D02*
D03*
X24187D02*
D03*
X25013D02*
D03*
X25438Y33544D02*
D03*
Y33555D02*
D03*
X25013Y33562D02*
D03*
X21487Y33569D02*
D03*
X23082Y33618D02*
D03*
D237*
X25705Y33424D02*
D03*
D238*
X24735Y33427D02*
D03*
X25447Y33597D02*
D03*
D239*
X25468Y33431D02*
D03*
X22038Y33881D02*
D03*
D240*
X21893Y33434D02*
D03*
X23353Y33633D02*
D03*
X24083D02*
D03*
X25092D02*
D03*
X22151Y33654D02*
D03*
D241*
X25099Y33459D02*
D03*
X25053Y33498D02*
D03*
X22081Y33501D02*
D03*
X21985Y33572D02*
D03*
D242*
X25094Y33463D02*
D03*
X22075Y33505D02*
D03*
X25087Y33611D02*
D03*
D243*
X25082Y33473D02*
D03*
X25075Y33480D02*
D03*
X21999Y33562D02*
D03*
D244*
X22098Y33487D02*
D03*
D245*
X25066D02*
D03*
X26490Y33594D02*
D03*
D246*
X22091Y33494D02*
D03*
X23353Y33618D02*
D03*
D247*
X22086Y33498D02*
D03*
D248*
X22945Y33501D02*
D03*
X22042Y33714D02*
D03*
X22056Y35153D02*
D03*
D249*
X22943Y33505D02*
D03*
X22043Y33718D02*
D03*
D250*
X22070Y33509D02*
D03*
X23760Y33597D02*
D03*
X25085Y33608D02*
D03*
X22059Y33739D02*
D03*
X25617D02*
D03*
D251*
X22054Y33519D02*
D03*
X22008Y33555D02*
D03*
X26490Y33587D02*
D03*
X25076Y33594D02*
D03*
D252*
X22045Y33526D02*
D03*
X23760Y33583D02*
D03*
X23353Y33608D02*
D03*
X24083D02*
D03*
X22059Y33735D02*
D03*
D253*
X24921Y33544D02*
D03*
X22153Y33650D02*
D03*
D254*
X24917Y33548D02*
D03*
D255*
X22013Y33551D02*
D03*
X25075Y33590D02*
D03*
D256*
X22004Y33558D02*
D03*
X23758Y33590D02*
D03*
X26490D02*
D03*
D257*
X23269Y33558D02*
D03*
D258*
X24375D02*
D03*
X25069Y33572D02*
D03*
X23351Y33604D02*
D03*
X24081D02*
D03*
D259*
X25163Y33558D02*
D03*
X22148Y33657D02*
D03*
D260*
X23048Y33562D02*
D03*
D261*
X23641D02*
D03*
X21735Y33668D02*
D03*
X22058Y33742D02*
D03*
X25615D02*
D03*
D262*
X24377Y33562D02*
D03*
Y33569D02*
D03*
Y33579D02*
D03*
X24820D02*
D03*
X24377Y33587D02*
D03*
Y33594D02*
D03*
Y33601D02*
D03*
Y33611D02*
D03*
Y33618D02*
D03*
D263*
X24897Y33562D02*
D03*
X21641Y33750D02*
D03*
D264*
X23716Y33569D02*
D03*
X23354Y34200D02*
D03*
Y34207D02*
D03*
Y34217D02*
D03*
X24403D02*
D03*
X24407Y34224D02*
D03*
X23354Y34231D02*
D03*
X23719D02*
D03*
X23716Y34242D02*
D03*
X22486Y34355D02*
D03*
X22490Y34373D02*
D03*
X22493Y34387D02*
D03*
Y34394D02*
D03*
X22497Y34405D02*
D03*
X21590Y34412D02*
D03*
X22497D02*
D03*
Y34419D02*
D03*
X21586Y34437D02*
D03*
X22500D02*
D03*
X25792D02*
D03*
X21586Y34444D02*
D03*
X22500D02*
D03*
X21586Y34455D02*
D03*
X22500D02*
D03*
X25789Y34469D02*
D03*
X21583Y34479D02*
D03*
X22504D02*
D03*
X25789D02*
D03*
X21583Y34487D02*
D03*
X22504D02*
D03*
X25789D02*
D03*
X21583Y34494D02*
D03*
X22504D02*
D03*
X25789D02*
D03*
X21583Y34501D02*
D03*
X22504D02*
D03*
X25789D02*
D03*
X21583Y34511D02*
D03*
X22504D02*
D03*
X25789D02*
D03*
X21583Y34518D02*
D03*
X22504D02*
D03*
X25789D02*
D03*
X21583Y34526D02*
D03*
X22504D02*
D03*
X25789D02*
D03*
X21583Y34536D02*
D03*
X22504D02*
D03*
X25789D02*
D03*
X21583Y34543D02*
D03*
X22504D02*
D03*
X21583Y34550D02*
D03*
X22504D02*
D03*
Y34561D02*
D03*
X25792D02*
D03*
X21586Y34568D02*
D03*
X22504D02*
D03*
X25792D02*
D03*
X21586Y34575D02*
D03*
X25792D02*
D03*
X21586Y34586D02*
D03*
X25792D02*
D03*
X21586Y34593D02*
D03*
X22500D02*
D03*
X25796D02*
D03*
X22500Y34600D02*
D03*
X25796D02*
D03*
X21590Y34611D02*
D03*
X25796D02*
D03*
X21590Y34618D02*
D03*
X25799D02*
D03*
Y34625D02*
D03*
X21593Y34632D02*
D03*
Y34642D02*
D03*
X25803D02*
D03*
X21597Y34657D02*
D03*
X25434Y34692D02*
D03*
X25438Y34699D02*
D03*
X25452Y34774D02*
D03*
Y34781D02*
D03*
Y34788D02*
D03*
Y34798D02*
D03*
X22802Y34805D02*
D03*
X25452D02*
D03*
X22802Y34813D02*
D03*
Y34823D02*
D03*
Y34830D02*
D03*
Y34837D02*
D03*
D265*
X25144Y33569D02*
D03*
D266*
X26446D02*
D03*
X22977Y33675D02*
D03*
X21641Y33693D02*
D03*
X24409Y34231D02*
D03*
X23711Y34256D02*
D03*
X22502Y34462D02*
D03*
Y34469D02*
D03*
X25790Y34543D02*
D03*
Y34550D02*
D03*
X21585Y34561D02*
D03*
X25440Y34706D02*
D03*
X25447Y34731D02*
D03*
Y34738D02*
D03*
D267*
X26446Y33572D02*
D03*
X22977Y33679D02*
D03*
X24409Y34228D02*
D03*
X24416Y34246D02*
D03*
X23711Y34260D02*
D03*
Y34263D02*
D03*
X22502Y34465D02*
D03*
Y34472D02*
D03*
X25790Y34547D02*
D03*
X21585Y34554D02*
D03*
X25790D02*
D03*
X21585Y34557D02*
D03*
X25790D02*
D03*
X21585Y34564D02*
D03*
X25440Y34710D02*
D03*
X25447Y34727D02*
D03*
Y34735D02*
D03*
Y34742D02*
D03*
D268*
X24818Y33576D02*
D03*
D269*
X25071D02*
D03*
X21641Y33728D02*
D03*
D270*
X24081Y33579D02*
D03*
D271*
X25071D02*
D03*
D272*
X24821Y33583D02*
D03*
D273*
X21965Y33587D02*
D03*
D274*
X23760D02*
D03*
X21641Y33732D02*
D03*
D275*
X23353Y33594D02*
D03*
D276*
Y33611D02*
D03*
D277*
X23758D02*
D03*
X26490D02*
D03*
X25495Y33661D02*
D03*
D278*
X24839Y33611D02*
D03*
D279*
X24081Y33615D02*
D03*
X21643Y33735D02*
D03*
D280*
X26492Y33615D02*
D03*
X25486Y33654D02*
D03*
D281*
X23760Y33626D02*
D03*
D282*
X23354Y33629D02*
D03*
X25094D02*
D03*
X24577Y33689D02*
D03*
X22058Y35160D02*
D03*
D283*
X23760Y33629D02*
D03*
D284*
X24083D02*
D03*
X24575Y33753D02*
D03*
D285*
X24848Y33629D02*
D03*
D286*
X26490D02*
D03*
D287*
X23758Y33633D02*
D03*
X24846D02*
D03*
X26490D02*
D03*
X24410Y33714D02*
D03*
D288*
X25487Y33657D02*
D03*
D289*
X25700D02*
D03*
D290*
X25695Y33661D02*
D03*
D291*
X22139Y33664D02*
D03*
D292*
X22128Y33672D02*
D03*
D293*
X21639Y33675D02*
D03*
X23748Y34175D02*
D03*
X21639Y34249D02*
D03*
X23340Y34299D02*
D03*
X25286Y34348D02*
D03*
X22440Y34805D02*
D03*
D294*
X22120Y33675D02*
D03*
D295*
X21639Y33679D02*
D03*
X24378Y34171D02*
D03*
X23741Y34185D02*
D03*
X22440Y34238D02*
D03*
X21629Y34270D02*
D03*
X25321Y34309D02*
D03*
X25821D02*
D03*
X25817Y34316D02*
D03*
Y34320D02*
D03*
X22454Y34784D02*
D03*
X21647Y34791D02*
D03*
Y34795D02*
D03*
X22447D02*
D03*
X22823Y34890D02*
D03*
D296*
X24575Y33679D02*
D03*
Y33760D02*
D03*
D297*
X24577Y33682D02*
D03*
X24378Y33696D02*
D03*
D298*
X21641Y33686D02*
D03*
X23346Y34168D02*
D03*
X23349Y34274D02*
D03*
X21609Y34324D02*
D03*
X21602Y34348D02*
D03*
X25805Y34363D02*
D03*
X25801Y34373D02*
D03*
Y34380D02*
D03*
X25411Y34650D02*
D03*
X25415Y34657D02*
D03*
X22477Y34717D02*
D03*
X25826D02*
D03*
X22477Y34724D02*
D03*
X22474Y34731D02*
D03*
X21620Y34738D02*
D03*
X21624Y34749D02*
D03*
X25447Y34844D02*
D03*
X22811Y34869D02*
D03*
D299*
X21641Y33689D02*
D03*
X23353Y34189D02*
D03*
X24398Y34203D02*
D03*
X23721Y34228D02*
D03*
X22477Y34327D02*
D03*
X22485Y34352D02*
D03*
X21592Y34391D02*
D03*
Y34398D02*
D03*
X25798D02*
D03*
X21592Y34401D02*
D03*
Y34409D02*
D03*
X25790Y34448D02*
D03*
Y34451D02*
D03*
Y34458D02*
D03*
X21585Y34465D02*
D03*
X25790D02*
D03*
X22502Y34572D02*
D03*
Y34579D02*
D03*
Y34582D02*
D03*
X25798Y34614D02*
D03*
X21592Y34628D02*
D03*
X22492Y34660D02*
D03*
Y34664D02*
D03*
X21602Y34678D02*
D03*
Y34685D02*
D03*
X25815Y34688D02*
D03*
X22803Y34848D02*
D03*
D300*
X22031Y33693D02*
D03*
X22956Y33725D02*
D03*
X24058Y33888D02*
D03*
D301*
X24373Y33693D02*
D03*
D302*
X22038Y33707D02*
D03*
D303*
X24403Y33711D02*
D03*
D304*
X21641Y33718D02*
D03*
D305*
X25599D02*
D03*
D306*
X21641Y33739D02*
D03*
D307*
X22350Y33877D02*
D03*
X24331Y34129D02*
D03*
D308*
X22637Y33881D02*
D03*
D309*
X25750D02*
D03*
X26281Y35075D02*
D03*
D310*
X26398Y33881D02*
D03*
D311*
X22669Y33884D02*
D03*
D312*
X25737D02*
D03*
X26294Y35089D02*
D03*
D313*
X26382Y33884D02*
D03*
X22038Y33916D02*
D03*
X22307Y34122D02*
D03*
D314*
X22694Y33888D02*
D03*
D315*
X25727D02*
D03*
X25014Y34455D02*
D03*
D316*
X26368Y33888D02*
D03*
Y35142D02*
D03*
D317*
X22711Y33891D02*
D03*
D318*
X25718D02*
D03*
X22040Y33948D02*
D03*
D319*
X26357Y33891D02*
D03*
D320*
X22038Y33895D02*
D03*
X24394Y34196D02*
D03*
X23732Y34203D02*
D03*
X22463Y34285D02*
D03*
X21606Y34334D02*
D03*
X25819Y34703D02*
D03*
X22481Y34710D02*
D03*
X22807Y34766D02*
D03*
Y34770D02*
D03*
D321*
X22729Y33895D02*
D03*
D322*
X25711D02*
D03*
D323*
X26349D02*
D03*
X25654Y33934D02*
D03*
X26005Y34122D02*
D03*
X22965Y34607D02*
D03*
D324*
X22040Y33898D02*
D03*
X24361Y34150D02*
D03*
X25849Y34249D02*
D03*
X25845Y34256D02*
D03*
X25877Y34813D02*
D03*
X22422Y34837D02*
D03*
X25424Y34905D02*
D03*
D325*
X22741Y33898D02*
D03*
X23011Y34093D02*
D03*
D326*
X24058Y33898D02*
D03*
X25358Y34600D02*
D03*
X25904Y34844D02*
D03*
X21701Y34869D02*
D03*
X22396D02*
D03*
X25411Y34919D02*
D03*
D327*
X25705Y33898D02*
D03*
X23105Y34501D02*
D03*
X23051Y34543D02*
D03*
D328*
X26341Y33898D02*
D03*
X25665Y33923D02*
D03*
X24060Y33930D02*
D03*
D329*
X22038Y33902D02*
D03*
X23300Y34114D02*
D03*
X24338Y34132D02*
D03*
X22371Y34153D02*
D03*
X25886Y34196D02*
D03*
X23310Y34345D02*
D03*
X21716Y34883D02*
D03*
X22382D02*
D03*
D330*
X22756Y33902D02*
D03*
X22040Y34083D02*
D03*
X22050Y34958D02*
D03*
X25076Y35022D02*
D03*
D331*
X24060Y33902D02*
D03*
X21714Y34153D02*
D03*
X25895Y34185D02*
D03*
X22858Y34688D02*
D03*
X25934Y34873D02*
D03*
X22373Y34890D02*
D03*
D332*
X25697Y33902D02*
D03*
X22040Y33941D02*
D03*
X24060D02*
D03*
X23230Y35138D02*
D03*
D333*
X26333Y33902D02*
D03*
X22998Y34582D02*
D03*
D334*
X22038Y33905D02*
D03*
X23292Y34363D02*
D03*
X25943Y34880D02*
D03*
D335*
X22766Y33905D02*
D03*
X22040Y34086D02*
D03*
X25080Y35011D02*
D03*
D336*
X24060Y33905D02*
D03*
D337*
X25689D02*
D03*
X26327D02*
D03*
X23018Y34568D02*
D03*
D338*
X22038Y33909D02*
D03*
X21755Y34908D02*
D03*
D339*
X22779Y33909D02*
D03*
X22991Y34065D02*
D03*
D340*
X24058Y33909D02*
D03*
X25507Y34104D02*
D03*
X25500Y34114D02*
D03*
X23820Y34122D02*
D03*
X21755Y34129D02*
D03*
X23268Y34384D02*
D03*
X26396Y35153D02*
D03*
D341*
X25686Y33909D02*
D03*
X23152Y34465D02*
D03*
X23004Y34579D02*
D03*
X26331Y35121D02*
D03*
D342*
X26322Y33909D02*
D03*
Y35114D02*
D03*
D343*
X22038Y33913D02*
D03*
X25514Y34093D02*
D03*
X22322Y34125D02*
D03*
D344*
X22787Y33913D02*
D03*
X22050Y34951D02*
D03*
X25084Y35000D02*
D03*
D345*
X24059Y33913D02*
D03*
X25562Y34029D02*
D03*
X22054Y35124D02*
D03*
X26384Y35149D02*
D03*
D346*
X25681Y33913D02*
D03*
X23158Y34462D02*
D03*
D347*
X26317Y33913D02*
D03*
X22040Y33944D02*
D03*
X24060D02*
D03*
X23060Y34536D02*
D03*
D348*
X22798Y33916D02*
D03*
X22982Y34054D02*
D03*
X22986Y34058D02*
D03*
X22040Y34090D02*
D03*
D349*
X24060Y33916D02*
D03*
D350*
X25677D02*
D03*
D351*
X26310D02*
D03*
X24060Y33948D02*
D03*
X26310Y35103D02*
D03*
D352*
X22038Y33920D02*
D03*
X25603Y33983D02*
D03*
D353*
X22807Y33920D02*
D03*
X22970Y34040D02*
D03*
X22977Y34047D02*
D03*
X25085Y34997D02*
D03*
D354*
X24058Y33920D02*
D03*
D355*
X25670D02*
D03*
X22038Y33934D02*
D03*
X23246Y35146D02*
D03*
D356*
X26304Y33920D02*
D03*
X22052Y35089D02*
D03*
D357*
X22040Y33923D02*
D03*
X25622Y33962D02*
D03*
X22940Y34625D02*
D03*
X22054Y35117D02*
D03*
D358*
X22816Y33923D02*
D03*
X22979Y34051D02*
D03*
D359*
X24060Y33923D02*
D03*
D360*
X26301D02*
D03*
X23207Y35124D02*
D03*
D361*
X22040Y33927D02*
D03*
X25636Y33948D02*
D03*
X22954Y34614D02*
D03*
X22054Y35114D02*
D03*
D362*
X22823Y33927D02*
D03*
X22954Y34022D02*
D03*
X22958Y34026D02*
D03*
X22965Y34033D02*
D03*
D363*
X24060Y33927D02*
D03*
D364*
X25661D02*
D03*
D365*
X26297D02*
D03*
D366*
X22038Y33930D02*
D03*
X25656D02*
D03*
D367*
X22830D02*
D03*
X22961Y34029D02*
D03*
X22040Y34093D02*
D03*
D368*
X26292Y33930D02*
D03*
X25023Y34444D02*
D03*
Y34462D02*
D03*
X22054Y35082D02*
D03*
X23199Y35117D02*
D03*
D369*
X22837Y33934D02*
D03*
X22050Y34947D02*
D03*
X25087Y34990D02*
D03*
D370*
X24060Y33934D02*
D03*
D371*
X26288D02*
D03*
D372*
X22040Y33937D02*
D03*
X23238Y35142D02*
D03*
D373*
X22844Y33937D02*
D03*
X22950Y34019D02*
D03*
X22968Y34037D02*
D03*
X25087Y34986D02*
D03*
D374*
X24061Y33937D02*
D03*
D375*
X25649D02*
D03*
D376*
X26285D02*
D03*
D377*
X22849Y33941D02*
D03*
X22864Y33948D02*
D03*
X22867Y33951D02*
D03*
X22899Y33973D02*
D03*
X22913Y33983D02*
D03*
X22942Y34008D02*
D03*
X22949Y34015D02*
D03*
X25089Y34979D02*
D03*
Y34983D02*
D03*
D378*
X25645Y33941D02*
D03*
D379*
X26279D02*
D03*
D380*
X22857Y33944D02*
D03*
X22874Y33955D02*
D03*
X22885Y33962D02*
D03*
X22910Y33980D02*
D03*
X22917Y33987D02*
D03*
X22938Y34005D02*
D03*
X22945Y34012D02*
D03*
X22049Y34944D02*
D03*
D381*
X25640Y33944D02*
D03*
X23202Y34430D02*
D03*
D382*
X26276Y33944D02*
D03*
Y35068D02*
D03*
D383*
X26272Y33948D02*
D03*
Y35064D02*
D03*
D384*
X22040Y33951D02*
D03*
D385*
X24061D02*
D03*
D386*
X25633D02*
D03*
X23209Y34426D02*
D03*
D387*
X26271Y33951D02*
D03*
X25045Y34416D02*
D03*
D388*
X22040Y33955D02*
D03*
D389*
X24061D02*
D03*
D390*
X25629D02*
D03*
D391*
X26267D02*
D03*
D392*
X22040Y33959D02*
D03*
X24060D02*
D03*
D393*
X22880D02*
D03*
X22890Y33966D02*
D03*
X22904Y33976D02*
D03*
X22922Y33990D02*
D03*
X22929Y33998D02*
D03*
X22040Y34097D02*
D03*
X25091Y34972D02*
D03*
D394*
X25626Y33959D02*
D03*
D395*
X26263D02*
D03*
Y35053D02*
D03*
D396*
X22040Y33962D02*
D03*
X25030Y34437D02*
D03*
D397*
X24060Y33962D02*
D03*
D398*
X26260D02*
D03*
D399*
X22040Y33966D02*
D03*
D400*
X24061D02*
D03*
X25032Y34433D02*
D03*
X23190Y35110D02*
D03*
D401*
X25617Y33966D02*
D03*
D402*
X26258D02*
D03*
X24061Y33983D02*
D03*
X25057Y34490D02*
D03*
D403*
X22040Y33969D02*
D03*
D404*
X22894D02*
D03*
X22926Y33994D02*
D03*
D405*
X24059Y33969D02*
D03*
D406*
X25615D02*
D03*
D407*
X26255D02*
D03*
X24061Y33987D02*
D03*
X25061Y34387D02*
D03*
D408*
X22038Y33973D02*
D03*
X24061Y33976D02*
D03*
D409*
X24060Y33973D02*
D03*
X25041Y34423D02*
D03*
Y34476D02*
D03*
D410*
X25611Y33973D02*
D03*
X22936Y34628D02*
D03*
D411*
X26251Y33973D02*
D03*
X24061Y33990D02*
D03*
D412*
X22040Y33976D02*
D03*
D413*
X25608D02*
D03*
D414*
X26249D02*
D03*
X25066Y34377D02*
D03*
X26249Y35032D02*
D03*
D415*
X22040Y33980D02*
D03*
X25059Y34494D02*
D03*
D416*
X24060Y33980D02*
D03*
X25052Y34405D02*
D03*
D417*
X25604Y33980D02*
D03*
X22929Y34632D02*
D03*
D418*
X26248Y33980D02*
D03*
D419*
X22040Y33983D02*
D03*
X25062Y34384D02*
D03*
Y34497D02*
D03*
X22050Y35057D02*
D03*
D420*
X26244Y33983D02*
D03*
X23151Y35064D02*
D03*
D421*
X22040Y33987D02*
D03*
X25066Y34373D02*
D03*
Y34501D02*
D03*
X24974Y35142D02*
D03*
D422*
X25599Y33987D02*
D03*
X23229Y34412D02*
D03*
D423*
X26242Y33987D02*
D03*
D424*
X22040Y33990D02*
D03*
X26242Y35022D02*
D03*
D425*
X25594Y33990D02*
D03*
X22926Y34635D02*
D03*
D426*
X26239Y33990D02*
D03*
X25076Y34515D02*
D03*
X26239Y35014D02*
D03*
X22050Y35046D02*
D03*
X23145Y35057D02*
D03*
D427*
X22040Y33994D02*
D03*
D428*
X24061D02*
D03*
D429*
X25592D02*
D03*
D430*
X26237D02*
D03*
X24061Y34005D02*
D03*
X25078Y34518D02*
D03*
X26237Y35011D02*
D03*
D431*
X22040Y33998D02*
D03*
X26235D02*
D03*
Y35007D02*
D03*
D432*
X24061Y33998D02*
D03*
X25071Y34508D02*
D03*
D433*
X25588Y33998D02*
D03*
X22920Y34639D02*
D03*
D434*
X22038Y34001D02*
D03*
D435*
X22935D02*
D03*
D436*
X24061D02*
D03*
X24983Y35138D02*
D03*
D437*
X25587Y34001D02*
D03*
X25969Y34132D02*
D03*
X26377Y35146D02*
D03*
D438*
X26232Y34001D02*
D03*
Y35004D02*
D03*
X23138Y35046D02*
D03*
D439*
X22040Y34005D02*
D03*
X25091Y34536D02*
D03*
D440*
X25581Y34005D02*
D03*
X23239Y34405D02*
D03*
X22917Y34642D02*
D03*
X25999Y34912D02*
D03*
D441*
X26230Y34005D02*
D03*
X24061Y34012D02*
D03*
X26230Y35000D02*
D03*
X23137Y35043D02*
D03*
D442*
X22040Y34008D02*
D03*
X26221Y34983D02*
D03*
X22050Y35032D02*
D03*
D443*
X24061Y34008D02*
D03*
X25082Y34522D02*
D03*
D444*
X25578Y34008D02*
D03*
D445*
X26228D02*
D03*
Y34997D02*
D03*
X23135Y35039D02*
D03*
D446*
X22038Y34012D02*
D03*
D447*
X25576D02*
D03*
D448*
X26226D02*
D03*
Y34993D02*
D03*
X23133Y35036D02*
D03*
D449*
X22040Y34015D02*
D03*
X26210Y34040D02*
D03*
D450*
X24061Y34015D02*
D03*
X25089Y34533D02*
D03*
D451*
X25573Y34015D02*
D03*
X23245Y34401D02*
D03*
D452*
X26225Y34015D02*
D03*
Y34990D02*
D03*
X23131Y35032D02*
D03*
D453*
X22040Y34019D02*
D03*
D454*
X24061D02*
D03*
D455*
X25571D02*
D03*
X25961Y34136D02*
D03*
X21783Y34919D02*
D03*
X22314D02*
D03*
D456*
X26221Y34019D02*
D03*
X25094Y34543D02*
D03*
X23128Y35025D02*
D03*
D457*
X22040Y34022D02*
D03*
X25112Y34579D02*
D03*
D458*
X24061Y34022D02*
D03*
X25096Y34547D02*
D03*
D459*
X25567Y34022D02*
D03*
X22910Y34646D02*
D03*
D460*
X26219Y34022D02*
D03*
Y34979D02*
D03*
X23126Y35022D02*
D03*
D461*
X22040Y34026D02*
D03*
X22050Y35014D02*
D03*
D462*
X24061Y34026D02*
D03*
X25099Y34554D02*
D03*
X22052Y35029D02*
D03*
D463*
X25565Y34026D02*
D03*
X25558Y34033D02*
D03*
X23248Y34398D02*
D03*
D464*
X26217Y34026D02*
D03*
D465*
X22040Y34029D02*
D03*
X24063Y34051D02*
D03*
X26196Y34929D02*
D03*
X22050Y35011D02*
D03*
D466*
X24061Y34029D02*
D03*
X26212Y34037D02*
D03*
X25103Y34561D02*
D03*
X22052Y35025D02*
D03*
D467*
X26216Y34029D02*
D03*
X23122Y35011D02*
D03*
D468*
X22040Y34033D02*
D03*
X26193Y34079D02*
D03*
D469*
X24063Y34033D02*
D03*
X25105Y34564D02*
D03*
D470*
X26214Y34033D02*
D03*
X25101Y34557D02*
D03*
X23121Y35007D02*
D03*
D471*
X22040Y34037D02*
D03*
D472*
X24061D02*
D03*
X26209Y34044D02*
D03*
X25107Y34568D02*
D03*
D473*
X25557Y34037D02*
D03*
X22906Y34650D02*
D03*
D474*
X22040Y34040D02*
D03*
X26186Y34097D02*
D03*
D475*
X24061Y34040D02*
D03*
X26205Y34947D02*
D03*
X23112Y34983D02*
D03*
D476*
X25553Y34040D02*
D03*
X25992Y34908D02*
D03*
D477*
X22040Y34044D02*
D03*
D478*
X22974D02*
D03*
X25085Y34993D02*
D03*
D479*
X24061Y34044D02*
D03*
X23108Y34976D02*
D03*
D480*
X25551Y34044D02*
D03*
D481*
X22040Y34047D02*
D03*
D482*
X24061D02*
D03*
D483*
X25548D02*
D03*
X25955Y34139D02*
D03*
X22901Y34653D02*
D03*
D484*
X26207Y34047D02*
D03*
Y34954D02*
D03*
X23113Y34990D02*
D03*
X22050Y35022D02*
D03*
D485*
X22040Y34051D02*
D03*
D486*
X25544D02*
D03*
X25356Y34944D02*
D03*
D487*
X26205Y34051D02*
D03*
X25110Y34575D02*
D03*
X26205Y34951D02*
D03*
X23112Y34986D02*
D03*
D488*
X22040Y34054D02*
D03*
X24063Y34090D02*
D03*
X25052Y35071D02*
D03*
D489*
X24061Y34054D02*
D03*
D490*
X25542D02*
D03*
X25539Y34058D02*
D03*
D491*
X26203Y34054D02*
D03*
X23110Y34979D02*
D03*
D492*
X22040Y34058D02*
D03*
D493*
X24061D02*
D03*
D494*
X26201D02*
D03*
X25114Y34582D02*
D03*
X26201Y34940D02*
D03*
X23108Y34972D02*
D03*
D495*
X22040Y34061D02*
D03*
X25059Y35061D02*
D03*
D496*
X22988Y34061D02*
D03*
X22995Y34068D02*
D03*
D497*
X24063Y34061D02*
D03*
X26189Y34086D02*
D03*
D498*
X25537Y34061D02*
D03*
X25530Y34068D02*
D03*
X25526Y34076D02*
D03*
X25948Y34143D02*
D03*
X25984Y34905D02*
D03*
D499*
X26200Y34061D02*
D03*
X25115Y34586D02*
D03*
X26200Y34937D02*
D03*
D500*
X22040Y34065D02*
D03*
D501*
X24061D02*
D03*
X26187Y34090D02*
D03*
D502*
X25534Y34065D02*
D03*
X25530Y34072D02*
D03*
D503*
X26198Y34065D02*
D03*
Y34933D02*
D03*
X23105Y34965D02*
D03*
D504*
X22040Y34068D02*
D03*
D505*
X24061D02*
D03*
X26184Y34100D02*
D03*
D506*
X26198Y34068D02*
D03*
X23105Y34961D02*
D03*
D507*
X22040Y34072D02*
D03*
D508*
X22997D02*
D03*
X23004Y34083D02*
D03*
X22050Y34954D02*
D03*
D509*
X24063Y34072D02*
D03*
X26182Y34107D02*
D03*
X22050Y34997D02*
D03*
D510*
X26196Y34072D02*
D03*
X23103Y34954D02*
D03*
Y34958D02*
D03*
X25027Y35103D02*
D03*
D511*
X22040Y34076D02*
D03*
D512*
X23000D02*
D03*
D513*
X24061D02*
D03*
X26180Y34111D02*
D03*
D514*
X26194Y34076D02*
D03*
X23101Y34951D02*
D03*
D515*
X22040Y34079D02*
D03*
X25073Y35029D02*
D03*
Y35032D02*
D03*
D516*
X23000Y34079D02*
D03*
D517*
X24061D02*
D03*
D518*
X25525D02*
D03*
D519*
X24063Y34083D02*
D03*
X22050Y34990D02*
D03*
X25048Y35078D02*
D03*
D520*
X25521Y34083D02*
D03*
X21772Y34915D02*
D03*
X22329D02*
D03*
D521*
X26191Y34083D02*
D03*
D522*
X23005Y34086D02*
D03*
D523*
X24061D02*
D03*
X25050Y35075D02*
D03*
D524*
X25519Y34086D02*
D03*
X23262Y34100D02*
D03*
Y34387D02*
D03*
D525*
X23009Y34090D02*
D03*
X25078Y35014D02*
D03*
D526*
X25516Y34090D02*
D03*
X25941Y34146D02*
D03*
X22890Y34660D02*
D03*
X25976Y34901D02*
D03*
X22054Y35128D02*
D03*
D527*
X24063Y34093D02*
D03*
D528*
X26187D02*
D03*
D529*
X23012Y34097D02*
D03*
D530*
X24061D02*
D03*
X25057Y35064D02*
D03*
D531*
X25512Y34097D02*
D03*
X25505Y34107D02*
D03*
X23301Y35160D02*
D03*
D532*
X22042Y34100D02*
D03*
X25092Y34968D02*
D03*
D533*
X24063Y34100D02*
D03*
D534*
X25509D02*
D03*
X25502Y34111D02*
D03*
D535*
X22040Y34104D02*
D03*
D536*
X23273D02*
D03*
X25927Y34157D02*
D03*
X22345Y34908D02*
D03*
D537*
X24063Y34104D02*
D03*
X22050Y34979D02*
D03*
D538*
X26184Y34104D02*
D03*
X25039Y35089D02*
D03*
D539*
X22040Y34107D02*
D03*
D540*
X23285D02*
D03*
X21723Y34146D02*
D03*
D541*
X24063Y34107D02*
D03*
X25062Y35053D02*
D03*
D542*
X22040Y34111D02*
D03*
D543*
X23291D02*
D03*
X25899Y34182D02*
D03*
X22855Y34692D02*
D03*
D544*
X24063Y34111D02*
D03*
X22050Y34976D02*
D03*
D545*
X22040Y34114D02*
D03*
X22050Y34926D02*
D03*
D546*
X24063Y34114D02*
D03*
X22050Y34972D02*
D03*
D547*
X26178Y34114D02*
D03*
D548*
X22040Y34118D02*
D03*
D549*
X23305D02*
D03*
X23776Y34143D02*
D03*
X22380Y34161D02*
D03*
X21693Y34175D02*
D03*
X25877Y34207D02*
D03*
X23315Y34338D02*
D03*
X22841Y34706D02*
D03*
D550*
X24063Y34118D02*
D03*
D551*
X25496D02*
D03*
D552*
X26178D02*
D03*
D553*
X21776Y34122D02*
D03*
D554*
X23308D02*
D03*
X23772Y34146D02*
D03*
X21682Y34185D02*
D03*
X25867Y34221D02*
D03*
X22398Y34866D02*
D03*
X26434Y35160D02*
D03*
D555*
X24309Y34122D02*
D03*
X25932Y34153D02*
D03*
D556*
X21765Y34125D02*
D03*
D557*
X23314D02*
D03*
X21677Y34192D02*
D03*
X21694Y34862D02*
D03*
D558*
X23808Y34125D02*
D03*
X25952Y34887D02*
D03*
X21746Y34905D02*
D03*
X22352D02*
D03*
D559*
X24322Y34125D02*
D03*
X21728Y34143D02*
D03*
X22865Y34681D02*
D03*
D560*
X25436Y34125D02*
D03*
X25425Y34143D02*
D03*
X25415Y34161D02*
D03*
X25411Y34168D02*
D03*
X25408Y34175D02*
D03*
X25404Y34182D02*
D03*
X25372Y34231D02*
D03*
X22442Y34242D02*
D03*
X22446Y34249D02*
D03*
X25362D02*
D03*
X25358Y34256D02*
D03*
X25351Y34267D02*
D03*
X21623Y34281D02*
D03*
X23346Y34288D02*
D03*
X25337D02*
D03*
X25330Y34299D02*
D03*
X25323Y34306D02*
D03*
X25319Y34313D02*
D03*
X25815Y34324D02*
D03*
Y34331D02*
D03*
X25812Y34338D02*
D03*
X25840Y34749D02*
D03*
X22810Y34756D02*
D03*
X21631Y34763D02*
D03*
X22463D02*
D03*
X25440Y34869D02*
D03*
D561*
X25989Y34125D02*
D03*
D562*
X22330Y34129D02*
D03*
X21746Y34132D02*
D03*
X23276Y34377D02*
D03*
X25374Y34940D02*
D03*
D563*
X23317Y34129D02*
D03*
X25851Y34246D02*
D03*
X25369Y34607D02*
D03*
X25883Y34820D02*
D03*
X22414Y34848D02*
D03*
X25418Y34908D02*
D03*
D564*
X23799Y34129D02*
D03*
X22350Y34139D02*
D03*
X25911Y34171D02*
D03*
X22874Y34933D02*
D03*
X22056Y35135D02*
D03*
D565*
X25978Y34129D02*
D03*
D566*
X22337Y34132D02*
D03*
D567*
X23321D02*
D03*
X22414Y34196D02*
D03*
X25847Y34253D02*
D03*
X25273Y34359D02*
D03*
X21677Y34841D02*
D03*
D568*
X23792Y34132D02*
D03*
X25893Y34189D02*
D03*
X25925Y34866D02*
D03*
X21726Y34890D02*
D03*
D569*
X21739Y34136D02*
D03*
X23280Y34373D02*
D03*
X22054Y35131D02*
D03*
D570*
X22346Y34136D02*
D03*
X25914Y34168D02*
D03*
X25383Y34937D02*
D03*
X26411Y35156D02*
D03*
D571*
X23324Y34136D02*
D03*
X24370Y34161D02*
D03*
X22421Y34207D02*
D03*
X25836Y34274D02*
D03*
X25833Y34281D02*
D03*
X25829Y34288D02*
D03*
X25383Y34618D02*
D03*
X22818Y34738D02*
D03*
X25861Y34788D02*
D03*
X22431Y34823D02*
D03*
X25429Y34894D02*
D03*
D572*
X23787Y34136D02*
D03*
X25888Y34192D02*
D03*
X23305Y34348D02*
D03*
X25342Y34593D02*
D03*
X22376Y34887D02*
D03*
D573*
X24343Y34136D02*
D03*
D574*
X25431D02*
D03*
X23337Y34150D02*
D03*
X24382Y34175D02*
D03*
X22437Y34231D02*
D03*
X25395Y34632D02*
D03*
X25845Y34763D02*
D03*
X22458Y34774D02*
D03*
X21643Y34788D02*
D03*
X22451D02*
D03*
X22819Y34887D02*
D03*
D575*
X21735Y34139D02*
D03*
X23284Y34370D02*
D03*
X25324Y34589D02*
D03*
X22869Y34678D02*
D03*
D576*
X23328Y34139D02*
D03*
X21659Y34816D02*
D03*
X21666Y34827D02*
D03*
X22828Y34898D02*
D03*
D577*
X23781Y34139D02*
D03*
X23314Y34341D02*
D03*
X25351Y34596D02*
D03*
X25911Y34851D02*
D03*
X21709Y34876D02*
D03*
X22389D02*
D03*
X22056Y35138D02*
D03*
D578*
X24348Y34139D02*
D03*
X25872Y34214D02*
D03*
X23317Y34334D02*
D03*
X22839Y34710D02*
D03*
X25907Y34848D02*
D03*
X21705Y34873D02*
D03*
X22392D02*
D03*
D579*
X22357Y34143D02*
D03*
X21719Y34150D02*
D03*
X23299Y34355D02*
D03*
D580*
X24352Y34143D02*
D03*
X25865Y34224D02*
D03*
X23321Y34331D02*
D03*
X25897Y34837D02*
D03*
X22403Y34862D02*
D03*
D581*
X22362Y34146D02*
D03*
D582*
X24357D02*
D03*
X23765Y34153D02*
D03*
X22398Y34178D02*
D03*
X21675Y34196D02*
D03*
X25856Y34238D02*
D03*
X25363Y34603D02*
D03*
X22830Y34720D02*
D03*
X25888Y34827D02*
D03*
X22412Y34851D02*
D03*
X22405Y34859D02*
D03*
D583*
X22366Y34150D02*
D03*
X21721Y34887D02*
D03*
D584*
X23769Y34150D02*
D03*
X22394Y34175D02*
D03*
X25860Y34231D02*
D03*
X23326Y34324D02*
D03*
X22834Y34717D02*
D03*
X25891Y34830D02*
D03*
X21689Y34855D02*
D03*
X22408D02*
D03*
X25417Y34912D02*
D03*
D585*
X25422Y34150D02*
D03*
X25397Y34192D02*
D03*
X21634Y34774D02*
D03*
D586*
X25937Y34150D02*
D03*
X22337Y34912D02*
D03*
D587*
X24364Y34153D02*
D03*
X23762Y34157D02*
D03*
X22408Y34189D02*
D03*
X21668Y34203D02*
D03*
X21664Y34210D02*
D03*
X21661Y34214D02*
D03*
X22826Y34727D02*
D03*
X25881Y34816D02*
D03*
X22419Y34841D02*
D03*
X21682Y34848D02*
D03*
X22837Y34908D02*
D03*
D588*
X25420Y34153D02*
D03*
X21632Y34263D02*
D03*
X23344Y34292D02*
D03*
X25314Y34320D02*
D03*
X25307Y34327D02*
D03*
X25300Y34334D02*
D03*
X22812Y34752D02*
D03*
X25845Y34759D02*
D03*
X25438Y34876D02*
D03*
D589*
X21710Y34157D02*
D03*
D590*
X22376D02*
D03*
X25881Y34203D02*
D03*
X22844Y34703D02*
D03*
D591*
X23340Y34157D02*
D03*
X25410Y34171D02*
D03*
X24389Y34185D02*
D03*
X25399Y34189D02*
D03*
X25371Y34235D02*
D03*
X25360Y34253D02*
D03*
X22454Y34263D02*
D03*
X25353D02*
D03*
X22458Y34270D02*
D03*
X25339Y34285D02*
D03*
X21615Y34309D02*
D03*
X21611Y34316D02*
D03*
X25810Y34341D02*
D03*
Y34345D02*
D03*
X25402Y34639D02*
D03*
X22472Y34735D02*
D03*
X22465Y34752D02*
D03*
X21629Y34759D02*
D03*
X22809D02*
D03*
X21632Y34766D02*
D03*
X25445Y34859D02*
D03*
X25441Y34866D02*
D03*
X22816Y34876D02*
D03*
D592*
X24368Y34157D02*
D03*
X21657Y34221D02*
D03*
X25842Y34263D02*
D03*
X23333Y34309D02*
D03*
X25378Y34614D02*
D03*
X25870Y34802D02*
D03*
X22433Y34820D02*
D03*
X22430Y34827D02*
D03*
X21671Y34834D02*
D03*
X25427Y34898D02*
D03*
D593*
X21705Y34161D02*
D03*
X22850Y34699D02*
D03*
X25922Y34862D02*
D03*
D594*
X23340Y34161D02*
D03*
X24386Y34182D02*
D03*
X23734Y34200D02*
D03*
X25392D02*
D03*
X23730Y34207D02*
D03*
X25378Y34224D02*
D03*
X25367Y34242D02*
D03*
X22454Y34267D02*
D03*
X22458Y34274D02*
D03*
X25346D02*
D03*
X23347Y34281D02*
D03*
X25342D02*
D03*
X21622Y34288D02*
D03*
X21615Y34306D02*
D03*
X21611Y34313D02*
D03*
X25810Y34348D02*
D03*
X25828Y34724D02*
D03*
X22472Y34738D02*
D03*
X25835D02*
D03*
X21629Y34756D02*
D03*
X22465D02*
D03*
X22809Y34763D02*
D03*
X25445Y34855D02*
D03*
X25441Y34862D02*
D03*
X22816Y34880D02*
D03*
D595*
X23760Y34161D02*
D03*
X22410Y34192D02*
D03*
X21659Y34217D02*
D03*
X25872Y34805D02*
D03*
X21673Y34837D02*
D03*
D596*
X25922Y34161D02*
D03*
D597*
X21703Y34164D02*
D03*
X25916Y34859D02*
D03*
X25402Y34926D02*
D03*
D598*
X22384Y34164D02*
D03*
X21696Y34171D02*
D03*
X25874Y34210D02*
D03*
X22855Y34922D02*
D03*
D599*
X23342Y34164D02*
D03*
X24391Y34189D02*
D03*
X23728Y34210D02*
D03*
X22460Y34277D02*
D03*
X23349D02*
D03*
X22467Y34295D02*
D03*
X21609Y34320D02*
D03*
Y34327D02*
D03*
X25805Y34366D02*
D03*
Y34370D02*
D03*
X25801Y34377D02*
D03*
X25408Y34646D02*
D03*
X25822Y34710D02*
D03*
Y34713D02*
D03*
X22477Y34720D02*
D03*
X25826D02*
D03*
X21616Y34727D02*
D03*
X25829D02*
D03*
X21620Y34735D02*
D03*
X21624Y34742D02*
D03*
X22470D02*
D03*
X21624Y34745D02*
D03*
X21627Y34752D02*
D03*
X25447Y34848D02*
D03*
Y34851D02*
D03*
X22814Y34873D02*
D03*
D600*
X23757Y34164D02*
D03*
X25844Y34260D02*
D03*
X23331Y34316D02*
D03*
X25875Y34809D02*
D03*
X22424Y34834D02*
D03*
X25425Y34901D02*
D03*
D601*
X24375Y34164D02*
D03*
X23751Y34171D02*
D03*
X22426Y34214D02*
D03*
X22430Y34221D02*
D03*
X21643Y34246D02*
D03*
X25831Y34285D02*
D03*
X25289Y34345D02*
D03*
X22444Y34802D02*
D03*
X25431Y34890D02*
D03*
D602*
X25918Y34164D02*
D03*
X23289Y34366D02*
D03*
D603*
X21698Y34168D02*
D03*
X25914Y34855D02*
D03*
X21712Y34880D02*
D03*
X22385D02*
D03*
D604*
X22387Y34168D02*
D03*
X21685Y34182D02*
D03*
D605*
X23753Y34168D02*
D03*
X22428Y34217D02*
D03*
D606*
X24377Y34168D02*
D03*
X23742Y34182D02*
D03*
X22431Y34224D02*
D03*
X21631Y34267D02*
D03*
X25826Y34299D02*
D03*
X25822Y34306D02*
D03*
X25298Y34338D02*
D03*
X25390Y34625D02*
D03*
X22814Y34749D02*
D03*
X25851Y34774D02*
D03*
X21648Y34798D02*
D03*
X22446D02*
D03*
X21652Y34805D02*
D03*
X25436Y34880D02*
D03*
X25433Y34887D02*
D03*
X22825Y34894D02*
D03*
D607*
X22391Y34171D02*
D03*
D608*
X23347D02*
D03*
X22472Y34309D02*
D03*
X21597Y34366D02*
D03*
Y34370D02*
D03*
X25810Y34671D02*
D03*
D609*
X23347Y34175D02*
D03*
X22472Y34306D02*
D03*
X21597Y34363D02*
D03*
Y34373D02*
D03*
D610*
X25906Y34175D02*
D03*
D611*
X21687Y34178D02*
D03*
X25900Y34841D02*
D03*
D612*
X25902Y34178D02*
D03*
X23294Y34359D02*
D03*
X22862Y34685D02*
D03*
X25937Y34876D02*
D03*
X21735Y34898D02*
D03*
X22362D02*
D03*
X25392Y34933D02*
D03*
D613*
X22399Y34182D02*
D03*
X21670Y34200D02*
D03*
X25886Y34823D02*
D03*
X22417Y34844D02*
D03*
X22842Y34912D02*
D03*
D614*
X22403Y34185D02*
D03*
X23328Y34320D02*
D03*
X21684Y34851D02*
D03*
D615*
X21680Y34189D02*
D03*
X25861Y34228D02*
D03*
X25858Y34235D02*
D03*
X23324Y34327D02*
D03*
X25893Y34834D02*
D03*
D616*
X23353Y34192D02*
D03*
X22477Y34324D02*
D03*
X22485Y34348D02*
D03*
X22492Y34380D02*
D03*
X21592Y34394D02*
D03*
Y34405D02*
D03*
X25790Y34444D02*
D03*
Y34455D02*
D03*
X21585Y34462D02*
D03*
X25790D02*
D03*
X21585Y34469D02*
D03*
X22502Y34575D02*
D03*
Y34586D02*
D03*
X21592Y34625D02*
D03*
X22492Y34657D02*
D03*
X25422Y34667D02*
D03*
X21602Y34674D02*
D03*
Y34681D02*
D03*
X25429D02*
D03*
X21609Y34706D02*
D03*
X22803Y34781D02*
D03*
Y34844D02*
D03*
D617*
X23737Y34192D02*
D03*
X25388Y34207D02*
D03*
X25381Y34217D02*
D03*
X22451Y34256D02*
D03*
X21618Y34299D02*
D03*
X25806Y34355D02*
D03*
X25406Y34642D02*
D03*
X25831Y34731D02*
D03*
X22469Y34749D02*
D03*
D618*
X22415Y34200D02*
D03*
X21654Y34224D02*
D03*
X23333Y34313D02*
D03*
X25278Y34355D02*
D03*
X22823Y34731D02*
D03*
X25867Y34798D02*
D03*
X21664Y34823D02*
D03*
X21668Y34830D02*
D03*
X22426D02*
D03*
X22834Y34905D02*
D03*
D619*
X24396Y34200D02*
D03*
X24400Y34207D02*
D03*
X23726Y34217D02*
D03*
X23723Y34224D02*
D03*
X23354Y34256D02*
D03*
X23351Y34267D02*
D03*
X22465Y34288D02*
D03*
X22469Y34299D02*
D03*
X22479Y34331D02*
D03*
X21600Y34355D02*
D03*
X21593Y34387D02*
D03*
X25799D02*
D03*
Y34394D02*
D03*
X25796Y34405D02*
D03*
Y34412D02*
D03*
X22490Y34667D02*
D03*
Y34674D02*
D03*
X25813Y34681D02*
D03*
X22486Y34692D02*
D03*
X25817D02*
D03*
X21608Y34699D02*
D03*
X22483D02*
D03*
X25821Y34706D02*
D03*
X21611Y34717D02*
D03*
X21615Y34724D02*
D03*
X21618Y34731D02*
D03*
X22805Y34774D02*
D03*
X22802Y34788D02*
D03*
X25448Y34830D02*
D03*
Y34837D02*
D03*
X22809Y34862D02*
D03*
D620*
X25884Y34200D02*
D03*
D621*
X22419Y34203D02*
D03*
X25838Y34270D02*
D03*
X25282Y34352D02*
D03*
D622*
X21666Y34207D02*
D03*
X25854Y34242D02*
D03*
X25266Y34363D02*
D03*
X22828Y34724D02*
D03*
D623*
X25868Y34217D02*
D03*
X22849Y34919D02*
D03*
D624*
X21650Y34231D02*
D03*
X25838Y34267D02*
D03*
X23337Y34306D02*
D03*
D625*
X25363Y34246D02*
D03*
X25349Y34270D02*
D03*
X21618Y34295D02*
D03*
X25332D02*
D03*
X25806Y34352D02*
D03*
Y34359D02*
D03*
X22476Y34727D02*
D03*
X25831Y34735D02*
D03*
X22469Y34745D02*
D03*
D626*
X21629Y34274D02*
D03*
X25821Y34313D02*
D03*
X25310Y34324D02*
D03*
X25303Y34331D02*
D03*
X25842Y34756D02*
D03*
X21639Y34781D02*
D03*
X22454D02*
D03*
D627*
X24424Y34281D02*
D03*
X24432Y34313D02*
D03*
Y34324D02*
D03*
Y34331D02*
D03*
D628*
X24424Y34285D02*
D03*
X24432Y34316D02*
D03*
Y34320D02*
D03*
Y34327D02*
D03*
D629*
X25828Y34292D02*
D03*
X22816Y34742D02*
D03*
Y34745D02*
D03*
X25860Y34784D02*
D03*
X22440Y34809D02*
D03*
D630*
X25316Y34316D02*
D03*
X22460Y34766D02*
D03*
X21634Y34770D02*
D03*
X22460D02*
D03*
D631*
X23303Y34352D02*
D03*
D632*
X25259Y34366D02*
D03*
X22835Y34713D02*
D03*
X21691Y34859D02*
D03*
X21698Y34866D02*
D03*
X22846Y34915D02*
D03*
X25415D02*
D03*
D633*
X25068Y34370D02*
D03*
D634*
X23271Y34380D02*
D03*
X21762Y34912D02*
D03*
D635*
X25064Y34380D02*
D03*
D636*
X23259Y34391D02*
D03*
D637*
X25059D02*
D03*
X24967Y35146D02*
D03*
D638*
X23253Y34394D02*
D03*
D639*
X25057D02*
D03*
X22052Y35061D02*
D03*
D640*
X25055Y34398D02*
D03*
D641*
X25053Y34401D02*
D03*
X22052Y35064D02*
D03*
X23168Y35089D02*
D03*
D642*
X23234Y34409D02*
D03*
X22054Y35121D02*
D03*
D643*
X25048Y34409D02*
D03*
X26267Y35057D02*
D03*
D644*
X25046Y34412D02*
D03*
Y34479D02*
D03*
X22052Y35068D02*
D03*
D645*
X23225Y34416D02*
D03*
D646*
X23218Y34419D02*
D03*
D647*
X25043D02*
D03*
D648*
X23213Y34423D02*
D03*
D649*
X25037Y34426D02*
D03*
Y34472D02*
D03*
X26278Y35071D02*
D03*
X24945Y35153D02*
D03*
D650*
X25036Y34430D02*
D03*
X22052Y35075D02*
D03*
X23186Y35107D02*
D03*
D651*
X23198Y34433D02*
D03*
X26352Y35135D02*
D03*
D652*
X23193Y34437D02*
D03*
D653*
X23188Y34440D02*
D03*
D654*
X25027D02*
D03*
D655*
X23184Y34444D02*
D03*
D656*
X23177Y34448D02*
D03*
X22979Y34596D02*
D03*
X26341Y35128D02*
D03*
D657*
X25018Y34448D02*
D03*
Y34458D02*
D03*
X22052Y35085D02*
D03*
D658*
X23172Y34451D02*
D03*
D659*
X25014D02*
D03*
D660*
X23167Y34455D02*
D03*
D661*
X23163Y34458D02*
D03*
D662*
X25029Y34465D02*
D03*
X22052Y35078D02*
D03*
X23193Y35114D02*
D03*
D663*
X23147Y34469D02*
D03*
X23009Y34575D02*
D03*
D664*
X25034Y34469D02*
D03*
D665*
X23142Y34472D02*
D03*
X23014Y34572D02*
D03*
D666*
X23137Y34476D02*
D03*
X23023Y34564D02*
D03*
D667*
X23133Y34479D02*
D03*
X22052Y35100D02*
D03*
D668*
X23129Y34483D02*
D03*
X23119Y34490D02*
D03*
X23037Y34554D02*
D03*
X23034Y34557D02*
D03*
D669*
X25050Y34483D02*
D03*
D670*
X23122Y34487D02*
D03*
D671*
X25053D02*
D03*
X26262Y35050D02*
D03*
D672*
X23113Y34494D02*
D03*
X23043Y34550D02*
D03*
D673*
X23110Y34497D02*
D03*
X23046Y34547D02*
D03*
D674*
X23101Y34504D02*
D03*
X23055Y34540D02*
D03*
D675*
X25069Y34504D02*
D03*
D676*
X23096Y34508D02*
D03*
X23078Y34522D02*
D03*
X23071Y34529D02*
D03*
X22054Y35096D02*
D03*
X26317Y35110D02*
D03*
D677*
X23092Y34511D02*
D03*
X23082Y34518D02*
D03*
X23074Y34526D02*
D03*
D678*
X25075Y34511D02*
D03*
D679*
X23089Y34515D02*
D03*
X23064Y34533D02*
D03*
D680*
X25084Y34526D02*
D03*
D681*
X25085Y34529D02*
D03*
X22052Y35039D02*
D03*
D682*
X25092Y34540D02*
D03*
X25000Y35128D02*
D03*
D683*
X25098Y34550D02*
D03*
X26217Y34976D02*
D03*
X23124Y35018D02*
D03*
D684*
X23028Y34561D02*
D03*
D685*
X25108Y34572D02*
D03*
D686*
X22995Y34586D02*
D03*
X26336Y35124D02*
D03*
D687*
X22989Y34589D02*
D03*
D688*
X22984Y34593D02*
D03*
D689*
X22975Y34600D02*
D03*
D690*
X22970Y34603D02*
D03*
X22052Y35110D02*
D03*
D691*
X22961Y34611D02*
D03*
D692*
X25376D02*
D03*
X22056Y35142D02*
D03*
D693*
X22949Y34618D02*
D03*
D694*
X22945Y34621D02*
D03*
X26361Y35138D02*
D03*
X23268Y35153D02*
D03*
D695*
X22897Y34657D02*
D03*
D696*
X25806D02*
D03*
D697*
X22887Y34664D02*
D03*
X25969Y34898D02*
D03*
D698*
X22883Y34667D02*
D03*
D699*
X22878Y34671D02*
D03*
D700*
X22874Y34674D02*
D03*
D701*
X22851Y34696D02*
D03*
X22862Y34926D02*
D03*
D702*
X21678Y34844D02*
D03*
D703*
X25929Y34869D02*
D03*
D704*
X25948Y34883D02*
D03*
X21742Y34901D02*
D03*
X22359D02*
D03*
D705*
X25957Y34890D02*
D03*
D706*
X21730Y34894D02*
D03*
X22368D02*
D03*
X22867Y34929D02*
D03*
D707*
X25964Y34894D02*
D03*
D708*
X26012Y34915D02*
D03*
D709*
X26028Y34919D02*
D03*
D710*
X22050Y34922D02*
D03*
D711*
X25406D02*
D03*
D712*
X26194D02*
D03*
Y34926D02*
D03*
X23101Y34947D02*
D03*
D713*
X22049Y34929D02*
D03*
D714*
X25397D02*
D03*
D715*
X22049Y34933D02*
D03*
X25096Y34947D02*
D03*
D716*
X22050Y34937D02*
D03*
X25094Y34961D02*
D03*
D717*
X22885Y34937D02*
D03*
D718*
X22050Y34940D02*
D03*
D719*
X22903D02*
D03*
D720*
X23099Y34944D02*
D03*
X25030Y35100D02*
D03*
D721*
X26203Y34944D02*
D03*
D722*
X25096Y34951D02*
D03*
D723*
X25094Y34954D02*
D03*
Y34958D02*
D03*
D724*
X26209D02*
D03*
X23115Y34997D02*
D03*
D725*
X22050Y34961D02*
D03*
D726*
X26210D02*
D03*
X23117Y35000D02*
D03*
D727*
X22050Y34965D02*
D03*
X25069Y35039D02*
D03*
D728*
X25092Y34965D02*
D03*
D729*
X26212D02*
D03*
D730*
X22049Y34968D02*
D03*
X25068Y35043D02*
D03*
D731*
X23106Y34968D02*
D03*
D732*
X26214D02*
D03*
D733*
X26216Y34972D02*
D03*
X23122Y35014D02*
D03*
D734*
X25091Y34976D02*
D03*
D735*
X22050Y34983D02*
D03*
D736*
Y34986D02*
D03*
D737*
X26223D02*
D03*
D738*
X22050Y34993D02*
D03*
X25045Y35082D02*
D03*
D739*
X23113Y34993D02*
D03*
D740*
X22050Y35000D02*
D03*
X25037Y35092D02*
D03*
D741*
X22050Y35004D02*
D03*
D742*
X23119D02*
D03*
D743*
X25082D02*
D03*
Y35007D02*
D03*
D744*
X22050D02*
D03*
D745*
Y35018D02*
D03*
D746*
X25078D02*
D03*
D747*
X26240D02*
D03*
X23147Y35061D02*
D03*
D748*
X25075Y35025D02*
D03*
D749*
X26244D02*
D03*
D750*
X23129Y35029D02*
D03*
D751*
X26248D02*
D03*
X22052Y35053D02*
D03*
X23154Y35071D02*
D03*
D752*
X22052Y35036D02*
D03*
D753*
X25071D02*
D03*
D754*
X26251D02*
D03*
X23158Y35075D02*
D03*
D755*
X26255Y35039D02*
D03*
D756*
X22052Y35043D02*
D03*
X23140Y35050D02*
D03*
D757*
X26256Y35043D02*
D03*
X23163Y35082D02*
D03*
D758*
X25066Y35046D02*
D03*
D759*
X26260D02*
D03*
X23167Y35085D02*
D03*
D760*
X22052Y35050D02*
D03*
D761*
X25064D02*
D03*
D762*
X23144Y35053D02*
D03*
D763*
X25061Y35057D02*
D03*
D764*
X26269Y35061D02*
D03*
D765*
X23152Y35068D02*
D03*
D766*
X25053D02*
D03*
D767*
X22052Y35071D02*
D03*
D768*
X23160Y35078D02*
D03*
D769*
X26285D02*
D03*
D770*
X26288Y35082D02*
D03*
D771*
X25043Y35085D02*
D03*
D772*
X26290D02*
D03*
D773*
X22054Y35092D02*
D03*
D774*
X23172D02*
D03*
D775*
X26297D02*
D03*
D776*
X23175Y35096D02*
D03*
D777*
X25034D02*
D03*
D778*
X26301D02*
D03*
D779*
X23179Y35100D02*
D03*
D780*
X26306D02*
D03*
D781*
X22052Y35103D02*
D03*
D782*
X23183D02*
D03*
D783*
X22052Y35107D02*
D03*
D784*
X25025D02*
D03*
D785*
X26313D02*
D03*
D786*
X25022Y35110D02*
D03*
D787*
X25018Y35114D02*
D03*
D788*
X25013Y35117D02*
D03*
D789*
X26325D02*
D03*
D790*
X23202Y35121D02*
D03*
D791*
X25009D02*
D03*
D792*
X25004Y35124D02*
D03*
D793*
X23213Y35128D02*
D03*
D794*
X23218Y35131D02*
D03*
D795*
X24993D02*
D03*
D796*
X26347D02*
D03*
D797*
X23225Y35135D02*
D03*
D798*
X24988D02*
D03*
D799*
X23255Y35149D02*
D03*
D800*
X24958D02*
D03*
D801*
X23280Y35156D02*
D03*
D802*
X24933D02*
D03*
D803*
X24912Y35160D02*
D03*
M02*
