G04 Layer_Color=8150272*
%FSLAX24Y24*%
%MOIN*%
G70*
G01*
G75*
%ADD30C,0.1340*%
%ADD31R,0.1261X0.1261*%
%ADD32C,0.1655*%
%ADD33C,0.0710*%
%ADD34C,0.0671*%
%ADD35R,0.0671X0.0671*%
%ADD36C,0.0680*%
%ADD37R,0.0780X0.0780*%
%ADD38C,0.0780*%
%ADD39P,0.0726X8X112.5*%
%ADD40O,0.2049X0.1261*%
%ADD41R,0.0680X0.0680*%
D30*
X48032Y33465D02*
D03*
Y11024D02*
D03*
X23622D02*
D03*
Y33465D02*
D03*
D31*
X24800Y13350D02*
D03*
X33461D02*
D03*
X24800Y31067D02*
D03*
X33461D02*
D03*
D32*
X25981Y15318D02*
D03*
X32280Y29098D02*
D03*
D33*
X35450Y21600D02*
D03*
Y22600D02*
D03*
Y23600D02*
D03*
Y24600D02*
D03*
Y25600D02*
D03*
X46600D02*
D03*
Y24600D02*
D03*
Y23600D02*
D03*
Y22600D02*
D03*
Y21600D02*
D03*
Y20600D02*
D03*
Y19600D02*
D03*
Y18600D02*
D03*
Y17600D02*
D03*
Y16600D02*
D03*
X35450D02*
D03*
Y17600D02*
D03*
Y18600D02*
D03*
Y19600D02*
D03*
Y20600D02*
D03*
Y11600D02*
D03*
Y12600D02*
D03*
Y13600D02*
D03*
Y14600D02*
D03*
Y15600D02*
D03*
X46600D02*
D03*
Y14600D02*
D03*
Y13600D02*
D03*
Y12600D02*
D03*
Y11600D02*
D03*
D34*
X42250Y18550D02*
D03*
Y17550D02*
D03*
Y16550D02*
D03*
Y15550D02*
D03*
Y14550D02*
D03*
Y13550D02*
D03*
Y12550D02*
D03*
Y11550D02*
D03*
X39250Y18550D02*
D03*
Y17550D02*
D03*
Y16550D02*
D03*
Y15550D02*
D03*
Y14550D02*
D03*
Y13550D02*
D03*
Y12550D02*
D03*
D35*
Y11550D02*
D03*
D36*
X40750Y20850D02*
D03*
Y24850D02*
D03*
X35600Y28900D02*
D03*
D37*
X36800Y25600D02*
D03*
X45265D02*
D03*
D38*
X36800Y24600D02*
D03*
Y23600D02*
D03*
Y22600D02*
D03*
Y21600D02*
D03*
Y20600D02*
D03*
Y19600D02*
D03*
Y18600D02*
D03*
Y17600D02*
D03*
Y16600D02*
D03*
Y15600D02*
D03*
Y14600D02*
D03*
Y13600D02*
D03*
Y12600D02*
D03*
Y11600D02*
D03*
X45265Y24600D02*
D03*
Y23600D02*
D03*
Y22600D02*
D03*
Y21600D02*
D03*
Y20600D02*
D03*
Y19600D02*
D03*
Y18600D02*
D03*
Y17600D02*
D03*
Y16600D02*
D03*
Y15600D02*
D03*
Y14600D02*
D03*
Y13600D02*
D03*
Y12600D02*
D03*
Y11600D02*
D03*
D39*
X46360Y29158D02*
D03*
X45573D02*
D03*
Y30142D02*
D03*
X46360D02*
D03*
D40*
X47427Y32020D02*
D03*
Y27280D02*
D03*
D41*
X35600Y27900D02*
D03*
M02*
