G04 Layer_Color=20142*
%FSLAX24Y24*%
%MOIN*%
G70*
G01*
G75*
%ADD30C,0.0680*%
%ADD31R,0.0680X0.0680*%
%ADD32O,0.2049X0.1261*%
%ADD33P,0.0726X8X112.5*%
%ADD34C,0.0780*%
%ADD35R,0.0780X0.0780*%
%ADD36R,0.0671X0.0671*%
%ADD37C,0.0671*%
%ADD38C,0.0710*%
%ADD39C,0.1655*%
%ADD40R,0.1261X0.1261*%
%ADD41C,0.1340*%
D30*
X35600Y28900D02*
D03*
X40750Y24850D02*
D03*
Y20850D02*
D03*
D31*
X35600Y27900D02*
D03*
D32*
X47427Y27280D02*
D03*
Y32020D02*
D03*
D33*
X46360Y30142D02*
D03*
X45573D02*
D03*
Y29158D02*
D03*
X46360D02*
D03*
D34*
X45265Y11600D02*
D03*
Y12600D02*
D03*
Y13600D02*
D03*
Y14600D02*
D03*
Y15600D02*
D03*
Y16600D02*
D03*
Y17600D02*
D03*
Y18600D02*
D03*
Y19600D02*
D03*
Y20600D02*
D03*
Y21600D02*
D03*
Y22600D02*
D03*
Y23600D02*
D03*
Y24600D02*
D03*
X36800Y11600D02*
D03*
Y12600D02*
D03*
Y13600D02*
D03*
Y14600D02*
D03*
Y15600D02*
D03*
Y16600D02*
D03*
Y17600D02*
D03*
Y18600D02*
D03*
Y19600D02*
D03*
Y20600D02*
D03*
Y21600D02*
D03*
Y22600D02*
D03*
Y23600D02*
D03*
Y24600D02*
D03*
D35*
X45265Y25600D02*
D03*
X36800D02*
D03*
D36*
X39250Y11550D02*
D03*
D37*
Y12550D02*
D03*
Y13550D02*
D03*
Y14550D02*
D03*
Y15550D02*
D03*
Y16550D02*
D03*
Y17550D02*
D03*
Y18550D02*
D03*
X42250Y11550D02*
D03*
Y12550D02*
D03*
Y13550D02*
D03*
Y14550D02*
D03*
Y15550D02*
D03*
Y16550D02*
D03*
Y17550D02*
D03*
Y18550D02*
D03*
D38*
X46600Y11600D02*
D03*
Y12600D02*
D03*
Y13600D02*
D03*
Y14600D02*
D03*
Y15600D02*
D03*
X35450D02*
D03*
Y14600D02*
D03*
Y13600D02*
D03*
Y12600D02*
D03*
Y11600D02*
D03*
Y20600D02*
D03*
Y19600D02*
D03*
Y18600D02*
D03*
Y17600D02*
D03*
Y16600D02*
D03*
X46600D02*
D03*
Y17600D02*
D03*
Y18600D02*
D03*
Y19600D02*
D03*
Y20600D02*
D03*
Y21600D02*
D03*
Y22600D02*
D03*
Y23600D02*
D03*
Y24600D02*
D03*
Y25600D02*
D03*
X35450D02*
D03*
Y24600D02*
D03*
Y23600D02*
D03*
Y22600D02*
D03*
Y21600D02*
D03*
D39*
X32280Y29098D02*
D03*
X25981Y15318D02*
D03*
D40*
X33461Y31067D02*
D03*
X24800D02*
D03*
X33461Y13350D02*
D03*
X24800D02*
D03*
D41*
X23622Y33465D02*
D03*
Y11024D02*
D03*
X48032D02*
D03*
Y33465D02*
D03*
M02*
