G04 Layer_Physical_Order=2*
G04 Layer_Color=11436288*
%FSLAX24Y24*%
%MOIN*%
G70*
G01*
G75*
%ADD10C,0.0394*%
%ADD11C,0.0591*%
%ADD12C,0.0600*%
%ADD13R,0.0600X0.0600*%
%ADD14O,0.1969X0.1181*%
%ADD15P,0.0639X8X112.5*%
%ADD16C,0.0700*%
%ADD17R,0.0700X0.0700*%
%ADD18R,0.0591X0.0591*%
%ADD19C,0.0591*%
%ADD20C,0.0630*%
%ADD21C,0.1575*%
%ADD22R,0.1181X0.1181*%
%ADD23C,0.1260*%
G36*
X49297Y34212D02*
X49268Y10138D01*
X49233Y10103D01*
X22588Y10152D01*
X22553Y10187D01*
X22602Y34248D01*
X23616D01*
X23618Y34205D01*
X23618Y34200D01*
X23618Y34200D01*
X23618Y34199D01*
X23579Y34194D01*
X23578Y34194D01*
X23578D01*
X23479Y34184D01*
X23341Y34142D01*
X23215Y34074D01*
X23103Y33983D01*
X23012Y33872D01*
X22944Y33745D01*
X22903Y33608D01*
X22889Y33465D01*
X22903Y33321D01*
X22944Y33184D01*
X23012Y33057D01*
X23103Y32946D01*
X23215Y32855D01*
X23341Y32787D01*
X23479Y32745D01*
X23622Y32731D01*
X23765Y32745D01*
X23903Y32787D01*
X24030Y32855D01*
X24141Y32946D01*
X24232Y33057D01*
X24300Y33184D01*
X24341Y33321D01*
X24355Y33465D01*
X24341Y33608D01*
X24300Y33745D01*
X24232Y33872D01*
X24141Y33983D01*
X24030Y34074D01*
X23903Y34142D01*
X23765Y34184D01*
X23666Y34194D01*
D01*
X23665Y34194D01*
X23626Y34199D01*
X23626Y34200D01*
D01*
X23626Y34205D01*
X23628Y34248D01*
X48025D01*
X48028Y34205D01*
X48028Y34200D01*
X48028Y34200D01*
X48028Y34199D01*
X47988Y34194D01*
X47987Y34194D01*
X47987D01*
X47888Y34184D01*
X47751Y34142D01*
X47624Y34074D01*
X47513Y33983D01*
X47422Y33872D01*
X47354Y33745D01*
X47312Y33608D01*
X47298Y33465D01*
X47312Y33321D01*
X47354Y33184D01*
X47422Y33057D01*
X47513Y32946D01*
X47624Y32855D01*
X47751Y32787D01*
X47888Y32745D01*
X48032Y32731D01*
X48175Y32745D01*
X48312Y32787D01*
X48439Y32855D01*
X48550Y32946D01*
X48641Y33057D01*
X48709Y33184D01*
X48751Y33321D01*
X48765Y33465D01*
X48751Y33608D01*
X48709Y33745D01*
X48641Y33872D01*
X48550Y33983D01*
X48439Y34074D01*
X48312Y34142D01*
X48175Y34184D01*
X48076Y34194D01*
D01*
X48075Y34194D01*
X48035Y34199D01*
X48035Y34200D01*
D01*
X48035Y34205D01*
X48038Y34248D01*
X49262D01*
X49297Y34212D01*
D02*
G37*
%LPC*%
G36*
X25981Y16210D02*
X25807Y16193D01*
X25640Y16142D01*
X25486Y16060D01*
X25351Y15949D01*
X25240Y15814D01*
X25157Y15660D01*
X25107Y15492D01*
X25089Y15318D01*
X25107Y15145D01*
X25157Y14977D01*
X25240Y14823D01*
X25351Y14688D01*
X25486Y14577D01*
X25640Y14495D01*
X25807Y14444D01*
X25981Y14427D01*
X26155Y14444D01*
X26322Y14495D01*
X26477Y14577D01*
X26612Y14688D01*
X26723Y14823D01*
X26805Y14977D01*
X26856Y15145D01*
X26873Y15318D01*
X26856Y15492D01*
X26805Y15660D01*
X26723Y15814D01*
X26612Y15949D01*
X26477Y16060D01*
X26322Y16142D01*
X26155Y16193D01*
X25981Y16210D01*
D02*
G37*
G36*
X36800Y15054D02*
X36683Y15038D01*
X36573Y14993D01*
X36479Y14921D01*
X36463Y14899D01*
X35741D01*
X35659Y14962D01*
X35558Y15004D01*
X35450Y15019D01*
X35342Y15004D01*
X35241Y14962D01*
X35154Y14896D01*
X35088Y14809D01*
X35046Y14708D01*
X35031Y14600D01*
X35046Y14492D01*
X35088Y14391D01*
X35154Y14304D01*
X35241Y14238D01*
X35342Y14196D01*
X35450Y14181D01*
X35558Y14196D01*
X35659Y14238D01*
X35741Y14301D01*
X36463D01*
X36479Y14279D01*
X36573Y14207D01*
X36683Y14162D01*
X36800Y14146D01*
X36917Y14162D01*
X37027Y14207D01*
X37121Y14279D01*
X37193Y14373D01*
X37238Y14483D01*
X37254Y14600D01*
X37238Y14717D01*
X37193Y14827D01*
X37121Y14921D01*
X37027Y14993D01*
X36917Y15038D01*
X36800Y15054D01*
D02*
G37*
G36*
Y14054D02*
X36683Y14038D01*
X36573Y13993D01*
X36479Y13921D01*
X36463Y13899D01*
X35741D01*
X35659Y13962D01*
X35558Y14004D01*
X35450Y14019D01*
X35342Y14004D01*
X35241Y13962D01*
X35154Y13896D01*
X35088Y13809D01*
X35046Y13708D01*
X35031Y13600D01*
X35046Y13492D01*
X35088Y13391D01*
X35154Y13304D01*
X35241Y13238D01*
X35342Y13196D01*
X35450Y13181D01*
X35558Y13196D01*
X35659Y13238D01*
X35741Y13301D01*
X36463D01*
X36479Y13279D01*
X36573Y13207D01*
X36683Y13162D01*
X36800Y13146D01*
X36917Y13162D01*
X37027Y13207D01*
X37121Y13279D01*
X37193Y13373D01*
X37238Y13483D01*
X37254Y13600D01*
X37238Y13717D01*
X37193Y13827D01*
X37121Y13921D01*
X37027Y13993D01*
X36917Y14038D01*
X36800Y14054D01*
D02*
G37*
G36*
X45265Y15054D02*
X45147Y15038D01*
X45038Y14993D01*
X44944Y14921D01*
X44871Y14827D01*
X44826Y14717D01*
X44811Y14600D01*
X44826Y14483D01*
X44871Y14373D01*
X44944Y14279D01*
X45038Y14207D01*
X45147Y14162D01*
X45265Y14146D01*
X45382Y14162D01*
X45491Y14207D01*
X45585Y14279D01*
X45602Y14301D01*
X46309D01*
X46391Y14238D01*
X46492Y14196D01*
X46600Y14181D01*
X46708Y14196D01*
X46809Y14238D01*
X46896Y14304D01*
X46962Y14391D01*
X47004Y14492D01*
X47019Y14600D01*
X47004Y14708D01*
X46962Y14809D01*
X46896Y14896D01*
X46809Y14962D01*
X46708Y15004D01*
X46600Y15019D01*
X46492Y15004D01*
X46391Y14962D01*
X46309Y14899D01*
X45602D01*
X45585Y14921D01*
X45491Y14993D01*
X45382Y15038D01*
X45265Y15054D01*
D02*
G37*
G36*
Y17054D02*
X45147Y17038D01*
X45038Y16993D01*
X44944Y16921D01*
X44871Y16827D01*
X44826Y16717D01*
X44811Y16600D01*
X44826Y16483D01*
X44871Y16373D01*
X44944Y16279D01*
X45038Y16207D01*
X45147Y16162D01*
X45265Y16146D01*
X45382Y16162D01*
X45491Y16207D01*
X45585Y16279D01*
X45602Y16301D01*
X46309D01*
X46391Y16238D01*
X46492Y16196D01*
X46600Y16181D01*
X46708Y16196D01*
X46809Y16238D01*
X46896Y16304D01*
X46962Y16391D01*
X47004Y16492D01*
X47019Y16600D01*
X47004Y16708D01*
X46962Y16809D01*
X46896Y16896D01*
X46809Y16962D01*
X46708Y17004D01*
X46600Y17019D01*
X46492Y17004D01*
X46391Y16962D01*
X46309Y16899D01*
X45602D01*
X45585Y16921D01*
X45491Y16993D01*
X45382Y17038D01*
X45265Y17054D01*
D02*
G37*
G36*
X36800D02*
X36683Y17038D01*
X36573Y16993D01*
X36479Y16921D01*
X36463Y16899D01*
X35741D01*
X35659Y16962D01*
X35558Y17004D01*
X35450Y17019D01*
X35342Y17004D01*
X35241Y16962D01*
X35154Y16896D01*
X35088Y16809D01*
X35046Y16708D01*
X35031Y16600D01*
X35046Y16492D01*
X35088Y16391D01*
X35154Y16304D01*
X35241Y16238D01*
X35342Y16196D01*
X35450Y16181D01*
X35558Y16196D01*
X35659Y16238D01*
X35741Y16301D01*
X36463D01*
X36479Y16279D01*
X36573Y16207D01*
X36683Y16162D01*
X36800Y16146D01*
X36917Y16162D01*
X37027Y16207D01*
X37121Y16279D01*
X37193Y16373D01*
X37238Y16483D01*
X37254Y16600D01*
X37238Y16717D01*
X37193Y16827D01*
X37121Y16921D01*
X37027Y16993D01*
X36917Y17038D01*
X36800Y17054D01*
D02*
G37*
G36*
X45265Y16054D02*
X45147Y16038D01*
X45038Y15993D01*
X44944Y15921D01*
X44871Y15827D01*
X44826Y15717D01*
X44811Y15600D01*
X44826Y15483D01*
X44871Y15373D01*
X44944Y15279D01*
X45038Y15207D01*
X45147Y15162D01*
X45265Y15146D01*
X45382Y15162D01*
X45491Y15207D01*
X45585Y15279D01*
X45602Y15301D01*
X46309D01*
X46391Y15238D01*
X46492Y15196D01*
X46600Y15181D01*
X46708Y15196D01*
X46809Y15238D01*
X46896Y15304D01*
X46962Y15391D01*
X47004Y15492D01*
X47019Y15600D01*
X47004Y15708D01*
X46962Y15809D01*
X46896Y15896D01*
X46809Y15962D01*
X46708Y16004D01*
X46600Y16019D01*
X46492Y16004D01*
X46391Y15962D01*
X46309Y15899D01*
X45602D01*
X45585Y15921D01*
X45491Y15993D01*
X45382Y16038D01*
X45265Y16054D01*
D02*
G37*
G36*
X36800D02*
X36683Y16038D01*
X36573Y15993D01*
X36479Y15921D01*
X36463Y15899D01*
X35741D01*
X35659Y15962D01*
X35558Y16004D01*
X35450Y16019D01*
X35342Y16004D01*
X35241Y15962D01*
X35154Y15896D01*
X35088Y15809D01*
X35046Y15708D01*
X35031Y15600D01*
X35046Y15492D01*
X35088Y15391D01*
X35154Y15304D01*
X35241Y15238D01*
X35342Y15196D01*
X35450Y15181D01*
X35558Y15196D01*
X35659Y15238D01*
X35741Y15301D01*
X36463D01*
X36479Y15279D01*
X36573Y15207D01*
X36683Y15162D01*
X36800Y15146D01*
X36917Y15162D01*
X37027Y15207D01*
X37121Y15279D01*
X37193Y15373D01*
X37238Y15483D01*
X37254Y15600D01*
X37238Y15717D01*
X37193Y15827D01*
X37121Y15921D01*
X37027Y15993D01*
X36917Y16038D01*
X36800Y16054D01*
D02*
G37*
G36*
X45265Y14054D02*
X45147Y14038D01*
X45038Y13993D01*
X44944Y13921D01*
X44871Y13827D01*
X44826Y13717D01*
X44811Y13600D01*
X44826Y13483D01*
X44871Y13373D01*
X44944Y13279D01*
X45038Y13207D01*
X45147Y13162D01*
X45265Y13146D01*
X45382Y13162D01*
X45491Y13207D01*
X45585Y13279D01*
X45602Y13301D01*
X46309D01*
X46391Y13238D01*
X46492Y13196D01*
X46600Y13181D01*
X46708Y13196D01*
X46809Y13238D01*
X46896Y13304D01*
X46962Y13391D01*
X47004Y13492D01*
X47019Y13600D01*
X47004Y13708D01*
X46962Y13809D01*
X46896Y13896D01*
X46809Y13962D01*
X46708Y14004D01*
X46600Y14019D01*
X46492Y14004D01*
X46391Y13962D01*
X46309Y13899D01*
X45602D01*
X45585Y13921D01*
X45491Y13993D01*
X45382Y14038D01*
X45265Y14054D01*
D02*
G37*
G36*
X25491Y31757D02*
X24109D01*
Y30376D01*
X24401D01*
Y20271D01*
X24401Y20271D01*
X24413Y20180D01*
X24415Y20168D01*
X24455Y20072D01*
X24518Y19989D01*
X32425Y12082D01*
X32425Y12082D01*
X32508Y12019D01*
X32604Y11979D01*
X32707Y11965D01*
X33516D01*
X34458Y11024D01*
X34458Y11024D01*
X34909Y10573D01*
X34909Y10573D01*
X34972Y10524D01*
X34992Y10509D01*
X35048Y10486D01*
X35088Y10470D01*
X35100Y10468D01*
X35191Y10456D01*
X35191Y10456D01*
X37541D01*
X37541Y10456D01*
X37576Y10461D01*
X39709D01*
X39709Y10461D01*
X39800Y10473D01*
X39812Y10474D01*
X39908Y10514D01*
X39991Y10578D01*
X40565Y11151D01*
X42250D01*
X42353Y11165D01*
X42449Y11205D01*
X42532Y11268D01*
X42595Y11351D01*
X42635Y11447D01*
X42649Y11550D01*
X42635Y11653D01*
X42595Y11749D01*
X42532Y11832D01*
X42449Y11895D01*
X42353Y11935D01*
X42250Y11949D01*
X40400D01*
X40296Y11935D01*
X40200Y11895D01*
X40118Y11832D01*
X40118Y11832D01*
X39691Y11406D01*
X39645Y11425D01*
Y11945D01*
X38855D01*
Y11258D01*
X37545D01*
X37545Y11258D01*
X37509Y11253D01*
X37164D01*
X37140Y11303D01*
X37193Y11373D01*
X37238Y11483D01*
X37254Y11600D01*
X37238Y11717D01*
X37193Y11827D01*
X37121Y11921D01*
X37027Y11993D01*
X36917Y12038D01*
X36800Y12054D01*
X36683Y12038D01*
X36573Y11993D01*
X36479Y11921D01*
X36463Y11899D01*
X35741D01*
X35659Y11962D01*
X35558Y12004D01*
X35450Y12019D01*
X35342Y12004D01*
X35241Y11962D01*
X35154Y11896D01*
X35088Y11809D01*
X35046Y11708D01*
X35037Y11643D01*
X34984Y11625D01*
X33963Y12646D01*
X33881Y12709D01*
X33785Y12749D01*
X33773Y12751D01*
X33681Y12763D01*
X33681Y12763D01*
X32872D01*
X25199Y20436D01*
Y30376D01*
X25491D01*
Y31757D01*
D02*
G37*
G36*
X45265Y12054D02*
X45147Y12038D01*
X45038Y11993D01*
X44944Y11921D01*
X44871Y11827D01*
X44826Y11717D01*
X44811Y11600D01*
X44826Y11483D01*
X44871Y11373D01*
X44944Y11279D01*
X45038Y11207D01*
X45147Y11162D01*
X45265Y11146D01*
X45382Y11162D01*
X45491Y11207D01*
X45585Y11279D01*
X45602Y11301D01*
X46309D01*
X46391Y11238D01*
X46492Y11196D01*
X46600Y11181D01*
X46708Y11196D01*
X46809Y11238D01*
X46896Y11304D01*
X46962Y11391D01*
X47004Y11492D01*
X47019Y11600D01*
X47004Y11708D01*
X46962Y11809D01*
X46896Y11896D01*
X46809Y11962D01*
X46708Y12004D01*
X46600Y12019D01*
X46492Y12004D01*
X46391Y11962D01*
X46309Y11899D01*
X45602D01*
X45585Y11921D01*
X45491Y11993D01*
X45382Y12038D01*
X45265Y12054D01*
D02*
G37*
G36*
X23622Y11757D02*
X23479Y11743D01*
X23341Y11701D01*
X23215Y11633D01*
X23103Y11542D01*
X23012Y11431D01*
X22944Y11304D01*
X22903Y11167D01*
X22889Y11024D01*
X22903Y10881D01*
X22944Y10743D01*
X23012Y10616D01*
X23103Y10505D01*
X23215Y10414D01*
X23341Y10346D01*
X23479Y10304D01*
X23622Y10290D01*
X23765Y10304D01*
X23903Y10346D01*
X24030Y10414D01*
X24141Y10505D01*
X24232Y10616D01*
X24300Y10743D01*
X24341Y10881D01*
X24355Y11024D01*
X24341Y11167D01*
X24300Y11304D01*
X24232Y11431D01*
X24141Y11542D01*
X24030Y11633D01*
X23903Y11701D01*
X23765Y11743D01*
X23622Y11757D01*
D02*
G37*
G36*
X48032D02*
X47888Y11743D01*
X47751Y11701D01*
X47624Y11633D01*
X47513Y11542D01*
X47422Y11431D01*
X47354Y11304D01*
X47312Y11167D01*
X47298Y11024D01*
X47312Y10881D01*
X47354Y10743D01*
X47422Y10616D01*
X47513Y10505D01*
X47624Y10414D01*
X47751Y10346D01*
X47888Y10304D01*
X48032Y10290D01*
X48175Y10304D01*
X48312Y10346D01*
X48439Y10414D01*
X48550Y10505D01*
X48641Y10616D01*
X48709Y10743D01*
X48751Y10881D01*
X48765Y11024D01*
X48751Y11167D01*
X48709Y11304D01*
X48641Y11431D01*
X48550Y11542D01*
X48439Y11633D01*
X48312Y11701D01*
X48175Y11743D01*
X48032Y11757D01*
D02*
G37*
G36*
X25491Y14041D02*
X24109D01*
Y12659D01*
X25491D01*
Y14041D01*
D02*
G37*
G36*
X36800Y13054D02*
X36683Y13038D01*
X36573Y12993D01*
X36479Y12921D01*
X36463Y12899D01*
X35741D01*
X35659Y12962D01*
X35558Y13004D01*
X35450Y13019D01*
X35342Y13004D01*
X35241Y12962D01*
X35154Y12896D01*
X35088Y12809D01*
X35046Y12708D01*
X35031Y12600D01*
X35046Y12492D01*
X35088Y12391D01*
X35154Y12304D01*
X35241Y12238D01*
X35342Y12196D01*
X35450Y12181D01*
X35558Y12196D01*
X35659Y12238D01*
X35741Y12301D01*
X36463D01*
X36479Y12279D01*
X36573Y12207D01*
X36683Y12162D01*
X36800Y12146D01*
X36917Y12162D01*
X37027Y12207D01*
X37121Y12279D01*
X37193Y12373D01*
X37238Y12483D01*
X37254Y12600D01*
X37238Y12717D01*
X37193Y12827D01*
X37121Y12921D01*
X37027Y12993D01*
X36917Y13038D01*
X36800Y13054D01*
D02*
G37*
G36*
X39250Y12949D02*
X39147Y12935D01*
X39051Y12895D01*
X38968Y12832D01*
X38905Y12749D01*
X38865Y12653D01*
X38851Y12550D01*
X38865Y12447D01*
X38905Y12351D01*
X38968Y12268D01*
X39051Y12205D01*
X39147Y12165D01*
X39250Y12151D01*
X39353Y12165D01*
X39449Y12205D01*
X39532Y12268D01*
X39595Y12351D01*
X39635Y12447D01*
X39649Y12550D01*
X39635Y12653D01*
X39595Y12749D01*
X39532Y12832D01*
X39449Y12895D01*
X39353Y12935D01*
X39250Y12949D01*
D02*
G37*
G36*
X45265Y13054D02*
X45147Y13038D01*
X45038Y12993D01*
X44944Y12921D01*
X44871Y12827D01*
X44826Y12717D01*
X44811Y12600D01*
X44826Y12483D01*
X44871Y12373D01*
X44944Y12279D01*
X45038Y12207D01*
X45147Y12162D01*
X45265Y12146D01*
X45382Y12162D01*
X45491Y12207D01*
X45585Y12279D01*
X45602Y12301D01*
X46309D01*
X46391Y12238D01*
X46492Y12196D01*
X46600Y12181D01*
X46708Y12196D01*
X46809Y12238D01*
X46896Y12304D01*
X46962Y12391D01*
X47004Y12492D01*
X47019Y12600D01*
X47004Y12708D01*
X46962Y12809D01*
X46896Y12896D01*
X46809Y12962D01*
X46708Y13004D01*
X46600Y13019D01*
X46492Y13004D01*
X46391Y12962D01*
X46309Y12899D01*
X45602D01*
X45585Y12921D01*
X45491Y12993D01*
X45382Y13038D01*
X45265Y13054D01*
D02*
G37*
G36*
X40750Y25253D02*
X40646Y25240D01*
X40548Y25199D01*
X40465Y25135D01*
X40401Y25052D01*
X40360Y24954D01*
X40347Y24850D01*
X40360Y24746D01*
X40401Y24648D01*
X40465Y24565D01*
X40548Y24501D01*
X40646Y24460D01*
X40750Y24447D01*
X40854Y24460D01*
X40952Y24501D01*
X41035Y24565D01*
X41099Y24648D01*
X41140Y24746D01*
X41153Y24850D01*
X41140Y24954D01*
X41099Y25052D01*
X41035Y25135D01*
X40952Y25199D01*
X40854Y25240D01*
X40750Y25253D01*
D02*
G37*
G36*
X45715Y26050D02*
X44815D01*
Y25150D01*
X45715D01*
Y25301D01*
X46309D01*
X46391Y25238D01*
X46492Y25196D01*
X46600Y25181D01*
X46708Y25196D01*
X46809Y25238D01*
X46896Y25304D01*
X46962Y25391D01*
X47004Y25492D01*
X47019Y25600D01*
X47004Y25708D01*
X46962Y25809D01*
X46896Y25896D01*
X46809Y25962D01*
X46708Y26004D01*
X46600Y26019D01*
X46492Y26004D01*
X46391Y25962D01*
X46309Y25899D01*
X45715D01*
Y26050D01*
D02*
G37*
G36*
X45265Y24054D02*
X45147Y24038D01*
X45038Y23993D01*
X44944Y23921D01*
X44871Y23827D01*
X44826Y23717D01*
X44811Y23600D01*
X44826Y23483D01*
X44871Y23373D01*
X44944Y23279D01*
X45038Y23207D01*
X45147Y23162D01*
X45265Y23146D01*
X45382Y23162D01*
X45491Y23207D01*
X45585Y23279D01*
X45602Y23301D01*
X46309D01*
X46391Y23238D01*
X46492Y23196D01*
X46600Y23181D01*
X46708Y23196D01*
X46809Y23238D01*
X46896Y23304D01*
X46962Y23391D01*
X47004Y23492D01*
X47019Y23600D01*
X47004Y23708D01*
X46962Y23809D01*
X46896Y23896D01*
X46809Y23962D01*
X46708Y24004D01*
X46600Y24019D01*
X46492Y24004D01*
X46391Y23962D01*
X46309Y23899D01*
X45602D01*
X45585Y23921D01*
X45491Y23993D01*
X45382Y24038D01*
X45265Y24054D01*
D02*
G37*
G36*
Y25054D02*
X45147Y25038D01*
X45038Y24993D01*
X44944Y24921D01*
X44871Y24827D01*
X44826Y24717D01*
X44811Y24600D01*
X44826Y24483D01*
X44871Y24373D01*
X44944Y24279D01*
X45038Y24207D01*
X45147Y24162D01*
X45265Y24146D01*
X45382Y24162D01*
X45491Y24207D01*
X45585Y24279D01*
X45602Y24301D01*
X46309D01*
X46391Y24238D01*
X46492Y24196D01*
X46600Y24181D01*
X46708Y24196D01*
X46809Y24238D01*
X46896Y24304D01*
X46962Y24391D01*
X47004Y24492D01*
X47019Y24600D01*
X47004Y24708D01*
X46962Y24809D01*
X46896Y24896D01*
X46809Y24962D01*
X46708Y25004D01*
X46600Y25019D01*
X46492Y25004D01*
X46391Y24962D01*
X46309Y24899D01*
X45602D01*
X45585Y24921D01*
X45491Y24993D01*
X45382Y25038D01*
X45265Y25054D01*
D02*
G37*
G36*
X46558Y29553D02*
X46163D01*
X45967Y29357D01*
X45770Y29553D01*
X45375D01*
X45178Y29356D01*
Y28960D01*
X45375Y28763D01*
X45770D01*
X45967Y28959D01*
X46163Y28763D01*
X46558D01*
X46756Y28960D01*
Y29356D01*
X46558Y29553D01*
D02*
G37*
G36*
X45770Y30537D02*
X45375D01*
X45178Y30340D01*
Y29944D01*
X45375Y29747D01*
X45770D01*
X45968Y29944D01*
Y30340D01*
X45770Y30537D01*
D02*
G37*
G36*
X36000Y28300D02*
X35200D01*
Y27500D01*
X35436D01*
X36836Y26100D01*
X36815Y26050D01*
X36350D01*
Y25899D01*
X35741D01*
X35659Y25962D01*
X35558Y26004D01*
X35450Y26019D01*
X35342Y26004D01*
X35241Y25962D01*
X35154Y25896D01*
X35088Y25809D01*
X35046Y25708D01*
X35031Y25600D01*
X35046Y25492D01*
X35088Y25391D01*
X35154Y25304D01*
X35241Y25238D01*
X35342Y25196D01*
X35450Y25181D01*
X35558Y25196D01*
X35659Y25238D01*
X35741Y25301D01*
X36350D01*
Y25150D01*
X37151D01*
Y24961D01*
X37101Y24936D01*
X37027Y24993D01*
X36917Y25038D01*
X36800Y25054D01*
X36683Y25038D01*
X36573Y24993D01*
X36479Y24921D01*
X36463Y24899D01*
X35741D01*
X35659Y24962D01*
X35558Y25004D01*
X35450Y25019D01*
X35342Y25004D01*
X35241Y24962D01*
X35154Y24896D01*
X35088Y24809D01*
X35046Y24708D01*
X35031Y24600D01*
X35046Y24492D01*
X35088Y24391D01*
X35154Y24304D01*
X35241Y24238D01*
X35342Y24196D01*
X35450Y24181D01*
X35558Y24196D01*
X35659Y24238D01*
X35741Y24301D01*
X36463D01*
X36479Y24279D01*
X36573Y24207D01*
X36683Y24162D01*
X36800Y24146D01*
X36917Y24162D01*
X37027Y24207D01*
X37101Y24264D01*
X37151Y24239D01*
Y23961D01*
X37101Y23936D01*
X37027Y23993D01*
X36917Y24038D01*
X36800Y24054D01*
X36683Y24038D01*
X36573Y23993D01*
X36479Y23921D01*
X36463Y23899D01*
X35741D01*
X35659Y23962D01*
X35558Y24004D01*
X35450Y24019D01*
X35342Y24004D01*
X35241Y23962D01*
X35154Y23896D01*
X35088Y23809D01*
X35046Y23708D01*
X35031Y23600D01*
X35046Y23492D01*
X35088Y23391D01*
X35154Y23304D01*
X35241Y23238D01*
X35342Y23196D01*
X35450Y23181D01*
X35558Y23196D01*
X35659Y23238D01*
X35741Y23301D01*
X36463D01*
X36479Y23279D01*
X36573Y23207D01*
X36683Y23162D01*
X36800Y23146D01*
X36917Y23162D01*
X37027Y23207D01*
X37101Y23264D01*
X37151Y23239D01*
Y22961D01*
X37101Y22936D01*
X37027Y22993D01*
X36917Y23038D01*
X36800Y23054D01*
X36683Y23038D01*
X36573Y22993D01*
X36479Y22921D01*
X36463Y22899D01*
X35741D01*
X35659Y22962D01*
X35558Y23004D01*
X35450Y23019D01*
X35342Y23004D01*
X35241Y22962D01*
X35154Y22896D01*
X35088Y22809D01*
X35046Y22708D01*
X35031Y22600D01*
X35046Y22492D01*
X35088Y22391D01*
X35154Y22304D01*
X35241Y22238D01*
X35342Y22196D01*
X35450Y22181D01*
X35558Y22196D01*
X35659Y22238D01*
X35741Y22301D01*
X36463D01*
X36479Y22279D01*
X36573Y22207D01*
X36683Y22162D01*
X36800Y22146D01*
X36917Y22162D01*
X37027Y22207D01*
X37101Y22264D01*
X37151Y22239D01*
Y21961D01*
X37101Y21936D01*
X37027Y21993D01*
X36917Y22038D01*
X36800Y22054D01*
X36683Y22038D01*
X36573Y21993D01*
X36479Y21921D01*
X36463Y21899D01*
X35741D01*
X35659Y21962D01*
X35558Y22004D01*
X35450Y22019D01*
X35342Y22004D01*
X35241Y21962D01*
X35154Y21896D01*
X35088Y21809D01*
X35046Y21708D01*
X35031Y21600D01*
X35046Y21492D01*
X35088Y21391D01*
X35154Y21304D01*
X35241Y21238D01*
X35342Y21196D01*
X35450Y21181D01*
X35558Y21196D01*
X35659Y21238D01*
X35741Y21301D01*
X36463D01*
X36479Y21279D01*
X36573Y21207D01*
X36683Y21162D01*
X36800Y21146D01*
X36917Y21162D01*
X37027Y21207D01*
X37101Y21264D01*
X37151Y21239D01*
Y20961D01*
X37101Y20936D01*
X37027Y20993D01*
X36917Y21038D01*
X36800Y21054D01*
X36683Y21038D01*
X36573Y20993D01*
X36479Y20921D01*
X36463Y20899D01*
X35741D01*
X35659Y20962D01*
X35558Y21004D01*
X35450Y21019D01*
X35342Y21004D01*
X35241Y20962D01*
X35154Y20896D01*
X35088Y20809D01*
X35046Y20708D01*
X35031Y20600D01*
X35046Y20492D01*
X35088Y20391D01*
X35154Y20304D01*
X35241Y20238D01*
X35342Y20196D01*
X35450Y20181D01*
X35558Y20196D01*
X35659Y20238D01*
X35741Y20301D01*
X36463D01*
X36479Y20279D01*
X36573Y20207D01*
X36683Y20162D01*
X36800Y20146D01*
X36917Y20162D01*
X37027Y20207D01*
X37101Y20264D01*
X37151Y20239D01*
Y19961D01*
X37101Y19936D01*
X37027Y19993D01*
X36917Y20038D01*
X36800Y20054D01*
X36683Y20038D01*
X36573Y19993D01*
X36479Y19921D01*
X36463Y19899D01*
X35741D01*
X35659Y19962D01*
X35558Y20004D01*
X35450Y20019D01*
X35342Y20004D01*
X35241Y19962D01*
X35154Y19896D01*
X35088Y19809D01*
X35046Y19708D01*
X35031Y19600D01*
X35046Y19492D01*
X35088Y19391D01*
X35154Y19304D01*
X35241Y19238D01*
X35342Y19196D01*
X35450Y19181D01*
X35558Y19196D01*
X35659Y19238D01*
X35741Y19301D01*
X36463D01*
X36479Y19279D01*
X36573Y19207D01*
X36683Y19162D01*
X36800Y19146D01*
X36917Y19162D01*
X37027Y19207D01*
X37101Y19264D01*
X37151Y19239D01*
Y18961D01*
X37101Y18936D01*
X37027Y18993D01*
X36917Y19038D01*
X36800Y19054D01*
X36683Y19038D01*
X36573Y18993D01*
X36479Y18921D01*
X36463Y18899D01*
X35741D01*
X35659Y18962D01*
X35558Y19004D01*
X35450Y19019D01*
X35342Y19004D01*
X35241Y18962D01*
X35154Y18896D01*
X35088Y18809D01*
X35046Y18708D01*
X35031Y18600D01*
X35046Y18492D01*
X35088Y18391D01*
X35154Y18304D01*
X35241Y18238D01*
X35342Y18196D01*
X35450Y18181D01*
X35558Y18196D01*
X35659Y18238D01*
X35741Y18301D01*
X36463D01*
X36479Y18279D01*
X36573Y18207D01*
X36683Y18162D01*
X36800Y18146D01*
X36917Y18162D01*
X37027Y18207D01*
X37101Y18264D01*
X37130Y18256D01*
X37152Y18241D01*
X37163Y18159D01*
X37165Y18147D01*
X37205Y18051D01*
X37268Y17968D01*
X38669Y16567D01*
X38663Y16503D01*
X38278Y16118D01*
X38214Y16035D01*
X38174Y15939D01*
X38173Y15927D01*
X38161Y15836D01*
X38161Y15836D01*
Y13859D01*
X38174Y13756D01*
X38214Y13660D01*
X38278Y13578D01*
X38360Y13514D01*
X38456Y13474D01*
X38559Y13461D01*
X38863D01*
X38865Y13447D01*
X38905Y13351D01*
X38968Y13268D01*
X39051Y13205D01*
X39147Y13165D01*
X39250Y13151D01*
X39353Y13165D01*
X39449Y13205D01*
X39532Y13268D01*
X39595Y13351D01*
X39635Y13447D01*
X39649Y13550D01*
X39635Y13653D01*
X39614Y13705D01*
X39635Y13756D01*
X39649Y13859D01*
X39635Y13963D01*
X39595Y14059D01*
X39532Y14141D01*
X39449Y14205D01*
X39353Y14245D01*
X39250Y14258D01*
X38958D01*
Y15671D01*
X39129Y15842D01*
X39250D01*
X39353Y15855D01*
X39449Y15895D01*
X39532Y15959D01*
X39595Y16041D01*
X39635Y16137D01*
X39649Y16241D01*
Y16550D01*
X39649Y16550D01*
X39637Y16641D01*
X39635Y16653D01*
X39595Y16749D01*
X39532Y16832D01*
X39261Y17102D01*
X39279Y17155D01*
X39353Y17165D01*
X39449Y17205D01*
X39532Y17268D01*
X39595Y17351D01*
X39635Y17447D01*
X39649Y17550D01*
X39635Y17653D01*
X39595Y17749D01*
X39532Y17832D01*
X39449Y17895D01*
X39353Y17935D01*
X39250Y17949D01*
X39147Y17935D01*
X39051Y17895D01*
X38968Y17832D01*
X38905Y17749D01*
X38865Y17653D01*
X38855Y17579D01*
X38802Y17561D01*
X37949Y18415D01*
Y26109D01*
X37935Y26212D01*
X37895Y26308D01*
X37832Y26391D01*
X37832Y26391D01*
X37596Y26627D01*
X37513Y26691D01*
X37417Y26730D01*
X37405Y26732D01*
X37321Y26743D01*
X36000Y28064D01*
Y28300D01*
D02*
G37*
G36*
X32280Y29990D02*
X32106Y29973D01*
X31939Y29922D01*
X31785Y29839D01*
X31650Y29729D01*
X31539Y29593D01*
X31456Y29439D01*
X31406Y29272D01*
X31389Y29098D01*
X31406Y28924D01*
X31456Y28757D01*
X31539Y28603D01*
X31650Y28468D01*
X31785Y28357D01*
X31939Y28274D01*
X32106Y28223D01*
X32280Y28206D01*
X32454Y28223D01*
X32622Y28274D01*
X32776Y28357D01*
X32911Y28468D01*
X33022Y28603D01*
X33104Y28757D01*
X33155Y28924D01*
X33172Y29098D01*
X33155Y29272D01*
X33104Y29439D01*
X33022Y29593D01*
X32911Y29729D01*
X32776Y29839D01*
X32622Y29922D01*
X32454Y29973D01*
X32280Y29990D01*
D02*
G37*
G36*
X45265Y23054D02*
X45147Y23038D01*
X45038Y22993D01*
X44944Y22921D01*
X44871Y22827D01*
X44826Y22717D01*
X44811Y22600D01*
X44826Y22483D01*
X44871Y22373D01*
X44944Y22279D01*
X45038Y22207D01*
X45147Y22162D01*
X45265Y22146D01*
X45382Y22162D01*
X45491Y22207D01*
X45585Y22279D01*
X45602Y22301D01*
X46309D01*
X46391Y22238D01*
X46492Y22196D01*
X46600Y22181D01*
X46708Y22196D01*
X46809Y22238D01*
X46896Y22304D01*
X46962Y22391D01*
X47004Y22492D01*
X47019Y22600D01*
X47004Y22708D01*
X46962Y22809D01*
X46896Y22896D01*
X46809Y22962D01*
X46708Y23004D01*
X46600Y23019D01*
X46492Y23004D01*
X46391Y22962D01*
X46309Y22899D01*
X45602D01*
X45585Y22921D01*
X45491Y22993D01*
X45382Y23038D01*
X45265Y23054D01*
D02*
G37*
G36*
X39250Y18949D02*
X39147Y18935D01*
X39051Y18895D01*
X38968Y18832D01*
X38905Y18749D01*
X38865Y18653D01*
X38851Y18550D01*
X38865Y18447D01*
X38905Y18351D01*
X38968Y18268D01*
X39051Y18205D01*
X39147Y18165D01*
X39250Y18151D01*
X39353Y18165D01*
X39449Y18205D01*
X39532Y18268D01*
X39595Y18351D01*
X39635Y18447D01*
X39649Y18550D01*
X39635Y18653D01*
X39595Y18749D01*
X39532Y18832D01*
X39449Y18895D01*
X39353Y18935D01*
X39250Y18949D01*
D02*
G37*
G36*
X42250D02*
X42147Y18935D01*
X42051Y18895D01*
X41968Y18832D01*
X41905Y18749D01*
X41865Y18653D01*
X41851Y18550D01*
X41865Y18447D01*
X41905Y18351D01*
X41968Y18268D01*
X42051Y18205D01*
X42147Y18165D01*
X42250Y18151D01*
X42353Y18165D01*
X42449Y18205D01*
X42532Y18268D01*
X42595Y18351D01*
X42635Y18447D01*
X42649Y18550D01*
X42635Y18653D01*
X42595Y18749D01*
X42532Y18832D01*
X42449Y18895D01*
X42353Y18935D01*
X42250Y18949D01*
D02*
G37*
G36*
X45265Y18054D02*
X45147Y18038D01*
X45038Y17993D01*
X44944Y17921D01*
X44871Y17827D01*
X44826Y17717D01*
X44811Y17600D01*
X44826Y17483D01*
X44871Y17373D01*
X44944Y17279D01*
X45038Y17207D01*
X45147Y17162D01*
X45265Y17146D01*
X45382Y17162D01*
X45491Y17207D01*
X45585Y17279D01*
X45602Y17301D01*
X46309D01*
X46391Y17238D01*
X46492Y17196D01*
X46600Y17181D01*
X46708Y17196D01*
X46809Y17238D01*
X46896Y17304D01*
X46962Y17391D01*
X47004Y17492D01*
X47019Y17600D01*
X47004Y17708D01*
X46962Y17809D01*
X46896Y17896D01*
X46809Y17962D01*
X46708Y18004D01*
X46600Y18019D01*
X46492Y18004D01*
X46391Y17962D01*
X46309Y17899D01*
X45602D01*
X45585Y17921D01*
X45491Y17993D01*
X45382Y18038D01*
X45265Y18054D01*
D02*
G37*
G36*
X36800D02*
X36683Y18038D01*
X36573Y17993D01*
X36479Y17921D01*
X36463Y17899D01*
X35741D01*
X35659Y17962D01*
X35558Y18004D01*
X35450Y18019D01*
X35342Y18004D01*
X35241Y17962D01*
X35154Y17896D01*
X35088Y17809D01*
X35046Y17708D01*
X35031Y17600D01*
X35046Y17492D01*
X35088Y17391D01*
X35154Y17304D01*
X35241Y17238D01*
X35342Y17196D01*
X35450Y17181D01*
X35558Y17196D01*
X35659Y17238D01*
X35741Y17301D01*
X36463D01*
X36479Y17279D01*
X36573Y17207D01*
X36683Y17162D01*
X36800Y17146D01*
X36917Y17162D01*
X37027Y17207D01*
X37121Y17279D01*
X37193Y17373D01*
X37238Y17483D01*
X37254Y17600D01*
X37238Y17717D01*
X37193Y17827D01*
X37121Y17921D01*
X37027Y17993D01*
X36917Y18038D01*
X36800Y18054D01*
D02*
G37*
G36*
X40750Y21253D02*
X40646Y21240D01*
X40548Y21199D01*
X40465Y21135D01*
X40401Y21052D01*
X40360Y20954D01*
X40347Y20850D01*
X40360Y20746D01*
X40401Y20648D01*
X40465Y20565D01*
X40548Y20501D01*
X40646Y20460D01*
X40750Y20447D01*
X40854Y20460D01*
X40952Y20501D01*
X41035Y20565D01*
X41099Y20648D01*
X41140Y20746D01*
X41153Y20850D01*
X41140Y20954D01*
X41099Y21052D01*
X41035Y21135D01*
X40952Y21199D01*
X40854Y21240D01*
X40750Y21253D01*
D02*
G37*
G36*
X45265Y22054D02*
X45147Y22038D01*
X45038Y21993D01*
X44944Y21921D01*
X44871Y21827D01*
X44826Y21717D01*
X44811Y21600D01*
X44826Y21483D01*
X44871Y21373D01*
X44944Y21279D01*
X45038Y21207D01*
X45147Y21162D01*
X45265Y21146D01*
X45382Y21162D01*
X45491Y21207D01*
X45585Y21279D01*
X45602Y21301D01*
X46309D01*
X46391Y21238D01*
X46492Y21196D01*
X46600Y21181D01*
X46708Y21196D01*
X46809Y21238D01*
X46896Y21304D01*
X46962Y21391D01*
X47004Y21492D01*
X47019Y21600D01*
X47004Y21708D01*
X46962Y21809D01*
X46896Y21896D01*
X46809Y21962D01*
X46708Y22004D01*
X46600Y22019D01*
X46492Y22004D01*
X46391Y21962D01*
X46309Y21899D01*
X45602D01*
X45585Y21921D01*
X45491Y21993D01*
X45382Y22038D01*
X45265Y22054D01*
D02*
G37*
G36*
Y19054D02*
X45147Y19038D01*
X45038Y18993D01*
X44944Y18921D01*
X44871Y18827D01*
X44826Y18717D01*
X44811Y18600D01*
X44826Y18483D01*
X44871Y18373D01*
X44944Y18279D01*
X45038Y18207D01*
X45147Y18162D01*
X45265Y18146D01*
X45382Y18162D01*
X45491Y18207D01*
X45585Y18279D01*
X45602Y18301D01*
X46309D01*
X46391Y18238D01*
X46492Y18196D01*
X46600Y18181D01*
X46708Y18196D01*
X46809Y18238D01*
X46896Y18304D01*
X46962Y18391D01*
X47004Y18492D01*
X47019Y18600D01*
X47004Y18708D01*
X46962Y18809D01*
X46896Y18896D01*
X46809Y18962D01*
X46708Y19004D01*
X46600Y19019D01*
X46492Y19004D01*
X46391Y18962D01*
X46309Y18899D01*
X45602D01*
X45585Y18921D01*
X45491Y18993D01*
X45382Y19038D01*
X45265Y19054D01*
D02*
G37*
G36*
Y20054D02*
X45147Y20038D01*
X45038Y19993D01*
X44944Y19921D01*
X44871Y19827D01*
X44826Y19717D01*
X44811Y19600D01*
X44826Y19483D01*
X44871Y19373D01*
X44944Y19279D01*
X45038Y19207D01*
X45147Y19162D01*
X45265Y19146D01*
X45382Y19162D01*
X45491Y19207D01*
X45585Y19279D01*
X45602Y19301D01*
X46309D01*
X46391Y19238D01*
X46492Y19196D01*
X46600Y19181D01*
X46708Y19196D01*
X46809Y19238D01*
X46896Y19304D01*
X46962Y19391D01*
X47004Y19492D01*
X47019Y19600D01*
X47004Y19708D01*
X46962Y19809D01*
X46896Y19896D01*
X46809Y19962D01*
X46708Y20004D01*
X46600Y20019D01*
X46492Y20004D01*
X46391Y19962D01*
X46309Y19899D01*
X45602D01*
X45585Y19921D01*
X45491Y19993D01*
X45382Y20038D01*
X45265Y20054D01*
D02*
G37*
%LPD*%
D10*
X35450Y25600D02*
X36800D01*
X45265D02*
X46600D01*
X45265Y24600D02*
X46600D01*
X45265Y23600D02*
X46600D01*
X45265Y22600D02*
X46600D01*
X45265Y19600D02*
X46600D01*
X45265Y18600D02*
X46600D01*
X45265Y17600D02*
X46600D01*
X45265Y16600D02*
X46600D01*
X45265Y15600D02*
X46600D01*
X45265Y14600D02*
X46600D01*
X45265Y13600D02*
X46600D01*
X45265Y12600D02*
X46600D01*
X45265Y11600D02*
X46600D01*
X35450D02*
X36800D01*
X35450Y12600D02*
X36800D01*
X35450Y13600D02*
X36800D01*
X35450Y14600D02*
X36800D01*
X35450Y15600D02*
X36800D01*
X35450Y16600D02*
X36800D01*
X35450Y17600D02*
X36800D01*
X35450Y18600D02*
X36800D01*
X35450Y19600D02*
X36800D01*
X35450Y20600D02*
X36800D01*
X35450Y21600D02*
X36800D01*
X35450Y22600D02*
X36800D01*
X35450Y23600D02*
X36800D01*
X35450Y24600D02*
X36800D01*
X39250Y13550D02*
Y13859D01*
X45265Y21600D02*
X46600D01*
D11*
X35600Y27900D02*
X37155Y26345D01*
X37314D01*
X37550Y26109D01*
Y18250D02*
Y26109D01*
Y18250D02*
X39250Y16550D01*
Y16241D02*
Y16550D01*
X38559Y15836D02*
X38964Y16241D01*
X38559Y13859D02*
Y15836D01*
X40400Y11550D02*
X42250D01*
X39709Y10859D02*
X40400Y11550D01*
X37545Y10859D02*
X39709D01*
X37541Y10855D02*
X37545Y10859D01*
X35191Y10855D02*
X37541D01*
X34740Y11306D02*
X35191Y10855D01*
X38559Y13859D02*
X39250D01*
X38964Y16241D02*
X39250D01*
X24800Y20271D02*
Y31067D01*
Y20271D02*
X32707Y12364D01*
X33681D01*
X34740Y11306D01*
D12*
X35600Y28900D02*
D03*
X40750Y24850D02*
D03*
Y20850D02*
D03*
D13*
X35600Y27900D02*
D03*
D14*
X47427Y27280D02*
D03*
Y32020D02*
D03*
D15*
X46360Y30142D02*
D03*
X45573D02*
D03*
Y29158D02*
D03*
X46360D02*
D03*
D16*
X45265Y11600D02*
D03*
Y12600D02*
D03*
Y13600D02*
D03*
Y14600D02*
D03*
Y15600D02*
D03*
Y16600D02*
D03*
Y17600D02*
D03*
Y18600D02*
D03*
Y19600D02*
D03*
Y20600D02*
D03*
Y21600D02*
D03*
Y22600D02*
D03*
Y23600D02*
D03*
Y24600D02*
D03*
X36800Y11600D02*
D03*
Y12600D02*
D03*
Y13600D02*
D03*
Y14600D02*
D03*
Y15600D02*
D03*
Y16600D02*
D03*
Y17600D02*
D03*
Y18600D02*
D03*
Y19600D02*
D03*
Y20600D02*
D03*
Y21600D02*
D03*
Y22600D02*
D03*
Y23600D02*
D03*
Y24600D02*
D03*
D17*
X45265Y25600D02*
D03*
X36800D02*
D03*
D18*
X39250Y11550D02*
D03*
D19*
Y12550D02*
D03*
Y13550D02*
D03*
Y14550D02*
D03*
Y15550D02*
D03*
Y16550D02*
D03*
Y17550D02*
D03*
Y18550D02*
D03*
X42250Y11550D02*
D03*
Y12550D02*
D03*
Y13550D02*
D03*
Y14550D02*
D03*
Y15550D02*
D03*
Y16550D02*
D03*
Y17550D02*
D03*
Y18550D02*
D03*
D20*
X46600Y11600D02*
D03*
Y12600D02*
D03*
Y13600D02*
D03*
Y14600D02*
D03*
Y15600D02*
D03*
X35450D02*
D03*
Y14600D02*
D03*
Y13600D02*
D03*
Y12600D02*
D03*
Y11600D02*
D03*
Y20600D02*
D03*
Y19600D02*
D03*
Y18600D02*
D03*
Y17600D02*
D03*
Y16600D02*
D03*
X46600D02*
D03*
Y17600D02*
D03*
Y18600D02*
D03*
Y19600D02*
D03*
Y20600D02*
D03*
Y21600D02*
D03*
Y22600D02*
D03*
Y23600D02*
D03*
Y24600D02*
D03*
Y25600D02*
D03*
X35450D02*
D03*
Y24600D02*
D03*
Y23600D02*
D03*
Y22600D02*
D03*
Y21600D02*
D03*
D21*
X32280Y29098D02*
D03*
X25981Y15318D02*
D03*
D22*
X33461Y31067D02*
D03*
X24800D02*
D03*
X33461Y13350D02*
D03*
X24800D02*
D03*
D23*
X23622Y33465D02*
D03*
Y11024D02*
D03*
X48032D02*
D03*
Y33465D02*
D03*
M02*
