G04 Layer_Color=16740166*
%FSLAX24Y24*%
%MOIN*%
G70*
G01*
G75*
%ADD48C,0.0100*%
D48*
X21435Y19485D02*
Y19935D01*
X20285Y19485D02*
X21435D01*
X20285Y17935D02*
Y19485D01*
Y17935D02*
X20685D01*
Y16735D02*
Y17935D01*
Y16735D02*
X21435D01*
Y17135D01*
X22685D01*
Y19935D01*
X22935Y17135D02*
Y19935D01*
Y17135D02*
X23485D01*
X21835Y16735D02*
X23485D01*
X21835Y15935D02*
Y16735D01*
X21060D02*
X21085D01*
Y15885D02*
Y16735D01*
X19885Y16310D02*
X21085D01*
X19885D02*
Y17135D01*
X19385D02*
X19885D01*
X19385Y17535D02*
X19885D01*
Y18710D01*
X20285D01*
X36321Y19485D02*
Y19935D01*
Y19485D02*
X37471D01*
Y17935D02*
Y19485D01*
X37071Y17935D02*
X37471D01*
X37071Y16735D02*
Y17935D01*
X36321Y16735D02*
X37071D01*
X36321D02*
Y17135D01*
X35071D02*
X36321D01*
X35071D02*
Y19935D01*
X34821Y17135D02*
Y19935D01*
X34271Y17135D02*
X34821D01*
X34271Y16735D02*
X35921D01*
Y15935D02*
Y16735D01*
X36671D02*
X36696D01*
X36671Y15885D02*
Y16735D01*
Y16310D02*
X37871D01*
Y17135D01*
X38371D01*
X37871Y17535D02*
X38371D01*
X37871D02*
Y18710D01*
X37471D02*
X37871D01*
M02*
