G04 Layer_Physical_Order=2*
G04 Layer_Color=11436288*
%FSLAX24Y24*%
%MOIN*%
G70*
G01*
G75*
%ADD11R,0.0413X0.0394*%
%ADD12C,0.0059*%
%ADD13C,0.1070*%
%ADD14C,0.0472*%
%ADD15C,0.0669*%
%ADD16R,0.0669X0.0669*%
%ADD17P,0.0639X8X202.5*%
%ADD18O,0.1181X0.1969*%
%ADD19R,0.0600X0.0800*%
G04:AMPARAMS|DCode=20|XSize=60mil|YSize=80mil|CornerRadius=15mil|HoleSize=0mil|Usage=FLASHONLY|Rotation=0.000|XOffset=0mil|YOffset=0mil|HoleType=Round|Shape=RoundedRectangle|*
%AMROUNDEDRECTD20*
21,1,0.0600,0.0500,0,0,0.0*
21,1,0.0300,0.0800,0,0,0.0*
1,1,0.0300,0.0150,-0.0250*
1,1,0.0300,-0.0150,-0.0250*
1,1,0.0300,-0.0150,0.0250*
1,1,0.0300,0.0150,0.0250*
%
%ADD20ROUNDEDRECTD20*%
%ADD21R,0.0800X0.0600*%
G04:AMPARAMS|DCode=22|XSize=60mil|YSize=80mil|CornerRadius=15mil|HoleSize=0mil|Usage=FLASHONLY|Rotation=90.000|XOffset=0mil|YOffset=0mil|HoleType=Round|Shape=RoundedRectangle|*
%AMROUNDEDRECTD22*
21,1,0.0600,0.0500,0,0,90.0*
21,1,0.0300,0.0800,0,0,90.0*
1,1,0.0300,0.0250,0.0150*
1,1,0.0300,0.0250,-0.0150*
1,1,0.0300,-0.0250,-0.0150*
1,1,0.0300,-0.0250,0.0150*
%
%ADD22ROUNDEDRECTD22*%
%ADD23C,0.0600*%
%ADD24R,0.0600X0.0600*%
%ADD25C,0.0197*%
%ADD26C,0.0500*%
G36*
X30380Y14356D02*
Y13773D01*
X31078D01*
Y13289D01*
X30304D01*
Y13173D01*
X30254Y13153D01*
X29912Y13495D01*
Y13795D01*
X29981Y13824D01*
X30065Y13888D01*
X30129Y13971D01*
X30169Y14069D01*
X30183Y14173D01*
X30169Y14278D01*
X30152Y14318D01*
X30183Y14358D01*
X30190Y14357D01*
X30281Y14369D01*
X30330Y14389D01*
X30380Y14356D01*
D02*
G37*
G36*
X27847Y17137D02*
X27889Y17108D01*
X27940Y17098D01*
X28960D01*
X29011Y17108D01*
X29053Y17137D01*
X29227Y17310D01*
X29234Y17321D01*
X29392D01*
X29717Y16997D01*
X29759Y16968D01*
X29810Y16958D01*
X30536D01*
X30555Y16912D01*
X30377Y16733D01*
X30348Y16691D01*
X30345Y16675D01*
X30292Y16663D01*
X30246Y16722D01*
X30162Y16786D01*
X30065Y16827D01*
X29961Y16840D01*
X29856Y16827D01*
X29787Y16798D01*
X29621Y16963D01*
X29578Y16992D01*
X29528Y17002D01*
X28760D01*
X28709Y16992D01*
X28667Y16963D01*
X28437Y16733D01*
X28408Y16691D01*
X28398Y16640D01*
Y16551D01*
X28350Y16541D01*
X28310Y16639D01*
X28246Y16722D01*
X28162Y16786D01*
X28065Y16827D01*
X27961Y16840D01*
X27856Y16827D01*
X27759Y16786D01*
X27675Y16722D01*
X27611Y16639D01*
X27571Y16541D01*
X27557Y16437D01*
X27571Y16333D01*
X27611Y16235D01*
X27675Y16152D01*
X27759Y16088D01*
X27854Y16048D01*
X27856Y16047D01*
X27876Y15994D01*
X27854Y15967D01*
X27819Y15881D01*
X27807Y15790D01*
X27819Y15699D01*
X27854Y15613D01*
X27910Y15540D01*
X27983Y15484D01*
X28069Y15449D01*
X28160Y15437D01*
X28199Y15442D01*
X28237Y15409D01*
Y14992D01*
X27374D01*
Y15553D01*
X26608D01*
Y15898D01*
X26787Y16076D01*
X26856Y16047D01*
X26961Y16034D01*
X27065Y16047D01*
X27162Y16088D01*
X27246Y16152D01*
X27310Y16235D01*
X27350Y16333D01*
X27364Y16437D01*
X27350Y16541D01*
X27310Y16639D01*
X27246Y16722D01*
X27162Y16786D01*
X27110Y16808D01*
X27120Y16858D01*
X27200D01*
X27251Y16868D01*
X27293Y16897D01*
X27503Y17107D01*
X27532Y17149D01*
X27542Y17200D01*
Y17376D01*
X27588Y17395D01*
X27847Y17137D01*
D02*
G37*
G36*
X30304Y17321D02*
X30474D01*
X30478Y17284D01*
Y17280D01*
X30479Y17275D01*
X30480Y17272D01*
X30439Y17222D01*
X29865D01*
X29441Y17646D01*
Y17818D01*
X30304D01*
Y17321D01*
D02*
G37*
G36*
X24163Y14597D02*
X24205Y14568D01*
X24256Y14558D01*
X24542D01*
X24559Y14508D01*
X24494Y14459D01*
X24430Y14375D01*
X24390Y14278D01*
X24376Y14173D01*
X24390Y14069D01*
X24430Y13971D01*
X24494Y13888D01*
X24578Y13824D01*
X24675Y13784D01*
X24780Y13770D01*
X24884Y13784D01*
X24981Y13824D01*
X25065Y13888D01*
X25129Y13971D01*
X25158Y14042D01*
X25208Y14032D01*
Y13760D01*
X25218Y13709D01*
X25247Y13667D01*
X25325Y13588D01*
X25306Y13542D01*
X23615D01*
X23342Y13815D01*
Y14059D01*
X23390Y14069D01*
X23430Y13971D01*
X23494Y13888D01*
X23578Y13824D01*
X23675Y13784D01*
X23780Y13770D01*
X23884Y13784D01*
X23981Y13824D01*
X24065Y13888D01*
X24129Y13971D01*
X24169Y14069D01*
X24183Y14173D01*
X24169Y14278D01*
X24129Y14375D01*
X24065Y14459D01*
X23981Y14523D01*
X23884Y14563D01*
X23780Y14577D01*
X23675Y14563D01*
X23578Y14523D01*
X23494Y14459D01*
X23430Y14375D01*
X23390Y14278D01*
X23342Y14287D01*
Y14400D01*
X23332Y14451D01*
X23303Y14493D01*
X23095Y14702D01*
X23114Y14748D01*
X24011D01*
X24163Y14597D01*
D02*
G37*
G36*
X26467Y18177D02*
X26509Y18148D01*
X26560Y18138D01*
X27005D01*
X27182Y17961D01*
X27163Y17915D01*
X26170D01*
X26170Y17915D01*
Y17915D01*
X26121Y17924D01*
X25912Y18133D01*
Y18323D01*
X25981Y18351D01*
X26065Y18415D01*
X26105Y18468D01*
X26170Y18473D01*
X26467Y18177D01*
D02*
G37*
G36*
X29600Y16611D02*
X29571Y16541D01*
X29557Y16437D01*
X29571Y16333D01*
X29611Y16235D01*
X29675Y16152D01*
X29759Y16088D01*
X29856Y16047D01*
X29961Y16034D01*
X29971Y16035D01*
X29993Y15990D01*
X29487Y15484D01*
X29441Y15503D01*
Y15553D01*
X28724D01*
X28703Y15603D01*
X29054Y15954D01*
X29083Y15997D01*
X29093Y16047D01*
Y16059D01*
X29162Y16088D01*
X29246Y16152D01*
X29310Y16235D01*
X29350Y16333D01*
X29364Y16437D01*
X29350Y16541D01*
X29310Y16639D01*
X29272Y16688D01*
X29297Y16738D01*
X29473D01*
X29600Y16611D01*
D02*
G37*
G36*
X30478Y16031D02*
Y15553D01*
X30304D01*
Y15092D01*
X30254Y15055D01*
X30190Y15063D01*
X30099Y15051D01*
X30013Y15016D01*
X29940Y14960D01*
X29884Y14887D01*
X29866Y14842D01*
X29316D01*
X29266Y14832D01*
X29223Y14803D01*
X28954Y14534D01*
X28884Y14563D01*
X28780Y14577D01*
X28675Y14563D01*
X28578Y14523D01*
X28494Y14459D01*
X28430Y14375D01*
X28390Y14278D01*
X28376Y14173D01*
X28390Y14069D01*
X28430Y13971D01*
X28494Y13888D01*
X28578Y13824D01*
X28675Y13784D01*
X28780Y13770D01*
X28884Y13784D01*
X28981Y13824D01*
X29065Y13888D01*
X29129Y13971D01*
X29169Y14069D01*
X29183Y14173D01*
X29169Y14278D01*
X29140Y14347D01*
X29371Y14578D01*
X29581D01*
X29591Y14528D01*
X29578Y14523D01*
X29494Y14459D01*
X29430Y14375D01*
X29390Y14278D01*
X29376Y14173D01*
X29390Y14069D01*
X29430Y13971D01*
X29494Y13888D01*
X29578Y13824D01*
X29647Y13795D01*
Y13440D01*
X29658Y13389D01*
X29686Y13347D01*
X30134Y12899D01*
X30177Y12870D01*
X30227Y12860D01*
X30304D01*
Y12695D01*
X31068D01*
Y12600D01*
X30304D01*
Y12435D01*
X29704D01*
X28140Y13999D01*
X28169Y14069D01*
X28183Y14173D01*
X28169Y14278D01*
X28129Y14375D01*
X28065Y14459D01*
X27981Y14523D01*
X27884Y14563D01*
X27780Y14577D01*
X27675Y14563D01*
X27578Y14523D01*
X27494Y14459D01*
X27430Y14375D01*
X27390Y14278D01*
X27376Y14173D01*
X27390Y14069D01*
X27430Y13971D01*
X27468Y13922D01*
X27443Y13872D01*
X27116D01*
X27091Y13922D01*
X27129Y13971D01*
X27169Y14069D01*
X27183Y14173D01*
X27169Y14278D01*
X27129Y14375D01*
X27065Y14459D01*
X26981Y14523D01*
X26884Y14563D01*
X26780Y14577D01*
X26675Y14563D01*
X26605Y14534D01*
X26556Y14584D01*
X26575Y14630D01*
X26882D01*
X26932Y14640D01*
X26975Y14668D01*
X27110Y14803D01*
X27147Y14767D01*
X27189Y14738D01*
X27240Y14728D01*
X28960D01*
X29011Y14738D01*
X29053Y14767D01*
X29227Y14940D01*
X29240Y14959D01*
X29441D01*
Y15124D01*
X29446D01*
X29496Y15134D01*
X29539Y15163D01*
X30428Y16051D01*
X30478Y16031D01*
D02*
G37*
G36*
X24103Y17321D02*
X24277D01*
Y17221D01*
X24287Y17170D01*
X24316Y17127D01*
X24547Y16897D01*
X24589Y16868D01*
X24640Y16858D01*
X24801D01*
X24811Y16808D01*
X24759Y16786D01*
X24675Y16722D01*
X24611Y16639D01*
X24571Y16541D01*
X24557Y16437D01*
X24571Y16333D01*
X24600Y16263D01*
X24316Y15979D01*
X24287Y15936D01*
X24277Y15886D01*
Y15553D01*
X24103D01*
Y15095D01*
X24057Y15076D01*
X24013Y15120D01*
X24031Y15165D01*
X24043Y15256D01*
X24031Y15347D01*
X23996Y15432D01*
X23940Y15506D01*
X23867Y15562D01*
X23781Y15597D01*
X23690Y15609D01*
X23599Y15597D01*
X23513Y15562D01*
X23440Y15506D01*
X23384Y15432D01*
X23349Y15347D01*
X23337Y15256D01*
X23349Y15165D01*
X23384Y15079D01*
X23402Y15057D01*
X23379Y15012D01*
X23141D01*
Y15553D01*
X22967D01*
Y15670D01*
X22957Y15721D01*
X22928Y15763D01*
X22622Y16069D01*
Y16143D01*
X22669Y16159D01*
X22675Y16152D01*
X22759Y16088D01*
X22856Y16047D01*
X22961Y16034D01*
X23065Y16047D01*
X23162Y16088D01*
X23246Y16152D01*
X23310Y16235D01*
X23350Y16333D01*
X23364Y16437D01*
X23350Y16541D01*
X23310Y16639D01*
X23246Y16722D01*
X23162Y16786D01*
X23065Y16827D01*
X22961Y16840D01*
X22882Y16830D01*
X22875Y16833D01*
X22841Y16867D01*
X22839Y16873D01*
X22848Y16940D01*
X22838Y17011D01*
X22928Y17101D01*
X22957Y17144D01*
X22967Y17195D01*
Y17280D01*
Y17321D01*
X23141D01*
Y17858D01*
X24103D01*
Y17321D01*
D02*
G37*
G36*
X26811Y16808D02*
X26759Y16786D01*
X26675Y16722D01*
X26611Y16639D01*
X26571Y16541D01*
X26557Y16437D01*
X26571Y16333D01*
X26600Y16263D01*
X26383Y16046D01*
X26354Y16003D01*
X26344Y15953D01*
Y15553D01*
X26170D01*
Y14959D01*
X26786D01*
X26811Y14909D01*
X26800Y14894D01*
X25333D01*
X25317Y14910D01*
X25307Y14959D01*
X25307D01*
X25307Y14959D01*
Y15553D01*
X24542D01*
Y15831D01*
X24787Y16076D01*
X24856Y16047D01*
X24961Y16034D01*
X25065Y16047D01*
X25162Y16088D01*
X25246Y16152D01*
X25310Y16235D01*
X25350Y16333D01*
X25364Y16437D01*
X25350Y16541D01*
X25310Y16639D01*
X25246Y16722D01*
X25162Y16786D01*
X25110Y16808D01*
X25120Y16858D01*
X25801D01*
X25811Y16808D01*
X25759Y16786D01*
X25675Y16722D01*
X25611Y16639D01*
X25571Y16541D01*
X25557Y16437D01*
X25571Y16333D01*
X25611Y16235D01*
X25675Y16152D01*
X25759Y16088D01*
X25856Y16047D01*
X25961Y16034D01*
X26065Y16047D01*
X26162Y16088D01*
X26246Y16152D01*
X26310Y16235D01*
X26350Y16333D01*
X26364Y16437D01*
X26350Y16541D01*
X26310Y16639D01*
X26246Y16722D01*
X26162Y16786D01*
X26110Y16808D01*
X26120Y16858D01*
X26801D01*
X26811Y16808D01*
D02*
G37*
G36*
X21896Y14827D02*
X21936Y14800D01*
X21937Y14796D01*
X21917Y14750D01*
X20959D01*
X20957Y14800D01*
X21042Y14826D01*
X21117Y14874D01*
X21176Y14939D01*
X21217Y15018D01*
X21236Y15104D01*
X21233Y15192D01*
X21210Y15265D01*
X21220Y15287D01*
X21225Y15295D01*
X21243Y15312D01*
X21319Y15316D01*
X21386Y15337D01*
X21896Y14827D01*
D02*
G37*
G36*
X20831Y13573D02*
X20811Y13547D01*
X20775Y13461D01*
X20763Y13370D01*
X20775Y13279D01*
X20811Y13193D01*
X20867Y13120D01*
X20940Y13064D01*
X21025Y13029D01*
X21052Y13025D01*
Y12597D01*
X21226D01*
Y12502D01*
X21052D01*
Y12002D01*
X20855D01*
X20386Y12471D01*
Y13469D01*
X20535Y13618D01*
X20809D01*
X20831Y13573D01*
D02*
G37*
G36*
X29475Y11768D02*
X29465Y11735D01*
X29412Y11720D01*
X28943Y12189D01*
X28900Y12218D01*
X28849Y12228D01*
X28215D01*
X27898Y12545D01*
X27899Y12554D01*
X27943Y12619D01*
X27958Y12697D01*
X27943Y12774D01*
X27899Y12840D01*
X27833Y12884D01*
X27756Y12899D01*
X27678Y12884D01*
X27613Y12840D01*
X27569Y12774D01*
X27554Y12697D01*
X27569Y12619D01*
X27613Y12554D01*
X27624Y12546D01*
Y12500D01*
X27634Y12449D01*
X27663Y12407D01*
X28066Y12003D01*
X28109Y11974D01*
X28112Y11974D01*
X28125Y11920D01*
X28061Y11867D01*
X27974Y11761D01*
X27942Y11702D01*
X26984D01*
X26965Y11748D01*
X27068Y11852D01*
Y12247D01*
X26872Y12443D01*
X27068Y12639D01*
Y13034D01*
X26871Y13232D01*
X26476D01*
X26302Y13058D01*
X26252Y13079D01*
Y13210D01*
X26242Y13261D01*
X26213Y13303D01*
X26115Y13402D01*
X26134Y13448D01*
X27795D01*
X29475Y11768D01*
D02*
G37*
G36*
X26305Y26631D02*
X26424Y26582D01*
X26474Y26544D01*
X26509Y26513D01*
X26509Y26512D01*
X26517Y26495D01*
X26517Y26494D01*
X26517Y26494D01*
X26553Y26460D01*
X37796Y10394D01*
X37804Y10375D01*
X37816Y10287D01*
X37815Y10285D01*
X37816Y10284D01*
X37803Y10191D01*
X37767Y10103D01*
X37709Y10027D01*
X37641Y9975D01*
X37641Y9975D01*
X37598Y9956D01*
D01*
X37553Y9945D01*
X28918D01*
X28905Y9995D01*
X28937Y10012D01*
X29042Y10098D01*
X29128Y10203D01*
X29192Y10323D01*
X29232Y10453D01*
X29245Y10589D01*
Y10932D01*
X27857D01*
Y10589D01*
X27871Y10453D01*
X27910Y10323D01*
X27974Y10203D01*
X28061Y10098D01*
X28166Y10012D01*
X28197Y9995D01*
X28185Y9945D01*
X24178D01*
X24165Y9995D01*
X24197Y10012D01*
X24302Y10098D01*
X24388Y10203D01*
X24452Y10323D01*
X24492Y10453D01*
X24505Y10589D01*
Y10932D01*
X23117D01*
Y10589D01*
X23130Y10453D01*
X23170Y10323D01*
X23234Y10203D01*
X23320Y10098D01*
X23426Y10012D01*
X23457Y9995D01*
X23444Y9945D01*
X14397D01*
X14390Y9948D01*
X14327Y9996D01*
X14278Y10061D01*
X14247Y10136D01*
X14236Y10216D01*
X14245Y10285D01*
X14261Y10329D01*
D01*
X14262Y10333D01*
X14281Y10366D01*
X14295Y10387D01*
X17751Y15215D01*
X17761Y15214D01*
X17805Y15164D01*
X17796Y15095D01*
X17806Y14970D01*
X17840Y14849D01*
X17896Y14738D01*
X17973Y14640D01*
X18030Y14591D01*
X18393Y15109D01*
X18434Y15081D01*
X18463Y15122D01*
X18982Y14759D01*
X19018Y14824D01*
X19057Y14943D01*
X19072Y15067D01*
X19063Y15192D01*
X19029Y15312D01*
X18973Y15424D01*
X18969Y15428D01*
X19488Y15948D01*
X20430D01*
X20452Y15898D01*
X20414Y15857D01*
X20374Y15779D01*
X20354Y15692D01*
X20358Y15604D01*
X20381Y15531D01*
X20371Y15509D01*
X20366Y15501D01*
X20348Y15484D01*
X20272Y15481D01*
X20188Y15454D01*
X20113Y15406D01*
X20053Y15341D01*
X20012Y15263D01*
X19993Y15176D01*
X19997Y15088D01*
X20024Y15003D01*
X20071Y14929D01*
X20136Y14869D01*
X20215Y14828D01*
X20238Y14772D01*
X20219Y14734D01*
X20199Y14647D01*
X20203Y14559D01*
X20230Y14474D01*
X20277Y14400D01*
X20343Y14340D01*
X20421Y14299D01*
X20508Y14280D01*
X20596Y14284D01*
X20681Y14310D01*
X20755Y14358D01*
X20815Y14423D01*
X20848Y14486D01*
X21452D01*
X21477Y14436D01*
X21430Y14375D01*
X21390Y14278D01*
X21376Y14173D01*
X21390Y14069D01*
X21430Y13971D01*
X21494Y13888D01*
X21578Y13824D01*
X21675Y13784D01*
X21780Y13770D01*
X21884Y13784D01*
X21954Y13812D01*
X22158Y13608D01*
Y13191D01*
X22068D01*
X22042Y13229D01*
X21428Y13843D01*
X21385Y13872D01*
X21334Y13882D01*
X20480D01*
X20429Y13872D01*
X20387Y13843D01*
X20246Y13703D01*
X20208Y13736D01*
X20415Y14031D01*
X19608Y14595D01*
X19292Y14144D01*
X20085Y13588D01*
X20087Y13587D01*
X20097Y13580D01*
X20098Y13579D01*
X20125Y13541D01*
X20121Y13524D01*
Y12416D01*
X20132Y12366D01*
X20160Y12323D01*
X20707Y11777D01*
X20749Y11748D01*
X20800Y11738D01*
X22400D01*
X22451Y11748D01*
X22493Y11777D01*
X22913Y12197D01*
X22942Y12239D01*
X22952Y12290D01*
Y12446D01*
X22997Y12464D01*
X23070Y12520D01*
X23126Y12593D01*
X23161Y12679D01*
X23173Y12770D01*
X23164Y12839D01*
X23211Y12862D01*
X23330Y12743D01*
X23373Y12715D01*
X23423Y12705D01*
X25294D01*
Y12639D01*
X25490Y12443D01*
X25294Y12247D01*
Y12181D01*
X23811D01*
X23760Y12171D01*
X23718Y12143D01*
X23689Y12100D01*
X23681Y12057D01*
X23676Y12057D01*
X23545Y12017D01*
X23426Y11953D01*
X23320Y11867D01*
X23234Y11761D01*
X23170Y11642D01*
X23130Y11511D01*
X23117Y11376D01*
Y11032D01*
X24505D01*
Y11376D01*
X24492Y11511D01*
X24452Y11642D01*
X24388Y11761D01*
X24302Y11867D01*
X24297Y11870D01*
X24314Y11917D01*
X25294D01*
Y11852D01*
X25491Y11654D01*
X25562D01*
X25567Y11629D01*
X25596Y11587D01*
X25706Y11477D01*
X25748Y11448D01*
X25799Y11438D01*
X27826D01*
X27860Y11401D01*
X27857Y11376D01*
Y11032D01*
X29245D01*
Y11376D01*
X29241Y11413D01*
X29289Y11443D01*
X29310Y11430D01*
X29314Y11406D01*
X29343Y11364D01*
X29565Y11141D01*
X29608Y11113D01*
X29659Y11103D01*
X29973D01*
X30024Y11113D01*
X30066Y11141D01*
X30081Y11156D01*
X31465D01*
X31515Y11166D01*
X31558Y11194D01*
X32213Y11849D01*
X32242Y11892D01*
X32252Y11943D01*
Y12773D01*
X32633Y13155D01*
X34612D01*
Y11174D01*
X34601Y11167D01*
X34557Y11101D01*
X34542Y11024D01*
X34557Y10946D01*
X34601Y10881D01*
X34667Y10837D01*
X34744Y10821D01*
X34822Y10837D01*
X34887Y10881D01*
X34931Y10946D01*
X34946Y11024D01*
X34931Y11101D01*
X34887Y11167D01*
X34876Y11174D01*
Y13287D01*
X34866Y13338D01*
X34837Y13381D01*
X34795Y13409D01*
X34744Y13419D01*
X32579D01*
X32528Y13409D01*
X32485Y13381D01*
X32026Y12922D01*
X31998Y12879D01*
X31987Y12828D01*
Y12408D01*
X31943Y12386D01*
X31917Y12406D01*
X31831Y12441D01*
X31740Y12453D01*
X31649Y12441D01*
X31563Y12406D01*
X31552Y12397D01*
X31507Y12419D01*
Y12600D01*
X31332D01*
Y12695D01*
X31507D01*
Y13289D01*
X31342D01*
Y14959D01*
X31507D01*
Y15553D01*
X31401D01*
X31380Y15603D01*
X31493Y15716D01*
X31522Y15759D01*
X31532Y15809D01*
Y15999D01*
X31561Y16037D01*
X31582Y16037D01*
X32361D01*
Y16837D01*
X31561D01*
Y16813D01*
X31511Y16798D01*
X31493Y16823D01*
X31323Y16993D01*
X31245Y17072D01*
X31264Y17118D01*
X31440D01*
X31491Y17128D01*
X31533Y17157D01*
X31633Y17257D01*
X31662Y17299D01*
X31672Y17350D01*
Y17920D01*
X31662Y17971D01*
X31633Y18013D01*
X31283Y18363D01*
X31241Y18392D01*
X31190Y18402D01*
X31180D01*
Y19101D01*
X30380D01*
Y18402D01*
X30265D01*
X30140Y18527D01*
X30169Y18596D01*
X30183Y18701D01*
X30169Y18805D01*
X30129Y18903D01*
X30065Y18986D01*
X29981Y19050D01*
X29884Y19090D01*
X29780Y19104D01*
X29675Y19090D01*
X29578Y19050D01*
X29494Y18986D01*
X29430Y18903D01*
X29390Y18805D01*
X29376Y18701D01*
X29390Y18596D01*
X29430Y18499D01*
X29494Y18415D01*
X29578Y18351D01*
X29675Y18311D01*
X29780Y18297D01*
X29884Y18311D01*
X29954Y18340D01*
X30117Y18177D01*
X30160Y18148D01*
X30210Y18138D01*
X31094D01*
X31097Y18132D01*
X31069Y18082D01*
X29244D01*
X29193Y18072D01*
X29150Y18043D01*
X29040Y17933D01*
X29028Y17915D01*
X28237D01*
Y17799D01*
X28187Y17778D01*
X27912Y18053D01*
Y18323D01*
X27981Y18351D01*
X28065Y18415D01*
X28129Y18499D01*
X28169Y18596D01*
X28183Y18701D01*
X28169Y18805D01*
X28129Y18903D01*
X28065Y18986D01*
X27981Y19050D01*
X27884Y19090D01*
X27780Y19104D01*
X27675Y19090D01*
X27578Y19050D01*
X27494Y18986D01*
X27430Y18903D01*
X27402Y18835D01*
X27352Y18845D01*
Y19140D01*
X27342Y19191D01*
X27313Y19233D01*
X26973Y19573D01*
X26931Y19602D01*
X26880Y19612D01*
X26730D01*
X26720Y19662D01*
X26810Y19699D01*
X26901Y19769D01*
X26970Y19860D01*
X27014Y19965D01*
X27029Y20079D01*
X27014Y20192D01*
X26970Y20298D01*
X26901Y20389D01*
X26810Y20458D01*
X26704Y20502D01*
X26591Y20517D01*
X26477Y20502D01*
X26371Y20458D01*
X26281Y20389D01*
X26211Y20298D01*
X26167Y20192D01*
X26152Y20079D01*
X26167Y19965D01*
X26211Y19860D01*
X26281Y19769D01*
X26371Y19699D01*
X26461Y19662D01*
X26451Y19612D01*
X26244D01*
X26025Y19831D01*
Y20050D01*
X26029Y20079D01*
X26025Y20107D01*
Y20513D01*
X25619D01*
X25591Y20517D01*
X25562Y20513D01*
X25156D01*
Y20107D01*
X25152Y20079D01*
X25156Y20050D01*
Y19644D01*
X25562D01*
X25591Y19640D01*
X25619Y19644D01*
X25838D01*
X26096Y19387D01*
X26139Y19358D01*
X26189Y19348D01*
X26825D01*
X27088Y19085D01*
Y19031D01*
X27038Y19007D01*
X26981Y19050D01*
X26884Y19090D01*
X26780Y19104D01*
X26675Y19090D01*
X26578Y19050D01*
X26494Y18986D01*
X26430Y18903D01*
X26390Y18805D01*
X26342Y18815D01*
Y18880D01*
X26332Y18931D01*
X26303Y18973D01*
X26043Y19233D01*
X26001Y19262D01*
X25950Y19272D01*
X24219D01*
X24168Y19262D01*
X24125Y19233D01*
X23954Y19062D01*
X23884Y19090D01*
X23780Y19104D01*
X23675Y19090D01*
X23578Y19050D01*
X23494Y18986D01*
X23430Y18903D01*
X23390Y18805D01*
X23376Y18701D01*
X23390Y18596D01*
X23430Y18499D01*
X23494Y18415D01*
X23578Y18351D01*
X23675Y18311D01*
X23780Y18297D01*
X23884Y18311D01*
X23981Y18351D01*
X24065Y18415D01*
X24129Y18499D01*
X24169Y18596D01*
X24183Y18701D01*
X24169Y18805D01*
X24140Y18875D01*
X24273Y19008D01*
X24448D01*
X24473Y18958D01*
X24430Y18903D01*
X24390Y18805D01*
X24376Y18701D01*
X24390Y18596D01*
X24430Y18499D01*
X24494Y18415D01*
X24578Y18351D01*
X24675Y18311D01*
X24780Y18297D01*
X24884Y18311D01*
X24981Y18351D01*
X25065Y18415D01*
X25129Y18499D01*
X25169Y18596D01*
X25183Y18701D01*
X25169Y18805D01*
X25129Y18903D01*
X25086Y18958D01*
X25111Y19008D01*
X25448D01*
X25473Y18958D01*
X25430Y18903D01*
X25390Y18805D01*
X25376Y18701D01*
X25390Y18596D01*
X25430Y18499D01*
X25494Y18415D01*
X25578Y18351D01*
X25647Y18323D01*
Y18079D01*
X25658Y18028D01*
X25686Y17985D01*
X26147Y17525D01*
X26170Y17509D01*
Y17408D01*
X25307D01*
Y17915D01*
X25123D01*
X25122Y17921D01*
X25093Y17963D01*
X24973Y18083D01*
X24931Y18112D01*
X24880Y18122D01*
X22960D01*
X22909Y18112D01*
X22867Y18083D01*
X22741Y17958D01*
X22713Y17915D01*
X22713Y17915D01*
X22376D01*
Y18236D01*
X22366Y18287D01*
X22337Y18330D01*
X22140Y18527D01*
X22169Y18596D01*
X22183Y18701D01*
X22169Y18805D01*
X22129Y18903D01*
X22065Y18986D01*
X21981Y19050D01*
X21884Y19090D01*
X21780Y19104D01*
X21675Y19090D01*
X21578Y19050D01*
X21494Y18986D01*
X21430Y18903D01*
X21390Y18805D01*
X21376Y18701D01*
X21390Y18596D01*
X21430Y18499D01*
X21494Y18415D01*
X21578Y18351D01*
X21675Y18311D01*
X21780Y18297D01*
X21884Y18311D01*
X21954Y18340D01*
X22112Y18182D01*
Y17915D01*
X21937D01*
Y17321D01*
X22370D01*
X22380Y17271D01*
X22318Y17246D01*
X22245Y17190D01*
X22189Y17117D01*
X22154Y17031D01*
X22142Y16940D01*
X22154Y16849D01*
X22189Y16763D01*
X22245Y16690D01*
X22318Y16634D01*
X22358Y16618D01*
Y16180D01*
X22351Y16176D01*
X22308Y16167D01*
X22260Y16230D01*
X22187Y16286D01*
X22101Y16321D01*
X22073Y16325D01*
X22053Y16370D01*
X22086Y16417D01*
X21279Y16982D01*
X20963Y16530D01*
X21665Y16039D01*
X21657Y15980D01*
X21669Y15889D01*
X21704Y15803D01*
X21760Y15730D01*
X21833Y15674D01*
X21919Y15639D01*
X22010Y15627D01*
X22062Y15634D01*
X22099Y15603D01*
X22082Y15553D01*
X21937D01*
Y15224D01*
X21891Y15205D01*
X21573Y15523D01*
X21579Y15534D01*
X21598Y15620D01*
X21594Y15708D01*
X21567Y15793D01*
X21520Y15868D01*
X21492Y15893D01*
X21301Y15621D01*
X21219Y15678D01*
X21410Y15951D01*
X21376Y15968D01*
X21289Y15987D01*
X21201Y15984D01*
X21134Y15962D01*
X20923Y16173D01*
X20880Y16202D01*
X20829Y16212D01*
X19434D01*
X19383Y16202D01*
X19340Y16173D01*
X18781Y15614D01*
X18691Y15665D01*
X18640Y15682D01*
X18624Y15729D01*
X19538Y17035D01*
X19588Y17036D01*
X19622Y16994D01*
X19679Y16945D01*
X20042Y17464D01*
X20405Y17982D01*
X20340Y18019D01*
X20221Y18058D01*
X20097Y18073D01*
X19972Y18063D01*
X19852Y18030D01*
X19815Y18011D01*
X19781Y18050D01*
X25803Y26461D01*
X25816Y26473D01*
X25839Y26494D01*
X25846Y26512D01*
X25881Y26543D01*
X25932Y26582D01*
X26050Y26631D01*
X26178Y26648D01*
X26305Y26631D01*
D02*
G37*
G36*
X23078Y13835D02*
Y13760D01*
X23088Y13709D01*
X23117Y13667D01*
X23467Y13317D01*
X23509Y13288D01*
X23560Y13278D01*
X25482D01*
X25487Y13228D01*
X25294Y13034D01*
Y12969D01*
X23478D01*
X22720Y13727D01*
X22743Y13775D01*
X22780Y13770D01*
X22884Y13784D01*
X22981Y13824D01*
X23028Y13860D01*
X23078Y13835D01*
D02*
G37*
%LPC*%
G36*
X33715Y12003D02*
X33215D01*
X33117Y11984D01*
X33034Y11929D01*
X32979Y11846D01*
X32960Y11748D01*
Y11448D01*
X32979Y11351D01*
X33034Y11268D01*
X33117Y11213D01*
X33215Y11194D01*
X33715D01*
X33812Y11213D01*
X33895Y11268D01*
X33950Y11351D01*
X33969Y11448D01*
Y11748D01*
X33950Y11846D01*
X33895Y11929D01*
X33812Y11984D01*
X33715Y12003D01*
D02*
G37*
G36*
X19496Y11030D02*
X18496D01*
Y10230D01*
X19496D01*
Y11030D01*
D02*
G37*
G36*
X33715Y11003D02*
X33215D01*
X33117Y10984D01*
X33034Y10929D01*
X32979Y10846D01*
X32960Y10748D01*
Y10448D01*
X32979Y10351D01*
X33034Y10268D01*
X33117Y10213D01*
X33215Y10194D01*
X33715D01*
X33812Y10213D01*
X33895Y10268D01*
X33950Y10351D01*
X33969Y10448D01*
Y10748D01*
X33950Y10846D01*
X33895Y10929D01*
X33812Y10984D01*
X33715Y11003D01*
D02*
G37*
G36*
X19246Y12035D02*
X18746D01*
X18649Y12015D01*
X18566Y11960D01*
X18511Y11877D01*
X18491Y11780D01*
Y11480D01*
X18511Y11382D01*
X18566Y11300D01*
X18649Y11244D01*
X18746Y11225D01*
X19246D01*
X19344Y11244D01*
X19426Y11300D01*
X19482Y11382D01*
X19501Y11480D01*
Y11780D01*
X19482Y11877D01*
X19426Y11960D01*
X19344Y12015D01*
X19246Y12035D01*
D02*
G37*
G36*
X18447Y15011D02*
X18112Y14533D01*
X18177Y14497D01*
X18296Y14458D01*
X18420Y14443D01*
X18545Y14452D01*
X18666Y14486D01*
X18777Y14543D01*
X18876Y14620D01*
X18924Y14677D01*
X18447Y15011D01*
D02*
G37*
G36*
X33965Y12998D02*
X32965D01*
Y12198D01*
X33965D01*
Y12998D01*
D02*
G37*
G36*
X19246Y13035D02*
X18746D01*
X18649Y13015D01*
X18566Y12960D01*
X18511Y12877D01*
X18491Y12780D01*
Y12480D01*
X18511Y12382D01*
X18566Y12300D01*
X18649Y12244D01*
X18746Y12225D01*
X19246D01*
X19344Y12244D01*
X19426Y12300D01*
X19482Y12382D01*
X19501Y12480D01*
Y12780D01*
X19482Y12877D01*
X19426Y12960D01*
X19344Y13015D01*
X19246Y13035D01*
D02*
G37*
G36*
X30257Y20612D02*
X29873D01*
Y20227D01*
X30257D01*
Y20612D01*
D02*
G37*
G36*
X28773Y20609D02*
X28709Y20601D01*
X28604Y20557D01*
X28513Y20487D01*
X28443Y20396D01*
X28399Y20291D01*
X28391Y20227D01*
X28773D01*
Y20609D01*
D02*
G37*
G36*
X23638Y20517D02*
X23524Y20502D01*
X23419Y20458D01*
X23328Y20389D01*
X23258Y20298D01*
X23222Y20211D01*
X23072D01*
Y20513D01*
X22666D01*
X22638Y20517D01*
X22609Y20513D01*
X22203D01*
Y20107D01*
X22199Y20079D01*
X22203Y20050D01*
Y19644D01*
X22609D01*
X22638Y19640D01*
X22666Y19644D01*
X23072D01*
Y19947D01*
X23222D01*
X23258Y19860D01*
X23328Y19769D01*
X23419Y19699D01*
X23524Y19655D01*
X23638Y19640D01*
X23751Y19655D01*
X23857Y19699D01*
X23948Y19769D01*
X24017Y19860D01*
X24061Y19965D01*
X24076Y20079D01*
X24061Y20192D01*
X24017Y20298D01*
X23948Y20389D01*
X23857Y20458D01*
X23751Y20502D01*
X23638Y20517D01*
D02*
G37*
G36*
X29773Y20612D02*
X29388D01*
Y20309D01*
X29239D01*
X29202Y20396D01*
X29133Y20487D01*
X29042Y20557D01*
X28936Y20601D01*
X28873Y20609D01*
Y20177D01*
Y19745D01*
X28936Y19754D01*
X29042Y19798D01*
X29133Y19867D01*
X29202Y19958D01*
X29239Y20045D01*
X29388D01*
Y19743D01*
X29773D01*
Y20177D01*
Y20612D01*
D02*
G37*
G36*
X25597Y22350D02*
X24797D01*
Y21350D01*
X25597D01*
Y22350D01*
D02*
G37*
G36*
X27347Y22355D02*
X27047D01*
X26949Y22336D01*
X26867Y22281D01*
X26811Y22198D01*
X26792Y22100D01*
Y21600D01*
X26811Y21503D01*
X26867Y21420D01*
X26949Y21365D01*
X27047Y21346D01*
X27347D01*
X27444Y21365D01*
X27527Y21420D01*
X27582Y21503D01*
X27602Y21600D01*
Y22100D01*
X27582Y22198D01*
X27527Y22281D01*
X27444Y22336D01*
X27347Y22355D01*
D02*
G37*
G36*
X26347D02*
X26047D01*
X25949Y22336D01*
X25867Y22281D01*
X25811Y22198D01*
X25792Y22100D01*
Y21600D01*
X25811Y21503D01*
X25867Y21420D01*
X25949Y21365D01*
X26047Y21346D01*
X26347D01*
X26444Y21365D01*
X26527Y21420D01*
X26582Y21503D01*
X26602Y21600D01*
Y22100D01*
X26582Y22198D01*
X26527Y22281D01*
X26444Y22336D01*
X26347Y22355D01*
D02*
G37*
G36*
X20487Y17925D02*
X20152Y17447D01*
X20630Y17113D01*
X20667Y17178D01*
X20706Y17297D01*
X20721Y17421D01*
X20711Y17546D01*
X20678Y17666D01*
X20621Y17778D01*
X20544Y17876D01*
X20487Y17925D01*
D02*
G37*
G36*
X20095Y17365D02*
X19761Y16888D01*
X19826Y16851D01*
X19945Y16812D01*
X20069Y16797D01*
X20194Y16807D01*
X20314Y16840D01*
X20426Y16897D01*
X20524Y16974D01*
X20573Y17031D01*
X20095Y17365D01*
D02*
G37*
G36*
X23961Y16840D02*
X23856Y16827D01*
X23759Y16786D01*
X23675Y16722D01*
X23611Y16639D01*
X23571Y16541D01*
X23557Y16437D01*
X23571Y16333D01*
X23611Y16235D01*
X23675Y16152D01*
X23759Y16088D01*
X23856Y16047D01*
X23961Y16034D01*
X24065Y16047D01*
X24162Y16088D01*
X24246Y16152D01*
X24310Y16235D01*
X24350Y16333D01*
X24364Y16437D01*
X24350Y16541D01*
X24310Y16639D01*
X24246Y16722D01*
X24162Y16786D01*
X24065Y16827D01*
X23961Y16840D01*
D02*
G37*
G36*
X22780Y19104D02*
X22675Y19090D01*
X22578Y19050D01*
X22494Y18986D01*
X22430Y18903D01*
X22390Y18805D01*
X22376Y18701D01*
X22390Y18596D01*
X22430Y18499D01*
X22494Y18415D01*
X22578Y18351D01*
X22675Y18311D01*
X22780Y18297D01*
X22884Y18311D01*
X22981Y18351D01*
X23065Y18415D01*
X23129Y18499D01*
X23169Y18596D01*
X23183Y18701D01*
X23169Y18805D01*
X23129Y18903D01*
X23065Y18986D01*
X22981Y19050D01*
X22884Y19090D01*
X22780Y19104D01*
D02*
G37*
G36*
X28773Y20127D02*
X28391D01*
X28399Y20064D01*
X28443Y19958D01*
X28513Y19867D01*
X28604Y19798D01*
X28709Y19754D01*
X28773Y19745D01*
Y20127D01*
D02*
G37*
G36*
X30257D02*
X29873D01*
Y19743D01*
X30257D01*
Y20127D01*
D02*
G37*
G36*
X28780Y19104D02*
X28675Y19090D01*
X28578Y19050D01*
X28494Y18986D01*
X28430Y18903D01*
X28390Y18805D01*
X28376Y18701D01*
X28390Y18596D01*
X28430Y18499D01*
X28494Y18415D01*
X28578Y18351D01*
X28675Y18311D01*
X28780Y18297D01*
X28884Y18311D01*
X28981Y18351D01*
X29065Y18415D01*
X29129Y18499D01*
X29169Y18596D01*
X29183Y18701D01*
X29169Y18805D01*
X29129Y18903D01*
X29065Y18986D01*
X28981Y19050D01*
X28884Y19090D01*
X28780Y19104D01*
D02*
G37*
%LPD*%
D11*
X21358Y12205D02*
D03*
X21949D02*
D03*
X22835Y15256D02*
D03*
X22244D02*
D03*
X22835Y17618D02*
D03*
X22244D02*
D03*
X21358Y12894D02*
D03*
X21949D02*
D03*
X25000Y15256D02*
D03*
X24409D02*
D03*
X31201Y11614D02*
D03*
X30610D02*
D03*
X27067Y15256D02*
D03*
X26476D02*
D03*
X27067Y17618D02*
D03*
X26476D02*
D03*
X31201Y12992D02*
D03*
X30610D02*
D03*
X31201Y12303D02*
D03*
X30610D02*
D03*
X29134Y15256D02*
D03*
X28543D02*
D03*
X29134Y17618D02*
D03*
X28543D02*
D03*
X31201D02*
D03*
X30610D02*
D03*
X31201Y15256D02*
D03*
X30610D02*
D03*
D12*
X27756Y12500D02*
Y12697D01*
Y12500D02*
X28160Y12096D01*
X23560Y13410D02*
X25920D01*
X26120Y13210D01*
X25340Y13760D02*
Y14400D01*
X25543Y14603D01*
X24650Y14690D02*
X24840Y14880D01*
X24256Y14690D02*
X24650D01*
X23210Y13760D02*
X23560Y13410D01*
X25520Y13580D02*
X27850D01*
X25340Y13760D02*
X25520Y13580D01*
X26213Y13740D02*
X27974D01*
X25780Y14173D02*
X26213Y13740D01*
X23210Y13760D02*
Y14400D01*
X23423Y12837D02*
X25689D01*
X26120Y12480D02*
Y13210D01*
X28160Y12096D02*
X28849D01*
X29436Y11509D01*
Y11457D02*
Y11509D01*
Y11457D02*
X29659Y11235D01*
X29973D01*
X30026Y11288D01*
X31465D01*
X31201Y12100D02*
X31740D01*
X32120Y11943D02*
Y12828D01*
X31465Y11288D02*
X32120Y11943D01*
Y12828D02*
X32579Y13287D01*
X34744D01*
Y11024D02*
Y13287D01*
X31230Y16900D02*
X31400Y16730D01*
X31040Y17090D02*
X31230Y16900D01*
X31210Y12992D02*
Y15256D01*
X31201Y12100D02*
Y12303D01*
X27067Y14947D02*
Y15033D01*
X31200Y12303D02*
Y12992D01*
X22835Y17195D02*
Y17280D01*
X22490Y16850D02*
X22835Y17195D01*
X24066Y14880D02*
X24256Y14690D01*
X23690Y15256D02*
X24066Y14880D01*
X24840D01*
X22990D02*
X24066D01*
X25799Y11570D02*
X28551D01*
X22244Y17618D02*
Y18236D01*
X21780Y18701D02*
X22244Y18236D01*
X21358Y12894D02*
Y13128D01*
X21116Y13370D02*
X21358Y13128D01*
X22835Y17280D02*
Y17618D01*
X22495Y16940D02*
X22835Y17280D01*
X29134Y17618D02*
X29282D01*
X29810Y17090D01*
X31040D01*
X31201Y15256D02*
Y15610D01*
X31400Y15809D01*
Y16730D01*
X30700Y16870D02*
X31230Y16900D01*
X30470Y16640D02*
X30700Y16870D01*
X30470Y16280D02*
Y16640D01*
X29446Y15256D02*
X30470Y16280D01*
X29134Y15256D02*
X29446D01*
X29134Y17404D02*
Y17618D01*
X28960Y17230D02*
X29134Y17404D01*
X27940Y17230D02*
X28960D01*
X27570Y17600D02*
X27940Y17230D01*
X27570Y17600D02*
Y18270D01*
X27220Y18620D02*
X27570Y18270D01*
X27220Y18620D02*
Y19140D01*
X26880Y19480D02*
X27220Y19140D01*
X26189Y19480D02*
X26880D01*
X25591Y20079D02*
X26189Y19480D01*
X20829Y16080D02*
X21260Y15650D01*
X19434Y16080D02*
X20829D01*
X18434Y15081D02*
X19434Y16080D01*
X24409Y15256D02*
Y15886D01*
X24961Y16437D01*
X27780Y14173D02*
X29650Y12303D01*
X30610D01*
X27974Y13740D02*
X29599Y12115D01*
X29895D01*
X30396Y11614D01*
X30610D01*
X26350Y14603D02*
X26780Y14173D01*
X25543Y14603D02*
X26350D01*
X27850Y13580D02*
X29816Y11614D01*
X26476Y15256D02*
Y15953D01*
X26961Y16437D01*
X30610Y15256D02*
Y16087D01*
X30961Y16437D01*
X31201Y15256D02*
X31210D01*
X31201Y12992D02*
X31210D01*
X31200D02*
X31201D01*
X31200Y12303D02*
X31201D01*
X22820Y12290D02*
Y12770D01*
X22400Y11870D02*
X22820Y12290D01*
X20800Y11870D02*
X22400D01*
X20254Y12416D02*
X20800Y11870D01*
X20254Y12416D02*
Y13524D01*
X20480Y13750D01*
X21334D01*
X21949Y13135D01*
Y12894D02*
Y13135D01*
X30610Y17280D02*
Y17618D01*
Y17280D02*
X30640Y17250D01*
X31440D01*
X31540Y17350D01*
Y17920D01*
X31190Y18270D02*
X31540Y17920D01*
X30210Y18270D02*
X31190D01*
X29780Y18701D02*
X30210Y18270D01*
X26882Y14762D02*
X27067Y14947D01*
X25278Y14762D02*
X26882D01*
X25000Y15040D02*
X25278Y14762D01*
X25000Y15040D02*
Y15256D01*
X21260Y15650D02*
X21989Y14920D01*
X22690D01*
X23210Y14400D01*
X25689Y12049D02*
X26120Y12480D01*
X29316Y14710D02*
X30190D01*
X28780Y14173D02*
X29316Y14710D01*
X22490Y16015D02*
Y16850D01*
Y16015D02*
X22835Y15670D01*
Y15256D02*
Y15670D01*
X22010Y15980D02*
X22244Y15746D01*
Y15256D02*
Y15746D01*
X23780Y18701D02*
X24219Y19140D01*
X25950D01*
X26210Y18880D01*
Y18620D02*
Y18880D01*
Y18620D02*
X26560Y18270D01*
X27060D01*
X27410Y17920D01*
Y17200D02*
Y17920D01*
X27200Y16990D02*
X27410Y17200D01*
X24640Y16990D02*
X27200D01*
X24409Y17221D02*
X24640Y16990D01*
X24409Y17221D02*
Y17618D01*
X25000Y17280D02*
Y17618D01*
Y17280D02*
X25004Y17276D01*
X26996D01*
X27067Y17347D01*
Y17618D01*
X29528Y16870D02*
X29961Y16437D01*
X28760Y16870D02*
X29528D01*
X28530Y16640D02*
X28760Y16870D01*
X28530Y16160D02*
Y16640D01*
X28160Y15790D02*
X28530Y16160D01*
X25689Y11680D02*
Y12049D01*
Y11680D02*
X25799Y11570D01*
X28551Y10982D02*
Y11570D01*
X28160Y17618D02*
X28543D01*
X27780Y17999D02*
X28160Y17618D01*
X27780Y17999D02*
Y18701D01*
X30227Y12992D02*
X30610D01*
X29780Y13440D02*
X30227Y12992D01*
X29780Y13440D02*
Y14173D01*
X26240Y17618D02*
X26476D01*
X25780Y18079D02*
X26240Y17618D01*
X25780Y18079D02*
Y18701D01*
X23811Y10982D02*
Y12049D01*
X25689D01*
X21949Y12205D02*
X22175D01*
X22290Y12320D01*
Y13663D01*
X21780Y14173D02*
X22290Y13663D01*
X22340Y13920D02*
X23423Y12837D01*
X22340Y13920D02*
Y14400D01*
X22122Y14618D02*
X22340Y14400D01*
X20537Y14618D02*
X22122D01*
X24840Y14880D02*
X25000Y15040D01*
X22835Y15035D02*
X22990Y14880D01*
X22835Y15035D02*
Y15256D01*
Y17618D02*
Y17865D01*
X22960Y17990D01*
X24880D01*
X25000Y17870D01*
Y17618D02*
Y17870D01*
X31201Y17618D02*
Y17869D01*
X31120Y17950D02*
X31201Y17869D01*
X29244Y17950D02*
X31120D01*
X29134Y17840D02*
X29244Y17950D01*
X29134Y17618D02*
Y17840D01*
Y15034D02*
Y15256D01*
X28960Y14860D02*
X29134Y15034D01*
X27240Y14860D02*
X28960D01*
X27067Y15033D02*
X27240Y14860D01*
X27067Y15033D02*
Y15256D01*
X23130Y20079D02*
X23638D01*
X22638D02*
X23130D01*
X21358Y12205D02*
Y12894D01*
X31201Y11614D02*
Y12100D01*
X29320Y20177D02*
X29823D01*
X28823D02*
X29320D01*
X28961Y16047D02*
Y16437D01*
X28543Y15630D02*
X28961Y16047D01*
X28543Y15256D02*
Y15630D01*
D13*
X18434Y15081D02*
D03*
X20083Y17435D02*
D03*
D14*
X20537Y14618D02*
D03*
X20331Y15147D02*
D03*
X20899Y15134D02*
D03*
X20692Y15663D02*
D03*
X21260Y15650D02*
D03*
D15*
X26591Y20079D02*
D03*
X25591D02*
D03*
X26591D02*
D03*
X28823Y20177D02*
D03*
X29823D02*
D03*
X28823D02*
D03*
X23638Y20079D02*
D03*
X22638D02*
D03*
X23638D02*
D03*
D16*
X25591D02*
D03*
X29823Y20177D02*
D03*
X22638Y20079D02*
D03*
D17*
X26673Y12049D02*
D03*
Y12837D02*
D03*
X25689D02*
D03*
Y12049D02*
D03*
D18*
X23811Y10982D02*
D03*
X28551D02*
D03*
D19*
X25197Y21850D02*
D03*
D20*
X26197D02*
D03*
X27197D02*
D03*
D21*
X18996Y10630D02*
D03*
X33465Y12598D02*
D03*
D22*
X18996Y11630D02*
D03*
Y12630D02*
D03*
X33465Y11598D02*
D03*
Y10598D02*
D03*
D23*
X21780Y14173D02*
D03*
X22780D02*
D03*
X23780D02*
D03*
X24780D02*
D03*
X25780D02*
D03*
X26780D02*
D03*
X27780D02*
D03*
X28780D02*
D03*
X29780D02*
D03*
X22961Y16437D02*
D03*
X23961D02*
D03*
X24961D02*
D03*
X25961D02*
D03*
X26961D02*
D03*
X27961D02*
D03*
X28961D02*
D03*
X29961D02*
D03*
X30961D02*
D03*
X21780Y18701D02*
D03*
X22780D02*
D03*
X23780D02*
D03*
X24780D02*
D03*
X25780D02*
D03*
X26780D02*
D03*
X27780D02*
D03*
X28780D02*
D03*
X29780D02*
D03*
D24*
X30780Y14173D02*
D03*
X31961Y16437D02*
D03*
X30780Y18701D02*
D03*
D25*
X27756Y12697D02*
D03*
X34744Y11024D02*
D03*
D26*
X31740Y12100D02*
D03*
X21116Y13370D02*
D03*
X22495Y16940D02*
D03*
X29816Y11614D02*
D03*
X23690Y15256D02*
D03*
X22820Y12770D02*
D03*
X30190Y14710D02*
D03*
X22010Y15980D02*
D03*
X28160Y15790D02*
D03*
M02*
