M48
;Layer_Color=6321
;FILE_FORMAT=2:4
INCH,LZ
;TYPE=PLATED
T1F00S00C0.0118
T2F00S00C0.0276
T3F00S00C0.0280
T4F00S00C0.0360
T5F00S00C0.0362
T6F00S00C0.0402
T7F00S00C0.0472
T8F00S00C0.0748
T9F00S00C0.0756
T10F00S00C0.0906
;TYPE=NON_PLATED
%
T01
X027756Y012697
X034744Y011024
T02
X020537Y014618
X020331Y015147
X020899Y015134
X020692Y015663
X02126Y01565
T03
X021116Y01337
X02282Y01277
X02369Y015256
X03019Y01471
X029816Y011614
X03174Y0121
X02816Y01579
X02201Y01598
X022495Y01694
T04
X018996Y01063
Y01163
Y01263
X033465Y012598
Y011598
Y010598
X027197Y02185
X026197
X025197
T05
X025689Y012049
Y012837
X026673
Y012049
T06
X02178Y014173
X02278
X02378
X02478
X02578
X02678
X02778
X02878
X02978
X03078
X031961Y016437
X030961
X029961
X028961
X027961
X026961
X025961
X024961
X023961
X022961
X02278Y018701
X02178
X02378
X02478
X02578
X02678
X02778
X02878
X02978
X03078
T07
X022638Y020079
X023638
X025591
X026591
X028823Y020177
X029823
T08
X018434Y015081
T09
X020083Y017435
T10
X023811Y010982
X028551
M30
