G04 Layer_Color=13813960*
%FSLAX24Y24*%
%MOIN*%
G70*
G01*
G75*
%ADD12C,0.0059*%
%ADD28C,0.0061*%
%ADD45C,0.0079*%
%ADD46C,0.0000*%
%ADD47R,0.0027X0.0002*%
%ADD48R,0.0033X0.0002*%
%ADD49R,0.0028X0.0002*%
%ADD50R,0.0025X0.0002*%
%ADD51R,0.0019X0.0002*%
%ADD52R,0.0024X0.0002*%
%ADD53R,0.0027X0.0002*%
%ADD54R,0.0032X0.0002*%
%ADD55R,0.0046X0.0002*%
%ADD56R,0.0054X0.0002*%
%ADD57R,0.0047X0.0002*%
%ADD58R,0.0044X0.0002*%
%ADD59R,0.0039X0.0002*%
%ADD60R,0.0054X0.0002*%
%ADD61R,0.0058X0.0002*%
%ADD62R,0.0068X0.0002*%
%ADD63R,0.0060X0.0002*%
%ADD64R,0.0041X0.0002*%
%ADD65R,0.0047X0.0002*%
%ADD66R,0.0055X0.0002*%
%ADD67R,0.0041X0.0002*%
%ADD68R,0.0043X0.0002*%
%ADD69R,0.0055X0.0002*%
%ADD70R,0.0046X0.0002*%
%ADD71R,0.0057X0.0002*%
%ADD72R,0.0066X0.0002*%
%ADD73R,0.0039X0.0002*%
%ADD74R,0.0066X0.0002*%
%ADD75R,0.0079X0.0002*%
%ADD76R,0.0069X0.0002*%
%ADD77R,0.0041X0.0002*%
%ADD78R,0.0063X0.0002*%
%ADD79R,0.0041X0.0002*%
%ADD80R,0.0049X0.0002*%
%ADD81R,0.0052X0.0002*%
%ADD82R,0.0065X0.0002*%
%ADD83R,0.0079X0.0002*%
%ADD84R,0.0049X0.0002*%
%ADD85R,0.0076X0.0002*%
%ADD86R,0.0087X0.0002*%
%ADD87R,0.0047X0.0002*%
%ADD88R,0.0071X0.0002*%
%ADD89R,0.0071X0.0002*%
%ADD90R,0.0055X0.0002*%
%ADD91R,0.0077X0.0002*%
%ADD92R,0.0050X0.0002*%
%ADD93R,0.0082X0.0002*%
%ADD94R,0.0095X0.0002*%
%ADD95R,0.0058X0.0002*%
%ADD96R,0.0057X0.0002*%
%ADD97R,0.0080X0.0002*%
%ADD98R,0.0088X0.0002*%
%ADD99R,0.0099X0.0002*%
%ADD100R,0.0047X0.0002*%
%ADD101R,0.0082X0.0002*%
%ADD102R,0.0063X0.0002*%
%ADD103R,0.0058X0.0002*%
%ADD104R,0.0079X0.0002*%
%ADD105R,0.0084X0.0002*%
%ADD106R,0.0062X0.0002*%
%ADD107R,0.0104X0.0002*%
%ADD108R,0.0088X0.0002*%
%ADD109R,0.0060X0.0002*%
%ADD110R,0.0080X0.0002*%
%ADD111R,0.0085X0.0002*%
%ADD112R,0.0102X0.0002*%
%ADD113R,0.0099X0.0002*%
%ADD114R,0.0107X0.0002*%
%ADD115R,0.0098X0.0002*%
%ADD116R,0.0091X0.0002*%
%ADD117R,0.0061X0.0002*%
%ADD118R,0.0083X0.0002*%
%ADD119R,0.0106X0.0002*%
%ADD120R,0.0066X0.0002*%
%ADD121R,0.0109X0.0002*%
%ADD122R,0.0096X0.0002*%
%ADD123R,0.0073X0.0002*%
%ADD124R,0.0085X0.0002*%
%ADD125R,0.0090X0.0002*%
%ADD126R,0.0109X0.0002*%
%ADD127R,0.0068X0.0002*%
%ADD128R,0.0107X0.0002*%
%ADD129R,0.0110X0.0002*%
%ADD130R,0.0076X0.0002*%
%ADD131R,0.0101X0.0002*%
%ADD132R,0.0065X0.0002*%
%ADD133R,0.0087X0.0002*%
%ADD134R,0.0091X0.0002*%
%ADD135R,0.0071X0.0002*%
%ADD136R,0.0113X0.0002*%
%ADD137R,0.0112X0.0002*%
%ADD138R,0.0110X0.0002*%
%ADD139R,0.0120X0.0002*%
%ADD140R,0.0104X0.0002*%
%ADD141R,0.0093X0.0002*%
%ADD142R,0.0074X0.0002*%
%ADD143R,0.0117X0.0002*%
%ADD144R,0.0106X0.0002*%
%ADD145R,0.0121X0.0002*%
%ADD146R,0.0090X0.0002*%
%ADD147R,0.0115X0.0002*%
%ADD148R,0.0115X0.0002*%
%ADD149R,0.0117X0.0002*%
%ADD150R,0.0123X0.0002*%
%ADD151R,0.0091X0.0002*%
%ADD152R,0.0123X0.0002*%
%ADD153R,0.0117X0.0002*%
%ADD154R,0.0118X0.0002*%
%ADD155R,0.0112X0.0002*%
%ADD156R,0.0123X0.0002*%
%ADD157R,0.0113X0.0002*%
%ADD158R,0.0093X0.0002*%
%ADD159R,0.0096X0.0002*%
%ADD160R,0.0118X0.0002*%
%ADD161R,0.0120X0.0002*%
%ADD162R,0.0126X0.0002*%
%ADD163R,0.0118X0.0002*%
%ADD164R,0.0125X0.0002*%
%ADD165R,0.0098X0.0002*%
%ADD166R,0.0124X0.0002*%
%ADD167R,0.0129X0.0002*%
%ADD168R,0.0123X0.0002*%
%ADD169R,0.0132X0.0002*%
%ADD170R,0.0099X0.0002*%
%ADD171R,0.0135X0.0002*%
%ADD172R,0.0126X0.0002*%
%ADD173R,0.0121X0.0002*%
%ADD174R,0.0128X0.0002*%
%ADD175R,0.0069X0.0002*%
%ADD176R,0.0098X0.0002*%
%ADD177R,0.0025X0.0002*%
%ADD178R,0.0124X0.0002*%
%ADD179R,0.0139X0.0002*%
%ADD180R,0.0121X0.0002*%
%ADD181R,0.0129X0.0002*%
%ADD182R,0.0021X0.0002*%
%ADD183R,0.0043X0.0002*%
%ADD184R,0.0128X0.0002*%
%ADD185R,0.0142X0.0002*%
%ADD186R,0.0131X0.0002*%
%ADD187R,0.0046X0.0002*%
%ADD188R,0.0006X0.0002*%
%ADD189R,0.0016X0.0002*%
%ADD190R,0.0052X0.0002*%
%ADD191R,0.0055X0.0002*%
%ADD192R,0.0143X0.0002*%
%ADD193R,0.0038X0.0002*%
%ADD194R,0.0058X0.0002*%
%ADD195R,0.0003X0.0002*%
%ADD196R,0.0014X0.0002*%
%ADD197R,0.0011X0.0002*%
%ADD198R,0.0039X0.0002*%
%ADD199R,0.0145X0.0002*%
%ADD200R,0.0032X0.0002*%
%ADD201R,0.0054X0.0002*%
%ADD202R,0.0134X0.0002*%
%ADD203R,0.0052X0.0002*%
%ADD204R,0.0049X0.0002*%
%ADD205R,0.0044X0.0002*%
%ADD206R,0.0009X0.0002*%
%ADD207R,0.0008X0.0002*%
%ADD208R,0.0039X0.0002*%
%ADD209R,0.0129X0.0002*%
%ADD210R,0.0050X0.0002*%
%ADD211R,0.0049X0.0002*%
%ADD212R,0.0005X0.0002*%
%ADD213R,0.0030X0.0002*%
%ADD214R,0.0060X0.0002*%
%ADD215R,0.0022X0.0002*%
%ADD216R,0.0044X0.0002*%
%ADD217R,0.0003X0.0002*%
%ADD218R,0.0002X0.0002*%
%ADD219R,0.0017X0.0002*%
%ADD220R,0.0043X0.0002*%
%ADD221R,0.0016X0.0002*%
%ADD222R,0.0046X0.0002*%
%ADD223R,0.0043X0.0002*%
%ADD224R,0.0060X0.0002*%
%ADD225R,0.0013X0.0002*%
%ADD226R,0.0013X0.0002*%
%ADD227R,0.0009X0.0002*%
%ADD228R,0.0008X0.0002*%
%ADD229R,0.0002X0.0002*%
%ADD230R,0.0005X0.0002*%
%ADD231R,0.0073X0.0002*%
%ADD232R,0.0079X0.0002*%
%ADD233R,0.0052X0.0002*%
%ADD234R,0.0077X0.0002*%
%ADD235R,0.0072X0.0002*%
%ADD236R,0.0072X0.0002*%
%ADD237R,0.0091X0.0002*%
%ADD238R,0.0054X0.0002*%
%ADD239R,0.0084X0.0002*%
%ADD240R,0.0106X0.0002*%
%ADD241R,0.0087X0.0002*%
%ADD242R,0.0115X0.0002*%
%ADD243R,0.0002X0.0002*%
%ADD244R,0.0005X0.0002*%
%ADD245R,0.0011X0.0002*%
%ADD246R,0.0003X0.0002*%
%ADD247R,0.0016X0.0002*%
%ADD248R,0.0077X0.0002*%
%ADD249R,0.0131X0.0002*%
%ADD250R,0.0131X0.0002*%
%ADD251R,0.0095X0.0002*%
%ADD252R,0.0024X0.0002*%
%ADD253R,0.0129X0.0002*%
%ADD254R,0.0118X0.0002*%
%ADD255R,0.0093X0.0002*%
%ADD256R,0.0044X0.0002*%
%ADD257R,0.0085X0.0002*%
%ADD258R,0.0090X0.0002*%
%ADD259R,0.0062X0.0002*%
%ADD260R,0.0087X0.0002*%
%ADD261R,0.0101X0.0002*%
%ADD262R,0.0083X0.0002*%
%ADD263R,0.0074X0.0002*%
%ADD264R,0.0061X0.0002*%
%ADD265R,0.0080X0.0002*%
%ADD266R,0.0074X0.0002*%
%ADD267R,0.0068X0.0002*%
%ADD268R,0.0038X0.0002*%
%ADD269R,0.0050X0.0002*%
%ADD270R,0.0036X0.0002*%
%ADD271R,0.0035X0.0002*%
%ADD272R,0.0038X0.0002*%
%ADD273R,0.0011X0.0002*%
%ADD274R,0.0010X0.0002*%
%ADD275R,0.0017X0.0002*%
%ADD276R,0.0028X0.0002*%
%ADD277R,0.0145X0.0002*%
%ADD278R,0.0140X0.0002*%
%ADD279R,0.0139X0.0002*%
%ADD280R,0.0128X0.0002*%
%ADD281R,0.0030X0.0002*%
%ADD282R,0.0136X0.0002*%
%ADD283R,0.0128X0.0002*%
%ADD284R,0.0126X0.0002*%
%ADD285R,0.0109X0.0002*%
%ADD286R,0.0019X0.0002*%
%ADD287R,0.0102X0.0002*%
%ADD288R,0.0008X0.0002*%
%ADD289R,0.0088X0.0002*%
%ADD290R,0.0102X0.0002*%
%ADD291R,0.0066X0.0002*%
%ADD292R,0.0022X0.0002*%
%ADD293R,0.0035X0.0002*%
%ADD294R,0.0170X0.0002*%
%ADD295R,0.0394X0.0002*%
%ADD296R,0.0291X0.0002*%
%ADD297R,0.0187X0.0002*%
%ADD298R,0.0400X0.0002*%
%ADD299R,0.0280X0.0002*%
%ADD300R,0.0202X0.0002*%
%ADD301R,0.0403X0.0002*%
%ADD302R,0.0110X0.0002*%
%ADD303R,0.0274X0.0002*%
%ADD304R,0.0214X0.0002*%
%ADD305R,0.0406X0.0002*%
%ADD306R,0.0266X0.0002*%
%ADD307R,0.0224X0.0002*%
%ADD308R,0.0409X0.0002*%
%ADD309R,0.0142X0.0002*%
%ADD310R,0.0263X0.0002*%
%ADD311R,0.0232X0.0002*%
%ADD312R,0.0150X0.0002*%
%ADD313R,0.0411X0.0002*%
%ADD314R,0.0158X0.0002*%
%ADD315R,0.0258X0.0002*%
%ADD316R,0.0238X0.0002*%
%ADD317R,0.0164X0.0002*%
%ADD318R,0.0169X0.0002*%
%ADD319R,0.0254X0.0002*%
%ADD320R,0.0246X0.0002*%
%ADD321R,0.0173X0.0002*%
%ADD322R,0.0414X0.0002*%
%ADD323R,0.0178X0.0002*%
%ADD324R,0.0250X0.0002*%
%ADD325R,0.0183X0.0002*%
%ADD326R,0.0416X0.0002*%
%ADD327R,0.0189X0.0002*%
%ADD328R,0.0247X0.0002*%
%ADD329R,0.0255X0.0002*%
%ADD330R,0.0192X0.0002*%
%ADD331R,0.0417X0.0002*%
%ADD332R,0.0200X0.0002*%
%ADD333R,0.0246X0.0002*%
%ADD334R,0.0260X0.0002*%
%ADD335R,0.0202X0.0002*%
%ADD336R,0.0417X0.0002*%
%ADD337R,0.0206X0.0002*%
%ADD338R,0.0243X0.0002*%
%ADD339R,0.0211X0.0002*%
%ADD340R,0.0419X0.0002*%
%ADD341R,0.0214X0.0002*%
%ADD342R,0.0239X0.0002*%
%ADD343R,0.0271X0.0002*%
%ADD344R,0.0219X0.0002*%
%ADD345R,0.0417X0.0002*%
%ADD346R,0.0222X0.0002*%
%ADD347R,0.0238X0.0002*%
%ADD348R,0.0274X0.0002*%
%ADD349R,0.0225X0.0002*%
%ADD350R,0.0421X0.0002*%
%ADD351R,0.0228X0.0002*%
%ADD352R,0.0235X0.0002*%
%ADD353R,0.0277X0.0002*%
%ADD354R,0.0233X0.0002*%
%ADD355R,0.0420X0.0002*%
%ADD356R,0.0233X0.0002*%
%ADD357R,0.0282X0.0002*%
%ADD358R,0.0244X0.0002*%
%ADD359R,0.0232X0.0002*%
%ADD360R,0.0285X0.0002*%
%ADD361R,0.0420X0.0002*%
%ADD362R,0.0249X0.0002*%
%ADD363R,0.0230X0.0002*%
%ADD364R,0.0288X0.0002*%
%ADD365R,0.0422X0.0002*%
%ADD366R,0.0254X0.0002*%
%ADD367R,0.0227X0.0002*%
%ADD368R,0.0293X0.0002*%
%ADD369R,0.0422X0.0002*%
%ADD370R,0.0260X0.0002*%
%ADD371R,0.0296X0.0002*%
%ADD372R,0.0266X0.0002*%
%ADD373R,0.0299X0.0002*%
%ADD374R,0.0272X0.0002*%
%ADD375R,0.0422X0.0002*%
%ADD376R,0.0271X0.0002*%
%ADD377R,0.0301X0.0002*%
%ADD378R,0.0276X0.0002*%
%ADD379R,0.0222X0.0002*%
%ADD380R,0.0304X0.0002*%
%ADD381R,0.0424X0.0002*%
%ADD382R,0.0219X0.0002*%
%ADD383R,0.0307X0.0002*%
%ADD384R,0.0288X0.0002*%
%ADD385R,0.0285X0.0002*%
%ADD386R,0.0310X0.0002*%
%ADD387R,0.0291X0.0002*%
%ADD388R,0.0424X0.0002*%
%ADD389R,0.0290X0.0002*%
%ADD390R,0.0217X0.0002*%
%ADD391R,0.0312X0.0002*%
%ADD392R,0.0298X0.0002*%
%ADD393R,0.0295X0.0002*%
%ADD394R,0.0216X0.0002*%
%ADD395R,0.0315X0.0002*%
%ADD396R,0.0302X0.0002*%
%ADD397R,0.0298X0.0002*%
%ADD398R,0.0318X0.0002*%
%ADD399R,0.0424X0.0002*%
%ADD400R,0.0302X0.0002*%
%ADD401R,0.0213X0.0002*%
%ADD402R,0.0320X0.0002*%
%ADD403R,0.0313X0.0002*%
%ADD404R,0.0307X0.0002*%
%ADD405R,0.0213X0.0002*%
%ADD406R,0.0321X0.0002*%
%ADD407R,0.0317X0.0002*%
%ADD408R,0.0312X0.0002*%
%ADD409R,0.0324X0.0002*%
%ADD410R,0.0326X0.0002*%
%ADD411R,0.0210X0.0002*%
%ADD412R,0.0329X0.0002*%
%ADD413R,0.0329X0.0002*%
%ADD414R,0.0321X0.0002*%
%ADD415R,0.0208X0.0002*%
%ADD416R,0.0331X0.0002*%
%ADD417R,0.0332X0.0002*%
%ADD418R,0.0208X0.0002*%
%ADD419R,0.0337X0.0002*%
%ADD420R,0.0328X0.0002*%
%ADD421R,0.0335X0.0002*%
%ADD422R,0.0342X0.0002*%
%ADD423R,0.0331X0.0002*%
%ADD424R,0.0205X0.0002*%
%ADD425R,0.0345X0.0002*%
%ADD426R,0.0422X0.0002*%
%ADD427R,0.0334X0.0002*%
%ADD428R,0.0205X0.0002*%
%ADD429R,0.0339X0.0002*%
%ADD430R,0.0350X0.0002*%
%ADD431R,0.0203X0.0002*%
%ADD432R,0.0340X0.0002*%
%ADD433R,0.0354X0.0002*%
%ADD434R,0.0203X0.0002*%
%ADD435R,0.0358X0.0002*%
%ADD436R,0.0421X0.0002*%
%ADD437R,0.0343X0.0002*%
%ADD438R,0.0202X0.0002*%
%ADD439R,0.0361X0.0002*%
%ADD440R,0.0347X0.0002*%
%ADD441R,0.0346X0.0002*%
%ADD442R,0.0364X0.0002*%
%ADD443R,0.0348X0.0002*%
%ADD444R,0.0367X0.0002*%
%ADD445R,0.0353X0.0002*%
%ADD446R,0.0370X0.0002*%
%ADD447R,0.0354X0.0002*%
%ADD448R,0.0200X0.0002*%
%ADD449R,0.0351X0.0002*%
%ADD450R,0.0373X0.0002*%
%ADD451R,0.0356X0.0002*%
%ADD452R,0.0198X0.0002*%
%ADD453R,0.0376X0.0002*%
%ADD454R,0.0359X0.0002*%
%ADD455R,0.0380X0.0002*%
%ADD456R,0.0362X0.0002*%
%ADD457R,0.0197X0.0002*%
%ADD458R,0.0383X0.0002*%
%ADD459R,0.0419X0.0002*%
%ADD460R,0.0365X0.0002*%
%ADD461R,0.0197X0.0002*%
%ADD462R,0.0386X0.0002*%
%ADD463R,0.0197X0.0002*%
%ADD464R,0.0359X0.0002*%
%ADD465R,0.0389X0.0002*%
%ADD466R,0.0369X0.0002*%
%ADD467R,0.0195X0.0002*%
%ADD468R,0.0392X0.0002*%
%ADD469R,0.0372X0.0002*%
%ADD470R,0.0195X0.0002*%
%ADD471R,0.0395X0.0002*%
%ADD472R,0.0416X0.0002*%
%ADD473R,0.0373X0.0002*%
%ADD474R,0.0194X0.0002*%
%ADD475R,0.0364X0.0002*%
%ADD476R,0.0398X0.0002*%
%ADD477R,0.0416X0.0002*%
%ADD478R,0.0375X0.0002*%
%ADD479R,0.0194X0.0002*%
%ADD480R,0.0365X0.0002*%
%ADD481R,0.0402X0.0002*%
%ADD482R,0.0378X0.0002*%
%ADD483R,0.0405X0.0002*%
%ADD484R,0.0414X0.0002*%
%ADD485R,0.0408X0.0002*%
%ADD486R,0.0414X0.0002*%
%ADD487R,0.0381X0.0002*%
%ADD488R,0.0369X0.0002*%
%ADD489R,0.0408X0.0002*%
%ADD490R,0.0384X0.0002*%
%ADD491R,0.0370X0.0002*%
%ADD492R,0.0372X0.0002*%
%ADD493R,0.0413X0.0002*%
%ADD494R,0.0387X0.0002*%
%ADD495R,0.0191X0.0002*%
%ADD496R,0.0417X0.0002*%
%ADD497R,0.0413X0.0002*%
%ADD498R,0.0389X0.0002*%
%ADD499R,0.0191X0.0002*%
%ADD500R,0.0375X0.0002*%
%ADD501R,0.0192X0.0002*%
%ADD502R,0.0409X0.0002*%
%ADD503R,0.0394X0.0002*%
%ADD504R,0.0191X0.0002*%
%ADD505R,0.0425X0.0002*%
%ADD506R,0.0395X0.0002*%
%ADD507R,0.0427X0.0002*%
%ADD508R,0.0181X0.0002*%
%ADD509R,0.0378X0.0002*%
%ADD510R,0.0430X0.0002*%
%ADD511R,0.0173X0.0002*%
%ADD512R,0.0433X0.0002*%
%ADD513R,0.0381X0.0002*%
%ADD514R,0.0164X0.0002*%
%ADD515R,0.0189X0.0002*%
%ADD516R,0.0383X0.0002*%
%ADD517R,0.0436X0.0002*%
%ADD518R,0.0159X0.0002*%
%ADD519R,0.0402X0.0002*%
%ADD520R,0.0205X0.0002*%
%ADD521R,0.0156X0.0002*%
%ADD522R,0.0189X0.0002*%
%ADD523R,0.0186X0.0002*%
%ADD524R,0.0154X0.0002*%
%ADD525R,0.0175X0.0002*%
%ADD526R,0.0221X0.0002*%
%ADD527R,0.0184X0.0002*%
%ADD528R,0.0151X0.0002*%
%ADD529R,0.0184X0.0002*%
%ADD530R,0.0181X0.0002*%
%ADD531R,0.0148X0.0002*%
%ADD532R,0.0167X0.0002*%
%ADD533R,0.0164X0.0002*%
%ADD534R,0.0139X0.0002*%
%ADD535R,0.0206X0.0002*%
%ADD536R,0.0181X0.0002*%
%ADD537R,0.0176X0.0002*%
%ADD538R,0.0165X0.0002*%
%ADD539R,0.0159X0.0002*%
%ADD540R,0.0140X0.0002*%
%ADD541R,0.0178X0.0002*%
%ADD542R,0.0161X0.0002*%
%ADD543R,0.0157X0.0002*%
%ADD544R,0.0139X0.0002*%
%ADD545R,0.0173X0.0002*%
%ADD546R,0.0169X0.0002*%
%ADD547R,0.0156X0.0002*%
%ADD548R,0.0153X0.0002*%
%ADD549R,0.0170X0.0002*%
%ADD550R,0.0153X0.0002*%
%ADD551R,0.0187X0.0002*%
%ADD552R,0.0153X0.0002*%
%ADD553R,0.0186X0.0002*%
%ADD554R,0.0165X0.0002*%
%ADD555R,0.0162X0.0002*%
%ADD556R,0.0137X0.0002*%
%ADD557R,0.0147X0.0002*%
%ADD558R,0.0137X0.0002*%
%ADD559R,0.0180X0.0002*%
%ADD560R,0.0148X0.0002*%
%ADD561R,0.0176X0.0002*%
%ADD562R,0.0161X0.0002*%
%ADD563R,0.0135X0.0002*%
%ADD564R,0.0142X0.0002*%
%ADD565R,0.0134X0.0002*%
%ADD566R,0.0153X0.0002*%
%ADD567R,0.0143X0.0002*%
%ADD568R,0.0140X0.0002*%
%ADD569R,0.0172X0.0002*%
%ADD570R,0.0132X0.0002*%
%ADD571R,0.0172X0.0002*%
%ADD572R,0.0154X0.0002*%
%ADD573R,0.0150X0.0002*%
%ADD574R,0.0132X0.0002*%
%ADD575R,0.0154X0.0002*%
%ADD576R,0.0137X0.0002*%
%ADD577R,0.0148X0.0002*%
%ADD578R,0.0151X0.0002*%
%ADD579R,0.0134X0.0002*%
%ADD580R,0.0146X0.0002*%
%ADD581R,0.0131X0.0002*%
%ADD582R,0.0162X0.0002*%
%ADD583R,0.0145X0.0002*%
%ADD584R,0.0134X0.0002*%
%ADD585R,0.0157X0.0002*%
%ADD586R,0.0140X0.0002*%
%ADD587R,0.0151X0.0002*%
%ADD588R,0.0142X0.0002*%
%ADD589R,0.0146X0.0002*%
%ADD590R,0.0126X0.0002*%
%ADD591R,0.0154X0.0002*%
%ADD592R,0.0167X0.0002*%
%ADD593R,0.0172X0.0002*%
%ADD594R,0.0125X0.0002*%
%ADD595R,0.0321X0.0002*%
%ADD596R,0.0320X0.0002*%
%ADD597R,0.0184X0.0002*%
%ADD598R,0.0320X0.0002*%
%ADD599R,0.0317X0.0002*%
%ADD600R,0.0315X0.0002*%
%ADD601R,0.0313X0.0002*%
%ADD602R,0.0132X0.0002*%
%ADD603R,0.0203X0.0002*%
%ADD604R,0.0309X0.0002*%
%ADD605R,0.0307X0.0002*%
%ADD606R,0.0214X0.0002*%
%ADD607R,0.0301X0.0002*%
%ADD608R,0.0217X0.0002*%
%ADD609R,0.0294X0.0002*%
%ADD610R,0.0225X0.0002*%
%ADD611R,0.0293X0.0002*%
%ADD612R,0.0228X0.0002*%
%ADD613R,0.0290X0.0002*%
%ADD614R,0.0230X0.0002*%
%ADD615R,0.0288X0.0002*%
%ADD616R,0.0235X0.0002*%
%ADD617R,0.0282X0.0002*%
%ADD618R,0.0241X0.0002*%
%ADD619R,0.0244X0.0002*%
%ADD620R,0.0277X0.0002*%
%ADD621R,0.0282X0.0002*%
%ADD622R,0.0247X0.0002*%
%ADD623R,0.0287X0.0002*%
%ADD624R,0.0252X0.0002*%
%ADD625R,0.0252X0.0002*%
%ADD626R,0.0306X0.0002*%
%ADD627R,0.0255X0.0002*%
%ADD628R,0.0309X0.0002*%
%ADD629R,0.0257X0.0002*%
%ADD630R,0.0257X0.0002*%
%ADD631R,0.0317X0.0002*%
%ADD632R,0.0323X0.0002*%
%ADD633R,0.0260X0.0002*%
%ADD634R,0.0328X0.0002*%
%ADD635R,0.0334X0.0002*%
%ADD636R,0.0335X0.0002*%
%ADD637R,0.0258X0.0002*%
%ADD638R,0.0345X0.0002*%
%ADD639R,0.0350X0.0002*%
%ADD640R,0.0351X0.0002*%
%ADD641R,0.0250X0.0002*%
%ADD642R,0.0356X0.0002*%
%ADD643R,0.0357X0.0002*%
%ADD644R,0.0249X0.0002*%
%ADD645R,0.0247X0.0002*%
%ADD646R,0.0246X0.0002*%
%ADD647R,0.0362X0.0002*%
%ADD648R,0.0364X0.0002*%
%ADD649R,0.0241X0.0002*%
%ADD650R,0.0161X0.0002*%
%ADD651R,0.0228X0.0002*%
%ADD652R,0.0224X0.0002*%
%ADD653R,0.0216X0.0002*%
%ADD654R,0.0209X0.0002*%
%ADD655R,0.0199X0.0002*%
%ADD656R,0.0197X0.0002*%
%ADD657R,0.0183X0.0002*%
%ADD658R,0.0180X0.0002*%
%ADD659R,0.0175X0.0002*%
%ADD660R,0.0165X0.0002*%
%ADD661R,0.0158X0.0002*%
%ADD662R,0.0143X0.0002*%
%ADD663R,0.0136X0.0002*%
%ADD664R,0.0148X0.0002*%
%ADD665R,0.0151X0.0002*%
%ADD666R,0.0162X0.0002*%
%ADD667R,0.0167X0.0002*%
%ADD668R,0.0172X0.0002*%
%ADD669R,0.0161X0.0002*%
%ADD670R,0.0173X0.0002*%
%ADD671R,0.0170X0.0002*%
%ADD672R,0.0175X0.0002*%
%ADD673R,0.0150X0.0002*%
%ADD674R,0.0198X0.0002*%
%ADD675R,0.0202X0.0002*%
%ADD676R,0.0224X0.0002*%
%ADD677R,0.0436X0.0002*%
%ADD678R,0.0159X0.0002*%
%ADD679R,0.0432X0.0002*%
%ADD680R,0.0428X0.0002*%
%ADD681R,0.0427X0.0002*%
%ADD682R,0.0183X0.0002*%
%ADD683R,0.0428X0.0002*%
%ADD684R,0.0359X0.0002*%
%ADD685R,0.0428X0.0002*%
%ADD686R,0.0427X0.0002*%
%ADD687R,0.0358X0.0002*%
%ADD688R,0.0411X0.0002*%
%ADD689R,0.0351X0.0002*%
%ADD690R,0.0402X0.0002*%
%ADD691R,0.0399X0.0002*%
%ADD692R,0.0348X0.0002*%
%ADD693R,0.0345X0.0002*%
%ADD694R,0.0389X0.0002*%
%ADD695R,0.0343X0.0002*%
%ADD696R,0.0386X0.0002*%
%ADD697R,0.0342X0.0002*%
%ADD698R,0.0339X0.0002*%
%ADD699R,0.0376X0.0002*%
%ADD700R,0.0373X0.0002*%
%ADD701R,0.0353X0.0002*%
%ADD702R,0.0416X0.0002*%
%ADD703R,0.0361X0.0002*%
%ADD704R,0.0410X0.0002*%
%ADD705R,0.0320X0.0002*%
%ADD706R,0.0340X0.0002*%
%ADD707R,0.0334X0.0002*%
%ADD708R,0.0403X0.0002*%
%ADD709R,0.0313X0.0002*%
%ADD710R,0.0329X0.0002*%
%ADD711R,0.0310X0.0002*%
%ADD712R,0.0321X0.0002*%
%ADD713R,0.0397X0.0002*%
%ADD714R,0.0302X0.0002*%
%ADD715R,0.0309X0.0002*%
%ADD716R,0.0391X0.0002*%
%ADD717R,0.0296X0.0002*%
%ADD718R,0.0318X0.0002*%
%ADD719R,0.0387X0.0002*%
%ADD720R,0.0277X0.0002*%
%ADD721R,0.0283X0.0002*%
%ADD722R,0.0378X0.0002*%
%ADD723R,0.0280X0.0002*%
%ADD724R,0.0306X0.0002*%
%ADD725R,0.0269X0.0002*%
%ADD726R,0.0246X0.0002*%
%ADD727R,0.0296X0.0002*%
%ADD728R,0.0367X0.0002*%
%ADD729R,0.0266X0.0002*%
%ADD730R,0.0365X0.0002*%
%ADD731R,0.0263X0.0002*%
%ADD732R,0.0282X0.0002*%
%ADD733R,0.0252X0.0002*%
%ADD734R,0.0279X0.0002*%
%ADD735R,0.0265X0.0002*%
%ADD736R,0.0337X0.0002*%
%ADD737R,0.0233X0.0002*%
%ADD738R,0.0258X0.0002*%
%ADD739R,0.0328X0.0002*%
%ADD740R,0.0220X0.0002*%
%ADD741R,0.0239X0.0002*%
%ADD742R,0.0120X0.0002*%
%ADD743R,0.0284X0.0002*%
%ADD744R,0.0036X0.0002*%
%ADD745R,0.0191X0.0002*%
%ADD746R,0.0265X0.0002*%
D12*
X20284Y18332D02*
X20250Y18424D01*
X20267Y18378D01*
X20498Y18462D01*
X20527Y18525D01*
X20511Y18572D01*
X20448Y18601D01*
X20364Y18256D02*
X20334Y18193D01*
X20368Y18101D01*
X20431Y18071D01*
X20477Y18088D01*
X20506Y18151D01*
X20490Y18197D01*
X20506Y18151D01*
X20570Y18122D01*
X20616Y18139D01*
X20645Y18202D01*
X20612Y18294D01*
X20548Y18324D01*
X20965Y12106D02*
Y12401D01*
X20817D01*
X20768Y12352D01*
Y12254D01*
X20817Y12205D01*
X20965D01*
X20866D02*
X20768Y12106D01*
X20669Y12352D02*
X20620Y12401D01*
X20522D01*
X20473Y12352D01*
Y12303D01*
X20522Y12254D01*
X20571D01*
X20522D01*
X20473Y12205D01*
Y12155D01*
X20522Y12106D01*
X20620D01*
X20669Y12155D01*
X20374Y12352D02*
X20325Y12401D01*
X20227D01*
X20177Y12352D01*
Y12155D01*
X20227Y12106D01*
X20325D01*
X20374Y12155D01*
Y12352D01*
X24016Y15157D02*
Y15453D01*
X23868D01*
X23819Y15403D01*
Y15305D01*
X23868Y15256D01*
X24016D01*
X23917D02*
X23819Y15157D01*
X23524D02*
X23721D01*
X23524Y15354D01*
Y15403D01*
X23573Y15453D01*
X23671D01*
X23721Y15403D01*
X23425Y15207D02*
X23376Y15157D01*
X23278D01*
X23229Y15207D01*
Y15403D01*
X23278Y15453D01*
X23376D01*
X23425Y15403D01*
Y15354D01*
X23376Y15305D01*
X23229D01*
X24016Y17520D02*
Y17815D01*
X23868D01*
X23819Y17766D01*
Y17667D01*
X23868Y17618D01*
X24016D01*
X23917D02*
X23819Y17520D01*
X23524D02*
X23721D01*
X23524Y17716D01*
Y17766D01*
X23573Y17815D01*
X23671D01*
X23721Y17766D01*
X23425D02*
X23376Y17815D01*
X23278D01*
X23229Y17766D01*
Y17716D01*
X23278Y17667D01*
X23229Y17618D01*
Y17569D01*
X23278Y17520D01*
X23376D01*
X23425Y17569D01*
Y17618D01*
X23376Y17667D01*
X23425Y17716D01*
Y17766D01*
X23376Y17667D02*
X23278D01*
X20965Y12795D02*
Y13090D01*
X20817D01*
X20768Y13041D01*
Y12943D01*
X20817Y12894D01*
X20965D01*
X20866D02*
X20768Y12795D01*
X20473D02*
X20669D01*
X20473Y12992D01*
Y13041D01*
X20522Y13090D01*
X20620D01*
X20669Y13041D01*
X20227Y12795D02*
Y13090D01*
X20374Y12943D01*
X20177D01*
X26083Y15157D02*
Y15453D01*
X25935D01*
X25886Y15403D01*
Y15305D01*
X25935Y15256D01*
X26083D01*
X25984D02*
X25886Y15157D01*
X25591D02*
X25787D01*
X25591Y15354D01*
Y15403D01*
X25640Y15453D01*
X25738D01*
X25787Y15403D01*
X25492D02*
X25443Y15453D01*
X25345D01*
X25296Y15403D01*
Y15354D01*
X25345Y15305D01*
X25394D01*
X25345D01*
X25296Y15256D01*
Y15207D01*
X25345Y15157D01*
X25443D01*
X25492Y15207D01*
X32283Y11516D02*
Y11811D01*
X32136D01*
X32087Y11762D01*
Y11663D01*
X32136Y11614D01*
X32283D01*
X32185D02*
X32087Y11516D01*
X31988D02*
X31890D01*
X31939D01*
Y11811D01*
X31988Y11762D01*
X31742D02*
X31693Y11811D01*
X31595D01*
X31546Y11762D01*
Y11713D01*
X31595Y11663D01*
X31546Y11614D01*
Y11565D01*
X31595Y11516D01*
X31693D01*
X31742Y11565D01*
Y11614D01*
X31693Y11663D01*
X31742Y11713D01*
Y11762D01*
X31693Y11663D02*
X31595D01*
X27461Y15453D02*
Y15158D01*
X27608D01*
X27657Y15207D01*
Y15305D01*
X27608Y15354D01*
X27461D01*
X27559D02*
X27657Y15453D01*
X27756D02*
X27854D01*
X27805D01*
Y15158D01*
X27756Y15207D01*
X28002Y15158D02*
X28199D01*
Y15207D01*
X28002Y15404D01*
Y15453D01*
X28150Y17520D02*
Y17815D01*
X28002D01*
X27953Y17766D01*
Y17667D01*
X28002Y17618D01*
X28150D01*
X28051D02*
X27953Y17520D01*
X27854D02*
X27756D01*
X27805D01*
Y17815D01*
X27854Y17766D01*
X27412Y17815D02*
X27510Y17766D01*
X27608Y17667D01*
Y17569D01*
X27559Y17520D01*
X27461D01*
X27412Y17569D01*
Y17618D01*
X27461Y17667D01*
X27608D01*
X32087Y12795D02*
Y13090D01*
X31939D01*
X31890Y13041D01*
Y12943D01*
X31939Y12894D01*
X32087D01*
X31988D02*
X31890Y12795D01*
X31595Y13090D02*
X31693Y13041D01*
X31791Y12943D01*
Y12844D01*
X31742Y12795D01*
X31644D01*
X31595Y12844D01*
Y12894D01*
X31644Y12943D01*
X31791D01*
X32283Y12106D02*
Y12401D01*
X32136D01*
X32087Y12352D01*
Y12254D01*
X32136Y12205D01*
X32283D01*
X32185D02*
X32087Y12106D01*
X31988D02*
X31890D01*
X31939D01*
Y12401D01*
X31988Y12352D01*
X31546Y12106D02*
X31742D01*
X31546Y12303D01*
Y12352D01*
X31595Y12401D01*
X31693D01*
X31742Y12352D01*
X30217Y15157D02*
Y15453D01*
X30069D01*
X30020Y15403D01*
Y15305D01*
X30069Y15256D01*
X30217D01*
X30118D02*
X30020Y15157D01*
X29921D02*
X29823D01*
X29872D01*
Y15453D01*
X29921Y15403D01*
X29675Y15157D02*
X29577D01*
X29626D01*
Y15453D01*
X29675Y15403D01*
X30217Y17520D02*
Y17815D01*
X30069D01*
X30020Y17766D01*
Y17667D01*
X30069Y17618D01*
X30217D01*
X30118D02*
X30020Y17520D01*
X29921D02*
X29823D01*
X29872D01*
Y17815D01*
X29921Y17766D01*
X29675D02*
X29626Y17815D01*
X29528D01*
X29479Y17766D01*
Y17569D01*
X29528Y17520D01*
X29626D01*
X29675Y17569D01*
Y17766D01*
X32087Y17520D02*
Y17815D01*
X31939D01*
X31890Y17766D01*
Y17667D01*
X31939Y17618D01*
X32087D01*
X31988D02*
X31890Y17520D01*
X31644D02*
Y17815D01*
X31791Y17667D01*
X31595D01*
X32087Y15157D02*
Y15453D01*
X31939D01*
X31890Y15403D01*
Y15305D01*
X31939Y15256D01*
X32087D01*
X31988D02*
X31890Y15157D01*
X31595Y15453D02*
X31791D01*
Y15305D01*
X31693Y15354D01*
X31644D01*
X31595Y15305D01*
Y15207D01*
X31644Y15157D01*
X31742D01*
X31791Y15207D01*
X22835Y13386D02*
X22933D01*
X22884D01*
Y13140D01*
X22933Y13091D01*
X22982D01*
X23031Y13140D01*
X22540Y13386D02*
X22736D01*
Y13238D01*
X22638Y13287D01*
X22589D01*
X22540Y13238D01*
Y13140D01*
X22589Y13091D01*
X22687D01*
X22736Y13140D01*
D28*
X17618Y11516D02*
Y11220D01*
X17471D01*
X17421Y11270D01*
Y11466D01*
X17471Y11516D01*
X17618D01*
X17175Y11220D02*
X17274D01*
X17323Y11270D01*
Y11368D01*
X17274Y11417D01*
X17175D01*
X17126Y11368D01*
Y11319D01*
X17323D01*
X17028Y11220D02*
Y11417D01*
X16979D01*
X16929Y11368D01*
Y11220D01*
Y11368D01*
X16880Y11417D01*
X16831Y11368D01*
Y11220D01*
X16683D02*
X16585D01*
X16536Y11270D01*
Y11368D01*
X16585Y11417D01*
X16683D01*
X16733Y11368D01*
Y11270D01*
X16683Y11220D01*
X16782Y10531D02*
X16880D01*
X16929Y10482D01*
Y10285D01*
X16880Y10236D01*
X16782D01*
X16732Y10285D01*
Y10482D01*
X16782Y10531D01*
X16437Y10482D02*
X16486Y10531D01*
X16585D01*
X16634Y10482D01*
Y10433D01*
X16585Y10384D01*
X16486D01*
X16437Y10335D01*
Y10285D01*
X16486Y10236D01*
X16585D01*
X16634Y10285D01*
X16339Y10531D02*
Y10285D01*
X16290Y10236D01*
X16191D01*
X16142Y10285D01*
Y10531D01*
X16044Y10236D02*
Y10531D01*
X15896D01*
X15847Y10482D01*
Y10384D01*
X15896Y10335D01*
X16044D01*
X15945D02*
X15847Y10236D01*
X15552Y10482D02*
X15601Y10531D01*
X15699D01*
X15748Y10482D01*
Y10285D01*
X15699Y10236D01*
X15601D01*
X15552Y10285D01*
X17618Y10728D02*
Y11024D01*
X17520Y10925D01*
X17421Y11024D01*
Y10728D01*
X17274Y10925D02*
X17175D01*
X17126Y10876D01*
Y10728D01*
X17274D01*
X17323Y10778D01*
X17274Y10827D01*
X17126D01*
X16831Y11024D02*
Y10728D01*
X16979D01*
X17028Y10778D01*
Y10876D01*
X16979Y10925D01*
X16831D01*
X16585Y10728D02*
X16683D01*
X16733Y10778D01*
Y10876D01*
X16683Y10925D01*
X16585D01*
X16536Y10876D01*
Y10827D01*
X16733D01*
X16093Y10728D02*
Y10974D01*
Y10876D01*
X16142D01*
X16044D01*
X16093D01*
Y10974D01*
X16044Y11024D01*
X15847Y10728D02*
X15749D01*
X15699Y10778D01*
Y10876D01*
X15749Y10925D01*
X15847D01*
X15896Y10876D01*
Y10778D01*
X15847Y10728D01*
X15601Y10925D02*
Y10728D01*
Y10827D01*
X15552Y10876D01*
X15503Y10925D01*
X15453D01*
X17618Y11713D02*
Y12008D01*
X17471D01*
X17421Y11959D01*
Y11860D01*
X17471Y11811D01*
X17618D01*
X17520D02*
X17421Y11713D01*
X17126Y11959D02*
X17175Y12008D01*
X17274D01*
X17323Y11959D01*
Y11762D01*
X17274Y11713D01*
X17175D01*
X17126Y11762D01*
Y11860D01*
X17225D01*
X17028Y12008D02*
Y11713D01*
X16880D01*
X16831Y11762D01*
Y11811D01*
X16880Y11860D01*
X17028D01*
X16880D01*
X16831Y11909D01*
Y11959D01*
X16880Y12008D01*
X17028D01*
X16437D02*
Y11713D01*
X16241D01*
X15945Y12008D02*
X16142D01*
Y11713D01*
X15945D01*
X16142Y11860D02*
X16044D01*
X15847Y12008D02*
Y11713D01*
X15699D01*
X15650Y11762D01*
Y11959D01*
X15699Y12008D01*
X15847D01*
X35728Y10482D02*
X35679Y10531D01*
X35581D01*
X35532Y10482D01*
Y10433D01*
X35581Y10384D01*
X35532Y10335D01*
Y10285D01*
X35581Y10236D01*
X35679D01*
X35728Y10285D01*
Y10335D01*
X35679Y10384D01*
X35728Y10433D01*
Y10482D01*
X35679Y10384D02*
X35581D01*
X35433Y10236D02*
X35236Y10433D01*
X35138Y10236D02*
X35040D01*
X35089D01*
Y10531D01*
X35138Y10482D01*
X34892Y10285D02*
X34843Y10236D01*
X34744D01*
X34695Y10285D01*
Y10482D01*
X34744Y10531D01*
X34843D01*
X34892Y10482D01*
Y10433D01*
X34843Y10384D01*
X34695D01*
X36614Y10925D02*
Y10630D01*
X36467D01*
X36417Y10679D01*
Y10728D01*
X36467Y10778D01*
X36614D01*
X36467D01*
X36417Y10827D01*
Y10876D01*
X36467Y10925D01*
X36614D01*
X36319Y10827D02*
Y10630D01*
Y10728D01*
X36270Y10778D01*
X36221Y10827D01*
X36171D01*
X36024D02*
Y10679D01*
X35975Y10630D01*
X35827D01*
Y10827D01*
X35729Y10630D02*
X35581D01*
X35532Y10679D01*
X35581Y10728D01*
X35679D01*
X35729Y10778D01*
X35679Y10827D01*
X35532D01*
X35433Y10630D02*
X35335D01*
X35384D01*
Y10925D01*
X35433D01*
X35187Y10630D02*
X35089D01*
X35138D01*
Y10827D01*
X35187D01*
X34941Y10630D02*
Y10827D01*
X34794D01*
X34745Y10778D01*
Y10630D01*
X34450Y10925D02*
Y10630D01*
X34597D01*
X34646Y10679D01*
Y10778D01*
X34597Y10827D01*
X34450D01*
X36910Y11319D02*
X37008D01*
X36959D01*
Y11073D01*
X37008Y11024D01*
X37057D01*
X37106Y11073D01*
X36762Y11024D02*
X36664D01*
X36614Y11073D01*
Y11171D01*
X36664Y11220D01*
X36762D01*
X36811Y11171D01*
Y11073D01*
X36762Y11024D01*
X36516Y11220D02*
Y11024D01*
Y11122D01*
X36467Y11171D01*
X36418Y11220D01*
X36368D01*
X36221Y11024D02*
X36122D01*
X36172D01*
Y11220D01*
X36221D01*
X35926D02*
X35827D01*
X35778Y11171D01*
Y11024D01*
X35926D01*
X35975Y11073D01*
X35926Y11122D01*
X35778D01*
X35680Y11024D02*
Y11220D01*
X35532D01*
X35483Y11171D01*
Y11024D01*
D45*
X17780Y15347D02*
X17876Y15279D01*
X17780Y15347D02*
X19631Y17991D01*
X19728Y17924D01*
X18844Y14602D02*
X20231Y13631D01*
X22082Y16275D01*
X20696Y17246D02*
X22082Y16275D01*
X18954Y18466D02*
X19631Y17991D01*
X17102Y15821D02*
X18954Y18466D01*
X17102Y15821D02*
X17780Y15347D01*
D46*
X27360Y23921D02*
X27361D01*
Y23920D01*
X27360D01*
X27361D01*
Y23918D01*
X27359Y23920D02*
X27358D01*
Y23920D01*
X27359D01*
Y23920D01*
Y23919D02*
X27358D01*
Y23918D01*
X27359D01*
Y23919D01*
X27356Y23918D02*
X27355Y23920D01*
X27354Y23921D02*
Y23918D01*
X27352D01*
X27352Y23919D01*
Y23921D01*
X27352Y23921D01*
X27354D01*
X27351Y23918D02*
X27350D01*
X27349Y23919D01*
Y23920D01*
X27350Y23920D01*
X27351D01*
X27351Y23920D01*
Y23919D01*
X27351Y23918D01*
X27348Y23920D02*
Y23919D01*
X27348Y23918D01*
X27347Y23919D01*
X27347Y23918D01*
X27346Y23919D01*
Y23920D01*
X27346Y23918D02*
Y23920D01*
X27344D01*
X27344Y23920D01*
Y23918D01*
X27343D02*
X27342D01*
X27342D01*
Y23921D01*
X27343D01*
X27340Y23918D02*
X27339D01*
X27339Y23919D01*
Y23920D01*
X27339Y23920D01*
X27340D01*
X27341Y23920D01*
Y23919D01*
X27340Y23918D01*
X27337Y23920D02*
X27336D01*
X27336Y23920D01*
Y23918D01*
X27337D01*
X27338Y23919D01*
X27337Y23919D01*
X27336D01*
X27333Y23921D02*
Y23918D01*
X27335D01*
X27335Y23919D01*
Y23920D01*
X27335Y23920D01*
X27333D01*
X27332Y23918D02*
X27331D01*
X27331Y23919D01*
X27331Y23919D01*
X27332D01*
X27332Y23920D01*
X27332Y23920D01*
X27331D01*
X27330Y23918D02*
X27328Y23920D01*
X27327Y23921D02*
Y23918D01*
X27325D01*
X27324D02*
X27323D01*
X27322Y23919D01*
Y23920D01*
X27323Y23920D01*
X27324D01*
X27324Y23920D01*
Y23919D01*
X27324Y23918D01*
X27321Y23918D02*
X27320D01*
X27320Y23918D01*
Y23920D01*
X27321D01*
X27322Y23920D01*
Y23919D01*
X27321Y23918D01*
X27320D01*
X27318D02*
X27317D01*
X27317Y23919D01*
Y23920D01*
X27317Y23920D01*
X27318D01*
X27319Y23920D01*
Y23919D01*
X27318Y23918D01*
X27316Y23921D02*
Y23918D01*
X27315D01*
X27314Y23919D01*
Y23919D01*
X27315Y23920D01*
X27316D01*
X27315D01*
X27314Y23920D01*
Y23921D01*
X27315Y23921D01*
X27316D01*
X27313Y23918D02*
X27312D01*
X27313D01*
Y23921D01*
X27313D01*
X27311Y23920D02*
X27310D01*
X27309Y23920D01*
Y23918D01*
X27311D01*
X27311Y23919D01*
X27311Y23919D01*
X27309D01*
X27307Y23920D02*
X27308D01*
X27308Y23920D01*
Y23919D01*
X27308Y23918D01*
X27307D01*
X27306D02*
Y23921D01*
Y23919D02*
X27304Y23920D01*
X27306Y23919D02*
X27304Y23918D01*
X27303D02*
Y23919D01*
X27302D01*
Y23918D01*
X27303D01*
X27301Y23921D02*
Y23918D01*
X27299D01*
X27299Y23919D01*
Y23919D01*
Y23920D01*
X27299Y23920D01*
X27301D01*
X27298Y23918D02*
Y23920D01*
X27297D01*
X27297Y23920D01*
Y23918D01*
Y23920D01*
X27297Y23920D01*
X27296Y23920D01*
Y23918D01*
X27295Y23918D02*
Y23920D01*
X27294D01*
X27293Y23920D01*
Y23919D01*
X27294Y23918D01*
X27295D01*
D47*
X27273Y23926D02*
D03*
X25755D02*
D03*
X25116Y24062D02*
D03*
X25506Y24115D02*
D03*
D48*
X27108Y23926D02*
D03*
X26335Y23928D02*
D03*
X25966Y24087D02*
D03*
D49*
X26931Y23926D02*
D03*
X26329Y24062D02*
D03*
X27087Y24115D02*
D03*
X25967Y24118D02*
D03*
D50*
X26512Y23926D02*
D03*
X26187D02*
D03*
X27148Y23963D02*
D03*
X25967Y24084D02*
D03*
Y24120D02*
D03*
D51*
X26335Y23926D02*
D03*
X25317D02*
D03*
X25121D02*
D03*
X25822Y23958D02*
D03*
D52*
X26035Y23926D02*
D03*
X27054Y24081D02*
D03*
X26051Y24093D02*
D03*
D53*
X25851Y23926D02*
D03*
D54*
X25513D02*
D03*
X25317Y23928D02*
D03*
X25121D02*
D03*
X27058Y24082D02*
D03*
D55*
X27273Y23928D02*
D03*
X26624Y23950D02*
D03*
X26056Y23959D02*
D03*
X25336Y23963D02*
D03*
X25092Y23964D02*
D03*
X26555Y23966D02*
D03*
X26305D02*
D03*
X26637Y23970D02*
D03*
X26980Y23975D02*
D03*
X26642Y23978D02*
D03*
X27212Y23981D02*
D03*
X26648Y23988D02*
D03*
X27336Y23989D02*
D03*
X26650D02*
D03*
X27336Y23991D02*
D03*
X25580Y23994D02*
D03*
Y23996D02*
D03*
X25892Y24021D02*
D03*
X26555Y24022D02*
D03*
X26469Y24026D02*
D03*
X26637Y24040D02*
D03*
X25580Y24044D02*
D03*
X27336Y24049D02*
D03*
X26330Y24059D02*
D03*
X27136Y24074D02*
D03*
D56*
X27109Y23928D02*
D03*
X26334Y23933D02*
D03*
X25121D02*
D03*
X26546Y23958D02*
D03*
X26151D02*
D03*
X26972Y23964D02*
D03*
X26888D02*
D03*
X25572Y23975D02*
D03*
X27063Y23994D02*
D03*
X25094Y24030D02*
D03*
X26646Y24032D02*
D03*
X27321Y24074D02*
D03*
X27222D02*
D03*
D57*
X26931Y23928D02*
D03*
X25756D02*
D03*
X26613Y23931D02*
D03*
X25317D02*
D03*
X26617Y23939D02*
D03*
X26619Y23941D02*
D03*
X26625Y23952D02*
D03*
X26630Y23959D02*
D03*
X25093Y23963D02*
D03*
X26305Y23964D02*
D03*
X27060Y23966D02*
D03*
X26636Y23969D02*
D03*
X26638Y23972D02*
D03*
X25718Y23975D02*
D03*
X26641Y23977D02*
D03*
X27331Y23978D02*
D03*
X26644Y23981D02*
D03*
X27211Y23983D02*
D03*
X25580Y23989D02*
D03*
X26650Y23991D02*
D03*
X25580D02*
D03*
X26653Y23994D02*
D03*
X26655Y23996D02*
D03*
X25891Y24022D02*
D03*
X26304Y24026D02*
D03*
X26469Y24027D02*
D03*
X25091D02*
D03*
X27137Y24055D02*
D03*
X25575Y24057D02*
D03*
X27211Y24059D02*
D03*
X25575D02*
D03*
X27331Y24062D02*
D03*
X27213D02*
D03*
X27329Y24065D02*
D03*
X27135Y24076D02*
D03*
X25967Y24100D02*
D03*
Y24101D02*
D03*
Y24103D02*
D03*
Y24106D02*
D03*
D58*
X26512Y23928D02*
D03*
X26187D02*
D03*
X25850D02*
D03*
X26469Y23963D02*
D03*
X26058D02*
D03*
X26230Y23964D02*
D03*
X26058D02*
D03*
X25337D02*
D03*
X26231Y23966D02*
D03*
X26143D02*
D03*
X25339D02*
D03*
X26302Y23969D02*
D03*
X26233D02*
D03*
X25178D02*
D03*
X25090D02*
D03*
X27057Y23970D02*
D03*
X26557D02*
D03*
X26392D02*
D03*
X26302D02*
D03*
X25178D02*
D03*
X25088D02*
D03*
X27057Y23972D02*
D03*
X26392D02*
D03*
X25896D02*
D03*
X25088D02*
D03*
X27057Y23975D02*
D03*
X26880D02*
D03*
X25087D02*
D03*
X27057Y23977D02*
D03*
X26981D02*
D03*
X27057Y23978D02*
D03*
X26981D02*
D03*
X26879D02*
D03*
X27057Y23981D02*
D03*
X26983D02*
D03*
X27057Y23983D02*
D03*
X27209Y23988D02*
D03*
X27208Y23991D02*
D03*
X27337Y23994D02*
D03*
X27206D02*
D03*
Y23996D02*
D03*
Y23997D02*
D03*
X27339Y24000D02*
D03*
Y24002D02*
D03*
X27205D02*
D03*
X25583D02*
D03*
X27339Y24004D02*
D03*
X27205D02*
D03*
X25583D02*
D03*
X27340Y24007D02*
D03*
X27205D02*
D03*
X25583D02*
D03*
X27340Y24008D02*
D03*
X27205D02*
D03*
X25583D02*
D03*
X27340Y24010D02*
D03*
X27205D02*
D03*
X27340Y24013D02*
D03*
X25584D02*
D03*
X27340Y24015D02*
D03*
X26392D02*
D03*
X25584D02*
D03*
X27340Y24016D02*
D03*
X26392D02*
D03*
X25772D02*
D03*
X25584D02*
D03*
X25178D02*
D03*
X27340Y24019D02*
D03*
X26465D02*
D03*
X26301D02*
D03*
X26233D02*
D03*
X25584D02*
D03*
X25087D02*
D03*
X27340Y24021D02*
D03*
X27203D02*
D03*
X26556D02*
D03*
X26231D02*
D03*
X26142D02*
D03*
X25584D02*
D03*
X27340Y24022D02*
D03*
X27203D02*
D03*
X26466D02*
D03*
X26231D02*
D03*
X26142D02*
D03*
X27340Y24026D02*
D03*
Y24027D02*
D03*
Y24030D02*
D03*
X27205D02*
D03*
X25583D02*
D03*
X27340Y24032D02*
D03*
X27205D02*
D03*
X25583D02*
D03*
X27205Y24033D02*
D03*
X25770D02*
D03*
X25583D02*
D03*
X27339Y24037D02*
D03*
X27205D02*
D03*
X25583D02*
D03*
X27339Y24038D02*
D03*
X27205D02*
D03*
X27339Y24040D02*
D03*
X27205D02*
D03*
X25581D02*
D03*
X27339Y24043D02*
D03*
X27206D02*
D03*
X26635D02*
D03*
X25581D02*
D03*
X27337Y24044D02*
D03*
X27206D02*
D03*
X26635D02*
D03*
X27337Y24046D02*
D03*
X27206D02*
D03*
X26633D02*
D03*
X25580D02*
D03*
X27335Y24051D02*
D03*
X27208D02*
D03*
X26631Y24052D02*
D03*
X27334Y24055D02*
D03*
X26631D02*
D03*
X27139Y24062D02*
D03*
X26631D02*
D03*
X27139Y24063D02*
D03*
X26631D02*
D03*
X27139Y24065D02*
D03*
X26631D02*
D03*
X27139Y24068D02*
D03*
Y24070D02*
D03*
X27137Y24071D02*
D03*
X25967Y24095D02*
D03*
Y24096D02*
D03*
Y24107D02*
D03*
Y24109D02*
D03*
D59*
X26035Y23928D02*
D03*
X25413Y23931D02*
D03*
X25254D02*
D03*
X25413Y23933D02*
D03*
X25254D02*
D03*
X25413Y23934D02*
D03*
X25254D02*
D03*
X25413Y23937D02*
D03*
X25254D02*
D03*
X25413Y23939D02*
D03*
X25254D02*
D03*
X25413Y23941D02*
D03*
X25254D02*
D03*
X25413Y23944D02*
D03*
X25254D02*
D03*
X25413Y23945D02*
D03*
X25254D02*
D03*
X25413Y23947D02*
D03*
X25254D02*
D03*
X25413Y23950D02*
D03*
Y23952D02*
D03*
Y23953D02*
D03*
Y23956D02*
D03*
Y23958D02*
D03*
Y23959D02*
D03*
Y23963D02*
D03*
Y23964D02*
D03*
Y23966D02*
D03*
Y23969D02*
D03*
Y23970D02*
D03*
Y23972D02*
D03*
Y23975D02*
D03*
Y23977D02*
D03*
Y23978D02*
D03*
Y23981D02*
D03*
X25254D02*
D03*
X25413Y23983D02*
D03*
X25254D02*
D03*
X25413Y23985D02*
D03*
X25254D02*
D03*
X25413Y23988D02*
D03*
X25341D02*
D03*
X25254D02*
D03*
X25413Y23989D02*
D03*
X25341D02*
D03*
X25254D02*
D03*
X25413Y23991D02*
D03*
X25341D02*
D03*
X25254D02*
D03*
X25413Y23994D02*
D03*
X25341D02*
D03*
X25254D02*
D03*
X25413Y23996D02*
D03*
X25341D02*
D03*
X25254D02*
D03*
X25413Y23997D02*
D03*
X25341D02*
D03*
X25254D02*
D03*
X25413Y24000D02*
D03*
X25341D02*
D03*
X25254D02*
D03*
X25413Y24002D02*
D03*
X25341D02*
D03*
X25254D02*
D03*
X25413Y24004D02*
D03*
X25341D02*
D03*
X25254D02*
D03*
X25413Y24007D02*
D03*
X25341D02*
D03*
X25254D02*
D03*
X25413Y24008D02*
D03*
X25341D02*
D03*
X25254D02*
D03*
X25413Y24010D02*
D03*
X25341D02*
D03*
X25254D02*
D03*
X25413Y24013D02*
D03*
X25341D02*
D03*
X25254D02*
D03*
X25413Y24015D02*
D03*
X25341D02*
D03*
X25254D02*
D03*
X25413Y24016D02*
D03*
X25341D02*
D03*
X25254D02*
D03*
X25413Y24019D02*
D03*
X25341D02*
D03*
X25254D02*
D03*
X25413Y24021D02*
D03*
X25341D02*
D03*
X25254D02*
D03*
X25413Y24022D02*
D03*
X25341D02*
D03*
X25254D02*
D03*
X25774Y24026D02*
D03*
X25413D02*
D03*
X25341D02*
D03*
X25254D02*
D03*
X25774Y24027D02*
D03*
X25413D02*
D03*
X25341D02*
D03*
X25254D02*
D03*
X25413Y24030D02*
D03*
X25341D02*
D03*
X25254D02*
D03*
X25413Y24032D02*
D03*
X25341D02*
D03*
X25254D02*
D03*
X25413Y24033D02*
D03*
X25341D02*
D03*
X25254D02*
D03*
X25413Y24037D02*
D03*
X25341D02*
D03*
X25254D02*
D03*
X25413Y24038D02*
D03*
X25341D02*
D03*
X25254D02*
D03*
X25413Y24040D02*
D03*
X25341D02*
D03*
X25254D02*
D03*
X25413Y24043D02*
D03*
X25341D02*
D03*
X25254D02*
D03*
X25413Y24044D02*
D03*
X25341D02*
D03*
X25254D02*
D03*
X25413Y24046D02*
D03*
X25341D02*
D03*
X25254D02*
D03*
X25413Y24049D02*
D03*
X25341D02*
D03*
X25254D02*
D03*
X25413Y24051D02*
D03*
X25341D02*
D03*
X25254D02*
D03*
X25413Y24052D02*
D03*
X25341D02*
D03*
X25254D02*
D03*
X25413Y24055D02*
D03*
X25341D02*
D03*
X25254D02*
D03*
X25413Y24057D02*
D03*
X25341D02*
D03*
X25254D02*
D03*
X25413Y24059D02*
D03*
X25341D02*
D03*
X25254D02*
D03*
X25413Y24062D02*
D03*
Y24063D02*
D03*
Y24065D02*
D03*
Y24068D02*
D03*
Y24070D02*
D03*
Y24071D02*
D03*
Y24074D02*
D03*
Y24076D02*
D03*
Y24078D02*
D03*
Y24081D02*
D03*
Y24082D02*
D03*
Y24084D02*
D03*
Y24087D02*
D03*
Y24089D02*
D03*
X25966Y24090D02*
D03*
X25413D02*
D03*
Y24093D02*
D03*
Y24095D02*
D03*
Y24096D02*
D03*
Y24100D02*
D03*
Y24101D02*
D03*
Y24103D02*
D03*
Y24106D02*
D03*
Y24107D02*
D03*
Y24109D02*
D03*
Y24112D02*
D03*
X25966Y24114D02*
D03*
X25413D02*
D03*
Y24115D02*
D03*
Y24118D02*
D03*
Y24120D02*
D03*
Y24122D02*
D03*
D60*
X25512Y23928D02*
D03*
X26312Y23958D02*
D03*
X27323Y23969D02*
D03*
X26387Y24027D02*
D03*
D61*
X27273Y23930D02*
D03*
D62*
X27109D02*
D03*
X26043Y23948D02*
D03*
D63*
X26931Y23930D02*
D03*
X25756D02*
D03*
X25317Y23936D02*
D03*
X25724Y23980D02*
D03*
X27068Y23999D02*
D03*
D64*
X26721Y23930D02*
D03*
X25121D02*
D03*
X26721Y23936D02*
D03*
Y23942D02*
D03*
Y23948D02*
D03*
Y23955D02*
D03*
Y23961D02*
D03*
Y23967D02*
D03*
Y23974D02*
D03*
X26060D02*
D03*
X25340D02*
D03*
X26721Y23980D02*
D03*
X26060D02*
D03*
X25340D02*
D03*
X26721Y23986D02*
D03*
X26060D02*
D03*
X26876Y23993D02*
D03*
X26721D02*
D03*
X26238D02*
D03*
X26060D02*
D03*
X26238Y23999D02*
D03*
X26060D02*
D03*
X25083D02*
D03*
X26060Y24005D02*
D03*
Y24011D02*
D03*
Y24018D02*
D03*
Y24024D02*
D03*
Y24029D02*
D03*
X26721Y24035D02*
D03*
Y24041D02*
D03*
Y24048D02*
D03*
Y24054D02*
D03*
Y24060D02*
D03*
X26060D02*
D03*
X26721Y24067D02*
D03*
X26060D02*
D03*
X26721Y24073D02*
D03*
X26060D02*
D03*
X26721Y24079D02*
D03*
X26060D02*
D03*
Y24085D02*
D03*
D65*
X26611Y23930D02*
D03*
X26619Y23942D02*
D03*
X26624Y23948D02*
D03*
X26632Y23961D02*
D03*
X25335D02*
D03*
X25893Y23967D02*
D03*
X27213Y23980D02*
D03*
X26641Y24035D02*
D03*
X27211Y24060D02*
D03*
X25573D02*
D03*
X25967Y24104D02*
D03*
D66*
X26511Y23930D02*
D03*
X26387Y24029D02*
D03*
D67*
X26394Y23930D02*
D03*
X25967D02*
D03*
X25317D02*
D03*
X25180D02*
D03*
X26394Y23936D02*
D03*
X25967D02*
D03*
X25180D02*
D03*
X26394Y23942D02*
D03*
X25967D02*
D03*
X25180D02*
D03*
X25967Y23948D02*
D03*
Y23955D02*
D03*
Y23961D02*
D03*
Y23967D02*
D03*
Y23974D02*
D03*
X25255D02*
D03*
X26394Y23980D02*
D03*
X26299D02*
D03*
X26236D02*
D03*
X25967D02*
D03*
X25180D02*
D03*
X26561Y23986D02*
D03*
X26461D02*
D03*
X26394D02*
D03*
X26137D02*
D03*
X25967D02*
D03*
X25899D02*
D03*
X25180D02*
D03*
X26394Y23993D02*
D03*
X26298D02*
D03*
X26137D02*
D03*
X25967D02*
D03*
X25899D02*
D03*
X25180D02*
D03*
X26561Y23999D02*
D03*
X26394D02*
D03*
X26298D02*
D03*
X26137D02*
D03*
X25967D02*
D03*
X25899D02*
D03*
X25180D02*
D03*
X26986Y24005D02*
D03*
X26561D02*
D03*
X26461D02*
D03*
X26394D02*
D03*
X26298D02*
D03*
X26236D02*
D03*
X26137D02*
D03*
X25967D02*
D03*
X25180D02*
D03*
X26986Y24011D02*
D03*
X25967D02*
D03*
X26986Y24018D02*
D03*
X25967D02*
D03*
X26986Y24024D02*
D03*
X25967D02*
D03*
X25775D02*
D03*
X26986Y24029D02*
D03*
X25967D02*
D03*
X26986Y24035D02*
D03*
X25967D02*
D03*
X26986Y24041D02*
D03*
X26394D02*
D03*
X25967D02*
D03*
X25180D02*
D03*
X26986Y24048D02*
D03*
X26394D02*
D03*
X25967D02*
D03*
X25180D02*
D03*
X26986Y24054D02*
D03*
X26394D02*
D03*
X25967D02*
D03*
X25180D02*
D03*
X26986Y24060D02*
D03*
X26394D02*
D03*
X25180D02*
D03*
X26986Y24067D02*
D03*
X26394D02*
D03*
X25180D02*
D03*
X26986Y24073D02*
D03*
X26394D02*
D03*
X25180D02*
D03*
X26986Y24079D02*
D03*
X26394D02*
D03*
X25180D02*
D03*
X26986Y24085D02*
D03*
X26394D02*
D03*
X25180D02*
D03*
X26986Y24092D02*
D03*
X26394D02*
D03*
X25967D02*
D03*
X25180D02*
D03*
X26986Y24098D02*
D03*
X26394D02*
D03*
X25180D02*
D03*
X26986Y24104D02*
D03*
X26394D02*
D03*
X25180D02*
D03*
X26986Y24111D02*
D03*
X26394D02*
D03*
X25180D02*
D03*
X26394Y24117D02*
D03*
X25180D02*
D03*
D68*
X26335Y23930D02*
D03*
X26059Y23967D02*
D03*
X26558Y23974D02*
D03*
X26464D02*
D03*
X26234D02*
D03*
X26139D02*
D03*
X25179D02*
D03*
X25087D02*
D03*
X26982Y23980D02*
D03*
X26878D02*
D03*
X26560D02*
D03*
X26462D02*
D03*
X26138D02*
D03*
X26983Y23986D02*
D03*
X26876D02*
D03*
X26237D02*
D03*
X25084D02*
D03*
X26985Y23993D02*
D03*
X26461D02*
D03*
X25084D02*
D03*
X26985Y23999D02*
D03*
X26875D02*
D03*
X26720D02*
D03*
X26461D02*
D03*
X26875Y24005D02*
D03*
X25084D02*
D03*
X27204Y24011D02*
D03*
X26875D02*
D03*
X26560D02*
D03*
X26462D02*
D03*
X26235D02*
D03*
X26138D02*
D03*
X25897D02*
D03*
X25583D02*
D03*
X25179D02*
D03*
X25084D02*
D03*
X27204Y24018D02*
D03*
X26875D02*
D03*
X26464D02*
D03*
X26234D02*
D03*
X26139D02*
D03*
X25772D02*
D03*
X27204Y24024D02*
D03*
X26875D02*
D03*
X25583D02*
D03*
X27204Y24029D02*
D03*
X26875D02*
D03*
X25583D02*
D03*
X27339Y24035D02*
D03*
X26875D02*
D03*
Y24041D02*
D03*
Y24048D02*
D03*
Y24054D02*
D03*
Y24060D02*
D03*
Y24067D02*
D03*
Y24073D02*
D03*
Y24079D02*
D03*
Y24085D02*
D03*
Y24092D02*
D03*
Y24098D02*
D03*
Y24104D02*
D03*
Y24111D02*
D03*
D69*
X26188Y23930D02*
D03*
X27322Y23967D02*
D03*
X25172Y24029D02*
D03*
X26639Y24079D02*
D03*
D70*
X26035Y23930D02*
D03*
X26635Y23967D02*
D03*
X26643Y23980D02*
D03*
X27336Y23993D02*
D03*
X25580D02*
D03*
X26467Y24024D02*
D03*
X27206Y24041D02*
D03*
D71*
X25850Y23930D02*
D03*
X25562Y24073D02*
D03*
D72*
X25512Y23930D02*
D03*
D73*
X25413D02*
D03*
X25254D02*
D03*
X25413Y23936D02*
D03*
X25254D02*
D03*
X25413Y23942D02*
D03*
X25254D02*
D03*
X25413Y23948D02*
D03*
Y23955D02*
D03*
Y23961D02*
D03*
Y23967D02*
D03*
Y23974D02*
D03*
Y23980D02*
D03*
X25254D02*
D03*
X25413Y23986D02*
D03*
X25341D02*
D03*
X25254D02*
D03*
X25413Y23993D02*
D03*
X25341D02*
D03*
X25254D02*
D03*
X25413Y23999D02*
D03*
X25341D02*
D03*
X25254D02*
D03*
X25413Y24005D02*
D03*
X25341D02*
D03*
X25254D02*
D03*
X25413Y24011D02*
D03*
X25341D02*
D03*
X25254D02*
D03*
X25413Y24018D02*
D03*
X25341D02*
D03*
X25254D02*
D03*
X25413Y24024D02*
D03*
X25341D02*
D03*
X25254D02*
D03*
X25774Y24029D02*
D03*
X25413D02*
D03*
X25341D02*
D03*
X25254D02*
D03*
X25413Y24035D02*
D03*
X25341D02*
D03*
X25254D02*
D03*
X25413Y24041D02*
D03*
X25341D02*
D03*
X25254D02*
D03*
X25413Y24048D02*
D03*
X25341D02*
D03*
X25254D02*
D03*
X25413Y24054D02*
D03*
X25341D02*
D03*
X25254D02*
D03*
X25413Y24060D02*
D03*
X25116D02*
D03*
X25413Y24067D02*
D03*
Y24073D02*
D03*
Y24079D02*
D03*
Y24085D02*
D03*
Y24092D02*
D03*
Y24098D02*
D03*
Y24104D02*
D03*
Y24111D02*
D03*
Y24117D02*
D03*
X26393Y24123D02*
D03*
X25413D02*
D03*
X25179D02*
D03*
D74*
X27272Y23931D02*
D03*
X26334Y23937D02*
D03*
X25120D02*
D03*
X25559Y23964D02*
D03*
X27071Y24002D02*
D03*
X25759Y24007D02*
D03*
D75*
X27109Y23931D02*
D03*
X25740Y23991D02*
D03*
X25745Y23996D02*
D03*
X25746Y23997D02*
D03*
X25852Y24051D02*
D03*
D76*
X26931Y23931D02*
D03*
X25756D02*
D03*
X26334Y23939D02*
D03*
X25120D02*
D03*
X26044Y23953D02*
D03*
Y23956D02*
D03*
X25732Y23985D02*
D03*
X27121Y24038D02*
D03*
X26329Y24051D02*
D03*
D77*
X26721Y23931D02*
D03*
Y23933D02*
D03*
Y23934D02*
D03*
Y23937D02*
D03*
Y23939D02*
D03*
Y23941D02*
D03*
Y23944D02*
D03*
Y23945D02*
D03*
Y23947D02*
D03*
Y23950D02*
D03*
Y23952D02*
D03*
Y23953D02*
D03*
Y23956D02*
D03*
Y23958D02*
D03*
X25715D02*
D03*
X26721Y23959D02*
D03*
Y23963D02*
D03*
Y23964D02*
D03*
Y23966D02*
D03*
Y23969D02*
D03*
X26060D02*
D03*
X26721Y23970D02*
D03*
X26060D02*
D03*
X25715D02*
D03*
X26721Y23972D02*
D03*
X26140D02*
D03*
X26060D02*
D03*
X25715D02*
D03*
X25340D02*
D03*
X26721Y23975D02*
D03*
X26559D02*
D03*
X26463D02*
D03*
X26060D02*
D03*
X25340D02*
D03*
X26721Y23977D02*
D03*
X26463D02*
D03*
X26139D02*
D03*
X26060D02*
D03*
X25340D02*
D03*
X26721Y23978D02*
D03*
X26139D02*
D03*
X26060D02*
D03*
X25340D02*
D03*
X26721Y23981D02*
D03*
X26060D02*
D03*
X25340D02*
D03*
X26721Y23983D02*
D03*
X26060D02*
D03*
X25340D02*
D03*
X26877Y23985D02*
D03*
X26721D02*
D03*
X26060D02*
D03*
X25340D02*
D03*
X26721Y23988D02*
D03*
X26060D02*
D03*
X26984Y23989D02*
D03*
X26876D02*
D03*
X26721D02*
D03*
X26238D02*
D03*
X26060D02*
D03*
X26984Y23991D02*
D03*
X26876D02*
D03*
X26721D02*
D03*
X26238D02*
D03*
X26060D02*
D03*
X26876Y23994D02*
D03*
X26721D02*
D03*
X26238D02*
D03*
X26060D02*
D03*
X26876Y23996D02*
D03*
X26721D02*
D03*
X26238D02*
D03*
X26060D02*
D03*
X25083D02*
D03*
X26876Y23997D02*
D03*
X26721D02*
D03*
X26238D02*
D03*
X26060D02*
D03*
X25083D02*
D03*
X26060Y24000D02*
D03*
X25083D02*
D03*
X26060Y24002D02*
D03*
Y24004D02*
D03*
Y24007D02*
D03*
Y24008D02*
D03*
Y24010D02*
D03*
X26559Y24013D02*
D03*
X26139D02*
D03*
X26060D02*
D03*
X26463Y24015D02*
D03*
X26060D02*
D03*
Y24016D02*
D03*
Y24019D02*
D03*
Y24021D02*
D03*
Y24022D02*
D03*
Y24026D02*
D03*
Y24027D02*
D03*
X26721Y24032D02*
D03*
Y24033D02*
D03*
Y24037D02*
D03*
Y24038D02*
D03*
Y24040D02*
D03*
Y24043D02*
D03*
Y24044D02*
D03*
Y24046D02*
D03*
Y24049D02*
D03*
Y24051D02*
D03*
Y24052D02*
D03*
Y24055D02*
D03*
Y24057D02*
D03*
Y24059D02*
D03*
Y24062D02*
D03*
X26060D02*
D03*
X26721Y24063D02*
D03*
X26060D02*
D03*
X26721Y24065D02*
D03*
X26060D02*
D03*
X26721Y24068D02*
D03*
X26060D02*
D03*
X26721Y24070D02*
D03*
X26060D02*
D03*
X26721Y24071D02*
D03*
X26060D02*
D03*
X26721Y24074D02*
D03*
X26060D02*
D03*
X26721Y24076D02*
D03*
X26060D02*
D03*
X26721Y24078D02*
D03*
X26060D02*
D03*
X26721Y24081D02*
D03*
X26060D02*
D03*
Y24082D02*
D03*
Y24084D02*
D03*
Y24087D02*
D03*
D78*
X26512Y23931D02*
D03*
X26187D02*
D03*
X25317Y23937D02*
D03*
X26041Y23941D02*
D03*
X27315Y23963D02*
D03*
X27230D02*
D03*
X25562Y23966D02*
D03*
X25728Y23981D02*
D03*
X27069Y24000D02*
D03*
X25879Y24032D02*
D03*
X25168D02*
D03*
X25735Y24059D02*
D03*
D79*
X26394Y23931D02*
D03*
X25967D02*
D03*
X25180D02*
D03*
X26394Y23933D02*
D03*
X25967D02*
D03*
X25180D02*
D03*
X26394Y23934D02*
D03*
X25967D02*
D03*
X25180D02*
D03*
X26394Y23937D02*
D03*
X25967D02*
D03*
X25180D02*
D03*
X26394Y23939D02*
D03*
X25967D02*
D03*
X25180D02*
D03*
X26394Y23941D02*
D03*
X25967D02*
D03*
X25180D02*
D03*
X25967Y23944D02*
D03*
Y23945D02*
D03*
Y23947D02*
D03*
Y23950D02*
D03*
Y23952D02*
D03*
Y23953D02*
D03*
Y23956D02*
D03*
Y23958D02*
D03*
Y23959D02*
D03*
Y23963D02*
D03*
Y23964D02*
D03*
Y23966D02*
D03*
Y23969D02*
D03*
Y23970D02*
D03*
Y23972D02*
D03*
Y23975D02*
D03*
X25255D02*
D03*
X25967Y23977D02*
D03*
X25255D02*
D03*
X25180D02*
D03*
X26394Y23978D02*
D03*
X26236D02*
D03*
X25967D02*
D03*
X25255D02*
D03*
X25180D02*
D03*
X26561Y23981D02*
D03*
X26461D02*
D03*
X26394D02*
D03*
X26299D02*
D03*
X26236D02*
D03*
X25967D02*
D03*
X25180D02*
D03*
X25085D02*
D03*
X26561Y23983D02*
D03*
X26461D02*
D03*
X26394D02*
D03*
X26236D02*
D03*
X26137D02*
D03*
X25967D02*
D03*
X25180D02*
D03*
X25085D02*
D03*
X26561Y23985D02*
D03*
X26461D02*
D03*
X26394D02*
D03*
X26137D02*
D03*
X25967D02*
D03*
X25899D02*
D03*
X25180D02*
D03*
X25085D02*
D03*
X26561Y23988D02*
D03*
X26394D02*
D03*
X26137D02*
D03*
X25967D02*
D03*
X25899D02*
D03*
X25180D02*
D03*
X26561Y23989D02*
D03*
X26394D02*
D03*
X26298D02*
D03*
X26137D02*
D03*
X25967D02*
D03*
X25899D02*
D03*
X25180D02*
D03*
X26394Y23991D02*
D03*
X26298D02*
D03*
X26137D02*
D03*
X25967D02*
D03*
X25899D02*
D03*
X25180D02*
D03*
X26394Y23994D02*
D03*
X26298D02*
D03*
X26137D02*
D03*
X25967D02*
D03*
X25899D02*
D03*
X25180D02*
D03*
X26394Y23996D02*
D03*
X26298D02*
D03*
X26137D02*
D03*
X25967D02*
D03*
X25899D02*
D03*
X25180D02*
D03*
X26394Y23997D02*
D03*
X26298D02*
D03*
X26137D02*
D03*
X25967D02*
D03*
X25899D02*
D03*
X25180D02*
D03*
X26561Y24000D02*
D03*
X26394D02*
D03*
X26298D02*
D03*
X26137D02*
D03*
X25967D02*
D03*
X25899D02*
D03*
X25180D02*
D03*
X26986Y24002D02*
D03*
X26561D02*
D03*
X26394D02*
D03*
X26298D02*
D03*
X26137D02*
D03*
X25967D02*
D03*
X25899D02*
D03*
X25180D02*
D03*
X26986Y24004D02*
D03*
X26561D02*
D03*
X26394D02*
D03*
X26298D02*
D03*
X26137D02*
D03*
X25967D02*
D03*
X25899D02*
D03*
X25180D02*
D03*
X26986Y24007D02*
D03*
X26561D02*
D03*
X26461D02*
D03*
X26394D02*
D03*
X26236D02*
D03*
X26137D02*
D03*
X25967D02*
D03*
X25180D02*
D03*
X26986Y24008D02*
D03*
X26461D02*
D03*
X26394D02*
D03*
X26236D02*
D03*
X25967D02*
D03*
X25898D02*
D03*
X25180D02*
D03*
X26986Y24010D02*
D03*
X26461D02*
D03*
X26236D02*
D03*
X25967D02*
D03*
X25898D02*
D03*
X25180D02*
D03*
X26986Y24013D02*
D03*
X25967D02*
D03*
X26986Y24015D02*
D03*
X25967D02*
D03*
X26986Y24016D02*
D03*
X25967D02*
D03*
X26986Y24019D02*
D03*
X25967D02*
D03*
X26986Y24021D02*
D03*
X25967D02*
D03*
X25775D02*
D03*
X26986Y24022D02*
D03*
X25967D02*
D03*
X25775D02*
D03*
X26986Y24026D02*
D03*
X25967D02*
D03*
X26986Y24027D02*
D03*
X25967D02*
D03*
X26986Y24030D02*
D03*
X25967D02*
D03*
X25773D02*
D03*
X26986Y24032D02*
D03*
X25967D02*
D03*
X26986Y24033D02*
D03*
X25967D02*
D03*
X26986Y24037D02*
D03*
X25967D02*
D03*
X26986Y24038D02*
D03*
X25967D02*
D03*
X26986Y24040D02*
D03*
X25967D02*
D03*
X26986Y24043D02*
D03*
X26394D02*
D03*
X25967D02*
D03*
X25180D02*
D03*
X26986Y24044D02*
D03*
X26394D02*
D03*
X25967D02*
D03*
X25180D02*
D03*
X26986Y24046D02*
D03*
X26394D02*
D03*
X25967D02*
D03*
X25180D02*
D03*
X26986Y24049D02*
D03*
X26394D02*
D03*
X25967D02*
D03*
X25180D02*
D03*
X26986Y24051D02*
D03*
X26394D02*
D03*
X25967D02*
D03*
X25180D02*
D03*
X26986Y24052D02*
D03*
X26394D02*
D03*
X25967D02*
D03*
X25180D02*
D03*
X26986Y24055D02*
D03*
X26394D02*
D03*
X25967D02*
D03*
X25180D02*
D03*
X26986Y24057D02*
D03*
X26394D02*
D03*
X25967D02*
D03*
X25180D02*
D03*
X26986Y24059D02*
D03*
X26394D02*
D03*
X25967D02*
D03*
X25180D02*
D03*
X26986Y24062D02*
D03*
X26394D02*
D03*
X25180D02*
D03*
X26986Y24063D02*
D03*
X26394D02*
D03*
X25180D02*
D03*
X26986Y24065D02*
D03*
X26394D02*
D03*
X25180D02*
D03*
X26986Y24068D02*
D03*
X26394D02*
D03*
X25180D02*
D03*
X26986Y24070D02*
D03*
X26394D02*
D03*
X25180D02*
D03*
X26986Y24071D02*
D03*
X26394D02*
D03*
X25180D02*
D03*
X26986Y24074D02*
D03*
X26394D02*
D03*
X25180D02*
D03*
X26986Y24076D02*
D03*
X26394D02*
D03*
X25180D02*
D03*
X26986Y24078D02*
D03*
X26394D02*
D03*
X25180D02*
D03*
X26986Y24081D02*
D03*
X26394D02*
D03*
X25180D02*
D03*
X26986Y24082D02*
D03*
X26394D02*
D03*
X25180D02*
D03*
X26986Y24084D02*
D03*
X26394D02*
D03*
X25180D02*
D03*
X26986Y24087D02*
D03*
X26394D02*
D03*
X25180D02*
D03*
X26986Y24089D02*
D03*
X26394D02*
D03*
X25180D02*
D03*
X26986Y24090D02*
D03*
X26394D02*
D03*
X25180D02*
D03*
X26986Y24093D02*
D03*
X26394D02*
D03*
X25180D02*
D03*
X26986Y24095D02*
D03*
X26394D02*
D03*
X25180D02*
D03*
X26986Y24096D02*
D03*
X26394D02*
D03*
X25180D02*
D03*
X26986Y24100D02*
D03*
X26394D02*
D03*
X25180D02*
D03*
X26986Y24101D02*
D03*
X26394D02*
D03*
X25180D02*
D03*
X26986Y24103D02*
D03*
X26394D02*
D03*
X25180D02*
D03*
X26986Y24106D02*
D03*
X26394D02*
D03*
X25180D02*
D03*
X26986Y24107D02*
D03*
X26394D02*
D03*
X25180D02*
D03*
X26986Y24109D02*
D03*
X26394D02*
D03*
X25180D02*
D03*
X26986Y24112D02*
D03*
X26394D02*
D03*
X25967D02*
D03*
X25180D02*
D03*
X26394Y24114D02*
D03*
X25180D02*
D03*
X26394Y24115D02*
D03*
X25180D02*
D03*
X26394Y24118D02*
D03*
X25180D02*
D03*
X26394Y24120D02*
D03*
X25180D02*
D03*
X26394Y24122D02*
D03*
X25180D02*
D03*
D80*
X26335Y23931D02*
D03*
X26054Y23958D02*
D03*
X26473Y23959D02*
D03*
X26149D02*
D03*
X25335D02*
D03*
X27061Y23964D02*
D03*
X25891D02*
D03*
X25176D02*
D03*
X25892Y23966D02*
D03*
X27218Y23972D02*
D03*
X27328Y23975D02*
D03*
X27330Y23977D02*
D03*
X25576Y23981D02*
D03*
Y23983D02*
D03*
X27059Y23989D02*
D03*
X26658Y23997D02*
D03*
X26305Y24027D02*
D03*
X25887D02*
D03*
X27136Y24052D02*
D03*
X25572Y24062D02*
D03*
X27330Y24063D02*
D03*
X27213D02*
D03*
X26634Y24074D02*
D03*
X26635Y24076D02*
D03*
X27135Y24078D02*
D03*
D81*
X26035Y23931D02*
D03*
X26475Y23958D02*
D03*
X25261Y23959D02*
D03*
X27062Y23963D02*
D03*
X26974Y23966D02*
D03*
X27325Y23970D02*
D03*
X25572Y23977D02*
D03*
X25174Y24027D02*
D03*
X26547Y24030D02*
D03*
X26473D02*
D03*
X26224D02*
D03*
X26149D02*
D03*
X26330Y24057D02*
D03*
X25116D02*
D03*
X25568Y24068D02*
D03*
X25566Y24070D02*
D03*
X27324Y24071D02*
D03*
X27218D02*
D03*
X26637Y24078D02*
D03*
D82*
X25850Y23931D02*
D03*
X26042Y23944D02*
D03*
X26382Y24032D02*
D03*
X25116Y24052D02*
D03*
X25555Y24078D02*
D03*
X27086Y24112D02*
D03*
X25505D02*
D03*
D83*
X25512Y23931D02*
D03*
X25743Y23994D02*
D03*
X27112Y24032D02*
D03*
X25742Y24051D02*
D03*
D84*
X25120Y23931D02*
D03*
X26390Y23964D02*
D03*
X25577Y23985D02*
D03*
X26390Y24022D02*
D03*
X25889Y24026D02*
D03*
X26228Y24027D02*
D03*
X25571Y24063D02*
D03*
X27327Y24068D02*
D03*
D85*
X27272Y23933D02*
D03*
X26931D02*
D03*
X26187Y23934D02*
D03*
X25850D02*
D03*
X25315Y23945D02*
D03*
X25753Y24002D02*
D03*
X27080Y24008D02*
D03*
X25740Y24052D02*
D03*
X27087Y24741D02*
D03*
D86*
X27109Y23933D02*
D03*
X25511D02*
D03*
X26511Y23937D02*
D03*
X27095Y24019D02*
D03*
X27097Y24021D02*
D03*
X27100Y24022D02*
D03*
X27103Y24026D02*
D03*
X25856Y24044D02*
D03*
X26198Y24175D02*
D03*
D87*
X26614Y23933D02*
D03*
Y23934D02*
D03*
X26616Y23937D02*
D03*
X26620Y23944D02*
D03*
X26622Y23945D02*
D03*
Y23947D02*
D03*
X26627Y23953D02*
D03*
X26628Y23956D02*
D03*
X26553Y23963D02*
D03*
X26307D02*
D03*
X25258D02*
D03*
X26633Y23964D02*
D03*
X26391Y23966D02*
D03*
X25176D02*
D03*
X26976Y23969D02*
D03*
X26883D02*
D03*
X26978Y23970D02*
D03*
X27216Y23975D02*
D03*
X27214Y23977D02*
D03*
X27332Y23981D02*
D03*
X27334Y23985D02*
D03*
X27058Y23988D02*
D03*
X25578D02*
D03*
X26391Y24021D02*
D03*
X25176D02*
D03*
Y24022D02*
D03*
X26553Y24026D02*
D03*
X25090D02*
D03*
X26551Y24027D02*
D03*
X26145D02*
D03*
X26639Y24037D02*
D03*
X27209Y24055D02*
D03*
X25576D02*
D03*
X27332Y24059D02*
D03*
X27214Y24065D02*
D03*
X26633Y24071D02*
D03*
D88*
X26511Y23933D02*
D03*
X25850D02*
D03*
X25555Y23963D02*
D03*
X25848Y24055D02*
D03*
D89*
X26188Y23933D02*
D03*
X25116Y24049D02*
D03*
X25738Y24055D02*
D03*
D90*
X26037Y23933D02*
D03*
X26223Y23958D02*
D03*
X25172Y23959D02*
D03*
X25569Y23972D02*
D03*
X25722Y23978D02*
D03*
X27064Y23996D02*
D03*
X25883Y24030D02*
D03*
X25565Y24071D02*
D03*
X27319Y24076D02*
D03*
D91*
X25757Y23933D02*
D03*
X26511Y23934D02*
D03*
X25316Y23947D02*
D03*
X25738Y23989D02*
D03*
X25750Y24000D02*
D03*
X26330Y24046D02*
D03*
X25116D02*
D03*
D92*
X25317Y23933D02*
D03*
X26550Y23959D02*
D03*
X26310D02*
D03*
X26225D02*
D03*
X25096D02*
D03*
X26389Y23963D02*
D03*
X25890D02*
D03*
X25175D02*
D03*
X26887Y23966D02*
D03*
X27219Y23970D02*
D03*
X25720Y23977D02*
D03*
X25573Y23978D02*
D03*
X27060Y23991D02*
D03*
X25768Y24013D02*
D03*
X26389Y24026D02*
D03*
X25175D02*
D03*
X26642Y24033D02*
D03*
X27134Y24051D02*
D03*
X25570Y24065D02*
D03*
X27216Y24068D02*
D03*
X27326Y24070D02*
D03*
X27217D02*
D03*
X27087Y24114D02*
D03*
X25505D02*
D03*
D93*
X27272Y23934D02*
D03*
X26931D02*
D03*
X26329Y24043D02*
D03*
X25854Y24049D02*
D03*
X27271Y24107D02*
D03*
X27094Y24175D02*
D03*
D94*
X27109Y23934D02*
D03*
X25512D02*
D03*
X27272Y23937D02*
D03*
X26931D02*
D03*
X26187Y23941D02*
D03*
X25748Y23945D02*
D03*
Y23947D02*
D03*
X25860Y23950D02*
D03*
X26694Y24010D02*
D03*
X25860Y24037D02*
D03*
X26510Y24049D02*
D03*
X26186D02*
D03*
D95*
X26335Y23934D02*
D03*
X25120D02*
D03*
X26385Y23958D02*
D03*
X25883D02*
D03*
X25171D02*
D03*
X26969Y23963D02*
D03*
X27226Y23964D02*
D03*
X25566Y23969D02*
D03*
X27065Y23997D02*
D03*
X25765Y24010D02*
D03*
X26385Y24030D02*
D03*
X25171D02*
D03*
X26544Y24032D02*
D03*
X27128Y24044D02*
D03*
X27226Y24078D02*
D03*
X27127Y24082D02*
D03*
D96*
X26038Y23934D02*
D03*
X25317D02*
D03*
X25263Y23958D02*
D03*
X26891Y23963D02*
D03*
X27320Y23966D02*
D03*
X25567Y23970D02*
D03*
X26477Y24032D02*
D03*
X26220D02*
D03*
X26153D02*
D03*
X25098D02*
D03*
X27131Y24046D02*
D03*
X26329Y24055D02*
D03*
X25115D02*
D03*
X27224Y24076D02*
D03*
X27271Y24112D02*
D03*
D97*
X25755Y23934D02*
D03*
X26330Y24044D02*
D03*
X25742Y24049D02*
D03*
D98*
X27272Y23936D02*
D03*
X26931D02*
D03*
D99*
X27109D02*
D03*
X25513D02*
D03*
X26511Y23942D02*
D03*
D100*
X26616Y23936D02*
D03*
X26627Y23955D02*
D03*
X25720D02*
D03*
X26551Y23961D02*
D03*
X26471D02*
D03*
X26146D02*
D03*
X25578Y23986D02*
D03*
X26652Y23993D02*
D03*
X25890Y24024D02*
D03*
X26633Y24073D02*
D03*
D101*
X26512Y23936D02*
D03*
X26187D02*
D03*
X27085Y24011D02*
D03*
X25743Y24048D02*
D03*
D102*
X26334Y23936D02*
D03*
X27313Y24079D02*
D03*
D103*
X26039Y23936D02*
D03*
X26198Y24174D02*
D03*
D104*
X25852Y23936D02*
D03*
D105*
X25754D02*
D03*
X27108Y24029D02*
D03*
X25116Y24041D02*
D03*
D106*
X25120Y23936D02*
D03*
D107*
X27109Y23937D02*
D03*
X27272Y23941D02*
D03*
X26690Y24004D02*
D03*
Y24016D02*
D03*
X27094Y24096D02*
D03*
X25513Y24100D02*
D03*
X27271Y24101D02*
D03*
X27094Y24177D02*
D03*
D108*
X26187Y23937D02*
D03*
X25751Y23939D02*
D03*
X25857Y23944D02*
D03*
X25746Y24038D02*
D03*
Y24040D02*
D03*
X25857Y24043D02*
D03*
X27087Y24107D02*
D03*
D109*
X26039Y23937D02*
D03*
X25846Y24059D02*
D03*
D110*
X25853Y23937D02*
D03*
X27083Y24010D02*
D03*
X27109Y24030D02*
D03*
X25116Y24044D02*
D03*
X26702Y24112D02*
D03*
D111*
X25753Y23937D02*
D03*
X25745Y24044D02*
D03*
D112*
X25513Y23937D02*
D03*
X26932Y23941D02*
D03*
X26511Y23944D02*
D03*
X26187Y24046D02*
D03*
D113*
X27273Y23939D02*
D03*
X25862Y23956D02*
D03*
X26692Y24007D02*
D03*
Y24015D02*
D03*
X27092Y24101D02*
D03*
X25511Y24103D02*
D03*
D114*
X27107Y23939D02*
D03*
X26187Y23945D02*
D03*
X26688Y24000D02*
D03*
X26510Y24043D02*
D03*
X27096Y24093D02*
D03*
X25515Y24096D02*
D03*
X27271Y24100D02*
D03*
X26688Y24106D02*
D03*
D115*
X26931Y23939D02*
D03*
X26693Y24008D02*
D03*
X27091Y24103D02*
D03*
X26693Y24109D02*
D03*
D116*
X26512Y23939D02*
D03*
X26187D02*
D03*
X26055Y24032D02*
D03*
Y24033D02*
D03*
Y24037D02*
D03*
Y24038D02*
D03*
Y24040D02*
D03*
Y24043D02*
D03*
Y24044D02*
D03*
Y24046D02*
D03*
Y24049D02*
D03*
Y24051D02*
D03*
Y24052D02*
D03*
Y24055D02*
D03*
Y24057D02*
D03*
Y24059D02*
D03*
D117*
X26040Y23939D02*
D03*
X25761Y24008D02*
D03*
D118*
X25854Y23939D02*
D03*
X27087Y24013D02*
D03*
X25505Y24109D02*
D03*
D119*
X25514Y23939D02*
D03*
X26689Y24002D02*
D03*
X27095Y24095D02*
D03*
D120*
X25317Y23939D02*
D03*
X26042Y23945D02*
D03*
Y23947D02*
D03*
X25729Y23983D02*
D03*
X27123Y24040D02*
D03*
X26329Y24052D02*
D03*
X26510Y24057D02*
D03*
D121*
X27106Y23941D02*
D03*
X26511Y23947D02*
D03*
X26687Y24019D02*
D03*
X26187Y24043D02*
D03*
D122*
X26511Y23941D02*
D03*
X25861Y23952D02*
D03*
Y23953D02*
D03*
X26694Y24013D02*
D03*
X25861Y24033D02*
D03*
D123*
X26334Y23941D02*
D03*
X25120D02*
D03*
D124*
X25855D02*
D03*
X27091Y24016D02*
D03*
X27106Y24027D02*
D03*
X25855Y24046D02*
D03*
X26510Y24052D02*
D03*
X26186D02*
D03*
X27085Y24109D02*
D03*
D125*
X25750Y23941D02*
D03*
X26056Y24030D02*
D03*
X25747Y24037D02*
D03*
X26511Y24051D02*
D03*
X26187D02*
D03*
X25506Y24107D02*
D03*
D126*
X25516Y23941D02*
D03*
D127*
X25316D02*
D03*
X26043Y23950D02*
D03*
Y23952D02*
D03*
X27073Y24004D02*
D03*
X25116Y24051D02*
D03*
X25846Y24057D02*
D03*
D128*
X27272Y23942D02*
D03*
X26931D02*
D03*
D129*
X27106D02*
D03*
X25517D02*
D03*
X26510Y24041D02*
D03*
X26687Y24104D02*
D03*
D130*
X26334Y23942D02*
D03*
X25120D02*
D03*
X27116Y24035D02*
D03*
X26329Y24048D02*
D03*
X27085Y24111D02*
D03*
X25504D02*
D03*
D131*
X26187Y23942D02*
D03*
X26691Y24005D02*
D03*
D132*
X26042Y23942D02*
D03*
X27125Y24041D02*
D03*
X27229Y24079D02*
D03*
D133*
X25856Y23942D02*
D03*
X27094Y24018D02*
D03*
D134*
X25750Y23942D02*
D03*
X26055Y24035D02*
D03*
Y24041D02*
D03*
Y24048D02*
D03*
Y24054D02*
D03*
D135*
X25316Y23942D02*
D03*
D136*
X27272Y23944D02*
D03*
X27104Y23945D02*
D03*
X26931D02*
D03*
X26187Y23950D02*
D03*
X26685Y24022D02*
D03*
X26510Y24040D02*
D03*
X27099Y24084D02*
D03*
D137*
X27105Y23944D02*
D03*
X25517D02*
D03*
X26686Y24021D02*
D03*
X27098Y24087D02*
D03*
X25517Y24093D02*
D03*
X26686Y24103D02*
D03*
D138*
X26931Y23944D02*
D03*
X26187Y23947D02*
D03*
X27098Y24089D02*
D03*
Y24090D02*
D03*
X25517Y24095D02*
D03*
D139*
X26354Y23944D02*
D03*
X25140D02*
D03*
X27272Y23947D02*
D03*
X26931Y23950D02*
D03*
X25521D02*
D03*
X27101Y23953D02*
D03*
X26187D02*
D03*
X27271Y24095D02*
D03*
X26682Y24096D02*
D03*
D140*
X26187Y23944D02*
D03*
X26510Y24044D02*
D03*
D141*
X25749Y23944D02*
D03*
D142*
X25316D02*
D03*
X25736Y23988D02*
D03*
X27078Y24007D02*
D03*
X26509Y24055D02*
D03*
X26187D02*
D03*
X27270Y24109D02*
D03*
D143*
X27272Y23945D02*
D03*
X25520Y23947D02*
D03*
X26683Y24026D02*
D03*
X26510Y24038D02*
D03*
X25520Y24089D02*
D03*
X27271Y24096D02*
D03*
X26683Y24100D02*
D03*
D144*
X26511Y23945D02*
D03*
X26187Y24044D02*
D03*
D145*
X26354Y23945D02*
D03*
X25139D02*
D03*
Y23947D02*
D03*
X25295Y23950D02*
D03*
X25522Y23952D02*
D03*
X25295D02*
D03*
X25522Y24084D02*
D03*
D146*
X25857Y23945D02*
D03*
D147*
X25519D02*
D03*
X26511Y23950D02*
D03*
X26187Y24038D02*
D03*
Y24040D02*
D03*
X25519Y24090D02*
D03*
D148*
X27103Y23947D02*
D03*
X26684Y24101D02*
D03*
D149*
X26931Y23947D02*
D03*
X26512Y23952D02*
D03*
X26187D02*
D03*
D150*
X26353Y23947D02*
D03*
X25296Y23953D02*
D03*
Y23956D02*
D03*
X27271Y24093D02*
D03*
D151*
X25858Y23947D02*
D03*
Y24040D02*
D03*
X27088Y24106D02*
D03*
D152*
X27272Y23948D02*
D03*
X26028Y24393D02*
D03*
Y24399D02*
D03*
Y24405D02*
D03*
D153*
X27102Y23948D02*
D03*
D154*
X26930D02*
D03*
D155*
X26511D02*
D03*
X26187Y24041D02*
D03*
X27270Y24098D02*
D03*
D156*
X26353Y23948D02*
D03*
X25139D02*
D03*
X25296Y23955D02*
D03*
D157*
X26187Y23948D02*
D03*
X27099Y24085D02*
D03*
X25518Y24092D02*
D03*
D158*
X25859Y23948D02*
D03*
D159*
X25747D02*
D03*
X25509Y24104D02*
D03*
D160*
X25520Y23948D02*
D03*
X26683Y24098D02*
D03*
D161*
X25294Y23948D02*
D03*
X27101Y23955D02*
D03*
X26682Y24029D02*
D03*
X25521Y24085D02*
D03*
D162*
X27272Y23950D02*
D03*
X26351Y23952D02*
D03*
X25137D02*
D03*
X26931Y23953D02*
D03*
X26351D02*
D03*
X25137D02*
D03*
X25524Y23958D02*
D03*
X26679Y24089D02*
D03*
Y24090D02*
D03*
X26197Y24178D02*
D03*
X26036Y24344D02*
D03*
X26035Y24347D02*
D03*
Y24350D02*
D03*
X26354Y24356D02*
D03*
X26356Y24363D02*
D03*
Y24364D02*
D03*
X26031D02*
D03*
X26356Y24366D02*
D03*
Y24369D02*
D03*
X26358Y24375D02*
D03*
Y24377D02*
D03*
Y24378D02*
D03*
D163*
X27102Y23950D02*
D03*
Y23952D02*
D03*
X26511Y23953D02*
D03*
X26683Y24027D02*
D03*
X26511Y24037D02*
D03*
X25520Y24087D02*
D03*
D164*
X26352Y23950D02*
D03*
X26358Y24381D02*
D03*
Y24383D02*
D03*
Y24385D02*
D03*
Y24388D02*
D03*
Y24389D02*
D03*
Y24391D02*
D03*
Y24394D02*
D03*
Y24396D02*
D03*
Y24397D02*
D03*
D165*
X25746Y23950D02*
D03*
Y23952D02*
D03*
X27271Y24103D02*
D03*
D166*
X25138Y23950D02*
D03*
X25524Y23956D02*
D03*
Y24081D02*
D03*
X25846Y24175D02*
D03*
Y24177D02*
D03*
Y24178D02*
D03*
Y24181D02*
D03*
Y24183D02*
D03*
Y24185D02*
D03*
Y24188D02*
D03*
Y24189D02*
D03*
Y24191D02*
D03*
Y24194D02*
D03*
Y24196D02*
D03*
Y24197D02*
D03*
Y24200D02*
D03*
Y24202D02*
D03*
Y24204D02*
D03*
Y24207D02*
D03*
Y24208D02*
D03*
Y24210D02*
D03*
Y24213D02*
D03*
Y24215D02*
D03*
Y24216D02*
D03*
Y24219D02*
D03*
Y24221D02*
D03*
Y24222D02*
D03*
Y24226D02*
D03*
Y24227D02*
D03*
Y24229D02*
D03*
Y24232D02*
D03*
Y24233D02*
D03*
Y24237D02*
D03*
Y24238D02*
D03*
Y24240D02*
D03*
Y24243D02*
D03*
Y24244D02*
D03*
Y24246D02*
D03*
Y24249D02*
D03*
Y24251D02*
D03*
Y24252D02*
D03*
Y24255D02*
D03*
Y24257D02*
D03*
Y24259D02*
D03*
Y24262D02*
D03*
Y24263D02*
D03*
Y24265D02*
D03*
Y24268D02*
D03*
Y24270D02*
D03*
Y24271D02*
D03*
Y24274D02*
D03*
Y24276D02*
D03*
Y24278D02*
D03*
Y24281D02*
D03*
Y24282D02*
D03*
Y24284D02*
D03*
Y24287D02*
D03*
Y24289D02*
D03*
Y24290D02*
D03*
Y24293D02*
D03*
Y24295D02*
D03*
Y24296D02*
D03*
Y24300D02*
D03*
Y24301D02*
D03*
Y24303D02*
D03*
Y24306D02*
D03*
Y24307D02*
D03*
Y24309D02*
D03*
Y24312D02*
D03*
Y24314D02*
D03*
Y24315D02*
D03*
Y24318D02*
D03*
Y24320D02*
D03*
Y24322D02*
D03*
Y24325D02*
D03*
Y24326D02*
D03*
Y24328D02*
D03*
Y24331D02*
D03*
Y24333D02*
D03*
Y24334D02*
D03*
Y24337D02*
D03*
Y24339D02*
D03*
Y24341D02*
D03*
Y24344D02*
D03*
Y24345D02*
D03*
Y24347D02*
D03*
Y24350D02*
D03*
X26034Y24352D02*
D03*
X25846D02*
D03*
X26034Y24353D02*
D03*
X25846D02*
D03*
Y24356D02*
D03*
X26032Y24358D02*
D03*
X25846D02*
D03*
X26032Y24359D02*
D03*
X25846D02*
D03*
X26032Y24363D02*
D03*
X25846D02*
D03*
Y24364D02*
D03*
X26031Y24366D02*
D03*
X25846D02*
D03*
X26031Y24369D02*
D03*
X25846D02*
D03*
X26357Y24370D02*
D03*
X26031D02*
D03*
X25846D02*
D03*
X26357Y24372D02*
D03*
X26031D02*
D03*
X25846D02*
D03*
Y24375D02*
D03*
Y24377D02*
D03*
Y24378D02*
D03*
X26029Y24381D02*
D03*
X25846D02*
D03*
X26029Y24383D02*
D03*
X25846D02*
D03*
X26029Y24385D02*
D03*
X25846D02*
D03*
X26029Y24388D02*
D03*
X25846D02*
D03*
X26029Y24389D02*
D03*
X25846D02*
D03*
X26360Y24400D02*
D03*
Y24402D02*
D03*
Y24404D02*
D03*
Y24407D02*
D03*
X26028D02*
D03*
X26360Y24408D02*
D03*
X26028D02*
D03*
X26360Y24410D02*
D03*
X26028D02*
D03*
X26360Y24413D02*
D03*
X26028D02*
D03*
X26360Y24415D02*
D03*
X26028D02*
D03*
X26360Y24416D02*
D03*
X26028D02*
D03*
X26360Y24419D02*
D03*
X26028D02*
D03*
X26360Y24421D02*
D03*
X26028D02*
D03*
X26360Y24422D02*
D03*
X26028D02*
D03*
X26360Y24426D02*
D03*
X26028D02*
D03*
X26360Y24427D02*
D03*
X26028D02*
D03*
X26360Y24429D02*
D03*
X26028D02*
D03*
X26360Y24432D02*
D03*
X26028D02*
D03*
X26360Y24433D02*
D03*
X26028D02*
D03*
X26360Y24437D02*
D03*
X26028D02*
D03*
X26360Y24438D02*
D03*
X26028D02*
D03*
X26360Y24440D02*
D03*
X26028D02*
D03*
X26360Y24443D02*
D03*
X26028D02*
D03*
X26360Y24444D02*
D03*
X26028D02*
D03*
X26360Y24446D02*
D03*
X26028D02*
D03*
X26360Y24449D02*
D03*
X26028D02*
D03*
X26360Y24451D02*
D03*
X26028D02*
D03*
X26360Y24452D02*
D03*
X26028D02*
D03*
X26360Y24455D02*
D03*
X26028D02*
D03*
X26360Y24457D02*
D03*
X26028D02*
D03*
X26360Y24459D02*
D03*
X26028D02*
D03*
X26360Y24462D02*
D03*
X26028D02*
D03*
X26360Y24463D02*
D03*
X26028D02*
D03*
X26360Y24465D02*
D03*
X26028D02*
D03*
X26360Y24468D02*
D03*
X26028D02*
D03*
X26360Y24470D02*
D03*
X26028D02*
D03*
X26360Y24471D02*
D03*
X26028D02*
D03*
X26360Y24474D02*
D03*
X26028D02*
D03*
X26360Y24476D02*
D03*
X26028D02*
D03*
X26360Y24478D02*
D03*
X26028D02*
D03*
X26360Y24481D02*
D03*
X26028D02*
D03*
X26360Y24482D02*
D03*
X26028D02*
D03*
X26360Y24484D02*
D03*
X26028D02*
D03*
X26360Y24487D02*
D03*
X26028D02*
D03*
X26360Y24489D02*
D03*
X26028D02*
D03*
X25846D02*
D03*
X26360Y24490D02*
D03*
X26028D02*
D03*
X25846D02*
D03*
X26360Y24493D02*
D03*
X26028D02*
D03*
X25846D02*
D03*
X26360Y24495D02*
D03*
X26028D02*
D03*
X25846D02*
D03*
X26360Y24496D02*
D03*
X26028D02*
D03*
X25846D02*
D03*
X26360Y24500D02*
D03*
X26028D02*
D03*
X25846D02*
D03*
X26360Y24501D02*
D03*
X26028D02*
D03*
X25846D02*
D03*
X26360Y24503D02*
D03*
X26028D02*
D03*
X25846D02*
D03*
X26360Y24506D02*
D03*
X26028D02*
D03*
X25846D02*
D03*
X26360Y24507D02*
D03*
X26028D02*
D03*
X25846D02*
D03*
X26360Y24509D02*
D03*
X26028D02*
D03*
X25846D02*
D03*
X26360Y24512D02*
D03*
X26028D02*
D03*
X25846D02*
D03*
X26360Y24514D02*
D03*
X26028D02*
D03*
X25846D02*
D03*
X26360Y24515D02*
D03*
X26028D02*
D03*
X25846D02*
D03*
X26360Y24518D02*
D03*
X26028D02*
D03*
X25846D02*
D03*
X26360Y24520D02*
D03*
X26028D02*
D03*
X25846D02*
D03*
X26360Y24522D02*
D03*
X26028D02*
D03*
X25846D02*
D03*
X26360Y24525D02*
D03*
X26028D02*
D03*
X25846D02*
D03*
X26360Y24526D02*
D03*
X26028D02*
D03*
X25846D02*
D03*
X26360Y24528D02*
D03*
X26028D02*
D03*
X25846D02*
D03*
X26360Y24531D02*
D03*
X26028D02*
D03*
X25846D02*
D03*
X26360Y24533D02*
D03*
X26028D02*
D03*
X25846D02*
D03*
X26360Y24534D02*
D03*
X26028D02*
D03*
X25846D02*
D03*
X26360Y24537D02*
D03*
X26028D02*
D03*
X25846D02*
D03*
X26360Y24539D02*
D03*
X26028D02*
D03*
X25846D02*
D03*
X26360Y24541D02*
D03*
X26028D02*
D03*
X25846D02*
D03*
X26360Y24544D02*
D03*
X26028D02*
D03*
X25846D02*
D03*
X26360Y24545D02*
D03*
X26028D02*
D03*
X25846D02*
D03*
X26360Y24547D02*
D03*
X26028D02*
D03*
X25846D02*
D03*
X26360Y24550D02*
D03*
X26028D02*
D03*
X25846D02*
D03*
X26360Y24552D02*
D03*
X26028D02*
D03*
X25846D02*
D03*
X26360Y24553D02*
D03*
X26028D02*
D03*
X25846D02*
D03*
X26360Y24556D02*
D03*
X26028D02*
D03*
X25846D02*
D03*
X26360Y24558D02*
D03*
X26028D02*
D03*
X25846D02*
D03*
X26360Y24559D02*
D03*
X26028D02*
D03*
X25846D02*
D03*
X26360Y24563D02*
D03*
X26028D02*
D03*
X25846D02*
D03*
X26360Y24564D02*
D03*
X26028D02*
D03*
X25846D02*
D03*
X26360Y24566D02*
D03*
X26028D02*
D03*
X25846D02*
D03*
X26360Y24569D02*
D03*
X26028D02*
D03*
X25846D02*
D03*
X26360Y24570D02*
D03*
X26028D02*
D03*
X25846D02*
D03*
X26360Y24572D02*
D03*
X26028D02*
D03*
X25846D02*
D03*
X26360Y24575D02*
D03*
X26028D02*
D03*
X25846D02*
D03*
X26360Y24577D02*
D03*
X26028D02*
D03*
X25846D02*
D03*
X26360Y24578D02*
D03*
X26028D02*
D03*
X25846D02*
D03*
X26360Y24581D02*
D03*
X26028D02*
D03*
X25846D02*
D03*
X26360Y24583D02*
D03*
X26028D02*
D03*
X25846D02*
D03*
X26360Y24585D02*
D03*
X26028D02*
D03*
X25846D02*
D03*
X26360Y24588D02*
D03*
X26028D02*
D03*
X25846D02*
D03*
X26360Y24589D02*
D03*
X26028D02*
D03*
X25846D02*
D03*
X26360Y24591D02*
D03*
X26028D02*
D03*
X25846D02*
D03*
X26360Y24594D02*
D03*
X26028D02*
D03*
X25846D02*
D03*
X26360Y24596D02*
D03*
X26028D02*
D03*
X25846D02*
D03*
X26360Y24597D02*
D03*
X26028D02*
D03*
X25846D02*
D03*
X26360Y24600D02*
D03*
X26028D02*
D03*
X25846D02*
D03*
X26360Y24602D02*
D03*
X26028D02*
D03*
X25846D02*
D03*
X26360Y24604D02*
D03*
X26028D02*
D03*
X25846D02*
D03*
X26360Y24607D02*
D03*
X26028D02*
D03*
X25846D02*
D03*
X26360Y24608D02*
D03*
X26028D02*
D03*
X25846D02*
D03*
X26360Y24610D02*
D03*
X26028D02*
D03*
X25846D02*
D03*
X26360Y24613D02*
D03*
X26028D02*
D03*
X25846D02*
D03*
X26360Y24615D02*
D03*
X26028D02*
D03*
X25846D02*
D03*
X26360Y24616D02*
D03*
X26028D02*
D03*
X25846D02*
D03*
X26360Y24619D02*
D03*
X26028D02*
D03*
X25846D02*
D03*
X26360Y24621D02*
D03*
X26028D02*
D03*
X25846D02*
D03*
X26360Y24622D02*
D03*
X26028D02*
D03*
X25846D02*
D03*
X26360Y24626D02*
D03*
X26028D02*
D03*
X25846D02*
D03*
X26360Y24627D02*
D03*
X26028D02*
D03*
X25846D02*
D03*
X26360Y24629D02*
D03*
X26028D02*
D03*
X25846D02*
D03*
X26360Y24632D02*
D03*
X26028D02*
D03*
X25846D02*
D03*
X26360Y24633D02*
D03*
X26028D02*
D03*
X25846D02*
D03*
X26360Y24637D02*
D03*
X26028D02*
D03*
X25846D02*
D03*
X26360Y24638D02*
D03*
X26028D02*
D03*
X25846D02*
D03*
X26360Y24640D02*
D03*
X26028D02*
D03*
X25846D02*
D03*
X26360Y24643D02*
D03*
X26028D02*
D03*
X25846D02*
D03*
X26360Y24644D02*
D03*
X26028D02*
D03*
X25846D02*
D03*
X26360Y24646D02*
D03*
X26028D02*
D03*
X25846D02*
D03*
X26360Y24649D02*
D03*
X26028D02*
D03*
X26360Y24651D02*
D03*
X26028D02*
D03*
X26360Y24652D02*
D03*
X26028D02*
D03*
X26360Y24655D02*
D03*
X26028D02*
D03*
X26360Y24657D02*
D03*
X26028D02*
D03*
X26360Y24659D02*
D03*
X26028D02*
D03*
X26360Y24662D02*
D03*
X26028D02*
D03*
X26360Y24663D02*
D03*
X26028D02*
D03*
X26360Y24665D02*
D03*
X26028D02*
D03*
X26360Y24668D02*
D03*
X26028D02*
D03*
X26360Y24670D02*
D03*
X26028D02*
D03*
X26360Y24671D02*
D03*
X26028D02*
D03*
X26360Y24674D02*
D03*
X26028D02*
D03*
X26360Y24676D02*
D03*
X26028D02*
D03*
X26360Y24678D02*
D03*
X26028D02*
D03*
X26360Y24681D02*
D03*
X26028D02*
D03*
X26360Y24682D02*
D03*
X26028D02*
D03*
X26360Y24684D02*
D03*
X26028D02*
D03*
X26360Y24687D02*
D03*
X26028D02*
D03*
X26360Y24689D02*
D03*
X26028D02*
D03*
X26360Y24690D02*
D03*
X26028D02*
D03*
X26360Y24693D02*
D03*
X26028D02*
D03*
X26360Y24695D02*
D03*
X26028D02*
D03*
X26360Y24696D02*
D03*
X26028D02*
D03*
X26360Y24700D02*
D03*
X26028D02*
D03*
X26360Y24701D02*
D03*
X26028D02*
D03*
X26360Y24703D02*
D03*
X26028D02*
D03*
X26360Y24706D02*
D03*
X26028D02*
D03*
X26360Y24707D02*
D03*
X26028D02*
D03*
X26360Y24709D02*
D03*
X26028D02*
D03*
X26360Y24712D02*
D03*
X26028D02*
D03*
X26360Y24714D02*
D03*
X26028D02*
D03*
X26360Y24715D02*
D03*
X26028D02*
D03*
X26360Y24718D02*
D03*
X26028D02*
D03*
X26360Y24720D02*
D03*
X26028D02*
D03*
X26360Y24722D02*
D03*
X26028D02*
D03*
X26360Y24725D02*
D03*
X26028D02*
D03*
X26360Y24726D02*
D03*
X26028D02*
D03*
X26360Y24728D02*
D03*
X26028D02*
D03*
X26360Y24731D02*
D03*
X26028D02*
D03*
X26360Y24733D02*
D03*
X26028D02*
D03*
X26360Y24734D02*
D03*
X26028D02*
D03*
X26360Y24737D02*
D03*
X26028D02*
D03*
X26360Y24739D02*
D03*
X26028D02*
D03*
X26360Y24741D02*
D03*
X26028D02*
D03*
D167*
X27272Y23952D02*
D03*
X26677Y24082D02*
D03*
Y24084D02*
D03*
X27271Y24090D02*
D03*
X26509Y24325D02*
D03*
Y24326D02*
D03*
Y24328D02*
D03*
X26041D02*
D03*
X26039Y24331D02*
D03*
Y24333D02*
D03*
X26351Y24341D02*
D03*
Y24344D02*
D03*
X26890Y24416D02*
D03*
X26888Y24432D02*
D03*
Y24433D02*
D03*
Y24437D02*
D03*
X25427Y24468D02*
D03*
Y24470D02*
D03*
Y24471D02*
D03*
X27296Y24474D02*
D03*
X25427D02*
D03*
X27296Y24476D02*
D03*
Y24478D02*
D03*
X25425Y24489D02*
D03*
X27294Y24493D02*
D03*
X25583Y24541D02*
D03*
X25578Y24559D02*
D03*
Y24563D02*
D03*
Y24564D02*
D03*
Y24566D02*
D03*
D168*
X26931Y23952D02*
D03*
X25523Y23953D02*
D03*
X26512Y23956D02*
D03*
X26187D02*
D03*
X26510Y24033D02*
D03*
X25523Y24082D02*
D03*
X26680Y24093D02*
D03*
X27095Y24178D02*
D03*
X26030Y24375D02*
D03*
Y24377D02*
D03*
Y24378D02*
D03*
X26028Y24391D02*
D03*
Y24394D02*
D03*
Y24396D02*
D03*
Y24397D02*
D03*
Y24400D02*
D03*
Y24402D02*
D03*
Y24404D02*
D03*
D169*
X27272Y23953D02*
D03*
X26931Y23959D02*
D03*
X27271Y24089D02*
D03*
X26510Y24312D02*
D03*
X26044Y24320D02*
D03*
X26346Y24328D02*
D03*
X26509Y24331D02*
D03*
X26348D02*
D03*
X26509Y24333D02*
D03*
Y24334D02*
D03*
Y24337D02*
D03*
Y24339D02*
D03*
X26901Y24366D02*
D03*
X26898Y24375D02*
D03*
Y24377D02*
D03*
Y24378D02*
D03*
X26896Y24381D02*
D03*
Y24383D02*
D03*
X26894Y24388D02*
D03*
Y24389D02*
D03*
X27291Y24394D02*
D03*
Y24396D02*
D03*
Y24397D02*
D03*
X27294Y24413D02*
D03*
X25425D02*
D03*
X27294Y24415D02*
D03*
X25425D02*
D03*
X27294Y24416D02*
D03*
X25425D02*
D03*
X27294Y24419D02*
D03*
X25425D02*
D03*
X25427Y24426D02*
D03*
Y24427D02*
D03*
Y24429D02*
D03*
X27296Y24432D02*
D03*
X25427D02*
D03*
X27296Y24433D02*
D03*
X25427D02*
D03*
X26888Y24481D02*
D03*
Y24482D02*
D03*
Y24484D02*
D03*
Y24487D02*
D03*
X26890Y24500D02*
D03*
Y24501D02*
D03*
Y24503D02*
D03*
X26891Y24507D02*
D03*
X25422D02*
D03*
X26891Y24509D02*
D03*
X25422D02*
D03*
X26891Y24512D02*
D03*
X27291Y24514D02*
D03*
X26891D02*
D03*
X25420D02*
D03*
X27291Y24515D02*
D03*
X26891D02*
D03*
X25420D02*
D03*
X27290Y24520D02*
D03*
X25419D02*
D03*
X27290Y24522D02*
D03*
X25419D02*
D03*
X27288Y24526D02*
D03*
X25589D02*
D03*
X27288Y24528D02*
D03*
X26894D02*
D03*
X27288Y24531D02*
D03*
X25586Y24533D02*
D03*
X25416D02*
D03*
X27285Y24541D02*
D03*
X26756Y24578D02*
D03*
Y24581D02*
D03*
X25578Y24588D02*
D03*
Y24589D02*
D03*
Y24591D02*
D03*
Y24594D02*
D03*
X26754Y24602D02*
D03*
Y24604D02*
D03*
X26753Y24607D02*
D03*
Y24608D02*
D03*
D170*
X25746Y23953D02*
D03*
D171*
X27272Y23955D02*
D03*
X27095Y24180D02*
D03*
X26049Y24311D02*
D03*
X26342Y24317D02*
D03*
X26512Y24348D02*
D03*
X27287Y24374D02*
D03*
X25422Y24393D02*
D03*
X26898Y24542D02*
D03*
X25413D02*
D03*
X26899Y24548D02*
D03*
X27280Y24555D02*
D03*
X25580Y24605D02*
D03*
D172*
X26931Y23955D02*
D03*
X26036Y24342D02*
D03*
X26035Y24348D02*
D03*
X26356Y24367D02*
D03*
X26358Y24374D02*
D03*
Y24380D02*
D03*
X26359Y24399D02*
D03*
D173*
X26511Y23955D02*
D03*
X26187D02*
D03*
X26511Y24035D02*
D03*
X26187D02*
D03*
D174*
X26350Y23955D02*
D03*
X25136D02*
D03*
X26353Y24355D02*
D03*
X26355Y24361D02*
D03*
D175*
X26044Y23955D02*
D03*
X25757Y24005D02*
D03*
X25551Y24079D02*
D03*
D176*
X25861Y23955D02*
D03*
X26510Y24048D02*
D03*
X26186D02*
D03*
D177*
X25783Y23955D02*
D03*
D178*
X25524D02*
D03*
X26679Y24092D02*
D03*
X25846Y24174D02*
D03*
Y24180D02*
D03*
Y24186D02*
D03*
Y24193D02*
D03*
Y24199D02*
D03*
Y24205D02*
D03*
Y24211D02*
D03*
Y24218D02*
D03*
Y24224D02*
D03*
Y24230D02*
D03*
Y24235D02*
D03*
Y24241D02*
D03*
Y24248D02*
D03*
Y24254D02*
D03*
Y24260D02*
D03*
Y24267D02*
D03*
Y24273D02*
D03*
Y24279D02*
D03*
Y24285D02*
D03*
Y24292D02*
D03*
Y24298D02*
D03*
Y24304D02*
D03*
Y24311D02*
D03*
Y24317D02*
D03*
Y24323D02*
D03*
Y24330D02*
D03*
Y24336D02*
D03*
Y24342D02*
D03*
Y24348D02*
D03*
Y24355D02*
D03*
X26032Y24361D02*
D03*
X25846D02*
D03*
X26031Y24367D02*
D03*
X25846D02*
D03*
X26031Y24374D02*
D03*
X25846D02*
D03*
X26029Y24380D02*
D03*
X25846D02*
D03*
X26029Y24386D02*
D03*
X25846D02*
D03*
X26360Y24405D02*
D03*
Y24411D02*
D03*
X26028D02*
D03*
X26360Y24418D02*
D03*
X26028D02*
D03*
X26360Y24424D02*
D03*
X26028D02*
D03*
X26360Y24430D02*
D03*
X26028D02*
D03*
X26360Y24435D02*
D03*
X26028D02*
D03*
X26360Y24441D02*
D03*
X26028D02*
D03*
X26360Y24448D02*
D03*
X26028D02*
D03*
X26360Y24454D02*
D03*
X26028D02*
D03*
X26360Y24460D02*
D03*
X26028D02*
D03*
X26360Y24467D02*
D03*
X26028D02*
D03*
X26360Y24473D02*
D03*
X26028D02*
D03*
X26360Y24479D02*
D03*
X26028D02*
D03*
X26360Y24485D02*
D03*
X26028D02*
D03*
X26360Y24492D02*
D03*
X26028D02*
D03*
X25846D02*
D03*
X26360Y24498D02*
D03*
X26028D02*
D03*
X25846D02*
D03*
X26360Y24504D02*
D03*
X26028D02*
D03*
X25846D02*
D03*
X26360Y24511D02*
D03*
X26028D02*
D03*
X25846D02*
D03*
X26360Y24517D02*
D03*
X26028D02*
D03*
X25846D02*
D03*
X26360Y24523D02*
D03*
X26028D02*
D03*
X25846D02*
D03*
X26360Y24530D02*
D03*
X26028D02*
D03*
X25846D02*
D03*
X26360Y24536D02*
D03*
X26028D02*
D03*
X25846D02*
D03*
X26360Y24542D02*
D03*
X26028D02*
D03*
X25846D02*
D03*
X26360Y24548D02*
D03*
X26028D02*
D03*
X25846D02*
D03*
X26360Y24555D02*
D03*
X26028D02*
D03*
X25846D02*
D03*
X26360Y24561D02*
D03*
X26028D02*
D03*
X25846D02*
D03*
X26360Y24567D02*
D03*
X26028D02*
D03*
X25846D02*
D03*
X26360Y24574D02*
D03*
X26028D02*
D03*
X25846D02*
D03*
X26360Y24580D02*
D03*
X26028D02*
D03*
X25846D02*
D03*
X26360Y24586D02*
D03*
X26028D02*
D03*
X25846D02*
D03*
X26360Y24593D02*
D03*
X26028D02*
D03*
X25846D02*
D03*
X26360Y24599D02*
D03*
X26028D02*
D03*
X25846D02*
D03*
X26360Y24605D02*
D03*
X26028D02*
D03*
X25846D02*
D03*
X26360Y24611D02*
D03*
X26028D02*
D03*
X25846D02*
D03*
X26360Y24618D02*
D03*
X26028D02*
D03*
X25846D02*
D03*
X26360Y24624D02*
D03*
X26028D02*
D03*
X25846D02*
D03*
X26360Y24630D02*
D03*
X26028D02*
D03*
X25846D02*
D03*
X26360Y24635D02*
D03*
X26028D02*
D03*
X25846D02*
D03*
X26360Y24641D02*
D03*
X26028D02*
D03*
X25846D02*
D03*
X26360Y24648D02*
D03*
X26028D02*
D03*
X26360Y24654D02*
D03*
X26028D02*
D03*
X26360Y24660D02*
D03*
X26028D02*
D03*
X26360Y24667D02*
D03*
X26028D02*
D03*
X26360Y24673D02*
D03*
X26028D02*
D03*
X26360Y24679D02*
D03*
X26028D02*
D03*
X26360Y24685D02*
D03*
X26028D02*
D03*
X26360Y24692D02*
D03*
X26028D02*
D03*
X26360Y24698D02*
D03*
X26028D02*
D03*
X26360Y24704D02*
D03*
X26028D02*
D03*
X26360Y24711D02*
D03*
X26028D02*
D03*
X26360Y24717D02*
D03*
X26028D02*
D03*
X26360Y24723D02*
D03*
X26028D02*
D03*
X26360Y24730D02*
D03*
X26028D02*
D03*
X26360Y24736D02*
D03*
X26028D02*
D03*
X26360Y24742D02*
D03*
X26028D02*
D03*
D179*
X27272Y23956D02*
D03*
X25583Y24281D02*
D03*
X25584Y24282D02*
D03*
Y24284D02*
D03*
X25587Y24289D02*
D03*
X25591Y24293D02*
D03*
X26516Y24295D02*
D03*
X25592Y24296D02*
D03*
X25594Y24300D02*
D03*
X25598Y24306D02*
D03*
Y24307D02*
D03*
X25600Y24309D02*
D03*
X26340Y24314D02*
D03*
X25603D02*
D03*
X25606Y24320D02*
D03*
X25609Y24325D02*
D03*
X25611Y24328D02*
D03*
X26913Y24337D02*
D03*
X25617D02*
D03*
X26912Y24339D02*
D03*
X25619Y24341D02*
D03*
X25622Y24345D02*
D03*
X25625Y24350D02*
D03*
X27279Y24352D02*
D03*
Y24353D02*
D03*
X26513D02*
D03*
X27280Y24356D02*
D03*
X25630D02*
D03*
X25631Y24359D02*
D03*
X25635Y24363D02*
D03*
X25636Y24366D02*
D03*
X25416Y24370D02*
D03*
Y24372D02*
D03*
X25417Y24375D02*
D03*
Y24377D02*
D03*
X25600Y24509D02*
D03*
X25406Y24556D02*
D03*
Y24558D02*
D03*
X25405Y24559D02*
D03*
X26751Y24563D02*
D03*
X26906Y24564D02*
D03*
X27276Y24566D02*
D03*
X26906D02*
D03*
X27274Y24569D02*
D03*
X26907D02*
D03*
X27274Y24570D02*
D03*
X27272Y24572D02*
D03*
X25583Y24613D02*
D03*
Y24615D02*
D03*
X26748Y24619D02*
D03*
D180*
X27100Y23956D02*
D03*
Y23958D02*
D03*
X26681Y24030D02*
D03*
X26187Y24033D02*
D03*
X26681Y24095D02*
D03*
D181*
X26931Y23956D02*
D03*
X26350D02*
D03*
Y24037D02*
D03*
X25135D02*
D03*
X26350Y24038D02*
D03*
Y24337D02*
D03*
X25581Y24545D02*
D03*
Y24547D02*
D03*
X25580Y24550D02*
D03*
Y24552D02*
D03*
Y24553D02*
D03*
Y24556D02*
D03*
X26756Y24589D02*
D03*
Y24591D02*
D03*
D182*
X25785Y23956D02*
D03*
X25472Y24078D02*
D03*
D183*
X25717Y23956D02*
D03*
X26393Y23975D02*
D03*
X26879Y23977D02*
D03*
X26393D02*
D03*
X25086D02*
D03*
X25898Y23978D02*
D03*
X25086D02*
D03*
X25898Y23981D02*
D03*
X26298Y23983D02*
D03*
X25898D02*
D03*
X26298Y23985D02*
D03*
Y23988D02*
D03*
X26561Y23991D02*
D03*
Y23994D02*
D03*
Y23996D02*
D03*
Y23997D02*
D03*
X27206Y24000D02*
D03*
X26298Y24007D02*
D03*
X25898D02*
D03*
X26298Y24008D02*
D03*
X26393Y24010D02*
D03*
X26298D02*
D03*
X26393Y24013D02*
D03*
X26298D02*
D03*
X25086D02*
D03*
Y24015D02*
D03*
Y24016D02*
D03*
X25774Y24019D02*
D03*
X26631Y24057D02*
D03*
Y24059D02*
D03*
D184*
X25136Y23956D02*
D03*
X25525Y23959D02*
D03*
X25136Y24038D02*
D03*
X26350Y24040D02*
D03*
X25136D02*
D03*
X26037Y24337D02*
D03*
Y24339D02*
D03*
Y24341D02*
D03*
X26035Y24345D02*
D03*
X26353Y24350D02*
D03*
Y24352D02*
D03*
Y24353D02*
D03*
X26355Y24358D02*
D03*
Y24359D02*
D03*
D185*
X27272Y23958D02*
D03*
X26920Y24326D02*
D03*
X26917Y24331D02*
D03*
X27272Y24339D02*
D03*
X27276Y24345D02*
D03*
X26515Y24358D02*
D03*
X25413Y24363D02*
D03*
X25646Y24377D02*
D03*
X25647Y24378D02*
D03*
X25603Y24506D02*
D03*
X25400Y24569D02*
D03*
Y24570D02*
D03*
X26913Y24581D02*
D03*
X27266Y24583D02*
D03*
Y24585D02*
D03*
X25584Y24619D02*
D03*
D186*
X26930Y23958D02*
D03*
X26349Y24033D02*
D03*
Y24333D02*
D03*
Y24334D02*
D03*
X25587Y24531D02*
D03*
X26755Y24583D02*
D03*
Y24585D02*
D03*
Y24588D02*
D03*
Y24594D02*
D03*
Y24596D02*
D03*
Y24597D02*
D03*
Y24600D02*
D03*
D187*
X26629Y23958D02*
D03*
X26632Y23963D02*
D03*
X26229D02*
D03*
X26146D02*
D03*
X26554Y23964D02*
D03*
X26144D02*
D03*
X25257D02*
D03*
X26634Y23966D02*
D03*
X25257D02*
D03*
X25091D02*
D03*
X27057Y23969D02*
D03*
X26391D02*
D03*
X25894D02*
D03*
X26883Y23970D02*
D03*
X25895D02*
D03*
X26979Y23972D02*
D03*
X26881D02*
D03*
X26640Y23975D02*
D03*
X27213Y23978D02*
D03*
X27333Y23983D02*
D03*
X26645D02*
D03*
X27210Y23985D02*
D03*
X27057D02*
D03*
X26646D02*
D03*
X27335Y23988D02*
D03*
X27209Y23989D02*
D03*
X27338Y23996D02*
D03*
Y23997D02*
D03*
X25582D02*
D03*
Y24000D02*
D03*
X25771Y24015D02*
D03*
X26391Y24019D02*
D03*
X25894D02*
D03*
X25177D02*
D03*
X26302Y24021D02*
D03*
X25087D02*
D03*
X26302Y24022D02*
D03*
X25089D02*
D03*
X26229Y24026D02*
D03*
X26144D02*
D03*
X26639Y24038D02*
D03*
X27207Y24049D02*
D03*
X25579D02*
D03*
Y24051D02*
D03*
X27335Y24052D02*
D03*
X27209D02*
D03*
X25577D02*
D03*
X27333Y24057D02*
D03*
X27210D02*
D03*
X27138D02*
D03*
Y24059D02*
D03*
X25116D02*
D03*
X26632Y24068D02*
D03*
Y24070D02*
D03*
D188*
X26013Y23958D02*
D03*
X25816Y23963D02*
D03*
X25465Y23970D02*
D03*
X25816Y24027D02*
D03*
X25705Y24030D02*
D03*
X27046Y24074D02*
D03*
D189*
X25787Y23958D02*
D03*
X25710Y24033D02*
D03*
X25967Y24122D02*
D03*
D190*
X25333Y23958D02*
D03*
X27221Y23969D02*
D03*
X27327Y23972D02*
D03*
X26308Y24030D02*
D03*
X27133Y24049D02*
D03*
D191*
X25098Y23958D02*
D03*
X26387Y23959D02*
D03*
X25886D02*
D03*
X27224Y23966D02*
D03*
X27130Y24081D02*
D03*
D192*
X27273Y23959D02*
D03*
X27272Y24082D02*
D03*
X26520Y24290D02*
D03*
X26056Y24300D02*
D03*
X26333Y24303D02*
D03*
X26922Y24322D02*
D03*
X26920Y24325D02*
D03*
X27270Y24334D02*
D03*
X27272Y24337D02*
D03*
X27273Y24341D02*
D03*
X25409Y24353D02*
D03*
X25410Y24356D02*
D03*
X26516Y24359D02*
D03*
X25651Y24381D02*
D03*
X25396Y24575D02*
D03*
X26914Y24583D02*
D03*
X26916Y24585D02*
D03*
X27264Y24588D02*
D03*
X26917D02*
D03*
X25587Y24622D02*
D03*
D193*
X27142Y23959D02*
D03*
X25713Y23963D02*
D03*
Y23964D02*
D03*
Y23966D02*
D03*
X25967Y24115D02*
D03*
D194*
X27067Y23959D02*
D03*
X26311Y24032D02*
D03*
X25561Y24074D02*
D03*
D195*
X26011Y23959D02*
D03*
X26510Y24063D02*
D03*
X26186D02*
D03*
X25737D02*
D03*
D196*
X25820Y23959D02*
D03*
X27050Y24078D02*
D03*
D197*
X25790Y23959D02*
D03*
X25708Y24032D02*
D03*
D198*
X25714Y23959D02*
D03*
Y23969D02*
D03*
X26059Y24089D02*
D03*
D199*
X27272Y23961D02*
D03*
X26058Y24298D02*
D03*
X26921Y24323D02*
D03*
X25406Y24348D02*
D03*
X25409Y24355D02*
D03*
X26517Y24361D02*
D03*
X26748Y24555D02*
D03*
X25394Y24580D02*
D03*
X26920Y24593D02*
D03*
X25587Y24624D02*
D03*
D200*
X27145Y23961D02*
D03*
D201*
X27065D02*
D03*
X27222Y23967D02*
D03*
X25570Y23974D02*
D03*
X27132Y24048D02*
D03*
X27220Y24073D02*
D03*
X27094Y24174D02*
D03*
D202*
X26930Y23961D02*
D03*
X26513Y24304D02*
D03*
X26905Y24355D02*
D03*
X26900Y24367D02*
D03*
X26898Y24374D02*
D03*
X27287Y24380D02*
D03*
X27292Y24399D02*
D03*
X25423D02*
D03*
X25424Y24405D02*
D03*
X26892Y24517D02*
D03*
X26894Y24523D02*
D03*
X25417Y24530D02*
D03*
X27087Y24736D02*
D03*
D203*
X26388Y23961D02*
D03*
X25887D02*
D03*
X25174D02*
D03*
X25886Y24029D02*
D03*
X25736Y24060D02*
D03*
D204*
X26308Y23961D02*
D03*
X26228D02*
D03*
X26390Y24024D02*
D03*
X27215Y24067D02*
D03*
D205*
X26057Y23961D02*
D03*
X26556Y23967D02*
D03*
X26466D02*
D03*
X26304D02*
D03*
X26231D02*
D03*
X25339D02*
D03*
X25257D02*
D03*
X25090D02*
D03*
X27057Y23974D02*
D03*
X26880D02*
D03*
X26301D02*
D03*
X25896D02*
D03*
X25717D02*
D03*
X27057Y23980D02*
D03*
X27209Y23986D02*
D03*
X27208Y23993D02*
D03*
X27339Y23999D02*
D03*
X27206D02*
D03*
X27340Y24005D02*
D03*
X27205D02*
D03*
X25583D02*
D03*
X27340Y24011D02*
D03*
Y24018D02*
D03*
X26557D02*
D03*
X26392D02*
D03*
X26301D02*
D03*
X25894D02*
D03*
X25584D02*
D03*
X25178D02*
D03*
X25087D02*
D03*
X27340Y24024D02*
D03*
X26230D02*
D03*
X26143D02*
D03*
X27340Y24029D02*
D03*
X27205Y24035D02*
D03*
X25583D02*
D03*
X27339Y24041D02*
D03*
X25581D02*
D03*
X27337Y24048D02*
D03*
X26633D02*
D03*
X25580D02*
D03*
X26631Y24054D02*
D03*
X27139Y24060D02*
D03*
X26631D02*
D03*
X27139Y24067D02*
D03*
X26631D02*
D03*
X27137Y24073D02*
D03*
X25967Y24111D02*
D03*
D206*
X25817Y23961D02*
D03*
D207*
X25791D02*
D03*
X25465Y24073D02*
D03*
D208*
X25714Y23961D02*
D03*
Y23967D02*
D03*
D209*
X25526Y23961D02*
D03*
X26041Y24330D02*
D03*
X26038Y24336D02*
D03*
X26351Y24342D02*
D03*
X26353Y24348D02*
D03*
X26890Y24418D02*
D03*
X26888Y24435D02*
D03*
X27296Y24473D02*
D03*
X25427D02*
D03*
X25583Y24542D02*
D03*
X25578Y24561D02*
D03*
Y24567D02*
D03*
D210*
X25260Y23961D02*
D03*
X27327Y23974D02*
D03*
X25575Y23980D02*
D03*
X27061Y23993D02*
D03*
X26550Y24029D02*
D03*
X26307D02*
D03*
X25093D02*
D03*
X26510Y24060D02*
D03*
X26186D02*
D03*
X25568Y24067D02*
D03*
X27132Y24079D02*
D03*
D211*
X25094Y23961D02*
D03*
X26976Y23967D02*
D03*
X26884D02*
D03*
X27216Y23974D02*
D03*
X27332Y23980D02*
D03*
X25176Y24024D02*
D03*
X26472Y24029D02*
D03*
X26226D02*
D03*
X26147D02*
D03*
X25768Y24035D02*
D03*
X27136Y24054D02*
D03*
X27328Y24067D02*
D03*
D212*
X25793Y23963D02*
D03*
D213*
X25476D02*
D03*
D214*
X27318Y23964D02*
D03*
X26510Y24059D02*
D03*
X26186D02*
D03*
X27317Y24078D02*
D03*
X26641Y24081D02*
D03*
D215*
X27150Y23964D02*
D03*
X25472D02*
D03*
X25824Y24032D02*
D03*
D216*
X26468Y23964D02*
D03*
Y23966D02*
D03*
D217*
X25814Y23964D02*
D03*
X27159Y23975D02*
D03*
D218*
X25794Y23964D02*
D03*
X26330Y24063D02*
D03*
X25116D02*
D03*
X27043Y24071D02*
D03*
D219*
X27152Y23966D02*
D03*
X25470D02*
D03*
X25966Y24082D02*
D03*
D220*
X26059Y23966D02*
D03*
X26557Y23969D02*
D03*
X26465D02*
D03*
X26141D02*
D03*
X25339D02*
D03*
X25256D02*
D03*
X26465Y23970D02*
D03*
X26234D02*
D03*
X26141D02*
D03*
X25339D02*
D03*
X25256D02*
D03*
X26558Y23972D02*
D03*
X26464D02*
D03*
X26302D02*
D03*
X26234D02*
D03*
X25256D02*
D03*
X25179D02*
D03*
X26300Y23975D02*
D03*
X26235D02*
D03*
X26139D02*
D03*
X25897D02*
D03*
X25179D02*
D03*
X26560Y23977D02*
D03*
X26300D02*
D03*
X26235D02*
D03*
X25897D02*
D03*
X26560Y23978D02*
D03*
X26462D02*
D03*
X26300D02*
D03*
X26878Y23981D02*
D03*
X26138D02*
D03*
X26983Y23983D02*
D03*
X26878D02*
D03*
X26983Y23985D02*
D03*
X26237D02*
D03*
X26983Y23988D02*
D03*
X26876D02*
D03*
X26461D02*
D03*
X26237D02*
D03*
X25084D02*
D03*
X26461Y23989D02*
D03*
X25084D02*
D03*
X26461Y23991D02*
D03*
X25084D02*
D03*
X26985Y23994D02*
D03*
X26461D02*
D03*
X25084D02*
D03*
X26985Y23996D02*
D03*
X26461D02*
D03*
X26985Y23997D02*
D03*
X26461D02*
D03*
X26985Y24000D02*
D03*
X26875D02*
D03*
X26461D02*
D03*
X26237D02*
D03*
X26875Y24002D02*
D03*
X26461D02*
D03*
X26237D02*
D03*
X25084D02*
D03*
X26875Y24004D02*
D03*
X26461D02*
D03*
X26237D02*
D03*
X25084D02*
D03*
X26875Y24007D02*
D03*
X25084D02*
D03*
X26875Y24008D02*
D03*
X26560D02*
D03*
X26138D02*
D03*
X25084D02*
D03*
X26875Y24010D02*
D03*
X26560D02*
D03*
X26138D02*
D03*
X25583D02*
D03*
X25084D02*
D03*
X27204Y24013D02*
D03*
X26875D02*
D03*
X26462D02*
D03*
X26235D02*
D03*
X25897D02*
D03*
X25179D02*
D03*
X27204Y24015D02*
D03*
X26875D02*
D03*
X26558D02*
D03*
X26300D02*
D03*
X26234D02*
D03*
X26139D02*
D03*
X25895D02*
D03*
X25179D02*
D03*
X27204Y24016D02*
D03*
X26875D02*
D03*
X26558D02*
D03*
X26464D02*
D03*
X26300D02*
D03*
X26234D02*
D03*
X26139D02*
D03*
X25895D02*
D03*
X27204Y24019D02*
D03*
X26875D02*
D03*
X26557D02*
D03*
X26141D02*
D03*
X26875Y24021D02*
D03*
X26465D02*
D03*
X26875Y24022D02*
D03*
X25583D02*
D03*
X27204Y24026D02*
D03*
X26875D02*
D03*
X25583D02*
D03*
X27204Y24027D02*
D03*
X26875D02*
D03*
X25583D02*
D03*
X26875Y24030D02*
D03*
Y24032D02*
D03*
X25772D02*
D03*
X27339Y24033D02*
D03*
X26875D02*
D03*
Y24037D02*
D03*
Y24038D02*
D03*
X25582D02*
D03*
X26875Y24040D02*
D03*
Y24043D02*
D03*
Y24044D02*
D03*
Y24046D02*
D03*
Y24049D02*
D03*
X26632D02*
D03*
X26875Y24051D02*
D03*
X26632D02*
D03*
X26875Y24052D02*
D03*
Y24055D02*
D03*
Y24057D02*
D03*
Y24059D02*
D03*
Y24062D02*
D03*
Y24063D02*
D03*
Y24065D02*
D03*
Y24068D02*
D03*
Y24070D02*
D03*
Y24071D02*
D03*
Y24074D02*
D03*
Y24076D02*
D03*
Y24078D02*
D03*
Y24081D02*
D03*
Y24082D02*
D03*
Y24084D02*
D03*
Y24087D02*
D03*
Y24089D02*
D03*
Y24090D02*
D03*
Y24093D02*
D03*
X25966D02*
D03*
X26875Y24095D02*
D03*
Y24096D02*
D03*
Y24100D02*
D03*
Y24101D02*
D03*
Y24103D02*
D03*
Y24106D02*
D03*
Y24107D02*
D03*
Y24109D02*
D03*
Y24112D02*
D03*
X27270Y24114D02*
D03*
D221*
X27153Y23967D02*
D03*
D222*
X27059D02*
D03*
X26391D02*
D03*
X25177D02*
D03*
X26979Y23974D02*
D03*
X26639D02*
D03*
X27335Y23986D02*
D03*
X27057D02*
D03*
X26646D02*
D03*
X25582Y23999D02*
D03*
X26554Y24024D02*
D03*
X26303D02*
D03*
X25089D02*
D03*
X27207Y24048D02*
D03*
X27335Y24054D02*
D03*
X27209D02*
D03*
X25577D02*
D03*
X27331Y24060D02*
D03*
X25966Y24098D02*
D03*
D223*
X26142Y23967D02*
D03*
X26393Y23974D02*
D03*
X25898Y23980D02*
D03*
X25086D02*
D03*
X26298Y23986D02*
D03*
X26561Y23993D02*
D03*
X25898Y24005D02*
D03*
X26393Y24011D02*
D03*
X26298D02*
D03*
D224*
X25564Y23967D02*
D03*
D225*
X25468D02*
D03*
D226*
X27154Y23969D02*
D03*
X26046Y24096D02*
D03*
D227*
X25466Y23969D02*
D03*
X27156Y23970D02*
D03*
D228*
X27157Y23972D02*
D03*
D229*
X25464D02*
D03*
X25846Y24063D02*
D03*
X26040Y24100D02*
D03*
D230*
X27158Y23974D02*
D03*
D231*
X25734Y23986D02*
D03*
D232*
X25742Y23993D02*
D03*
X26510Y24054D02*
D03*
D233*
X26659Y23999D02*
D03*
D234*
X25749D02*
D03*
D235*
X25754Y24004D02*
D03*
X27118Y24037D02*
D03*
X26329Y24049D02*
D03*
D236*
X27076Y24005D02*
D03*
D237*
X26696Y24011D02*
D03*
Y24111D02*
D03*
D238*
X25767Y24011D02*
D03*
X27323Y24073D02*
D03*
D239*
X27089Y24015D02*
D03*
X25116Y24043D02*
D03*
X25744Y24046D02*
D03*
D240*
X26689Y24018D02*
D03*
X25514Y24098D02*
D03*
D241*
X27102Y24024D02*
D03*
X25746Y24041D02*
D03*
D242*
X26684Y24024D02*
D03*
D243*
X25813D02*
D03*
D244*
X25815Y24026D02*
D03*
X25464Y24071D02*
D03*
D245*
X25818Y24029D02*
D03*
D246*
X25704D02*
D03*
X27044Y24073D02*
D03*
D247*
X25820Y24030D02*
D03*
X25469Y24076D02*
D03*
D248*
X27114Y24033D02*
D03*
X25851Y24052D02*
D03*
D249*
X25135Y24033D02*
D03*
X26509Y24314D02*
D03*
Y24315D02*
D03*
Y24318D02*
D03*
Y24320D02*
D03*
Y24322D02*
D03*
X26043D02*
D03*
X26042Y24325D02*
D03*
Y24326D02*
D03*
X26350Y24339D02*
D03*
X26895Y24385D02*
D03*
X26894Y24391D02*
D03*
Y24394D02*
D03*
X26892Y24397D02*
D03*
Y24400D02*
D03*
Y24402D02*
D03*
Y24404D02*
D03*
X26891Y24407D02*
D03*
Y24408D02*
D03*
X27294Y24410D02*
D03*
X26891D02*
D03*
Y24413D02*
D03*
Y24415D02*
D03*
X26889Y24419D02*
D03*
X27295Y24421D02*
D03*
X26889D02*
D03*
X25426D02*
D03*
X27295Y24422D02*
D03*
X26889D02*
D03*
X25426D02*
D03*
X27295Y24426D02*
D03*
X26889D02*
D03*
X27295Y24427D02*
D03*
X26889D02*
D03*
X27295Y24429D02*
D03*
X26889D02*
D03*
X27297Y24437D02*
D03*
X25428D02*
D03*
X27297Y24438D02*
D03*
X26887D02*
D03*
X25428D02*
D03*
X27297Y24440D02*
D03*
X26887D02*
D03*
X25428D02*
D03*
X27297Y24443D02*
D03*
X26887D02*
D03*
X25428D02*
D03*
X27297Y24444D02*
D03*
X26887D02*
D03*
X25428D02*
D03*
X27297Y24446D02*
D03*
X26887D02*
D03*
X25428D02*
D03*
X27297Y24449D02*
D03*
X26887D02*
D03*
X25428D02*
D03*
X27297Y24451D02*
D03*
X26887D02*
D03*
X25428D02*
D03*
X27297Y24452D02*
D03*
X26887D02*
D03*
X25428D02*
D03*
X27297Y24455D02*
D03*
X26887D02*
D03*
X25428D02*
D03*
X27297Y24457D02*
D03*
X26887D02*
D03*
X25428D02*
D03*
X27297Y24459D02*
D03*
X26887D02*
D03*
X25428D02*
D03*
X27297Y24462D02*
D03*
X26887D02*
D03*
X25428D02*
D03*
X27297Y24463D02*
D03*
X26887D02*
D03*
X25428D02*
D03*
X27297Y24465D02*
D03*
X26887D02*
D03*
X25428D02*
D03*
X27297Y24468D02*
D03*
X26887D02*
D03*
X27297Y24470D02*
D03*
X26887D02*
D03*
X27297Y24471D02*
D03*
X26887D02*
D03*
Y24474D02*
D03*
Y24476D02*
D03*
X25426D02*
D03*
X26887Y24478D02*
D03*
X25426D02*
D03*
X27295Y24481D02*
D03*
X25426D02*
D03*
X27295Y24482D02*
D03*
X25426D02*
D03*
X27295Y24484D02*
D03*
X25426D02*
D03*
X27295Y24487D02*
D03*
X25426D02*
D03*
X27295Y24489D02*
D03*
X26889D02*
D03*
X27295Y24490D02*
D03*
X26889D02*
D03*
X25424D02*
D03*
X26889Y24493D02*
D03*
X25424D02*
D03*
X27294Y24495D02*
D03*
X26889D02*
D03*
X25424D02*
D03*
X27294Y24496D02*
D03*
X26889D02*
D03*
X25424D02*
D03*
X27294Y24500D02*
D03*
Y24501D02*
D03*
X25423D02*
D03*
X27294Y24503D02*
D03*
X25423D02*
D03*
X26891Y24506D02*
D03*
X25423D02*
D03*
X27292Y24507D02*
D03*
Y24509D02*
D03*
Y24512D02*
D03*
X25421D02*
D03*
X27291Y24518D02*
D03*
X25420D02*
D03*
X27289Y24525D02*
D03*
X25588Y24528D02*
D03*
X25585Y24534D02*
D03*
X25583Y24537D02*
D03*
Y24539D02*
D03*
X25582Y24544D02*
D03*
X25579Y24558D02*
D03*
X25577Y24569D02*
D03*
Y24570D02*
D03*
Y24572D02*
D03*
Y24575D02*
D03*
Y24577D02*
D03*
Y24578D02*
D03*
Y24581D02*
D03*
Y24583D02*
D03*
Y24585D02*
D03*
D250*
X26349Y24035D02*
D03*
Y24336D02*
D03*
X26755Y24586D02*
D03*
Y24593D02*
D03*
Y24599D02*
D03*
D251*
X25860Y24035D02*
D03*
X27271Y24104D02*
D03*
X27090D02*
D03*
D252*
X25714Y24035D02*
D03*
D253*
X25135D02*
D03*
X25581Y24548D02*
D03*
X25580Y24555D02*
D03*
D254*
X26187Y24037D02*
D03*
D255*
X25859Y24038D02*
D03*
X25508Y24106D02*
D03*
D256*
X26636Y24041D02*
D03*
D257*
X26329D02*
D03*
D258*
X25857D02*
D03*
D259*
X27127Y24043D02*
D03*
X25558Y24076D02*
D03*
D260*
X25746Y24043D02*
D03*
D261*
X26510Y24046D02*
D03*
X27093Y24100D02*
D03*
X25512Y24101D02*
D03*
X27087Y24739D02*
D03*
D262*
X25854Y24048D02*
D03*
D263*
X25116D02*
D03*
X25850Y24054D02*
D03*
D264*
X26330D02*
D03*
X25116D02*
D03*
D265*
X26187D02*
D03*
D266*
X25739D02*
D03*
D267*
X26187Y24057D02*
D03*
X25736D02*
D03*
D268*
X26329Y24060D02*
D03*
D269*
X25846D02*
D03*
D270*
X26509Y24062D02*
D03*
X25736D02*
D03*
X25966Y24089D02*
D03*
D271*
X26186Y24062D02*
D03*
X26057Y24090D02*
D03*
D272*
X25846Y24062D02*
D03*
D273*
X25467Y24074D02*
D03*
D274*
X27047Y24076D02*
D03*
D275*
X27051Y24079D02*
D03*
D276*
X25476D02*
D03*
D277*
X27271Y24081D02*
D03*
X26523Y24287D02*
D03*
X26521Y24289D02*
D03*
X26332Y24301D02*
D03*
X26923Y24320D02*
D03*
X27266Y24328D02*
D03*
X27269Y24333D02*
D03*
X25408Y24350D02*
D03*
Y24352D02*
D03*
X25608Y24501D02*
D03*
X25606Y24503D02*
D03*
X26746Y24553D02*
D03*
X25395Y24577D02*
D03*
Y24578D02*
D03*
X27263Y24589D02*
D03*
X27260Y24594D02*
D03*
X26743Y24626D02*
D03*
X26742Y24627D02*
D03*
D278*
X27272Y24084D02*
D03*
X26916Y24333D02*
D03*
X27276Y24347D02*
D03*
X26514Y24356D02*
D03*
X25413Y24364D02*
D03*
Y24366D02*
D03*
X25639Y24369D02*
D03*
X25415D02*
D03*
X25640Y24370D02*
D03*
X25645Y24375D02*
D03*
X25602Y24507D02*
D03*
X25402Y24564D02*
D03*
Y24566D02*
D03*
X26908Y24570D02*
D03*
X26909Y24575D02*
D03*
X27270Y24577D02*
D03*
X25583Y24616D02*
D03*
X26746Y24622D02*
D03*
D279*
X27271Y24085D02*
D03*
X25589Y24292D02*
D03*
X25620Y24342D02*
D03*
X25633Y24361D02*
D03*
D280*
X26678Y24085D02*
D03*
D281*
X25966D02*
D03*
X26054Y24092D02*
D03*
D282*
X27271Y24087D02*
D03*
X26515Y24300D02*
D03*
X25420Y24388D02*
D03*
Y24389D02*
D03*
Y24391D02*
D03*
X25595Y24515D02*
D03*
X25414Y24537D02*
D03*
Y24539D02*
D03*
X26902Y24556D02*
D03*
X26753Y24569D02*
D03*
X26751Y24613D02*
D03*
D283*
X26678Y24087D02*
D03*
X26039Y24334D02*
D03*
X26352Y24345D02*
D03*
Y24347D02*
D03*
D284*
X27271Y24092D02*
D03*
X26033Y24355D02*
D03*
D285*
X27097Y24092D02*
D03*
D286*
X26049Y24095D02*
D03*
D287*
X27094Y24098D02*
D03*
D288*
X26043D02*
D03*
D289*
X27271Y24106D02*
D03*
D290*
X26691Y24107D02*
D03*
D291*
X27271Y24111D02*
D03*
D292*
Y24115D02*
D03*
D293*
X25967Y24117D02*
D03*
D294*
X26956Y24172D02*
D03*
X26076Y24284D02*
D03*
X26953Y24290D02*
D03*
X26534Y24385D02*
D03*
X26726Y24640D02*
D03*
D295*
X26828Y24174D02*
D03*
D296*
X25445D02*
D03*
X25763Y24435D02*
D03*
X25209Y24704D02*
D03*
D297*
X25157Y24174D02*
D03*
D298*
X26814Y24175D02*
D03*
X25750Y24693D02*
D03*
D299*
X25450Y24175D02*
D03*
D300*
X25164D02*
D03*
D301*
X26803Y24177D02*
D03*
X27090Y24657D02*
D03*
D302*
X26197Y24177D02*
D03*
D303*
X25455D02*
D03*
X25772Y24427D02*
D03*
Y24429D02*
D03*
X25200Y24714D02*
D03*
X26575Y24726D02*
D03*
D304*
X25170Y24177D02*
D03*
Y24734D02*
D03*
D305*
X26795Y24178D02*
D03*
X25746Y24687D02*
D03*
D306*
X25459Y24178D02*
D03*
X25196Y24189D02*
D03*
X26196Y24204D02*
D03*
D307*
X25175Y24178D02*
D03*
D308*
X26787Y24180D02*
D03*
D309*
X26197D02*
D03*
X26520Y24292D02*
D03*
X25413Y24361D02*
D03*
X25402Y24567D02*
D03*
X27265Y24586D02*
D03*
X25584Y24618D02*
D03*
X26745Y24624D02*
D03*
D310*
X25462Y24180D02*
D03*
D311*
X25179D02*
D03*
D312*
X27094Y24181D02*
D03*
X26062Y24293D02*
D03*
X26061Y24295D02*
D03*
X26328Y24296D02*
D03*
X27261Y24320D02*
D03*
X27262Y24322D02*
D03*
X25401Y24337D02*
D03*
X25402Y24341D02*
D03*
X26744Y24550D02*
D03*
X25388Y24588D02*
D03*
X25387Y24589D02*
D03*
X26925Y24600D02*
D03*
X27254Y24602D02*
D03*
X27253Y24604D02*
D03*
X25590Y24629D02*
D03*
D313*
X26782Y24181D02*
D03*
X26776Y24183D02*
D03*
X27094Y24263D02*
D03*
X26662Y24268D02*
D03*
X25744Y24681D02*
D03*
D314*
X26197Y24181D02*
D03*
X27250Y24306D02*
D03*
X25391Y24322D02*
D03*
X26526Y24375D02*
D03*
X25619Y24493D02*
D03*
X25378Y24600D02*
D03*
X25376Y24602D02*
D03*
X25375Y24604D02*
D03*
X27244Y24613D02*
D03*
X26935D02*
D03*
X26937Y24615D02*
D03*
D315*
X25465Y24181D02*
D03*
X26620Y24449D02*
D03*
X26622Y24451D02*
D03*
X26644Y24468D02*
D03*
D316*
X25182Y24181D02*
D03*
X26196Y24196D02*
D03*
X26588Y24426D02*
D03*
X25182Y24728D02*
D03*
D317*
X27095Y24183D02*
D03*
X26946Y24295D02*
D03*
X25384Y24314D02*
D03*
X25368Y24610D02*
D03*
X27238Y24619D02*
D03*
X26942D02*
D03*
D318*
X26196Y24183D02*
D03*
X26538Y24276D02*
D03*
X27239Y24295D02*
D03*
X25379Y24307D02*
D03*
X25380Y24309D02*
D03*
X26730Y24533D02*
D03*
X26731Y24534D02*
D03*
X25363Y24615D02*
D03*
X26946Y24622D02*
D03*
D319*
X25468Y24183D02*
D03*
X27094Y24200D02*
D03*
X26654Y24476D02*
D03*
D320*
X25186Y24183D02*
D03*
D321*
X27095Y24185D02*
D03*
X26312Y24284D02*
D03*
X26956Y24289D02*
D03*
X25373Y24303D02*
D03*
X26537Y24388D02*
D03*
X27087Y24731D02*
D03*
D322*
X26771Y24185D02*
D03*
X27089Y24651D02*
D03*
D323*
X26196Y24185D02*
D03*
X26308Y24282D02*
D03*
X26541Y24391D02*
D03*
X25634Y24489D02*
D03*
D324*
X25472Y24185D02*
D03*
X25188D02*
D03*
X26604Y24437D02*
D03*
X26661Y24481D02*
D03*
D325*
X27094Y24186D02*
D03*
X25350Y24624D02*
D03*
X27220Y24630D02*
D03*
D326*
X26765Y24186D02*
D03*
D327*
X26197D02*
D03*
X25553Y24273D02*
D03*
X25557Y24279D02*
D03*
D328*
X25473Y24186D02*
D03*
X27094Y24199D02*
D03*
D329*
X25191Y24186D02*
D03*
X26609Y24441D02*
D03*
X26650Y24473D02*
D03*
D330*
X27094Y24188D02*
D03*
X25545Y24262D02*
D03*
X25546Y24263D02*
D03*
X26968Y24282D02*
D03*
X27213Y24633D02*
D03*
X26965D02*
D03*
D331*
X26761Y24188D02*
D03*
X26673Y24252D02*
D03*
D332*
X26196Y24188D02*
D03*
X25527Y24238D02*
D03*
X25528Y24240D02*
D03*
X26557Y24404D02*
D03*
X27087Y24726D02*
D03*
X25163Y24737D02*
D03*
D333*
X25476Y24188D02*
D03*
X26597Y24432D02*
D03*
D334*
X25193Y24188D02*
D03*
X27094Y24202D02*
D03*
X26624Y24452D02*
D03*
X26631Y24457D02*
D03*
X26635Y24462D02*
D03*
X27087Y24714D02*
D03*
X25193Y24720D02*
D03*
D335*
X27095Y24189D02*
D03*
X25526Y24237D02*
D03*
X26975Y24281D02*
D03*
X25351Y24287D02*
D03*
X26707Y24514D02*
D03*
D336*
X26757Y24189D02*
D03*
X26676Y24249D02*
D03*
X26675Y24251D02*
D03*
X27089Y24649D02*
D03*
X25741Y24671D02*
D03*
D337*
X26196Y24189D02*
D03*
X25517Y24227D02*
D03*
D338*
X25477Y24189D02*
D03*
X26669Y24487D02*
D03*
X25184Y24726D02*
D03*
D339*
X27095Y24191D02*
D03*
X25510Y24219D02*
D03*
X25512Y24221D02*
D03*
X25343Y24284D02*
D03*
X26565Y24410D02*
D03*
D340*
X26753Y24191D02*
D03*
X26680Y24244D02*
D03*
X26679Y24246D02*
D03*
X25740Y24668D02*
D03*
Y24670D02*
D03*
D341*
X26197Y24191D02*
D03*
D342*
X25480D02*
D03*
X27095Y24197D02*
D03*
X26590Y24427D02*
D03*
X26674Y24490D02*
D03*
X27088Y24718D02*
D03*
D343*
X25198Y24191D02*
D03*
D344*
X27094Y24193D02*
D03*
X26694Y24504D02*
D03*
X27087Y24723D02*
D03*
D345*
X26749Y24193D02*
D03*
D346*
X26196D02*
D03*
X25497Y24205D02*
D03*
D347*
X25483Y24193D02*
D03*
X26676Y24492D02*
D03*
D348*
X25200Y24193D02*
D03*
D349*
X27094Y24194D02*
D03*
X25494Y24202D02*
D03*
X25495Y24204D02*
D03*
X26687Y24500D02*
D03*
X27087Y24722D02*
D03*
D350*
X26746Y24194D02*
D03*
X26739Y24197D02*
D03*
X26687Y24237D02*
D03*
X26684Y24240D02*
D03*
X26681Y24243D02*
D03*
X27094Y24268D02*
D03*
X25739Y24665D02*
D03*
D351*
X26196Y24194D02*
D03*
X25177Y24731D02*
D03*
D352*
X25484Y24194D02*
D03*
X26678Y24493D02*
D03*
D353*
X25202Y24194D02*
D03*
X26195Y24207D02*
D03*
X25770Y24426D02*
D03*
X25202Y24712D02*
D03*
D354*
X27094Y24196D02*
D03*
X27088Y24720D02*
D03*
D355*
X26742Y24196D02*
D03*
X26686Y24238D02*
D03*
D356*
X25487Y24196D02*
D03*
X26680Y24495D02*
D03*
D357*
X25204Y24196D02*
D03*
X27094Y24208D02*
D03*
X26196D02*
D03*
X27087Y24707D02*
D03*
D358*
X26196Y24197D02*
D03*
D359*
X25487D02*
D03*
X25331Y24281D02*
D03*
X26583Y24422D02*
D03*
X26683Y24496D02*
D03*
X26554Y24737D02*
D03*
D360*
X25206Y24197D02*
D03*
X25766Y24422D02*
D03*
X25206Y24707D02*
D03*
D361*
X26736Y24199D02*
D03*
D362*
X26195D02*
D03*
X26602Y24435D02*
D03*
D363*
X25490Y24199D02*
D03*
D364*
X25207D02*
D03*
D365*
X26734Y24200D02*
D03*
X26728Y24204D02*
D03*
X26696Y24227D02*
D03*
X26694Y24229D02*
D03*
X26690Y24233D02*
D03*
X27090Y24646D02*
D03*
X25739Y24662D02*
D03*
Y24663D02*
D03*
D366*
X26196Y24200D02*
D03*
X26565Y24733D02*
D03*
D367*
X25491Y24200D02*
D03*
D368*
X25209D02*
D03*
X26584Y24718D02*
D03*
D369*
X26731Y24202D02*
D03*
X26723Y24207D02*
D03*
X26718Y24210D02*
D03*
X26712Y24215D02*
D03*
X26706Y24219D02*
D03*
X26704Y24221D02*
D03*
X26691Y24232D02*
D03*
D370*
X26196Y24202D02*
D03*
X26628Y24455D02*
D03*
X26632Y24459D02*
D03*
X26639Y24463D02*
D03*
X26640Y24465D02*
D03*
D371*
X25211Y24202D02*
D03*
Y24701D02*
D03*
D372*
X27094Y24204D02*
D03*
X27087Y24712D02*
D03*
D373*
X25213Y24204D02*
D03*
X25759Y24413D02*
D03*
X25213Y24700D02*
D03*
X26587Y24715D02*
D03*
D374*
X27094Y24205D02*
D03*
D375*
X26726D02*
D03*
X26707Y24218D02*
D03*
D376*
X26195Y24205D02*
D03*
X27088Y24711D02*
D03*
D377*
X25213Y24205D02*
D03*
D378*
X27094Y24207D02*
D03*
D379*
X25498D02*
D03*
X26574Y24416D02*
D03*
D380*
X25215Y24207D02*
D03*
X25757Y24408D02*
D03*
X25215Y24696D02*
D03*
D381*
X26720Y24208D02*
D03*
X26714Y24213D02*
D03*
X26702Y24222D02*
D03*
X27089Y24644D02*
D03*
D382*
X25500Y24208D02*
D03*
X25502Y24210D02*
D03*
X26572Y24415D02*
D03*
D383*
X25217Y24208D02*
D03*
X27094Y24216D02*
D03*
X25217Y24695D02*
D03*
D384*
X27094Y24210D02*
D03*
X25207Y24706D02*
D03*
D385*
X26196Y24210D02*
D03*
D386*
X25218D02*
D03*
X25754Y24404D02*
D03*
X26593Y24709D02*
D03*
D387*
X27094Y24211D02*
D03*
D388*
X26716D02*
D03*
X26700Y24224D02*
D03*
X25738Y24660D02*
D03*
D389*
X26195Y24211D02*
D03*
D390*
X25504D02*
D03*
D391*
X25219D02*
D03*
X27088Y24698D02*
D03*
D392*
X27094Y24213D02*
D03*
X25760Y24415D02*
D03*
Y24438D02*
D03*
D393*
X26196Y24213D02*
D03*
X25210Y24703D02*
D03*
X25802Y24739D02*
D03*
D394*
X25505Y24213D02*
D03*
X25506Y24215D02*
D03*
D395*
X25220Y24213D02*
D03*
X26195Y24221D02*
D03*
X25220Y24689D02*
D03*
D396*
X27095Y24215D02*
D03*
X27088Y24701D02*
D03*
D397*
X26196Y24215D02*
D03*
D398*
X25222D02*
D03*
X26195Y24222D02*
D03*
X25750Y24396D02*
D03*
X25222Y24687D02*
D03*
D399*
X26709Y24216D02*
D03*
X26698Y24226D02*
D03*
X27094Y24270D02*
D03*
X25738Y24659D02*
D03*
D400*
X26195Y24216D02*
D03*
X25757Y24410D02*
D03*
Y24440D02*
D03*
X26589Y24714D02*
D03*
D401*
X25508Y24216D02*
D03*
X26698Y24507D02*
D03*
X25328Y24633D02*
D03*
D402*
X25223Y24216D02*
D03*
X27094Y24221D02*
D03*
X25790Y24734D02*
D03*
D403*
X27094Y24218D02*
D03*
X25793Y24736D02*
D03*
D404*
X26196Y24218D02*
D03*
D405*
X25509D02*
D03*
D406*
X25224D02*
D03*
D407*
X27094Y24219D02*
D03*
D408*
X26195D02*
D03*
X25753Y24402D02*
D03*
Y24444D02*
D03*
D409*
X25225Y24219D02*
D03*
X26195Y24226D02*
D03*
X25746Y24452D02*
D03*
X25225Y24682D02*
D03*
X27088Y24693D02*
D03*
X26600Y24700D02*
D03*
D410*
X25226Y24221D02*
D03*
X27094Y24222D02*
D03*
X25226Y24681D02*
D03*
D411*
X25514Y24222D02*
D03*
X26563Y24408D02*
D03*
D412*
X25228Y24222D02*
D03*
X25744Y24455D02*
D03*
X25228Y24678D02*
D03*
X26602Y24696D02*
D03*
D413*
X27094Y24224D02*
D03*
D414*
X26195D02*
D03*
D415*
X25515D02*
D03*
X26702Y24511D02*
D03*
D416*
X25228Y24224D02*
D03*
D417*
X27094Y24226D02*
D03*
X25229D02*
D03*
Y24674D02*
D03*
X25783Y24731D02*
D03*
D418*
X25517Y24226D02*
D03*
D419*
X27095Y24227D02*
D03*
X25231Y24229D02*
D03*
X26195Y24232D02*
D03*
X25740Y24462D02*
D03*
X25231Y24671D02*
D03*
X27088Y24689D02*
D03*
X26606Y24690D02*
D03*
D420*
X26195Y24227D02*
D03*
D421*
X25231D02*
D03*
D422*
X27094Y24229D02*
D03*
X25234Y24233D02*
D03*
X25738Y24465D02*
D03*
D423*
X26195Y24229D02*
D03*
X25743Y24457D02*
D03*
X25228Y24676D02*
D03*
X26603Y24695D02*
D03*
D424*
X25520Y24229D02*
D03*
X26704Y24512D02*
D03*
X25334Y24632D02*
D03*
D425*
X27094Y24230D02*
D03*
X25235Y24235D02*
D03*
X27089Y24685D02*
D03*
D426*
X26693Y24230D02*
D03*
D427*
X26195D02*
D03*
D428*
X25521D02*
D03*
D429*
X25232D02*
D03*
D430*
X27095Y24232D02*
D03*
X26195Y24238D02*
D03*
X25238Y24240D02*
D03*
Y24659D02*
D03*
X26613Y24676D02*
D03*
Y24678D02*
D03*
X27088Y24684D02*
D03*
D431*
X25522Y24232D02*
D03*
D432*
X25233D02*
D03*
X26195Y24233D02*
D03*
X25739Y24463D02*
D03*
X25233Y24668D02*
D03*
X26608Y24687D02*
D03*
D433*
X27094Y24233D02*
D03*
X25240Y24244D02*
D03*
X25731Y24478D02*
D03*
X26615Y24671D02*
D03*
D434*
X25524Y24233D02*
D03*
D435*
X27094Y24235D02*
D03*
X25242Y24248D02*
D03*
X26617Y24667D02*
D03*
D436*
X26689Y24235D02*
D03*
X26683Y24241D02*
D03*
X27089Y24648D02*
D03*
X25739Y24667D02*
D03*
D437*
X26195Y24235D02*
D03*
X25737Y24467D02*
D03*
D438*
X25524Y24235D02*
D03*
X26972Y24635D02*
D03*
D439*
X27094Y24237D02*
D03*
X25243Y24251D02*
D03*
X25728Y24484D02*
D03*
X25243Y24646D02*
D03*
X26618Y24662D02*
D03*
D440*
X26195Y24237D02*
D03*
X25776Y24726D02*
D03*
D441*
X25236Y24237D02*
D03*
X25735Y24470D02*
D03*
X25236Y24662D02*
D03*
X26611Y24681D02*
D03*
D442*
X27094Y24238D02*
D03*
X25245Y24643D02*
D03*
X26620Y24657D02*
D03*
D443*
X25237Y24238D02*
D03*
X25735Y24471D02*
D03*
D444*
X27094Y24240D02*
D03*
X26194Y24249D02*
D03*
X25246Y24259D02*
D03*
Y24640D02*
D03*
X26621Y24651D02*
D03*
Y24652D02*
D03*
X27089Y24676D02*
D03*
D445*
X26195Y24240D02*
D03*
X25239Y24243D02*
D03*
X25732Y24476D02*
D03*
X25239Y24655D02*
D03*
X27088Y24682D02*
D03*
D446*
X27094Y24241D02*
D03*
D447*
X26194D02*
D03*
X25240Y24654D02*
D03*
X25772Y24723D02*
D03*
D448*
X25530Y24241D02*
D03*
D449*
X25239D02*
D03*
D450*
X27094Y24243D02*
D03*
X25250Y24265D02*
D03*
X25763Y24714D02*
D03*
D451*
X26195Y24243D02*
D03*
X25241Y24246D02*
D03*
Y24652D02*
D03*
X26616Y24670D02*
D03*
D452*
X25531Y24243D02*
D03*
X25532Y24244D02*
D03*
X26554Y24402D02*
D03*
D453*
X27094Y24244D02*
D03*
X25251Y24270D02*
D03*
X25761Y24712D02*
D03*
D454*
X26195Y24244D02*
D03*
X25770Y24722D02*
D03*
D455*
X27094Y24246D02*
D03*
X26194Y24259D02*
D03*
X25253Y24274D02*
D03*
X27089Y24670D02*
D03*
D456*
X26195Y24246D02*
D03*
X25244Y24252D02*
D03*
Y24644D02*
D03*
X26619Y24659D02*
D03*
X25768Y24720D02*
D03*
D457*
X25533Y24246D02*
D03*
X25354Y24289D02*
D03*
X25620Y24646D02*
D03*
D458*
X27094Y24248D02*
D03*
X25254Y24279D02*
D03*
D459*
X26677Y24248D02*
D03*
D460*
X26195D02*
D03*
X25246Y24641D02*
D03*
X26620Y24654D02*
D03*
D461*
X25535Y24248D02*
D03*
D462*
X27094Y24249D02*
D03*
X26195Y24263D02*
D03*
X25757Y24706D02*
D03*
D463*
X25536Y24249D02*
D03*
D464*
X25243D02*
D03*
X25729Y24482D02*
D03*
X25243Y24649D02*
D03*
X26617Y24663D02*
D03*
Y24665D02*
D03*
D465*
X27094Y24251D02*
D03*
X25755Y24703D02*
D03*
D466*
X26195Y24251D02*
D03*
X25247Y24637D02*
D03*
Y24638D02*
D03*
X26622Y24649D02*
D03*
D467*
X25537Y24251D02*
D03*
D468*
X27094Y24252D02*
D03*
X26194Y24268D02*
D03*
X27089Y24663D02*
D03*
D469*
X26195Y24252D02*
D03*
D470*
X25539D02*
D03*
X27216Y24282D02*
D03*
X26710Y24644D02*
D03*
D471*
X27094Y24254D02*
D03*
X26194Y24273D02*
D03*
X25752Y24698D02*
D03*
D472*
X26672Y24254D02*
D03*
X25742Y24673D02*
D03*
D473*
X26195Y24254D02*
D03*
D474*
X25539D02*
D03*
X25544Y24260D02*
D03*
D475*
X25245Y24254D02*
D03*
D476*
X27094Y24255D02*
D03*
X26195Y24274D02*
D03*
Y24276D02*
D03*
X25750Y24695D02*
D03*
D477*
X26671Y24255D02*
D03*
X26669Y24257D02*
D03*
D478*
X26195Y24255D02*
D03*
X25250Y24268D02*
D03*
D479*
X25541Y24255D02*
D03*
X25543Y24257D02*
D03*
Y24259D02*
D03*
X25357Y24290D02*
D03*
X26552Y24400D02*
D03*
X26713Y24518D02*
D03*
X25341Y24629D02*
D03*
D480*
X25246Y24255D02*
D03*
Y24257D02*
D03*
X26620Y24655D02*
D03*
D481*
X27094Y24257D02*
D03*
X26195Y24278D02*
D03*
D482*
X26195Y24257D02*
D03*
X25252Y24271D02*
D03*
D483*
X27094Y24259D02*
D03*
X27089Y24655D02*
D03*
X25747Y24689D02*
D03*
D484*
X26669Y24259D02*
D03*
X26667Y24262D02*
D03*
X26665Y24263D02*
D03*
X27094Y24265D02*
D03*
X25742Y24676D02*
D03*
D485*
X27094Y24260D02*
D03*
X27089Y24654D02*
D03*
X25746Y24685D02*
D03*
D486*
X26667Y24260D02*
D03*
D487*
X26195D02*
D03*
D488*
X25247D02*
D03*
X26622Y24648D02*
D03*
D489*
X27094Y24262D02*
D03*
X25746Y24684D02*
D03*
D490*
X26195Y24262D02*
D03*
D491*
X25248D02*
D03*
X26623Y24646D02*
D03*
X27089Y24674D02*
D03*
X25765Y24715D02*
D03*
D492*
X25249Y24263D02*
D03*
D493*
X26665Y24265D02*
D03*
X25743Y24678D02*
D03*
D494*
X26195Y24265D02*
D03*
D495*
X25547D02*
D03*
X25552Y24271D02*
D03*
X26716Y24520D02*
D03*
D496*
X27094Y24267D02*
D03*
D497*
X26663D02*
D03*
X25743Y24679D02*
D03*
D498*
X26195Y24267D02*
D03*
D499*
X25549D02*
D03*
X25360Y24292D02*
D03*
X26550Y24399D02*
D03*
D500*
X25250Y24267D02*
D03*
D501*
X25550Y24268D02*
D03*
D502*
X26661Y24270D02*
D03*
D503*
X26195D02*
D03*
X25753Y24700D02*
D03*
D504*
X25550Y24270D02*
D03*
X26550Y24271D02*
D03*
X25554Y24274D02*
D03*
X25555Y24276D02*
D03*
X25344Y24627D02*
D03*
X27087Y24728D02*
D03*
D505*
X27093Y24271D02*
D03*
X25737Y24655D02*
D03*
Y24657D02*
D03*
D506*
X26194Y24271D02*
D03*
X27089Y24662D02*
D03*
D507*
X27094Y24273D02*
D03*
X25736Y24654D02*
D03*
D508*
X26546Y24273D02*
D03*
X26543Y24393D02*
D03*
X26958Y24630D02*
D03*
X27087Y24730D02*
D03*
D509*
X25252Y24273D02*
D03*
D510*
X27094Y24274D02*
D03*
D511*
X26540D02*
D03*
D512*
X27094Y24276D02*
D03*
Y24278D02*
D03*
X27089Y24638D02*
D03*
D513*
X25254Y24276D02*
D03*
X25759Y24709D02*
D03*
D514*
X26534Y24278D02*
D03*
X26734Y24537D02*
D03*
D515*
X25556Y24278D02*
D03*
X26548Y24397D02*
D03*
X25157Y24739D02*
D03*
D516*
X25254Y24278D02*
D03*
X27089Y24668D02*
D03*
X25758Y24707D02*
D03*
D517*
X27094Y24279D02*
D03*
D518*
X26532D02*
D03*
X26943Y24298D02*
D03*
X27248Y24304D02*
D03*
D519*
X26195Y24279D02*
D03*
X25749Y24692D02*
D03*
D520*
X27211Y24281D02*
D03*
X26561Y24407D02*
D03*
D521*
X26530Y24281D02*
D03*
X26939Y24301D02*
D03*
X26938Y24303D02*
D03*
X27251Y24307D02*
D03*
X27253Y24309D02*
D03*
X25393Y24325D02*
D03*
D522*
X26302Y24281D02*
D03*
X27220Y24284D02*
D03*
D523*
X26085Y24281D02*
D03*
X27217Y24632D02*
D03*
D524*
X26528Y24282D02*
D03*
X26066Y24290D02*
D03*
X25394Y24326D02*
D03*
X25395Y24328D02*
D03*
X25397Y24331D02*
D03*
X26523Y24372D02*
D03*
X25663Y24389D02*
D03*
X26740Y24544D02*
D03*
X25381Y24597D02*
D03*
X27247Y24610D02*
D03*
X26932D02*
D03*
X25594Y24633D02*
D03*
D525*
X26079Y24282D02*
D03*
X27232Y24290D02*
D03*
X25357Y24619D02*
D03*
X27226Y24627D02*
D03*
D526*
X25339Y24282D02*
D03*
X26691Y24503D02*
D03*
D527*
X26965Y24284D02*
D03*
D528*
X26526D02*
D03*
X26934Y24307D02*
D03*
X26932Y24309D02*
D03*
X27260Y24318D02*
D03*
X25398Y24334D02*
D03*
X25660Y24388D02*
D03*
X25386Y24591D02*
D03*
X26926Y24602D02*
D03*
X26737Y24632D02*
D03*
D529*
X27224Y24285D02*
D03*
X26719Y24523D02*
D03*
D530*
X26961Y24285D02*
D03*
D531*
X26524D02*
D03*
X26329Y24298D02*
D03*
X27263Y24323D02*
D03*
X25403Y24342D02*
D03*
X26520Y24367D02*
D03*
X25657Y24386D02*
D03*
X25611Y24498D02*
D03*
X27257Y24599D02*
D03*
D532*
X26315Y24285D02*
D03*
X25381Y24311D02*
D03*
D533*
X26072Y24285D02*
D03*
X27243Y24298D02*
D03*
X26529Y24380D02*
D03*
D534*
X25586Y24285D02*
D03*
X25594Y24298D02*
D03*
X25597Y24304D02*
D03*
X26339Y24311D02*
D03*
X25605Y24317D02*
D03*
X25613Y24330D02*
D03*
X26913Y24336D02*
D03*
X26910Y24342D02*
D03*
X26513Y24355D02*
D03*
X25628D02*
D03*
X27282Y24361D02*
D03*
X25638Y24367D02*
D03*
X25416Y24374D02*
D03*
X25405Y24561D02*
D03*
X26907Y24567D02*
D03*
D535*
X25347Y24285D02*
D03*
X25166Y24736D02*
D03*
D536*
X27228Y24287D02*
D03*
X25366Y24296D02*
D03*
D537*
X26957Y24287D02*
D03*
X25372Y24301D02*
D03*
X26539Y24389D02*
D03*
X25151Y24741D02*
D03*
D538*
X26317Y24287D02*
D03*
X26949Y24293D02*
D03*
X26532Y24381D02*
D03*
X27235Y24621D02*
D03*
X26944D02*
D03*
D539*
X26070Y24287D02*
D03*
X26322Y24290D02*
D03*
X26941Y24300D02*
D03*
X27246Y24303D02*
D03*
X25388Y24318D02*
D03*
X25390Y24320D02*
D03*
X26527Y24377D02*
D03*
X26738Y24541D02*
D03*
D540*
X25587Y24287D02*
D03*
X26517Y24293D02*
D03*
X25591Y24295D02*
D03*
X26054Y24303D02*
D03*
X26338Y24309D02*
D03*
X27275Y24344D02*
D03*
X25635Y24364D02*
D03*
X25642Y24372D02*
D03*
X25404Y24563D02*
D03*
X26911Y24577D02*
D03*
X27269Y24578D02*
D03*
X26747Y24621D02*
D03*
D541*
X27229Y24289D02*
D03*
X26725Y24528D02*
D03*
X25355Y24621D02*
D03*
X27224Y24629D02*
D03*
X26955D02*
D03*
D542*
X26320Y24289D02*
D03*
X27241Y24616D02*
D03*
X27087Y24733D02*
D03*
D543*
X26068Y24289D02*
D03*
X27243Y24615D02*
D03*
D544*
X25589Y24290D02*
D03*
X25595Y24301D02*
D03*
X26052Y24306D02*
D03*
X25602Y24312D02*
D03*
X25608Y24322D02*
D03*
X25614Y24333D02*
D03*
X26915Y24334D02*
D03*
X27277Y24350D02*
D03*
X26909Y24572D02*
D03*
X27271Y24575D02*
D03*
D545*
X27235Y24292D02*
D03*
X26723Y24641D02*
D03*
D546*
X26950Y24292D02*
D03*
D547*
X26324D02*
D03*
X26935Y24611D02*
D03*
X25141Y24742D02*
D03*
D548*
X26064Y24292D02*
D03*
X25396Y24330D02*
D03*
X26928Y24605D02*
D03*
D549*
X27236Y24293D02*
D03*
D550*
X26325D02*
D03*
X26935Y24306D02*
D03*
X27256Y24314D02*
D03*
X25398Y24333D02*
D03*
X25617Y24495D02*
D03*
X26741Y24545D02*
D03*
X26742Y24547D02*
D03*
X27250Y24607D02*
D03*
X26930D02*
D03*
X26932Y24608D02*
D03*
X25593Y24632D02*
D03*
D551*
X25361Y24293D02*
D03*
X26717Y24522D02*
D03*
X25347Y24626D02*
D03*
X26961Y24632D02*
D03*
D552*
X26327Y24295D02*
D03*
X26522Y24370D02*
D03*
X25383Y24594D02*
D03*
X25382Y24596D02*
D03*
D553*
X25364Y24295D02*
D03*
X26546Y24396D02*
D03*
D554*
X27240Y24296D02*
D03*
X25383Y24312D02*
D03*
X25626Y24490D02*
D03*
X26728Y24638D02*
D03*
D555*
X26944Y24296D02*
D03*
X27243Y24300D02*
D03*
X25385Y24315D02*
D03*
X26736Y24539D02*
D03*
X25599Y24638D02*
D03*
D556*
X26516Y24296D02*
D03*
X25596Y24303D02*
D03*
X26051Y24307D02*
D03*
X26050Y24309D02*
D03*
X26341Y24315D02*
D03*
X25604D02*
D03*
X26342Y24318D02*
D03*
X25605D02*
D03*
X25610Y24326D02*
D03*
X25613Y24331D02*
D03*
X25615Y24334D02*
D03*
X25618Y24339D02*
D03*
X26911Y24341D02*
D03*
X26909Y24344D02*
D03*
X25621D02*
D03*
X26909Y24345D02*
D03*
X26908Y24347D02*
D03*
X25623D02*
D03*
X26513Y24352D02*
D03*
X25626D02*
D03*
X25628Y24353D02*
D03*
X27281Y24358D02*
D03*
X25631D02*
D03*
X27281Y24359D02*
D03*
X27283Y24363D02*
D03*
Y24364D02*
D03*
X27284Y24366D02*
D03*
X25418Y24378D02*
D03*
Y24381D02*
D03*
X25420Y24383D02*
D03*
Y24385D02*
D03*
X25598Y24512D02*
D03*
X26900Y24550D02*
D03*
X25409Y24552D02*
D03*
X26902Y24553D02*
D03*
X25409D02*
D03*
X26903Y24558D02*
D03*
Y24559D02*
D03*
X27276Y24563D02*
D03*
X26905D02*
D03*
X27276Y24564D02*
D03*
X25580Y24607D02*
D03*
Y24608D02*
D03*
X25582Y24610D02*
D03*
X26749Y24616D02*
D03*
D557*
X26059Y24296D02*
D03*
X26927Y24315D02*
D03*
X27264Y24325D02*
D03*
X27265Y24326D02*
D03*
X25653Y24383D02*
D03*
X26746Y24552D02*
D03*
X26920Y24594D02*
D03*
X27259Y24596D02*
D03*
X26922D02*
D03*
X27257Y24597D02*
D03*
X25588Y24626D02*
D03*
X26741Y24629D02*
D03*
D558*
X26516Y24298D02*
D03*
X25601Y24311D02*
D03*
X25609Y24323D02*
D03*
X25617Y24336D02*
D03*
X26908Y24348D02*
D03*
X25624D02*
D03*
X27280Y24355D02*
D03*
X27284Y24367D02*
D03*
X25418Y24380D02*
D03*
X25420Y24386D02*
D03*
X25599Y24511D02*
D03*
X25410Y24548D02*
D03*
X26902Y24555D02*
D03*
X25407D02*
D03*
X26905Y24561D02*
D03*
X27275Y24567D02*
D03*
X25582Y24611D02*
D03*
X26749Y24618D02*
D03*
D559*
X25368Y24298D02*
D03*
D560*
X26331Y24300D02*
D03*
X26929Y24312D02*
D03*
X25391Y24585D02*
D03*
X26923Y24597D02*
D03*
X27255Y24600D02*
D03*
X27087Y24734D02*
D03*
D561*
X25370Y24300D02*
D03*
X25608Y24643D02*
D03*
D562*
X27246Y24301D02*
D03*
X26528Y24378D02*
D03*
X25372Y24607D02*
D03*
X26939Y24616D02*
D03*
D563*
X26513Y24301D02*
D03*
X26047Y24312D02*
D03*
Y24314D02*
D03*
X26343Y24320D02*
D03*
X26907Y24350D02*
D03*
X26512D02*
D03*
X26906Y24352D02*
D03*
Y24353D02*
D03*
X26904Y24358D02*
D03*
X27285Y24369D02*
D03*
Y24370D02*
D03*
Y24372D02*
D03*
X27287Y24375D02*
D03*
Y24377D02*
D03*
X27288Y24381D02*
D03*
X25422Y24394D02*
D03*
Y24396D02*
D03*
X25597Y24514D02*
D03*
X25594Y24518D02*
D03*
X26898Y24541D02*
D03*
X25413Y24544D02*
D03*
X26899Y24545D02*
D03*
X25411D02*
D03*
X26899Y24547D02*
D03*
X25411D02*
D03*
X27282Y24550D02*
D03*
X25409D02*
D03*
X26901Y24552D02*
D03*
X27280Y24553D02*
D03*
X27279Y24556D02*
D03*
Y24558D02*
D03*
Y24559D02*
D03*
X25580Y24602D02*
D03*
Y24604D02*
D03*
X26750Y24615D02*
D03*
D564*
X26055Y24301D02*
D03*
X26335Y24306D02*
D03*
X26337Y24307D02*
D03*
X26918Y24328D02*
D03*
X25411Y24358D02*
D03*
Y24359D02*
D03*
X26750Y24559D02*
D03*
X25398Y24572D02*
D03*
X26912Y24578D02*
D03*
X27268Y24581D02*
D03*
X25586Y24621D02*
D03*
D565*
X26513Y24303D02*
D03*
X26511Y24345D02*
D03*
Y24347D02*
D03*
X26905Y24356D02*
D03*
X26900Y24369D02*
D03*
X27287Y24378D02*
D03*
X25423Y24397D02*
D03*
Y24400D02*
D03*
Y24402D02*
D03*
X25424Y24407D02*
D03*
Y24408D02*
D03*
Y24410D02*
D03*
X25593Y24520D02*
D03*
X25591Y24522D02*
D03*
X26894Y24525D02*
D03*
X25418D02*
D03*
X26894Y24526D02*
D03*
X25417Y24531D02*
D03*
X27286Y24537D02*
D03*
Y24539D02*
D03*
X26898Y24544D02*
D03*
X27281Y24552D02*
D03*
X26755Y24575D02*
D03*
Y24577D02*
D03*
D566*
X26936Y24304D02*
D03*
D567*
X26335D02*
D03*
X27270Y24336D02*
D03*
X25650Y24380D02*
D03*
X25398Y24574D02*
D03*
X26916Y24586D02*
D03*
D568*
X26053Y24304D02*
D03*
X27276Y24348D02*
D03*
X25415Y24367D02*
D03*
X27272Y24574D02*
D03*
X26909D02*
D03*
D569*
X25376Y24304D02*
D03*
D570*
X26512Y24306D02*
D03*
Y24307D02*
D03*
Y24309D02*
D03*
X26899Y24370D02*
D03*
Y24372D02*
D03*
X26893Y24396D02*
D03*
X27293Y24400D02*
D03*
Y24402D02*
D03*
Y24404D02*
D03*
X25424D02*
D03*
X27293Y24407D02*
D03*
Y24408D02*
D03*
X25424Y24500D02*
D03*
X27293Y24506D02*
D03*
X26893Y24518D02*
D03*
Y24520D02*
D03*
Y24522D02*
D03*
X25417Y24526D02*
D03*
Y24528D02*
D03*
X27287Y24533D02*
D03*
Y24534D02*
D03*
D571*
X25377Y24306D02*
D03*
X26728Y24531D02*
D03*
X26950Y24626D02*
D03*
D572*
X27254Y24311D02*
D03*
X27246Y24611D02*
D03*
D573*
X26930Y24311D02*
D03*
X27259Y24317D02*
D03*
X26924Y24599D02*
D03*
D574*
X26510Y24311D02*
D03*
X26046Y24317D02*
D03*
X26509Y24336D02*
D03*
X27294Y24411D02*
D03*
X25425D02*
D03*
X27294Y24418D02*
D03*
X25425D02*
D03*
X25427Y24424D02*
D03*
Y24430D02*
D03*
X27296Y24435D02*
D03*
X26888Y24485D02*
D03*
X26890Y24498D02*
D03*
Y24504D02*
D03*
X26891Y24511D02*
D03*
X25422D02*
D03*
X25420Y24517D02*
D03*
X27290Y24523D02*
D03*
X25591D02*
D03*
X25419D02*
D03*
X27288Y24530D02*
D03*
X26894D02*
D03*
X25587D02*
D03*
X26754Y24574D02*
D03*
X26756Y24580D02*
D03*
X25578Y24586D02*
D03*
Y24593D02*
D03*
D575*
X27255Y24312D02*
D03*
X27249Y24608D02*
D03*
X26735Y24633D02*
D03*
D576*
X26339Y24312D02*
D03*
X26752Y24564D02*
D03*
Y24566D02*
D03*
D577*
X26928Y24314D02*
D03*
X25402Y24339D02*
D03*
X25589Y24627D02*
D03*
D578*
X27258Y24315D02*
D03*
X26521Y24369D02*
D03*
X25614Y24496D02*
D03*
X26928Y24604D02*
D03*
D579*
X26046Y24315D02*
D03*
X26045Y24318D02*
D03*
X26344Y24322D02*
D03*
X26346Y24325D02*
D03*
Y24326D02*
D03*
X26509Y24341D02*
D03*
Y24344D02*
D03*
X26903Y24359D02*
D03*
X26902Y24363D02*
D03*
Y24364D02*
D03*
X27289Y24383D02*
D03*
Y24385D02*
D03*
X27291Y24388D02*
D03*
Y24389D02*
D03*
Y24391D02*
D03*
X25590Y24525D02*
D03*
X26895Y24531D02*
D03*
Y24533D02*
D03*
Y24534D02*
D03*
X25415D02*
D03*
X26897Y24537D02*
D03*
Y24539D02*
D03*
X25413Y24541D02*
D03*
X27284Y24544D02*
D03*
Y24545D02*
D03*
X27283Y24547D02*
D03*
X26754Y24570D02*
D03*
Y24572D02*
D03*
X25579Y24596D02*
D03*
Y24597D02*
D03*
Y24600D02*
D03*
X26752Y24610D02*
D03*
D580*
X26925Y24317D02*
D03*
X27267Y24330D02*
D03*
X27261Y24593D02*
D03*
D581*
X26509Y24317D02*
D03*
Y24323D02*
D03*
X26043D02*
D03*
X26509Y24330D02*
D03*
X26347D02*
D03*
X26897Y24380D02*
D03*
X26895Y24386D02*
D03*
X26894Y24393D02*
D03*
X26892Y24399D02*
D03*
Y24405D02*
D03*
X26891Y24411D02*
D03*
X27295Y24424D02*
D03*
X26889D02*
D03*
X27295Y24430D02*
D03*
X26889D02*
D03*
X25428Y24435D02*
D03*
X27297Y24441D02*
D03*
X26887D02*
D03*
X25428D02*
D03*
X27297Y24448D02*
D03*
X26887D02*
D03*
X25428D02*
D03*
X27297Y24454D02*
D03*
X26887D02*
D03*
X25428D02*
D03*
X27297Y24460D02*
D03*
X26887D02*
D03*
X25428D02*
D03*
X27297Y24467D02*
D03*
X26887D02*
D03*
X25428D02*
D03*
X26887Y24473D02*
D03*
X27295Y24479D02*
D03*
X26887D02*
D03*
X25426D02*
D03*
X27295Y24485D02*
D03*
X25426D02*
D03*
X27295Y24492D02*
D03*
X26889D02*
D03*
X25424D02*
D03*
X27294Y24498D02*
D03*
X25424D02*
D03*
X25423Y24504D02*
D03*
X27292Y24511D02*
D03*
X27291Y24517D02*
D03*
X25585Y24536D02*
D03*
X25577Y24574D02*
D03*
Y24580D02*
D03*
X26754Y24605D02*
D03*
D582*
X25387Y24317D02*
D03*
D583*
X26924Y24318D02*
D03*
X27268Y24331D02*
D03*
X26918Y24589D02*
D03*
X27261Y24591D02*
D03*
D584*
X26344Y24323D02*
D03*
X26509Y24342D02*
D03*
X26903Y24361D02*
D03*
X27289Y24386D02*
D03*
X27291Y24393D02*
D03*
X25594Y24517D02*
D03*
X26897Y24536D02*
D03*
X25415D02*
D03*
X27284Y24542D02*
D03*
X27283Y24548D02*
D03*
X25579Y24599D02*
D03*
X26752Y24611D02*
D03*
D585*
X25392Y24323D02*
D03*
D586*
X26917Y24330D02*
D03*
X25643Y24374D02*
D03*
X26750Y24561D02*
D03*
X27269Y24580D02*
D03*
X26913D02*
D03*
D587*
X25400Y24336D02*
D03*
X26743Y24548D02*
D03*
X25384Y24593D02*
D03*
X25592Y24630D02*
D03*
D588*
X27274Y24342D02*
D03*
X25605Y24504D02*
D03*
D589*
X25404Y24344D02*
D03*
X25405Y24345D02*
D03*
Y24347D02*
D03*
X26517Y24363D02*
D03*
X26519Y24364D02*
D03*
Y24366D02*
D03*
X25654Y24385D02*
D03*
X25610Y24500D02*
D03*
X25393Y24581D02*
D03*
X25391Y24583D02*
D03*
X26919Y24591D02*
D03*
D590*
X26033Y24356D02*
D03*
D591*
X26524Y24374D02*
D03*
X25380Y24599D02*
D03*
D592*
X26532Y24383D02*
D03*
X25365Y24613D02*
D03*
X27233Y24622D02*
D03*
X25602Y24640D02*
D03*
D593*
X26536Y24386D02*
D03*
X25604Y24641D02*
D03*
D594*
X26358Y24386D02*
D03*
Y24393D02*
D03*
D595*
X25748Y24391D02*
D03*
X25224Y24684D02*
D03*
X26598Y24703D02*
D03*
D596*
X25749Y24393D02*
D03*
D597*
X26544Y24394D02*
D03*
X25612Y24644D02*
D03*
D598*
X25749Y24394D02*
D03*
Y24449D02*
D03*
D599*
X25750Y24397D02*
D03*
X27089Y24696D02*
D03*
X26596Y24706D02*
D03*
D600*
X25751Y24399D02*
D03*
D601*
X25752Y24400D02*
D03*
Y24446D02*
D03*
D602*
X27293Y24405D02*
D03*
Y24504D02*
D03*
X27287Y24536D02*
D03*
D603*
X26558Y24405D02*
D03*
D604*
X25754D02*
D03*
X26592Y24711D02*
D03*
D605*
X25755Y24407D02*
D03*
D606*
X26567Y24411D02*
D03*
D607*
X25758D02*
D03*
D608*
X26570Y24413D02*
D03*
D609*
X25761Y24416D02*
D03*
Y24437D02*
D03*
D610*
X26577Y24418D02*
D03*
D611*
X25762D02*
D03*
X27088Y24704D02*
D03*
D612*
X26579Y24419D02*
D03*
D613*
X25764D02*
D03*
X26583Y24720D02*
D03*
D614*
X26581Y24421D02*
D03*
D615*
X25765D02*
D03*
D616*
X26585Y24424D02*
D03*
D617*
X25768D02*
D03*
D618*
X26593Y24429D02*
D03*
D619*
X26594Y24430D02*
D03*
D620*
X25770D02*
D03*
D621*
X25768Y24432D02*
D03*
D622*
X26599Y24433D02*
D03*
X25187Y24725D02*
D03*
X26561Y24734D02*
D03*
D623*
X25765Y24433D02*
D03*
X27088Y24706D02*
D03*
X26581Y24722D02*
D03*
D624*
X26606Y24438D02*
D03*
X26657Y24478D02*
D03*
X27088Y24715D02*
D03*
D625*
X26608Y24440D02*
D03*
D626*
X25756Y24441D02*
D03*
D627*
X26613Y24443D02*
D03*
X26614Y24444D02*
D03*
X26652Y24474D02*
D03*
X25191Y24722D02*
D03*
D628*
X25754Y24443D02*
D03*
X25217Y24693D02*
D03*
D629*
X26617Y24446D02*
D03*
X26646Y24470D02*
D03*
X26648Y24471D02*
D03*
D630*
X26618Y24448D02*
D03*
D631*
X25750D02*
D03*
D632*
X25747Y24451D02*
D03*
X26599Y24701D02*
D03*
D633*
X26626Y24454D02*
D03*
X26634Y24460D02*
D03*
D634*
X25745Y24454D02*
D03*
X25227Y24679D02*
D03*
X26602Y24698D02*
D03*
D635*
X25742Y24459D02*
D03*
X26605Y24693D02*
D03*
D636*
X25741Y24460D02*
D03*
X25231Y24673D02*
D03*
X26606Y24692D02*
D03*
D637*
X26642Y24467D02*
D03*
D638*
X25736Y24468D02*
D03*
D639*
X25734Y24473D02*
D03*
D640*
X25733Y24474D02*
D03*
D641*
X26659Y24479D02*
D03*
D642*
X25731D02*
D03*
D643*
X25730Y24481D02*
D03*
D644*
X26663Y24482D02*
D03*
D645*
X26665Y24484D02*
D03*
D646*
X26668Y24485D02*
D03*
D647*
X25728D02*
D03*
X26619Y24660D02*
D03*
D648*
X25727Y24487D02*
D03*
X27089Y24678D02*
D03*
D649*
X26672Y24489D02*
D03*
D650*
X25622Y24492D02*
D03*
X25373Y24605D02*
D03*
D651*
X26684Y24498D02*
D03*
D652*
X26690Y24501D02*
D03*
D653*
X26695Y24506D02*
D03*
D654*
X26700Y24509D02*
D03*
X27087Y24725D02*
D03*
X26542Y24741D02*
D03*
D655*
X26709Y24515D02*
D03*
D656*
X26711Y24517D02*
D03*
D657*
X26721Y24525D02*
D03*
D658*
X26723Y24526D02*
D03*
X25353Y24622D02*
D03*
D659*
X26727Y24530D02*
D03*
D660*
X26733Y24536D02*
D03*
D661*
X26739Y24542D02*
D03*
X26734Y24635D02*
D03*
X25595D02*
D03*
D662*
X26749Y24556D02*
D03*
Y24558D02*
D03*
D663*
X27277Y24561D02*
D03*
X26753Y24567D02*
D03*
D664*
X25389Y24586D02*
D03*
D665*
X27252Y24605D02*
D03*
D666*
X25371Y24608D02*
D03*
D667*
X25367Y24611D02*
D03*
D668*
X25361Y24616D02*
D03*
X27229Y24626D02*
D03*
D669*
X27239Y24618D02*
D03*
X26940D02*
D03*
D670*
X25359D02*
D03*
D671*
X27231Y24624D02*
D03*
X26948D02*
D03*
D672*
X26952Y24627D02*
D03*
D673*
X26739Y24630D02*
D03*
D674*
X25337D02*
D03*
D675*
X27208Y24635D02*
D03*
D676*
X25321D02*
D03*
D677*
X27089Y24637D02*
D03*
D678*
X26732D02*
D03*
X25598D02*
D03*
D679*
X27090Y24640D02*
D03*
D680*
Y24641D02*
D03*
D681*
X27089Y24643D02*
D03*
D682*
X26718D02*
D03*
D683*
X25735Y24648D02*
D03*
D684*
X25243D02*
D03*
D685*
X25735Y24649D02*
D03*
D686*
X25736Y24651D02*
D03*
Y24652D02*
D03*
D687*
X25242Y24651D02*
D03*
X26617Y24668D02*
D03*
X27089Y24681D02*
D03*
D688*
Y24652D02*
D03*
D689*
X25239Y24657D02*
D03*
X26613Y24674D02*
D03*
X25774Y24725D02*
D03*
D690*
X27089Y24659D02*
D03*
D691*
Y24660D02*
D03*
D692*
X25237D02*
D03*
X26612Y24679D02*
D03*
D693*
X25235Y24663D02*
D03*
X26610Y24682D02*
D03*
D694*
X27089Y24665D02*
D03*
D695*
X25235D02*
D03*
X26609Y24684D02*
D03*
X25778Y24728D02*
D03*
D696*
X27089Y24667D02*
D03*
D697*
X25234D02*
D03*
X26609Y24685D02*
D03*
D698*
X25232Y24670D02*
D03*
X26607Y24689D02*
D03*
D699*
X27089Y24671D02*
D03*
D700*
Y24673D02*
D03*
D701*
X26614D02*
D03*
D702*
X25742Y24674D02*
D03*
D703*
X27089Y24679D02*
D03*
D704*
X25745Y24682D02*
D03*
D705*
X25223Y24685D02*
D03*
D706*
X27088Y24687D02*
D03*
D707*
X27088Y24690D02*
D03*
D708*
X25748D02*
D03*
D709*
X25220D02*
D03*
X26595Y24707D02*
D03*
D710*
X27089Y24692D02*
D03*
D711*
X25218D02*
D03*
D712*
X27088Y24695D02*
D03*
D713*
X25751Y24696D02*
D03*
D714*
X25214Y24698D02*
D03*
D715*
X27088Y24700D02*
D03*
D716*
X25754Y24701D02*
D03*
D717*
X27088Y24703D02*
D03*
D718*
X26597Y24704D02*
D03*
D719*
X25756D02*
D03*
D720*
X27088Y24709D02*
D03*
D721*
X25205D02*
D03*
D722*
X25761Y24711D02*
D03*
D723*
X25203D02*
D03*
D724*
X26591Y24712D02*
D03*
X25797Y24737D02*
D03*
D725*
X25198Y24715D02*
D03*
X26572Y24728D02*
D03*
D726*
X27088Y24717D02*
D03*
D727*
X26586D02*
D03*
D728*
X25766D02*
D03*
D729*
X25196D02*
D03*
D730*
X25767Y24718D02*
D03*
D731*
X25194D02*
D03*
D732*
X26579Y24723D02*
D03*
D733*
X25189D02*
D03*
D734*
X26577Y24725D02*
D03*
D735*
X26570Y24730D02*
D03*
D736*
X25781D02*
D03*
D737*
X25180D02*
D03*
D738*
X26567Y24731D02*
D03*
D739*
X25786Y24733D02*
D03*
D740*
X25173D02*
D03*
X26548Y24739D02*
D03*
D741*
X26557Y24736D02*
D03*
D742*
X27087Y24737D02*
D03*
D743*
X25808Y24741D02*
D03*
D744*
X27086Y24742D02*
D03*
D745*
X26533D02*
D03*
D746*
X25817D02*
D03*
M02*
