G04 Layer_Color=15132400*
%FSLAX24Y24*%
%MOIN*%
G70*
G01*
G75*
%ADD12C,0.0059*%
%ADD27C,0.0100*%
%ADD28C,0.0061*%
D12*
X25689Y25590D02*
Y25295D01*
X25886D01*
X26181Y25590D02*
X25984D01*
Y25295D01*
X26181D01*
X25984Y25443D02*
X26083D01*
X26279Y25590D02*
Y25295D01*
X26427D01*
X26476Y25344D01*
Y25541D01*
X26427Y25590D01*
X26279D01*
X26575Y25541D02*
X26624Y25590D01*
X26722D01*
X26771Y25541D01*
Y25492D01*
X26722Y25443D01*
X26673D01*
X26722D01*
X26771Y25394D01*
Y25344D01*
X26722Y25295D01*
X26624D01*
X26575Y25344D01*
X35335Y12008D02*
Y11713D01*
X35531D01*
X35827Y12008D02*
X35630D01*
Y11713D01*
X35827D01*
X35630Y11860D02*
X35728D01*
X35925Y12008D02*
Y11713D01*
X36073D01*
X36122Y11762D01*
Y11959D01*
X36073Y12008D01*
X35925D01*
X36220Y11713D02*
X36319D01*
X36269D01*
Y12008D01*
X36220Y11959D01*
X16043Y12008D02*
Y11713D01*
X16240D01*
X16535Y12008D02*
X16338D01*
Y11713D01*
X16535D01*
X16338Y11860D02*
X16437D01*
X16634Y12008D02*
Y11713D01*
X16781D01*
X16830Y11762D01*
Y11959D01*
X16781Y12008D01*
X16634D01*
X17126Y11713D02*
X16929D01*
X17126Y11909D01*
Y11959D01*
X17076Y12008D01*
X16978D01*
X16929Y11959D01*
X24705Y20571D02*
Y20866D01*
X24852D01*
X24902Y20817D01*
Y20718D01*
X24852Y20669D01*
X24705D01*
X24803D02*
X24902Y20571D01*
X25197Y20866D02*
X25000D01*
Y20571D01*
X25197D01*
X25000Y20718D02*
X25098D01*
X25492Y20817D02*
X25443Y20866D01*
X25344D01*
X25295Y20817D01*
Y20768D01*
X25344Y20718D01*
X25443D01*
X25492Y20669D01*
Y20620D01*
X25443Y20571D01*
X25344D01*
X25295Y20620D01*
X20177Y12106D02*
Y12401D01*
X20325D01*
X20374Y12352D01*
Y12254D01*
X20325Y12205D01*
X20177D01*
X20276D02*
X20374Y12106D01*
X20669D02*
X20472D01*
X20669Y12303D01*
Y12352D01*
X20620Y12401D01*
X20522D01*
X20472Y12352D01*
X20768Y12401D02*
X20964D01*
Y12352D01*
X20768Y12155D01*
Y12106D01*
X23228Y15157D02*
Y15453D01*
X23376D01*
X23425Y15403D01*
Y15305D01*
X23376Y15256D01*
X23228D01*
X23327D02*
X23425Y15157D01*
X23720D02*
X23524D01*
X23720Y15354D01*
Y15403D01*
X23671Y15453D01*
X23573D01*
X23524Y15403D01*
X24016Y15453D02*
X23917Y15403D01*
X23819Y15305D01*
Y15207D01*
X23868Y15157D01*
X23966D01*
X24016Y15207D01*
Y15256D01*
X23966Y15305D01*
X23819D01*
X23228Y17520D02*
Y17815D01*
X23376D01*
X23425Y17766D01*
Y17667D01*
X23376Y17618D01*
X23228D01*
X23327D02*
X23425Y17520D01*
X23720D02*
X23524D01*
X23720Y17716D01*
Y17766D01*
X23671Y17815D01*
X23573D01*
X23524Y17766D01*
X24016Y17815D02*
X23819D01*
Y17667D01*
X23917Y17716D01*
X23966D01*
X24016Y17667D01*
Y17569D01*
X23966Y17520D01*
X23868D01*
X23819Y17569D01*
X20276Y12795D02*
Y13090D01*
X20423D01*
X20472Y13041D01*
Y12943D01*
X20423Y12894D01*
X20276D01*
X20374D02*
X20472Y12795D01*
X20768D02*
X20571D01*
X20768Y12992D01*
Y13041D01*
X20718Y13090D01*
X20620D01*
X20571Y13041D01*
X20866Y12795D02*
X20964D01*
X20915D01*
Y13090D01*
X20866Y13041D01*
X25295Y15157D02*
Y15453D01*
X25443D01*
X25492Y15403D01*
Y15305D01*
X25443Y15256D01*
X25295D01*
X25394D02*
X25492Y15157D01*
X25787D02*
X25590D01*
X25787Y15354D01*
Y15403D01*
X25738Y15453D01*
X25640D01*
X25590Y15403D01*
X25886D02*
X25935Y15453D01*
X26033D01*
X26082Y15403D01*
Y15207D01*
X26033Y15157D01*
X25935D01*
X25886Y15207D01*
Y15403D01*
X25394Y17520D02*
Y17815D01*
X25541D01*
X25590Y17766D01*
Y17667D01*
X25541Y17618D01*
X25394D01*
X25492D02*
X25590Y17520D01*
X25689D02*
X25787D01*
X25738D01*
Y17815D01*
X25689Y17766D01*
X25935Y17569D02*
X25984Y17520D01*
X26082D01*
X26132Y17569D01*
Y17766D01*
X26082Y17815D01*
X25984D01*
X25935Y17766D01*
Y17716D01*
X25984Y17667D01*
X26132D01*
X31594Y11516D02*
Y11811D01*
X31742D01*
X31791Y11762D01*
Y11663D01*
X31742Y11614D01*
X31594D01*
X31693D02*
X31791Y11516D01*
X31890D02*
X31988D01*
X31939D01*
Y11811D01*
X31890Y11762D01*
X32332Y11811D02*
X32136D01*
Y11663D01*
X32234Y11713D01*
X32283D01*
X32332Y11663D01*
Y11565D01*
X32283Y11516D01*
X32185D01*
X32136Y11565D01*
X27461Y15157D02*
Y15453D01*
X27608D01*
X27657Y15403D01*
Y15305D01*
X27608Y15256D01*
X27461D01*
X27559D02*
X27657Y15157D01*
X27756D02*
X27854D01*
X27805D01*
Y15453D01*
X27756Y15403D01*
X28149Y15157D02*
Y15453D01*
X28002Y15305D01*
X28199D01*
X27461Y17520D02*
Y17815D01*
X27608D01*
X27657Y17766D01*
Y17667D01*
X27608Y17618D01*
X27461D01*
X27559D02*
X27657Y17520D01*
X27756D02*
X27854D01*
X27805D01*
Y17815D01*
X27756Y17766D01*
X28002D02*
X28051Y17815D01*
X28149D01*
X28199Y17766D01*
Y17716D01*
X28149Y17667D01*
X28100D01*
X28149D01*
X28199Y17618D01*
Y17569D01*
X28149Y17520D01*
X28051D01*
X28002Y17569D01*
X31594Y12106D02*
Y12401D01*
X31742D01*
X31791Y12352D01*
Y12254D01*
X31742Y12205D01*
X31594D01*
X31693D02*
X31791Y12106D01*
X31890Y12155D02*
X31939Y12106D01*
X32037D01*
X32086Y12155D01*
Y12352D01*
X32037Y12401D01*
X31939D01*
X31890Y12352D01*
Y12303D01*
X31939Y12254D01*
X32086D01*
X29626Y15157D02*
Y15453D01*
X29774D01*
X29823Y15403D01*
Y15305D01*
X29774Y15256D01*
X29626D01*
X29724D02*
X29823Y15157D01*
X29921Y15403D02*
X29970Y15453D01*
X30069D01*
X30118Y15403D01*
Y15354D01*
X30069Y15305D01*
X30118Y15256D01*
Y15207D01*
X30069Y15157D01*
X29970D01*
X29921Y15207D01*
Y15256D01*
X29970Y15305D01*
X29921Y15354D01*
Y15403D01*
X29970Y15305D02*
X30069D01*
X29626Y17520D02*
Y17815D01*
X29774D01*
X29823Y17766D01*
Y17667D01*
X29774Y17618D01*
X29626D01*
X29724D02*
X29823Y17520D01*
X29921Y17815D02*
X30118D01*
Y17766D01*
X29921Y17569D01*
Y17520D01*
X31594Y12795D02*
Y13090D01*
X31742D01*
X31791Y13041D01*
Y12943D01*
X31742Y12894D01*
X31594D01*
X31693D02*
X31791Y12795D01*
X31890Y13041D02*
X31939Y13090D01*
X32037D01*
X32086Y13041D01*
Y12992D01*
X32037Y12943D01*
X31988D01*
X32037D01*
X32086Y12894D01*
Y12844D01*
X32037Y12795D01*
X31939D01*
X31890Y12844D01*
X31594Y15157D02*
Y15453D01*
X31742D01*
X31791Y15403D01*
Y15305D01*
X31742Y15256D01*
X31594D01*
X31693D02*
X31791Y15157D01*
X32086D02*
X31890D01*
X32086Y15354D01*
Y15403D01*
X32037Y15453D01*
X31939D01*
X31890Y15403D01*
X31594Y17520D02*
Y17815D01*
X31742D01*
X31791Y17766D01*
Y17667D01*
X31742Y17618D01*
X31594D01*
X31693D02*
X31791Y17520D01*
X31890D02*
X31988D01*
X31939D01*
Y17815D01*
X31890Y17766D01*
X22523Y21008D02*
X22326D01*
Y20861D01*
X22424Y20910D01*
X22473D01*
X22523Y20861D01*
Y20762D01*
X22473Y20713D01*
X22375D01*
X22326Y20762D01*
X22621Y21008D02*
Y20812D01*
X22719Y20713D01*
X22818Y20812D01*
Y21008D01*
X28706Y21053D02*
X28657Y21102D01*
X28558D01*
X28509Y21053D01*
Y20856D01*
X28558Y20807D01*
X28657D01*
X28706Y20856D01*
Y20954D01*
X28607D01*
X28804Y20807D02*
Y21102D01*
X29001Y20807D01*
Y21102D01*
X29099D02*
Y20807D01*
X29247D01*
X29296Y20856D01*
Y21053D01*
X29247Y21102D01*
X29099D01*
X24710Y23695D02*
Y23400D01*
Y23548D01*
X24907D01*
Y23695D01*
Y23400D01*
X25005Y23646D02*
X25054Y23695D01*
X25153D01*
X25202Y23646D01*
Y23597D01*
X25153Y23548D01*
X25104D01*
X25153D01*
X25202Y23498D01*
Y23449D01*
X25153Y23400D01*
X25054D01*
X25005Y23449D01*
X17758Y13735D02*
Y13440D01*
Y13588D01*
X17955D01*
Y13735D01*
Y13440D01*
X18250D02*
X18053D01*
X18250Y13637D01*
Y13686D01*
X18201Y13735D01*
X18102D01*
X18053Y13686D01*
X32520Y13702D02*
Y13407D01*
Y13554D01*
X32717D01*
Y13702D01*
Y13407D01*
X32815D02*
X32914D01*
X32864D01*
Y13702D01*
X32815Y13653D01*
X20768Y13878D02*
X20669D01*
X20718D01*
Y13632D01*
X20669Y13583D01*
X20620D01*
X20571Y13632D01*
X20866Y13829D02*
X20915Y13878D01*
X21014D01*
X21063Y13829D01*
Y13779D01*
X21014Y13730D01*
X21063Y13681D01*
Y13632D01*
X21014Y13583D01*
X20915D01*
X20866Y13632D01*
Y13681D01*
X20915Y13730D01*
X20866Y13779D01*
Y13829D01*
X20915Y13730D02*
X21014D01*
X32874Y16732D02*
X32776D01*
X32825D01*
Y16486D01*
X32776Y16437D01*
X32726D01*
X32677Y16486D01*
X32972Y16732D02*
X33169D01*
Y16683D01*
X32972Y16486D01*
Y16437D01*
X20768Y18405D02*
X20669D01*
X20718D01*
Y18159D01*
X20669Y18110D01*
X20620D01*
X20571Y18159D01*
X21063Y18405D02*
X20964Y18356D01*
X20866Y18258D01*
Y18159D01*
X20915Y18110D01*
X21014D01*
X21063Y18159D01*
Y18209D01*
X21014Y18258D01*
X20866D01*
D27*
X25315Y25197D02*
G03*
X25315Y25197I-39J0D01*
G01*
X34961Y11614D02*
G03*
X34961Y11614I-39J0D01*
G01*
X15669D02*
G03*
X15669Y11614I-39J0D01*
G01*
X25512Y23740D02*
Y25079D01*
Y23740D02*
X26850D01*
Y25079D01*
X25512D02*
X26850D01*
X35157Y10157D02*
Y11496D01*
Y10157D02*
X36496D01*
Y11496D01*
X35157D02*
X36496D01*
X15866Y10157D02*
Y11496D01*
Y10157D02*
X17205D01*
Y11496D01*
X15866D02*
X17205D01*
X24697Y21500D02*
Y22200D01*
Y21500D02*
X24847Y21350D01*
X25547D01*
X25697Y21500D01*
X25847Y21350D01*
X26547D01*
X26697Y21500D01*
X26847Y21350D01*
X27547D01*
X27697Y21500D01*
X27547Y22350D02*
X27697Y22200D01*
X26697D02*
X26847Y22350D01*
X26547D02*
X26697Y22200D01*
X25697D02*
X25847Y22350D01*
X25547D02*
X25697Y22200D01*
X24847Y22350D02*
X25547D01*
X24697Y22200D02*
X24847Y22350D01*
X26847D02*
X27547D01*
X25847D02*
X26547D01*
X26847D02*
X27547D01*
X25847D02*
X26547D01*
X27697Y21500D02*
Y22200D01*
X18646Y10130D02*
X19346D01*
X19496Y10280D01*
Y10980D01*
X19346Y11130D02*
X19496Y10980D01*
X19346Y11130D02*
X19496Y11280D01*
Y11980D01*
X19346Y12130D02*
X19496Y11980D01*
X19346Y12130D02*
X19496Y12280D01*
Y12980D01*
X19346Y13130D02*
X19496Y12980D01*
X18496D02*
X18646Y13130D01*
X18496Y12280D02*
X18646Y12130D01*
X18496Y11980D02*
X18646Y12130D01*
X18496Y11280D02*
X18646Y11130D01*
X18496Y10980D02*
X18646Y11130D01*
X18496Y10280D02*
Y10980D01*
Y10280D02*
X18646Y10130D01*
X18496Y12280D02*
Y12980D01*
Y11280D02*
Y11980D01*
Y12280D02*
Y12980D01*
Y11280D02*
Y11980D01*
X18646Y13130D02*
X19346D01*
X33115Y13098D02*
X33815D01*
X32965Y12948D02*
X33115Y13098D01*
X32965Y12248D02*
Y12948D01*
Y12248D02*
X33115Y12098D01*
X32965Y11948D02*
X33115Y12098D01*
X32965Y11248D02*
Y11948D01*
Y11248D02*
X33115Y11098D01*
X32965Y10948D02*
X33115Y11098D01*
X32965Y10248D02*
Y10948D01*
Y10248D02*
X33115Y10098D01*
X33815D02*
X33965Y10248D01*
X33815Y11098D02*
X33965Y10948D01*
X33815Y11098D02*
X33965Y11248D01*
X33815Y12098D02*
X33965Y11948D01*
X33815Y12098D02*
X33965Y12248D01*
Y12948D01*
X33815Y13098D02*
X33965Y12948D01*
Y10248D02*
Y10948D01*
Y11248D02*
Y11948D01*
Y10248D02*
Y10948D01*
Y11248D02*
Y11948D01*
X33115Y10098D02*
X33815D01*
X21180Y13573D02*
Y14453D01*
Y14773D01*
X31280Y13573D02*
X31380D01*
Y14773D01*
X21180D02*
X31380D01*
X21180Y13573D02*
X31280D01*
X22361Y15837D02*
Y16717D01*
Y17037D01*
X32461Y15837D02*
X32561D01*
Y17037D01*
X22361D02*
X32561D01*
X22361Y15837D02*
X32461D01*
X21180Y18101D02*
Y18981D01*
Y19301D01*
X31280Y18101D02*
X31380D01*
Y19301D01*
X21180D02*
X31380D01*
X21180Y18101D02*
X31280D01*
D28*
X26772Y20866D02*
Y20571D01*
X26968D01*
X27264Y20866D02*
X27067D01*
Y20571D01*
X27264D01*
X27067Y20718D02*
X27165D01*
X27362Y20866D02*
Y20571D01*
X27510D01*
X27559Y20620D01*
Y20817D01*
X27510Y20866D01*
X27362D01*
M02*
