M48
;Layer_Color=9474304
;FILE_FORMAT=2:4
INCH,LZ
T14F00S00C0.2000
%
G90
G05
T14
G00X049411Y008862
M15
G01X049602Y008922
G01X049777Y009017
G01X04993Y009146
G01X050054Y009303
G01X050145Y009481
G01X050198Y009673
G01X050213Y009843
G01X050213Y049213
G01X050193Y049411
G01X050134Y049602
G01X050038Y049777
G01X049909Y04993
G01X049753Y050054
G01X049574Y050145
G01X049382Y050198
G01X049213Y050213
G01X009843Y050213
G01X009644Y050193
G01X009453Y050134
G01X009278Y050038
G01X009125Y049909
G01X009001Y049753
G01X00891Y049574
G01X008857Y049382
G01X008843Y049213
G01X008843Y009843
G01X008862Y009644
G01X008922Y009453
G01X009017Y009278
G01X009146Y009125
G01X009303Y009001
G01X009481Y00891
G01X009673Y008857
G01X009843Y008843
G01X049213Y008843
G01X049411Y008862
M16
M17
M30
