G04 Layer_Color=25308*
%FSLAX24Y24*%
%MOIN*%
G70*
G01*
G75*
%ADD20R,0.0750X0.0750*%
%ADD21C,0.0750*%
%ADD22C,0.0197*%
%ADD23R,0.0600X0.0600*%
%ADD24C,0.0600*%
%ADD25C,0.1575*%
%ADD26C,0.1181*%
%ADD27P,0.0639X8X22.5*%
%ADD28O,0.1181X0.1969*%
%ADD29R,0.0700X0.0700*%
%ADD30C,0.0700*%
%ADD32R,0.0591X0.0394*%
D20*
X25394Y26260D02*
D03*
D21*
X24394D02*
D03*
X23394D02*
D03*
D22*
X34154Y26378D02*
D03*
X33465Y25886D02*
D03*
X42323Y28051D02*
D03*
X39567Y28445D02*
D03*
X37795Y30217D02*
D03*
X36909Y29626D02*
D03*
D23*
X26024Y21535D02*
D03*
D24*
X27024D02*
D03*
Y24535D02*
D03*
X26024D02*
D03*
X44882Y19685D02*
D03*
X9843D02*
D03*
X44882Y39370D02*
D03*
X9843D02*
D03*
D25*
X24094Y22165D02*
D03*
Y24134D02*
D03*
D26*
X32539Y35039D02*
D03*
X36437D02*
D03*
D27*
X18957Y25927D02*
D03*
Y26715D02*
D03*
X19941D02*
D03*
Y25927D02*
D03*
D28*
X21819Y24860D02*
D03*
X17079D02*
D03*
D29*
X16720Y29035D02*
D03*
Y37500D02*
D03*
D30*
X17720Y29035D02*
D03*
X18720D02*
D03*
X19720D02*
D03*
X20720D02*
D03*
X21720D02*
D03*
X22720D02*
D03*
X23720D02*
D03*
X24720D02*
D03*
X25720D02*
D03*
X26720D02*
D03*
X27720D02*
D03*
X28720D02*
D03*
X29720D02*
D03*
X30720D02*
D03*
X17720Y37500D02*
D03*
X18720D02*
D03*
X19720D02*
D03*
X20720D02*
D03*
X21720D02*
D03*
X22720D02*
D03*
X23720D02*
D03*
X24720D02*
D03*
X25720D02*
D03*
X26720D02*
D03*
X27720D02*
D03*
X28720D02*
D03*
X29720D02*
D03*
X30720D02*
D03*
D32*
X14685Y32835D02*
D03*
Y33465D02*
D03*
Y34094D02*
D03*
X12874D02*
D03*
Y33465D02*
D03*
Y32835D02*
D03*
X14685Y24961D02*
D03*
Y25591D02*
D03*
Y26220D02*
D03*
X12874D02*
D03*
Y25591D02*
D03*
Y24961D02*
D03*
X41850D02*
D03*
Y25591D02*
D03*
Y26220D02*
D03*
X40039D02*
D03*
Y25591D02*
D03*
Y24961D02*
D03*
X41850Y32835D02*
D03*
Y33465D02*
D03*
Y34094D02*
D03*
X40039D02*
D03*
Y33465D02*
D03*
Y32835D02*
D03*
M02*
