%TF.GenerationSoftware,KiCad,Pcbnew,(7.0.0)*%
%TF.CreationDate,2023-10-08T10:20:44-07:00*%
%TF.ProjectId,Dot-LED,446f742d-4c45-4442-9e6b-696361645f70,rev?*%
%TF.SameCoordinates,Original*%
%TF.FileFunction,Drillmap*%
%TF.FilePolarity,Positive*%
%FSLAX45Y45*%
G04 Gerber Fmt 4.5, Leading zero omitted, Abs format (unit mm)*
G04 Created by KiCad (PCBNEW (7.0.0)) date 2023-10-08 10:20:44*
%MOMM*%
%LPD*%
G01*
G04 APERTURE LIST*
%ADD10C,0.125000*%
%ADD11C,0.200000*%
%ADD12C,0.065000*%
%ADD13C,0.120000*%
G04 APERTURE END LIST*
D10*
X12905000Y-4025000D02*
X12493877Y-4024014D01*
X12993807Y-4125485D02*
G75*
G03*
X12905000Y-4025000I-101247J5D01*
G01*
X12299829Y-4399498D02*
G75*
G03*
X13103063Y-4400485I400170J-1177811D01*
G01*
X12384497Y-4299014D02*
X12383378Y-4124014D01*
X12298377Y-4399009D02*
G75*
G03*
X12384497Y-4299014I-14998J99999D01*
G01*
X12992556Y-4300485D02*
G75*
G03*
X13103063Y-4400485I100504J5D01*
G01*
X12992565Y-4300485D02*
X12993683Y-4125485D01*
X12493878Y-4024007D02*
G75*
G03*
X12383378Y-4124014I-9998J-100003D01*
G01*
D11*
D12*
X12282500Y-6447500D02*
X12347500Y-6512500D01*
X12347500Y-6447500D02*
X12282500Y-6512500D01*
X13002500Y-6447500D02*
X13067500Y-6512500D01*
X13067500Y-6447500D02*
X13002500Y-6512500D01*
D11*
X13020000Y-6512500D02*
X13050000Y-6512500D01*
X13050000Y-6512500D02*
G75*
G03*
X13050000Y-6447500I0J32500D01*
G01*
X13050000Y-6447500D02*
X13020000Y-6447500D01*
X13020000Y-6447500D02*
G75*
G03*
X13020000Y-6512500I0J-32500D01*
G01*
D13*
X12265000Y-4030000D02*
G75*
G03*
X12265000Y-4030000I-60000J0D01*
G01*
X12265000Y-4280000D02*
G75*
G03*
X12265000Y-4280000I-60000J0D01*
G01*
X12765000Y-4780000D02*
G75*
G03*
X12765000Y-4780000I-60000J0D01*
G01*
X13265000Y-4030000D02*
G75*
G03*
X13265000Y-4030000I-60000J0D01*
G01*
X13265000Y-4280000D02*
G75*
G03*
X13265000Y-4280000I-60000J0D01*
G01*
D11*
X11697433Y-7120971D02*
X11697433Y-6920971D01*
X11697433Y-6920971D02*
X11745052Y-6920971D01*
X11745052Y-6920971D02*
X11773624Y-6930495D01*
X11773624Y-6930495D02*
X11792671Y-6949543D01*
X11792671Y-6949543D02*
X11802195Y-6968590D01*
X11802195Y-6968590D02*
X11811719Y-7006686D01*
X11811719Y-7006686D02*
X11811719Y-7035257D01*
X11811719Y-7035257D02*
X11802195Y-7073352D01*
X11802195Y-7073352D02*
X11792671Y-7092400D01*
X11792671Y-7092400D02*
X11773624Y-7111447D01*
X11773624Y-7111447D02*
X11745052Y-7120971D01*
X11745052Y-7120971D02*
X11697433Y-7120971D01*
X11897433Y-7120971D02*
X11897433Y-6987638D01*
X11897433Y-7025733D02*
X11906957Y-7006686D01*
X11906957Y-7006686D02*
X11916481Y-6997162D01*
X11916481Y-6997162D02*
X11935528Y-6987638D01*
X11935528Y-6987638D02*
X11954576Y-6987638D01*
X12021243Y-7120971D02*
X12021243Y-6987638D01*
X12021243Y-6920971D02*
X12011719Y-6930495D01*
X12011719Y-6930495D02*
X12021243Y-6940019D01*
X12021243Y-6940019D02*
X12030766Y-6930495D01*
X12030766Y-6930495D02*
X12021243Y-6920971D01*
X12021243Y-6920971D02*
X12021243Y-6940019D01*
X12145052Y-7120971D02*
X12126005Y-7111447D01*
X12126005Y-7111447D02*
X12116481Y-7092400D01*
X12116481Y-7092400D02*
X12116481Y-6920971D01*
X12249814Y-7120971D02*
X12230766Y-7111447D01*
X12230766Y-7111447D02*
X12221243Y-7092400D01*
X12221243Y-7092400D02*
X12221243Y-6920971D01*
X12446005Y-7120971D02*
X12446005Y-6920971D01*
X12446005Y-6920971D02*
X12512671Y-7063828D01*
X12512671Y-7063828D02*
X12579338Y-6920971D01*
X12579338Y-6920971D02*
X12579338Y-7120971D01*
X12760290Y-7120971D02*
X12760290Y-7016209D01*
X12760290Y-7016209D02*
X12750766Y-6997162D01*
X12750766Y-6997162D02*
X12731719Y-6987638D01*
X12731719Y-6987638D02*
X12693624Y-6987638D01*
X12693624Y-6987638D02*
X12674576Y-6997162D01*
X12760290Y-7111447D02*
X12741243Y-7120971D01*
X12741243Y-7120971D02*
X12693624Y-7120971D01*
X12693624Y-7120971D02*
X12674576Y-7111447D01*
X12674576Y-7111447D02*
X12665052Y-7092400D01*
X12665052Y-7092400D02*
X12665052Y-7073352D01*
X12665052Y-7073352D02*
X12674576Y-7054305D01*
X12674576Y-7054305D02*
X12693624Y-7044781D01*
X12693624Y-7044781D02*
X12741243Y-7044781D01*
X12741243Y-7044781D02*
X12760290Y-7035257D01*
X12855528Y-6987638D02*
X12855528Y-7187638D01*
X12855528Y-6997162D02*
X12874576Y-6987638D01*
X12874576Y-6987638D02*
X12912671Y-6987638D01*
X12912671Y-6987638D02*
X12931719Y-6997162D01*
X12931719Y-6997162D02*
X12941243Y-7006686D01*
X12941243Y-7006686D02*
X12950766Y-7025733D01*
X12950766Y-7025733D02*
X12950766Y-7082876D01*
X12950766Y-7082876D02*
X12941243Y-7101924D01*
X12941243Y-7101924D02*
X12931719Y-7111447D01*
X12931719Y-7111447D02*
X12912671Y-7120971D01*
X12912671Y-7120971D02*
X12874576Y-7120971D01*
X12874576Y-7120971D02*
X12855528Y-7111447D01*
X13036481Y-7101924D02*
X13046005Y-7111447D01*
X13046005Y-7111447D02*
X13036481Y-7120971D01*
X13036481Y-7120971D02*
X13026957Y-7111447D01*
X13026957Y-7111447D02*
X13036481Y-7101924D01*
X13036481Y-7101924D02*
X13036481Y-7120971D01*
X13036481Y-6997162D02*
X13046005Y-7006686D01*
X13046005Y-7006686D02*
X13036481Y-7016209D01*
X13036481Y-7016209D02*
X13026957Y-7006686D01*
X13026957Y-7006686D02*
X13036481Y-6997162D01*
X13036481Y-6997162D02*
X13036481Y-7016209D01*
D12*
X11384814Y-7434995D02*
X11449814Y-7499995D01*
X11449814Y-7434995D02*
X11384814Y-7499995D01*
D11*
X11735528Y-7340971D02*
X11754576Y-7340971D01*
X11754576Y-7340971D02*
X11773624Y-7350495D01*
X11773624Y-7350495D02*
X11783147Y-7360019D01*
X11783147Y-7360019D02*
X11792671Y-7379067D01*
X11792671Y-7379067D02*
X11802195Y-7417162D01*
X11802195Y-7417162D02*
X11802195Y-7464781D01*
X11802195Y-7464781D02*
X11792671Y-7502876D01*
X11792671Y-7502876D02*
X11783147Y-7521924D01*
X11783147Y-7521924D02*
X11773624Y-7531447D01*
X11773624Y-7531447D02*
X11754576Y-7540971D01*
X11754576Y-7540971D02*
X11735528Y-7540971D01*
X11735528Y-7540971D02*
X11716481Y-7531447D01*
X11716481Y-7531447D02*
X11706957Y-7521924D01*
X11706957Y-7521924D02*
X11697433Y-7502876D01*
X11697433Y-7502876D02*
X11687909Y-7464781D01*
X11687909Y-7464781D02*
X11687909Y-7417162D01*
X11687909Y-7417162D02*
X11697433Y-7379067D01*
X11697433Y-7379067D02*
X11706957Y-7360019D01*
X11706957Y-7360019D02*
X11716481Y-7350495D01*
X11716481Y-7350495D02*
X11735528Y-7340971D01*
X11887909Y-7521924D02*
X11897433Y-7531447D01*
X11897433Y-7531447D02*
X11887909Y-7540971D01*
X11887909Y-7540971D02*
X11878386Y-7531447D01*
X11878386Y-7531447D02*
X11887909Y-7521924D01*
X11887909Y-7521924D02*
X11887909Y-7540971D01*
X12068862Y-7340971D02*
X12030766Y-7340971D01*
X12030766Y-7340971D02*
X12011719Y-7350495D01*
X12011719Y-7350495D02*
X12002195Y-7360019D01*
X12002195Y-7360019D02*
X11983147Y-7388590D01*
X11983147Y-7388590D02*
X11973624Y-7426686D01*
X11973624Y-7426686D02*
X11973624Y-7502876D01*
X11973624Y-7502876D02*
X11983147Y-7521924D01*
X11983147Y-7521924D02*
X11992671Y-7531447D01*
X11992671Y-7531447D02*
X12011719Y-7540971D01*
X12011719Y-7540971D02*
X12049814Y-7540971D01*
X12049814Y-7540971D02*
X12068862Y-7531447D01*
X12068862Y-7531447D02*
X12078386Y-7521924D01*
X12078386Y-7521924D02*
X12087909Y-7502876D01*
X12087909Y-7502876D02*
X12087909Y-7455257D01*
X12087909Y-7455257D02*
X12078386Y-7436209D01*
X12078386Y-7436209D02*
X12068862Y-7426686D01*
X12068862Y-7426686D02*
X12049814Y-7417162D01*
X12049814Y-7417162D02*
X12011719Y-7417162D01*
X12011719Y-7417162D02*
X11992671Y-7426686D01*
X11992671Y-7426686D02*
X11983147Y-7436209D01*
X11983147Y-7436209D02*
X11973624Y-7455257D01*
X12268862Y-7340971D02*
X12173624Y-7340971D01*
X12173624Y-7340971D02*
X12164100Y-7436209D01*
X12164100Y-7436209D02*
X12173624Y-7426686D01*
X12173624Y-7426686D02*
X12192671Y-7417162D01*
X12192671Y-7417162D02*
X12240290Y-7417162D01*
X12240290Y-7417162D02*
X12259338Y-7426686D01*
X12259338Y-7426686D02*
X12268862Y-7436209D01*
X12268862Y-7436209D02*
X12278386Y-7455257D01*
X12278386Y-7455257D02*
X12278386Y-7502876D01*
X12278386Y-7502876D02*
X12268862Y-7521924D01*
X12268862Y-7521924D02*
X12259338Y-7531447D01*
X12259338Y-7531447D02*
X12240290Y-7540971D01*
X12240290Y-7540971D02*
X12192671Y-7540971D01*
X12192671Y-7540971D02*
X12173624Y-7531447D01*
X12173624Y-7531447D02*
X12164100Y-7521924D01*
X12402195Y-7340971D02*
X12421243Y-7340971D01*
X12421243Y-7340971D02*
X12440290Y-7350495D01*
X12440290Y-7350495D02*
X12449814Y-7360019D01*
X12449814Y-7360019D02*
X12459338Y-7379067D01*
X12459338Y-7379067D02*
X12468862Y-7417162D01*
X12468862Y-7417162D02*
X12468862Y-7464781D01*
X12468862Y-7464781D02*
X12459338Y-7502876D01*
X12459338Y-7502876D02*
X12449814Y-7521924D01*
X12449814Y-7521924D02*
X12440290Y-7531447D01*
X12440290Y-7531447D02*
X12421243Y-7540971D01*
X12421243Y-7540971D02*
X12402195Y-7540971D01*
X12402195Y-7540971D02*
X12383147Y-7531447D01*
X12383147Y-7531447D02*
X12373624Y-7521924D01*
X12373624Y-7521924D02*
X12364100Y-7502876D01*
X12364100Y-7502876D02*
X12354576Y-7464781D01*
X12354576Y-7464781D02*
X12354576Y-7417162D01*
X12354576Y-7417162D02*
X12364100Y-7379067D01*
X12364100Y-7379067D02*
X12373624Y-7360019D01*
X12373624Y-7360019D02*
X12383147Y-7350495D01*
X12383147Y-7350495D02*
X12402195Y-7340971D01*
X12554576Y-7540971D02*
X12554576Y-7407638D01*
X12554576Y-7426686D02*
X12564100Y-7417162D01*
X12564100Y-7417162D02*
X12583147Y-7407638D01*
X12583147Y-7407638D02*
X12611719Y-7407638D01*
X12611719Y-7407638D02*
X12630767Y-7417162D01*
X12630767Y-7417162D02*
X12640290Y-7436209D01*
X12640290Y-7436209D02*
X12640290Y-7540971D01*
X12640290Y-7436209D02*
X12649814Y-7417162D01*
X12649814Y-7417162D02*
X12668862Y-7407638D01*
X12668862Y-7407638D02*
X12697433Y-7407638D01*
X12697433Y-7407638D02*
X12716481Y-7417162D01*
X12716481Y-7417162D02*
X12726005Y-7436209D01*
X12726005Y-7436209D02*
X12726005Y-7540971D01*
X12821243Y-7540971D02*
X12821243Y-7407638D01*
X12821243Y-7426686D02*
X12830767Y-7417162D01*
X12830767Y-7417162D02*
X12849814Y-7407638D01*
X12849814Y-7407638D02*
X12878386Y-7407638D01*
X12878386Y-7407638D02*
X12897433Y-7417162D01*
X12897433Y-7417162D02*
X12906957Y-7436209D01*
X12906957Y-7436209D02*
X12906957Y-7540971D01*
X12906957Y-7436209D02*
X12916481Y-7417162D01*
X12916481Y-7417162D02*
X12935528Y-7407638D01*
X12935528Y-7407638D02*
X12964100Y-7407638D01*
X12964100Y-7407638D02*
X12983148Y-7417162D01*
X12983148Y-7417162D02*
X12992671Y-7436209D01*
X12992671Y-7436209D02*
X12992671Y-7540971D01*
X13350767Y-7331447D02*
X13179338Y-7588590D01*
X13575528Y-7340971D02*
X13594576Y-7340971D01*
X13594576Y-7340971D02*
X13613624Y-7350495D01*
X13613624Y-7350495D02*
X13623148Y-7360019D01*
X13623148Y-7360019D02*
X13632671Y-7379067D01*
X13632671Y-7379067D02*
X13642195Y-7417162D01*
X13642195Y-7417162D02*
X13642195Y-7464781D01*
X13642195Y-7464781D02*
X13632671Y-7502876D01*
X13632671Y-7502876D02*
X13623148Y-7521924D01*
X13623148Y-7521924D02*
X13613624Y-7531447D01*
X13613624Y-7531447D02*
X13594576Y-7540971D01*
X13594576Y-7540971D02*
X13575528Y-7540971D01*
X13575528Y-7540971D02*
X13556481Y-7531447D01*
X13556481Y-7531447D02*
X13546957Y-7521924D01*
X13546957Y-7521924D02*
X13537433Y-7502876D01*
X13537433Y-7502876D02*
X13527909Y-7464781D01*
X13527909Y-7464781D02*
X13527909Y-7417162D01*
X13527909Y-7417162D02*
X13537433Y-7379067D01*
X13537433Y-7379067D02*
X13546957Y-7360019D01*
X13546957Y-7360019D02*
X13556481Y-7350495D01*
X13556481Y-7350495D02*
X13575528Y-7340971D01*
X13727909Y-7521924D02*
X13737433Y-7531447D01*
X13737433Y-7531447D02*
X13727909Y-7540971D01*
X13727909Y-7540971D02*
X13718386Y-7531447D01*
X13718386Y-7531447D02*
X13727909Y-7521924D01*
X13727909Y-7521924D02*
X13727909Y-7540971D01*
X13861243Y-7340971D02*
X13880290Y-7340971D01*
X13880290Y-7340971D02*
X13899338Y-7350495D01*
X13899338Y-7350495D02*
X13908862Y-7360019D01*
X13908862Y-7360019D02*
X13918386Y-7379067D01*
X13918386Y-7379067D02*
X13927909Y-7417162D01*
X13927909Y-7417162D02*
X13927909Y-7464781D01*
X13927909Y-7464781D02*
X13918386Y-7502876D01*
X13918386Y-7502876D02*
X13908862Y-7521924D01*
X13908862Y-7521924D02*
X13899338Y-7531447D01*
X13899338Y-7531447D02*
X13880290Y-7540971D01*
X13880290Y-7540971D02*
X13861243Y-7540971D01*
X13861243Y-7540971D02*
X13842195Y-7531447D01*
X13842195Y-7531447D02*
X13832671Y-7521924D01*
X13832671Y-7521924D02*
X13823148Y-7502876D01*
X13823148Y-7502876D02*
X13813624Y-7464781D01*
X13813624Y-7464781D02*
X13813624Y-7417162D01*
X13813624Y-7417162D02*
X13823148Y-7379067D01*
X13823148Y-7379067D02*
X13832671Y-7360019D01*
X13832671Y-7360019D02*
X13842195Y-7350495D01*
X13842195Y-7350495D02*
X13861243Y-7340971D01*
X14004100Y-7360019D02*
X14013624Y-7350495D01*
X14013624Y-7350495D02*
X14032671Y-7340971D01*
X14032671Y-7340971D02*
X14080290Y-7340971D01*
X14080290Y-7340971D02*
X14099338Y-7350495D01*
X14099338Y-7350495D02*
X14108862Y-7360019D01*
X14108862Y-7360019D02*
X14118386Y-7379067D01*
X14118386Y-7379067D02*
X14118386Y-7398114D01*
X14118386Y-7398114D02*
X14108862Y-7426686D01*
X14108862Y-7426686D02*
X13994576Y-7540971D01*
X13994576Y-7540971D02*
X14118386Y-7540971D01*
X14299338Y-7340971D02*
X14204100Y-7340971D01*
X14204100Y-7340971D02*
X14194576Y-7436209D01*
X14194576Y-7436209D02*
X14204100Y-7426686D01*
X14204100Y-7426686D02*
X14223148Y-7417162D01*
X14223148Y-7417162D02*
X14270767Y-7417162D01*
X14270767Y-7417162D02*
X14289814Y-7426686D01*
X14289814Y-7426686D02*
X14299338Y-7436209D01*
X14299338Y-7436209D02*
X14308862Y-7455257D01*
X14308862Y-7455257D02*
X14308862Y-7502876D01*
X14308862Y-7502876D02*
X14299338Y-7521924D01*
X14299338Y-7521924D02*
X14289814Y-7531447D01*
X14289814Y-7531447D02*
X14270767Y-7540971D01*
X14270767Y-7540971D02*
X14223148Y-7540971D01*
X14223148Y-7540971D02*
X14204100Y-7531447D01*
X14204100Y-7531447D02*
X14194576Y-7521924D01*
X14480290Y-7340971D02*
X14442195Y-7340971D01*
X14442195Y-7340971D02*
X14423148Y-7350495D01*
X14423148Y-7350495D02*
X14413624Y-7360019D01*
X14413624Y-7360019D02*
X14394576Y-7388590D01*
X14394576Y-7388590D02*
X14385052Y-7426686D01*
X14385052Y-7426686D02*
X14385052Y-7502876D01*
X14385052Y-7502876D02*
X14394576Y-7521924D01*
X14394576Y-7521924D02*
X14404100Y-7531447D01*
X14404100Y-7531447D02*
X14423148Y-7540971D01*
X14423148Y-7540971D02*
X14461243Y-7540971D01*
X14461243Y-7540971D02*
X14480290Y-7531447D01*
X14480290Y-7531447D02*
X14489814Y-7521924D01*
X14489814Y-7521924D02*
X14499338Y-7502876D01*
X14499338Y-7502876D02*
X14499338Y-7455257D01*
X14499338Y-7455257D02*
X14489814Y-7436209D01*
X14489814Y-7436209D02*
X14480290Y-7426686D01*
X14480290Y-7426686D02*
X14461243Y-7417162D01*
X14461243Y-7417162D02*
X14423148Y-7417162D01*
X14423148Y-7417162D02*
X14404100Y-7426686D01*
X14404100Y-7426686D02*
X14394576Y-7436209D01*
X14394576Y-7436209D02*
X14385052Y-7455257D01*
X14575529Y-7340971D02*
X14575529Y-7379067D01*
X14651719Y-7340971D02*
X14651719Y-7379067D01*
X14914576Y-7617162D02*
X14905052Y-7607638D01*
X14905052Y-7607638D02*
X14886005Y-7579067D01*
X14886005Y-7579067D02*
X14876481Y-7560019D01*
X14876481Y-7560019D02*
X14866957Y-7531447D01*
X14866957Y-7531447D02*
X14857433Y-7483828D01*
X14857433Y-7483828D02*
X14857433Y-7445733D01*
X14857433Y-7445733D02*
X14866957Y-7398114D01*
X14866957Y-7398114D02*
X14876481Y-7369543D01*
X14876481Y-7369543D02*
X14886005Y-7350495D01*
X14886005Y-7350495D02*
X14905052Y-7321924D01*
X14905052Y-7321924D02*
X14914576Y-7312400D01*
X15095529Y-7540971D02*
X14981243Y-7540971D01*
X15038386Y-7540971D02*
X15038386Y-7340971D01*
X15038386Y-7340971D02*
X15019338Y-7369543D01*
X15019338Y-7369543D02*
X15000290Y-7388590D01*
X15000290Y-7388590D02*
X14981243Y-7398114D01*
X15301243Y-7540971D02*
X15301243Y-7340971D01*
X15386957Y-7540971D02*
X15386957Y-7436209D01*
X15386957Y-7436209D02*
X15377433Y-7417162D01*
X15377433Y-7417162D02*
X15358386Y-7407638D01*
X15358386Y-7407638D02*
X15329814Y-7407638D01*
X15329814Y-7407638D02*
X15310767Y-7417162D01*
X15310767Y-7417162D02*
X15301243Y-7426686D01*
X15510767Y-7540971D02*
X15491719Y-7531447D01*
X15491719Y-7531447D02*
X15482195Y-7521924D01*
X15482195Y-7521924D02*
X15472671Y-7502876D01*
X15472671Y-7502876D02*
X15472671Y-7445733D01*
X15472671Y-7445733D02*
X15482195Y-7426686D01*
X15482195Y-7426686D02*
X15491719Y-7417162D01*
X15491719Y-7417162D02*
X15510767Y-7407638D01*
X15510767Y-7407638D02*
X15539338Y-7407638D01*
X15539338Y-7407638D02*
X15558386Y-7417162D01*
X15558386Y-7417162D02*
X15567910Y-7426686D01*
X15567910Y-7426686D02*
X15577433Y-7445733D01*
X15577433Y-7445733D02*
X15577433Y-7502876D01*
X15577433Y-7502876D02*
X15567910Y-7521924D01*
X15567910Y-7521924D02*
X15558386Y-7531447D01*
X15558386Y-7531447D02*
X15539338Y-7540971D01*
X15539338Y-7540971D02*
X15510767Y-7540971D01*
X15691719Y-7540971D02*
X15672671Y-7531447D01*
X15672671Y-7531447D02*
X15663148Y-7512400D01*
X15663148Y-7512400D02*
X15663148Y-7340971D01*
X15844100Y-7531447D02*
X15825052Y-7540971D01*
X15825052Y-7540971D02*
X15786957Y-7540971D01*
X15786957Y-7540971D02*
X15767910Y-7531447D01*
X15767910Y-7531447D02*
X15758386Y-7512400D01*
X15758386Y-7512400D02*
X15758386Y-7436209D01*
X15758386Y-7436209D02*
X15767910Y-7417162D01*
X15767910Y-7417162D02*
X15786957Y-7407638D01*
X15786957Y-7407638D02*
X15825052Y-7407638D01*
X15825052Y-7407638D02*
X15844100Y-7417162D01*
X15844100Y-7417162D02*
X15853624Y-7436209D01*
X15853624Y-7436209D02*
X15853624Y-7455257D01*
X15853624Y-7455257D02*
X15758386Y-7474305D01*
X15929814Y-7531447D02*
X15948862Y-7540971D01*
X15948862Y-7540971D02*
X15986957Y-7540971D01*
X15986957Y-7540971D02*
X16006005Y-7531447D01*
X16006005Y-7531447D02*
X16015529Y-7512400D01*
X16015529Y-7512400D02*
X16015529Y-7502876D01*
X16015529Y-7502876D02*
X16006005Y-7483828D01*
X16006005Y-7483828D02*
X15986957Y-7474305D01*
X15986957Y-7474305D02*
X15958386Y-7474305D01*
X15958386Y-7474305D02*
X15939338Y-7464781D01*
X15939338Y-7464781D02*
X15929814Y-7445733D01*
X15929814Y-7445733D02*
X15929814Y-7436209D01*
X15929814Y-7436209D02*
X15939338Y-7417162D01*
X15939338Y-7417162D02*
X15958386Y-7407638D01*
X15958386Y-7407638D02*
X15986957Y-7407638D01*
X15986957Y-7407638D02*
X16006005Y-7417162D01*
X16221243Y-7464781D02*
X16373624Y-7464781D01*
X16297433Y-7540971D02*
X16297433Y-7388590D01*
X16693624Y-7540971D02*
X16579338Y-7540971D01*
X16636481Y-7540971D02*
X16636481Y-7340971D01*
X16636481Y-7340971D02*
X16617433Y-7369543D01*
X16617433Y-7369543D02*
X16598386Y-7388590D01*
X16598386Y-7388590D02*
X16579338Y-7398114D01*
X16889814Y-7531447D02*
X16908862Y-7540971D01*
X16908862Y-7540971D02*
X16946957Y-7540971D01*
X16946957Y-7540971D02*
X16966005Y-7531447D01*
X16966005Y-7531447D02*
X16975529Y-7512400D01*
X16975529Y-7512400D02*
X16975529Y-7502876D01*
X16975529Y-7502876D02*
X16966005Y-7483828D01*
X16966005Y-7483828D02*
X16946957Y-7474305D01*
X16946957Y-7474305D02*
X16918386Y-7474305D01*
X16918386Y-7474305D02*
X16899338Y-7464781D01*
X16899338Y-7464781D02*
X16889814Y-7445733D01*
X16889814Y-7445733D02*
X16889814Y-7436209D01*
X16889814Y-7436209D02*
X16899338Y-7417162D01*
X16899338Y-7417162D02*
X16918386Y-7407638D01*
X16918386Y-7407638D02*
X16946957Y-7407638D01*
X16946957Y-7407638D02*
X16966005Y-7417162D01*
X17089814Y-7540971D02*
X17070767Y-7531447D01*
X17070767Y-7531447D02*
X17061243Y-7512400D01*
X17061243Y-7512400D02*
X17061243Y-7340971D01*
X17194576Y-7540971D02*
X17175529Y-7531447D01*
X17175529Y-7531447D02*
X17166005Y-7521924D01*
X17166005Y-7521924D02*
X17156481Y-7502876D01*
X17156481Y-7502876D02*
X17156481Y-7445733D01*
X17156481Y-7445733D02*
X17166005Y-7426686D01*
X17166005Y-7426686D02*
X17175529Y-7417162D01*
X17175529Y-7417162D02*
X17194576Y-7407638D01*
X17194576Y-7407638D02*
X17223148Y-7407638D01*
X17223148Y-7407638D02*
X17242195Y-7417162D01*
X17242195Y-7417162D02*
X17251719Y-7426686D01*
X17251719Y-7426686D02*
X17261243Y-7445733D01*
X17261243Y-7445733D02*
X17261243Y-7502876D01*
X17261243Y-7502876D02*
X17251719Y-7521924D01*
X17251719Y-7521924D02*
X17242195Y-7531447D01*
X17242195Y-7531447D02*
X17223148Y-7540971D01*
X17223148Y-7540971D02*
X17194576Y-7540971D01*
X17318386Y-7407638D02*
X17394576Y-7407638D01*
X17346957Y-7340971D02*
X17346957Y-7512400D01*
X17346957Y-7512400D02*
X17356481Y-7531447D01*
X17356481Y-7531447D02*
X17375529Y-7540971D01*
X17375529Y-7540971D02*
X17394576Y-7540971D01*
X17442195Y-7617162D02*
X17451719Y-7607638D01*
X17451719Y-7607638D02*
X17470767Y-7579067D01*
X17470767Y-7579067D02*
X17480291Y-7560019D01*
X17480291Y-7560019D02*
X17489814Y-7531447D01*
X17489814Y-7531447D02*
X17499338Y-7483828D01*
X17499338Y-7483828D02*
X17499338Y-7445733D01*
X17499338Y-7445733D02*
X17489814Y-7398114D01*
X17489814Y-7398114D02*
X17480291Y-7369543D01*
X17480291Y-7369543D02*
X17470767Y-7350495D01*
X17470767Y-7350495D02*
X17451719Y-7321924D01*
X17451719Y-7321924D02*
X17442195Y-7312400D01*
X17771719Y-7617162D02*
X17762195Y-7607638D01*
X17762195Y-7607638D02*
X17743148Y-7579067D01*
X17743148Y-7579067D02*
X17733624Y-7560019D01*
X17733624Y-7560019D02*
X17724100Y-7531447D01*
X17724100Y-7531447D02*
X17714576Y-7483828D01*
X17714576Y-7483828D02*
X17714576Y-7445733D01*
X17714576Y-7445733D02*
X17724100Y-7398114D01*
X17724100Y-7398114D02*
X17733624Y-7369543D01*
X17733624Y-7369543D02*
X17743148Y-7350495D01*
X17743148Y-7350495D02*
X17762195Y-7321924D01*
X17762195Y-7321924D02*
X17771719Y-7312400D01*
X17847910Y-7407638D02*
X17847910Y-7540971D01*
X17847910Y-7426686D02*
X17857433Y-7417162D01*
X17857433Y-7417162D02*
X17876481Y-7407638D01*
X17876481Y-7407638D02*
X17905053Y-7407638D01*
X17905053Y-7407638D02*
X17924100Y-7417162D01*
X17924100Y-7417162D02*
X17933624Y-7436209D01*
X17933624Y-7436209D02*
X17933624Y-7540971D01*
X18057433Y-7540971D02*
X18038386Y-7531447D01*
X18038386Y-7531447D02*
X18028862Y-7521924D01*
X18028862Y-7521924D02*
X18019338Y-7502876D01*
X18019338Y-7502876D02*
X18019338Y-7445733D01*
X18019338Y-7445733D02*
X18028862Y-7426686D01*
X18028862Y-7426686D02*
X18038386Y-7417162D01*
X18038386Y-7417162D02*
X18057433Y-7407638D01*
X18057433Y-7407638D02*
X18086005Y-7407638D01*
X18086005Y-7407638D02*
X18105053Y-7417162D01*
X18105053Y-7417162D02*
X18114576Y-7426686D01*
X18114576Y-7426686D02*
X18124100Y-7445733D01*
X18124100Y-7445733D02*
X18124100Y-7502876D01*
X18124100Y-7502876D02*
X18114576Y-7521924D01*
X18114576Y-7521924D02*
X18105053Y-7531447D01*
X18105053Y-7531447D02*
X18086005Y-7540971D01*
X18086005Y-7540971D02*
X18057433Y-7540971D01*
X18181243Y-7407638D02*
X18257433Y-7407638D01*
X18209814Y-7340971D02*
X18209814Y-7512400D01*
X18209814Y-7512400D02*
X18219338Y-7531447D01*
X18219338Y-7531447D02*
X18238386Y-7540971D01*
X18238386Y-7540971D02*
X18257433Y-7540971D01*
X18444100Y-7407638D02*
X18444100Y-7607638D01*
X18444100Y-7417162D02*
X18463148Y-7407638D01*
X18463148Y-7407638D02*
X18501243Y-7407638D01*
X18501243Y-7407638D02*
X18520291Y-7417162D01*
X18520291Y-7417162D02*
X18529814Y-7426686D01*
X18529814Y-7426686D02*
X18539338Y-7445733D01*
X18539338Y-7445733D02*
X18539338Y-7502876D01*
X18539338Y-7502876D02*
X18529814Y-7521924D01*
X18529814Y-7521924D02*
X18520291Y-7531447D01*
X18520291Y-7531447D02*
X18501243Y-7540971D01*
X18501243Y-7540971D02*
X18463148Y-7540971D01*
X18463148Y-7540971D02*
X18444100Y-7531447D01*
X18653624Y-7540971D02*
X18634576Y-7531447D01*
X18634576Y-7531447D02*
X18625053Y-7512400D01*
X18625053Y-7512400D02*
X18625053Y-7340971D01*
X18815529Y-7540971D02*
X18815529Y-7436209D01*
X18815529Y-7436209D02*
X18806005Y-7417162D01*
X18806005Y-7417162D02*
X18786957Y-7407638D01*
X18786957Y-7407638D02*
X18748862Y-7407638D01*
X18748862Y-7407638D02*
X18729814Y-7417162D01*
X18815529Y-7531447D02*
X18796481Y-7540971D01*
X18796481Y-7540971D02*
X18748862Y-7540971D01*
X18748862Y-7540971D02*
X18729814Y-7531447D01*
X18729814Y-7531447D02*
X18720291Y-7512400D01*
X18720291Y-7512400D02*
X18720291Y-7493352D01*
X18720291Y-7493352D02*
X18729814Y-7474305D01*
X18729814Y-7474305D02*
X18748862Y-7464781D01*
X18748862Y-7464781D02*
X18796481Y-7464781D01*
X18796481Y-7464781D02*
X18815529Y-7455257D01*
X18882195Y-7407638D02*
X18958386Y-7407638D01*
X18910767Y-7340971D02*
X18910767Y-7512400D01*
X18910767Y-7512400D02*
X18920291Y-7531447D01*
X18920291Y-7531447D02*
X18939338Y-7540971D01*
X18939338Y-7540971D02*
X18958386Y-7540971D01*
X19101243Y-7531447D02*
X19082195Y-7540971D01*
X19082195Y-7540971D02*
X19044100Y-7540971D01*
X19044100Y-7540971D02*
X19025053Y-7531447D01*
X19025053Y-7531447D02*
X19015529Y-7512400D01*
X19015529Y-7512400D02*
X19015529Y-7436209D01*
X19015529Y-7436209D02*
X19025053Y-7417162D01*
X19025053Y-7417162D02*
X19044100Y-7407638D01*
X19044100Y-7407638D02*
X19082195Y-7407638D01*
X19082195Y-7407638D02*
X19101243Y-7417162D01*
X19101243Y-7417162D02*
X19110767Y-7436209D01*
X19110767Y-7436209D02*
X19110767Y-7455257D01*
X19110767Y-7455257D02*
X19015529Y-7474305D01*
X19282195Y-7540971D02*
X19282195Y-7340971D01*
X19282195Y-7531447D02*
X19263148Y-7540971D01*
X19263148Y-7540971D02*
X19225053Y-7540971D01*
X19225053Y-7540971D02*
X19206005Y-7531447D01*
X19206005Y-7531447D02*
X19196481Y-7521924D01*
X19196481Y-7521924D02*
X19186957Y-7502876D01*
X19186957Y-7502876D02*
X19186957Y-7445733D01*
X19186957Y-7445733D02*
X19196481Y-7426686D01*
X19196481Y-7426686D02*
X19206005Y-7417162D01*
X19206005Y-7417162D02*
X19225053Y-7407638D01*
X19225053Y-7407638D02*
X19263148Y-7407638D01*
X19263148Y-7407638D02*
X19282195Y-7417162D01*
X19358386Y-7617162D02*
X19367910Y-7607638D01*
X19367910Y-7607638D02*
X19386957Y-7579067D01*
X19386957Y-7579067D02*
X19396481Y-7560019D01*
X19396481Y-7560019D02*
X19406005Y-7531447D01*
X19406005Y-7531447D02*
X19415529Y-7483828D01*
X19415529Y-7483828D02*
X19415529Y-7445733D01*
X19415529Y-7445733D02*
X19406005Y-7398114D01*
X19406005Y-7398114D02*
X19396481Y-7369543D01*
X19396481Y-7369543D02*
X19386957Y-7350495D01*
X19386957Y-7350495D02*
X19367910Y-7321924D01*
X19367910Y-7321924D02*
X19358386Y-7312400D01*
D13*
X11449814Y-7731495D02*
G75*
G03*
X11449814Y-7731495I-60000J0D01*
G01*
D11*
X11802195Y-7804971D02*
X11687909Y-7804971D01*
X11745052Y-7804971D02*
X11745052Y-7604971D01*
X11745052Y-7604971D02*
X11726005Y-7633543D01*
X11726005Y-7633543D02*
X11706957Y-7652590D01*
X11706957Y-7652590D02*
X11687909Y-7662114D01*
X11887909Y-7785924D02*
X11897433Y-7795447D01*
X11897433Y-7795447D02*
X11887909Y-7804971D01*
X11887909Y-7804971D02*
X11878386Y-7795447D01*
X11878386Y-7795447D02*
X11887909Y-7785924D01*
X11887909Y-7785924D02*
X11887909Y-7804971D01*
X11973624Y-7624019D02*
X11983147Y-7614495D01*
X11983147Y-7614495D02*
X12002195Y-7604971D01*
X12002195Y-7604971D02*
X12049814Y-7604971D01*
X12049814Y-7604971D02*
X12068862Y-7614495D01*
X12068862Y-7614495D02*
X12078386Y-7624019D01*
X12078386Y-7624019D02*
X12087909Y-7643067D01*
X12087909Y-7643067D02*
X12087909Y-7662114D01*
X12087909Y-7662114D02*
X12078386Y-7690686D01*
X12078386Y-7690686D02*
X11964100Y-7804971D01*
X11964100Y-7804971D02*
X12087909Y-7804971D01*
X12211719Y-7604971D02*
X12230767Y-7604971D01*
X12230767Y-7604971D02*
X12249814Y-7614495D01*
X12249814Y-7614495D02*
X12259338Y-7624019D01*
X12259338Y-7624019D02*
X12268862Y-7643067D01*
X12268862Y-7643067D02*
X12278386Y-7681162D01*
X12278386Y-7681162D02*
X12278386Y-7728781D01*
X12278386Y-7728781D02*
X12268862Y-7766876D01*
X12268862Y-7766876D02*
X12259338Y-7785924D01*
X12259338Y-7785924D02*
X12249814Y-7795447D01*
X12249814Y-7795447D02*
X12230767Y-7804971D01*
X12230767Y-7804971D02*
X12211719Y-7804971D01*
X12211719Y-7804971D02*
X12192671Y-7795447D01*
X12192671Y-7795447D02*
X12183147Y-7785924D01*
X12183147Y-7785924D02*
X12173624Y-7766876D01*
X12173624Y-7766876D02*
X12164100Y-7728781D01*
X12164100Y-7728781D02*
X12164100Y-7681162D01*
X12164100Y-7681162D02*
X12173624Y-7643067D01*
X12173624Y-7643067D02*
X12183147Y-7624019D01*
X12183147Y-7624019D02*
X12192671Y-7614495D01*
X12192671Y-7614495D02*
X12211719Y-7604971D01*
X12402195Y-7604971D02*
X12421243Y-7604971D01*
X12421243Y-7604971D02*
X12440290Y-7614495D01*
X12440290Y-7614495D02*
X12449814Y-7624019D01*
X12449814Y-7624019D02*
X12459338Y-7643067D01*
X12459338Y-7643067D02*
X12468862Y-7681162D01*
X12468862Y-7681162D02*
X12468862Y-7728781D01*
X12468862Y-7728781D02*
X12459338Y-7766876D01*
X12459338Y-7766876D02*
X12449814Y-7785924D01*
X12449814Y-7785924D02*
X12440290Y-7795447D01*
X12440290Y-7795447D02*
X12421243Y-7804971D01*
X12421243Y-7804971D02*
X12402195Y-7804971D01*
X12402195Y-7804971D02*
X12383147Y-7795447D01*
X12383147Y-7795447D02*
X12373624Y-7785924D01*
X12373624Y-7785924D02*
X12364100Y-7766876D01*
X12364100Y-7766876D02*
X12354576Y-7728781D01*
X12354576Y-7728781D02*
X12354576Y-7681162D01*
X12354576Y-7681162D02*
X12364100Y-7643067D01*
X12364100Y-7643067D02*
X12373624Y-7624019D01*
X12373624Y-7624019D02*
X12383147Y-7614495D01*
X12383147Y-7614495D02*
X12402195Y-7604971D01*
X12554576Y-7804971D02*
X12554576Y-7671638D01*
X12554576Y-7690686D02*
X12564100Y-7681162D01*
X12564100Y-7681162D02*
X12583147Y-7671638D01*
X12583147Y-7671638D02*
X12611719Y-7671638D01*
X12611719Y-7671638D02*
X12630767Y-7681162D01*
X12630767Y-7681162D02*
X12640290Y-7700209D01*
X12640290Y-7700209D02*
X12640290Y-7804971D01*
X12640290Y-7700209D02*
X12649814Y-7681162D01*
X12649814Y-7681162D02*
X12668862Y-7671638D01*
X12668862Y-7671638D02*
X12697433Y-7671638D01*
X12697433Y-7671638D02*
X12716481Y-7681162D01*
X12716481Y-7681162D02*
X12726005Y-7700209D01*
X12726005Y-7700209D02*
X12726005Y-7804971D01*
X12821243Y-7804971D02*
X12821243Y-7671638D01*
X12821243Y-7690686D02*
X12830767Y-7681162D01*
X12830767Y-7681162D02*
X12849814Y-7671638D01*
X12849814Y-7671638D02*
X12878386Y-7671638D01*
X12878386Y-7671638D02*
X12897433Y-7681162D01*
X12897433Y-7681162D02*
X12906957Y-7700209D01*
X12906957Y-7700209D02*
X12906957Y-7804971D01*
X12906957Y-7700209D02*
X12916481Y-7681162D01*
X12916481Y-7681162D02*
X12935528Y-7671638D01*
X12935528Y-7671638D02*
X12964100Y-7671638D01*
X12964100Y-7671638D02*
X12983148Y-7681162D01*
X12983148Y-7681162D02*
X12992671Y-7700209D01*
X12992671Y-7700209D02*
X12992671Y-7804971D01*
X13350767Y-7595447D02*
X13179338Y-7852590D01*
X13575528Y-7604971D02*
X13594576Y-7604971D01*
X13594576Y-7604971D02*
X13613624Y-7614495D01*
X13613624Y-7614495D02*
X13623148Y-7624019D01*
X13623148Y-7624019D02*
X13632671Y-7643067D01*
X13632671Y-7643067D02*
X13642195Y-7681162D01*
X13642195Y-7681162D02*
X13642195Y-7728781D01*
X13642195Y-7728781D02*
X13632671Y-7766876D01*
X13632671Y-7766876D02*
X13623148Y-7785924D01*
X13623148Y-7785924D02*
X13613624Y-7795447D01*
X13613624Y-7795447D02*
X13594576Y-7804971D01*
X13594576Y-7804971D02*
X13575528Y-7804971D01*
X13575528Y-7804971D02*
X13556481Y-7795447D01*
X13556481Y-7795447D02*
X13546957Y-7785924D01*
X13546957Y-7785924D02*
X13537433Y-7766876D01*
X13537433Y-7766876D02*
X13527909Y-7728781D01*
X13527909Y-7728781D02*
X13527909Y-7681162D01*
X13527909Y-7681162D02*
X13537433Y-7643067D01*
X13537433Y-7643067D02*
X13546957Y-7624019D01*
X13546957Y-7624019D02*
X13556481Y-7614495D01*
X13556481Y-7614495D02*
X13575528Y-7604971D01*
X13727909Y-7785924D02*
X13737433Y-7795447D01*
X13737433Y-7795447D02*
X13727909Y-7804971D01*
X13727909Y-7804971D02*
X13718386Y-7795447D01*
X13718386Y-7795447D02*
X13727909Y-7785924D01*
X13727909Y-7785924D02*
X13727909Y-7804971D01*
X13861243Y-7604971D02*
X13880290Y-7604971D01*
X13880290Y-7604971D02*
X13899338Y-7614495D01*
X13899338Y-7614495D02*
X13908862Y-7624019D01*
X13908862Y-7624019D02*
X13918386Y-7643067D01*
X13918386Y-7643067D02*
X13927909Y-7681162D01*
X13927909Y-7681162D02*
X13927909Y-7728781D01*
X13927909Y-7728781D02*
X13918386Y-7766876D01*
X13918386Y-7766876D02*
X13908862Y-7785924D01*
X13908862Y-7785924D02*
X13899338Y-7795447D01*
X13899338Y-7795447D02*
X13880290Y-7804971D01*
X13880290Y-7804971D02*
X13861243Y-7804971D01*
X13861243Y-7804971D02*
X13842195Y-7795447D01*
X13842195Y-7795447D02*
X13832671Y-7785924D01*
X13832671Y-7785924D02*
X13823148Y-7766876D01*
X13823148Y-7766876D02*
X13813624Y-7728781D01*
X13813624Y-7728781D02*
X13813624Y-7681162D01*
X13813624Y-7681162D02*
X13823148Y-7643067D01*
X13823148Y-7643067D02*
X13832671Y-7624019D01*
X13832671Y-7624019D02*
X13842195Y-7614495D01*
X13842195Y-7614495D02*
X13861243Y-7604971D01*
X14099338Y-7671638D02*
X14099338Y-7804971D01*
X14051719Y-7595447D02*
X14004100Y-7738305D01*
X14004100Y-7738305D02*
X14127909Y-7738305D01*
X14185052Y-7604971D02*
X14318386Y-7604971D01*
X14318386Y-7604971D02*
X14232671Y-7804971D01*
X14385052Y-7624019D02*
X14394576Y-7614495D01*
X14394576Y-7614495D02*
X14413624Y-7604971D01*
X14413624Y-7604971D02*
X14461243Y-7604971D01*
X14461243Y-7604971D02*
X14480290Y-7614495D01*
X14480290Y-7614495D02*
X14489814Y-7624019D01*
X14489814Y-7624019D02*
X14499338Y-7643067D01*
X14499338Y-7643067D02*
X14499338Y-7662114D01*
X14499338Y-7662114D02*
X14489814Y-7690686D01*
X14489814Y-7690686D02*
X14375529Y-7804971D01*
X14375529Y-7804971D02*
X14499338Y-7804971D01*
X14575529Y-7604971D02*
X14575529Y-7643067D01*
X14651719Y-7604971D02*
X14651719Y-7643067D01*
X14914576Y-7881162D02*
X14905052Y-7871638D01*
X14905052Y-7871638D02*
X14886005Y-7843067D01*
X14886005Y-7843067D02*
X14876481Y-7824019D01*
X14876481Y-7824019D02*
X14866957Y-7795447D01*
X14866957Y-7795447D02*
X14857433Y-7747828D01*
X14857433Y-7747828D02*
X14857433Y-7709733D01*
X14857433Y-7709733D02*
X14866957Y-7662114D01*
X14866957Y-7662114D02*
X14876481Y-7633543D01*
X14876481Y-7633543D02*
X14886005Y-7614495D01*
X14886005Y-7614495D02*
X14905052Y-7585924D01*
X14905052Y-7585924D02*
X14914576Y-7576400D01*
X15086005Y-7604971D02*
X14990767Y-7604971D01*
X14990767Y-7604971D02*
X14981243Y-7700209D01*
X14981243Y-7700209D02*
X14990767Y-7690686D01*
X14990767Y-7690686D02*
X15009814Y-7681162D01*
X15009814Y-7681162D02*
X15057433Y-7681162D01*
X15057433Y-7681162D02*
X15076481Y-7690686D01*
X15076481Y-7690686D02*
X15086005Y-7700209D01*
X15086005Y-7700209D02*
X15095529Y-7719257D01*
X15095529Y-7719257D02*
X15095529Y-7766876D01*
X15095529Y-7766876D02*
X15086005Y-7785924D01*
X15086005Y-7785924D02*
X15076481Y-7795447D01*
X15076481Y-7795447D02*
X15057433Y-7804971D01*
X15057433Y-7804971D02*
X15009814Y-7804971D01*
X15009814Y-7804971D02*
X14990767Y-7795447D01*
X14990767Y-7795447D02*
X14981243Y-7785924D01*
X15301243Y-7804971D02*
X15301243Y-7604971D01*
X15386957Y-7804971D02*
X15386957Y-7700209D01*
X15386957Y-7700209D02*
X15377433Y-7681162D01*
X15377433Y-7681162D02*
X15358386Y-7671638D01*
X15358386Y-7671638D02*
X15329814Y-7671638D01*
X15329814Y-7671638D02*
X15310767Y-7681162D01*
X15310767Y-7681162D02*
X15301243Y-7690686D01*
X15510767Y-7804971D02*
X15491719Y-7795447D01*
X15491719Y-7795447D02*
X15482195Y-7785924D01*
X15482195Y-7785924D02*
X15472671Y-7766876D01*
X15472671Y-7766876D02*
X15472671Y-7709733D01*
X15472671Y-7709733D02*
X15482195Y-7690686D01*
X15482195Y-7690686D02*
X15491719Y-7681162D01*
X15491719Y-7681162D02*
X15510767Y-7671638D01*
X15510767Y-7671638D02*
X15539338Y-7671638D01*
X15539338Y-7671638D02*
X15558386Y-7681162D01*
X15558386Y-7681162D02*
X15567910Y-7690686D01*
X15567910Y-7690686D02*
X15577433Y-7709733D01*
X15577433Y-7709733D02*
X15577433Y-7766876D01*
X15577433Y-7766876D02*
X15567910Y-7785924D01*
X15567910Y-7785924D02*
X15558386Y-7795447D01*
X15558386Y-7795447D02*
X15539338Y-7804971D01*
X15539338Y-7804971D02*
X15510767Y-7804971D01*
X15691719Y-7804971D02*
X15672671Y-7795447D01*
X15672671Y-7795447D02*
X15663148Y-7776400D01*
X15663148Y-7776400D02*
X15663148Y-7604971D01*
X15844100Y-7795447D02*
X15825052Y-7804971D01*
X15825052Y-7804971D02*
X15786957Y-7804971D01*
X15786957Y-7804971D02*
X15767910Y-7795447D01*
X15767910Y-7795447D02*
X15758386Y-7776400D01*
X15758386Y-7776400D02*
X15758386Y-7700209D01*
X15758386Y-7700209D02*
X15767910Y-7681162D01*
X15767910Y-7681162D02*
X15786957Y-7671638D01*
X15786957Y-7671638D02*
X15825052Y-7671638D01*
X15825052Y-7671638D02*
X15844100Y-7681162D01*
X15844100Y-7681162D02*
X15853624Y-7700209D01*
X15853624Y-7700209D02*
X15853624Y-7719257D01*
X15853624Y-7719257D02*
X15758386Y-7738305D01*
X15929814Y-7795447D02*
X15948862Y-7804971D01*
X15948862Y-7804971D02*
X15986957Y-7804971D01*
X15986957Y-7804971D02*
X16006005Y-7795447D01*
X16006005Y-7795447D02*
X16015529Y-7776400D01*
X16015529Y-7776400D02*
X16015529Y-7766876D01*
X16015529Y-7766876D02*
X16006005Y-7747828D01*
X16006005Y-7747828D02*
X15986957Y-7738305D01*
X15986957Y-7738305D02*
X15958386Y-7738305D01*
X15958386Y-7738305D02*
X15939338Y-7728781D01*
X15939338Y-7728781D02*
X15929814Y-7709733D01*
X15929814Y-7709733D02*
X15929814Y-7700209D01*
X15929814Y-7700209D02*
X15939338Y-7681162D01*
X15939338Y-7681162D02*
X15958386Y-7671638D01*
X15958386Y-7671638D02*
X15986957Y-7671638D01*
X15986957Y-7671638D02*
X16006005Y-7681162D01*
X16082195Y-7881162D02*
X16091719Y-7871638D01*
X16091719Y-7871638D02*
X16110767Y-7843067D01*
X16110767Y-7843067D02*
X16120291Y-7824019D01*
X16120291Y-7824019D02*
X16129814Y-7795447D01*
X16129814Y-7795447D02*
X16139338Y-7747828D01*
X16139338Y-7747828D02*
X16139338Y-7709733D01*
X16139338Y-7709733D02*
X16129814Y-7662114D01*
X16129814Y-7662114D02*
X16120291Y-7633543D01*
X16120291Y-7633543D02*
X16110767Y-7614495D01*
X16110767Y-7614495D02*
X16091719Y-7585924D01*
X16091719Y-7585924D02*
X16082195Y-7576400D01*
X16411719Y-7881162D02*
X16402195Y-7871638D01*
X16402195Y-7871638D02*
X16383148Y-7843067D01*
X16383148Y-7843067D02*
X16373624Y-7824019D01*
X16373624Y-7824019D02*
X16364100Y-7795447D01*
X16364100Y-7795447D02*
X16354576Y-7747828D01*
X16354576Y-7747828D02*
X16354576Y-7709733D01*
X16354576Y-7709733D02*
X16364100Y-7662114D01*
X16364100Y-7662114D02*
X16373624Y-7633543D01*
X16373624Y-7633543D02*
X16383148Y-7614495D01*
X16383148Y-7614495D02*
X16402195Y-7585924D01*
X16402195Y-7585924D02*
X16411719Y-7576400D01*
X16487910Y-7671638D02*
X16487910Y-7804971D01*
X16487910Y-7690686D02*
X16497433Y-7681162D01*
X16497433Y-7681162D02*
X16516481Y-7671638D01*
X16516481Y-7671638D02*
X16545052Y-7671638D01*
X16545052Y-7671638D02*
X16564100Y-7681162D01*
X16564100Y-7681162D02*
X16573624Y-7700209D01*
X16573624Y-7700209D02*
X16573624Y-7804971D01*
X16697433Y-7804971D02*
X16678386Y-7795447D01*
X16678386Y-7795447D02*
X16668862Y-7785924D01*
X16668862Y-7785924D02*
X16659338Y-7766876D01*
X16659338Y-7766876D02*
X16659338Y-7709733D01*
X16659338Y-7709733D02*
X16668862Y-7690686D01*
X16668862Y-7690686D02*
X16678386Y-7681162D01*
X16678386Y-7681162D02*
X16697433Y-7671638D01*
X16697433Y-7671638D02*
X16726005Y-7671638D01*
X16726005Y-7671638D02*
X16745052Y-7681162D01*
X16745052Y-7681162D02*
X16754576Y-7690686D01*
X16754576Y-7690686D02*
X16764100Y-7709733D01*
X16764100Y-7709733D02*
X16764100Y-7766876D01*
X16764100Y-7766876D02*
X16754576Y-7785924D01*
X16754576Y-7785924D02*
X16745052Y-7795447D01*
X16745052Y-7795447D02*
X16726005Y-7804971D01*
X16726005Y-7804971D02*
X16697433Y-7804971D01*
X16821243Y-7671638D02*
X16897433Y-7671638D01*
X16849814Y-7604971D02*
X16849814Y-7776400D01*
X16849814Y-7776400D02*
X16859338Y-7795447D01*
X16859338Y-7795447D02*
X16878386Y-7804971D01*
X16878386Y-7804971D02*
X16897433Y-7804971D01*
X17084100Y-7671638D02*
X17084100Y-7871638D01*
X17084100Y-7681162D02*
X17103148Y-7671638D01*
X17103148Y-7671638D02*
X17141243Y-7671638D01*
X17141243Y-7671638D02*
X17160291Y-7681162D01*
X17160291Y-7681162D02*
X17169814Y-7690686D01*
X17169814Y-7690686D02*
X17179338Y-7709733D01*
X17179338Y-7709733D02*
X17179338Y-7766876D01*
X17179338Y-7766876D02*
X17169814Y-7785924D01*
X17169814Y-7785924D02*
X17160291Y-7795447D01*
X17160291Y-7795447D02*
X17141243Y-7804971D01*
X17141243Y-7804971D02*
X17103148Y-7804971D01*
X17103148Y-7804971D02*
X17084100Y-7795447D01*
X17293624Y-7804971D02*
X17274576Y-7795447D01*
X17274576Y-7795447D02*
X17265053Y-7776400D01*
X17265053Y-7776400D02*
X17265053Y-7604971D01*
X17455529Y-7804971D02*
X17455529Y-7700209D01*
X17455529Y-7700209D02*
X17446005Y-7681162D01*
X17446005Y-7681162D02*
X17426957Y-7671638D01*
X17426957Y-7671638D02*
X17388862Y-7671638D01*
X17388862Y-7671638D02*
X17369814Y-7681162D01*
X17455529Y-7795447D02*
X17436481Y-7804971D01*
X17436481Y-7804971D02*
X17388862Y-7804971D01*
X17388862Y-7804971D02*
X17369814Y-7795447D01*
X17369814Y-7795447D02*
X17360291Y-7776400D01*
X17360291Y-7776400D02*
X17360291Y-7757352D01*
X17360291Y-7757352D02*
X17369814Y-7738305D01*
X17369814Y-7738305D02*
X17388862Y-7728781D01*
X17388862Y-7728781D02*
X17436481Y-7728781D01*
X17436481Y-7728781D02*
X17455529Y-7719257D01*
X17522195Y-7671638D02*
X17598386Y-7671638D01*
X17550767Y-7604971D02*
X17550767Y-7776400D01*
X17550767Y-7776400D02*
X17560291Y-7795447D01*
X17560291Y-7795447D02*
X17579338Y-7804971D01*
X17579338Y-7804971D02*
X17598386Y-7804971D01*
X17741243Y-7795447D02*
X17722195Y-7804971D01*
X17722195Y-7804971D02*
X17684100Y-7804971D01*
X17684100Y-7804971D02*
X17665053Y-7795447D01*
X17665053Y-7795447D02*
X17655529Y-7776400D01*
X17655529Y-7776400D02*
X17655529Y-7700209D01*
X17655529Y-7700209D02*
X17665053Y-7681162D01*
X17665053Y-7681162D02*
X17684100Y-7671638D01*
X17684100Y-7671638D02*
X17722195Y-7671638D01*
X17722195Y-7671638D02*
X17741243Y-7681162D01*
X17741243Y-7681162D02*
X17750767Y-7700209D01*
X17750767Y-7700209D02*
X17750767Y-7719257D01*
X17750767Y-7719257D02*
X17655529Y-7738305D01*
X17922195Y-7804971D02*
X17922195Y-7604971D01*
X17922195Y-7795447D02*
X17903148Y-7804971D01*
X17903148Y-7804971D02*
X17865053Y-7804971D01*
X17865053Y-7804971D02*
X17846005Y-7795447D01*
X17846005Y-7795447D02*
X17836481Y-7785924D01*
X17836481Y-7785924D02*
X17826957Y-7766876D01*
X17826957Y-7766876D02*
X17826957Y-7709733D01*
X17826957Y-7709733D02*
X17836481Y-7690686D01*
X17836481Y-7690686D02*
X17846005Y-7681162D01*
X17846005Y-7681162D02*
X17865053Y-7671638D01*
X17865053Y-7671638D02*
X17903148Y-7671638D01*
X17903148Y-7671638D02*
X17922195Y-7681162D01*
X17998386Y-7881162D02*
X18007910Y-7871638D01*
X18007910Y-7871638D02*
X18026957Y-7843067D01*
X18026957Y-7843067D02*
X18036481Y-7824019D01*
X18036481Y-7824019D02*
X18046005Y-7795447D01*
X18046005Y-7795447D02*
X18055529Y-7747828D01*
X18055529Y-7747828D02*
X18055529Y-7709733D01*
X18055529Y-7709733D02*
X18046005Y-7662114D01*
X18046005Y-7662114D02*
X18036481Y-7633543D01*
X18036481Y-7633543D02*
X18026957Y-7614495D01*
X18026957Y-7614495D02*
X18007910Y-7585924D01*
X18007910Y-7585924D02*
X17998386Y-7576400D01*
M02*
