%TF.GenerationSoftware,KiCad,Pcbnew,(7.0.0)*%
%TF.CreationDate,2023-11-19T11:36:42-08:00*%
%TF.ProjectId,Dot-LED,446f742d-4c45-4442-9e6b-696361645f70,rev?*%
%TF.SameCoordinates,Original*%
%TF.FileFunction,Soldermask,Bot*%
%TF.FilePolarity,Negative*%
%FSLAX46Y46*%
G04 Gerber Fmt 4.6, Leading zero omitted, Abs format (unit mm)*
G04 Created by KiCad (PCBNEW (7.0.0)) date 2023-11-19 11:36:42*
%MOMM*%
%LPD*%
G01*
G04 APERTURE LIST*
G04 Aperture macros list*
%AMRoundRect*
0 Rectangle with rounded corners*
0 $1 Rounding radius*
0 $2 $3 $4 $5 $6 $7 $8 $9 X,Y pos of 4 corners*
0 Add a 4 corners polygon primitive as box body*
4,1,4,$2,$3,$4,$5,$6,$7,$8,$9,$2,$3,0*
0 Add four circle primitives for the rounded corners*
1,1,$1+$1,$2,$3*
1,1,$1+$1,$4,$5*
1,1,$1+$1,$6,$7*
1,1,$1+$1,$8,$9*
0 Add four rect primitives between the rounded corners*
20,1,$1+$1,$2,$3,$4,$5,0*
20,1,$1+$1,$4,$5,$6,$7,0*
20,1,$1+$1,$6,$7,$8,$9,0*
20,1,$1+$1,$8,$9,$2,$3,0*%
%AMFreePoly0*
4,1,14,0.760355,0.760355,0.775000,0.725000,0.775000,-0.725000,0.760355,-0.760355,0.725000,-0.775000,-0.125000,-0.775000,-0.160355,-0.760355,-0.760355,-0.160355,-0.775000,-0.125000,-0.775000,0.725000,-0.760355,0.760355,-0.725000,0.775000,0.725000,0.775000,0.760355,0.760355,0.760355,0.760355,$1*%
G04 Aperture macros list end*
%ADD10RoundRect,0.050000X-0.500000X0.450000X-0.500000X-0.450000X0.500000X-0.450000X0.500000X0.450000X0*%
%ADD11RoundRect,0.050000X-0.450000X-0.500000X0.450000X-0.500000X0.450000X0.500000X-0.450000X0.500000X0*%
%ADD12RoundRect,0.050000X0.500000X-0.450000X0.500000X0.450000X-0.500000X0.450000X-0.500000X-0.450000X0*%
%ADD13C,0.750000*%
%ADD14O,1.100000X1.900000*%
%ADD15O,1.100000X2.200000*%
%ADD16RoundRect,0.050000X1.100000X-0.425000X1.100000X0.425000X-1.100000X0.425000X-1.100000X-0.425000X0*%
%ADD17C,0.300000*%
%ADD18C,3.890000*%
%ADD19C,1.300000*%
%ADD20RoundRect,0.050000X-1.250000X0.900000X-1.250000X-0.900000X1.250000X-0.900000X1.250000X0.900000X0*%
%ADD21RoundRect,0.050000X-0.900000X1.250000X-0.900000X-1.250000X0.900000X-1.250000X0.900000X1.250000X0*%
%ADD22RoundRect,0.287500X-0.237500X0.300000X-0.237500X-0.300000X0.237500X-0.300000X0.237500X0.300000X0*%
%ADD23RoundRect,0.050000X0.400000X-0.200000X0.400000X0.200000X-0.400000X0.200000X-0.400000X-0.200000X0*%
%ADD24RoundRect,0.050000X0.200000X0.400000X-0.200000X0.400000X-0.200000X-0.400000X0.200000X-0.400000X0*%
%ADD25RoundRect,0.050000X0.725000X-0.725000X0.725000X0.725000X-0.725000X0.725000X-0.725000X-0.725000X0*%
%ADD26FreePoly0,180.000000*%
%ADD27RoundRect,0.050000X0.350000X-0.350000X0.350000X0.350000X-0.350000X0.350000X-0.350000X-0.350000X0*%
%ADD28RoundRect,0.287500X-0.300000X-0.237500X0.300000X-0.237500X0.300000X0.237500X-0.300000X0.237500X0*%
%ADD29RoundRect,0.287500X0.300000X0.237500X-0.300000X0.237500X-0.300000X-0.237500X0.300000X-0.237500X0*%
%ADD30RoundRect,0.287500X0.237500X-0.300000X0.237500X0.300000X-0.237500X0.300000X-0.237500X-0.300000X0*%
G04 APERTURE END LIST*
D10*
%TO.C,R7*%
X120750000Y-56000000D03*
X120750000Y-57500000D03*
%TD*%
D11*
%TO.C,R6*%
X117250000Y-55400000D03*
X118750000Y-55400000D03*
%TD*%
D12*
%TO.C,R3*%
X135950000Y-61400000D03*
X135950000Y-59900000D03*
%TD*%
D13*
%TO.C,P1*%
X129770000Y-64220000D03*
X123990000Y-64220000D03*
D14*
X122559999Y-67899999D03*
D15*
X131199999Y-63719999D03*
D14*
X131199999Y-67899999D03*
D15*
X122559999Y-63719999D03*
%TD*%
D16*
%TO.C,L1*%
X116750000Y-59175000D03*
X116750000Y-57125000D03*
%TD*%
D17*
%TO.C,IC1*%
X118950000Y-58450000D03*
X119350000Y-58450000D03*
X118950000Y-58050000D03*
X119350000Y-58050000D03*
X118950000Y-57650000D03*
X119350000Y-57650000D03*
X118950000Y-57250000D03*
X119350000Y-57250000D03*
%TD*%
D18*
%TO.C,RX1*%
X136400000Y-48250000D03*
%TD*%
D19*
%TO.C,CON1*%
X132050000Y-40300000D03*
X122050000Y-40300000D03*
X132050000Y-42800000D03*
X122050000Y-42800000D03*
X127050000Y-47800000D03*
D20*
X127050000Y-42800000D03*
D21*
X122050000Y-47800000D03*
X132050000Y-47800000D03*
%TD*%
D18*
%TO.C,GND2*%
X135000000Y-65050000D03*
%TD*%
%TO.C,TX1*%
X117750000Y-48550000D03*
%TD*%
D22*
%TO.C,C7*%
X137400000Y-51287500D03*
X137400000Y-53012500D03*
%TD*%
D23*
%TO.C,U1*%
X133975000Y-52325000D03*
X133975000Y-53125000D03*
X133975000Y-53925000D03*
X133975000Y-54725000D03*
X133975000Y-55525000D03*
X133975000Y-56325000D03*
X133975000Y-57125000D03*
X133975000Y-57925000D03*
X133975000Y-58725000D03*
X133975000Y-59525000D03*
X133975000Y-60325000D03*
D24*
X132875000Y-61225000D03*
X132075000Y-61225000D03*
X131275000Y-61225000D03*
X130475000Y-61225000D03*
X129675000Y-61225000D03*
X128875000Y-61225000D03*
X128075000Y-61225000D03*
X127275000Y-61225000D03*
X126475000Y-61225000D03*
X125675000Y-61225000D03*
X124875000Y-61225000D03*
X124075000Y-61225000D03*
X123275000Y-61225000D03*
D23*
X122175000Y-60325000D03*
X122175000Y-59525000D03*
X122175000Y-58725000D03*
X122175000Y-57925000D03*
X122175000Y-57125000D03*
X122175000Y-56325000D03*
X122175000Y-55525000D03*
X122175000Y-54725000D03*
X122175000Y-53925000D03*
X122175000Y-53125000D03*
X122175000Y-52325000D03*
D24*
X123275000Y-51425000D03*
X124075000Y-51425000D03*
X124875000Y-51425000D03*
X125675000Y-51425000D03*
X126475000Y-51425000D03*
X127275000Y-51425000D03*
X128075000Y-51425000D03*
X128875000Y-51425000D03*
X129675000Y-51425000D03*
X130475000Y-51425000D03*
X131275000Y-51425000D03*
X132075000Y-51425000D03*
X132875000Y-51425000D03*
D25*
X130050000Y-58300000D03*
X130050000Y-56325000D03*
D26*
X130050000Y-54350000D03*
D25*
X128075000Y-58300000D03*
X128075000Y-56325000D03*
X128075000Y-54350000D03*
X126100000Y-58300000D03*
X126100000Y-56325000D03*
X126100000Y-54350000D03*
D27*
X122125000Y-51375000D03*
X122125000Y-61275000D03*
X134025000Y-61275000D03*
X134025000Y-51375000D03*
%TD*%
D28*
%TO.C,C14*%
X118637500Y-53800000D03*
X120362500Y-53800000D03*
%TD*%
D29*
%TO.C,C18*%
X118487500Y-62150000D03*
X120212500Y-62150000D03*
%TD*%
D30*
%TO.C,C6*%
X137950000Y-56512500D03*
X137950000Y-54787500D03*
%TD*%
D29*
%TO.C,C16*%
X120862500Y-64050000D03*
X119137500Y-64050000D03*
%TD*%
D22*
%TO.C,C15*%
X136400000Y-54887500D03*
X136400000Y-56612500D03*
%TD*%
M02*
