%TF.GenerationSoftware,KiCad,Pcbnew,(7.0.0)*%
%TF.CreationDate,2023-11-25T14:09:18-08:00*%
%TF.ProjectId,Dot-LED,446f742d-4c45-4442-9e6b-696361645f70,rev?*%
%TF.SameCoordinates,Original*%
%TF.FileFunction,Paste,Top*%
%TF.FilePolarity,Positive*%
%FSLAX46Y46*%
G04 Gerber Fmt 4.6, Leading zero omitted, Abs format (unit mm)*
G04 Created by KiCad (PCBNEW (7.0.0)) date 2023-11-25 14:09:18*
%MOMM*%
%LPD*%
G01*
G04 APERTURE LIST*
G04 Aperture macros list*
%AMRoundRect*
0 Rectangle with rounded corners*
0 $1 Rounding radius*
0 $2 $3 $4 $5 $6 $7 $8 $9 X,Y pos of 4 corners*
0 Add a 4 corners polygon primitive as box body*
4,1,4,$2,$3,$4,$5,$6,$7,$8,$9,$2,$3,0*
0 Add four circle primitives for the rounded corners*
1,1,$1+$1,$2,$3*
1,1,$1+$1,$4,$5*
1,1,$1+$1,$6,$7*
1,1,$1+$1,$8,$9*
0 Add four rect primitives between the rounded corners*
20,1,$1+$1,$2,$3,$4,$5,0*
20,1,$1+$1,$4,$5,$6,$7,0*
20,1,$1+$1,$6,$7,$8,$9,0*
20,1,$1+$1,$8,$9,$2,$3,0*%
G04 Aperture macros list end*
%ADD10R,1.000000X0.900000*%
%ADD11RoundRect,0.237500X0.237500X-0.300000X0.237500X0.300000X-0.237500X0.300000X-0.237500X-0.300000X0*%
%ADD12R,0.700000X1.000000*%
%ADD13R,0.600000X1.150000*%
%ADD14R,0.300000X1.150000*%
%ADD15R,0.800000X1.050000*%
%ADD16R,0.800000X0.650000*%
%ADD17R,3.400000X1.800000*%
%ADD18R,0.600000X1.050000*%
%ADD19R,0.900000X1.000000*%
%ADD20RoundRect,0.237500X-0.237500X0.300000X-0.237500X-0.300000X0.237500X-0.300000X0.237500X0.300000X0*%
%ADD21RoundRect,0.237500X0.300000X0.237500X-0.300000X0.237500X-0.300000X-0.237500X0.300000X-0.237500X0*%
%ADD22R,1.500000X1.000000*%
G04 APERTURE END LIST*
D10*
%TO.C,R5*%
X117249999Y-61449999D03*
X117249999Y-59949999D03*
%TD*%
D11*
%TO.C,C12*%
X121850000Y-56562500D03*
X121850000Y-54837500D03*
%TD*%
D12*
%TO.C,S2*%
X136274999Y-51199999D03*
X136274999Y-55699999D03*
X134124999Y-51199999D03*
X134124999Y-55699999D03*
%TD*%
D11*
%TO.C,C13*%
X132500000Y-56162500D03*
X132500000Y-54437500D03*
%TD*%
%TO.C,C9*%
X137800000Y-58362500D03*
X137800000Y-56637500D03*
%TD*%
D13*
%TO.C,P1*%
X123679999Y-63144999D03*
X124479999Y-63144999D03*
D14*
X125629999Y-63144999D03*
X126629999Y-63144999D03*
X127129999Y-63144999D03*
X128129999Y-63144999D03*
D13*
X129279999Y-63144999D03*
X130079999Y-63144999D03*
X130079999Y-63144999D03*
X129279999Y-63144999D03*
D14*
X128629999Y-63144999D03*
X127629999Y-63144999D03*
X126129999Y-63144999D03*
X125129999Y-63144999D03*
D13*
X124479999Y-63144999D03*
X123679999Y-63144999D03*
%TD*%
D12*
%TO.C,S1*%
X136274999Y-57349999D03*
X136274999Y-61849999D03*
X134124999Y-57349999D03*
X134124999Y-61849999D03*
%TD*%
D15*
%TO.C,D2*%
X122349999Y-59174999D03*
D16*
X122349999Y-60224999D03*
%TD*%
D17*
%TO.C,GND1*%
X117899999Y-53149999D03*
%TD*%
D18*
%TO.C,Q2*%
X118799999Y-63099999D03*
X120699999Y-63099999D03*
X119749999Y-60899999D03*
%TD*%
D19*
%TO.C,R1*%
X127549999Y-53099999D03*
X126049999Y-53099999D03*
%TD*%
D17*
%TO.C,VCC1*%
X117949999Y-58349999D03*
%TD*%
D10*
%TO.C,R2*%
X137799999Y-54849999D03*
X137799999Y-53349999D03*
%TD*%
D17*
%TO.C,Data1*%
X117949999Y-55799999D03*
%TD*%
D20*
%TO.C,C8*%
X132550000Y-58137500D03*
X132550000Y-59862500D03*
%TD*%
D21*
%TO.C,C17*%
X127412500Y-60150000D03*
X125687500Y-60150000D03*
%TD*%
D19*
%TO.C,R4*%
X121249999Y-64549999D03*
X119749999Y-64549999D03*
%TD*%
D22*
%TO.C,D4*%
X124199999Y-55049999D03*
X124199999Y-56649999D03*
X124199999Y-58249999D03*
X129099999Y-58249999D03*
X129099999Y-56649999D03*
X129099999Y-55049999D03*
%TD*%
D15*
%TO.C,D1*%
X131049999Y-59174999D03*
D16*
X131049999Y-60224999D03*
%TD*%
M02*
