%TF.GenerationSoftware,KiCad,Pcbnew,(7.0.0)*%
%TF.CreationDate,2023-10-08T10:20:03-07:00*%
%TF.ProjectId,Dot-LED,446f742d-4c45-4442-9e6b-696361645f70,rev?*%
%TF.SameCoordinates,Original*%
%TF.FileFunction,Soldermask,Bot*%
%TF.FilePolarity,Negative*%
%FSLAX46Y46*%
G04 Gerber Fmt 4.6, Leading zero omitted, Abs format (unit mm)*
G04 Created by KiCad (PCBNEW (7.0.0)) date 2023-10-08 10:20:03*
%MOMM*%
%LPD*%
G01*
G04 APERTURE LIST*
G04 Aperture macros list*
%AMRoundRect*
0 Rectangle with rounded corners*
0 $1 Rounding radius*
0 $2 $3 $4 $5 $6 $7 $8 $9 X,Y pos of 4 corners*
0 Add a 4 corners polygon primitive as box body*
4,1,4,$2,$3,$4,$5,$6,$7,$8,$9,$2,$3,0*
0 Add four circle primitives for the rounded corners*
1,1,$1+$1,$2,$3*
1,1,$1+$1,$4,$5*
1,1,$1+$1,$6,$7*
1,1,$1+$1,$8,$9*
0 Add four rect primitives between the rounded corners*
20,1,$1+$1,$2,$3,$4,$5,0*
20,1,$1+$1,$4,$5,$6,$7,0*
20,1,$1+$1,$6,$7,$8,$9,0*
20,1,$1+$1,$8,$9,$2,$3,0*%
%AMFreePoly0*
4,1,14,0.760355,0.760355,0.775000,0.725000,0.775000,-0.725000,0.760355,-0.760355,0.725000,-0.775000,-0.125000,-0.775000,-0.160355,-0.760355,-0.760355,-0.160355,-0.775000,-0.125000,-0.775000,0.725000,-0.760355,0.760355,-0.725000,0.775000,0.725000,0.775000,0.760355,0.760355,0.760355,0.760355,$1*%
G04 Aperture macros list end*
%ADD10C,3.890000*%
%ADD11C,1.300000*%
%ADD12RoundRect,0.050000X-1.250000X0.900000X-1.250000X-0.900000X1.250000X-0.900000X1.250000X0.900000X0*%
%ADD13RoundRect,0.050000X-0.900000X1.250000X-0.900000X-1.250000X0.900000X-1.250000X0.900000X1.250000X0*%
%ADD14C,0.750000*%
%ADD15O,1.050000X0.750000*%
%ADD16O,1.000000X2.000000*%
%ADD17O,1.100000X1.700000*%
%ADD18O,1.250000X0.900000*%
%ADD19RoundRect,0.287500X-0.237500X0.300000X-0.237500X-0.300000X0.237500X-0.300000X0.237500X0.300000X0*%
%ADD20RoundRect,0.050000X0.400000X-0.200000X0.400000X0.200000X-0.400000X0.200000X-0.400000X-0.200000X0*%
%ADD21RoundRect,0.050000X0.200000X0.400000X-0.200000X0.400000X-0.200000X-0.400000X0.200000X-0.400000X0*%
%ADD22RoundRect,0.050000X0.725000X-0.725000X0.725000X0.725000X-0.725000X0.725000X-0.725000X-0.725000X0*%
%ADD23FreePoly0,180.000000*%
%ADD24RoundRect,0.050000X0.350000X-0.350000X0.350000X0.350000X-0.350000X0.350000X-0.350000X-0.350000X0*%
%ADD25RoundRect,0.287500X0.300000X0.237500X-0.300000X0.237500X-0.300000X-0.237500X0.300000X-0.237500X0*%
%ADD26RoundRect,0.287500X0.237500X-0.300000X0.237500X0.300000X-0.237500X0.300000X-0.237500X-0.300000X0*%
%ADD27RoundRect,0.050000X-0.500000X0.450000X-0.500000X-0.450000X0.500000X-0.450000X0.500000X0.450000X0*%
%ADD28RoundRect,0.050000X0.500000X-0.450000X0.500000X0.450000X-0.500000X0.450000X-0.500000X-0.450000X0*%
%ADD29RoundRect,0.050000X0.237500X-0.150000X0.237500X0.150000X-0.237500X0.150000X-0.237500X-0.150000X0*%
%ADD30RoundRect,0.050000X0.450000X0.500000X-0.450000X0.500000X-0.450000X-0.500000X0.450000X-0.500000X0*%
%ADD31RoundRect,0.050000X1.100000X-0.425000X1.100000X0.425000X-1.100000X0.425000X-1.100000X-0.425000X0*%
G04 APERTURE END LIST*
D10*
%TO.C,RX1*%
X136400000Y-48250000D03*
%TD*%
D11*
%TO.C,CON1*%
X132050000Y-40300000D03*
X122050000Y-40300000D03*
X132050000Y-42800000D03*
X122050000Y-42800000D03*
X127050000Y-47800000D03*
D12*
X127050000Y-42800000D03*
D13*
X122050000Y-47800000D03*
X132050000Y-47800000D03*
%TD*%
D14*
%TO.C,P1*%
X123150000Y-64800000D03*
D15*
X130349999Y-64799999D03*
D14*
X129550000Y-65450000D03*
X129150000Y-66150000D03*
X128350000Y-66150000D03*
X127950000Y-65450000D03*
X127550000Y-66150000D03*
X127150000Y-65450000D03*
X126350000Y-65450000D03*
X125950000Y-66150000D03*
X125550000Y-65450000D03*
X125150000Y-66150000D03*
X124350000Y-66150000D03*
X123950000Y-65450000D03*
D16*
X122249999Y-68564999D03*
D17*
X122529999Y-66049999D03*
D18*
X122904999Y-63249999D03*
X130594999Y-63249999D03*
D17*
X130969999Y-66049999D03*
D16*
X131249999Y-68564999D03*
%TD*%
D10*
%TO.C,GND2*%
X135000000Y-65050000D03*
%TD*%
%TO.C,TX1*%
X117750000Y-48550000D03*
%TD*%
D19*
%TO.C,C7*%
X137400000Y-51287500D03*
X137400000Y-53012500D03*
%TD*%
D20*
%TO.C,U1*%
X133975000Y-52325000D03*
X133975000Y-53125000D03*
X133975000Y-53925000D03*
X133975000Y-54725000D03*
X133975000Y-55525000D03*
X133975000Y-56325000D03*
X133975000Y-57125000D03*
X133975000Y-57925000D03*
X133975000Y-58725000D03*
X133975000Y-59525000D03*
X133975000Y-60325000D03*
D21*
X132875000Y-61225000D03*
X132075000Y-61225000D03*
X131275000Y-61225000D03*
X130475000Y-61225000D03*
X129675000Y-61225000D03*
X128875000Y-61225000D03*
X128075000Y-61225000D03*
X127275000Y-61225000D03*
X126475000Y-61225000D03*
X125675000Y-61225000D03*
X124875000Y-61225000D03*
X124075000Y-61225000D03*
X123275000Y-61225000D03*
D20*
X122175000Y-60325000D03*
X122175000Y-59525000D03*
X122175000Y-58725000D03*
X122175000Y-57925000D03*
X122175000Y-57125000D03*
X122175000Y-56325000D03*
X122175000Y-55525000D03*
X122175000Y-54725000D03*
X122175000Y-53925000D03*
X122175000Y-53125000D03*
X122175000Y-52325000D03*
D21*
X123275000Y-51425000D03*
X124075000Y-51425000D03*
X124875000Y-51425000D03*
X125675000Y-51425000D03*
X126475000Y-51425000D03*
X127275000Y-51425000D03*
X128075000Y-51425000D03*
X128875000Y-51425000D03*
X129675000Y-51425000D03*
X130475000Y-51425000D03*
X131275000Y-51425000D03*
X132075000Y-51425000D03*
X132875000Y-51425000D03*
D22*
X130050000Y-58300000D03*
X130050000Y-56325000D03*
D23*
X130050000Y-54350000D03*
D22*
X128075000Y-58300000D03*
X128075000Y-56325000D03*
X128075000Y-54350000D03*
X126100000Y-58300000D03*
X126100000Y-56325000D03*
X126100000Y-54350000D03*
D24*
X122125000Y-51375000D03*
X122125000Y-61275000D03*
X134025000Y-61275000D03*
X134025000Y-51375000D03*
%TD*%
D25*
%TO.C,C14*%
X119762500Y-53000000D03*
X118037500Y-53000000D03*
%TD*%
D26*
%TO.C,C18*%
X120500000Y-62412500D03*
X120500000Y-60687500D03*
%TD*%
D27*
%TO.C,R7*%
X116250000Y-54450000D03*
X116250000Y-55950000D03*
%TD*%
%TO.C,R9*%
X119000000Y-60750000D03*
X119000000Y-62250000D03*
%TD*%
D26*
%TO.C,C6*%
X137950000Y-56512500D03*
X137950000Y-54787500D03*
%TD*%
D25*
%TO.C,C16*%
X120862500Y-64050000D03*
X119137500Y-64050000D03*
%TD*%
D28*
%TO.C,R3*%
X135950000Y-61400000D03*
X135950000Y-59900000D03*
%TD*%
D27*
%TO.C,R8*%
X117450000Y-59800000D03*
X117450000Y-61300000D03*
%TD*%
D29*
%TO.C,U3*%
X117926000Y-57000000D03*
X117926000Y-57500000D03*
X117926000Y-58000000D03*
X117926000Y-58500000D03*
X116250000Y-58500000D03*
X116250000Y-58000000D03*
X116250000Y-57500000D03*
X116250000Y-57000000D03*
%TD*%
D19*
%TO.C,C15*%
X136400000Y-54887500D03*
X136400000Y-56612500D03*
%TD*%
D30*
%TO.C,R6*%
X119600000Y-54500000D03*
X118100000Y-54500000D03*
%TD*%
D31*
%TO.C,L2*%
X119850000Y-58775000D03*
X119850000Y-56725000D03*
%TD*%
G36*
X128841847Y-65941450D02*
G01*
X128841869Y-65943308D01*
X128795279Y-66034745D01*
X128777024Y-66150000D01*
X128795279Y-66265254D01*
X128841869Y-66356691D01*
X128841847Y-66358549D01*
X128840306Y-66359587D01*
X128838576Y-66358909D01*
X128825777Y-66344138D01*
X128824433Y-66345303D01*
X128822981Y-66345786D01*
X128821612Y-66345101D01*
X128802938Y-66323547D01*
X128749999Y-66308002D01*
X128697061Y-66323547D01*
X128678387Y-66345101D01*
X128677018Y-66345786D01*
X128675565Y-66345303D01*
X128674222Y-66344139D01*
X128661424Y-66358909D01*
X128659694Y-66359587D01*
X128658153Y-66358549D01*
X128658131Y-66356691D01*
X128704720Y-66265254D01*
X128722975Y-66150000D01*
X128704720Y-66034745D01*
X128658130Y-65943308D01*
X128658152Y-65941450D01*
X128659693Y-65940412D01*
X128661423Y-65941090D01*
X128674222Y-65955860D01*
X128675563Y-65954699D01*
X128677015Y-65954215D01*
X128678384Y-65954900D01*
X128697077Y-65976462D01*
X128750000Y-65991996D01*
X128802922Y-65976462D01*
X128821615Y-65954900D01*
X128822984Y-65954215D01*
X128824436Y-65954698D01*
X128825777Y-65955860D01*
X128838575Y-65941090D01*
X128840306Y-65940412D01*
X128841847Y-65941450D01*
G37*
G36*
X127641847Y-65241450D02*
G01*
X127641869Y-65243308D01*
X127595279Y-65334745D01*
X127577024Y-65449999D01*
X127595279Y-65565254D01*
X127648257Y-65669229D01*
X127730770Y-65751742D01*
X127834745Y-65804720D01*
X127950000Y-65822975D01*
X128065254Y-65804720D01*
X128169229Y-65751742D01*
X128251742Y-65669229D01*
X128279523Y-65614706D01*
X128281172Y-65613618D01*
X128282951Y-65614477D01*
X128283124Y-65616445D01*
X128272871Y-65638897D01*
X128264225Y-65686821D01*
X128279523Y-65732784D01*
X128314976Y-65765791D01*
X128346155Y-65773749D01*
X128347495Y-65774891D01*
X128347413Y-65776650D01*
X128345973Y-65777662D01*
X128234745Y-65795279D01*
X128130770Y-65848257D01*
X128048257Y-65930770D01*
X127995279Y-66034745D01*
X127977024Y-66150000D01*
X127995279Y-66265254D01*
X128041869Y-66356691D01*
X128041847Y-66358549D01*
X128040306Y-66359587D01*
X128038576Y-66358909D01*
X128025777Y-66344138D01*
X128024433Y-66345303D01*
X128022981Y-66345786D01*
X128021612Y-66345101D01*
X128002938Y-66323547D01*
X127949999Y-66308002D01*
X127897061Y-66323547D01*
X127878387Y-66345101D01*
X127877018Y-66345786D01*
X127875565Y-66345303D01*
X127874222Y-66344139D01*
X127861424Y-66358909D01*
X127859694Y-66359587D01*
X127858153Y-66358549D01*
X127858131Y-66356691D01*
X127904720Y-66265254D01*
X127922975Y-66150000D01*
X127904720Y-66034745D01*
X127851742Y-65930770D01*
X127769229Y-65848257D01*
X127665254Y-65795279D01*
X127549999Y-65777024D01*
X127434745Y-65795279D01*
X127330770Y-65848257D01*
X127248257Y-65930770D01*
X127220472Y-65985301D01*
X127218823Y-65986389D01*
X127217044Y-65985530D01*
X127216871Y-65983562D01*
X127227128Y-65961102D01*
X127235774Y-65913178D01*
X127220476Y-65867215D01*
X127185023Y-65834208D01*
X127153844Y-65826250D01*
X127152504Y-65825108D01*
X127152586Y-65823349D01*
X127154026Y-65822337D01*
X127265254Y-65804720D01*
X127369229Y-65751742D01*
X127451742Y-65669229D01*
X127504720Y-65565254D01*
X127522975Y-65449999D01*
X127504720Y-65334745D01*
X127458130Y-65243308D01*
X127458152Y-65241450D01*
X127459693Y-65240412D01*
X127461423Y-65241090D01*
X127474222Y-65255860D01*
X127475563Y-65254699D01*
X127477015Y-65254215D01*
X127478384Y-65254900D01*
X127497077Y-65276462D01*
X127550000Y-65291996D01*
X127602922Y-65276462D01*
X127621615Y-65254900D01*
X127622984Y-65254215D01*
X127624436Y-65254698D01*
X127625777Y-65255860D01*
X127638575Y-65241090D01*
X127640306Y-65240412D01*
X127641847Y-65241450D01*
G37*
G36*
X126041847Y-65241450D02*
G01*
X126041869Y-65243308D01*
X125995279Y-65334745D01*
X125977024Y-65449999D01*
X125995279Y-65565254D01*
X126048257Y-65669229D01*
X126130770Y-65751742D01*
X126234745Y-65804720D01*
X126345973Y-65822337D01*
X126347413Y-65823349D01*
X126347495Y-65825108D01*
X126346155Y-65826250D01*
X126314976Y-65834208D01*
X126279523Y-65867215D01*
X126264225Y-65913178D01*
X126272871Y-65961102D01*
X126283125Y-65983557D01*
X126282952Y-65985525D01*
X126281173Y-65986384D01*
X126279524Y-65985296D01*
X126251742Y-65930770D01*
X126169229Y-65848257D01*
X126065254Y-65795279D01*
X125949999Y-65777024D01*
X125834745Y-65795279D01*
X125730770Y-65848257D01*
X125648257Y-65930770D01*
X125595279Y-66034745D01*
X125577024Y-66150000D01*
X125595279Y-66265254D01*
X125641869Y-66356691D01*
X125641847Y-66358549D01*
X125640306Y-66359587D01*
X125638576Y-66358909D01*
X125625777Y-66344138D01*
X125624433Y-66345303D01*
X125622981Y-66345786D01*
X125621612Y-66345101D01*
X125602938Y-66323547D01*
X125549999Y-66308002D01*
X125497061Y-66323547D01*
X125478387Y-66345101D01*
X125477018Y-66345786D01*
X125475565Y-66345303D01*
X125474222Y-66344139D01*
X125461424Y-66358909D01*
X125459694Y-66359587D01*
X125458153Y-66358549D01*
X125458131Y-66356691D01*
X125504720Y-66265254D01*
X125522975Y-66150000D01*
X125504720Y-66034745D01*
X125451742Y-65930770D01*
X125369229Y-65848257D01*
X125265254Y-65795279D01*
X125154026Y-65777662D01*
X125152586Y-65776650D01*
X125152504Y-65774891D01*
X125153844Y-65773749D01*
X125185023Y-65765791D01*
X125220476Y-65732784D01*
X125235774Y-65686821D01*
X125227128Y-65638897D01*
X125216872Y-65616440D01*
X125217045Y-65614472D01*
X125218824Y-65613613D01*
X125220473Y-65614701D01*
X125248257Y-65669229D01*
X125330770Y-65751742D01*
X125434745Y-65804720D01*
X125550000Y-65822975D01*
X125665254Y-65804720D01*
X125769229Y-65751742D01*
X125851742Y-65669229D01*
X125904720Y-65565254D01*
X125922975Y-65449999D01*
X125904720Y-65334745D01*
X125858130Y-65243308D01*
X125858152Y-65241450D01*
X125859693Y-65240412D01*
X125861423Y-65241090D01*
X125874222Y-65255860D01*
X125875563Y-65254699D01*
X125877015Y-65254215D01*
X125878384Y-65254900D01*
X125897077Y-65276462D01*
X125950000Y-65291996D01*
X126002922Y-65276462D01*
X126021615Y-65254900D01*
X126022984Y-65254215D01*
X126024436Y-65254698D01*
X126025777Y-65255860D01*
X126038575Y-65241090D01*
X126040306Y-65240412D01*
X126041847Y-65241450D01*
G37*
G36*
X124841847Y-65941450D02*
G01*
X124841869Y-65943308D01*
X124795279Y-66034745D01*
X124777024Y-66150000D01*
X124795279Y-66265254D01*
X124841869Y-66356691D01*
X124841847Y-66358549D01*
X124840306Y-66359587D01*
X124838576Y-66358909D01*
X124825777Y-66344138D01*
X124824433Y-66345303D01*
X124822981Y-66345786D01*
X124821612Y-66345101D01*
X124802938Y-66323547D01*
X124749999Y-66308002D01*
X124697061Y-66323547D01*
X124678387Y-66345101D01*
X124677018Y-66345786D01*
X124675565Y-66345303D01*
X124674222Y-66344139D01*
X124661424Y-66358909D01*
X124659694Y-66359587D01*
X124658153Y-66358549D01*
X124658131Y-66356691D01*
X124704720Y-66265254D01*
X124722975Y-66150000D01*
X124704720Y-66034745D01*
X124658130Y-65943308D01*
X124658152Y-65941450D01*
X124659693Y-65940412D01*
X124661423Y-65941090D01*
X124674222Y-65955860D01*
X124675563Y-65954699D01*
X124677015Y-65954215D01*
X124678384Y-65954900D01*
X124697077Y-65976462D01*
X124750000Y-65991996D01*
X124802922Y-65976462D01*
X124821615Y-65954900D01*
X124822984Y-65954215D01*
X124824436Y-65954698D01*
X124825777Y-65955860D01*
X124838575Y-65941090D01*
X124840306Y-65940412D01*
X124841847Y-65941450D01*
G37*
G36*
X124282951Y-65614477D02*
G01*
X124283124Y-65616445D01*
X124272871Y-65638897D01*
X124264225Y-65686821D01*
X124279523Y-65732784D01*
X124314976Y-65765791D01*
X124346155Y-65773749D01*
X124347495Y-65774891D01*
X124347413Y-65776650D01*
X124345973Y-65777662D01*
X124234745Y-65795279D01*
X124130770Y-65848257D01*
X124048257Y-65930770D01*
X124020472Y-65985301D01*
X124018823Y-65986389D01*
X124017044Y-65985530D01*
X124016871Y-65983562D01*
X124027128Y-65961102D01*
X124035774Y-65913178D01*
X124020476Y-65867215D01*
X123985023Y-65834208D01*
X123953844Y-65826250D01*
X123952504Y-65825108D01*
X123952586Y-65823349D01*
X123954026Y-65822337D01*
X124065254Y-65804720D01*
X124169229Y-65751742D01*
X124251742Y-65669229D01*
X124279523Y-65614706D01*
X124281172Y-65613618D01*
X124282951Y-65614477D01*
G37*
G36*
X129220473Y-65614701D02*
G01*
X129248257Y-65669229D01*
X129330770Y-65751742D01*
X129434745Y-65804720D01*
X129545973Y-65822337D01*
X129547413Y-65823349D01*
X129547495Y-65825108D01*
X129546155Y-65826250D01*
X129514976Y-65834208D01*
X129479523Y-65867215D01*
X129464225Y-65913178D01*
X129472871Y-65961102D01*
X129483125Y-65983557D01*
X129482952Y-65985525D01*
X129481173Y-65986384D01*
X129479524Y-65985296D01*
X129451742Y-65930770D01*
X129369229Y-65848257D01*
X129265254Y-65795279D01*
X129154026Y-65777662D01*
X129152586Y-65776650D01*
X129152504Y-65774891D01*
X129153844Y-65773749D01*
X129185023Y-65765791D01*
X129220476Y-65732784D01*
X129235774Y-65686821D01*
X129227128Y-65638897D01*
X129216872Y-65616440D01*
X129217045Y-65614472D01*
X129218824Y-65613613D01*
X129220473Y-65614701D01*
G37*
G36*
X126841847Y-65241450D02*
G01*
X126841869Y-65243308D01*
X126795279Y-65334745D01*
X126777024Y-65449999D01*
X126795279Y-65565254D01*
X126841869Y-65656691D01*
X126841847Y-65658549D01*
X126840306Y-65659587D01*
X126838576Y-65658909D01*
X126825777Y-65644138D01*
X126824433Y-65645303D01*
X126822981Y-65645786D01*
X126821612Y-65645101D01*
X126802938Y-65623547D01*
X126750000Y-65608002D01*
X126697061Y-65623547D01*
X126678387Y-65645101D01*
X126677018Y-65645786D01*
X126675565Y-65645303D01*
X126674222Y-65644139D01*
X126661424Y-65658909D01*
X126659694Y-65659587D01*
X126658153Y-65658549D01*
X126658131Y-65656691D01*
X126704720Y-65565254D01*
X126722975Y-65449999D01*
X126704720Y-65334745D01*
X126658130Y-65243308D01*
X126658152Y-65241450D01*
X126659693Y-65240412D01*
X126661423Y-65241090D01*
X126674222Y-65255860D01*
X126675563Y-65254699D01*
X126677015Y-65254215D01*
X126678384Y-65254900D01*
X126697077Y-65276462D01*
X126750000Y-65291996D01*
X126802922Y-65276462D01*
X126821615Y-65254900D01*
X126822984Y-65254215D01*
X126824436Y-65254698D01*
X126825777Y-65255860D01*
X126838575Y-65241090D01*
X126840306Y-65240412D01*
X126841847Y-65241450D01*
G37*
G36*
X130796764Y-65024932D02*
G01*
X130796620Y-65026826D01*
X130776835Y-65057611D01*
X130761226Y-65108867D01*
X130774701Y-65160429D01*
X130813184Y-65197298D01*
X130865557Y-65208614D01*
X130896953Y-65206639D01*
X130898691Y-65207451D01*
X130898946Y-65209351D01*
X130897486Y-65210593D01*
X130786493Y-65233657D01*
X130653990Y-65302316D01*
X130586422Y-65365419D01*
X130584516Y-65365882D01*
X130583130Y-65364493D01*
X130583599Y-65362588D01*
X130607546Y-65337088D01*
X130633302Y-65283154D01*
X130623165Y-65224582D01*
X130581014Y-65182673D01*
X130523311Y-65173027D01*
X130521856Y-65171957D01*
X130521857Y-65170151D01*
X130523312Y-65169081D01*
X130621103Y-65152762D01*
X130729084Y-65094327D01*
X130793466Y-65024390D01*
X130795261Y-65023771D01*
X130796764Y-65024932D01*
G37*
G36*
X129870931Y-64968938D02*
G01*
X129925596Y-65052608D01*
X130009154Y-65117645D01*
X130009922Y-65119343D01*
X130008956Y-65120937D01*
X130007095Y-65121042D01*
X129995960Y-65115956D01*
X129937590Y-65108625D01*
X129885744Y-65135744D01*
X129858625Y-65187590D01*
X129865956Y-65245960D01*
X129883132Y-65283570D01*
X129882959Y-65285538D01*
X129881180Y-65286397D01*
X129879531Y-65285309D01*
X129851742Y-65230770D01*
X129769229Y-65148257D01*
X129762106Y-65144627D01*
X129761026Y-65143063D01*
X129761741Y-65141303D01*
X129763605Y-65140934D01*
X129802186Y-65152863D01*
X129853133Y-65140247D01*
X129890247Y-65103133D01*
X129902863Y-65052186D01*
X129887275Y-65001769D01*
X129867574Y-64971113D01*
X129867477Y-64969120D01*
X129869152Y-64968035D01*
X129870931Y-64968938D01*
G37*
G36*
X117658428Y-58186480D02*
G01*
X117670145Y-58194309D01*
X117688699Y-58198000D01*
X118163301Y-58198000D01*
X118181854Y-58194309D01*
X118193565Y-58186483D01*
X118195319Y-58186252D01*
X118196570Y-58187503D01*
X118196339Y-58189257D01*
X118192300Y-58195303D01*
X118175708Y-58249998D01*
X118192299Y-58304692D01*
X118196342Y-58310744D01*
X118196573Y-58312498D01*
X118195322Y-58313749D01*
X118193568Y-58313518D01*
X118181854Y-58305690D01*
X118163301Y-58302000D01*
X117688699Y-58302000D01*
X117670145Y-58305690D01*
X117658428Y-58313519D01*
X117656674Y-58313750D01*
X117655423Y-58312499D01*
X117655654Y-58310745D01*
X117659699Y-58304692D01*
X117676290Y-58250000D01*
X117659699Y-58195307D01*
X117655654Y-58189254D01*
X117655423Y-58187500D01*
X117656674Y-58186249D01*
X117658428Y-58186480D01*
G37*
G36*
X115982428Y-58186480D02*
G01*
X115994145Y-58194309D01*
X116012699Y-58198000D01*
X116487301Y-58198000D01*
X116505854Y-58194309D01*
X116517565Y-58186483D01*
X116519319Y-58186252D01*
X116520570Y-58187503D01*
X116520339Y-58189257D01*
X116516300Y-58195303D01*
X116499708Y-58249998D01*
X116516299Y-58304692D01*
X116520342Y-58310744D01*
X116520573Y-58312498D01*
X116519322Y-58313749D01*
X116517568Y-58313518D01*
X116505854Y-58305690D01*
X116487301Y-58302000D01*
X116012699Y-58302000D01*
X115994145Y-58305690D01*
X115982428Y-58313519D01*
X115980674Y-58313750D01*
X115979423Y-58312499D01*
X115979654Y-58310745D01*
X115983699Y-58304692D01*
X116000290Y-58250000D01*
X115983699Y-58195307D01*
X115979654Y-58189254D01*
X115979423Y-58187500D01*
X115980674Y-58186249D01*
X115982428Y-58186480D01*
G37*
G36*
X117658431Y-57686481D02*
G01*
X117670145Y-57694309D01*
X117688699Y-57698000D01*
X118163301Y-57698000D01*
X118181854Y-57694309D01*
X118193565Y-57686483D01*
X118195319Y-57686252D01*
X118196570Y-57687503D01*
X118196339Y-57689257D01*
X118192300Y-57695303D01*
X118175708Y-57749998D01*
X118192299Y-57804692D01*
X118196342Y-57810744D01*
X118196573Y-57812498D01*
X118195322Y-57813749D01*
X118193568Y-57813518D01*
X118181854Y-57805690D01*
X118163301Y-57802000D01*
X117688699Y-57802000D01*
X117670145Y-57805690D01*
X117658428Y-57813520D01*
X117656674Y-57813751D01*
X117655423Y-57812500D01*
X117655654Y-57810746D01*
X117659700Y-57804690D01*
X117676290Y-57749998D01*
X117659699Y-57695305D01*
X117655657Y-57689255D01*
X117655426Y-57687501D01*
X117656677Y-57686250D01*
X117658431Y-57686481D01*
G37*
G36*
X115982431Y-57686481D02*
G01*
X115994145Y-57694309D01*
X116012699Y-57698000D01*
X116487301Y-57698000D01*
X116505854Y-57694309D01*
X116517565Y-57686483D01*
X116519319Y-57686252D01*
X116520570Y-57687503D01*
X116520339Y-57689257D01*
X116516300Y-57695303D01*
X116499708Y-57749998D01*
X116516299Y-57804692D01*
X116520342Y-57810744D01*
X116520573Y-57812498D01*
X116519322Y-57813749D01*
X116517568Y-57813518D01*
X116505854Y-57805690D01*
X116487301Y-57802000D01*
X116012699Y-57802000D01*
X115994145Y-57805690D01*
X115982428Y-57813520D01*
X115980674Y-57813751D01*
X115979423Y-57812500D01*
X115979654Y-57810746D01*
X115983700Y-57804690D01*
X116000290Y-57749998D01*
X115983699Y-57695305D01*
X115979657Y-57689255D01*
X115979426Y-57687501D01*
X115980677Y-57686250D01*
X115982431Y-57686481D01*
G37*
G36*
X117658431Y-57186481D02*
G01*
X117670145Y-57194309D01*
X117688699Y-57198000D01*
X118163301Y-57198000D01*
X118181854Y-57194309D01*
X118193565Y-57186483D01*
X118195319Y-57186252D01*
X118196570Y-57187503D01*
X118196339Y-57189257D01*
X118192300Y-57195303D01*
X118175708Y-57249998D01*
X118192299Y-57304692D01*
X118196342Y-57310744D01*
X118196573Y-57312498D01*
X118195322Y-57313749D01*
X118193568Y-57313518D01*
X118181854Y-57305690D01*
X118163301Y-57302000D01*
X117688699Y-57302000D01*
X117670145Y-57305690D01*
X117658428Y-57313520D01*
X117656674Y-57313751D01*
X117655423Y-57312500D01*
X117655654Y-57310746D01*
X117659700Y-57304690D01*
X117676290Y-57249998D01*
X117659699Y-57195305D01*
X117655657Y-57189255D01*
X117655426Y-57187501D01*
X117656677Y-57186250D01*
X117658431Y-57186481D01*
G37*
G36*
X115982431Y-57186481D02*
G01*
X115994145Y-57194309D01*
X116012699Y-57198000D01*
X116487301Y-57198000D01*
X116505854Y-57194309D01*
X116517565Y-57186483D01*
X116519319Y-57186252D01*
X116520570Y-57187503D01*
X116520339Y-57189257D01*
X116516300Y-57195303D01*
X116499708Y-57249998D01*
X116516299Y-57304692D01*
X116520342Y-57310744D01*
X116520573Y-57312498D01*
X116519322Y-57313749D01*
X116517568Y-57313518D01*
X116505854Y-57305690D01*
X116487301Y-57302000D01*
X116012699Y-57302000D01*
X115994145Y-57305690D01*
X115982428Y-57313520D01*
X115980674Y-57313751D01*
X115979423Y-57312500D01*
X115979654Y-57310746D01*
X115983700Y-57304690D01*
X116000290Y-57249998D01*
X115983699Y-57195305D01*
X115979657Y-57189255D01*
X115979426Y-57187501D01*
X115980677Y-57186250D01*
X115982431Y-57186481D01*
G37*
M02*
