%TF.GenerationSoftware,KiCad,Pcbnew,(7.0.0)*%
%TF.CreationDate,2023-10-08T10:20:03-07:00*%
%TF.ProjectId,Dot-LED,446f742d-4c45-4442-9e6b-696361645f70,rev?*%
%TF.SameCoordinates,Original*%
%TF.FileFunction,Paste,Bot*%
%TF.FilePolarity,Positive*%
%FSLAX46Y46*%
G04 Gerber Fmt 4.6, Leading zero omitted, Abs format (unit mm)*
G04 Created by KiCad (PCBNEW (7.0.0)) date 2023-10-08 10:20:03*
%MOMM*%
%LPD*%
G01*
G04 APERTURE LIST*
G04 Aperture macros list*
%AMRoundRect*
0 Rectangle with rounded corners*
0 $1 Rounding radius*
0 $2 $3 $4 $5 $6 $7 $8 $9 X,Y pos of 4 corners*
0 Add a 4 corners polygon primitive as box body*
4,1,4,$2,$3,$4,$5,$6,$7,$8,$9,$2,$3,0*
0 Add four circle primitives for the rounded corners*
1,1,$1+$1,$2,$3*
1,1,$1+$1,$4,$5*
1,1,$1+$1,$6,$7*
1,1,$1+$1,$8,$9*
0 Add four rect primitives between the rounded corners*
20,1,$1+$1,$2,$3,$4,$5,0*
20,1,$1+$1,$4,$5,$6,$7,0*
20,1,$1+$1,$6,$7,$8,$9,0*
20,1,$1+$1,$8,$9,$2,$3,0*%
%AMFreePoly0*
4,1,6,0.725000,-0.725000,-0.125000,-0.725000,-0.725000,-0.125000,-0.725000,0.725000,0.725000,0.725000,0.725000,-0.725000,0.725000,-0.725000,$1*%
G04 Aperture macros list end*
%ADD10RoundRect,0.237500X-0.237500X0.300000X-0.237500X-0.300000X0.237500X-0.300000X0.237500X0.300000X0*%
%ADD11R,0.800000X0.400000*%
%ADD12R,0.400000X0.800000*%
%ADD13R,1.450000X1.450000*%
%ADD14FreePoly0,180.000000*%
%ADD15R,0.700000X0.700000*%
%ADD16RoundRect,0.237500X0.300000X0.237500X-0.300000X0.237500X-0.300000X-0.237500X0.300000X-0.237500X0*%
%ADD17RoundRect,0.237500X0.237500X-0.300000X0.237500X0.300000X-0.237500X0.300000X-0.237500X-0.300000X0*%
%ADD18R,1.000000X0.900000*%
%ADD19R,0.475000X0.300000*%
%ADD20R,0.900000X1.000000*%
%ADD21R,2.200000X0.850000*%
G04 APERTURE END LIST*
D10*
%TO.C,C7*%
X137400000Y-51287500D03*
X137400000Y-53012500D03*
%TD*%
D11*
%TO.C,U1*%
X133974999Y-52324999D03*
X133974999Y-53124999D03*
X133974999Y-53924999D03*
X133974999Y-54724999D03*
X133974999Y-55524999D03*
X133974999Y-56324999D03*
X133974999Y-57124999D03*
X133974999Y-57924999D03*
X133974999Y-58724999D03*
X133974999Y-59524999D03*
X133974999Y-60324999D03*
D12*
X132874999Y-61224999D03*
X132074999Y-61224999D03*
X131274999Y-61224999D03*
X130474999Y-61224999D03*
X129674999Y-61224999D03*
X128874999Y-61224999D03*
X128074999Y-61224999D03*
X127274999Y-61224999D03*
X126474999Y-61224999D03*
X125674999Y-61224999D03*
X124874999Y-61224999D03*
X124074999Y-61224999D03*
X123274999Y-61224999D03*
D11*
X122174999Y-60324999D03*
X122174999Y-59524999D03*
X122174999Y-58724999D03*
X122174999Y-57924999D03*
X122174999Y-57124999D03*
X122174999Y-56324999D03*
X122174999Y-55524999D03*
X122174999Y-54724999D03*
X122174999Y-53924999D03*
X122174999Y-53124999D03*
X122174999Y-52324999D03*
D12*
X123274999Y-51424999D03*
X124074999Y-51424999D03*
X124874999Y-51424999D03*
X125674999Y-51424999D03*
X126474999Y-51424999D03*
X127274999Y-51424999D03*
X128074999Y-51424999D03*
X128874999Y-51424999D03*
X129674999Y-51424999D03*
X130474999Y-51424999D03*
X131274999Y-51424999D03*
X132074999Y-51424999D03*
X132874999Y-51424999D03*
D13*
X130049999Y-58299999D03*
X130049999Y-56324999D03*
D14*
X130050000Y-54350000D03*
D13*
X128074999Y-58299999D03*
X128074999Y-56324999D03*
X128074999Y-54349999D03*
X126099999Y-58299999D03*
X126099999Y-56324999D03*
X126099999Y-54349999D03*
D15*
X122124999Y-51374999D03*
X122124999Y-61274999D03*
X134024999Y-61274999D03*
X134024999Y-51374999D03*
%TD*%
D16*
%TO.C,C14*%
X119762500Y-53000000D03*
X118037500Y-53000000D03*
%TD*%
D17*
%TO.C,C18*%
X120500000Y-62412500D03*
X120500000Y-60687500D03*
%TD*%
D18*
%TO.C,R7*%
X116249999Y-54449999D03*
X116249999Y-55949999D03*
%TD*%
%TO.C,R9*%
X118999999Y-60749999D03*
X118999999Y-62249999D03*
%TD*%
D17*
%TO.C,C6*%
X137950000Y-56512500D03*
X137950000Y-54787500D03*
%TD*%
D16*
%TO.C,C16*%
X120862500Y-64050000D03*
X119137500Y-64050000D03*
%TD*%
D18*
%TO.C,R3*%
X135949999Y-61399999D03*
X135949999Y-59899999D03*
%TD*%
%TO.C,R8*%
X117449999Y-59799999D03*
X117449999Y-61299999D03*
%TD*%
D19*
%TO.C,U3*%
X117925999Y-56999999D03*
X117925999Y-57499999D03*
X117925999Y-57999999D03*
X117925999Y-58499999D03*
X116249999Y-58499999D03*
X116249999Y-57999999D03*
X116249999Y-57499999D03*
X116249999Y-56999999D03*
%TD*%
D10*
%TO.C,C15*%
X136400000Y-54887500D03*
X136400000Y-56612500D03*
%TD*%
D20*
%TO.C,R6*%
X119599999Y-54499999D03*
X118099999Y-54499999D03*
%TD*%
D21*
%TO.C,L2*%
X119849999Y-58774999D03*
X119849999Y-56724999D03*
%TD*%
M02*
