G04 Layer_Color=25308*
%FSAX24Y24*%
%MOIN*%
G70*
G01*
G75*
%ADD37O,0.0700X0.1100*%
%ADD38R,0.0700X0.1100*%
%ADD39C,0.0512*%
%ADD40R,0.0512X0.0512*%
%ADD41C,0.0591*%
%ADD42C,0.0630*%
%ADD43C,0.0600*%
%ADD44R,0.0700X0.0700*%
%ADD45C,0.0700*%
%ADD46C,0.0660*%
%ADD47C,0.2362*%
%ADD48C,0.1575*%
%ADD49C,0.1500*%
D37*
X027690Y049388D02*
D03*
X026690D02*
D03*
X023312Y049368D02*
D03*
X022312D02*
D03*
D38*
X025690Y049388D02*
D03*
X021312Y049368D02*
D03*
D39*
X011933Y048557D02*
D03*
Y044423D02*
D03*
Y039895D02*
D03*
X029026Y040407D02*
D03*
X029002Y043400D02*
D03*
D40*
X010949Y048557D02*
D03*
Y044423D02*
D03*
Y039895D02*
D03*
X030010Y040407D02*
D03*
X029986Y043400D02*
D03*
D41*
X030010Y045919D02*
D03*
X029026D02*
D03*
D42*
X043315Y040256D02*
D03*
X042315D02*
D03*
X043315Y037894D02*
D03*
X042315D02*
D03*
D43*
X041043Y042028D02*
D03*
Y038028D02*
D03*
X040945Y047343D02*
D03*
Y043343D02*
D03*
X041831Y032382D02*
D03*
Y036382D02*
D03*
D44*
X018077Y038508D02*
D03*
D45*
X019077D02*
D03*
D46*
X011016Y037500D02*
D03*
X012016D02*
D03*
X010941Y042061D02*
D03*
X011941D02*
D03*
X010941Y046588D02*
D03*
X011941D02*
D03*
D47*
X013780Y029528D02*
D03*
X016732D02*
D03*
D48*
X012598Y051968D02*
D03*
Y026378D02*
D03*
X037795D02*
D03*
Y051968D02*
D03*
X025000Y028543D02*
D03*
X026969D02*
D03*
X020472D02*
D03*
X022441D02*
D03*
X029626D02*
D03*
X031594D02*
D03*
X032480Y025886D02*
D03*
Y023917D02*
D03*
X017913Y025787D02*
D03*
Y023819D02*
D03*
D49*
X032983Y044882D02*
D03*
X038583D02*
D03*
M02*
