M48
;Layer_Color=9474304
;FILE_FORMAT=2:4
INCH,LZ
;TYPE=PLATED
T1F00S00C0.0126
T2F00S00C0.0142
T3F00S00C0.0159
T4F00S00C0.0179
T5F00S00C0.0201
T6F00S00C0.0226
T7F00S00C0.0254
T8F00S00C0.0285
T9F00S00C0.0320
T10F00S00C0.0354
T11F00S00C0.0359
T12F00S00C0.0403
T13F00S00C0.0453
T14F00S00C0.0508
T15F00S00C0.0571
T16F00S00C0.0641
T17F00S00C0.0720
T18F00S00C0.0808
T19F00S00C0.0907
T20F00S00C0.1019
T21F00S00C0.1144
T22F00S00C0.1285
T23F00S00C0.1443
T24F00S00C0.1620
;TYPE=NON_PLATED
%
T01
X006575Y029409
T02
X006929Y029409
T03
X007323Y029409
T04
X007717Y029409
T05
X00815Y029409
T06
X008583Y02937
X008543Y029409
T07
X009016Y029409
T08
X009488Y029409
T09
X01Y029409
T10
X007043Y026929
X010043
T11
X010512Y029409
T12
X011142Y029409
T13
X011811Y02937
T14
X012559Y02937
T15
X013307Y029331
T16
X014134Y029291
T17
X015Y029252
T18
X015984Y029213
T19
X017087Y029173
T20
X018268Y029094
T21
X019449Y029055
T22
X020866Y028976
T23
X02252Y028898
T24
X024252Y02878
M30
