M48
;Layer_Color=9474304
;FILE_FORMAT=2:4
INCH,LZ
;TYPE=PLATED
T1F00S00C0.0126
T2F00S00C0.0142
T3F00S00C0.0159
T4F00S00C0.0179
T5F00S00C0.0201
T6F00S00C0.0226
T7F00S00C0.0254
T8F00S00C0.0285
T9F00S00C0.0320
T10F00S00C0.0354
T11F00S00C0.0359
T12F00S00C0.0403
T13F00S00C0.0453
T14F00S00C0.0508
T15F00S00C0.0571
T16F00S00C0.0641
T17F00S00C0.0720
T18F00S00C0.0808
T19F00S00C0.0907
T20F00S00C0.1019
T21F00S00C0.1144
T22F00S00C0.1285
T23F00S00C0.1443
T24F00S00C0.1620
;TYPE=NON_PLATED
%
T01
X00815Y025591
X008189Y025551
T02
X008504Y025591
X008543Y025551
T03
X008898Y025591
X008937Y025551
T04
X009291Y025591
X009331Y025551
T05
X009724Y025591
X009764Y025551
T06
X010118Y025591
X010157Y025551
T07
X010591Y025591
X01063Y025551
T08
X011063Y025591
X011102Y025551
T09
X011575Y025591
X011614Y025551
T10
X008854Y023583
X008894Y023543
X011854Y023583
X011894Y023543
T11
X012087Y025591
X012126Y025551
T12
X012717Y025591
X012756Y025551
T13
X013386Y025551
X013425Y025512
T14
X014134Y025551
X014173Y025512
T15
X014882Y025512
X014921Y025472
T16
X015709Y025472
X015748Y025433
T17
X016575Y025433
X016614Y025394
T18
X017559Y025394
X017598Y025354
T19
X018661Y025354
X018701Y025315
T20
X019843Y025276
X019882Y025236
T21
X021024Y025236
X021063Y025197
T22
X022441Y025157
X02248Y025118
T23
X024094Y025079
X024134Y025039
T24
X025827Y024961
X025866Y024921
M30
