G04 Layer_Color=32768*
%FSLAX24Y24*%
%MOIN*%
G70*
G01*
G75*
%ADD35C,0.0039*%
%ADD86C,0.0020*%
D35*
X26063Y21614D02*
Y22008D01*
X25866Y21811D02*
X26260D01*
X24193Y20433D02*
X27933D01*
X24193Y23189D02*
X27933D01*
Y20433D02*
Y23189D01*
X24193Y20433D02*
Y23189D01*
X35630Y17161D02*
Y17437D01*
X34921Y17161D02*
Y17437D01*
Y17161D02*
X35630D01*
X34921Y17437D02*
X35630D01*
X35157Y17299D02*
X35394D01*
X35276Y17181D02*
Y17417D01*
X35276Y16404D02*
Y16778D01*
X35089Y16591D02*
X35463D01*
X34803Y16807D02*
X35748D01*
X34803Y16374D02*
X35748D01*
X34803D02*
Y16807D01*
X35748Y16374D02*
Y16807D01*
X34488Y14484D02*
Y15232D01*
X36063Y14484D02*
Y15232D01*
X34488D02*
X36063D01*
X34488Y14484D02*
X36063D01*
X35079Y14858D02*
X35472D01*
X35276Y14661D02*
Y15055D01*
X34488Y13087D02*
Y14189D01*
X36063Y13087D02*
Y14189D01*
X34488D02*
X36063D01*
X34488Y13087D02*
X36063D01*
X35079Y13638D02*
X35472D01*
X35276Y13441D02*
Y13835D01*
X20689Y20531D02*
Y21909D01*
X19154Y20531D02*
Y21909D01*
Y20531D02*
X20689D01*
X19154Y21909D02*
X20689D01*
X19724Y21220D02*
X20118D01*
X19921Y21024D02*
Y21417D01*
X10354Y23346D02*
Y23740D01*
X10157Y23543D02*
X10551D01*
X10394Y23307D02*
Y23701D01*
X10197Y23504D02*
X10591D01*
D86*
X8254Y24143D02*
X12454D01*
X8254Y22943D02*
X12454D01*
X8254D02*
Y24143D01*
X12454Y22943D02*
Y24143D01*
X8294Y24104D02*
X12494D01*
X8294Y22904D02*
X12494D01*
X8294D02*
Y24104D01*
X12494Y22904D02*
Y24104D01*
M02*
