G04 Layer_Color=16711935*
%FSLAX24Y24*%
%MOIN*%
G70*
G01*
G75*
%ADD28C,0.0100*%
%ADD44C,0.0030*%
%ADD73C,0.0080*%
%ADD76R,0.0277X0.0671*%
%ADD77R,0.0671X0.0277*%
D28*
X31362Y17682D02*
X32695Y16349D01*
X27927Y17682D02*
X31362D01*
X26779Y18829D02*
X27927Y17682D01*
X19624Y18829D02*
X26779D01*
X12577D02*
X19624D01*
X10766Y20640D02*
X12577Y18829D01*
X9388Y20640D02*
X10766D01*
X32628Y16100D02*
X32695Y16034D01*
X32337Y16100D02*
X32628D01*
X32249Y16188D02*
X32337Y16100D01*
X32249Y16188D02*
Y16431D01*
X31199Y17482D02*
X32249Y16431D01*
X27844Y17482D02*
X31199D01*
X26702Y18624D02*
X27844Y17482D01*
X18330Y18624D02*
X26702D01*
X18325Y18629D02*
X18330Y18624D01*
X12494Y18629D02*
X18325D01*
X10683Y20440D02*
X12494Y18629D01*
X9427Y20440D02*
X10683D01*
X32628Y15785D02*
X32695Y15719D01*
X32337Y15785D02*
X32628D01*
X32049Y16073D02*
X32337Y15785D01*
X32049Y16073D02*
Y16348D01*
X31116Y17282D02*
X32049Y16348D01*
X27761Y17282D02*
X31116D01*
X26619Y18424D02*
X27761Y17282D01*
X19348Y18424D02*
X26619D01*
X12416D02*
X19348D01*
X10640Y20200D02*
X12416Y18424D01*
X10600Y20240D02*
X10640Y20200D01*
X9427Y20240D02*
X10600D01*
X31711Y14774D02*
X32695D01*
X31199Y14262D02*
X31711Y14774D01*
X31678Y14459D02*
X32695D01*
X31282Y14062D02*
X31678Y14459D01*
X31646Y14144D02*
X32695D01*
X31364Y13862D02*
X31646Y14144D01*
X31614Y13829D02*
X32695D01*
X31582Y13514D02*
X32695D01*
X31103Y13036D02*
X31582Y13514D01*
X31550Y13199D02*
X32695D01*
X31186Y12836D02*
X31550Y13199D01*
X37262Y16349D02*
X37695D01*
X39151Y17806D01*
X37262Y16034D02*
X37695D01*
X38522Y16861D01*
X39191D01*
X37262Y15719D02*
X38561D01*
X39151Y16310D01*
X37262Y15404D02*
X37970D01*
X38049Y15325D01*
X38600D01*
X38758Y15483D01*
X39191Y15916D01*
Y15916D01*
X37262Y15089D02*
X38836D01*
X39191Y14735D01*
X37262Y14774D02*
X38837D01*
X39230Y14380D01*
X37262Y14459D02*
X38718D01*
X38718Y14459D01*
X37262Y14144D02*
X38482D01*
X39151Y13475D01*
X37262Y13829D02*
X38514D01*
X39069Y13275D01*
X39151D01*
X37262Y12727D02*
Y13199D01*
Y12727D02*
X38010Y11979D01*
X37262Y13514D02*
X37328Y13448D01*
X37619D01*
X37707Y13360D01*
Y13305D02*
Y13360D01*
Y13305D02*
X38915Y12097D01*
X36553Y17058D02*
X37577Y18081D01*
X39151D01*
X32269Y17058D02*
X33403D01*
X31675Y17652D02*
X32269Y17058D01*
X31238Y15404D02*
X32695D01*
X31081Y15562D02*
X31238Y15404D01*
X29742Y12806D02*
X31199Y14262D01*
X29624Y12806D02*
X29742D01*
X9466Y12648D02*
X29466D01*
X29624Y12806D01*
X31081Y13861D02*
X31282Y14062D01*
X31081Y13829D02*
Y13861D01*
X29857Y12606D02*
X31081Y13829D01*
X29707Y12606D02*
X29857D01*
X29549Y12448D02*
X29707Y12606D01*
X27262Y12448D02*
X29549D01*
X23246D02*
X27262D01*
X15529D02*
X23246D01*
X9549D02*
X15529D01*
X29993Y12491D02*
X31364Y13862D01*
X29821Y12491D02*
X29993D01*
X29592D02*
X29821D01*
X29549Y12448D02*
X29592Y12491D01*
X30884Y13099D02*
X31614Y13829D01*
X30884Y13081D02*
Y13099D01*
X30093Y12291D02*
X30884Y13081D01*
X29703Y12291D02*
X30093D01*
X29675D02*
X29703D01*
X29632Y12248D02*
X29675Y12291D01*
X22065Y12248D02*
X29632D01*
X15333D02*
X22065D01*
X9632D02*
X15333D01*
X9363Y11979D02*
X9632Y12248D01*
X8246Y12254D02*
X8325Y12333D01*
X9151D01*
X9466Y12648D01*
X8246Y12054D02*
X8328Y12136D01*
X9237D01*
X9549Y12448D01*
X8325Y11979D02*
X9363D01*
X30884Y12816D02*
X31103Y13036D01*
X30884Y12766D02*
Y12816D01*
Y12412D02*
Y12766D01*
X30451Y11979D02*
X30884Y12412D01*
X30175Y11979D02*
X30451D01*
X31186Y12321D02*
Y12836D01*
X30844Y11979D02*
X31186Y12321D01*
X30817Y11952D02*
X30844Y11979D01*
X30706Y11952D02*
X30817D01*
X31081Y15562D02*
Y15916D01*
X30214Y16782D02*
X31081Y15916D01*
X29860Y16782D02*
X30214D01*
X29624D02*
X29860D01*
X33652Y17124D02*
X33718Y17058D01*
X33652Y17124D02*
Y17503D01*
X33273D02*
X33652D01*
X32591Y18186D02*
X33273Y17503D01*
X32340Y18186D02*
X32591D01*
X33967Y17124D02*
X34033Y17058D01*
X33967Y17124D02*
Y17589D01*
X33370Y18186D02*
X33967Y17589D01*
X32873Y18186D02*
X33370D01*
X34348Y17058D02*
Y17490D01*
X33856Y17982D02*
X34348Y17490D01*
X33653Y18186D02*
X33856Y17982D01*
X34663Y17058D02*
Y18186D01*
X34663Y18186D01*
X34978Y17058D02*
Y18071D01*
X34863Y18186D02*
X34978Y18071D01*
X35293Y17058D02*
X35360Y17124D01*
Y17425D01*
X36120Y18186D01*
X35608Y17058D02*
X35675Y17124D01*
Y17457D01*
X36320Y18103D01*
Y18186D01*
X37148D01*
X37244Y18281D01*
X38246D01*
X35923Y17058D02*
X35990D01*
Y16612D02*
Y17058D01*
Y16612D02*
X36714D01*
X36802Y16700D01*
Y17023D01*
X37600Y17822D01*
X37600Y17822D01*
X37659Y17881D01*
X38797D01*
X36238Y17058D02*
X36270D01*
X36305Y17092D01*
Y17503D01*
X36716D01*
X37198Y17986D01*
X38618Y22139D02*
Y22739D01*
X38418Y22539D01*
X38219Y22739D01*
Y22139D01*
X37919Y22539D02*
X37719D01*
X37619Y22439D01*
Y22139D01*
X37919D01*
X38019Y22239D01*
X37919Y22339D01*
X37619D01*
X37419Y22139D02*
X37219D01*
X37319D01*
Y22539D01*
X37419D01*
X36919Y22139D02*
X36719D01*
X36819D01*
Y22739D01*
X36919D01*
X36419Y22139D02*
X36219D01*
X36319D01*
Y22539D01*
X36419D01*
X35919Y22139D02*
Y22539D01*
X35619D01*
X35519Y22439D01*
Y22139D01*
X35120Y21939D02*
X35020D01*
X34920Y22039D01*
Y22539D01*
X35220D01*
X35319Y22439D01*
Y22239D01*
X35220Y22139D01*
X34920D01*
X34720Y22539D02*
X34620D01*
Y22439D01*
X34720D01*
Y22539D01*
Y22239D02*
X34620D01*
Y22139D01*
X34720D01*
Y22239D01*
X33220Y22139D02*
X33620D01*
X33220Y22539D01*
Y22639D01*
X33320Y22739D01*
X33520D01*
X33620Y22639D01*
X33020D02*
X32920Y22739D01*
X32720D01*
X32620Y22639D01*
Y22239D01*
X32720Y22139D01*
X32920D01*
X33020Y22239D01*
Y22639D01*
X32121Y22139D02*
Y22739D01*
X32420Y22439D01*
X32021D01*
X31221Y22139D02*
Y22739D01*
X30921D01*
X30821Y22639D01*
Y22439D01*
X30921Y22339D01*
X31221D01*
X31021D02*
X30821Y22139D01*
X30521D02*
X30321D01*
X30221Y22239D01*
Y22439D01*
X30321Y22539D01*
X30521D01*
X30621Y22439D01*
Y22239D01*
X30521Y22139D01*
X29821Y21939D02*
X29721D01*
X29621Y22039D01*
Y22539D01*
X29921D01*
X30021Y22439D01*
Y22239D01*
X29921Y22139D01*
X29621D01*
X29121D02*
X29321D01*
X29421Y22239D01*
Y22439D01*
X29321Y22539D01*
X29121D01*
X29022Y22439D01*
Y22339D01*
X29421D01*
X28822Y22539D02*
Y22139D01*
Y22339D01*
X28722Y22439D01*
X28622Y22539D01*
X28522D01*
X28222Y22139D02*
X27922D01*
X27822Y22239D01*
X27922Y22339D01*
X28122D01*
X28222Y22439D01*
X28122Y22539D01*
X27822D01*
X27022Y22739D02*
Y22139D01*
Y22439D01*
X26622D01*
Y22739D01*
Y22139D01*
X26322Y22539D02*
X26122D01*
X26022Y22439D01*
Y22139D01*
X26322D01*
X26422Y22239D01*
X26322Y22339D01*
X26022D01*
X25823Y22139D02*
X25623D01*
X25723D01*
Y22739D01*
X25823D01*
X25323Y22139D02*
X25123D01*
X25223D01*
Y22739D01*
X25323D01*
X38219Y21479D02*
X38319Y21579D01*
X38518D01*
X38618Y21479D01*
Y21080D01*
X38518Y20980D01*
X38319D01*
X38219Y21080D01*
X37919Y20980D02*
X37719D01*
X37619Y21080D01*
Y21279D01*
X37719Y21379D01*
X37919D01*
X38019Y21279D01*
Y21080D01*
X37919Y20980D01*
X37419Y21379D02*
Y20980D01*
Y21180D01*
X37319Y21279D01*
X37219Y21379D01*
X37119D01*
X36819D02*
X36619Y20980D01*
X36419Y21379D01*
X36119D02*
X35919D01*
X35819Y21279D01*
Y20980D01*
X36119D01*
X36219Y21080D01*
X36119Y21180D01*
X35819D01*
X35619Y20980D02*
X35419D01*
X35519D01*
Y21579D01*
X35619D01*
X35120Y20980D02*
X34920D01*
X35020D01*
Y21579D01*
X35120D01*
X34620Y20980D02*
X34420D01*
X34520D01*
Y21379D01*
X34620D01*
X34120Y20980D02*
X33820D01*
X33720Y21080D01*
X33820Y21180D01*
X34020D01*
X34120Y21279D01*
X34020Y21379D01*
X33720D01*
X33420Y20880D02*
X33320Y20980D01*
Y21080D01*
X33420D01*
Y20980D01*
X33320D01*
X33420Y20880D01*
X33520Y20780D01*
X32021Y21579D02*
X32220D01*
X32320Y21479D01*
Y21080D01*
X32220Y20980D01*
X32021D01*
X31921Y21080D01*
Y21479D01*
X32021Y21579D01*
X31721Y20980D02*
Y21579D01*
X31421D01*
X31321Y21479D01*
Y21279D01*
X31421Y21180D01*
X31721D01*
X31521D02*
X31321Y20980D01*
X30521Y21080D02*
X30421Y20980D01*
X30221D01*
X30121Y21080D01*
Y21479D01*
X30221Y21579D01*
X30421D01*
X30521Y21479D01*
Y21379D01*
X30421Y21279D01*
X30121D01*
X29921Y21579D02*
X29521D01*
Y21479D01*
X29921Y21080D01*
Y20980D01*
X29321Y21479D02*
X29221Y21579D01*
X29022D01*
X28922Y21479D01*
Y21379D01*
X29022Y21279D01*
X29121D01*
X29022D01*
X28922Y21180D01*
Y21080D01*
X29022Y20980D01*
X29221D01*
X29321Y21080D01*
X28722Y21479D02*
X28622Y21579D01*
X28422D01*
X28322Y21479D01*
Y21379D01*
X28422Y21279D01*
X28522D01*
X28422D01*
X28322Y21180D01*
Y21080D01*
X28422Y20980D01*
X28622D01*
X28722Y21080D01*
X28122Y20980D02*
X27922D01*
X28022D01*
Y21579D01*
X28122Y21479D01*
X38338Y20207D02*
X38600D01*
Y19814D01*
X38338D01*
X38600Y20010D02*
X38469D01*
X38207Y19814D02*
Y20076D01*
X38141D01*
X38076Y20010D01*
Y19814D01*
Y20010D01*
X38010Y20076D01*
X37944Y20010D01*
Y19814D01*
X37748Y20076D02*
X37616D01*
X37551Y20010D01*
Y19814D01*
X37748D01*
X37813Y19879D01*
X37748Y19945D01*
X37551D01*
X37420Y19814D02*
X37288D01*
X37354D01*
Y20076D01*
X37420D01*
X37092Y19814D02*
X36960D01*
X37026D01*
Y20207D01*
X37092D01*
X36764Y20076D02*
X36698D01*
Y20010D01*
X36764D01*
Y20076D01*
Y19879D02*
X36698D01*
Y19814D01*
X36764D01*
Y19879D01*
X35976Y19814D02*
X35845D01*
X35780Y19879D01*
Y20010D01*
X35845Y20076D01*
X35976D01*
X36042Y20010D01*
Y19879D01*
X35976Y19814D01*
X35648D02*
X35452D01*
X35386Y19879D01*
X35452Y19945D01*
X35583D01*
X35648Y20010D01*
X35583Y20076D01*
X35386D01*
X35255D02*
Y19879D01*
X35189Y19814D01*
X34993D01*
Y20076D01*
X34861D02*
Y19814D01*
Y19945D01*
X34796Y20010D01*
X34730Y20076D01*
X34665D01*
X34205D02*
X34402D01*
X34468Y20010D01*
Y19879D01*
X34402Y19814D01*
X34205D01*
X34009D02*
X33877D01*
X33812Y19879D01*
Y20010D01*
X33877Y20076D01*
X34009D01*
X34074Y20010D01*
Y19879D01*
X34009Y19814D01*
X33615D02*
Y20141D01*
Y20010D01*
X33681D01*
X33549D01*
X33615D01*
Y20141D01*
X33549Y20207D01*
X33287Y19814D02*
Y20141D01*
Y20010D01*
X33353D01*
X33221D01*
X33287D01*
Y20141D01*
X33221Y20207D01*
X33025Y19814D02*
X32893D01*
X32959D01*
Y20076D01*
X33025D01*
X32434D02*
X32631D01*
X32697Y20010D01*
Y19879D01*
X32631Y19814D01*
X32434D01*
X32106D02*
X32238D01*
X32303Y19879D01*
Y20010D01*
X32238Y20076D01*
X32106D01*
X32041Y20010D01*
Y19945D01*
X32303D01*
X31910Y20076D02*
Y19814D01*
Y19945D01*
X31844Y20010D01*
X31778Y20076D01*
X31713D01*
X31516Y19814D02*
X31319D01*
X31254Y19879D01*
X31319Y19945D01*
X31450D01*
X31516Y20010D01*
X31450Y20076D01*
X31254D01*
X30926Y19945D02*
Y20010D01*
X30991D01*
Y19945D01*
X30926D01*
X30860Y20010D01*
Y20141D01*
X30926Y20207D01*
X31057D01*
X31122Y20141D01*
Y19879D01*
X31057Y19814D01*
X30860D01*
X30532D02*
X30663D01*
X30729Y19879D01*
Y20010D01*
X30663Y20076D01*
X30532D01*
X30466Y20010D01*
Y19945D01*
X30729D01*
X30335Y19814D02*
Y20076D01*
X30138D01*
X30073Y20010D01*
Y19814D01*
X29810Y19682D02*
X29745D01*
X29679Y19748D01*
Y20076D01*
X29876D01*
X29942Y20010D01*
Y19879D01*
X29876Y19814D01*
X29679D01*
X29548Y20076D02*
Y19814D01*
Y19945D01*
X29483Y20010D01*
X29417Y20076D01*
X29351D01*
X29155Y19814D02*
Y19879D01*
X29089D01*
Y19814D01*
X29155D01*
X28761D02*
X28630D01*
X28564Y19879D01*
Y20010D01*
X28630Y20076D01*
X28761D01*
X28827Y20010D01*
Y19879D01*
X28761Y19814D01*
X28433Y20076D02*
Y19814D01*
Y19945D01*
X28367Y20010D01*
X28302Y20076D01*
X28236D01*
X27843Y19814D02*
X27974D01*
X28039Y19879D01*
Y20010D01*
X27974Y20076D01*
X27843D01*
X27777Y20010D01*
Y19945D01*
X28039D01*
X27515Y19682D02*
X27449D01*
X27383Y19748D01*
Y20076D01*
X27580D01*
X27646Y20010D01*
Y19879D01*
X27580Y19814D01*
X27383D01*
X27187D02*
X27055D01*
X26990Y19879D01*
Y20010D01*
X27055Y20076D01*
X27187D01*
X27252Y20010D01*
Y19879D01*
X27187Y19814D01*
X26859D02*
Y20076D01*
X26662D01*
X26596Y20010D01*
Y19814D01*
X26465D02*
X26268D01*
X26203Y19879D01*
X26268Y19945D01*
X26400D01*
X26465Y20010D01*
X26400Y20076D01*
X26203D01*
X26006Y20141D02*
Y20076D01*
X26072D01*
X25940D01*
X26006D01*
Y19879D01*
X25940Y19814D01*
X25678Y20076D02*
X25547D01*
X25481Y20010D01*
Y19814D01*
X25678D01*
X25744Y19879D01*
X25678Y19945D01*
X25481D01*
X25284Y20141D02*
Y20076D01*
X25350D01*
X25219D01*
X25284D01*
Y19879D01*
X25219Y19814D01*
X24825D02*
X24956D01*
X25022Y19879D01*
Y20010D01*
X24956Y20076D01*
X24825D01*
X24760Y20010D01*
Y19945D01*
X25022D01*
X24628Y19814D02*
Y19879D01*
X24563D01*
Y19814D01*
X24628D01*
X24104D02*
X24235D01*
X24300Y19879D01*
Y20010D01*
X24235Y20076D01*
X24104D01*
X24038Y20010D01*
Y19945D01*
X24300D01*
X23644Y20207D02*
Y19814D01*
X23841D01*
X23907Y19879D01*
Y20010D01*
X23841Y20076D01*
X23644D01*
X23513D02*
Y19879D01*
X23448Y19814D01*
X23251D01*
Y20076D01*
X36986Y18436D02*
Y19035D01*
X36786Y18835D01*
X36586Y19035D01*
Y18436D01*
X36286Y18835D02*
X36086D01*
X35986Y18735D01*
Y18436D01*
X36286D01*
X36386Y18536D01*
X36286Y18635D01*
X35986D01*
X35787Y18436D02*
Y19035D01*
Y18635D02*
X35487Y18835D01*
X35787Y18635D02*
X35487Y18436D01*
X34887D02*
X35087D01*
X35187Y18536D01*
Y18735D01*
X35087Y18835D01*
X34887D01*
X34787Y18735D01*
Y18635D01*
X35187D01*
X33987Y18436D02*
Y19035D01*
X33787Y18835D01*
X33587Y19035D01*
Y18436D01*
X33287D02*
X33087D01*
X32987Y18536D01*
Y18735D01*
X33087Y18835D01*
X33287D01*
X33387Y18735D01*
Y18536D01*
X33287Y18436D01*
X32787Y18835D02*
Y18436D01*
Y18635D01*
X32688Y18735D01*
X32588Y18835D01*
X32488D01*
X31888Y18436D02*
X32088D01*
X32188Y18536D01*
Y18735D01*
X32088Y18835D01*
X31888D01*
X31788Y18735D01*
Y18635D01*
X32188D01*
X30988Y18436D02*
Y19035D01*
X30688D01*
X30588Y18935D01*
Y18735D01*
X30688Y18635D01*
X30988D01*
X30788D02*
X30588Y18436D01*
X30288D02*
X30088D01*
X29988Y18536D01*
Y18735D01*
X30088Y18835D01*
X30288D01*
X30388Y18735D01*
Y18536D01*
X30288Y18436D01*
X29788Y19035D02*
Y18436D01*
X29489D01*
X29389Y18536D01*
Y18635D01*
Y18735D01*
X29489Y18835D01*
X29788D01*
X29089Y18436D02*
X28889D01*
X28789Y18536D01*
Y18735D01*
X28889Y18835D01*
X29089D01*
X29189Y18735D01*
Y18536D01*
X29089Y18436D01*
X28489Y18935D02*
Y18835D01*
X28589D01*
X28389D01*
X28489D01*
Y18536D01*
X28389Y18436D01*
X28089Y18635D02*
Y19135D01*
Y18536D02*
Y18436D01*
D44*
X27607Y23144D02*
X27637D01*
X27667D02*
X27697D01*
X28664D02*
X28694D01*
X28724D02*
X28754D01*
X29600D02*
X29630D01*
X29691D02*
X29721D01*
X29751D02*
X29781D01*
X30264D02*
X30295D01*
X30778D02*
X30808D01*
X30838D02*
X30868D01*
X30899D02*
X30929D01*
X31291D02*
X31321D01*
X31352D02*
X31382D01*
X31412D02*
X31442D01*
X32288D02*
X32318D01*
X32348D02*
X32378D01*
X33133D02*
X33164D01*
X33194D02*
X33224D01*
X33919D02*
X33949D01*
X33979D02*
X34009D01*
X34855D02*
X34885D01*
X34915D02*
X34945D01*
X36304D02*
X36335D01*
X36365D02*
X36395D01*
X36455D02*
X36486D01*
X37271D02*
X37301D01*
X37331D02*
X37361D01*
X37422D02*
X37452D01*
X38116D02*
X38147D01*
X38207D02*
X38237D01*
X38267D02*
X38298D01*
X27516Y23174D02*
X27788D01*
X27879D02*
X28060D01*
X28241D02*
X28452D01*
X28573D02*
X28815D01*
X29117D02*
X29328D01*
X29509D02*
X29842D01*
X30204D02*
X30385D01*
X30657D02*
X31050D01*
X31170D02*
X31533D01*
X31865D02*
X31956D01*
X31986D02*
X32107D01*
X32197D02*
X32469D01*
X32952D02*
X33315D01*
X33828D02*
X34100D01*
X34160D02*
X34372D01*
X34734D02*
X35066D01*
X35549D02*
X35791D01*
X36184D02*
X36576D01*
X37150D02*
X37573D01*
X38026D02*
X38418D01*
X27486Y23204D02*
X27818D01*
X27848D02*
X28090D01*
X28271D02*
X28483D01*
X28513D02*
X28875D01*
X29117D02*
X29328D01*
X29479D02*
X29902D01*
X30174D02*
X30415D01*
X30597D02*
X31080D01*
X31140D02*
X31563D01*
X31865D02*
X32076D01*
X32227D02*
X32529D01*
X32922D02*
X33405D01*
X33768D02*
X34100D01*
X34130D02*
X34341D01*
X34674D02*
X35127D01*
X35580D02*
X35791D01*
X36153D02*
X36667D01*
X37059D02*
X37633D01*
X37965D02*
X38479D01*
X27426Y23234D02*
X28060D01*
X28271D02*
X28483D01*
X28513D02*
X28905D01*
X29117D02*
X29328D01*
X29479D02*
X29932D01*
X30174D02*
X30415D01*
X30566D02*
X31050D01*
X31140D02*
X31623D01*
X31865D02*
X32107D01*
X32197D02*
X32560D01*
X32892D02*
X33435D01*
X33737D02*
X34130D01*
X34160D02*
X34372D01*
X34613D02*
X35187D01*
X35580D02*
X35791D01*
X36123D02*
X36697D01*
X37029D02*
X37603D01*
X37935D02*
X38539D01*
X27395Y23265D02*
X28060D01*
X28241D02*
X28905D01*
X29117D02*
X29328D01*
X29449D02*
X29993D01*
X30144D02*
X30415D01*
X30536D02*
X31050D01*
X31140D02*
X31654D01*
X31865D02*
X32076D01*
X32197D02*
X32560D01*
X32862D02*
X33466D01*
X33707D02*
X34372D01*
X34583D02*
X35187D01*
X35580D02*
X35791D01*
X36063D02*
X36727D01*
X36999D02*
X37633D01*
X37905D02*
X38569D01*
X27395Y23295D02*
X27728D01*
X27758D02*
X28090D01*
X28271D02*
X28905D01*
X29117D02*
X29328D01*
X29479D02*
X29630D01*
X29660D02*
X29993D01*
X30174D02*
X30415D01*
X30536D02*
X30778D01*
X30899D02*
X30929D01*
X30959D02*
X31050D01*
X31140D02*
X31321D01*
X31352D02*
X31684D01*
X31865D02*
X32076D01*
X32227D02*
X32560D01*
X32831D02*
X33496D01*
X33677D02*
X34372D01*
X34583D02*
X34885D01*
X34915D02*
X35217D01*
X35580D02*
X35791D01*
X36063D02*
X36727D01*
X36969D02*
X37633D01*
X37845D02*
X38600D01*
X27365Y23325D02*
X27637D01*
X27788D02*
X28060D01*
X28241D02*
X28543D01*
X28694D02*
X28936D01*
X29087D02*
X29328D01*
X29479D02*
X29509D01*
X29751D02*
X30023D01*
X30204D02*
X30385D01*
X30506D02*
X30748D01*
X31140D02*
X31170D01*
X31442D02*
X31684D01*
X31865D02*
X32107D01*
X32348D02*
X32590D01*
X32801D02*
X33043D01*
X33254D02*
X33496D01*
X33677D02*
X33919D01*
X34100D02*
X34372D01*
X34553D02*
X34794D01*
X35006D02*
X35247D01*
X35580D02*
X35791D01*
X36033D02*
X36365D01*
X36455D02*
X36757D01*
X36969D02*
X37241D01*
X37482D02*
X37633D01*
X37845D02*
X38177D01*
X38267D02*
X38630D01*
X27365Y23355D02*
X27607D01*
X27818D02*
X28090D01*
X28271D02*
X28483D01*
X28694D02*
X28936D01*
X29117D02*
X29328D01*
X29781D02*
X30023D01*
X30234D02*
X30295D01*
X30536D02*
X30717D01*
X31442D02*
X31714D01*
X31865D02*
X32076D01*
X32348D02*
X32560D01*
X32801D02*
X33043D01*
X33284D02*
X33496D01*
X33647D02*
X33888D01*
X34130D02*
X34372D01*
X34553D02*
X34764D01*
X35006D02*
X35247D01*
X35549D02*
X35791D01*
X36033D02*
X36274D01*
X36486D02*
X36788D01*
X36969D02*
X37210D01*
X37573D02*
X37633D01*
X37814D02*
X38086D01*
X38358D02*
X38630D01*
X27365Y23385D02*
X27577D01*
X27848D02*
X28060D01*
X28241D02*
X28483D01*
X28724D02*
X28936D01*
X29117D02*
X29328D01*
X29811D02*
X30053D01*
X30506D02*
X30778D01*
X31472D02*
X31714D01*
X31865D02*
X32107D01*
X32348D02*
X32590D01*
X32801D02*
X33013D01*
X33284D02*
X33526D01*
X33647D02*
X33888D01*
X34160D02*
X34372D01*
X34523D02*
X34764D01*
X35036D02*
X35278D01*
X35580D02*
X35791D01*
X36002D02*
X36244D01*
X36546D02*
X36788D01*
X36939D02*
X37210D01*
X37814D02*
X38086D01*
X38388D02*
X38660D01*
X27335Y23416D02*
X27577D01*
X27848D02*
X28060D01*
X28271D02*
X28483D01*
X28724D02*
X28936D01*
X29117D02*
X29328D01*
X29811D02*
X30053D01*
X30536D02*
X30808D01*
X31503D02*
X31714D01*
X31865D02*
X32076D01*
X32348D02*
X32590D01*
X32801D02*
X33013D01*
X33315D02*
X33526D01*
X33647D02*
X33858D01*
X34160D02*
X34372D01*
X34523D02*
X34734D01*
X35066D02*
X35278D01*
X35580D02*
X35791D01*
X36002D02*
X36244D01*
X36546D02*
X36788D01*
X36969D02*
X37180D01*
X37784D02*
X38026D01*
X38418D02*
X38660D01*
X27335Y23446D02*
X27546D01*
X27848D02*
X28090D01*
X28241D02*
X28483D01*
X28724D02*
X28936D01*
X29117D02*
X29328D01*
X29842D02*
X30053D01*
X30536D02*
X30929D01*
X31503D02*
X31744D01*
X31865D02*
X32107D01*
X32378D02*
X32590D01*
X32771D02*
X32982D01*
X33315D02*
X33526D01*
X33617D02*
X33858D01*
X34160D02*
X34372D01*
X34492D02*
X34734D01*
X35036D02*
X35278D01*
X35580D02*
X35791D01*
X36002D02*
X36214D01*
X36576D02*
X36788D01*
X36939D02*
X37180D01*
X37784D02*
X38026D01*
X38449D02*
X38690D01*
X27335Y23476D02*
X27577D01*
X27879D02*
X28060D01*
X28241D02*
X28452D01*
X28724D02*
X28936D01*
X29117D02*
X29328D01*
X29842D02*
X30053D01*
X30536D02*
X30989D01*
X31503D02*
X31714D01*
X31865D02*
X32076D01*
X32378D02*
X32560D01*
X32771D02*
X32982D01*
X33315D02*
X33556D01*
X33647D02*
X33858D01*
X34160D02*
X34372D01*
X34523D02*
X34734D01*
X35036D02*
X35278D01*
X35580D02*
X35821D01*
X35972D02*
X36214D01*
X36576D02*
X36788D01*
X36969D02*
X37241D01*
X37754D02*
X37996D01*
X38449D02*
X38690D01*
X27335Y23506D02*
X27546D01*
X27848D02*
X28090D01*
X28271D02*
X28483D01*
X28724D02*
X28936D01*
X29087D02*
X29328D01*
X29811D02*
X30053D01*
X30597D02*
X31019D01*
X31503D02*
X31744D01*
X31865D02*
X32107D01*
X32348D02*
X32590D01*
X32771D02*
X33013D01*
X33315D02*
X33526D01*
X33647D02*
X33858D01*
X34160D02*
X34372D01*
X34523D02*
X34764D01*
X35066D02*
X35278D01*
X35580D02*
X35791D01*
X36002D02*
X36214D01*
X36576D02*
X36818D01*
X36969D02*
X37271D01*
X37754D02*
X37996D01*
X38449D02*
X38720D01*
X27335Y23536D02*
X27546D01*
X27848D02*
X28060D01*
X28271D02*
X28483D01*
X28724D02*
X28936D01*
X29117D02*
X29328D01*
X29842D02*
X30053D01*
X30657D02*
X31050D01*
X31503D02*
X31714D01*
X31865D02*
X32107D01*
X32348D02*
X32590D01*
X32771D02*
X33013D01*
X33315D02*
X33526D01*
X33617D02*
X33858D01*
X34160D02*
X34372D01*
X34492D02*
X34734D01*
X35036D02*
X35278D01*
X35580D02*
X35791D01*
X36002D02*
X36214D01*
X36576D02*
X36818D01*
X36969D02*
X37331D01*
X37754D02*
X37996D01*
X38449D02*
X38690D01*
X27335Y23567D02*
X27577D01*
X27848D02*
X28090D01*
X28241D02*
X28483D01*
X28724D02*
X28936D01*
X29117D02*
X29328D01*
X29811D02*
X30053D01*
X30717D02*
X31050D01*
X31503D02*
X31714D01*
X31865D02*
X32076D01*
X32378D02*
X32560D01*
X32771D02*
X32982D01*
X33315D02*
X33526D01*
X33647D02*
X33858D01*
X34160D02*
X34372D01*
X34523D02*
X34734D01*
X35066D02*
X35278D01*
X35580D02*
X35791D01*
X35972D02*
X36214D01*
X36576D02*
X36788D01*
X36999D02*
X37452D01*
X37754D02*
X37965D01*
X38479D02*
X38720D01*
X27365Y23597D02*
X27577D01*
X27848D02*
X28060D01*
X28271D02*
X28452D01*
X28724D02*
X28936D01*
X29117D02*
X29328D01*
X29811D02*
X30023D01*
X30808D02*
X31050D01*
X31472D02*
X31714D01*
X31865D02*
X32107D01*
X32378D02*
X32590D01*
X32771D02*
X33013D01*
X33284D02*
X33526D01*
X33647D02*
X33888D01*
X34130D02*
X34372D01*
X34523D02*
X34764D01*
X35036D02*
X35278D01*
X35549D02*
X35791D01*
X35972D02*
X36214D01*
X36576D02*
X36818D01*
X37029D02*
X37452D01*
X37724D02*
X37996D01*
X38479D02*
X38690D01*
X27335Y23627D02*
X27577D01*
X27818D02*
X28060D01*
X28241D02*
X28483D01*
X28724D02*
X28936D01*
X29117D02*
X29328D01*
X29781D02*
X30023D01*
X30838D02*
X31050D01*
X31472D02*
X31714D01*
X31865D02*
X32076D01*
X32348D02*
X32590D01*
X32801D02*
X33013D01*
X33284D02*
X33526D01*
X33647D02*
X33888D01*
X34130D02*
X34372D01*
X34523D02*
X34764D01*
X35036D02*
X35247D01*
X35519D02*
X35791D01*
X36002D02*
X36214D01*
X36576D02*
X36788D01*
X37059D02*
X37512D01*
X37754D02*
X37965D01*
X38479D02*
X38720D01*
X27365Y23657D02*
X27637D01*
X27818D02*
X28060D01*
X28271D02*
X28483D01*
X28724D02*
X28936D01*
X29117D02*
X29328D01*
X29479D02*
X29509D01*
X29751D02*
X30023D01*
X30838D02*
X31050D01*
X31140D02*
X31170D01*
X31412D02*
X31684D01*
X31865D02*
X32107D01*
X32378D02*
X32590D01*
X32801D02*
X33043D01*
X33224D02*
X33496D01*
X33647D02*
X33919D01*
X34100D02*
X34372D01*
X34553D02*
X34794D01*
X35006D02*
X35247D01*
X35459D02*
X35821D01*
X36002D02*
X36214D01*
X36576D02*
X36788D01*
X37090D02*
X37543D01*
X37724D02*
X37996D01*
X38479D02*
X38720D01*
X27365Y23687D02*
X27667D01*
X27697D02*
X28060D01*
X28241D02*
X28483D01*
X28724D02*
X28936D01*
X29117D02*
X29328D01*
X29479D02*
X29600D01*
X29630D02*
X29993D01*
X30566D02*
X30627D01*
X30808D02*
X31050D01*
X31170D02*
X31291D01*
X31321D02*
X31684D01*
X31865D02*
X32076D01*
X32227D02*
X32680D01*
X32831D02*
X33103D01*
X33133D02*
X33164D01*
X33194D02*
X33496D01*
X33677D02*
X33979D01*
X34009D02*
X34372D01*
X34553D02*
X34885D01*
X34915D02*
X35217D01*
X35338D02*
X35791D01*
X35972D02*
X36214D01*
X36576D02*
X36818D01*
X37180D02*
X37603D01*
X37754D02*
X37965D01*
X38479D02*
X38720D01*
X27395Y23718D02*
X28060D01*
X28241D02*
X28452D01*
X28724D02*
X28936D01*
X29117D02*
X29328D01*
X29479D02*
X29962D01*
X30566D02*
X31050D01*
X31140D02*
X31654D01*
X31865D02*
X32107D01*
X32197D02*
X32680D01*
X32831D02*
X33466D01*
X33677D02*
X34372D01*
X34583D02*
X35187D01*
X35338D02*
X35791D01*
X36002D02*
X36214D01*
X36576D02*
X36818D01*
X37241D02*
X37603D01*
X37754D02*
X37996D01*
X38479D02*
X38690D01*
X27395Y23748D02*
X28090D01*
X28271D02*
X28483D01*
X28724D02*
X28936D01*
X29117D02*
X29328D01*
X29479D02*
X29932D01*
X30566D02*
X31019D01*
X31140D02*
X31593D01*
X31865D02*
X32076D01*
X32197D02*
X32711D01*
X32862D02*
X33435D01*
X33707D02*
X34130D01*
X34160D02*
X34372D01*
X34613D02*
X35187D01*
X35338D02*
X35549D01*
X35580D02*
X35791D01*
X35972D02*
X36214D01*
X36576D02*
X36788D01*
X37301D02*
X37603D01*
X37754D02*
X37996D01*
X38449D02*
X38690D01*
X27426Y23778D02*
X27818D01*
X27848D02*
X28060D01*
X28241D02*
X28483D01*
X28724D02*
X28936D01*
X29117D02*
X29328D01*
X29449D02*
X29902D01*
X30566D02*
X30989D01*
X31170D02*
X31563D01*
X31865D02*
X32076D01*
X32197D02*
X32680D01*
X32922D02*
X33405D01*
X33737D02*
X34100D01*
X34160D02*
X34372D01*
X34643D02*
X35127D01*
X35338D02*
X35549D01*
X35580D02*
X35791D01*
X36002D02*
X36214D01*
X36576D02*
X36818D01*
X37361D02*
X37633D01*
X37754D02*
X37996D01*
X38449D02*
X38690D01*
X27486Y23808D02*
X27758D01*
X27848D02*
X28090D01*
X28271D02*
X28483D01*
X28724D02*
X28936D01*
X29087D02*
X29328D01*
X29479D02*
X29842D01*
X30536D02*
X30929D01*
X31140D02*
X31533D01*
X31865D02*
X32107D01*
X32227D02*
X32711D01*
X32982D02*
X33315D01*
X33768D02*
X34070D01*
X34160D02*
X34372D01*
X34704D02*
X35096D01*
X35338D02*
X35489D01*
X35580D02*
X35791D01*
X35972D02*
X36214D01*
X36576D02*
X36788D01*
X37392D02*
X37633D01*
X37784D02*
X38026D01*
X38418D02*
X38660D01*
X27577Y23838D02*
X27667D01*
X27848D02*
X28060D01*
X29117D02*
X29328D01*
X29570D02*
X29691D01*
X30657D02*
X30778D01*
X30838D02*
X30868D01*
X31261D02*
X31352D01*
X31382D02*
X31412D01*
X32348D02*
X32590D01*
X33073D02*
X33133D01*
X33164D02*
X33224D01*
X33858D02*
X33919D01*
X33949D02*
X33979D01*
X34160D02*
X34372D01*
X34825D02*
X34915D01*
X35368D02*
X35429D01*
X36002D02*
X36214D01*
X36606D02*
X36818D01*
X37392D02*
X37633D01*
X37784D02*
X38056D01*
X38418D02*
X38660D01*
X27879Y23869D02*
X28090D01*
X29117D02*
X29328D01*
X32378D02*
X32590D01*
X34130D02*
X34372D01*
X35972D02*
X36214D01*
X36576D02*
X36788D01*
X37392D02*
X37603D01*
X37784D02*
X38056D01*
X38388D02*
X38660D01*
X27848Y23899D02*
X28090D01*
X29117D02*
X29328D01*
X32378D02*
X32590D01*
X34160D02*
X34372D01*
X36002D02*
X36214D01*
X36576D02*
X36788D01*
X36999D02*
X37029D01*
X37361D02*
X37633D01*
X37814D02*
X38116D01*
X38328D02*
X38630D01*
X27848Y23929D02*
X28060D01*
X29117D02*
X29328D01*
X31925D02*
X32016D01*
X32348D02*
X32590D01*
X34160D02*
X34372D01*
X35972D02*
X36214D01*
X36576D02*
X36818D01*
X36999D02*
X37120D01*
X37210D02*
X37241D01*
X37301D02*
X37603D01*
X37845D02*
X38177D01*
X38207D02*
X38600D01*
X27848Y23959D02*
X28060D01*
X29117D02*
X29328D01*
X31895D02*
X32076D01*
X32378D02*
X32560D01*
X34160D02*
X34372D01*
X35972D02*
X36214D01*
X36576D02*
X36788D01*
X36999D02*
X37603D01*
X37875D02*
X38600D01*
X27848Y23989D02*
X28090D01*
X29087D02*
X29328D01*
X31865D02*
X32107D01*
X32348D02*
X32499D01*
X34160D02*
X34372D01*
X36002D02*
X36214D01*
X36576D02*
X36818D01*
X36999D02*
X37573D01*
X37875D02*
X38539D01*
X27879Y24020D02*
X28060D01*
X29117D02*
X29328D01*
X31865D02*
X32107D01*
X34160D02*
X34372D01*
X35972D02*
X36214D01*
X36606D02*
X36788D01*
X36999D02*
X37543D01*
X37935D02*
X38509D01*
X27848Y24050D02*
X28060D01*
X29117D02*
X29328D01*
X31865D02*
X32107D01*
X34130D02*
X34372D01*
X36002D02*
X36214D01*
X36576D02*
X36818D01*
X36999D02*
X37512D01*
X37965D02*
X38479D01*
X27848Y24080D02*
X28090D01*
X29117D02*
X29328D01*
X31865D02*
X32076D01*
X34160D02*
X34372D01*
X36002D02*
X36093D01*
X36123D02*
X36214D01*
X36576D02*
X36788D01*
X37029D02*
X37392D01*
X38056D02*
X38358D01*
X27848Y24110D02*
X28060D01*
X29117D02*
X29328D01*
X31895D02*
X32076D01*
X34160D02*
X34372D01*
X37210D02*
X37241D01*
X37271D02*
X37301D01*
X38177D02*
X38207D01*
X38237D02*
X38267D01*
X27848Y24140D02*
X27879D01*
X27909D02*
X27939D01*
X27999D02*
X28030D01*
X29147D02*
X29177D01*
X29207D02*
X29238D01*
X29268D02*
X29298D01*
X31956D02*
X31986D01*
X34160D02*
X34190D01*
X34221D02*
X34251D01*
X34281D02*
X34311D01*
X26882Y24382D02*
X26912D01*
X26942D02*
X26973D01*
X27003D02*
X27033D01*
X27063D02*
X27093D01*
X27154D02*
X27184D01*
X27214D02*
X27244D01*
X27305D02*
X27335D01*
X27395D02*
X27426D01*
X27486D02*
X27516D01*
X27577D02*
X27637D01*
X27667D02*
X27697D01*
X27728D02*
X27758D01*
X27788D02*
X27818D01*
X28181D02*
X28211D01*
X28392D02*
X28422D01*
X28513D02*
X28543D01*
X28603D02*
X28634D01*
X28664D02*
X28694D01*
X28754D02*
X28785D01*
X28845D02*
X28875D01*
X28936D02*
X28966D01*
X29026D02*
X29087D01*
X29117D02*
X29147D01*
X29177D02*
X29207D01*
X29238D02*
X29268D01*
X29328D02*
X29358D01*
X29389D02*
X29419D01*
X29479D02*
X29509D01*
X29570D02*
X29600D01*
X29660D02*
X29691D01*
X30778D02*
X30808D01*
X30838D02*
X30868D01*
X30929D02*
X30959D01*
X31019D02*
X31050D01*
X31110D02*
X31140D01*
X31201D02*
X31261D01*
X31291D02*
X31321D01*
X32831D02*
X32862D01*
X32922D02*
X32952D01*
X32982D02*
X33013D01*
X33103D02*
X33133D01*
X35308D02*
X35338D01*
X35368D02*
X35398D01*
X35459D02*
X35489D01*
X35549D02*
X35610D01*
X35640D02*
X35670D01*
X35700D02*
X35731D01*
X35761D02*
X35791D01*
X35851D02*
X35882D01*
X35912D02*
X35942D01*
X36002D02*
X36033D01*
X36093D02*
X36123D01*
X36153D02*
X36184D01*
X36274D02*
X36335D01*
X36365D02*
X36395D01*
X36425D02*
X36455D01*
X36486D02*
X36516D01*
X36576D02*
X36606D01*
X36637D02*
X36667D01*
X36697D02*
X36727D01*
X36757D02*
X36788D01*
X36818D02*
X36878D01*
X36908D02*
X36939D01*
X36969D02*
X36999D01*
X37029D02*
X37059D01*
X37090D02*
X37120D01*
X37150D02*
X37180D01*
X37210D02*
X37241D01*
X37271D02*
X37301D01*
X37331D02*
X37361D01*
X37694D02*
X37724D01*
X37784D02*
X37814D01*
X37845D02*
X37875D01*
X26882Y24412D02*
X28060D01*
X28241D02*
X29691D01*
X30748D02*
X31412D01*
X32590D02*
X33224D01*
X33254D02*
X33284D01*
X35066D02*
X37241D01*
X37392D02*
X37422D01*
X37452D02*
X38056D01*
X38086D02*
X38116D01*
X26852Y24442D02*
X28150D01*
X28181D02*
X28211D01*
X28362D02*
X29721D01*
X30748D02*
X31412D01*
X32469D02*
X33435D01*
X34915D02*
X37120D01*
X37271D02*
X37301D01*
X37331D02*
X38207D01*
X26882Y24473D02*
X28301D01*
X28452D02*
X29751D01*
X30717D02*
X31382D01*
X32378D02*
X33496D01*
X34825D02*
X37059D01*
X37180D02*
X38328D01*
X26852Y24503D02*
X28392D01*
X28513D02*
X29751D01*
X30748D02*
X31412D01*
X32288D02*
X33586D01*
X34734D02*
X36969D01*
X37120D02*
X38358D01*
X26882Y24533D02*
X28452D01*
X28573D02*
X29781D01*
X30748D02*
X31412D01*
X32258D02*
X33617D01*
X34674D02*
X36939D01*
X37059D02*
X38449D01*
X26852Y24563D02*
X28513D01*
X28634D02*
X29811D01*
X30717D02*
X31382D01*
X32197D02*
X33677D01*
X34613D02*
X36878D01*
X36969D02*
X38509D01*
X26882Y24593D02*
X28573D01*
X28664D02*
X29811D01*
X30748D02*
X31412D01*
X32137D02*
X33737D01*
X34583D02*
X36848D01*
X36969D02*
X38569D01*
X26882Y24624D02*
X28603D01*
X28724D02*
X29842D01*
X30748D02*
X31412D01*
X32107D02*
X33768D01*
X34523D02*
X36788D01*
X36878D02*
X38600D01*
X26852Y24654D02*
X28664D01*
X28724D02*
X29842D01*
X30748D02*
X31382D01*
X32076D02*
X33798D01*
X34492D02*
X36757D01*
X36848D02*
X38660D01*
X26882Y24684D02*
X28694D01*
X28785D02*
X29872D01*
X30717D02*
X31412D01*
X32016D02*
X33858D01*
X34462D02*
X36727D01*
X36818D02*
X38690D01*
X26852Y24714D02*
X28724D01*
X28815D02*
X29902D01*
X30748D02*
X31412D01*
X31986D02*
X33858D01*
X34432D02*
X36697D01*
X36788D02*
X38720D01*
X26882Y24744D02*
X28785D01*
X28845D02*
X29902D01*
X30717D02*
X31412D01*
X31986D02*
X33919D01*
X34402D02*
X36667D01*
X36727D02*
X38751D01*
X26852Y24775D02*
X28785D01*
X28875D02*
X29932D01*
X30748D02*
X31382D01*
X31956D02*
X33919D01*
X34402D02*
X36606D01*
X36727D02*
X38811D01*
X26882Y24805D02*
X28815D01*
X28905D02*
X29962D01*
X30748D02*
X31382D01*
X31925D02*
X33949D01*
X34372D02*
X36606D01*
X36667D02*
X38811D01*
X26852Y24835D02*
X28845D01*
X28936D02*
X29962D01*
X30717D02*
X31412D01*
X31895D02*
X33949D01*
X34341D02*
X36576D01*
X36667D02*
X38841D01*
X26882Y24865D02*
X28875D01*
X28966D02*
X29993D01*
X30748D02*
X31382D01*
X31895D02*
X33979D01*
X34341D02*
X36516D01*
X36606D02*
X38871D01*
X26852Y24895D02*
X28905D01*
X28996D02*
X29993D01*
X30748D02*
X31412D01*
X31865D02*
X34009D01*
X34311D02*
X35247D01*
X36606D02*
X38902D01*
X26912Y24926D02*
X26973D01*
X27033D02*
X27063D01*
X27093D02*
X27124D01*
X27154D02*
X27184D01*
X27214D02*
X27244D01*
X27275D02*
X27305D01*
X27335D02*
X27395D01*
X27456D02*
X27486D01*
X27516D02*
X27577D01*
X27637D02*
X27697D01*
X27728D02*
X28936D01*
X29026D02*
X29056D01*
X29087D02*
X29117D01*
X29147D02*
X29177D01*
X29207D02*
X29238D01*
X29268D02*
X30023D01*
X30717D02*
X31412D01*
X31835D02*
X32801D01*
X32831D02*
X32892D01*
X32922D02*
X32952D01*
X33013D02*
X34009D01*
X34311D02*
X35157D01*
X36576D02*
X37663D01*
X37694D02*
X37724D01*
X37784D02*
X37845D01*
X37875D02*
X38932D01*
X27879Y24956D02*
X28936D01*
X29298D02*
X30053D01*
X30748D02*
X31382D01*
X31835D02*
X32711D01*
X33133D02*
X34039D01*
X34311D02*
X35096D01*
X36546D02*
X37512D01*
X37965D02*
X38932D01*
X27939Y24986D02*
X28966D01*
X29328D02*
X30053D01*
X30748D02*
X31412D01*
X31835D02*
X32620D01*
X33224D02*
X34039D01*
X34281D02*
X35036D01*
X36546D02*
X37422D01*
X38056D02*
X38962D01*
X27999Y25016D02*
X28996D01*
X29328D02*
X30083D01*
X30748D02*
X31412D01*
X31805D02*
X32590D01*
X33254D02*
X34039D01*
X34281D02*
X35006D01*
X36516D02*
X37361D01*
X38116D02*
X38992D01*
X28090Y25046D02*
X28996D01*
X29358D02*
X30113D01*
X30717D02*
X31382D01*
X31805D02*
X32529D01*
X33315D02*
X34070D01*
X34281D02*
X35006D01*
X36486D02*
X37331D01*
X38147D02*
X38992D01*
X28120Y25077D02*
X29026D01*
X29389D02*
X30113D01*
X30748D02*
X31412D01*
X31774D02*
X32529D01*
X33315D02*
X34070D01*
X34281D02*
X34976D01*
X36486D02*
X37271D01*
X38177D02*
X39022D01*
X28181Y25107D02*
X29026D01*
X29389D02*
X30144D01*
X30717D02*
X31412D01*
X31774D02*
X32499D01*
X33345D02*
X34100D01*
X34281D02*
X34976D01*
X36455D02*
X37241D01*
X38237D02*
X39053D01*
X28181Y25137D02*
X29056D01*
X29419D02*
X30144D01*
X30748D02*
X31382D01*
X31744D02*
X32469D01*
X33375D02*
X34100D01*
X34251D02*
X34976D01*
X36425D02*
X37210D01*
X38267D02*
X39053D01*
X28241Y25167D02*
X29056D01*
X29449D02*
X30174D01*
X30748D02*
X31412D01*
X31774D02*
X32439D01*
X33405D02*
X34100D01*
X34251D02*
X34945D01*
X36425D02*
X37180D01*
X38267D02*
X39053D01*
X28271Y25197D02*
X29087D01*
X29449D02*
X30204D01*
X30717D02*
X31412D01*
X31744D02*
X32439D01*
X33405D02*
X34100D01*
X34281D02*
X34976D01*
X36425D02*
X37180D01*
X38298D02*
X39083D01*
X28301Y25228D02*
X29087D01*
X29479D02*
X30204D01*
X30748D02*
X31412D01*
X31744D02*
X32439D01*
X33435D02*
X34130D01*
X34251D02*
X34976D01*
X36395D02*
X37150D01*
X38328D02*
X39083D01*
X28301Y25258D02*
X29087D01*
X29509D02*
X30234D01*
X30748D02*
X31382D01*
X31744D02*
X32409D01*
X33435D02*
X34100D01*
X34281D02*
X34976D01*
X36395D02*
X37120D01*
X38358D02*
X39113D01*
X28332Y25288D02*
X29117D01*
X29509D02*
X30264D01*
X30717D02*
X31382D01*
X31744D02*
X32409D01*
X33435D02*
X34130D01*
X34251D02*
X35006D01*
X36395D02*
X37090D01*
X38358D02*
X39113D01*
X28362Y25318D02*
X29117D01*
X29540D02*
X30264D01*
X30748D02*
X31412D01*
X31714D02*
X32409D01*
X33435D02*
X34130D01*
X34281D02*
X35036D01*
X36365D02*
X37090D01*
X38388D02*
X39113D01*
X28362Y25348D02*
X29117D01*
X29570D02*
X30295D01*
X30748D02*
X31382D01*
X31744D02*
X32378D01*
X33466D02*
X34130D01*
X34281D02*
X35066D01*
X36365D02*
X37090D01*
X38388D02*
X39143D01*
X28362Y25379D02*
X29147D01*
X29570D02*
X30355D01*
X30717D02*
X31412D01*
X31714D02*
X32378D01*
X33466D02*
X34130D01*
X34281D02*
X35096D01*
X36335D02*
X37059D01*
X38418D02*
X39143D01*
X28392Y25409D02*
X29117D01*
X29600D02*
X30355D01*
X30748D02*
X31412D01*
X31714D02*
X32409D01*
X33466D02*
X34130D01*
X34281D02*
X35127D01*
X36335D02*
X37059D01*
X38418D02*
X39143D01*
X28422Y25439D02*
X29147D01*
X29660D02*
X30415D01*
X30748D02*
X31382D01*
X31714D02*
X32378D01*
X33466D02*
X34160D01*
X34311D02*
X35187D01*
X36335D02*
X37029D01*
X38449D02*
X39143D01*
X28422Y25469D02*
X29147D01*
X29660D02*
X30476D01*
X30717D02*
X31412D01*
X31714D02*
X32378D01*
X33466D02*
X34160D01*
X34311D02*
X35247D01*
X36335D02*
X37029D01*
X38449D02*
X39173D01*
X28422Y25499D02*
X29147D01*
X29691D02*
X31412D01*
X31714D02*
X32378D01*
X33496D02*
X34130D01*
X34311D02*
X35308D01*
X36335D02*
X37029D01*
X38449D02*
X39173D01*
X28422Y25530D02*
X29177D01*
X29721D02*
X31382D01*
X31714D02*
X32378D01*
X33466D02*
X34160D01*
X34311D02*
X35368D01*
X36304D02*
X37029D01*
X38449D02*
X39173D01*
X28452Y25560D02*
X29147D01*
X29751D02*
X31412D01*
X31684D02*
X32378D01*
X33496D02*
X34160D01*
X34341D02*
X35429D01*
X36304D02*
X37029D01*
X38479D02*
X39173D01*
X28452Y25590D02*
X29177D01*
X29781D02*
X31412D01*
X31714D02*
X32378D01*
X33496D02*
X34160D01*
X34372D02*
X35519D01*
X36304D02*
X36999D01*
X38479D02*
X39173D01*
X28452Y25620D02*
X29147D01*
X29842D02*
X31382D01*
X31714D02*
X32378D01*
X33466D02*
X34130D01*
X34372D02*
X35580D01*
X36304D02*
X36999D01*
X38479D02*
X39173D01*
X28452Y25650D02*
X29177D01*
X29902D02*
X31412D01*
X31684D02*
X32378D01*
X33496D02*
X34160D01*
X34402D02*
X35670D01*
X36304D02*
X36999D01*
X38479D02*
X39204D01*
X28483Y25681D02*
X29177D01*
X29902D02*
X31412D01*
X31714D02*
X32378D01*
X33466D02*
X34160D01*
X34432D02*
X35731D01*
X36304D02*
X36999D01*
X38479D02*
X39173D01*
X28452Y25711D02*
X29177D01*
X29781D02*
X29811D01*
X29842D02*
X31412D01*
X31714D02*
X32378D01*
X33496D02*
X34130D01*
X34462D02*
X35791D01*
X36274D02*
X36999D01*
X38479D02*
X39173D01*
X28483Y25741D02*
X29177D01*
X29751D02*
X31382D01*
X31714D02*
X32348D01*
X33466D02*
X34160D01*
X34462D02*
X35851D01*
X36304D02*
X36999D01*
X38479D02*
X39204D01*
X28452Y25771D02*
X29147D01*
X29691D02*
X31382D01*
X31684D02*
X32378D01*
X33496D02*
X34160D01*
X34523D02*
X35912D01*
X36304D02*
X36999D01*
X38509D02*
X39173D01*
X28483Y25801D02*
X29177D01*
X29630D02*
X31412D01*
X31714D02*
X32378D01*
X33466D02*
X34130D01*
X34553D02*
X35942D01*
X36274D02*
X36999D01*
X38479D02*
X39173D01*
X28483Y25832D02*
X29177D01*
X29600D02*
X31382D01*
X31714D02*
X32378D01*
X33466D02*
X34160D01*
X34583D02*
X35972D01*
X36304D02*
X36999D01*
X38479D02*
X39204D01*
X28452Y25862D02*
X29177D01*
X29570D02*
X31412D01*
X31714D02*
X32348D01*
X33496D02*
X34160D01*
X34643D02*
X36033D01*
X36304D02*
X36999D01*
X38479D02*
X39173D01*
X28452Y25892D02*
X29177D01*
X29509D02*
X31412D01*
X31684D02*
X32378D01*
X33496D02*
X34130D01*
X34674D02*
X36063D01*
X36274D02*
X36999D01*
X38509D02*
X39204D01*
X28483Y25922D02*
X29147D01*
X29509D02*
X31382D01*
X31714D02*
X32378D01*
X33466D02*
X34160D01*
X34734D02*
X36093D01*
X36304D02*
X36999D01*
X38479D02*
X39173D01*
X28452Y25952D02*
X29177D01*
X29449D02*
X31412D01*
X31714D02*
X32378D01*
X33496D02*
X34160D01*
X34794D02*
X36123D01*
X36304D02*
X36999D01*
X38479D02*
X39173D01*
X28452Y25983D02*
X29147D01*
X29449D02*
X30325D01*
X30717D02*
X31412D01*
X31714D02*
X32378D01*
X33466D02*
X34130D01*
X34855D02*
X36123D01*
X36304D02*
X36999D01*
X38479D02*
X39173D01*
X28452Y26013D02*
X29147D01*
X29419D02*
X30234D01*
X30748D02*
X31382D01*
X31684D02*
X32378D01*
X33496D02*
X34160D01*
X34915D02*
X36184D01*
X36304D02*
X37029D01*
X38479D02*
X39173D01*
X28452Y26043D02*
X29147D01*
X29389D02*
X30174D01*
X30717D02*
X31412D01*
X31714D02*
X32348D01*
X33466D02*
X34160D01*
X35006D02*
X36184D01*
X36304D02*
X36999D01*
X38479D02*
X39173D01*
X28452Y26073D02*
X29147D01*
X29358D02*
X30113D01*
X30748D02*
X31412D01*
X31714D02*
X32378D01*
X33496D02*
X34160D01*
X35066D02*
X36214D01*
X36304D02*
X36999D01*
X38479D02*
X39173D01*
X28422Y26103D02*
X29147D01*
X29358D02*
X30083D01*
X30748D02*
X31382D01*
X31714D02*
X32378D01*
X33466D02*
X34160D01*
X35127D02*
X36214D01*
X36304D02*
X37029D01*
X38449D02*
X39173D01*
X28422Y26134D02*
X29147D01*
X29358D02*
X30053D01*
X30717D02*
X31412D01*
X31684D02*
X32348D01*
X33466D02*
X34130D01*
X35247D02*
X36244D01*
X36304D02*
X37029D01*
X38449D02*
X39143D01*
X28422Y26164D02*
X29117D01*
X29328D02*
X30053D01*
X30748D02*
X31412D01*
X31714D02*
X32378D01*
X33496D02*
X34160D01*
X35278D02*
X36244D01*
X36335D02*
X37029D01*
X38449D02*
X39143D01*
X28392Y26194D02*
X29117D01*
X29328D02*
X30023D01*
X30748D02*
X31412D01*
X31714D02*
X32378D01*
X33496D02*
X34130D01*
X35338D02*
X36244D01*
X36335D02*
X37059D01*
X38418D02*
X39143D01*
X28392Y26224D02*
X29117D01*
X29298D02*
X29993D01*
X30748D02*
X31382D01*
X31714D02*
X32348D01*
X33466D02*
X34160D01*
X35398D02*
X36274D01*
X36335D02*
X37059D01*
X38418D02*
X39143D01*
X28362Y26254D02*
X29087D01*
X29298D02*
X29993D01*
X30717D02*
X31382D01*
X31684D02*
X32378D01*
X33466D02*
X34130D01*
X35459D02*
X36274D01*
X36335D02*
X37059D01*
X38418D02*
X39143D01*
X28362Y26285D02*
X29087D01*
X29298D02*
X29993D01*
X30748D02*
X31412D01*
X31714D02*
X32378D01*
X33496D02*
X34160D01*
X35489D02*
X36274D01*
X36335D02*
X37059D01*
X38388D02*
X39113D01*
X28332Y26315D02*
X29087D01*
X29298D02*
X29993D01*
X30717D02*
X31382D01*
X31714D02*
X32378D01*
X33496D02*
X34160D01*
X35519D02*
X36274D01*
X36335D02*
X37090D01*
X38388D02*
X39113D01*
X28332Y26345D02*
X29056D01*
X29268D02*
X29962D01*
X30748D02*
X31412D01*
X31714D02*
X32378D01*
X33466D02*
X34160D01*
X35549D02*
X36274D01*
X36365D02*
X37120D01*
X38358D02*
X39113D01*
X28301Y26375D02*
X29056D01*
X29268D02*
X29962D01*
X30748D02*
X31412D01*
X31684D02*
X32378D01*
X33496D02*
X34130D01*
X35549D02*
X36304D01*
X36395D02*
X37120D01*
X38358D02*
X39083D01*
X28271Y26405D02*
X29056D01*
X29268D02*
X29962D01*
X30717D02*
X31382D01*
X31714D02*
X32378D01*
X33466D02*
X34160D01*
X35580D02*
X36274D01*
X36395D02*
X37150D01*
X38328D02*
X39083D01*
X28241Y26436D02*
X29026D01*
X29268D02*
X29993D01*
X30748D02*
X31412D01*
X31714D02*
X32378D01*
X33496D02*
X34130D01*
X35580D02*
X36304D01*
X36395D02*
X37150D01*
X38298D02*
X39053D01*
X28211Y26466D02*
X28996D01*
X29268D02*
X29962D01*
X30748D02*
X31412D01*
X31714D02*
X32348D01*
X33466D02*
X34160D01*
X35580D02*
X36274D01*
X36395D02*
X37180D01*
X38267D02*
X39053D01*
X28181Y26496D02*
X28996D01*
X29268D02*
X29993D01*
X30717D02*
X31382D01*
X31684D02*
X32378D01*
X33496D02*
X34130D01*
X35610D02*
X36304D01*
X36425D02*
X37210D01*
X38267D02*
X39022D01*
X28150Y26526D02*
X28996D01*
X29268D02*
X29993D01*
X30748D02*
X31412D01*
X31714D02*
X32378D01*
X33466D02*
X34160D01*
X35580D02*
X36274D01*
X36455D02*
X37241D01*
X38237D02*
X39022D01*
X28090Y26556D02*
X28966D01*
X29268D02*
X29993D01*
X30748D02*
X31412D01*
X31714D02*
X32378D01*
X33466D02*
X34160D01*
X35580D02*
X36274D01*
X36455D02*
X37271D01*
X38177D02*
X38992D01*
X28060Y26587D02*
X28936D01*
X29268D02*
X30023D01*
X30717D02*
X31412D01*
X31714D02*
X32378D01*
X33496D02*
X34130D01*
X35549D02*
X36274D01*
X36486D02*
X37301D01*
X38147D02*
X38992D01*
X27999Y26617D02*
X28936D01*
X29298D02*
X30023D01*
X30748D02*
X31382D01*
X31684D02*
X32378D01*
X33496D02*
X34160D01*
X35519D02*
X36274D01*
X36486D02*
X37361D01*
X38116D02*
X38962D01*
X27939Y26647D02*
X28905D01*
X29268D02*
X30083D01*
X30748D02*
X31412D01*
X31714D02*
X32378D01*
X33466D02*
X34130D01*
X35519D02*
X36274D01*
X36516D02*
X37422D01*
X38056D02*
X38932D01*
X27848Y26677D02*
X28875D01*
X29298D02*
X30083D01*
X30717D02*
X31412D01*
X31714D02*
X32378D01*
X33496D02*
X34160D01*
X35459D02*
X36244D01*
X36516D02*
X37452D01*
X37965D02*
X38932D01*
X26973Y26707D02*
X27003D01*
X27063D02*
X27093D01*
X27214D02*
X27244D01*
X27305D02*
X27335D01*
X27456D02*
X27516D01*
X27637D02*
X27667D01*
X27697D02*
X28875D01*
X29298D02*
X30144D01*
X30748D02*
X31382D01*
X31714D02*
X32348D01*
X33466D02*
X34160D01*
X35398D02*
X36244D01*
X36546D02*
X37603D01*
X37694D02*
X37724D01*
X37754D02*
X37784D01*
X37845D02*
X38902D01*
X26852Y26738D02*
X28815D01*
X29298D02*
X30234D01*
X30748D02*
X31412D01*
X31684D02*
X32378D01*
X33496D02*
X34130D01*
X35308D02*
X36244D01*
X36576D02*
X38871D01*
X26882Y26768D02*
X28815D01*
X29328D02*
X30325D01*
X30355D02*
X30446D01*
X30476D02*
X30506D01*
X30536D02*
X30597D01*
X30627D02*
X30657D01*
X30687D02*
X31412D01*
X31442D02*
X31503D01*
X31533D02*
X31563D01*
X31593D02*
X31623D01*
X31714D02*
X32378D01*
X33466D02*
X34160D01*
X34251D02*
X34523D01*
X34553D02*
X34704D01*
X34734D02*
X34945D01*
X34976D02*
X36214D01*
X36606D02*
X38841D01*
X26852Y26798D02*
X28754D01*
X29328D02*
X31623D01*
X31714D02*
X32378D01*
X33496D02*
X34160D01*
X34221D02*
X36214D01*
X36606D02*
X38811D01*
X26882Y26828D02*
X28754D01*
X29358D02*
X31623D01*
X31714D02*
X32348D01*
X33466D02*
X34130D01*
X34251D02*
X36184D01*
X36667D02*
X38811D01*
X26852Y26858D02*
X28724D01*
X29358D02*
X31623D01*
X31684D02*
X32378D01*
X33466D02*
X34160D01*
X34221D02*
X36153D01*
X36667D02*
X38751D01*
X26882Y26889D02*
X28664D01*
X29389D02*
X31623D01*
X31714D02*
X32378D01*
X33496D02*
X34160D01*
X34221D02*
X36123D01*
X36727D02*
X38751D01*
X26852Y26919D02*
X28634D01*
X29389D02*
X31623D01*
X31714D02*
X32378D01*
X33496D02*
X34130D01*
X34221D02*
X36123D01*
X36727D02*
X38690D01*
X26882Y26949D02*
X28603D01*
X29419D02*
X31623D01*
X31714D02*
X32378D01*
X33466D02*
X34160D01*
X34251D02*
X36063D01*
X36788D02*
X38660D01*
X26852Y26979D02*
X28543D01*
X29449D02*
X31623D01*
X31684D02*
X32378D01*
X33466D02*
X34160D01*
X34221D02*
X36063D01*
X36818D02*
X38630D01*
X26882Y27009D02*
X28513D01*
X29479D02*
X31623D01*
X31714D02*
X32348D01*
X33496D02*
X34130D01*
X34251D02*
X36002D01*
X36848D02*
X38600D01*
X26852Y27040D02*
X28452D01*
X29509D02*
X31623D01*
X31714D02*
X32378D01*
X33496D02*
X34160D01*
X34221D02*
X35972D01*
X36908D02*
X38539D01*
X26882Y27070D02*
X28392D01*
X29570D02*
X31623D01*
X31714D02*
X32378D01*
X33466D02*
X34160D01*
X34251D02*
X35912D01*
X36969D02*
X38479D01*
X26852Y27100D02*
X28362D01*
X29600D02*
X31623D01*
X31684D02*
X32348D01*
X33496D02*
X34160D01*
X34221D02*
X35882D01*
X36999D02*
X38418D01*
X26882Y27130D02*
X28271D01*
X29660D02*
X31623D01*
X31714D02*
X32378D01*
X33466D02*
X34130D01*
X34251D02*
X35791D01*
X37090D02*
X38358D01*
X26852Y27160D02*
X28211D01*
X29721D02*
X31623D01*
X31714D02*
X32378D01*
X33496D02*
X34160D01*
X34221D02*
X35731D01*
X37150D02*
X38267D01*
X26882Y27191D02*
X28090D01*
X29842D02*
X31623D01*
X31714D02*
X32348D01*
X33466D02*
X34160D01*
X34221D02*
X35640D01*
X37241D02*
X38177D01*
X26852Y27221D02*
X27939D01*
X29932D02*
X29962D01*
X29993D02*
X31623D01*
X31684D02*
X32378D01*
X33496D02*
X34130D01*
X34221D02*
X35489D01*
X37361D02*
X38056D01*
X26882Y27251D02*
X26912D01*
X26973D02*
X27003D01*
X27033D02*
X27063D01*
X27093D02*
X27154D01*
X27184D02*
X27214D01*
X27244D02*
X27275D01*
X27305D02*
X27335D01*
X27365D02*
X27395D01*
X27426D02*
X27456D01*
X27486D02*
X27516D01*
X27546D02*
X27577D01*
X27637D02*
X27667D01*
X27697D02*
X27728D01*
X27758D02*
X27788D01*
X30083D02*
X30113D01*
X30204D02*
X30234D01*
X30264D02*
X30295D01*
X30325D02*
X30355D01*
X30385D02*
X30415D01*
X30446D02*
X30476D01*
X30536D02*
X30566D01*
X30597D02*
X30627D01*
X30657D02*
X30687D01*
X30717D02*
X30778D01*
X30808D02*
X30838D01*
X30899D02*
X30929D01*
X30989D02*
X31019D01*
X31050D02*
X31080D01*
X31110D02*
X31140D01*
X31170D02*
X31201D01*
X31261D02*
X31291D01*
X31321D02*
X31352D01*
X31382D02*
X31412D01*
X31442D02*
X31503D01*
X31563D02*
X31593D01*
X31714D02*
X31744D01*
X31774D02*
X31805D01*
X31835D02*
X31865D01*
X31895D02*
X31925D01*
X31986D02*
X32016D01*
X32046D02*
X32076D01*
X32107D02*
X32137D01*
X32167D02*
X32227D01*
X32258D02*
X32288D01*
X32318D02*
X32348D01*
X33496D02*
X33526D01*
X33556D02*
X33586D01*
X33617D02*
X33677D01*
X33707D02*
X33737D01*
X33798D02*
X33828D01*
X33888D02*
X33919D01*
X33949D02*
X33979D01*
X34009D02*
X34039D01*
X34070D02*
X34100D01*
X34281D02*
X34311D01*
X34341D02*
X34402D01*
X34432D02*
X34462D01*
X34492D02*
X34523D01*
X34553D02*
X34583D01*
X34613D02*
X34643D01*
X34674D02*
X34704D01*
X34734D02*
X34764D01*
X34794D02*
X34825D01*
X34885D02*
X34915D01*
X34945D02*
X34976D01*
X35006D02*
X35036D01*
X35066D02*
X35127D01*
X35157D02*
X35187D01*
X35247D02*
X35278D01*
X37543D02*
X37573D01*
X37633D02*
X37663D01*
X37694D02*
X37724D01*
X37784D02*
X37814D01*
X37845D02*
X37875D01*
D73*
X25827Y24921D02*
D03*
X24094Y25039D02*
D03*
X22441Y25118D02*
D03*
X21024Y25197D02*
D03*
X19843Y25236D02*
D03*
X18661Y25315D02*
D03*
X17559Y25354D02*
D03*
X16575Y25394D02*
D03*
X15709Y25433D02*
D03*
X14882Y25472D02*
D03*
X14134Y25512D02*
D03*
X13386D02*
D03*
X12717Y25551D02*
D03*
X12087D02*
D03*
X11575D02*
D03*
X11063D02*
D03*
X10591D02*
D03*
X10118D02*
D03*
X9724D02*
D03*
X9291D02*
D03*
X8898D02*
D03*
X8504D02*
D03*
X8150D02*
D03*
X8189Y25512D02*
D03*
X8543D02*
D03*
X8937D02*
D03*
X9331D02*
D03*
X9764D02*
D03*
X10157D02*
D03*
X10630D02*
D03*
X11102D02*
D03*
X11614D02*
D03*
X12126D02*
D03*
X12756D02*
D03*
X13425Y25472D02*
D03*
X14173D02*
D03*
X14921Y25433D02*
D03*
X15748Y25394D02*
D03*
X16614Y25354D02*
D03*
X17598Y25315D02*
D03*
X18701Y25276D02*
D03*
X19882Y25197D02*
D03*
X21063Y25157D02*
D03*
X22480Y25079D02*
D03*
X24134Y25000D02*
D03*
X25866Y24882D02*
D03*
D76*
X36575Y17047D02*
D03*
X36260D02*
D03*
X35945D02*
D03*
X35630D02*
D03*
X35315D02*
D03*
X35000D02*
D03*
X34685D02*
D03*
X34370D02*
D03*
X34055D02*
D03*
X33740D02*
D03*
X33425D02*
D03*
Y12480D02*
D03*
X33740D02*
D03*
X34055D02*
D03*
X34370D02*
D03*
X34685D02*
D03*
X35000D02*
D03*
X35315D02*
D03*
X35630D02*
D03*
X35945D02*
D03*
X36260D02*
D03*
X36575D02*
D03*
D77*
X32717Y16339D02*
D03*
Y16024D02*
D03*
Y15709D02*
D03*
Y15394D02*
D03*
Y15079D02*
D03*
Y14764D02*
D03*
Y14449D02*
D03*
Y14134D02*
D03*
Y13819D02*
D03*
Y13504D02*
D03*
Y13189D02*
D03*
X37283D02*
D03*
Y13504D02*
D03*
Y13819D02*
D03*
Y14134D02*
D03*
Y14449D02*
D03*
Y14764D02*
D03*
Y15079D02*
D03*
Y15394D02*
D03*
Y15709D02*
D03*
Y16024D02*
D03*
Y16339D02*
D03*
M02*
