M48
;Layer_Color=9474304
;FILE_FORMAT=2:4
INCH,LZ
T25F00S00C0.2000
%
G90
G05
T25
G00X039569Y010831
M15
G01X03976Y01089
G01X039935Y010986
G01X040088Y011115
G01X040212Y011271
G01X040302Y011449
G01X040356Y011642
G01X04037Y011811
G01X04037Y027559
G01X04035Y027758
G01X040291Y027949
G01X040195Y028124
G01X040067Y028277
G01X03991Y028401
G01X039732Y028491
G01X039539Y028545
G01X03937Y028559
G01X007874Y028559
G01X007675Y028539
G01X007484Y02848
G01X007309Y028384
G01X007156Y028256
G01X007032Y028099
G01X006942Y027921
G01X006888Y027728
G01X006874Y027559
G01X006874Y011811
G01X006894Y011612
G01X006953Y011421
G01X007049Y011246
G01X007178Y011093
G01X007334Y010969
G01X007512Y010879
G01X007705Y010825
G01X007874Y010811
G01X03937Y010811
G01X039569Y010831
M16
M17
M30
