G04 Layer_Physical_Order=1*
G04 Layer_Color=255*
%FSLAX24Y24*%
%MOIN*%
G70*
G01*
G75*
%ADD10O,0.0827X0.0177*%
%ADD11R,0.0236X0.0197*%
%ADD12R,0.0315X0.0354*%
%ADD13R,0.0315X0.0472*%
%ADD14R,0.0433X0.0669*%
%ADD15R,0.0433X0.1024*%
%ADD16R,0.0500X0.0220*%
%ADD17R,0.0220X0.0500*%
%ADD18R,0.0087X0.0394*%
%ADD19R,0.0394X0.0087*%
%ADD20R,0.0240X0.0870*%
%ADD21R,0.0453X0.0236*%
%ADD22R,0.0200X0.0500*%
%ADD23R,0.0315X0.0354*%
%ADD24R,0.0906X0.0906*%
%ADD25R,0.0787X0.0984*%
%ADD26R,0.0945X0.1299*%
%ADD27R,0.0394X0.0394*%
%ADD28C,0.0100*%
%ADD29C,0.0050*%
%ADD30C,0.0120*%
%ADD31C,0.0150*%
%ADD32C,0.0200*%
%ADD33C,0.0250*%
%ADD34C,0.0500*%
%ADD35C,0.0039*%
%ADD36C,0.0049*%
%ADD37C,0.0070*%
%ADD38R,0.3937X0.3937*%
%ADD39R,0.0394X0.0394*%
%ADD40R,0.0709X0.0709*%
%ADD41C,0.0709*%
D10*
X27421Y20915D02*
D03*
Y21171D02*
D03*
Y21427D02*
D03*
Y21683D02*
D03*
Y21939D02*
D03*
Y22195D02*
D03*
Y22451D02*
D03*
Y22707D02*
D03*
X24705Y20915D02*
D03*
Y21171D02*
D03*
Y21427D02*
D03*
Y21683D02*
D03*
Y21939D02*
D03*
Y22195D02*
D03*
Y22451D02*
D03*
Y22707D02*
D03*
D11*
X35472Y17299D02*
D03*
X35079D02*
D03*
D12*
X35000Y16591D02*
D03*
X35551D02*
D03*
D13*
X35630Y15803D02*
D03*
X34921D02*
D03*
D14*
X34744Y14858D02*
D03*
X35807D02*
D03*
D15*
X34744Y13638D02*
D03*
X35807D02*
D03*
D16*
X17916Y18110D02*
D03*
Y17795D02*
D03*
Y17480D02*
D03*
Y17165D02*
D03*
Y16850D02*
D03*
Y16535D02*
D03*
Y16220D02*
D03*
Y15905D02*
D03*
X21296D02*
D03*
Y16220D02*
D03*
Y16535D02*
D03*
Y16850D02*
D03*
Y17165D02*
D03*
Y17480D02*
D03*
Y17795D02*
D03*
Y18110D02*
D03*
D17*
X18504Y15318D02*
D03*
X18819D02*
D03*
X19134D02*
D03*
X19449D02*
D03*
X19764D02*
D03*
X20079D02*
D03*
X20394D02*
D03*
X20709D02*
D03*
Y18698D02*
D03*
X20394D02*
D03*
X20079D02*
D03*
X19764D02*
D03*
X19449D02*
D03*
X19134D02*
D03*
X18819D02*
D03*
X18504D02*
D03*
D18*
X24508Y14744D02*
D03*
X24705D02*
D03*
X24114D02*
D03*
X23721D02*
D03*
X23327D02*
D03*
X24311D02*
D03*
X23917D02*
D03*
X23524D02*
D03*
X23130D02*
D03*
X25098D02*
D03*
X25492D02*
D03*
X25886D02*
D03*
X26083D02*
D03*
X25689D02*
D03*
X25295D02*
D03*
X24902D02*
D03*
X24705Y19272D02*
D03*
X24508D02*
D03*
X25098D02*
D03*
X25492D02*
D03*
X25886D02*
D03*
X24902D02*
D03*
X25295D02*
D03*
X25689D02*
D03*
X26083D02*
D03*
X24114D02*
D03*
X23721D02*
D03*
X23327D02*
D03*
X23130D02*
D03*
X23524D02*
D03*
X23917D02*
D03*
X24311D02*
D03*
D19*
X26870Y16909D02*
D03*
Y17106D02*
D03*
Y16516D02*
D03*
Y16122D02*
D03*
Y15728D02*
D03*
Y16713D02*
D03*
Y16319D02*
D03*
Y15925D02*
D03*
Y15531D02*
D03*
Y17500D02*
D03*
Y17894D02*
D03*
Y18287D02*
D03*
Y18484D02*
D03*
Y18091D02*
D03*
Y17697D02*
D03*
Y17303D02*
D03*
X22343Y17106D02*
D03*
Y16909D02*
D03*
Y17500D02*
D03*
Y17894D02*
D03*
Y18287D02*
D03*
Y17303D02*
D03*
Y17697D02*
D03*
Y18091D02*
D03*
Y18484D02*
D03*
Y16516D02*
D03*
Y16122D02*
D03*
Y15728D02*
D03*
Y15531D02*
D03*
Y15925D02*
D03*
Y16319D02*
D03*
Y16713D02*
D03*
D20*
X22085Y20899D02*
D03*
X22585D02*
D03*
X23085D02*
D03*
X23585D02*
D03*
Y22959D02*
D03*
X23085D02*
D03*
X22585D02*
D03*
X22085D02*
D03*
D21*
X20364Y20846D02*
D03*
Y21594D02*
D03*
X19478Y21220D02*
D03*
D22*
X17228Y21591D02*
D03*
X17598Y20591D02*
D03*
X17978Y20591D02*
D03*
X17228D02*
D03*
X17978Y21591D02*
D03*
D23*
X18701Y23268D02*
D03*
X19075Y22441D02*
D03*
X18327D02*
D03*
D24*
X30886Y16063D02*
D03*
X29114D02*
D03*
D25*
X31004Y17677D02*
D03*
X29606D02*
D03*
D26*
X28120Y14291D02*
D03*
X30856D02*
D03*
D27*
X31181Y19055D02*
D03*
X30394D02*
D03*
D28*
X8268Y27126D02*
Y27520D01*
X8661Y27126D02*
Y27520D01*
X9055Y27126D02*
Y27520D01*
X9449Y27126D02*
Y27520D01*
X9843Y26732D02*
Y27520D01*
X10236Y27126D02*
Y27520D01*
X10630Y27126D02*
Y27520D01*
X11024Y27126D02*
Y27520D01*
X11417Y27126D02*
Y27520D01*
X11811Y26339D02*
Y27520D01*
X15748Y26339D02*
Y27520D01*
X15354Y27126D02*
Y27520D01*
X14961Y27126D02*
Y27520D01*
X14567Y27126D02*
Y27520D01*
X14173Y27126D02*
Y27520D01*
X13780Y26732D02*
Y27520D01*
X13386Y27126D02*
Y27520D01*
X12992Y27126D02*
Y27520D01*
X12598Y27126D02*
Y27520D01*
X12205Y27126D02*
Y27520D01*
X19685Y26339D02*
Y27520D01*
X19291Y27126D02*
Y27520D01*
X18898Y27126D02*
Y27520D01*
X18504Y27126D02*
Y27520D01*
X18110Y27126D02*
Y27520D01*
X17717Y26732D02*
Y27520D01*
X17323Y27126D02*
Y27520D01*
X16929Y27126D02*
Y27520D01*
X16535Y27126D02*
Y27520D01*
X16142Y27126D02*
Y27520D01*
X23622Y26339D02*
Y27520D01*
X23228Y27126D02*
Y27520D01*
X22835Y27126D02*
Y27520D01*
X22441Y27126D02*
Y27520D01*
X22047Y27126D02*
Y27520D01*
X21654Y26732D02*
Y27520D01*
X21260Y27126D02*
Y27520D01*
X20866Y27126D02*
Y27520D01*
X20472Y27126D02*
Y27520D01*
X20079Y27126D02*
Y27520D01*
X27559Y26339D02*
Y27520D01*
X27165Y27126D02*
Y27520D01*
X26772Y27126D02*
Y27520D01*
X26378Y27126D02*
Y27520D01*
X25984Y27126D02*
Y27520D01*
X25591Y26732D02*
Y27520D01*
X25197Y27126D02*
Y27520D01*
X24803Y27126D02*
Y27520D01*
X24409Y27126D02*
Y27520D01*
X24016Y27126D02*
Y27520D01*
X31102Y27126D02*
Y27520D01*
X30709Y27126D02*
Y27520D01*
X30315Y27126D02*
Y27520D01*
X29921Y27126D02*
Y27520D01*
X29528Y26732D02*
Y27520D01*
X29134Y27126D02*
Y27520D01*
X28740Y27126D02*
Y27520D01*
X28346Y27126D02*
Y27520D01*
X27953Y27126D02*
Y27520D01*
X35039Y27126D02*
Y27520D01*
X34646Y27126D02*
Y27520D01*
X34252Y27126D02*
Y27520D01*
X33858Y27126D02*
Y27520D01*
X33465Y26732D02*
Y27520D01*
X33071Y27126D02*
Y27520D01*
X32677Y27126D02*
Y27520D01*
X32283Y27126D02*
Y27520D01*
X31890Y27126D02*
Y27520D01*
X38976Y27126D02*
Y27520D01*
X38583Y27126D02*
Y27520D01*
X38189Y27126D02*
Y27520D01*
X37795Y27126D02*
Y27520D01*
X37402Y26732D02*
Y27520D01*
X37008Y27126D02*
Y27520D01*
X36614Y27126D02*
Y27520D01*
X36220Y27126D02*
Y27520D01*
X35827Y27126D02*
Y27520D01*
X9000Y11761D02*
Y12461D01*
X10000Y11761D02*
Y12461D01*
X12000Y11761D02*
Y12461D01*
X8000Y11761D02*
Y12461D01*
X11000Y11761D02*
Y12461D01*
X13000Y11761D02*
Y12761D01*
X14000Y11761D02*
Y12461D01*
X15000Y11761D02*
Y12461D01*
X16000Y11761D02*
Y12461D01*
X17000Y11761D02*
Y12461D01*
X18000Y11761D02*
Y12961D01*
X29000Y11761D02*
Y12961D01*
X28000Y11761D02*
Y12461D01*
X27000Y11761D02*
Y12461D01*
X26000Y11761D02*
Y12461D01*
X25000Y11761D02*
Y12461D01*
X24000Y11761D02*
Y12761D01*
X22000Y11761D02*
Y12461D01*
X19000Y11761D02*
Y12461D01*
X23000Y11761D02*
Y12461D01*
X21000Y11761D02*
Y12461D01*
X20000Y11761D02*
Y12461D01*
X39000Y11761D02*
Y12461D01*
X38000Y11761D02*
Y12461D01*
X37000Y11761D02*
Y12461D01*
X36000Y11761D02*
Y12461D01*
X35000Y11761D02*
Y12761D01*
X33000Y11761D02*
Y12461D01*
X30000Y11761D02*
Y12461D01*
X34000Y11761D02*
Y12461D01*
X32000Y11761D02*
Y12461D01*
X31000Y11761D02*
Y12461D01*
X8661Y13937D02*
X10000D01*
X10591D01*
X12992D01*
X8071Y14528D02*
X8661Y13937D01*
X31496Y26339D02*
Y27520D01*
X35433Y26339D02*
Y27520D01*
X12008Y26339D02*
X12208D01*
X12108D01*
Y26938D01*
X12008Y26838D01*
X8071D02*
X8171Y26938D01*
X8371D01*
X8471Y26838D01*
Y26439D01*
X8371Y26339D01*
X8171D01*
X8071Y26439D01*
Y26838D01*
X16345Y26339D02*
X15945D01*
X16345Y26738D01*
Y26838D01*
X16245Y26938D01*
X16045D01*
X15945Y26838D01*
X19882D02*
X19982Y26938D01*
X20182D01*
X20282Y26838D01*
Y26738D01*
X20182Y26638D01*
X20082D01*
X20182D01*
X20282Y26539D01*
Y26439D01*
X20182Y26339D01*
X19982D01*
X19882Y26439D01*
X24119Y26339D02*
Y26938D01*
X23819Y26638D01*
X24219D01*
X28156Y26938D02*
X27756D01*
Y26638D01*
X27956Y26738D01*
X28056D01*
X28156Y26638D01*
Y26439D01*
X28056Y26339D01*
X27856D01*
X27756Y26439D01*
X18400Y12661D02*
X18600D01*
X18500D01*
Y13260D01*
X18400Y13160D01*
X29700Y12661D02*
X29300D01*
X29700Y13060D01*
Y13160D01*
X29600Y13260D01*
X29400D01*
X29300Y13160D01*
X8000D02*
X8100Y13260D01*
X8300D01*
X8400Y13160D01*
Y12761D01*
X8300Y12661D01*
X8100D01*
X8000Y12761D01*
Y13160D01*
X32093Y26938D02*
X31893Y26838D01*
X31693Y26638D01*
Y26439D01*
X31793Y26339D01*
X31993D01*
X32093Y26439D01*
Y26539D01*
X31993Y26638D01*
X31693D01*
X35630Y26938D02*
X36030D01*
Y26838D01*
X35630Y26439D01*
Y26339D01*
D29*
X8071Y14252D02*
X8622Y13701D01*
X12992D01*
D30*
X10472Y14173D02*
X12992D01*
X8189Y14724D02*
X8740Y14173D01*
X10472D01*
X8071Y14843D02*
X8189Y14724D01*
D31*
X8071Y15157D02*
X8820Y14408D01*
X12953D01*
D32*
X8071Y15551D02*
X8939Y14683D01*
X12953D01*
D33*
X8071Y15984D02*
X9047Y15008D01*
X12953D01*
D34*
X8189Y16496D02*
X9202Y15483D01*
X12794D01*
X12795Y15484D01*
D35*
X13177Y16236D02*
X13308D01*
X13243D01*
Y16039D01*
X13374Y16170D02*
Y16039D01*
Y16105D01*
X13407Y16138D01*
X13440Y16170D01*
X13472D01*
X13604D02*
X13669D01*
X13702Y16138D01*
Y16039D01*
X13604D01*
X13571Y16072D01*
X13604Y16105D01*
X13702D01*
X13899Y16170D02*
X13800D01*
X13768Y16138D01*
Y16072D01*
X13800Y16039D01*
X13899D01*
X14063D02*
X13997D01*
X13964Y16072D01*
Y16138D01*
X13997Y16170D01*
X14063D01*
X14095Y16138D01*
Y16105D01*
X13964D01*
X13177Y15840D02*
Y15741D01*
X13210Y15709D01*
X13243Y15741D01*
X13276Y15709D01*
X13308Y15741D01*
Y15840D01*
X13374Y15709D02*
X13440D01*
X13407D01*
Y15840D01*
X13374D01*
X13669Y15905D02*
Y15709D01*
X13571D01*
X13538Y15741D01*
Y15807D01*
X13571Y15840D01*
X13669D01*
X13768Y15873D02*
Y15840D01*
X13735D01*
X13800D01*
X13768D01*
Y15741D01*
X13800Y15709D01*
X13899Y15905D02*
Y15709D01*
Y15807D01*
X13932Y15840D01*
X13997D01*
X14030Y15807D01*
Y15709D01*
X14453Y16418D02*
Y16596D01*
X14512Y16537D01*
X14571Y16596D01*
Y16418D01*
X14659Y16537D02*
X14718D01*
X14748Y16507D01*
Y16418D01*
X14659D01*
X14630Y16448D01*
X14659Y16478D01*
X14748D01*
X14807Y16537D02*
X14925Y16418D01*
X14866Y16478D01*
X14925Y16537D01*
X14807Y16418D01*
X15161D02*
Y16537D01*
X15220Y16596D01*
X15279Y16537D01*
Y16418D01*
Y16507D01*
X15161D01*
X15338Y16418D02*
Y16537D01*
X15368D01*
X15397Y16507D01*
Y16418D01*
Y16507D01*
X15427Y16537D01*
X15456Y16507D01*
Y16418D01*
X15515Y16359D02*
Y16537D01*
X15604D01*
X15633Y16507D01*
Y16448D01*
X15604Y16418D01*
X15515D01*
X15693D02*
X15781D01*
X15811Y16448D01*
X15781Y16478D01*
X15722D01*
X15693Y16507D01*
X15722Y16537D01*
X15811D01*
X14541Y16111D02*
Y16141D01*
X14512D01*
Y16111D01*
X14541D01*
X14571Y16141D01*
Y16200D01*
X14541Y16230D01*
X14482D01*
X14453Y16200D01*
Y16082D01*
X14482Y16052D01*
X14571D01*
X14807D02*
X14866D01*
X14836D01*
Y16230D01*
X14807Y16200D01*
X14955D02*
X14984Y16230D01*
X15043D01*
X15073Y16200D01*
Y16082D01*
X15043Y16052D01*
X14984D01*
X14955Y16082D01*
Y16200D01*
X15250Y16230D02*
Y16052D01*
X15161D01*
X15132Y16082D01*
Y16141D01*
X15161Y16171D01*
X15250D01*
X15397Y16052D02*
X15338D01*
X15309Y16082D01*
Y16141D01*
X15338Y16171D01*
X15397D01*
X15427Y16141D01*
Y16111D01*
X15309D01*
X15545Y15993D02*
X15574D01*
X15604Y16023D01*
Y16171D01*
X15515D01*
X15486Y16141D01*
Y16082D01*
X15515Y16052D01*
X15604D01*
X15958Y16200D02*
X15929Y16230D01*
X15870D01*
X15840Y16200D01*
Y16082D01*
X15870Y16052D01*
X15929D01*
X15958Y16082D01*
X14453Y15686D02*
Y15863D01*
X14541D01*
X14571Y15834D01*
Y15775D01*
X14541Y15745D01*
X14453D01*
X14512D02*
X14571Y15686D01*
X14630D02*
X14689D01*
X14659D01*
Y15804D01*
X14630D01*
X14777Y15686D02*
X14866D01*
X14896Y15716D01*
X14866Y15745D01*
X14807D01*
X14777Y15775D01*
X14807Y15804D01*
X14896D01*
X15043Y15686D02*
X14984D01*
X14955Y15716D01*
Y15775D01*
X14984Y15804D01*
X15043D01*
X15073Y15775D01*
Y15745D01*
X14955D01*
X13110Y13504D02*
Y13537D01*
X13143D01*
Y13504D01*
X13110D01*
X13274D02*
X13340D01*
X13307D01*
Y13701D01*
X13274Y13668D01*
X13569Y13504D02*
X13438D01*
X13569Y13635D01*
Y13668D01*
X13537Y13701D01*
X13471D01*
X13438Y13668D01*
X13635Y13701D02*
X13766D01*
Y13668D01*
X13635Y13537D01*
Y13504D01*
X13832D02*
Y13635D01*
X13865D01*
X13897Y13602D01*
Y13504D01*
Y13602D01*
X13930Y13635D01*
X13963Y13602D01*
Y13504D01*
X14029D02*
Y13635D01*
X14061D01*
X14094Y13602D01*
Y13504D01*
Y13602D01*
X14127Y13635D01*
X14160Y13602D01*
Y13504D01*
X13110Y13819D02*
Y13852D01*
X13143D01*
Y13819D01*
X13110D01*
X13405D02*
X13274D01*
X13405Y13950D01*
Y13983D01*
X13373Y14016D01*
X13307D01*
X13274Y13983D01*
X13602Y14016D02*
X13471D01*
Y13917D01*
X13537Y13950D01*
X13569D01*
X13602Y13917D01*
Y13852D01*
X13569Y13819D01*
X13504D01*
X13471Y13852D01*
X13766Y13819D02*
Y14016D01*
X13668Y13917D01*
X13799D01*
X13865Y13819D02*
Y13950D01*
X13897D01*
X13930Y13917D01*
Y13819D01*
Y13917D01*
X13963Y13950D01*
X13996Y13917D01*
Y13819D01*
X14061D02*
Y13950D01*
X14094D01*
X14127Y13917D01*
Y13819D01*
Y13917D01*
X14160Y13950D01*
X14193Y13917D01*
Y13819D01*
X13110Y14094D02*
Y14127D01*
X13143D01*
Y14094D01*
X13110D01*
X13274Y14258D02*
X13307Y14291D01*
X13373D01*
X13405Y14258D01*
Y14226D01*
X13373Y14193D01*
X13340D01*
X13373D01*
X13405Y14160D01*
Y14127D01*
X13373Y14094D01*
X13307D01*
X13274Y14127D01*
X13471Y14258D02*
X13504Y14291D01*
X13569D01*
X13602Y14258D01*
Y14127D01*
X13569Y14094D01*
X13504D01*
X13471Y14127D01*
Y14258D01*
X13799Y14291D02*
X13668D01*
Y14193D01*
X13733Y14226D01*
X13766D01*
X13799Y14193D01*
Y14127D01*
X13766Y14094D01*
X13701D01*
X13668Y14127D01*
X13865Y14094D02*
Y14226D01*
X13897D01*
X13930Y14193D01*
Y14094D01*
Y14193D01*
X13963Y14226D01*
X13996Y14193D01*
Y14094D01*
X14061D02*
Y14226D01*
X14094D01*
X14127Y14193D01*
Y14094D01*
Y14193D01*
X14160Y14226D01*
X14193Y14193D01*
Y14094D01*
X13110Y14370D02*
Y14403D01*
X13143D01*
Y14370D01*
X13110D01*
X13274Y14534D02*
X13307Y14567D01*
X13373D01*
X13405Y14534D01*
Y14501D01*
X13373Y14468D01*
X13340D01*
X13373D01*
X13405Y14436D01*
Y14403D01*
X13373Y14370D01*
X13307D01*
X13274Y14403D01*
X13471Y14534D02*
X13504Y14567D01*
X13569D01*
X13602Y14534D01*
Y14501D01*
X13569Y14468D01*
X13602Y14436D01*
Y14403D01*
X13569Y14370D01*
X13504D01*
X13471Y14403D01*
Y14436D01*
X13504Y14468D01*
X13471Y14501D01*
Y14534D01*
X13504Y14468D02*
X13569D01*
X13668Y14370D02*
X13733D01*
X13701D01*
Y14567D01*
X13668Y14534D01*
X13832Y14370D02*
Y14501D01*
X13865D01*
X13897Y14468D01*
Y14370D01*
Y14468D01*
X13930Y14501D01*
X13963Y14468D01*
Y14370D01*
X14029D02*
Y14501D01*
X14061D01*
X14094Y14468D01*
Y14370D01*
Y14468D01*
X14127Y14501D01*
X14160Y14468D01*
Y14370D01*
X13110Y14685D02*
Y14718D01*
X13143D01*
Y14685D01*
X13110D01*
X13405Y14882D02*
X13274D01*
Y14783D01*
X13340Y14816D01*
X13373D01*
X13405Y14783D01*
Y14718D01*
X13373Y14685D01*
X13307D01*
X13274Y14718D01*
X13471Y14849D02*
X13504Y14882D01*
X13569D01*
X13602Y14849D01*
Y14718D01*
X13569Y14685D01*
X13504D01*
X13471Y14718D01*
Y14849D01*
X13668D02*
X13701Y14882D01*
X13766D01*
X13799Y14849D01*
Y14816D01*
X13766Y14783D01*
X13799Y14751D01*
Y14718D01*
X13766Y14685D01*
X13701D01*
X13668Y14718D01*
Y14751D01*
X13701Y14783D01*
X13668Y14816D01*
Y14849D01*
X13701Y14783D02*
X13766D01*
X13865Y14685D02*
Y14816D01*
X13897D01*
X13930Y14783D01*
Y14685D01*
Y14783D01*
X13963Y14816D01*
X13996Y14783D01*
Y14685D01*
X14061D02*
Y14816D01*
X14094D01*
X14127Y14783D01*
Y14685D01*
Y14783D01*
X14160Y14816D01*
X14193Y14783D01*
Y14685D01*
X13110Y15000D02*
Y15033D01*
X13143D01*
Y15000D01*
X13110D01*
X13405Y15197D02*
X13340Y15164D01*
X13274Y15098D01*
Y15033D01*
X13307Y15000D01*
X13373D01*
X13405Y15033D01*
Y15066D01*
X13373Y15098D01*
X13274D01*
X13471Y15164D02*
X13504Y15197D01*
X13569D01*
X13602Y15164D01*
Y15131D01*
X13569Y15098D01*
X13537D01*
X13569D01*
X13602Y15066D01*
Y15033D01*
X13569Y15000D01*
X13504D01*
X13471Y15033D01*
X13799Y15197D02*
X13668D01*
Y15098D01*
X13733Y15131D01*
X13766D01*
X13799Y15098D01*
Y15033D01*
X13766Y15000D01*
X13701D01*
X13668Y15033D01*
X13865Y15000D02*
Y15131D01*
X13897D01*
X13930Y15098D01*
Y15000D01*
Y15098D01*
X13963Y15131D01*
X13996Y15098D01*
Y15000D01*
X14061D02*
Y15131D01*
X14094D01*
X14127Y15098D01*
Y15000D01*
Y15098D01*
X14160Y15131D01*
X14193Y15098D01*
Y15000D01*
X13142Y15346D02*
X13207D01*
X13175D01*
Y15543D01*
X13142Y15510D01*
X13306Y15346D02*
Y15379D01*
X13339D01*
Y15346D01*
X13306D01*
X13601D02*
X13470D01*
X13601Y15478D01*
Y15510D01*
X13568Y15543D01*
X13503D01*
X13470Y15510D01*
X13666Y15543D02*
X13798D01*
Y15510D01*
X13666Y15379D01*
Y15346D01*
X13863D02*
Y15478D01*
X13896D01*
X13929Y15445D01*
Y15346D01*
Y15445D01*
X13962Y15478D01*
X13994Y15445D01*
Y15346D01*
X14060D02*
Y15478D01*
X14093D01*
X14126Y15445D01*
Y15346D01*
Y15445D01*
X14158Y15478D01*
X14191Y15445D01*
Y15346D01*
X14445Y13520D02*
Y13552D01*
X14478D01*
Y13520D01*
X14445D01*
X14740Y13716D02*
X14674Y13684D01*
X14609Y13618D01*
Y13552D01*
X14642Y13520D01*
X14707D01*
X14740Y13552D01*
Y13585D01*
X14707Y13618D01*
X14609D01*
X14453Y13839D02*
Y13871D01*
X14486D01*
Y13839D01*
X14453D01*
X14617Y13871D02*
X14650Y13839D01*
X14715D01*
X14748Y13871D01*
Y14003D01*
X14715Y14035D01*
X14650D01*
X14617Y14003D01*
Y13970D01*
X14650Y13937D01*
X14748D01*
X14453Y14098D02*
X14518D01*
X14486D01*
Y14295D01*
X14453Y14262D01*
X14457Y14366D02*
X14522D01*
X14489D01*
Y14563D01*
X14457Y14530D01*
X14621Y14366D02*
Y14399D01*
X14653D01*
Y14366D01*
X14621D01*
X14916D02*
X14785D01*
X14916Y14497D01*
Y14530D01*
X14883Y14563D01*
X14817D01*
X14785Y14530D01*
X14461Y14634D02*
X14526D01*
X14493D01*
Y14831D01*
X14461Y14798D01*
X14625Y14634D02*
Y14667D01*
X14657D01*
Y14634D01*
X14625D01*
X14920Y14831D02*
X14789D01*
Y14732D01*
X14854Y14765D01*
X14887D01*
X14920Y14732D01*
Y14667D01*
X14887Y14634D01*
X14821D01*
X14789Y14667D01*
X14468Y14972D02*
X14534D01*
X14501D01*
Y15169D01*
X14468Y15136D01*
X14632Y14972D02*
Y15005D01*
X14665D01*
Y14972D01*
X14632D01*
X14796Y15169D02*
X14928D01*
Y15136D01*
X14796Y15005D01*
Y14972D01*
X14592Y15343D02*
X14461D01*
X14592Y15474D01*
Y15507D01*
X14559Y15539D01*
X14493D01*
X14461Y15507D01*
X14657Y15343D02*
Y15375D01*
X14690D01*
Y15343D01*
X14657D01*
X14821Y15375D02*
X14854Y15343D01*
X14920D01*
X14953Y15375D01*
Y15507D01*
X14920Y15539D01*
X14854D01*
X14821Y15507D01*
Y15474D01*
X14854Y15441D01*
X14953D01*
X13071Y19291D02*
X13136D01*
X13104D01*
Y19488D01*
X13071Y19455D01*
X13235Y19291D02*
Y19423D01*
X13268D01*
X13300Y19390D01*
Y19291D01*
Y19390D01*
X13333Y19423D01*
X13366Y19390D01*
Y19291D01*
X13432D02*
Y19423D01*
X13464D01*
X13497Y19390D01*
Y19291D01*
Y19390D01*
X13530Y19423D01*
X13563Y19390D01*
Y19291D01*
X13628Y19390D02*
X13694Y19455D01*
X13760Y19390D01*
X13956Y19291D02*
X13825D01*
X13956Y19423D01*
Y19455D01*
X13924Y19488D01*
X13858D01*
X13825Y19455D01*
D36*
X8858Y26535D02*
X8711D01*
X8661Y26486D01*
Y26388D01*
X8711Y26339D01*
X8858D01*
X8957D02*
Y26535D01*
X9006D01*
X9055Y26486D01*
Y26339D01*
Y26486D01*
X9104Y26535D01*
X9153Y26486D01*
Y26339D01*
X12559Y18740D02*
X12651D01*
X12605D01*
Y19016D01*
X12559Y18970D01*
X12972Y18924D02*
X12835D01*
X12789Y18878D01*
Y18786D01*
X12835Y18740D01*
X12972D01*
X13064D02*
Y18924D01*
X13110D01*
X13156Y18878D01*
Y18740D01*
Y18878D01*
X13202Y18924D01*
X13248Y18878D01*
Y18740D01*
X13340Y18878D02*
X13431Y18970D01*
X13523Y18878D01*
X13799Y18740D02*
X13615D01*
X13799Y18924D01*
Y18970D01*
X13753Y19016D01*
X13661D01*
X13615Y18970D01*
D37*
X8600Y12661D02*
X8731D01*
X8666D01*
Y12923D01*
X8600D01*
X8928Y12661D02*
Y12923D01*
X9125D01*
X9190Y12857D01*
Y12661D01*
D38*
X10472Y20709D02*
D03*
D39*
X12795Y19449D02*
D03*
D40*
X8854Y23543D02*
D03*
X8894Y23504D02*
D03*
D41*
X11854Y23543D02*
D03*
X11894Y23504D02*
D03*
M02*
