M48
;Layer_Color=6321
;FILE_FORMAT=2:4
INCH,TZ
;TYPE=PLATED
T1F00S00C0.0400
T2F00S00C0.0472
T3F00S00C0.0512
T4F00S00C0.1024
T5F00S00C0.1260
%
T01
X16339Y20197
X17339
X18339
X19339
X20339
X21339
X22339
X23339
X24339
X25339
X26339
X27339
X28339
X29339
X30339
Y30197
X29339
X28339
X27339
X26339
X25339
X24339
X23339
X22339
X21339
X20339
X19339
X18339
X17339
X16339
T02
X16732Y21654
Y22654
Y26654
Y28654
X22047
Y26654
Y22654
Y21654
X26969
Y22654
Y26654
Y28654
T03
X14961Y13976
X16929
X18898
X21654
X23622
X25591
X28346
X30315
X32283
T04
X35433Y22047
Y24016
X29134Y26181
Y28150
X24213
Y26181
X19291
Y28150
T05
X11811Y13780
X35433
Y29528
X11811
M30
