G04 Layer_Color=15132400*
%FSLAX24Y24*%
%MOIN*%
G70*
G01*
G75*
%ADD13C,0.0079*%
%ADD31C,0.0100*%
%ADD32C,0.0060*%
%ADD33C,0.0050*%
%ADD34C,0.0059*%
%ADD35R,0.0351X0.0004*%
%ADD36R,0.0595X0.0004*%
%ADD37R,0.0280X0.0004*%
%ADD38R,0.0429X0.0004*%
%ADD39R,0.0082X0.0004*%
%ADD40R,0.0397X0.0004*%
%ADD41R,0.0638X0.0004*%
%ADD42R,0.0280X0.0004*%
%ADD43R,0.0471X0.0004*%
%ADD44R,0.0170X0.0004*%
%ADD45R,0.0425X0.0004*%
%ADD46R,0.0663X0.0004*%
%ADD47R,0.0496X0.0004*%
%ADD48R,0.0227X0.0004*%
%ADD49R,0.0450X0.0004*%
%ADD50R,0.0687X0.0004*%
%ADD51R,0.0521X0.0004*%
%ADD52R,0.0269X0.0004*%
%ADD53R,0.0464X0.0004*%
%ADD54R,0.0705X0.0004*%
%ADD55R,0.0539X0.0004*%
%ADD56R,0.0301X0.0004*%
%ADD57R,0.0482X0.0004*%
%ADD58R,0.0719X0.0004*%
%ADD59R,0.0556X0.0004*%
%ADD60R,0.0333X0.0004*%
%ADD61R,0.0737X0.0004*%
%ADD62R,0.0571X0.0004*%
%ADD63R,0.0361X0.0004*%
%ADD64R,0.0514X0.0004*%
%ADD65R,0.0748X0.0004*%
%ADD66R,0.0581X0.0004*%
%ADD67R,0.0390X0.0004*%
%ADD68R,0.0525X0.0004*%
%ADD69R,0.0758X0.0004*%
%ADD70R,0.0595X0.0004*%
%ADD71R,0.0408X0.0004*%
%ADD72R,0.0535X0.0004*%
%ADD73R,0.0772X0.0004*%
%ADD74R,0.0606X0.0004*%
%ADD75R,0.0429X0.0004*%
%ADD76R,0.0546X0.0004*%
%ADD77R,0.0780X0.0004*%
%ADD78R,0.0617X0.0004*%
%ADD79R,0.0556X0.0004*%
%ADD80R,0.0790X0.0004*%
%ADD81R,0.0627X0.0004*%
%ADD82R,0.0471X0.0004*%
%ADD83R,0.0567X0.0004*%
%ADD84R,0.0797X0.0004*%
%ADD85R,0.0634X0.0004*%
%ADD86R,0.0493X0.0004*%
%ADD87R,0.0574X0.0004*%
%ADD88R,0.0808X0.0004*%
%ADD89R,0.0645X0.0004*%
%ADD90R,0.0507X0.0004*%
%ADD91R,0.0585X0.0004*%
%ADD92R,0.0815X0.0004*%
%ADD93R,0.0652X0.0004*%
%ADD94R,0.0524X0.0004*%
%ADD95R,0.0592X0.0004*%
%ADD96R,0.0822X0.0004*%
%ADD97R,0.0659X0.0004*%
%ADD98R,0.0539X0.0004*%
%ADD99R,0.0599X0.0004*%
%ADD100R,0.0826X0.0004*%
%ADD101R,0.0666X0.0004*%
%ADD102R,0.0553X0.0004*%
%ADD103R,0.0606X0.0004*%
%ADD104R,0.0833X0.0004*%
%ADD105R,0.0673X0.0004*%
%ADD106R,0.0567X0.0004*%
%ADD107R,0.0617X0.0004*%
%ADD108R,0.0840X0.0004*%
%ADD109R,0.0680X0.0004*%
%ADD110R,0.0624X0.0004*%
%ADD111R,0.0847X0.0004*%
%ADD112R,0.0688X0.0004*%
%ADD113R,0.0599X0.0004*%
%ADD114R,0.0631X0.0004*%
%ADD115R,0.0850X0.0004*%
%ADD116R,0.0695X0.0004*%
%ADD117R,0.0610X0.0004*%
%ADD118R,0.0638X0.0004*%
%ADD119R,0.0858X0.0004*%
%ADD120R,0.0698X0.0004*%
%ADD121R,0.0624X0.0004*%
%ADD122R,0.0641X0.0004*%
%ADD123R,0.0861X0.0004*%
%ADD124R,0.0705X0.0004*%
%ADD125R,0.0648X0.0004*%
%ADD126R,0.0868X0.0004*%
%ADD127R,0.0712X0.0004*%
%ADD128R,0.0656X0.0004*%
%ADD129R,0.0872X0.0004*%
%ADD130R,0.0716X0.0004*%
%ADD131R,0.0875X0.0004*%
%ADD132R,0.0723X0.0004*%
%ADD133R,0.0666X0.0004*%
%ADD134R,0.0666X0.0004*%
%ADD135R,0.0879X0.0004*%
%ADD136R,0.0726X0.0004*%
%ADD137R,0.0680X0.0004*%
%ADD138R,0.0673X0.0004*%
%ADD139R,0.0886X0.0004*%
%ADD140R,0.0730X0.0004*%
%ADD141R,0.0680X0.0004*%
%ADD142R,0.0889X0.0004*%
%ADD143R,0.0737X0.0004*%
%ADD144R,0.0702X0.0004*%
%ADD145R,0.0684X0.0004*%
%ADD146R,0.0893X0.0004*%
%ADD147R,0.0741X0.0004*%
%ADD148R,0.0712X0.0004*%
%ADD149R,0.0691X0.0004*%
%ADD150R,0.0896X0.0004*%
%ADD151R,0.0744X0.0004*%
%ADD152R,0.0695X0.0004*%
%ADD153R,0.0900X0.0004*%
%ADD154R,0.0751X0.0004*%
%ADD155R,0.0730X0.0004*%
%ADD156R,0.0904X0.0004*%
%ADD157R,0.0755X0.0004*%
%ADD158R,0.0907X0.0004*%
%ADD159R,0.0758X0.0004*%
%ADD160R,0.0709X0.0004*%
%ADD161R,0.0911X0.0004*%
%ADD162R,0.0762X0.0004*%
%ADD163R,0.0758X0.0004*%
%ADD164R,0.0914X0.0004*%
%ADD165R,0.0765X0.0004*%
%ADD166R,0.0765X0.0004*%
%ADD167R,0.0719X0.0004*%
%ADD168R,0.0918X0.0004*%
%ADD169R,0.0769X0.0004*%
%ADD170R,0.0776X0.0004*%
%ADD171R,0.0773X0.0004*%
%ADD172R,0.0787X0.0004*%
%ADD173R,0.0730X0.0004*%
%ADD174R,0.0921X0.0004*%
%ADD175R,0.0776X0.0004*%
%ADD176R,0.0794X0.0004*%
%ADD177R,0.0734X0.0004*%
%ADD178R,0.0925X0.0004*%
%ADD179R,0.0780X0.0004*%
%ADD180R,0.0804X0.0004*%
%ADD181R,0.0928X0.0004*%
%ADD182R,0.0783X0.0004*%
%ADD183R,0.0811X0.0004*%
%ADD184R,0.0928X0.0004*%
%ADD185R,0.0787X0.0004*%
%ADD186R,0.0818X0.0004*%
%ADD187R,0.0744X0.0004*%
%ADD188R,0.0932X0.0004*%
%ADD189R,0.0787X0.0004*%
%ADD190R,0.0826X0.0004*%
%ADD191R,0.0748X0.0004*%
%ADD192R,0.0935X0.0004*%
%ADD193R,0.0790X0.0004*%
%ADD194R,0.0833X0.0004*%
%ADD195R,0.0794X0.0004*%
%ADD196R,0.0840X0.0004*%
%ADD197R,0.0939X0.0004*%
%ADD198R,0.0797X0.0004*%
%ADD199R,0.0943X0.0004*%
%ADD200R,0.0801X0.0004*%
%ADD201R,0.0854X0.0004*%
%ADD202R,0.0943X0.0004*%
%ADD203R,0.0804X0.0004*%
%ADD204R,0.0946X0.0004*%
%ADD205R,0.0773X0.0004*%
%ADD206R,0.0946X0.0004*%
%ADD207R,0.0808X0.0004*%
%ADD208R,0.0875X0.0004*%
%ADD209R,0.0950X0.0004*%
%ADD210R,0.0808X0.0004*%
%ADD211R,0.0882X0.0004*%
%ADD212R,0.0812X0.0004*%
%ADD213R,0.0889X0.0004*%
%ADD214R,0.0953X0.0004*%
%ADD215R,0.0815X0.0004*%
%ADD216R,0.0896X0.0004*%
%ADD217R,0.0953X0.0004*%
%ADD218R,0.0815X0.0004*%
%ADD219R,0.0904X0.0004*%
%ADD220R,0.0790X0.0004*%
%ADD221R,0.0957X0.0004*%
%ADD222R,0.0819X0.0004*%
%ADD223R,0.0794X0.0004*%
%ADD224R,0.0957X0.0004*%
%ADD225R,0.0822X0.0004*%
%ADD226R,0.0960X0.0004*%
%ADD227R,0.0822X0.0004*%
%ADD228R,0.0918X0.0004*%
%ADD229R,0.0960X0.0004*%
%ADD230R,0.0932X0.0004*%
%ADD231R,0.0964X0.0004*%
%ADD232R,0.0829X0.0004*%
%ADD233R,0.0964X0.0004*%
%ADD234R,0.0829X0.0004*%
%ADD235R,0.0812X0.0004*%
%ADD236R,0.0443X0.0004*%
%ADD237R,0.0950X0.0004*%
%ADD238R,0.0415X0.0004*%
%ADD239R,0.0439X0.0004*%
%ADD240R,0.0953X0.0004*%
%ADD241R,0.0818X0.0004*%
%ADD242R,0.0411X0.0004*%
%ADD243R,0.0386X0.0004*%
%ADD244R,0.0376X0.0004*%
%ADD245R,0.0383X0.0004*%
%ADD246R,0.0971X0.0004*%
%ADD247R,0.0365X0.0004*%
%ADD248R,0.0372X0.0004*%
%ADD249R,0.0974X0.0004*%
%ADD250R,0.0358X0.0004*%
%ADD251R,0.0358X0.0004*%
%ADD252R,0.0982X0.0004*%
%ADD253R,0.0503X0.0004*%
%ADD254R,0.0354X0.0004*%
%ADD255R,0.0354X0.0004*%
%ADD256R,0.0454X0.0004*%
%ADD257R,0.0478X0.0004*%
%ADD258R,0.0347X0.0004*%
%ADD259R,0.0432X0.0004*%
%ADD260R,0.0461X0.0004*%
%ADD261R,0.0344X0.0004*%
%ADD262R,0.0340X0.0004*%
%ADD263R,0.0422X0.0004*%
%ADD264R,0.0418X0.0004*%
%ADD265R,0.0447X0.0004*%
%ADD266R,0.0340X0.0004*%
%ADD267R,0.0337X0.0004*%
%ADD268R,0.0408X0.0004*%
%ADD269R,0.0411X0.0004*%
%ADD270R,0.0436X0.0004*%
%ADD271R,0.0337X0.0004*%
%ADD272R,0.0330X0.0004*%
%ADD273R,0.0400X0.0004*%
%ADD274R,0.0333X0.0004*%
%ADD275R,0.0326X0.0004*%
%ADD276R,0.0393X0.0004*%
%ADD277R,0.0422X0.0004*%
%ADD278R,0.0330X0.0004*%
%ADD279R,0.0326X0.0004*%
%ADD280R,0.0411X0.0004*%
%ADD281R,0.0326X0.0004*%
%ADD282R,0.0319X0.0004*%
%ADD283R,0.0404X0.0004*%
%ADD284R,0.0322X0.0004*%
%ADD285R,0.0315X0.0004*%
%ADD286R,0.0379X0.0004*%
%ADD287R,0.0376X0.0004*%
%ADD288R,0.0315X0.0004*%
%ADD289R,0.0372X0.0004*%
%ADD290R,0.0372X0.0004*%
%ADD291R,0.0319X0.0004*%
%ADD292R,0.0312X0.0004*%
%ADD293R,0.0369X0.0004*%
%ADD294R,0.0390X0.0004*%
%ADD295R,0.0308X0.0004*%
%ADD296R,0.0361X0.0004*%
%ADD297R,0.0315X0.0004*%
%ADD298R,0.0308X0.0004*%
%ADD299R,0.0305X0.0004*%
%ADD300R,0.0354X0.0004*%
%ADD301R,0.0376X0.0004*%
%ADD302R,0.0312X0.0004*%
%ADD303R,0.0305X0.0004*%
%ADD304R,0.0369X0.0004*%
%ADD305R,0.0301X0.0004*%
%ADD306R,0.0347X0.0004*%
%ADD307R,0.0347X0.0004*%
%ADD308R,0.0298X0.0004*%
%ADD309R,0.0344X0.0004*%
%ADD310R,0.0298X0.0004*%
%ADD311R,0.0294X0.0004*%
%ADD312R,0.0340X0.0004*%
%ADD313R,0.0298X0.0004*%
%ADD314R,0.0298X0.0004*%
%ADD315R,0.0337X0.0004*%
%ADD316R,0.0354X0.0004*%
%ADD317R,0.0333X0.0004*%
%ADD318R,0.0294X0.0004*%
%ADD319R,0.0333X0.0004*%
%ADD320R,0.0347X0.0004*%
%ADD321R,0.0291X0.0004*%
%ADD322R,0.0322X0.0004*%
%ADD323R,0.0323X0.0004*%
%ADD324R,0.0323X0.0004*%
%ADD325R,0.0315X0.0004*%
%ADD326R,0.0312X0.0004*%
%ADD327R,0.0305X0.0004*%
%ADD328R,0.0312X0.0004*%
%ADD329R,0.0291X0.0004*%
%ADD330R,0.0308X0.0004*%
%ADD331R,0.0308X0.0004*%
%ADD332R,0.0291X0.0004*%
%ADD333R,0.0291X0.0004*%
%ADD334R,0.0340X0.0004*%
%ADD335R,0.0358X0.0004*%
%ADD336R,0.0305X0.0004*%
%ADD337R,0.0365X0.0004*%
%ADD338R,0.0379X0.0004*%
%ADD339R,0.0393X0.0004*%
%ADD340R,0.0400X0.0004*%
%ADD341R,0.0404X0.0004*%
%ADD342R,0.0301X0.0004*%
%ADD343R,0.0411X0.0004*%
%ADD344R,0.0415X0.0004*%
%ADD345R,0.0294X0.0004*%
%ADD346R,0.0436X0.0004*%
%ADD347R,0.0443X0.0004*%
%ADD348R,0.0446X0.0004*%
%ADD349R,0.0454X0.0004*%
%ADD350R,0.0468X0.0004*%
%ADD351R,0.0471X0.0004*%
%ADD352R,0.0478X0.0004*%
%ADD353R,0.0485X0.0004*%
%ADD354R,0.0503X0.0004*%
%ADD355R,0.0514X0.0004*%
%ADD356R,0.0521X0.0004*%
%ADD357R,0.0528X0.0004*%
%ADD358R,0.0539X0.0004*%
%ADD359R,0.0542X0.0004*%
%ADD360R,0.0553X0.0004*%
%ADD361R,0.0811X0.0004*%
%ADD362R,0.0560X0.0004*%
%ADD363R,0.0804X0.0004*%
%ADD364R,0.0563X0.0004*%
%ADD365R,0.0801X0.0004*%
%ADD366R,0.0563X0.0004*%
%ADD367R,0.0797X0.0004*%
%ADD368R,0.0567X0.0004*%
%ADD369R,0.0571X0.0004*%
%ADD370R,0.0574X0.0004*%
%ADD371R,0.0578X0.0004*%
%ADD372R,0.0780X0.0004*%
%ADD373R,0.0578X0.0004*%
%ADD374R,0.0581X0.0004*%
%ADD375R,0.0581X0.0004*%
%ADD376R,0.0769X0.0004*%
%ADD377R,0.0585X0.0004*%
%ADD378R,0.0765X0.0004*%
%ADD379R,0.0585X0.0004*%
%ADD380R,0.0755X0.0004*%
%ADD381R,0.0585X0.0004*%
%ADD382R,0.0751X0.0004*%
%ADD383R,0.0737X0.0004*%
%ADD384R,0.0730X0.0004*%
%ADD385R,0.0726X0.0004*%
%ADD386R,0.0705X0.0004*%
%ADD387R,0.0702X0.0004*%
%ADD388R,0.0574X0.0004*%
%ADD389R,0.0687X0.0004*%
%ADD390R,0.0670X0.0004*%
%ADD391R,0.0656X0.0004*%
%ADD392R,0.0553X0.0004*%
%ADD393R,0.0549X0.0004*%
%ADD394R,0.0617X0.0004*%
%ADD395R,0.0542X0.0004*%
%ADD396R,0.0617X0.0004*%
%ADD397R,0.0539X0.0004*%
%ADD398R,0.0528X0.0004*%
%ADD399R,0.0641X0.0004*%
%ADD400R,0.0521X0.0004*%
%ADD401R,0.0648X0.0004*%
%ADD402R,0.0517X0.0004*%
%ADD403R,0.0507X0.0004*%
%ADD404R,0.0500X0.0004*%
%ADD405R,0.0493X0.0004*%
%ADD406R,0.0673X0.0004*%
%ADD407R,0.0489X0.0004*%
%ADD408R,0.0677X0.0004*%
%ADD409R,0.0482X0.0004*%
%ADD410R,0.0475X0.0004*%
%ADD411R,0.0691X0.0004*%
%ADD412R,0.0276X0.0004*%
%ADD413R,0.0457X0.0004*%
%ADD414R,0.0698X0.0004*%
%ADD415R,0.0450X0.0004*%
%ADD416R,0.0276X0.0004*%
%ADD417R,0.0447X0.0004*%
%ADD418R,0.0436X0.0004*%
%ADD419R,0.0709X0.0004*%
%ADD420R,0.0283X0.0004*%
%ADD421R,0.0429X0.0004*%
%ADD422R,0.0716X0.0004*%
%ADD423R,0.0301X0.0004*%
%ADD424R,0.0723X0.0004*%
%ADD425R,0.0397X0.0004*%
%ADD426R,0.0383X0.0004*%
%ADD427R,0.0330X0.0004*%
%ADD428R,0.0376X0.0004*%
%ADD429R,0.0284X0.0004*%
%ADD430R,0.0284X0.0004*%
%ADD431R,0.0280X0.0004*%
%ADD432R,0.0280X0.0004*%
%ADD433R,0.0283X0.0004*%
%ADD434R,0.0330X0.0004*%
%ADD435R,0.0287X0.0004*%
%ADD436R,0.0287X0.0004*%
%ADD437R,0.0326X0.0004*%
%ADD438R,0.0365X0.0004*%
%ADD439R,0.0351X0.0004*%
%ADD440R,0.0386X0.0004*%
%ADD441R,0.0351X0.0004*%
%ADD442R,0.0404X0.0004*%
%ADD443R,0.0372X0.0004*%
%ADD444R,0.0418X0.0004*%
%ADD445R,0.0379X0.0004*%
%ADD446R,0.0390X0.0004*%
%ADD447R,0.0358X0.0004*%
%ADD448R,0.0407X0.0004*%
%ADD449R,0.0475X0.0004*%
%ADD450R,0.0383X0.0004*%
%ADD451R,0.0496X0.0004*%
%ADD452R,0.0432X0.0004*%
%ADD453R,0.0439X0.0004*%
%ADD454R,0.0454X0.0004*%
%ADD455R,0.0461X0.0004*%
%ADD456R,0.0861X0.0004*%
%ADD457R,0.0425X0.0004*%
%ADD458R,0.0904X0.0004*%
%ADD459R,0.0982X0.0004*%
%ADD460R,0.0861X0.0004*%
%ADD461R,0.0858X0.0004*%
%ADD462R,0.0429X0.0004*%
%ADD463R,0.0974X0.0004*%
%ADD464R,0.0967X0.0004*%
%ADD465R,0.0960X0.0004*%
%ADD466R,0.0850X0.0004*%
%ADD467R,0.0889X0.0004*%
%ADD468R,0.0847X0.0004*%
%ADD469R,0.0921X0.0004*%
%ADD470R,0.0843X0.0004*%
%ADD471R,0.0882X0.0004*%
%ADD472R,0.0925X0.0004*%
%ADD473R,0.0946X0.0004*%
%ADD474R,0.0843X0.0004*%
%ADD475R,0.0939X0.0004*%
%ADD476R,0.0840X0.0004*%
%ADD477R,0.0928X0.0004*%
%ADD478R,0.0836X0.0004*%
%ADD479R,0.0833X0.0004*%
%ADD480R,0.0432X0.0004*%
%ADD481R,0.0865X0.0004*%
%ADD482R,0.0932X0.0004*%
%ADD483R,0.0932X0.0004*%
%ADD484R,0.0918X0.0004*%
%ADD485R,0.0436X0.0004*%
%ADD486R,0.0911X0.0004*%
%ADD487R,0.0935X0.0004*%
%ADD488R,0.0904X0.0004*%
%ADD489R,0.0935X0.0004*%
%ADD490R,0.0897X0.0004*%
%ADD491R,0.0439X0.0004*%
%ADD492R,0.0836X0.0004*%
%ADD493R,0.0882X0.0004*%
%ADD494R,0.0829X0.0004*%
%ADD495R,0.0939X0.0004*%
%ADD496R,0.0868X0.0004*%
%ADD497R,0.0822X0.0004*%
%ADD498R,0.0861X0.0004*%
%ADD499R,0.0443X0.0004*%
%ADD500R,0.0854X0.0004*%
%ADD501R,0.0797X0.0004*%
%ADD502R,0.0840X0.0004*%
%ADD503R,0.0946X0.0004*%
%ADD504R,0.0783X0.0004*%
%ADD505R,0.0772X0.0004*%
%ADD506R,0.0804X0.0004*%
%ADD507R,0.0457X0.0004*%
%ADD508R,0.0787X0.0004*%
%ADD509R,0.0461X0.0004*%
%ADD510R,0.0950X0.0004*%
%ADD511R,0.0758X0.0004*%
%ADD512R,0.0468X0.0004*%
%ADD513R,0.0723X0.0004*%
%ADD514R,0.0953X0.0004*%
%ADD515R,0.0740X0.0004*%
%ADD516R,0.0716X0.0004*%
%ADD517R,0.0734X0.0004*%
%ADD518R,0.0475X0.0004*%
%ADD519R,0.0723X0.0004*%
%ADD520R,0.0478X0.0004*%
%ADD521R,0.0680X0.0004*%
%ADD522R,0.0691X0.0004*%
%ADD523R,0.0486X0.0004*%
%ADD524R,0.0663X0.0004*%
%ADD525R,0.0670X0.0004*%
%ADD526R,0.0489X0.0004*%
%ADD527R,0.0656X0.0004*%
%ADD528R,0.0698X0.0004*%
%ADD529R,0.0641X0.0004*%
%ADD530R,0.0493X0.0004*%
%ADD531R,0.0634X0.0004*%
%ADD532R,0.0684X0.0004*%
%ADD533R,0.0500X0.0004*%
%ADD534R,0.0624X0.0004*%
%ADD535R,0.0620X0.0004*%
%ADD536R,0.0609X0.0004*%
%ADD537R,0.0613X0.0004*%
%ADD538R,0.0599X0.0004*%
%ADD539R,0.0659X0.0004*%
%ADD540R,0.0510X0.0004*%
%ADD541R,0.0648X0.0004*%
%ADD542R,0.0517X0.0004*%
%ADD543R,0.0560X0.0004*%
%ADD544R,0.0641X0.0004*%
%ADD545R,0.0549X0.0004*%
%ADD546R,0.0524X0.0004*%
%ADD547R,0.0535X0.0004*%
%ADD548R,0.0624X0.0004*%
%ADD549R,0.0528X0.0004*%
%ADD550R,0.0514X0.0004*%
%ADD551R,0.0500X0.0004*%
%ADD552R,0.0482X0.0004*%
%ADD553R,0.0546X0.0004*%
%ADD554R,0.0464X0.0004*%
%ADD555R,0.0400X0.0004*%
%ADD556R,0.0592X0.0004*%
%ADD557R,0.0921X0.0004*%
%ADD558R,0.0503X0.0004*%
%ADD559R,0.0914X0.0004*%
%ADD560R,0.0248X0.0004*%
%ADD561R,0.0907X0.0004*%
%ADD562R,0.0234X0.0004*%
%ADD563R,0.0195X0.0004*%
%ADD564R,0.0900X0.0004*%
%ADD565R,0.0184X0.0004*%
%ADD566R,0.0422X0.0004*%
%ADD567R,0.0131X0.0004*%
%ADD568R,0.0886X0.0004*%
%ADD569R,0.0120X0.0004*%
%ADD570R,0.0089X0.0004*%
%ADD571R,0.0092X0.0004*%
%ADD572R,0.0089X0.0004*%
%ADD573R,0.0035X0.0004*%
%ADD574R,0.0057X0.0004*%
%ADD575R,0.0092X0.0004*%
%ADD576R,0.0064X0.0004*%
%ADD577R,0.0078X0.0004*%
%ADD578R,0.0060X0.0004*%
%ADD579R,0.0085X0.0004*%
%ADD580R,0.0050X0.0004*%
%ADD581R,0.0113X0.0004*%
%ADD582R,0.0096X0.0004*%
%ADD583R,0.0145X0.0004*%
%ADD584R,0.0092X0.0004*%
%ADD585R,0.0181X0.0004*%
%ADD586R,0.0096X0.0004*%
%ADD587R,0.0128X0.0004*%
%ADD588R,0.0170X0.0004*%
%ADD589R,0.0099X0.0004*%
%ADD590R,0.0206X0.0004*%
%ADD591R,0.0096X0.0004*%
%ADD592R,0.0149X0.0004*%
%ADD593R,0.0188X0.0004*%
%ADD594R,0.0220X0.0004*%
%ADD595R,0.0191X0.0004*%
%ADD596R,0.0167X0.0004*%
%ADD597R,0.0202X0.0004*%
%ADD598R,0.0099X0.0004*%
%ADD599R,0.0230X0.0004*%
%ADD600R,0.0198X0.0004*%
%ADD601R,0.0184X0.0004*%
%ADD602R,0.0209X0.0004*%
%ADD603R,0.0106X0.0004*%
%ADD604R,0.0241X0.0004*%
%ADD605R,0.0199X0.0004*%
%ADD606R,0.0216X0.0004*%
%ADD607R,0.0106X0.0004*%
%ADD608R,0.0213X0.0004*%
%ADD609R,0.0223X0.0004*%
%ADD610R,0.0252X0.0004*%
%ADD611R,0.0227X0.0004*%
%ADD612R,0.0259X0.0004*%
%ADD613R,0.0223X0.0004*%
%ADD614R,0.0234X0.0004*%
%ADD615R,0.0234X0.0004*%
%ADD616R,0.0004X0.0004*%
%ADD617R,0.0262X0.0004*%
%ADD618R,0.0237X0.0004*%
%ADD619R,0.0103X0.0004*%
%ADD620R,0.0018X0.0004*%
%ADD621R,0.0266X0.0004*%
%ADD622R,0.0252X0.0004*%
%ADD623R,0.0028X0.0004*%
%ADD624R,0.0269X0.0004*%
%ADD625R,0.0234X0.0004*%
%ADD626R,0.0248X0.0004*%
%ADD627R,0.0043X0.0004*%
%ADD628R,0.0273X0.0004*%
%ADD629R,0.0237X0.0004*%
%ADD630R,0.0053X0.0004*%
%ADD631R,0.0241X0.0004*%
%ADD632R,0.0276X0.0004*%
%ADD633R,0.0255X0.0004*%
%ADD634R,0.0092X0.0004*%
%ADD635R,0.0067X0.0004*%
%ADD636R,0.0245X0.0004*%
%ADD637R,0.0078X0.0004*%
%ADD638R,0.0074X0.0004*%
%ADD639R,0.0039X0.0004*%
%ADD640R,0.0071X0.0004*%
%ADD641R,0.0135X0.0004*%
%ADD642R,0.0053X0.0004*%
%ADD643R,0.0124X0.0004*%
%ADD644R,0.0156X0.0004*%
%ADD645R,0.0124X0.0004*%
%ADD646R,0.0113X0.0004*%
%ADD647R,0.0142X0.0004*%
%ADD648R,0.0046X0.0004*%
%ADD649R,0.0145X0.0004*%
%ADD650R,0.0117X0.0004*%
%ADD651R,0.0032X0.0004*%
%ADD652R,0.0110X0.0004*%
%ADD653R,0.0131X0.0004*%
%ADD654R,0.0135X0.0004*%
%ADD655R,0.0035X0.0004*%
%ADD656R,0.0138X0.0004*%
%ADD657R,0.0110X0.0004*%
%ADD658R,0.0021X0.0004*%
%ADD659R,0.0025X0.0004*%
%ADD660R,0.0131X0.0004*%
%ADD661R,0.0110X0.0004*%
%ADD662R,0.0014X0.0004*%
%ADD663R,0.0103X0.0004*%
%ADD664R,0.0121X0.0004*%
%ADD665R,0.0018X0.0004*%
%ADD666R,0.0128X0.0004*%
%ADD667R,0.0007X0.0004*%
%ADD668R,0.0120X0.0004*%
%ADD669R,0.0011X0.0004*%
%ADD670R,0.0004X0.0004*%
%ADD671R,0.0117X0.0004*%
%ADD672R,0.0103X0.0004*%
%ADD673R,0.0113X0.0004*%
%ADD674R,0.0113X0.0004*%
%ADD675R,0.0106X0.0004*%
%ADD676R,0.0060X0.0004*%
%ADD677R,0.0085X0.0004*%
%ADD678R,0.0064X0.0004*%
%ADD679R,0.0089X0.0004*%
%ADD680R,0.0117X0.0004*%
%ADD681R,0.0085X0.0004*%
%ADD682R,0.0103X0.0004*%
%ADD683R,0.0089X0.0004*%
%ADD684R,0.0142X0.0004*%
%ADD685R,0.0152X0.0004*%
%ADD686R,0.0152X0.0004*%
%ADD687R,0.0206X0.0004*%
%ADD688R,0.0149X0.0004*%
%ADD689R,0.0096X0.0004*%
%ADD690R,0.0160X0.0004*%
%ADD691R,0.0159X0.0004*%
%ADD692R,0.0128X0.0004*%
%ADD693R,0.0167X0.0004*%
%ADD694R,0.0167X0.0004*%
%ADD695R,0.0167X0.0004*%
%ADD696R,0.0177X0.0004*%
%ADD697R,0.0110X0.0004*%
%ADD698R,0.0174X0.0004*%
%ADD699R,0.0149X0.0004*%
%ADD700R,0.0152X0.0004*%
%ADD701R,0.0177X0.0004*%
%ADD702R,0.0177X0.0004*%
%ADD703R,0.0202X0.0004*%
%ADD704R,0.0156X0.0004*%
%ADD705R,0.0160X0.0004*%
%ADD706R,0.0184X0.0004*%
%ADD707R,0.0163X0.0004*%
%ADD708R,0.0099X0.0004*%
%ADD709R,0.0184X0.0004*%
%ADD710R,0.0174X0.0004*%
%ADD711R,0.0099X0.0004*%
%ADD712R,0.0188X0.0004*%
%ADD713R,0.0191X0.0004*%
%ADD714R,0.0174X0.0004*%
%ADD715R,0.0227X0.0004*%
%ADD716R,0.0128X0.0004*%
%ADD717R,0.0181X0.0004*%
%ADD718R,0.0191X0.0004*%
%ADD719R,0.0195X0.0004*%
%ADD720R,0.0245X0.0004*%
%ADD721R,0.0138X0.0004*%
%ADD722R,0.0195X0.0004*%
%ADD723R,0.0202X0.0004*%
%ADD724R,0.0248X0.0004*%
%ADD725R,0.0145X0.0004*%
%ADD726R,0.0199X0.0004*%
%ADD727R,0.0259X0.0004*%
%ADD728R,0.0255X0.0004*%
%ADD729R,0.0149X0.0004*%
%ADD730R,0.0209X0.0004*%
%ADD731R,0.0259X0.0004*%
%ADD732R,0.0213X0.0004*%
%ADD733R,0.0266X0.0004*%
%ADD734R,0.0163X0.0004*%
%ADD735R,0.0053X0.0004*%
%ADD736R,0.0273X0.0004*%
%ADD737R,0.0170X0.0004*%
%ADD738R,0.0036X0.0004*%
%ADD739R,0.0216X0.0004*%
%ADD740R,0.0276X0.0004*%
%ADD741R,0.0025X0.0004*%
%ADD742R,0.0121X0.0004*%
%ADD743R,0.0177X0.0004*%
%ADD744R,0.0117X0.0004*%
%ADD745R,0.0007X0.0004*%
%ADD746R,0.0014X0.0004*%
%ADD747R,0.0266X0.0004*%
%ADD748R,0.0011X0.0004*%
%ADD749R,0.0138X0.0004*%
%ADD750R,0.0152X0.0004*%
%ADD751R,0.0142X0.0004*%
%ADD752R,0.0135X0.0004*%
%ADD753R,0.0174X0.0004*%
%ADD754R,0.0004X0.0004*%
%ADD755R,0.0014X0.0004*%
%ADD756R,0.0021X0.0004*%
%ADD757R,0.0039X0.0004*%
%ADD758R,0.0050X0.0004*%
%ADD759R,0.0085X0.0004*%
%ADD760R,0.0007X0.0004*%
%ADD761R,0.0067X0.0004*%
%ADD762R,0.0014X0.0004*%
%ADD763R,0.0057X0.0004*%
%ADD764R,0.0021X0.0004*%
%ADD765R,0.0071X0.0004*%
%ADD766R,0.0032X0.0004*%
%ADD767R,0.0131X0.0004*%
%ADD768R,0.0220X0.0004*%
%ADD769R,0.0220X0.0004*%
%ADD770R,0.0262X0.0004*%
%ADD771R,0.0216X0.0004*%
%ADD772R,0.0209X0.0004*%
%ADD773R,0.0269X0.0004*%
%ADD774R,0.0202X0.0004*%
%ADD775R,0.0255X0.0004*%
%ADD776R,0.0198X0.0004*%
%ADD777R,0.0230X0.0004*%
%ADD778R,0.0252X0.0004*%
%ADD779R,0.0255X0.0004*%
%ADD780R,0.0170X0.0004*%
%ADD781R,0.0227X0.0004*%
%ADD782R,0.0241X0.0004*%
%ADD783R,0.0156X0.0004*%
%ADD784R,0.0220X0.0004*%
%ADD785R,0.0142X0.0004*%
%ADD786R,0.0191X0.0004*%
%ADD787R,0.0135X0.0004*%
%ADD788R,0.0223X0.0004*%
%ADD789R,0.0106X0.0004*%
%ADD790R,0.0071X0.0004*%
%ADD791R,0.0074X0.0004*%
%ADD792R,0.0043X0.0004*%
%ADD793R,0.0071X0.0004*%
%ADD794R,0.0060X0.0004*%
D13*
X18878Y19941D02*
X19232D01*
X18878Y18957D02*
X19232D01*
X18957Y15807D02*
X19311D01*
X18957Y16791D02*
X19311D01*
X18878Y18287D02*
X19232D01*
X18878Y17303D02*
X19232D01*
X16201Y19941D02*
X16555D01*
X16201Y18957D02*
X16555D01*
X16201Y18287D02*
X16555D01*
X16201Y17303D02*
X16555D01*
X16201Y16673D02*
X16555D01*
X16201Y15689D02*
X16555D01*
X18300Y13750D02*
Y14045D01*
X18398Y13947D01*
X18497Y14045D01*
Y13750D01*
X18644D02*
X18743D01*
X18792Y13799D01*
Y13898D01*
X18743Y13947D01*
X18644D01*
X18595Y13898D01*
Y13799D01*
X18644Y13750D01*
X18890Y13947D02*
Y13750D01*
Y13848D01*
X18940Y13898D01*
X18989Y13947D01*
X19038D01*
X19284Y13652D02*
X19333D01*
X19382Y13701D01*
Y13947D01*
X19235D01*
X19186Y13898D01*
Y13799D01*
X19235Y13750D01*
X19382D01*
X19530Y13947D02*
X19628D01*
X19678Y13898D01*
Y13750D01*
X19530D01*
X19481Y13799D01*
X19530Y13848D01*
X19678D01*
X19776Y13750D02*
Y13947D01*
X19923D01*
X19973Y13898D01*
Y13750D01*
X20366Y14045D02*
Y13750D01*
X20465Y13848D01*
X20563Y13750D01*
Y14045D01*
X20661D02*
Y13750D01*
Y13898D01*
X20711Y13947D01*
X20809D01*
X20858Y13898D01*
Y13750D01*
X20957D02*
X21055D01*
X21006D01*
Y13947D01*
X20957D01*
X21252Y13996D02*
Y13947D01*
X21203D01*
X21301D01*
X21252D01*
Y13799D01*
X21301Y13750D01*
X21498Y13947D02*
X21596D01*
X21645Y13898D01*
Y13750D01*
X21498D01*
X21449Y13799D01*
X21498Y13848D01*
X21645D01*
X21744Y13750D02*
Y14045D01*
Y13848D02*
X21891Y13947D01*
X21744Y13848D02*
X21891Y13750D01*
X22187D02*
X22088D01*
X22039Y13799D01*
Y13898D01*
X22088Y13947D01*
X22187D01*
X22236Y13898D01*
Y13848D01*
X22039D01*
X22334Y13947D02*
Y13750D01*
Y13848D01*
X22383Y13898D01*
X22433Y13947D01*
X22482D01*
X18476Y13475D02*
X18426Y13524D01*
X18328D01*
X18279Y13475D01*
Y13426D01*
X18328Y13376D01*
X18426D01*
X18476Y13327D01*
Y13278D01*
X18426Y13229D01*
X18328D01*
X18279Y13278D01*
X18722Y13229D02*
X18623D01*
X18574Y13278D01*
Y13376D01*
X18623Y13426D01*
X18722D01*
X18771Y13376D01*
Y13327D01*
X18574D01*
X18869Y13229D02*
Y13426D01*
X19017D01*
X19066Y13376D01*
Y13229D01*
X19164D02*
X19312D01*
X19361Y13278D01*
X19312Y13327D01*
X19213D01*
X19164Y13376D01*
X19213Y13426D01*
X19361D01*
X19509Y13229D02*
X19607D01*
X19656Y13278D01*
Y13376D01*
X19607Y13426D01*
X19509D01*
X19459Y13376D01*
Y13278D01*
X19509Y13229D01*
X19755Y13426D02*
Y13229D01*
Y13327D01*
X19804Y13376D01*
X19853Y13426D01*
X19902D01*
X20050Y13229D02*
X20247Y13426D01*
X20542Y13475D02*
X20493Y13524D01*
X20394D01*
X20345Y13475D01*
Y13278D01*
X20394Y13229D01*
X20493D01*
X20542Y13278D01*
X20689Y13229D02*
X20788D01*
X20837Y13278D01*
Y13376D01*
X20788Y13426D01*
X20689D01*
X20640Y13376D01*
Y13278D01*
X20689Y13229D01*
X20935D02*
Y13426D01*
X21083D01*
X21132Y13376D01*
Y13229D01*
X21231D02*
Y13426D01*
X21378D01*
X21427Y13376D01*
Y13229D01*
X21673D02*
X21575D01*
X21526Y13278D01*
Y13376D01*
X21575Y13426D01*
X21673D01*
X21723Y13376D01*
Y13327D01*
X21526D01*
X22018Y13426D02*
X21870D01*
X21821Y13376D01*
Y13278D01*
X21870Y13229D01*
X22018D01*
X22165Y13475D02*
Y13426D01*
X22116D01*
X22214D01*
X22165D01*
Y13278D01*
X22214Y13229D01*
X22411D02*
X22510D01*
X22559Y13278D01*
Y13376D01*
X22510Y13426D01*
X22411D01*
X22362Y13376D01*
Y13278D01*
X22411Y13229D01*
X22657Y13426D02*
Y13229D01*
Y13327D01*
X22706Y13376D01*
X22756Y13426D01*
X22805D01*
X23248Y13524D02*
Y13229D01*
X23395D01*
X23444Y13278D01*
Y13327D01*
X23395Y13376D01*
X23248D01*
X23395D01*
X23444Y13426D01*
Y13475D01*
X23395Y13524D01*
X23248D01*
X23592Y13229D02*
X23690D01*
X23740Y13278D01*
Y13376D01*
X23690Y13426D01*
X23592D01*
X23543Y13376D01*
Y13278D01*
X23592Y13229D01*
X23887Y13426D02*
X23986D01*
X24035Y13376D01*
Y13229D01*
X23887D01*
X23838Y13278D01*
X23887Y13327D01*
X24035D01*
X24133Y13426D02*
Y13229D01*
Y13327D01*
X24182Y13376D01*
X24232Y13426D01*
X24281D01*
X24625Y13524D02*
Y13229D01*
X24478D01*
X24428Y13278D01*
Y13376D01*
X24478Y13426D01*
X24625D01*
X18279Y13024D02*
Y12778D01*
X18328Y12729D01*
X18426D01*
X18476Y12778D01*
Y13024D01*
X18574Y12729D02*
Y13024D01*
X18722D01*
X18771Y12975D01*
Y12876D01*
X18722Y12827D01*
X18574D01*
X18672D02*
X18771Y12729D01*
X19017Y13024D02*
X18918D01*
X18869Y12975D01*
Y12778D01*
X18918Y12729D01*
X19017D01*
X19066Y12778D01*
Y12975D01*
X19017Y13024D01*
X19164D02*
Y12827D01*
X19263Y12729D01*
X19361Y12827D01*
Y13024D01*
X19755Y12729D02*
X19853D01*
X19804D01*
Y13024D01*
X19755Y12975D01*
X20001Y12778D02*
X20050Y12729D01*
X20148D01*
X20197Y12778D01*
Y12975D01*
X20148Y13024D01*
X20050D01*
X20001Y12975D01*
Y12926D01*
X20050Y12876D01*
X20197D01*
X20591D02*
X20788D01*
X21378Y12729D02*
X21181D01*
X21378Y12926D01*
Y12975D01*
X21329Y13024D01*
X21231D01*
X21181Y12975D01*
X21477D02*
X21526Y13024D01*
X21624D01*
X21673Y12975D01*
Y12778D01*
X21624Y12729D01*
X21526D01*
X21477Y12778D01*
Y12975D01*
X21821Y12680D02*
X21870Y12729D01*
Y12778D01*
X21821D01*
Y12729D01*
X21870D01*
X21821Y12680D01*
X21772Y12630D01*
X22559Y13024D02*
X22460D01*
X22510D01*
Y12778D01*
X22460Y12729D01*
X22411D01*
X22362Y12778D01*
X22706Y12926D02*
X22805D01*
X22854Y12876D01*
Y12729D01*
X22706D01*
X22657Y12778D01*
X22706Y12827D01*
X22854D01*
X22952Y12729D02*
Y12926D01*
X23100D01*
X23149Y12876D01*
Y12729D01*
X23297Y12680D02*
X23346Y12729D01*
Y12778D01*
X23297D01*
Y12729D01*
X23346D01*
X23297Y12680D01*
X23248Y12630D01*
X24035Y12729D02*
X23838D01*
X24035Y12926D01*
Y12975D01*
X23986Y13024D01*
X23887D01*
X23838Y12975D01*
X24133D02*
X24182Y13024D01*
X24281D01*
X24330Y12975D01*
Y12778D01*
X24281Y12729D01*
X24182D01*
X24133Y12778D01*
Y12975D01*
X24428Y12729D02*
X24527D01*
X24478D01*
Y13024D01*
X24428Y12975D01*
X24674Y12778D02*
X24724Y12729D01*
X24822D01*
X24871Y12778D01*
Y12975D01*
X24822Y13024D01*
X24724D01*
X24674Y12975D01*
Y12926D01*
X24724Y12876D01*
X24871D01*
X18476Y12525D02*
X18426Y12574D01*
X18328D01*
X18279Y12525D01*
Y12328D01*
X18328Y12279D01*
X18426D01*
X18476Y12328D01*
X18623Y12279D02*
X18722D01*
X18771Y12328D01*
Y12426D01*
X18722Y12476D01*
X18623D01*
X18574Y12426D01*
Y12328D01*
X18623Y12279D01*
X18869D02*
Y12476D01*
X19017D01*
X19066Y12426D01*
Y12279D01*
X19164D02*
Y12476D01*
X19312D01*
X19361Y12426D01*
Y12279D01*
X19607D02*
X19509D01*
X19459Y12328D01*
Y12426D01*
X19509Y12476D01*
X19607D01*
X19656Y12426D01*
Y12377D01*
X19459D01*
X19951Y12476D02*
X19804D01*
X19755Y12426D01*
Y12328D01*
X19804Y12279D01*
X19951D01*
X20099Y12525D02*
Y12476D01*
X20050D01*
X20148D01*
X20099D01*
Y12328D01*
X20148Y12279D01*
X20345D02*
X20443D01*
X20493Y12328D01*
Y12426D01*
X20443Y12476D01*
X20345D01*
X20296Y12426D01*
Y12328D01*
X20345Y12279D01*
X20591Y12476D02*
Y12279D01*
Y12377D01*
X20640Y12426D01*
X20689Y12476D01*
X20739D01*
X21231Y12525D02*
Y12476D01*
X21181D01*
X21280D01*
X21231D01*
Y12328D01*
X21280Y12279D01*
X21477D02*
X21575D01*
X21624Y12328D01*
Y12426D01*
X21575Y12476D01*
X21477D01*
X21427Y12426D01*
Y12328D01*
X21477Y12279D01*
X22018Y12574D02*
Y12279D01*
X22165D01*
X22214Y12328D01*
Y12377D01*
Y12426D01*
X22165Y12476D01*
X22018D01*
X22362D02*
X22460D01*
X22510Y12426D01*
Y12279D01*
X22362D01*
X22313Y12328D01*
X22362Y12377D01*
X22510D01*
X22805Y12476D02*
X22657D01*
X22608Y12426D01*
Y12328D01*
X22657Y12279D01*
X22805D01*
X22903D02*
Y12574D01*
Y12377D02*
X23051Y12476D01*
X22903Y12377D02*
X23051Y12279D01*
X23494Y12180D02*
Y12476D01*
X23641D01*
X23690Y12426D01*
Y12328D01*
X23641Y12279D01*
X23494D01*
X23789D02*
X23887D01*
X23838D01*
Y12574D01*
X23789D01*
X24084Y12476D02*
X24182D01*
X24232Y12426D01*
Y12279D01*
X24084D01*
X24035Y12328D01*
X24084Y12377D01*
X24232D01*
X24330Y12279D02*
Y12476D01*
X24478D01*
X24527Y12426D01*
Y12279D01*
X24773D02*
X24674D01*
X24625Y12328D01*
Y12426D01*
X24674Y12476D01*
X24773D01*
X24822Y12426D01*
Y12377D01*
X24625D01*
X25265Y12476D02*
X25363D01*
X25412Y12426D01*
Y12279D01*
X25265D01*
X25215Y12328D01*
X25265Y12377D01*
X25412D01*
X25511Y12279D02*
Y12476D01*
X25658D01*
X25707Y12426D01*
Y12279D01*
X26003Y12574D02*
Y12279D01*
X25855D01*
X25806Y12328D01*
Y12426D01*
X25855Y12476D01*
X26003D01*
X18268Y11772D02*
X18415D01*
X18464Y11821D01*
X18415Y11870D01*
X18317D01*
X18268Y11919D01*
X18317Y11968D01*
X18464D01*
X18710Y11772D02*
X18612D01*
X18563Y11821D01*
Y11919D01*
X18612Y11968D01*
X18710D01*
X18760Y11919D01*
Y11870D01*
X18563D01*
X18858Y11772D02*
Y11968D01*
X19006D01*
X19055Y11919D01*
Y11772D01*
X19153D02*
X19301D01*
X19350Y11821D01*
X19301Y11870D01*
X19202D01*
X19153Y11919D01*
X19202Y11968D01*
X19350D01*
X19498Y11772D02*
X19596D01*
X19645Y11821D01*
Y11919D01*
X19596Y11968D01*
X19498D01*
X19448Y11919D01*
Y11821D01*
X19498Y11772D01*
X19744Y11968D02*
Y11772D01*
Y11870D01*
X19793Y11919D01*
X19842Y11968D01*
X19891D01*
X20334Y11772D02*
X20432D01*
X20383D01*
Y11968D01*
X20334D01*
X20580Y11772D02*
Y11968D01*
X20728D01*
X20777Y11919D01*
Y11772D01*
X20924Y12018D02*
Y11968D01*
X20875D01*
X20974D01*
X20924D01*
Y11821D01*
X20974Y11772D01*
X21269D02*
X21170D01*
X21121Y11821D01*
Y11919D01*
X21170Y11968D01*
X21269D01*
X21318Y11919D01*
Y11870D01*
X21121D01*
X21416Y11968D02*
Y11772D01*
Y11870D01*
X21466Y11919D01*
X21515Y11968D01*
X21564D01*
X21761Y11772D02*
Y12018D01*
Y11919D01*
X21711D01*
X21810D01*
X21761D01*
Y12018D01*
X21810Y12067D01*
X22007Y11968D02*
X22105D01*
X22154Y11919D01*
Y11772D01*
X22007D01*
X21957Y11821D01*
X22007Y11870D01*
X22154D01*
X22449Y11968D02*
X22302D01*
X22253Y11919D01*
Y11821D01*
X22302Y11772D01*
X22449D01*
X22695D02*
X22597D01*
X22548Y11821D01*
Y11919D01*
X22597Y11968D01*
X22695D01*
X22745Y11919D01*
Y11870D01*
X22548D01*
D31*
X22855Y36336D02*
X25255D01*
X22855Y34486D02*
Y36336D01*
X25255Y34486D02*
Y36336D01*
X22855Y34486D02*
X25255D01*
X24905Y36336D02*
Y36686D01*
X24755Y36536D02*
X25055D01*
X18071Y23699D02*
X19261D01*
X17795Y27638D02*
X19531D01*
X17795Y26929D02*
Y27638D01*
Y23699D02*
Y24409D01*
Y23699D02*
X19531D01*
Y27638D01*
X17559D02*
X17795D01*
X17559Y26929D02*
Y27638D01*
Y26929D02*
X17795D01*
Y24409D02*
Y26929D01*
X17559Y24409D02*
X17795D01*
X17559Y23699D02*
Y24409D01*
Y23699D02*
X17795D01*
X30039Y30079D02*
Y31614D01*
Y30079D02*
X30472Y29646D01*
X30039Y31614D02*
X33661D01*
X30472Y29646D02*
X33228D01*
X33661Y30079D02*
Y31614D01*
X33228Y29646D02*
X33661Y30079D01*
X26181D02*
Y31614D01*
Y30079D02*
X26614Y29646D01*
X26181Y31614D02*
X29803D01*
X26614Y29646D02*
X29370D01*
X29803Y30079D02*
Y31614D01*
X29370Y29646D02*
X29803Y30079D01*
X6989Y30824D02*
X9389D01*
X6989Y28974D02*
Y30824D01*
X9389Y28974D02*
Y30824D01*
X6989Y28974D02*
X9389D01*
X9039Y30824D02*
Y31174D01*
X8889Y31024D02*
X9189D01*
X30039Y27913D02*
Y29449D01*
Y27913D02*
X30472Y27480D01*
X30039Y29449D02*
X33661D01*
X30472Y27480D02*
X33228D01*
X33661Y27913D02*
Y29449D01*
X33228Y27480D02*
X33661Y27913D01*
X6674Y23383D02*
X9074D01*
X6674Y21533D02*
Y23383D01*
X9074Y21533D02*
Y23383D01*
X6674Y21533D02*
X9074D01*
X8724Y23383D02*
Y23733D01*
X8574Y23583D02*
X8874D01*
X26181Y27913D02*
Y29449D01*
Y27913D02*
X26614Y27480D01*
X26181Y29449D02*
X29803D01*
X26614Y27480D02*
X29370D01*
X29803Y27913D02*
Y29449D01*
X29370Y27480D02*
X29803Y27913D01*
X6792Y27478D02*
X9192D01*
X6792Y25628D02*
Y27478D01*
X9192Y25628D02*
Y27478D01*
X6792Y25628D02*
X9192D01*
X8842Y27478D02*
Y27828D01*
X8692Y27678D02*
X8992D01*
X30000Y25787D02*
Y27323D01*
Y25787D02*
X30433Y25354D01*
X30000Y27323D02*
X33622D01*
X30433Y25354D02*
X33189D01*
X33622Y25787D02*
Y27323D01*
X33189Y25354D02*
X33622Y25787D01*
X26142D02*
Y27323D01*
Y25787D02*
X26575Y25354D01*
X26142Y27323D02*
X29764D01*
X26575Y25354D02*
X29331D01*
X29764Y25787D02*
Y27323D01*
X29331Y25354D02*
X29764Y25787D01*
X30000Y23661D02*
Y25197D01*
Y23661D02*
X30433Y23228D01*
X30000Y25197D02*
X33622D01*
X30433Y23228D02*
X33189D01*
X33622Y23661D02*
Y25197D01*
X33189Y23228D02*
X33622Y23661D01*
X26102D02*
Y25197D01*
Y23661D02*
X26535Y23228D01*
X26102Y25197D02*
X29724D01*
X26535Y23228D02*
X29291D01*
X29724Y23661D02*
Y25197D01*
X29291Y23228D02*
X29724Y23661D01*
X28131Y36297D02*
X30531D01*
X28131Y34447D02*
Y36297D01*
X30531Y34447D02*
Y36297D01*
X28131Y34447D02*
X30531D01*
X30181Y36297D02*
Y36647D01*
X30031Y36497D02*
X30331D01*
X22894Y33226D02*
X25294D01*
X22894Y31376D02*
Y33226D01*
X25294Y31376D02*
Y33226D01*
X22894Y31376D02*
X25294D01*
X24944Y33226D02*
Y33576D01*
X24794Y33426D02*
X25094D01*
X32677Y19213D02*
X34213D01*
X34646Y19646D01*
X32677Y19213D02*
Y22835D01*
X34646Y19646D02*
Y22402D01*
X32677Y22835D02*
X34213D01*
X34646Y22402D01*
X30433Y19213D02*
X31969D01*
X32402Y19646D01*
X30433Y19213D02*
Y22835D01*
X32402Y19646D02*
Y22402D01*
X30433Y22835D02*
X31969D01*
X32402Y22402D01*
X30808Y36297D02*
X33208D01*
X30808Y34447D02*
Y36297D01*
X33208Y34447D02*
Y36297D01*
X30808Y34447D02*
X33208D01*
X32858Y36297D02*
Y36647D01*
X32708Y36497D02*
X33008D01*
X25454Y36297D02*
X27854D01*
X25454Y34447D02*
Y36297D01*
X27854Y34447D02*
Y36297D01*
X25454Y34447D02*
X27854D01*
X27504Y36297D02*
Y36647D01*
X27354Y36497D02*
X27654D01*
X15020Y38659D02*
X17420D01*
X15020Y36809D02*
Y38659D01*
X17420Y36809D02*
Y38659D01*
X15020Y36809D02*
X17420D01*
X17070Y38659D02*
Y39009D01*
X16920Y38859D02*
X17220D01*
X17559Y28699D02*
X17795D01*
X17559D02*
Y29409D01*
X17795D01*
Y31929D01*
X17559D02*
X17795D01*
X17559D02*
Y32638D01*
X17795D01*
X19531Y28699D02*
Y32638D01*
X17795Y28699D02*
X19531D01*
X17795D02*
Y29409D01*
Y31929D02*
Y32638D01*
X19531D01*
X18071Y28699D02*
X19261D01*
X4803Y24891D02*
Y24291D01*
Y24591D01*
X5203D01*
Y24891D01*
Y24291D01*
X5703D02*
X5503D01*
X5403Y24391D01*
Y24591D01*
X5503Y24691D01*
X5703D01*
X5803Y24591D01*
Y24491D01*
X5403D01*
X6103Y24691D02*
X6303D01*
X6403Y24591D01*
Y24291D01*
X6103D01*
X6003Y24391D01*
X6103Y24491D01*
X6403D01*
X7002Y24891D02*
Y24291D01*
X6703D01*
X6603Y24391D01*
Y24591D01*
X6703Y24691D01*
X7002D01*
X7202Y24291D02*
X7402D01*
X7302D01*
Y24891D01*
X7202D01*
X7702Y24291D02*
X7902D01*
X7802D01*
Y24691D01*
X7702D01*
X8402Y24091D02*
X8502D01*
X8602Y24191D01*
Y24691D01*
X8302D01*
X8202Y24591D01*
Y24391D01*
X8302Y24291D01*
X8602D01*
X8802Y24891D02*
Y24291D01*
Y24591D01*
X8902Y24691D01*
X9102D01*
X9202Y24591D01*
Y24291D01*
X9502Y24791D02*
Y24691D01*
X9402D01*
X9602D01*
X9502D01*
Y24391D01*
X9602Y24291D01*
X9901D02*
X10201D01*
X10301Y24391D01*
X10201Y24491D01*
X10001D01*
X9901Y24591D01*
X10001Y24691D01*
X10301D01*
X15465Y40694D02*
X15065D01*
Y40394D01*
X15265Y40494D01*
X15365D01*
X15465Y40394D01*
Y40194D01*
X15365Y40094D01*
X15165D01*
X15065Y40194D01*
X15665Y39994D02*
X16065D01*
X16265Y40094D02*
X16465D01*
X16365D01*
Y40694D01*
X16265Y40594D01*
X6850Y28531D02*
X6950Y28631D01*
X7150D01*
X7250Y28531D01*
Y28431D01*
X7150Y28331D01*
X7050D01*
X7150D01*
X7250Y28231D01*
Y28131D01*
X7150Y28031D01*
X6950D01*
X6850Y28131D01*
X7450Y27932D02*
X7850D01*
X8050Y28531D02*
X8150Y28631D01*
X8350D01*
X8450Y28531D01*
Y28431D01*
X8350Y28331D01*
X8250D01*
X8350D01*
X8450Y28231D01*
Y28131D01*
X8350Y28031D01*
X8150D01*
X8050Y28131D01*
X8650Y27932D02*
X9050D01*
X9649Y28031D02*
X9250D01*
X9649Y28431D01*
Y28531D01*
X9550Y28631D01*
X9350D01*
X9250Y28531D01*
X7047Y32429D02*
X7147Y32529D01*
X7347D01*
X7447Y32429D01*
Y32329D01*
X7347Y32229D01*
X7247D01*
X7347D01*
X7447Y32129D01*
Y32029D01*
X7347Y31929D01*
X7147D01*
X7047Y32029D01*
X7647Y31829D02*
X8047D01*
X8247Y32429D02*
X8347Y32529D01*
X8547D01*
X8647Y32429D01*
Y32329D01*
X8547Y32229D01*
X8447D01*
X8547D01*
X8647Y32129D01*
Y32029D01*
X8547Y31929D01*
X8347D01*
X8247Y32029D01*
X8847Y31829D02*
X9247D01*
X9446Y31929D02*
X9646D01*
X9546D01*
Y32529D01*
X9446Y32429D01*
X32402Y13474D02*
X32801D01*
X32602D01*
Y12874D01*
X33301D02*
X33101D01*
X33001Y12974D01*
Y13174D01*
X33101Y13274D01*
X33301D01*
X33401Y13174D01*
Y13074D01*
X33001D01*
X33601Y12874D02*
Y13274D01*
X33701D01*
X33801Y13174D01*
Y12874D01*
Y13174D01*
X33901Y13274D01*
X34001Y13174D01*
Y12874D01*
X34201Y12674D02*
Y13274D01*
X34501D01*
X34601Y13174D01*
Y12974D01*
X34501Y12874D01*
X34201D01*
X34801Y12774D02*
X35201D01*
X35800Y13374D02*
X35701Y13474D01*
X35501D01*
X35401Y13374D01*
Y13274D01*
X35501Y13174D01*
X35701D01*
X35800Y13074D01*
Y12974D01*
X35701Y12874D01*
X35501D01*
X35401Y12974D01*
X36300Y12874D02*
X36100D01*
X36000Y12974D01*
Y13174D01*
X36100Y13274D01*
X36300D01*
X36400Y13174D01*
Y13074D01*
X36000D01*
X36600Y12874D02*
Y13274D01*
X36900D01*
X37000Y13174D01*
Y12874D01*
X37200D02*
X37500D01*
X37600Y12974D01*
X37500Y13074D01*
X37300D01*
X37200Y13174D01*
X37300Y13274D01*
X37600D01*
X16299Y27835D02*
Y28434D01*
X16599D01*
X16699Y28334D01*
Y28135D01*
X16599Y28035D01*
X16299D01*
X16899Y28235D02*
Y27835D01*
Y28035D01*
X16999Y28135D01*
X17099Y28235D01*
X17199D01*
X17799Y27835D02*
X17599D01*
X17499Y27935D01*
Y28135D01*
X17599Y28235D01*
X17799D01*
X17899Y28135D01*
Y28035D01*
X17499D01*
X18099Y27835D02*
X18399D01*
X18499Y27935D01*
X18399Y28035D01*
X18199D01*
X18099Y28135D01*
X18199Y28235D01*
X18499D01*
X18698Y27835D02*
X18998D01*
X19098Y27935D01*
X18998Y28035D01*
X18798D01*
X18698Y28135D01*
X18798Y28235D01*
X19098D01*
X19298D02*
Y27935D01*
X19398Y27835D01*
X19698D01*
Y28235D01*
X19898D02*
Y27835D01*
Y28035D01*
X19998Y28135D01*
X20098Y28235D01*
X20198D01*
X20798Y27835D02*
X20598D01*
X20498Y27935D01*
Y28135D01*
X20598Y28235D01*
X20798D01*
X20898Y28135D01*
Y28035D01*
X20498D01*
X14606Y18268D02*
X15206D01*
Y17968D01*
X15106Y17868D01*
X14906D01*
X14806Y17968D01*
Y18268D01*
Y18068D02*
X14606Y17868D01*
X15206Y17268D02*
X15106Y17468D01*
X14906Y17668D01*
X14706D01*
X14606Y17568D01*
Y17368D01*
X14706Y17268D01*
X14806D01*
X14906Y17368D01*
Y17668D01*
X14567Y16654D02*
X15167D01*
Y16354D01*
X15067Y16254D01*
X14867D01*
X14767Y16354D01*
Y16654D01*
Y16454D02*
X14567Y16254D01*
X15167Y15654D02*
Y16054D01*
X14867D01*
X14967Y15854D01*
Y15754D01*
X14867Y15654D01*
X14667D01*
X14567Y15754D01*
Y15954D01*
X14667Y16054D01*
X17480Y16772D02*
X18080D01*
Y16472D01*
X17980Y16372D01*
X17780D01*
X17680Y16472D01*
Y16772D01*
Y16572D02*
X17480Y16372D01*
Y15872D02*
X18080D01*
X17780Y16172D01*
Y15772D01*
X17402Y18268D02*
X18001D01*
Y17968D01*
X17901Y17868D01*
X17701D01*
X17602Y17968D01*
Y18268D01*
Y18068D02*
X17402Y17868D01*
X17901Y17668D02*
X18001Y17568D01*
Y17368D01*
X17901Y17268D01*
X17801D01*
X17701Y17368D01*
Y17468D01*
Y17368D01*
X17602Y17268D01*
X17502D01*
X17402Y17368D01*
Y17568D01*
X17502Y17668D01*
X17402Y19921D02*
X18001D01*
Y19621D01*
X17901Y19521D01*
X17701D01*
X17602Y19621D01*
Y19921D01*
Y19721D02*
X17402Y19521D01*
Y18922D02*
Y19321D01*
X17801Y18922D01*
X17901D01*
X18001Y19022D01*
Y19221D01*
X17901Y19321D01*
X14646Y19843D02*
X15245D01*
Y19543D01*
X15146Y19443D01*
X14946D01*
X14846Y19543D01*
Y19843D01*
Y19643D02*
X14646Y19443D01*
Y19243D02*
Y19043D01*
Y19143D01*
X15245D01*
X15146Y19243D01*
X28150Y31969D02*
Y32568D01*
X28350Y32368D01*
X28549Y32568D01*
Y31969D01*
X28749Y31869D02*
X29149D01*
X29349Y32068D02*
X29449Y31969D01*
X29649D01*
X29749Y32068D01*
Y32468D01*
X29649Y32568D01*
X29449D01*
X29349Y32468D01*
Y32368D01*
X29449Y32268D01*
X29749D01*
X32874Y18386D02*
Y18986D01*
X33074Y18786D01*
X33274Y18986D01*
Y18386D01*
X33474Y18286D02*
X33874D01*
X34474Y18386D02*
X34074D01*
X34474Y18786D01*
Y18886D01*
X34374Y18986D01*
X34174D01*
X34074Y18886D01*
X24331Y23425D02*
Y24025D01*
X24531Y23825D01*
X24731Y24025D01*
Y23425D01*
X24931Y23325D02*
X25330D01*
X25830Y23425D02*
Y24025D01*
X25530Y23725D01*
X25930D01*
X31496Y31969D02*
Y32568D01*
X31696Y32368D01*
X31896Y32568D01*
Y31969D01*
X32096Y31869D02*
X32496D01*
X32696Y31969D02*
X32896D01*
X32796D01*
Y32568D01*
X32696Y32468D01*
X33196D02*
X33295Y32568D01*
X33495D01*
X33595Y32468D01*
Y32068D01*
X33495Y31969D01*
X33295D01*
X33196Y32068D01*
Y32468D01*
X23937Y28780D02*
Y29379D01*
X24137Y29179D01*
X24337Y29379D01*
Y28780D01*
X24537Y28680D02*
X24937D01*
X25137Y29379D02*
X25536D01*
Y29279D01*
X25137Y28879D01*
Y28780D01*
X24370Y27756D02*
Y28356D01*
X24570Y28156D01*
X24770Y28356D01*
Y27756D01*
X24970Y27656D02*
X25370D01*
X25570Y28256D02*
X25670Y28356D01*
X25870D01*
X25970Y28256D01*
Y28156D01*
X25870Y28056D01*
X25970Y27956D01*
Y27856D01*
X25870Y27756D01*
X25670D01*
X25570Y27856D01*
Y27956D01*
X25670Y28056D01*
X25570Y28156D01*
Y28256D01*
X25670Y28056D02*
X25870D01*
X24370Y25591D02*
Y26190D01*
X24570Y25990D01*
X24770Y26190D01*
Y25591D01*
X24970Y25491D02*
X25370D01*
X25970Y26190D02*
X25770Y26090D01*
X25570Y25890D01*
Y25691D01*
X25670Y25591D01*
X25870D01*
X25970Y25691D01*
Y25790D01*
X25870Y25890D01*
X25570D01*
X30787Y18386D02*
Y18986D01*
X30987Y18786D01*
X31187Y18986D01*
Y18386D01*
X31387Y18286D02*
X31787D01*
X31987Y18386D02*
X32187D01*
X32087D01*
Y18986D01*
X31987Y18886D01*
X23937Y24528D02*
Y25127D01*
X24137Y24927D01*
X24337Y25127D01*
Y24528D01*
X24537Y24428D02*
X24937D01*
X25137Y25027D02*
X25237Y25127D01*
X25437D01*
X25536Y25027D01*
Y24927D01*
X25437Y24827D01*
X25337D01*
X25437D01*
X25536Y24727D01*
Y24628D01*
X25437Y24528D01*
X25237D01*
X25137Y24628D01*
X23898Y26614D02*
Y27214D01*
X24098Y27014D01*
X24298Y27214D01*
Y26614D01*
X24497Y26514D02*
X24897D01*
X25497Y27214D02*
X25097D01*
Y26914D01*
X25297Y27014D01*
X25397D01*
X25497Y26914D01*
Y26714D01*
X25397Y26614D01*
X25197D01*
X25097Y26714D01*
X31502Y17153D02*
X31402Y17253D01*
X31202D01*
X31102Y17153D01*
Y17053D01*
X31202Y16953D01*
X31402D01*
X31502Y16853D01*
Y16754D01*
X31402Y16654D01*
X31202D01*
X31102Y16754D01*
X31702Y16554D02*
X32102D01*
X32702Y17253D02*
X32302D01*
Y16953D01*
X32502Y17053D01*
X32602D01*
X32702Y16953D01*
Y16754D01*
X32602Y16654D01*
X32402D01*
X32302Y16754D01*
X33392Y17153D02*
X33292Y17253D01*
X33092D01*
X32992Y17153D01*
Y17053D01*
X33092Y16953D01*
X33292D01*
X33392Y16853D01*
Y16754D01*
X33292Y16654D01*
X33092D01*
X32992Y16754D01*
X33592Y16554D02*
X33992D01*
X34492Y16654D02*
Y17253D01*
X34192Y16953D01*
X34592D01*
X33392Y16327D02*
X33292Y16427D01*
X33092D01*
X32992Y16327D01*
Y16227D01*
X33092Y16127D01*
X33292D01*
X33392Y16027D01*
Y15927D01*
X33292Y15827D01*
X33092D01*
X32992Y15927D01*
X33592Y15727D02*
X33992D01*
X34592Y15827D02*
X34192D01*
X34592Y16227D01*
Y16327D01*
X34492Y16427D01*
X34292D01*
X34192Y16327D01*
X33392Y18020D02*
X33292Y18119D01*
X33092D01*
X32992Y18020D01*
Y17920D01*
X33092Y17820D01*
X33292D01*
X33392Y17720D01*
Y17620D01*
X33292Y17520D01*
X33092D01*
X32992Y17620D01*
X33592Y17420D02*
X33992D01*
X34592Y18119D02*
X34392Y18020D01*
X34192Y17820D01*
Y17620D01*
X34292Y17520D01*
X34492D01*
X34592Y17620D01*
Y17720D01*
X34492Y17820D01*
X34192D01*
X31502Y16327D02*
X31402Y16427D01*
X31202D01*
X31102Y16327D01*
Y16227D01*
X31202Y16127D01*
X31402D01*
X31502Y16027D01*
Y15927D01*
X31402Y15827D01*
X31202D01*
X31102Y15927D01*
X31702Y15727D02*
X32102D01*
X32302Y16327D02*
X32402Y16427D01*
X32602D01*
X32702Y16327D01*
Y16227D01*
X32602Y16127D01*
X32502D01*
X32602D01*
X32702Y16027D01*
Y15927D01*
X32602Y15827D01*
X32402D01*
X32302Y15927D01*
X31502Y15539D02*
X31402Y15639D01*
X31202D01*
X31102Y15539D01*
Y15439D01*
X31202Y15339D01*
X31402D01*
X31502Y15239D01*
Y15139D01*
X31402Y15039D01*
X31202D01*
X31102Y15139D01*
X31702Y14939D02*
X32102D01*
X32302Y15039D02*
X32502D01*
X32402D01*
Y15639D01*
X32302Y15539D01*
X17060Y33790D02*
Y33190D01*
X17460D01*
X17660D02*
X17860D01*
X17760D01*
Y33590D01*
X17660D01*
X18360Y32990D02*
X18460D01*
X18560Y33090D01*
Y33590D01*
X18260D01*
X18160Y33490D01*
Y33290D01*
X18260Y33190D01*
X18560D01*
X18759Y33790D02*
Y33190D01*
Y33490D01*
X18859Y33590D01*
X19059D01*
X19159Y33490D01*
Y33190D01*
X19459Y33690D02*
Y33590D01*
X19359D01*
X19559D01*
X19459D01*
Y33290D01*
X19559Y33190D01*
X7801Y14594D02*
X7701Y14694D01*
X7502D01*
X7402Y14594D01*
Y14494D01*
X7502Y14394D01*
X7701D01*
X7801Y14294D01*
Y14194D01*
X7701Y14094D01*
X7502D01*
X7402Y14194D01*
X8101Y14094D02*
X8301D01*
X8401Y14194D01*
Y14394D01*
X8301Y14494D01*
X8101D01*
X8001Y14394D01*
Y14194D01*
X8101Y14094D01*
X8601D02*
Y14494D01*
X8901D01*
X9001Y14394D01*
Y14094D01*
X9301Y14494D02*
X9501D01*
X9601Y14394D01*
Y14094D01*
X9301D01*
X9201Y14194D01*
X9301Y14294D01*
X9601D01*
X9801Y14494D02*
Y14094D01*
Y14294D01*
X9901Y14394D01*
X10001Y14494D01*
X10101D01*
X27158Y12302D02*
X27558Y11702D01*
Y12302D02*
X27158Y11702D01*
X27758D02*
X27958D01*
X27858D01*
Y12302D01*
X27758Y12202D01*
X15150Y12180D02*
X15550Y11580D01*
Y12180D02*
X15150Y11580D01*
X16150D02*
X15750D01*
X16150Y11980D01*
Y12080D01*
X16050Y12180D01*
X15850D01*
X15750Y12080D01*
D32*
X7598Y14921D02*
Y21201D01*
X9370D01*
Y14921D02*
Y21201D01*
X7598Y14921D02*
X9370D01*
X8141Y21201D02*
X8163D01*
X8491Y20873D01*
Y20881D01*
X8811Y21201D01*
D33*
X18268Y27638D02*
X19061D01*
X18268Y32638D02*
X19061D01*
D34*
X22874Y36850D02*
Y37113D01*
X23005Y37244D01*
X23136Y37113D01*
Y36850D01*
Y37047D01*
X22874D01*
X23268Y37244D02*
Y36916D01*
X23333Y36850D01*
X23464D01*
X23530Y36916D01*
Y37244D01*
X23661D02*
X23924Y36850D01*
Y37244D02*
X23661Y36850D01*
X24055Y36785D02*
X24317D01*
X24711Y36850D02*
X24448D01*
X24711Y37113D01*
Y37178D01*
X24645Y37244D01*
X24514D01*
X24448Y37178D01*
X28346Y37008D02*
Y37270D01*
X28478Y37401D01*
X28609Y37270D01*
Y37008D01*
Y37205D01*
X28346D01*
X28740Y37401D02*
Y37073D01*
X28806Y37008D01*
X28937D01*
X29002Y37073D01*
Y37401D01*
X29134D02*
X29396Y37008D01*
Y37401D02*
X29134Y37008D01*
X29527Y36942D02*
X29790D01*
X30118Y37008D02*
Y37401D01*
X29921Y37205D01*
X30183D01*
X31024Y36969D02*
Y37231D01*
X31155Y37362D01*
X31286Y37231D01*
Y36969D01*
Y37165D01*
X31024D01*
X31417Y37362D02*
Y37034D01*
X31483Y36969D01*
X31614D01*
X31680Y37034D01*
Y37362D01*
X31811D02*
X32073Y36969D01*
Y37362D02*
X31811Y36969D01*
X32204Y36903D02*
X32467D01*
X32860Y37362D02*
X32598D01*
Y37165D01*
X32729Y37231D01*
X32795D01*
X32860Y37165D01*
Y37034D01*
X32795Y36969D01*
X32664D01*
X32598Y37034D01*
X25787Y36969D02*
Y37231D01*
X25919Y37362D01*
X26050Y37231D01*
Y36969D01*
Y37165D01*
X25787D01*
X26181Y37362D02*
Y37034D01*
X26247Y36969D01*
X26378D01*
X26443Y37034D01*
Y37362D01*
X26575D02*
X26837Y36969D01*
Y37362D02*
X26575Y36969D01*
X26968Y36903D02*
X27231D01*
X27362Y37296D02*
X27427Y37362D01*
X27558D01*
X27624Y37296D01*
Y37231D01*
X27558Y37165D01*
X27493D01*
X27558D01*
X27624Y37100D01*
Y37034D01*
X27558Y36969D01*
X27427D01*
X27362Y37034D01*
X23307Y33898D02*
Y34160D01*
X23438Y34291D01*
X23569Y34160D01*
Y33898D01*
Y34094D01*
X23307D01*
X23701Y34291D02*
Y33963D01*
X23766Y33898D01*
X23897D01*
X23963Y33963D01*
Y34291D01*
X24094D02*
X24357Y33898D01*
Y34291D02*
X24094Y33898D01*
X24488Y33832D02*
X24750D01*
X24881Y33898D02*
X25013D01*
X24947D01*
Y34291D01*
X24881Y34226D01*
D35*
X26625Y11101D02*
D03*
X22589Y10807D02*
D03*
X26058Y10162D02*
D03*
X21873Y10127D02*
D03*
X23963Y10088D02*
D03*
X23499Y10063D02*
D03*
D36*
X25103Y11101D02*
D03*
D37*
X24630D02*
D03*
X23882D02*
D03*
X24630Y11094D02*
D03*
X23882D02*
D03*
X24630Y11087D02*
D03*
X23882D02*
D03*
X24630Y11080D02*
D03*
X23882D02*
D03*
X24630Y11076D02*
D03*
X23882D02*
D03*
X24630Y11069D02*
D03*
X23882D02*
D03*
X24630Y11062D02*
D03*
X23882D02*
D03*
X24630Y11055D02*
D03*
X23882D02*
D03*
X24630Y11052D02*
D03*
X23882D02*
D03*
X24630Y11044D02*
D03*
X23882D02*
D03*
X24630Y11037D02*
D03*
X23882D02*
D03*
X24630Y11030D02*
D03*
X23882D02*
D03*
X24630Y11027D02*
D03*
X23882D02*
D03*
X24630Y11020D02*
D03*
X23882D02*
D03*
X24630Y11013D02*
D03*
X23882D02*
D03*
X24630Y11005D02*
D03*
X23882D02*
D03*
X24630Y10998D02*
D03*
X23882D02*
D03*
X24630Y10995D02*
D03*
X23882D02*
D03*
X24630Y10988D02*
D03*
X23882D02*
D03*
X24630Y10981D02*
D03*
X23882D02*
D03*
X24630Y10974D02*
D03*
X23882D02*
D03*
X24630Y10970D02*
D03*
X23882D02*
D03*
X24630Y10963D02*
D03*
X23882D02*
D03*
X24630Y10956D02*
D03*
X23882D02*
D03*
X24630Y10949D02*
D03*
X23882D02*
D03*
X24630Y10945D02*
D03*
X23882D02*
D03*
X24630Y10938D02*
D03*
X23882D02*
D03*
X24630Y10931D02*
D03*
X23882D02*
D03*
X24630Y10924D02*
D03*
X23882D02*
D03*
X24630Y10920D02*
D03*
X23882D02*
D03*
X24630Y10913D02*
D03*
X23882D02*
D03*
X24630Y10906D02*
D03*
X23882D02*
D03*
X24630Y10899D02*
D03*
X23882D02*
D03*
X24630Y10896D02*
D03*
X23882D02*
D03*
X24630Y10889D02*
D03*
X23882D02*
D03*
X25037Y10881D02*
D03*
X24630D02*
D03*
X23882D02*
D03*
X25037Y10874D02*
D03*
X24630D02*
D03*
X23882D02*
D03*
X25037Y10867D02*
D03*
X24630D02*
D03*
X23882D02*
D03*
X25037Y10864D02*
D03*
X24630D02*
D03*
X23882D02*
D03*
X25037Y10857D02*
D03*
X24630D02*
D03*
X23882D02*
D03*
X25037Y10850D02*
D03*
X24630D02*
D03*
X23882D02*
D03*
X25037Y10842D02*
D03*
X24630D02*
D03*
X23882D02*
D03*
X25037Y10839D02*
D03*
X24630D02*
D03*
X23882D02*
D03*
X25037Y10832D02*
D03*
X24630D02*
D03*
X23882D02*
D03*
X25037Y10825D02*
D03*
X24630D02*
D03*
X23882D02*
D03*
X25037Y10818D02*
D03*
X24630D02*
D03*
X23882D02*
D03*
X25037Y10814D02*
D03*
X24630D02*
D03*
X23882D02*
D03*
X25037Y10807D02*
D03*
X24630D02*
D03*
X23882D02*
D03*
X25037Y10800D02*
D03*
X24630D02*
D03*
X23882D02*
D03*
X25037Y10793D02*
D03*
X24630D02*
D03*
X23882D02*
D03*
X25037Y10789D02*
D03*
X24630D02*
D03*
X23882D02*
D03*
X25037Y10782D02*
D03*
X24630D02*
D03*
X23882D02*
D03*
X25037Y10775D02*
D03*
X24630D02*
D03*
X23882D02*
D03*
X25037Y10768D02*
D03*
X24630D02*
D03*
X23882D02*
D03*
X25037Y10761D02*
D03*
X24630D02*
D03*
X23882D02*
D03*
X25037Y10757D02*
D03*
X24630D02*
D03*
X23882D02*
D03*
X25037Y10750D02*
D03*
X24630D02*
D03*
X23882D02*
D03*
X25037Y10743D02*
D03*
X24630D02*
D03*
X23882D02*
D03*
X25037Y10736D02*
D03*
X24630D02*
D03*
X23882D02*
D03*
X25037Y10733D02*
D03*
X24630D02*
D03*
X23882D02*
D03*
X25037Y10726D02*
D03*
X24630D02*
D03*
X23882D02*
D03*
X25037Y10718D02*
D03*
X24630D02*
D03*
X23882D02*
D03*
X25037Y10711D02*
D03*
X24630D02*
D03*
X23882D02*
D03*
X25037Y10708D02*
D03*
X24630D02*
D03*
X23882D02*
D03*
X25037Y10701D02*
D03*
X24630D02*
D03*
X23882D02*
D03*
X25037Y10694D02*
D03*
X24630D02*
D03*
X23882D02*
D03*
X25037Y10687D02*
D03*
X24630D02*
D03*
X23882D02*
D03*
X25037Y10683D02*
D03*
X24630D02*
D03*
X23882D02*
D03*
X25037Y10676D02*
D03*
X24630D02*
D03*
X23882D02*
D03*
X25037Y10669D02*
D03*
X24630D02*
D03*
X23882D02*
D03*
X25037Y10662D02*
D03*
X24630D02*
D03*
X23882D02*
D03*
X25037Y10655D02*
D03*
X24630D02*
D03*
X23882D02*
D03*
X25037Y10651D02*
D03*
X24630D02*
D03*
X23882D02*
D03*
X25037Y10644D02*
D03*
X24630D02*
D03*
X23882D02*
D03*
X25037Y10637D02*
D03*
X24630D02*
D03*
X23882D02*
D03*
X25037Y10630D02*
D03*
X24630D02*
D03*
X23882D02*
D03*
X25037Y10626D02*
D03*
X24630D02*
D03*
X23882D02*
D03*
X25037Y10619D02*
D03*
X24630D02*
D03*
X23882D02*
D03*
X25037Y10612D02*
D03*
X24630D02*
D03*
X23882D02*
D03*
X25037Y10605D02*
D03*
X24630D02*
D03*
X23882D02*
D03*
X25037Y10602D02*
D03*
X24630D02*
D03*
X23882D02*
D03*
X25037Y10594D02*
D03*
X24630D02*
D03*
X23882D02*
D03*
X25037Y10587D02*
D03*
X24630D02*
D03*
X23882D02*
D03*
X25037Y10580D02*
D03*
X24630D02*
D03*
X23882D02*
D03*
X25037Y10577D02*
D03*
X24630D02*
D03*
X23882D02*
D03*
X25037Y10570D02*
D03*
X24630D02*
D03*
X23882D02*
D03*
X25037Y10563D02*
D03*
X24630D02*
D03*
X23882D02*
D03*
X25037Y10555D02*
D03*
X24630D02*
D03*
X23882D02*
D03*
X25037Y10548D02*
D03*
X24630D02*
D03*
X23882D02*
D03*
X25037Y10545D02*
D03*
X24630D02*
D03*
X23882D02*
D03*
X25037Y10538D02*
D03*
X24630D02*
D03*
X23882D02*
D03*
X25037Y10531D02*
D03*
X24630D02*
D03*
X23882D02*
D03*
X24630Y10524D02*
D03*
X23882D02*
D03*
X24630Y10520D02*
D03*
X23882D02*
D03*
X24630Y10513D02*
D03*
X23882D02*
D03*
X24630Y10506D02*
D03*
X23882D02*
D03*
X24630Y10499D02*
D03*
X23882D02*
D03*
X24630Y10495D02*
D03*
X23882D02*
D03*
X24630Y10488D02*
D03*
X23882D02*
D03*
X24630Y10481D02*
D03*
X23882D02*
D03*
X24630Y10474D02*
D03*
X23882D02*
D03*
X24630Y10470D02*
D03*
X23882D02*
D03*
X24630Y10463D02*
D03*
X23882D02*
D03*
X24630Y10456D02*
D03*
X23882D02*
D03*
X24630Y10449D02*
D03*
X23882D02*
D03*
X24630Y10446D02*
D03*
X23882D02*
D03*
X24630Y10439D02*
D03*
X23882D02*
D03*
X24630Y10431D02*
D03*
X23882D02*
D03*
X24630Y10424D02*
D03*
X23882D02*
D03*
X24630Y10417D02*
D03*
X23882D02*
D03*
X24630Y10414D02*
D03*
X23882D02*
D03*
X24630Y10407D02*
D03*
X23882D02*
D03*
X24630Y10400D02*
D03*
X23882D02*
D03*
X24630Y10392D02*
D03*
X23882D02*
D03*
X24630Y10389D02*
D03*
X23882D02*
D03*
X24630Y10382D02*
D03*
X23882D02*
D03*
X24630Y10375D02*
D03*
X23882D02*
D03*
X24630Y10368D02*
D03*
X23882D02*
D03*
X24630Y10364D02*
D03*
X23882D02*
D03*
X24630Y10357D02*
D03*
X23882D02*
D03*
X24630Y10350D02*
D03*
X23882D02*
D03*
Y10343D02*
D03*
Y10339D02*
D03*
Y10332D02*
D03*
X23886Y10325D02*
D03*
Y10318D02*
D03*
Y10311D02*
D03*
X25037Y10307D02*
D03*
X24626D02*
D03*
X23886D02*
D03*
X25037Y10300D02*
D03*
X24626D02*
D03*
X23886D02*
D03*
X25037Y10293D02*
D03*
X24626D02*
D03*
X23886D02*
D03*
X25037Y10286D02*
D03*
X24626D02*
D03*
X25037Y10283D02*
D03*
Y10276D02*
D03*
Y10268D02*
D03*
X23889D02*
D03*
X25037Y10261D02*
D03*
Y10258D02*
D03*
Y10251D02*
D03*
Y10244D02*
D03*
X24619D02*
D03*
X25037Y10237D02*
D03*
X24619D02*
D03*
X25037Y10233D02*
D03*
Y10226D02*
D03*
Y10219D02*
D03*
Y10212D02*
D03*
Y10205D02*
D03*
Y10201D02*
D03*
Y10194D02*
D03*
Y10187D02*
D03*
Y10180D02*
D03*
Y10176D02*
D03*
Y10169D02*
D03*
Y10162D02*
D03*
Y10155D02*
D03*
Y10152D02*
D03*
Y10144D02*
D03*
Y10137D02*
D03*
Y10130D02*
D03*
Y10127D02*
D03*
Y10120D02*
D03*
Y10113D02*
D03*
Y10105D02*
D03*
Y10098D02*
D03*
Y10095D02*
D03*
Y10088D02*
D03*
Y10081D02*
D03*
Y10074D02*
D03*
Y10070D02*
D03*
Y10063D02*
D03*
Y10056D02*
D03*
Y10049D02*
D03*
Y10045D02*
D03*
Y10038D02*
D03*
Y10031D02*
D03*
Y10024D02*
D03*
Y10020D02*
D03*
Y10013D02*
D03*
Y10006D02*
D03*
Y9999D02*
D03*
Y9996D02*
D03*
Y9989D02*
D03*
Y9981D02*
D03*
Y9974D02*
D03*
Y9967D02*
D03*
Y9964D02*
D03*
Y9957D02*
D03*
Y9950D02*
D03*
Y9942D02*
D03*
Y9939D02*
D03*
Y9932D02*
D03*
Y9925D02*
D03*
Y9918D02*
D03*
Y9914D02*
D03*
Y9907D02*
D03*
Y9900D02*
D03*
Y9893D02*
D03*
Y9889D02*
D03*
Y9882D02*
D03*
Y9875D02*
D03*
Y9868D02*
D03*
Y9861D02*
D03*
Y9857D02*
D03*
Y9850D02*
D03*
Y9843D02*
D03*
Y9836D02*
D03*
Y9833D02*
D03*
Y9826D02*
D03*
X23163Y9638D02*
D03*
X25764Y9613D02*
D03*
Y9333D02*
D03*
X26632Y9319D02*
D03*
X23900D02*
D03*
D38*
X23492Y11101D02*
D03*
X25696Y10049D02*
D03*
X25703Y10038D02*
D03*
D39*
X22249Y11101D02*
D03*
X24768Y9631D02*
D03*
X25285Y9570D02*
D03*
X23545D02*
D03*
D40*
X26602Y11098D02*
D03*
X25574Y10878D02*
D03*
X26105Y10109D02*
D03*
X22537Y10077D02*
D03*
D41*
X25124Y11098D02*
D03*
D42*
X24630D02*
D03*
X23882D02*
D03*
X24630Y11090D02*
D03*
X23882D02*
D03*
X24630Y11083D02*
D03*
X23882D02*
D03*
X24630Y11073D02*
D03*
X23882D02*
D03*
X24630Y11066D02*
D03*
X23882D02*
D03*
X24630Y11059D02*
D03*
X23882D02*
D03*
X24630Y11048D02*
D03*
X23882D02*
D03*
X24630Y11041D02*
D03*
X23882D02*
D03*
X24630Y11034D02*
D03*
X23882D02*
D03*
X24630Y11023D02*
D03*
X23882D02*
D03*
X24630Y11016D02*
D03*
X23882D02*
D03*
X24630Y11009D02*
D03*
X23882D02*
D03*
X24630Y11002D02*
D03*
X23882D02*
D03*
X24630Y10991D02*
D03*
X23882D02*
D03*
X24630Y10984D02*
D03*
X23882D02*
D03*
X24630Y10977D02*
D03*
X23882D02*
D03*
X24630Y10966D02*
D03*
X23882D02*
D03*
X24630Y10959D02*
D03*
X23882D02*
D03*
X24630Y10952D02*
D03*
X23882D02*
D03*
X24630Y10942D02*
D03*
X23882D02*
D03*
X24630Y10935D02*
D03*
X23882D02*
D03*
X24630Y10927D02*
D03*
X23882D02*
D03*
X24630Y10917D02*
D03*
X23882D02*
D03*
X24630Y10910D02*
D03*
X23882D02*
D03*
X24630Y10903D02*
D03*
X23882D02*
D03*
X24630Y10892D02*
D03*
X23882D02*
D03*
X25037Y10885D02*
D03*
X24630D02*
D03*
X23882D02*
D03*
X25037Y10878D02*
D03*
X24630D02*
D03*
X23882D02*
D03*
X25037Y10871D02*
D03*
X24630D02*
D03*
X23882D02*
D03*
X25037Y10860D02*
D03*
X24630D02*
D03*
X23882D02*
D03*
X25037Y10853D02*
D03*
X24630D02*
D03*
X23882D02*
D03*
X25037Y10846D02*
D03*
X24630D02*
D03*
X23882D02*
D03*
X25037Y10835D02*
D03*
X24630D02*
D03*
X23882D02*
D03*
X25037Y10828D02*
D03*
X24630D02*
D03*
X23882D02*
D03*
X25037Y10821D02*
D03*
X24630D02*
D03*
X23882D02*
D03*
X25037Y10811D02*
D03*
X24630D02*
D03*
X23882D02*
D03*
X25037Y10803D02*
D03*
X24630D02*
D03*
X23882D02*
D03*
X25037Y10796D02*
D03*
X24630D02*
D03*
X23882D02*
D03*
X25037Y10786D02*
D03*
X24630D02*
D03*
X23882D02*
D03*
X25037Y10779D02*
D03*
X24630D02*
D03*
X23882D02*
D03*
X25037Y10772D02*
D03*
X24630D02*
D03*
X23882D02*
D03*
X25037Y10764D02*
D03*
X24630D02*
D03*
X23882D02*
D03*
X25037Y10754D02*
D03*
X24630D02*
D03*
X23882D02*
D03*
X25037Y10747D02*
D03*
X24630D02*
D03*
X23882D02*
D03*
X25037Y10740D02*
D03*
X24630D02*
D03*
X23882D02*
D03*
X25037Y10729D02*
D03*
X24630D02*
D03*
X23882D02*
D03*
X25037Y10722D02*
D03*
X24630D02*
D03*
X23882D02*
D03*
X25037Y10715D02*
D03*
X24630D02*
D03*
X23882D02*
D03*
X25037Y10704D02*
D03*
X24630D02*
D03*
X23882D02*
D03*
X25037Y10697D02*
D03*
X24630D02*
D03*
X23882D02*
D03*
X25037Y10690D02*
D03*
X24630D02*
D03*
X23882D02*
D03*
X25037Y10679D02*
D03*
X24630D02*
D03*
X23882D02*
D03*
X25037Y10672D02*
D03*
X24630D02*
D03*
X23882D02*
D03*
X25037Y10665D02*
D03*
X24630D02*
D03*
X23882D02*
D03*
X25037Y10658D02*
D03*
X24630D02*
D03*
X23882D02*
D03*
X25037Y10648D02*
D03*
X24630D02*
D03*
X23882D02*
D03*
X25037Y10640D02*
D03*
X24630D02*
D03*
X23882D02*
D03*
X25037Y10633D02*
D03*
X24630D02*
D03*
X23882D02*
D03*
X25037Y10623D02*
D03*
X24630D02*
D03*
X23882D02*
D03*
X25037Y10616D02*
D03*
X24630D02*
D03*
X23882D02*
D03*
X25037Y10609D02*
D03*
X24630D02*
D03*
X23882D02*
D03*
X25037Y10598D02*
D03*
X24630D02*
D03*
X23882D02*
D03*
X25037Y10591D02*
D03*
X24630D02*
D03*
X23882D02*
D03*
X25037Y10584D02*
D03*
X24630D02*
D03*
X23882D02*
D03*
X25037Y10573D02*
D03*
X24630D02*
D03*
X23882D02*
D03*
X25037Y10566D02*
D03*
X24630D02*
D03*
X23882D02*
D03*
X25037Y10559D02*
D03*
X24630D02*
D03*
X23882D02*
D03*
X25037Y10552D02*
D03*
X24630D02*
D03*
X23882D02*
D03*
X25037Y10541D02*
D03*
X24630D02*
D03*
X23882D02*
D03*
X25037Y10534D02*
D03*
X24630D02*
D03*
X23882D02*
D03*
X24630Y10527D02*
D03*
X23882D02*
D03*
X24630Y10516D02*
D03*
X23882D02*
D03*
X24630Y10509D02*
D03*
X23882D02*
D03*
X24630Y10502D02*
D03*
X23882D02*
D03*
X24630Y10492D02*
D03*
X23882D02*
D03*
X24630Y10485D02*
D03*
X23882D02*
D03*
X24630Y10477D02*
D03*
X23882D02*
D03*
X24630Y10467D02*
D03*
X23882D02*
D03*
X24630Y10460D02*
D03*
X23882D02*
D03*
X24630Y10453D02*
D03*
X23882D02*
D03*
X24630Y10442D02*
D03*
X23882D02*
D03*
X24630Y10435D02*
D03*
X23882D02*
D03*
X24630Y10428D02*
D03*
X23882D02*
D03*
X24630Y10421D02*
D03*
X23882D02*
D03*
X24630Y10410D02*
D03*
X23882D02*
D03*
X24630Y10403D02*
D03*
X23882D02*
D03*
X24630Y10396D02*
D03*
X23882D02*
D03*
X24630Y10385D02*
D03*
X23882D02*
D03*
X24630Y10378D02*
D03*
X23882D02*
D03*
X24630Y10371D02*
D03*
X23882D02*
D03*
X24630Y10361D02*
D03*
X23882D02*
D03*
X24630Y10353D02*
D03*
X23882D02*
D03*
X24630Y10346D02*
D03*
X23882D02*
D03*
Y10336D02*
D03*
X23886Y10322D02*
D03*
Y10314D02*
D03*
X25037Y10304D02*
D03*
X24626D02*
D03*
X23886D02*
D03*
X25037Y10297D02*
D03*
X24626D02*
D03*
X23886D02*
D03*
X25037Y10290D02*
D03*
X24626D02*
D03*
X23886D02*
D03*
X25037Y10279D02*
D03*
Y10272D02*
D03*
Y10265D02*
D03*
X23889D02*
D03*
X25037Y10254D02*
D03*
Y10247D02*
D03*
X24619D02*
D03*
X25037Y10240D02*
D03*
X24619D02*
D03*
X25037Y10229D02*
D03*
Y10222D02*
D03*
Y10215D02*
D03*
Y10208D02*
D03*
Y10198D02*
D03*
Y10190D02*
D03*
Y10183D02*
D03*
Y10173D02*
D03*
Y10166D02*
D03*
Y10159D02*
D03*
Y10148D02*
D03*
Y10141D02*
D03*
Y10134D02*
D03*
Y10123D02*
D03*
Y10116D02*
D03*
Y10109D02*
D03*
Y10102D02*
D03*
Y10091D02*
D03*
Y10084D02*
D03*
Y10077D02*
D03*
Y10066D02*
D03*
Y10059D02*
D03*
Y10052D02*
D03*
Y10042D02*
D03*
Y10035D02*
D03*
Y10027D02*
D03*
Y10017D02*
D03*
Y10010D02*
D03*
Y10003D02*
D03*
Y9992D02*
D03*
Y9985D02*
D03*
Y9978D02*
D03*
Y9971D02*
D03*
Y9960D02*
D03*
Y9953D02*
D03*
Y9946D02*
D03*
Y9935D02*
D03*
Y9928D02*
D03*
Y9921D02*
D03*
Y9911D02*
D03*
Y9903D02*
D03*
Y9896D02*
D03*
Y9886D02*
D03*
Y9879D02*
D03*
Y9872D02*
D03*
Y9864D02*
D03*
Y9854D02*
D03*
Y9847D02*
D03*
Y9840D02*
D03*
Y9829D02*
D03*
Y9822D02*
D03*
X25764Y9329D02*
D03*
D43*
X23471Y11098D02*
D03*
D44*
X22247D02*
D03*
X25028Y9283D02*
D03*
D45*
X26587Y11094D02*
D03*
X23459Y10325D02*
D03*
X21946Y10070D02*
D03*
X24011Y10063D02*
D03*
X25691Y10056D02*
D03*
X25698Y10045D02*
D03*
X24249Y9850D02*
D03*
D46*
X25136Y11094D02*
D03*
X26469Y11013D02*
D03*
X25229Y10414D02*
D03*
Y10368D02*
D03*
D47*
X23459Y11094D02*
D03*
X26552Y11080D02*
D03*
X23136Y10563D02*
D03*
D48*
X22247Y11094D02*
D03*
X22233Y9655D02*
D03*
X23136Y9443D02*
D03*
D49*
X26575Y11090D02*
D03*
X22245Y11066D02*
D03*
X25753Y9971D02*
D03*
X24251Y9854D02*
D03*
D50*
X25149Y11090D02*
D03*
D51*
X23446D02*
D03*
D52*
X22247D02*
D03*
X23157Y9496D02*
D03*
X22215Y9329D02*
D03*
X26279Y9315D02*
D03*
D53*
X26568Y11087D02*
D03*
X26160Y10074D02*
D03*
X25778Y9942D02*
D03*
D54*
X25158Y11087D02*
D03*
X25250Y10332D02*
D03*
D55*
X23437Y11087D02*
D03*
X22229Y9875D02*
D03*
X25861Y9861D02*
D03*
D56*
X22245Y11087D02*
D03*
X23000Y10807D02*
D03*
X25640Y10782D02*
D03*
Y10775D02*
D03*
X22993Y10726D02*
D03*
X22996Y10718D02*
D03*
X21806Y10662D02*
D03*
X22670Y10655D02*
D03*
X21802D02*
D03*
Y10651D02*
D03*
X22674Y10644D02*
D03*
X21799D02*
D03*
X26008Y10637D02*
D03*
X22674D02*
D03*
X22677Y10630D02*
D03*
X26005Y10626D02*
D03*
X22677D02*
D03*
X25615Y10612D02*
D03*
X22681D02*
D03*
X25611Y10605D02*
D03*
X25608Y10602D02*
D03*
X25604Y10594D02*
D03*
X22684D02*
D03*
X25987Y10350D02*
D03*
Y10343D02*
D03*
X25990Y10332D02*
D03*
Y10325D02*
D03*
X21792Y10300D02*
D03*
Y10293D02*
D03*
X21795Y10286D02*
D03*
Y10283D02*
D03*
X22667Y10261D02*
D03*
Y10258D02*
D03*
X22660Y10244D02*
D03*
X22656Y10233D02*
D03*
X23542Y10212D02*
D03*
X23545Y10205D02*
D03*
Y10201D02*
D03*
X23914Y10162D02*
D03*
X23918Y10155D02*
D03*
X22599Y9344D02*
D03*
D57*
X26559Y11083D02*
D03*
Y9829D02*
D03*
D58*
X25165Y11083D02*
D03*
X25257Y10442D02*
D03*
Y10314D02*
D03*
X22231Y9928D02*
D03*
D59*
X23429Y11083D02*
D03*
X22231Y9879D02*
D03*
D60*
X22247Y11083D02*
D03*
X25567Y10552D02*
D03*
D61*
X25174Y11080D02*
D03*
X24252Y9942D02*
D03*
D62*
X23421Y11080D02*
D03*
X24251Y9882D02*
D03*
X22231D02*
D03*
X25888Y9843D02*
D03*
D63*
X22247Y11080D02*
D03*
X22580Y10818D02*
D03*
X21900D02*
D03*
X26102Y10793D02*
D03*
X25542Y10538D02*
D03*
X23505Y10283D02*
D03*
X23972Y10081D02*
D03*
D64*
X26543Y11076D02*
D03*
X23389Y10375D02*
D03*
D65*
X25179Y11076D02*
D03*
D66*
X23416D02*
D03*
D67*
X22247D02*
D03*
X23065Y10874D02*
D03*
X26102Y10113D02*
D03*
X22541Y10081D02*
D03*
X23990Y10070D02*
D03*
D68*
X26538Y11073D02*
D03*
D69*
X25184D02*
D03*
D70*
X23409D02*
D03*
D71*
X22245D02*
D03*
X23471Y10314D02*
D03*
X21930Y10077D02*
D03*
D72*
X26532Y11069D02*
D03*
X23170Y10538D02*
D03*
X23368Y10389D02*
D03*
D73*
X25191Y11069D02*
D03*
X25283Y10481D02*
D03*
D74*
X23404Y11069D02*
D03*
D75*
X22245D02*
D03*
X26167Y10842D02*
D03*
X23081Y10602D02*
D03*
X26132Y10088D02*
D03*
X25707Y10031D02*
D03*
D76*
X26527Y11066D02*
D03*
X23186Y10527D02*
D03*
D77*
X25195Y11066D02*
D03*
D78*
X23398D02*
D03*
X26492Y9864D02*
D03*
D79*
X26522Y11062D02*
D03*
X23195Y10520D02*
D03*
X23343Y10407D02*
D03*
X25877Y9850D02*
D03*
D80*
X25200Y11062D02*
D03*
D81*
X23393D02*
D03*
D82*
X22245D02*
D03*
X23425Y10350D02*
D03*
D83*
X26516Y11059D02*
D03*
D84*
X25204D02*
D03*
D85*
X23390D02*
D03*
X22245Y11023D02*
D03*
X25214Y10403D02*
D03*
Y10385D02*
D03*
X26483Y9872D02*
D03*
D86*
X22245Y11059D02*
D03*
X23131Y10566D02*
D03*
X25813Y9903D02*
D03*
X22231Y9864D02*
D03*
D87*
X26513Y11055D02*
D03*
Y9850D02*
D03*
D88*
X25209Y11055D02*
D03*
D89*
X23384D02*
D03*
X22243Y11020D02*
D03*
X25220Y10407D02*
D03*
D90*
X22245Y11055D02*
D03*
X23145Y10555D02*
D03*
X25827Y9889D02*
D03*
X22231Y9868D02*
D03*
D91*
X26508Y11052D02*
D03*
X22245Y11037D02*
D03*
X23262Y10470D02*
D03*
X23269Y10463D02*
D03*
X23287Y10449D02*
D03*
D92*
X25213Y11052D02*
D03*
D93*
X23381D02*
D03*
X25223Y10375D02*
D03*
X24252Y9907D02*
D03*
D94*
X22243Y11052D02*
D03*
X23161Y10545D02*
D03*
D95*
X26504Y11048D02*
D03*
D96*
X25216D02*
D03*
D97*
X23377D02*
D03*
X22243Y11016D02*
D03*
X25227Y10371D02*
D03*
D98*
X22243Y11048D02*
D03*
D99*
X26501Y11044D02*
D03*
X24251Y9889D02*
D03*
X26501Y9857D02*
D03*
D100*
X25218Y11044D02*
D03*
X23294Y10899D02*
D03*
Y10896D02*
D03*
X26387Y10013D02*
D03*
D101*
X23374Y11044D02*
D03*
D102*
X22243D02*
D03*
D103*
X26497Y11041D02*
D03*
D104*
X25221D02*
D03*
X23290Y10885D02*
D03*
D105*
X23370Y11041D02*
D03*
D106*
X22243D02*
D03*
X23324Y10421D02*
D03*
D107*
X26492Y11037D02*
D03*
D108*
X25225D02*
D03*
D109*
X23366D02*
D03*
D110*
X26488Y11034D02*
D03*
D111*
X25229D02*
D03*
X22241Y10942D02*
D03*
D112*
X23363Y11034D02*
D03*
D113*
X22245D02*
D03*
D114*
X26485Y11030D02*
D03*
X25928Y9826D02*
D03*
D115*
X25230Y11030D02*
D03*
X26375Y10045D02*
D03*
D116*
X23359Y11030D02*
D03*
X22243Y11005D02*
D03*
X25244Y10343D02*
D03*
D117*
X22243Y11030D02*
D03*
X26495Y9861D02*
D03*
D118*
X26481Y11027D02*
D03*
D119*
X25234D02*
D03*
D120*
X23358D02*
D03*
X26451Y10988D02*
D03*
D121*
X22243Y11027D02*
D03*
X25209Y10400D02*
D03*
Y10389D02*
D03*
D122*
X26479Y11023D02*
D03*
D123*
X25236D02*
D03*
X22241Y10935D02*
D03*
D124*
X23354Y11023D02*
D03*
X26447Y10984D02*
D03*
D125*
X26476Y11020D02*
D03*
D126*
X25239D02*
D03*
X22241Y10931D02*
D03*
X24254Y10024D02*
D03*
D127*
X23351Y11020D02*
D03*
D128*
X26472Y11016D02*
D03*
X25941Y9822D02*
D03*
D129*
X25241Y11016D02*
D03*
X24252Y10027D02*
D03*
D130*
X23349Y11016D02*
D03*
X26442Y10977D02*
D03*
D131*
X25243Y11013D02*
D03*
X24254Y10031D02*
D03*
X22231Y9996D02*
D03*
D132*
X23345Y11013D02*
D03*
X22243Y10995D02*
D03*
X26439Y10970D02*
D03*
D133*
X22243Y11013D02*
D03*
D134*
X26467Y11009D02*
D03*
Y9886D02*
D03*
D135*
X25244Y11009D02*
D03*
D136*
X23344D02*
D03*
D137*
X22243D02*
D03*
X25237Y10421D02*
D03*
Y10353D02*
D03*
D138*
X26463Y11005D02*
D03*
Y9889D02*
D03*
D139*
X25248Y11005D02*
D03*
X24252Y10038D02*
D03*
D140*
X23342Y11005D02*
D03*
X26435Y9925D02*
D03*
D141*
X26460Y11002D02*
D03*
D142*
X25250D02*
D03*
X22231Y10003D02*
D03*
D143*
X23338Y11002D02*
D03*
X26431Y10959D02*
D03*
D144*
X22243Y11002D02*
D03*
X25248Y10336D02*
D03*
D145*
X26458Y10998D02*
D03*
X25239Y10350D02*
D03*
D146*
X25252Y10998D02*
D03*
D147*
X23336D02*
D03*
X22241Y10988D02*
D03*
X26430Y10956D02*
D03*
X25268Y10456D02*
D03*
X26430Y9932D02*
D03*
D148*
X22241Y10998D02*
D03*
X25253Y10439D02*
D03*
Y10325D02*
D03*
X22231Y9925D02*
D03*
D149*
X26455Y10995D02*
D03*
Y9900D02*
D03*
D150*
X25253Y10995D02*
D03*
X24254Y10049D02*
D03*
D151*
X23335Y10995D02*
D03*
D152*
X26453Y10991D02*
D03*
X25244Y10428D02*
D03*
D153*
X25255Y10991D02*
D03*
D154*
X23331D02*
D03*
X22243Y10984D02*
D03*
D155*
X22243Y10991D02*
D03*
D156*
X25257Y10988D02*
D03*
D157*
X23329D02*
D03*
X26423Y10945D02*
D03*
Y9942D02*
D03*
D158*
X25259Y10984D02*
D03*
X22240Y10910D02*
D03*
D159*
X23328Y10984D02*
D03*
X26421Y10942D02*
D03*
X24252Y9953D02*
D03*
X26421Y9946D02*
D03*
D160*
X26446Y10981D02*
D03*
D161*
X25260D02*
D03*
X22241Y10906D02*
D03*
D162*
X23326Y10981D02*
D03*
X26419Y10938D02*
D03*
Y9950D02*
D03*
D163*
X22243Y10981D02*
D03*
X25276Y10470D02*
D03*
D164*
X25262Y10977D02*
D03*
D165*
X23324D02*
D03*
X26417Y10935D02*
D03*
Y9953D02*
D03*
D166*
X22243Y10977D02*
D03*
D167*
X26440Y10974D02*
D03*
X25257Y10318D02*
D03*
X26440Y9918D02*
D03*
D168*
X25264Y10974D02*
D03*
Y10970D02*
D03*
X22231Y10020D02*
D03*
D169*
X23322Y10974D02*
D03*
X26416Y10931D02*
D03*
Y9957D02*
D03*
D170*
X22241Y10974D02*
D03*
X26412Y10924D02*
D03*
X22231Y9950D02*
D03*
D171*
X23320Y10970D02*
D03*
D172*
X22243D02*
D03*
X25291Y10495D02*
D03*
X24252Y9967D02*
D03*
D173*
X26435Y10966D02*
D03*
D174*
X25266D02*
D03*
D175*
X23319D02*
D03*
X25285Y10485D02*
D03*
X26412Y9960D02*
D03*
D176*
X22243Y10966D02*
D03*
X25294Y10502D02*
D03*
X26403Y9978D02*
D03*
X24252Y9971D02*
D03*
D177*
X26433Y10963D02*
D03*
X22231Y9932D02*
D03*
D178*
X25268Y10963D02*
D03*
X22241Y10899D02*
D03*
X22231Y10024D02*
D03*
X22947Y9843D02*
D03*
D179*
X23317Y10963D02*
D03*
X26410Y10920D02*
D03*
Y9964D02*
D03*
D180*
X22241Y10963D02*
D03*
X23305Y10931D02*
D03*
X26398Y10896D02*
D03*
Y9989D02*
D03*
D181*
X25269Y10959D02*
D03*
D182*
X23315D02*
D03*
X26408Y10917D02*
D03*
X25289Y10492D02*
D03*
D183*
X22241Y10959D02*
D03*
D184*
X25269Y10956D02*
D03*
X23200Y10031D02*
D03*
D185*
X23313Y10956D02*
D03*
X26407Y10913D02*
D03*
D186*
X22241Y10956D02*
D03*
X22231Y9967D02*
D03*
D187*
X26428Y10952D02*
D03*
X25269Y10460D02*
D03*
X24252Y9946D02*
D03*
X26428Y9935D02*
D03*
D188*
X25271Y10952D02*
D03*
X22231Y10027D02*
D03*
X22957Y9847D02*
D03*
D189*
X23313Y10952D02*
D03*
X26407Y9971D02*
D03*
D190*
X22241Y10952D02*
D03*
X26387Y10871D02*
D03*
X24254Y9992D02*
D03*
X22231Y9971D02*
D03*
D191*
X26426Y10949D02*
D03*
Y9939D02*
D03*
X22231D02*
D03*
D192*
X25273Y10949D02*
D03*
Y10945D02*
D03*
D193*
X23312Y10949D02*
D03*
X25292Y10499D02*
D03*
X26405Y9974D02*
D03*
D194*
X22241Y10949D02*
D03*
D195*
X23310Y10945D02*
D03*
D196*
X22241D02*
D03*
D197*
X25275Y10942D02*
D03*
X22241Y10892D02*
D03*
X22978Y9854D02*
D03*
D198*
X23308Y10942D02*
D03*
X26401Y10903D02*
D03*
D199*
X25276Y10938D02*
D03*
X23168Y9989D02*
D03*
X23161Y9981D02*
D03*
X22998Y9861D02*
D03*
D200*
X23306Y10938D02*
D03*
X26400Y10899D02*
D03*
D201*
X22241Y10938D02*
D03*
X26373Y10049D02*
D03*
X24254Y10013D02*
D03*
D202*
X25276Y10935D02*
D03*
X23165Y9985D02*
D03*
D203*
X23305Y10935D02*
D03*
D204*
X25278Y10931D02*
D03*
X22241Y10889D02*
D03*
X23028Y9875D02*
D03*
D205*
X26414Y10927D02*
D03*
D206*
X25278D02*
D03*
X23159Y9978D02*
D03*
X23142Y9960D02*
D03*
X23035Y9879D02*
D03*
D207*
X23303Y10927D02*
D03*
X26396Y10892D02*
D03*
X25301Y10516D02*
D03*
X26396Y9992D02*
D03*
D208*
X22241Y10927D02*
D03*
D209*
X25280Y10924D02*
D03*
Y10920D02*
D03*
X23140Y9957D02*
D03*
X23133Y9950D02*
D03*
X23104Y9925D02*
D03*
X23090Y9914D02*
D03*
X23058Y9893D02*
D03*
X23055Y9889D02*
D03*
X23040Y9882D02*
D03*
D210*
X23303Y10924D02*
D03*
X26396Y10889D02*
D03*
X24252Y9981D02*
D03*
D211*
X22241Y10924D02*
D03*
D212*
X23301Y10920D02*
D03*
X26394Y9996D02*
D03*
D213*
X22241Y10920D02*
D03*
X24254Y10045D02*
D03*
D214*
X25282Y10917D02*
D03*
D215*
X23299D02*
D03*
X24252Y9985D02*
D03*
D216*
X22241Y10917D02*
D03*
X24254Y10052D02*
D03*
D217*
X25282Y10913D02*
D03*
X22231Y10038D02*
D03*
X23120Y9939D02*
D03*
X23113Y9932D02*
D03*
X23095Y9918D02*
D03*
X23081Y9907D02*
D03*
X23071Y9900D02*
D03*
D218*
X23299Y10913D02*
D03*
X26393Y10881D02*
D03*
X25305Y10524D02*
D03*
X26393Y9999D02*
D03*
D219*
X22241Y10913D02*
D03*
X24254Y10056D02*
D03*
D220*
X26405Y10910D02*
D03*
D221*
X25283D02*
D03*
X22233Y10042D02*
D03*
D222*
X23297Y10910D02*
D03*
D223*
X26403Y10906D02*
D03*
D224*
X25283D02*
D03*
D225*
X23296D02*
D03*
X26389Y10874D02*
D03*
Y10006D02*
D03*
D226*
X25285Y10903D02*
D03*
X22241Y10878D02*
D03*
D227*
X23296Y10903D02*
D03*
X26389Y10010D02*
D03*
D228*
X22241Y10903D02*
D03*
D229*
X25285Y10899D02*
D03*
Y10896D02*
D03*
D230*
X22241D02*
D03*
X23195Y10024D02*
D03*
X23188Y10013D02*
D03*
D231*
X25287Y10892D02*
D03*
D232*
X23292D02*
D03*
X26385Y10017D02*
D03*
D233*
X25287Y10889D02*
D03*
X22240Y10874D02*
D03*
D234*
X23292Y10889D02*
D03*
X26385Y10867D02*
D03*
Y10864D02*
D03*
D235*
X26394Y10885D02*
D03*
D236*
X25547D02*
D03*
X25735Y9992D02*
D03*
D237*
X22240Y10885D02*
D03*
X23136Y9953D02*
D03*
X23129Y9946D02*
D03*
X23108Y9928D02*
D03*
X23101Y9921D02*
D03*
X23076Y9903D02*
D03*
X23065Y9896D02*
D03*
X23048Y9886D02*
D03*
D238*
X25565Y10881D02*
D03*
X23468Y10318D02*
D03*
X21937Y10074D02*
D03*
X22521Y10070D02*
D03*
D239*
X23094Y10881D02*
D03*
D240*
X22241D02*
D03*
D241*
X26391Y10878D02*
D03*
X25306Y10527D02*
D03*
X26391Y10003D02*
D03*
D242*
X23076Y10878D02*
D03*
D243*
X25583Y10874D02*
D03*
X22553Y10839D02*
D03*
X21926D02*
D03*
X26128Y10818D02*
D03*
X23053Y10626D02*
D03*
X23485Y10300D02*
D03*
X26093Y10120D02*
D03*
D244*
X25588Y10871D02*
D03*
D245*
X23058D02*
D03*
X22559Y10835D02*
D03*
X21921D02*
D03*
D246*
X22240Y10871D02*
D03*
D247*
X25593Y10867D02*
D03*
X26107Y10800D02*
D03*
X21894Y10105D02*
D03*
D248*
X23053Y10867D02*
D03*
X23042Y10637D02*
D03*
D249*
X22241Y10867D02*
D03*
X22231Y10056D02*
D03*
D250*
X25597Y10864D02*
D03*
D251*
X23046D02*
D03*
X26065Y10152D02*
D03*
X21887Y10113D02*
D03*
X22575Y10105D02*
D03*
D252*
X22241Y10864D02*
D03*
D253*
X26219Y10860D02*
D03*
D254*
X25602D02*
D03*
X22587Y10811D02*
D03*
X21892D02*
D03*
X26095Y10786D02*
D03*
X25549Y10541D02*
D03*
X24249Y9840D02*
D03*
D255*
X23040Y10860D02*
D03*
X26059Y10159D02*
D03*
D256*
X22505Y10860D02*
D03*
X21974D02*
D03*
X26152Y10077D02*
D03*
X25762Y9960D02*
D03*
D257*
X26203Y10857D02*
D03*
D258*
X25606D02*
D03*
X23037D02*
D03*
X21889Y10807D02*
D03*
X21882Y10800D02*
D03*
X23026Y10655D02*
D03*
X25450Y10307D02*
D03*
D259*
X22520Y10857D02*
D03*
X21963D02*
D03*
X25712Y10024D02*
D03*
D260*
X26191Y10853D02*
D03*
X23108Y10584D02*
D03*
X23430Y10346D02*
D03*
X25772Y9946D02*
D03*
D261*
X25608Y10853D02*
D03*
X22599Y10796D02*
D03*
X21880D02*
D03*
X26082Y10772D02*
D03*
X23025Y10658D02*
D03*
X23517Y10265D02*
D03*
X26051Y10173D02*
D03*
X22585Y10116D02*
D03*
X23960Y10091D02*
D03*
D262*
X23033Y10853D02*
D03*
X22608Y10786D02*
D03*
X26077Y10764D02*
D03*
X21861Y10141D02*
D03*
X22590Y10123D02*
D03*
D263*
X22529Y10853D02*
D03*
X26128Y10091D02*
D03*
D264*
X21953Y10853D02*
D03*
X23462Y10322D02*
D03*
D265*
X26183Y10850D02*
D03*
X25744Y9981D02*
D03*
D266*
X25609Y10850D02*
D03*
X22605Y10789D02*
D03*
X26074Y10761D02*
D03*
X25560Y10548D02*
D03*
X26042Y10187D02*
D03*
X23508Y10070D02*
D03*
D267*
X23028Y10850D02*
D03*
X21873Y10789D02*
D03*
X22610Y10782D02*
D03*
X26072Y10757D02*
D03*
X23017Y10669D02*
D03*
X21852Y10155D02*
D03*
X21855Y10152D02*
D03*
X21859Y10144D02*
D03*
X22599Y10130D02*
D03*
X23953Y10098D02*
D03*
X24555Y10095D02*
D03*
D268*
X22536Y10850D02*
D03*
X26118Y10098D02*
D03*
X23464Y10045D02*
D03*
D269*
X21946Y10850D02*
D03*
X22229Y9850D02*
D03*
D270*
X26175Y10846D02*
D03*
X26139Y10084D02*
D03*
X25717Y10017D02*
D03*
X25721Y10010D02*
D03*
X25728Y10003D02*
D03*
D271*
X25615Y10846D02*
D03*
X22613Y10779D02*
D03*
X26068Y10754D02*
D03*
X26036Y10198D02*
D03*
X26040Y10190D02*
D03*
X24552Y10091D02*
D03*
X22231Y9840D02*
D03*
D272*
X23025Y10846D02*
D03*
X22617Y10772D02*
D03*
X21859D02*
D03*
X21855Y10764D02*
D03*
X26058Y10740D02*
D03*
X23014Y10672D02*
D03*
X25469Y10297D02*
D03*
X23524Y10254D02*
D03*
X21845Y10166D02*
D03*
X22606Y10141D02*
D03*
D273*
X22543Y10846D02*
D03*
X21937D02*
D03*
X26143Y10828D02*
D03*
X23999Y10066D02*
D03*
D274*
X25617Y10842D02*
D03*
X22615Y10775D02*
D03*
X26067Y10750D02*
D03*
X23522Y10258D02*
D03*
X26035Y10201D02*
D03*
X23948Y10105D02*
D03*
D275*
X23023Y10842D02*
D03*
X21853Y10761D02*
D03*
X22626Y10757D02*
D03*
X26056Y10736D02*
D03*
X26052Y10733D02*
D03*
X23012Y10676D02*
D03*
X25577Y10563D02*
D03*
X23530Y10244D02*
D03*
X26024Y10219D02*
D03*
X21836Y10180D02*
D03*
X21839Y10176D02*
D03*
X21843Y10169D02*
D03*
X22615Y10152D02*
D03*
X21832Y9613D02*
D03*
X21829Y9344D02*
D03*
D276*
X22550Y10842D02*
D03*
X21933D02*
D03*
X26139Y10825D02*
D03*
D277*
X26160Y10839D02*
D03*
X23078Y10605D02*
D03*
D278*
X25618Y10839D02*
D03*
X21862Y10775D02*
D03*
X22621Y10768D02*
D03*
X22624Y10761D02*
D03*
X26061Y10743D02*
D03*
X25569Y10555D02*
D03*
X23524Y10251D02*
D03*
X26033Y10205D02*
D03*
X21848Y10162D02*
D03*
X24559Y10098D02*
D03*
D279*
X23019Y10839D02*
D03*
X21857Y10768D02*
D03*
X21850Y10757D02*
D03*
X23519Y10081D02*
D03*
D280*
X26155Y10835D02*
D03*
D281*
X25620D02*
D03*
X22622Y10764D02*
D03*
X26052Y10729D02*
D03*
X23009Y10679D02*
D03*
X25574Y10559D02*
D03*
X26020Y10229D02*
D03*
X26024Y10222D02*
D03*
X26028Y10215D02*
D03*
X22612Y10148D02*
D03*
X24561Y10102D02*
D03*
X23515Y10077D02*
D03*
D282*
X23016Y10835D02*
D03*
X25624Y10828D02*
D03*
X25627Y10821D02*
D03*
X21843Y10747D02*
D03*
X22637Y10740D02*
D03*
X21839D02*
D03*
X26042Y10715D02*
D03*
X23005Y10690D02*
D03*
X25581Y10566D02*
D03*
X25489Y10279D02*
D03*
X26013Y10247D02*
D03*
X26017Y10240D02*
D03*
X21822Y10208D02*
D03*
X22622Y10166D02*
D03*
X23933Y10123D02*
D03*
X24568Y10109D02*
D03*
D283*
X26148Y10832D02*
D03*
D284*
X25622D02*
D03*
X22635Y10743D02*
D03*
X25480Y10286D02*
D03*
X26022Y10226D02*
D03*
X21834Y10187D02*
D03*
X22621Y10162D02*
D03*
X22617Y10155D02*
D03*
X23942Y10113D02*
D03*
X24566Y10105D02*
D03*
D285*
X23014Y10832D02*
D03*
X22638Y10736D02*
D03*
X21838D02*
D03*
Y10733D02*
D03*
X22645Y10726D02*
D03*
X26008Y10261D02*
D03*
Y10258D02*
D03*
X26012Y10251D02*
D03*
X25512D02*
D03*
X21820Y10212D02*
D03*
X22631Y10180D02*
D03*
X23932Y10127D02*
D03*
X24569Y10113D02*
D03*
X21830Y9620D02*
D03*
D286*
X22564Y10832D02*
D03*
X26125Y10814D02*
D03*
X23049Y10630D02*
D03*
X26086Y10127D02*
D03*
X21905Y10095D02*
D03*
X24251Y9843D02*
D03*
D287*
X21917Y10832D02*
D03*
X26116Y10807D02*
D03*
X26084Y10130D02*
D03*
X23983Y10074D02*
D03*
D288*
X23010Y10828D02*
D03*
X22642Y10729D02*
D03*
X21834D02*
D03*
X22649Y10715D02*
D03*
X26036Y10704D02*
D03*
X25586Y10573D02*
D03*
X22628Y10173D02*
D03*
X24573Y10116D02*
D03*
X23528Y10091D02*
D03*
X25622Y10077D02*
D03*
D289*
X22568Y10828D02*
D03*
X25533Y10534D02*
D03*
X23496Y10290D02*
D03*
X26079Y10134D02*
D03*
X23978Y10077D02*
D03*
D290*
X21912Y10828D02*
D03*
X22557Y10091D02*
D03*
D291*
X25627Y10825D02*
D03*
X21846Y10750D02*
D03*
X21843Y10743D02*
D03*
X22640Y10733D02*
D03*
X26045Y10718D02*
D03*
X26042Y10711D02*
D03*
X26038Y10708D02*
D03*
X25585Y10570D02*
D03*
X25485Y10283D02*
D03*
X26013Y10244D02*
D03*
X26017Y10237D02*
D03*
X23533D02*
D03*
X21825Y10201D02*
D03*
X21829Y10194D02*
D03*
X22629Y10176D02*
D03*
X22626Y10169D02*
D03*
X23937Y10120D02*
D03*
X23522Y10088D02*
D03*
X24249Y9836D02*
D03*
X21829Y9337D02*
D03*
D292*
X23009Y10825D02*
D03*
X25631Y10814D02*
D03*
X21832Y10726D02*
D03*
X22647Y10718D02*
D03*
X21829D02*
D03*
X22654Y10701D02*
D03*
X26031Y10694D02*
D03*
X26028Y10687D02*
D03*
Y10683D02*
D03*
X25592Y10577D02*
D03*
X26003Y10276D02*
D03*
X26006Y10268D02*
D03*
X25517Y10244D02*
D03*
X21807D02*
D03*
X25524Y10233D02*
D03*
X21811D02*
D03*
X23537Y10226D02*
D03*
X21814D02*
D03*
X25535Y10219D02*
D03*
X21818D02*
D03*
X25546Y10201D02*
D03*
X22644D02*
D03*
X22640Y10194D02*
D03*
X22637Y10187D02*
D03*
X25560Y10180D02*
D03*
X25567Y10169D02*
D03*
X25570Y10162D02*
D03*
X25574Y10155D02*
D03*
X25577Y10152D02*
D03*
X25581Y10144D02*
D03*
X25585Y10137D02*
D03*
X23926D02*
D03*
X23930Y10130D02*
D03*
X25592Y10127D02*
D03*
X25595Y10120D02*
D03*
X24575D02*
D03*
X25606Y10105D02*
D03*
X25609Y10098D02*
D03*
X23530Y10095D02*
D03*
X25617Y10088D02*
D03*
X25620Y10081D02*
D03*
X25624Y10074D02*
D03*
X25627Y10070D02*
D03*
X25631Y10063D02*
D03*
X21832Y9624D02*
D03*
X21829Y9333D02*
D03*
D293*
X22573Y10825D02*
D03*
X21907D02*
D03*
X23501Y10286D02*
D03*
X26077Y10137D02*
D03*
X22562Y10095D02*
D03*
X24529Y10074D02*
D03*
X23491Y10056D02*
D03*
X22229Y9843D02*
D03*
D294*
X26134Y10821D02*
D03*
X23483Y10304D02*
D03*
X22229Y9847D02*
D03*
D295*
X23007Y10821D02*
D03*
X25632Y10803D02*
D03*
X25636Y10796D02*
D03*
X23000Y10704D02*
D03*
X22656Y10697D02*
D03*
X21820D02*
D03*
X26026Y10679D02*
D03*
X22663D02*
D03*
X26019Y10665D02*
D03*
X26001Y10290D02*
D03*
X21802Y10254D02*
D03*
X21806Y10247D02*
D03*
X21813Y10229D02*
D03*
X25533Y10222D02*
D03*
X23538D02*
D03*
X25537Y10215D02*
D03*
X22649D02*
D03*
X22645Y10208D02*
D03*
X25558Y10183D02*
D03*
X25569Y10166D02*
D03*
X23921Y10148D02*
D03*
X25583Y10141D02*
D03*
X23925D02*
D03*
X24577Y10123D02*
D03*
X23531Y10102D02*
D03*
D296*
X22576Y10821D02*
D03*
X21903D02*
D03*
X26105Y10796D02*
D03*
X21889Y10109D02*
D03*
D297*
X25629Y10818D02*
D03*
X26036Y10701D02*
D03*
X23003Y10694D02*
D03*
X25491Y10276D02*
D03*
X25498Y10268D02*
D03*
X25505Y10261D02*
D03*
X23535Y10233D02*
D03*
X21823Y10205D02*
D03*
X25611Y10095D02*
D03*
D298*
X23007Y10818D02*
D03*
X25632Y10807D02*
D03*
X25636Y10800D02*
D03*
X21823Y10708D02*
D03*
X23000Y10701D02*
D03*
X21820D02*
D03*
X22656Y10694D02*
D03*
X22663Y10676D02*
D03*
X25593Y10580D02*
D03*
X26001Y10286D02*
D03*
Y10283D02*
D03*
X21802Y10258D02*
D03*
X21806Y10251D02*
D03*
X25530Y10226D02*
D03*
X22649Y10212D02*
D03*
X25544Y10205D02*
D03*
X22645D02*
D03*
X25551Y10194D02*
D03*
X25562Y10176D02*
D03*
X25590Y10130D02*
D03*
X24580Y10127D02*
D03*
X25601Y10113D02*
D03*
X23531Y10098D02*
D03*
D299*
X23005Y10814D02*
D03*
X25638Y10793D02*
D03*
Y10789D02*
D03*
X21818Y10694D02*
D03*
X21815Y10687D02*
D03*
X22661Y10683D02*
D03*
X21815D02*
D03*
X21811Y10676D02*
D03*
X26020Y10669D02*
D03*
X21807D02*
D03*
X26017Y10662D02*
D03*
X22668D02*
D03*
X26013Y10655D02*
D03*
Y10651D02*
D03*
X25599Y10587D02*
D03*
X25992Y10318D02*
D03*
X25996Y10311D02*
D03*
Y10307D02*
D03*
X21800Y10268D02*
D03*
Y10261D02*
D03*
X22658Y10237D02*
D03*
X23540Y10219D02*
D03*
X22651D02*
D03*
X23919Y10152D02*
D03*
X24582Y10130D02*
D03*
X23533Y10105D02*
D03*
D300*
X22583Y10814D02*
D03*
X21896D02*
D03*
X26098Y10789D02*
D03*
X23030Y10651D02*
D03*
X23508Y10276D02*
D03*
X26063Y10155D02*
D03*
X24539Y10081D02*
D03*
D301*
X26120Y10811D02*
D03*
D302*
X25631D02*
D03*
X22654Y10704D02*
D03*
X21822D02*
D03*
X23001Y10697D02*
D03*
X26031Y10690D02*
D03*
X26003Y10279D02*
D03*
X26006Y10272D02*
D03*
Y10265D02*
D03*
X25510Y10254D02*
D03*
X25514Y10247D02*
D03*
X25521Y10240D02*
D03*
X25528Y10229D02*
D03*
X23537D02*
D03*
X21814Y10222D02*
D03*
X25542Y10208D02*
D03*
X25549Y10198D02*
D03*
X25553Y10190D02*
D03*
X22637D02*
D03*
X22633Y10183D02*
D03*
X25563Y10173D02*
D03*
X25595Y10123D02*
D03*
X25599Y10116D02*
D03*
X25602Y10109D02*
D03*
X25606Y10102D02*
D03*
X25617Y10084D02*
D03*
X25627Y10066D02*
D03*
D303*
X23002Y10811D02*
D03*
X25638Y10786D02*
D03*
X21815Y10690D02*
D03*
X21811Y10679D02*
D03*
X22665Y10672D02*
D03*
X22668Y10665D02*
D03*
X26017Y10658D02*
D03*
X22668D02*
D03*
X25606Y10598D02*
D03*
X25602Y10591D02*
D03*
X25992Y10322D02*
D03*
Y10314D02*
D03*
X25996Y10304D02*
D03*
X21793Y10290D02*
D03*
X21800Y10265D02*
D03*
X23540Y10215D02*
D03*
X23537Y10109D02*
D03*
X21832Y9627D02*
D03*
D304*
X26113Y10803D02*
D03*
X23041Y10640D02*
D03*
X21896Y10102D02*
D03*
D305*
X23000Y10803D02*
D03*
X25640Y10779D02*
D03*
Y10772D02*
D03*
X22993Y10729D02*
D03*
X22996Y10715D02*
D03*
X21809Y10672D02*
D03*
X21806Y10665D02*
D03*
X21802Y10658D02*
D03*
X26012Y10648D02*
D03*
X22674Y10640D02*
D03*
X21799D02*
D03*
X26008Y10633D02*
D03*
X22677D02*
D03*
X26005Y10623D02*
D03*
X22681Y10616D02*
D03*
Y10609D02*
D03*
X25987Y10353D02*
D03*
Y10346D02*
D03*
X25990Y10336D02*
D03*
Y10329D02*
D03*
X21784D02*
D03*
X21792Y10297D02*
D03*
X22670Y10272D02*
D03*
X22660Y10240D02*
D03*
X22656Y10229D02*
D03*
X23542Y10208D02*
D03*
X23545Y10198D02*
D03*
X23914Y10166D02*
D03*
X23918Y10159D02*
D03*
X24591Y10148D02*
D03*
X24587Y10141D02*
D03*
D306*
X22594Y10803D02*
D03*
X26088Y10779D02*
D03*
X23512Y10272D02*
D03*
X26056Y10166D02*
D03*
X24543Y10084D02*
D03*
D307*
X21885Y10803D02*
D03*
X21868Y10134D02*
D03*
X23505Y10066D02*
D03*
D308*
X22998Y10800D02*
D03*
X25641Y10768D02*
D03*
Y10761D02*
D03*
Y10757D02*
D03*
Y10750D02*
D03*
X22991Y10736D02*
D03*
Y10733D02*
D03*
X21797Y10637D02*
D03*
X25624Y10630D02*
D03*
X21797D02*
D03*
X26003Y10619D02*
D03*
X22679D02*
D03*
X25999Y10605D02*
D03*
X21790D02*
D03*
X25999Y10602D02*
D03*
X21790D02*
D03*
X25996Y10594D02*
D03*
Y10587D02*
D03*
X22686D02*
D03*
X21786D02*
D03*
X25992Y10580D02*
D03*
X22686D02*
D03*
X25992Y10577D02*
D03*
X22686D02*
D03*
X22690Y10563D02*
D03*
Y10555D02*
D03*
X25985Y10375D02*
D03*
X21779D02*
D03*
X25985Y10368D02*
D03*
X21779D02*
D03*
X25985Y10364D02*
D03*
X21779D02*
D03*
X25985Y10357D02*
D03*
X21779D02*
D03*
X21786Y10325D02*
D03*
Y10318D02*
D03*
X22679Y10307D02*
D03*
X22672Y10283D02*
D03*
Y10276D02*
D03*
X23547Y10194D02*
D03*
Y10187D02*
D03*
Y10180D02*
D03*
X23909Y10176D02*
D03*
X23547D02*
D03*
X24592Y10152D02*
D03*
X23540Y10127D02*
D03*
Y10120D02*
D03*
X21829Y9326D02*
D03*
D309*
X22596Y10800D02*
D03*
X22603Y10793D02*
D03*
X26079Y10768D02*
D03*
X23021Y10662D02*
D03*
X25554Y10545D02*
D03*
X26047Y10180D02*
D03*
X21866Y10137D02*
D03*
X22589Y10120D02*
D03*
X23956Y10095D02*
D03*
X24548Y10088D02*
D03*
D310*
X22998Y10796D02*
D03*
X25641Y10764D02*
D03*
Y10754D02*
D03*
X22991Y10740D02*
D03*
X21797Y10633D02*
D03*
X22679Y10623D02*
D03*
X26003Y10616D02*
D03*
X25617D02*
D03*
X25999Y10609D02*
D03*
X21790D02*
D03*
X25996Y10591D02*
D03*
X22686D02*
D03*
X21786D02*
D03*
X22686Y10584D02*
D03*
X25992Y10573D02*
D03*
X22686D02*
D03*
X22690Y10566D02*
D03*
Y10559D02*
D03*
Y10552D02*
D03*
X25985Y10371D02*
D03*
X21779D02*
D03*
X25985Y10361D02*
D03*
X21779D02*
D03*
X21786Y10322D02*
D03*
X22679Y10304D02*
D03*
X22672Y10279D02*
D03*
X22665Y10254D02*
D03*
X23547Y10190D02*
D03*
Y10183D02*
D03*
X23540Y10123D02*
D03*
X22598Y9340D02*
D03*
D311*
X22996Y10793D02*
D03*
X22993Y10782D02*
D03*
Y10775D02*
D03*
Y10768D02*
D03*
Y10750D02*
D03*
X25643Y10743D02*
D03*
X22993D02*
D03*
X25643Y10736D02*
D03*
Y10733D02*
D03*
Y10726D02*
D03*
Y10718D02*
D03*
Y10711D02*
D03*
X25640Y10687D02*
D03*
X25632Y10655D02*
D03*
X25629Y10644D02*
D03*
X25625Y10637D02*
D03*
X25622Y10626D02*
D03*
X25618Y10619D02*
D03*
X21791Y10612D02*
D03*
X21788Y10594D02*
D03*
X21784Y10580D02*
D03*
Y10577D02*
D03*
X25990Y10570D02*
D03*
X22688D02*
D03*
X25990Y10563D02*
D03*
X21781D02*
D03*
Y10555D02*
D03*
X25987Y10548D02*
D03*
X22691D02*
D03*
X21781D02*
D03*
X25987Y10545D02*
D03*
X22691D02*
D03*
X21781D02*
D03*
X25987Y10538D02*
D03*
X22691D02*
D03*
X21777D02*
D03*
X22691Y10531D02*
D03*
X21777D02*
D03*
X25983Y10524D02*
D03*
X21777D02*
D03*
X25983Y10520D02*
D03*
X21777D02*
D03*
X25983Y10513D02*
D03*
X21777D02*
D03*
X25983Y10506D02*
D03*
X22695D02*
D03*
Y10499D02*
D03*
Y10495D02*
D03*
Y10488D02*
D03*
X21774D02*
D03*
X25980Y10481D02*
D03*
X22695D02*
D03*
X21774D02*
D03*
X25980Y10474D02*
D03*
X22695D02*
D03*
X21774D02*
D03*
X25980Y10470D02*
D03*
X22695D02*
D03*
X21774D02*
D03*
X25980Y10463D02*
D03*
X22695D02*
D03*
X21774D02*
D03*
X25980Y10456D02*
D03*
X22695D02*
D03*
X21774D02*
D03*
X25980Y10449D02*
D03*
X22695D02*
D03*
X21774D02*
D03*
X25980Y10446D02*
D03*
X22695D02*
D03*
X21774D02*
D03*
X25980Y10439D02*
D03*
X22695D02*
D03*
X21774D02*
D03*
X25980Y10431D02*
D03*
X22695D02*
D03*
X21774D02*
D03*
X25980Y10424D02*
D03*
X22695D02*
D03*
X21774D02*
D03*
X25980Y10417D02*
D03*
X22695D02*
D03*
X21774D02*
D03*
X25980Y10414D02*
D03*
X21774D02*
D03*
X22691Y10400D02*
D03*
X21777D02*
D03*
X22691Y10392D02*
D03*
X21777D02*
D03*
X22691Y10389D02*
D03*
X21777D02*
D03*
X25983Y10382D02*
D03*
X22691D02*
D03*
X21777D02*
D03*
X22691Y10375D02*
D03*
X22688Y10364D02*
D03*
Y10357D02*
D03*
Y10350D02*
D03*
X22684Y10343D02*
D03*
Y10339D02*
D03*
Y10332D02*
D03*
Y10325D02*
D03*
X22681Y10318D02*
D03*
Y10311D02*
D03*
X22677Y10300D02*
D03*
X22674Y10286D02*
D03*
X23903Y10194D02*
D03*
X23907Y10187D02*
D03*
Y10180D02*
D03*
X24598Y10162D02*
D03*
X24594Y10155D02*
D03*
X23545D02*
D03*
Y10152D02*
D03*
Y10144D02*
D03*
Y10137D02*
D03*
X26639Y9507D02*
D03*
X23907D02*
D03*
X22599Y9337D02*
D03*
D312*
X21875Y10793D02*
D03*
X23519Y10261D02*
D03*
X22594Y10127D02*
D03*
D313*
X22994Y10789D02*
D03*
X26006Y10630D02*
D03*
X21793Y10626D02*
D03*
Y10619D02*
D03*
X22683Y10605D02*
D03*
Y10602D02*
D03*
X21783Y10570D02*
D03*
X25989Y10555D02*
D03*
X22693Y10524D02*
D03*
Y10520D02*
D03*
Y10513D02*
D03*
X25981Y10407D02*
D03*
X21776D02*
D03*
X25981Y10400D02*
D03*
Y10392D02*
D03*
Y10389D02*
D03*
X21783Y10350D02*
D03*
Y10343D02*
D03*
X25989Y10339D02*
D03*
X21783D02*
D03*
Y10332D02*
D03*
X22676Y10293D02*
D03*
X22668Y10268D02*
D03*
X23912Y10169D02*
D03*
X24589Y10144D02*
D03*
X23544Y10130D02*
D03*
X21832Y9631D02*
D03*
D314*
X22994Y10786D02*
D03*
Y10722D02*
D03*
X21800Y10648D02*
D03*
X25620Y10623D02*
D03*
X21793D02*
D03*
Y10616D02*
D03*
X25613Y10609D02*
D03*
X22683Y10598D02*
D03*
X21783Y10566D02*
D03*
X22693Y10527D02*
D03*
Y10516D02*
D03*
X21776Y10410D02*
D03*
X25981Y10403D02*
D03*
X21776D02*
D03*
X25981Y10396D02*
D03*
Y10385D02*
D03*
X21783Y10346D02*
D03*
Y10336D02*
D03*
X22683Y10322D02*
D03*
X22676Y10290D02*
D03*
X22668Y10265D02*
D03*
X23544Y10134D02*
D03*
D315*
X21869Y10786D02*
D03*
D316*
X26091Y10782D02*
D03*
X21878Y10120D02*
D03*
D317*
X21868Y10782D02*
D03*
X25464Y10300D02*
D03*
X26038Y10194D02*
D03*
X22605Y10137D02*
D03*
X23512Y10074D02*
D03*
D318*
X22993Y10779D02*
D03*
Y10772D02*
D03*
Y10764D02*
D03*
Y10754D02*
D03*
X25643Y10747D02*
D03*
X22993D02*
D03*
X25643Y10740D02*
D03*
Y10729D02*
D03*
Y10722D02*
D03*
Y10715D02*
D03*
X25629Y10640D02*
D03*
X25625Y10633D02*
D03*
X21788Y10598D02*
D03*
X25994Y10584D02*
D03*
X21784D02*
D03*
Y10573D02*
D03*
X25990Y10566D02*
D03*
Y10559D02*
D03*
X21781D02*
D03*
X25987Y10552D02*
D03*
X21781D02*
D03*
X25987Y10541D02*
D03*
X22691D02*
D03*
X25987Y10534D02*
D03*
X22691D02*
D03*
X21777D02*
D03*
X25983Y10527D02*
D03*
X21777D02*
D03*
X25983Y10516D02*
D03*
X21777D02*
D03*
X25983Y10509D02*
D03*
X22695D02*
D03*
X21777D02*
D03*
X25983Y10502D02*
D03*
X22695D02*
D03*
Y10492D02*
D03*
X21774D02*
D03*
X22695Y10485D02*
D03*
X21774D02*
D03*
X25980Y10477D02*
D03*
X22695D02*
D03*
X21774D02*
D03*
X25980Y10467D02*
D03*
X22695D02*
D03*
X21774D02*
D03*
X25980Y10460D02*
D03*
X22695D02*
D03*
X21774D02*
D03*
X25980Y10453D02*
D03*
X22695D02*
D03*
X21774D02*
D03*
X25980Y10442D02*
D03*
X22695D02*
D03*
X21774D02*
D03*
X25980Y10435D02*
D03*
X22695D02*
D03*
X21774D02*
D03*
X25980Y10428D02*
D03*
X22695D02*
D03*
X21774D02*
D03*
X25980Y10421D02*
D03*
X22695D02*
D03*
X21774D02*
D03*
X25980Y10410D02*
D03*
X22691Y10396D02*
D03*
X21777D02*
D03*
X22691Y10385D02*
D03*
X21777D02*
D03*
X25983Y10378D02*
D03*
X22691D02*
D03*
X21777D02*
D03*
X22688Y10361D02*
D03*
Y10353D02*
D03*
X21781D02*
D03*
X22688Y10346D02*
D03*
X22684Y10336D02*
D03*
Y10329D02*
D03*
X22681Y10314D02*
D03*
X22677Y10297D02*
D03*
X23907Y10183D02*
D03*
X23910Y10173D02*
D03*
X23545D02*
D03*
X24598Y10166D02*
D03*
X24594Y10159D02*
D03*
X23545D02*
D03*
Y10148D02*
D03*
Y10141D02*
D03*
X23907Y9510D02*
D03*
D319*
X21864Y10779D02*
D03*
X26063Y10747D02*
D03*
X21850Y10159D02*
D03*
X22601Y10134D02*
D03*
X23951Y10102D02*
D03*
D320*
X26084Y10775D02*
D03*
X23515Y10268D02*
D03*
X26049Y10176D02*
D03*
X26052Y10169D02*
D03*
X21871Y10130D02*
D03*
D321*
X22991Y10761D02*
D03*
Y10757D02*
D03*
X25641Y10708D02*
D03*
Y10701D02*
D03*
Y10694D02*
D03*
X25634Y10662D02*
D03*
X25985Y10531D02*
D03*
X22690Y10368D02*
D03*
X24603Y10180D02*
D03*
Y10176D02*
D03*
X23547Y10169D02*
D03*
Y10162D02*
D03*
X23905Y9517D02*
D03*
Y9514D02*
D03*
X25758Y9344D02*
D03*
X23905Y9333D02*
D03*
X22598D02*
D03*
D322*
X22628Y10754D02*
D03*
X21848D02*
D03*
X26047Y10722D02*
D03*
X21827Y10198D02*
D03*
X21834Y10183D02*
D03*
X23521Y10084D02*
D03*
X21827Y9340D02*
D03*
D323*
X22631Y10750D02*
D03*
X26051Y10726D02*
D03*
X23007Y10687D02*
D03*
Y10683D02*
D03*
X26019Y10233D02*
D03*
D324*
X22631Y10747D02*
D03*
X25477Y10290D02*
D03*
X23531Y10240D02*
D03*
X21830Y10190D02*
D03*
X23939Y10116D02*
D03*
X21830Y9616D02*
D03*
D325*
X22645Y10722D02*
D03*
X21830D02*
D03*
X26033Y10697D02*
D03*
X25494Y10272D02*
D03*
X25501Y10265D02*
D03*
X26012Y10254D02*
D03*
X21820Y10215D02*
D03*
D326*
X21825Y10715D02*
D03*
X25588Y10134D02*
D03*
X25613Y10091D02*
D03*
D327*
X22998Y10711D02*
D03*
Y10708D02*
D03*
X22672Y10651D02*
D03*
X26010Y10644D02*
D03*
X21797Y10276D02*
D03*
X22654Y10226D02*
D03*
X23923Y10144D02*
D03*
X24585Y10137D02*
D03*
X22229Y9836D02*
D03*
D328*
X22651Y10711D02*
D03*
X21825D02*
D03*
X22651Y10708D02*
D03*
X25507Y10258D02*
D03*
D329*
X25641Y10704D02*
D03*
Y10697D02*
D03*
Y10690D02*
D03*
X25634Y10665D02*
D03*
Y10658D02*
D03*
X21779Y10541D02*
D03*
X22690Y10371D02*
D03*
X23898Y10215D02*
D03*
X23905Y10190D02*
D03*
X23547Y10166D02*
D03*
X21829Y9322D02*
D03*
D330*
X22660Y10690D02*
D03*
X26022Y10672D02*
D03*
X25597Y10584D02*
D03*
X25997Y10297D02*
D03*
X21809Y10240D02*
D03*
X22642Y10198D02*
D03*
X25572Y10159D02*
D03*
X25579Y10148D02*
D03*
X23928Y10134D02*
D03*
D331*
X22660Y10687D02*
D03*
X26022Y10676D02*
D03*
X22667Y10669D02*
D03*
X25997Y10300D02*
D03*
Y10293D02*
D03*
X25523Y10237D02*
D03*
X21809D02*
D03*
X25540Y10212D02*
D03*
X25554Y10187D02*
D03*
D332*
X25638Y10683D02*
D03*
Y10676D02*
D03*
Y10669D02*
D03*
X25631Y10651D02*
D03*
X21776Y10506D02*
D03*
X25981Y10499D02*
D03*
X21776D02*
D03*
X25981Y10495D02*
D03*
X21776D02*
D03*
X25981Y10488D02*
D03*
X22693Y10414D02*
D03*
Y10407D02*
D03*
X23902Y10205D02*
D03*
Y10201D02*
D03*
X24607Y10187D02*
D03*
X24600Y10169D02*
D03*
X23168Y9620D02*
D03*
X26637Y9514D02*
D03*
D333*
X25638Y10679D02*
D03*
Y10672D02*
D03*
X25631Y10648D02*
D03*
X21776Y10502D02*
D03*
X25981Y10492D02*
D03*
Y10485D02*
D03*
X22693Y10410D02*
D03*
Y10403D02*
D03*
X23902Y10198D02*
D03*
X24600Y10173D02*
D03*
X21832Y9634D02*
D03*
X23168Y9616D02*
D03*
X26637Y9510D02*
D03*
D334*
X23019Y10665D02*
D03*
X25457Y10304D02*
D03*
X26045Y10183D02*
D03*
X21857Y10148D02*
D03*
D335*
X23032Y10648D02*
D03*
X23506Y10279D02*
D03*
X26068Y10148D02*
D03*
X21884Y10116D02*
D03*
X22571Y10102D02*
D03*
X23967Y10084D02*
D03*
X23496Y10059D02*
D03*
D336*
X22672Y10648D02*
D03*
X26010Y10640D02*
D03*
X21797Y10279D02*
D03*
Y10272D02*
D03*
X22654Y10222D02*
D03*
X24585Y10134D02*
D03*
X21829Y9329D02*
D03*
D337*
X23035Y10644D02*
D03*
X26072Y10144D02*
D03*
X22568Y10098D02*
D03*
D338*
X23046Y10633D02*
D03*
X26090Y10123D02*
D03*
X23482Y10052D02*
D03*
D339*
X23056Y10623D02*
D03*
X21919Y10084D02*
D03*
X24513Y10066D02*
D03*
D340*
X23060Y10619D02*
D03*
X25515Y10531D02*
D03*
X23475Y10311D02*
D03*
X21926Y10081D02*
D03*
D341*
X23065Y10616D02*
D03*
D342*
X26001Y10612D02*
D03*
X21788Y10311D02*
D03*
Y10307D02*
D03*
X22663Y10251D02*
D03*
X23538Y10113D02*
D03*
D343*
X23069Y10612D02*
D03*
D344*
X23074Y10609D02*
D03*
D345*
X25997Y10598D02*
D03*
D346*
X23088D02*
D03*
D347*
X23092Y10594D02*
D03*
X26146Y10081D02*
D03*
X25739Y9989D02*
D03*
D348*
X23097Y10591D02*
D03*
X25748Y9978D02*
D03*
D349*
X23101Y10587D02*
D03*
X25758Y9964D02*
D03*
D350*
X23111Y10580D02*
D03*
X25779Y9939D02*
D03*
D351*
X23117Y10577D02*
D03*
X25785Y9932D02*
D03*
D352*
X23120Y10573D02*
D03*
X25795Y9921D02*
D03*
D353*
X23127Y10570D02*
D03*
X25803Y9914D02*
D03*
D354*
X23140Y10559D02*
D03*
D355*
X23152Y10552D02*
D03*
D356*
X23156Y10548D02*
D03*
X26196Y10063D02*
D03*
X25845Y9875D02*
D03*
X26540Y9836D02*
D03*
D357*
X23166Y10541D02*
D03*
D358*
X23175Y10534D02*
D03*
D359*
X23180Y10531D02*
D03*
D360*
X23189Y10524D02*
D03*
X26524Y9843D02*
D03*
D361*
X25303Y10520D02*
D03*
X22231Y9964D02*
D03*
D362*
X23200Y10516D02*
D03*
X23338Y10410D02*
D03*
D363*
X25299Y10513D02*
D03*
D364*
X23205D02*
D03*
X23333Y10414D02*
D03*
D365*
X25298Y10509D02*
D03*
X26400Y9985D02*
D03*
X24252Y9978D02*
D03*
D366*
X23209Y10509D02*
D03*
X26518Y9847D02*
D03*
X25880D02*
D03*
D367*
X25296Y10506D02*
D03*
X24254Y9974D02*
D03*
D368*
X23214Y10506D02*
D03*
X23328Y10417D02*
D03*
D369*
X23219Y10502D02*
D03*
D370*
X23225Y10499D02*
D03*
X23228Y10495D02*
D03*
X23310Y10431D02*
D03*
X23320Y10424D02*
D03*
D371*
X23234Y10492D02*
D03*
X23305Y10435D02*
D03*
D372*
X25287Y10488D02*
D03*
X24252Y9964D02*
D03*
D373*
X23237Y10488D02*
D03*
X23301Y10439D02*
D03*
D374*
X23242Y10485D02*
D03*
X23296Y10442D02*
D03*
X25896Y9840D02*
D03*
D375*
X23246Y10481D02*
D03*
X23292Y10446D02*
D03*
D376*
X25282Y10477D02*
D03*
X22231Y9946D02*
D03*
D377*
X23251Y10477D02*
D03*
X24251Y9886D02*
D03*
X22231D02*
D03*
X26508Y9854D02*
D03*
D378*
X25280Y10474D02*
D03*
X24252Y9957D02*
D03*
D379*
X23255Y10474D02*
D03*
X23280Y10456D02*
D03*
D380*
X25275Y10467D02*
D03*
D381*
X23266D02*
D03*
X23273Y10460D02*
D03*
X23283Y10453D02*
D03*
D382*
X25273Y10463D02*
D03*
X24252Y9950D02*
D03*
D383*
X25266Y10453D02*
D03*
D384*
X25262Y10449D02*
D03*
X24252Y9939D02*
D03*
D385*
X25260Y10446D02*
D03*
D386*
X25250Y10435D02*
D03*
X22231Y9921D02*
D03*
D387*
X25248Y10431D02*
D03*
X24252Y9925D02*
D03*
X26449Y9907D02*
D03*
D388*
X23313Y10428D02*
D03*
D389*
X25241Y10424D02*
D03*
D390*
X25232Y10417D02*
D03*
Y10364D02*
D03*
X24251Y9914D02*
D03*
D391*
X25225Y10410D02*
D03*
D392*
X23349Y10403D02*
D03*
X25872Y9854D02*
D03*
D393*
X23354Y10400D02*
D03*
D394*
X25205Y10396D02*
D03*
X25918Y9829D02*
D03*
D395*
X23358Y10396D02*
D03*
D396*
X25205Y10392D02*
D03*
D397*
X23363D02*
D03*
D398*
X23375Y10385D02*
D03*
D399*
X25218Y10382D02*
D03*
D400*
X23379D02*
D03*
D401*
X25221Y10378D02*
D03*
X22231Y9903D02*
D03*
D402*
X23384Y10378D02*
D03*
D403*
X23393Y10371D02*
D03*
X25831Y9886D02*
D03*
D404*
X23400Y10368D02*
D03*
X25824Y9893D02*
D03*
D405*
X23404Y10364D02*
D03*
D406*
X25234Y10361D02*
D03*
D407*
X23409D02*
D03*
D408*
X25236Y10357D02*
D03*
X26462Y9893D02*
D03*
D409*
X23416Y10357D02*
D03*
D410*
X23420Y10353D02*
D03*
X25790Y9928D02*
D03*
D411*
X25243Y10346D02*
D03*
X24251Y9921D02*
D03*
D412*
X24628Y10343D02*
D03*
Y10339D02*
D03*
Y10332D02*
D03*
Y10325D02*
D03*
Y10318D02*
D03*
Y10311D02*
D03*
X24624Y10283D02*
D03*
Y10276D02*
D03*
X22229Y9833D02*
D03*
X24270Y9333D02*
D03*
X23540D02*
D03*
X25765Y9326D02*
D03*
X23898Y9312D02*
D03*
D413*
X23436Y10343D02*
D03*
X25764Y9957D02*
D03*
D414*
X25246Y10339D02*
D03*
D415*
X23439D02*
D03*
X25749Y9974D02*
D03*
X25756Y9967D02*
D03*
D416*
X24628Y10336D02*
D03*
Y10329D02*
D03*
Y10322D02*
D03*
Y10314D02*
D03*
X24624Y10279D02*
D03*
X23161Y9641D02*
D03*
X25765Y9616D02*
D03*
X22598Y9322D02*
D03*
X26630Y9315D02*
D03*
X23898D02*
D03*
X21829D02*
D03*
D417*
X23444Y10336D02*
D03*
D418*
X23450Y10332D02*
D03*
D419*
X25252Y10329D02*
D03*
X24252Y9928D02*
D03*
X26446Y9911D02*
D03*
D420*
X23884Y10329D02*
D03*
X23891Y10254D02*
D03*
Y10247D02*
D03*
X22598Y9329D02*
D03*
D421*
X23453Y10329D02*
D03*
Y10042D02*
D03*
X25710Y10027D02*
D03*
D422*
X25255Y10322D02*
D03*
D423*
X21788Y10314D02*
D03*
Y10304D02*
D03*
X22663Y10247D02*
D03*
X23538Y10116D02*
D03*
D424*
X25259Y10311D02*
D03*
D425*
X23480Y10307D02*
D03*
X26109Y10105D02*
D03*
D426*
X23491Y10297D02*
D03*
X21910Y10091D02*
D03*
X22548Y10084D02*
D03*
D427*
X25473Y10293D02*
D03*
X26029Y10212D02*
D03*
X22610Y10144D02*
D03*
D428*
X23494Y10293D02*
D03*
D429*
X23887Y10286D02*
D03*
Y10283D02*
D03*
Y10276D02*
D03*
X24621Y10251D02*
D03*
X24617Y10233D02*
D03*
X23894D02*
D03*
X24614Y10219D02*
D03*
Y10212D02*
D03*
X24249Y9833D02*
D03*
X21832Y9638D02*
D03*
X23165Y9631D02*
D03*
X25762Y9337D02*
D03*
X26633Y9326D02*
D03*
X23902D02*
D03*
D430*
X23887Y10279D02*
D03*
Y10272D02*
D03*
X24617Y10229D02*
D03*
X24614Y10215D02*
D03*
X23165Y9634D02*
D03*
X26633Y9322D02*
D03*
X23902D02*
D03*
D431*
X24623Y10272D02*
D03*
Y10265D02*
D03*
Y10254D02*
D03*
X24615Y10222D02*
D03*
D432*
X24623Y10268D02*
D03*
Y10261D02*
D03*
Y10258D02*
D03*
X24615Y10226D02*
D03*
D433*
X23891Y10261D02*
D03*
Y10258D02*
D03*
Y10251D02*
D03*
X24610Y10205D02*
D03*
Y10201D02*
D03*
X22598Y9326D02*
D03*
X21829Y9319D02*
D03*
D434*
X23528Y10247D02*
D03*
X26029Y10208D02*
D03*
X21841Y10173D02*
D03*
D435*
X23893Y10244D02*
D03*
Y10237D02*
D03*
X23896Y10226D02*
D03*
Y10219D02*
D03*
X23900Y10212D02*
D03*
X24608Y10194D02*
D03*
X23166Y9624D02*
D03*
X26635Y9517D02*
D03*
Y9333D02*
D03*
D436*
X23893Y10240D02*
D03*
X23896Y10229D02*
D03*
Y10222D02*
D03*
X24612Y10208D02*
D03*
X23900D02*
D03*
X24608Y10198D02*
D03*
Y10190D02*
D03*
X24605Y10183D02*
D03*
X23166Y9627D02*
D03*
X26635Y9521D02*
D03*
X23903D02*
D03*
X25760Y9340D02*
D03*
X26635Y9329D02*
D03*
X23903D02*
D03*
D437*
X22619Y10159D02*
D03*
X23944Y10109D02*
D03*
D438*
X26075Y10141D02*
D03*
D439*
X21876Y10123D02*
D03*
X22578Y10109D02*
D03*
D440*
X26097Y10116D02*
D03*
D441*
X22582Y10113D02*
D03*
D442*
X26113Y10102D02*
D03*
D443*
X21901Y10098D02*
D03*
D444*
X26123Y10095D02*
D03*
X24500Y10063D02*
D03*
D445*
X22553Y10088D02*
D03*
D446*
X21914D02*
D03*
X23476Y10049D02*
D03*
D447*
X24534Y10077D02*
D03*
D448*
X22529Y10074D02*
D03*
D449*
X26169Y10070D02*
D03*
D450*
X24522D02*
D03*
X22541Y9818D02*
D03*
D451*
X26180Y10066D02*
D03*
D452*
X22513D02*
D03*
X25705Y10035D02*
D03*
X22229Y9854D02*
D03*
D453*
X21956Y10066D02*
D03*
D454*
X22498Y10063D02*
D03*
X22229Y9857D02*
D03*
X26573Y9826D02*
D03*
D455*
X21967Y10063D02*
D03*
D456*
X26369Y10059D02*
D03*
D457*
X25687D02*
D03*
D458*
X24254D02*
D03*
D459*
X22231D02*
D03*
D460*
X26369Y10056D02*
D03*
D461*
X26371Y10052D02*
D03*
X24252Y10017D02*
D03*
D462*
X25693Y10052D02*
D03*
X25700Y10042D02*
D03*
D463*
X22231Y10052D02*
D03*
D464*
X22231Y10049D02*
D03*
D465*
Y10045D02*
D03*
D466*
X26375Y10042D02*
D03*
X24252Y10010D02*
D03*
D467*
X24254Y10042D02*
D03*
D468*
X26377Y10038D02*
D03*
X22231Y9981D02*
D03*
D469*
X23203Y10038D02*
D03*
D470*
X26378Y10035D02*
D03*
D471*
X24254D02*
D03*
D472*
X23202D02*
D03*
X22932Y9840D02*
D03*
D473*
X22231Y10035D02*
D03*
X23152Y9971D02*
D03*
X23021Y9872D02*
D03*
D474*
X26378Y10031D02*
D03*
X24252Y10006D02*
D03*
D475*
X22231Y10031D02*
D03*
X23177Y9999D02*
D03*
X23173Y9996D02*
D03*
X22989Y9857D02*
D03*
D476*
X26380Y10027D02*
D03*
X24254Y10003D02*
D03*
D477*
X23196Y10027D02*
D03*
D478*
X26382Y10024D02*
D03*
D479*
X26384Y10020D02*
D03*
X22231Y9974D02*
D03*
D480*
X25716Y10020D02*
D03*
D481*
X24252D02*
D03*
D482*
X23191D02*
D03*
D483*
Y10017D02*
D03*
D484*
X22231D02*
D03*
D485*
X25721Y10013D02*
D03*
X25725Y10006D02*
D03*
D486*
X22231Y10013D02*
D03*
D487*
X23186Y10010D02*
D03*
X23179Y10003D02*
D03*
D488*
X22231Y10010D02*
D03*
D489*
X23182Y10006D02*
D03*
X22970Y9850D02*
D03*
D490*
X22231Y10006D02*
D03*
D491*
X25730Y9999D02*
D03*
X25733Y9996D02*
D03*
D492*
X24252Y9999D02*
D03*
D493*
X22231D02*
D03*
D494*
X24252Y9996D02*
D03*
D495*
X23170Y9992D02*
D03*
X23007Y9864D02*
D03*
D496*
X22231Y9992D02*
D03*
D497*
X24252Y9989D02*
D03*
D498*
X22231D02*
D03*
D499*
X25742Y9985D02*
D03*
D500*
X22231D02*
D03*
D501*
X26401Y9981D02*
D03*
X22231Y9957D02*
D03*
D502*
Y9978D02*
D03*
D503*
X23156Y9974D02*
D03*
X23149Y9967D02*
D03*
X23145Y9964D02*
D03*
X23014Y9868D02*
D03*
D504*
X26408Y9967D02*
D03*
D505*
X24252Y9960D02*
D03*
D506*
X22231D02*
D03*
D507*
X25767Y9953D02*
D03*
D508*
X22229D02*
D03*
D509*
X25769Y9950D02*
D03*
D510*
X23126Y9942D02*
D03*
D511*
X22229D02*
D03*
D512*
X25783Y9935D02*
D03*
D513*
X24252D02*
D03*
D514*
X23117D02*
D03*
X23085Y9911D02*
D03*
D515*
X22231Y9935D02*
D03*
D516*
X24252Y9932D02*
D03*
X26442Y9914D02*
D03*
D517*
X26433Y9928D02*
D03*
D518*
X25794Y9925D02*
D03*
X22229Y9861D02*
D03*
D519*
X26439Y9921D02*
D03*
D520*
X25799Y9918D02*
D03*
D521*
X24252D02*
D03*
X22229Y9914D02*
D03*
D522*
X22231Y9918D02*
D03*
D523*
X25806Y9911D02*
D03*
D524*
X24251D02*
D03*
D525*
X22231D02*
D03*
D526*
X25808Y9907D02*
D03*
D527*
X22231D02*
D03*
D528*
X26451Y9903D02*
D03*
D529*
X24251D02*
D03*
D530*
X25817Y9900D02*
D03*
D531*
X24251D02*
D03*
X22231D02*
D03*
D532*
X26458Y9896D02*
D03*
D533*
X25820D02*
D03*
D534*
X24252D02*
D03*
D535*
X22231D02*
D03*
D536*
X24252Y9893D02*
D03*
D537*
X22231D02*
D03*
D538*
Y9889D02*
D03*
X25909Y9833D02*
D03*
D539*
X26470Y9882D02*
D03*
D540*
X25836D02*
D03*
D541*
X26476Y9879D02*
D03*
D542*
X25840D02*
D03*
D543*
X24252D02*
D03*
D544*
X26479Y9875D02*
D03*
D545*
X24251D02*
D03*
D546*
X25847Y9872D02*
D03*
X22229D02*
D03*
D547*
X24251D02*
D03*
X25856Y9864D02*
D03*
X26532Y9840D02*
D03*
D548*
X26488Y9868D02*
D03*
D549*
X25852D02*
D03*
D550*
X24251D02*
D03*
D551*
Y9864D02*
D03*
D552*
X24249Y9861D02*
D03*
D553*
X25868Y9857D02*
D03*
D554*
X24251D02*
D03*
D555*
Y9847D02*
D03*
D556*
X25902Y9836D02*
D03*
D557*
X22920D02*
D03*
D558*
X26548Y9833D02*
D03*
D559*
X22902D02*
D03*
D560*
X24249Y9829D02*
D03*
X23147Y9666D02*
D03*
X22222Y9634D02*
D03*
D561*
X22885Y9829D02*
D03*
D562*
X22229D02*
D03*
X21829Y9298D02*
D03*
X22197Y9290D02*
D03*
D563*
X24247Y9826D02*
D03*
X25016Y9531D02*
D03*
X22210Y9489D02*
D03*
X25016Y9301D02*
D03*
D564*
X22860Y9826D02*
D03*
D565*
X22229D02*
D03*
X23540Y9287D02*
D03*
D566*
X26589Y9822D02*
D03*
D567*
X24247D02*
D03*
X22156Y9616D02*
D03*
X23992Y9503D02*
D03*
X23467D02*
D03*
X25221Y9453D02*
D03*
X22511Y9347D02*
D03*
X26671Y9283D02*
D03*
X23939D02*
D03*
X21827Y9273D02*
D03*
D568*
X22828Y9822D02*
D03*
D569*
X22229D02*
D03*
X25659Y9372D02*
D03*
D570*
X26539Y9709D02*
D03*
X26012D02*
D03*
X23808D02*
D03*
X26012Y9698D02*
D03*
Y9691D02*
D03*
Y9684D02*
D03*
Y9673D02*
D03*
Y9666D02*
D03*
Y9659D02*
D03*
Y9652D02*
D03*
Y9641D02*
D03*
Y9634D02*
D03*
X24768D02*
D03*
X26012Y9627D02*
D03*
Y9616D02*
D03*
Y9609D02*
D03*
Y9602D02*
D03*
Y9592D02*
D03*
Y9585D02*
D03*
Y9577D02*
D03*
Y9567D02*
D03*
X26175Y9560D02*
D03*
X26012D02*
D03*
X26175Y9553D02*
D03*
X26012D02*
D03*
X26175Y9542D02*
D03*
X26012D02*
D03*
X26175Y9535D02*
D03*
X26012D02*
D03*
X26175Y9528D02*
D03*
X26012D02*
D03*
X26175Y9521D02*
D03*
X26012D02*
D03*
X26175Y9510D02*
D03*
X26012D02*
D03*
X26175Y9503D02*
D03*
X26012D02*
D03*
X26175Y9496D02*
D03*
X26012D02*
D03*
X26175Y9485D02*
D03*
X26012D02*
D03*
X26175Y9478D02*
D03*
X26012D02*
D03*
X26175Y9471D02*
D03*
X26012D02*
D03*
X26175Y9461D02*
D03*
X26012D02*
D03*
X26175Y9453D02*
D03*
X26012D02*
D03*
X26175Y9446D02*
D03*
X26012D02*
D03*
X26175Y9436D02*
D03*
X26012D02*
D03*
X26175Y9429D02*
D03*
X26012D02*
D03*
X26175Y9422D02*
D03*
X26012D02*
D03*
X26175Y9414D02*
D03*
X26012D02*
D03*
X26175Y9404D02*
D03*
X26012D02*
D03*
Y9397D02*
D03*
Y9390D02*
D03*
Y9379D02*
D03*
Y9372D02*
D03*
Y9365D02*
D03*
Y9354D02*
D03*
Y9347D02*
D03*
Y9340D02*
D03*
X25335D02*
D03*
X26012Y9329D02*
D03*
Y9322D02*
D03*
Y9315D02*
D03*
Y9308D02*
D03*
Y9298D02*
D03*
Y9290D02*
D03*
Y9283D02*
D03*
Y9273D02*
D03*
D571*
X26538Y9705D02*
D03*
X23806D02*
D03*
X26538Y9702D02*
D03*
X23806D02*
D03*
X26538Y9694D02*
D03*
X23806D02*
D03*
X26538Y9687D02*
D03*
X23806D02*
D03*
X26538Y9680D02*
D03*
X23806D02*
D03*
X22474D02*
D03*
X26538Y9677D02*
D03*
X23806D02*
D03*
X22474D02*
D03*
X26538Y9670D02*
D03*
X23806D02*
D03*
X22474D02*
D03*
X26538Y9663D02*
D03*
X23806D02*
D03*
X22474D02*
D03*
X26538Y9655D02*
D03*
X23806D02*
D03*
X22474D02*
D03*
X26538Y9648D02*
D03*
X23806D02*
D03*
X22474D02*
D03*
X26538Y9645D02*
D03*
X23806D02*
D03*
X22474D02*
D03*
X26538Y9638D02*
D03*
X23806D02*
D03*
X22474D02*
D03*
X26538Y9631D02*
D03*
X23806D02*
D03*
X22474D02*
D03*
X26538Y9624D02*
D03*
X24557D02*
D03*
X23806D02*
D03*
X22474D02*
D03*
X26538Y9620D02*
D03*
X24557D02*
D03*
X23806D02*
D03*
X22474D02*
D03*
X26538Y9613D02*
D03*
X24557D02*
D03*
X23806D02*
D03*
X23069D02*
D03*
X22474D02*
D03*
X26538Y9606D02*
D03*
X24557D02*
D03*
X23806D02*
D03*
X23069D02*
D03*
X22474D02*
D03*
X26538Y9599D02*
D03*
X24557D02*
D03*
X23806D02*
D03*
X23069D02*
D03*
X22474D02*
D03*
X26538Y9595D02*
D03*
X24557D02*
D03*
X23806D02*
D03*
X23069D02*
D03*
X22474D02*
D03*
X26538Y9588D02*
D03*
X24557D02*
D03*
X23806D02*
D03*
X23069D02*
D03*
X22474D02*
D03*
X26538Y9581D02*
D03*
X24557D02*
D03*
X23806D02*
D03*
X23069D02*
D03*
X22474D02*
D03*
X26538Y9574D02*
D03*
X24557D02*
D03*
X23806D02*
D03*
X23069D02*
D03*
X22474D02*
D03*
X26538Y9570D02*
D03*
X24557D02*
D03*
X23806D02*
D03*
X23069D02*
D03*
X22474D02*
D03*
X26538Y9563D02*
D03*
X23806D02*
D03*
X23069D02*
D03*
X22474D02*
D03*
X26538Y9556D02*
D03*
X23806D02*
D03*
X23069D02*
D03*
X22474D02*
D03*
X26538Y9549D02*
D03*
X23806D02*
D03*
X23069D02*
D03*
X22474D02*
D03*
X26538Y9546D02*
D03*
X23806D02*
D03*
X23069D02*
D03*
X22474D02*
D03*
X26538Y9539D02*
D03*
X23806D02*
D03*
X23069D02*
D03*
X22474D02*
D03*
X26538Y9531D02*
D03*
X23806D02*
D03*
X23069D02*
D03*
X22474D02*
D03*
X26538Y9524D02*
D03*
X23806D02*
D03*
X23069D02*
D03*
X22474D02*
D03*
X23069Y9517D02*
D03*
X22474D02*
D03*
X23069Y9514D02*
D03*
X22474D02*
D03*
X23069Y9507D02*
D03*
X22474D02*
D03*
X25202Y9500D02*
D03*
X22474D02*
D03*
X24557Y9492D02*
D03*
X22474D02*
D03*
X24557Y9489D02*
D03*
X22474D02*
D03*
X25198Y9482D02*
D03*
X24557D02*
D03*
X22474D02*
D03*
X24557Y9475D02*
D03*
X22474D02*
D03*
X24557Y9468D02*
D03*
X22474D02*
D03*
X24557Y9464D02*
D03*
X23650D02*
D03*
X22474D02*
D03*
X24557Y9457D02*
D03*
X22474D02*
D03*
X26538Y9450D02*
D03*
X24557D02*
D03*
X23806D02*
D03*
X22474D02*
D03*
X26538Y9443D02*
D03*
X24557D02*
D03*
X24383D02*
D03*
X23806D02*
D03*
X23430D02*
D03*
X22474D02*
D03*
X26538Y9439D02*
D03*
X24918D02*
D03*
X24557D02*
D03*
X24383D02*
D03*
X23806D02*
D03*
X23430D02*
D03*
X22474D02*
D03*
X26538Y9432D02*
D03*
X24918D02*
D03*
X24557D02*
D03*
X24383D02*
D03*
X23806D02*
D03*
X23430D02*
D03*
X26538Y9425D02*
D03*
X24918D02*
D03*
X24557D02*
D03*
X24383D02*
D03*
X24157D02*
D03*
X23806D02*
D03*
X23069D02*
D03*
X26538Y9418D02*
D03*
X24918D02*
D03*
X24557D02*
D03*
X24383D02*
D03*
X24157D02*
D03*
X23806D02*
D03*
X23069D02*
D03*
X26538Y9411D02*
D03*
X24918D02*
D03*
X24557D02*
D03*
X24383D02*
D03*
X24157D02*
D03*
X23806D02*
D03*
X23069D02*
D03*
X22477D02*
D03*
X26538Y9407D02*
D03*
X24918D02*
D03*
X24557D02*
D03*
X24383D02*
D03*
X24157D02*
D03*
X23806D02*
D03*
X23430D02*
D03*
X23069D02*
D03*
X22477D02*
D03*
X26538Y9400D02*
D03*
X24918D02*
D03*
X24557D02*
D03*
X24383D02*
D03*
X23806D02*
D03*
X23430D02*
D03*
X23069D02*
D03*
X26750Y9393D02*
D03*
X26538D02*
D03*
X26176D02*
D03*
X24557D02*
D03*
X24383D02*
D03*
X23806D02*
D03*
X23430D02*
D03*
X23069D02*
D03*
X26538Y9386D02*
D03*
X26176D02*
D03*
X24557D02*
D03*
X24018D02*
D03*
X23806D02*
D03*
X23069D02*
D03*
X26538Y9383D02*
D03*
X26368D02*
D03*
X26176D02*
D03*
X24557D02*
D03*
X24380D02*
D03*
X23806D02*
D03*
X23069D02*
D03*
X26368Y9376D02*
D03*
X26176D02*
D03*
X24557D02*
D03*
X23650D02*
D03*
X23434D02*
D03*
X23069D02*
D03*
X26176Y9368D02*
D03*
X25333D02*
D03*
X24557D02*
D03*
X24376D02*
D03*
X23069D02*
D03*
X24557Y9361D02*
D03*
X23069D02*
D03*
Y9358D02*
D03*
Y9351D02*
D03*
Y9344D02*
D03*
X25333Y9337D02*
D03*
X23069D02*
D03*
Y9333D02*
D03*
Y9326D02*
D03*
Y9319D02*
D03*
Y9312D02*
D03*
Y9305D02*
D03*
X26538Y9301D02*
D03*
X23806D02*
D03*
X23069D02*
D03*
X26538Y9294D02*
D03*
X23806D02*
D03*
X23069D02*
D03*
X26538Y9287D02*
D03*
X23806D02*
D03*
X23069D02*
D03*
X26538Y9280D02*
D03*
X23806D02*
D03*
X23069D02*
D03*
X26538Y9276D02*
D03*
X23806D02*
D03*
X23069D02*
D03*
D572*
X26012Y9705D02*
D03*
Y9702D02*
D03*
Y9694D02*
D03*
Y9687D02*
D03*
X24768D02*
D03*
X26012Y9680D02*
D03*
Y9677D02*
D03*
Y9670D02*
D03*
Y9663D02*
D03*
Y9655D02*
D03*
Y9648D02*
D03*
Y9645D02*
D03*
Y9638D02*
D03*
Y9631D02*
D03*
X24559D02*
D03*
X26012Y9624D02*
D03*
Y9620D02*
D03*
Y9613D02*
D03*
Y9606D02*
D03*
Y9599D02*
D03*
Y9595D02*
D03*
Y9588D02*
D03*
Y9581D02*
D03*
Y9574D02*
D03*
Y9570D02*
D03*
X26175Y9563D02*
D03*
X26012D02*
D03*
X26175Y9556D02*
D03*
X26012D02*
D03*
X26175Y9549D02*
D03*
X26012D02*
D03*
X26175Y9546D02*
D03*
X26012D02*
D03*
X26175Y9539D02*
D03*
X26012D02*
D03*
X26175Y9531D02*
D03*
X26012D02*
D03*
X26175Y9524D02*
D03*
X26012D02*
D03*
X26175Y9517D02*
D03*
X26012D02*
D03*
X26175Y9514D02*
D03*
X26012D02*
D03*
X26175Y9507D02*
D03*
X26012D02*
D03*
X26175Y9500D02*
D03*
X26012D02*
D03*
X26175Y9492D02*
D03*
X26012D02*
D03*
X26175Y9489D02*
D03*
X26012D02*
D03*
X26175Y9482D02*
D03*
X26012D02*
D03*
X26175Y9475D02*
D03*
X26012D02*
D03*
X26175Y9468D02*
D03*
X26012D02*
D03*
X26175Y9464D02*
D03*
X26012D02*
D03*
X26175Y9457D02*
D03*
X26012D02*
D03*
X26175Y9450D02*
D03*
X26012D02*
D03*
X26175Y9443D02*
D03*
X26012D02*
D03*
X26175Y9439D02*
D03*
X26012D02*
D03*
X26175Y9432D02*
D03*
X26012D02*
D03*
X26175Y9425D02*
D03*
X26012D02*
D03*
X26175Y9418D02*
D03*
X26012D02*
D03*
X26175Y9411D02*
D03*
X26012D02*
D03*
X26175Y9407D02*
D03*
X26012D02*
D03*
X26175Y9400D02*
D03*
X26012D02*
D03*
Y9393D02*
D03*
Y9386D02*
D03*
Y9383D02*
D03*
Y9376D02*
D03*
Y9368D02*
D03*
Y9361D02*
D03*
X25335D02*
D03*
X26012Y9358D02*
D03*
X25335D02*
D03*
X26012Y9351D02*
D03*
Y9344D02*
D03*
X25335D02*
D03*
X26012Y9337D02*
D03*
Y9333D02*
D03*
Y9326D02*
D03*
Y9319D02*
D03*
Y9312D02*
D03*
Y9305D02*
D03*
Y9301D02*
D03*
Y9294D02*
D03*
Y9287D02*
D03*
Y9280D02*
D03*
Y9276D02*
D03*
X24612Y9269D02*
D03*
D573*
X24766Y9705D02*
D03*
X25096Y9500D02*
D03*
X22098Y9358D02*
D03*
D574*
X24766Y9702D02*
D03*
Y9620D02*
D03*
D575*
X26538Y9698D02*
D03*
X23806D02*
D03*
X26538Y9691D02*
D03*
X23806D02*
D03*
X26538Y9684D02*
D03*
X23806D02*
D03*
X22474D02*
D03*
X26538Y9673D02*
D03*
X23806D02*
D03*
X22474D02*
D03*
X26538Y9666D02*
D03*
X23806D02*
D03*
X22474D02*
D03*
X26538Y9659D02*
D03*
X23806D02*
D03*
X22474D02*
D03*
X26538Y9652D02*
D03*
X23806D02*
D03*
X22474D02*
D03*
X26538Y9641D02*
D03*
X23806D02*
D03*
X22474D02*
D03*
X26538Y9634D02*
D03*
X23806D02*
D03*
X22474D02*
D03*
X26538Y9627D02*
D03*
X24557D02*
D03*
X23806D02*
D03*
X22474D02*
D03*
X26538Y9616D02*
D03*
X24557D02*
D03*
X23806D02*
D03*
X22474D02*
D03*
X26538Y9609D02*
D03*
X24557D02*
D03*
X23806D02*
D03*
X23069D02*
D03*
X22474D02*
D03*
X26538Y9602D02*
D03*
X24557D02*
D03*
X23806D02*
D03*
X23069D02*
D03*
X22474D02*
D03*
X26538Y9592D02*
D03*
X24557D02*
D03*
X23806D02*
D03*
X23069D02*
D03*
X22474D02*
D03*
X26538Y9585D02*
D03*
X24557D02*
D03*
X23806D02*
D03*
X23069D02*
D03*
X22474D02*
D03*
X26538Y9577D02*
D03*
X24557D02*
D03*
X23806D02*
D03*
X23069D02*
D03*
X22474D02*
D03*
X26538Y9567D02*
D03*
X24557D02*
D03*
X23806D02*
D03*
X23069D02*
D03*
X22474D02*
D03*
X26538Y9560D02*
D03*
X23806D02*
D03*
X23069D02*
D03*
X22474D02*
D03*
X26538Y9553D02*
D03*
X23806D02*
D03*
X23069D02*
D03*
X22474D02*
D03*
X26538Y9542D02*
D03*
X23806D02*
D03*
X23069D02*
D03*
X22474D02*
D03*
X26538Y9535D02*
D03*
X23806D02*
D03*
X23069D02*
D03*
X22474D02*
D03*
X26538Y9528D02*
D03*
X23806D02*
D03*
X23069D02*
D03*
X22474D02*
D03*
X23069Y9521D02*
D03*
X22474D02*
D03*
X23069Y9510D02*
D03*
X22474D02*
D03*
X23069Y9503D02*
D03*
X22474D02*
D03*
X24557Y9496D02*
D03*
X22474D02*
D03*
X25198Y9485D02*
D03*
X24557D02*
D03*
X22474D02*
D03*
X25198Y9478D02*
D03*
X24557D02*
D03*
X22474D02*
D03*
X24557Y9471D02*
D03*
X22474D02*
D03*
X24557Y9461D02*
D03*
X24380D02*
D03*
X23434D02*
D03*
X22474D02*
D03*
X26538Y9453D02*
D03*
X24557D02*
D03*
X22474D02*
D03*
X26538Y9446D02*
D03*
X24557D02*
D03*
X24383D02*
D03*
X23806D02*
D03*
X23430D02*
D03*
X22474D02*
D03*
X26538Y9436D02*
D03*
X24918D02*
D03*
X24557D02*
D03*
X24383D02*
D03*
X23806D02*
D03*
X23430D02*
D03*
X22474D02*
D03*
X26538Y9429D02*
D03*
X24918D02*
D03*
X24557D02*
D03*
X24383D02*
D03*
X24157D02*
D03*
X23806D02*
D03*
X23430D02*
D03*
X26538Y9422D02*
D03*
X24918D02*
D03*
X24557D02*
D03*
X24383D02*
D03*
X24157D02*
D03*
X23806D02*
D03*
X23069D02*
D03*
X26538Y9414D02*
D03*
X24918D02*
D03*
X24557D02*
D03*
X24383D02*
D03*
X24157D02*
D03*
X23806D02*
D03*
X23069D02*
D03*
X26538Y9404D02*
D03*
X24918D02*
D03*
X24557D02*
D03*
X24383D02*
D03*
X23806D02*
D03*
X23430D02*
D03*
X23069D02*
D03*
X26750Y9397D02*
D03*
X26538D02*
D03*
X26176D02*
D03*
X24918D02*
D03*
X24557D02*
D03*
X24383D02*
D03*
X23806D02*
D03*
X23430D02*
D03*
X23069D02*
D03*
X22718D02*
D03*
X26750Y9390D02*
D03*
X26538D02*
D03*
X26176D02*
D03*
X24557D02*
D03*
X24018D02*
D03*
X23806D02*
D03*
X23430D02*
D03*
X23069D02*
D03*
X26538Y9379D02*
D03*
X26368D02*
D03*
X26176D02*
D03*
X24557D02*
D03*
X24380D02*
D03*
X23650D02*
D03*
X23069D02*
D03*
X26368Y9372D02*
D03*
X26176D02*
D03*
X24557D02*
D03*
X23069D02*
D03*
X25333Y9365D02*
D03*
X24557D02*
D03*
X23069D02*
D03*
Y9354D02*
D03*
Y9347D02*
D03*
Y9340D02*
D03*
Y9329D02*
D03*
Y9322D02*
D03*
Y9315D02*
D03*
Y9308D02*
D03*
X26538Y9298D02*
D03*
X23806D02*
D03*
X23069D02*
D03*
X26538Y9290D02*
D03*
X23806D02*
D03*
X23069D02*
D03*
X26538Y9283D02*
D03*
X23806D02*
D03*
X23069D02*
D03*
X26669Y9273D02*
D03*
X26538D02*
D03*
X26229D02*
D03*
X23806D02*
D03*
X23069D02*
D03*
D576*
X24766Y9698D02*
D03*
X22247Y9691D02*
D03*
X25872Y9609D02*
D03*
X22598Y9266D02*
D03*
D577*
X24766Y9694D02*
D03*
X24274Y9570D02*
D03*
D578*
X25803Y9691D02*
D03*
X25243Y9266D02*
D03*
X21827D02*
D03*
D579*
X24766Y9691D02*
D03*
X25337Y9354D02*
D03*
Y9347D02*
D03*
X22123Y9340D02*
D03*
D580*
X21832Y9691D02*
D03*
X25089Y9503D02*
D03*
D581*
X25804Y9687D02*
D03*
X22247D02*
D03*
X21953Y9588D02*
D03*
X21708D02*
D03*
X22141Y9546D02*
D03*
X23246Y9507D02*
D03*
X26548Y9489D02*
D03*
X23816D02*
D03*
X25648Y9386D02*
D03*
X25652Y9383D02*
D03*
X26230Y9280D02*
D03*
D582*
X21834Y9687D02*
D03*
X23273Y9563D02*
D03*
X21678Y9507D02*
D03*
X25629Y9492D02*
D03*
Y9489D02*
D03*
Y9482D02*
D03*
X24378Y9468D02*
D03*
X24165D02*
D03*
X24017D02*
D03*
X23648D02*
D03*
X23436D02*
D03*
X24378Y9464D02*
D03*
X24165D02*
D03*
X24017D02*
D03*
X23436D02*
D03*
X25629Y9457D02*
D03*
X21979Y9432D02*
D03*
X23428Y9425D02*
D03*
Y9418D02*
D03*
Y9411D02*
D03*
X22479Y9400D02*
D03*
X22716Y9393D02*
D03*
X22479D02*
D03*
X22716Y9386D02*
D03*
X24017Y9383D02*
D03*
X24378Y9376D02*
D03*
X24017D02*
D03*
X26366Y9368D02*
D03*
X24165D02*
D03*
X23648D02*
D03*
X23436D02*
D03*
X26366Y9361D02*
D03*
X26178D02*
D03*
X25328Y9333D02*
D03*
D583*
X25806Y9684D02*
D03*
X22249D02*
D03*
X21926Y9609D02*
D03*
X23832Y9503D02*
D03*
D584*
X24766Y9684D02*
D03*
Y9560D02*
D03*
Y9553D02*
D03*
Y9542D02*
D03*
Y9535D02*
D03*
Y9528D02*
D03*
Y9521D02*
D03*
Y9510D02*
D03*
Y9503D02*
D03*
Y9496D02*
D03*
Y9485D02*
D03*
Y9478D02*
D03*
Y9471D02*
D03*
Y9461D02*
D03*
X24922Y9453D02*
D03*
X24766D02*
D03*
X24160D02*
D03*
X23654D02*
D03*
X24766Y9446D02*
D03*
X24160D02*
D03*
X23654D02*
D03*
X24766Y9436D02*
D03*
X24022D02*
D03*
X26754Y9429D02*
D03*
X24766D02*
D03*
X24022D02*
D03*
X26754Y9422D02*
D03*
X24766D02*
D03*
X24022D02*
D03*
X22722D02*
D03*
X24766Y9414D02*
D03*
X24022D02*
D03*
X22722D02*
D03*
X24766Y9404D02*
D03*
Y9397D02*
D03*
X23654D02*
D03*
X24766Y9390D02*
D03*
X24160D02*
D03*
X23654D02*
D03*
X24766Y9379D02*
D03*
Y9372D02*
D03*
Y9365D02*
D03*
Y9354D02*
D03*
Y9347D02*
D03*
Y9340D02*
D03*
Y9329D02*
D03*
Y9322D02*
D03*
Y9315D02*
D03*
Y9308D02*
D03*
Y9298D02*
D03*
Y9290D02*
D03*
Y9283D02*
D03*
Y9273D02*
D03*
D585*
X23113Y9684D02*
D03*
X24272Y9553D02*
D03*
X25271Y9542D02*
D03*
X22256Y9453D02*
D03*
X25023Y9290D02*
D03*
X25243Y9283D02*
D03*
D586*
X22723Y9684D02*
D03*
Y9673D02*
D03*
Y9666D02*
D03*
Y9659D02*
D03*
Y9652D02*
D03*
X24768Y9641D02*
D03*
X22723D02*
D03*
Y9634D02*
D03*
Y9627D02*
D03*
Y9616D02*
D03*
Y9609D02*
D03*
Y9602D02*
D03*
Y9592D02*
D03*
Y9585D02*
D03*
Y9577D02*
D03*
Y9567D02*
D03*
Y9560D02*
D03*
Y9553D02*
D03*
X23269Y9542D02*
D03*
X22723D02*
D03*
Y9535D02*
D03*
Y9528D02*
D03*
Y9521D02*
D03*
Y9510D02*
D03*
Y9503D02*
D03*
Y9496D02*
D03*
X21983D02*
D03*
X22723Y9485D02*
D03*
X21983D02*
D03*
X23645Y9478D02*
D03*
X22723D02*
D03*
Y9471D02*
D03*
X21983D02*
D03*
X26749Y9461D02*
D03*
X26540D02*
D03*
X24924D02*
D03*
X24162D02*
D03*
X24020D02*
D03*
X23808D02*
D03*
X23652D02*
D03*
X22723D02*
D03*
X21983D02*
D03*
X26752Y9453D02*
D03*
X24382D02*
D03*
X24020D02*
D03*
X23808D02*
D03*
X23432D02*
D03*
X22723D02*
D03*
X26752Y9446D02*
D03*
X24920D02*
D03*
X24020D02*
D03*
X22723D02*
D03*
X26752Y9436D02*
D03*
X24158D02*
D03*
X23655D02*
D03*
X22723D02*
D03*
X23655Y9429D02*
D03*
X23071D02*
D03*
X22723D02*
D03*
X22475D02*
D03*
X23655Y9422D02*
D03*
X22475D02*
D03*
X26752Y9414D02*
D03*
X23655D02*
D03*
X22475D02*
D03*
X26752Y9404D02*
D03*
X24158D02*
D03*
X24020D02*
D03*
X23655D02*
D03*
X22720D02*
D03*
X24158Y9397D02*
D03*
X24020D02*
D03*
X24920Y9390D02*
D03*
X24382D02*
D03*
X26749Y9379D02*
D03*
X24924D02*
D03*
X24162D02*
D03*
X23808D02*
D03*
X23432D02*
D03*
X22713D02*
D03*
X26745Y9372D02*
D03*
X26540D02*
D03*
X23808D02*
D03*
X24375Y9365D02*
D03*
X23645D02*
D03*
X24559Y9354D02*
D03*
X23939Y9273D02*
D03*
D587*
X21832Y9684D02*
D03*
X21939Y9602D02*
D03*
X23618Y9503D02*
D03*
X24607Y9283D02*
D03*
D588*
X25808Y9680D02*
D03*
X22250D02*
D03*
X25276Y9549D02*
D03*
X23951Y9539D02*
D03*
X22261Y9450D02*
D03*
D589*
X24766Y9680D02*
D03*
Y9677D02*
D03*
Y9648D02*
D03*
Y9645D02*
D03*
X22133Y9595D02*
D03*
X22130Y9588D02*
D03*
X23271Y9581D02*
D03*
X22130D02*
D03*
X23271Y9574D02*
D03*
X22130D02*
D03*
X23271Y9570D02*
D03*
X22130D02*
D03*
X23271Y9556D02*
D03*
X21690D02*
D03*
X23271Y9549D02*
D03*
X21974Y9546D02*
D03*
X21687D02*
D03*
X23267Y9539D02*
D03*
X21683D02*
D03*
X23264Y9531D02*
D03*
X21978D02*
D03*
X21683D02*
D03*
X25634Y9524D02*
D03*
X23260D02*
D03*
X21680D02*
D03*
X21981Y9517D02*
D03*
X21680D02*
D03*
X25631Y9514D02*
D03*
X21981D02*
D03*
X21680D02*
D03*
X25631Y9507D02*
D03*
X25209D02*
D03*
X21981D02*
D03*
X25631Y9500D02*
D03*
X21981D02*
D03*
X21676D02*
D03*
Y9492D02*
D03*
Y9489D02*
D03*
X24373Y9482D02*
D03*
X24171D02*
D03*
X23643D02*
D03*
X21985D02*
D03*
X21676D02*
D03*
X26747Y9475D02*
D03*
X25627D02*
D03*
X24167D02*
D03*
X24015D02*
D03*
X23646D02*
D03*
X21676D02*
D03*
X26541Y9468D02*
D03*
X25627D02*
D03*
X25206D02*
D03*
X23809D02*
D03*
X21676D02*
D03*
X25627Y9464D02*
D03*
X23809D02*
D03*
X21676D02*
D03*
Y9457D02*
D03*
X25631Y9450D02*
D03*
X21981D02*
D03*
X21676D02*
D03*
X25631Y9443D02*
D03*
X21981D02*
D03*
X21676D02*
D03*
X25631Y9439D02*
D03*
X21981D02*
D03*
X21680D02*
D03*
Y9432D02*
D03*
X21978Y9425D02*
D03*
Y9418D02*
D03*
X21683D02*
D03*
X21974Y9411D02*
D03*
X21970Y9400D02*
D03*
X22314Y9393D02*
D03*
Y9386D02*
D03*
X22715Y9383D02*
D03*
X22484D02*
D03*
X22314D02*
D03*
X26747Y9376D02*
D03*
X22711D02*
D03*
X22314D02*
D03*
X26743Y9368D02*
D03*
X23809D02*
D03*
X22314D02*
D03*
X26740Y9361D02*
D03*
X26541D02*
D03*
X24167D02*
D03*
X24011D02*
D03*
X26740Y9358D02*
D03*
X26364D02*
D03*
X26180D02*
D03*
X24171D02*
D03*
X24008D02*
D03*
X23643D02*
D03*
X23441D02*
D03*
X26183Y9351D02*
D03*
X24561D02*
D03*
X24174D02*
D03*
X23639D02*
D03*
X24564Y9344D02*
D03*
X25028Y9269D02*
D03*
X24270D02*
D03*
X23540D02*
D03*
D590*
X23126Y9680D02*
D03*
X22243Y9670D02*
D03*
X24568Y9563D02*
D03*
Y9556D02*
D03*
Y9549D02*
D03*
Y9546D02*
D03*
Y9539D02*
D03*
Y9531D02*
D03*
Y9524D02*
D03*
Y9517D02*
D03*
Y9514D02*
D03*
Y9507D02*
D03*
X23126Y9457D02*
D03*
X25011Y9312D02*
D03*
X25255Y9301D02*
D03*
X24270Y9294D02*
D03*
X23540D02*
D03*
D591*
X22723Y9680D02*
D03*
Y9677D02*
D03*
Y9670D02*
D03*
Y9663D02*
D03*
Y9655D02*
D03*
Y9648D02*
D03*
Y9645D02*
D03*
Y9638D02*
D03*
Y9631D02*
D03*
Y9624D02*
D03*
Y9620D02*
D03*
Y9613D02*
D03*
Y9606D02*
D03*
Y9599D02*
D03*
Y9595D02*
D03*
Y9588D02*
D03*
Y9581D02*
D03*
Y9574D02*
D03*
Y9570D02*
D03*
Y9563D02*
D03*
Y9556D02*
D03*
Y9549D02*
D03*
X23269Y9546D02*
D03*
X22723D02*
D03*
Y9539D02*
D03*
Y9531D02*
D03*
Y9524D02*
D03*
X25632Y9517D02*
D03*
X22723D02*
D03*
Y9514D02*
D03*
Y9507D02*
D03*
Y9500D02*
D03*
Y9492D02*
D03*
X21983D02*
D03*
X22723Y9489D02*
D03*
X21983D02*
D03*
X22723Y9482D02*
D03*
X25200Y9475D02*
D03*
X24375D02*
D03*
X23439D02*
D03*
X22723D02*
D03*
X21983D02*
D03*
X26749Y9468D02*
D03*
X24927D02*
D03*
X22723D02*
D03*
X21983D02*
D03*
X26749Y9464D02*
D03*
X26540D02*
D03*
X24927D02*
D03*
X22723D02*
D03*
X21983D02*
D03*
X26752Y9457D02*
D03*
X26540D02*
D03*
X24924D02*
D03*
X24382D02*
D03*
X24162D02*
D03*
X24020D02*
D03*
X23808D02*
D03*
X23652D02*
D03*
X23432D02*
D03*
X22723D02*
D03*
X21983D02*
D03*
X26752Y9450D02*
D03*
X24382D02*
D03*
X24020D02*
D03*
X23432D02*
D03*
X22723D02*
D03*
X26752Y9443D02*
D03*
X24920D02*
D03*
X22723D02*
D03*
X26752Y9439D02*
D03*
X24158D02*
D03*
X23655D02*
D03*
X22723D02*
D03*
X24158Y9432D02*
D03*
X23655D02*
D03*
X22723D02*
D03*
X22475D02*
D03*
X23655Y9425D02*
D03*
X22475D02*
D03*
X26752Y9418D02*
D03*
X23655D02*
D03*
X22475D02*
D03*
X26752Y9411D02*
D03*
X23655D02*
D03*
X26752Y9407D02*
D03*
X23655D02*
D03*
X26752Y9400D02*
D03*
X24158D02*
D03*
X24020D02*
D03*
X22720D02*
D03*
X24920Y9393D02*
D03*
X24020D02*
D03*
X26749Y9386D02*
D03*
X24920D02*
D03*
X24382D02*
D03*
X23652D02*
D03*
X23432D02*
D03*
X22482D02*
D03*
X26749Y9383D02*
D03*
X24920D02*
D03*
X23652D02*
D03*
X23432D02*
D03*
X26540Y9376D02*
D03*
X24924D02*
D03*
X24162D02*
D03*
X23808D02*
D03*
X26540Y9368D02*
D03*
X24013D02*
D03*
X24375Y9361D02*
D03*
X23645D02*
D03*
X23439D02*
D03*
X24559Y9358D02*
D03*
X24371D02*
D03*
D592*
X21832Y9680D02*
D03*
D593*
X25806Y9677D02*
D03*
X25019Y9539D02*
D03*
X26681Y9524D02*
D03*
X22241Y9464D02*
D03*
X25019Y9294D02*
D03*
X25246Y9287D02*
D03*
D594*
X23133Y9677D02*
D03*
X22236Y9663D02*
D03*
X21832D02*
D03*
X24274Y9539D02*
D03*
X23544D02*
D03*
X23133Y9450D02*
D03*
X25262Y9319D02*
D03*
D595*
X22250Y9677D02*
D03*
X24274Y9549D02*
D03*
X23544D02*
D03*
X23951Y9524D02*
D03*
X22236Y9468D02*
D03*
D596*
X21834Y9677D02*
D03*
X24272Y9556D02*
D03*
D597*
X25803Y9673D02*
D03*
X25253Y9298D02*
D03*
D598*
X24766Y9673D02*
D03*
X22133Y9592D02*
D03*
X22130Y9585D02*
D03*
X23271Y9577D02*
D03*
X22130D02*
D03*
X23271Y9567D02*
D03*
X22130D02*
D03*
X23271Y9553D02*
D03*
X23267Y9535D02*
D03*
X21978D02*
D03*
X21683D02*
D03*
X25634Y9528D02*
D03*
X23264D02*
D03*
X21978D02*
D03*
X21680D02*
D03*
X25634Y9521D02*
D03*
X21981D02*
D03*
X21680D02*
D03*
X25631Y9510D02*
D03*
X21981D02*
D03*
X25631Y9503D02*
D03*
X21981D02*
D03*
X21676D02*
D03*
Y9496D02*
D03*
X24174Y9485D02*
D03*
X21676D02*
D03*
X25627Y9478D02*
D03*
X24373D02*
D03*
X24171D02*
D03*
X23441D02*
D03*
X21985D02*
D03*
X21676D02*
D03*
X26747Y9471D02*
D03*
X26541D02*
D03*
X25627D02*
D03*
X24929D02*
D03*
X24015D02*
D03*
X23809D02*
D03*
X23437D02*
D03*
X21676D02*
D03*
X25627Y9461D02*
D03*
X21676D02*
D03*
X21981Y9453D02*
D03*
X21676D02*
D03*
X25631Y9446D02*
D03*
X21981D02*
D03*
X21676D02*
D03*
X25631Y9436D02*
D03*
X21981D02*
D03*
X21680D02*
D03*
X21978Y9429D02*
D03*
X21680D02*
D03*
X21978Y9422D02*
D03*
X21974Y9414D02*
D03*
X21970Y9404D02*
D03*
X22481Y9390D02*
D03*
X22314D02*
D03*
X22484Y9379D02*
D03*
X22314D02*
D03*
X25329Y9372D02*
D03*
X24015D02*
D03*
X22711D02*
D03*
X22314D02*
D03*
X26743Y9365D02*
D03*
X26541D02*
D03*
X24011D02*
D03*
X23809D02*
D03*
X23437D02*
D03*
X22314D02*
D03*
X26180Y9354D02*
D03*
X24171D02*
D03*
X23639D02*
D03*
X24561Y9347D02*
D03*
X23636D02*
D03*
D599*
X23138Y9673D02*
D03*
X22231Y9652D02*
D03*
X24272Y9535D02*
D03*
X22596Y9298D02*
D03*
X25788Y9290D02*
D03*
D600*
X22247Y9673D02*
D03*
X25014Y9528D02*
D03*
X24270Y9290D02*
D03*
D601*
X21832Y9673D02*
D03*
X23951Y9528D02*
D03*
D602*
X25799Y9670D02*
D03*
X25257Y9305D02*
D03*
D603*
X24766Y9670D02*
D03*
Y9663D02*
D03*
Y9655D02*
D03*
X23267Y9595D02*
D03*
X21963Y9570D02*
D03*
X21698D02*
D03*
X25648Y9563D02*
D03*
X21967D02*
D03*
X21694D02*
D03*
X25645Y9556D02*
D03*
X22133D02*
D03*
X21970D02*
D03*
X23253Y9514D02*
D03*
X26736Y9492D02*
D03*
X24366D02*
D03*
X23636D02*
D03*
X23452D02*
D03*
X26740Y9489D02*
D03*
X24008D02*
D03*
X23448D02*
D03*
X26545Y9482D02*
D03*
X24936D02*
D03*
X23221Y9418D02*
D03*
X25638Y9411D02*
D03*
X23228D02*
D03*
X25638Y9407D02*
D03*
X25641Y9400D02*
D03*
X21967Y9393D02*
D03*
X21963Y9386D02*
D03*
X21698Y9383D02*
D03*
X25326Y9376D02*
D03*
X21956D02*
D03*
X23257Y9368D02*
D03*
X23260Y9361D02*
D03*
X22704D02*
D03*
X22495D02*
D03*
X24933Y9358D02*
D03*
X24004Y9351D02*
D03*
X23267D02*
D03*
X26187Y9344D02*
D03*
X24362D02*
D03*
X23632D02*
D03*
X23452D02*
D03*
X23271D02*
D03*
X23278Y9333D02*
D03*
X23281Y9326D02*
D03*
X23292Y9312D02*
D03*
X23296Y9305D02*
D03*
X23299Y9301D02*
D03*
X23303Y9294D02*
D03*
X23306Y9287D02*
D03*
X26229Y9276D02*
D03*
X23313D02*
D03*
X25241Y9269D02*
D03*
X22598D02*
D03*
D604*
X23143Y9670D02*
D03*
X21832Y9655D02*
D03*
X25783Y9648D02*
D03*
X23143Y9432D02*
D03*
X22201Y9294D02*
D03*
D605*
X21832Y9670D02*
D03*
X25262Y9517D02*
D03*
D606*
X25795Y9666D02*
D03*
X23131Y9461D02*
D03*
X25005Y9322D02*
D03*
D607*
X24766Y9666D02*
D03*
Y9659D02*
D03*
X22137Y9602D02*
D03*
X23267Y9592D02*
D03*
X21701Y9577D02*
D03*
X25652Y9567D02*
D03*
X21967D02*
D03*
X25648Y9560D02*
D03*
X23250Y9510D02*
D03*
X24940Y9485D02*
D03*
X26545Y9478D02*
D03*
X23813D02*
D03*
X23218Y9422D02*
D03*
X23225Y9414D02*
D03*
X25641Y9404D02*
D03*
X22311D02*
D03*
X21691Y9397D02*
D03*
X23242Y9390D02*
D03*
X21694D02*
D03*
X23250Y9379D02*
D03*
X22491Y9365D02*
D03*
X26545Y9354D02*
D03*
X23813D02*
D03*
X22307D02*
D03*
X26733Y9347D02*
D03*
X26361D02*
D03*
X24001D02*
D03*
X23448D02*
D03*
X23274Y9340D02*
D03*
X25322Y9329D02*
D03*
X23281D02*
D03*
X23285Y9322D02*
D03*
X23289Y9315D02*
D03*
X23292Y9308D02*
D03*
X23299Y9298D02*
D03*
X23306Y9290D02*
D03*
X23317Y9273D02*
D03*
D608*
X22240Y9666D02*
D03*
X21832D02*
D03*
X24274Y9542D02*
D03*
X23544D02*
D03*
X25007Y9510D02*
D03*
X23129Y9453D02*
D03*
X25259Y9308D02*
D03*
X24270Y9298D02*
D03*
X22598Y9290D02*
D03*
X21829D02*
D03*
X25790Y9283D02*
D03*
X22197D02*
D03*
D609*
X25792Y9663D02*
D03*
X23134Y9464D02*
D03*
X25002Y9333D02*
D03*
X25264Y9326D02*
D03*
X23542Y9301D02*
D03*
X21827Y9294D02*
D03*
X22195Y9287D02*
D03*
D610*
X23149Y9663D02*
D03*
X24272Y9524D02*
D03*
X25778Y9305D02*
D03*
D611*
X25790Y9659D02*
D03*
D612*
X23152D02*
D03*
X25774Y9634D02*
D03*
X23152Y9485D02*
D03*
X25774Y9308D02*
D03*
D613*
X22234Y9659D02*
D03*
X23134Y9446D02*
D03*
D614*
X21832Y9659D02*
D03*
D615*
X25787Y9655D02*
D03*
X23544Y9531D02*
D03*
X23140Y9468D02*
D03*
Y9439D02*
D03*
X24270Y9305D02*
D03*
D616*
X24601Y9655D02*
D03*
X26681Y9574D02*
D03*
X25037D02*
D03*
X23949D02*
D03*
D617*
X23154Y9655D02*
D03*
X21832Y9648D02*
D03*
X25772Y9631D02*
D03*
X23544Y9517D02*
D03*
X23154Y9489D02*
D03*
X25772Y9312D02*
D03*
X22598D02*
D03*
D618*
X25785Y9652D02*
D03*
X23142Y9471D02*
D03*
Y9436D02*
D03*
X23542Y9308D02*
D03*
D619*
X24768Y9652D02*
D03*
X23269Y9585D02*
D03*
X22132Y9560D02*
D03*
X21969D02*
D03*
X25643Y9553D02*
D03*
X21689D02*
D03*
X21976Y9542D02*
D03*
X26745Y9478D02*
D03*
X24013D02*
D03*
X25632Y9429D02*
D03*
X21682Y9422D02*
D03*
X21689Y9404D02*
D03*
X23237Y9397D02*
D03*
X22312D02*
D03*
X21969D02*
D03*
X22706Y9365D02*
D03*
X26738Y9354D02*
D03*
X26362D02*
D03*
X24006D02*
D03*
X24364Y9347D02*
D03*
X24176D02*
D03*
X23269D02*
D03*
X24612Y9273D02*
D03*
D620*
X24594Y9652D02*
D03*
D621*
X23156D02*
D03*
X25771Y9627D02*
D03*
X22213Y9322D02*
D03*
X25771Y9315D02*
D03*
X22599D02*
D03*
D622*
X21834Y9652D02*
D03*
X25778Y9641D02*
D03*
X22220Y9627D02*
D03*
X23149Y9478D02*
D03*
X23542Y9315D02*
D03*
D623*
X24589Y9648D02*
D03*
X22094Y9361D02*
D03*
X25889Y9358D02*
D03*
D624*
X23157Y9648D02*
D03*
X21832Y9645D02*
D03*
X25769Y9624D02*
D03*
X24270Y9326D02*
D03*
X22215D02*
D03*
X25769Y9319D02*
D03*
X22598D02*
D03*
X26626Y9305D02*
D03*
X23894D02*
D03*
D625*
X22229Y9648D02*
D03*
D626*
X25780Y9645D02*
D03*
X22222Y9631D02*
D03*
X22598Y9305D02*
D03*
X25780Y9301D02*
D03*
X22204D02*
D03*
D627*
X24582Y9645D02*
D03*
X25092Y9337D02*
D03*
D628*
X23159Y9645D02*
D03*
X25767Y9620D02*
D03*
X24272Y9507D02*
D03*
X23159Y9500D02*
D03*
X22217Y9337D02*
D03*
Y9333D02*
D03*
X26277Y9319D02*
D03*
X26628Y9312D02*
D03*
D629*
X22227Y9645D02*
D03*
X24272Y9531D02*
D03*
X25785Y9294D02*
D03*
D630*
X24577Y9641D02*
D03*
X24612Y9266D02*
D03*
D631*
X22226Y9641D02*
D03*
X23544Y9528D02*
D03*
X24270Y9308D02*
D03*
D632*
X21832Y9641D02*
D03*
X26276Y9329D02*
D03*
D633*
X25776Y9638D02*
D03*
X22218Y9624D02*
D03*
Y9620D02*
D03*
X23150Y9482D02*
D03*
X24270Y9319D02*
D03*
D634*
X24766Y9638D02*
D03*
Y9563D02*
D03*
Y9556D02*
D03*
Y9549D02*
D03*
Y9546D02*
D03*
Y9539D02*
D03*
Y9531D02*
D03*
Y9524D02*
D03*
Y9517D02*
D03*
Y9514D02*
D03*
Y9507D02*
D03*
Y9500D02*
D03*
Y9492D02*
D03*
Y9489D02*
D03*
Y9482D02*
D03*
Y9475D02*
D03*
Y9468D02*
D03*
Y9464D02*
D03*
Y9457D02*
D03*
X24922Y9450D02*
D03*
X24766D02*
D03*
X24160D02*
D03*
X23654D02*
D03*
X24766Y9443D02*
D03*
X24160D02*
D03*
X24022D02*
D03*
X23654D02*
D03*
X24766Y9439D02*
D03*
X24022D02*
D03*
X26754Y9432D02*
D03*
X24766D02*
D03*
X24022D02*
D03*
X26754Y9425D02*
D03*
X24766D02*
D03*
X24022D02*
D03*
X22722D02*
D03*
X24766Y9418D02*
D03*
X24022D02*
D03*
X22722D02*
D03*
X24766Y9411D02*
D03*
X24022D02*
D03*
X22722D02*
D03*
X24766Y9407D02*
D03*
X24022D02*
D03*
X22722D02*
D03*
X24766Y9400D02*
D03*
X23654D02*
D03*
X24766Y9393D02*
D03*
X24160D02*
D03*
X23654D02*
D03*
X24766Y9386D02*
D03*
X24160D02*
D03*
X24766Y9383D02*
D03*
X24160D02*
D03*
X24766Y9376D02*
D03*
Y9368D02*
D03*
Y9361D02*
D03*
Y9358D02*
D03*
Y9351D02*
D03*
Y9344D02*
D03*
Y9337D02*
D03*
Y9333D02*
D03*
Y9326D02*
D03*
Y9319D02*
D03*
Y9312D02*
D03*
Y9305D02*
D03*
Y9301D02*
D03*
Y9294D02*
D03*
Y9287D02*
D03*
Y9280D02*
D03*
Y9276D02*
D03*
D635*
X24569Y9638D02*
D03*
X24768Y9624D02*
D03*
D636*
X22224Y9638D02*
D03*
X23145Y9475D02*
D03*
X23542Y9312D02*
D03*
D637*
X24564Y9634D02*
D03*
D638*
X24768Y9627D02*
D03*
X22199Y9266D02*
D03*
D639*
X24768Y9616D02*
D03*
X22327Y9609D02*
D03*
X25884Y9354D02*
D03*
D640*
X22311Y9616D02*
D03*
D641*
X23250Y9613D02*
D03*
X25039Y9563D02*
D03*
X23544D02*
D03*
X25312Y9386D02*
D03*
X21726Y9351D02*
D03*
D642*
X22319Y9613D02*
D03*
D643*
X22149D02*
D03*
X24956Y9500D02*
D03*
X25317Y9383D02*
D03*
X25661Y9368D02*
D03*
X21717Y9358D02*
D03*
X26720Y9337D02*
D03*
X24190D02*
D03*
X24608Y9280D02*
D03*
D644*
X25702Y9609D02*
D03*
X25294Y9397D02*
D03*
X24592Y9329D02*
D03*
D645*
X23255Y9609D02*
D03*
X21724Y9602D02*
D03*
X25671Y9592D02*
D03*
X26554Y9496D02*
D03*
X23822D02*
D03*
X22298Y9422D02*
D03*
X21937Y9354D02*
D03*
X26554Y9340D02*
D03*
X24949D02*
D03*
X23822D02*
D03*
X24268Y9273D02*
D03*
X23542D02*
D03*
D646*
X22144Y9609D02*
D03*
X21956Y9585D02*
D03*
X24001Y9496D02*
D03*
X25213Y9461D02*
D03*
X26726Y9340D02*
D03*
D647*
X21737Y9609D02*
D03*
X26563Y9503D02*
D03*
X24965D02*
D03*
X25305Y9390D02*
D03*
X25677Y9354D02*
D03*
X21924Y9347D02*
D03*
X21733D02*
D03*
X24600Y9298D02*
D03*
D648*
X25880Y9606D02*
D03*
X25175Y9333D02*
D03*
D649*
X25693Y9606D02*
D03*
X26681Y9549D02*
D03*
X25030Y9276D02*
D03*
D650*
X23258Y9606D02*
D03*
X25668Y9588D02*
D03*
X24357Y9500D02*
D03*
X24187D02*
D03*
X23999D02*
D03*
X23627D02*
D03*
X26550Y9492D02*
D03*
X21706Y9368D02*
D03*
X21944Y9361D02*
D03*
X26550Y9344D02*
D03*
X24945D02*
D03*
X23818D02*
D03*
X26192Y9337D02*
D03*
X23623D02*
D03*
X24612Y9276D02*
D03*
D651*
X22330Y9606D02*
D03*
D652*
X22139D02*
D03*
X25657Y9574D02*
D03*
X21699D02*
D03*
X24945Y9492D02*
D03*
X24006D02*
D03*
X23212Y9425D02*
D03*
X21951Y9368D02*
D03*
X24938Y9351D02*
D03*
X26731Y9344D02*
D03*
X24569Y9337D02*
D03*
X23939Y9276D02*
D03*
D653*
X21933Y9606D02*
D03*
X22153Y9531D02*
D03*
X26557Y9500D02*
D03*
X23825D02*
D03*
X22295Y9425D02*
D03*
X25668Y9361D02*
D03*
X21933Y9351D02*
D03*
X26557Y9337D02*
D03*
X24956D02*
D03*
X23825D02*
D03*
X24605Y9287D02*
D03*
D654*
X21730Y9606D02*
D03*
X24274Y9563D02*
D03*
X25673Y9358D02*
D03*
X26230Y9287D02*
D03*
D655*
X25886Y9602D02*
D03*
D656*
X25686D02*
D03*
X26681Y9553D02*
D03*
X23949D02*
D03*
D657*
X23262Y9602D02*
D03*
X21706Y9585D02*
D03*
X23630Y9496D02*
D03*
X25643Y9397D02*
D03*
X21699Y9379D02*
D03*
X26189Y9340D02*
D03*
X24357D02*
D03*
D658*
X22335Y9602D02*
D03*
X22091Y9365D02*
D03*
D659*
X25891Y9599D02*
D03*
D660*
X25679D02*
D03*
D661*
X23266D02*
D03*
X21958Y9581D02*
D03*
X21703D02*
D03*
X21962Y9574D02*
D03*
X25654Y9570D02*
D03*
X22135Y9549D02*
D03*
X24180Y9492D02*
D03*
X24941Y9489D02*
D03*
X23815Y9482D02*
D03*
X22309Y9407D02*
D03*
X25647Y9393D02*
D03*
X21696Y9386D02*
D03*
X21703Y9376D02*
D03*
X22702Y9358D02*
D03*
X22497D02*
D03*
X26547Y9351D02*
D03*
X23815D02*
D03*
X22305D02*
D03*
X24180Y9344D02*
D03*
X23999D02*
D03*
X26671Y9276D02*
D03*
D662*
X22339Y9599D02*
D03*
X25354Y9500D02*
D03*
D663*
X22135Y9599D02*
D03*
X21972Y9549D02*
D03*
X25640Y9546D02*
D03*
X25636Y9531D02*
D03*
X21979Y9524D02*
D03*
X23255Y9517D02*
D03*
X24367Y9489D02*
D03*
X26741Y9482D02*
D03*
X23443D02*
D03*
X23811Y9475D02*
D03*
X25636Y9418D02*
D03*
X21685Y9411D02*
D03*
X23230Y9407D02*
D03*
X21972D02*
D03*
X21685D02*
D03*
X23241Y9393D02*
D03*
X21692D02*
D03*
X23248Y9383D02*
D03*
X22486Y9376D02*
D03*
X22709Y9368D02*
D03*
X22490D02*
D03*
X23811Y9361D02*
D03*
Y9358D02*
D03*
X22309D02*
D03*
X26734Y9351D02*
D03*
X24367D02*
D03*
X23446D02*
D03*
X21827Y9269D02*
D03*
D664*
X21942Y9599D02*
D03*
X21719D02*
D03*
X21946Y9595D02*
D03*
X22144Y9539D02*
D03*
X23820Y9492D02*
D03*
X22300Y9418D02*
D03*
X25655Y9376D02*
D03*
X21942Y9358D02*
D03*
X22693Y9351D02*
D03*
X22505D02*
D03*
X22296Y9344D02*
D03*
X24352Y9337D02*
D03*
X23990D02*
D03*
X23462D02*
D03*
X26669Y9280D02*
D03*
X25790Y9269D02*
D03*
D665*
X25895Y9595D02*
D03*
X22089Y9368D02*
D03*
X25161Y9344D02*
D03*
D666*
X25677Y9595D02*
D03*
X26683Y9556D02*
D03*
D667*
X22342Y9595D02*
D03*
X25283Y9574D02*
D03*
X24274D02*
D03*
X23544D02*
D03*
X22084Y9376D02*
D03*
D668*
X21715Y9595D02*
D03*
X26729Y9500D02*
D03*
X25216Y9457D02*
D03*
X21715Y9361D02*
D03*
X23940Y9280D02*
D03*
X22197Y9269D02*
D03*
D669*
X25898Y9592D02*
D03*
X22086Y9372D02*
D03*
X25158Y9347D02*
D03*
D670*
X22344Y9592D02*
D03*
X25112Y9485D02*
D03*
D671*
X21951Y9592D02*
D03*
X21714D02*
D03*
X25664Y9585D02*
D03*
X26681Y9560D02*
D03*
X23949D02*
D03*
X22142Y9542D02*
D03*
X24949Y9496D02*
D03*
X23209Y9429D02*
D03*
X22500Y9354D02*
D03*
X22302Y9347D02*
D03*
X26355Y9340D02*
D03*
D672*
X23269Y9588D02*
D03*
X26681Y9563D02*
D03*
X23949D02*
D03*
X22132D02*
D03*
X25643Y9549D02*
D03*
X21689D02*
D03*
X21976Y9539D02*
D03*
X24176Y9489D02*
D03*
X23638D02*
D03*
X24013Y9482D02*
D03*
X26543Y9475D02*
D03*
X24931D02*
D03*
X25207Y9464D02*
D03*
X25632Y9432D02*
D03*
Y9425D02*
D03*
X21682D02*
D03*
X23237Y9400D02*
D03*
X22312D02*
D03*
X21689D02*
D03*
X23244Y9386D02*
D03*
X21962Y9383D02*
D03*
X23251Y9376D02*
D03*
X24931Y9361D02*
D03*
X22312D02*
D03*
X26543Y9358D02*
D03*
X23262D02*
D03*
X26362Y9351D02*
D03*
X23276Y9337D02*
D03*
X23287Y9319D02*
D03*
D673*
X25663Y9581D02*
D03*
X22307Y9411D02*
D03*
X26357Y9344D02*
D03*
D674*
X25659Y9577D02*
D03*
X25039Y9567D02*
D03*
X24274D02*
D03*
X23544D02*
D03*
X26733Y9496D02*
D03*
X23455D02*
D03*
X22304Y9414D02*
D03*
X25322Y9379D02*
D03*
X21705Y9372D02*
D03*
X21949Y9365D02*
D03*
X22697Y9354D02*
D03*
X26548Y9347D02*
D03*
X24940D02*
D03*
X23816D02*
D03*
X24185Y9340D02*
D03*
X23994D02*
D03*
X23455D02*
D03*
D675*
X21960Y9577D02*
D03*
Y9379D02*
D03*
X23310Y9283D02*
D03*
D676*
X26681Y9570D02*
D03*
D677*
X25039D02*
D03*
D678*
X23951D02*
D03*
D679*
X26681Y9567D02*
D03*
X26369Y9560D02*
D03*
Y9553D02*
D03*
Y9542D02*
D03*
Y9535D02*
D03*
Y9528D02*
D03*
Y9521D02*
D03*
Y9510D02*
D03*
Y9503D02*
D03*
Y9496D02*
D03*
X25200D02*
D03*
X26369Y9485D02*
D03*
Y9478D02*
D03*
Y9471D02*
D03*
Y9461D02*
D03*
Y9453D02*
D03*
Y9446D02*
D03*
Y9436D02*
D03*
Y9429D02*
D03*
Y9422D02*
D03*
Y9414D02*
D03*
Y9404D02*
D03*
Y9397D02*
D03*
Y9390D02*
D03*
Y9308D02*
D03*
Y9298D02*
D03*
Y9290D02*
D03*
Y9283D02*
D03*
Y9273D02*
D03*
D680*
X25285Y9567D02*
D03*
X25654Y9379D02*
D03*
X21710Y9365D02*
D03*
D681*
X23951Y9567D02*
D03*
D682*
X21696D02*
D03*
X21692Y9560D02*
D03*
X21972Y9553D02*
D03*
X25640Y9542D02*
D03*
X21685D02*
D03*
X23258Y9521D02*
D03*
X26741Y9485D02*
D03*
X24010D02*
D03*
X23641D02*
D03*
X23446D02*
D03*
X24934Y9478D02*
D03*
X25636Y9422D02*
D03*
Y9414D02*
D03*
X21685D02*
D03*
X23234Y9404D02*
D03*
X21965Y9390D02*
D03*
X23255Y9372D02*
D03*
X22490D02*
D03*
X24927Y9365D02*
D03*
X23258D02*
D03*
X23443Y9354D02*
D03*
X23266D02*
D03*
X26185Y9347D02*
D03*
X24566Y9340D02*
D03*
D683*
X26369Y9563D02*
D03*
Y9556D02*
D03*
Y9549D02*
D03*
Y9546D02*
D03*
Y9539D02*
D03*
Y9531D02*
D03*
Y9524D02*
D03*
Y9517D02*
D03*
Y9514D02*
D03*
Y9507D02*
D03*
Y9500D02*
D03*
Y9492D02*
D03*
X25200D02*
D03*
X26369Y9489D02*
D03*
X25200D02*
D03*
X26369Y9482D02*
D03*
Y9475D02*
D03*
Y9468D02*
D03*
Y9464D02*
D03*
Y9457D02*
D03*
Y9450D02*
D03*
Y9443D02*
D03*
Y9439D02*
D03*
Y9432D02*
D03*
Y9425D02*
D03*
Y9418D02*
D03*
Y9411D02*
D03*
Y9407D02*
D03*
Y9400D02*
D03*
Y9393D02*
D03*
Y9386D02*
D03*
Y9312D02*
D03*
Y9305D02*
D03*
Y9301D02*
D03*
Y9294D02*
D03*
Y9287D02*
D03*
Y9280D02*
D03*
Y9276D02*
D03*
D684*
X25287Y9563D02*
D03*
X24270Y9276D02*
D03*
D685*
X25285Y9560D02*
D03*
X24272D02*
D03*
X22195Y9273D02*
D03*
D686*
X25037Y9560D02*
D03*
X24594Y9322D02*
D03*
Y9315D02*
D03*
X26231Y9298D02*
D03*
D687*
X24568Y9560D02*
D03*
Y9553D02*
D03*
Y9542D02*
D03*
Y9535D02*
D03*
Y9528D02*
D03*
X25011Y9521D02*
D03*
X24568D02*
D03*
Y9510D02*
D03*
Y9503D02*
D03*
D688*
X23544Y9560D02*
D03*
X22282Y9436D02*
D03*
D689*
X23273Y9560D02*
D03*
X21678Y9510D02*
D03*
X25204Y9503D02*
D03*
X25629Y9496D02*
D03*
Y9485D02*
D03*
X25204Y9471D02*
D03*
X24378D02*
D03*
X24165D02*
D03*
X23648D02*
D03*
X25629Y9453D02*
D03*
X23428Y9422D02*
D03*
Y9414D02*
D03*
X22479Y9404D02*
D03*
Y9397D02*
D03*
X22716Y9390D02*
D03*
X24017Y9379D02*
D03*
X24378Y9372D02*
D03*
X24165D02*
D03*
X23648D02*
D03*
X23436D02*
D03*
X26366Y9365D02*
D03*
X26178D02*
D03*
X24165D02*
D03*
D690*
X25282Y9556D02*
D03*
X26231Y9301D02*
D03*
X24268Y9280D02*
D03*
D691*
X25034Y9556D02*
D03*
X25030Y9280D02*
D03*
X23542D02*
D03*
D692*
X23951Y9556D02*
D03*
X26350Y9337D02*
D03*
D693*
X23545Y9556D02*
D03*
X26681Y9539D02*
D03*
X26231Y9305D02*
D03*
D694*
X25278Y9553D02*
D03*
X22266Y9446D02*
D03*
X25285Y9404D02*
D03*
D695*
X25030Y9553D02*
D03*
D696*
X23544D02*
D03*
D697*
X22135D02*
D03*
X25214Y9510D02*
D03*
X24360Y9496D02*
D03*
X24183D02*
D03*
X26547Y9485D02*
D03*
X23815D02*
D03*
X25647Y9390D02*
D03*
X21955Y9372D02*
D03*
X24934Y9354D02*
D03*
X23627Y9340D02*
D03*
D698*
X25027Y9549D02*
D03*
X22185Y9507D02*
D03*
X25253Y9432D02*
D03*
X25239Y9280D02*
D03*
D699*
X23951Y9549D02*
D03*
X25301Y9393D02*
D03*
X25684Y9351D02*
D03*
X24596Y9312D02*
D03*
X26230Y9294D02*
D03*
X21829Y9276D02*
D03*
D700*
X26681Y9546D02*
D03*
X24594Y9319D02*
D03*
D701*
X25273Y9546D02*
D03*
X25790Y9276D02*
D03*
X22197D02*
D03*
D702*
X25025Y9546D02*
D03*
X25262Y9425D02*
D03*
X25269Y9418D02*
D03*
X25276Y9411D02*
D03*
X25025Y9287D02*
D03*
D703*
X24272Y9546D02*
D03*
X23542D02*
D03*
X25260Y9514D02*
D03*
X24566Y9500D02*
D03*
D704*
X23951Y9546D02*
D03*
X22169Y9517D02*
D03*
X25237Y9443D02*
D03*
X24592Y9333D02*
D03*
Y9326D02*
D03*
X23941Y9294D02*
D03*
X22598Y9276D02*
D03*
D705*
X26681Y9542D02*
D03*
X25693Y9347D02*
D03*
D706*
X25021Y9542D02*
D03*
X22598Y9283D02*
D03*
X21829D02*
D03*
D707*
X23951Y9542D02*
D03*
X26672Y9298D02*
D03*
X23940D02*
D03*
D708*
X25638Y9539D02*
D03*
X24926Y9368D02*
D03*
D709*
X25269Y9539D02*
D03*
X22250Y9457D02*
D03*
X24270Y9287D02*
D03*
D710*
X26681Y9535D02*
D03*
X25257Y9429D02*
D03*
D711*
X25638Y9535D02*
D03*
X24369Y9485D02*
D03*
X24926Y9372D02*
D03*
X24369Y9354D02*
D03*
D712*
X25268Y9535D02*
D03*
X26681Y9528D02*
D03*
X22199Y9496D02*
D03*
X22245Y9461D02*
D03*
D713*
X25018Y9535D02*
D03*
Y9298D02*
D03*
D714*
X23949Y9535D02*
D03*
X23542Y9283D02*
D03*
D715*
X23544Y9535D02*
D03*
D716*
X22148D02*
D03*
X26722Y9503D02*
D03*
X24348D02*
D03*
X24196D02*
D03*
X25666Y9365D02*
D03*
X21722Y9354D02*
D03*
X22686Y9347D02*
D03*
X26230Y9283D02*
D03*
X25028Y9273D02*
D03*
D717*
X26681Y9531D02*
D03*
X23949D02*
D03*
X22195Y9500D02*
D03*
D718*
X25266Y9531D02*
D03*
X22204Y9492D02*
D03*
D719*
X25264Y9528D02*
D03*
X22213Y9485D02*
D03*
X22224Y9478D02*
D03*
X22231Y9471D02*
D03*
X23542Y9290D02*
D03*
D720*
X24272Y9528D02*
D03*
X25781Y9298D02*
D03*
X22203D02*
D03*
D721*
X22156Y9528D02*
D03*
D722*
X25264Y9524D02*
D03*
X22217Y9482D02*
D03*
X22227Y9475D02*
D03*
X25792Y9280D02*
D03*
X22195D02*
D03*
D723*
X25012Y9524D02*
D03*
D724*
X23544D02*
D03*
X24270Y9312D02*
D03*
D725*
X22160Y9524D02*
D03*
X24598Y9305D02*
D03*
Y9301D02*
D03*
D726*
X25262Y9521D02*
D03*
D727*
X24272D02*
D03*
D728*
X23544D02*
D03*
X24270Y9315D02*
D03*
X22208Y9308D02*
D03*
D729*
X22165Y9521D02*
D03*
X25234Y9446D02*
D03*
X24596Y9308D02*
D03*
X26672Y9290D02*
D03*
X23940D02*
D03*
X25790Y9273D02*
D03*
D730*
X25009Y9517D02*
D03*
D731*
X24272D02*
D03*
X23542Y9319D02*
D03*
X22210Y9312D02*
D03*
D732*
X25007Y9514D02*
D03*
Y9319D02*
D03*
X25259Y9312D02*
D03*
D733*
X24272Y9514D02*
D03*
X23542D02*
D03*
Y9326D02*
D03*
D734*
X22176Y9514D02*
D03*
X22272Y9443D02*
D03*
X25244Y9439D02*
D03*
X25291Y9400D02*
D03*
D735*
X25335Y9510D02*
D03*
D736*
X24272D02*
D03*
X23542D02*
D03*
X24272Y9329D02*
D03*
X23542D02*
D03*
X26277Y9322D02*
D03*
X25767D02*
D03*
X26628Y9308D02*
D03*
X23896D02*
D03*
D737*
X22179Y9510D02*
D03*
X25248Y9436D02*
D03*
X26233Y9308D02*
D03*
X24270Y9283D02*
D03*
D738*
X25344Y9507D02*
D03*
X25170Y9337D02*
D03*
D739*
X25005Y9507D02*
D03*
Y9326D02*
D03*
D740*
X23544Y9507D02*
D03*
X26276Y9333D02*
D03*
Y9326D02*
D03*
D741*
X25349Y9503D02*
D03*
X25101Y9496D02*
D03*
X25165Y9340D02*
D03*
D742*
X23239Y9503D02*
D03*
D743*
X22190D02*
D03*
X25266Y9422D02*
D03*
X25273Y9414D02*
D03*
D744*
X23460Y9500D02*
D03*
D745*
X25358Y9496D02*
D03*
X24667Y9340D02*
D03*
D746*
X25106Y9492D02*
D03*
X24663Y9337D02*
D03*
D747*
X23156Y9492D02*
D03*
X22213Y9319D02*
D03*
D748*
X25108Y9489D02*
D03*
D749*
X25229Y9450D02*
D03*
X24601Y9294D02*
D03*
X26671Y9287D02*
D03*
D750*
X22277Y9439D02*
D03*
D751*
X22286Y9432D02*
D03*
X23940Y9287D02*
D03*
X23540Y9276D02*
D03*
D752*
X22289Y9429D02*
D03*
D753*
X25282Y9407D02*
D03*
X26231Y9312D02*
D03*
D754*
X25898Y9368D02*
D03*
X25154Y9351D02*
D03*
D755*
X25896Y9365D02*
D03*
D756*
X25893Y9361D02*
D03*
D757*
X22100Y9354D02*
D03*
D758*
X25879Y9351D02*
D03*
X22105D02*
D03*
D759*
X25337D02*
D03*
D760*
X25110D02*
D03*
D761*
X25870Y9347D02*
D03*
D762*
X25106D02*
D03*
D763*
X22109D02*
D03*
X25181Y9329D02*
D03*
X24270Y9266D02*
D03*
X23540D02*
D03*
D764*
X25103Y9344D02*
D03*
D765*
X22116D02*
D03*
X26230Y9269D02*
D03*
D766*
X25097Y9340D02*
D03*
D767*
X22291D02*
D03*
D768*
X25003Y9329D02*
D03*
D769*
X25262Y9322D02*
D03*
D770*
X24270D02*
D03*
X23540D02*
D03*
X22211Y9315D02*
D03*
X21829Y9308D02*
D03*
D771*
X25260Y9315D02*
D03*
X23542Y9298D02*
D03*
D772*
X25009Y9315D02*
D03*
D773*
X21829Y9312D02*
D03*
D774*
X25012Y9308D02*
D03*
D775*
X22598D02*
D03*
D776*
X25014Y9305D02*
D03*
X25252Y9294D02*
D03*
X22598Y9287D02*
D03*
X21829D02*
D03*
D777*
X23542Y9305D02*
D03*
D778*
X22206D02*
D03*
D779*
X21829D02*
D03*
D780*
X26672Y9301D02*
D03*
X23940D02*
D03*
X22598Y9280D02*
D03*
X21829D02*
D03*
D781*
X24270Y9301D02*
D03*
D782*
X22598D02*
D03*
X21829D02*
D03*
D783*
X26672Y9294D02*
D03*
X25241Y9276D02*
D03*
D784*
X22598Y9294D02*
D03*
D785*
X26230Y9290D02*
D03*
D786*
X25248D02*
D03*
D787*
X24603D02*
D03*
X25241Y9273D02*
D03*
X22598D02*
D03*
D788*
X25788Y9287D02*
D03*
D789*
X23310Y9280D02*
D03*
D790*
X26669Y9269D02*
D03*
D791*
X23939D02*
D03*
D792*
X26669Y9266D02*
D03*
X26229D02*
D03*
X23937D02*
D03*
D793*
X25787D02*
D03*
D794*
X25027D02*
D03*
M02*
