G04 Layer_Color=25308*
%FSLAX24Y24*%
%MOIN*%
G70*
G01*
G75*
%ADD10R,0.0472X0.1063*%
%ADD15C,0.0787*%
%ADD16R,0.0500X0.0500*%
%ADD17C,0.0500*%
%ADD18C,0.1150*%
%ADD19C,0.0550*%
%ADD20O,0.0800X0.0600*%
%ADD21R,0.0800X0.0600*%
%ADD22C,0.0600*%
%ADD23R,0.0600X0.0600*%
%ADD24O,0.0630X0.0827*%
%ADD25R,0.0630X0.0827*%
%ADD26C,0.0610*%
%ADD27R,0.0610X0.0610*%
%ADD28C,0.1575*%
%ADD29O,0.0500X0.1181*%
%ADD30C,0.0591*%
%ADD31C,0.0472*%
D10*
X16949Y16181D02*
D03*
X15807D02*
D03*
X16949Y17795D02*
D03*
X15807D02*
D03*
X16949Y19449D02*
D03*
X15807D02*
D03*
X19626Y17795D02*
D03*
X18484D02*
D03*
X18563Y16299D02*
D03*
X19705D02*
D03*
X19626Y19449D02*
D03*
X18484D02*
D03*
D15*
X21201Y39232D02*
D03*
X20201D02*
D03*
X22201D02*
D03*
D16*
X18661Y31850D02*
D03*
Y26850D02*
D03*
D17*
Y31063D02*
D03*
Y30269D02*
D03*
Y29479D02*
D03*
Y24479D02*
D03*
Y25269D02*
D03*
Y26063D02*
D03*
D18*
X32850Y9951D02*
D03*
X27677D02*
D03*
X20843Y9833D02*
D03*
X15669D02*
D03*
D19*
X29870Y11018D02*
D03*
X28886D02*
D03*
X30657D02*
D03*
X31642D02*
D03*
X17862Y10900D02*
D03*
X16878D02*
D03*
X18650D02*
D03*
X19634D02*
D03*
D20*
X21449Y27991D02*
D03*
Y28991D02*
D03*
Y29991D02*
D03*
Y30991D02*
D03*
D21*
Y26991D02*
D03*
D22*
X15449Y32991D02*
D03*
Y25991D02*
D03*
Y26991D02*
D03*
Y27991D02*
D03*
Y28991D02*
D03*
Y29991D02*
D03*
Y30991D02*
D03*
Y31991D02*
D03*
X21449Y23441D02*
D03*
X15449D02*
D03*
X21449Y34441D02*
D03*
X15449D02*
D03*
X38189Y14882D02*
D03*
Y15866D02*
D03*
Y16850D02*
D03*
X40591Y18898D02*
D03*
Y19882D02*
D03*
Y20866D02*
D03*
X38189Y18898D02*
D03*
Y19882D02*
D03*
Y20866D02*
D03*
Y22913D02*
D03*
Y23898D02*
D03*
Y24882D02*
D03*
X40591Y22913D02*
D03*
Y23898D02*
D03*
Y24882D02*
D03*
Y26929D02*
D03*
Y27913D02*
D03*
Y28898D02*
D03*
X29252Y12559D02*
D03*
X30236D02*
D03*
X31220D02*
D03*
D23*
X15449Y24991D02*
D03*
D24*
X28346Y20866D02*
D03*
X27346D02*
D03*
X26346D02*
D03*
X28346Y14866D02*
D03*
X25346Y20866D02*
D03*
X24346D02*
D03*
X23346D02*
D03*
X22346D02*
D03*
X21346D02*
D03*
X20346D02*
D03*
X19346D02*
D03*
X18346D02*
D03*
X17346D02*
D03*
X16346D02*
D03*
X15346D02*
D03*
X14346Y14866D02*
D03*
X15346D02*
D03*
X16346D02*
D03*
X17346D02*
D03*
X18346D02*
D03*
X19346D02*
D03*
X20346D02*
D03*
X21346D02*
D03*
X22346D02*
D03*
X23346D02*
D03*
X24346D02*
D03*
X25346D02*
D03*
X26346D02*
D03*
X27346D02*
D03*
D25*
X14346Y20866D02*
D03*
D26*
X36433Y14173D02*
D03*
Y15173D02*
D03*
Y16173D02*
D03*
Y17173D02*
D03*
Y18173D02*
D03*
Y19173D02*
D03*
Y20173D02*
D03*
Y21173D02*
D03*
Y22173D02*
D03*
Y23173D02*
D03*
Y24173D02*
D03*
Y25173D02*
D03*
Y26173D02*
D03*
Y27173D02*
D03*
Y28173D02*
D03*
Y29173D02*
D03*
Y30173D02*
D03*
Y31173D02*
D03*
Y32173D02*
D03*
Y33173D02*
D03*
X35433Y15173D02*
D03*
Y16173D02*
D03*
Y17173D02*
D03*
Y18173D02*
D03*
Y19173D02*
D03*
Y20173D02*
D03*
Y21173D02*
D03*
Y22173D02*
D03*
Y23173D02*
D03*
Y24173D02*
D03*
Y25173D02*
D03*
Y26173D02*
D03*
Y27173D02*
D03*
Y28173D02*
D03*
Y29173D02*
D03*
Y30173D02*
D03*
Y31173D02*
D03*
Y32173D02*
D03*
Y33173D02*
D03*
X12024Y14173D02*
D03*
Y15173D02*
D03*
Y16173D02*
D03*
Y17173D02*
D03*
Y18173D02*
D03*
Y19173D02*
D03*
Y20173D02*
D03*
Y21173D02*
D03*
Y22173D02*
D03*
Y23173D02*
D03*
Y24173D02*
D03*
Y25173D02*
D03*
Y26173D02*
D03*
Y27173D02*
D03*
Y28173D02*
D03*
Y29173D02*
D03*
Y30173D02*
D03*
Y31173D02*
D03*
Y32173D02*
D03*
Y33173D02*
D03*
X11024Y15173D02*
D03*
Y16173D02*
D03*
Y17173D02*
D03*
Y18173D02*
D03*
Y19173D02*
D03*
Y20173D02*
D03*
Y21173D02*
D03*
Y22173D02*
D03*
Y23173D02*
D03*
Y24173D02*
D03*
Y25173D02*
D03*
Y26173D02*
D03*
Y27173D02*
D03*
Y28173D02*
D03*
Y29173D02*
D03*
Y30173D02*
D03*
Y31173D02*
D03*
Y32173D02*
D03*
Y33173D02*
D03*
D27*
X35433Y14173D02*
D03*
X11024D02*
D03*
D28*
X35433Y35433D02*
D03*
X11811Y11811D02*
D03*
X35433D02*
D03*
X11811Y35433D02*
D03*
D29*
X16614Y37559D02*
D03*
X15827D02*
D03*
X27047Y35197D02*
D03*
X26260D02*
D03*
X32402D02*
D03*
X31614D02*
D03*
X24488Y32126D02*
D03*
X23701D02*
D03*
X29724Y35197D02*
D03*
X28937D02*
D03*
X8386Y26378D02*
D03*
X7598D02*
D03*
X8268Y22283D02*
D03*
X7480D02*
D03*
X8583Y29724D02*
D03*
X7795D02*
D03*
X24449Y35236D02*
D03*
X23661D02*
D03*
D30*
X31417Y22008D02*
D03*
Y21024D02*
D03*
Y20039D02*
D03*
X33661Y22008D02*
D03*
Y21024D02*
D03*
Y20039D02*
D03*
X28898Y24213D02*
D03*
X27913D02*
D03*
X26929D02*
D03*
X32795D02*
D03*
X31811D02*
D03*
X30827D02*
D03*
X28937Y26339D02*
D03*
X27953D02*
D03*
X26969D02*
D03*
X32795D02*
D03*
X31811D02*
D03*
X30827D02*
D03*
X28976Y28465D02*
D03*
X27992D02*
D03*
X27008D02*
D03*
X32835D02*
D03*
X31850D02*
D03*
X30866D02*
D03*
X28976Y30630D02*
D03*
X27992D02*
D03*
X27008D02*
D03*
X32835D02*
D03*
X31850D02*
D03*
X30866D02*
D03*
D31*
X8701Y16496D02*
D03*
Y17283D02*
D03*
Y18071D02*
D03*
Y18858D02*
D03*
Y19646D02*
D03*
Y20433D02*
D03*
Y15709D02*
D03*
M02*
