M48
;Layer_Color=6321
;FILE_FORMAT=2:4
INCH,LZ
;TYPE=PLATED
T1F00S00C0.0280
T2F00S00C0.0354
T3F00S00C0.0380
T4F00S00C0.0591
T5F00S00C0.1378
;TYPE=NON_PLATED
%
T01
X02943Y01562
X031768Y015118
X03782Y01738
X03744Y01787
X041142Y023268
X04264Y0261
X04356Y02972
X044854Y029528
X030787Y027795
X027874Y027835
X02535Y02773
X019291Y027441
X01945Y0284
X017598Y02752
X018346Y023425
X02329Y01897
X023031Y017559
X027677Y015748
X019961Y032126
X020584Y0397
X02009Y04099
X02131
X02804Y042677
X03101Y04261
X031283Y043307
X039291Y039055
X039911Y03902
X04033Y03548
X04207Y03251
T02
X039764Y028961
Y029961
T03
X03153Y02655
X03253
X03353
X03453
X03553
X03653
X03053
X02953
X02853
X02753
X02653
X02553
X02453
X02353
X02253
Y03255
X02353
X02453
X02553
X02653
X02753
X02853
X02953
X03053
X03153
X03253
X03353
X03453
X03553
X03653
T04
X034801Y016797
X042258Y024254
X016797
X024254Y016797
X016797Y034801
X024254Y042258
X034801
X042258Y034801
T05
X042126Y021654
X016929
Y037402
X042126
M30
