G04 Layer_Color=13813960*
%FSLAX24Y24*%
%MOIN*%
G70*
G01*
G75*
%ADD10C,0.0059*%
%ADD33C,0.0100*%
%ADD729C,0.0200*%
D10*
X20350Y28050D02*
X22450D01*
X22550Y28150D01*
Y30950D01*
X22450Y31050D02*
X22550Y30950D01*
X20350Y31050D02*
X22450D01*
X19357Y30551D02*
X19291Y30486D01*
Y30354D01*
X19357Y30289D01*
X19423D01*
X19488Y30354D01*
X19554Y30289D01*
X19619D01*
X19685Y30354D01*
Y30486D01*
X19619Y30551D01*
X19554D01*
X19488Y30486D01*
X19423Y30551D01*
X19357D01*
X19488Y30486D02*
Y30354D01*
X19685Y30158D02*
X19423Y29895D01*
X19685Y29764D02*
Y29633D01*
Y29698D01*
X19291D01*
X19357Y29764D01*
X19619Y29436D02*
X19685Y29370D01*
Y29239D01*
X19619Y29174D01*
X19357D01*
X19291Y29239D01*
Y29370D01*
X19357Y29436D01*
X19423D01*
X19488Y29370D01*
Y29174D01*
X18583Y32139D02*
Y32270D01*
Y32205D01*
X18911D01*
X18976Y32270D01*
Y32336D01*
X18911Y32402D01*
X18976Y31942D02*
Y31811D01*
X18911Y31746D01*
X18780D01*
X18714Y31811D01*
Y31942D01*
X18780Y32008D01*
X18911D01*
X18976Y31942D01*
X18714Y31614D02*
X18976D01*
X18845D01*
X18780Y31549D01*
X18714Y31483D01*
Y31418D01*
X18976Y31221D02*
Y31090D01*
Y31155D01*
X18714D01*
Y31221D01*
Y30827D02*
Y30696D01*
X18780Y30630D01*
X18976D01*
Y30827D01*
X18911Y30893D01*
X18845Y30827D01*
Y30630D01*
X18976Y30499D02*
X18714D01*
Y30303D01*
X18780Y30237D01*
X18976D01*
X18583Y29712D02*
X18976D01*
Y29515D01*
X18911Y29450D01*
X18845D01*
X18780Y29515D01*
Y29712D01*
Y29515D01*
X18714Y29450D01*
X18648D01*
X18583Y29515D01*
Y29712D01*
X18714Y29319D02*
X18976D01*
X18845D01*
X18780Y29253D01*
X18714Y29187D01*
Y29122D01*
Y28925D02*
X18911D01*
X18976Y28859D01*
Y28663D01*
X18714D01*
X18976Y28531D02*
Y28335D01*
X18911Y28269D01*
X18845Y28335D01*
Y28466D01*
X18780Y28531D01*
X18714Y28466D01*
Y28269D01*
X18976Y28138D02*
Y28007D01*
Y28072D01*
X18583D01*
Y28138D01*
X18976Y27810D02*
Y27679D01*
Y27744D01*
X18714D01*
Y27810D01*
X18976Y27482D02*
X18714D01*
Y27285D01*
X18780Y27220D01*
X18976D01*
X18583Y26826D02*
X18976D01*
Y27023D01*
X18911Y27088D01*
X18780D01*
X18714Y27023D01*
Y26826D01*
X17953Y32179D02*
Y32441D01*
X18150D01*
Y32310D01*
Y32441D01*
X18346D01*
X18084Y32047D02*
X18346D01*
X18215D01*
X18150Y31982D01*
X18084Y31916D01*
Y31851D01*
Y31654D02*
X18281D01*
X18346Y31588D01*
Y31391D01*
X18084D01*
X18346Y31260D02*
Y31129D01*
Y31195D01*
X18084D01*
Y31260D01*
X18018Y30867D02*
X18084D01*
Y30932D01*
Y30801D01*
Y30867D01*
X18281D01*
X18346Y30801D01*
Y30211D02*
X17953D01*
Y30014D01*
X18018Y29948D01*
X18150D01*
X18215Y30014D01*
Y30211D01*
X18346Y29817D02*
Y29686D01*
Y29752D01*
X18084D01*
Y29817D01*
Y29424D02*
Y29292D01*
X18150Y29227D01*
X18346D01*
Y29424D01*
X18281Y29489D01*
X18215Y29424D01*
Y29227D01*
X18346Y29096D02*
X18084D01*
Y28899D01*
X18150Y28833D01*
X18346D01*
Y28636D02*
Y28505D01*
X18281Y28440D01*
X18150D01*
X18084Y28505D01*
Y28636D01*
X18150Y28702D01*
X18281D01*
X18346Y28636D01*
X17953Y27915D02*
X18215D01*
X18346Y27784D01*
X18215Y27652D01*
X17953D01*
X18346Y27521D02*
Y27390D01*
Y27456D01*
X17953D01*
X18018Y27521D01*
X18346Y27193D02*
X18281D01*
Y27128D01*
X18346D01*
Y27193D01*
X18018Y26865D02*
X17953Y26800D01*
Y26669D01*
X18018Y26603D01*
X18281D01*
X18346Y26669D01*
Y26800D01*
X18281Y26865D01*
X18018D01*
D33*
X20350Y25950D02*
Y33150D01*
X38150D01*
Y25950D02*
Y33150D01*
X20350Y25950D02*
X38150D01*
X39291Y32844D02*
Y32344D01*
X39191Y32244D01*
X38991D01*
X38891Y32344D01*
Y32844D01*
X38692Y32244D02*
X38492D01*
X38592D01*
Y32844D01*
X38692Y32744D01*
D729*
X37730Y26530D02*
G03*
X37730Y26530I-200J0D01*
G01*
M02*
