M48
;Layer_Color=6321
;FILE_FORMAT=2:4
INCH,LZ
T12F00S00C0.2000
%
G90
G05
T12
G00X010172Y016682
M15
G01X010302Y016699
G01X010561Y01675
G01X010688Y016784
G01X010938Y016869
G01X011059Y016919
G01X011296Y017036
G01X01141Y017102
G01X01163Y017249
G01X011733Y017328
G01X011932Y017503
G01X012025Y017595
G01X012199Y017794
G01X012279Y017898
G01X012426Y018118
G01X012491Y018231
G01X012608Y018469
G01X012657Y018586
G01X042067Y018586
G01X042116Y018469
G01X042233Y018231
G01X042298Y018118
G01X042445Y017898
G01X042525Y017794
G01X0427Y017595
G01X042792Y017503
G01X042991Y017328
G01X043095Y017249
G01X043315Y017102
G01X043428Y017036
G01X043665Y016919
G01X043786Y016869
G01X044037Y016784
G01X044163Y01675
G01X044423Y016699
G01X044552Y016682
G01X044816Y016664
G01X044947Y016664
G01X045211Y016682
G01X045341Y016699
G01X045601Y01675
G01X045727Y016784
G01X045977Y016869
G01X046098Y016919
G01X046336Y017036
G01X046449Y017102
G01X046669Y017249
G01X046773Y017328
G01X046972Y017503
G01X047064Y017595
G01X047239Y017794
G01X047318Y017898
G01X047465Y018118
G01X047531Y018231
G01X047648Y018469
G01X047698Y018589
G01X047783Y01884
G01X047817Y018966
G01X047868Y019226
G01X047885Y019356
G01X047903Y01962
G01X047903Y01975
G01X047885Y020014
G01X047868Y020144
G01X047817Y020404
G01X047783Y02053
G01X047698Y020781
G01X047648Y020901
G01X047531Y021139
G01X047465Y021252
G01X047318Y021472
G01X047239Y021576
G01X047064Y021775
G01X046972Y021867
G01X046773Y022042
G01X046669Y022121
G01X046449Y022268
G01X046336Y022334
G01X046098Y022451
G01X045977Y022501
G01X045727Y022586
G01X045601Y02262
G01X045485Y022643
G01X043815Y024615
G01X043815Y034697
G01X045449Y036405
G01X045601Y036435
G01X045727Y036469
G01X045977Y036554
G01X046098Y036604
G01X046336Y036721
G01X046449Y036787
G01X046669Y036934
G01X046773Y037013
G01X046972Y037188
G01X047064Y03728
G01X047239Y037479
G01X047318Y037583
G01X047465Y037803
G01X047531Y037916
G01X047648Y038154
G01X047698Y038274
G01X047783Y038525
G01X047817Y038651
G01X047868Y038911
G01X047885Y039041
G01X047903Y039305
G01X047903Y039435
G01X047885Y0397
G01X047868Y039829
G01X047817Y040089
G01X047783Y040215
G01X047698Y040466
G01X047648Y040587
G01X047531Y040824
G01X047465Y040937
G01X047318Y041157
G01X047239Y041261
G01X047064Y04146
G01X046972Y041552
G01X046773Y041727
G01X046669Y041806
G01X046449Y041954
G01X046336Y042019
G01X046098Y042136
G01X045977Y042186
G01X045727Y042271
G01X045601Y042305
G01X045341Y042357
G01X045211Y042374
G01X044947Y042391
G01X044816Y042391
G01X044552Y042374
G01X044423Y042357
G01X044163Y042305
G01X044037Y042271
G01X043786Y042186
G01X043665Y042136
G01X043428Y042019
G01X043315Y041954
G01X043305Y041947
G01X041854Y041945
G01X041854Y041944
G01X041851Y041945
G01X041828Y041947
G01X041636Y041928
G01X041597Y04192
G01X041406Y041862
G01X041237Y041771
G01X041204Y041749
G01X041052Y041624
G01X039407Y039977
G01X015219Y039977
G01X013572Y041623
G01X013572Y041623
G01X013552Y041645
G01X013422Y041749
G01X013389Y041771
G01X013213Y041865
G01X013029Y04192
G01X01299Y041928
G01X012794Y041947
G01X011422Y041945
G01X01141Y041954
G01X011296Y042019
G01X011059Y042136
G01X010938Y042186
G01X010688Y042271
G01X010561Y042305
G01X010302Y042357
G01X010172Y042374
G01X009908Y042391
G01X009777Y042391
G01X009513Y042374
G01X009383Y042357
G01X009124Y042305
G01X008997Y042271
G01X008747Y042186
G01X008626Y042136
G01X008389Y042019
G01X008275Y041954
G01X008055Y041806
G01X007952Y041727
G01X007753Y041552
G01X00766Y04146
G01X007486Y041261
G01X007406Y041157
G01X007259Y040937
G01X007194Y040824
G01X007077Y040587
G01X007027Y040466
G01X006942Y040215
G01X006908Y040089
G01X006856Y039829
G01X006839Y0397
G01X006822Y039435
G01X006822Y039305
G01X006839Y039041
G01X006856Y038911
G01X006908Y038651
G01X006942Y038525
G01X007027Y038274
G01X007077Y038154
G01X007194Y037916
G01X007259Y037803
G01X007406Y037583
G01X007486Y037479
G01X00766Y03728
G01X007753Y037188
G01X007952Y037013
G01X008055Y036934
G01X008275Y036787
G01X008389Y036721
G01X008626Y036604
G01X008747Y036554
G01X008997Y036469
G01X009124Y036435
G01X009251Y03641
G01X010909Y034526
G01X010909Y024529
G01X009252Y022645
G01X009124Y02262
G01X008997Y022586
G01X008747Y022501
G01X008626Y022451
G01X008389Y022334
G01X008275Y022268
G01X008055Y022121
G01X007952Y022042
G01X007753Y021867
G01X00766Y021775
G01X007486Y021576
G01X007406Y021472
G01X007259Y021252
G01X007194Y021139
G01X007077Y020901
G01X007027Y020781
G01X006942Y02053
G01X006908Y020404
G01X006856Y020144
G01X006839Y020014
G01X006822Y01975
G01X006822Y01962
G01X006839Y019356
G01X006856Y019226
G01X006908Y018966
G01X006942Y01884
G01X007027Y018589
G01X007077Y018469
G01X007194Y018231
G01X007259Y018118
G01X007406Y017898
G01X007486Y017794
G01X00766Y017595
G01X007753Y017503
G01X007952Y017328
G01X008055Y017249
G01X008275Y017102
G01X008389Y017036
G01X008626Y016919
G01X008747Y016869
G01X008997Y016784
G01X009124Y01675
G01X009383Y016699
G01X009513Y016682
G01X009777Y016664
G01X009908Y016664
G01X010172Y016682
M16
M17
M30
