M48
;Layer_Color=6321
;FILE_FORMAT=2:4
INCH,LZ
T6F00S00C0.2000
%
G90
G05
T06
G00X048427Y036422
M15
G01X048618Y036481
G01X048793Y036576
G01X048946Y036705
G01X04907Y036862
G01X049161Y03704
G01X049214Y037232
G01X049228Y037402
G01X049228Y060236
G01X049208Y060435
G01X049149Y060626
G01X049054Y060801
G01X048925Y060954
G01X048768Y061078
G01X04859Y061168
G01X048398Y061222
G01X048228Y061236
G01X009646Y061236
G01X009447Y061216
G01X009256Y061157
G01X009081Y061061
G01X008928Y060933
G01X008804Y060776
G01X008713Y060598
G01X00866Y060406
G01X008646Y060236
G01X008646Y037402
G01X008666Y037203
G01X008725Y037012
G01X00882Y036837
G01X008949Y036684
G01X009106Y03656
G01X009284Y036469
G01X009476Y036416
G01X009646Y036402
G01X048228Y036402
G01X048427Y036422
M16
M17
M30
