M48
;Layer_Color=6321
;FILE_FORMAT=2:4
INCH,LZ
;TYPE=PLATED
T1F00S00C0.0157
T2F00S00C0.0280
T3F00S00C0.0350
T4F00S00C0.0402
T5F00S00C0.1024
T6F00S00C0.1378
;TYPE=NON_PLATED
%
T01
X030413Y043701
X032283Y043602
X032776Y043799
X03189Y044882
X033169Y045571
X035138Y043406
X031988Y038484
T02
X03258Y01884
X03254Y02331
X03599Y02303
X0362Y02594
X03636Y0279
X036216Y029232
X035778Y02984
X03354
X03321Y029232
X03434Y02849
X03377Y03079
X03266Y02705
X040041Y026877
X040907Y02701
X040887Y02803
X02984Y02823
X02999Y02759
X03Y02694
X03001Y02914
X02786Y0277
X028652Y02501
X03008Y024483
X02924Y023617
X02832Y02146
X02752Y02177
X02701Y02251
X02273Y02087
X02022Y02824
X031194Y01931
X03045Y03138
X03002Y03222
X030502Y03395
X02896
X02786Y03248
X02616Y03223
X02627Y0316
X02572Y033022
X02556Y0338
X02387Y03394
X0339Y03178
X03597Y03156
X03691Y03402
X03556Y03472
T03
X031673Y019783
X032673
X033673
Y020783
X032673
X031673
X038386Y020902
Y019902
Y018902
Y017902
X039386
Y018902
Y019902
Y020902
Y021902
Y022902
Y023902
Y024902
X038386
Y023902
Y022902
Y021902
X043996Y022921
X044996
Y023921
X043996
Y024921
X044996
Y025921
Y026921
Y027921
Y028921
Y029921
X043996
Y028921
Y027921
Y026921
Y025921
X030673Y020783
X029673
X028673
X027673
X026673
Y019783
X027673
X028673
X029673
X030673
X021654Y02011
Y01911
Y01811
X020654
Y01911
Y02011
Y02111
X021654
Y02211
Y02311
Y02411
Y02511
X020654
Y02411
Y02311
Y02211
X016043Y023622
Y024622
Y025622
Y026622
Y027622
Y028622
Y029622
Y030622
X015043
Y029622
Y028622
Y027622
Y026622
Y025622
Y024622
Y023622
T04
X024901Y036862
Y037862
Y038862
Y039862
X027657
Y038862
Y037862
Y036862
X030413
Y037862
Y038862
Y039862
X033268
Y038862
Y037862
Y036862
X036023
Y037862
Y038862
Y039862
T05
X020669Y014272
X022638
X037402
X03937
T06
X042598Y016458
X017402
Y042048
X042598
M30
