M48
;Layer_Color=6321
;FILE_FORMAT=2:4
INCH,LZ
T14F00S00C0.2000
%
G90
G05
T14
G00X035053Y00996
M15
G01X035072Y009961
G01X035081Y009963
G01X035119Y009967
G01X03519Y009989
G01X03525Y010003
G01X03594Y010239
G01X036767Y010561
G01X037579Y01092
G01X038375Y011313
G01X039152Y011741
G01X039911Y012202
G01X040648Y012696
G01X041364Y013222
G01X042055Y013778
G01X042722Y014364
G01X043363Y014979
G01X043976Y015621
G01X04456Y016289
G01X045115Y016982
G01X045639Y017698
G01X046132Y018437
G01X046592Y019196
G01X047018Y019975
G01X047409Y020771
G01X047766Y021584
G01X048087Y022412
G01X048371Y023253
G01X048619Y024105
G01X048829Y024968
G01X049001Y025838
G01X049135Y026716
G01X049231Y027598
G01X049288Y028484
G01X049306Y029372
G01X049286Y030259
G01X049227Y031145
G01X04913Y032027
G01X048994Y032905
G01X048819Y033775
G01X048608Y034637
G01X048358Y035489
G01X048072Y036329
G01X047749Y037156
G01X047391Y037968
G01X046998Y038764
G01X04657Y039542
G01X046108Y0403
G01X045614Y041038
G01X045089Y041753
G01X044532Y042445
G01X043946Y043112
G01X043332Y043752
G01X04269Y044365
G01X042022Y04495
G01X041329Y045505
G01X040613Y046029
G01X039874Y046521
G01X039115Y046981
G01X038336Y047407
G01X037539Y047799
G01X036726Y048155
G01X035899Y048476
G01X035058Y048761
G01X034205Y049008
G01X033343Y049218
G01X032472Y049391
G01X031595Y049525
G01X030712Y04962
G01X029826Y049677
G01X028939Y049696
G01X028051Y049676
G01X027166Y049617
G01X026283Y049519
G01X025406Y049383
G01X024536Y049209
G01X023674Y048997
G01X022822Y048748
G01X021981Y048461
G01X021154Y048139
G01X020342Y04778
G01X019547Y047387
G01X018769Y046959
G01X01801Y046498
G01X017273Y046004
G01X016558Y045478
G01X015866Y044922
G01X015199Y044336
G01X014559Y043721
G01X013945Y043079
G01X013361Y042411
G01X012806Y041718
G01X012282Y041002
G01X011789Y040263
G01X01133Y039504
G01X010904Y038725
G01X010512Y037929
G01X010155Y037116
G01X009834Y036288
G01X00955Y035447
G01X009302Y034595
G01X009092Y033732
G01X00892Y032862
G01X008786Y031984
G01X00869Y031102
G01X008633Y030216
G01X008615Y029328
G01X008635Y028441
G01X008694Y027555
G01X008792Y026673
G01X008928Y025795
G01X009102Y024925
G01X009314Y024063
G01X009563Y023211
G01X009849Y022371
G01X010172Y021544
G01X01053Y020732
G01X010924Y019936
G01X011352Y019158
G01X011813Y0184
G01X012307Y017662
G01X012832Y016947
G01X013389Y016255
G01X013975Y015588
G01X014589Y014948
G01X015231Y014335
G01X015899Y01375
G01X016592Y013195
G01X017309Y012671
G01X018047Y012179
G01X018807Y011719
G01X019585Y011293
G01X020382Y010901
G01X021195Y010545
G01X022022Y010224
G01X022671Y010003
G01X022736Y009988
G01X022817Y009964
G01X022858Y00996
G01X022866Y009959
G01X022881Y009958
G01X023016Y009946
G01X023215Y009967
G01X023391Y010022
G01X02343Y010038
G01X023606Y010132
G01X023631Y010153
G01X023659Y010168
G01X023813Y010296
G01X023938Y010451
G01X024024Y010615
G01X024043Y01066
G01X024101Y010852
G01X024119Y01105
G01X024114Y011095
G01X024114Y015889
G01X033806Y015889
G01X033802Y011044
G01X033822Y010845
G01X033878Y01066
G01X033897Y010615
G01X033991Y010439
G01X034119Y010285
G01X034275Y01016
G01X034299Y010147
G01X034328Y010124
G01X034492Y010038
G01X03453Y010022
G01X034721Y009964
G01X03492Y009946
G01X035053Y00996
M16
M17
M30
