G04 Layer_Color=16711935*
%FSLAX25Y25*%
%MOIN*%
G70*
G01*
G75*
%ADD97C,0.16548*%
%ADD98C,0.20485*%
%ADD104C,0.06706*%
%ADD105R,0.06706X0.06706*%
%ADD106R,0.06706X0.06706*%
%ADD107C,0.06115*%
%ADD108R,0.06115X0.06115*%
%ADD109C,0.16548*%
%ADD110O,0.10642X0.12611*%
%ADD111C,0.12611*%
%ADD112C,0.17000*%
%ADD113O,0.18500X0.09650*%
%ADD114C,0.18800*%
%ADD115C,0.06800*%
%ADD116R,0.06800X0.06800*%
%ADD117C,0.02768*%
%ADD118C,0.05800*%
%ADD119O,0.05800X0.02375*%
%ADD120R,0.05800X0.02375*%
D97*
X359500Y239843D02*
Y286500D01*
X303500Y286000D02*
X359000D01*
X297500Y151500D02*
X323500Y177500D01*
X236000Y151500D02*
X297500D01*
X159000Y328000D02*
X207500D01*
X158500Y259500D02*
Y327500D01*
X206500Y181000D02*
X236000Y151500D01*
X206500Y181000D02*
Y211500D01*
X158500Y259500D02*
X206500Y211500D01*
X323500Y177500D02*
Y188000D01*
Y188500D01*
D98*
X121000Y279500D02*
X140000D01*
X120500Y235500D02*
X140000D01*
X179000Y283000D02*
Y292500D01*
Y283000D02*
X274000Y188000D01*
D104*
X445500Y334000D02*
D03*
X455500D02*
D03*
X465500D02*
D03*
X475500D02*
D03*
X485500D02*
D03*
X495500D02*
D03*
X505500D02*
D03*
X515500D02*
D03*
X445500Y344000D02*
D03*
X455500D02*
D03*
X465500D02*
D03*
X475500D02*
D03*
X485500D02*
D03*
X495500D02*
D03*
X505500D02*
D03*
X487500Y62500D02*
D03*
Y52500D02*
D03*
X477500Y62500D02*
D03*
Y52500D02*
D03*
X467500Y62500D02*
D03*
Y52500D02*
D03*
X457500Y62500D02*
D03*
Y52500D02*
D03*
X447500Y62500D02*
D03*
Y52500D02*
D03*
X437500Y62500D02*
D03*
Y52500D02*
D03*
X427500Y62500D02*
D03*
Y52500D02*
D03*
X417500Y62500D02*
D03*
X558587Y58500D02*
D03*
X548587D02*
D03*
X558587Y68500D02*
D03*
X548587D02*
D03*
X558587Y78500D02*
D03*
X548587D02*
D03*
X558587Y88500D02*
D03*
X548587D02*
D03*
X558587Y98500D02*
D03*
X548587D02*
D03*
X558587Y108500D02*
D03*
X548587D02*
D03*
X558587Y118500D02*
D03*
X548587D02*
D03*
X558587Y128500D02*
D03*
X598500Y199252D02*
D03*
Y246496D02*
D03*
Y207126D02*
D03*
Y215000D02*
D03*
Y238622D02*
D03*
Y230748D02*
D03*
Y222874D02*
D03*
X642000Y208000D02*
D03*
Y218000D02*
D03*
Y228000D02*
D03*
Y238000D02*
D03*
X641500Y163500D02*
D03*
X642500Y261000D02*
D03*
X265500Y132000D02*
D03*
X275500D02*
D03*
X285500D02*
D03*
X295500D02*
D03*
X305500D02*
D03*
X315500D02*
D03*
X325500D02*
D03*
X335500D02*
D03*
X345500D02*
D03*
X355500D02*
D03*
X365500D02*
D03*
X375500D02*
D03*
X385500D02*
D03*
X395500D02*
D03*
X387000Y40500D02*
D03*
X377000D02*
D03*
X367000D02*
D03*
X357000D02*
D03*
X347000D02*
D03*
X337000D02*
D03*
X327000D02*
D03*
X317000D02*
D03*
X307000D02*
D03*
X297000D02*
D03*
X287000D02*
D03*
X277000D02*
D03*
X267000D02*
D03*
X257000D02*
D03*
D105*
X515500Y344000D02*
D03*
X417500Y52500D02*
D03*
X255500Y132000D02*
D03*
X397000Y40500D02*
D03*
D106*
X548587Y128500D02*
D03*
X642000Y198000D02*
D03*
X641500Y173500D02*
D03*
X642500Y271000D02*
D03*
D107*
X359500Y220157D02*
D03*
D108*
Y239843D02*
D03*
D109*
X588500Y192874D02*
D03*
Y252874D02*
D03*
D110*
Y207874D02*
D03*
Y222874D02*
D03*
Y237874D02*
D03*
D111*
X388500Y192874D02*
D03*
Y207874D02*
D03*
Y222874D02*
D03*
Y252874D02*
D03*
D112*
X64000Y257500D02*
D03*
D113*
X140000Y279500D02*
D03*
Y257500D02*
D03*
Y235500D02*
D03*
D114*
X630500Y337000D02*
D03*
X53677Y208724D02*
D03*
Y330772D02*
D03*
X584000Y339500D02*
D03*
D115*
X23500Y24000D02*
D03*
X687535Y23685D02*
D03*
Y370142D02*
D03*
X33992D02*
D03*
X275500Y119500D02*
D03*
X285500D02*
D03*
X295500D02*
D03*
X305500D02*
D03*
X315500D02*
D03*
X325500D02*
D03*
X335500D02*
D03*
X345500D02*
D03*
X355500D02*
D03*
X365500D02*
D03*
X375500D02*
D03*
X385500D02*
D03*
X395500Y59500D02*
D03*
X265500Y119500D02*
D03*
X255500D02*
D03*
X385500Y59500D02*
D03*
X375500D02*
D03*
X365500D02*
D03*
X355500D02*
D03*
X345500D02*
D03*
X335500D02*
D03*
X325500D02*
D03*
X315500D02*
D03*
X305500D02*
D03*
X275500D02*
D03*
X295500D02*
D03*
X285500D02*
D03*
X265500D02*
D03*
X255500D02*
D03*
D116*
X395500Y119500D02*
D03*
D117*
X639831Y43878D02*
D03*
Y39547D02*
D03*
X635500Y43878D02*
D03*
Y39547D02*
D03*
X631169Y43878D02*
D03*
Y39547D02*
D03*
D118*
X307500Y307000D02*
D03*
X304000Y213000D02*
D03*
X314500Y227000D02*
D03*
X464000Y127500D02*
D03*
X457000Y112500D02*
D03*
X445500Y119000D02*
D03*
X303500Y286000D02*
D03*
X330500Y317000D02*
D03*
Y265100D02*
D03*
X275000Y352500D02*
D03*
X276000Y261000D02*
D03*
X179000Y292500D02*
D03*
X274000Y188000D02*
D03*
X323500D02*
D03*
X207500Y328000D02*
D03*
X206500Y211500D02*
D03*
X651400Y76800D02*
D03*
X595100D02*
D03*
X633500Y50500D02*
D03*
X587000Y41500D02*
D03*
X648000Y60500D02*
D03*
X464500Y68500D02*
D03*
X605700Y223900D02*
D03*
X608500Y63500D02*
D03*
X617500Y69000D02*
D03*
X586500Y67500D02*
D03*
X420000Y99000D02*
D03*
X473000Y73500D02*
D03*
X471500Y89000D02*
D03*
X444500Y83500D02*
D03*
X456500Y98000D02*
D03*
X435500Y84000D02*
D03*
X426500Y94000D02*
D03*
X434500D02*
D03*
X418500Y86500D02*
D03*
Y124000D02*
D03*
X413100Y127100D02*
D03*
X576600Y237000D02*
D03*
X559800Y185500D02*
D03*
X424000Y117500D02*
D03*
D119*
X410500Y75559D02*
D03*
X422114D02*
D03*
Y78118D02*
D03*
X410514Y80677D02*
D03*
X410500Y73000D02*
D03*
X422114D02*
D03*
X410500Y78118D02*
D03*
D120*
X422114Y80677D02*
D03*
M02*
