G04 Layer_Color=8388736*
%FSLAX25Y25*%
%MOIN*%
G70*
G01*
G75*
%ADD83R,0.03800X0.03800*%
%ADD84O,0.03162X0.04540*%
%ADD85R,0.13005X0.10249*%
%ADD86R,0.05131X0.04737*%
%ADD87R,0.24186X0.42178*%
%ADD88R,0.03556X0.04343*%
%ADD89R,0.07887X0.07099*%
%ADD90R,0.03300X0.02800*%
%ADD91R,0.33359X0.13398*%
%ADD92R,0.04800X0.05800*%
%ADD93R,0.31312X0.09461*%
%ADD94R,0.04343X0.03556*%
%ADD95R,0.07099X0.07887*%
%ADD96R,0.07099X0.06312*%
%ADD97C,0.16548*%
%ADD98C,0.20485*%
%ADD99R,0.20800X0.16300*%
%ADD100R,0.23300X0.23300*%
%ADD101R,0.12300X0.20800*%
%ADD102R,0.09300X0.06800*%
%ADD103R,0.33300X0.11300*%
%ADD104C,0.06706*%
%ADD105R,0.06706X0.06706*%
%ADD106R,0.06706X0.06706*%
%ADD107C,0.06115*%
%ADD108R,0.06115X0.06115*%
%ADD109C,0.16548*%
%ADD110O,0.10642X0.12611*%
%ADD111C,0.12611*%
%ADD112C,0.17000*%
%ADD113O,0.18500X0.09650*%
%ADD114C,0.18800*%
%ADD115C,0.06800*%
%ADD116R,0.06800X0.06800*%
%ADD117C,0.02768*%
%ADD118C,0.05800*%
G36*
X333302Y340397D02*
X333354Y340387D01*
X333403Y340370D01*
X333450Y340347D01*
X333494Y340318D01*
X333533Y340283D01*
X333568Y340244D01*
X333597Y340200D01*
X333620Y340153D01*
X333637Y340104D01*
X333647Y340052D01*
X333651Y340000D01*
Y312500D01*
X333647Y312448D01*
X333637Y312396D01*
X333620Y312347D01*
X333597Y312300D01*
X333568Y312256D01*
X333533Y312217D01*
X333494Y312182D01*
X333450Y312153D01*
X333403Y312130D01*
X333354Y312113D01*
X333302Y312103D01*
X333250Y312099D01*
X320750D01*
X320698Y312103D01*
X320646Y312113D01*
X320597Y312130D01*
X320550Y312153D01*
X320506Y312182D01*
X320467Y312217D01*
X320432Y312256D01*
X320403Y312300D01*
X320380Y312347D01*
X320363Y312396D01*
X320353Y312448D01*
X320349Y312500D01*
Y340000D01*
X320353Y340052D01*
X320363Y340104D01*
X320380Y340153D01*
X320403Y340200D01*
X320432Y340244D01*
X320467Y340283D01*
X320506Y340318D01*
X320550Y340347D01*
X320597Y340370D01*
X320646Y340387D01*
X320698Y340397D01*
X320750Y340401D01*
X333250D01*
X333302Y340397D01*
D02*
G37*
D83*
X420500Y105000D02*
D03*
Y110500D02*
D03*
D84*
X643000Y53425D02*
D03*
X638000D02*
D03*
X633000D02*
D03*
X628000D02*
D03*
X643000Y30000D02*
D03*
X638000D02*
D03*
X633000D02*
D03*
X628000D02*
D03*
D85*
X635500Y41713D02*
D03*
D86*
X594241Y24500D02*
D03*
X600933D02*
D03*
X593752Y62311D02*
D03*
X600444D02*
D03*
X593752Y42626D02*
D03*
X600444D02*
D03*
X593752Y81996D02*
D03*
X600444D02*
D03*
X574067Y42626D02*
D03*
X580759D02*
D03*
X574067Y62311D02*
D03*
X580759D02*
D03*
X574067Y81996D02*
D03*
X580759D02*
D03*
X322846Y317000D02*
D03*
X316154D02*
D03*
D87*
X584673Y117500D02*
D03*
X610500D02*
D03*
D88*
X292441Y268500D02*
D03*
X297559D02*
D03*
X317441Y267500D02*
D03*
X322559D02*
D03*
X315941Y287000D02*
D03*
X321059D02*
D03*
D89*
X159000Y275988D02*
D03*
Y287012D02*
D03*
D90*
X621587Y69000D02*
D03*
X625587D02*
D03*
X609087D02*
D03*
X613087D02*
D03*
X611587Y84500D02*
D03*
X615587D02*
D03*
X466752Y73386D02*
D03*
X462752D02*
D03*
X466752Y112756D02*
D03*
X462752D02*
D03*
X466752Y93071D02*
D03*
X462752D02*
D03*
D91*
X492000Y110929D02*
D03*
Y87071D02*
D03*
D92*
X450067Y93071D02*
D03*
X442067D02*
D03*
X450067Y112756D02*
D03*
X442067D02*
D03*
D93*
X207996Y293496D02*
D03*
Y340504D02*
D03*
X275004Y293496D02*
D03*
Y340504D02*
D03*
X206996Y199996D02*
D03*
Y247004D02*
D03*
X274004Y199996D02*
D03*
Y247004D02*
D03*
D94*
X314000Y237059D02*
D03*
Y231941D02*
D03*
D95*
X324012Y213000D02*
D03*
X312988D02*
D03*
D96*
X431500Y113012D02*
D03*
Y101988D02*
D03*
D97*
X630173Y212326D02*
Y337000D01*
X589500Y191652D02*
X594601Y186551D01*
X589326Y191826D02*
X589500Y191652D01*
X339874Y270324D02*
Y297676D01*
X329500Y308050D02*
Y316000D01*
X334676Y265126D02*
X339874Y270324D01*
X329500Y308050D02*
X339874Y297676D01*
X327693Y251964D02*
X359500Y220157D01*
X300636Y334000D02*
X326000D01*
X293936Y327299D02*
X300636Y334000D01*
X241799Y327299D02*
X293936D01*
X207996Y293496D02*
X241799Y327299D01*
X594601Y186551D02*
X604399D01*
X630173Y212326D01*
X359500Y220157D02*
X374114Y205543D01*
Y193488D02*
Y205543D01*
Y193488D02*
X387886D01*
X372531Y252874D02*
X388500D01*
X361222Y241564D02*
X372531Y252874D01*
X588500Y277500D02*
Y335000D01*
Y252874D02*
Y277500D01*
X327693Y251964D02*
Y265100D01*
Y265126D02*
X334676D01*
X327693Y265100D02*
Y265126D01*
D98*
X293751Y231831D02*
X300102Y238182D01*
X254257Y231831D02*
X293751D01*
X187249Y262177D02*
X226743D01*
X182572Y257500D02*
X187249Y262177D01*
X140000Y257500D02*
X182572D01*
X247906Y238182D02*
Y241015D01*
X226743Y262177D02*
X247906Y241015D01*
Y238182D02*
X254257Y231831D01*
X159000Y290343D02*
Y320000D01*
X148000Y331000D02*
X159000Y320000D01*
X55500Y331000D02*
X148000D01*
X117000Y257500D02*
X140000D01*
X178196Y235500D02*
X195492D01*
X53000Y328500D02*
X55500Y331000D01*
X51500Y207000D02*
X53699Y208696D01*
X117000Y257500D01*
D99*
X306000Y243750D02*
D03*
D100*
X307250Y262750D02*
D03*
D101*
X325250Y284000D02*
D03*
D102*
X315250Y277000D02*
D03*
D103*
X147750Y274250D02*
D03*
D104*
X445500Y334000D02*
D03*
X455500D02*
D03*
X465500D02*
D03*
X475500D02*
D03*
X485500D02*
D03*
X495500D02*
D03*
X505500D02*
D03*
X515500D02*
D03*
X445500Y344000D02*
D03*
X455500D02*
D03*
X465500D02*
D03*
X475500D02*
D03*
X485500D02*
D03*
X495500D02*
D03*
X505500D02*
D03*
X487500Y62500D02*
D03*
Y52500D02*
D03*
X477500Y62500D02*
D03*
Y52500D02*
D03*
X467500Y62500D02*
D03*
Y52500D02*
D03*
X457500Y62500D02*
D03*
Y52500D02*
D03*
X447500Y62500D02*
D03*
Y52500D02*
D03*
X437500Y62500D02*
D03*
Y52500D02*
D03*
X427500Y62500D02*
D03*
Y52500D02*
D03*
X417500Y62500D02*
D03*
X558587Y58500D02*
D03*
X548587D02*
D03*
X558587Y68500D02*
D03*
X548587D02*
D03*
X558587Y78500D02*
D03*
X548587D02*
D03*
X558587Y88500D02*
D03*
X548587D02*
D03*
X558587Y98500D02*
D03*
X548587D02*
D03*
X558587Y108500D02*
D03*
X548587D02*
D03*
X558587Y118500D02*
D03*
X548587D02*
D03*
X558587Y128500D02*
D03*
X598500Y199252D02*
D03*
Y246496D02*
D03*
Y207126D02*
D03*
Y215000D02*
D03*
Y238622D02*
D03*
Y230748D02*
D03*
Y222874D02*
D03*
X642000Y208000D02*
D03*
Y218000D02*
D03*
Y228000D02*
D03*
Y238000D02*
D03*
X641500Y163500D02*
D03*
X642500Y261000D02*
D03*
X265500Y132000D02*
D03*
X275500D02*
D03*
X285500D02*
D03*
X295500D02*
D03*
X305500D02*
D03*
X315500D02*
D03*
X325500D02*
D03*
X335500D02*
D03*
X345500D02*
D03*
X355500D02*
D03*
X365500D02*
D03*
X375500D02*
D03*
X385500D02*
D03*
X395500D02*
D03*
X387000Y40500D02*
D03*
X377000D02*
D03*
X367000D02*
D03*
X357000D02*
D03*
X347000D02*
D03*
X337000D02*
D03*
X327000D02*
D03*
X317000D02*
D03*
X307000D02*
D03*
X297000D02*
D03*
X287000D02*
D03*
X277000D02*
D03*
X267000D02*
D03*
X257000D02*
D03*
D105*
X515500Y344000D02*
D03*
X417500Y52500D02*
D03*
X255500Y132000D02*
D03*
X397000Y40500D02*
D03*
D106*
X548587Y128500D02*
D03*
X642000Y198000D02*
D03*
X641500Y173500D02*
D03*
X642500Y271000D02*
D03*
D107*
X359500Y220157D02*
D03*
D108*
Y239843D02*
D03*
D109*
X588500Y192874D02*
D03*
Y252874D02*
D03*
D110*
Y207874D02*
D03*
Y222874D02*
D03*
Y237874D02*
D03*
D111*
X388500Y192874D02*
D03*
Y207874D02*
D03*
Y222874D02*
D03*
Y252874D02*
D03*
D112*
X64000Y257500D02*
D03*
D113*
X140000Y279500D02*
D03*
Y257500D02*
D03*
Y235500D02*
D03*
D114*
X630500Y337000D02*
D03*
X53677Y208724D02*
D03*
Y330772D02*
D03*
X584000Y339500D02*
D03*
D115*
X23500Y24000D02*
D03*
X687535Y23685D02*
D03*
Y370142D02*
D03*
X33992D02*
D03*
X275500Y119500D02*
D03*
X285500D02*
D03*
X295500D02*
D03*
X305500D02*
D03*
X315500D02*
D03*
X325500D02*
D03*
X335500D02*
D03*
X345500D02*
D03*
X355500D02*
D03*
X365500D02*
D03*
X375500D02*
D03*
X385500D02*
D03*
X395500Y59500D02*
D03*
X265500Y119500D02*
D03*
X255500D02*
D03*
X385500Y59500D02*
D03*
X375500D02*
D03*
X365500D02*
D03*
X355500D02*
D03*
X345500D02*
D03*
X335500D02*
D03*
X325500D02*
D03*
X315500D02*
D03*
X305500D02*
D03*
X275500D02*
D03*
X295500D02*
D03*
X285500D02*
D03*
X265500D02*
D03*
X255500D02*
D03*
D116*
X395500Y119500D02*
D03*
D117*
X639831Y43878D02*
D03*
Y39547D02*
D03*
X635500Y43878D02*
D03*
Y39547D02*
D03*
X631169Y43878D02*
D03*
Y39547D02*
D03*
D118*
X307500Y307000D02*
D03*
X304000Y213000D02*
D03*
X314500Y227000D02*
D03*
X464000Y127500D02*
D03*
X457000Y112500D02*
D03*
X445500Y119000D02*
D03*
X303500Y286000D02*
D03*
X330500Y317000D02*
D03*
Y265100D02*
D03*
X275000Y352500D02*
D03*
X276000Y261000D02*
D03*
X179000Y292500D02*
D03*
X274000Y188000D02*
D03*
X323500D02*
D03*
X207500Y328000D02*
D03*
X206500Y211500D02*
D03*
X651400Y76800D02*
D03*
X595100D02*
D03*
X633500Y50500D02*
D03*
X587000Y41500D02*
D03*
X648000Y60500D02*
D03*
X464500Y68500D02*
D03*
X605700Y223900D02*
D03*
X608500Y63500D02*
D03*
X617500Y69000D02*
D03*
X586500Y67500D02*
D03*
X420000Y99000D02*
D03*
X473000Y73500D02*
D03*
X471500Y89000D02*
D03*
X444500Y83500D02*
D03*
X456500Y98000D02*
D03*
X435500Y84000D02*
D03*
X426500Y94000D02*
D03*
X434500D02*
D03*
X418500Y86500D02*
D03*
Y124000D02*
D03*
X413100Y127100D02*
D03*
X576600Y237000D02*
D03*
X559800Y185500D02*
D03*
X424000Y117500D02*
D03*
M02*
