M48
;Layer_Color=6321
;FILE_FORMAT=2:4
INCH,LZ
T3F00S00C0.2000
%
G90
G05
T03
G00X042014Y008982
M15
G01X042014Y008982
G01X042044Y00898
G01X042209Y008999
G01X042255Y009008
G01X042446Y009066
G01X042616Y009157
G01X042655Y009183
G01X042809Y00931
G01X042931Y009459
G01X042957Y009498
G01X043051Y009675
G01X043106Y009859
G01X043116Y009905
G01X043135Y0101
G01X043132Y017187
G01X043132Y017187
G01X043134Y017216
G01X043116Y017382
G01X043106Y017428
G01X043048Y017619
G01X042957Y017788
G01X042931Y017827
G01X042811Y017973
G01X042931Y018121
G01X042957Y01816
G01X043051Y018336
G01X043106Y01852
G01X043116Y018566
G01X043135Y018768
G01X043132Y019131
G01X043134Y019157
G01X043116Y019323
G01X043106Y019369
G01X043048Y01956
G01X042956Y019731
G01X042933Y019765
G01X042919Y019791
G01X042806Y019924
G01X041607Y021116
G01X04159Y021135
G01X041461Y021239
G01X041422Y021266
G01X041246Y02136
G01X041058Y021417
G01X041012Y021426
G01X040817Y021445
G01X016604Y021443
G01X016604Y021443
G01X016574Y021445
G01X016409Y021426
G01X016363Y021417
G01X016172Y021359
G01X016003Y021268
G01X01597Y021246
G01X015946Y021232
G01X015808Y021117
G01X01464Y019942
G01X0146Y019909
G01X014475Y019753
G01X014465Y019734
G01X014458Y019724
G01X014364Y019547
G01X014308Y019362
G01X014299Y019316
G01X014279Y019114
G01X014282Y018758
G01X01428Y018732
G01X014299Y018566
G01X014308Y01852
G01X014366Y018329
G01X014457Y01816
G01X014483Y018121
G01X014604Y017975
G01X014483Y017827
G01X014457Y017788
G01X014363Y017612
G01X014308Y017428
G01X014299Y017382
G01X014279Y017186
G01X014282Y0101
G01X014282Y0101
G01X01428Y01007
G01X014299Y009905
G01X014308Y009859
G01X014366Y009668
G01X014457Y009498
G01X014483Y009459
G01X01461Y009305
G01X014759Y009183
G01X014798Y009157
G01X014975Y009063
G01X015159Y009008
G01X015205Y008999
G01X0154Y008979
G01X020892Y008982
G01X020955Y008977
G01X021153Y009003
G01X021308Y009053
G01X021335Y009064
G01X021397Y009098
G01X021399Y009094
G01X021511Y00915
G01X021659Y009072
G01X021704Y009053
G01X021895Y008995
G01X022087Y008977
G01X042014Y008982
M16
M17
M30
