G04 Layer_Color=15132400*
%FSLAX24Y24*%
%MOIN*%
G70*
G01*
G75*
%ADD28C,0.0100*%
%ADD37C,0.0098*%
%ADD38C,0.0059*%
%ADD39C,0.0079*%
%ADD40C,0.0060*%
%ADD41C,0.0080*%
D28*
X9030Y11491D02*
X12490D01*
Y13281D01*
X9030Y11491D02*
Y13281D01*
X11650Y13301D02*
Y14021D01*
X10800Y14031D02*
X11640D01*
X10800Y13291D02*
Y14031D01*
X9030Y13281D02*
X12490D01*
X7717Y7343D02*
X8232D01*
X4098D02*
X4646D01*
X7717Y10965D02*
X8232D01*
X4098D02*
X4646D01*
X8232Y7343D02*
Y7912D01*
Y10395D02*
Y10965D01*
X5433D02*
X7047D01*
X5433Y7343D02*
X7047D01*
X4098D02*
Y10965D01*
D37*
X12402Y9970D02*
G03*
X12402Y9970I-49J0D01*
G01*
X9360Y10256D02*
G03*
X9360Y10256I-49J0D01*
G01*
D38*
X10982Y10538D02*
Y10918D01*
X10081Y10538D02*
X10982D01*
X10081Y10918D02*
X10982D01*
X10081Y10538D02*
Y10918D01*
X12163Y10538D02*
Y10918D01*
X11263Y10538D02*
X12163D01*
X11263Y10918D02*
X12163D01*
X11263Y10538D02*
Y10918D01*
X14623Y10538D02*
Y10918D01*
X13723Y10538D02*
X14623D01*
X13723Y10918D02*
X14623D01*
X13723Y10538D02*
Y10918D01*
X4518Y13218D02*
X8081D01*
X4518Y11978D02*
Y13218D01*
Y11978D02*
X8081D01*
X8550Y13268D02*
X8458D01*
X8504D01*
Y13038D01*
X8458Y12992D01*
X8412D01*
X8366Y13038D01*
X8642Y13222D02*
X8688Y13268D01*
X8779D01*
X8825Y13222D01*
Y13176D01*
X8779Y13130D01*
X8733D01*
X8779D01*
X8825Y13084D01*
Y13038D01*
X8779Y12992D01*
X8688D01*
X8642Y13038D01*
X4908Y11844D02*
X4862Y11890D01*
X4770D01*
X4724Y11844D01*
Y11660D01*
X4770Y11614D01*
X4862D01*
X4908Y11660D01*
Y11752D01*
X4816D01*
X5000Y11614D02*
Y11890D01*
X5184Y11614D01*
Y11890D01*
X5275D02*
Y11614D01*
X5413D01*
X5459Y11660D01*
Y11844D01*
X5413Y11890D01*
X5275D01*
X6004D02*
Y11614D01*
X6142D01*
X6188Y11660D01*
Y11844D01*
X6142Y11890D01*
X6004D01*
X6279D02*
X6371D01*
X6325D01*
Y11614D01*
X6279D01*
X6371D01*
X6509D02*
Y11890D01*
X6693Y11614D01*
Y11890D01*
X7467D02*
X7283D01*
Y11752D01*
X7375Y11798D01*
X7421D01*
X7467Y11752D01*
Y11660D01*
X7421Y11614D01*
X7329D01*
X7283Y11660D01*
X7559Y11890D02*
Y11706D01*
X7651Y11614D01*
X7743Y11706D01*
Y11890D01*
X10321Y11253D02*
X10276Y11299D01*
X10184D01*
X10138Y11253D01*
Y11070D01*
X10184Y11024D01*
X10276D01*
X10321Y11070D01*
X10551Y11024D02*
Y11299D01*
X10413Y11161D01*
X10597D01*
X11503Y11253D02*
X11457Y11299D01*
X11365D01*
X11319Y11253D01*
Y11070D01*
X11365Y11024D01*
X11457D01*
X11503Y11070D01*
X11778Y11299D02*
X11595D01*
Y11161D01*
X11686Y11207D01*
X11732D01*
X11778Y11161D01*
Y11070D01*
X11732Y11024D01*
X11640D01*
X11595Y11070D01*
X15551Y7283D02*
Y7559D01*
X15689D01*
X15735Y7513D01*
Y7421D01*
X15689Y7375D01*
X15551D01*
X15643D02*
X15735Y7283D01*
X16010Y7559D02*
X15827D01*
Y7421D01*
X15919Y7467D01*
X15964D01*
X16010Y7421D01*
Y7329D01*
X15964Y7283D01*
X15873D01*
X15827Y7329D01*
X15551Y8563D02*
Y8838D01*
X15689D01*
X15735Y8793D01*
Y8701D01*
X15689Y8655D01*
X15551D01*
X15643D02*
X15735Y8563D01*
X15827Y8793D02*
X15873Y8838D01*
X15964D01*
X16010Y8793D01*
Y8747D01*
X15964Y8701D01*
X15919D01*
X15964D01*
X16010Y8655D01*
Y8609D01*
X15964Y8563D01*
X15873D01*
X15827Y8609D01*
X16240Y10827D02*
Y11102D01*
X16378D01*
X16424Y11056D01*
Y10965D01*
X16378Y10919D01*
X16240D01*
X16332D02*
X16424Y10827D01*
X16516D02*
X16607D01*
X16562D01*
Y11102D01*
X16516Y11056D01*
X13963Y11253D02*
X13917Y11299D01*
X13825D01*
X13780Y11253D01*
Y11070D01*
X13825Y11024D01*
X13917D01*
X13963Y11070D01*
X14055Y11024D02*
X14147D01*
X14101D01*
Y11299D01*
X14055Y11253D01*
X4626Y13386D02*
Y13661D01*
X4810Y13386D01*
Y13661D01*
X5039Y13386D02*
X4947D01*
X4901Y13432D01*
Y13524D01*
X4947Y13569D01*
X5039D01*
X5085Y13524D01*
Y13478D01*
X4901D01*
X5223Y13386D02*
X5315D01*
X5361Y13432D01*
Y13524D01*
X5315Y13569D01*
X5223D01*
X5177Y13524D01*
Y13432D01*
X5223Y13386D01*
X5452Y13294D02*
Y13569D01*
X5590D01*
X5636Y13524D01*
Y13432D01*
X5590Y13386D01*
X5452D01*
X5728D02*
X5820D01*
X5774D01*
Y13569D01*
X5728D01*
X5958D02*
X6141Y13386D01*
X6049Y13478D01*
X6141Y13569D01*
X5958Y13386D01*
X6371D02*
X6279D01*
X6233Y13432D01*
Y13524D01*
X6279Y13569D01*
X6371D01*
X6417Y13524D01*
Y13478D01*
X6233D01*
X6509Y13386D02*
X6600D01*
X6554D01*
Y13661D01*
X6509D01*
X7151D02*
X7060D01*
X7014Y13615D01*
Y13432D01*
X7060Y13386D01*
X7151D01*
X7197Y13432D01*
Y13615D01*
X7151Y13661D01*
X7289Y13569D02*
Y13432D01*
X7335Y13386D01*
X7473D01*
Y13569D01*
X7611Y13615D02*
Y13569D01*
X7565D01*
X7657D01*
X7611D01*
Y13432D01*
X7657Y13386D01*
X8071Y5197D02*
X8255Y4921D01*
Y5197D02*
X8071Y4921D01*
X8346D02*
X8438D01*
X8392D01*
Y5197D01*
X8346Y5151D01*
X6188Y11398D02*
X6096D01*
X6142D01*
Y11168D01*
X6096Y11122D01*
X6050D01*
X6004Y11168D01*
X6279Y11122D02*
X6371D01*
X6325D01*
Y11398D01*
X6279Y11352D01*
X17507Y11299D02*
X17415D01*
X17461D01*
Y11070D01*
X17415Y11024D01*
X17369D01*
X17323Y11070D01*
X17782Y11024D02*
X17598D01*
X17782Y11207D01*
Y11253D01*
X17736Y11299D01*
X17644D01*
X17598Y11253D01*
X17421Y4508D02*
Y4232D01*
X17559D01*
X17605Y4278D01*
Y4324D01*
X17559Y4370D01*
X17421D01*
X17559D01*
X17605Y4416D01*
Y4462D01*
X17559Y4508D01*
X17421D01*
X17697D02*
X17880D01*
X17789D01*
Y4232D01*
X17972D02*
X18064D01*
X18018D01*
Y4508D01*
X17972Y4462D01*
X15436Y9960D02*
Y10236D01*
X15574D01*
X15619Y10190D01*
Y10098D01*
X15574Y10052D01*
X15436D01*
X15528D02*
X15619Y9960D01*
X15849D02*
Y10236D01*
X15711Y10098D01*
X15895D01*
X12254Y7326D02*
Y7096D01*
X12300Y7050D01*
X12391D01*
X12437Y7096D01*
Y7326D01*
X12713Y7050D02*
X12529D01*
X12713Y7234D01*
Y7280D01*
X12667Y7326D01*
X12575D01*
X12529Y7280D01*
X12314Y10876D02*
Y10646D01*
X12360Y10600D01*
X12451D01*
X12497Y10646D01*
Y10876D01*
X12589Y10830D02*
X12635Y10876D01*
X12727D01*
X12773Y10830D01*
Y10784D01*
X12727Y10738D01*
X12681D01*
X12727D01*
X12773Y10692D01*
Y10646D01*
X12727Y10600D01*
X12635D01*
X12589Y10646D01*
X8904Y10892D02*
Y10663D01*
X8950Y10617D01*
X9041D01*
X9087Y10663D01*
Y10892D01*
X9317Y10617D02*
Y10892D01*
X9179Y10754D01*
X9363D01*
X6987Y7081D02*
X6941Y7127D01*
X6849D01*
X6803Y7081D01*
Y6897D01*
X6849Y6851D01*
X6941D01*
X6987Y6897D01*
X7262Y6851D02*
X7079D01*
X7262Y7035D01*
Y7081D01*
X7216Y7127D01*
X7125D01*
X7079Y7081D01*
X5217D02*
X5171Y7127D01*
X5079D01*
X5033Y7081D01*
Y6897D01*
X5079Y6851D01*
X5171D01*
X5217Y6897D01*
X5309Y7081D02*
X5355Y7127D01*
X5446D01*
X5492Y7081D01*
Y7035D01*
X5446Y6989D01*
X5401D01*
X5446D01*
X5492Y6943D01*
Y6897D01*
X5446Y6851D01*
X5355D01*
X5309Y6897D01*
X16984Y9926D02*
Y9696D01*
X17030Y9650D01*
X17121D01*
X17167Y9696D01*
Y9926D01*
X17259Y9650D02*
X17351D01*
X17305D01*
Y9926D01*
X17259Y9880D01*
X17074Y7429D02*
Y7153D01*
X17212D01*
X17258Y7199D01*
Y7383D01*
X17212Y7429D01*
X17074D01*
X17350Y7153D02*
X17442D01*
X17396D01*
Y7429D01*
X17350Y7383D01*
X17136Y6012D02*
Y6288D01*
X17274D01*
X17320Y6242D01*
Y6150D01*
X17274Y6104D01*
X17136D01*
X17228D02*
X17320Y6012D01*
X17595D02*
X17412D01*
X17595Y6196D01*
Y6242D01*
X17549Y6288D01*
X17457D01*
X17412Y6242D01*
D39*
X15512Y7106D02*
X16772D01*
Y6476D02*
Y7106D01*
X15512Y6476D02*
X16772D01*
X15512D02*
Y7106D01*
Y8386D02*
X16772D01*
Y7756D02*
Y8386D01*
X15512Y7756D02*
X16772D01*
X15512D02*
Y8386D01*
X16693Y10561D02*
X16772D01*
X16693Y10305D02*
X16772D01*
X14954Y13350D02*
X15754D01*
Y13600D01*
X14954Y13350D02*
Y13600D01*
X17904Y11450D02*
Y13600D01*
X12804Y11450D02*
X17904D01*
X12804D02*
Y13600D01*
X17904D01*
X15413Y9035D02*
X16673D01*
X15413D02*
Y9665D01*
X16673D01*
Y9035D02*
Y9665D01*
X12333Y5552D02*
X14833D01*
X12333Y6652D02*
X14833D01*
Y5552D02*
Y6652D01*
X12333Y5552D02*
Y6652D01*
X12608Y9754D02*
Y10030D01*
X12884D01*
X12608Y8278D02*
Y8553D01*
Y8278D02*
X12884D01*
X14360D02*
Y8553D01*
X14085Y8278D02*
X14360D01*
Y9754D02*
Y10030D01*
X14085D02*
X14360D01*
X9843Y7638D02*
Y10276D01*
X11024Y7638D02*
Y10276D01*
X9843D02*
X11024D01*
X9843Y7638D02*
X11024D01*
X6787Y5454D02*
Y6554D01*
Y5454D02*
X7387D01*
X6787Y6554D02*
X7387D01*
Y5454D02*
Y6554D01*
X5015Y5454D02*
Y6554D01*
Y5454D02*
X5615D01*
X5015Y6554D02*
X5615D01*
Y5454D02*
Y6554D01*
D40*
X8081Y11978D02*
Y13218D01*
D41*
X17414Y8784D02*
X17625D01*
X16960Y8295D02*
Y8634D01*
X18080Y8295D02*
Y8634D01*
M02*
